<svg version="1.1" xmlns="http://www.w3.org/2000/svg" xmlns:xlink="http://www.w3.org/1999/xlink" width="364" height="107" viewBox="0,0,364,107"><defs><linearGradient x1="320" y1="128.5" x2="320" y2="232.00006" gradientUnits="userSpaceOnUse" id="color-1"><stop offset="0" stop-color="#68682e"/><stop offset="1" stop-color="#303015"/></linearGradient><linearGradient x1="205.00001" y1="184.68663" x2="205.00001" y2="224.5115" gradientUnits="userSpaceOnUse" id="color-2"><stop offset="0" stop-color="#000000" stop-opacity="0"/><stop offset="1" stop-color="#000000" stop-opacity="0.54118"/></linearGradient><linearGradient x1="205.00005" y1="136.43661" x2="205.00005" y2="213.0115" gradientUnits="userSpaceOnUse" id="color-3"><stop offset="0" stop-color="#1c1c00" stop-opacity="0.55294"/><stop offset="1" stop-color="#1c1c00" stop-opacity="0"/></linearGradient><linearGradient x1="205.50004" y1="225.2615" x2="205.50004" y2="148.68661" gradientUnits="userSpaceOnUse" id="color-4"><stop offset="0" stop-color="#1c1c00" stop-opacity="0.30196"/><stop offset="1" stop-color="#1c1c00" stop-opacity="0"/></linearGradient><linearGradient x1="205.00001" y1="136.35118" x2="205.00001" y2="224.5115" gradientUnits="userSpaceOnUse" id="color-5"><stop offset="0" stop-color="#ffff94"/><stop offset="1" stop-color="#cccc48"/></linearGradient><linearGradient x1="452.47906" y1="148.18789" x2="452.47906" y2="212.38404" gradientTransform="translate(-237.47255,-146.80082) scale(0.90812,0.7477)" gradientUnits="userSpaceOnUse" id="color-6"><stop offset="0" stop-color="#ffffff"/><stop offset="1" stop-color="#fdff9d"/></linearGradient></defs><g transform="translate(-128.25,-126.75005)"><g stroke-miterlimit="10"><path d="M130,232.00006v-103.5h360.5v103.5z" fill="url(#color-1)" fill-rule="nonzero" stroke="#252510" stroke-width="3.5" stroke-linecap="butt" stroke-linejoin="miter"/><path d="M178.43044,136.35118h53.13923c10.38871,0 18.75214,8.13434 18.75214,18.23841v51.68346c0,10.10407 -8.36346,18.23841 -18.75214,18.23841h-53.13923c-10.38868,0 -18.75217,-8.13434 -18.75217,-18.23841v-51.68346c0,-10.10407 8.36349,-18.23841 18.75217,-18.23841z" fill="#6e6e30" fill-rule="evenodd" stroke="none" stroke-width="4.43922" stroke-linecap="round" stroke-linejoin="round"/><path d="M250.32181,206.27307c0,10.10407 -8.36346,18.23841 -18.75214,18.23841h-53.13923c-10.38868,0 -18.75217,-8.13434 -18.75217,-18.23841v-21.58645c18.06815,0.09223 37.35897,0.267 55.17088,0.26802c11.82421,0.00067 23.64844,-0.01273 35.47267,-0.02123z" fill="url(#color-2)" fill-rule="nonzero" stroke="none" stroke-width="4.43922" stroke-linecap="butt" stroke-linejoin="miter"/><path d="M178.08754,137.11351c0,0 -8.05558,7.54324 -8.33307,16.46965c-0.39756,12.78921 -0.72638,28.41772 -4.23301,28.76861c-3.3171,0.33192 -3.1024,-13.4702 -3.68173,-25.86175c-0.15377,-3.28895 -0.41765,-6.47361 -0.70454,-9.27859c1.42204,-1.11792 2.41833,-2.75301 2.70544,-4.62186c1.43487,-0.64268 2.62425,-1.73534 3.38863,-3.09846c1.72237,-0.26413 3.24631,-1.1306 4.35002,-2.37761z" fill="#ffff94" fill-rule="nonzero" stroke="none" stroke-width="0" stroke-linecap="butt" stroke-linejoin="miter"/><path d="M173.87431,176.14517c0,0 6.70989,25.51523 0.85457,25.90687c-5.94419,0.39758 -0.85457,-25.90687 -0.85457,-25.90687z" fill="#ffff94" fill-rule="nonzero" stroke="none" stroke-width="0" stroke-linecap="butt" stroke-linejoin="miter"/><path d="M168.40225,143.12106l33.94565,-0.53584c0,0 -5.57733,5.56766 -7.78635,11.82991c-2.27466,6.44833 -1.28589,13.60084 -8.63226,13.89521c-8.41127,0.17652 -7.96475,-8.31966 -10.28204,-15.29332c-1.84531,-5.55325 -7.24499,-9.89597 -7.24499,-9.89597z" fill="#ffff94" fill-rule="nonzero" stroke="none" stroke-width="0" stroke-linecap="butt" stroke-linejoin="miter"/><path d="M242.09982,151.4589c-3.25619,1.37412 -8.07183,-3.02822 -14.07533,-3.36357c-2.58811,-0.14457 -5.24849,3.73357 -8.34538,3.75489c-4.83421,0.03328 -5.6472,-3.46288 -11.48056,-3.42075c-7.79407,0.05629 -4.00009,-4.18622 -9.49016,-4.49126c-0.42824,-0.02379 -24.597,6.85293 -25.01175,6.84039c-2.99325,-0.09046 -1.94054,3.2349 -1.75522,6.73721c0.20318,3.8398 -0.37096,7.86283 -2.10977,7.12443c-0.81208,-0.34486 -0.36059,-2.54418 -0.82566,-4.66289c-0.23623,-1.07622 -1.35855,-2.02338 -1.67223,-2.91793c-1.39706,-3.98409 -3.03493,-9.07612 -4.18643,-12.30446c0.33771,-0.66924 3.31758,-3.90073 4.08196,-5.26384c0.8436,-0.12937 3.49582,-1.8574 5.99779,-2.54651c2.6063,-0.71785 4.58168,-0.60551 7.41855,-0.70534c6.76077,-0.23791 16.23925,-0.00124 22.09277,-0.00124c6.53791,0 18.3667,-0.42877 26.08862,-0.1798c5.45191,0.17578 7.76055,0.63839 7.76055,0.63839c0.86962,0.60266 2.39767,1.43803 3.48551,1.61591c0.53296,0.36334 1.11657,0.65789 1.73805,0.87089c0.86764,1.2608 2.12147,2.23522 3.59075,2.75252c0.30513,0.49566 0.66788,0.95206 1.07891,1.35987c0.34515,0.98806 0.89686,1.87919 1.60337,2.62165c0.117,0.33569 0.25784,0.6602 0.42048,0.97152c-1.31449,1.66683 -3.33672,3.27518 -6.40482,4.56993z" fill="#ffff94" fill-rule="nonzero" stroke="none" stroke-width="0" stroke-linecap="butt" stroke-linejoin="miter"/><path d="M233.3039,152.76146c0,0 6.47815,19.04953 0.82506,19.34192c-5.7389,0.29684 -0.82506,-19.34192 -0.82506,-19.34192z" fill="#ffff94" fill-rule="nonzero" stroke="none" stroke-width="0" stroke-linecap="butt" stroke-linejoin="miter"/><path d="M250.19977,175.48801c0,0 -6.46264,-3.98442 -6.06614,-10.95027c0.34262,-6.01924 2.06458,-13.45753 3.5806,-19.03993c0.11797,0.1446 0.24138,0.28459 0.36991,0.41966c0.29857,0.85662 0.75235,1.6405 1.32767,2.31794c0.14332,0.75783 0.40384,1.47423 0.76201,2.12962z" fill="#ffff94" fill-rule="nonzero" stroke="none" stroke-width="0" stroke-linecap="butt" stroke-linejoin="miter"/><path d="M250.32182,212.76471c-11.82423,-0.0085 -72.5754,0.15456 -90.64355,0.24679v-58.33645c0,-10.10407 8.36349,-18.23841 18.75217,-18.23841h53.13923c10.38868,0 18.75214,8.13434 18.75214,18.23841z" fill="url(#color-3)" fill-rule="nonzero" stroke="none" stroke-width="4.43922" stroke-linecap="butt" stroke-linejoin="miter"/><path d="M250.82181,207.02307c0,10.10407 -8.36346,18.23841 -18.75214,18.23841h-53.13923c-10.38868,0 -18.75217,-8.13434 -18.75217,-18.23841v-58.33645c18.06815,0.09223 78.81932,0.25529 90.64355,0.24679z" fill="url(#color-4)" fill-rule="nonzero" stroke="none" stroke-width="4.43922" stroke-linecap="butt" stroke-linejoin="miter"/><path d="M178.43044,136.35118h53.13923c10.38871,0 18.75214,8.13434 18.75214,18.23841v51.68346c0,10.10407 -8.36346,18.23841 -18.75214,18.23841h-53.13923c-10.38868,0 -18.75217,-8.13434 -18.75217,-18.23841v-51.68346c0,-10.10407 8.36349,-18.23841 18.75217,-18.23841z" fill="none" fill-rule="evenodd" stroke="url(#color-5)" stroke-width="2.5" stroke-linecap="round" stroke-linejoin="round"/><text transform="translate(261.50002,196.33583) scale(1.10118,1.33743)" font-size="40" xml:space="preserve" fill="url(#color-6)" fill-rule="nonzero" stroke="none" stroke-width="1" stroke-linecap="butt" stroke-linejoin="miter" font-family="&quot;Allan-Bold&quot;, Sans Serif" font-weight="normal" text-anchor="start"><tspan x="0" dy="0">The laboratory</tspan></text><g fill-rule="nonzero" stroke="none" stroke-linecap="butt" stroke-linejoin="miter"><path d="M234.37924,191.36113c2.15034,13.25894 -7.33004,25.82768 -21.17501,28.07306c-13.84498,2.24538 -26.81174,-6.68288 -28.96207,-19.94182c-2.15034,-13.25894 7.33004,-25.82768 21.17502,-28.07306c13.84498,-2.24538 26.81174,6.68288 28.96207,19.94182z" fill="#fcff63" stroke-width="0"/><path d="M237.76285,165.22059c1.54985,9.55636 -3.24856,19.37481 -2.95008,28.6837c0.2355,7.34473 -17.037,6.27527 -25.06462,7.57719c-7.75142,1.25713 -21.90813,9.80308 -24.09924,3.03976c-3.12911,-9.6586 -12.34791,-18.77325 -13.93968,-28.58807c-2.76811,-17.06814 9.7745,-33.3027 28.0147,-36.2609c18.2402,-2.95819 35.27081,8.48018 38.03892,25.54832z" fill="#fcff63" stroke-width="0"/><path d="M213.48274,194.68094c0.06143,0.5545 0.22169,1.76103 -0.12208,2.27886c-0.65015,0.97933 -2.1825,0.80616 -3.19053,0.78183c-2.70677,-0.06534 -6.92613,0.97072 -6.07573,-2.84163c-1.99493,-0.28651 -4.0012,-0.93186 -5.82269,-1.51707c0,0 -0.51024,-0.16893 -0.34132,-0.67917c0.16893,-0.51024 0.67918,-0.34133 0.67918,-0.34133c3.88886,1.31771 9.29327,3.13269 12.62773,-0.4077c0.27253,-0.27582 0.47761,-0.61913 0.64055,-0.97098l-0.01897,-0.07176c0,0 0.06557,-0.53347 0.59904,-0.46789c0.53347,0.06558 0.46789,0.59904 0.46789,0.59904l-0.07726,0.40243c-0.21963,0.45199 -0.49179,0.88851 -0.8364,1.25425c-0.23542,0.24093 -0.47749,0.46006 -0.72552,0.65885c0.8239,0.19495 1.46494,0.53395 2.19611,1.32227zM210.19552,196.66696c0.40534,0.0086 2.06245,0.14603 2.22962,-0.23663c0.13753,-0.3148 0.07626,-0.95433 0.07801,-1.30674c-0.77319,-0.7117 -1.5442,-0.77222 -2.55602,-0.8966l-0.01759,-0.00216c-1.47697,0.72924 -3.10048,0.91233 -4.75656,0.79281c-0.65565,2.82976 2.94395,1.60524 5.02254,1.64932z" fill="#1c1c00" stroke-width="0.5"/><path d="M228.7467,194.01088c-0.53347,-0.06558 -0.46789,-0.59904 -0.46789,-0.59904l0.04372,-0.35565c0.14384,-1.0725 -0.01819,-2.11467 -0.3766,-3.13111c-2.59452,-4.47848 -7.92688,-4.01956 -9.13431,1.17936c0,0 -0.12409,0.52297 -0.64705,0.39888c-0.52296,-0.12409 -0.39887,-0.64706 -0.39887,-0.64706c1.48889,-6.16014 8.10006,-6.74452 11.15679,-1.38054c0.43747,1.22387 0.61433,2.42102 0.46698,3.71162l-0.04372,0.35564c0,0 -0.06557,0.53347 -0.59904,0.46789z" fill="#1c1c00" stroke-width="0.5"/><path d="M207.58566,194.56085c0.21872,-0.0172 0.43743,-0.03441 0.65615,-0.05161c0,0 0.10536,-0.00793 0.22617,0.02997c0.03814,-0.00361 0.07724,-0.00318 0.11682,0.00169c0.29462,0.03622 0.50411,0.30442 0.46789,0.59904c-0.01164,0.09469 -0.04725,0.18059 -0.09999,0.25236c1.15665,-0.19302 2.31322,-0.40042 3.45287,-0.49154l0.22444,0.01708c0,0 0.53347,0.06557 0.46789,0.59904c-0.06558,0.53347 -0.59904,0.46789 -0.59904,0.46789l-0.01266,-0.01208c-2.45542,0.17495 -4.92106,0.89406 -7.37071,0.90536c0,0 -0.53749,0.0011 -0.53858,-0.53638c-0.00109,-0.53749 0.53639,-0.53859 0.53639,-0.53859c0.54632,0.00046 1.09696,-0.03606 1.65002,-0.09501c-0.16869,-0.10802 -0.26994,-0.30642 -0.24387,-0.51851c0.02815,-0.22898 0.19643,-0.40654 0.40833,-0.45729l0.60978,-0.16103l0.00546,0.02066z" fill="#1c1c00" stroke-width="0.5"/><path d="M218.63928,191.92081c-0.79608,0.58915 -0.70526,2.73429 0.21328,3.3406c1.48865,0.98263 5.4499,1.21624 5.7095,-0.98274c0.47742,-3.84261 -2.75761,-3.17342 -5.45402,-2.45412l0.06048,0.0079c0,0 -0.25843,0.20185 -0.52924,0.08836zM218.55052,190.95852l0.28304,-0.1733c3.41073,-0.89029 7.3761,-1.14599 6.79543,3.62462c-0.7535,5.93233 -12.56665,0.89072 -7.61093,-3.36431c0,0 0.26048,-0.20345 0.53245,-0.087z" fill="#1c1c00" stroke-width="0.5"/><path d="M221.35339,192.65896c0.2246,0.3502 0.30904,0.65401 0.29486,0.89898c0.90661,-0.06026 1.80315,-0.1457 2.62084,-0.2073l0.46155,0.04623c0,0 0.53347,0.06557 0.46789,0.59904c-0.06558,0.53347 -0.59905,0.46789 -0.59905,0.46789l-0.24974,-0.04122c-2.04918,0.15391 -4.4899,0.40591 -6.50555,0.17351c0,0 -0.53347,-0.06557 -0.46788,-0.59904c0.06558,-0.53347 0.59904,-0.46789 0.59904,-0.46789c0.32563,0.04309 0.66552,0.07068 1.01504,0.08605c0.19747,-1.13099 1.3524,-2.53205 2.36301,-0.95624z" fill="#1c1c00" stroke-width="0.5"/><path d="M219.88699,208.32526l0.59274,0.07287v0c0.29462,0.03622 0.50411,0.30442 0.46789,0.59904c-0.015,0.12204 -0.06981,0.22947 -0.1498,0.31088l-0.41017,0.42656l-0.03809,-0.03663c-0.02562,0.04247 -0.05126,0.08492 -0.07689,0.12739l-0.54502,0.1588c-0.11046,0.23487 -0.39053,0.29147 -0.39053,0.29147l-0.43639,0.08397c-5.16703,0.38867 -9.34003,-2.18817 -12.00686,-6.48231c0,0 -0.16887,-0.27394 -0.0333,-0.52856c-0.31719,-0.12136 -0.62101,-0.24647 -0.90623,-0.36726c0,0 -0.49492,-0.20961 -0.28531,-0.70453c0.20961,-0.49492 0.70453,-0.28532 0.70453,-0.28532c1.55452,0.65837 4.16937,1.75975 5.79871,0.58688c2.2157,-1.59496 3.08492,-3.81955 6.31817,-3.45042c1.39093,0.17099 2.21251,0.38945 3.43993,1.0633l-0.07489,-0.04794c0,0 0.53347,0.06558 0.46789,0.59905c-0.06558,0.53347 -0.59905,0.46789 -0.59905,0.46789l-0.31198,-0.07708c-0.87047,-0.47953 -1.45427,-0.68473 -2.274,-0.82654c-0.01334,0.24012 -0.21839,0.40027 -0.21839,0.40027c-2.53546,1.97169 -2.24583,6.27277 0.53962,7.59347l0.30886,0.01017c0,0 0.02293,0.00282 0.05869,0.01204c0.03693,-0.00028 0.05986,0.00253 0.05986,0.00253zM218.8201,209.2877l0.07102,-0.01534c0.00785,-0.01431 0.01633,-0.02794 0.02532,-0.04088c-3.28976,-1.64643 -3.74262,-6.53015 -1.00402,-9.07618c-2.52071,-0.10392 -3.25205,2.01999 -5.13237,3.30991c-1.35872,0.9321 -3.09356,0.76617 -4.68142,0.30437c2.44088,3.70244 6.14572,5.86232 10.72147,5.51812z" fill="#1c1c00" stroke-width="0.5"/><path d="M216.74521,205.93379c-0.12006,0.52391 -0.64396,0.40384 -0.64396,0.40384l0.17277,-0.12192c-1.66352,1.01107 -4.21651,1.13798 -6.07152,0.73076c0,0 -0.5239,-0.12005 -0.40384,-0.64396c0.12006,-0.52391 0.64396,-0.40385 0.64396,-0.40385c1.5084,0.36374 3.91744,0.28511 5.26028,-0.59365l0.63846,-0.0152c0,0 0.52391,0.12006 0.40385,0.64396z" fill="#1c1c00" stroke-width="0.5"/><path d="M215.96789,209.85919c-0.26674,-0.03279 -0.23395,-0.29952 -0.23395,-0.29952l0.06498,0.07369c-0.31617,-0.43139 -0.51232,-0.88598 -0.72675,-1.37516c-0.35004,-2.71624 0.04177,-5.40211 0.3759,-8.12018c0,0 0.03279,-0.26673 0.29952,-0.23394c0.26674,0.03279 0.23395,0.29952 0.23395,0.29952c-0.32616,2.65323 -0.7009,5.25966 -0.39141,7.91104c0.19164,0.42463 0.36338,0.82495 0.64146,1.19982l0.03583,0.31079c0,0 -0.03279,0.26673 -0.29952,0.23394z" fill="#1c1c00" stroke-width="0.5"/><path d="M212.43609,203.34787c0.26674,0.03279 0.23395,0.29953 0.23395,0.29953l-0.01789,0.03251c0.29944,1.54712 0.79682,3.37733 0.60587,4.97369c0,0 -0.03278,0.26674 -0.29952,0.23395c-0.26674,-0.03279 -0.23394,-0.29952 -0.23394,-0.29952c0.19053,-1.50413 -0.28956,-3.34728 -0.59924,-4.80163l0.01126,-0.20458c0,0 0.03278,-0.26674 0.29952,-0.23395z" fill="#1c1c00" stroke-width="0.5"/><path d="M210.20302,206.83547c-0.25323,0.08996 -0.3432,-0.16327 -0.3432,-0.16327l-0.09958,-0.28839c-0.14663,-0.72547 -0.42806,-1.44547 -0.34831,-2.17422c0,0 0.03278,-0.26674 0.29952,-0.23395c0.26674,0.03279 0.23394,0.29953 0.23394,0.29953c-0.08976,0.63884 0.21103,1.35571 0.34169,2.00215l0.07923,0.21495c0,0 0.08995,0.25323 -0.16328,0.34319z" fill="#1c1c00" stroke-width="0.5"/><path d="M223.76479,156.22256c-0.04302,-0.26528 0.22225,-0.3083 0.22225,-0.3083l-0.05707,0.089c1.4269,-1.96441 -0.37572,-4.34008 -2.1478,-5.58053c-2.69513,-1.41211 -5.94339,-3.09095 -4.00329,-6.82388c0,0 0.12474,-0.23803 0.36278,-0.11328c0.23803,0.12474 0.11329,0.36278 0.11329,0.36278c-1.82551,3.45091 1.39276,4.84987 3.80642,6.1151c2.04568,1.42592 3.91962,4.09389 2.30459,6.35412l-0.29288,0.12724c0,0 -0.26527,0.04303 -0.30829,-0.22225z" fill="#1c1c00" stroke-width="0.5"/><path d="M215.53306,144.82217c0.26528,-0.04302 0.3083,0.22225 0.3083,0.22225l0.05737,0.3537c0.25982,1.60202 0.69788,3.58438 2.10977,4.54738c1.45346,1.05712 5.8764,3.12052 3.40038,5.55463c0,0 -0.19686,0.18294 -0.3798,-0.01392c-0.18294,-0.19686 0.01391,-0.3798 0.01391,-0.3798c2.21069,-1.88656 -2.33669,-4.00079 -3.3488,-4.72492c-1.51649,-1.13525 -2.03337,-3.09288 -2.32601,-4.89733l-0.05736,-0.3537c0,0 -0.04303,-0.26528 0.22225,-0.3083z" fill="#1c1c00" stroke-width="0.5"/><path d="M196.0174,169.59595c0.22548,0.14622 0.07927,0.3717 0.07927,0.3717l-0.09921,0.14661c-0.9545,2.16952 -2.27205,3.4282 -4.39843,4.41947c-3.06862,0.69627 -6.95244,1.27238 -8.20583,-2.40186c0,0 -0.08605,-0.25459 0.16854,-0.34064c0.25459,-0.08605 0.34064,0.16854 0.34064,0.16854c1.12288,3.35708 4.76634,2.66848 7.52283,2.06535c1.98332,-0.9392 3.18567,-2.09312 4.08025,-4.12727l0.14023,-0.22263c0,0 0.14622,-0.22549 0.3717,-0.07927z" fill="#1c1c00" stroke-width="0.5"/><path d="M195.13892,181.9356c-0.23806,0.1247 -0.36276,-0.11336 -0.36276,-0.11336l-0.19217,-0.37432c-0.06822,-0.42061 -0.23965,-0.73162 -0.30911,-1.15988c-1.55781,-2.97537 1.20989,-6.20188 2.82182,-8.43785c0,0 0.15716,-0.218 0.37516,-0.06085c0.218,0.15715 0.06085,0.37516 0.06085,0.37516c-1.50827,2.0922 -4.21632,5.1518 -2.7479,7.95362c0.06946,0.42827 0.24089,0.73927 0.30911,1.15988l0.15836,0.29484c0,0 0.12471,0.23806 -0.11335,0.36275z" fill="#1c1c00" stroke-width="0.5"/><path d="M192.85855,181.8354c-0.26528,0.04302 -0.3083,-0.22225 -0.3083,-0.22225l-0.05737,-0.3537c-0.0959,-0.59128 -0.30571,-1.09837 -0.38893,-1.69252c-1.84765,-2.58471 -3.38387,-2.62641 -6.60949,-2.10328c0,0 -0.26528,0.04303 -0.3083,-0.22225c-0.04302,-0.26528 0.22225,-0.3083 0.22225,-0.3083c3.42115,-0.55485 5.27942,-0.45216 7.19451,2.43406c0.11182,0.6276 0.31833,1.17625 0.4205,1.80624l0.05737,0.3537c0,0 0.04302,0.26528 -0.22225,0.3083z" fill="#1c1c00" stroke-width="0.5"/><path d="M199.88707,145.64639c-0.15715,0.218 -0.37516,0.06085 -0.37516,0.06085l-0.06002,-0.06027c-0.90548,-0.28295 -1.61548,-0.44636 -2.36241,0.2541c-2.86844,2.07038 -4.26427,3.51427 -7.99025,3.38438c0,0 -0.26856,-0.00984 -0.25872,-0.2784c0.00984,-0.26856 0.2784,-0.25872 0.2784,-0.25872c3.59804,0.13874 4.85753,-1.26849 7.62986,-3.26294c0.88887,-0.81922 1.78711,-0.68776 2.86344,-0.35143l0.21402,0.13729c0,0 0.218,0.15716 0.06084,0.37516z" fill="#1c1c00" stroke-width="0.5"/><path d="M188.00823,154.91274c-0.26528,0.04302 -0.3083,-0.22226 -0.3083,-0.22226l0.02815,-0.31808c1.42087,-1.97096 2.63631,-3.194 5.13579,-3.57118c2.20088,-1.18213 3.511,-3.23496 6.10579,-3.65578c0,0 0.26527,-0.04302 0.30829,0.22225c0.04302,0.26528 -0.22225,0.3083 -0.22225,0.3083c-2.52528,0.40955 -3.83356,2.51172 -6.02191,3.63514c-2.40733,0.41181 -3.48575,1.45582 -4.86971,3.37557l0.0664,-0.08228c0,0 0.04302,0.26528 -0.22225,0.3083z" fill="#1c1c00" stroke-width="0.5"/><path d="M187.38039,153.06455c-0.26526,-0.04307 -0.22219,-0.30834 -0.22219,-0.30834l0.07753,-0.43262c0.20748,-0.29423 0.54314,-1.88537 -0.03376,-1.63616c0,0 -0.26528,0.04302 -0.3083,-0.22225c-0.04302,-0.26528 0.22225,-0.3083 0.22225,-0.3083c1.179,-0.074 1.16591,1.62856 0.61635,2.37244l-0.04354,0.31303c0,0 -0.04307,0.26527 -0.30834,0.22219z" fill="#1c1c00" stroke-width="0.5"/><path d="M215.32996,178.64551c-0.15712,-0.21803 0.06091,-0.37515 0.06091,-0.37515l0.10852,0.01882c0.34109,-2.10065 0.19413,-4.91663 -1.55402,-6.43457c-1.10713,-0.57497 -2.43073,-0.98614 -2.90249,-2.2734c-0.50574,-1.37999 -0.58177,-3.89311 -2.06553,-4.56282c0,0 -0.24459,-0.11136 -0.13324,-0.35594c0.11135,-0.24459 0.35594,-0.13324 0.35594,-0.13324c1.69382,0.77699 1.78856,3.28527 2.34847,4.86975c0.40073,1.13403 1.7407,1.50514 2.70085,2.01238c1.9101,1.68532 2.16079,4.62237 1.78056,6.96398l-0.32483,0.3311c0,0 -0.21803,0.15712 -0.37514,-0.06091z" fill="#1c1c00" stroke-width="0.5"/><path d="M212.40743,163.60029c0.26528,-0.04302 0.3083,0.22225 0.3083,0.22225l0.00077,0.05485c1.16376,2.80032 2.12367,2.98157 4.56267,4.07657c2.54166,1.84739 2.5675,5.08795 6.36084,4.47275c0,0 0.26528,-0.04302 0.3083,0.22226c0.04302,0.26528 -0.22225,0.3083 -0.22225,0.3083c-4.10195,0.66526 -4.01402,-2.61372 -6.71671,-4.53845c-2.50978,-1.16497 -3.54074,-1.50406 -4.78668,-4.32926l-0.03748,-0.18096c0,0 -0.04303,-0.26528 0.22225,-0.3083z" fill="#1c1c00" stroke-width="0.5"/><path d="M220.65428,174.15197c-0.08015,0.25651 -0.33667,0.17636 -0.33667,0.17636l-0.13174,-0.07089c-1.18876,0.19279 -1.66572,0.8043 -1.43787,2.13896c0,0 0.04302,0.26528 -0.22225,0.3083c-0.26528,0.04302 -0.3083,-0.22225 -0.3083,-0.22225c-0.24739,-1.5958 0.38522,-2.51275 1.88238,-2.75556l0.3781,0.08843c0,0 0.25651,0.08015 0.17636,0.33666z" fill="#1c1c00" stroke-width="0.5"/><path d="M199.98744,157.90223c-0.25651,-0.08015 -0.17636,-0.33667 -0.17636,-0.33667l0.11817,-0.33192c0.87159,-1.1795 0.54548,-2.54889 2.38636,-2.88679c0,0 0.26528,-0.04303 0.3083,0.22225c0.04302,0.26528 -0.22225,0.3083 -0.22225,0.3083c-1.55935,0.20696 -1.32053,1.6582 -2.03641,2.67055l-0.04115,0.17792c0,0 -0.08015,0.25651 -0.33666,0.17636z" fill="#1c1c00" stroke-width="0.5"/><path d="M202.70125,158.21687c-0.26528,0.04302 -0.30829,-0.22226 -0.30829,-0.22226l0.02815,-0.31808c0.52238,-0.60596 0.25828,-1.55415 1.22128,-2.07886c0,0 0.23806,-0.12471 0.36276,0.11335c0.1247,0.23806 -0.11336,0.36276 -0.11336,0.36276c-0.86387,0.42776 -0.61072,1.26745 -1.03469,1.91706l0.0664,-0.08228c0,0 0.04302,0.26528 -0.22225,0.3083z" fill="#1c1c00" stroke-width="0.5"/><path d="M177.79964,164.52418c-0.04302,-0.26528 0.22226,-0.3083 0.22226,-0.3083l-0.05708,0.089c1.25677,-1.67881 1.34704,-3.13996 0.9978,-5.29337c0,0 -0.04302,-0.26528 0.22225,-0.3083c0.26528,-0.04302 0.3083,0.22225 0.3083,0.22225c0.37997,2.34288 0.18087,3.82701 -1.09235,5.69373l-0.29288,0.12724c0,0 -0.26528,0.04302 -0.3083,-0.22225z" fill="#1c1c00" stroke-width="0.5"/><path d="M179.43411,165.90364c-0.218,-0.15715 -0.06085,-0.37516 -0.06085,-0.37516l0.18313,-0.2518c1.06307,-2.33507 1.51977,-3.48013 1.73941,-6.10458c0,0 0.0226,-0.26779 0.29039,-0.24519c0.26779,0.0226 0.24519,0.29039 0.24519,0.29039c-0.22848,2.68326 -0.72024,3.93522 -1.81014,6.32921l-0.21198,0.29629c0,0 -0.15716,0.218 -0.37516,0.06085z" fill="#1c1c00" stroke-width="0.5"/><path d="M207.8165,181.79849c0.1247,0.23806 -0.11336,0.36276 -0.11336,0.36276l-0.30408,0.1566c-0.80269,0.74067 -1.98074,1.05223 -2.8369,1.77999c0,0 -0.20533,0.17337 -0.37871,-0.03196c-0.17337,-0.20533 0.03196,-0.37871 0.03196,-0.37871c0.86848,-0.7289 2.07105,-1.05702 2.87325,-1.80811l0.36507,-0.19392c0,0 0.23806,-0.1247 0.36276,0.11336z" fill="#1c1c00" stroke-width="0.5"/><path d="M208.45462,184.17779c0.04302,0.26528 -0.22225,0.3083 -0.22225,0.3083l0.05708,-0.089c-0.55969,0.77052 -1.44785,1.19201 -2.20856,1.7402c0,0 -0.21803,0.15712 -0.37515,-0.06091c-0.15712,-0.21803 0.06091,-0.37515 0.06091,-0.37515c0.70269,-0.50637 1.57578,-0.9033 2.08679,-1.61846l0.29287,-0.12724c0,0 0.26528,-0.04302 0.3083,0.22226z" fill="#1c1c00" stroke-width="0.5"/><path d="M184.45187,188.00862c0.04302,0.26528 -0.22226,0.30829 -0.22226,0.30829l-0.45849,0.05364c-1.42141,-0.94174 -1.9551,-2.76365 -3.17101,-3.92995c0,0 -0.19358,-0.1864 -0.00718,-0.37999c0.18641,-0.19359 0.37999,-0.00718 0.37999,-0.00718c1.15731,1.11837 1.70928,2.73954 2.92172,3.79403l0.24891,-0.06109c0,0 0.26528,-0.04302 0.3083,0.22226z" fill="#1c1c00" stroke-width="0.5"/><path d="M185.4338,186.34784c-0.15715,0.218 -0.37515,0.06085 -0.37515,0.06085l-0.09122,-0.07219c-0.91415,-0.42816 -1.58675,-1.63598 -1.75359,-2.60416c0,0 -0.04303,-0.26528 0.22225,-0.3083c0.26528,-0.04302 0.3083,0.22225 0.3083,0.22225c0.11545,0.77109 0.70406,1.87565 1.44574,2.20103l0.18283,0.12536c0,0 0.21799,0.15716 0.06084,0.37516z" fill="#1c1c00" stroke-width="0.5"/><path d="M232.05865,166.88682c-0.26528,0.04302 -0.3083,-0.22226 -0.3083,-0.22226l-0.04982,-0.32062c-0.52117,-1.18318 -0.46786,-2.35591 -1.51503,-3.10512c0,0 -0.218,-0.15716 -0.06085,-0.37516c0.15715,-0.218 0.37516,-0.06085 0.37516,-0.06085c1.18633,0.86283 1.14308,2.07765 1.71619,3.38891l0.0649,0.38678c0,0 0.04302,0.26528 -0.22225,0.3083z" fill="#1c1c00" stroke-width="0.5"/><path d="M231.81327,160.84004c0.22426,-0.14809 0.37235,0.07617 0.37235,0.07617l0.0641,0.12879c1.24364,0.91942 2.13583,2.8707 2.39236,4.42459c0,0 0.04303,0.26528 -0.22225,0.3083c-0.26528,0.04302 -0.3083,-0.22225 -0.3083,-0.22225c-0.22118,-1.39162 -1.04554,-3.28528 -2.17612,-4.07464l-0.19831,-0.26862c0,0 -0.14809,-0.22426 0.07617,-0.37234z" fill="#1c1c00" stroke-width="0.5"/><path d="M223.41782,211.09343c0.26362,0.0522 0.21142,0.31583 0.21142,0.31583l-0.07808,0.23421c-1.24912,1.53712 -2.55875,2.92689 -4.63668,2.51542c-2.2115,-0.43792 -4.74607,1.58704 -7.18945,-0.73909c0,0 -0.19039,-0.18967 -0.00072,-0.38006c0.18966,-0.19039 0.38006,-0.00072 0.38006,-0.00072c2.17344,2.31148 4.79321,0.17257 6.91452,0.59264c1.84786,0.36591 3.00003,-0.94824 4.11477,-2.32667l-0.03167,-0.00012c0,0 0.0522,-0.26362 0.31583,-0.21142z" fill="#1c1c00" stroke-width="0.5"/><path d="M203.82927,208.54523c-0.26528,0.04302 -0.3083,-0.22226 -0.3083,-0.22226l-0.05737,-0.3537c-0.13226,-0.87649 -0.92879,-1.69682 -1.36075,-2.46143c-1.89005,-3.34736 -4.08418,-2.01035 -7.19885,-0.84446c0,0 -0.25168,0.09421 -0.34589,-0.15748c-0.09421,-0.25169 0.15747,-0.3459 0.15747,-0.3459c3.35085,-1.2543 5.80571,-2.54633 7.8553,1.08357c0.47612,0.84372 1.25808,1.67401 1.42327,2.63965l0.05737,0.3537c0,0 0.04302,0.26528 -0.22225,0.3083z" fill="#1c1c00" stroke-width="0.5"/><path d="M235.77145,150.85357c-0.35356,-0.35356 0,-0.70711 0,-0.70711l0.37995,-0.34366c0.38064,-0.18931 0.71361,-0.34801 1.08128,-0.42657c-0.89127,-0.68263 -4.05544,-3.18265 -3.5902,-4.25724c0.71337,-1.64771 2.86879,-0.70255 4.00893,-1.31619c0,0 0.44721,-0.2236 0.67082,0.22361c0.2236,0.44721 -0.22361,0.67082 -0.22361,0.67082c-0.98932,0.47036 -2.64406,-0.0841 -3.49107,0.68381c-0.09861,0.08939 2.83621,2.89208 3.18162,3.18237l0.71211,0.20269c0.21501,0.05595 0.37374,0.2514 0.37374,0.48392c0,0.17631 -0.09125,0.3313 -0.2291,0.42032l-0.74355,0.4957l-0.0728,-0.10919c-0.33416,0.21413 -0.67248,0.35947 -1.23095,0.64039l-0.12005,0.15634c0,0 -0.35356,0.35356 -0.70711,0z" fill="#fcff63" stroke-width="0.5"/><path d="M176.125,208.50003c0,0.5 -0.5,0.5 -0.5,0.5l-0.4736,-0.05279c-1.67619,-0.83809 -5.75621,-4.19576 -2.75,-5.89443c0.00582,-0.00291 1.0472,-0.31756 0.79828,-0.53992c-2.10848,-1.88348 -6.37638,-6.62626 -1.68147,-8.17098c1.0168,-0.33454 1.79995,-0.34188 2.8568,-0.34188c0,0 0.5,0 0.5,0.5c0,0.5 -0.5,0.5 -0.5,0.5c-0.55664,0 -1.12045,-0.09562 -1.66991,-0.00645c-3.11189,0.50499 -2.66398,3.36475 -0.54545,5.32137c0.35196,0.32506 1.73289,1.23748 1.89068,1.67221c0.4961,1.36682 -0.29727,1.50786 -1.20172,1.96008c-2.02794,0.76448 2.02286,3.742 2.75,4.10557l0.0264,-0.05279c0,0 0.5,0 0.5,0.5z" fill="#fcff63" stroke-width="0.5"/><path d="M168.625,146.5c0.5,0 0.5,0.5 0.5,0.5v0.25c0,1.33311 -0.41545,3.75683 0.37772,4.9224c0.26996,0.39671 1.53549,0.17551 1.73408,0.4825c0.91605,1.41604 -0.81494,3.8694 -1.41459,5.06871c0,0 -0.2236,0.44721 -0.67082,0.22361c-0.44721,-0.2236 -0.22361,-0.67082 -0.22361,-0.67082c0.51056,-1.02112 1.7623,-2.74059 1.58541,-3.93129c-0.09014,-0.60673 -1.38698,-0.03516 -1.76592,-0.5175c-1.05534,-1.3433 -0.62228,-3.98336 -0.62228,-5.5776v-0.25c0,0 0,-0.5 0.5,-0.5z" fill="#fcff63" stroke-width="0.5"/><path d="M245.33149,192.29312c0.13768,0.05446 0.29351,0.17776 0.29351,0.45691c0,0.5 -0.5,0.5 -0.5,0.5l-0.75,-0.5c0.32101,-2.60333 -2.66338,-4.03592 -5,-4c0,0 -0.5,0 -0.5,-0.5c0,-0.5 0.5,-0.5 0.5,-0.5c2.99699,0.03336 5.56186,1.65587 5.95649,4.54309z" fill="#fcff63" stroke-width="0.5"/><path d="M164.625,171.25003c0,-0.5 0.5,-0.5 0.5,-0.5l0.38512,0.01337c0.63115,-0.31557 1.17133,-0.26337 1.86488,-0.26337c0,0 0.5,0 0.5,0.5c0,0.5 -0.5,0.5 -0.5,0.5c-0.64303,0 -1.04896,-0.05646 -1.63512,0.23663l-0.61488,0.01337c0,0 -0.5,0 -0.5,-0.5z" fill="#fcff63" stroke-width="0.5"/><path d="M246.625,166.25c0,0.5 -0.5,0.5 -0.5,0.5h-0.5c-0.62894,-0.007 -1.13028,-0.25953 -1.75,-0.25c0,0 -0.5,0 -0.5,-0.5c0,-0.5 0.5,-0.5 0.5,-0.5c0.62894,0.007 1.13028,0.25953 1.75,0.25h0.5c0,0 0.5,0 0.5,0.5z" fill="#fcff63" stroke-width="0.5"/><path d="M177.88042,141.92658c0.07342,-0.49458 0.568,-0.42116 0.568,-0.42116l0.50576,0.10016c0.95634,0.47929 1.38696,0.89443 2.42082,0.89443c0,0 0.5,0 0.5,0.5c0,0.5 -0.5,0.5 -0.5,0.5c-1.20429,0 -1.79403,-0.46434 -2.86803,-1l-0.20539,-0.00542c0,0 -0.49458,-0.07342 -0.42116,-0.568z" fill="#fcff63" stroke-width="0.5"/><path d="M229.375,142c0,0.5 -0.5,0.5 -0.5,0.5l-0.38512,-0.01337c-0.83146,0.44743 -1.13826,0.73996 -2.11488,0.76337c0,0 -0.5,0 -0.5,-0.5c0,-0.5 0.5,-0.5 0.5,-0.5c0.80385,0.0285 1.17103,-0.39516 1.88512,-0.73663l0.61488,-0.01337c0,0 0.5,0 0.5,0.5z" fill="#fcff63" stroke-width="0.5"/><path d="M239.875,200.00003c0,0.5 -0.5,0.5 -0.5,0.5l-0.4736,-0.05279c-0.6602,-0.3301 -1.09486,-0.56727 -1.62995,-1.09366c0,0 -0.35356,-0.35356 0,-0.70711c0.35356,-0.35356 0.70711,0 0.70711,0c0.45131,0.4607 0.80012,0.62138 1.37005,0.90634l0.0264,-0.05279c0,0 0.5,0 0.5,0.5z" fill="#fcff63" stroke-width="0.5"/><path d="M166.02145,186.85356c-0.35355,-0.35355 0,-0.70711 0,-0.70711l0.54289,-0.54289c1.29054,-1.28718 2.28836,-3.78628 4.31066,-3.85355c0,0 0.5,0 0.5,0.5c0,0.5 -0.5,0.5 -0.5,0.5c-1.39875,-0.08451 -2.69686,2.65176 -3.60355,3.56066l-0.54289,0.54289c0,0 -0.35355,0.35355 -0.70711,0z" fill="#fcff63" stroke-width="0.5"/><path d="M246.375,177.75003c0,0.5 -0.5,0.5 -0.5,0.5l-0.56723,-0.11352c-0.78631,-0.66258 -2.67348,-1.42153 -3.68277,-1.38648c0,0 -0.5,0 -0.5,-0.5c0,-0.5 0.5,-0.5 0.5,-0.5c1.31684,0.02865 3.29334,0.79055 4.31723,1.61352l-0.06723,-0.11352c0,0 0.5,0 0.5,0.5z" fill="#fcff63" stroke-width="0.5"/><path d="M242.57221,155.7764c0.22361,0.44721 -0.22361,0.67082 -0.22361,0.67082l-0.5,0.25c-1.07022,0.53511 -1.75367,0.80279 -2.97361,0.80279c0,0 -0.5,0 -0.5,-0.5c0,-0.5 0.5,-0.5 0.5,-0.5c1.06987,0 1.57453,-0.22128 2.52639,-0.69721l0.5,-0.25c0,0 0.44721,-0.22361 0.67082,0.22361z" fill="#fcff63" stroke-width="0.5"/></g></g></g></svg>