<svg version="1.1" xmlns="http://www.w3.org/2000/svg" xmlns:xlink="http://www.w3.org/1999/xlink" width="144.85325" height="45.83424" viewBox="0,0,144.85325,45.83424"><defs><linearGradient x1="262.33967" y1="321.50297" x2="262.33967" y2="341.07846" gradientUnits="userSpaceOnUse" id="color-1"><stop offset="0" stop-color="#000000" stop-opacity="0"/><stop offset="1" stop-color="#000000" stop-opacity="0.54118"/></linearGradient><linearGradient x1="262.05293" y1="297.58068" x2="262.05293" y2="335.38451" gradientUnits="userSpaceOnUse" id="color-2"><stop offset="0" stop-color="#1c1c00" stop-opacity="0.55294"/><stop offset="1" stop-color="#1c1c00" stop-opacity="0"/></linearGradient><linearGradient x1="262.33967" y1="321.75297" x2="262.33967" y2="341.32846" gradientUnits="userSpaceOnUse" id="color-3"><stop offset="0" stop-color="#000000" stop-opacity="0"/><stop offset="1" stop-color="#000000" stop-opacity="0.54118"/></linearGradient><linearGradient x1="262.33967" y1="297.7442" x2="262.33967" y2="341.07846" gradientUnits="userSpaceOnUse" id="color-4"><stop offset="0" stop-color="#ffff94"/><stop offset="1" stop-color="#cccc48"/></linearGradient><linearGradient x1="351.84163" y1="301.47725" x2="351.84163" y2="321.58617" gradientTransform="translate(-813.11488,-755.65641) scale(2.80411,2.38703)" gradientUnits="userSpaceOnUse" id="color-5"><stop offset="0" stop-color="#ffffff"/><stop offset="1" stop-color="#fdff9d"/></linearGradient><linearGradient x1="342.09099" y1="321.15728" x2="342.09099" y2="338.19958" gradientTransform="translate(-958.43533,-940.58931) scale(3.30874,2.81658)" gradientUnits="userSpaceOnUse" id="color-6"><stop offset="0" stop-color="#ffffff"/><stop offset="1" stop-color="#fdff9d"/></linearGradient></defs><g transform="translate(-225.25624,-296.4942)"><g stroke-miterlimit="10"><g><path d="M249.27967,297.7442h26.12002c5.10646,0 9.21741,3.99835 9.21741,8.96489v25.40446c0,4.96655 -4.11096,8.96489 -9.21741,8.96489h-26.12002c-5.10644,0 -9.21743,-3.99836 -9.21743,-8.96489v-25.40445c0,-4.96655 4.11099,-8.96489 9.21743,-8.96489z" fill="#6e6e30" fill-rule="evenodd" stroke="none" stroke-width="4.43922" stroke-linecap="round" stroke-linejoin="round"/><path d="M284.61712,332.11357c0,4.96655 -4.11097,8.96489 -9.21742,8.96489h-26.12002c-5.10644,0 -9.21742,-3.99835 -9.21742,-8.96489v-10.61059c8.88121,0.04533 18.3634,0.13124 27.11866,0.13175c5.81207,0.00033 11.62414,-0.00626 17.43622,-0.01044z" fill="url(#color-1)" fill-rule="nonzero" stroke="none" stroke-width="4.43922" stroke-linecap="butt" stroke-linejoin="miter"/><path d="M249.11113,298.11893c0,0 -3.95964,3.70779 -4.09603,8.09547c-0.19541,6.28641 -0.35704,13.96842 -2.08069,14.1409c-1.63048,0.16315 -1.52495,-6.62113 -1.80971,-12.71206c-0.07558,-1.61665 -0.20529,-3.18203 -0.34631,-4.56079c0.69899,-0.5495 1.1887,-1.35322 1.32983,-2.27183c0.70529,-0.3159 1.28992,-0.85299 1.66564,-1.52301c0.84661,-0.12983 1.59569,-0.55574 2.1382,-1.16868z" fill="#ffff94" fill-rule="nonzero" stroke="none" stroke-width="0" stroke-linecap="butt" stroke-linejoin="miter"/><path d="M247.04016,317.30451c0,0 3.29817,12.54174 0.42005,12.73425c-2.9218,0.19543 -0.42005,-12.73425 -0.42005,-12.73425z" fill="#ffff94" fill-rule="nonzero" stroke="none" stroke-width="0" stroke-linecap="butt" stroke-linejoin="miter"/><path d="M244.35042,301.07187l16.68562,-0.26339c0,0 -2.74147,2.73672 -3.82729,5.81487c-1.11809,3.16961 -0.63207,6.68534 -4.2431,6.83004c-4.13447,0.08676 -3.91499,-4.08944 -5.05403,-7.51727c-0.90704,-2.72964 -3.56119,-4.86426 -3.56119,-4.86426z" fill="#ffff94" fill-rule="nonzero" stroke="none" stroke-width="0" stroke-linecap="butt" stroke-linejoin="miter"/><path d="M280.57568,305.17025c-1.60054,0.67543 -3.96763,-1.48848 -6.91859,-1.65333c-1.27215,-0.07106 -2.57984,1.8352 -4.10209,1.84568c-2.37621,0.01636 -2.77581,-1.70215 -5.64315,-1.68143c-3.83109,0.02767 -1.9662,-2.05769 -4.66479,-2.20763c-0.2105,-0.0117 -12.09039,3.36848 -12.29426,3.36232c-1.47129,-0.04447 -0.95386,1.59008 -0.86276,3.3116c0.09987,1.88741 -0.18234,3.86489 -1.03703,3.50194c-0.39917,-0.16951 -0.17725,-1.25056 -0.40584,-2.29199c-0.11612,-0.529 -0.66779,-0.99457 -0.82196,-1.43428c-0.68671,-1.95834 -1.49179,-4.46127 -2.0578,-6.04812c0.166,-0.32895 1.63072,-1.91736 2.00645,-2.58738c0.41466,-0.06359 1.71834,-0.91299 2.94815,-1.25171c1.2811,-0.35286 2.25208,-0.29763 3.6465,-0.34671c3.32318,-0.11695 7.98224,-0.00061 10.85947,-0.00061c3.21364,0 9.02795,-0.21076 12.82358,-0.08838c2.67982,0.0864 3.81462,0.3138 3.81462,0.3138c0.42745,0.29623 1.17856,0.70685 1.71327,0.79429c0.26197,0.17859 0.54883,0.32338 0.85432,0.42807c0.42648,0.61973 1.04279,1.0987 1.76499,1.35297c0.14999,0.24363 0.32828,0.46797 0.53033,0.66842c0.16966,0.48567 0.44085,0.92369 0.78812,1.28864c0.05751,0.16501 0.12674,0.32452 0.20668,0.47754c-0.64613,0.81931 -1.64014,1.60988 -3.14822,2.2463z" fill="#ffff94" fill-rule="nonzero" stroke="none" stroke-width="0" stroke-linecap="butt" stroke-linejoin="miter"/><path d="M276.25214,305.81051c0,0 3.18427,9.3636 0.40555,9.50731c-2.8209,0.1459 -0.40555,-9.50731 -0.40555,-9.50731z" fill="#ffff94" fill-rule="nonzero" stroke="none" stroke-width="0" stroke-linecap="butt" stroke-linejoin="miter"/><path d="M284.55713,316.98149c0,0 -3.17665,-1.95851 -2.98175,-5.38249c0.16841,-2.9587 1.01483,-6.6149 1.76,-9.35887c0.05799,0.07107 0.11865,0.13989 0.18183,0.20628c0.14675,0.42106 0.3698,0.80636 0.6526,1.13935c0.07045,0.37251 0.1985,0.72464 0.37456,1.04679z" fill="#ffff94" fill-rule="nonzero" stroke="none" stroke-width="0" stroke-linecap="butt" stroke-linejoin="miter"/><path d="M284.42757,335.26266c-5.83743,-0.00419 -35.82934,0.0763 -44.7493,0.12184v-28.79979c0,-4.98822 4.12893,-9.00402 9.25766,-9.00402h26.234c5.12873,0 9.25764,4.0158 9.25764,9.00402z" fill="url(#color-2)" fill-rule="nonzero" stroke="none" stroke-width="4.43922" stroke-linecap="butt" stroke-linejoin="miter"/><path d="M284.61712,332.36357c0,4.96655 -4.11097,8.96489 -9.21742,8.96489h-26.12002c-5.10644,0 -9.21742,-3.99835 -9.21742,-8.96489v-10.61059c8.88121,0.04533 18.3634,0.13124 27.11866,0.13175c5.81207,0.00033 11.62414,-0.00626 17.43622,-0.01044z" fill="url(#color-3)" fill-rule="nonzero" stroke="none" stroke-width="4.43922" stroke-linecap="butt" stroke-linejoin="miter"/><path d="M249.27967,297.7442h26.12002c5.10646,0 9.21741,3.99835 9.21741,8.96489v25.40446c0,4.96655 -4.11096,8.96489 -9.21741,8.96489h-26.12002c-5.10644,0 -9.21743,-3.99836 -9.21743,-8.96489v-25.40445c0,-4.96655 4.11099,-8.96489 9.21743,-8.96489z" fill="none" fill-rule="evenodd" stroke="url(#color-4)" stroke-width="2.5" stroke-linecap="round" stroke-linejoin="round"/></g><text transform="translate(289.97303,316.56714) scale(0.35662,0.41893)" font-size="40" xml:space="preserve" fill="url(#color-5)" fill-rule="nonzero" stroke="none" stroke-width="1" stroke-linecap="butt" stroke-linejoin="miter" font-family="&quot;Allan-Bold&quot;, Sans Serif" font-weight="normal" text-anchor="start"><tspan x="0" dy="0">Kids Table</tspan></text><path d="M225.25624,318.86846c0,-2.02211 1.63925,-3.66135 3.66136,-3.66135c2.02211,0 3.66135,1.63924 3.66135,3.66135c0,2.02211 -1.63924,3.66135 -3.66135,3.66135c-2.02211,0 -3.66136,-1.63924 -3.66136,-3.66135z" fill="#feffce" fill-rule="nonzero" stroke="none" stroke-width="0" stroke-linecap="butt" stroke-linejoin="miter"/><text transform="translate(289.66791,333.94683) scale(0.30223,0.35504)" font-size="40" xml:space="preserve" fill="url(#color-6)" fill-rule="nonzero" stroke="none" stroke-width="1" stroke-linecap="butt" stroke-linejoin="miter" font-family="&quot;Allan-Regular&quot;, Sans Serif" font-weight="normal" text-anchor="start"><tspan x="0" dy="0">round up the children</tspan></text><g fill-rule="nonzero" stroke-width="0.65" stroke-linejoin="miter"><path d="M276.46944,313.69988c0,0.91644 0.02685,3.25219 -0.16068,4.11594c-0.3781,1.74154 -0.90637,3.43264 -1.94078,4.96781c-0.43928,0.65193 -2.70837,6.10809 -3.25322,6.59145c-2.59178,2.29933 -5.46607,3.13898 -9.39887,3.13898c-2.74431,0 -6.15484,-0.42382 -8.57444,-2.9154c-1.5113,-1.55626 -2.3267,-5.06368 -3.30393,-6.25517c-1.07175,-1.30673 -1.9958,-2.68499 -2.0877,-4.67261c-0.0652,-1.41005 0.32832,-2.58943 0.32832,-3.85521c0,-0.66501 -0.2943,-2.72978 -0.19419,-3.36834c0.10012,-0.63857 0.78722,-2.02921 1.18701,-3.22166c0.31739,-0.94669 0.56995,-1.96936 1.07501,-2.63956c1.06619,-1.4148 2.92603,-2.13017 4.54797,-2.88337c2.33706,-1.08529 4.66836,-1.88304 7.52912,-1.88304c1.24132,0 2.44462,0.43803 3.58969,0.72793c1.77501,0.44938 3.52352,0.46156 4.94354,1.45454c1.04289,0.72926 2.44784,1.55816 3.21359,2.62756c0.98172,1.37102 1.19075,2.26563 1.71204,3.8289c0.36874,1.10579 0.78751,3.02491 0.78751,4.24124z" fill="#1c1c00" stroke="none" stroke-linecap="butt"/><path d="M250.91097,320.01121c-0.22904,-2.89465 0.13296,-6.80853 0.13296,-6.80853c0,0 1.35365,-0.01637 5.52252,-1.24793c3.20279,-0.94618 8.15513,-3.76544 8.15513,-3.76544c0,0 -0.85732,1.19269 -1.35255,1.77022c-0.52648,0.61398 -1.58477,1.81102 -1.58477,1.81102c0,0 3.11086,-0.66186 5.82434,-1.87704c3.40074,-1.40332 4.20412,-2.40245 5.13996,-1.82282c1.10452,0.6841 0.40883,9.20111 0.28515,11.40702c-0.16734,2.25008 -1.00545,3.77039 -1.25034,4.96934c-0.2449,1.19896 -0.16257,2.4356 -0.87564,6.36608c-0.11402,0.6285 -1.10276,2.58267 -3.02781,4.01235c-1.59679,1.1859 -3.9616,1.94018 -5.88276,1.9194c-2.08316,-0.02254 -4.41912,-0.76566 -6.08994,-1.97144c-2.18068,-1.57372 -3.42778,-3.77601 -3.52813,-4.57139c-0.30048,-2.38153 -0.3082,-3.93265 -0.44558,-6.052c-0.10041,-1.54897 -0.89746,-2.55801 -1.02254,-4.13883z" fill="#fcff63" stroke="#1c1c00" stroke-linecap="butt"/><path d="M267.91384,313.53142c0,0 0.58501,0.19925 1.62256,0.64386c0.94769,0.4061 1.66806,0.90289 1.66806,0.90289l0.02006,0.47049c0,0 -0.93085,-1.13781 -4.06147,-1.25975c-2.50317,-0.09749 0.75078,-0.7575 0.75078,-0.7575z" fill="#1c1c00" stroke="none" stroke-linecap="butt"/><path d="M258.72854,330.98965c1.65305,0.33338 3.86953,0.91153 3.86953,0.91153c0,0 1.87989,-0.50517 2.7426,-0.59561c0.66884,-0.07012 3.64174,-0.22941 3.65612,-0.10837c0.01405,0.11834 -2.93236,4.18863 -6.86661,4.04148c-4.47085,-0.1415 -7.42394,-4.9144 -7.41165,-4.96932c0.01229,-0.05492 2.35697,0.38692 4.01002,0.7203z" fill="#fcff63" stroke="#1c1c00" stroke-linecap="butt"/><path d="M264.64047,329.49312c0.17499,0.06499 0.94602,0.42934 1.84808,0.7964c0.90925,0.36999 2.21311,0.70347 2.20713,0.75487c-0.00759,0.06524 -3.20134,0.06963 -4.19677,0.19397c-0.83418,0.1042 -2.05205,0.21649 -2.05205,0.21649c0,0 -2.17948,-0.3564 -4.0719,-0.75018c-1.51671,-0.3156 -3.19045,-0.50961 -3.19372,-0.53831c-0.00442,-0.03869 1.18679,-0.21804 2.09362,-0.42787c0.35154,-0.15236 1.66888,-0.45563 1.66888,-0.45563c0,0 1.52043,-0.08519 2.33417,0.17763c0.87192,0.28161 0.86991,0.75029 0.94589,0.7575c0,0 0.36335,-0.53669 0.72676,-0.64569c0.3634,-0.109 1.55918,-0.12772 1.68991,-0.07917z" fill="#fcff63" stroke="#1c1c00" stroke-linecap="butt"/><path d="M261.79889,327.99409c-0.35803,0 -1.22536,-1.1292 -1.31146,-1.85764c-0.07703,-0.65175 0.45547,-1.32576 1.31146,-1.32576c0.856,0 1.45533,0.16997 1.39572,1.45063c-0.05059,1.08686 -0.53973,1.73276 -1.39572,1.73276z" fill="#fcff63" stroke="#1c1c00" stroke-linecap="butt"/><path d="M262.59097,319.51983c0,0 0.02572,0.99508 0.00145,1.78638c-0.04806,1.56692 -0.27108,6.95856 -0.27108,6.95856l-0.7474,0.00217c0,0 -0.20126,-1.04595 -0.28155,-2.38124c-0.10867,-1.80743 -0.11267,-4.08409 -0.19136,-4.92107c-0.07459,-0.79338 -0.22458,-1.43242 -0.22458,-1.43242" fill="#fcff63" stroke="#1c1c00" stroke-linecap="round"/><path d="M251.58555,324.02907c0,0 -1.95753,-1.3959 -2.44653,-3.56214c-0.51452,-2.2793 -0.57993,-3.8629 0.19056,-3.96575c0.77049,-0.10286 1.07289,0.94339 1.48146,3.31634c0.40857,2.37294 0.77451,4.21156 0.77451,4.21156z" fill="#fcff63" stroke="#1c1c00" stroke-linecap="butt"/><path d="M251.50514,322.4623c0,0 -1.41447,-1.16027 -1.71386,-3.35401c-0.16701,-1.22374 0.856,-0.90499 0.856,-0.90499" fill="none" stroke="#1c1c00" stroke-linecap="round"/><path d="M252.70114,319.8206c0.02815,-1.94156 1.92031,-3.5467 4.05285,-3.51578c2.13253,0.03092 3.58287,1.68618 3.55472,3.62774c-0.02815,1.94156 -1.6366,3.49046 -3.76913,3.45954c-2.13253,-0.03092 -3.86659,-1.62993 -3.83843,-3.5715z" fill="#fcff63" stroke="#1c1c00" stroke-linecap="butt"/><path d="M253.57803,320.14047c0.02476,-1.7085 1.42986,-3.07342 3.13835,-3.04866c1.7085,0.02476 3.07342,1.42987 3.04866,3.13835c-0.02476,1.7085 -1.42986,3.07342 -3.13835,3.04866c-1.7085,-0.02476 -3.07342,-1.42987 -3.04866,-3.13835z" fill="#1c1c00" stroke="none" stroke-linecap="butt"/><path d="M263.43966,319.8209c0.08078,-1.94009 1.76723,-3.51588 3.87786,-3.51588c2.11063,0 3.68102,1.57411 3.68102,3.51588c0,1.94177 -1.54228,3.60026 -3.84975,3.62837c-2.19482,0.02675 -3.7935,-1.60224 -3.70913,-3.62837z" fill="#fcff63" stroke="#1c1c00" stroke-linecap="butt"/><path d="M263.6392,320.31978c0,-1.79815 1.45768,-3.25583 3.25583,-3.25583c1.79815,0 3.25583,1.45768 3.25583,3.25583c0,1.79815 -1.45768,3.25583 -3.25583,3.25583c-1.79815,0 -3.25583,-1.45768 -3.25583,-3.25583z" fill="#1c1c00" stroke="none" stroke-linecap="butt"/><path d="M273.11044,319.8175c0.40857,-2.37294 0.71095,-3.41919 1.48146,-3.31634c0.7705,0.10286 0.70508,1.68645 0.19057,3.96576c-0.489,2.16624 -2.44653,3.56215 -2.44653,3.56215c0,0 0.36595,-1.83862 0.77451,-4.21156z" fill="#fcff63" stroke="#1c1c00" stroke-linecap="butt"/><path d="M273.27419,318.20331c0,0 1.02302,-0.31875 0.85601,0.90499c-0.29938,2.19373 -1.71386,3.35401 -1.71386,3.35401" fill="none" stroke="#1c1c00" stroke-linecap="round"/><path d="M255.94362,319.00979c0,0.35228 -0.27289,0.63787 -0.60952,0.63787c-0.33662,0 -0.60952,-0.28559 -0.60952,-0.63787c0,-0.35228 0.27289,-0.63787 0.60952,-0.63787c0.33662,0 0.60952,0.28558 0.60952,0.63787z" fill="#fcff63" stroke="none" stroke-linecap="butt"/><path d="M258.3817,321.85894c0,0.1096 -0.08885,0.19845 -0.19845,0.19845c-0.1096,0 -0.19845,-0.08885 -0.19845,-0.19845c0,-0.1096 0.08885,-0.19845 0.19845,-0.19845c0.1096,0 0.19845,0.08885 0.19845,0.19845z" fill="#fcff63" stroke="none" stroke-linecap="butt"/><path d="M269.15457,319.29328c0,0.35228 -0.27289,0.63787 -0.60952,0.63787c-0.33663,0 -0.60952,-0.28558 -0.60952,-0.63787c0,-0.35228 0.27289,-0.63787 0.60952,-0.63787c0.33663,0 0.60952,0.28558 0.60952,0.63787z" fill="#fcff63" stroke="none" stroke-linecap="butt"/><path d="M266.40465,322.28418c0,0.1096 -0.08885,0.19845 -0.19845,0.19845c-0.1096,0 -0.19845,-0.08885 -0.19845,-0.19845c0,-0.1096 0.08885,-0.19845 0.19845,-0.19845c0.1096,0 0.19845,0.08885 0.19845,0.19845z" fill="#fcff63" stroke="none" stroke-linecap="butt"/><path d="M257.84465,314.40996c-3.13299,-0.00576 -4.10944,1.09316 -4.10944,1.09316l0.03922,-0.46928c0,0 0.74002,-0.46702 1.70348,-0.83415c1.05481,-0.40195 1.64746,-0.57719 1.64746,-0.57719c0,0 3.22434,0.79208 0.71928,0.78747z" fill="#1c1c00" stroke="none" stroke-linecap="butt"/></g></g></g></svg>