<svg version="1.1" xmlns="http://www.w3.org/2000/svg" xmlns:xlink="http://www.w3.org/1999/xlink" width="34.17311" height="34.17311" viewBox="0,0,34.17311,34.17311"><g transform="translate(-302.91346,-162.91346)"><g stroke="none" stroke-miterlimit="10"><path d="M309.98314,162.91347h20.03378c3.9166,0 7.06966,3.15307 7.06966,7.06966v20.03379c0,3.91659 -3.15306,7.06966 -7.06966,7.06966h-20.03378c-3.91659,0 -7.06967,-3.15307 -7.06967,-7.06966v-20.03379c0,-3.91659 3.15308,-7.06966 7.06967,-7.06966z" fill="#787878" fill-rule="evenodd" stroke-width="4.43922" stroke-linecap="round" stroke-linejoin="round"/><g fill="#000000" fill-rule="nonzero" stroke-width="0.5" stroke-linecap="butt" stroke-linejoin="miter"><path d="M320.95257,194.43335c-0.41836,0 -0.41836,-0.41836 -0.41836,-0.41836v-0.31377c0,-0.70743 -0.02128,-1.29152 0.10778,-1.90703c-0.05316,0.00879 -0.10687,0.01598 -0.16126,0.02129c-1.55724,0.15203 -3.19038,0.10476 -4.75725,0.10772c-1.26682,0 -2.77439,0.15901 -3.89132,-0.59204c-0.5064,-0.34051 -0.67485,-0.87816 -1.0897,-1.28829l-0.29206,-0.21807c-0.07381,-0.2832 -0.27421,-0.59824 -0.78506,-0.70273c-0.00426,-0.00769 -0.00719,-0.01531 -0.00843,-0.02278c-0.03775,-0.22843 -0.0323,-0.46612 0.0054,-0.69455c0.03971,-0.24061 0.11052,-0.47392 0.18821,-0.70571c-0.11089,-0.02601 -0.2186,-0.06762 -0.32044,-0.13382c-0.33089,-0.21511 -0.21846,-0.5083 -0.59683,-0.5689c-0.75509,-0.12092 -2.20572,-0.427 -1.75464,-1.61316c0.38619,-1.01556 1.37805,-1.20828 2.3628,-1.22521c-0.29193,-0.3138 -0.53141,-0.68194 -0.70092,-1.10072c-0.31051,-1.26493 0.15526,-3.05245 1.29461,-3.80805c0.13363,-0.08862 0.33069,-0.14539 0.56771,-0.1764c0,-0.2724 0,-0.56286 0,-0.7462c0,0 0,-0.07521 0.03189,-0.16185c0.04942,-1.13607 0.17655,-2.2663 0.50624,-3.29669c0.34386,-1.07467 -0.11267,-2.72521 -0.22188,-3.81729c-0.08709,-0.87088 0.19747,-1.62885 -0.10706,-2.45099l0.08616,-0.13288l-0.05624,-0.0225l0.20555,-0.5139c0.05933,-0.15889 0.21248,-0.27203 0.39206,-0.27203c0.16701,0 0.31116,0.09786 0.37824,0.23937l0.37014,0.74028l-0.08807,0.04404c0.0594,0.11167 0.11439,0.22532 0.16389,0.34097c0.05985,-0.56236 0.2243,-1.18877 0.45594,-1.35366c0.37206,-0.26484 0.83801,-0.31637 1.17172,-0.09419c0.25781,-0.53253 0.62507,-1.00087 1.08788,-1.31509c0.22303,-0.15142 1.08106,-0.56438 1.31965,-0.29112c0.04274,0.04895 0.07455,0.15241 0.09814,0.28832l0.06936,-0.34679c0.03512,-0.19554 0.20611,-0.34391 0.41176,-0.34391c0.21716,0 0.39567,0.16545 0.41636,0.37717l0.08576,0.77182c0.07075,-0.15888 0.15962,-0.32263 0.24084,-0.38933c0.27448,-0.22539 0.6579,-0.56391 0.98086,-0.41613c0.61668,0.28216 0.5388,1.82533 0.7,2.33842c0.07748,0.24664 0.36835,-0.36632 0.57963,-0.51529c0.45215,-0.31881 0.94647,-1.05928 1.53148,-1.11536c1.11068,-0.10647 1.35211,0.37662 1.61978,1.23941c0.0789,0.25433 0.18765,0.49842 0.28176,0.74753c0.07472,0.19779 0.08174,0.83375 0.11145,0.62442c0.02239,-0.15775 0.08291,-0.30768 0.12437,-0.46152c0.6759,-0.64043 0.91661,-1.39463 1.65458,-0.13803c0.15765,0.26844 0.05088,0.62218 0.11486,0.92684c0.03807,0.18129 0.12575,0.35027 0.18374,0.52613c0.15575,-0.51296 0.60212,-1.08696 1.02644,-1.06359c1.29029,0.07104 0.40489,1.89687 0.93221,2.39405c0.2338,0.22044 0.31694,-0.55965 0.494,-0.8278c0.14279,-0.21625 0.7137,-1.10131 1.08394,-1.0433c0.43632,0.06836 0.9038,1.108 1.12083,1.95488v-0.07332c0,-0.23106 0.18731,-0.41836 0.41836,-0.41836c0.11553,0 0.22012,0.04683 0.29583,0.12253l0.18178,0.18178c0.15098,-0.05634 0.29883,-0.2403 0.42934,-0.16145c0.53787,0.32496 0.45537,1.66923 0.55046,2.18727c0.4358,2.37434 0.41821,5.05337 0.42318,7.46004c0.1878,0.93668 0.81751,3.63604 -0.30097,4.3715c-0.24663,0.16217 -0.59022,-0.12598 -0.88185,-0.08038c-0.45801,0.07161 -0.09163,0.92418 -0.18358,1.37854c-0.11726,0.57945 -0.42779,0.9429 -0.65521,1.44523c-0.30856,0.68158 -0.23747,1.38552 -0.47551,2.06405c0.09359,0.12116 0.09359,0.27533 0.09359,0.27533c0,1.17139 0.20918,2.20792 0.20918,3.34686l-0.27944,0.54583c0,0 -0.23206,0.34809 -0.58016,0.11603c-0.34809,-0.23206 -0.11603,-0.58016 -0.11603,-0.58016l0.13892,-0.0817c0,-0.98933 -0.16182,-1.92632 -0.2008,-2.93025c-0.06417,-0.01636 -0.13189,-0.05307 -0.19961,-0.12079c-0.29582,-0.29582 0,-0.59165 0,-0.59165l0.04167,-0.02401c0.85993,-1.339 0.81589,-3.43544 1.42514,-4.93442c0.09997,-0.24597 0.20026,-0.53987 0.43222,-0.66907c0.23354,-0.13009 0.57485,0.2853 0.79158,0.1288c0.22496,-0.16244 0.09563,-0.54756 0.11641,-0.82427c0.085,-1.13227 0.02187,-1.60031 -0.2082,-2.75303c0.00149,-0.6943 -0.20976,-1.32859 -0.21121,-2.02842c-0.00278,-1.34106 0.20828,-2.6984 0.00457,-4.01861c-0.10136,-0.6569 -0.24991,-1.35106 -0.31691,-2.01306c-0.02603,-0.25716 -0.10939,-0.51177 -0.09352,-0.76976c0.00039,-0.00632 0.00254,-0.01309 0.00604,-0.02013c-0.01499,0.01881 -0.02986,0.03746 -0.04503,0.05442c-0.08733,0.45965 -0.37526,0.89645 -0.70562,1.22391c-0.69695,-0.65078 -0.93838,-1.06179 -1.19482,-1.99368c-0.04049,-0.14713 -0.13716,-0.37198 -0.18953,-0.56441c-0.08438,0.11235 -0.17835,0.22634 -0.23049,0.30384c-0.21231,0.31558 -0.70648,1.42527 -1.38861,1.17362c-0.92708,-0.34203 -0.71393,-1.06604 -0.76034,-1.70878c-0.01594,-0.2207 -0.00855,-0.88322 -0.03108,-0.66309c-0.04775,0.46652 -0.68902,1.54173 -1.02592,1.56978c-1.22851,0.10229 -0.63112,-3.47426 -1.22394,-2.15514c-0.23745,0.26452 -0.36428,0.72148 -0.71235,0.79356c-0.28201,0.0584 -0.51884,-0.27997 -0.70448,-0.50014c-0.51367,-0.60917 -0.21435,-2.20094 -1.25693,-2.11796c-0.74061,0.05895 -1.61264,2.24877 -2.7,1.50703c-0.4963,-0.33856 -0.48061,-1.7458 -0.55508,-2.26351c-0.0111,-0.07717 -0.03311,0.15484 -0.07149,0.22271c-0.15473,0.2736 -0.22144,0.66051 -0.50485,0.79643c-0.46935,0.22509 -0.76609,0.21036 -0.93633,0.07001c-0.05498,0.12481 -0.11928,0.24218 -0.20433,0.36054l0.11488,0.08616l-0.31085,0.41446c-0.07612,0.10383 -0.199,0.17124 -0.33761,0.17124c-0.23106,0 -0.41836,-0.18731 -0.41836,-0.41836v-0.41836c0,-0.59643 -0.061,-0.73498 0.07152,-1.11605c-0.21842,0.15616 -0.5257,0.20941 -0.6799,0.42809c-0.30673,0.43498 -0.43349,1.40617 -0.77528,1.84653l0.0079,0.00226l-0.20664,0.72323c-0.04694,0.17971 -0.21038,0.31232 -0.4048,0.31232c-0.23106,0 -0.41836,-0.1873 -0.41836,-0.41836c0,-0.03828 0.00514,-0.07535 0.01476,-0.11057l0.10231,-0.40926l0.01372,0.00343l0.08318,-0.29114c0.05302,-1.24931 -0.34054,-0.11544 -0.65652,0.85579l0.12308,0.02052l-0.10346,0.62075c-0.02995,0.20165 -0.20381,0.35636 -0.41379,0.35636c-0.17145,0 -0.31881,-0.10313 -0.38343,-0.25074l-0.22761,-0.49032c-0.0258,0.2952 -0.05059,0.59555 -0.01898,0.90481c0.28683,2.80555 -0.1847,5.34027 -0.29083,8.09356c0.98553,0.05521 2.14014,0.32524 2.59121,0.5825c0.05269,0.03005 0.45456,0.4321 0.63786,0.6161c0.0917,-0.37421 0.15672,-0.74927 0.2144,-0.98104c0,0 0.10147,-0.40587 0.50733,-0.3044c0.27147,0.06787 0.31597,0.27192 0.31567,0.39961c0.62018,-0.50436 1.27586,-0.8349 2.16002,-0.82506c0.28916,0.11263 0.62219,0.14779 0.86748,0.33788c0.10997,0.08522 -0.00083,0.30448 0.09346,0.40679c0.80463,0.87307 2.59674,0.2836 3.04825,1.92102c0.09813,0.35587 -0.38764,0.68307 -0.41653,1.01786c-0.09191,1.06516 -0.28588,2.15855 -1.16747,2.98682c-0.1736,0.1631 -0.3596,0.3292 -0.58188,0.41484c-0.22231,0.08564 -0.56611,-0.25582 -0.71155,-0.06714c-0.1918,0.24882 -0.28846,0.57197 -0.51572,0.78888c-1.79423,0.06639 -2.8821,-0.49067 -4.0857,-1.63458c-0.40694,0.93244 -1.07159,0.73497 -1.93141,0.72512c-0.32037,-0.00367 -0.63728,-0.04032 -0.94425,-0.10859c-0.12855,-0.16945 -0.30756,-0.2985 -0.51466,-0.36478c-0.10634,0.05501 -0.21453,0.05501 -0.21453,0.05501c-0.18583,0 -0.36408,-0.00564 -0.53583,-0.01183c-0.0316,0.01432 -0.06236,0.03016 -0.09219,0.04745c-0.00023,-0.01694 -0.00048,-0.03389 -0.00075,-0.05084c-0.90172,-0.03313 -1.62479,-0.05579 -2.33157,0.69827c-0.11076,0.11817 0.22352,0.24006 0.36191,0.32422c0.23539,0.14315 0.54565,0.08381 0.81195,0.15441c0.57439,0.15228 0.66771,0.47914 1.00354,0.63496c0.00398,-0.01647 0.00787,-0.03295 0.01167,-0.04942c0.04786,0.03963 0.0993,0.07509 0.15377,0.1058c0.08512,0.01981 0.18439,0.03062 0.30373,0.0296h0.41836c0,0 0.41836,0 0.41836,0.41836c0,0.41836 -0.41836,0.41836 -0.41836,0.41836h-0.26758c-0.01997,0.07492 -0.04132,0.15018 -0.06414,0.22582c-0.05713,0.18936 -0.08634,0.6128 -0.12839,1.02319c0.05725,-0.00336 0.11091,0.00709 0.15624,0.02192c0.0516,0.01465 0.09915,0.03896 0.14055,0.07084l0.43743,0.32937c0.36232,0.36521 0.57381,0.94015 1.00209,1.22186c0.97264,0.63979 2.33554,0.45385 3.42993,0.45385c1.53952,-0.00291 3.12407,0.02491 4.6558,-0.10146c0.21702,-0.01791 0.42671,-0.06816 0.63448,-0.13102c0.06411,-0.05402 0.15288,-0.09731 0.26884,-0.08699c0.38981,-0.13186 0.7811,-0.27809 1.20993,-0.30702c0.78904,-0.05321 1.61513,0.18272 2.39101,0.10588c1.05667,-0.10465 1.7995,-0.82575 2.78607,-1.04011c0,0 0.41023,-0.08204 0.49228,0.32819c0.08205,0.41023 -0.32818,0.49228 -0.32818,0.49228c-0.98991,0.17389 -1.77777,0.94646 -2.86175,1.05168c-0.63141,0.06129 -1.28589,-0.07458 -1.93173,-0.1052c-0.24914,-0.19872 -0.672,-0.38442 -1.20278,-0.03057c-0.09008,0.06005 -0.16461,0.12322 -0.22587,0.1882c-0.30723,0.75734 -0.23987,1.42189 -0.23987,2.25088v0.31377c0,0 0,0.41836 -0.41836,0.41836zM315.44752,180.92523c-0.11478,0.35277 -0.25844,0.6808 -0.44912,0.91169c-0.1122,0.13585 -0.43798,0.37095 -0.68117,0.62733c0.16938,0.07368 0.3534,0.13626 0.42629,0.28946c0.04507,0.09473 0.00621,0.54601 -0.04904,0.98382c0.06163,0.04764 0.12075,0.09697 0.17396,0.15024c1.06796,1.06913 1.86037,1.57818 3.41389,1.68733c0.15843,-0.19243 0.11784,-0.53094 0.32099,-0.67537c0.26195,-0.18623 0.65885,0.04 0.96188,-0.06714c0.98676,-0.34887 1.08551,-1.94466 1.17915,-2.66453c0.04134,-0.3178 0.53057,-0.56388 0.42019,-0.86475c-0.24502,-0.66784 -1.34025,-0.69802 -1.84698,-0.92138c-0.63496,-0.27988 -0.92296,-0.9023 -1.46509,-1.01486c-0.88045,0.01354 -1.5166,0.60167 -2.14731,1.24253l-0.02622,0.10045c0,0 -0.07714,0.15427 -0.23141,0.21517zM310.91199,184.18359c0,0 0.01135,0 0.03033,0.00187c0.04059,-0.03724 0.08001,-0.07476 0.11816,-0.1125c-0.00108,0.04571 -0.00205,0.09132 -0.00293,0.13685c0.06825,0.02248 0.14648,0.06425 0.20161,0.14184c0.42145,0.17 0.87859,0.25673 1.32625,0.25031c0.13213,-0.0019 0.9759,0.10717 1.04895,0.0543c0.05649,-0.04089 0.1336,-0.3133 0.20128,-0.61898c-0.27601,-0.28761 -0.55505,-0.61435 -0.6199,-0.85134c-0.05373,-0.19636 -0.02686,-0.39047 0.04896,-0.57771c-0.00186,-0.00368 -0.00366,-0.00742 -0.00539,-0.01122c-0.29807,-0.65349 -0.0609,-1.20533 0.06635,-1.84232l0.14063,-0.31423c0,0 0.00974,-0.01947 0.02921,-0.04732c-0.54487,-0.22324 -1.12395,-0.2217 -1.84827,-0.40561c-0.05602,-0.01422 -0.15266,-0.04063 -0.26545,-0.06631c-0.06061,0.04657 -0.1445,0.07881 -0.26062,0.07881c-0.16347,0 -0.26306,-0.06387 -0.32374,-0.1417c-0.06412,0.00806 -0.11784,0.02549 -0.15444,0.05581c-0.78513,0.65061 -1.26945,1.86028 -1.00636,2.88568c0.23796,0.60458 0.70342,1.07524 1.26711,1.38378c0.00275,0 0.0055,0 0.00825,0zM314.35601,181.30079c0.06042,-0.06658 0.1151,-0.15237 0.16484,-0.25145c-0.14302,-0.02493 -0.24406,-0.12597 -0.24406,-0.12597c-0.02733,-0.02733 -0.0546,-0.05356 -0.08184,-0.07875l-0.04881,0.07415c-0.04503,0.22488 -0.14485,0.504 -0.18373,0.77502c0.14951,-0.14766 0.29124,-0.28019 0.39361,-0.393zM317.43508,166.82223c0.0064,-0.01584 0.01306,-0.03198 0.01996,-0.04832l-0.01741,0.00194c-0.00037,0.01552 -0.0012,0.03098 -0.00254,0.04638zM331.16321,171.97124c0.04876,-0.04552 0.10857,-0.08239 0.07348,-0.06289c-0.02654,0.01475 -0.0506,0.0373 -0.07348,0.06289z"/><path d="M312.06246,181.88262c0.17431,0 0.34863,0 0.52295,0c0,0 0.41836,0 0.41836,0.41836c0,0.03826 -0.0035,0.07301 -0.00985,0.10459c0.00636,0.03158 0.00985,0.06633 0.00985,0.10459c0,0.17553 -0.07365,0.27741 -0.15914,0.33655c-0.02316,0.20682 -0.03932,0.41942 -0.20316,0.50993c-0.89074,0.49208 -1.49921,-0.15817 -1.21441,-0.95014c-0.00702,-0.16042 0.09338,-0.26939 0.16626,-0.3269c0.00083,-0.00126 0.00167,-0.00252 0.00251,-0.00377c0.04537,-0.06812 0.11373,-0.09134 0.19419,-0.09092z"/><path d="M318.74683,182.62408c-0.17358,0.17284 -0.1592,0.13803 0.11394,-0.00933zM318.73131,182.47327c0.09355,-0.07024 0.23394,-0.11715 0.42116,-0.02353c0.37419,0.18709 0.18709,0.56129 0.18709,0.56129l-0.47878,0.44044c-0.27292,-0.04084 -0.61251,0.0608 -0.81877,-0.12253c-0.18053,-0.16047 -0.08169,-0.47612 -0.12253,-0.71418c0,0 0,-0.41836 0.41836,-0.41836c0.25505,0 0.35461,0.15549 0.39347,0.27688z"/></g></g></g></svg>