<svg version="1.1" xmlns="http://www.w3.org/2000/svg" xmlns:xlink="http://www.w3.org/1999/xlink" width="283.66663" height="248.19596" viewBox="0,0,283.66663,248.19596"><defs><linearGradient x1="192.6971" y1="206.33962" x2="458.13865" y2="206.33962" gradientUnits="userSpaceOnUse" id="color-1"><stop offset="0" stop-color="#8a833c"/><stop offset="1" stop-color="#81782d"/></linearGradient><linearGradient x1="294.19755" y1="210.83354" x2="332.01049" y2="216.59934" gradientUnits="userSpaceOnUse" id="color-2"><stop offset="0" stop-color="#7f772e"/><stop offset="1" stop-color="#8b843d"/></linearGradient><linearGradient x1="256.00781" y1="269.64683" x2="304.47277" y2="269.64683" gradientUnits="userSpaceOnUse" id="color-3"><stop offset="0" stop-color="#7f772e"/><stop offset="1" stop-color="#8b843d"/></linearGradient><linearGradient x1="250.2157" y1="241.29982" x2="312.6582" y2="241.29982" gradientUnits="userSpaceOnUse" id="color-4"><stop offset="0" stop-color="#7f772e"/><stop offset="1" stop-color="#8b843d"/></linearGradient><radialGradient cx="296.63695" cy="252.27482" r="32.71582" gradientUnits="userSpaceOnUse" id="color-5"><stop offset="0" stop-color="#8b843d"/><stop offset="1" stop-color="#7f772e"/></radialGradient></defs><g transform="translate(-175.20912,-49.81151)"><g stroke-miterlimit="10"><path d="M246.91667,249.08334v-110.66667h154v110.66667z" fill-opacity="0.01" fill="#000000" stroke="none" stroke-width="0" stroke-linecap="butt"/><g stroke="#000000" stroke-width="1.5" stroke-linecap="round"><path d="M384.24338,122.69285c0,0 3.4194,2.23296 5.86939,1.16322c0.60467,-0.264 6.26551,-5.99341 6.97744,-6.29718c1.63365,-0.69706 -1.56138,6.79447 0.38078,6.24356c1.02227,-0.28997 1.45246,0.75327 2.61268,0.43288c1.1721,-0.32368 -4.25185,5.11748 -2.95125,4.78882c0.36788,-0.09297 4.75424,0.72101 6.92635,2.67779c2.47532,2.22994 2.77196,5.63936 3.23881,5.51771c1.673,-0.43594 2.70402,-3.09617 4.4161,-3.80163c0.81547,-0.33601 5.30416,2.03896 6.13118,1.6936c1.12147,-0.4683 1.88619,-2.65228 2.9468,-3.16232c3.44928,-1.65873 3.29834,4.00075 6.80978,3.90219c1.00745,-0.02828 0.83909,-3.09692 1.59875,-3.03984c1.26286,0.09489 -0.12512,5.36817 1.94031,4.5869c9.55529,-3.61437 6.24258,1.41402 7.77393,2.44775c1.24323,0.83925 6.05438,-1.65053 7.0341,0.16659c0.73917,1.37096 3.02871,9.35632 3.03146,14.30255c0.00133,2.3763 1.57941,5.35902 1.42413,8.18941c-0.12128,2.21049 0.36827,4.53237 0.14924,6.92874c-0.36829,4.02952 -6.49075,7.95066 -5.78278,12.20497c0.68185,4.09732 -1.15117,8.47821 -0.37847,11.82537c1.35955,5.88915 3.28782,9.81249 4.35404,13.59599c1.10881,3.93466 -5.74757,16.59503 -4.49343,19.17158c4.64311,9.53893 3.38061,16.84836 6.35915,24.31107c0.69948,1.75256 6.98701,3.19229 7.51387,5.03892c0.42064,1.4743 -9.56844,3.96448 -15.2032,3.76888c-5.15706,-0.17901 -3.08005,-6.44971 -7.80562,-5.23793c-5.58967,1.43338 -9.88959,12.33762 -9.51028,13.66634c2.01832,7.07004 1.00071,13.25561 2.10665,16.49928c1.46844,4.30687 7.14054,6.37287 10.89234,7.28722c2.01312,0.49061 6.39148,1.47217 4.34044,1.75554c-5.32646,0.73588 -19.85341,1.37664 -26.74704,1.25296c-2.34454,-0.04206 -8.75977,1.06534 -11.5361,0.3527c-3.79082,-0.97303 -3.96675,-3.86975 -6.9033,-4.19311c-6.23706,-0.68679 -9.72856,1.19682 -16.45933,0.69183c-4.72487,-0.35449 -9.29568,1.33765 -14.41357,1.39567c-2.79224,0.03165 -6.68379,-1.61721 -8.68874,-1.59179c-4.57009,0.05795 -9.6842,1.15706 -10.60573,1.26306c-5.21176,0.59952 -14.25434,0.52212 -23.37239,0.62776c-2.50543,0.02903 -8.41804,0.35468 -11.04721,0.28496c-3.28114,-0.08702 -5.92647,4.19245 -13.66197,-1.80591c-2.24363,-1.73979 -3.43291,-0.27393 -5.65785,0.35014c-1.72424,0.48362 -4.46988,0.05422 -6.27887,-0.18222c-5.36412,-0.7011 -8.90065,-1.2769 -13.36855,-2.10529c-2.97319,-0.55126 -6.73025,-1.40381 -10.358,-1.78855c-4.18156,-0.44347 -9.30747,-0.47051 -13.33852,-0.70191c-2.65591,-0.15245 -7.89814,-0.31101 -10.37328,-0.4758c-0.90999,-0.06059 -5.13821,1.23749 -6.01693,1.17393c-1.14856,-0.08308 -8.26499,-2.88695 -9.34667,-2.97104c-1.63712,-0.12728 -2.86184,-4.66891 -4.33176,-4.78334c-3.52812,-0.27465 -5.22678,-0.51028 -7.63959,-0.69722c-1.76837,-0.13702 -3.20415,-0.92529 -4.25889,-1.00055c-2.11435,-0.15089 -5.84605,0.71555 -9.58944,0.90803c-2.92375,0.15035 -6.24462,-0.37566 -6.24462,-0.37566c0,0 -0.31076,-2.59224 2.42164,-3.56817c3.15443,-1.12667 -1.79022,-1.30738 3.3997,-3.15494c1.386,-0.4934 2.26266,-4.76213 3.9143,-5.32042c1.05471,-0.35653 5.49137,1.3398 6.62981,1.00585c1.68785,-0.49512 4.08828,-5.0931 5.42638,-3.90598c2.91138,2.58288 7.06466,-4.02626 10.10144,-4.66216c6.90776,-1.44649 12.21271,-1.79292 13.69645,-4.91718c0.2549,-0.53673 -8.54745,-4.8442 -14.91814,-10.04948c-3.82977,-3.12919 -4.39049,-5.24759 -5.98496,-7.51922c-0.97262,-1.3857 -3.79499,-3.68244 -3.71785,-3.81672c0.5692,-0.99087 3.86347,-2.81671 6.17078,-4.77059c4.27663,-3.62158 8.40995,-7.68312 8.40995,-7.68312c0,0 -2.59853,-1.5507 -3.93552,-2.34857c-1.64801,-0.98346 1.33279,-1.98619 2.92955,-3.05403c1.85179,-1.2384 4.15184,-2.80978 5.42581,-3.80569c2.25601,-1.76362 5.61071,-5.16785 5.61071,-5.16785c0,0 -11.49153,-15.13308 -17.57247,-19.61042c-1.64548,-1.21155 -3.68944,0.07476 -3.66992,0.05462c0.81326,-0.83904 1.57913,-2.70176 3.05974,-4.77635c0.92962,-1.30256 2.54486,-2.89464 3.37102,-3.72692c3.07164,-3.09447 8.17404,-6.67969 10.60564,-9.82733c1.75423,-2.27081 0.12894,-6.09473 1.78668,-8.08555c5.78983,-6.95316 -0.16251,5.16141 5.07632,1.28437c1.65003,-1.22111 0.52307,-7.24878 3.72683,-10.77841c3.55946,-3.92151 3.05343,4.27677 7.28855,1.4195c1.76884,-1.19338 1.47393,-6.60479 4.15957,-10.44773c1.4398,-2.06023 2.42247,-0.60138 4.30586,-1.70363c1.59436,-0.93309 4.21204,-4.56874 4.39236,-4.76183c2.74367,-2.93805 -0.41246,3.99029 2.39265,5.01769c1.18207,0.43294 2.08369,-4.02858 3.34918,-3.22904c1.22962,0.77688 -0.50808,3.46473 0.76564,4.60877c1.44186,1.29505 4.95436,1.05857 6.49125,2.62059c1.41665,1.43981 -1.52188,8.09987 -0.17273,9.71359c1.02952,1.23138 2.1061,0.70748 3.19998,1.82201c1.13444,1.15586 0.95416,6.36682 2.0926,7.45206c2.11865,2.01963 0.34325,3.74333 2.35253,4.68976c2.0954,0.98699 4.06822,-1.38492 4.17162,-4.33202c0.13525,-3.85521 -1.74312,-8.6947 1.2495,-8.28724c3.03433,0.41315 5.49757,14.30141 5.49757,14.30141c0,0 0.17727,-10.64536 3.77984,-11.96138c1.61606,-0.59035 4.41829,-0.9135 6.3844,-1.61822c4.3857,-1.572 -3.40643,-3.4618 2.08296,-5.19508c1.3803,-0.43582 2.83454,-10.10814 4.91116,-7.39084c0.63891,0.83601 -0.5974,3.30848 2.05871,3.95055c2.22321,0.53742 2.70153,-6.08745 5.81832,-6.09672c1.95743,-0.00581 2.69979,4.8358 4.93962,6.10477c3.13714,1.77731 7.60899,0.14323 8.37645,-0.00263c2.5263,-0.48012 5.0663,-1.91924 7.57275,-3.63904c4.7903,-3.28685 9.45805,-7.59897 13.67338,-8.20124c1.87457,-0.26783 2.40012,1.85674 4.06553,3.45654c0.83751,0.80452 1.83875,-0.50037 2.81126,0.05436c1.46253,0.83424 2.86005,3.30028 3.53783,2.93891c2.89491,-1.54342 4.67156,-4.20949 6.73079,-5.865c3.02994,-2.43591 0.6389,-1.03397 2.32268,-3.05901c1.49352,-1.79622 3.49907,-2.08935 5.23503,-4.09175c2.05667,-2.37234 3.73492,-6.32041 3.73492,-6.32041zM302.21003,173.81087c-2.40695,1.86281 12.37189,2.09188 12.37189,5.41157c0,4.44502 -13.54631,10.94627 -9.65762,12.34403c0.32475,0.11673 0.6572,0.21685 0.99633,0.29933c0.00385,0.00281 0.00738,0.00561 0.01058,0.0084c1.36993,1.19911 2.71123,1.69628 4.17872,3.05366c4.93523,4.56492 6.65607,11.02791 11.49908,15.51914c2.05854,1.90902 5.02042,2.49103 7.50516,3.42447c1.20891,0.45415 1.83563,1.95637 2.49484,2.69612c0.65553,0.73559 -1.38648,-11.6267 0.47509,-13.18286c2.90051,-2.42462 10.04286,5.36451 11.3242,6.45479c1.30601,1.11128 3.03145,6.67889 3.98189,4.57326c3.77465,-8.36256 4.43089,4.81345 5.46932,2.69486c0.61982,-1.26458 -0.34194,-2.82571 -0.23064,-4.23498c0.04032,-0.51054 0.7015,-0.86297 0.67365,-1.37437c-0.08639,-1.58625 -0.38179,-3.19791 -1.00203,-4.65517c-0.31522,-0.7406 -1.56322,-6.22948 -4.85748,-11.89512c-2.28141,-3.92371 -6.41153,-7.57831 -8.3197,-11.25728c-2.37601,-4.581 -2.41021,-8.14532 -3.20806,-8.63365c-2.30829,-1.4128 -10.64837,-0.20272 -13.83041,-1.55398c-5.5627,-2.36218 -6.32781,-6.9589 -10.16714,-6.98031c-4.65602,-0.02597 -3.69519,3.63995 -8.66914,6.49408c-0.38743,0.22232 -0.73068,0.49 -1.03855,0.79403zM261.75266,172.17588c-2.01565,-0.51405 -2.19816,1.7086 -3.659,2.92603c-0.97478,0.81235 -2.46436,-0.80758 -3.55234,-0.01332c-0.9455,0.69025 -1.53875,3.75309 -1.8408,4.9351c-0.36048,1.41064 -3.77259,0.25091 -2.79672,2.24188c0.77856,1.58843 3.03687,3.89614 4.87326,4.14951c0.89588,0.12359 1.92887,0.44006 2.82629,0.22178c0.4144,-0.1008 0.93526,-0.73623 1.214,-0.40758c1.00668,1.18697 2.49791,-0.26494 3.39024,1.4614c1.38713,2.6836 1.86021,0.17779 6.15956,-2.74605c1.53728,-1.04547 2.71648,4.74763 3.07881,2.8995c0.24894,-1.26971 -2.565,-6.87747 -2.95175,-8.33527c-1.4085,-5.30913 -3.5541,-4.61894 -6.4991,-7.35003z" fill="url(#color-1)"/><path d="M382.01974,238.70154c0,0 1.29789,-0.65371 2.15443,-0.50808c0.3736,0.06352 0.93647,0.37748 1.5443,0.42473c0.73451,0.0571 1.53467,-0.1411 2.14582,0.10437c0.59624,0.23947 1.01259,1.14481 1.01259,1.14481" fill="none"/><path d="M436.01973,171.52084c0,0 0.41636,-0.90533 1.01261,-1.14481c0.61115,-0.24545 1.4113,-0.04726 2.14581,-0.10437c0.60783,-0.04725 1.1707,-0.36122 1.5443,-0.42473c0.85654,-0.14562 2.15444,0.50808 2.15444,0.50808" fill="none"/><path d="M348.51974,183.10623c0,0 1.29789,-0.65369 2.15444,-0.50807c0.3736,0.06351 0.93647,0.37748 1.5443,0.42472c0.73451,0.0571 1.53466,-0.14111 2.14581,0.10437c0.59624,0.23947 1.0126,1.14482 1.0126,1.14482" fill="none"/><path d="M279.01974,199.57352c0,0 0.41636,-0.90535 1.0126,-1.14482c0.61115,-0.24545 1.41131,-0.04726 2.14581,-0.10437c0.60783,-0.04725 1.1707,-0.36122 1.5443,-0.42473c0.85654,-0.14562 2.15443,0.50808 2.15443,0.50808" fill="none"/><path d="M259.51974,160.15406c0,0 1.29789,-0.6537 2.15444,-0.50808c0.3736,0.06351 0.93647,0.37748 1.5443,0.42472c0.73451,0.0571 1.53466,-0.1411 2.14581,0.10437c0.59624,0.23947 1.0126,1.14482 1.0126,1.14482" fill="none"/><path d="M212.51974,271.34465c0,0 1.2979,-0.65371 2.15445,-0.50808c0.37359,0.06353 0.93646,0.37748 1.5443,0.42473c0.73451,0.0571 1.53466,-0.14111 2.14581,0.10436c0.59624,0.23948 1.01259,1.14482 1.01259,1.14482" fill="none"/></g><path d="" fill="#000000" stroke="none" stroke-width="1" stroke-linecap="butt"/><path d="" fill="#000000" stroke="#000000" stroke-width="0.3" stroke-linecap="butt"/><path d="" fill="#000000" stroke="#000000" stroke-width="0.3" stroke-linecap="butt"/><path d="" fill="#000000" stroke="#000000" stroke-width="0.3" stroke-linecap="butt"/><path d="M250.78761,229.42414c0,0 -11.53591,-13.05677 -17.73404,-19.4255c-5.89808,-6.06041 -21.26596,-16.40783 -21.26596,-16.40783l5.33333,-0.16666c0,0 11.50135,9.9458 17.16829,15.6683c5.6664,5.72195 17.66505,17.3317 17.66505,17.3317z" fill="#000000" stroke="none" stroke-width="0" stroke-linecap="butt"/><g fill="#000000" stroke="#000000" stroke-width="0.5" stroke-linecap="butt"><path d="M304.72353,186.16104l-26.85842,-115.71349l2.0371,-0.19872l26.85843,115.7135z"/><path d="M368.99341,64.53234c-7.58449,4.9634 -133.77956,87.54738 -133.77956,87.54738l-0.95646,-1.61422c0,0 126.9462,-83.50177 134.24833,-88.30492z"/><path d="M367.52885,79.49889l-0.62072,-29.38718l1.16832,-0.04138l0.62072,29.38718z"/><path d="M365.04242,79.60908l-0.62071,-29.38718l1.16833,-0.04138l0.62072,29.38718z"/><path d="M359.57039,90.79703l-0.31628,-3.24215c0,0 1.0385,-0.07754 1.11307,-0.97015c0.2002,-2.39674 -0.28863,-7.6939 0.82071,-10.65478c1.72769,-4.61125 10.45943,-3.78341 12.48159,0.66028c0.90458,1.98782 -0.04165,6.22293 0.38438,8.83316c0.35938,2.2018 1.87606,2.23753 1.87606,2.23753l-1.18965,2.04134c0,0 -1.44411,-1.65512 -1.49362,-4.63771c-0.04095,-2.46735 0.01435,-5.87586 -1.37638,-7.81468c-1.21281,-1.69076 -2.41181,-3.04924 -4.82121,-2.87354c-1.89175,0.13795 -3.13083,0.8047 -4.18697,2.33684c-1.96697,2.8535 -1.27173,8.4736 -1.59042,11.63712c-0.20396,2.02468 -1.70132,2.44678 -1.70132,2.44678z"/><path d="M362.80082,93.61426c-0.05151,-4.16545 -0.13597,-11.59988 -0.1592,-13.48018c-0.02623,-2.1221 2.86857,-2.39461 5.21923,-2.3815c1.87975,0.01047 3.85953,0.47664 3.88051,2.17357c0.02466,1.99411 0.14118,11.42 0.18706,15.13134c0.00971,0.7853 0.06852,1.49885 -0.73596,1.81295c-1.06739,0.41675 -3.00643,1.11063 -4.07117,1.10469c-1.03958,-0.0058 -3.24572,0.0682 -4.08979,-1.2508c-0.27066,-0.42294 -0.2307,-3.11007 -0.2307,-3.11007z"/></g><path d="M283.3022,239.51931c0,0 6.43101,-15.10247 8.67494,-23.43797c2.68875,-9.98789 6.36577,-31.23356 6.36577,-31.23356l8.65343,-2.74487l5.61503,-1.1106l10.06597,0.89118l8.29605,3.85542l5.18245,3.67466c0,0 -3.08706,19.16597 -3.50851,28.06085c-0.42541,8.97819 0.96781,25.5607 0.96781,25.5607z" fill="url(#color-2)" stroke="none" stroke-width="0" stroke-linecap="butt"/><path d="M289.56182,223.5781c0.96391,-2.70024 1.83139,-5.32763 2.41532,-7.49676c2.68875,-9.98789 6.36577,-31.23356 6.36577,-31.23356l8.65343,-2.74487l5.61503,-1.1106l10.06597,0.89118l8.29605,3.85542l5.18245,3.67466c0,0 -3.08706,19.16597 -3.50851,28.06085c-0.02139,0.45152 0.04999,3.21503 0.13969,6.36172" fill="none" stroke="#000000" stroke-width="1.5" stroke-linecap="butt"/><path d="M260.92043,296.88108l-5.07928,-35.91179c0,0 7.44052,-2.73987 11.02175,-4.48268c6.44867,-3.13825 24.59097,-11.93386 24.59097,-11.93386l13.01891,37.67023c0,0 -22.56532,10.99353 -30.38094,13.23094c-6.11212,1.74975 -13.1714,1.42717 -13.1714,1.42717z" fill="url(#color-3)" stroke="none" stroke-width="0" stroke-linecap="butt"/><path d="M250.2157,246.18226l21.36535,-34.32706c0,0 3.89472,1.97323 8.55655,4.94854c5.34123,3.40892 11.48637,7.74256 14.98258,9.78664c7.17122,4.1927 17.53801,9.17699 17.53801,9.17699l-14.71535,34.97706c0,0 -22.9644,-8.6094 -36.23682,-16.78181c-6.22983,-3.83598 -11.49033,-7.78036 -11.49033,-7.78036z" fill="url(#color-4)" stroke="none" stroke-width="0" stroke-linecap="butt"/><path d="" fill="#000000" stroke="#000000" stroke-width="0.3" stroke-linecap="butt"/><path d="" fill="#000000" stroke="#000000" stroke-width="0.3" stroke-linecap="butt"/><path d="" fill="#000000" stroke="#000000" stroke-width="0.3" stroke-linecap="butt"/><path d="" fill="#000000" stroke="#000000" stroke-width="0.3" stroke-linecap="butt"/><path d="" fill="#000000" stroke="#000000" stroke-width="0.3" stroke-linecap="butt"/><path d="" fill="#000000" stroke="#000000" stroke-width="0.3" stroke-linecap="butt"/><path d="" fill="#000000" stroke="#000000" stroke-width="0.3" stroke-linecap="butt"/><path d="" fill="#000000" stroke="#000000" stroke-width="0.3" stroke-linecap="butt"/><path d="" fill="#000000" stroke="#000000" stroke-width="0.3" stroke-linecap="butt"/><path d="" fill="#000000" stroke="#000000" stroke-width="0.3" stroke-linecap="butt"/><path d="" fill="#000000" stroke="#000000" stroke-width="0.3" stroke-linecap="butt"/><path d="" fill="#000000" stroke="#000000" stroke-width="0.3" stroke-linecap="butt"/><path d="" fill="#000000" stroke="#000000" stroke-width="0.3" stroke-linecap="butt"/><path d="" fill="#000000" stroke="#000000" stroke-width="0.3" stroke-linecap="butt"/><path d="" fill="#000000" stroke="#000000" stroke-width="0.3" stroke-linecap="butt"/><path d="" fill="#000000" stroke="#000000" stroke-width="0.3" stroke-linecap="butt"/><path d="" fill="#000000" stroke="#000000" stroke-width="0.3" stroke-linecap="butt"/><path d="" fill="#000000" stroke="#000000" stroke-width="0.3" stroke-linecap="butt"/><path d="" fill="#000000" stroke="#000000" stroke-width="0.3" stroke-linecap="butt"/><path d="" fill="#000000" stroke="#000000" stroke-width="0.3" stroke-linecap="butt"/><path d="M295.31719,284.82415c0,0 -1.51202,-5.99345 -1.5673,-13.00079c-0.06926,-8.78064 -0.10568,-17.06412 1.48794,-24.17804c1.36568,-6.09639 3.76908,-11.33389 10.17061,-15.28929c4.53339,-2.80111 10.33238,-2.76009 14.38759,-3.55813c0.78271,-0.15404 9.11408,3.01295 16.68991,6.16177c7.31569,3.0407 13.75506,6.6359 13.75506,6.6359l-25.45714,52.62858c0,0 -10.24957,-3.01445 -15.08342,-4.55647c-4.98379,-1.58985 -14.38325,-4.84352 -14.38325,-4.84352z" fill="url(#color-5)" stroke="none" stroke-width="0" stroke-linecap="butt"/><path d="M273.96014,236.4949c-4.22419,9.97337 -15.26432,15.99714 -21.26652,12.52929c-6.00221,-3.46785 -5.94358,-13.3641 -1.71938,-23.33747c4.22419,-9.97337 14.26432,-16.49714 20.26653,-13.02929c6.00221,3.46785 6.94358,13.8641 2.71938,23.83747z" fill="#e2e05f" stroke="#000000" stroke-width="1.5" stroke-linecap="butt"/><path d="M273.59219,253.42414l-19.66666,8.33333" fill="none" stroke="#000000" stroke-width="1.5" stroke-linecap="round"/><path d="M267.09219,296.59081c5.7269,0.69624 26.90305,-8.84963 31.13986,-10.72971c0.49349,-0.21898 25.62205,7.944 25.62205,7.944" fill="none" stroke="#000000" stroke-width="1.5" stroke-linecap="round"/><path d="M278.42553,279.17414c0,10.26329 -6.74052,18.08333 -16.08334,18.08333c-9.34281,0 -15.75,-7.15338 -15.75,-17.41667c0,-10.26329 2.90719,-18.91667 12.25,-18.91667c9.34281,0 19.58334,7.98671 19.58334,18.25z" fill="#e2e05f" stroke="#000000" stroke-width="1.5" stroke-linecap="butt"/><path d="M255.37542,250.52787l10.11111,6" fill="none" stroke="#000000" stroke-width="1.5" stroke-linecap="round"/><path d="M303.93098,231.41675c0,0 -10.00618,-5.12752 -14.93491,-8.04147c-5.86916,-3.46994 -18.95398,-11.30297 -18.95398,-11.30297" fill="none" stroke="#000000" stroke-width="1.5" stroke-linecap="round"/><path d="M366.3798,267.00765c-0.51677,14.95653 -15.22262,28.7 -30.3,28.7c-15.07738,0 -27.7,-12.12719 -27.7,-26.1c0,-6.46271 2.68435,-14.5863 8.13671,-20.16189c6.336,-6.47922 16.05951,-10.43811 24.16329,-10.43811c15.07738,0 26.3,10.63455 25.7,28z" fill="#f7f787" stroke="#000000" stroke-width="1.5" stroke-linecap="butt"/><path d="M344.97773,238.73475c0,0 -7.56358,-2.98564 -9.36964,-3.82095" fill="none" stroke="#000000" stroke-width="1.5" stroke-linecap="round"/><g><path d="M213.8967,195.42544c0,0 -11.60058,-1.28187 -17.5447,-2.02777c-6.89314,-0.86498 -16.92789,-3.35334 -16.92789,-3.35334c0,0 1.12919,-0.4682 4.73673,-0.85789c2.74382,-0.29639 8.52833,-0.60679 11.89202,-0.93225c2.05855,-0.19918 2.4222,-1.05411 4.13142,-1.96146c2.15448,-1.14372 6.68135,-2.43906 12.25363,-2.96975c2.24647,-0.21394 4.07845,-0.13496 6.25735,0.08236c2.37327,0.23671 4.57317,0.5143 6.66716,1.22589c4.49926,1.52895 6.062,3.92711 7.24858,5.33651c0.97919,1.16307 2.02454,1.58586 3.81359,2.15102c2.92331,0.92348 7.30906,2.31553 9.67257,3.09773c3.10753,1.02842 2.65911,1.48502 2.65911,1.48502c0,0 -9.36759,0.55886 -16.40355,0.09892c-6.06727,-0.39663 -17.50692,-1.26028 -17.50692,-1.26028z" fill="#eced68" stroke="none" stroke-width="0" stroke-linecap="round"/><path d="M213.8967,195.42544c0,0 -11.41719,-1.23586 -17.36131,-1.98176c-6.89314,-0.86498 -16.12323,-3.5505 -16.12323,-3.5505c0,0 0.87474,-0.13301 4.48228,-0.5227c1.60454,-0.17332 3.99804,-0.41437 6.38172,-0.64975c1.6925,-0.16713 4.7767,-0.46654 4.7767,-0.46654c0,0 -1.71544,2.31758 4.55917,3.79768c3.24336,0.76507 12.51108,2.02478 20.21111,3.12969c6.99804,1.00418 12.79874,1.45456 12.79874,1.45456l-18.77609,-1.09598z" fill="#8f8621" stroke="none" stroke-width="0" stroke-linecap="round"/><path d="M226.31071,192.20743c-0.08488,0.21039 -4.91552,0.45964 -9.96762,0.12166c-0.74977,-0.05016 -1.50442,-0.11326 -2.24915,-0.19133c-3.17313,-0.33265 -9.44133,-1.29857 -12.84219,-2.08899c-3.70203,-0.86041 -4.40936,-1.53524 -4.40936,-1.53524l5.40283,-2.83016c0,0 -1.47977,2.63398 3.03849,4.06651c5.68092,1.80114 21.13407,2.19214 21.027,2.45755z" fill="#8f8621" stroke="none" stroke-width="0" stroke-linecap="butt"/><path d="M232.30133,191.44481c0,0 -0.71639,1.57589 -14.74249,0.80543c-11.19419,-0.6149 -19.04943,-2.97234 -19.04943,-2.97234" fill="none" stroke="#524d14" stroke-width="0.75" stroke-linecap="round"/><path d="M213.8967,195.42544c0,0 -11.72809,-1.07327 -17.26014,-1.96224c-6.01271,-0.96621 -17.49443,-3.62262 -17.49443,-3.62262c0,0 5.282,-0.83145 8.306,-1.0946c2.81637,-0.24508 9.25946,-0.43394 9.25946,-0.43394c0,0 8.30491,-6.40868 21.98767,-4.9067c8.11633,0.89094 11.55941,2.70379 14.70619,6.44147c0.97919,1.16307 3.02314,2.27194 3.02314,2.27194c0,0 6.5813,1.90658 8.92036,2.73127c2.07331,0.731 4.41312,1.9698 4.41312,1.9698c0,0 -12.88918,0.07152 -19.11275,-0.1566c-5.246,-0.19229 -15.79953,-1.12309 -15.79953,-1.12309z" fill="none" stroke="#000000" stroke-width="1.5" stroke-linecap="round"/></g><path d="M216.90106,183.4672c0,0 0.40474,-1.84831 0.47946,-2.86398c0.09839,-1.33733 0.05968,-4.46389 0.05968,-4.46389l2.14516,0.2751c0,0 -0.56619,2.69216 -0.90263,3.94591c-0.29458,1.09778 -0.5894,3.15031 -0.5894,3.15031z" fill="#000000" stroke="#000000" stroke-width="0.5" stroke-linecap="butt"/><path d="M242.36963,273.38792c-5.24651,-6.13148 -17.4371,-20.17133 -17.4371,-20.17133l1.34343,-15.30357l2.05682,0.38576l-1.44422,14.38576c0,0 12.19003,15.60183 16.69581,19.23492c2.18797,1.7642 -1.21473,1.46846 -1.21473,1.46846z" fill="#000000" stroke="none" stroke-width="0" stroke-linecap="butt"/><g><g><path d="M225.66521,249.05001c0,0 -8.9946,-1.26425 -13.61025,-2.03186c-5.35258,-0.89015 -13.23908,-3.83913 -13.23908,-3.83913c0,0 0.82996,-0.67446 3.56651,-1.34156c2.08137,-0.50738 6.49345,-1.15412 9.04793,-1.72517c1.56333,-0.34949 1.77649,-1.51374 3.01751,-2.80182c1.5643,-1.62363 4.93626,-3.54524 9.16867,-4.47985c1.7063,-0.37679 3.11725,-0.34316 4.80487,-0.13724c1.83817,0.22429 3.54653,0.51045 5.20702,1.3845c3.56782,1.87803 4.95052,5.04149 5.96877,6.89003c0.84028,1.52546 1.67442,2.05266 3.08981,2.74187c2.31275,1.12617 5.783,2.82457 7.6556,3.78292c2.46208,1.26 2.15329,1.89188 2.15329,1.89188c0,0 -7.14072,1.12293 -12.57169,0.7832c-4.68326,-0.29296 -13.52229,-1.00112 -13.52229,-1.00112z" fill="#eced68" stroke="none" stroke-width="0" stroke-linecap="round"/><path d="M225.66521,249.05001c0,0 -8.85041,-1.20965 -13.46607,-1.97725c-5.35258,-0.89015 -12.63718,-4.1362 -12.63718,-4.1362c0,0 0.66058,-0.21356 3.39713,-0.88066c1.21715,-0.2967 3.03411,-0.71577 4.84398,-1.12682c1.28508,-0.29186 3.62724,-0.81679 3.62724,-0.81679c0,0 -1.13741,3.18502 3.7881,4.92699c2.54601,0.90043 9.74991,2.22733 15.7397,3.40819c5.44371,1.0732 9.92668,1.44903 9.92668,1.44903l-14.48294,-0.72984z" fill="#8f8621" stroke="none" stroke-width="0" stroke-linecap="round"/><path d="M234.9378,244.22991c-0.04892,0.28633 -3.73422,0.81302 -7.63447,0.55869c-0.57882,-0.03774 -1.16238,-0.09269 -1.73949,-0.16818c-2.45893,-0.32162 -7.34002,-1.37229 -10.00876,-2.30057c-2.90508,-1.01049 -3.49935,-1.89006 -3.49935,-1.89006l3.92575,-4.02057c0,0 -0.93237,3.60123 2.64261,5.34882c4.49491,2.19728 16.37543,2.11066 16.31372,2.47186z" fill="#8f8621" stroke="none" stroke-width="0" stroke-linecap="butt"/><path d="M239.47318,242.96677c0,0 -0.42828,2.14788 -11.24361,1.66758c-8.63169,-0.38332 -14.83675,-3.2426 -14.83675,-3.2426" fill="none" stroke="#524d14" stroke-width="0.75" stroke-linecap="round"/><path d="M225.66521,249.05001c0,0 -9.07634,-0.97866 -13.38699,-1.95501c-4.68518,-1.06119 -13.69424,-4.17883 -13.69424,-4.17883c0,0 3.98669,-1.32762 6.28547,-1.8014c2.14094,-0.44125 7.06741,-0.95063 7.06741,-0.95063c0,0 5.87626,-8.94853 16.48451,-7.47075c6.2926,0.87658 9.07228,3.1783 11.77266,8.08057c0.84028,1.52546 2.49294,2.93583 2.49294,2.93583c0,0 5.19347,2.30339 7.05059,3.31986c1.64612,0.90098 3.53564,2.47436 3.53564,2.47436c0,0 -9.87876,0.60707 -14.66893,0.54694c-4.03775,-0.05069 -12.2024,-0.88428 -12.2024,-0.88428z" fill="none" stroke="#000000" stroke-width="1.5" stroke-linecap="round"/></g><path d="M227.65189,232.44248c0,0 0.40239,-1.08551 0.41834,-1.92025c0.02101,-1.09911 -0.19515,-3.6864 -0.19515,-3.6864l2.13318,0.36866c0,0 -0.40568,2.18835 -0.66643,3.20268c-0.22831,0.88815 -0.36002,2.43466 -0.36002,2.43466z" fill="#000000" stroke="#000000" stroke-width="1.5" stroke-linecap="butt"/></g><g fill="#81782d" stroke="none" stroke-width="0.5" stroke-linecap="butt"><path d="M393.10974,257.32494c0.17166,-0.15284 0.33862,0.01412 0.33862,0.01412c0.2201,0.25309 0.30937,0.6707 0.19705,0.98674c-0.00685,0.01929 -0.01714,0.03934 -0.03024,0.05992c-0.02265,0.20583 -0.12866,0.40253 -0.33868,0.57629c0.41357,0.12237 0.60647,0.85521 0.32513,1.14812c-0.25016,0.26045 -1.43202,-0.07657 -1.08327,0.01719c0.76522,0.20572 0.67762,0.82284 0.3488,1.24809c0.25691,0.07781 0.53525,0.28616 0.79908,-0.03634c0.50061,-0.61193 1.81952,-2.3433 3.98503,-4.29012c2.90536,-2.61194 7.47746,-7.35453 7.47746,-7.35453c0,0 -6.3755,10.09841 -6.61259,11.23046c-0.46022,2.19741 -1.85573,2.99378 -3.95804,2.85131c-3.58538,-0.04287 -5.7844,-1.18067 -5.82223,-5.11629c-0.00002,-3.22967 3.12214,-2.56122 4.37387,-1.33495z"/><path d="M430.5682,218.67372c-0.32241,0.00917 -0.35597,0.25438 -0.28915,0.52659c0.01031,-0.05494 0.04333,-0.1128 0.12159,-0.15901c0.21527,-0.12712 0.34239,0.08816 0.34239,0.08816c0.01241,0.02211 0.02451,0.04389 0.03629,0.06532c0.08274,-0.17362 0.01573,-0.52751 -0.21112,-0.52106zM427.37935,214.47833c-1.41762,-2.7075 -1.95642,-5.22601 -1.95642,-5.22601c0,0 5.97491,9.81072 5.75511,10.24809l-0.14218,0.22007c0.43845,1.07689 -2.04898,-2.17193 -3.6565,-5.24215zM430.48788,219.67775c0.00059,-0.00282 0.00124,-0.00565 0.00193,-0.00846c-0.03112,-0.05172 -0.06797,-0.11175 -0.1112,-0.1808c0.03332,0.07747 0.06954,0.15098 0.10397,0.21531c0.0014,-0.00905 0.00322,-0.01776 0.0053,-0.02605z"/><path d="M414.55072,239.59248c-0.03395,-0.32074 -0.28102,-0.33533 -0.54728,-0.24777c0.05557,0.00606 0.1158,0.03451 0.1679,0.10899c0.1433,0.20486 -0.06155,0.34815 -0.06155,0.34815c-0.0211,0.01408 -0.04187,0.02782 -0.06233,0.04122c0.17947,0.06913 0.52715,-0.02491 0.50326,-0.25059zM418.48829,236.09025c2.59039,-1.62176 5.05998,-2.35276 5.05998,-2.35276c0,0 -9.32186,6.71213 -9.77486,6.52663l-0.23036,-0.12483c-1.03996,0.52002 2.00783,-2.21004 4.94524,-4.04905zM413.54348,239.58966c0.00286,0.00038 0.00573,0.0008 0.00859,0.00127c0.04917,-0.03501 0.10618,-0.07636 0.1717,-0.12478c-0.07468,0.03918 -0.14518,0.08095 -0.20667,0.12023c0.00914,0.0007 0.01797,0.00184 0.02639,0.00328z"/></g><path d="M248.33756,220.92449c-0.27761,0.1642 -0.18818,0.39499 0.00213,0.60075c-0.01759,-0.05306 -0.01674,-0.11967 0.02934,-0.19801c0.12675,-0.21549 0.34223,-0.08873 0.34223,-0.08873c0.02157,0.01333 0.04271,0.02652 0.0634,0.03956c-0.01173,-0.19196 -0.24178,-0.46911 -0.4371,-0.35357zM243.51549,218.79899c-2.55176,-1.68188 -4.24316,-3.62415 -4.24316,-3.62415c0,0 9.97961,5.68834 9.99919,6.17745l-0.01778,0.26141c0.90525,0.7297 -2.84466,-0.9075 -5.73826,-2.8147zM248.75367,221.84176c-0.00085,-0.00276 -0.00165,-0.00554 -0.00241,-0.00834c-0.05228,-0.03017 -0.11359,-0.06483 -0.18487,-0.1043c0.06667,0.05163 0.13397,0.09839 0.19526,0.13799c-0.00315,-0.0086 -0.00579,-0.0171 -0.00798,-0.02535z" fill="#888139" stroke="none" stroke-width="0.5" stroke-linecap="butt"/><path d="M248.33756,220.92449c-0.27761,0.1642 -0.18818,0.39499 0.00213,0.60075c-0.01759,-0.05306 -0.01674,-0.11967 0.02934,-0.19801c0.12675,-0.21549 0.34223,-0.08873 0.34223,-0.08873c0.02157,0.01333 0.04271,0.02652 0.0634,0.03956c-0.01173,-0.19196 -0.24178,-0.46911 -0.4371,-0.35357zM243.51549,218.79899c-2.55176,-1.68188 -4.24316,-3.62415 -4.24316,-3.62415c0,0 9.97961,5.68834 9.99919,6.17745l-0.01778,0.26141c0.90525,0.7297 -2.84466,-0.9075 -5.73826,-2.8147zM248.75367,221.84176c-0.00085,-0.00276 -0.00165,-0.00554 -0.00241,-0.00834c-0.05228,-0.03017 -0.11359,-0.06483 -0.18487,-0.1043c0.06667,0.05163 0.13397,0.09839 0.19526,0.13799c-0.00315,-0.0086 -0.00579,-0.0171 -0.00798,-0.02535z" fill="#888139" stroke="none" stroke-width="0.5" stroke-linecap="butt"/><path d="M248.33756,220.92449c-0.27761,0.1642 -0.18818,0.39499 0.00213,0.60075c-0.01759,-0.05306 -0.01674,-0.11967 0.02934,-0.19801c0.12675,-0.21549 0.34223,-0.08873 0.34223,-0.08873c0.02157,0.01333 0.04271,0.02652 0.0634,0.03956c-0.01173,-0.19196 -0.24178,-0.46911 -0.4371,-0.35357zM243.51549,218.79899c-2.55176,-1.68188 -4.24316,-3.62415 -4.24316,-3.62415c0,0 9.97961,5.68834 9.99919,6.17745l-0.01778,0.26141c0.90525,0.7297 -2.84466,-0.9075 -5.73826,-2.8147zM248.75367,221.84176c-0.00085,-0.00276 -0.00165,-0.00554 -0.00241,-0.00834c-0.05228,-0.03017 -0.11359,-0.06483 -0.18487,-0.1043c0.06667,0.05163 0.13397,0.09839 0.19526,0.13799c-0.00315,-0.0086 -0.00579,-0.0171 -0.00798,-0.02535z" fill="#888139" stroke="none" stroke-width="0.5" stroke-linecap="butt"/><path d="M247.68636,227.94155c-0.38551,-0.19205 -0.50674,-0.09326 -0.51788,0.07983c0.03048,-0.02043 0.08886,-0.02845 0.19704,-0.00322c0.29758,0.06939 0.37688,0.25155 0.37688,0.25155c0.00738,0.01832 0.01451,0.03628 0.02137,0.05388c0.1558,-0.034 0.19383,-0.24692 -0.07741,-0.38205zM245.29671,223.95791c-0.78258,-2.18059 -0.58541,-3.73363 -0.58541,-3.73363c0,0 3.82996,8.41225 3.42397,8.49096l-0.24175,0.02035c0.16252,0.79089 -1.7094,-2.30497 -2.59681,-4.77767zM247.25767,228.38082c0.00164,-0.00101 0.00335,-0.00198 0.0051,-0.00293c-0.01975,-0.04412 -0.04353,-0.09576 -0.07188,-0.15569c0.0138,0.05797 0.03236,0.11579 0.05185,0.16807c0.00468,-0.00354 0.00971,-0.00668 0.01493,-0.00944z" fill="#888139" stroke="none" stroke-width="0.5" stroke-linecap="butt"/><path d="M391.1184,257.38953c0.37435,-0.09932 0.76758,-0.15224 1.17317,-0.15224c0.56367,0 1.58924,0.81175 1.54547,1.88954c-0.03171,0.78082 -1.27799,1.82004 -0.52545,2.22009c1.13343,0.60251 2.83339,-0.44668 4.47066,-0.1757c0.2682,0.04439 1.66253,1.34734 2.1322,1.61168c0.97769,0.55024 3.60314,-0.48444 5.57986,0.47317c1.97672,0.95761 3.50149,3.82368 3.88712,4.11309" fill="none" stroke="#000000" stroke-width="1.5" stroke-linecap="butt"/><path d="M228.05864,274.93266c0.21643,-0.15972 0.46627,-0.30728 0.74786,-0.438c0.39134,-0.18165 1.45861,-0.1927 1.8999,0.24558c0.3197,0.31751 -0.09076,1.12815 0.60679,1.04307c1.05059,-0.12815 1.77164,-1.08891 3.02693,-1.50991c0.20563,-0.06896 1.74388,-0.00553 2.18564,-0.05286c0.91958,-0.09853 2.28953,-1.35185 4.08098,-1.61201c1.79145,-0.26016 4.10434,0.3764 4.49873,0.36602" fill="none" stroke="#000000" stroke-width="1.5" stroke-linecap="butt"/><g stroke="none" stroke-linecap="butt"><path d="M349.86228,235.46622c0.24011,-1.26215 0.45915,-2.63327 0.61274,-4.03424c1.07228,-9.78097 1.43992,-23.90079 1.12006,-32.98407c-0.51254,-14.55502 -7.41201,-46.11622 -7.41201,-46.11622l5.50871,-0.8922c0,0 -0.36438,6.28373 0.40588,14.74542c0.92897,10.20526 3.03402,23.49382 3.19718,31.6365c0.20802,10.38243 -0.24858,28.23567 -0.51997,37.40116z" fill="#000000" stroke-width="0"/><path d="M348.17612,231.25765c0.05415,-0.2218 0.28642,-0.18031 0.28642,-0.18031c0.32498,0.08157 0.63602,0.37132 0.72353,0.69249c0.00534,0.0196 0.00829,0.04177 0.00925,0.06596c0.0985,0.18057 0.1233,0.40092 0.04952,0.66149c0.40965,-0.13455 0.98527,0.35338 0.92067,0.75146c-0.05745,0.35397 -1.22087,0.74881 -0.8808,0.62766c0.74618,-0.26584 1.02535,0.28669 0.99702,0.81951c0.25549,-0.08212 0.60288,-0.07 0.63625,-0.48228c0.06333,-0.78228 0.16236,-2.94036 0.83478,-5.75361c0.90217,-3.77439 1.9621,-10.22929 1.9621,-10.22929c0,0 0.50535,11.84112 0.95464,12.89798c0.87214,2.05145 0.17805,3.49096 -1.63138,4.56579c-2.97204,1.99612 -5.42741,2.31459 -7.69819,-0.87124c-1.83796,-2.63195 1.10925,-3.85586 2.83618,-3.56562z" fill="#81782d" stroke-width="0.5"/><path d="M351.56541,207.01162c-0.27593,-0.16516 -0.43695,0.02167 -0.52825,0.28485c0.03842,-0.04036 0.09751,-0.07099 0.18831,-0.06764c0.24977,0.00922 0.23999,0.25716 0.23999,0.25716c-0.00155,0.02513 -0.00317,0.0498 -0.00488,0.07402c0.16358,-0.10067 0.29896,-0.43219 0.10482,-0.5484zM351.15799,201.79799c0.2752,-3.02141 1.18661,-5.41387 1.18661,-5.41387c0,0 -0.29281,11.39741 -0.71445,11.64491l-0.2387,0.10761c-0.21484,1.13452 -0.54552,-2.91249 -0.23346,-6.33865zM350.95405,207.8072c0.00203,-0.00205 0.0041,-0.00406 0.00621,-0.00603c0.00186,-0.05988 0.0034,-0.12977 0.00448,-0.21062c-0.01397,0.08257 -0.02334,0.16339 -0.02925,0.23557c0.00609,-0.00681 0.01233,-0.01311 0.01857,-0.01892z" fill="#81782d" stroke-width="0.5"/></g><path d="M342.2184,230.69746c0.30875,-0.07187 0.63308,-0.11018 0.96761,-0.11018c0.4649,0 1.31077,0.58742 1.27468,1.36736c-0.02616,0.56503 -1.05406,1.31707 -0.43338,1.60656c0.93484,0.43601 2.33693,-0.32324 3.68732,-0.12714c0.2212,0.03212 1.37122,0.97499 1.75861,1.16628c0.80638,0.39818 2.97181,-0.35057 4.60217,0.3424c1.63036,0.69297 2.88797,2.76699 3.20603,2.97642" fill="none" stroke="#000000" stroke-width="1.5" stroke-linecap="butt"/><g stroke-linecap="round"><path d="M339.92306,162.21332c0,0 -17.29869,-0.34082 -25.59129,-0.80075c-9.61657,-0.53334 -28.52693,-2.20218 -28.52693,-2.20218c0,0 7.92461,-2.53886 12.5827,-3.87605c3.54286,-1.01704 10.0874,-2.79106 14.44748,-3.96517c2.66833,-0.71854 4.27353,-1.31479 6.15896,-3.33505c2.37661,-2.54655 7.13648,-6.67377 14.36316,-8.60255c2.91344,-0.77758 4.63008,-1.12685 7.6449,-1.06591c3.28376,0.0664 5.13581,0.55408 8.2568,1.57727c6.70592,2.1985 11.08344,6.23009 13.2996,8.74048c1.82883,2.07164 3.41693,2.71206 6.06437,3.50414c4.32594,1.29427 10.81892,3.24862 14.33227,4.36325c4.61934,1.46551 12.47068,4.2226 12.47068,4.2226c0,0 -18.94929,1.14516 -28.57694,1.4123c-8.30213,0.23036 -25.60365,0.0926 -25.60365,0.0926z" fill="#faefbe" stroke="none" stroke-width="0"/><path d="M339.92306,162.21332c0,0 -17.29869,-0.34082 -25.59129,-0.80075c-9.61657,-0.53334 -28.52693,-2.20218 -28.52693,-2.20218c0,0 7.92461,-2.53886 12.5827,-3.87605c3.54286,-1.01704 10.0874,-2.79106 14.44748,-3.96517c2.66833,-0.71854 4.27353,-1.31479 6.15896,-3.33505c2.37661,-2.54655 7.13648,-6.67377 14.36316,-8.60255c2.91344,-0.77758 4.63008,-1.12685 7.6449,-1.06591c3.28376,0.0664 5.13581,0.55408 8.2568,1.57727c6.70592,2.1985 11.08344,6.23009 13.2996,8.74048c1.82883,2.07164 3.41693,2.71206 6.06437,3.50414c4.32594,1.29427 10.81892,3.24862 14.33227,4.36325c4.61934,1.46551 12.47068,4.2226 12.47068,4.2226c0,0 -18.94929,1.14516 -28.57694,1.4123c-8.30213,0.23036 -25.60365,0.0926 -25.60365,0.0926z" fill="#f7f787" stroke="#000000" stroke-width="1.5"/></g><path d="M339.14775,138.11777c0,0 0.04905,-2.20086 -0.0926,-3.37724c-0.18654,-1.54896 -0.92947,-5.11022 -0.92947,-5.11022l2.51084,-0.1653c0,0 -0.04483,3.20046 -0.14879,4.70719c-0.09103,1.31928 0.08694,4.0142 0.08694,4.0142z" fill="#000000" stroke="#000000" stroke-width="1.5" stroke-linecap="butt"/><path d="M351.95894,143.0076c5.60435,2.49522 8.40534,5.73958 8.25164,6.10746c-0.15369,0.36789 -3.05431,-2.41585 -8.65866,-4.91108c-5.60435,-2.49522 -9.23546,-3.34811 -9.08178,-3.716c0.15369,-0.36789 3.88441,0.02441 9.48878,2.51961z" fill="#faefbe" stroke="none" stroke-width="0" stroke-linecap="butt"/><path d="M382.37845,157.96672c0,0 -8.347,-0.7616 -12.83512,-2.60572c-4.48812,-1.84411 -7.7264,-3.47845 -7.57647,-3.84333c0.14993,-0.36488 3.05366,0.79309 7.54178,2.6372c4.48812,1.84411 12.86981,3.81184 12.86981,3.81184z" fill="#faefbe" stroke="none" stroke-width="0" stroke-linecap="butt"/><path d="M390.28968,260.73326c1.01362,-0.80392 2.08321,-1.70466 3.12308,-2.67109c7.25991,-6.74722 36.09834,-29.89109 36.09834,-29.89109l-10.29027,-25.79239l3.6378,-0.63234l8.84868,27.06272c0,0 -32.80897,26.84573 -39.05842,33.64959z" fill="#000000" stroke="none" stroke-width="0" stroke-linecap="butt"/><g><path d="M422.15792,203.51925c0,0 -10.53435,4.40909 -16.02125,6.5373c-6.36292,2.468 -16.85558,4.25317 -16.85558,4.25317c0,0 0.43212,-1.30123 2.91935,-3.83171c1.89173,-1.92463 6.1945,-5.51969 8.5515,-7.8234c1.44247,-1.40986 0.87711,-2.86446 1.33245,-5.12624c0.57395,-2.85099 2.88824,-7.21217 6.80133,-11.01605c1.57757,-1.53354 3.11766,-2.41137 5.07283,-3.27399c2.12959,-0.93958 4.16181,-1.72496 6.54378,-1.81464c5.11804,-0.19267 8.76378,2.48627 11.12024,3.91517c1.94461,1.17917 3.20131,1.23376 5.19359,1.09421c3.25539,-0.22801 8.14593,-0.56043 10.8135,-0.69249c3.5073,-0.17364 3.60651,0.74115 3.60651,0.74115c0,0 -6.91177,5.90456 -12.98334,9.04572c-5.23566,2.70869 -15.22323,7.6455 -15.22323,7.6455z" fill="#eced68" stroke="none" stroke-width="0" stroke-linecap="round"/><path d="M422.15792,203.51925c0,0 -10.34205,4.37724 -15.82895,6.50546c-6.36292,2.468 -16.41111,3.52663 -16.41111,3.52663c0,0 0.56455,-0.67022 3.05178,-3.2007c1.10625,-1.12549 2.77397,-2.77865 4.43952,-4.41815c1.1826,-1.16411 3.34278,-3.27786 3.34278,-3.27786c0,0 0.95067,4.33909 7.43573,3.11132c3.35215,-0.63464 12.00378,-3.81055 19.25028,-6.36351c6.58585,-2.32021 11.66269,-4.80521 11.66269,-4.80521l-16.07105,8.57574z" fill="#8f8621" stroke="none" stroke-width="0" stroke-linecap="round"/><path d="M428.83879,192.05109c0.14281,0.35547 -3.4604,3.34303 -7.82776,5.58716c-0.64814,0.33304 -1.31313,0.64971 -1.98519,0.93897c-2.86349,1.23247 -8.82898,3.21296 -12.33209,3.89578c-3.81334,0.74328 -5.05263,0.13463 -5.05263,0.13463l1.47728,-7.09363c0,0 1.45519,4.67656 6.4919,4.33177c6.33279,-0.43352 19.04834,-8.24309 19.22848,-7.79468z" fill="#8f8621" stroke="none" stroke-width="0" stroke-linecap="butt"/><path d="M432.85345,187.67915c0,0 1.00536,2.70627 -10.95173,9.1835c-9.54291,5.16946 -18.16636,5.96461 -18.16636,5.96461" fill="none" stroke="#524d14" stroke-width="0.75" stroke-linecap="round"/><path d="M422.15792,203.51925c0,0 -10.42733,4.78504 -15.72874,6.47926c-5.76202,1.84143 -17.57683,4.16456 -17.57683,4.16456c0,0 3.38067,-4.08869 5.52911,-6.11645c2.00094,-1.88853 6.95053,-5.66218 6.95053,-5.66218c0,0 0.21139,-13.93099 12.62656,-19.14611c7.36442,-3.0935 11.92416,-2.2956 18.17344,1.49382c1.94461,1.17917 4.68417,1.70092 4.68417,1.70092c0,0 7.15634,-0.767 9.84694,-0.82329c2.3849,-0.0499 5.49043,0.5024 5.49043,0.5024c0,0 -10.20794,7.09862 -15.39966,10.13993c-4.37623,2.56359 -13.72427,6.92085 -13.72427,6.92085z" fill="none" stroke="#000000" stroke-width="1.5" stroke-linecap="round"/></g><path d="M412.95993,183.45416c0,0 -0.30817,-1.48841 -0.86069,-2.44247c-0.72751,-1.25623 -2.7257,-4.04096 -2.7257,-4.04096l2.54533,-0.96786c0,0 1.05728,2.73736 1.46916,4.05336c0.36064,1.15229 1.27448,2.98618 1.27448,2.98618z" fill="#000000" stroke="#000000" stroke-width="1.5" stroke-linecap="butt"/><g fill="#81782d" stroke="none" stroke-width="0.5" stroke-linecap="butt"><path d="M393.10973,257.32494c0.17166,-0.15284 0.33862,0.01412 0.33862,0.01412c0.2201,0.25309 0.30937,0.6707 0.19705,0.98674c-0.00685,0.01929 -0.01714,0.03934 -0.03024,0.05992c-0.02265,0.20583 -0.12866,0.40253 -0.33868,0.57629c0.41357,0.12237 0.60647,0.85521 0.32513,1.14812c-0.25016,0.26045 -1.43202,-0.07657 -1.08327,0.01719c0.76522,0.20572 0.67762,0.82284 0.3488,1.24809c0.25691,0.07781 0.53525,0.28616 0.79908,-0.03634c0.50061,-0.61193 1.81952,-2.3433 3.98503,-4.29012c2.90536,-2.61194 7.47746,-7.35453 7.47746,-7.35453c0,0 -6.3755,10.09841 -6.61259,11.23046c-0.46022,2.19741 -1.85573,2.99378 -3.95804,2.85131c-3.58538,-0.04287 -5.7844,-1.18067 -5.82223,-5.11629c-0.00002,-3.22967 3.12214,-2.56122 4.37387,-1.33495z"/><path d="M430.56819,218.67372c-0.32241,0.00917 -0.35597,0.25438 -0.28915,0.52659c0.01031,-0.05494 0.04333,-0.1128 0.12159,-0.15901c0.21527,-0.12712 0.34239,0.08816 0.34239,0.08816c0.01241,0.02211 0.02451,0.04389 0.03629,0.06532c0.08274,-0.17362 0.01573,-0.52751 -0.21112,-0.52106zM427.046,214.14499c-1.41762,-2.7075 -1.95642,-5.22601 -1.95642,-5.22601c0,0 5.97491,9.81072 5.75511,10.24809l-0.14218,0.22007c0.43845,1.07689 -2.04898,-2.17193 -3.6565,-5.24215zM430.48787,219.67775c0.00059,-0.00282 0.00124,-0.00565 0.00193,-0.00846c-0.03112,-0.05172 -0.06797,-0.11175 -0.1112,-0.1808c0.03332,0.07747 0.06954,0.15098 0.10397,0.21531c0.0014,-0.00905 0.00322,-0.01776 0.0053,-0.02605z"/><path d="M414.55071,239.59248c-0.03395,-0.32074 -0.28102,-0.33533 -0.54728,-0.24777c0.05557,0.00606 0.1158,0.03451 0.1679,0.10899c0.1433,0.20486 -0.06155,0.34815 -0.06155,0.34815c-0.0211,0.01408 -0.04187,0.02782 -0.06233,0.04122c0.17947,0.06913 0.52715,-0.02491 0.50326,-0.25059zM418.48828,236.09025c2.59039,-1.62176 5.05998,-2.35276 5.05998,-2.35276c0,0 -9.32186,6.71213 -9.77486,6.52663l-0.23036,-0.12483c-1.03996,0.52002 2.00783,-2.21004 4.94524,-4.04905zM413.54348,239.58966c0.00286,0.00038 0.00573,0.0008 0.00859,0.00127c0.04917,-0.03501 0.10618,-0.07636 0.1717,-0.12478c-0.07468,0.03918 -0.14518,0.08095 -0.20667,0.12023c0.00914,0.0007 0.01797,0.00184 0.02639,0.00328z"/></g><g><path d="M343.018,162.20693c0,0 -17.2945,-0.51109 -25.58218,-1.05263c-9.61086,-0.628 -28.50386,-2.4829 -28.50386,-2.4829c0,0 7.94922,-2.46072 12.62025,-3.75198c2.07756,-0.57432 5.1841,-1.39739 8.27989,-2.20808c2.19811,-0.57562 6.20593,-1.61467 6.20593,-1.61467c0,0 -1.31284,4.71446 7.7307,6.61826c4.67465,0.98408 17.6375,2.01443 28.43245,2.98262c9.81079,0.8799 17.74156,1.74687 17.74156,1.74687l-25.60331,-0.15945z" fill="#8f8621" stroke="none" stroke-width="0" stroke-linecap="round"/><path d="M358.29205,154.15389c-0.02419,0.41734 -6.395,1.62226 -13.31287,1.73117c-1.02666,0.01617 -2.06538,0.0082 -3.09717,-0.03008c-7.76167,-0.28788 -17.79055,-2.2524 -21.32372,-2.45719c-2.90253,-0.16824 -2.0847,-1.10405 -1.17502,-2.39269c1.95208,-2.76527 8.44016,-6.91681 8.44016,-6.91681c0,0 -5.43979,6.42198 1.22855,8.49808c8.38428,2.61034 29.27057,1.04104 29.24008,1.56752z" fill="#8f8621" stroke="none" stroke-width="0" stroke-linecap="butt"/><path d="M357.71579,154.95341c0,0 -3.01394,0.79139 -8.83547,1.19798c-7.72228,0.53936 -12.14461,0.11331 -19.78937,-1.10416" fill="none" stroke="#524d14" stroke-width="0.75" stroke-linecap="round"/></g><g stroke-linecap="butt"><path d="M356.05677,149.99712c0.39879,-2.673 2.96583,-4.60431 5.88678,-4.29209c2.92095,0.31223 4.86141,2.72299 4.57415,5.41028c-0.28724,2.68728 -2.66698,4.75435 -5.86451,4.45192c-3.04143,-0.28766 -5.01292,-2.77855 -4.59644,-5.57009z" fill="#ffffff" stroke="#000000" stroke-width="1.4"/><path d="M358.63636,150.90581c0.16547,-1.54811 1.55461,-2.66894 3.10272,-2.50346c1.54811,0.16547 2.66895,1.55462 2.50347,3.10272c-0.16547,1.54811 -1.55461,2.66894 -3.1027,2.50346c-1.54811,-0.16547 -2.66895,-1.55462 -2.50347,-3.10272z" fill="#000000" stroke="none" stroke-width="1.5"/></g><g stroke-linecap="butt"><path d="M314.49402,149.6723c0.32617,-2.68282 3.18225,-4.62429 6.12895,-4.26606c2.9467,0.35825 4.709,2.86355 4.38284,5.54638c-0.32617,2.68282 -2.78129,4.58843 -5.728,4.23019c-2.9467,-0.35825 -5.10996,-2.82768 -4.78379,-5.51053z" fill="#ffffff" stroke="#000000" stroke-width="1.4"/><path d="M316.91108,149.23069c0.18392,-1.51278 1.55937,-2.59001 3.07214,-2.4061c1.51278,0.18392 2.59002,1.55937 2.40611,3.07214c-0.18392,1.51278 -1.55937,2.59001 -3.07214,2.4061c-1.51278,-0.18392 -2.59002,-1.55937 -2.40611,-3.07214z" fill="#000000" stroke="none" stroke-width="1.5"/></g></g></g></svg>