<svg version="1.1" xmlns="http://www.w3.org/2000/svg" xmlns:xlink="http://www.w3.org/1999/xlink" width="378" height="460.00001" viewBox="0,0,378,460.00001"><defs><linearGradient x1="320" y1="-67.5" x2="320" y2="269.5" gradientUnits="userSpaceOnUse" id="color-1"><stop offset="0" stop-color="#ffffd1"/><stop offset="1" stop-color="#f1f19c"/></linearGradient></defs><g transform="translate(-131,83.00001)"><g data-paper-data="{&quot;isPaintingLayer&quot;:true}" stroke-miterlimit="10" stroke-dasharray="" stroke-dashoffset="0" style="mix-blend-mode: normal"><path d="M145.24891,375c-6.76488,0 -12.24891,-5.33739 -12.24891,-11.9214v-432.15721c0,-6.58401 5.48402,-11.9214 12.24891,-11.9214h349.50219c6.76488,0 12.2489,5.33739 12.2489,11.9214v432.15721c0,6.584 -5.48402,11.9214 -12.2489,11.9214z" fill="#535311" fill-rule="nonzero" stroke="#212108" stroke-width="4" stroke-linecap="butt" stroke-linejoin="miter"/><path d="M160.66812,361.5c-6.16798,0 -11.16812,-4.94148 -11.16812,-11.03711v-406.92577c0,-6.09563 5.00014,-11.03711 11.16812,-11.03711h318.66376c6.16798,0 11.16812,4.94149 11.16812,11.03712v406.92577c0,6.09563 -5.00014,11.03711 -11.16812,11.03711z" fill="url(#color-1)" fill-rule="nonzero" stroke="#212108" stroke-width="4.5" stroke-linecap="butt" stroke-linejoin="miter"/><text transform="translate(160.5,-35.68135) scale(0.61033,0.61033)" font-size="40" xml:space="preserve" fill="#212108" fill-rule="nonzero" stroke="none" stroke-width="1" stroke-linecap="butt" stroke-linejoin="miter" stroke-miterlimit="10" stroke-dasharray="" stroke-dashoffset="0" font-family="&quot;Allan-Regular&quot;, Sans Serif" font-weight="normal" text-anchor="start" style="mix-blend-mode: normal"><tspan x="0" dy="0">name: DJ Scratchy</tspan><tspan x="0" dy="46.150000000000006px">age: 22</tspan><tspan x="0" dy="46.150000000000006px">occupation: high rank dealer</tspan></text><g><path d="M432.53444,-56.08653h32.93116c6.43804,0 11.62097,5.18296 11.62097,11.62097v32.93116c0,6.43802 -5.18294,11.62098 -11.62097,11.62098h-32.93116c-6.43802,0 -11.62098,-5.18296 -11.62098,-11.62097v-32.93116c0,-6.43801 5.18296,-11.62097 11.62098,-11.62097z" fill="#a0a300" fill-rule="evenodd" stroke="#212108" stroke-width="2" stroke-linecap="round" stroke-linejoin="round"/><g fill="#d9db56" fill-rule="nonzero" stroke="#000000" stroke-width="1.5" stroke-linecap="butt" stroke-linejoin="miter" font-family="&quot;Helvetica Neue&quot;, Helvetica, Arial, sans-serif" font-weight="400" font-size="16" text-anchor="start"><g/><g data-paper-data="{&quot;index&quot;:null}"/></g></g><text transform="translate(158.5,54.21865) scale(0.42687,0.44854)" font-size="40" xml:space="preserve" fill="#212108" fill-rule="nonzero" stroke="none" stroke-width="1" stroke-linecap="butt" stroke-linejoin="miter" stroke-miterlimit="10" stroke-dasharray="" stroke-dashoffset="0" font-family="&quot;Allan-Regular&quot;, Sans Serif" font-weight="normal" text-anchor="start" style="mix-blend-mode: normal"><tspan x="0" dy="0">Description-</tspan><tspan x="0" dy="46.150000000000006px">DJ Scratchy, real name “Oliver Clump”, is a washed</tspan><tspan x="0" dy="46.150000000000006px">up DJ working gigs at crappy beaten down nightclubs.</tspan><tspan x="0" dy="46.150000000000006px">Despite the name, Scratchy is a terrible DJ who can’t </tspan><tspan x="0" dy="46.150000000000006px">mix songs for shit. When asked, he said “wtf is mixing </tspan><tspan x="0" dy="46.150000000000006px">bro.” and everyones’ hearts sank. Despite having the </tspan><tspan x="0" dy="46.150000000000006px">charisma of a table, and the chin of a mole, DJ Scratchy </tspan><tspan x="0" dy="46.150000000000006px">is somehow able to woo any person he talks to, causing </tspan><tspan x="0" dy="46.150000000000006px">them to instantly fall to his command. One time he managed </tspan><tspan x="0" dy="46.150000000000006px">to guest star in a Musteezer show where he played his shitty </tspan><tspan x="0" dy="46.150000000000006px">bass boosted riddim on his 5$ speakers he got from Peemu, </tspan><tspan x="0" dy="46.150000000000006px">spouting whatever into his snowball microphone. Needless to </tspan><tspan x="0" dy="46.150000000000006px">say this went horrifically wrong and the crowd of 20 people </tspan><tspan x="0" dy="46.150000000000006px">attending were throwing banana peels at them. It’s a miracle </tspan><tspan x="0" dy="46.150000000000006px">he hasn't been stampeded yet. </tspan></text><path d="M160.16667,-30.16667v-1.66667h252.16667v1.66667z" fill="#212108" fill-rule="nonzero" stroke="none" stroke-width="0" stroke-linecap="butt" stroke-linejoin="miter"/><path d="M160.16667,-0.66667v-1.66667h252.16667v1.66667z" fill="#212108" fill-rule="nonzero" stroke="none" stroke-width="0" stroke-linecap="butt" stroke-linejoin="miter"/><path d="M160.16667,29.33333v-1.66667h252.16667v1.66667z" fill="#212108" fill-rule="nonzero" stroke="none" stroke-width="0" stroke-linecap="butt" stroke-linejoin="miter"/><g fill-rule="nonzero" stroke="#000000" stroke-width="1" stroke-linecap="butt" stroke-linejoin="miter"><g data-paper-data="{&quot;index&quot;:null}" fill="#ffffff"><path d="M443.36624,-19.52874c0,0 12.67877,-3.2387 16.88692,-9.52752c4.20817,-6.28882 -1.4874,-13.48602 -1.4874,-13.48602l2.30294,-1.66035c0,0 4.67011,9.18386 0.60412,16.10366c-3.18607,5.42232 -13.16777,10.96113 -13.16777,10.96113z"/><path d="M465.13658,-46.89937c0.24697,1.10355 -3.51599,2.84176 -3.51599,2.84176c0,0 1.32022,3.92872 0.34862,4.50449c-0.97158,0.5757 -3.7864,-2.46366 -3.7864,-2.46366c0,0 -3.33023,2.46637 -4.17751,1.72223c-0.84828,-0.74614 1.17355,-4.36196 1.17355,-4.36196c0,0 -3.37713,-2.40338 -2.92859,-3.44162c0.44658,-1.03736 4.51111,-0.23033 4.51111,-0.23033c0,0 1.24294,-3.95551 2.36728,-3.85038c1.12676,0.10268 1.61678,4.21702 1.61678,4.21702c0,0 4.14323,-0.03826 4.39115,1.06244z"/><path d="M428.8518,-17.24631c0,-6.83169 5.53818,-12.36986 12.36986,-12.36986c6.83169,0 12.36986,5.53818 12.36986,12.36986c0,6.83169 -5.53818,12.36986 -12.36986,12.36986c-6.83169,0 -12.36986,-5.53818 -12.36986,-12.36986z"/></g><g><path d="M443.36624,-19.52874c0,0 12.67877,-3.2387 16.88692,-9.52752c4.20817,-6.28882 -1.4874,-13.48602 -1.4874,-13.48602l2.30294,-1.66035c0,0 4.67011,9.18386 0.60412,16.10366c-3.18607,5.42232 -13.16777,10.96113 -13.16777,10.96113z" fill="#d9db56"/><path d="M465.13658,-46.89937c0.24697,1.10355 -3.51599,2.84176 -3.51599,2.84176c0,0 1.32022,3.92872 0.34862,4.50449c-0.97158,0.5757 -3.7864,-2.46366 -3.7864,-2.46366c0,0 -3.33023,2.46637 -4.17751,1.72223c-0.84828,-0.74614 1.17355,-4.36196 1.17355,-4.36196c0,0 -3.37713,-2.40338 -2.92859,-3.44162c0.44658,-1.03736 4.51111,-0.23033 4.51111,-0.23033c0,0 1.24294,-3.95551 2.36728,-3.85038c1.12676,0.10268 1.61678,4.21702 1.61678,4.21702c0,0 4.14323,-0.03826 4.39115,1.06244z" data-paper-data="{&quot;index&quot;:null}" fill="#d9db56"/><path d="M428.8518,-17.24631c0,-6.83169 5.53818,-12.36986 12.36986,-12.36986c6.83169,0 12.36986,5.53818 12.36986,12.36986c0,6.83169 -5.53818,12.36986 -12.36986,12.36986c-6.83169,0 -12.36986,-5.53818 -12.36986,-12.36986z" fill="#d9db56"/><g fill="#000000"><path d="M432.33641,-17.12683c0,-5.09481 4.13017,-9.22498 9.22498,-9.22498c5.09481,0 9.22498,4.13017 9.22498,9.22498c0,5.09481 -4.13017,9.22498 -9.22498,9.22498c-5.09481,0 -9.22498,-4.13017 -9.22498,-9.22498zM443.89299,-11.14581c3.69513,0 6.69064,-2.99551 6.69064,-6.69064c0,-3.69513 -2.99551,-6.69064 -6.69064,-6.69064c-3.69513,0 -6.69064,2.99551 -6.69064,6.69064c0,3.69513 2.99551,6.69064 6.69064,6.69064z"/><path d="M441.46,-18.0392c0,-1.67961 1.36159,-3.0412 3.0412,-3.0412c1.67961,0 3.0412,1.36159 3.0412,3.0412c0,1.67961 -1.36159,3.0412 -3.0412,3.0412c-1.67961,0 -3.0412,-1.36159 -3.0412,-3.0412z"/></g></g></g></g></g></svg>