<svg version="1.1" xmlns="http://www.w3.org/2000/svg" xmlns:xlink="http://www.w3.org/1999/xlink" width="754.44624" height="368.98102" viewBox="0,0,754.44624,368.98102"><defs><linearGradient x1="309.16597" y1="-3.47152" x2="309.16597" y2="364.49051" gradientUnits="userSpaceOnUse" id="color-1"><stop offset="0" stop-color="#ffffff"/><stop offset="1" stop-color="#fdffd4"/></linearGradient><linearGradient x1="-51.11016" y1="25.79984" x2="697.22317" y2="25.79984" gradientUnits="userSpaceOnUse" id="color-2"><stop offset="0" stop-color="#a5a02c"/><stop offset="1" stop-color="#7d690f"/></linearGradient></defs><g transform="translate(57.22308,4.49051)"><g stroke-miterlimit="10"><path d="M-57.22307,-3.47152h732.7781v367.96203h-732.7781z" fill="url(#color-1)" fill-rule="evenodd" stroke="none" stroke-width="2.07968" stroke-linecap="round" stroke-linejoin="round"/><path d="M-51.11016,56.09018v-60.58069h748.33333v60.58069z" fill="url(#color-2)" fill-rule="nonzero" stroke="none" stroke-width="0" stroke-linecap="butt" stroke-linejoin="miter"/><text transform="translate(5.09182,40.08575) scale(1.18448,0.99897)" font-size="40" xml:space="preserve" fill="#ffffff" fill-rule="nonzero" stroke="none" stroke-width="1" stroke-linecap="butt" stroke-linejoin="miter" font-family="&quot;Allan-Bold&quot;, Sans Serif" font-weight="normal" text-anchor="start"><tspan x="0" dy="0">CREDITS:Biographies</tspan></text><text transform="translate(8.4942,346.53127) scale(0.67612,0.68706)" font-size="40" xml:space="preserve" fill="#797621" fill-rule="nonzero" stroke="none" stroke-width="1" stroke-linecap="butt" stroke-linejoin="miter" font-family="&quot;Allan-Bold&quot;, Sans Serif" font-weight="normal" text-anchor="start"><tspan x="0" dy="0">SLAPBREAD    JREYB    STRUMBOLLY BOY    LONRAD   THATK10GUY</tspan></text><path d="M-5.9435,318.75v-4h606v4z" fill="#797621" fill-rule="nonzero" stroke="none" stroke-width="0" stroke-linecap="butt" stroke-linejoin="miter"/><text transform="translate(150.5565,281.63462) scale(0.61787,0.49666)" font-size="40" xml:space="preserve" fill="#797621" fill-rule="nonzero" stroke="none" stroke-width="1" stroke-linecap="butt" stroke-linejoin="miter" font-family="&quot;Allan-Bold&quot;, Sans Serif" font-weight="normal" text-anchor="start"><tspan x="0" dy="0">Beat 4</tspan><tspan x="0" dy="46.15px">Voice 2</tspan></text><text transform="translate(537.0565,306.63461) scale(0.5,0.40999)" font-size="40" xml:space="preserve" fill="#797621" fill-rule="nonzero" stroke="none" stroke-width="1" stroke-linecap="butt" stroke-linejoin="miter" font-family="&quot;Allan-Bold&quot;, Sans Serif" font-weight="normal" text-anchor="start"><tspan x="0" dy="0">Howard</tspan></text><text transform="translate(267.0565,119.63461) scale(0.5,0.40999)" font-size="40" xml:space="preserve" fill="#797621" fill-rule="nonzero" stroke="none" stroke-width="1" stroke-linecap="butt" stroke-linejoin="miter" font-family="&quot;Allan-Bold&quot;, Sans Serif" font-weight="normal" text-anchor="start"><tspan x="0" dy="0">Effect 3</tspan><tspan x="0" dy="46.15px">Melody 2</tspan><tspan x="0" dy="46.15px">Melody 3</tspan><tspan x="0" dy="46.15px">Melody 5</tspan><tspan x="0" dy="46.15px">Voice 3</tspan><tspan x="0" dy="46.15px">Voice 5</tspan><tspan x="0" dy="46.15px">Allstar 2</tspan><tspan x="0" dy="46.15px">Allstar 3</tspan><tspan x="0" dy="46.15px">Allstar 6</tspan><tspan x="0" dy="46.15px">Fentachu</tspan><tspan x="0" dy="46.15px">Joopers</tspan></text><text transform="translate(413.55651,265.13461) scale(0.5894,0.45333)" font-size="40" xml:space="preserve" fill="#797621" fill-rule="nonzero" stroke="none" stroke-width="1" stroke-linecap="butt" stroke-linejoin="miter" font-family="&quot;Allan-Bold&quot;, Sans Serif" font-weight="normal" text-anchor="start"><tspan x="0" dy="0">Melody 1</tspan><tspan x="0" dy="46.15px">Melody 4</tspan><tspan x="0" dy="46.15px">Allstar 5</tspan></text><text transform="translate(34.88983,83.37372) scale(0.6012,0.40515)" font-size="40" xml:space="preserve" fill="#797621" fill-rule="nonzero" stroke="none" stroke-width="1" stroke-linecap="butt" stroke-linejoin="miter" font-family="&quot;Allan-Bold&quot;, Sans Serif" font-weight="normal" text-anchor="start"><tspan x="0" dy="0">Beat 1 </tspan><tspan x="0" dy="46.15px">Beat 2</tspan><tspan x="0" dy="46.15px">Beat 3 </tspan><tspan x="0" dy="46.15px">Beat 5   </tspan><tspan x="0" dy="46.15px">Effect 1</tspan><tspan x="0" dy="46.15px">Effect 2</tspan><tspan x="0" dy="46.15px">Effect 4</tspan><tspan x="0" dy="46.15px">Effect 5</tspan><tspan x="0" dy="46.15px">Voice 1</tspan><tspan x="0" dy="46.15px">Voice 4</tspan><tspan x="0" dy="46.15px">Allstar 1</tspan><tspan x="0" dy="46.15px">Allstar 4</tspan><tspan x="0" dy="46.15px">Celine</tspan></text><path d="M89.56697,107.34537c-8.67982,3.55446 24.28013,-45.30234 -34.70904,-45.30234c-48.10005,0 -30.34164,39.28482 -34.02848,37.38062c-14.30286,-7.38721 -22.77084,-31.27191 2.36011,-39.85805c5.71314,-1.95193 19.61668,-1.23513 28.26551,-1.48344c8.08863,-0.23222 29.29716,-1.96052 35.15495,-0.49411c4.91134,1.22948 33.84389,12.68421 33.84389,12.68421l-2.97068,7.33879l8.12424,6.26864l-11.41982,3.72899l-0.18807,11.87989c0,0 -5.60571,-2.40906 -10.08755,-1.03051c-5.8692,1.8053 -11.2707,7.62833 -14.34507,8.88731z" fill="#ffffff" fill-rule="nonzero" stroke="#ffffff" stroke-width="4" stroke-linecap="butt" stroke-linejoin="miter"/><g fill-rule="nonzero" stroke-linejoin="miter"><g fill="#ffffff" stroke="#ffffff"><g stroke-linecap="round"><path d="M186.38026,261.5477c0,0 -4.58863,0.03187 -10.56127,0.14426c-3.59566,0.06765 -5.88007,0.19109 -8.67632,0.49892c-1.39325,0.15339 -5.62452,2.67642 -5.62452,2.67642c0,0 -2.86964,-1.58243 -5.05836,-1.32968c-2.19587,0.25357 -4.21995,0.29506 -5.52369,-0.59281c-4.34938,-2.96195 -4.09361,-9.46305 -4.4544,-15.87095c-0.04531,-0.80492 -0.59295,-2.3676 -1.52739,-3.19397c-0.96938,-0.85725 -2.3259,-0.96365 -2.3259,-0.96365c0,0 -0.31642,-1.53129 0.20107,-3.4224c0.4971,-1.81652 1.83533,-3.97777 1.53416,-4.82388c-1.5162,-4.25966 -4.05181,-7.25901 -4.05181,-7.25901c0,0 4.32418,0.00435 4.0045,-1.48904c-1.52585,-7.12832 2.17547,-16.24415 10.1946,-22.52003c8.86937,-6.94131 22.21322,-4.83658 22.21322,-4.83658c0,0 11.99524,-4.96789 21.7662,-1.26314c11.55655,4.38176 14.25926,13.62133 14.25926,13.62133l4.35619,-0.76024l-0.94987,2.12136c0,0 4.03191,3.01062 4.58939,10.24987c0.24433,3.17292 -1.66106,8.20701 -1.66106,8.20701l1.4992,5.32297c0,0 -1.63996,2.70115 -2.18369,4.87942c-0.94624,3.79071 -1.14838,8.81614 -1.65979,9.79791c-0.56375,1.08228 -3.70281,2.97498 -3.70281,2.97498c0,0 -4.20975,3.84592 -7.39679,4.844c-8.50451,2.66336 -19.26011,2.98689 -19.26011,2.98689z" stroke-width="1.5"/><path d="M144.19913,251.96654l6.3557,-3.28235" stroke-width="5"/><path d="M212.85678,256.27959l-2.87034,-4.03623" stroke-width="5"/></g><path d="M159.62563,237.36675c-2.16481,-12.18734 5.96003,-23.82204 18.14739,-25.98686c12.18732,-2.16481 23.82204,5.96003 25.98686,18.14738c2.02973,11.4268 -5.50621,24.16859 -17.69354,26.3334c-12.18731,2.16481 -24.27585,-6.3066 -26.44067,-18.49393z" stroke-width="1.5" stroke-linecap="butt"/><path d="M158.92209,237.5917c0,0 -11.3049,-24.78294 19.53281,-32.54998c14.68887,-3.69966 22.22333,10.89291 25.14188,19.82198c1.17016,3.58 1.31836,6.65046 1.31836,6.65046c0,0 -3.70494,-2.01376 -6.0169,-3.4488c-2.92974,-1.81851 -8.29781,0.63149 -8.29781,0.63149l-0.96038,-5.47369c0,0 -1.69626,3.06061 -2.00769,4.65695c-0.40453,2.07345 -0.21412,6.73095 -0.21412,6.73095l-5.00292,-5.17367c0,0 -0.31424,3.08032 -0.05388,4.6185c0.27719,1.63757 1.66968,4.92737 1.66968,4.92737c0,0 -3.97366,-1.91714 -5.65171,-3.52307c-2.08493,-1.99534 -5.90441,-7.53634 -5.90441,-7.53634c0,0 -5.04684,4.6004 -7.52102,6.3653c-1.87548,1.33787 -6.03183,3.30247 -6.03183,3.30247z" stroke-width="1" stroke-linecap="round"/><path d="M201.0527,242.55014c-3.38589,1.25626 -18.41561,6.52428 -27.15152,5.80168c-10.18373,-0.84235 -9.58609,-8.13538 -9.58609,-8.13538" stroke-width="1.5" stroke-linecap="round"/><path d="M191.71241,249.59326c0,0 -2.63765,1.18767 -4.16628,1.43574c-1.74857,0.28374 -5.75425,0.17408 -5.75425,0.17408" stroke-width="1.5" stroke-linecap="round"/><g stroke-width="1.5" stroke-linecap="butt"><path d="M165.49251,237.34141c-0.36943,-2.07975 1.01707,-4.06523 3.09684,-4.43465c2.07976,-0.36943 4.06521,1.01707 4.43464,3.09684c0.36943,2.07975 -1.01707,4.06524 -3.09684,4.43466c-2.07975,0.36943 -4.06522,-1.01707 -4.43465,-3.09685z"/><path d="M197.39055,231.67543c-0.36943,-2.07975 1.01707,-4.06523 3.09685,-4.43466c2.07976,-0.36943 4.06521,1.01707 4.43464,3.09685c0.36943,2.07975 -1.01707,4.06523 -3.09684,4.43465c-2.07975,0.36943 -4.06523,-1.01707 -4.43466,-3.09684z"/></g></g><g stroke="#000000"><g stroke-width="1.5" stroke-linecap="round"><path d="M185.75055,258.18799c0,0 -4.09747,0.02846 -9.43078,0.1288c-3.21077,0.06041 -5.25066,0.17065 -7.74761,0.44553c-1.24411,0.13698 -5.02245,2.38991 -5.02245,2.38991c0,0 -2.56247,-1.41303 -4.51689,-1.18734c-1.96082,0.22645 -3.76825,0.26347 -4.93242,-0.52935c-3.88381,-2.6449 -3.65541,-8.45012 -3.97759,-14.17211c-0.04047,-0.71877 -0.5295,-2.11417 -1.36391,-2.85209c-0.86561,-0.76548 -2.07694,-0.86051 -2.07694,-0.86051c0,0 -0.28255,-1.36738 0.17954,-3.05606c0.44389,-1.62206 1.63887,-3.55199 1.36994,-4.30753c-1.35388,-3.8037 -3.61811,-6.48199 -3.61811,-6.48199c0,0 3.86129,0.0039 3.57587,-1.32965c-1.36253,-6.36531 1.94261,-14.50535 9.10335,-20.10947c7.91998,-6.19832 19.83549,-4.31887 19.83549,-4.31887c0,0 10.71124,-4.43613 19.43631,-1.12795c10.31952,3.91275 12.73293,12.1633 12.73293,12.1633l3.8899,-0.67884l-0.8482,1.89429c0,0 3.60034,2.68834 4.09813,9.15271c0.21819,2.83327 -1.48325,7.32852 -1.48325,7.32852l1.33872,4.7532c0,0 -1.4644,2.41204 -1.94995,4.35712c-0.84496,3.38496 -1.02546,7.87246 -1.48212,8.74914c-0.5034,0.96644 -3.30647,2.65656 -3.30647,2.65656c0,0 -3.75913,3.43425 -6.60501,4.32551c-7.59418,2.3783 -17.19848,2.66718 -17.19848,2.66718z" fill="#000000"/><path d="M145.38275,251.38857l5.67537,-2.93101" fill="none"/><path d="M211.82461,254.96978l-2.56311,-3.60418" fill="none"/><path d="M218.82453,227.01955l-4.65339,1.46754" fill="none"/><path d="M214.15612,236.82229l3.91211,0.37338" fill="none"/></g><path d="M161.85977,236.59539c-1.93309,-10.8828 5.32206,-21.2721 16.20486,-23.2052c10.88278,-1.93309 21.27212,5.32206 23.20521,16.20487c1.81245,10.20365 -4.91683,21.58157 -15.7996,23.51464c-10.88278,1.93309 -21.67735,-5.63153 -23.61043,-16.5143z" fill="#ffffff" stroke-width="1.5" stroke-linecap="butt"/><path d="M161.23153,236.79628c0,0 -10.09481,-22.13015 17.44201,-29.0658c13.11656,-3.30364 19.84452,9.72694 22.45065,17.70022c1.0449,3.19679 1.17725,5.93861 1.17725,5.93861c0,0 -3.30837,-1.79823 -5.37286,-3.07966c-2.61613,-1.62385 -7.4096,0.5639 -7.4096,0.5639l-0.85758,-4.88777c0,0 -1.51469,2.733 -1.79278,4.15845c-0.36123,1.85149 -0.19122,6.01047 -0.19122,6.01047l-4.46741,-4.61987c0,0 -0.2806,2.75061 -0.04813,4.12413c0.24753,1.46228 1.49096,4.39995 1.49096,4.39995c0,0 -3.54831,-1.71192 -5.04676,-3.14596c-1.86175,-1.78176 -5.27238,-6.72964 -5.27238,-6.72964c0,0 -4.50662,4.10799 -6.71597,5.68397c-1.67473,1.19465 -5.38618,2.94898 -5.38618,2.94898z" fill="#000000" stroke-width="1" stroke-linecap="round"/><path d="M198.85241,241.22396c-3.02346,1.1218 -16.44439,5.82592 -24.24522,5.18066c-9.09366,-0.75218 -8.55998,-7.26457 -8.55998,-7.26457" fill="none" stroke-width="1.5" stroke-linecap="round"/><path d="M190.51193,247.51318c0,0 -2.35532,1.06054 -3.7203,1.28205c-1.5614,0.25338 -5.13833,0.15545 -5.13833,0.15545" fill="none" stroke-width="1.5" stroke-linecap="round"/><g fill="#000000" stroke-width="1.5" stroke-linecap="butt"><path d="M167.09865,236.57277c-0.32988,-1.85714 0.90822,-3.63008 2.76536,-3.95996c1.85714,-0.32988 3.63007,0.90822 3.95996,2.76536c0.32988,1.85714 -0.90821,3.63007 -2.76535,3.95996c-1.85714,0.32988 -3.63008,-0.90821 -3.95997,-2.76535z"/><path d="M195.58228,231.51328c-0.32988,-1.85714 0.90821,-3.63008 2.76535,-3.95997c1.85714,-0.32988 3.63007,0.90821 3.95996,2.76535c0.32988,1.85714 -0.90821,3.63007 -2.76535,3.95996c-1.85714,0.32988 -3.63008,-0.90821 -3.95996,-2.76535z"/></g></g></g><g fill-rule="nonzero" stroke-linejoin="miter"><g stroke="#ffffff" stroke-width="6" stroke-linecap="butt"><path d="M537.52555,282.06694l-2.26437,-32.56653l60.24808,-4.18911l2.26439,32.56653z" fill="#003aff"/><path d="M542.86831,283.77184l-2.55175,-36.69934l49.84994,-3.4661l2.55174,36.69933z" fill="#ffffff"/></g><path d="M537.52555,282.06694l-2.26437,-32.56653l60.24808,-4.18911l2.26439,32.56653z" fill="#003aff" stroke="#000000" stroke-width="1.5" stroke-linecap="butt"/><path d="M542.84703,283.46601l-2.55175,-36.69934l49.84993,-3.46612l2.55174,36.69934z" fill="#ffffff" stroke="#000000" stroke-width="1.5" stroke-linecap="butt"/><g stroke="#000000" stroke-width="1.5"><path d="M590.53887,269.45545c-4.06452,0.97188 -22.06664,4.95854 -32.03994,3.25805c-11.62617,-1.98232 -9.99262,-9.6607 -9.99262,-9.6607" fill="#ffffff" stroke-linecap="round"/><path d="M550.65505,262.82323l-5.67812,1.35687" fill="#003aff" stroke-linecap="round"/><path d="M577.22999,276.048c0,0 -2.93161,0.96082 -4.58073,1.05077c-1.88642,0.10291 -6.12188,-0.46695 -6.12188,-0.46695" fill="#003aff" stroke-linecap="round"/><g fill="#000000" stroke-linecap="butt"><path d="M553.41856,259.90517c-0.15626,-2.24733 1.53888,-4.19584 3.78624,-4.3521c2.24733,-0.15626 4.19583,1.53889 4.35209,3.78622c0.15626,2.24733 -1.53888,4.19584 -3.78623,4.3521c-2.24733,0.15626 -4.19583,-1.53889 -4.35209,-3.78622z"/><path d="M587.88672,257.50856c-0.15626,-2.24733 1.53888,-4.19583 3.78624,-4.35209c2.24733,-0.15626 4.19583,1.53889 4.35209,3.78622c0.15626,2.24733 -1.53889,4.19584 -3.78624,4.3521c-2.24733,0.15626 -4.19582,-1.53888 -4.35208,-3.78623z"/></g></g></g><g fill-rule="nonzero" stroke-width="1.5" stroke-linejoin="miter"><g fill="#ffffff" stroke="#ffffff"><path d="M418.7276,218.5906c-1.49274,-16.73007 10.85956,-31.50256 27.58962,-32.9953c16.73007,-1.49274 31.50256,10.85956 32.9953,27.58962c1.49274,16.73006 -10.85955,31.50256 -27.58962,32.9953c-16.73007,1.49275 -31.50256,-10.85956 -32.9953,-27.58962z" stroke-linecap="butt"/><g><path d="M476.27258,227.802c-4.67486,1.215 -25.38738,6.22903 -36.95065,4.48957c-13.47969,-2.02775 -11.76566,-10.9376 -11.76566,-10.9376" stroke-linecap="round"/><path d="M423.50325,222.73646l6.53078,-1.6964" stroke-linecap="round"/><path d="M461.04231,235.72114c0,0 -3.36594,1.17658 -5.26958,1.31784c-2.17756,0.16158 -7.08481,-0.40114 -7.08481,-0.40114" stroke-linecap="round"/><g stroke-linecap="butt"><path d="M438.27625,221.88237c-2.5934,0.23139 -4.88338,-1.68338 -5.11478,-4.2768c-0.2314,-2.5934 1.68338,-4.88338 4.27681,-5.11478c2.5934,-0.23139 4.88338,1.6834 5.11477,4.27682c0.23139,2.5934 -1.68339,4.88338 -4.27682,5.11477z"/><path d="M478.05235,218.33333c-2.5934,0.23139 -4.88338,-1.68338 -5.11477,-4.27681c-0.23139,-2.5934 1.6834,-4.88338 4.27682,-5.11477c2.5934,-0.23139 4.88338,1.6834 5.11477,4.27682c0.23139,2.5934 -1.68338,4.88338 -4.2768,5.11478z"/></g></g></g><g stroke="#000000"><path d="M423.04468,218.20541c-1.29002,-14.45793 9.3847,-27.22418 23.84263,-28.51418c14.45793,-1.29002 27.22418,9.3847 28.51418,23.84263c1.29002,14.45793 -9.3847,27.22417 -23.84263,28.51418c-14.45793,1.29002 -27.22417,-9.3847 -28.51418,-23.84263z" fill="#ff3ef1" stroke-linecap="butt"/><g><path d="M472.7744,226.16579c-4.03995,1.05 -21.93948,5.38306 -31.93233,3.87984c-11.64898,-1.75236 -10.16774,-9.45216 -10.16774,-9.45216" fill="none" stroke-linecap="round"/><path d="M432.81556,220.32221l-5.64382,1.46601" fill="none" stroke-linecap="round"/><path d="M459.61256,233.00942c0,0 -2.90882,1.0168 -4.55391,1.13887c-1.88182,0.13964 -6.12261,-0.34666 -6.12261,-0.34666" fill="none" stroke-linecap="round"/><g fill="#000000" stroke-linecap="butt"><path d="M435.51828,217.35416c-0.19998,-2.24119 1.45477,-4.22016 3.69597,-4.42013c2.24119,-0.19997 4.22016,1.45476 4.42013,3.69597c0.19997,2.24119 -1.45476,4.22016 -3.69597,4.42013c-2.24119,0.19997 -4.22016,-1.45476 -4.42014,-3.69597z"/><path d="M469.89235,214.28713c-0.19997,-2.24119 1.45476,-4.22016 3.69597,-4.42013c2.24119,-0.19997 4.22016,1.45476 4.42013,3.69597c0.19997,2.24119 -1.45476,4.22016 -3.69597,4.42013c-2.24119,0.19997 -4.22016,-1.45476 -4.42013,-3.69597z"/></g></g></g></g><path d="M310.59789,84.79642c0,0.25 -0.28905,0.25 -0.28905,0.25h-0.38539c-0.69695,-0.04842 -0.99579,-0.56896 -1.67086,-0.85972c0,0 -0.25854,-0.11181 -0.12927,-0.33541c0.12927,-0.22361 0.3878,-0.1118 0.3878,-0.1118c0.40199,0.17449 1.14267,0.85007 1.41232,0.80694h0.38539c0,0 0.28905,0 0.28905,0.25z" fill="#000000" fill-rule="nonzero" stroke="none" stroke-width="0.5" stroke-linecap="butt" stroke-linejoin="miter"/><g fill-rule="nonzero" stroke-linejoin="miter"><g fill="#ffffff" stroke="none" stroke-width="0"><path d="M259.82722,83.10155c-1.45864,-12.74268 13.17373,-23.84505 32.6823,-24.7978c19.50855,-0.95276 36.50584,8.60487 37.96446,21.34756c1.45864,12.74268 -13.17373,23.84505 -32.6823,24.79779c-19.50855,0.95275 -36.50583,-8.60487 -37.96446,-21.34755z" stroke-linecap="butt"/><g><path d="M327.44079,90.70046c-5.46459,0.87318 -29.66996,4.46103 -43.1073,3.01152c-15.66434,-1.68972 -13.51921,-8.44865 -13.51921,-8.44865" stroke-linecap="round"/><path d="M273.80349,83.26968c0,0 2.8035,3.24179 -1.49973,5.10501c-4.86191,2.10512 -8.03637,-2.01589 -8.03637,-2.01589" stroke-linecap="round"/><path d="M309.57141,96.5581c0,0 -3.93962,0.85825 -6.15892,0.94491c-2.53866,0.09911 -8.24416,-0.38254 -8.24416,-0.38254" stroke-linecap="round"/><g stroke-linecap="butt"><path d="M277.40476,82.4732c-0.22612,-1.9753 2.04213,-3.69635 5.06626,-3.84404c3.02412,-0.14769 5.65896,1.33389 5.88507,3.3092c0.22611,1.97531 -2.04213,3.69635 -5.06625,3.84404c-3.02412,0.14769 -5.65896,-1.33388 -5.88508,-3.3092z"/><path d="M322.78361,80.07695c-0.22611,-1.9753 2.04213,-3.69635 5.06625,-3.84404c3.02411,-0.14769 5.65897,1.33389 5.88507,3.3092c0.22611,1.9753 -2.04213,3.69635 -5.06626,3.84404c-3.02411,0.14769 -5.65896,-1.33389 -5.88507,-3.3092z"/></g></g><path d="M267.00946,86.63419c-0.03103,-0.27111 0.28029,-0.50733 0.69537,-0.5276c0.41506,-0.02027 0.77672,0.18309 0.80775,0.45421c0.03103,0.27111 -0.2803,0.50733 -0.69537,0.5276c-0.41506,0.02027 -0.77671,-0.18309 -0.80775,-0.45421z" stroke-linecap="butt"/><path d="M269.16719,84.35673c-0.03103,-0.27111 0.2803,-0.50735 0.69537,-0.52761c0.41506,-0.02027 0.77671,0.18309 0.80775,0.45421c0.03103,0.27111 -0.2803,0.50735 -0.69536,0.52761c-0.41506,0.02027 -0.77672,-0.18309 -0.80776,-0.45421z" stroke-linecap="butt"/><path d="M270.57199,86.06527c-0.03103,-0.27111 0.2803,-0.50734 0.69537,-0.52761c0.41506,-0.02027 0.77671,0.1831 0.80775,0.45421c0.03103,0.27111 -0.28029,0.50734 -0.69537,0.52761c-0.41506,0.02027 -0.77672,-0.18309 -0.80775,-0.45421z" stroke-linecap="butt"/></g><path d="M264.70802,82.55447c-1.23051,-10.74975 11.11338,-20.11571 27.57083,-20.91946c16.45745,-0.80374 30.79637,7.25909 32.02688,18.00883c1.23051,10.74975 -11.11338,20.11571 -27.57083,20.91946c-16.45745,0.80375 -30.79638,-7.25908 -32.02688,-18.00883z" fill="#ffffff" stroke="#000000" stroke-width="1.5" stroke-linecap="butt"/><path d="M283.26186,91.8388c0,0 5.34679,-4.51823 19.92017,-4.54575c15.33082,-0.02895 15.92316,2.094 18.5649,1.67188" fill="none" stroke="#000000" stroke-width="1.5" stroke-linecap="round"/><path d="M296.83421,92.0475c0,0 4.42777,-1.09366 6.56939,-1.17728c1.8722,-0.07311 5.58106,0.70288 5.58106,0.70288" fill="none" stroke="#000000" stroke-width="1.5" stroke-linecap="round"/><g fill="#000000" stroke="#000000" stroke-width="1.5" stroke-linecap="butt"><path d="M282.80936,82.32665c-0.14745,-1.28816 1.33172,-2.41048 3.30384,-2.50679c1.97211,-0.09631 3.69035,0.86986 3.8378,2.15802c0.14745,1.28816 -1.33171,2.41048 -3.30384,2.50679c-1.97211,0.09631 -3.69036,-0.86986 -3.83781,-2.15802z"/><path d="M320.7643,81.18278c-0.14745,-1.28816 1.33172,-2.41048 3.30384,-2.50679c1.97211,-0.09631 3.69036,0.86985 3.83781,2.15801c0.14745,1.28816 -1.33171,2.41048 -3.30384,2.50679c-1.97211,0.09631 -3.69036,-0.86986 -3.83781,-2.15802z"/></g><g><path d="M281.271,94.90045c-0.20603,0.14517 -0.54314,0.06579 -0.75296,-0.17728c-0.20983,-0.24307 -0.21287,-0.5578 -0.00686,-0.70295c0.20603,-0.14517 0.54314,-0.06579 0.75295,0.17727c0.20983,0.24307 0.21288,0.5578 0.00686,0.70296z" fill="#000000" stroke="none" stroke-width="0.5" stroke-linecap="butt"/><path d="M278.22755,92.58631c0,0 1.33051,-3.21542 4.85004,-1.46541c3.97648,1.97721 2.10375,5.82782 2.10375,5.82782" fill="#ffffff" stroke="#000000" stroke-width="1.5" stroke-linecap="round"/><path d="M284.12809,95.15233c-0.20603,0.14517 -0.54314,0.06579 -0.75295,-0.17727c-0.20983,-0.24307 -0.21289,-0.55779 -0.00686,-0.70296c0.20603,-0.14517 0.54314,-0.06578 0.75295,0.17728c0.20983,0.24307 0.21288,0.55778 0.00686,0.70294z" fill="#000000" stroke="none" stroke-width="0.5" stroke-linecap="butt"/><path d="M282.0061,93.25007c-0.20603,0.14517 -0.54314,0.06579 -0.75295,-0.17727c-0.20983,-0.24307 -0.21289,-0.55779 -0.00686,-0.70296c0.20603,-0.14517 0.54315,-0.06578 0.75296,0.17728c0.20983,0.24307 0.21288,0.55779 0.00686,0.70295z" fill="#000000" stroke="none" stroke-width="0.5" stroke-linecap="butt"/></g><path d="M284.93304,86.62975c0,0.25 -0.28905,0.25 -0.28905,0.25h-0.5781c-1.17165,-0.01216 -2.1962,-0.52672 -2.5866,-1.50427c0,0 -0.0914,-0.23718 0.18281,-0.31623c0.27421,-0.07905 0.36562,0.15811 0.36562,0.15811c0.27953,0.75926 1.13391,1.17421 2.03817,1.16239h0.5781c0,0 0.28905,0 0.28905,0.25z" fill="#000000" stroke="none" stroke-width="0.5" stroke-linecap="butt"/><path d="M271.92515,75.77617c0.2161,0.16603 0.02414,0.35294 0.02414,0.35294l-0.24468,0.23733c-1.23459,1.11568 -1.22396,-0.93456 -1.22396,-1.73669c0,0 0,-0.25 0.28905,-0.25c0.28905,0 0.28905,0.25 0.28905,0.25c0,0.36917 0.0202,2.15719 0.18817,1.43126l0.27018,-0.26396c0,0 0.19196,-0.1869 0.40806,-0.02087z" fill="#000000" stroke="none" stroke-width="0.5" stroke-linecap="butt"/><path d="M271.05872,80.46308c0,0.25 -0.28905,0.25 -0.28905,0.25l0.06583,-0.1382c-1.63376,2.8261 -2.08917,-0.83928 -2.08917,-2.1118c0,0 0,-0.25 0.28905,-0.25c0.28905,0 0.28905,0.25 0.28905,0.25c0,0.80043 -0.19617,3.94697 0.99401,1.88819l0.45123,-0.13819c0,0 0.28905,0 0.28905,0.25z" fill="#000000" stroke="none" stroke-width="0.5" stroke-linecap="butt"/></g><g fill-rule="nonzero" stroke-linecap="butt" stroke-linejoin="miter"><path d="M93.07346,107.01204c-8.27687,3.55446 23.15295,-45.30234 -33.0977,-45.30234c-45.86705,0 -28.93306,39.28482 -32.44873,37.38062c-13.63886,-7.38721 -21.71371,-31.27191 2.25055,-39.85804c5.44792,-1.95193 18.706,-1.23513 26.95331,-1.48343c7.71312,-0.23223 27.93707,-1.96052 33.52291,-0.49412c4.68332,1.22947 32.27272,12.68421 32.27272,12.68421l-2.83276,7.33879l7.74706,6.26864l-10.88967,3.72898l-0.17934,11.87989c0,0 -5.34547,-2.40906 -9.61924,-1.03051c-5.59672,1.80529 -10.74747,7.62832 -13.67912,8.88731z" fill="#003aff" stroke="#000000" stroke-width="1.5"/><path d="M20.55428,82.77945c-0.29023,-0.44283 0.29023,-0.66426 0.29023,-0.66426l0.35052,-0.1053c2.60392,-1.98655 4.85221,-6.10839 -0.70674,-6.88809c0,0 -0.01325,-0.00202 -0.03553,-0.00694c-0.35901,0.01233 -0.73701,0.01656 -1.13514,0.01656c0,0 -0.64898,0 -0.64898,-0.49511c0,-0.49511 0.64898,-0.49511 0.64898,-0.49511c2.60612,0 3.99044,0.09759 4.96698,-1.94911c-0.08985,-0.08152 -0.36571,-0.38 0.02552,-0.67849c0.4589,-0.3501 0.91779,0 0.91779,0l0.41637,0.70471c-0.65022,1.44439 -1.51704,2.18066 -2.70081,2.55109c3.84726,1.71351 2.12996,5.68201 -0.83063,7.94067l-0.68785,0.29079c0,0 -0.58046,0.22142 -0.87069,-0.22142z" fill="#000000" stroke="none" stroke-width="0.5"/><path d="M104.46308,75.92359c-0.64898,0 -0.64898,-0.49511 -0.64898,-0.49511l0.06949,-0.17318c-0.60031,-0.90832 -1.06066,-1.85177 -1.49308,-2.80477c-1.08002,0.07798 -2.14626,0.22012 -3.17749,0.47799l-0.00204,0.07745c0,0 -0.45889,0.35009 -0.91779,0c-0.45889,-0.35009 0,-0.70019 0,-0.70019l0.51714,-0.31863c1.0276,-0.25481 2.08346,-0.40502 3.15222,-0.49342c-0.30128,-0.67607 -0.60726,-1.35264 -0.95754,-2.0207c0,0 -0.24102,-0.4597 0.36153,-0.64357c0.60256,-0.18388 0.84358,0.27581 0.84358,0.27581c0.39941,0.76179 0.73982,1.53588 1.08199,2.30754c1.25479,-0.05206 2.51851,-0.0442 3.76683,-0.0442c0,0 0.64898,0 0.64898,0.49511c0,0.49511 -0.64898,0.49511 -0.64898,0.49511c-1.10013,0 -2.2177,-0.01023 -3.33001,0.02446c0.3811,0.82484 0.79378,1.63969 1.31359,2.42623l0.06949,0.61899c0,0 0,0.49511 -0.64898,0.49511z" fill="#000000" stroke="none" stroke-width="0.5"/><path d="M104.15721,96.16598c-0.44445,0.36078 -0.91735,0.02172 -0.91735,0.02172l-0.71854,-0.53948c-0.23742,-0.59482 -0.42956,-1.09313 -0.67414,-1.52376c-0.6785,0.46418 -1.38947,0.90179 -2.16448,1.29318l-0.47173,0.36329c0,0 -0.45889,0.35009 -0.91779,0c-0.45889,-0.35009 0,-0.70019 0,-0.70019l0.56663,-0.42888c0.82794,-0.4238 1.58231,-0.89719 2.30296,-1.39827c-0.38762,-0.35266 -0.90701,-0.65729 -1.66258,-0.94469c0,0 -0.58046,-0.22142 -0.29023,-0.66426c0.29023,-0.44283 0.87069,-0.22142 0.87069,-0.22142c0.89471,0.34218 1.53868,0.71034 2.02999,1.14517c0.63434,-0.47352 1.25555,-0.96183 1.8935,-1.44852c0,0 0.45889,-0.35009 0.91779,0c0.45889,0.35009 0,0.70019 0,0.70019c-0.70064,0.53453 -1.38177,1.07396 -2.08213,1.59415c0.31795,0.48534 0.55559,1.04745 0.78931,1.71802l0.4996,0.33389c0,0 0.4729,0.33907 0.02847,0.69985z" fill="#000000" stroke="none" stroke-width="0.5"/></g></g></g></svg>