<svg version="1.1" xmlns="http://www.w3.org/2000/svg" xmlns:xlink="http://www.w3.org/1999/xlink" width="551.53995" height="324.86544" viewBox="0,0,551.53995,324.86544"><defs><linearGradient x1="317.26639" y1="332.73598" x2="317.26639" y2="228.60085" gradientUnits="userSpaceOnUse" id="color-1"><stop offset="0" stop-color="#1f1f00" stop-opacity="0.48627"/><stop offset="1" stop-color="#1f1f00" stop-opacity="0"/></linearGradient><linearGradient x1="317.26639" y1="19.24585" x2="317.26639" y2="122.29624" gradientUnits="userSpaceOnUse" id="color-2"><stop offset="0" stop-color="#1f1f00" stop-opacity="0.64706"/><stop offset="1" stop-color="#1f1f00" stop-opacity="0"/></linearGradient><linearGradient x1="319.55434" y1="19.74826" x2="319.55434" y2="66.47384" gradientTransform="translate(-72.46182,-54.11662) scale(1.22094,0.98768)" gradientUnits="userSpaceOnUse" id="color-3"><stop offset="0" stop-color="#ffffff"/><stop offset="1" stop-color="#d9db56"/></linearGradient><linearGradient x1="319.99384" y1="184.37163" x2="319.99384" y2="270.36965" gradientTransform="translate(-535.81596,-344.72223) scale(1.67442,1.67442)" gradientUnits="userSpaceOnUse" id="color-4"><stop offset="0" stop-color="#ffffff"/><stop offset="1" stop-color="#d9db56"/></linearGradient><linearGradient x1="320.00001" y1="273.30001" x2="320.00001" y2="319.45" gradientTransform="translate(-640,-581.2125) scale(2,2)" gradientUnits="userSpaceOnUse" id="color-5"><stop offset="0" stop-color="#ffffff"/><stop offset="1" stop-color="#d9db56"/></linearGradient><radialGradient cx="363.54794" cy="125.4299" r="48.75277" gradientUnits="userSpaceOnUse" id="color-6"><stop offset="0" stop-color="#ffff70"/><stop offset="1" stop-color="#c2bb57"/></radialGradient><radialGradient cx="363.54794" cy="125.4299" r="48.75277" gradientUnits="userSpaceOnUse" id="color-7"><stop offset="0" stop-color="#ffff70"/><stop offset="1" stop-color="#c2bb57"/></radialGradient></defs><g transform="translate(-42.68766,-14.64294)"><g stroke-miterlimit="10"><g stroke-linecap="butt"><path d="M51.39857,336.00838c-2.8779,0 -5.21091,-2.333 -5.21091,-5.21091v-307.44362c0,-2.8779 2.333,-5.21091 5.21091,-5.21091h534.11813c2.8779,0 5.21091,2.333 5.21091,5.21091v307.44362c0,2.8779 -2.333,5.21091 -5.21091,5.21091z" fill="#9e9e46" stroke="#212108" stroke-width="7"/><path d="M586.82451,228.60085v104.13513h-539.11625v-104.13513z" fill="url(#color-1)" stroke="none" stroke-width="0"/><path d="M47.27239,64.80497v-48.81335h544.53996v48.81335z" fill="#212108" stroke="none" stroke-width="0"/><path d="M47.70826,122.29624v-103.05039h539.11625v103.05039z" fill="url(#color-2)" stroke="none" stroke-width="0"/><text transform="translate(59.34913,54.79145) scale(0.81904,1.01247)" font-size="40" xml:space="preserve" fill="url(#color-3)" stroke-opacity="0" stroke="#000000" stroke-width="0" font-family="&quot;Allan-Bold&quot;, Sans Serif" font-weight="normal" text-anchor="start"><tspan x="0" dy="0">LEMME RUN YOU THROUGH THIS REAL QUICK</tspan></text></g><path d="M240.5,321.37501v-30h159v30z" fill="#212108" stroke="none" stroke-width="0" stroke-linecap="butt"/><path d="M144,298.37501v-30h352v30z" fill="#212108" stroke="none" stroke-width="0" stroke-linecap="butt"/><path d="M198.95861,270.12501v-44.5h240.5828v44.5z" fill="#212108" stroke="none" stroke-width="0" stroke-linecap="butt"/><path d="M177.67445,243.12501v-35.5h283.15113v35.5z" fill="#212108" stroke="none" stroke-width="0" stroke-linecap="butt"/><path d="M170.5,216.12501v-35.5h297.5v35.5z" fill="#212108" stroke="none" stroke-width="0" stroke-linecap="butt"/><text transform="translate(320.00001,205.87501) scale(0.59722,0.59722)" font-size="40" xml:space="preserve" fill="url(#color-4)" stroke="none" stroke-width="1" stroke-linecap="butt" font-family="&quot;Allan-Regular&quot;, Sans Serif" font-weight="normal" text-anchor="middle"><tspan x="0" dy="0">THIS THING INDICATES WHAT LOOP</tspan><tspan x="0" dy="48px">YOU'RE ON, AND HOW MUCH MORE</tspan><tspan x="0" dy="48px">TIME UNTIL THE NEXT LOOP</tspan></text><text transform="translate(320,290.60625) scale(0.5,0.5)" font-size="40" xml:space="preserve" fill="url(#color-5)" stroke="none" stroke-width="1" stroke-linecap="butt" font-family="&quot;Allan-Regular&quot;, Sans Serif" font-weight="normal" text-anchor="middle"><tspan x="0" dy="0">YOU CAN CLICK IT TO REMOVE ALL PRESENT POLOS</tspan><tspan x="0" dy="46.150000000000006px">or just press the X key</tspan></text><g stroke="#202004" stroke-width="6" stroke-linecap="butt"><path d="M295.77433,121.76144c-2.28187,2.04458 -4.50729,4.14333 -6.57718,6.34919c-1.2532,1.33548 -4.21263,3.47912 -5.94731,4.0664c-2.30019,0.7787 -6.12987,-14.76986 -5.77759,-22.33485c-0.97062,-3.37856 -1.72156,-6.81261 -0.89276,-8.8724c3.92365,-9.7515 14.37904,-2.44929 20.85437,-0.18242c0.7193,0.2518 11.25785,7.18435 10.99181,9.77852c-0.19611,1.91239 -2.81453,2.62023 -4.26054,3.88702c-0.85051,0.7451 -1.70999,1.48878 -2.57324,2.23385c2.24104,8.90367 -0.13272,18.04831 -2.49178,27.70604c-4.1442,11.66928 -10.70938,14.39251 -21.86397,17.80953c-19.4363,5.95401 -41.5806,4.23565 -54.33807,-13.10981c-18.91483,-25.88978 16.1663,-61.31142 42.78805,-58.57927c0,0 3.34704,0.35834 2.98871,3.70535c-0.35834,3.34704 -3.70535,2.9887 -3.70535,2.9887c-17.89539,-2.00957 -38.48606,15.8693 -39.92665,33.56963c-0.45405,5.57913 -0.20599,9.7751 3.27058,14.31579c10.9289,15.02678 30.34126,15.76502 46.95213,10.67216c8.89983,-2.72866 14.08522,-3.93582 17.38292,-13.29568c1.75741,-7.20475 3.88396,-13.8702 3.1259,-20.70773z" fill="#262610"/><path d="M292.40669,117.62874c-2.28187,2.04458 -4.50729,4.14333 -6.57718,6.34919c-1.2532,1.33548 -4.21263,3.47912 -5.94731,4.0664c-2.30019,0.7787 -6.12987,-14.76987 -5.77758,-22.33486c-0.97062,-3.37856 -1.72157,-6.8126 -0.89276,-8.87239c3.92365,-9.7515 14.37904,-2.44929 20.85438,-0.18242c0.7193,0.2518 11.25785,7.18435 10.99181,9.77851c-0.19611,1.91239 -2.81453,2.62024 -4.26054,3.88703c-0.85051,0.7451 -1.70998,1.48878 -2.57323,2.23385c2.24104,8.90367 -0.13272,18.04832 -2.49178,27.70604c-4.1442,11.66928 -10.70938,14.39251 -21.86397,17.80952c-19.4363,5.95401 -41.5806,4.23565 -54.33807,-13.10981c-18.91483,-25.88978 16.1663,-61.31141 42.78805,-58.57926c0,0 3.34704,0.35834 2.98871,3.70535c-0.35834,3.34704 -3.70535,2.98871 -3.70535,2.98871c-17.89539,-2.00957 -38.48606,15.8693 -39.92665,33.56963c-0.45405,5.57913 -0.20599,9.7751 3.27058,14.31578c10.9289,15.02678 30.34126,15.76502 46.95213,10.67216c8.89983,-2.72866 14.08522,-3.93582 17.38292,-13.29568c1.75741,-7.20475 3.88396,-13.8702 3.1259,-20.70773z" fill="#6d6d2f"/></g><path d="M410.76021,122.80306c1.49578,26.88382 -18.42929,49.85353 -44.50391,51.30429c-26.07462,1.45076 -48.42484,-19.16681 -49.92062,-46.05063c-1.49578,-26.88382 18.42929,-49.85353 44.50391,-51.30429c26.07462,-1.45076 48.42484,19.1668 49.92062,46.05063z" fill="url(#color-6)" stroke="#202004" stroke-width="6" stroke-linecap="butt"/><g stroke="#202004" stroke-width="6" stroke-linecap="butt"><g><g fill="#ffffff"><path d="M358.02307,108.03162c0.55268,9.93318 -7.12665,18.43783 -17.15223,18.99564c-10.02558,0.55781 -18.60094,-7.04244 -19.15362,-16.97563c-0.55268,-9.93318 7.12664,-18.43783 17.15222,-18.99564c10.02558,-0.55781 18.60096,7.04245 19.15363,16.97563z"/></g><path d="M347.68267,107.93563c0.38302,6.88392 -3.01436,12.67077 -7.58824,12.92525c-4.57389,0.25448 -8.59224,-5.11973 -8.97526,-12.00367c-0.38302,-6.88392 3.01436,-12.67078 7.58824,-12.92526c4.57389,-0.25448 8.59224,5.11973 8.97526,12.00368z" fill="none"/><path d="M340.88916,108.84992c0.13412,2.41049 -0.56322,4.40942 -1.55754,4.46474c-0.99431,0.05532 -1.90911,-1.85393 -2.04322,-4.26439c-0.13412,-2.41049 0.56323,-4.4094 1.55754,-4.46472c0.99431,-0.05532 1.9091,1.85391 2.04322,4.26438z" fill="#23230f"/></g><g><g fill="#ffffff"><path d="M404.39045,105.34232c0.55268,9.93318 -7.12664,18.43783 -17.15222,18.99564c-10.02558,0.55781 -18.60095,-7.04244 -19.15363,-16.97563c-0.55268,-9.93318 7.12664,-18.43783 17.15223,-18.99564c10.02558,-0.55781 18.60095,7.04245 19.15362,16.97563z"/></g><path d="M394.05003,105.24634c0.38302,6.88394 -3.01436,12.67077 -7.58825,12.92525c-4.57389,0.25448 -8.59224,-5.11974 -8.97526,-12.00368c-0.38302,-6.88394 3.01436,-12.67074 7.58825,-12.92522c4.57389,-0.25448 8.59224,5.11974 8.97526,12.00366z" fill="none"/><path d="M387.25652,106.16065c0.13412,2.41049 -0.56321,4.40941 -1.55755,4.46473c-0.99433,0.05532 -1.9091,-1.8539 -2.04321,-4.26439c-0.13412,-2.41049 0.5632,-4.40941 1.55753,-4.46473c0.99433,-0.05532 1.90911,1.85393 2.04323,4.26439z" fill="#23230f"/></g></g><g stroke="#202004" stroke-width="6" stroke-linecap="round"><g><path d="M380.90238,156.31344l-17.18523,-1.91643l-15.90009,1.96054l-15.12805,-20.98153l22.32391,4.82161l15.65713,-2.92395l4.65278,0.9784l21.81267,-9.39464z" fill="#ffffff"/><path d="M400.17767,126.35168l-23.58703,12.06849l-4.6518,-1.34315l-17.94749,2.37171l-26.22495,-6.55076" fill="none"/><path d="M342.07762,147.43489l14.99427,-1.97852l7.87123,1.62174l6.12192,-1.02716l13.60034,1.76068" fill="none"/><path d="M395.19685,131.43473l-15.34729,24.42585l4.05519,-9.37976l9.74586,-14.04462" fill="none"/><path d="M337.42514,137.85303l8.04931,8.93514l0.77364,5.6783l-10.95244,-15.8681" fill="none"/><path d="M351.76237,161.08499l-6.5528,1.50886l-3.99307,-5.95688" fill="none"/><path d="M386.47855,155.7206l-3.38378,4.99419l-6.47699,-1.24159" fill="none"/><path d="M352.38366,164.02549l-2.02793,0.57055" fill="none"/><path d="M379.12775,163.45292l-2.56041,-0.77294" fill="none"/></g><path d="M377.25955,144.13481l-1.09643,4.42448" fill="none"/><path d="M350.90863,147.11138l-0.64156,-2.4817" fill="none"/><path d="M329.99409,136.19156l-2.8538,-3.02992l3.59701,-1.71057" fill="none"/><path d="M395.24376,126.51941l5.52117,-0.30719l-2.10958,4.31303" fill="none"/></g><g stroke="none" stroke-width="0.5" stroke-linecap="butt"><path d="M295.77433,121.76144c-2.28187,2.04458 -4.50729,4.14333 -6.57718,6.34919c-1.2532,1.33548 -4.21263,3.47912 -5.94731,4.0664c-2.30019,0.7787 -6.12987,-14.76986 -5.77759,-22.33485c-0.97062,-3.37856 -1.72156,-6.81261 -0.89276,-8.8724c3.92365,-9.7515 14.37904,-2.44929 20.85437,-0.18242c0.7193,0.2518 11.25785,7.18435 10.99181,9.77852c-0.19611,1.91239 -2.81453,2.62023 -4.26054,3.88702c-0.85051,0.7451 -1.70999,1.48878 -2.57324,2.23385c2.24104,8.90367 -0.13272,18.04831 -2.49178,27.70604c-4.1442,11.66928 -10.70938,14.39251 -21.86397,17.80953c-19.4363,5.95401 -41.5806,4.23565 -54.33807,-13.10981c-18.91483,-25.88978 16.1663,-61.31142 42.78805,-58.57927c0,0 3.34704,0.35834 2.98871,3.70535c-0.35834,3.34704 -3.70535,2.9887 -3.70535,2.9887c-17.89539,-2.00957 -38.48606,15.8693 -39.92665,33.56963c-0.45405,5.57913 -0.20599,9.7751 3.27058,14.31579c10.9289,15.02678 30.34126,15.76502 46.95213,10.67216c8.89983,-2.72866 14.08522,-3.93582 17.38292,-13.29568c1.75741,-7.20475 3.88396,-13.8702 3.1259,-20.70773z" fill="#262610"/><path d="M292.40669,117.62874c-2.28187,2.04458 -4.50729,4.14333 -6.57718,6.34919c-1.2532,1.33548 -4.21263,3.47912 -5.94731,4.0664c-2.30019,0.7787 -6.12987,-14.76987 -5.77758,-22.33486c-0.97062,-3.37856 -1.72157,-6.8126 -0.89276,-8.87239c3.92365,-9.7515 14.37904,-2.44929 20.85438,-0.18242c0.7193,0.2518 11.25785,7.18435 10.99181,9.77851c-0.19611,1.91239 -2.81453,2.62024 -4.26054,3.88703c-0.85051,0.7451 -1.70998,1.48878 -2.57323,2.23385c2.24104,8.90367 -0.13272,18.04832 -2.49178,27.70604c-4.1442,11.66928 -10.70938,14.39251 -21.86397,17.80952c-19.4363,5.95401 -41.5806,4.23565 -54.33807,-13.10981c-18.91483,-25.88978 16.1663,-61.31141 42.78805,-58.57926c0,0 3.34704,0.35834 2.98871,3.70535c-0.35834,3.34704 -3.70535,2.98871 -3.70535,2.98871c-17.89539,-2.00957 -38.48606,15.8693 -39.92665,33.56963c-0.45405,5.57913 -0.20599,9.7751 3.27058,14.31578c10.9289,15.02678 30.34126,15.76502 46.95213,10.67216c8.89983,-2.72866 14.08522,-3.93582 17.38292,-13.29568c1.75741,-7.20475 3.88396,-13.8702 3.1259,-20.70773z" fill="#6d6d2f"/></g><path d="M410.76021,122.80306c1.49578,26.88382 -18.42929,49.85353 -44.50391,51.30429c-26.07462,1.45076 -48.42484,-19.16681 -49.92062,-46.05063c-1.49578,-26.88382 18.42929,-49.85353 44.50391,-51.30429c26.07462,-1.45076 48.42484,19.1668 49.92062,46.05063z" fill="url(#color-7)" stroke="#23230f" stroke-width="3.5" stroke-linecap="butt"/><g stroke="#23230f" stroke-linecap="butt"><g><g fill="#ffffff" stroke-width="3"><path d="M358.02307,108.03162c0.55268,9.93318 -7.12665,18.43783 -17.15223,18.99564c-10.02558,0.55781 -18.60094,-7.04244 -19.15362,-16.97563c-0.55268,-9.93318 7.12664,-18.43783 17.15222,-18.99564c10.02558,-0.55781 18.60096,7.04245 19.15363,16.97563z"/></g><path d="M347.68267,107.93563c0.38302,6.88392 -3.01436,12.67077 -7.58824,12.92525c-4.57389,0.25448 -8.59224,-5.11973 -8.97526,-12.00367c-0.38302,-6.88392 3.01436,-12.67078 7.58824,-12.92526c4.57389,-0.25448 8.59224,5.11973 8.97526,12.00368z" fill="none" stroke-width="2.5"/><path d="M340.88916,108.84992c0.13412,2.41049 -0.56322,4.40942 -1.55754,4.46474c-0.99431,0.05532 -1.90911,-1.85393 -2.04322,-4.26439c-0.13412,-2.41049 0.56323,-4.4094 1.55754,-4.46472c0.99431,-0.05532 1.9091,1.85391 2.04322,4.26438z" fill="#23230f" stroke-width="2.25"/></g><g><g fill="#ffffff" stroke-width="3"><path d="M404.39045,105.34232c0.55268,9.93318 -7.12664,18.43783 -17.15222,18.99564c-10.02558,0.55781 -18.60095,-7.04244 -19.15363,-16.97563c-0.55268,-9.93318 7.12664,-18.43783 17.15223,-18.99564c10.02558,-0.55781 18.60095,7.04245 19.15362,16.97563z"/></g><path d="M394.05003,105.24634c0.38302,6.88394 -3.01436,12.67077 -7.58825,12.92525c-4.57389,0.25448 -8.59224,-5.11974 -8.97526,-12.00368c-0.38302,-6.88394 3.01436,-12.67074 7.58825,-12.92522c4.57389,-0.25448 8.59224,5.11974 8.97526,12.00366z" fill="none" stroke-width="2.5"/><path d="M387.25652,106.16065c0.13412,2.41049 -0.56321,4.40941 -1.55755,4.46473c-0.99433,0.05532 -1.9091,-1.8539 -2.04321,-4.26439c-0.13412,-2.41049 0.5632,-4.40941 1.55753,-4.46473c0.99433,-0.05532 1.90911,1.85393 2.04323,4.26439z" fill="#23230f" stroke-width="2.25"/></g></g><g stroke="#23230f" stroke-width="2.25" stroke-linecap="round"><g><path d="M380.90238,156.31344l-17.18523,-1.91643l-15.90009,1.96054l-15.12805,-20.98153l22.32391,4.82161l15.65713,-2.92395l4.65278,0.9784l21.81267,-9.39464z" fill="#ffffff"/><path d="M400.17767,126.35168l-23.58703,12.06849l-4.6518,-1.34315l-17.94749,2.37171l-26.22495,-6.55076" fill="none"/><path d="M342.07762,147.43489l14.99427,-1.97852l7.87123,1.62174l6.12192,-1.02716l13.60034,1.76068" fill="none"/><path d="M395.19685,131.43473l-15.34729,24.42585l4.05519,-9.37976l9.74586,-14.04462" fill="none"/><path d="M337.42514,137.85303l8.04931,8.93514l0.77364,5.6783l-10.95244,-15.8681" fill="none"/><path d="M351.76237,161.08499l-6.5528,1.50886l-3.99307,-5.95688" fill="none"/><path d="M386.47855,155.7206l-3.38378,4.99419l-6.47699,-1.24159" fill="none"/><path d="M352.38366,164.02549l-2.02793,0.57055" fill="none"/><path d="M379.12775,163.45292l-2.56041,-0.77294" fill="none"/></g><path d="M377.25955,144.13481l-1.09643,4.42448" fill="none"/><path d="M350.90863,147.11138l-0.64156,-2.4817" fill="none"/><path d="M329.99409,136.19156l-2.8538,-3.02992l3.59701,-1.71057" fill="none"/><path d="M395.24376,126.51941l5.52117,-0.30719l-2.10958,4.31303" fill="none"/></g></g></g></svg>