<svg version="1.1" xmlns="http://www.w3.org/2000/svg" xmlns:xlink="http://www.w3.org/1999/xlink" width="159.60781" height="246.25808" viewBox="0,0,159.60781,246.25808"><defs><linearGradient x1="321.90275" y1="134.03107" x2="321.90275" y2="289.07158" gradientUnits="userSpaceOnUse" id="color-1"><stop offset="0" stop-color="#000000"/><stop offset="1" stop-color="#ffffff"/></linearGradient></defs><g transform="translate(-246.54303,-44.62092)"><g stroke-miterlimit="10"><g fill="none" stroke="none" stroke-width="1" stroke-linecap="butt" font-family="sans-serif" font-weight="normal" font-size="12" text-anchor="start"><g/><g/></g><g fill="#000000" stroke="none" stroke-width="0.5" stroke-linecap="butt"><path d="M396.68051,234.61208c-0.74352,-0.66873 -0.07478,-1.41223 -0.07478,-1.41223l0.46083,-0.48333c2.58606,-1.92907 5.46517,-4.33377 6.92327,-7.26022c0.60199,-1.20824 -0.36361,-5.42976 -0.44154,-6.87999c-0.64834,-2.90786 -2.20424,-5.59198 -2.77643,-8.46643c-0.97162,-4.88103 0.0315,-9.9067 0.65111,-14.70906c0.20234,-1.5683 -0.02215,-2.95626 0.37958,-4.47737c1.26987,-4.36199 -0.53025,-9.95052 -1.45446,-14.13312c-0.89087,-4.03172 -0.81282,-8.51669 -1.00818,-12.65852c-0.472,-1.40334 -0.91429,-2.76772 -1.44329,-4.10925c-0.1163,0.62043 -0.26034,1.21963 -0.43368,1.78855c-0.91488,3.00256 -1.98162,5.79418 -1.78075,9.05749l0.05289,0.9986c0.0292,0.55151 -0.39421,1.02227 -0.94572,1.05148c-0.35212,0.01865 -0.67132,-0.14721 -0.8637,-0.41311l-1.18658,-1.59069l0.01249,-0.00932c-0.03305,-0.04076 -0.06531,-0.08224 -0.09671,-0.12452c-2.42165,-3.2589 -0.64556,-9.10242 0.47292,-12.3748c0.45922,-1.34355 1.23239,-4.28782 2.97127,-4.58585c-0.00654,-1.35108 -0.15867,-2.73152 -0.52648,-4.15621c-0.77765,-3.51524 -1.48719,-6.98589 -2.16197,-10.46294c-0.23877,1.48916 -0.45532,2.97789 -0.88914,4.44189c-1.06815,3.6048 -3.27265,6.83686 -3.06851,10.69189l-0.0862,0.1424l0.0561,0.01545l-0.27386,0.99399c-0.10388,0.4147 -0.46812,0.73142 -0.91732,0.75521c-0.39864,0.0211 -0.75509,-0.19426 -0.9331,-0.52355l-0.72554,-1.27738l0.35562,-0.202c-0.87578,-1.84244 -0.74967,-3.68276 -0.94295,-6.19762c-0.46932,-6.10615 -0.83751,-12.20767 -1.16133,-18.32307c-0.17249,-3.25754 -1.1319,-7.55074 2.90563,-8.16508c2.61844,0.01654 3.9799,1.96227 4.86172,4.20201c-0.16206,-1.87354 -0.42759,-3.78586 -0.89827,-5.51467c-0.29518,-1.08418 -1.35713,-1.80441 -1.87343,-2.80243c-1.11694,-2.15907 -2.2158,-4.52982 -3.22909,-6.88858c-0.34494,0.30454 -0.66544,0.6178 -0.76635,1.04694c-0.26232,1.11564 -0.15385,2.58872 -0.47185,3.6968c-0.39052,1.36078 -1.28102,1.48986 -1.14633,2.89707l-0.27833,1.47047c0,0 -0.1909,0.98161 -1.17251,0.79073c-0.9816,-0.19091 -0.79072,-1.17251 -0.79072,-1.17251l0.2464,-1.22773c-0.03417,-1.51274 0.86477,-1.94326 1.19934,-3.23555c0.28374,-1.09601 0.1433,-2.60491 0.47185,-3.69679c0.30357,-1.00888 1.32191,-1.64714 1.87979,-2.54096c-0.26592,-0.64658 -0.52382,-1.28744 -0.77229,-1.91784c0,0 -0.36595,-0.93063 0.56469,-1.29658c0.28049,-0.11029 0.50969,-0.10282 0.69304,-0.03852c-0.0409,-0.45576 -0.09263,-0.91026 -0.11598,-1.35386c-0.38843,-3.81158 -4.12831,-5.59616 -6.03208,-8.91934c-0.71978,-1.25643 -1.69017,-2.48151 -2.60902,-3.72215c0.23959,0.5913 0.47274,1.16947 0.67464,1.72757c0.63853,1.76503 0.91618,3.86029 1.61599,5.54961c0.44627,1.07732 1.14444,2.11122 1.23247,3.27399c0,0 0.05289,0.9986 -0.94573,1.05148c-0.9986,0.05289 -1.05148,-0.94572 -1.05148,-0.94572c-0.01779,-0.9422 -0.72401,-1.74015 -1.082,-2.61186c-0.70678,-1.72108 -1.00012,-3.83493 -1.64624,-5.62687c-0.91293,-2.53182 -2.34928,-5.40811 -2.47889,-8.15274c-0.02128,-0.45056 -0.00323,-0.89391 0.042,-1.33213c-1.30129,-3.37562 -2.42538,-6.90779 -3.29394,-10.27826c-0.75611,-1.9163 -0.9364,-4.71211 -1.93911,-6.39039c-1.73342,-2.9013 -3.52244,-5.85202 -5.41676,-8.63927c-1.81727,-2.67389 -4.34536,-4.33358 -5.36095,-7.34448c-0.41411,-0.2683 -0.83014,-0.5297 -1.24799,-0.78335c-0.68958,-0.81354 -1.48632,-1.5301 -2.21148,-2.31208c-0.41512,-0.44767 -0.37206,-1.88344 -0.90783,-1.59073c-0.21819,0.1192 -1.41366,3.50771 -1.69711,3.98587l0.15602,-0.22994c0,0 0.05289,0.9986 -0.94573,1.05149c-0.9986,0.05289 -1.05148,-0.94573 -1.05148,-0.94573l0.12076,-0.89567c0.65751,-1.10916 1.90422,-4.70773 3.17048,-4.9507c1.15119,-0.22088 4.00219,3.56257 4.66206,4.36394c0.20492,0.11776 0.40947,0.23803 0.61364,0.36065c0.66529,-0.09161 0.94234,0.39898 1.03829,0.64545c3.98853,2.56151 7.80624,5.93722 11.23739,9.00137c1.75583,1.56803 4.49877,2.01201 5.78272,4.03524c0.60147,0.94781 0.01437,3.20837 -0.04237,4.15595c-0.08875,1.4818 0.1679,3.07866 0.24642,4.56148c0.13301,2.5118 0.51178,5.26889 0.06935,7.75007c-0.2455,1.37682 -0.73507,2.73183 -0.94092,4.13436c0.40429,1.03682 0.8228,2.06035 1.25168,3.0636c1.03598,2.42349 3.35614,4.67509 4.67348,7.01658c2.11968,3.76758 5.84215,5.28597 6.30773,9.78763c0.09203,1.72797 0.34362,3.21666 -0.19244,4.78151c1.12633,2.69205 2.38544,5.44616 3.66357,7.92234c0.69862,1.35347 1.56657,1.6514 2.01477,3.1542c0.75273,2.52385 0.98823,5.53872 1.12831,8.18387c0.10953,2.06828 0.44576,4.0236 -0.00958,5.96124c1.00345,5.03004 1.64884,10.24871 2.78783,15.38115c0.42188,1.6719 0.68325,3.59227 0.74557,5.53857c0.04439,0.05169 0.0865,0.10465 0.12613,0.15868c0.48327,0.65892 0.13312,1.67066 0.50312,2.39927c1.0542,2.07601 1.68875,4.24046 2.41249,6.46476c0.23858,4.12156 0.10546,8.59498 0.99716,12.60412c1.01647,4.57007 2.68868,10.3159 1.42814,15.08867c-0.39999,1.37398 -0.14266,2.7655 -0.32494,4.20782c-0.58419,4.62251 -1.58122,9.39814 -0.66461,14.09839c0.561,2.87672 2.14449,5.62009 2.78834,8.542c0.11637,1.98678 1.08448,5.98664 0.34597,7.82002c-1.33177,3.30617 -4.85288,6.13778 -7.61306,8.19674l-0.16966,0.21767c0,0 -0.66873,0.74351 -1.41223,0.07478zM392.8618,133.10591c-0.44043,-0.95835 -0.85273,-1.94394 -1.00002,-2.98147c-0.26621,-1.87516 -1.64651,-6.98595 -4.02609,-6.57382c-2.00903,-0.39489 -1.08267,4.76901 -1.01419,6.06211c0.32299,6.09957 0.69015,12.18523 1.15825,18.27555c0.03558,0.46305 0.11993,1.01505 0.20851,1.60554c0.703,-2.13594 1.74859,-4.19133 2.40276,-6.37371c0.87411,-2.9161 0.90659,-5.94359 1.90436,-8.87726c0.1695,-0.36898 0.28738,-0.74896 0.36643,-1.13697zM393.89767,166.9634c0.4702,-3.3968 1.52915,-6.65872 1.98554,-10.03847c-0.37687,0.88755 -0.81886,1.99756 -0.86365,2.13014c-0.45209,1.33831 -1.28925,2.93513 -1.40816,4.36811c-0.09949,1.19886 0.07591,2.37545 0.28627,3.54022zM374.86579,79.45696c0.42717,-2.30892 0.02536,-4.94447 -0.0987,-7.28715c-0.0821,-1.55053 -0.33371,-3.20902 -0.24712,-4.75879c0.01599,-0.28621 0.56003,-2.71336 0.23557,-3.2024c-0.97213,-1.46519 -3.88072,-2.13184 -5.29207,-3.38952c-2.33913,-2.08444 -4.82047,-4.23243 -7.40458,-6.21384c0.95636,1.04652 1.99796,2.05724 2.7859,3.21006c1.90897,2.79296 3.8916,5.83253 5.52108,8.80675c1.05194,1.92005 1.2696,4.64313 2.09461,6.74804c0.60083,2.36566 1.33991,4.78222 2.17281,7.16945c0.08552,-0.35981 0.16545,-0.72026 0.23249,-1.08261z"/><path d="M370.10562,122.8205c0.9986,-0.05289 1.05149,0.94573 1.05149,0.94573l0.03526,0.66573c0.25789,4.87028 0.7005,9.52141 0.08619,14.21948c0.46683,1.05688 0.77917,2.10682 0.78985,3.13537c1.86811,2.41049 1.69302,5.94573 1.84793,8.87115l0.01763,0.33286c0,0 0.05289,0.9986 -0.94573,1.05149c-0.9986,0.05289 -1.05148,-0.94573 -1.05148,-0.94573l-0.01763,-0.33286c-0.1505,-2.84195 -0.00813,-5.90719 -1.73159,-8.29693c-0.00416,-0.04983 -0.00882,-0.09962 -0.01402,-0.14931c-0.53801,1.02992 -1.11942,2.05992 -1.22142,3.08914c-0.36995,3.73303 1.67324,6.76931 2.21886,10.28136c0.57667,3.71196 0.41428,7.68191 0.61324,11.43909c0.27451,5.19596 3.23071,10.20756 4.14317,15.34687c0.6163,3.47124 -0.17887,6.63674 -0.47792,9.98827c-0.17551,1.96698 -0.23093,3.43002 -1.2731,5.21509c-2.10967,2.261 -1.1515,5.48659 -0.99561,8.43046c0.05438,1.02699 -0.03736,2.07366 -0.16849,3.12551c0.10116,1.9809 0.24896,4.96998 1.25588,6.72475c0.73484,1.28064 1.57936,1.65303 2.63686,2.61636c1.52044,1.38508 2.18104,3.77434 2.56735,5.73262c0.4421,2.2409 -0.76742,8.59302 -4.15317,5.35069c-0.51595,-0.49411 -0.62636,-1.28419 -0.93954,-1.92628c-1.29373,-3.75448 -2.91142,-7.52384 -3.65196,-11.3574c-0.44113,-2.28365 0.01593,-4.61044 0.29345,-6.932c-0.00404,-0.07255 -0.00795,-0.14425 -0.01181,-0.21508c-0.09586,-2.1592 -0.99103,-4.35943 -1.34106,-6.50631c-1.27639,-7.82847 0.39487,-15.96756 2.12626,-23.5186c0,0 0.19057,-0.83115 0.98727,-0.78246c-1.22162,-3.70492 -2.79286,-7.38167 -2.99481,-11.18675c-0.19476,-3.67781 -0.03318,-7.56147 -0.58537,-11.19586c-0.55854,-3.67626 -2.71488,-6.92389 -2.2379,-10.84586c0.22711,-1.86742 1.58935,-3.42003 2.08628,-5.23706c0.05697,-0.28744 0.10886,-0.57492 0.156,-0.86244c-1.20767,-2.60597 -3.17052,-5.11115 -3.97222,-7.80055c-1.44846,-4.85905 0.14976,-10.86275 2.31217,-15.17404c0,0 0.44954,-0.89325 1.3428,-0.44372c0.89326,0.44953 0.44373,1.34279 0.44373,1.34279c-1.93529,3.83188 -3.52722,9.43255 -2.16356,13.76981c0.4773,1.51811 1.44982,3.1038 2.40353,4.70661c0.16842,-3.60127 -0.1802,-7.23231 -0.37733,-10.95478l-0.03526,-0.66573c0,0 -0.05289,-0.9986 0.94572,-1.05149zM373.49007,180.76191c-1.31821,5.81619 -2.55362,11.98546 -2.23531,18.03612c0.25765,-0.80119 0.67056,-1.57192 1.31003,-2.30514c1.18594,-1.9535 0.77643,-4.1355 1.12341,-6.26102c0.40027,-2.45197 0.72822,-4.87638 0.26985,-7.40892c-0.12483,-0.68972 -0.2844,-1.3764 -0.46798,-2.06101zM373.09494,217.72927c0.81696,3.10826 2.08462,6.17923 3.14034,9.25603c1.76644,4.1407 1.10968,-3.76635 0.47743,-5.41957c-0.61558,-1.60961 -2.43967,-2.492 -3.61777,-3.83646z"/></g><path d="M279.33038,135.01149c-0.66873,0.74352 -1.41223,0.07478 -1.41223,0.07478l-0.6124,-0.6928c-0.19154,-0.49029 -0.39003,-0.97348 -0.5937,-1.45095c-0.22279,0.34959 -0.43882,0.7096 -0.64394,1.08347c-0.33252,0.60612 -0.65435,1.31076 -1.00347,2.01453c4.92122,7.80557 6.82983,16.63888 7.3153,25.80682c0.19116,4.13226 -1.60667,8.96314 -3.14946,13.23072c0.12677,0.39773 0.21646,0.81797 0.24586,1.27645c0.17514,3.48956 -0.49231,6.81373 -1.23125,10.12735c0.09779,0.81163 0.18233,1.58246 0.2191,2.27686c0.24668,4.65861 2.52884,8.48613 3.35405,13.05205c0.316,1.74845 0.30445,3.57714 0.61876,5.33172c0.44486,2.48332 1.03283,5.20632 0.37281,7.70252c-0.61497,3.07093 -0.51974,6.30911 -1.90742,9.2736c-0.09908,0.21168 -0.20387,0.42488 -0.31344,0.63943c0.38895,3.04324 -0.61125,6.39786 -2.26337,8.98184c-0.29726,0.46493 -0.62602,0.87932 -0.96476,1.27481c0.38914,1.82466 1.06743,4.41254 0.45103,5.90084c-0.53094,1.28197 -1.50261,2.02823 -2.60472,2.58315c0.20902,2.50381 0.41222,5.00229 0.54397,7.49057l0.05289,0.9986c0,0 0.05289,0.9986 -0.94572,1.05149c-0.9986,0.05289 -1.05149,-0.94573 -1.05149,-0.94573l-0.05289,-0.9986c-0.11921,-2.25109 -0.29694,-4.51133 -0.48458,-6.77649c-0.07375,0.02877 -0.14731,0.05754 -0.22061,0.08643l-0.98097,0.38574c0,0 -0.93063,0.36595 -1.29658,-0.56469c-0.36595,-0.93063 0.56469,-1.29658 0.56469,-1.29658l0.02804,-0.01102c0.04439,-0.16166 0.10817,-0.26926 0.10817,-0.26926c0.79383,-1.20607 0.84662,-2.89795 1.30574,-4.40566c-0.08413,-1.147 -0.1597,-2.2943 -0.22043,-3.44135c0,0 -0.05289,-0.9986 0.94573,-1.05148c0.4447,-0.02354 0.70185,0.16143 0.85031,0.37387l-0.31136,-0.13691l-0.46916,0.11027c0.02769,-0.09289 0.05646,-0.18577 0.08624,-0.27864l-0.15601,-0.06859c0,0 -0.03646,-0.68857 0.52293,-0.95243c0.23897,-0.60368 0.51462,-1.20703 0.81473,-1.80979c-0.25444,-3.53178 -0.19437,-7.16541 -0.37839,-10.64058c0,0 -0.05289,-0.9986 0.94573,-1.05148c0.9986,-0.05289 1.05149,0.94572 1.05149,0.94572c0.12836,2.42406 0.12826,4.93541 0.20655,7.4324c0.6195,-1.06564 1.24521,-2.12782 1.80841,-3.18501c-0.24275,-1.13258 -0.73539,-2.21103 -1.52719,-3.17523c-0.78655,-2.4529 -0.83579,-4.97784 -1.77239,-7.36723l-0.08414,-0.64223c0,0 -0.05289,-0.9986 0.94573,-1.05149c0.9986,-0.05289 1.05148,0.94573 1.05148,0.94573l-0.0489,0.0235c0.90005,2.33323 0.97624,4.75855 1.66612,7.1379c0.37988,0.44511 0.69929,0.9202 0.96284,1.41854c0.73997,-2.40634 0.73202,-4.95484 1.19463,-7.3908c0.63606,-2.1962 -0.01067,-4.75491 -0.40274,-6.94363c-0.31165,-1.73971 -0.30393,-3.55152 -0.61102,-5.28478c-0.61192,-3.45382 -2.03676,-6.47113 -2.83561,-9.74615c-0.10555,0.64245 -0.19693,1.28788 -0.26872,1.93738c-0.45047,4.07576 -0.24134,8.48072 -1.97225,12.47838c-0.967,3.04574 -0.32265,6.97598 -0.15339,10.17221l0.01763,0.33286c0,0 0.05289,0.9986 -0.94573,1.05149c-0.9986,0.05289 -1.05149,-0.94573 -1.05149,-0.94573l-0.01762,-0.33286c-0.18802,-3.55051 -0.72951,-7.55656 0.27376,-10.96893c1.67984,-3.83359 1.4142,-8.09511 1.86075,-12.00294c0.29682,-2.59754 0.91932,-5.1324 1.49775,-7.67311c-0.3258,-2.98298 -0.78414,-6.36325 0.00788,-8.94985c0.27427,-0.89574 0.55073,-1.78676 0.82436,-2.67677c-0.47624,-1.13544 -1.2476,-2.18669 -1.53207,-3.45393c-0.78285,-3.48722 -0.7251,-7.13676 -1.24107,-10.67762c-0.37605,-2.58065 -1.58203,-5.11165 -1.74694,-7.68358c0,0 -0.05289,-0.9986 0.94572,-1.05148c0.9986,-0.05289 1.05149,0.94572 1.05149,0.94572c0.09212,2.45338 1.37129,5.00909 1.72681,7.48729c0.50271,3.50424 0.46592,7.10586 1.21849,10.55536c0.09298,0.4262 0.22946,0.82046 0.38799,1.19729c0.52648,-1.78594 1.02132,-3.58255 1.44412,-5.4195c0.38003,-1.65118 1.14816,-3.05696 1.04202,-4.7822c-0.44924,-8.48379 -2.12509,-16.64886 -6.45682,-23.94259c-0.62931,0.87016 -1.39121,1.53875 -2.39771,1.71304c0,0 -0.9986,0.05289 -1.05149,-0.94572c-0.05289,-0.9986 0.94573,-1.05149 0.94573,-1.05149c0.2138,0.08384 1.96774,-2.37768 2.34249,-3.0119c0.63974,-1.08263 1.43911,-2.21516 2.23066,-3.38979c-2.21689,-4.84813 -4.77503,-9.25205 -5.68931,-14.79183c0,0 -0.16283,-0.98666 0.82382,-1.1495c0.98665,-0.16283 1.14949,0.82382 1.14949,0.82382c0.81033,4.91004 2.95602,8.9129 4.98072,13.153c1.22756,-2.04091 2.17614,-4.18816 2.05873,-6.40536l-0.01762,-0.33286c0,0 -0.05289,-0.9986 0.94573,-1.05148c0.9986,-0.05289 1.05148,0.94572 1.05148,0.94572l0.01763,0.33286c0.18577,3.50819 -1.51075,5.73251 -3.2781,8.17388c0.39243,0.86123 0.77257,1.73775 1.12887,2.63867l0.08859,-0.06232c0,0 0.74351,0.66873 0.07478,1.41223zM275.92619,240.24894c0.34254,-0.71352 0.12392,-2.08653 -0.1623,-3.37474c-0.3013,0.39484 -0.58083,0.81788 -0.82002,1.2964c-0.051,0.10204 -0.0988,0.20448 -0.14373,0.30729c0.0712,0.9522 0.14787,1.9041 0.22641,2.85546c0.36603,-0.27629 0.67844,-0.62361 0.89963,-1.08437zM278.38157,228.58148c-0.53445,0.88903 -1.06181,1.7828 -1.52548,2.67013c0.02509,0.30655 0.05293,0.61212 0.08395,0.9165c0.6547,-1.13132 1.15428,-2.3501 1.44155,-3.58664zM274.35336,234.12452c0.1849,0.26461 0.20117,0.57185 0.20117,0.57185c0.00905,0.17088 0.01842,0.34178 0.02811,0.51265c0.20461,-0.23977 0.41318,-0.47458 0.621,-0.71065z" fill="#000000" stroke="none" stroke-width="0.5" stroke-linecap="butt"/><path d="M263.437,94.08754c-0.9986,0.05289 -1.05148,-0.94572 -1.05148,-0.94572l-0.00073,-0.98424c0.3552,-1.22006 0.17056,-2.38614 0.3809,-3.62121c-1.21409,2.81889 -3.73641,4.87319 -4.93382,7.83364c-0.47378,1.17138 0.46767,4.09226 0.65553,5.21539c0.43538,2.60286 0.71961,5.61595 1.71566,8.04532c0,0 0.36595,0.93063 -0.56468,1.29658c-0.93063,0.36595 -1.29659,-0.56468 -1.29659,-0.56468c-0.07138,-0.18735 -0.13953,-0.37692 -0.20469,-0.56843c-3.81117,7.77368 -6.35995,17.0128 -5.8634,25.6907c-1.24166,11.02225 2.40746,21.68055 3.05779,32.46571c0.22594,4.26657 1.29579,9.55384 -0.00424,13.70188c-1.36253,4.34748 -5.16599,8.69953 -4.90965,13.36323c-0.25244,1.73491 0.11795,3.36748 -0.07324,5.07261c-0.62714,5.59299 -2.4638,11.07715 -1.44064,16.81734c0.23425,1.31416 1.25313,2.01583 1.73357,3.2376c0.9033,1.08029 2.82187,3.04187 3.30537,4.33894c2.41926,6.48979 1.4999,13.44315 1.76026,20.32873c1.27087,2.1334 3.22468,3.94203 3.94617,6.29199l0.62833,0.81776c0,0 0.59792,0.80156 -0.20363,1.39948c-0.80156,0.59792 -1.39948,-0.20364 -1.39948,-0.20364l-0.8089,-1.10893c-0.74537,-2.4278 -2.82801,-4.35382 -4.08196,-6.63491c-0.45747,-7.03883 0.29214,-13.50681 -1.72164,-20.21053c-0.29684,-0.98817 -2.43336,-3.14783 -3.14452,-3.99833c-0.58681,-1.49229 -1.63562,-2.25914 -1.98287,-3.9092c-1.23024,-5.84568 0.77485,-11.68512 1.4216,-17.38186c0.18738,-1.65057 -0.18224,-3.25843 0.0637,-4.94865c-0.25105,-4.92095 3.5462,-9.30856 4.99771,-13.86542c1.23187,-3.86737 0.1276,-9.02264 -0.08289,-12.99799c-0.58538,-10.84884 -4.31112,-21.54196 -3.05994,-32.6352c-0.45174,-9.21681 2.24998,-18.93435 6.36975,-27.12177c0,0 0.3041,-0.60427 0.90907,-0.5687c-0.45458,-1.92277 -0.72433,-3.94064 -1.04019,-5.82949c-0.26371,-1.57703 -1.17027,-4.43851 -0.6095,-6.06684c1.26557,-3.67491 4.79003,-5.93534 5.52752,-9.72756c1.8015,-3.03905 2.7722,-8.26439 2.87775,-11.83195c0.07769,-2.6261 -0.72558,-5.93906 0.38374,-8.34688c0.14867,-0.32271 0.33331,-0.618 0.54697,-0.88952c0.07404,-1.51218 0.33542,-2.99245 0.95476,-4.39933c3.11753,-3.49799 7.09967,-6.5885 11.29577,-8.60355c1.46069,-0.70145 3.34615,-1.90165 4.72398,0.36634c0.61965,1.02001 -1.2494,2.33459 -1.65553,2.97302c-1.35951,2.13715 -2.13159,4.91643 -4.28103,6.50141c-1.06316,0.78396 -2.89328,1.16646 -4.12792,1.65196c-1.16336,0.44462 -3.77183,1.1077 -5.00592,2.27337c-0.019,2.24518 0.37984,4.59687 0.491,6.69591c0.07039,1.32931 0.53476,3.31565 0.20162,4.61892c-0.19572,0.76566 -0.82454,1.42381 -0.8487,2.21371c-0.10269,3.35557 -0.49625,6.52301 -2.26431,9.45013c-0.36636,1.30251 -0.0557,2.56091 -0.41043,3.90404l0.06978,0.34724c0,0 0.05289,0.9986 -0.94573,1.05148zM267.37955,63.33977c1.3249,-0.71785 2.83907,-1.18639 4.03825,-1.6683c1.81631,-0.71423 4.34585,-1.22288 5.28627,-3.16131c0.19997,-0.41218 0.04029,-0.94839 0.26236,-1.34909c0.55621,-1.00361 1.29284,-1.89649 1.9102,-2.8637c0.26469,-0.41469 0.60043,-0.79088 0.98097,-1.10269c0.12631,-0.10352 0.64332,-0.08021 0.48066,-0.09494c-1.15968,-0.10499 -2.29312,0.99375 -3.25591,1.46816c-3.3263,1.639 -6.6656,4.36648 -9.20583,7.15764c-0.22165,0.51693 -0.38301,1.0572 -0.49696,1.61423zM263.10967,87.59513c0.38439,-0.72345 0.68139,-1.46452 0.92084,-2.21732c-0.22676,0.52082 -0.47014,1.00625 -0.73005,1.44468c-0.0515,0.26478 -0.11561,0.522 -0.1908,0.77264z" fill="#000000" stroke="none" stroke-width="0.5" stroke-linecap="butt"/><path d="M331.59534,51.42368c25.93927,-25.34747 50.03812,32.01586 58.78555,77.12436c4.65063,23.98223 20.34608,109.14718 3.03312,116.51426c-0.45214,0.1924 -0.77919,-17.2853 -0.77919,-17.2853c0,0 -4.00204,17.68453 -4.45016,17.67572c-19.14068,-0.37585 -20.57151,-111.90991 -20.59973,-112.44301c-1.98956,-37.57175 -43.82182,-73.93248 -35.98958,-81.58604z" fill="#000000" stroke="none" stroke-width="0" stroke-linecap="butt"/><path d="M276.284,137.34373c0.02823,0.5331 10.38461,111.59453 -8.60934,113.98973c-0.44469,0.05609 -6.29203,-17.10688 -6.29203,-17.10688c0,0 1.52063,17.4145 1.05069,17.27092c-17.99416,-5.49744 -11.38084,-91.84371 -9.28902,-116.183c3.93455,-45.78006 21.84043,-105.36767 50.31162,-82.90144c8.59675,6.78357 -29.16149,47.3589 -27.17194,84.93066z" fill="#000000" stroke="none" stroke-width="0" stroke-linecap="butt"/><path d="M344.3011,48.02381c4.49953,3.07797 6.53565,7.92891 4.54781,10.83486c-1.98786,2.90596 -18.28213,-8.24037 -16.29428,-11.14633c1.98787,-2.90596 7.24694,-2.76649 11.74648,0.31148z" fill="#dddd61" stroke="#959541" stroke-width="2" stroke-linecap="butt"/><path d="M302.76112,49.7907c2.28364,2.67976 -12.74232,15.48462 -15.02596,12.80485c-2.28363,-2.67976 -0.77123,-7.7186 3.37808,-11.25455c4.14931,-3.53595 9.36424,-4.23006 11.64788,-1.5503z" fill="#dddd61" stroke="#959541" stroke-width="2" stroke-linecap="butt"/><path d="M280.31969,288.29141c0,0 1.38862,-93.71045 1.23063,-117.33859c-0.05451,-8.15261 8.18688,-36.76129 40.20201,-36.9211c31.60235,-0.15775 39.85672,29.48704 39.84884,36.89673c-0.00476,2.87381 -2.64736,3.5078 -3.15444,4.79788c-2.39102,6.08319 -6.84677,-1.55837 -6.84677,-1.55837c0,0 0.07549,-3.0993 -2.81625,-3.15415c-3.43441,-0.06514 -2.94538,3.11562 -2.94538,3.11562c0,0 -1.41774,6.62742 -1.40704,12.60501c0.03126,17.47439 1.61253,102.26494 1.61253,102.26494l-48.21366,0.07222c0,0 2.78885,-79.9626 2.73825,-99.05283c-0.02066,-7.79469 -2.04364,-17.89455 -2.04364,-17.89455c0,0 -0.72051,-1.20471 -3.8856,-1.22015c-3.11083,-0.01515 -2.81569,2.90899 -2.81569,2.90899l-1.91403,114.55551z" fill="url(#color-1)" stroke="#000000" stroke-width="2" stroke-linecap="butt"/><path d="M346.75877,141.01796c0,0 3.6988,-0.70081 9.5,6c1.53533,1.77343 4.54277,3.00216 6.36807,13.19134c-0.7683,1.42802 -1.44263,2.96655 -1.66764,4.25725c-0.27015,1.54961 0.32994,4.2574 -0.32478,5.61656c-0.59067,1.22619 -2.04865,1.06047 -3.05879,0.77042c-2.11617,3.43418 -0.23368,13.56961 -7.18851,10.96454c-1.06168,-0.39767 -1.82747,-0.9355 -2.73752,-1.60582c-0.53936,-0.18286 -1.99193,-1.06278 -2.5446,-1.05668c-1.53161,0.01691 -2.36153,1.37756 -3.37427,2.22857c-0.21436,0.18013 -0.42752,0.36735 -0.64018,0.55951c2.38823,-20.39233 5.66823,-40.92569 5.66823,-40.92569z" fill="#000000" stroke="none" stroke-width="0" stroke-linecap="butt"/><path d="M279.56894,87.19287c0.13328,-1.40992 4.55423,-18.54279 4.63648,-18.47457c0.84136,0.69781 7.31829,-19.44884 29.67094,-22.71768c38.35977,-5.60977 41.75758,34.54517 43.11541,37.70984c3.94103,9.1853 4.19626,15.14594 2.82843,14.1364c-1.27578,-0.94158 -3.96246,-2.94043 -3.96246,-2.94043c0,0 3.63398,10.17017 2.40342,20.59671c-1.05877,9.55032 -6.37674,17.58724 -6.37674,17.58724l-1.27773,-2.28298c0,0 -0.905,2.24894 -1.9808,3.44229c-1.0758,1.19335 -3.27989,3.09049 -3.27989,3.09049l-0.2878,-3.69416c0,0 -6.46759,11.37587 -23.74171,12.14397c-16.29694,0.60716 -26.59954,-9.28161 -26.59954,-9.28161l0.02435,2.65728c0,0 -4.06344,-3.0822 -6.68614,-9.36708c-3.12593,-7.49086 -3.88234,-12.05481 -3.88234,-12.05481l-4.69279,-4.78599c0,0 -3.43606,-2.7105 -1.69179,-8.64805c1.64688,-5.606 1.51736,-11.05301 1.51736,-11.05301c0,0 -1.32475,0.7327 -3.28342,0.97011c-1.23949,0.15024 3.46447,-6.1632 3.54677,-7.03388z" fill="#000000" stroke="none" stroke-width="1.5" stroke-linecap="butt"/><path d="M273.64506,94.30368h0.00001c0,0.00001 -0.00002,0.00001 -0.00002,0.00001z" fill="#000000" stroke="none" stroke-width="1.5" stroke-linecap="butt"/><path d="M292.82766,110.8097c0,0 -3.71345,-2.73083 -4.75898,-8.21044c-0.58325,-3.05671 2.03316,-2.39102 2.03316,-2.39102" fill="none" stroke="#000000" stroke-width="0.25" stroke-linecap="round"/><path d="M346.83488,101.27679c0.7118,-6.02484 1.33324,-8.69751 3.28555,-8.54138c1.9523,0.15612 1.99869,4.14921 1.00783,9.95256c-0.94172,5.51549 -5.68095,9.28842 -5.68095,9.28842c0,0 0.67578,-4.67477 1.38758,-10.6996z" fill="#ffffff" stroke="#000000" stroke-width="1" stroke-linecap="butt"/><path d="M279.88203,141.7949l-6.01006,-70.41063l85.68841,-7.31414l6.01007,70.41064z" fill="#000000" stroke="#000000" stroke-width="1.4" stroke-linecap="butt"/><path d="M285.02669,136.89198l-5.74762,-61.98869c0,0 32.58768,-1.84133 33.90762,-2.20186l0.02941,-0.00904c0,0 0.1225,-0.03761 0.22444,-0.13676l41.13935,-3.51154l5.24633,61.4632z" fill="#ffffff" stroke="#000000" stroke-width="1.4" stroke-linecap="butt"/><g fill="#000000" stroke="none" stroke-width="0" stroke-linecap="butt"><path d="M287.95247,99.70184c0,0 3.95421,-9.62809 11.82051,-10.04463c7.86629,-0.41655 12.62863,8.13235 12.62863,8.13235c0,0 -7.41136,-4.39409 -12.41665,-4.12905c-4.67206,0.2474 -12.03249,6.04134 -12.03249,6.04134z"/><path d="M287.90649,90.19936l5.82747,2.16188l-2.36573,1.97813z"/><path d="M286.45301,92.39596l5.82748,2.1619l-2.36574,1.97812z"/></g><g fill="#000000" stroke="none" stroke-width="0" stroke-linecap="butt"><path d="M337.35132,91.14171c-5.00527,0.26505 -11.91113,5.41728 -11.91113,5.41728c0,0 3.83285,-9.00404 11.69915,-9.42059c7.86629,-0.41655 12.81523,8.74008 12.81523,8.74008c0,0 -7.93116,-4.98419 -12.60323,-4.73679z"/><path d="M345.99157,90.90678l-2.56142,-1.71724l5.56656,-2.76524z"/><path d="M347.6689,92.93759l-2.56141,-1.71723l5.56655,-2.76525z"/></g><path d="M338.41892,107.13277c0,0 -4.91947,16.23237 -18.9154,16.67487c-14.12974,0.44673 -19.93406,-14.31192 -19.93406,-14.31192c0,0 6.7191,3.37543 19.5609,2.21536c13.22056,-1.19429 19.28857,-4.57832 19.28857,-4.57832z" fill="#ffffff" stroke="#000000" stroke-width="1.5" stroke-linecap="butt"/><path d="M278.01022,206.30483c0,0 -0.4038,-24.21026 3.0462,-42.95382c1.8716,-10.16823 8.57404,-18.97943 9.37298,-19.76523c4.32612,-4.25495 12.72367,-5.42381 12.72367,-5.42381l-3.73395,38.57361c0,0 -4.96003,-8.19201 -5.69463,-4.71646c-0.7346,3.47555 0,34.42857 0,34.42857z" fill="#dddd61" stroke="#6e6e30" stroke-width="2" stroke-linecap="butt"/><path d="M295.43879,289.73339l3.57143,-105.57142l2.85714,-45.71428c0,0 12.26204,5.14286 20.85715,5.14286c8.54748,0 20.42857,-4.71429 20.42857,-4.71429l1.71429,45.14286l5.42857,105.85714z" fill="#dddd61" stroke="#6e6e30" stroke-width="2" stroke-linecap="butt"/><path d="M301.94076,137.54387c0.40617,-1.58777 14.21,4.97525 21.9266,4.97525c7.68326,0 18.6621,-6.57725 19.31037,-4.84853c0.71445,1.90521 -4.82037,7.40446 -18.80439,8.01856c-16.13709,0.70865 -22.70235,-7.09073 -22.43258,-8.14527z" fill="#dddd61" stroke="#6e6e30" stroke-width="2" stroke-linecap="butt"/><path d="M308.21307,94.77268c0.17221,2.38281 -1.77904,4.39819 -4.35827,4.50148c-2.57923,0.10329 -4.80973,-1.74462 -4.98195,-4.12744c-0.17221,-2.38281 1.77904,-4.3982 4.35827,-4.50149c2.57923,-0.10329 4.80973,1.74463 4.98195,4.12745z" fill="#000000" stroke="none" stroke-width="0" stroke-linecap="butt"/><path d="M293.7245,168.9834l3.28572,-26.57143l4.2977,-2.99759l11.41659,9.56902l-12.14285,28.57143c0,0 0.08989,-2.52699 -1.77339,-4.07155c-1.74846,-1.44938 -5.08375,-4.49988 -5.08375,-4.49988z" fill="#dddd61" stroke="none" stroke-width="0" stroke-linecap="butt"/><path d="M341.4745,162.61435c0,6.44332 -8.5439,11.66667 -19.08334,11.66667c-10.53943,0 -19.08333,-5.22335 -19.08333,-11.66667c0,-6.44332 8.54389,-11.66666 19.08333,-11.66666c10.53943,0 19.08334,5.22334 19.08334,11.66666z" fill="#ffff6e" stroke="none" stroke-width="0" stroke-linecap="butt"/><path d="M365.58165,163.34054c0,12.11082 -6.52385,21.92857 -14.57143,21.92857c-8.04758,0 -10,-10.10347 -10,-22.21428c0,-11.92241 2.62305,-24.49555 2.85715,-24.5c8.04613,-0.15277 21.71429,12.67489 21.71429,24.78571z" fill="#ffffff" stroke="#000000" stroke-width="1.5" stroke-linecap="butt"/><path d="M354.58165,143.55483c0,0 -2.58364,6.56445 -4.65456,9.65865c-1.97184,2.94617 -8.63116,7.62706 -8.63116,7.62706" fill="none" stroke="#000000" stroke-width="1.5" stroke-linecap="round"/><path d="M349.86735,140.9834c0,0 -1.95281,4.46006 -3.30036,6.28043c-1.36647,1.84594 -4.84249,4.71957 -4.84249,4.71957" fill="none" stroke="#000000" stroke-width="1.5" stroke-linecap="round"/><path d="M358.58165,148.55483c0,0 -4.15507,9.70731 -6.22599,12.8015c-1.97184,2.94617 -10.63116,7.91278 -10.63116,7.91278" fill="none" stroke="#000000" stroke-width="1.5" stroke-linecap="round"/><path d="M362.58165,153.9834c0,0 -5.44078,12.27874 -7.5117,15.37293c-1.97184,2.94617 -11.91688,9.48421 -11.91688,9.48421" fill="none" stroke="#000000" stroke-width="1.5" stroke-linecap="round"/><path d="M365.43879,159.9834c0,0 -4.29793,11.27874 -6.36885,14.37293c-1.97184,2.94617 -11.63116,10.19849 -11.63116,10.19849" fill="none" stroke="#000000" stroke-width="1.5" stroke-linecap="round"/><path d="M305.39117,157.94768c0,1.25798 -1.39289,2.27778 -3.11111,2.27778c-1.71822,0 -3.11111,-1.0198 -3.11111,-2.27778c0,-1.25798 1.39289,-2.27778 3.11111,-2.27778c1.71822,0 3.11111,1.0198 3.11111,2.27778z" fill="#ffff6e" stroke="none" stroke-width="0" stroke-linecap="butt"/><path d="M318.50228,173.94768c0,1.07388 -1.09441,1.94445 -2.44445,1.94445c-1.35003,0 -2.44445,-0.87056 -2.44445,-1.94445c0,-1.07388 1.09441,-1.94445 2.44445,-1.94445c1.35003,0 2.44445,0.87056 2.44445,1.94445z" fill="#ffff6e" stroke="none" stroke-width="0" stroke-linecap="butt"/><path d="M303.05784,166.00324c0,0.55229 -0.44771,1 -1,1c-0.55229,0 -1,-0.44771 -1,-1c0,-0.55229 0.44771,-1 1,-1c0.55229,0 1,0.44771 1,1z" fill="#ffff6e" stroke="none" stroke-width="0" stroke-linecap="butt"/><path d="M309.50228,171.28102c0,1.25798 -1.11929,2.27777 -2.5,2.27777c-1.38071,0 -2.5,-1.01979 -2.5,-2.27777c0,-1.25798 1.11929,-2.27778 2.5,-2.27778c1.38071,0 2.5,1.0198 2.5,2.27778z" fill="#ffff6e" stroke="none" stroke-width="0" stroke-linecap="butt"/><path d="M315.28006,152.22546c0,2.14777 -1.98985,3.88888 -4.44445,3.88888c-2.4546,0 -4.44445,-1.74111 -4.44445,-3.88888c0,-2.14777 1.98985,-3.88889 4.44445,-3.88889c2.4546,0 4.44445,1.74112 4.44445,3.88889z" fill="#ffff6e" stroke="none" stroke-width="0" stroke-linecap="butt"/><path d="M304.94672,154.00323c0,0.55229 -0.44771,1 -1,1c-0.55229,0 -1,-0.44771 -1,-1c0,-0.55229 0.44771,-1 1,-1c0.55229,0 1,0.44771 1,1z" fill="#ffff6e" stroke="none" stroke-width="0" stroke-linecap="butt"/><path d="M336.50228,153.72546c0,1.933 -1.81574,3.5 -4.05556,3.5c-2.23982,0 -4.05555,-1.567 -4.05555,-3.5c0,-1.933 1.81573,-3.5 4.05555,-3.5c2.23982,0 4.05556,1.567 4.05556,3.5z" fill="#ffff6e" stroke="none" stroke-width="0" stroke-linecap="butt"/><path d="M336.83561,171.33657c0,2.4546 -2.61167,4.44445 -5.83333,4.44445c-3.22166,0 -5.83334,-1.98985 -5.83334,-4.44445c0,-2.4546 2.61167,-4.44445 5.83334,-4.44445c3.22166,0 5.83333,1.98985 5.83333,4.44445z" fill="#ffff6e" stroke="none" stroke-width="0" stroke-linecap="butt"/><path d="M326.7245,176.61435c0,0.82843 -0.6467,1.5 -1.44445,1.5c-0.79774,0 -1.44445,-0.67157 -1.44445,-1.5c0,-0.82843 0.6467,-1.5 1.44445,-1.5c0.79774,0 1.44445,0.67157 1.44445,1.5z" fill="#ffff6e" stroke="none" stroke-width="0" stroke-linecap="butt"/><path d="M330.05784,177.6699c0,0.42955 -0.39797,0.77778 -0.88889,0.77778c-0.49092,0 -0.88889,-0.34823 -0.88889,-0.77778c0,-0.42955 0.39797,-0.77777 0.88889,-0.77777c0.49092,0 0.88889,0.34822 0.88889,0.77777z" fill="#ffff6e" stroke="none" stroke-width="0" stroke-linecap="butt"/><path d="M340.05784,171.00324c0,0.61365 -0.44772,1.11111 -1,1.11111c-0.55228,0 -1,-0.49746 -1,-1.11111c0,-0.61365 0.44772,-1.11111 1,-1.11111c0.55228,0 1,0.49746 1,1.11111z" fill="#ffff6e" stroke="none" stroke-width="0" stroke-linecap="butt"/><path d="M340.83561,175.28102c0,0.95116 -0.82081,1.72222 -1.83333,1.72222c-1.01252,0 -1.83333,-0.77106 -1.83333,-1.72222c0,-0.95115 0.82081,-1.72223 1.83333,-1.72223c1.01252,0 1.83333,0.77107 1.83333,1.72223z" fill="#ffff6e" stroke="none" stroke-width="0" stroke-linecap="butt"/><path d="M340.16895,152.50323c0,0.70569 -0.54721,1.27778 -1.22222,1.27778c-0.67501,0 -1.22222,-0.57209 -1.22222,-1.27778c0,-0.70569 0.54721,-1.27777 1.22222,-1.27777c0.67501,0 1.22222,0.57208 1.22222,1.27777z" fill="#ffff6e" stroke="none" stroke-width="0" stroke-linecap="butt"/><path d="M329.05784,149.11434c0,0.36819 -0.42284,0.66667 -0.94445,0.66667c-0.5216,0 -0.94445,-0.29848 -0.94445,-0.66667c0,-0.36819 0.42284,-0.66666 0.94445,-0.66666c0.5216,0 0.94445,0.29847 0.94445,0.66666z" fill="#ffff6e" stroke="none" stroke-width="0" stroke-linecap="butt"/><path d="M317.83561,149.00323c0,0.36819 -0.29847,0.66666 -0.66666,0.66666c-0.36819,0 -0.66666,-0.29847 -0.66666,-0.66666c0,-0.36819 0.29847,-0.66666 0.66666,-0.66666c0.36819,0 0.66666,0.29847 0.66666,0.66666z" fill="#ffff6e" stroke="none" stroke-width="0" stroke-linecap="butt"/><path d="M306.50228,149.05879c0,0.76706 -0.7462,1.38889 -1.66667,1.38889c-0.92048,0 -1.66666,-0.62183 -1.66666,-1.38889c0,-0.76706 0.74619,-1.38889 1.66666,-1.38889c0.92048,0 1.66667,0.62183 1.66667,1.38889z" fill="#ffff6e" stroke="none" stroke-width="0" stroke-linecap="butt"/><path d="M308.05784,163.94768c-0.5,0 -0.5,-0.5 -0.5,-0.5c0,-0.22222 0,-1.11112 0,-1.33334c0,-2.05144 0.55555,-3.94932 0.55555,-6c0,-0.15548 -0.0917,-0.93482 -0.03119,-1.43333c-0.24202,0.51897 -0.64253,1.35034 -0.69464,1.44704c-0.59552,1.10528 -0.88313,2.23262 -1.54276,3.17142l0.15902,0.12722l-0.44156,0.55195c-0.09154,0.11646 -0.2337,0.19125 -0.39332,0.19125c-0.24578,0 -0.45013,-0.17732 -0.49211,-0.41102l-0.10258,-0.51288c-0.17576,-0.44731 -0.34775,-1.49311 -0.42744,-2.04334c0.20938,2.42447 -1.48039,5.61509 -1.47788,8.13392c0,0 0,0.5 -0.5,0.5c-0.5,0 -0.5,-0.5 -0.5,-0.5c0.00242,-2.58256 0.80672,-4.93714 1.34077,-7.41923c0.08359,-0.38851 -0.06467,-2.09787 0.5699,-2.17043c1.03092,-0.1179 1.43154,1.27441 1.70313,2.33065c0.31056,-1.27953 1.4124,-2.93433 1.91573,-3.68664c0.20924,-0.31275 0.89911,-1.25492 1.31812,-1.09391c0.7085,0.27224 0.59518,1.49518 0.5968,2.03957c0.0069,2.32018 -0.55555,4.47916 -0.55555,6.77777c0,0.22222 0,0.44445 0,0.66667v0.66666c0,0 0,0.5 -0.5,0.5z" fill="#b5b54e" stroke="none" stroke-width="0.5" stroke-linecap="butt"/><path d="M312.02892,158.62115c0.49319,0.0822 0.411,0.57539 0.411,0.57539l-0.1228,0.7192c-0.4091,1.03606 -0.46407,3.24481 -1.45276,3.85328c-1.81356,1.11612 -2.08429,-2.35071 -2.08429,-3.21024c0,0 0,-0.5 0.5,-0.5c0.5,0 0.5,0.5 0.5,0.5c0,4.02783 0.80405,0.9832 1.57405,-0.91251l0.09942,-0.61414c0,0 0.0822,-0.49319 0.57539,-0.41099z" fill="#b5b54e" stroke="none" stroke-width="0.5" stroke-linecap="butt"/><path d="M320.85583,159.64968c0.35356,0.35356 0,0.70711 0,0.70711l-0.22222,0.22222c-0.29277,0.28468 -0.57771,0.45679 -0.8718,0.63412c0.05725,1.42668 0.10594,2.85379 0.34477,4.26346l0.0068,0.19331c0,0 0,0.5 -0.5,0.5c-0.5,0 -0.5,-0.5 -0.5,-0.5l0.0068,-0.02891c-0.03173,-0.19324 -0.06003,-0.3868 -0.08539,-0.58064c-0.65421,1.42557 -3.36136,0.54889 -4.42141,0.55399h-0.11111c0,0 -0.5,0 -0.5,-0.5c0,-0.5 0.5,-0.5 0.5,-0.5h0.11111c1.18133,0.00475 2.3309,0.09647 3.5083,0.07593c0.31966,-0.00557 -0.62852,-0.13778 -0.92172,-0.26524c-0.84643,-0.36798 -2.09062,-0.78887 -2.80088,-1.38099c-1.46854,-1.22427 -0.83098,-3.85422 1.10319,-3.98525c0,0 0.5,0 0.5,0.5c0,0.5 -0.5,0.5 -0.5,0.5c-0.96333,-0.15319 -1.21656,1.66822 -0.48412,2.19993c0.56197,0.40795 3.21368,1.13687 3.93001,2.02801c-0.08037,-0.84844 -0.11736,-1.70091 -0.15233,-2.55354c-0.11605,-0.00412 -0.24546,-0.05469 -0.36023,-0.20772c-0.3,-0.4 0.1,-0.7 0.1,-0.7c0.07223,-0.05339 0.14393,-0.10209 0.21505,-0.14771c-0.04992,-1.05394 -0.12287,-2.10568 -0.29713,-3.14787c0,0 -0.08219,-0.49319 0.411,-0.57539c0.49319,-0.0822 0.57539,0.41099 0.57539,0.41099c0.14896,0.89652 0.22212,1.79972 0.2704,2.70501c0.07326,-0.05957 0.14536,-0.12497 0.21618,-0.19858l0.22223,-0.22223c0,0 0.35355,-0.35356 0.70711,0z" fill="#b5b54e" stroke="none" stroke-width="0.5" stroke-linecap="butt"/><path d="M330.28283,159.22408c0.2236,0.44721 -0.2236,0.67082 -0.2236,0.67082l-0.09228,0.01745c-1.43291,1.42348 -2.14325,2.88146 -3.13515,4.43455l0.06167,0.02467l-0.36706,0.91766c-0.07091,0.1899 -0.25394,0.32511 -0.46856,0.32511c-0.25024,0 -0.45753,-0.18383 -0.49423,-0.4238c-0.03482,0.24734 -0.28217,0.37101 -0.28217,0.37101l-0.87096,-0.07292c-0.24337,-0.39312 -0.78082,-1.01099 -1.08936,-1.59174c-1.27124,3.66858 -4.7842,-3.50107 0.057,-2.60617c0,0 0.49029,0.09806 0.39223,0.58835c-0.03412,0.17063 -0.11576,0.27 -0.20769,0.32704l0.25726,0.42876l-0.08405,0.05043c0.49679,0.59489 0.88701,1.23668 1.30997,1.92741c0.14651,-0.01078 0.33652,0.03264 0.45922,0.27802c0.02622,0.05243 0.04321,0.10178 0.05279,0.14807c0,-1.07866 0,-2.7641 0,-3.81335c0,0 0,-0.5 0.5,-0.5c0.5,0 0.5,0.5 0.5,0.5c0,0.33059 0,0.66118 0,0.99177c0.68675,-1.17757 1.91037,-2.21436 2.702,-3.01199l0.35217,-0.20478c0,0 0.44721,-0.2236 0.67082,0.22361zM322.55784,162.33657v0c0,-0.02849 0.00238,-0.05644 0.00696,-0.08364c-1.38209,0.30249 -0.43098,3.16184 -0.00696,0.60826z" fill="#b5b54e" stroke="none" stroke-width="0.5" stroke-linecap="butt"/><path d="M333.97793,165.05782c-0.49902,0.0312 -0.53024,-0.46782 -0.53024,-0.46782l0.00758,-0.14663c-0.0782,-0.23936 -0.16535,-0.53357 -0.25415,-0.86664c-0.22515,0.4178 -0.52775,0.75994 -0.93121,0.99042c-1.85536,1.05986 -3.0305,-2.89696 0.23237,-2.9528c0,0 0.06479,0 0.14773,0.02332c0.02312,-0.12516 0.04263,-0.25241 0.05898,-0.38143c-0.21133,-1.34395 -0.29469,-2.75975 -0.0195,-3.7412c-0.00568,-0.13515 -0.01053,-0.26884 -0.01409,-0.4007h-0.00645v-1c0,-0.27614 0.22386,-0.5 0.5,-0.5c0.27614,0 0.5,0.22386 0.5,0.5v0.55555c0,0.92148 0.16212,2.35439 0.14118,3.76745c0.07474,1.25584 0.18922,2.50375 0.59384,3.68979l0.04179,0.40044c0,0 0.03121,0.49903 -0.46782,0.53023zM332.38583,162.62325c-0.45415,0.06116 -1.68055,0.43143 -1.08555,1.02643c0.46419,0.46419 0.86218,-0.37664 1.08555,-1.02643z" fill="#b5b54e" stroke="none" stroke-width="0.5" stroke-linecap="butt"/><path d="M322.43701,171.57184c0.09806,0.49029 -0.39223,0.58835 -0.39223,0.58835l-0.56347,0.11263c-0.23091,0.03849 -0.43127,0.07762 -0.61104,0.11212c-0.00141,0.44487 -0.22926,1.0056 -0.50238,1.55444c-3.95958,4.84763 -8.55196,-6.91927 -1.42117,-6.9917c0,0 0.5,0 0.5,0.5c0,0.5 -0.5,0.5 -0.5,0.5c-5.24446,-0.07121 -1.85522,8.59755 0.57883,5.45275c0.11707,-0.23261 0.42821,-0.70317 0.45225,-0.90547c-0.08745,-0.00234 -0.17446,-0.01073 -0.26359,-0.02651c-0.0187,0.00988 -0.03855,0.02089 -0.05959,0.03309l-0.01037,-0.04692c-0.01025,-0.00224 -0.02054,-0.00457 -0.03087,-0.00701v0.05563h-0.07778l-0.02028,0.1014l-0.54647,-0.10929c-0.23369,-0.04197 -0.41102,-0.24633 -0.41102,-0.49211c0,-0.27614 0.22386,-0.5 0.5,-0.5h0.55556v0.00092c0.12203,-0.00163 0.23358,0.0031 0.33531,0.01371c0.3669,-0.17469 0.9168,-0.15607 1.35233,-0.22866l0.54764,-0.10959c0,0 0.49029,-0.09806 0.58835,0.39223z" fill="#b5b54e" stroke="none" stroke-width="0.5" stroke-linecap="butt"/><path d="M329.65923,174.32352c-0.09806,0.49029 -0.58835,0.39223 -0.58835,0.39223l-0.64884,-0.13946c-0.26411,-0.17324 -0.52821,-0.34648 -0.79232,-0.51971c-0.29034,-0.28938 -0.71523,-0.66229 -0.90367,-1.04351c-0.0041,-0.00829 -0.00833,-0.01721 -0.01267,-0.02671c-0.15063,0.34975 -0.4652,0.71831 -0.58888,0.87244c-0.73857,0.92039 -2.83127,1.02977 -3.51732,-0.19452c-1.10628,-1.97421 2.08557,-2.70976 3.22843,-2.71659c0,0 0.46936,0 0.49858,0.45476c1.00671,-0.18778 1.36967,1.31851 1.92953,1.88079c0.18034,0.12306 0.36068,0.24612 0.54101,0.36918l0.46227,0.08276c0,0 0.49029,0.09806 0.39223,0.58835zM325.90846,171.94072c-0.04393,0.00696 -0.07285,0.00696 -0.07285,0.00696c-0.38925,-0.00273 -2.9096,0.20682 -2.32713,1.28341c0.9084,1.679 1.93531,-0.30712 2.39998,-1.29036z" fill="#b5b54e" stroke="none" stroke-width="0.5" stroke-linecap="butt"/><path d="M333.3259,173.68296c0.09806,0.49029 -0.39223,0.58835 -0.39223,0.58835l-0.51114,0.10009c-2.94598,1.17388 -3.30914,-3.70731 -3.30914,-5.8126c0,0 0,-0.5 0.5,-0.5c0.5,0 0.5,0.5 0.5,0.5c0,1.50353 0.13209,5.61388 2.02419,4.85406l0.59997,-0.12213c0,0 0.49029,-0.09806 0.58835,0.39223z" fill="#b5b54e" stroke="none" stroke-width="0.5" stroke-linecap="butt"/><path d="M345.72875,92.16969c0.13868,1.99817 -1.83837,3.71756 -4.41589,3.84034c-2.57752,0.12278 -4.77947,-1.39751 -4.91817,-3.39569c-0.13868,-1.99817 1.83836,-3.71755 4.41588,-3.84034c2.57752,-0.12278 4.77948,1.39751 4.91818,3.39569z" fill="#000000" stroke="none" stroke-width="0" stroke-linecap="butt"/><path d="M334.97405,113.95154c0,0 -7.71812,4.00386 -15.47981,4.36067c-10.00294,0.45985 -15.85368,-2.23176 -15.85368,-2.23176" fill="none" stroke="#000000" stroke-width="1.5" stroke-linecap="round"/></g></g></svg>