<svg version="1.1" xmlns="http://www.w3.org/2000/svg" xmlns:xlink="http://www.w3.org/1999/xlink" width="284.66615" height="252.16731" viewBox="0,0,284.66615,252.16731"><defs><linearGradient x1="188.1971" y1="212.08962" x2="463.13865" y2="212.08962" gradientUnits="userSpaceOnUse" id="color-1"><stop offset="0" stop-color="#8a833c"/><stop offset="1" stop-color="#81782d"/></linearGradient><linearGradient x1="294.19756" y1="210.83354" x2="332.0105" y2="216.59934" gradientUnits="userSpaceOnUse" id="color-2"><stop offset="0" stop-color="#7f772e"/><stop offset="1" stop-color="#8b843d"/></linearGradient><linearGradient x1="256.00783" y1="269.64682" x2="304.47279" y2="269.64682" gradientUnits="userSpaceOnUse" id="color-3"><stop offset="0" stop-color="#7f772e"/><stop offset="1" stop-color="#8b843d"/></linearGradient><linearGradient x1="250.21572" y1="241.29983" x2="312.65822" y2="241.29983" gradientUnits="userSpaceOnUse" id="color-4"><stop offset="0" stop-color="#7f772e"/><stop offset="1" stop-color="#8b843d"/></linearGradient><radialGradient cx="296.63696" cy="252.27483" r="32.71582" gradientUnits="userSpaceOnUse" id="color-5"><stop offset="0" stop-color="#8b843d"/><stop offset="1" stop-color="#7f772e"/></radialGradient></defs><g transform="translate(-179.20913,-45.84015)"><g stroke-miterlimit="10"><path d="M246.91667,248.08334c0,0 0,-20.61867 0,-41c0,-5.85067 -5.66667,-10.34846 -5.66667,-15.66667c0,-5.67171 5.66667,-12.09341 5.66667,-16c0,-14.70182 0,-38 0,-38h154v110.66667z" fill-opacity="0.01" fill="#000000" stroke="none" stroke-width="0" stroke-linecap="butt"/><g stroke="#000000" stroke-width="1.5" stroke-linecap="round"><path d="M386.59871,133.85754c0,0 3.54179,2.08842 6.07946,1.08793c0.62631,-0.24692 6.48975,-5.60545 7.22716,-5.88956c1.69211,-0.65194 -1.61725,6.35465 0.39441,5.8394c1.05886,-0.2712 1.50444,0.70451 2.70618,0.40486c1.21405,-0.30273 -4.40402,4.78621 -3.05688,4.47882c0.38104,-0.08695 4.92439,0.67433 7.17424,2.50445c2.56392,2.08559 2.87117,5.27432 3.35473,5.16055c1.73287,-0.40771 2.8008,-2.89575 4.57415,-3.55554c0.84465,-0.31426 5.49398,1.90698 6.35061,1.58397c1.16161,-0.43798 1.95369,-2.4806 3.05227,-2.95762c3.57272,-1.55135 3.41638,3.74177 7.05349,3.64959c1.0435,-0.02644 0.86912,-2.89644 1.65598,-2.84306c1.30805,0.08874 -0.12961,5.02068 2.00975,4.28998c9.89727,-3.3804 6.466,1.32247 8.05217,2.2893c1.28772,0.78492 6.27107,-1.54368 7.28584,0.1558c0.76563,1.28221 3.13711,8.75065 3.13996,13.3767c0.00137,2.22248 1.63594,5.01212 1.47509,7.6593c-0.12562,2.0674 0.38146,4.23896 0.15458,6.48021c-0.38148,3.76868 -6.72305,7.43599 -5.98974,11.41491c0.70626,3.83209 -1.19237,7.9294 -0.39202,11.05989c1.40821,5.50794 3.40549,9.17729 4.50988,12.71588c1.14851,3.67996 -5.95328,15.52079 -4.65426,17.93055c4.80928,8.92145 3.50161,15.75771 6.58674,22.73734c0.72451,1.63911 7.23708,2.98565 7.78279,4.71274c0.4357,1.37886 -9.91088,3.70784 -15.7473,3.52491c-5.34163,-0.16742 -3.19029,-6.03221 -8.08499,-4.89887c-5.78972,1.34059 -10.24354,11.53897 -9.85064,12.78168c2.09055,6.61237 1.03653,12.39754 2.18205,15.43123c1.521,4.02808 7.3961,5.96033 11.28217,6.81549c2.08517,0.45885 6.62025,1.37688 4.49579,1.64191c-5.51709,0.68824 -20.56395,1.28751 -27.7043,1.17184c-2.42844,-0.03934 -9.07328,0.99638 -11.94897,0.32987c-3.92649,-0.91005 -4.10872,-3.61926 -7.15037,-3.92167c-6.46029,-0.64233 -10.07673,1.11934 -17.0484,0.64705c-4.89397,-0.33155 -9.62837,1.25107 -14.92942,1.30533c-2.89218,0.02961 -6.923,-1.51253 -8.9997,-1.48875c-4.73365,0.0542 -10.0308,1.08215 -10.98531,1.18129c-5.39828,0.56072 -14.7645,0.48832 -24.20887,0.58712c-2.5951,0.02715 -8.71932,0.33172 -11.44259,0.26651c-3.39856,-0.08139 -6.13858,3.92107 -14.15092,-1.68901c-2.32394,-1.62716 -3.55579,-0.25619 -5.86036,0.32747c-1.78596,0.45231 -4.62984,0.05071 -6.50358,-0.17043c-5.5561,-0.65571 -9.21919,-1.19424 -13.847,-1.969c-3.07959,-0.51557 -6.97111,-1.31294 -10.72871,-1.67277c-4.33121,-0.41476 -9.64057,-0.44006 -13.81589,-0.65648c-2.75097,-0.14258 -8.18081,-0.29089 -10.74454,-0.445c-0.94256,-0.05666 -5.32211,1.15739 -6.23228,1.09794c-1.18967,-0.0777 -8.56078,-2.70006 -9.68118,-2.77871c-1.69571,-0.11905 -2.96425,-4.36669 -4.48678,-4.47371c-3.65438,-0.25687 -5.41385,-0.47726 -7.91302,-0.65209c-1.83166,-0.12815 -3.31883,-0.8654 -4.41132,-0.93579c-2.19001,-0.14112 -6.05527,0.66924 -9.93264,0.84927c-3.02839,0.14062 -6.46812,-0.35135 -6.46812,-0.35135c0,0 -0.32187,-2.42443 2.50832,-3.33719c3.26732,-1.05374 -1.8543,-1.22275 3.52137,-2.95071c1.4356,-0.46146 2.34365,-4.45386 4.0544,-4.97601c1.09245,-0.33345 5.68789,1.25307 6.86708,0.94074c1.74825,-0.46307 4.23461,-4.7634 5.62059,-3.65314c3.01558,2.41568 7.31749,-3.76562 10.46296,-4.36037c7.15498,-1.35285 12.6498,-1.67687 14.18664,-4.59888c0.26403,-0.50198 -8.85336,-4.53062 -15.45206,-9.39894c-3.96684,-2.92663 -4.54762,-4.90789 -6.19915,-7.03248c-1.00743,-1.296 -3.93081,-3.44407 -3.85091,-3.56966c0.58956,-0.92672 4.00173,-2.63437 6.39162,-4.46177c4.42969,-3.38715 8.71095,-7.18577 8.71095,-7.18577c0,0 -2.69153,-1.45033 -4.07637,-2.19655c-1.707,-0.9198 1.38049,-1.85761 3.0344,-2.85633c1.91807,-1.15823 4.30043,-2.6279 5.61999,-3.55934c2.33676,-1.64945 5.81151,-4.83331 5.81151,-4.83331c0,0 -11.9028,-14.15348 -18.20138,-18.34099c-1.70437,-1.13313 -3.82147,0.06991 -3.80125,0.05108c0.84237,-0.78473 1.63565,-2.52686 3.16925,-4.46716c0.96289,-1.21825 2.63594,-2.70727 3.49166,-3.48567c3.18157,-2.89415 8.46659,-6.24729 10.98522,-9.19117c1.81702,-2.12382 0.13355,-5.70021 1.85062,-7.56215c5.99705,-6.50306 -0.16832,4.8273 5.258,1.20123c1.70908,-1.14207 0.54179,-6.77955 3.86021,-10.08069c3.68685,-3.66767 3.16272,3.99992 7.54941,1.32761c1.83214,-1.11613 1.52667,-6.17724 4.30843,-9.77142c1.49133,-1.92686 2.50917,-0.56244 4.45996,-1.59334c1.65142,-0.87268 4.3628,-4.27299 4.54957,-4.45358c2.84186,-2.74786 -0.42723,3.73199 2.47827,4.69288c1.22436,0.40492 2.15826,-3.76779 3.46904,-3.02c1.27362,0.72659 -0.52625,3.24043 0.79305,4.31042c1.49347,1.21123 5.13166,0.99005 6.72356,2.45096c1.46735,1.34661 -1.57635,7.57554 -0.17891,9.08479c1.06637,1.15168 2.18149,0.66169 3.31452,1.70407c1.17504,1.08103 0.9883,5.95467 2.16749,6.96966c2.19448,1.8889 0.35554,3.50101 2.43673,4.38618c2.17039,0.92309 4.21382,-1.29528 4.32092,-4.0516c0.14009,-3.60566 -1.8055,-8.13187 1.29422,-7.75078c3.14292,0.3864 5.69431,13.37564 5.69431,13.37564c0,0 0.18362,-9.95625 3.91513,-11.18708c1.6739,-0.55213 4.57641,-0.85436 6.61289,-1.51347c4.54266,-1.47024 -3.52834,-3.23771 2.15751,-4.85879c1.4297,-0.40761 2.93599,-9.45381 5.08692,-6.91242c0.66177,0.78189 -0.61879,3.09432 2.13238,3.69482c2.30279,0.50263 2.79821,-5.6934 6.02655,-5.70207c2.02748,-0.00544 2.79641,4.52277 5.1164,5.70959c3.24941,1.66226 7.88131,0.13396 8.67624,-0.00246c2.61672,-0.44905 5.24762,-1.79502 7.84378,-3.40348c4.96175,-3.07408 9.79655,-7.10707 14.16275,-7.67036c1.94166,-0.25049 2.48602,1.73655 4.21103,3.23279c0.86748,0.75243 1.90456,-0.46797 2.91187,0.05084c1.51488,0.78024 2.9624,3.08665 3.66445,2.74867c2.99851,-1.4435 4.83874,-3.937 6.97167,-5.48535c3.13838,-2.27823 0.66177,-0.96703 2.40581,-2.86099c1.54697,-1.67995 3.6243,-1.95409 5.42239,-3.82688c2.13027,-2.21876 3.86859,-5.91127 3.86859,-5.91127zM301.62944,181.66655c-2.49309,1.74222 12.81468,1.95646 12.81468,5.06126c0,4.15729 -14.03113,10.23769 -10.00326,11.54497c0.33637,0.10917 0.68072,0.20281 1.03198,0.27996c0.00399,0.00263 0.00764,0.00523 0.01096,0.00785c1.41896,1.12148 2.80826,1.58648 4.32828,2.85599c5.11186,4.26943 6.89428,10.31403 11.91062,14.51454c2.13221,1.78545 5.20011,2.32978 7.77377,3.2028c1.25217,0.42476 1.90132,1.82972 2.58413,2.52159c0.67899,0.68797 -1.43611,-10.87406 0.49209,-12.32949c3.00431,-2.26767 10.4023,5.01724 11.7295,6.03696c1.35275,1.03934 3.13994,6.24654 4.12439,4.27721c3.90975,-7.82123 4.58946,4.50186 5.66506,2.52041c0.64202,-1.18272 -0.35417,-2.64279 -0.2389,-3.96083c0.04176,-0.47749 0.72661,-0.80712 0.69776,-1.28541c-0.08948,-1.48357 -0.39545,-2.9909 -1.03788,-4.35383c-0.3265,-0.69267 -1.61917,-5.82622 -5.03133,-11.12511c-2.36306,-3.66972 -6.64101,-7.08775 -8.61747,-10.52857c-2.46104,-4.28445 -2.49646,-7.61805 -3.32287,-8.07477c-2.3909,-1.32135 -11.02946,-0.18959 -14.32539,-1.45338c-5.76178,-2.20926 -6.55429,-6.50843 -10.53102,-6.52845c-4.82265,-0.02429 -3.82743,3.40433 -8.9794,6.0737c-0.4013,0.20793 -0.75683,0.45828 -1.07572,0.74263zM259.72411,180.1374c-2.08779,-0.48076 -2.27682,1.598 -3.78995,2.73662c-1.00967,0.75976 -2.55255,-0.7553 -3.67947,-0.01246c-0.97934,0.64557 -1.59384,3.51014 -1.9067,4.61565c-0.37338,1.31932 -3.9076,0.23467 -2.89681,2.09676c0.80642,1.4856 3.14554,3.64394 5.04766,3.8809c0.92795,0.1156 1.99791,0.41157 2.92745,0.20742c0.42924,-0.09428 0.96874,-0.68858 1.25745,-0.3812c1.04271,1.11014 2.58731,-0.24779 3.51157,1.3668c1.43678,2.50988 1.92679,0.16627 6.38002,-2.56829c1.5923,-0.97779 2.81369,4.4403 3.18901,2.7118c0.25785,-1.18752 -2.6568,-6.43228 -3.05739,-7.79572c-1.45891,-4.96545 -3.6813,-4.31994 -6.7317,-6.87424z" fill="url(#color-1)"/><path d="M384.2955,242.35666c0,0 1.34432,-0.6114 2.23152,-0.47519c0.38697,0.05941 0.96999,0.35305 1.59957,0.39724c0.76079,0.05341 1.58959,-0.13196 2.22261,0.09762c0.61758,0.22397 1.04883,1.0707 1.04883,1.0707" fill="none"/><path d="M440.22811,179.52476c0,0 0.43126,-0.84673 1.04884,-1.07071c0.63302,-0.22956 1.46181,-0.04419 2.2226,-0.09761c0.62959,-0.04418 1.2126,-0.33783 1.59957,-0.39723c0.8872,-0.13619 2.23154,0.47519 2.23154,0.47519" fill="none"/><path d="M349.59654,190.3602c0,0 1.34434,-0.61138 2.23154,-0.47519c0.38697,0.0594 0.96999,0.35306 1.59957,0.39724c0.76079,0.05341 1.58958,-0.13197 2.2226,0.09761c0.61758,0.22397 1.04883,1.07071 1.04883,1.07071" fill="none"/><path d="M277.60918,205.76152c0,0 0.43127,-0.84675 1.04885,-1.07072c0.63302,-0.22956 1.46181,-0.0442 2.2226,-0.09762c0.62959,-0.04418 1.21261,-0.33783 1.59958,-0.39723c0.8872,-0.13619 2.23153,0.4752 2.23153,0.4752" fill="none"/><path d="M257.41128,168.89378c0,0 1.34434,-0.61138 2.23155,-0.47518c0.38697,0.0594 0.96998,0.35303 1.59957,0.39722c0.76079,0.05341 1.58959,-0.13197 2.22261,0.09761c0.61758,0.22397 1.04883,1.07072 1.04883,1.07072" fill="none"/><path d="M208.72918,272.88669c0,0 1.34435,-0.6114 2.23156,-0.47519c0.38697,0.05941 0.96999,0.35304 1.59957,0.39723c0.7608,0.05341 1.58958,-0.13198 2.2226,0.0976c0.61758,0.22397 1.04881,1.07072 1.04881,1.07072" fill="none"/></g><path d="" fill="#000000" stroke="none" stroke-width="1" stroke-linecap="butt"/><path d="" fill="#000000" stroke="#000000" stroke-width="0.3" stroke-linecap="butt"/><path d="" fill="#000000" stroke="#000000" stroke-width="0.3" stroke-linecap="butt"/><path d="" fill="#000000" stroke="#000000" stroke-width="0.3" stroke-linecap="butt"/><path d="M249.63841,230.48827c0,0 -9.28013,-14.7457 -14.37048,-22.03033c-4.84393,-6.93197 -18.34269,-19.62151 -18.34269,-19.62151l5.29044,0.69531c0,0 9.74754,11.66985 14.41783,18.23107c4.66984,6.56059 14.63994,19.95279 14.63994,19.95279z" fill="#000000" stroke="none" stroke-width="0" stroke-linecap="butt"/><path d="M390.28971,260.73327c1.01362,-0.80392 2.08321,-1.70466 3.12308,-2.67109c7.25991,-6.74722 36.09834,-29.89109 36.09834,-29.89109l-5.1236,-27.12572l2.6378,-1.63234l4.68201,29.39605c0,0 -32.80897,26.84573 -39.05842,33.64959z" fill="#000000" stroke="none" stroke-width="0" stroke-linecap="butt"/><g fill="#000000" stroke="#000000" stroke-width="0.5" stroke-linecap="butt"><path d="M315.24035,188.73104l-40.29995,-111.7448l1.99952,-0.43726l40.29996,111.74481z"/><path d="M364.73777,60.37932c-6.94712,5.82214 -122.53733,102.69429 -122.53733,102.69429l-1.13992,-1.49034c0,0 116.22801,-97.87202 122.91361,-103.50177z"/><path d="M365.04612,75.4142l-4.07755,-29.10954l1.15531,-0.17869l4.07755,29.10954z"/><path d="M362.58997,75.81646l-4.07754,-29.10954l1.15532,-0.1787l4.07755,29.10954z"/><path d="M358.47372,87.57103l-0.69593,-3.18233c0,0 1.02214,-0.19931 0.99106,-1.09449c-0.08348,-2.40364 -1.19279,-7.60636 -0.4399,-10.67728c1.17256,-4.78264 9.94103,-4.98896 12.47248,-0.81437c1.1324,1.86745 0.69156,6.18452 1.42205,8.72641c0.6162,2.14415 2.12653,2.001 2.12653,2.001l-0.94095,2.16725c0,0 -1.629,-1.47352 -2.02944,-4.42952c-0.33126,-2.44535 -0.67779,-5.83665 -2.2872,-7.59818c-1.4035,-1.53615 -2.75416,-2.74396 -5.12609,-2.28571c-1.86234,0.3598 -3.01426,1.16784 -3.8826,2.81371c-1.6172,3.0653 -0.26488,8.56441 -0.20876,11.74344c0.03592,2.03461 -1.4013,2.63013 -1.4013,2.63013z"/><path d="M362.01347,89.98818c-0.54175,-4.13039 -1.50123,-11.50313 -1.74576,-13.36761c-0.27598,-2.10424 2.56657,-2.7158 4.90242,-2.97963c1.8679,-0.211 3.88881,0.01876 4.1095,1.7014c0.25935,1.97733 1.48522,11.32389 1.96789,15.00399c0.10213,0.77869 0.24457,1.48035 -0.51731,1.88701c-1.01088,0.53956 -2.8547,1.45699 -3.91273,1.57649c-1.03303,0.11668 -3.2151,0.45 -4.20864,-0.76041c-0.31859,-0.38812 -0.59539,-3.06125 -0.59539,-3.06125z"/></g><path d="" fill="#000000" stroke="#000000" stroke-width="0.3" stroke-linecap="butt"/><path d="" fill="#000000" stroke="#000000" stroke-width="0.3" stroke-linecap="butt"/><path d="" fill="#000000" stroke="#000000" stroke-width="0.3" stroke-linecap="butt"/><path d="" fill="#000000" stroke="#000000" stroke-width="0.3" stroke-linecap="butt"/><path d="" fill="#000000" stroke="#000000" stroke-width="0.3" stroke-linecap="butt"/><path d="" fill="#000000" stroke="#000000" stroke-width="0.3" stroke-linecap="butt"/><path d="" fill="#000000" stroke="#000000" stroke-width="0.3" stroke-linecap="butt"/><path d="" fill="#000000" stroke="#000000" stroke-width="0.3" stroke-linecap="butt"/><path d="" fill="#000000" stroke="#000000" stroke-width="0.3" stroke-linecap="butt"/><path d="" fill="#000000" stroke="#000000" stroke-width="0.3" stroke-linecap="butt"/><path d="" fill="#000000" stroke="#000000" stroke-width="0.3" stroke-linecap="butt"/><path d="" fill="#000000" stroke="#000000" stroke-width="0.3" stroke-linecap="butt"/><path d="" fill="#000000" stroke="#000000" stroke-width="0.3" stroke-linecap="butt"/><path d="" fill="#000000" stroke="#000000" stroke-width="0.3" stroke-linecap="butt"/><path d="" fill="#000000" stroke="#000000" stroke-width="0.3" stroke-linecap="butt"/><path d="" fill="#000000" stroke="#000000" stroke-width="0.3" stroke-linecap="butt"/><path d="" fill="#000000" stroke="#000000" stroke-width="0.3" stroke-linecap="butt"/><path d="" fill="#000000" stroke="#000000" stroke-width="0.3" stroke-linecap="butt"/><path d="" fill="#000000" stroke="#000000" stroke-width="0.3" stroke-linecap="butt"/><path d="" fill="#000000" stroke="#000000" stroke-width="0.3" stroke-linecap="butt"/><path d="M283.30221,239.51931c0,0 6.43101,-15.10247 8.67494,-23.43797c2.68875,-9.98789 6.36577,-31.23356 6.36577,-31.23356l8.65343,-2.74487l5.61503,-1.1106l10.06597,0.89118l8.29605,3.85542l5.18245,3.67466c0,0 -3.08706,19.16597 -3.50851,28.06085c-0.42541,8.97819 0.96781,25.5607 0.96781,25.5607z" fill="url(#color-2)" stroke="none" stroke-width="0" stroke-linecap="butt"/><path d="M289.56183,223.5781c0.96391,-2.70024 1.83139,-5.32763 2.41532,-7.49676c2.68875,-9.98789 6.36577,-31.23356 6.36577,-31.23356l8.65343,-2.74487l5.61503,-1.1106l10.06597,0.89118l8.29605,3.85542l5.18245,3.67466c0,0 -3.08706,19.16597 -3.50851,28.06085c-0.02139,0.45152 0.04999,3.21503 0.13969,6.36172" fill="none" stroke="#000000" stroke-width="1.5" stroke-linecap="butt"/><path d="M267.0922,296.59082c5.7269,0.69624 26.90305,-8.84963 31.13986,-10.72971c0.49349,-0.21898 25.62205,7.944 25.62205,7.944" fill="none" stroke="#000000" stroke-width="1.5" stroke-linecap="round"/><path d="M255.37543,250.52788l10.11111,6" fill="none" stroke="#000000" stroke-width="1.5" stroke-linecap="round"/><g><path d="M420.64257,203.77745c0,0 -11.41196,0.42394 -17.2968,0.4872c-6.8244,0.07336 -17.27482,-1.94444 -17.27482,-1.94444c0,0 0.86202,-1.06623 4.08012,-2.5607c2.44762,-1.13667 7.73964,-2.98944 10.7561,-4.31741c1.84606,-0.8127 1.8282,-2.37322 3.04966,-4.3305c1.53966,-2.46719 5.2395,-5.73629 10.24014,-7.92155c2.01602,-0.881 3.76641,-1.16132 5.90004,-1.28147c2.32397,-0.13088 4.50257,-0.15162 6.76401,0.60187c4.85903,1.61903 7.33016,5.40871 9.03381,7.57487c1.40589,1.78757 2.56317,2.28051 4.47732,2.85031c3.12772,0.93107 7.82292,2.33929 10.36661,3.15353c3.34443,1.07054 3.11569,1.96181 3.11569,1.96181c0,0 -8.54644,3.09756 -15.33475,3.90355c-5.85373,0.69501 -16.93935,1.80522 -16.93935,1.80522z" fill="#eced68" stroke="none" stroke-width="0" stroke-linecap="round"/><path d="M420.64257,203.77745c0,0 -11.22074,0.46173 -17.10558,0.52501c-6.8244,0.07336 -16.60328,-2.46833 -16.60328,-2.46833c0,0 0.76414,-0.42895 3.98225,-1.92341c1.43132,-0.6647 3.57379,-1.62598 5.70942,-2.57524c1.51638,-0.67402 4.2818,-1.89334 4.2818,-1.89334c0,0 -0.63556,4.39631 5.86714,5.52693c3.36127,0.58443 12.57714,0.65301 20.25859,0.81076c6.98114,0.14337 12.60753,-0.39807 12.60753,-0.39807l-18.0601,2.37799z" fill="#8f8621" stroke="none" stroke-width="0" stroke-linecap="round"/><path d="M430.92889,195.3903c0.00871,0.38298 -4.41482,1.913 -9.29235,2.47838c-0.72385,0.0839 -1.45772,0.14656 -2.18858,0.18107c-3.11399,0.14704 -9.39493,-0.09625 -12.91447,-0.68864c-3.83121,-0.64486 -4.77739,-1.65037 -4.77739,-1.65037l3.87694,-6.12137c0,0 -0.2819,4.88962 4.55449,6.33764c6.0809,1.82064 20.73036,-1.01983 20.74134,-0.53671z" fill="#8f8621" stroke="none" stroke-width="0" stroke-linecap="butt"/><path d="M436.22433,192.70895c0,0 -0.0103,2.88696 -13.48128,4.7468c-10.75115,1.48434 -19.10362,-0.80311 -19.10362,-0.80311" fill="none" stroke="#524d14" stroke-width="0.75" stroke-linecap="round"/><path d="M420.64257,203.77745c0,0 -11.44395,0.81352 -17.00256,0.53571c-6.04157,-0.30194 -17.91887,-2.28097 -17.91887,-2.28097c0,0 4.60234,-2.63908 7.32654,-3.78204c2.53716,-1.06448 8.4975,-2.85703 8.4975,-2.85703c0,0 5.09575,-12.96728 18.55184,-13.48455c7.98187,-0.30682 11.96999,2.04325 16.48801,7.78786c1.40589,1.78757 3.78712,3.23919 3.78712,3.23919c0,0 6.96912,1.79799 9.50774,2.69125c2.25018,0.79177 4.96328,2.40065 4.96328,2.40065c0,0 -12.05197,3.05653 -17.98151,4.07837c-4.99815,0.86134 -15.28132,1.65384 -15.28132,1.65384z" fill="none" stroke="#000000" stroke-width="1.5" stroke-linecap="round"/></g><g><path d="M217.89672,193.42545c0,0 -11.60058,-1.28187 -17.5447,-2.02777c-6.89314,-0.86498 -16.92789,-3.35334 -16.92789,-3.35334c0,0 1.12919,-0.4682 4.73673,-0.85789c2.74382,-0.29639 8.52833,-0.60679 11.89202,-0.93225c2.05855,-0.19918 2.4222,-1.05411 4.13142,-1.96146c2.15448,-1.14372 6.68135,-2.43906 12.25363,-2.96975c2.24647,-0.21394 4.07845,-0.13496 6.25735,0.08236c2.37327,0.23671 4.57317,0.5143 6.66716,1.22589c4.49926,1.52895 6.062,3.92711 7.24858,5.33651c0.97919,1.16307 2.02454,1.58586 3.81359,2.15102c2.92331,0.92348 7.30906,2.31553 9.67257,3.09773c3.10753,1.02842 2.65911,1.48502 2.65911,1.48502c0,0 -9.36759,0.55886 -16.40355,0.09892c-6.06727,-0.39663 -17.50692,-1.26028 -17.50692,-1.26028z" fill="#eced68" stroke="none" stroke-width="0" stroke-linecap="round"/><path d="M217.89672,193.42545c0,0 -11.41719,-1.23586 -17.36131,-1.98176c-6.89314,-0.86498 -16.12323,-3.5505 -16.12323,-3.5505c0,0 0.87474,-0.13301 4.48228,-0.5227c1.60454,-0.17332 3.99804,-0.41437 6.38172,-0.64975c1.6925,-0.16713 4.7767,-0.46654 4.7767,-0.46654c0,0 -1.71544,2.31758 4.55917,3.79768c3.24336,0.76507 12.51108,2.02478 20.21111,3.12969c6.99804,1.00418 12.79874,1.45456 12.79874,1.45456l-18.77609,-1.09598z" fill="#8f8621" stroke="none" stroke-width="0" stroke-linecap="round"/><path d="M230.31072,190.20744c-0.08488,0.21039 -4.91552,0.45964 -9.96762,0.12166c-0.74977,-0.05016 -1.50442,-0.11326 -2.24915,-0.19133c-3.17313,-0.33265 -9.44133,-1.29857 -12.84219,-2.08899c-3.70203,-0.86041 -4.40936,-1.53524 -4.40936,-1.53524l5.40283,-2.83016c0,0 -1.47977,2.63398 3.03849,4.06651c5.68092,1.80114 21.13407,2.19214 21.027,2.45755z" fill="#8f8621" stroke="none" stroke-width="0" stroke-linecap="butt"/><path d="M236.30132,189.44482c0,0 -0.71639,1.57589 -14.74249,0.80543c-11.19419,-0.6149 -19.04943,-2.97234 -19.04943,-2.97234" fill="none" stroke="#524d14" stroke-width="0.75" stroke-linecap="round"/><path d="M217.89672,193.42545c0,0 -11.72809,-1.07327 -17.26014,-1.96224c-6.01271,-0.96621 -17.49443,-3.62262 -17.49443,-3.62262c0,0 5.282,-0.83145 8.306,-1.0946c2.81637,-0.24508 9.25946,-0.43394 9.25946,-0.43394c0,0 8.30491,-6.40868 21.98767,-4.9067c8.11633,0.89094 11.55941,2.70379 14.70619,6.44147c0.97919,1.16307 3.02314,2.27194 3.02314,2.27194c0,0 6.5813,1.90658 8.92036,2.73127c2.07331,0.731 4.41312,1.9698 4.41312,1.9698c0,0 -12.88918,0.07152 -19.11275,-0.1566c-5.246,-0.19229 -15.79953,-1.12309 -15.79953,-1.12309z" fill="none" stroke="#000000" stroke-width="1.5" stroke-linecap="round"/></g><path d="M221.40107,180.96721c0,0 0.40474,-1.84831 0.47946,-2.86398c0.09839,-1.33733 0.05968,-4.46389 0.05968,-4.46389l2.14516,0.2751c0,0 -0.56619,2.69216 -0.90263,3.94591c-0.29458,1.09778 -0.5894,3.15031 -0.5894,3.15031z" fill="#000000" stroke="#000000" stroke-width="0.5" stroke-linecap="butt"/><path d="M418.85363,182.01351c0,0 0.3276,-1.48425 0.21366,-2.58085c-0.15003,-1.44391 -0.83437,-4.80236 -0.83437,-4.80236l2.71855,0.15793c0,0 -0.15488,2.93036 -0.31732,4.29971c-0.14223,1.199 -0.05846,3.24625 -0.05846,3.24625z" fill="#000000" stroke="#000000" stroke-width="1.5" stroke-linecap="butt"/><path d="M242.36964,272.88793c-5.24651,-6.13148 -17.4371,-20.17133 -17.4371,-20.17133l1.34343,-15.30357l2.05682,0.38576l-1.44422,14.38576c0,0 12.19003,15.60183 16.69581,19.23492c2.18797,1.7642 -1.21473,1.46846 -1.21473,1.46846z" fill="#000000" stroke="none" stroke-width="0" stroke-linecap="butt"/><g><g><path d="M225.79248,247.96159c0,0 -8.8079,-2.21858 -13.31503,-3.47524c-5.22674,-1.45727 -12.75278,-5.23247 -12.75278,-5.23247c0,0 0.89731,-0.58187 3.68949,-0.95259c2.12368,-0.28196 6.57962,-0.45332 9.18051,-0.748c1.59173,-0.18036 1.92814,-1.31515 3.29975,-2.46317c1.72891,-1.44709 5.28698,-2.99721 9.59505,-3.47399c1.7368,-0.19222 3.13607,-0.00794 4.79201,0.37722c1.80366,0.41952 3.47163,0.88667 5.02917,1.93323c3.3466,2.24869 4.38318,5.54184 5.19798,7.48864c0.67238,1.60655 1.44538,2.2199 2.77898,3.05648c2.1791,1.36696 5.44789,3.42662 7.20731,4.57967c2.31327,1.51599 1.9387,2.11124 1.9387,2.11124c0,0 -7.21985,0.35311 -12.58337,-0.56528c-4.6251,-0.79195 -13.33777,-2.441 -13.33777,-2.441z" fill="#eced68" stroke="none" stroke-width="0" stroke-linecap="round"/><path d="M225.79248,247.96159c0,0 -8.67037,-2.14888 -13.17752,-3.40552c-5.22674,-1.45727 -12.12257,-5.46349 -12.12257,-5.46349c0,0 0.67963,-0.14172 3.47181,-0.51244c1.24189,-0.16488 3.09324,-0.3873 4.93668,-0.60251c1.30892,-0.1528 3.69377,-0.42433 3.69377,-0.42433c0,0 -1.47139,3.04517 3.23967,5.30373c2.43516,1.16745 9.45592,3.25689 15.28514,5.07133c5.29778,1.64902 9.71488,2.50195 9.71488,2.50195l-14.32192,-2.27397z" fill="#8f8621" stroke="none" stroke-width="0" stroke-linecap="round"/><path d="M235.52724,244.16041c-0.07925,0.27946 -3.79974,0.40915 -7.65045,-0.26068c-0.57147,-0.0994 -1.14581,-0.21642 -1.71154,-0.35318c-2.41045,-0.58265 -7.15125,-2.14912 -9.70546,-3.35738c-2.7804,-1.31527 -3.27724,-2.25333 -3.27724,-2.25333l4.33308,-3.57784c0,0 -1.31202,3.48092 2.05564,5.60068c4.23425,2.66522 16.05594,3.8492 15.95597,4.20173z" fill="#8f8621" stroke="none" stroke-width="0" stroke-linecap="butt"/><path d="M240.17167,243.38937c0,0 -0.65545,2.08978 -11.35745,0.45601c-8.54124,-1.3039 -14.40507,-4.81016 -14.40507,-4.81016" fill="none" stroke="#524d14" stroke-width="0.75" stroke-linecap="round"/><path d="M225.79248,247.96159c0,0 -8.9197,-1.94337 -13.10127,-3.37496c-4.54488,-1.55598 -13.16902,-5.61888 -13.16902,-5.61888c0,0 4.10577,-0.89381 6.44203,-1.11912c2.17584,-0.20984 7.12854,-0.18963 7.12854,-0.18963c0,0 6.79924,-8.26904 17.18871,-5.66564c6.16283,1.54427 8.68051,4.12997 10.84133,9.29283c0.67238,1.60655 2.16479,3.18552 2.16479,3.18552c0,0 4.91746,2.8454 6.65527,4.05459c1.54037,1.0718 3.25085,2.83816 3.25085,2.83816c0,0 -9.88705,-0.45251 -14.64334,-1.02439c-4.00919,-0.48206 -12.03793,-2.18372 -12.03793,-2.18372z" fill="none" stroke="#000000" stroke-width="1.5" stroke-linecap="round"/></g><path d="M229.54321,231.66162c0,0 0.51613,-1.03627 0.62123,-1.86452c0.13839,-1.09057 0.20007,-3.68614 0.20007,-3.68614l2.08154,0.5946c0,0 -0.6373,2.13244 -1.005,3.11308c-0.32195,0.85865 -0.61824,2.38222 -0.61824,2.38222z" fill="#000000" stroke="#000000" stroke-width="1.5" stroke-linecap="butt"/></g><g fill="#81782d" stroke="none" stroke-width="0.5" stroke-linecap="butt"><path d="M393.10975,257.32495c0.17166,-0.15284 0.33862,0.01412 0.33862,0.01412c0.2201,0.25309 0.30937,0.6707 0.19705,0.98674c-0.00685,0.01929 -0.01714,0.03934 -0.03024,0.05992c-0.02265,0.20583 -0.12866,0.40253 -0.33868,0.57629c0.41357,0.12237 0.60647,0.85521 0.32513,1.14812c-0.25016,0.26045 -1.43202,-0.07657 -1.08327,0.01719c0.76522,0.20572 0.67762,0.82284 0.3488,1.24809c0.25691,0.07781 0.53525,0.28616 0.79908,-0.03634c0.50061,-0.61193 1.81952,-2.3433 3.98503,-4.29012c2.90536,-2.61194 7.47746,-7.35453 7.47746,-7.35453c0,0 -6.3755,10.09841 -6.61259,11.23046c-0.46022,2.19741 -1.85573,2.99378 -3.95804,2.85131c-3.58538,-0.04287 -5.7844,-1.18067 -5.82223,-5.11629c-0.00002,-3.22967 3.12214,-2.56122 4.37387,-1.33495z"/><path d="M430.56822,218.67373c-0.32241,0.00917 -0.35597,0.25438 -0.28915,0.52659c0.01031,-0.05494 0.04333,-0.1128 0.12159,-0.15901c0.21527,-0.12712 0.34239,0.08816 0.34239,0.08816c0.01241,0.02211 0.02451,0.04389 0.03629,0.06532c0.08274,-0.17362 0.01573,-0.52751 -0.21112,-0.52106zM429.37937,213.97834c-1.41762,-2.7075 -1.95642,-5.22601 -1.95642,-5.22601c0,0 5.97491,9.81072 5.75511,10.24809l-0.14218,0.22007c0.43845,1.07689 -2.04898,-2.17193 -3.6565,-5.24215zM430.4879,219.67776c0.00059,-0.00282 0.00124,-0.00565 0.00193,-0.00846c-0.03112,-0.05172 -0.06797,-0.11175 -0.1112,-0.1808c0.03332,0.07747 0.06954,0.15098 0.10397,0.21531c0.0014,-0.00905 0.00322,-0.01776 0.0053,-0.02605z"/><path d="M414.55074,239.59249c-0.03395,-0.32074 -0.28102,-0.33533 -0.54728,-0.24777c0.05557,0.00606 0.1158,0.03451 0.1679,0.10899c0.1433,0.20486 -0.06155,0.34815 -0.06155,0.34815c-0.0211,0.01408 -0.04187,0.02782 -0.06233,0.04122c0.17947,0.06913 0.52715,-0.02491 0.50326,-0.25059zM418.48831,236.09026c2.59039,-1.62176 5.05998,-2.35276 5.05998,-2.35276c0,0 -9.32186,6.71213 -9.77486,6.52663l-0.23036,-0.12483c-1.03996,0.52002 2.00783,-2.21004 4.94524,-4.04905zM413.54349,239.58967c0.00286,0.00038 0.00573,0.0008 0.00859,0.00127c0.04917,-0.03501 0.10618,-0.07636 0.1717,-0.12478c-0.07468,0.03918 -0.14518,0.08095 -0.20667,0.12023c0.00914,0.0007 0.01797,0.00184 0.02639,0.00328z"/></g><path d="M248.33758,220.9245c-0.27761,0.1642 -0.18818,0.39499 0.00213,0.60075c-0.01759,-0.05306 -0.01674,-0.11967 0.02934,-0.19801c0.12675,-0.21549 0.34223,-0.08873 0.34223,-0.08873c0.02157,0.01333 0.04271,0.02652 0.0634,0.03956c-0.01173,-0.19196 -0.24178,-0.46911 -0.4371,-0.35357zM243.5155,218.799c-2.55176,-1.68188 -4.24316,-3.62415 -4.24316,-3.62415c0,0 9.97961,5.68834 9.99919,6.17745l-0.01778,0.26141c0.90525,0.7297 -2.84466,-0.9075 -5.73826,-2.8147zM248.75369,221.84177c-0.00085,-0.00276 -0.00165,-0.00554 -0.00241,-0.00834c-0.05228,-0.03017 -0.11359,-0.06483 -0.18487,-0.1043c0.06667,0.05163 0.13397,0.09839 0.19526,0.13799c-0.00315,-0.0086 -0.00579,-0.0171 -0.00798,-0.02535z" fill="#888139" stroke="none" stroke-width="0.5" stroke-linecap="butt"/><path d="M248.33758,220.9245c-0.27761,0.1642 -0.18818,0.39499 0.00213,0.60075c-0.01759,-0.05306 -0.01674,-0.11967 0.02934,-0.19801c0.12675,-0.21549 0.34223,-0.08873 0.34223,-0.08873c0.02157,0.01333 0.04271,0.02652 0.0634,0.03956c-0.01173,-0.19196 -0.24178,-0.46911 -0.4371,-0.35357zM243.5155,218.799c-2.55176,-1.68188 -4.24316,-3.62415 -4.24316,-3.62415c0,0 9.97961,5.68834 9.99919,6.17745l-0.01778,0.26141c0.90525,0.7297 -2.84466,-0.9075 -5.73826,-2.8147zM248.75369,221.84177c-0.00085,-0.00276 -0.00165,-0.00554 -0.00241,-0.00834c-0.05228,-0.03017 -0.11359,-0.06483 -0.18487,-0.1043c0.06667,0.05163 0.13397,0.09839 0.19526,0.13799c-0.00315,-0.0086 -0.00579,-0.0171 -0.00798,-0.02535z" fill="#888139" stroke="none" stroke-width="0.5" stroke-linecap="butt"/><path d="M248.33758,220.9245c-0.27761,0.1642 -0.18818,0.39499 0.00213,0.60075c-0.01759,-0.05306 -0.01674,-0.11967 0.02934,-0.19801c0.12675,-0.21549 0.34223,-0.08873 0.34223,-0.08873c0.02157,0.01333 0.04271,0.02652 0.0634,0.03956c-0.01173,-0.19196 -0.24178,-0.46911 -0.4371,-0.35357zM243.5155,218.799c-2.55176,-1.68188 -4.24316,-3.62415 -4.24316,-3.62415c0,0 9.97961,5.68834 9.99919,6.17745l-0.01778,0.26141c0.90525,0.7297 -2.84466,-0.9075 -5.73826,-2.8147zM248.75369,221.84177c-0.00085,-0.00276 -0.00165,-0.00554 -0.00241,-0.00834c-0.05228,-0.03017 -0.11359,-0.06483 -0.18487,-0.1043c0.06667,0.05163 0.13397,0.09839 0.19526,0.13799c-0.00315,-0.0086 -0.00579,-0.0171 -0.00798,-0.02535z" fill="#888139" stroke="none" stroke-width="0.5" stroke-linecap="butt"/><path d="M247.68635,227.94156c-0.38551,-0.19205 -0.50674,-0.09326 -0.51788,0.07983c0.03048,-0.02043 0.08886,-0.02845 0.19704,-0.00322c0.29758,0.06939 0.37688,0.25155 0.37688,0.25155c0.00738,0.01832 0.01451,0.03628 0.02137,0.05388c0.1558,-0.034 0.19383,-0.24692 -0.07741,-0.38205zM245.29673,223.95792c-0.78258,-2.18059 -0.58541,-3.73363 -0.58541,-3.73363c0,0 3.82996,8.41225 3.42397,8.49096l-0.24175,0.02035c0.16252,0.79089 -1.7094,-2.30497 -2.59681,-4.77767zM247.25769,228.38083c0.00164,-0.00101 0.00335,-0.00198 0.0051,-0.00293c-0.01975,-0.04412 -0.04353,-0.09576 -0.07188,-0.15569c0.0138,0.05797 0.03236,0.11579 0.05185,0.16807c0.00468,-0.00354 0.00971,-0.00668 0.01493,-0.00944z" fill="#888139" stroke="none" stroke-width="0.5" stroke-linecap="butt"/><path d="M391.11842,257.38954c0.37435,-0.09932 0.76758,-0.15224 1.17317,-0.15224c0.56367,0 1.58924,0.81175 1.54547,1.88954c-0.03171,0.78082 -1.27799,1.82004 -0.52545,2.22009c1.13343,0.60251 2.83339,-0.44668 4.47066,-0.1757c0.2682,0.04439 1.66253,1.34734 2.1322,1.61168c0.97769,0.55024 3.60314,-0.48444 5.57986,0.47317c1.97672,0.95761 3.50149,3.82368 3.88712,4.11309" fill="none" stroke="#000000" stroke-width="1.5" stroke-linecap="butt"/><path d="M228.05866,274.93267c0.21643,-0.15972 0.46627,-0.30728 0.74786,-0.438c0.39134,-0.18165 1.45861,-0.1927 1.8999,0.24558c0.3197,0.31751 -0.09076,1.12815 0.60679,1.04307c1.05059,-0.12815 1.77164,-1.08891 3.02693,-1.50991c0.20563,-0.06896 1.74388,-0.00553 2.18564,-0.05286c0.91958,-0.09853 2.28953,-1.35185 4.08098,-1.61201c1.79145,-0.26016 4.10434,0.3764 4.49873,0.36602" fill="none" stroke="#000000" stroke-width="1.5" stroke-linecap="butt"/><g stroke="none" stroke-linecap="butt"><path d="M348.17006,234.24732c0.54507,-1.16343 1.0967,-2.43766 1.59231,-3.75701c3.4601,-9.21113 7.31152,-22.8005 9.2501,-31.68026c3.10637,-14.22891 4.23431,-46.51574 4.23431,-46.51574l5.55812,0.4992c0,0 -1.90852,5.99797 -3.25684,14.38698c-1.62616,10.1176 -2.87608,23.51368 -4.73364,31.44333c-2.36853,10.1108 -7.23032,27.29537 -9.76209,36.10843z" fill="#000000" stroke-width="0"/><path d="M347.5782,229.75235c0.10737,-0.20149 0.32214,-0.1038 0.32214,-0.1038c0.29467,0.15948 0.52431,0.5172 0.52959,0.85004c0.00032,0.02031 -0.00231,0.04252 -0.00737,0.0662c0.05074,0.19933 0.02022,0.41896 -0.11577,0.65316c0.43021,-0.02896 0.86713,0.58628 0.706,0.95598c-0.14328,0.32873 -1.36823,0.42329 -1.00876,0.39009c0.78876,-0.07286 0.92247,0.53158 0.76313,1.04081c0.26787,-0.01632 0.60144,0.08142 0.73583,-0.30977c0.25501,-0.74226 0.88517,-2.80866 2.23305,-5.3679c1.80841,-3.4336 4.4332,-9.42523 4.4332,-9.42523c0,0 -2.44154,11.59769 -2.26784,12.73288c0.33718,2.20349 -0.69165,3.42639 -2.71083,4.01986c-3.37366,1.1983 -5.83145,0.89905 -7.24294,-2.74974c-1.12924,-3.00501 2.02921,-3.46127 3.63055,-2.75258z" fill="#81782d" stroke-width="0.5"/><path d="M356.86387,207.0999c-0.22646,-0.22832 -0.42872,-0.08717 -0.58232,0.14522c0.04722,-0.02959 0.11205,-0.04464 0.19919,-0.01892c0.23971,0.07076 0.16886,0.30856 0.16886,0.30856c-0.00772,0.02396 -0.0154,0.04747 -0.02305,0.07051c0.18341,-0.05704 0.39664,-0.34473 0.23731,-0.50539zM357.75973,201.94768c1.01456,-2.85925 2.48983,-4.95164 2.48983,-4.95164c0,0 -3.10502,10.97021 -3.5748,11.10564l-0.25791,0.04517c-0.48899,1.04603 0.19242,-2.95688 1.34288,-6.19917zM356.07458,207.71938c0.00247,-0.00148 0.00498,-0.00292 0.00751,-0.00431c0.01662,-0.05756 0.03542,-0.12489 0.05648,-0.20296c-0.03397,0.07654 -0.06306,0.15253 -0.08665,0.221c0.00759,-0.00509 0.01519,-0.00965 0.02268,-0.01373z" fill="#81782d" stroke-width="0.5"/></g><path d="M342.21842,230.69747c0.30875,-0.07187 0.63308,-0.11018 0.96761,-0.11018c0.4649,0 1.31077,0.58742 1.27468,1.36736c-0.02616,0.56503 -1.05406,1.31707 -0.43338,1.60656c0.93484,0.43601 2.33693,-0.32324 3.68732,-0.12714c0.2212,0.03212 1.37122,0.97499 1.75861,1.16628c0.80638,0.39818 2.97181,-0.35057 4.60217,0.3424c1.63036,0.69297 2.88797,2.76699 3.20603,2.97642" fill="none" stroke="#000000" stroke-width="1.5" stroke-linecap="butt"/><g><g><path d="M362.57534,156.53298c0,0 -16.98815,-3.28079 -25.08141,-5.14574c-9.38539,-2.1627 -27.7356,-7.02649 -27.7356,-7.02649c0,0 8.24115,-1.15271 13.05889,-1.67738c3.66428,-0.39906 10.4153,-1.03303 14.91162,-1.44773c2.75171,-0.25379 4.43498,-0.56808 6.63682,-2.23786c2.77544,-2.10478 8.16845,-5.36143 15.618,-6.03178c3.00329,-0.27025 4.75433,-0.32217 7.71476,0.25113c3.22452,0.62445 4.96652,1.42032 7.86776,2.95989c6.23375,3.30802 9.86103,8.026 11.61747,10.87703c1.44946,2.35274 2.90535,3.25417 5.3793,4.4854c4.04246,2.01182 10.10794,5.04302 13.38025,6.73951c4.30241,2.23052 11.56978,6.28397 11.56978,6.28397c0,0 -18.86763,-2.0975 -28.40021,-3.47327c-8.22016,-1.18636 -25.24566,-4.26754 -25.24566,-4.26754z" fill="#eced68" stroke="none" stroke-width="0" stroke-linecap="round"/><path d="M362.57534,156.53298c0,0 -16.98815,-3.28079 -25.08141,-5.14574c-9.38539,-2.1627 -27.7356,-7.02649 -27.7356,-7.02649c0,0 8.24115,-1.15271 13.05889,-1.67738c2.14281,-0.23335 5.34119,-0.54705 8.52697,-0.85026c2.26202,-0.21529 6.38464,-0.59747 6.38464,-0.59747c0,0 -2.05264,4.44256 6.56799,7.77345c4.45603,1.72174 17.08537,4.8197 27.58489,7.50827c9.5423,2.44345 17.23104,4.57231 17.23104,4.57231l-25.24566,-4.26754z" fill="#8f8621" stroke="none" stroke-width="0" stroke-linecap="round"/><path d="M378.94406,151.03635c-0.09087,0.40804 -6.57248,0.57462 -13.41812,-0.42842c-1.01594,-0.14886 -2.03991,-0.32347 -3.05219,-0.52688c-7.61479,-1.53015 -17.19824,-5.07915 -20.6527,-5.84847c-2.83788,-0.63201 -1.88043,-1.4244 -0.77568,-2.55029c2.37068,-2.41604 9.44107,-5.47218 9.44107,-5.47218c0,0 -6.40017,5.46543 -0.15159,8.58509c7.8565,3.92243 28.72384,5.72642 28.60921,6.24117z" fill="#8f8621" stroke="none" stroke-width="0" stroke-linecap="butt"/><path d="M378.50409,151.61529c0,0 -3.1019,0.29729 -8.91319,-0.23593c-7.70871,-0.70731 -12.0053,-1.83776 -19.35546,-4.26668" fill="none" stroke="#524d14" stroke-width="0.75" stroke-linecap="round"/><path d="M362.57534,156.53298c0,0 -16.98815,-3.28079 -25.08141,-5.14574c-9.38539,-2.1627 -27.7356,-7.02649 -27.7356,-7.02649c0,0 8.24115,-1.15271 13.05889,-1.67738c3.66428,-0.39906 10.4153,-1.03303 14.91162,-1.44773c2.75171,-0.25379 4.43498,-0.56808 6.63682,-2.23786c2.77544,-2.10478 8.16845,-5.36143 15.618,-6.03178c3.00329,-0.27025 4.75433,-0.32217 7.71476,0.25113c3.22452,0.62445 4.96652,1.42032 7.86776,2.95989c6.23375,3.30802 9.86103,8.026 11.61747,10.87703c1.44946,2.35274 2.90535,3.25417 5.3793,4.4854c4.04246,2.01182 10.10794,5.04302 13.38025,6.73951c4.30241,2.23052 11.56978,6.28397 11.56978,6.28397c0,0 -18.86763,-2.0975 -28.40021,-3.47327c-8.22016,-1.18636 -25.24566,-4.26754 -25.24566,-4.26754z" fill="none" stroke="#000000" stroke-width="1.5" stroke-linecap="round"/></g><path d="M365.91338,132.65718c0,0 0.42302,-2.16039 0.4837,-3.3437c0.07989,-1.55811 -0.04593,-5.19386 -0.04593,-5.19386l2.50233,0.26456c0,0 -0.58903,3.14611 -0.94797,4.61314c-0.31429,1.28452 -0.59771,3.9704 -0.59771,3.9704z" fill="#000000" stroke="#000000" stroke-width="1.5" stroke-linecap="butt"/><path d="M377.70511,139.65661c5.09776,3.41289 7.30553,7.08673 7.09146,7.42307c-0.21408,0.33635 -2.59844,-2.90056 -7.6962,-6.31345c-5.09776,-3.41289 -8.53066,-4.87149 -8.31659,-5.20785c0.21408,-0.33635 3.82355,0.68533 8.92132,4.09822z" fill="#faefbe" stroke="none" stroke-width="0" stroke-linecap="butt"/><path d="M405.13389,159.57601c0,0 -8.0955,-2.17148 -12.20416,-4.75274c-4.10866,-2.58125 -7.02144,-4.74301 -6.81158,-5.07706c0.20986,-0.33404 2.87406,1.30137 6.98273,3.88263c4.10866,2.58125 12.03301,5.94716 12.03301,5.94716z" fill="#faefbe" stroke="none" stroke-width="0" stroke-linecap="butt"/><g stroke-linecap="butt"><path d="M380.55322,147.24171c0.84802,-2.56609 3.70638,-4.0322 6.53154,-3.22727c2.82515,0.80494 4.32688,3.51085 3.58634,6.11002c-0.74054,2.59914 -3.43744,4.23092 -6.5368,3.38855c-2.94806,-0.80124 -4.46672,-3.59139 -3.58108,-6.27129z" fill="#ffffff" stroke="#000000" stroke-width="1.4"/><path d="M382.98553,147.98386c0.42661,-1.49733 1.98627,-2.36532 3.48362,-1.93871c1.49733,0.42661 2.36533,1.98628 1.93872,3.48363c-0.42661,1.49733 -1.98627,2.36532 -3.4836,1.93871c-1.49733,-0.42661 -2.36533,-1.98628 -1.93872,-3.48363z" fill="#000000" stroke="none" stroke-width="1.5"/></g><g stroke-linecap="butt"><path d="M339.65248,139.84595c0.77814,-2.58813 3.92304,-4.01504 6.76574,-3.16038c2.84269,0.85467 4.15277,3.62341 3.37463,6.21155c-0.77814,2.58813 -3.52183,4.04797 -6.36453,3.19331c-2.84269,-0.85467 -4.55398,-3.65634 -3.77585,-6.24448z" fill="#ffffff" stroke="#000000" stroke-width="1.4"/><path d="M341.99217,140.58031c0.43878,-1.45939 1.97753,-2.28675 3.43691,-1.84798c1.45939,0.43878 2.28676,1.97754 1.84799,3.43692c-0.43878,1.45939 -1.97753,2.28675 -3.43691,1.84798c-1.45939,-0.43878 -2.28676,-1.97754 -1.84799,-3.43692z" fill="#000000" stroke="none" stroke-width="1.5"/></g></g><path d="M260.92044,296.88109l-5.07928,-35.91179c0,0 7.44052,-2.73987 11.02175,-4.48268c6.44867,-3.13825 24.59097,-11.93386 24.59097,-11.93386l13.01891,37.67023c0,0 -22.56532,10.99353 -30.38094,13.23094c-6.11212,1.74975 -13.1714,1.42717 -13.1714,1.42717z" fill="url(#color-3)" stroke="none" stroke-width="0" stroke-linecap="butt"/><path d="M250.21572,246.18227l21.36535,-34.32706c0,0 3.89472,1.97323 8.55655,4.94854c5.34123,3.40892 11.48637,7.74256 14.98258,9.78664c7.17122,4.1927 17.53801,9.17699 17.53801,9.17699l-14.71535,34.97706c0,0 -22.9644,-8.6094 -36.23682,-16.78181c-6.22983,-3.83598 -11.49033,-7.78036 -11.49033,-7.78036z" fill="url(#color-4)" stroke="none" stroke-width="0" stroke-linecap="butt"/><path d="M273.96016,236.49491c-4.22419,9.97337 -15.26432,15.99714 -21.26652,12.52929c-6.00221,-3.46785 -5.94358,-13.3641 -1.71938,-23.33747c4.22419,-9.97337 14.26432,-16.49714 20.26653,-13.02929c6.00221,3.46785 6.94358,13.8641 2.71938,23.83747z" fill="#e2e05f" stroke="#000000" stroke-width="1.5" stroke-linecap="butt"/><path d="M273.5922,253.42415l-19.66666,8.33333" fill="none" stroke="#000000" stroke-width="1.5" stroke-linecap="round"/><path d="M278.42555,279.17413c0,10.26329 -6.74052,18.08333 -16.08334,18.08333c-9.34281,0 -15.75,-7.15338 -15.75,-17.41667c0,-10.26329 2.90719,-18.91667 12.25,-18.91667c9.34281,0 19.58334,7.98671 19.58334,18.25z" fill="#faefbe" stroke="#000000" stroke-width="1.5" stroke-linecap="butt"/><path d="M303.931,231.41676c0,0 -10.00618,-5.12752 -14.93491,-8.04147c-5.86916,-3.46994 -18.95398,-11.30297 -18.95398,-11.30297" fill="none" stroke="#000000" stroke-width="1.5" stroke-linecap="round"/><path d="M295.31721,284.82416c0,0 -1.51202,-5.99345 -1.5673,-13.00079c-0.06926,-8.78064 -0.10568,-17.06412 1.48794,-24.17804c1.36568,-6.09639 3.76908,-11.33389 10.17061,-15.28929c4.53339,-2.80111 10.33238,-2.76009 14.38759,-3.55813c0.78271,-0.15404 9.11408,3.01295 16.68991,6.16177c7.31569,3.0407 13.75506,6.6359 13.75506,6.6359l-25.45714,52.62858c0,0 -10.24957,-3.01445 -15.08342,-4.55647c-4.98379,-1.58985 -14.38325,-4.84352 -14.38325,-4.84352z" fill="url(#color-5)" stroke="none" stroke-width="0" stroke-linecap="butt"/><path d="M366.37981,267.00766c-0.51677,14.95653 -15.22262,28.7 -30.3,28.7c-15.07738,0 -27.7,-12.12719 -27.7,-26.1c0,-6.46271 2.68435,-14.5863 8.13671,-20.16189c6.336,-6.47922 16.05951,-10.43811 24.16329,-10.43811c15.07738,0 26.3,10.63455 25.7,28z" fill="#faefbe" stroke="#000000" stroke-width="1.5" stroke-linecap="butt"/><path d="M344.97775,238.73476c0,0 -7.56358,-2.98564 -9.36964,-3.82095" fill="none" stroke="#000000" stroke-width="1.5" stroke-linecap="round"/></g></g></svg>