<svg version="1.1" xmlns="http://www.w3.org/2000/svg" xmlns:xlink="http://www.w3.org/1999/xlink" width="34.17311" height="34.17311" viewBox="0,0,34.17311,34.17311"><g transform="translate(-302.91346,-162.9135)"><g stroke-miterlimit="10"><path d="M309.98312,162.9135h20.03379c3.9166,0 7.06966,3.15307 7.06966,7.06966v20.03379c0,3.91659 -3.15306,7.06966 -7.06966,7.06966h-20.03379c-3.91659,0 -7.06966,-3.15307 -7.06966,-7.06966v-20.03379c0,-3.91659 3.15307,-7.06966 7.06966,-7.06966z" fill="#787878" fill-rule="evenodd" stroke="none" stroke-width="0" stroke-linecap="round" stroke-linejoin="round"/><g fill-rule="nonzero" stroke-linejoin="miter"><g stroke-width="1"><path d="M314.25055,190.2133c-0.94517,1.1028 -1.9894,3.16461 -1.9894,3.16461l-1.56475,0.09895l-0.6736,-1.00226c0,0 1.21698,-2.88437 1.15881,-4.44148c-0.11902,-3.18608 -1.59144,-4.07116 -2.67108,-6.04383c-0.94382,-1.72453 -1.04899,-2.40793 -0.8479,-3.86789c0.34367,-2.49515 2.27157,-5.53033 2.27157,-5.53033c0,0 2.26094,-3.02289 4.46524,-3.57771c2.95908,-0.74481 3.56171,-0.60965 3.56171,-0.60965c0,0 0.7476,0.00869 1.15617,0.10056c0.44527,0.10013 1.41484,0.47759 1.41484,0.47759c0,0 1.40452,-0.68048 2.29337,-0.40563c1.91622,0.59253 2.82008,2.74894 2.82008,2.74894c0,0 1.12544,-1.05512 1.84939,-0.80103c2.22861,0.78217 2.80884,2.04579 2.80884,2.04579c0,0 1.36593,2.50916 1.35952,5.77445c-0.01295,6.6002 -2.96114,7.39525 -2.96114,7.39525l2.70872,2.50735l-4.0304,-1.10981c0,0 -0.14575,0.53613 -0.13765,0.85311c0.00794,0.31055 0.33576,1.42988 0.33576,1.42988c0,0 -1.85633,-0.90333 -2.70294,-1.30112c-0.90616,-0.42577 -2.7675,-1.42523 -2.7675,-1.42523c0,0 -1.39262,0.74284 -1.95206,1.2532c-0.53026,0.48373 -1.32173,1.73336 -1.32173,1.73336l1.26442,0.63381c0,0 -3.34164,-0.84368 -4.00928,-0.76149c-0.90305,0.11118 -1.4454,0.20134 -1.83901,0.6606z" fill="#c1c1c1" stroke="#8a8a8a" stroke-linecap="round"/><path d="M318.61248,168.28412c0.02185,-0.01107 0.04467,-0.02221 0.06836,-0.03337l-0.07677,-0.05138c-0.15645,0.0233 -0.31897,-0.0074 -0.47541,-0.04881c-0.02423,0.05728 -0.04059,0.11483 -0.02563,0.14458c0.04698,0.09342 0.18123,0.09742 0.28621,0.12716c0.07492,-0.04343 0.14312,-0.09759 0.22324,-0.13817zM318.97996,168.06405c0,0 0.03034,0.01371 0.05129,0.0427c0.27147,-0.09838 0.58383,-0.18561 0.86824,-0.23286c0.02852,-0.39291 0.17779,-0.75162 0.34415,-1.13193c0.05508,-0.12592 0.11322,-0.264 0.18582,-0.39261c-0.01848,-0.00856 -0.03674,-0.01679 -0.05479,-0.02468c-0.07234,0.02357 -0.14442,0.04814 -0.21623,0.07098c-0.00198,0.03226 -0.00562,0.0652 -0.01035,0.09835c-0.0756,0.52972 -0.35644,0.98678 -0.78525,1.29367c-0.06939,0.04922 -0.27163,0.2118 -0.36885,0.1867c-0.02068,0.02392 -0.04246,0.04643 -0.06472,0.06706c0.0169,0.00753 0.03379,0.01508 0.05069,0.02261zM321.55656,168.6389c-0.25993,0.34884 -0.71044,0.25567 -1.09183,0.20554c-0.27661,-0.03635 -0.54106,-0.07488 -0.79084,-0.1385c-0.12813,0.02806 -0.25681,0.04112 -0.37636,0.04047c-0.30902,-0.00377 -0.59452,0.01605 -0.88635,-0.07135c-0.03531,0.01489 -0.07553,0.02757 -0.12455,0.03732c-0.13967,0.02777 -0.2871,-0.06689 -0.40088,-0.11792c-0.27715,-0.12429 -0.52748,-0.27336 -0.83133,-0.30262c-0.20299,-0.00966 -0.40089,-0.04708 -0.59778,-0.08816c-0.31463,0.38386 -0.81527,0.70452 -1.30764,0.65174c-0.02686,-0.00288 -0.45861,-0.15199 -0.48613,-0.1614c-0.00161,-0.00127 -0.00323,-0.00255 -0.00484,-0.00382c-0.03199,0.06189 -0.06922,0.10288 -0.11108,0.10273c-0.11777,-0.00042 -0.20542,-0.1225 -0.28394,-0.21029c-0.03291,-0.0368 -0.06343,-0.08198 -0.09181,-0.13256c-0.03821,0.07203 -0.07958,0.12803 -0.12577,0.17245c0.01229,0.06749 -0.00935,0.14046 -0.08329,0.21576c-0.03135,0.03194 -0.06744,0.04881 -0.10565,0.05443c-0.05437,0.17655 -0.12596,0.34212 -0.17806,0.4538c-0.05919,0.12687 -0.10011,0.28096 -0.29212,0.27683c-0.10863,-0.00233 -0.21349,-0.05786 -0.30823,-0.13501c-0.0241,0.01468 -0.04829,0.02837 -0.07253,0.04096c-0.14413,0.0749 -0.34002,0.10835 -0.47933,0.03659c-0.12783,0.03568 -0.25232,0.08139 -0.32948,0.16685c-0.08257,0.09145 -0.17051,0.18788 -0.25916,0.28555c-0.16205,0.29607 -0.33185,0.58083 -0.56367,0.84976c-0.03059,0.08463 -0.0597,0.16506 -0.08957,0.22962c-0.07794,0.08589 -0.14819,0.17865 -0.21666,0.27228l-0.02275,0.00635l0.00471,0.00753l-0.11751,0.07336c-0.03221,0.02077 -0.07397,0.02527 -0.11148,0.00831c-0.05876,-0.02657 -0.08486,-0.09574 -0.05829,-0.15451l0.06415,-0.14186l0.03488,0.01577c0.04498,-0.10956 0.10603,-0.20452 0.17642,-0.29523c-0.01612,0.00451 -0.03301,0.00782 -0.05053,0.01008c-0.0326,0.07163 -0.04991,0.16208 -0.11993,0.18765c-0.04694,0.01713 -0.09339,0.01304 -0.13703,-0.00425c-0.02886,0.0709 -0.07076,0.13742 -0.12117,0.19102c0.14799,0.26083 0.31278,0.74721 -0.00064,0.88159c-0.09175,0.03933 -0.19704,-0.00487 -0.29253,-0.0793c-0.07589,0.20323 -0.25884,0.37974 -0.46483,0.44078c-0.01765,0.02151 -0.03618,0.04195 -0.05563,0.06102c0.00744,0.12011 -0.00911,0.23411 -0.09577,0.25106c-0.12601,0.02465 -0.22621,-0.03217 -0.30348,-0.12623c-0.06532,-0.02769 -0.15256,-0.07166 -0.20323,-0.09739c0.11272,0.16056 0.24055,0.31643 0.3115,0.50355c0,0 0.04121,0.10925 -0.06804,0.15046c-0.10925,0.04121 -0.15046,-0.06804 -0.15046,-0.06804c-0.13779,-0.36735 -0.52729,-0.64508 -0.54339,-1.05017c-0.01105,-0.27814 0.15012,-0.87798 0.5165,-0.65404c0.09637,-0.36036 0.28536,-0.70402 0.56974,-0.75969c-0.06823,-0.30826 -0.11239,-0.61616 0.02079,-0.91653c0.18145,-0.19343 0.34927,-0.25787 0.5416,-0.27465c-0.0015,-0.0182 -0.00194,-0.03652 -0.00112,-0.05497c0.00107,-0.02424 0.00397,-0.05057 0.00854,-0.07855c-0.0101,-0.07433 0.03905,-0.19193 0.07979,-0.28015c0.03719,-0.09749 0.08408,-0.19811 0.13683,-0.2917c0.10352,-0.2086 0.22806,-0.41712 0.3922,-0.57287c0.02516,-0.02388 0.35017,-0.25208 0.38618,-0.28112c0.06396,-0.05159 0.11198,-0.12464 0.18418,-0.16388c0.29646,-0.1611 0.55297,-0.07638 0.852,-0.0158c0.01001,0.00203 0.02002,0.00404 0.03003,0.00603c0.05951,-0.28751 0.2071,-0.55478 0.45787,-0.76006c0.2083,-0.07594 0.49849,-0.04735 0.78841,0.052c-0.02343,-0.26581 -0.05745,-0.58733 -0.00248,-0.84563c0.01012,-0.04755 0.12905,-0.28406 0.16002,-0.29245c0.31554,-0.08555 0.85756,0.27029 1.0733,0.4479c0.05474,0.04507 0.11299,0.09229 0.17286,0.14164c0.0706,-0.12914 0.13865,-0.24762 0.1813,-0.34178c0.05045,-0.11141 0.133,-0.3114 0.22012,-0.37881c0.06059,-0.04688 0.1488,-0.03648 0.2232,-0.05472c0.10462,0.04444 0.19185,0.10032 0.26386,0.16536c0.03567,-0.10004 0.08089,-0.19543 0.15311,-0.27639c0.25627,-0.28731 0.82713,-0.1658 1.13361,0.10477c0.04973,-0.141 0.12796,-0.28684 0.25618,-0.31178c0.21576,-0.04198 0.43976,0.13127 0.57401,0.29162c0.42124,0.0708 0.86387,0.28223 1.18927,0.4547c0.15149,-0.13846 0.33516,-0.24752 0.53202,-0.22867c0.01236,-0.0033 0.02448,-0.00581 0.03629,-0.00743c0.14167,-0.01945 0.34677,0.02017 0.54435,0.10161c0.10528,-0.032 0.21669,-0.06207 0.32794,-0.08324c0.3867,-0.26295 0.84857,-0.10651 0.90673,0.33451c0.17485,-0.09316 0.37813,-0.09014 0.60242,0.09652c0.10169,0.08462 0.16451,0.19323 0.19745,0.31612c0.02928,0.01495 0.04973,0.04081 0.05862,0.07031c0.00329,-0.00145 0.0066,-0.0029 0.00992,-0.00432c0.22414,-0.09606 0.73666,-0.00892 0.86227,0.24008c0.00761,0.01508 0.01414,0.03097 0.01972,0.04753c0.02885,-0.00341 0.0576,-0.006 0.08623,-0.00771c0.22504,-0.01346 0.57085,0.02771 0.75344,0.17053c0.08797,0.0688 0.13744,0.17924 0.1525,0.29926c0.08539,-0.03412 0.17361,-0.03763 0.25642,0.01589c0.04251,0.02748 0.03687,0.11539 0.0185,0.20372c0.26236,-0.00295 0.52809,0.09385 0.61326,0.32751c0.02361,0.06476 0.03216,0.13062 0.02984,0.19672c0.29511,-0.05926 0.779,-0.02615 0.85995,0.29098c0.06859,0.26869 -0.03987,0.57761 -0.16366,0.85531c0.1567,0.08067 0.29457,0.20856 0.34857,0.33447c0.08839,0.20612 -0.02754,0.52358 -0.14638,0.69283c-0.01672,0.02381 -0.29565,0.2987 -0.35504,0.30711c-0.18703,0.02649 -0.2822,-0.184 -0.35304,-0.29684c-0.20845,-0.33206 -0.36867,-0.7104 -0.34865,-1.08991c-0.2182,0.06877 -0.48491,0.04753 -0.60711,-0.09118c-0.0378,-0.04291 -0.07069,-0.09906 -0.09895,-0.16394c-0.02622,-0.0121 -0.05292,-0.02444 -0.08025,-0.0369c-0.07126,-0.03249 -0.29522,-0.1062 -0.35539,-0.2199c-0.03287,0.03864 -0.08851,0.05262 -0.13704,0.03068c-0.04567,-0.02065 -0.07161,-0.06704 -0.06842,-0.11427l0.00682,-0.15434l0.04154,0.00183c-0.00209,-0.09588 0.00902,-0.19127 0.03473,-0.28305c-0.41329,0.10715 -0.84903,0.12963 -1.26454,-0.00682c-0.11972,-0.03931 -0.22124,-0.09104 -0.30553,-0.15213c-0.12646,0.15578 -0.28518,0.29334 -0.4156,0.19995c-0.0032,-0.00229 -0.00629,-0.0046 -0.00927,-0.00695l-0.00069,0.00087c-0.03218,0.04252 -0.09054,0.05873 -0.14118,0.03583c-0.03943,-0.01783 -0.06415,-0.05485 -0.06812,-0.09503l-0.00413,-0.03548c-0.00654,0.11903 -0.04604,0.24155 -0.12455,0.34691zM318.93905,168.39641c-0.08031,0.02979 -0.15703,0.0627 -0.22815,0.0995c-0.00162,0.00083 -0.00322,0.00168 -0.00482,0.00251c0.14318,0.01732 0.2877,0.01559 0.43583,0.01451c-0.06919,-0.03469 -0.13683,-0.07332 -0.20287,-0.11652zM311.82281,169.80047c0.03778,-0.07466 0.07404,-0.15019 0.10939,-0.22621c0.0058,-0.01247 0.012,-0.02572 0.01859,-0.03963c-0.01201,0.00958 -0.02413,0.01921 -0.03634,0.02891c-0.03899,0.24258 -0.2925,0.51493 -0.56818,0.56918c0.00929,0.12547 0.00303,0.25512 -0.02219,0.37142c0.14443,-0.25041 0.30895,-0.48029 0.49874,-0.70368zM319.24003,168.30148c0.1142,0.06816 0.22934,0.1368 0.3517,0.16841c0.00287,0.00074 0.00575,0.00149 0.00864,0.00223c-0.00156,-0.01908 0.00156,-0.03882 0.01002,-0.0575c0.0026,-0.00573 0.00559,-0.01116 0.00895,-0.01626l0.10971,-0.17247l0.00165,0.00105l0.00224,-0.00679c0.01087,-0.01333 0.02179,-0.02667 0.03276,-0.04001c-0.16897,0.03532 -0.34985,0.07365 -0.52567,0.12134zM320.84004,168.65883c0.28967,-0.00141 0.52183,-0.00113 0.62252,-0.32343c0.01802,-0.05768 -0.00557,-0.16714 -0.05057,-0.24983c-0.06261,0.06596 -0.13235,0.12434 -0.21259,0.17472l0.02672,0.04605l-0.20064,0.11644c-0.03171,0.01893 -0.07187,0.02255 -0.10808,0.00618c-0.05758,-0.02604 -0.0838,-0.093 -0.05981,-0.15097c0.00055,-0.01467 0.00389,-0.02948 0.01032,-0.04368l0.02351,-0.052c-0.02221,-0.00131 -0.04396,-0.00374 -0.06537,-0.00701c-0.01597,0.00203 -0.03194,0.00375 -0.04792,0.00517c-0.08762,0.00778 -0.18197,-0.00132 -0.26999,-0.02591c-0.0097,0.00747 -0.01947,0.01487 -0.0293,0.02217c-0.01641,0.03357 -0.03619,0.06642 -0.06019,0.09839c-0.09444,0.12581 -0.22298,0.22437 -0.36738,0.29811c0.26706,0.05082 0.54623,0.08678 0.78876,0.0856zM313.18941,168.98386c-0.07298,0.01273 -0.14767,0.01801 -0.2242,0.02381c0.01989,0.03125 0.04101,0.06287 0.06328,0.0939c0.05443,-0.03841 0.10688,-0.07838 0.16092,-0.11771zM312.74906,169.26023c0.0282,-0.01157 0.05515,-0.02397 0.0811,-0.03705c-0.02233,-0.02909 -0.04289,-0.0571 -0.06146,-0.08292c-0.01621,-0.02254 -0.03189,-0.04544 -0.04703,-0.06868c-0.04339,0.05975 -0.07676,0.11099 -0.11516,0.15217c-0.00661,0.02813 -0.00665,0.05851 0.00109,0.08569c0.04881,-0.01489 0.0964,-0.03072 0.14146,-0.04921zM321.8333,167.68704c-0.08347,0.06961 -0.1709,0.13473 -0.26124,0.19346c-0.00399,0.0061 -0.008,0.01216 -0.01205,0.01818c0.05121,0.05893 0.08769,0.13506 0.10679,0.21922c0.01263,-0.08989 0.12453,-0.33691 0.1665,-0.43086zM317.87224,168.07809c-0.07753,-0.02158 -0.15902,-0.04503 -0.23915,-0.07368c-0.0822,0.04587 -0.17069,0.08548 -0.2623,0.11779c0.17041,0.05275 0.3302,0.12855 0.49694,0.20653c-0.02257,-0.0824 -0.01883,-0.16725 0.0045,-0.25064zM324.22835,168.24451c-0.00091,0.00034 -0.00181,0.00068 -0.00272,0.00101c-0.00022,0.0013 -0.00044,0.0026 -0.00066,0.00389c0.00113,-0.00164 0.00226,-0.00328 0.00339,-0.00491zM314.33173,167.83718c0.00442,0.00812 0.00886,0.01604 0.01334,0.02367c0.02305,-0.01428 0.0464,-0.0285 0.07009,-0.0427c-0.00138,-0.00208 -0.00278,-0.00416 -0.00418,-0.00625c-0.00046,-0.0007 -0.00093,-0.00138 -0.00141,-0.00207c-0.02626,0.00859 -0.05224,0.0177 -0.07784,0.02734zM314.77404,168.48864c0.26847,0.08724 0.52691,0.19021 0.81308,0.08979c0.1877,-0.06587 0.42125,-0.2252 0.61812,-0.42735c-0.08413,-0.01701 -0.16839,-0.03282 -0.2531,-0.04552c-0.00885,0.0772 -0.01907,0.15272 -0.02668,0.22328c-0.09945,0.00471 -0.20791,0.05576 -0.29835,0.01412c-0.01661,-0.00765 -0.03108,-0.01796 -0.04402,-0.03017c-0.12238,0.00079 -0.24061,-0.08696 -0.3457,-0.20959c-0.15066,0.01874 -0.30105,0.0436 -0.44823,0.06166c-0.00477,0.06396 -0.02221,0.17944 -0.05071,0.29409c0.01132,0.00993 0.02317,0.01983 0.03558,0.0297zM316.79616,167.0976c0.00093,0.00114 0.00185,0.00229 0.00275,0.00344c-0.0014,-0.04441 -0.00061,-0.08967 0.00221,-0.13538c-0.17306,-0.01229 -0.34889,-0.02083 -0.52301,-0.01671c-0.01069,0.08708 -0.02654,0.17453 -0.04618,0.26094c0.14791,-0.21576 0.35158,-0.37317 0.56424,-0.1123zM316.62246,167.96642c0.00645,0.00129 0.01209,0.00244 0.0168,0.00344c0.05408,0.013 0.11234,0.01978 0.17308,0.02099c-0.08287,-0.06827 -0.00091,-0.26313 0.13389,-0.4027c-0.04434,-0.05859 -0.07778,-0.12664 -0.10155,-0.20124c-0.03077,0.20672 -0.14587,0.44743 -0.22221,0.57951zM317.36517,167.87667c-0.01988,-0.01298 -0.03914,-0.0267 -0.05765,-0.04125c-0.04578,0.04351 -0.09283,0.0785 -0.13927,0.10024c-0.01421,0.00665 -0.02797,0.01284 -0.04129,0.01859c0.08099,-0.01929 0.16151,-0.04559 0.23821,-0.07758zM317.89851,167.81182c-0.0086,0.00822 -0.01738,0.01634 -0.02635,0.02437c0.02372,0.0065 0.04673,0.01264 0.06865,0.01858c0.01113,0.00305 0.02237,0.00625 0.03369,0.00954c0.10719,-0.15872 0.27129,-0.29715 0.4353,-0.38217c-0.0121,-0.00912 -0.02389,-0.01964 -0.03532,-0.03164c-0.0834,-0.08765 0.07811,-0.2776 0.17224,-0.37798c-0.04721,0.00788 -0.09466,0.01704 -0.14048,0.0185c-0.09713,0.0031 -0.1866,0.01261 -0.27042,0.02842c0.08211,0.24316 -0.0345,0.49837 -0.23731,0.69238zM320.23285,167.5606c0.00371,-0.006 0.00762,-0.01182 0.01171,-0.0175l-0.001,-0.00072l0.11439,-0.15953c0.03142,-0.04569 0.09196,-0.06376 0.14426,-0.04011c0.00619,0.0028 0.01202,0.00608 0.01747,0.00976c0.053,-0.07993 0.10391,-0.16376 0.1542,-0.25293c0.03438,-0.13169 0.10806,-0.25652 0.11232,-0.39255c0.00284,-0.09068 -0.08025,-0.18077 -0.1694,-0.24812c-0.21086,0.32674 -0.27562,0.7465 -0.39589,1.12176c0.00379,-0.00663 0.00777,-0.01332 0.01194,-0.02005zM320.96537,167.90796c0.00089,-0.00032 0.00176,-0.00063 0.00265,-0.00094c-0.0019,-0.00074 -0.00379,-0.00154 -0.00567,-0.00239c-0.04247,-0.0192 -0.06788,-0.06068 -0.06867,-0.10438l-0.00085,-0.02176c-0.04306,0.05206 -0.08765,0.10228 -0.13395,0.15042c0.01451,0.00412 0.02899,0.00832 0.04339,0.01256c0.06947,-0.00825 0.12983,-0.02172 0.16311,-0.03351zM322.20515,166.93884l-0.01714,-0.01229l0.05499,-0.07668c-0.01802,-0.103 -0.06137,-0.1921 -0.13868,-0.25763c-0.17655,-0.14966 -0.33158,-0.11424 -0.45995,-0.00046c-0.01114,0.08024 -0.02855,0.16087 -0.05042,0.24115c0.12841,-0.0324 0.25376,-0.02814 0.33078,0.08433c0.08225,0.12011 0.00669,0.29241 -0.06543,0.42941c0.1308,-0.1253 0.24779,-0.26284 0.34586,-0.40783zM322.52324,168.01617c0.10932,0.06431 0.22472,0.10986 0.34385,0.13971l0.05963,-0.13187l0.04148,0.01876c0.03813,-0.08415 0.08847,-0.16737 0.14796,-0.24375c0.05177,-0.13988 0.098,-0.29345 0.10155,-0.43455c-0.20707,0.06608 -0.40627,0.16807 -0.56752,0.26979c-0.03689,0.10923 -0.10592,0.2264 -0.12628,0.26814c-0.01237,0.01791 -0.03062,0.04648 -0.05347,0.08123c0.01776,0.01149 0.03546,0.02233 0.0528,0.03254zM324.22731,168.78143c-0.0151,0.05502 0.06124,0.06404 0.13671,0.07444c-0.02269,-0.10436 -0.03806,-0.21415 -0.04677,-0.31915c-0.03593,0.08114 -0.06737,0.1625 -0.08993,0.24471zM324.75016,169.01128c0.00847,-0.01058 0.01774,-0.01846 0.02734,-0.02426l0.02542,-0.13993l0.03814,0.00692c0.02117,-0.18116 0.08343,-0.35669 0.22902,-0.46519c0.01716,-0.0687 0.0217,-0.13403 0.00456,-0.19045c-0.04779,-0.15733 -0.24482,-0.21285 -0.43257,-0.20294l-0.0582,0.0915c-0.04827,0.25233 -0.05071,0.6086 0.04143,0.86674c0.04193,0.02 0.08334,0.0395 0.12486,0.05761zM325.09914,169.07971c0.01752,0.0081 0.03349,0.01485 0.04812,0.02071c0.02355,-0.01233 0.04657,-0.02421 0.06875,-0.03467c0.01012,-0.02912 0.02154,-0.05817 0.03432,-0.08713l0.04811,-0.10639c0.02657,-0.05876 0.09575,-0.08486 0.15451,-0.05829c0.0523,0.02365 0.07872,0.08105 0.06517,0.13482l-0.03305,0.14292l-0.00244,-0.00057c0.03248,0.0334 0.04304,0.08454 0.02267,0.12956l-0.04811,0.10639l-0.04442,-0.02009c-0.00822,0.01509 -0.01666,0.02797 -0.02551,0.03883c-0.01337,0.12549 0.00135,0.24999 0.03345,0.37324c0.00214,-0.02183 0.00393,-0.04216 0.00494,-0.06023c0.02104,-0.04848 0.11158,-0.27334 0.15383,-0.28814c0.05142,-0.01802 0.10868,-0.02287 0.16828,-0.01721c0.06614,-0.13139 0.13155,-0.26084 0.16575,-0.38079c0.02185,-0.07664 0.09618,-0.31356 0.01657,-0.40125c-0.04469,-0.04923 -0.12762,-0.04191 -0.19394,-0.04665c-0.13735,-0.00981 -0.27886,-0.03101 -0.41309,-0.00032c-0.02458,0.00562 -0.04721,0.01576 -0.06831,0.02938c-0.05578,0.15228 -0.14017,0.29992 -0.20008,0.43242l-0.02754,0.06089zM318.24075,167.94183c0.15073,0.03725 0.30558,0.05371 0.44771,-0.01014c0.02442,-0.01097 0.12034,-0.10702 0.17954,-0.19419c0.00098,-0.01417 0.00253,-0.02823 0.00447,-0.04196c-0.02417,0.02797 -0.04845,0.05507 -0.0727,0.08118l-0.00808,0.00317l0.00185,0.00227l-0.09935,0.08074c-0.03333,0.02828 -0.08124,0.03659 -0.12372,0.01738c-0.0529,-0.02392 -0.07933,-0.08237 -0.06468,-0.13667l0.01918,-0.07677c-0.11623,0.0681 -0.21625,0.17064 -0.28422,0.27499zM317.60812,167.7468c0.0476,-0.03232 0.09092,-0.06697 0.12856,-0.10336c0.07594,-0.07344 0.14525,-0.16137 0.17763,-0.25437c-0.01524,0.01892 -0.03037,0.03648 -0.04528,0.05253c-0.04271,0.04601 -0.07892,0.079 -0.11286,0.10349c-0.00624,0.00605 -0.01248,0.01205 -0.01874,0.018c-0.06722,0.03534 -0.1456,0.08782 -0.22866,0.13118c0.03125,0.01961 0.06472,0.03698 0.09934,0.05254zM316.40361,167.91299c0.15593,-0.22284 0.24713,-0.469 0.19528,-0.69041c-0.01329,-0.05677 -0.41884,0.42726 -0.40606,0.53898c0.00789,0.069 0.10657,0.11794 0.21078,0.15143zM313.43969,168.47673c-0.18234,-0.00141 -0.34849,0.16673 -0.47863,0.2653c-0.02646,0.01948 -0.05105,0.03937 -0.07404,0.05982c0.20168,-0.00925 0.3934,-0.02365 0.55269,-0.20967c-0.00687,-0.03698 -0.00613,-0.07597 -0.00002,-0.11545zM309.66435,171.7793c0.02668,-0.03068 0.07918,-0.09347 0.13782,-0.1575c-0.05128,-0.003 -0.1037,0.00065 -0.15328,0.00955c-0.03343,0.0697 -0.06743,0.14794 -0.09372,0.22589c0.01281,0.02621 0.02511,0.05275 0.03704,0.07942c0.00108,-0.00305 0.00231,-0.00608 0.00366,-0.00907l0.06014,-0.13299l0.00588,0.00266zM309.82693,172.09932c0.01395,-0.02824 0.02578,-0.05743 0.03698,-0.08689l-0.09828,0.06135c-0.03211,0.0207 -0.0737,0.02524 -0.11112,0.00847c0.02765,0.06606 0.05446,0.13 0.08257,0.18794c0.02896,-0.04865 0.05783,-0.10602 0.08985,-0.17086zM310.83697,170.16168c0.02403,0.03275 0.02478,0.07276 0.02478,0.07276l0.00126,0.09092c-0.0082,0.11164 -0.02681,0.22446 -0.05493,0.33633c0.01631,0.00254 0.0324,0.00461 0.04817,0.00608c0.02534,-0.01934 0.06305,-0.03198 0.11426,-0.00882c0.00322,0.00146 0.00631,0.00297 0.00925,0.00453c0.07437,-0.01785 0.08136,-0.17326 0.09104,-0.2194c0.01938,-0.09239 0.03675,-0.19983 0.03771,-0.30686c-0.07551,0.00033 -0.15281,0.00118 -0.20971,-0.03538c-0.02105,0.01951 -0.04166,0.03946 -0.06182,0.05985zM310.2813,171.62873c0.01677,0.02606 0.03109,0.05444 0.04256,0.08523c0.01042,0.02797 0.01794,0.05641 0.02275,0.08508c0.05436,0.06951 0.11859,0.12578 0.17946,0.1382c0.0608,0.01241 -0.01086,-0.12395 -0.00836,-0.18595c0.00589,-0.14637 -0.01634,-0.23035 -0.07207,-0.31993c-0.05092,0.06942 -0.10582,0.1355 -0.16435,0.19737zM323.88104,168.03907c0.0044,-0.00974 0.00997,-0.01857 0.01647,-0.02642l0.07755,-0.09795c0.00953,-0.01187 0.02026,-0.02519 0.03208,-0.03957c-0.02622,-0.23862 -0.4905,-0.14157 -0.65522,-0.05607c-0.03986,0.12979 -0.09462,0.25065 -0.15866,0.38145c0.22638,0.00786 0.45803,-0.02751 0.68034,-0.08725c-0.00553,-0.02402 -0.00351,-0.04998 0.00743,-0.07418zM321.37899,167.69793c0.07443,-0.10297 0.14598,-0.20711 0.19827,-0.3171c0.05251,-0.11046 0.16983,-0.21192 0.15371,-0.33316c-0.00909,-0.06837 -0.13207,0.04 -0.1971,0.06298c-0.01208,0.00427 -0.0242,0.00844 -0.03636,0.01255c-0.05703,0.14873 -0.1222,0.29305 -0.18317,0.42801c-0.03668,0.07859 -0.07336,0.15717 -0.11004,0.23576c0.01996,-0.00462 0.03943,-0.00773 0.05839,-0.00943c0.02165,-0.01135 0.04317,-0.02303 0.06456,-0.03507c0.01703,-0.01501 0.03429,-0.02987 0.05173,-0.04455zM309.56595,171.28783c0.07671,-0.10719 0.14439,-0.20375 0.21692,-0.28944c-0.09274,0.05477 -0.16578,0.16497 -0.2214,0.2976c0.0015,-0.00272 0.00298,-0.00544 0.00448,-0.00815zM310.22267,171.3458c-0.02387,-0.02391 -0.04223,-0.05418 -0.05618,-0.08758c0.00612,0.04431 0.01263,0.08853 0.01996,0.13256c0.01245,-0.01471 0.02457,-0.02969 0.03623,-0.04498zM309.77934,171.3902c0.06151,0.00142 0.12283,0.00925 0.18129,0.02412c-0.00788,-0.06384 -0.01452,-0.12815 -0.025,-0.19232c-0.00208,-0.01272 -0.00426,-0.02546 -0.00653,-0.0382c-0.05647,0.07328 -0.10666,0.14577 -0.14976,0.2064zM310.86491,169.81068c-0.0141,0.01608 -0.02799,0.03231 -0.04168,0.04862c0.01756,-0.01482 0.03518,-0.02929 0.05281,-0.0434c-0.00371,-0.00174 -0.00742,-0.00348 -0.01113,-0.00522zM310.48805,170.82202c-0.00021,-0.0005 -0.00042,-0.00099 -0.00062,-0.00148c-0.02158,-0.00572 -0.0426,-0.01121 -0.0629,-0.01626c-0.01873,0.04607 -0.03599,0.09157 -0.04798,0.12858c0.02279,0.01941 0.03951,0.03606 0.05349,0.05299c0.02316,-0.04802 0.04522,-0.09711 0.06569,-0.1468c-0.00281,-0.00587 -0.00537,-0.01156 -0.00768,-0.01702zM310.13203,170.60018c0.00808,-0.01787 0.02011,-0.03272 0.03458,-0.04398l0.09948,-0.08086l0.01885,0.02319c0.04063,-0.07437 0.08748,-0.14678 0.13886,-0.21646c-0.00573,-0.00159 -0.0114,-0.00364 -0.01698,-0.00616c-0.05876,-0.02657 -0.08486,-0.09575 -0.05829,-0.15451c0.00228,-0.00504 0.00487,-0.00985 0.00775,-0.0144l0.07316,-0.11958l0.0012,0.00073l0.0015,-0.00495c0.02449,-0.03321 0.04936,-0.06638 0.07469,-0.09935c-0.01853,-0.04211 -0.03795,-0.08448 -0.05553,-0.12727c-0.14588,0.00418 -0.27929,0.04238 -0.40699,0.1837c-0.11625,0.24878 -0.02373,0.5275 0.03646,0.77962c0.00154,0.00645 0.00305,0.0129 0.00453,0.01936c0.01741,-0.01001 0.03542,-0.01969 0.0541,-0.02906c-0.01997,-0.032 -0.02409,-0.07307 -0.00738,-0.11003zM309.10105,171.64275c-0.10652,0.06008 -0.1286,0.5049 -0.09808,0.60557c0.02107,0.0695 0.05142,0.13478 0.08723,0.19773c-0.1058,-0.26309 -0.10256,-0.55645 0.0694,-0.78004c-0.01627,-0.02406 -0.0348,-0.03665 -0.05855,-0.02326zM311.33844,169.18356c0.01488,-0.00058 0.0298,-0.00173 0.04474,-0.00313c-0.08438,-0.04799 -0.10666,-0.11069 -0.12482,-0.28413c0.03802,-0.08898 0.0629,-0.20979 0.09898,-0.32106c-0.1069,0.02346 -0.22769,0.03904 -0.30921,0.08227c-0.0743,0.0394 -0.15459,0.14583 -0.22518,0.27293c-0.0003,0.0006 -0.00061,0.00119 -0.00092,0.00179c-0.01228,0.02399 -0.02473,0.0474 -0.03699,0.07024c-0.05399,0.10812 -0.09968,0.22424 -0.12862,0.32351c-0.00088,0.07822 0.04104,0.14619 0.15867,0.20524c0.1524,-0.14759 0.32368,-0.27165 0.52336,-0.34767zM312.08871,168.74608c0.08569,-0.08353 0.20883,-0.1507 0.30303,-0.19751c-0.00384,-0.03158 -0.00925,-0.06203 -0.01629,-0.09074c-0.07777,-0.01206 -0.18461,0.01173 -0.26044,-0.00536c-0.04841,-0.01091 -0.09171,-0.01797 -0.13064,-0.02146c-0.08811,0.02724 -0.17344,0.04586 -0.25913,0.06265c-0.10184,0.08646 -0.14205,0.25116 -0.23768,0.44739c-0.00415,0.01407 0.04401,0.04781 0.11832,0.08666c0.15394,-0.11227 0.3197,-0.20702 0.48283,-0.28163zM314.837,167.27539c0.00576,-0.1682 0.0848,-0.36297 0.17832,-0.54923c-0.32671,-0.28518 -0.71195,-0.51264 -1.0514,-0.55778c-0.08198,-0.01091 -0.03127,0.16328 -0.03245,0.24597c-0.00325,0.22728 -0.01099,0.44741 0.00707,0.67418c0.01352,0.04091 0.02734,0.08158 0.04142,0.12207c0.18394,0.0921 0.35661,0.20984 0.49508,0.34379c0.06411,-0.01776 0.12895,-0.03319 0.19388,-0.04667c0.04722,-0.08232 0.10709,-0.16245 0.16808,-0.23234zM313.37721,169.38999c0.05371,0.01186 0.06658,-0.08886 0.08829,-0.1394c0.02356,-0.05485 0.05093,-0.11388 0.07833,-0.17511c-0.08596,0.10048 -0.17709,0.19262 -0.27114,0.27164c0.03371,0.02009 0.0686,0.03493 0.10452,0.04286zM312.00453,169.05895c-0.04672,0.0254 -0.09263,0.05248 -0.1376,0.08118c0.05265,0.01856 0.10563,0.03472 0.15518,0.04638c0.00976,-0.00875 0.01946,-0.01766 0.02909,-0.02679c-0.01964,-0.03218 -0.03553,-0.06645 -0.04667,-0.10076zM311.52555,169.40621c-0.05998,0.05659 -0.11693,0.11644 -0.17037,0.17925c-0.0317,0.03725 -0.0558,0.08081 -0.07784,0.12603c0.0264,0.00125 0.05295,-0.00041 0.07961,-0.00574c0.11304,-0.02265 0.22808,-0.17731 0.30094,-0.23614c0.00966,-0.0078 0.01931,-0.01547 0.02894,-0.02302c-0.00401,-0.00591 -0.00879,-0.01144 -0.01439,-0.01658c-0.0211,-0.01936 -0.0845,-0.02409 -0.1469,-0.0238zM312.2453,168.93007c-0.00087,0.00218 -0.00168,0.0044 -0.00244,0.00668c0.00215,-0.00283 0.00429,-0.00568 0.00646,-0.00856c-0.00134,0.00062 -0.00268,0.00125 -0.00402,0.00188zM317.47087,167.04352c-0.00603,0.02493 -0.01273,0.04974 -0.02006,0.07459c0.00326,0.01262 0.00653,0.02523 0.00978,0.03784c0.00242,-0.00163 0.00485,-0.00326 0.00727,-0.00489c0.02187,-0.02579 0.04548,-0.0515 0.03346,-0.07822c-0.00498,-0.01106 -0.01555,-0.02077 -0.03045,-0.02933zM320.83207,166.20985c-0.02212,0.01895 -0.04319,0.03857 -0.0633,0.05882c0.14326,0.11527 0.24356,0.25555 0.24898,0.40817c0.00125,0.03519 -0.07533,0.3191 -0.11103,0.45018c0.06576,-0.03768 0.13329,-0.07228 0.20268,-0.10334c0.05886,-0.13787 0.1377,-0.28848 0.23374,-0.41945c0.04462,-0.09631 0.07003,-0.19364 0.02946,-0.26071c-0.10206,-0.16872 -0.34538,-0.16403 -0.54054,-0.13367zM320.86536,167.42568c-0.08587,0.05972 -0.1685,0.12452 -0.24828,0.19311c-0.01453,0.01985 -0.02925,0.0395 -0.04417,0.05898c-0.00304,0.03614 -0.0056,0.07221 -0.00844,0.10809c0.11276,-0.11401 0.21082,-0.23254 0.30089,-0.36017zM320.17654,168.11167c0.00394,-0.0024 0.00788,-0.00482 0.01182,-0.00728c0.00188,-0.003 0.00376,-0.00602 0.00561,-0.00905c-0.00578,0.00545 -0.01159,0.01089 -0.01744,0.01633zM323.43075,167.31089c-0.00131,0.07781 -0.01029,0.15582 -0.01934,0.22391c0.22405,-0.12912 0.48717,-0.13684 0.71989,0.11139c0.00719,0.00768 0.01399,0.01568 0.02043,0.024c0.03244,-0.0884 0.03988,-0.17262 -0.05929,-0.24502c-0.18754,-0.13691 -0.42305,-0.15704 -0.66168,-0.11427zM325.5827,170.13639c0.00332,0.0069 0.00665,0.01381 0.01001,0.0207c0.03238,0.06661 0.07127,0.12989 0.10921,0.1935c0.03798,0.06367 0.05954,0.23289 0.11865,0.18813c0.14874,-0.11263 0.42267,-0.46636 0.32157,-0.67834c-0.03387,-0.07102 -0.12899,-0.15694 -0.23038,-0.21585c-0.01958,0.04158 -0.03844,0.08184 -0.05593,0.1205c-0.02548,0.05634 -0.13024,0.29184 -0.14679,0.30305c-0.04943,0.03348 -0.09117,0.05561 -0.12634,0.0683zM319.13939,166.3739c-0.24229,-0.08174 -0.5339,-0.23535 -0.82585,-0.33465c0.01517,0.054 0.02353,0.11217 0.02606,0.17314c0.04173,0.22312 0.00013,0.44569 -0.09155,0.65507c0.04867,-0.00497 0.09891,-0.00827 0.1509,-0.00986c0.09229,-0.00283 0.23566,-0.0169 0.36065,0.00322c0.02928,-0.02499 0.0594,-0.04905 0.09024,-0.07224c0.068,-0.11918 0.14769,-0.23595 0.23896,-0.35228c0.016,-0.02039 0.03288,-0.04129 0.05059,-0.0624zM317.71807,166.98582c0.00308,0.00668 0.00554,0.01344 0.00742,0.0203c0.00818,-0.00373 0.0164,-0.00739 0.02465,-0.01099c-0.01288,-0.0083 -0.02564,-0.01555 -0.03826,-0.02182c0.00216,0.00409 0.00423,0.00826 0.00619,0.01251zM318.12236,166.34597c-0.01412,-0.12357 -0.05342,-0.25574 -0.11675,-0.36939c-0.00642,-0.00676 -0.01301,-0.01334 -0.01978,-0.01973c-0.18258,-0.02587 -0.35772,-0.01 -0.51257,0.08073c0.06651,0.20345 0.03639,0.46533 0.03722,0.66478c0,0.00332 -0.00001,0.00664 -0.00003,0.00994c0.1369,-0.0301 0.29127,0.00589 0.44117,0.14065c0.08132,-0.18003 0.14799,-0.37203 0.17075,-0.50697zM315.92224,166.18058c-0.05329,-0.06906 -0.12254,-0.12891 -0.2107,-0.17654c-0.14869,0.02744 -0.24833,0.38752 -0.30379,0.51014c-0.02696,0.05963 -0.06396,0.1266 -0.10389,0.1972c0.02101,0.01849 0.04196,0.03723 0.0628,0.05622c0.05414,0.01585 0.10934,0.03967 0.16268,0.06718c0.07906,-0.02602 0.15953,-0.04691 0.24111,-0.06346c0.03218,-0.1857 0.07867,-0.36898 0.13781,-0.54719c0.00479,-0.01443 0.00943,-0.02897 0.01399,-0.04357zM316.1622,166.14165c0.09512,0.16798 0.13226,0.36681 0.13128,0.57555c0.17835,-0.00391 0.35868,0.00409 0.53809,0.01664c0.05719,-0.28861 0.18267,-0.56871 0.33513,-0.74296c0.00206,-0.00485 0.00416,-0.00966 0.00629,-0.01443c-0.21321,-0.24365 -0.76252,-0.38926 -0.91596,-0.06542c-0.03463,0.07307 -0.0662,0.15051 -0.09483,0.23063zM319.90334,166.50014c-0.1596,0.06759 -0.33021,0.13445 -0.49355,0.21019c-0.02889,0.12934 -0.07608,0.2578 -0.13552,0.38186c-0.03148,0.12263 -0.05922,0.24276 -0.09032,0.34599c-0.01368,0.04542 -0.02787,0.0907 -0.04164,0.1361c0.00495,0.02337 0.00665,0.0474 0.00553,0.07176c0.03878,-0.0275 0.07739,-0.04707 0.07968,-0.04869c0.33548,-0.23675 0.52421,-0.53035 0.63174,-0.9275c0.0077,-0.02841 0.02829,-0.09475 0.04408,-0.16969zM315.05592,167.84205c-0.01326,-0.02271 -0.02607,-0.04544 -0.03839,-0.06799c-0.04809,0.00224 -0.12165,0.03713 -0.18673,0.07298c0.04952,0.02235 0.18198,0.02621 0.22511,-0.00499zM316.0527,166.96221c-0.02786,0.00272 -0.05563,0.00588 -0.08329,0.00951c-0.00675,0.06016 -0.00743,0.12303 -0.00581,0.18705c0.01286,0.01484 0.02541,0.02992 0.03783,0.04521c0.02088,-0.07964 0.03854,-0.16081 0.05128,-0.24177zM317.63954,167.3296c0.00705,-0.00459 0.014,-0.00927 0.02075,-0.01412c0.00965,-0.00959 0.01927,-0.01922 0.02885,-0.02891c-0.0144,0.00839 -0.02872,0.01703 -0.04299,0.02594c-0.00211,0.00562 -0.00431,0.01132 -0.0066,0.01709zM318.98599,166.99615c0.01671,0.03938 0.01779,0.08613 0.00678,0.13535c0.00709,-0.01201 0.01409,-0.0241 0.02099,-0.03624c0.01817,-0.06771 0.03772,-0.1357 0.05903,-0.20244c-0.01729,0.01131 -0.03429,0.02285 -0.05096,0.03464c-0.01245,0.02301 -0.02441,0.04595 -0.03584,0.06869zM322.37279,167.53143c0.009,-0.00708 0.01808,-0.0141 0.02721,-0.02107c-0.00575,-0.00199 -0.0119,-0.00365 -0.01837,-0.00498c-0.0029,0.0087 -0.00584,0.01738 -0.00884,0.02604zM322.5971,167.37561c0.17933,-0.10957 0.37476,-0.1958 0.57183,-0.24778c-0.1292,-0.23838 -0.47597,-0.15203 -0.69582,-0.02438c-0.00675,0.06318 -0.01782,0.1274 -0.03239,0.1918c0.05879,0.0154 0.11277,0.04112 0.15638,0.08036zM316.0064,166.73516c0.02256,-0.00243 0.04519,-0.0046 0.06786,-0.00653c0.00157,-0.07973 -0.00358,-0.15754 -0.0172,-0.23166c-0.01932,0.0796 -0.03617,0.15947 -0.05066,0.23819zM319.63849,166.36324c0.09097,-0.03994 0.18165,-0.07916 0.2704,-0.11921c-0.00196,-0.00494 -0.00413,-0.00966 -0.00655,-0.01413c-0.09064,0.01519 -0.17772,0.0568 -0.26385,0.13334zM313.92257,167.79015c-0.04176,-0.12783 -0.08345,-0.25567 -0.12499,-0.38358c-0.2511,-0.1381 -0.54658,-0.24753 -0.76311,-0.16076c-0.19248,0.1572 -0.30444,0.37022 -0.34996,0.60017c0.32557,0.05889 0.65237,0.10989 0.97192,0.19284c0.0763,-0.09545 0.1671,-0.17568 0.26788,-0.24333c-0.00058,-0.00179 -0.00117,-0.00357 -0.00174,-0.00534zM312.42939,168.1356c-0.00054,-0.03332 -0.00006,-0.06658 0.0015,-0.09973c-0.01691,-0.00334 -0.03381,-0.00672 -0.0507,-0.01016c-0.23704,-0.04823 -0.45183,-0.14118 -0.68936,-0.00797c-0.15696,0.08802 -0.30997,0.2078 -0.44767,0.34533c0.05653,-0.01216 0.11071,-0.02498 0.1559,-0.04202c0.05387,-0.01203 0.11232,-0.02928 0.17336,-0.04905c0.07211,-0.04548 0.14866,-0.06866 0.22749,-0.07725c0.1636,-0.0555 0.32855,-0.10602 0.46228,-0.10683c0.06525,-0.00039 0.1207,0.01685 0.1672,0.04767zM312.6606,168.07885c-0.00143,0.11203 0.01095,0.22497 0.03566,0.33469c0.20982,-0.08216 0.42931,-0.14852 0.64797,-0.20834c-0.22636,-0.0481 -0.45529,-0.08545 -0.68363,-0.12636zM314.53683,168.20363c0.00009,-0.00287 0.00015,-0.00572 0.00019,-0.00858c-0.00154,0.00021 -0.00308,0.00043 -0.00464,0.00065c0.00147,0.00265 0.00296,0.00528 0.00445,0.00793zM315.28837,167.27085c0.06902,0.21032 0.16965,0.39135 0.27763,0.57305c0.04373,-0.00092 0.08732,-0.00064 0.13072,0.00114c0.00081,-0.12819 0.00268,-0.26286 -0.04229,-0.34884c-0.06097,-0.11658 -0.145,-0.24061 -0.24557,-0.36432c-0.04915,0.02383 -0.09734,0.0505 -0.14443,0.08029c0.00886,0.01925 0.01737,0.03865 0.02394,0.05867zM315.21871,166.96958c0.00461,-0.00254 0.00923,-0.00507 0.01385,-0.00756c-0.00598,-0.00035 -0.01051,0.00247 -0.01385,0.00756z" fill="#8a8a8a" stroke="none" stroke-linecap="butt"/></g><path d="M325.73672,171.3924c0,0 1.16393,3.57512 1.24984,5.79807c0.09151,2.36789 0.07304,6.38423 -2.31651,6.53526c-0.72026,0.04552 -4.14662,-0.91594 -5.37696,-5.80672c-1.42079,-5.64787 1.17696,-8.59328 1.17696,-8.59328c0,0 1.10555,-1.08168 2.01359,-0.84108c2.81438,0.74572 3.25307,2.90775 3.25307,2.90775z" fill="none" stroke="#8a8a8a" stroke-width="1" stroke-linecap="round"/><path d="M330.72166,183.51949c0,0 -1.09663,0.83114 -2.02286,0.95544c-1.56926,0.2106 -2.22168,-1.40792 -2.22168,-1.40792" fill="none" stroke="#8a8a8a" stroke-width="1" stroke-linecap="round"/><path d="M319.95089,187.94278c-0.54244,0.47212 -1.44956,1.68295 -1.44956,1.68295c0,0 -3.37684,-2.00048 -4.22638,-3.66769c-0.81576,-1.60093 -0.77362,-6.14481 -0.77362,-6.14481c0,0 2.97438,3.27188 4.44408,4.47835c1.30146,1.06837 3.93092,2.39665 3.93092,2.39665c0,0 -1.3454,0.7497 -1.92544,1.25455z" fill="none" stroke="#8a8a8a" stroke-width="1" stroke-linecap="round"/><path d="M316.43881,187.56323l1.6875,-2.5" fill="none" stroke="#8a8a8a" stroke-width="1" stroke-linecap="round"/><path d="M314.56381,185.06323l1.1875,-2.375" fill="none" stroke="#8a8a8a" stroke-width="1" stroke-linecap="round"/><path d="M326.06005,177.47067c0.18906,2.80684 -0.39753,5.13207 -1.31018,5.19355c-0.91266,0.06148 -1.80577,-2.16408 -1.99483,-4.97092c-0.18906,-2.80684 0.39753,-5.13207 1.31018,-5.19355c0.91266,-0.06148 1.80577,2.16409 1.99483,4.97092z" fill="#8a8a8a" stroke="#8a8a8a" stroke-width="1" stroke-linecap="butt"/><path d="M324.29248,186.12615l4.0552,1.24915" fill="none" stroke="#8a8a8a" stroke-width="1" stroke-linecap="round"/><path d="M331.2101,178.32067c0.18906,2.80684 -0.39753,5.13207 -1.31018,5.19355c-0.91266,0.06148 -1.80577,-2.16408 -1.99483,-4.97092c-0.18906,-2.80684 0.39753,-5.13207 1.31018,-5.19355c0.91266,-0.06148 1.80577,2.16409 1.99483,4.97092z" fill="#8a8a8a" stroke="none" stroke-width="0" stroke-linecap="butt"/><g fill="none" stroke="#8a8a8a" stroke-width="0.5" stroke-linecap="round"><path d="M311.20402,177.72335c0,0 -1.30232,-0.03865 -1.26687,-2.38075c0.01378,-0.90992 0.90992,-2.90073 0.90992,-2.90073c0,0 0.64034,-1.11281 1.09483,-1.5573c1.33061,-1.30133 2.44911,-0.14583 2.44911,-0.14583c0,0 0.63407,0.59754 0.85798,0.92125c0.18598,0.26889 0.39293,0.88725 0.39293,0.88725"/><path d="M312.39637,172.35448c0,0 0.45435,-0.80947 0.77158,-0.69313c1.16565,0.42746 0.78725,1.48837 0.78725,1.48837c0,0 -0.03636,0.88313 -0.48281,1.76959c-0.31391,0.6233 -0.77733,1.68377 -0.77733,1.68377c0,0 -0.43942,0.33715 -0.84157,-0.00056c-0.1447,-0.12151 0.58364,-1.05059 0.58364,-1.05059"/></g><path d="M311.93809,179.68698c0,0 0.79867,-0.86453 1.23446,-1.05709c0.3318,-0.14661 1.15442,0.00153 1.15442,0.00153" fill="none" stroke="#8a8a8a" stroke-width="1" stroke-linecap="round"/></g></g></g></svg>