<svg version="1.1" xmlns="http://www.w3.org/2000/svg" xmlns:xlink="http://www.w3.org/1999/xlink" width="118.33475" height="106.45142" viewBox="0,0,118.33475,106.45142"><g transform="translate(-182.48525,-122.93948)"><g data-paper-data="{&quot;isPaintingLayer&quot;:true}" fill-rule="nonzero" stroke-linejoin="miter" stroke-miterlimit="10" stroke-dasharray="" stroke-dashoffset="0" style="mix-blend-mode: normal"><g stroke-linecap="butt"><path d="M287.28659,205.93125c5.97807,4.47279 -3.68245,15.5923 -11.83458,17.87393c-13.00425,3.63967 -21.86398,-3.92298 -21.86398,-3.92298l5.64471,-4.86253c0,0 6.20263,3.4948 11.59496,0.7848c6.65056,-3.34234 9.14782,-15.34336 16.45889,-9.87322z" fill="#ecec68" stroke="#000000" stroke-width="2"/><path d="M275.85887,210.51298l3.96965,-4.98824l8.70496,6.92744l-3.96965,4.98823z" fill="#000000" stroke="none" stroke-width="0"/><path d="M270.83275,216.03645l4.26041,-3.4183l4.79192,8.89891l-5.33394,2.4977z" fill="#000000" stroke="none" stroke-width="0"/><path d="M263.00281,216.4308l5.63674,0.168l-0.92415,8.56501l-6.47057,-1.23237z" fill="#000000" stroke="none" stroke-width="0"/></g><g data-paper-data="{&quot;index&quot;:null}" stroke-linecap="butt"><path d="M263.89513,209.77358c4.12363,2.4302 5.33088,6.23653 3.83538,8.77416c-1.4955,2.53763 -6.69854,2.81741 -10.82218,0.38721c-4.12364,-2.4302 -5.60634,-6.65009 -4.11084,-9.18771c1.4955,-2.53763 6.974,-2.40385 11.09765,0.02635z" fill="#ecec68" stroke="#000000" stroke-width="2"/><path d="M261.24856,220.32429l5.16883,-7.99339c0,0 3.49984,2.54718 1.67802,6.18629c-1.56498,3.12611 -6.84685,1.80709 -6.84685,1.80709z" fill="#000000" stroke="none" stroke-width="0"/><path d="M254.70354,217.22077l6.25803,-9.13682l3.03042,1.76295l-5.88605,9.42639z" fill="#000000" stroke="none" stroke-width="0"/></g><g stroke-linecap="butt"><path d="M230.18706,208.14207c1.43782,2.57075 -0.13981,6.75609 -4.31727,9.09255c-4.17746,2.33647 -9.37286,1.93927 -10.81067,-0.63149c-1.43782,-2.57075 -0.14493,-6.34885 4.03253,-8.68531c4.17746,-2.33647 9.65759,-2.34651 11.09541,0.22424z" fill="#ecec68" stroke="#000000" stroke-width="2"/><path d="M214.69499,216.56437c-1.73917,-3.67934 1.81728,-6.14683 1.81728,-6.14683l4.98701,8.10807c0,0 -5.31029,1.19942 -6.80429,-1.96124z" fill="#000000" stroke="none" stroke-width="0"/><path d="M224.66484,217.54582l-5.67169,-9.55689l3.06945,-1.69406l6.05012,9.27581z" fill="#000000" stroke="none" stroke-width="0"/></g><path d="M250.09351,220.92948c8.16615,-0.13998 9.94936,2.12573 8.5651,5.10799c-0.31292,0.67415 -2.25852,2.13538 -8.35773,1.80566c-6.6718,-0.36067 -9.29157,-0.91172 -9.29157,-1.65972c0,-1.57638 -0.72955,-3.24678 0.67809,-4.17864c1.25539,-0.83106 4.39253,-1.0065 8.40611,-1.0753z" data-paper-data="{&quot;index&quot;:null}" fill="#c5c556" stroke="#9b9b44" stroke-width="3" stroke-linecap="butt"/><path d="M241.22714,219.38394c-6.66592,-0.24842 -14.64918,-0.56213 -14.76608,-1.58042c-0.43929,-3.8265 6.43409,-17.03136 6.43409,-17.03136l17.3423,0.41755c0,0 4.73693,15.4343 4.88998,17.32967c0.15305,1.89536 -6.67375,1.13386 -13.90029,0.86455z" fill="#000000" stroke="#6e6e30" stroke-width="3" stroke-linecap="butt"/><g stroke="none" stroke-width="0" stroke-linecap="butt"><path d="M241.01198,208.2805c-46.36934,-1.82888 -56.54231,-31.05776 -56.54231,-31.05776c0,0 6.93559,-1.36492 12.16756,-8.46072c11.57321,-15.69608 18.48607,-43.85086 45.96799,-42.97976c28.70371,0.90982 33.16618,27.30904 44.05244,44.77358c4.38096,6.9862 12.20656,11.6247 12.20656,11.6247c0,0 -10.65059,27.96167 -57.85224,26.09996z" fill="#ecec68"/><path d="M297.91174,180.8939c0,0 -4.10107,10.92596 -15.78274,17.8515c-12.11678,7.1835 -30.8118,8.25378 -30.8118,8.25378c0,0 18.35847,-11.08592 18.3749,-43.00818c0.00939,-18.2522 -14.38961,-36.56503 -14.38961,-36.56503c0,0 10.8227,5.59723 18.11105,16.24871c5.82501,8.51291 8.06146,19.05867 11.80226,23.85735c1.82527,2.34144 2.89428,5.44481 4.99918,7.62503c3.46258,3.58647 7.69676,5.73684 7.69676,5.73684z" fill="#cbcb6a"/></g><path d="M201.16824,181.8717c0.115,-3.06609 2.69379,-5.45842 5.75988,-5.34342c3.06609,0.115 5.45843,2.69378 5.34343,5.75987c-0.115,3.06609 -2.69379,5.45843 -5.75988,5.34343c-3.06609,-0.115 -5.45843,-2.69379 -5.34343,-5.75988z" fill="#6e6e30" stroke="none" stroke-width="0" stroke-linecap="butt"/><path d="M270.22663,184.57309c0.115,-3.06609 2.69379,-5.45842 5.75988,-5.34342c3.06609,0.115 5.45843,2.69378 5.34343,5.75987c-0.115,3.06609 -2.69379,5.45843 -5.75988,5.34343c-3.06609,-0.115 -5.45843,-2.69379 -5.34343,-5.75988z" fill="#6e6e30" stroke="none" stroke-width="0" stroke-linecap="butt"/><g stroke="none" stroke-width="0" stroke-linecap="butt"><path d="M216.50055,136.97832l-9.1645,15.33395c0,0 -1.53618,-0.50062 -4.24751,-1.14488c-3.68502,-0.87562 -9.1016,-2.42401 -11.70371,-7.12547c-4.73836,-8.56117 -0.59548,-14.66506 1.97697,-17.23859c2.69444,-2.69557 8.83304,-5.42004 15.03622,-2.80449c4.93837,2.08225 6.36891,6.24378 7.12388,9.25921c0.55072,2.19965 0.97867,3.72028 0.97867,3.72028z" fill="#000000"/><path d="M198.43512,138.38554c0.14318,-3.81729 3.35377,-6.79574 7.17105,-6.65257c3.81729,0.14318 6.79574,3.35377 6.65257,7.17105c-0.14318,3.81729 -3.35377,6.79574 -7.17105,6.65257c-3.81729,-0.14318 -6.79574,-3.35377 -6.65257,-7.17105z" fill="#cbcb6a"/></g><path d="M241.01197,208.28051c-46.36934,-1.82888 -56.54231,-31.05776 -56.54231,-31.05776c0,0 6.93559,-1.36492 12.16756,-8.46072c11.57321,-15.69608 18.48607,-43.85086 45.96799,-42.97976c28.70371,0.90982 32.3947,27.35012 43.38623,44.74859c5.85652,9.27026 12.87276,11.64969 12.87276,11.64969c0,0 -10.65059,27.96167 -57.85224,26.09996z" fill="none" stroke="#000000" stroke-width="3" stroke-linecap="butt"/><g data-paper-data="{&quot;index&quot;:null}" stroke="none" stroke-width="0" stroke-linecap="butt"><path d="M270.33626,138.99755c0,0 0.54065,-1.4843 1.2546,-3.63651c0.97873,-2.9504 2.717,-6.99308 7.79747,-8.69955c6.38169,-2.14352 12.29895,1.03312 14.78389,3.92296c2.37244,2.759 6.04644,9.15608 0.68008,17.33825c-2.94699,4.49333 -8.46434,5.63162 -12.20459,6.22874c-2.75198,0.43934 -4.32134,0.82348 -4.32134,0.82348l-7.9901,-15.97737z" fill="#000000"/><path d="M281.07449,148.40664c-3.81729,-0.14318 -6.79574,-3.35377 -6.65257,-7.17105c0.14318,-3.81729 3.35377,-6.79574 7.17105,-6.65257c3.81729,0.14318 6.79574,3.35377 6.65257,7.17105c-0.14318,3.81729 -3.35377,6.79574 -7.17105,6.65257z" fill="#cbcb6a"/></g><path d="M236.40878,125.4824l13.10641,0.74176c0,0 -0.60989,9.09756 -2.77305,16.98154c-1.63333,5.95291 -3.91152,11.16271 -3.91152,11.16271c0,0 -2.69512,-4.69217 -4.10577,-11.43641c-1.06463,-5.08994 -2.31607,-17.44958 -2.31607,-17.44958z" fill="#000000" stroke="none" stroke-width="0" stroke-linecap="butt"/><path d="M228.81242,144.5861c0,0 4.41379,-7.46791 14.28064,-7.21982c10.11754,0.25439 13.20004,8.25055 13.20004,8.25055z" fill="#000000" stroke="none" stroke-width="0" stroke-linecap="butt"/><path d="M226.92475,134.88353c0,0 4.85818,-7.95159 16.33886,-7.64297c11.77238,0.31646 15.63866,8.84237 15.63866,8.84237z" fill="#000000" stroke="none" stroke-width="0" stroke-linecap="butt"/><g fill="#000000" stroke="none" stroke-width="0" stroke-linecap="butt"><path d="M191.18386,187.33077c0,0 -5.36701,-6.51741 -5.43612,-8.84245c-0.05796,-1.94978 5.04898,-4.18121 5.04898,-4.18121c0,0 3.60037,2.99609 9.03072,5.25702c4.55747,1.89752 9.19392,2.43146 9.19392,2.43146c0,0 -2.13275,2.96788 -7.31823,4.13089c-7.58783,1.7018 -10.51926,1.20429 -10.51926,1.20429z"/><path d="M192.77666,189.22797c0,0 8.50931,1.9521 13.74081,1.6955c4.39059,-0.21534 8.32364,-1.55757 8.32364,-1.55757c0,0 0.20603,3.13006 -3.70165,6.64192c-2.20713,1.98356 -4.42948,3.15587 -5.74757,3.88281c-0.79032,-0.45359 -2.32103,-1.27028 -3.05611,-1.65225c-0.61779,-0.32102 -1.52118,-1.31237 -2.5746,-2.49948c-0.85785,-1.60031 -2.1399,-2.94435 -3.70156,-3.87631c-0.02722,-0.01624 -0.05452,-0.03236 -0.0819,-0.04834c0.63805,-0.94344 -3.20105,-2.58628 -3.20105,-2.58628z"/><path d="M215.22232,199.9582c4.10519,-2.37545 6.40816,-5.27946 6.40816,-5.27946c0,0 1.29496,2.98557 -0.18377,7.4807c-0.53754,1.63405 -1.04763,2.98644 -1.51072,4.09627c-2.14108,-1.25294 -4.44555,-2.043 -7.03852,-3.21188c-0.21717,-0.0979 -2.54234,-1.37269 -2.80315,-1.42671c1.05712,-0.60988 3.30467,-0.60385 5.128,-1.65892z"/></g><g data-paper-data="{&quot;index&quot;:null}" fill="#000000" stroke="none" stroke-width="0" stroke-linecap="butt"><path d="M280.93726,188.84816c-5.0838,-1.54818 -6.98823,-4.66749 -6.98823,-4.66749c0,0 4.66343,-0.18512 9.35022,-1.73591c5.58444,-1.8478 9.39914,-4.56577 9.39914,-4.56577c0,0 4.92544,2.60771 4.72159,4.54768c-0.24309,2.31333 -6.08322,8.41039 -6.08322,8.41039c0,0 -2.96047,0.27651 -10.3995,-1.9889z"/><path d="M288.70469,195.41728c-0.0285,0.01389 -0.82515,0.49945 -0.85351,0.51361c-1.6271,0.81236 -4.7222,1.11661 -5.69751,2.64816c-0.19607,0.19013 1.81897,1.58337 1.63349,1.76024c-0.89231,0.85096 -3.85815,0.31265 -4.38809,0.53936c-0.76163,0.32583 -2.34921,1.02556 -3.17129,1.41867c-1.25993,-0.82364 -3.38823,-2.15913 -5.44056,-4.30245c-3.63362,-3.79472 -3.19371,-6.90054 -3.19371,-6.90054c0,0 3.82146,1.63308 8.18358,2.17671c5.19756,0.64776 14.71296,-0.87845 14.71296,-0.87845c0,0 -2.35094,2.0361 -1.78535,3.02469z"/><path d="M271.40925,203.6667c-0.26412,0.03432 -2.67826,1.13136 -2.90214,1.21272c-2.67324,0.97136 -5.03042,1.58657 -7.25934,2.6756c-0.37867,-1.1414 -0.78601,-2.52821 -1.19963,-4.19793c-1.13785,-4.59326 0.37712,-7.47345 0.37712,-7.47345c0,0 2.07896,3.06836 5.99468,5.74465c1.73918,1.18869 3.98087,1.35105 4.98933,2.0384z"/></g><path d="M229.73503,173.21411c0.24692,-6.58334 5.78394,-11.72002 12.36728,-11.47309c6.58334,0.24692 11.72002,5.78394 11.47309,12.36728c-0.24692,6.58334 -5.78394,11.72002 -12.36728,11.47309c-6.58334,-0.24692 -11.72002,-5.78394 -11.47309,-12.36728z" fill="#6e6e30" stroke="none" stroke-width="0" stroke-linecap="butt"/><path d="M240.90788,187.39284c-6.78417,-0.24028 -6.22593,-8.38209 -6.22593,-8.38209c0,0 3.16183,0.42145 4.01601,0.07262c1.03466,-0.42254 3.04378,-2.48827 3.04378,-2.48827c0,0 2.0004,2.22993 2.88577,2.68558c0.73403,0.37775 3.33483,0.12098 3.33483,0.12098c0,0 0.2372,8.67894 -7.05446,7.9912z" fill="#c5c556" stroke="#000000" stroke-width="1.5" stroke-linecap="butt"/><path d="M250.88993,177.25985c0,0 -1.63667,3.3811 -5.85517,2.2784c-2.9916,-0.78199 -3.17779,-3.87101 -3.17779,-3.87101c0,0 -0.83209,3.54071 -3.7575,3.75629c-4.18131,0.30814 -6.03588,-2.70303 -6.03588,-2.70303" fill="none" stroke="#000000" stroke-width="2" stroke-linecap="round"/><g stroke="none" stroke-width="0" stroke-linecap="butt"><path d="M248.92418,169.63915c-0.08539,2.27658 -4.02646,6.87655 -7.29439,6.60624c-3.26698,-0.27022 -7.03098,-4.86377 -6.94559,-7.14034c0.08539,-2.27658 3.18583,-4.50876 7.21007,-4.35782c4.02424,0.15094 7.1153,2.61535 7.02992,4.89193z" fill="#000000"/><path d="M246.29061,168.70646c-0.03536,0.94283 -2.09597,1.63093 -4.6025,1.53691c-2.50654,-0.09401 -4.50981,-0.93454 -4.47445,-1.87737c0.03536,-0.94283 1.34627,-1.63406 4.77218,-1.61393c3.3425,0.01963 4.34014,1.01156 4.30477,1.95438z" fill="#ffffff"/></g><path d="M241.48071,183.55446l0.22087,-5.88871" fill="none" stroke="#000000" stroke-width="1" stroke-linecap="round"/><path d="M234.8919,215.64683c2.22735,3.93223 1.5345,8.53516 -1.54752,10.28092c-3.08202,1.74576 -7.38612,-0.02673 -9.61346,-3.95896c-2.22735,-3.93223 -1.5345,-8.53516 1.54752,-10.28092c3.08202,-1.74576 7.38612,0.02673 9.61346,3.95896z" fill="#c5c556" stroke="#9b9b44" stroke-width="3" stroke-linecap="butt"/><g fill="#000000" stroke="none" stroke-width="0" stroke-linecap="butt"><g><path d="M214.82384,171.9562c-0.0974,1.26651 -4.38811,2.09826 -4.38811,2.09826c0,0 -1.75079,-0.99097 -3.2242,-1.71494c-1.91911,-0.94297 -3.70412,-2.32825 -3.47039,-3.64275c0.27257,-1.53289 2.72672,-1.14549 4.62174,-0.80386c1.41154,0.25448 3.38757,0.99 3.38757,0.99c0,0 3.17079,1.80677 3.07339,3.07329z"/><path d="M210.02395,173.94052c-1.58222,-0.79612 -0.28495,-5.23727 -0.28495,-5.23727l18.37431,1.41312l-0.41627,5.41259c0,0 -16.43201,-0.96397 -17.67309,-1.58844z"/></g><g data-paper-data="{&quot;index&quot;:null}"><path d="M272.27442,173.53766c0,0 2.06526,-0.42471 3.49911,-0.46036c1.92498,-0.04784 4.4095,-0.05543 4.44447,1.50112c0.02999,1.33478 -1.94586,2.43083 -3.98659,3.06925c-1.56679,0.49016 -3.44852,1.20176 -3.44852,1.20176c0,0 -4.11306,-1.47807 -4.01566,-2.74458c0.0974,-1.26652 3.50718,-2.56719 3.50718,-2.56719z"/><path d="M255.49912,177.66714l0.41627,-5.41259l18.37431,1.41312c0,0 0.60292,4.58729 -1.08243,5.13211c-1.32197,0.42735 -17.70815,-1.13264 -17.70815,-1.13264z"/></g></g></g></g></svg>