<svg version="1.1" xmlns="http://www.w3.org/2000/svg" xmlns:xlink="http://www.w3.org/1999/xlink" width="34.17311" height="34.17311" viewBox="0,0,34.17311,34.17311"><g transform="translate(-302.91346,-162.91348)"><g stroke="none" stroke-width="0" stroke-miterlimit="10"><path d="M309.98312,162.91348h20.03379c3.9166,0 7.06966,3.15307 7.06966,7.06966v20.03379c0,3.91659 -3.15306,7.06966 -7.06966,7.06966h-20.03379c-3.91659,0 -7.06966,-3.15307 -7.06966,-7.06966v-20.03379c0,-3.91659 3.15307,-7.06966 7.06966,-7.06966z" fill="#a0a300" fill-rule="evenodd" stroke-linecap="round" stroke-linejoin="round"/><g fill-rule="nonzero" stroke-linecap="butt" stroke-linejoin="miter"><path d="M322.10832,172.61268l1.22967,-7.34769l1.42567,0.23859z" fill="#000000"/><g fill="#d9db56"><path d="M328.41472,187.47455c-0.80023,4.78162 -5.59766,7.87738 -9.90507,7.15651c-4.30741,-0.72087 -7.73759,-5.27976 -6.93736,-10.06138c0.80023,-4.78162 6.02988,-9.65662 10.33729,-8.93575c4.30741,0.72087 7.30537,7.059 6.50514,11.84062z"/><path d="M326.53539,178.32058c-0.59521,3.55658 -3.30418,6.06715 -6.05065,5.60751c-2.74647,-0.45963 -4.49041,-3.71542 -3.8952,-7.272c0.59521,-3.55658 4.00832,-6.75843 6.18237,-6.3946c2.31715,0.38779 4.35869,4.5025 3.76348,8.05908z"/></g></g></g></g></svg>