<svg version="1.1" xmlns="http://www.w3.org/2000/svg" xmlns:xlink="http://www.w3.org/1999/xlink" width="36.79811" height="36.79812" viewBox="0,0,36.79811,36.79812"><g transform="translate(-302.91346,-162.91348)"><g stroke="none" stroke-miterlimit="10"><path d="M311.51758,163.9135h20.83988c4.07419,0 7.35411,3.303 7.35411,7.40583v20.98644c0,4.10283 -3.27992,7.40583 -7.35411,7.40583h-20.83988c-4.07418,0 -7.35411,-3.303 -7.35411,-7.40583v-20.98644c0,-4.10283 3.27993,-7.40583 7.35411,-7.40583z" fill-opacity="0.39216" fill="#000000" fill-rule="evenodd" stroke-width="0" stroke-linecap="round" stroke-linejoin="round"/><path d="M309.98312,162.91348h20.03379c3.9166,0 7.06966,3.15307 7.06966,7.06966v20.03379c0,3.91659 -3.15306,7.06966 -7.06966,7.06966h-20.03379c-3.91659,0 -7.06966,-3.15307 -7.06966,-7.06966v-20.03379c0,-3.91659 3.15307,-7.06966 7.06966,-7.06966z" fill="#a0a300" fill-rule="evenodd" stroke-width="0" stroke-linecap="round" stroke-linejoin="round"/><g fill-rule="nonzero" stroke-width="1" stroke-linecap="butt" stroke-linejoin="miter"><g fill="#000000"><path d="M330.89313,184.59577c0.90147,3.79548 -1.06856,6.41112 -5.48399,6.34981c-5.98573,-0.08313 -14.17508,-5.05223 -18.2794,-11.09611c-4.10435,-6.04388 -2.58481,-10.87815 3.40092,-10.79502c4.40698,0.06121 10.00987,2.78203 14.29677,6.62452c-3.28225,-2.61259 -7.25163,-4.39033 -10.4429,-4.43465c-4.80378,-0.06671 -6.03133,3.80896 -2.72961,8.66797c3.30184,4.85056 9.87502,8.84302 14.68724,8.90985c3.19971,0.04444 4.79393,-1.65602 4.55097,-4.22642z"/><path d="M323.76784,171.41409c4.58118,4.13852 5.29036,4.17808 10.30318,0.57443c-4.13504,4.57806 -4.17809,5.29038 -0.57443,10.30318c-4.58154,-4.13196 -5.29036,-4.17809 -10.30318,-0.57443c4.13854,-4.58115 4.17809,-5.29037 0.57443,-10.30317z"/></g><g fill="#d9db56"><path d="M332.00928,184.58601c0.90467,3.79471 -1.06313,6.41204 -5.47861,6.35444c-5.98579,-0.07807 -14.17935,-5.04024 -18.28878,-11.08066c-4.10946,-6.04041 -2.59401,-10.87596 3.39178,-10.79789c4.40704,0.05748 10.01222,2.77357 14.30238,6.61243c-3.28447,-2.60981 -7.25534,-4.3842 -10.44664,-4.42582c-4.80383,-0.06266 -6.02811,3.81406 -2.72228,8.67027c3.30594,4.84777 9.8825,8.83467 14.69477,8.89743c3.19975,0.04173 4.79252,-1.66007 4.54739,-4.23027z"/><path d="M324.87285,171.41036c4.58468,4.13465 5.29389,4.17361 10.30366,0.56572c-4.13117,4.58156 -4.17361,5.2939 -0.56571,10.30366c-4.58503,-4.12808 -5.29389,-4.17361 -10.30366,-0.56572c4.13467,-4.58465 4.17361,-5.2939 0.56571,-10.30366z"/></g></g></g></g></svg>