<svg version="1.1" xmlns="http://www.w3.org/2000/svg" xmlns:xlink="http://www.w3.org/1999/xlink" width="118.43929" height="105.26437" viewBox="0,0,118.43929,105.26437"><g transform="translate(-184.17437,-129.12653)"><g data-paper-data="{&quot;isPaintingLayer&quot;:true}" fill-rule="nonzero" stroke-linejoin="miter" stroke-miterlimit="10" stroke-dasharray="" stroke-dashoffset="0" style="mix-blend-mode: normal"><g data-paper-data="{&quot;index&quot;:null}" stroke-linecap="butt"><path d="M264.82135,215.70456c2.9096,3.80059 2.59951,7.78172 0.26069,9.57225c-2.33882,1.79053 -7.26628,0.09645 -10.17589,-3.70414c-2.9096,-3.80059 -2.69955,-8.26846 -0.36074,-10.05898c2.33882,-1.79053 7.36633,0.39029 10.27594,4.19088z" fill="#ecec68" stroke="#000000" stroke-width="2"/><path d="M258.40727,224.48987l7.79171,-5.4681c0,0 2.28752,3.67481 -0.76728,6.36374c-2.62416,2.30988 -7.02443,-0.89565 -7.02443,-0.89565z" fill="#000000" stroke="none" stroke-width="0"/><path d="M253.50621,219.15614l9.23054,-6.11896l2.14686,2.77172l-8.99448,6.527z" fill="#000000" stroke="none" stroke-width="0"/></g><path d="M253.49348,225.92948c8.16615,-0.13998 9.94936,2.12573 8.5651,5.10799c-0.31292,0.67415 -2.25852,2.13538 -8.35773,1.80566c-6.6718,-0.36067 -9.29157,-0.91172 -9.29157,-1.65972c0,-1.57638 -0.72955,-3.24678 0.67809,-4.17864c1.25539,-0.83106 4.39253,-1.0065 8.40611,-1.0753z" data-paper-data="{&quot;index&quot;:null}" fill="#c5c556" stroke="#9b9b44" stroke-width="3" stroke-linecap="butt"/><path d="M245.63835,224.28869c-6.66599,0.24637 -14.65054,0.52529 -14.8426,-0.48153c-0.72172,-3.78341 5.15394,-17.46143 5.15394,-17.46143l17.32554,-0.8691c0,0 5.86796,15.04072 6.16109,16.91953c0.29313,1.87881 -6.57134,1.62543 -13.79797,1.89253z" data-paper-data="{&quot;index&quot;:null}" fill="#000000" stroke="#6e6e30" stroke-width="3" stroke-linecap="butt"/><g data-paper-data="{&quot;index&quot;:null}" stroke-linecap="butt"><path d="M232.86902,211.36176c2.65102,1.28384 3.75492,5.61827 1.6687,9.92615c-2.08621,4.30791 -6.57253,6.95794 -9.22355,5.67412c-2.65102,-1.28384 -3.75508,-5.12135 -1.66888,-9.42926c2.08621,-4.30791 6.57269,-7.45485 9.22371,-6.17101z" fill="#ecec68" stroke="#000000" stroke-width="2"/><path d="M224.99349,227.1388c-3.53298,-2.01997 -2.03088,-6.0796 -2.03088,-6.0796l8.73187,3.79017c0,0 -3.66607,4.02465 -6.701,2.28942z" fill="#000000" stroke="none" stroke-width="0"/><path d="M233.72823,222.23314l-10.12295,-4.58567l1.54587,-3.14669l10.27215,4.13851z" fill="#000000" stroke="none" stroke-width="0"/></g><g><path d="M243.23998,213.23295c-47.23693,0.36665 -56.99708,-27.91815 -56.99708,-27.91815c0,0 7.96851,-4.38846 12.56842,-11.23249c11.43362,-17.11119 16.7295,-43.35593 45.44763,-43.3567c27.49572,-0.00074 33.51391,28.35875 44.58447,44.41331c5.00473,7.25786 11.89365,8.84164 11.89365,8.84164c0,0 -11.09309,28.89221 -57.49709,29.25239z" fill="#ecec68" stroke="none" stroke-width="0" stroke-linecap="butt"/><path d="M279.07382,193.53776c-2.60378,0.01518 -4.7293,-2.4993 -4.74746,-5.61625c-0.01818,-3.11695 2.07788,-5.65604 4.68166,-5.67122c2.60378,-0.01518 4.7293,2.49929 4.74746,5.61624c0.01818,3.11695 -2.07788,5.65605 -4.68166,5.67123z" data-paper-data="{&quot;index&quot;:null}" fill="#6e6e30" stroke="none" stroke-width="0" stroke-linecap="butt"/><path d="M194.96725,178.56945c2.17286,-2.11251 3.33957,-5.18048 5.23803,-7.46297c3.89083,-4.67786 6.45997,-15.14755 12.55152,-23.47181c7.62186,-10.41544 18.61632,-15.66728 18.61632,-15.66728c0,0 -14.97146,17.84786 -15.53984,36.09121c-0.99405,31.90679 17.00431,43.56828 17.00431,43.56828c0,0 -19.45248,-1.4172 -31.33579,-8.98065c-11.45659,-7.29184 -14.40905,-18.58645 -14.40905,-18.58645c0,0 4.30013,-2.01527 7.87449,-5.49033z" fill="#cbcb6a" stroke="none" stroke-width="0" stroke-linecap="butt"/><g data-paper-data="{&quot;index&quot;:null}" stroke="none" stroke-width="0" stroke-linecap="butt"><path d="M269.85326,142.74321c0,0 0.47587,-1.50632 1.09594,-3.68743c0.85004,-2.99002 2.4116,-7.10418 7.41341,-9.02907c6.28287,-2.41788 12.33215,0.49952 14.93991,3.27904c2.48969,2.65367 6.43729,8.88564 1.43031,17.29253c-2.74963,4.61674 -8.21251,5.9929 -11.9234,6.75143c-2.73037,0.55811 -4.28162,1.00985 -4.28162,1.00985l-8.67452,-15.61636z" fill="#000000"/><path d="M280.98889,151.67846c-3.8199,0.02227 -6.93461,-3.05632 -6.95688,-6.87622c-0.02227,-3.8199 3.05632,-6.93461 6.87622,-6.95688c3.8199,-0.02227 6.93461,3.05632 6.95688,6.87622c0.02227,3.8199 -3.05632,6.93461 -6.87622,6.95688z" fill="#cbcb6a"/></g><path d="M243.09713,213.23378c-47.23693,0.36665 -56.99708,-27.91815 -56.99708,-27.91815c0,0 7.08805,-2.15614 13.23507,-11.23638c11.53676,-17.04182 16.06285,-43.35204 44.78097,-43.35282c27.49572,-0.00074 33.51391,28.35875 44.58447,44.41331c5.00473,7.25786 11.89365,8.84164 11.89365,8.84164c0,0 -11.09309,28.89221 -57.49709,29.25239z" data-paper-data="{&quot;index&quot;:null}" fill="none" stroke="#000000" stroke-width="3" stroke-linecap="butt"/><g data-paper-data="{&quot;index&quot;:null}" stroke="none" stroke-width="0" stroke-linecap="butt"><path d="M215.98061,143.05731l-8.49185,15.71644c0,0 -1.55641,-0.43362 -4.29311,-0.95985c-3.71949,-0.71522 -9.19804,-2.02757 -12.00131,-6.61194c-5.10467,-8.34794 -1.23001,-14.62552 1.22857,-17.30804c2.57517,-2.80973 8.59002,-5.79748 14.90067,-3.45302c5.0239,1.86644 6.63334,5.96211 7.51819,8.94201c0.64546,2.17373 1.13886,3.6744 1.13886,3.6744z" fill="#000000"/><path d="M197.99305,145.24555c-0.02227,-3.8199 3.05632,-6.93461 6.87622,-6.95688c3.8199,-0.02227 6.93461,3.05632 6.95688,6.87622c0.02227,3.8199 -3.05632,6.93461 -6.87622,6.95688c-3.8199,0.02227 -6.93461,-3.05632 -6.95688,-6.87622z" fill="#cbcb6a"/></g><path d="M249.34522,131.1447c0,0 0.47862,10.2703 0.13702,15.45916c-0.45264,6.87531 -2.46435,11.89857 -2.46435,11.89857c0,0 -2.98508,-4.83957 -5.43567,-10.50522c-3.24554,-7.50352 -4.98097,-16.5698 -4.98097,-16.5698l10.31212,-0.83998z" data-paper-data="{&quot;index&quot;:null}" fill="#000000" stroke="none" stroke-width="0" stroke-linecap="butt"/><path d="M231.37113,148.82294c0,0 1.76682,-7.17114 11.88735,-7.10514c9.86976,0.06436 15.61218,6.9448 15.61218,6.9448z" data-paper-data="{&quot;index&quot;:null}" fill="#000000" stroke="none" stroke-width="0" stroke-linecap="butt"/><path d="M227.64151,140.07669c0,0 2.70568,-8.39092 14.48218,-8.33458c11.4847,0.05495 17.51728,8.14801 17.51728,8.14801z" data-paper-data="{&quot;index&quot;:null}" fill="#000000" stroke="none" stroke-width="0" stroke-linecap="butt"/><g data-paper-data="{&quot;index&quot;:null}" fill="#000000" stroke="none" stroke-width="0" stroke-linecap="butt"><path d="M293.5634,193.87181c0,0 -2.94572,0.40446 -10.47587,-1.53667c-5.14607,-1.32657 -7.18381,-4.36047 -7.18381,-4.36047c0,0 4.65102,-0.38691 9.26628,-2.13921c5.49919,-2.08791 9.1926,-4.96853 9.1926,-4.96853c0,0 5.03375,2.39196 4.9141,4.33893c-0.14267,2.32169 -5.71329,8.66595 -5.71329,8.66595z"/><path d="M291.91134,195.71764c0,0 -3.88918,1.52049 -3.28132,2.48365c-0.02787,0.01511 -0.05566,0.03036 -0.08338,0.04572c-1.59038,0.88206 -2.91433,2.18485 -3.82241,3.7572c-1.09047,1.15317 -2.02478,2.11544 -2.65243,2.41674c-0.7468,0.35851 -2.30259,1.12634 -3.10688,1.55468c-1.29442,-0.7683 -3.47855,-2.01038 -5.62178,-4.06281c-3.79455,-3.63378 -3.48955,-6.75576 -3.48955,-6.75576c0,0 3.88859,1.46605 8.27016,1.82027c5.22075,0.42207 13.78759,-1.2597 13.78759,-1.2597z"/><path d="M269.13729,205.73201c1.78903,1.11226 4.03563,1.17738 5.07292,1.82041c-0.26239,0.04573 -2.62674,1.24629 -2.8469,1.33726c-2.62867,1.08622 -4.95699,1.80293 -7.13667,2.98747c-0.42774,-1.12393 -0.89476,-2.49179 -1.3803,-4.14205c-1.3357,-4.53968 0.05311,-7.48276 0.05311,-7.48276c0,0 2.20989,2.97544 6.23784,5.47966z"/></g><g data-paper-data="{&quot;index&quot;:null}" fill="#000000" stroke="none" stroke-width="0" stroke-linecap="butt"><path d="M193.34971,194.2061c0,0 -5.64421,-6.27887 -5.81395,-8.59874c-0.14235,-1.94545 4.86317,-4.39593 4.86317,-4.39593c0,0 3.72676,2.83736 9.24991,4.86101c4.63536,1.69837 9.29059,2.03102 9.29059,2.03102c0,0 -2.00221,3.05746 -7.13247,4.44394c-7.50701,2.02881 -10.45724,1.65872 -10.45724,1.65872z"/><path d="M194.14674,195.78764c0,0 9.46232,1.82664 14.67779,1.34374c4.37715,-0.40528 8.24837,-1.91657 8.24837,-1.91657c0,0 0.34138,3.1182 -3.41054,6.79599c-2.11915,2.07728 -4.28865,3.34473 -5.57403,4.12808c-0.80923,-0.41894 -2.37386,-1.16857 -3.12479,-1.51835c-0.5225,-0.24336 -3.50389,0.20079 -4.36882,-0.67799c-0.17979,-0.18265 1.87835,-1.51141 1.68839,-1.70766c-0.92634,-1.56165 -4.01026,-1.96373 -5.61083,-2.82718c-0.0279,-0.01504 -0.80877,-0.52558 -0.83682,-0.54037c0.59659,-0.9702 -1.68871,-3.07969 -1.68871,-3.07969z"/><path d="M212.8611,207.66007c1.02972,-0.65508 3.27543,-0.7464 5.05136,-1.87945c3.99848,-2.55101 6.17352,-5.55202 6.17352,-5.55202c0,0 1.42304,2.9267 0.14036,7.48164c-0.46626,1.6558 -0.91731,3.02901 -1.33191,4.15785c-2.19333,-1.15904 -4.52986,-1.84856 -7.171,-2.90405c-0.2212,-0.0884 -2.59939,-1.26131 -2.86231,-1.30397z"/></g><path d="M220.42539,193.99258c-2.60378,0.01518 -4.7293,-2.4993 -4.74746,-5.61625c-0.01818,-3.11695 2.07788,-5.65604 4.68166,-5.67122c2.60378,-0.01518 4.7293,2.49929 4.74746,5.61624c0.01818,3.11695 -2.07788,5.65605 -4.68166,5.67123z" data-paper-data="{&quot;index&quot;:null}" fill="#6e6e30" stroke="none" stroke-width="0" stroke-linecap="butt"/><g data-paper-data="{&quot;index&quot;:null}" fill="#000000" stroke="none" stroke-width="0" stroke-linecap="butt"><path d="M270.65387,157.16547c4.10095,-0.02391 7.46669,7.03487 7.5176,15.76622c0.05091,8.73135 -3.23231,15.82889 -7.33325,15.8528c-4.10095,0.02391 -7.46669,-7.03487 -7.5176,-15.76622c-0.05091,-8.73135 3.23231,-15.82889 7.33325,-15.8528z"/><path d="M275.60244,176.24837c0,0 0.87114,-0.01565 2.08117,-0.1705c1.6245,-0.20788 3.72503,-0.42136 3.86509,1.15175c0.1201,1.34898 -1.95879,2.48009 -3.63925,3.29554c-1.29019,0.62607 -2.27563,1.10734 -2.27563,1.10734c0,0 -3.6528,-0.61847 -3.66032,-1.90888c-0.00752,-1.29042 3.62893,-3.47524 3.62893,-3.47524z"/></g><g data-paper-data="{&quot;index&quot;:null}" fill="#000000" stroke="none" stroke-width="0" stroke-linecap="butt"><path d="M235.78962,173.58516c0.05091,8.73135 -3.23231,15.82889 -7.33325,15.8528c-4.10095,0.02391 -7.46669,-7.03487 -7.5176,-15.76622c-0.05091,-8.73135 3.23231,-15.82889 7.33325,-15.8528c4.10095,-0.02391 7.46669,7.03487 7.5176,15.76622z"/><path d="M227.2155,180.39093c0.00752,1.29041 -3.63781,1.95143 -3.63781,1.95143c0,0 -0.99099,-0.46976 -2.28839,-1.08073c-1.68986,-0.79579 -3.78179,-1.90259 -3.67742,-3.25287c0.1217,-1.57464 2.22457,-1.38567 3.85139,-1.19673c1.21177,0.14073 2.08303,0.14622 2.08303,0.14622c0,0 3.66169,2.14228 3.66921,3.43268z"/></g><path d="M272.38883,162.8899c1.6069,-0.00937 2.92584,2.77693 2.94593,6.22339c0.02009,3.44646 -1.26626,6.24796 -2.87316,6.25733c-1.6069,0.00937 -2.92584,-2.77694 -2.94593,-6.2234c-0.02009,-3.44645 1.26626,-6.24795 2.87316,-6.25732z" data-paper-data="{&quot;index&quot;:null}" fill="#ffffff" stroke="none" stroke-width="0" stroke-linecap="butt"/><path d="M230.44104,162.84422c1.6069,-0.00937 2.92584,2.77693 2.94593,6.22339c0.02009,3.44645 -1.26626,6.24796 -2.87316,6.25733c-1.6069,0.00937 -2.92584,-2.77694 -2.94593,-6.2234c-0.02009,-3.44645 1.26626,-6.24795 2.87316,-6.25732z" data-paper-data="{&quot;index&quot;:null}" fill="#ffffff" stroke="none" stroke-width="0" stroke-linecap="butt"/><path d="M249.69576,190.30657c-5.59068,0.0326 -10.15446,-5.36635 -10.19348,-12.05888c-0.03902,-6.69253 4.46149,-12.14432 10.05217,-12.17692c5.59068,-0.0326 10.15446,5.36635 10.19348,12.05888c0.03902,6.69253 -4.46149,12.14432 -10.05217,12.17692z" data-paper-data="{&quot;index&quot;:null}" fill="#6e6e30" stroke="none" stroke-width="0" stroke-linecap="butt"/><path d="M269.2037,182.64609c-0.88529,0.00516 -1.60797,-0.84976 -1.61414,-1.90952c-0.00618,-1.05976 0.70647,-1.92305 1.59176,-1.9282c0.88529,-0.00516 1.60797,0.84975 1.61414,1.90951c0.00618,1.05976 -0.70647,1.92306 -1.59176,1.92821z" data-paper-data="{&quot;index&quot;:null}" fill="#6e6e30" stroke="none" stroke-width="0" stroke-linecap="butt"/><path d="M226.68103,183.34551c-0.88529,0.00516 -1.60797,-0.84976 -1.61414,-1.90952c-0.00618,-1.05976 0.70647,-1.92305 1.59176,-1.9282c0.88529,-0.00516 1.60797,0.84975 1.61414,1.90951c0.00618,1.05976 -0.70647,1.92306 -1.59176,1.92821z" data-paper-data="{&quot;index&quot;:null}" fill="#6e6e30" stroke="none" stroke-width="0" stroke-linecap="butt"/><path d="M257.68199,181.61269c0,0 -1.65109,2.99593 -5.18988,2.54453c-2.47589,-0.31582 -3.09005,-3.93842 -3.09005,-3.93842c0,0 -0.23791,3.13025 -2.79577,3.82511c-3.60688,0.97986 -4.90764,-2.50735 -4.90764,-2.50735" data-paper-data="{&quot;index&quot;:null}" fill="none" stroke="#000000" stroke-width="2" stroke-linecap="round"/><g data-paper-data="{&quot;index&quot;:null}" stroke="none" stroke-width="0" stroke-linecap="butt"><path d="M249.65312,169.12998c3.41745,-0.01993 5.98961,2.34923 6.0031,4.66357c0.01349,2.31434 -3.29823,6.85366 -6.07643,7.01979c-2.77901,0.16619 -6.00292,-4.63494 -6.01642,-6.94928c-0.01349,-2.31434 2.67229,-4.71415 6.08974,-4.73408z" fill="#000000"/><path d="M245.82142,173.00431c-0.00559,-0.95845 0.86633,-1.93255 3.70211,-1.84175c2.90654,0.09307 4.00061,0.83833 4.00621,1.79681c0.00559,0.95846 -1.71544,1.74552 -3.84404,1.75793c-2.12859,0.01241 -3.85867,-0.75452 -3.86427,-1.71299z" fill="#ffffff"/></g></g><path d="M230.81864,227.57895c1.20244,-0.90719 4.42383,-1.49509 8.4409,-1.79645c8.14446,-0.611 10.05545,1.54803 8.8456,4.60521c-0.27625,0.69805 -2.56679,2.03082 -8.47453,2.41141c-5.40096,0.34795 -9.09421,-0.50795 -9.13694,-1.24722c-0.09068,-1.56879 -1.01431,-2.96252 0.32497,-3.97295z" data-paper-data="{&quot;index&quot;:null}" fill="#c5c556" stroke="#9b9b44" stroke-width="3" stroke-linecap="butt"/><g data-paper-data="{&quot;index&quot;:null}" stroke-linecap="butt"><path d="M198.35124,210.74405c6.87139,-6.01316 10.27899,5.76176 17.16566,8.58578c5.58377,2.28974 11.501,-1.66911 11.501,-1.66911l6,4.41667c0,0 -8.25551,8.21796 -21.5,5.58333c-8.30273,-1.6516 -18.78523,-11.99986 -13.16667,-16.91667z" fill="#ecec68" stroke="#000000" stroke-width="2"/><path d="M201.94608,222.01132l-4.33946,-4.67008l8.14976,-7.57279l4.33946,4.67009z" fill="#000000" stroke="none" stroke-width="0"/><path d="M212.43217,227.80079l-5.50931,-2.08252l4.09743,-9.23928l4.50931,3.08252z" fill="#000000" stroke="none" stroke-width="0"/><path d="M225.69311,226.70025l-6.35739,1.72354l-1.57637,-8.46927l5.60739,-0.59853z" fill="#000000" stroke="none" stroke-width="0"/></g></g></g></svg>