<svg version="1.1" xmlns="http://www.w3.org/2000/svg" xmlns:xlink="http://www.w3.org/1999/xlink" width="378" height="460.00001" viewBox="0,0,378,460.00001"><defs><linearGradient x1="320" y1="-67.5" x2="320" y2="269.5" gradientUnits="userSpaceOnUse" id="color-1"><stop offset="0" stop-color="#ffffd1"/><stop offset="1" stop-color="#f1f19c"/></linearGradient></defs><g transform="translate(-131,83.00001)"><g data-paper-data="{&quot;isPaintingLayer&quot;:true}" stroke-miterlimit="10" stroke-dasharray="" stroke-dashoffset="0" style="mix-blend-mode: normal"><path d="M145.24891,375c-6.76488,0 -12.24891,-5.33739 -12.24891,-11.9214v-432.15721c0,-6.58401 5.48402,-11.9214 12.24891,-11.9214h349.50219c6.76488,0 12.2489,5.33739 12.2489,11.9214v432.15721c0,6.584 -5.48402,11.9214 -12.2489,11.9214z" fill="#535311" fill-rule="nonzero" stroke="#212108" stroke-width="4" stroke-linecap="butt" stroke-linejoin="miter"/><path d="M160.66812,361.5c-6.16798,0 -11.16812,-4.94148 -11.16812,-11.03711v-406.92577c0,-6.09563 5.00014,-11.03711 11.16812,-11.03711h318.66376c6.16798,0 11.16812,4.94149 11.16812,11.03712v406.92577c0,6.09563 -5.00014,11.03711 -11.16812,11.03711z" fill="url(#color-1)" fill-rule="nonzero" stroke="#212108" stroke-width="4.5" stroke-linecap="butt" stroke-linejoin="miter"/><text transform="translate(160.5,-35.68135) scale(0.61033,0.61033)" font-size="40" xml:space="preserve" fill="#212108" fill-rule="nonzero" stroke="none" stroke-width="1" stroke-linecap="butt" stroke-linejoin="miter" stroke-miterlimit="10" stroke-dasharray="" stroke-dashoffset="0" font-family="&quot;Allan-Regular&quot;, Sans Serif" font-weight="normal" text-anchor="start" style="mix-blend-mode: normal"><tspan x="0" dy="0">name: Hi-Hi</tspan><tspan x="0" dy="46.150000000000006px">age: 24</tspan><tspan x="0" dy="46.150000000000006px">occupation: Musteezer member</tspan></text><g><path d="M432.53444,-56.08653h32.93116c6.43804,0 11.62097,5.18296 11.62097,11.62097v32.93116c0,6.43802 -5.18294,11.62098 -11.62097,11.62098h-32.93116c-6.43802,0 -11.62098,-5.18296 -11.62098,-11.62097v-32.93116c0,-6.43801 5.18296,-11.62097 11.62098,-11.62097z" fill="#a0a300" fill-rule="evenodd" stroke="#212108" stroke-width="2" stroke-linecap="round" stroke-linejoin="round"/><g fill="none" fill-rule="nonzero" stroke="none" stroke-width="1" stroke-linecap="butt" stroke-linejoin="miter" font-family="sans-serif" font-weight="normal" font-size="12" text-anchor="start"><g/><g data-paper-data="{&quot;index&quot;:null}"/></g></g><text transform="translate(160.5,53.39376) scale(0.39582,0.39582)" font-size="40" xml:space="preserve" fill="#212108" fill-rule="nonzero" stroke="none" stroke-width="1" stroke-linecap="butt" stroke-linejoin="miter" stroke-miterlimit="10" stroke-dasharray="" stroke-dashoffset="0" font-family="&quot;Allan-Regular&quot;, Sans Serif" font-weight="normal" text-anchor="start" style="mix-blend-mode: normal"><tspan x="0" dy="0">Description-</tspan><tspan x="0" dy="46.150000000000006px">Hi-Hi has spent his whole life perfecting the art of the guitar, </tspan><tspan x="0" dy="46.150000000000006px">years upon years of destroying his fingers from impractical </tspan><tspan x="0" dy="46.150000000000006px">strumming methods only to end up as a bartender for some </tspan><tspan x="0" dy="46.150000000000006px">sleazy night club. It didn’t help that most people mistook </tspan><tspan x="0" dy="46.150000000000006px">Hi-Hi for a girl, disappointing a lot of guys and lesbians. </tspan><tspan x="0" dy="46.150000000000006px">Hi-Hi was not happy with his life until the club’s lead guitarist </tspan><tspan x="0" dy="46.150000000000006px">suddenly collapsed on the floor and died. While everyone was </tspan><tspan x="0" dy="46.150000000000006px">in shock, Hi-Hi point one blank whipped out his trusty guitar</tspan><tspan x="0" dy="46.150000000000006px">and saved the show, while the guy’s corpse was still on the </tspan><tspan x="0" dy="46.150000000000006px">ground but who fucking cares we have a twink playing guitar </tspan><tspan x="0" dy="46.150000000000006px">bro! After that he was promoted from bartender to lead guitarist</tspan><tspan x="0" dy="46.150000000000006px">of Musteezer, and ever since has enjoyed his life of performing</tspan><tspan x="0" dy="46.150000000000006px">live, and I mean ONLY performing live. Hi-Hi has stated that he </tspan><tspan x="0" dy="46.150000000000006px">thinks what the MCS is doing is wrong and he will never partake</tspan><tspan x="0" dy="46.150000000000006px">in any sort of dealing, but since his paycheck is $2000 per 3 days</tspan><tspan x="0" dy="46.150000000000006px">he’ll stick around.</tspan></text><path d="M160.16667,-30.16667v-1.66667h252.16667v1.66667z" fill="#212108" fill-rule="nonzero" stroke="none" stroke-width="0" stroke-linecap="butt" stroke-linejoin="miter"/><path d="M160.16667,-0.66667v-1.66667h252.16667v1.66667z" fill="#212108" fill-rule="nonzero" stroke="none" stroke-width="0" stroke-linecap="butt" stroke-linejoin="miter"/><path d="M160.16667,29.33333v-1.66667h252.16667v1.66667z" fill="#212108" fill-rule="nonzero" stroke="none" stroke-width="0" stroke-linecap="butt" stroke-linejoin="miter"/><g fill-rule="nonzero" stroke="none" stroke-width="1" stroke-linecap="butt" stroke-linejoin="miter"><g fill="#000000"><path d="M466.27763,-20.03028c1.41617,5.96252 -1.67866,10.07156 -8.61509,9.97525c-9.4033,-0.13059 -22.26838,-7.93681 -28.71607,-17.43146c-6.44774,-9.49465 -4.06061,-17.08906 5.34268,-16.95846c6.92316,0.09616 15.72503,4.37044 22.45955,10.40681c-5.15626,-4.10425 -11.39197,-6.897 -16.4053,-6.96662c-7.54651,-0.1048 -9.47493,5.9837 -4.28809,13.61697c5.18703,7.62 15.51319,13.89196 23.07296,13.99695c5.02659,0.06981 7.53104,-2.60153 7.14936,-6.6395z"/><path d="M455.08414,-40.73807c7.19682,6.50142 8.3109,6.56357 16.18581,0.9024c-6.49595,7.19191 -6.56358,8.31094 -0.9024,16.18581c-7.19738,-6.49111 -8.3109,-6.56358 -16.18581,-0.9024c6.50145,-7.19677 6.56358,-8.31092 0.9024,-16.18579z"/></g><g fill="#d9db56"><path d="M468.03105,-20.04561c1.42119,5.96131 -1.67013,10.07301 -8.60664,9.98252c-9.40339,-0.12264 -22.27508,-7.91798 -28.7308,-17.40719c-6.45577,-9.4892 -4.07507,-17.08562 5.32833,-16.96297c6.92325,0.0903 15.72872,4.35715 22.46836,10.38781c-5.15975,-4.09989 -11.39779,-6.88737 -16.41117,-6.95275c-7.54659,-0.09844 -9.46987,5.99171 -4.27657,13.62058c5.19347,7.61562 15.52494,13.87885 23.08478,13.97744c5.02666,0.06556 7.52882,-2.60789 7.14373,-6.64555z"/><path d="M456.82006,-40.74393c7.20231,6.49534 8.31645,6.55654 16.18656,0.88872c-6.48987,7.19741 -6.55654,8.31647 -0.8887,16.18656c-7.20286,-6.48502 -8.31645,-6.55654 -16.18656,-0.88872c6.49537,-7.20227 6.55654,-8.31647 0.8887,-16.18656z"/></g></g></g></g></svg>