<svg version="1.1" xmlns="http://www.w3.org/2000/svg" xmlns:xlink="http://www.w3.org/1999/xlink" width="279.16661" height="252.16732" viewBox="0,0,279.16661,252.16732"><defs><linearGradient x1="192.6971" y1="208.08962" x2="458.13865" y2="208.08962" gradientUnits="userSpaceOnUse" id="color-1"><stop offset="0" stop-color="#8a833c"/><stop offset="1" stop-color="#81782d"/></linearGradient><linearGradient x1="294.19756" y1="210.83354" x2="332.0105" y2="216.59934" gradientUnits="userSpaceOnUse" id="color-2"><stop offset="0" stop-color="#7f772e"/><stop offset="1" stop-color="#8b843d"/></linearGradient><linearGradient x1="256.00782" y1="269.64682" x2="304.47278" y2="269.64682" gradientUnits="userSpaceOnUse" id="color-3"><stop offset="0" stop-color="#7f772e"/><stop offset="1" stop-color="#8b843d"/></linearGradient><linearGradient x1="250.21571" y1="241.29982" x2="312.65821" y2="241.29982" gradientUnits="userSpaceOnUse" id="color-4"><stop offset="0" stop-color="#7f772e"/><stop offset="1" stop-color="#8b843d"/></linearGradient><radialGradient cx="296.63696" cy="252.27482" r="32.71582" gradientUnits="userSpaceOnUse" id="color-5"><stop offset="0" stop-color="#8b843d"/><stop offset="1" stop-color="#7f772e"/></radialGradient></defs><g transform="translate(-179.70913,-45.84013)"><g stroke-miterlimit="10"><g stroke="#000000" stroke-width="1.5" stroke-linecap="round"><path d="M384.24338,126.0908c0,0 3.4194,2.18898 5.86939,1.14031c0.60467,-0.2588 6.26551,-5.87534 6.97744,-6.17313c1.63365,-0.68332 -1.56138,6.66061 0.38077,6.12056c1.02227,-0.28426 1.45247,0.73843 2.61268,0.42435c1.1721,-0.31731 -4.25185,5.01666 -2.95126,4.69446c0.36788,-0.09114 4.75424,0.7068 6.92636,2.62503c2.47532,2.186 2.77196,5.52826 3.23881,5.40901c1.673,-0.42735 2.70403,-3.03516 4.41611,-3.72672c0.81547,-0.32939 5.30415,1.9988 6.13117,1.66024c1.12147,-0.45907 1.88619,-2.60003 2.9468,-3.10002c3.44928,-1.62605 3.29833,3.92193 6.80978,3.82531c1.00744,-0.02772 0.83909,-3.0359 1.59876,-2.97995c1.26285,0.09302 -0.12513,5.26243 1.94031,4.49654c9.55529,-3.54316 6.24258,1.38615 7.77394,2.39952c1.24322,0.82271 6.05439,-1.61801 7.0341,0.1633c0.73918,1.34394 3.02871,9.17199 3.03146,14.02077c0.00132,2.32949 1.57941,5.25344 1.42413,8.02808c-0.12128,2.16694 0.36827,4.44306 0.14925,6.79223c-0.3683,3.95013 -6.49075,7.79402 -5.78278,11.96451c0.68185,4.01659 -1.15117,8.31118 -0.37847,11.5924c1.35956,5.77313 3.28782,9.61917 4.35405,13.32814c1.10882,3.85715 -5.74758,16.26808 -4.49344,18.79387c4.64311,9.351 3.38063,16.51643 6.35915,23.83211c0.69948,1.71803 6.98701,3.12939 7.51387,4.93965c0.42065,1.44525 -9.56843,3.88637 -15.20319,3.69464c-5.15706,-0.17549 -3.08005,-6.32265 -7.80562,-5.13474c-5.58967,1.40514 -9.8896,12.09455 -9.51028,13.3971c2.01831,6.93075 1.00072,12.99446 2.10665,16.17422c1.46844,4.22202 7.14055,6.24732 10.89234,7.14365c2.01313,0.48095 6.39149,1.44318 4.34044,1.72096c-5.32646,0.72138 -19.85341,1.3495 -26.74704,1.22826c-2.34453,-0.04123 -8.75977,1.04435 -11.5361,0.34575c-3.79082,-0.95387 -3.96675,-3.79351 -6.90331,-4.11049c-6.23706,-0.67326 -9.72856,1.17324 -16.45934,0.6782c-4.72487,-0.34751 -9.29568,1.31131 -14.41357,1.36818c-2.79224,0.03103 -6.68379,-1.58535 -8.68873,-1.56043c-4.57009,0.05681 -9.68421,1.13425 -10.60574,1.23817c-5.21175,0.58772 -14.25434,0.51183 -23.37239,0.6154c-2.50543,0.02846 -8.41804,0.34769 -11.04721,0.27934c-3.28113,-0.08531 -5.92647,4.10987 -13.66197,-1.77033c-2.24364,-1.70551 -3.43292,-0.26853 -5.65786,0.34324c-1.72424,0.47409 -4.46988,0.05315 -6.27886,-0.17863c-5.36412,-0.68728 -8.90065,-1.25174 -13.36855,-2.06381c-2.97318,-0.54039 -6.73024,-1.37615 -10.358,-1.75331c-4.18156,-0.43473 -9.30746,-0.46124 -13.33851,-0.68808c-2.65591,-0.14945 -7.89813,-0.30489 -10.37329,-0.46643c-0.90999,-0.05939 -5.13822,1.21312 -6.01694,1.1508c-1.14856,-0.08145 -8.26498,-2.83007 -9.34666,-2.91251c-1.63711,-0.12477 -2.86183,-4.57693 -4.33175,-4.68911c-3.52812,-0.26924 -5.22679,-0.50024 -7.6396,-0.68349c-1.76837,-0.13432 -3.20415,-0.90706 -4.25889,-0.98084c-2.11434,-0.14792 -5.84605,0.70147 -9.58944,0.89016c-2.92376,0.14738 -6.24462,-0.36827 -6.24462,-0.36827c0,0 -0.31076,-2.54116 2.42164,-3.49787c3.15443,-1.10447 -1.79022,-1.28161 3.3997,-3.09278c1.38599,-0.48368 2.26267,-4.6683 3.91431,-5.2156c1.05471,-0.34951 5.49137,1.3134 6.6298,0.98603c1.68784,-0.48537 4.08829,-4.99275 5.42638,-3.82903c2.91137,2.53199 7.06466,-3.94693 10.10144,-4.57031c6.90776,-1.41798 12.21271,-1.7576 13.69646,-4.82031c0.2549,-0.52615 -8.54746,-4.74876 -14.91815,-9.85149c-3.82977,-3.06754 -4.39049,-5.1442 -5.98496,-7.37107c-0.97262,-1.3584 -3.795,-3.60989 -3.71785,-3.74153c0.5692,-0.97135 3.86346,-2.76121 6.17077,-4.6766c4.27663,-3.55023 8.40996,-7.53175 8.40996,-7.53175c0,0 -2.59853,-1.52016 -3.93552,-2.3023c-1.64802,-0.96409 1.33279,-1.94705 2.92955,-2.99386c1.85179,-1.214 4.15184,-2.75442 5.4258,-3.73071c2.25602,-1.72887 5.61071,-5.06603 5.61071,-5.06603c0,0 -11.49152,-14.83494 -17.57247,-19.22408c-1.64548,-1.18768 -3.68944,0.07327 -3.66992,0.05354c0.81326,-0.82252 1.57914,-2.64852 3.05975,-4.68224c0.92962,-1.2769 2.54485,-2.83762 3.371,-3.6535c3.07164,-3.0335 8.17405,-6.54809 10.60565,-9.63371c1.75423,-2.22607 0.12893,-5.97467 1.78667,-7.92626c5.78983,-6.81617 -0.1625,5.05973 5.07633,1.25907c1.65003,-1.19706 0.52307,-7.10598 3.72683,-10.56606c3.55946,-3.84426 3.05344,4.19251 7.28855,1.39153c1.76884,-1.16986 1.47392,-6.47465 4.15956,-10.24189c1.4398,-2.01963 2.42248,-0.58952 4.30586,-1.67006c1.59436,-0.9147 4.21205,-4.47873 4.39236,-4.66802c2.74367,-2.88017 -0.41247,3.91168 2.39264,4.91884c1.18206,0.42442 2.08369,-3.94921 3.34918,-3.16541c1.22962,0.76157 -0.50808,3.39646 0.76565,4.51797c1.44187,1.26954 4.95435,1.03771 6.49124,2.56896c1.41665,1.41144 -1.52188,7.94028 -0.17273,9.52221c1.02953,1.20713 2.10611,0.69355 3.2,1.78612c1.13444,1.13308 0.95415,6.24138 2.09259,7.30524c2.11865,1.97985 0.34325,3.66958 2.35253,4.59736c2.09541,0.96754 4.06822,-1.35764 4.17162,-4.24668c0.13525,-3.77927 -1.74312,-8.5234 1.2495,-8.12396c3.03433,0.40501 5.49755,14.01965 5.49755,14.01965c0,0 0.17728,-10.43563 3.77985,-11.72572c1.61606,-0.57871 4.4183,-0.89549 6.38441,-1.58633c4.3857,-1.54103 -3.40643,-3.39359 2.08297,-5.09273c1.3803,-0.42723 2.83454,-9.90899 4.91115,-7.24524c0.6389,0.81954 -0.59741,3.24331 2.0587,3.87273c2.22321,0.52684 2.70152,-5.96753 5.81832,-5.97662c1.95743,-0.0057 2.69979,4.74053 4.93962,5.9845c3.13714,1.7423 7.60899,0.14041 8.37645,-0.00258c2.52631,-0.47067 5.06631,-1.88144 7.57275,-3.56735c4.7903,-3.2221 9.45806,-7.44926 13.67338,-8.03967c1.87457,-0.26255 2.40012,1.82016 4.06553,3.38844c0.83751,0.78866 1.83875,-0.49051 2.81126,0.05329c1.46253,0.8178 2.86005,3.23526 3.53784,2.88101c2.8949,-1.51301 4.67154,-4.12656 6.73077,-5.74946c3.02994,-2.38792 0.63891,-1.01359 2.32269,-2.99874c1.49352,-1.76084 3.49907,-2.04818 5.23503,-4.01113c2.05667,-2.32559 3.73492,-6.19589 3.73492,-6.19589zM302.21004,176.20173c-2.40695,1.82611 12.37189,2.05066 12.37189,5.30496c0,4.35746 -13.54631,10.73062 -9.65761,12.10084c0.32475,0.11443 0.6572,0.21258 0.99632,0.29344c0.00385,0.00276 0.00738,0.00548 0.01058,0.00822c1.36993,1.17548 2.71123,1.66286 4.17872,2.9935c4.93523,4.47499 6.65607,10.81063 11.49908,15.21339c2.05854,1.87141 5.02042,2.44196 7.50516,3.35701c1.20891,0.4452 1.83562,1.91782 2.49484,2.643c0.65553,0.7211 -1.38648,-11.39763 0.47509,-12.92314c2.9005,-2.37686 10.04286,5.25881 11.3242,6.32762c1.30601,1.08938 3.03145,6.54729 3.98188,4.48315c3.77465,-8.1978 4.43089,4.71862 5.46932,2.64178c0.61983,-1.23967 -0.34193,-2.77004 -0.23064,-4.15155c0.04032,-0.50048 0.7015,-0.84597 0.67365,-1.3473c-0.08639,-1.555 -0.38179,-3.13491 -1.00202,-4.56346c-0.31521,-0.72601 -1.56322,-6.10675 -4.85748,-11.66077c-2.28141,-3.84642 -6.41154,-7.429 -8.3197,-11.03549c-2.37601,-4.49074 -2.4102,-7.98485 -3.20806,-8.46356c-2.30829,-1.38497 -10.64836,-0.19872 -13.8304,-1.52336c-5.5627,-2.31564 -6.32782,-6.8218 -10.16715,-6.84278c-4.65602,-0.02546 -3.69518,3.56824 -8.66913,6.36614c-0.38743,0.21794 -0.73068,0.48035 -1.03855,0.77839zM261.75265,174.59895c-2.01565,-0.50392 -2.19815,1.67495 -3.659,2.86839c-0.97478,0.79635 -2.46436,-0.79167 -3.55233,-0.01306c-0.9455,0.67665 -1.53877,3.67915 -1.84082,4.83787c-0.36048,1.38285 -3.77258,0.24597 -2.79672,2.19771c0.77856,1.55713 3.03687,3.81939 4.87326,4.06776c0.89589,0.12116 1.92888,0.43139 2.8263,0.21741c0.4144,-0.09881 0.93526,-0.72173 1.214,-0.39955c1.00669,1.16359 2.49791,-0.25971 3.39024,1.4326c1.38714,2.63073 1.86022,0.17428 6.15957,-2.69194c1.53728,-1.02487 2.71648,4.6541 3.07882,2.84237c0.24894,-1.2447 -2.56501,-6.74198 -2.95175,-8.17106c-1.4085,-5.20453 -3.5541,-4.52794 -6.4991,-7.20522z" fill="url(#color-1)"/><path d="M382.01975,239.81396c0,0 1.29787,-0.64084 2.15442,-0.49808c0.3736,0.06227 0.93647,0.37005 1.5443,0.41637c0.73451,0.05598 1.53467,-0.13832 2.14582,0.10232c0.59624,0.23476 1.01259,1.12225 1.01259,1.12225" fill="none"/><path d="M436.01974,173.95681c0,0 0.41636,-0.8875 1.0126,-1.12225c0.61115,-0.24061 1.4113,-0.04632 2.14581,-0.10232c0.60783,-0.04631 1.1707,-0.35408 1.5443,-0.41635c0.85655,-0.14275 2.15444,0.49807 2.15444,0.49807" fill="none"/><path d="M348.51974,185.31396c0,0 1.29789,-0.64082 2.15444,-0.49806c0.3736,0.06226 0.93647,0.37005 1.5443,0.41636c0.73451,0.05598 1.53465,-0.13832 2.14581,0.10231c0.59624,0.23476 1.01259,1.12226 1.01259,1.12226" fill="none"/><path d="M279.01974,201.45683c0,0 0.41636,-0.88752 1.0126,-1.12227c0.61115,-0.24061 1.4113,-0.04632 2.1458,-0.10232c0.60783,-0.04631 1.17071,-0.35409 1.54431,-0.41636c0.85655,-0.14275 2.15442,0.49808 2.15442,0.49808" fill="none"/><path d="M259.51974,162.81397c0,0 1.29789,-0.64082 2.15444,-0.49807c0.3736,0.06226 0.93647,0.37004 1.5443,0.41635c0.73451,0.05598 1.53466,-0.13833 2.14581,0.10231c0.59624,0.23476 1.0126,1.12227 1.0126,1.12227" fill="none"/><path d="M212.51973,271.81397c0,0 1.2979,-0.64083 2.15445,-0.49807c0.3736,0.06227 0.93647,0.37004 1.5443,0.41636c0.73451,0.05598 1.53465,-0.13833 2.14581,0.10231c0.59624,0.23476 1.01257,1.12226 1.01257,1.12226" fill="none"/></g><path d="M246.91667,248.08333v-110.66667h154v110.66667z" fill-opacity="0.01" fill="#000000" stroke="none" stroke-width="0" stroke-linecap="butt"/><path d="" fill="#000000" stroke="none" stroke-width="1" stroke-linecap="butt"/><path d="" fill="#000000" stroke="#000000" stroke-width="0.3" stroke-linecap="butt"/><path d="" fill="#000000" stroke="#000000" stroke-width="0.3" stroke-linecap="butt"/><path d="" fill="#000000" stroke="#000000" stroke-width="0.3" stroke-linecap="butt"/><path d="M249.6384,230.48826c0,0 -9.28013,-14.7457 -14.37048,-22.03033c-4.84393,-6.93197 -18.34269,-19.62151 -18.34269,-19.62151l5.29044,0.69531c0,0 9.74754,11.66985 14.41783,18.23107c4.66984,6.56059 14.63994,19.95279 14.63994,19.95279z" fill="#000000" stroke="none" stroke-width="0" stroke-linecap="butt"/><path d="M390.2897,260.73326c1.01362,-0.80392 2.08321,-1.70466 3.12308,-2.67109c7.25991,-6.74722 36.09834,-29.89109 36.09834,-29.89109l-5.1236,-27.12572l2.6378,-1.63234l4.68201,29.39605c0,0 -32.80897,26.84573 -39.05842,33.64959z" fill="#000000" stroke="none" stroke-width="0" stroke-linecap="butt"/><g fill="#000000" stroke="#000000" stroke-width="0.5" stroke-linecap="butt"><path d="M315.24034,188.73103l-40.29995,-111.7448l1.99952,-0.43726l40.29996,111.74481z"/><path d="M364.73776,60.37931c-6.94712,5.82214 -122.53733,102.69429 -122.53733,102.69429l-1.13992,-1.49034c0,0 116.22801,-97.87202 122.91361,-103.50177z"/><path d="M365.04611,75.41419l-4.07755,-29.10954l1.15531,-0.17869l4.07755,29.10954z"/><path d="M362.58996,75.81646l-4.07754,-29.10954l1.15532,-0.1787l4.07755,29.10954z"/><path d="M358.47371,87.57102l-0.69593,-3.18233c0,0 1.02214,-0.19931 0.99106,-1.09449c-0.08348,-2.40364 -1.19279,-7.60636 -0.4399,-10.67728c1.17256,-4.78264 9.94103,-4.98896 12.47248,-0.81437c1.1324,1.86745 0.69156,6.18452 1.42205,8.72641c0.6162,2.14415 2.12653,2.001 2.12653,2.001l-0.94095,2.16725c0,0 -1.629,-1.47352 -2.02944,-4.42952c-0.33126,-2.44535 -0.67779,-5.83665 -2.2872,-7.59818c-1.4035,-1.53615 -2.75416,-2.74396 -5.12609,-2.28571c-1.86234,0.3598 -3.01426,1.16784 -3.8826,2.81371c-1.6172,3.0653 -0.26488,8.56441 -0.20876,11.74344c0.03592,2.03461 -1.4013,2.63013 -1.4013,2.63013z"/><path d="M362.01346,89.98817c-0.54175,-4.13039 -1.50123,-11.50313 -1.74576,-13.36761c-0.27598,-2.10424 2.56657,-2.7158 4.90242,-2.97963c1.8679,-0.211 3.88881,0.01876 4.1095,1.7014c0.25935,1.97733 1.48522,11.32389 1.96789,15.00399c0.10213,0.77869 0.24457,1.48035 -0.51731,1.88701c-1.01088,0.53956 -2.8547,1.45699 -3.91273,1.57649c-1.03303,0.11668 -3.2151,0.45 -4.20864,-0.76041c-0.31859,-0.38812 -0.59539,-3.06125 -0.59539,-3.06125z"/></g><path d="" fill="#000000" stroke="#000000" stroke-width="0.3" stroke-linecap="butt"/><path d="" fill="#000000" stroke="#000000" stroke-width="0.3" stroke-linecap="butt"/><path d="" fill="#000000" stroke="#000000" stroke-width="0.3" stroke-linecap="butt"/><path d="" fill="#000000" stroke="#000000" stroke-width="0.3" stroke-linecap="butt"/><path d="" fill="#000000" stroke="#000000" stroke-width="0.3" stroke-linecap="butt"/><path d="" fill="#000000" stroke="#000000" stroke-width="0.3" stroke-linecap="butt"/><path d="" fill="#000000" stroke="#000000" stroke-width="0.3" stroke-linecap="butt"/><path d="" fill="#000000" stroke="#000000" stroke-width="0.3" stroke-linecap="butt"/><path d="" fill="#000000" stroke="#000000" stroke-width="0.3" stroke-linecap="butt"/><path d="" fill="#000000" stroke="#000000" stroke-width="0.3" stroke-linecap="butt"/><path d="" fill="#000000" stroke="#000000" stroke-width="0.3" stroke-linecap="butt"/><path d="" fill="#000000" stroke="#000000" stroke-width="0.3" stroke-linecap="butt"/><path d="" fill="#000000" stroke="#000000" stroke-width="0.3" stroke-linecap="butt"/><path d="" fill="#000000" stroke="#000000" stroke-width="0.3" stroke-linecap="butt"/><path d="" fill="#000000" stroke="#000000" stroke-width="0.3" stroke-linecap="butt"/><path d="" fill="#000000" stroke="#000000" stroke-width="0.3" stroke-linecap="butt"/><path d="" fill="#000000" stroke="#000000" stroke-width="0.3" stroke-linecap="butt"/><path d="" fill="#000000" stroke="#000000" stroke-width="0.3" stroke-linecap="butt"/><path d="" fill="#000000" stroke="#000000" stroke-width="0.3" stroke-linecap="butt"/><path d="" fill="#000000" stroke="#000000" stroke-width="0.3" stroke-linecap="butt"/><path d="M273.5922,253.42414l-19.66666,8.33333" fill="none" stroke="#000000" stroke-width="1.5" stroke-linecap="round"/><path d="M255.37543,250.52787l10.11111,6" fill="none" stroke="#000000" stroke-width="1.5" stroke-linecap="round"/><g><path d="M420.2613,203.77568c0,0 -11.36207,1.14715 -17.23104,1.58366c-6.80599,0.50621 -17.36338,-0.84447 -17.36338,-0.84447c0,0 0.79263,-1.11878 3.90943,-2.81442c2.37057,-1.28967 7.53437,-3.47448 10.4605,-4.99116c1.79078,-0.92819 1.67394,-2.48443 2.76876,-4.51527c1.38002,-2.55991 4.86499,-6.05716 9.7169,-8.55531c1.95606,-1.00713 3.68514,-1.39795 5.80685,-1.65323c2.31099,-0.27806 4.48388,-0.437 6.78856,0.17149c4.95197,1.30747 7.65856,4.93273 9.49622,6.98643c1.51648,1.69477 2.7027,2.11328 4.64915,2.56049c3.18049,0.73075 7.95558,1.83823 10.54581,2.48944c3.40562,0.85618 3.23388,1.76017 3.23388,1.76017c0,0 -8.33268,3.63357 -15.05618,4.86864c-5.79784,1.06501 -16.79068,2.87635 -16.79068,2.87635z" fill="#eced68" stroke="none" stroke-width="0" stroke-linecap="round"/><path d="M420.2613,203.77568c0,0 -11.16883,1.17273 -17.03781,1.60926c-6.80599,0.50621 -16.72644,-1.40991 -16.72644,-1.40991c0,0 0.73539,-0.47657 3.85219,-2.1722c1.38627,-0.75417 3.46342,-1.84945 5.53452,-2.9323c1.47056,-0.76887 4.15304,-2.1612 4.15304,-2.1612c0,0 -0.35534,4.42778 6.20599,5.14354c3.39158,0.36999 12.59323,-0.1463 20.26921,-0.47624c6.97617,-0.29986 12.55687,-1.19719 12.55687,-1.19719l-17.87283,3.51908z" fill="#8f8621" stroke="none" stroke-width="0" stroke-linecap="round"/><path d="M429.99475,194.75278c0.033,0.38166 -4.28455,2.18925 -9.11638,3.06297c-0.71707,0.12966 -1.44548,0.23876 -2.17268,0.31956c-3.09839,0.34432 -9.38211,0.50003 -12.93214,0.13214c-3.8644,-0.40048 -4.87248,-1.34393 -4.87248,-1.34393l3.48074,-6.35502c0,0 0.02891,4.89765 4.94742,6.0359c6.18417,1.43115 20.62388,-2.33307 20.6655,-1.85162z" fill="#8f8621" stroke="none" stroke-width="0" stroke-linecap="butt"/><path d="M435.10939,191.74085c0,0 0.1729,2.8818 -13.15295,5.5926c-10.63531,2.16348 -19.11608,0.41059 -19.11608,0.41059" fill="none" stroke="#524d14" stroke-width="0.75" stroke-linecap="round"/><path d="M420.2613,203.77568c0,0 -11.36927,1.53797 -16.93432,1.6134c-6.04856,0.082 -18.02749,-1.13946 -18.02749,-1.13946c0,0 4.42563,-2.92577 7.07181,-4.23927c2.46451,-1.22331 8.29911,-3.39042 8.29911,-3.39042c0,0 4.26273,-13.26447 17.6589,-14.63445c7.94632,-0.81264 12.07551,1.27966 16.94891,6.72604c1.51648,1.69477 3.98501,2.99238 3.98501,2.99238c0,0 7.06916,1.3522 9.65934,2.08258c2.29588,0.64741 5.10559,2.08091 5.10559,2.08091c0,0 -11.83376,3.81504 -17.68651,5.21103c-4.93343,1.17672 -15.14559,2.62007 -15.14559,2.62007z" fill="none" stroke="#000000" stroke-width="1.5" stroke-linecap="round"/></g><g><path d="M218.39671,193.42544c0,0 -11.60058,-1.28187 -17.5447,-2.02777c-6.89314,-0.86498 -16.92789,-3.35334 -16.92789,-3.35334c0,0 1.12919,-0.4682 4.73673,-0.85789c2.74382,-0.29639 8.52833,-0.60679 11.89202,-0.93225c2.05855,-0.19918 2.4222,-1.05411 4.13142,-1.96146c2.15448,-1.14372 6.68135,-2.43906 12.25363,-2.96975c2.24647,-0.21394 4.07845,-0.13496 6.25735,0.08236c2.37327,0.23671 4.57317,0.5143 6.66716,1.22589c4.49926,1.52895 6.062,3.92711 7.24858,5.33651c0.97919,1.16307 2.02454,1.58586 3.81359,2.15102c2.92331,0.92348 7.30906,2.31553 9.67257,3.09773c3.10753,1.02842 2.65911,1.48502 2.65911,1.48502c0,0 -9.36759,0.55886 -16.40355,0.09892c-6.06727,-0.39663 -17.50692,-1.26028 -17.50692,-1.26028z" fill="#eced68" stroke="none" stroke-width="0" stroke-linecap="round"/><path d="M218.39671,193.42544c0,0 -11.41719,-1.23586 -17.36131,-1.98176c-6.89314,-0.86498 -16.12323,-3.5505 -16.12323,-3.5505c0,0 0.87474,-0.13301 4.48228,-0.5227c1.60454,-0.17332 3.99804,-0.41437 6.38172,-0.64975c1.6925,-0.16713 4.7767,-0.46654 4.7767,-0.46654c0,0 -1.71544,2.31758 4.55917,3.79768c3.24336,0.76507 12.51108,2.02478 20.21111,3.12969c6.99804,1.00418 12.79874,1.45456 12.79874,1.45456l-18.77609,-1.09598z" fill="#8f8621" stroke="none" stroke-width="0" stroke-linecap="round"/><path d="M230.81071,190.20743c-0.08488,0.21039 -4.91552,0.45964 -9.96762,0.12166c-0.74977,-0.05016 -1.50442,-0.11326 -2.24915,-0.19133c-3.17313,-0.33265 -9.44133,-1.29857 -12.84219,-2.08899c-3.70203,-0.86041 -4.40936,-1.53524 -4.40936,-1.53524l5.40283,-2.83016c0,0 -1.47977,2.63398 3.03849,4.06651c5.68092,1.80114 21.13407,2.19214 21.027,2.45755z" fill="#8f8621" stroke="none" stroke-width="0" stroke-linecap="butt"/><path d="M236.80131,189.44481c0,0 -0.71639,1.57589 -14.74249,0.80543c-11.19419,-0.6149 -19.04943,-2.97234 -19.04943,-2.97234" fill="none" stroke="#524d14" stroke-width="0.75" stroke-linecap="round"/><path d="M218.39671,193.42544c0,0 -11.72809,-1.07327 -17.26014,-1.96224c-6.01271,-0.96621 -17.49443,-3.62262 -17.49443,-3.62262c0,0 5.282,-0.83145 8.306,-1.0946c2.81637,-0.24508 9.25946,-0.43394 9.25946,-0.43394c0,0 8.30491,-6.40868 21.98767,-4.9067c8.11633,0.89094 11.55941,2.70379 14.70619,6.44147c0.97919,1.16307 3.02314,2.27194 3.02314,2.27194c0,0 6.5813,1.90658 8.92036,2.73127c2.07331,0.731 4.41312,1.9698 4.41312,1.9698c0,0 -12.88918,0.07152 -19.11275,-0.1566c-5.246,-0.19229 -15.79953,-1.12309 -15.79953,-1.12309z" fill="none" stroke="#000000" stroke-width="1.5" stroke-linecap="round"/></g><path d="M221.90106,180.9672c0,0 0.40474,-1.84831 0.47946,-2.86398c0.09839,-1.33733 0.05968,-4.46389 0.05968,-4.46389l2.14516,0.2751c0,0 -0.56619,2.69216 -0.90263,3.94591c-0.29458,1.09778 -0.5894,3.15031 -0.5894,3.15031z" fill="#000000" stroke="#000000" stroke-width="0.5" stroke-linecap="butt"/><path d="M417.35362,182.0135c0,0 0.3276,-1.48425 0.21366,-2.58085c-0.15003,-1.44391 -0.83437,-4.80236 -0.83437,-4.80236l2.71855,0.15793c0,0 -0.15488,2.93036 -0.31732,4.29971c-0.14223,1.199 -0.05846,3.24625 -0.05846,3.24625z" fill="#000000" stroke="#000000" stroke-width="1.5" stroke-linecap="butt"/><path d="M242.36963,272.88792c-5.24651,-6.13148 -17.4371,-20.17133 -17.4371,-20.17133l1.34343,-15.30357l2.05682,0.38576l-1.44422,14.38576c0,0 12.19003,15.60183 16.69581,19.23492c2.18797,1.7642 -1.21473,1.46846 -1.21473,1.46846z" fill="#000000" stroke="none" stroke-width="0" stroke-linecap="butt"/><g><g><path d="M225.79247,247.96158c0,0 -8.8079,-2.21858 -13.31503,-3.47524c-5.22674,-1.45727 -12.75278,-5.23247 -12.75278,-5.23247c0,0 0.89731,-0.58187 3.68949,-0.95259c2.12368,-0.28196 6.57962,-0.45332 9.18051,-0.748c1.59173,-0.18036 1.92814,-1.31515 3.29975,-2.46317c1.72891,-1.44709 5.28698,-2.99721 9.59505,-3.47399c1.7368,-0.19222 3.13607,-0.00794 4.79201,0.37722c1.80366,0.41952 3.47163,0.88667 5.02917,1.93323c3.3466,2.24869 4.38318,5.54184 5.19798,7.48864c0.67238,1.60655 1.44538,2.2199 2.77898,3.05648c2.1791,1.36696 5.44789,3.42662 7.20731,4.57967c2.31327,1.51599 1.9387,2.11124 1.9387,2.11124c0,0 -7.21985,0.35311 -12.58337,-0.56528c-4.6251,-0.79195 -13.33777,-2.441 -13.33777,-2.441z" fill="#eced68" stroke="none" stroke-width="0" stroke-linecap="round"/><path d="M225.79247,247.96158c0,0 -8.67037,-2.14888 -13.17752,-3.40552c-5.22674,-1.45727 -12.12257,-5.46349 -12.12257,-5.46349c0,0 0.67963,-0.14172 3.47181,-0.51244c1.24189,-0.16488 3.09324,-0.3873 4.93668,-0.60251c1.30892,-0.1528 3.69377,-0.42433 3.69377,-0.42433c0,0 -1.47139,3.04517 3.23967,5.30373c2.43516,1.16745 9.45592,3.25689 15.28514,5.07133c5.29778,1.64902 9.71488,2.50195 9.71488,2.50195l-14.32192,-2.27397z" fill="#8f8621" stroke="none" stroke-width="0" stroke-linecap="round"/><path d="M235.52723,244.1604c-0.07925,0.27946 -3.79974,0.40915 -7.65045,-0.26068c-0.57147,-0.0994 -1.14581,-0.21642 -1.71154,-0.35318c-2.41045,-0.58265 -7.15125,-2.14912 -9.70546,-3.35738c-2.7804,-1.31527 -3.27724,-2.25333 -3.27724,-2.25333l4.33308,-3.57784c0,0 -1.31202,3.48092 2.05564,5.60068c4.23425,2.66522 16.05594,3.8492 15.95597,4.20173z" fill="#8f8621" stroke="none" stroke-width="0" stroke-linecap="butt"/><path d="M240.17166,243.38936c0,0 -0.65545,2.08978 -11.35745,0.45601c-8.54124,-1.3039 -14.40507,-4.81016 -14.40507,-4.81016" fill="none" stroke="#524d14" stroke-width="0.75" stroke-linecap="round"/><path d="M225.79247,247.96158c0,0 -8.9197,-1.94337 -13.10127,-3.37496c-4.54488,-1.55598 -13.16902,-5.61888 -13.16902,-5.61888c0,0 4.10577,-0.89381 6.44203,-1.11912c2.17584,-0.20984 7.12854,-0.18963 7.12854,-0.18963c0,0 6.79924,-8.26904 17.18871,-5.66564c6.16283,1.54427 8.68051,4.12997 10.84133,9.29283c0.67238,1.60655 2.16479,3.18552 2.16479,3.18552c0,0 4.91746,2.8454 6.65527,4.05459c1.54037,1.0718 3.25085,2.83816 3.25085,2.83816c0,0 -9.88705,-0.45251 -14.64334,-1.02439c-4.00919,-0.48206 -12.03793,-2.18372 -12.03793,-2.18372z" fill="none" stroke="#000000" stroke-width="1.5" stroke-linecap="round"/></g><path d="M229.5432,231.66161c0,0 0.51613,-1.03627 0.62123,-1.86452c0.13839,-1.09057 0.20007,-3.68614 0.20007,-3.68614l2.08154,0.5946c0,0 -0.6373,2.13244 -1.005,3.11308c-0.32195,0.85865 -0.61824,2.38222 -0.61824,2.38222z" fill="#000000" stroke="#000000" stroke-width="1.5" stroke-linecap="butt"/></g><g fill="#81782d" stroke="none" stroke-width="0.5" stroke-linecap="butt"><path d="M393.10974,257.32494c0.17166,-0.15284 0.33862,0.01412 0.33862,0.01412c0.2201,0.25309 0.30937,0.6707 0.19705,0.98674c-0.00685,0.01929 -0.01714,0.03934 -0.03024,0.05992c-0.02265,0.20583 -0.12866,0.40253 -0.33868,0.57629c0.41357,0.12237 0.60647,0.85521 0.32513,1.14812c-0.25016,0.26045 -1.43202,-0.07657 -1.08327,0.01719c0.76522,0.20572 0.67762,0.82284 0.3488,1.24809c0.25691,0.07781 0.53525,0.28616 0.79908,-0.03634c0.50061,-0.61193 1.81952,-2.3433 3.98503,-4.29012c2.90536,-2.61194 7.47746,-7.35453 7.47746,-7.35453c0,0 -6.3755,10.09841 -6.61259,11.23046c-0.46022,2.19741 -1.85573,2.99378 -3.95804,2.85131c-3.58538,-0.04287 -5.7844,-1.18067 -5.82223,-5.11629c-0.00002,-3.22967 3.12214,-2.56122 4.37387,-1.33495z"/><path d="M430.56821,218.67372c-0.32241,0.00917 -0.35597,0.25438 -0.28915,0.52659c0.01031,-0.05494 0.04333,-0.1128 0.12159,-0.15901c0.21527,-0.12712 0.34239,0.08816 0.34239,0.08816c0.01241,0.02211 0.02451,0.04389 0.03629,0.06532c0.08274,-0.17362 0.01573,-0.52751 -0.21112,-0.52106zM429.37936,213.97833c-1.41762,-2.7075 -1.95642,-5.22601 -1.95642,-5.22601c0,0 5.97491,9.81072 5.75511,10.24809l-0.14218,0.22007c0.43845,1.07689 -2.04898,-2.17193 -3.6565,-5.24215zM430.48789,219.67775c0.00059,-0.00282 0.00124,-0.00565 0.00193,-0.00846c-0.03112,-0.05172 -0.06797,-0.11175 -0.1112,-0.1808c0.03332,0.07747 0.06954,0.15098 0.10397,0.21531c0.0014,-0.00905 0.00322,-0.01776 0.0053,-0.02605z"/><path d="M414.55073,239.59248c-0.03395,-0.32074 -0.28102,-0.33533 -0.54728,-0.24777c0.05557,0.00606 0.1158,0.03451 0.1679,0.10899c0.1433,0.20486 -0.06155,0.34815 -0.06155,0.34815c-0.0211,0.01408 -0.04187,0.02782 -0.06233,0.04122c0.17947,0.06913 0.52715,-0.02491 0.50326,-0.25059zM418.4883,236.09025c2.59039,-1.62176 5.05998,-2.35276 5.05998,-2.35276c0,0 -9.32186,6.71213 -9.77486,6.52663l-0.23036,-0.12483c-1.03996,0.52002 2.00783,-2.21004 4.94524,-4.04905zM413.54348,239.58966c0.00286,0.00038 0.00573,0.0008 0.00859,0.00127c0.04917,-0.03501 0.10618,-0.07636 0.1717,-0.12478c-0.07468,0.03918 -0.14518,0.08095 -0.20667,0.12023c0.00914,0.0007 0.01797,0.00184 0.02639,0.00328z"/></g><path d="M248.33757,220.92449c-0.27761,0.1642 -0.18818,0.39499 0.00213,0.60075c-0.01759,-0.05306 -0.01674,-0.11967 0.02934,-0.19801c0.12675,-0.21549 0.34223,-0.08873 0.34223,-0.08873c0.02157,0.01333 0.04271,0.02652 0.0634,0.03956c-0.01173,-0.19196 -0.24178,-0.46911 -0.4371,-0.35357zM243.51549,218.79899c-2.55176,-1.68188 -4.24316,-3.62415 -4.24316,-3.62415c0,0 9.97961,5.68834 9.99919,6.17745l-0.01778,0.26141c0.90525,0.7297 -2.84466,-0.9075 -5.73826,-2.8147zM248.75368,221.84176c-0.00085,-0.00276 -0.00165,-0.00554 -0.00241,-0.00834c-0.05228,-0.03017 -0.11359,-0.06483 -0.18487,-0.1043c0.06667,0.05163 0.13397,0.09839 0.19526,0.13799c-0.00315,-0.0086 -0.00579,-0.0171 -0.00798,-0.02535z" fill="#888139" stroke="none" stroke-width="0.5" stroke-linecap="butt"/><path d="M248.33757,220.92449c-0.27761,0.1642 -0.18818,0.39499 0.00213,0.60075c-0.01759,-0.05306 -0.01674,-0.11967 0.02934,-0.19801c0.12675,-0.21549 0.34223,-0.08873 0.34223,-0.08873c0.02157,0.01333 0.04271,0.02652 0.0634,0.03956c-0.01173,-0.19196 -0.24178,-0.46911 -0.4371,-0.35357zM243.51549,218.79899c-2.55176,-1.68188 -4.24316,-3.62415 -4.24316,-3.62415c0,0 9.97961,5.68834 9.99919,6.17745l-0.01778,0.26141c0.90525,0.7297 -2.84466,-0.9075 -5.73826,-2.8147zM248.75368,221.84176c-0.00085,-0.00276 -0.00165,-0.00554 -0.00241,-0.00834c-0.05228,-0.03017 -0.11359,-0.06483 -0.18487,-0.1043c0.06667,0.05163 0.13397,0.09839 0.19526,0.13799c-0.00315,-0.0086 -0.00579,-0.0171 -0.00798,-0.02535z" fill="#888139" stroke="none" stroke-width="0.5" stroke-linecap="butt"/><path d="M248.33757,220.92449c-0.27761,0.1642 -0.18818,0.39499 0.00213,0.60075c-0.01759,-0.05306 -0.01674,-0.11967 0.02934,-0.19801c0.12675,-0.21549 0.34223,-0.08873 0.34223,-0.08873c0.02157,0.01333 0.04271,0.02652 0.0634,0.03956c-0.01173,-0.19196 -0.24178,-0.46911 -0.4371,-0.35357zM243.51549,218.79899c-2.55176,-1.68188 -4.24316,-3.62415 -4.24316,-3.62415c0,0 9.97961,5.68834 9.99919,6.17745l-0.01778,0.26141c0.90525,0.7297 -2.84466,-0.9075 -5.73826,-2.8147zM248.75368,221.84176c-0.00085,-0.00276 -0.00165,-0.00554 -0.00241,-0.00834c-0.05228,-0.03017 -0.11359,-0.06483 -0.18487,-0.1043c0.06667,0.05163 0.13397,0.09839 0.19526,0.13799c-0.00315,-0.0086 -0.00579,-0.0171 -0.00798,-0.02535z" fill="#888139" stroke="none" stroke-width="0.5" stroke-linecap="butt"/><path d="M247.68634,227.94155c-0.38551,-0.19205 -0.50674,-0.09326 -0.51788,0.07983c0.03048,-0.02043 0.08886,-0.02845 0.19704,-0.00322c0.29758,0.06939 0.37688,0.25155 0.37688,0.25155c0.00738,0.01832 0.01451,0.03628 0.02137,0.05388c0.1558,-0.034 0.19383,-0.24692 -0.07741,-0.38205zM245.29672,223.95791c-0.78258,-2.18059 -0.58541,-3.73363 -0.58541,-3.73363c0,0 3.82996,8.41225 3.42397,8.49096l-0.24175,0.02035c0.16252,0.79089 -1.7094,-2.30497 -2.59681,-4.77767zM247.25768,228.38082c0.00164,-0.00101 0.00335,-0.00198 0.0051,-0.00293c-0.01975,-0.04412 -0.04353,-0.09576 -0.07188,-0.15569c0.0138,0.05797 0.03236,0.11579 0.05185,0.16807c0.00468,-0.00354 0.00971,-0.00668 0.01493,-0.00944z" fill="#888139" stroke="none" stroke-width="0.5" stroke-linecap="butt"/><path d="M391.11841,257.38953c0.37435,-0.09932 0.76758,-0.15224 1.17317,-0.15224c0.56367,0 1.58924,0.81175 1.54547,1.88954c-0.03171,0.78082 -1.27799,1.82004 -0.52545,2.22009c1.13343,0.60251 2.83339,-0.44668 4.47066,-0.1757c0.2682,0.04439 1.66253,1.34734 2.1322,1.61168c0.97769,0.55024 3.60314,-0.48444 5.57986,0.47317c1.97672,0.95761 3.50149,3.82368 3.88712,4.11309" fill="none" stroke="#000000" stroke-width="1.5" stroke-linecap="butt"/><path d="M228.05865,274.93266c0.21643,-0.15972 0.46627,-0.30728 0.74786,-0.438c0.39134,-0.18165 1.45861,-0.1927 1.8999,0.24558c0.3197,0.31751 -0.09076,1.12815 0.60679,1.04307c1.05059,-0.12815 1.77164,-1.08891 3.02693,-1.50991c0.20563,-0.06896 1.74388,-0.00553 2.18564,-0.05286c0.91958,-0.09853 2.28953,-1.35185 4.08098,-1.61201c1.79145,-0.26016 4.10434,0.3764 4.49873,0.36602" fill="none" stroke="#000000" stroke-width="1.5" stroke-linecap="butt"/><g stroke="none" stroke-linecap="butt"><path d="M348.17005,234.24731c0.54507,-1.16343 1.0967,-2.43766 1.59231,-3.75701c3.4601,-9.21113 7.31152,-22.8005 9.2501,-31.68026c3.10637,-14.22891 4.23431,-46.51574 4.23431,-46.51574l5.55812,0.4992c0,0 -1.90852,5.99797 -3.25684,14.38698c-1.62616,10.1176 -2.87608,23.51368 -4.73364,31.44333c-2.36853,10.1108 -7.23032,27.29537 -9.76209,36.10843z" fill="#000000" stroke-width="0"/><path d="M347.57819,229.75234c0.10737,-0.20149 0.32214,-0.1038 0.32214,-0.1038c0.29467,0.15948 0.52431,0.5172 0.52959,0.85004c0.00032,0.02031 -0.00231,0.04252 -0.00737,0.0662c0.05074,0.19933 0.02022,0.41896 -0.11577,0.65316c0.43021,-0.02896 0.86713,0.58628 0.706,0.95598c-0.14328,0.32873 -1.36823,0.42329 -1.00876,0.39009c0.78876,-0.07286 0.92247,0.53158 0.76313,1.04081c0.26787,-0.01632 0.60144,0.08142 0.73583,-0.30977c0.25501,-0.74226 0.88517,-2.80866 2.23305,-5.3679c1.80841,-3.4336 4.4332,-9.42523 4.4332,-9.42523c0,0 -2.44154,11.59769 -2.26784,12.73288c0.33718,2.20349 -0.69165,3.42639 -2.71083,4.01986c-3.37366,1.1983 -5.83145,0.89905 -7.24294,-2.74974c-1.12924,-3.00501 2.02921,-3.46127 3.63055,-2.75258z" fill="#81782d" stroke-width="0.5"/><path d="M356.86386,207.09989c-0.22646,-0.22832 -0.42872,-0.08717 -0.58232,0.14522c0.04722,-0.02959 0.11205,-0.04464 0.19919,-0.01892c0.23971,0.07076 0.16886,0.30856 0.16886,0.30856c-0.00772,0.02396 -0.0154,0.04747 -0.02305,0.07051c0.18341,-0.05704 0.39664,-0.34473 0.23731,-0.50539zM357.75972,201.94767c1.01456,-2.85925 2.48983,-4.95164 2.48983,-4.95164c0,0 -3.10502,10.97021 -3.5748,11.10564l-0.25791,0.04517c-0.48899,1.04603 0.19242,-2.95688 1.34288,-6.19917zM356.07457,207.71937c0.00247,-0.00148 0.00498,-0.00292 0.00751,-0.00431c0.01662,-0.05756 0.03542,-0.12489 0.05648,-0.20296c-0.03397,0.07654 -0.06306,0.15253 -0.08665,0.221c0.00759,-0.00509 0.01519,-0.00965 0.02268,-0.01373z" fill="#81782d" stroke-width="0.5"/></g><path d="M342.21841,230.69746c0.30875,-0.07187 0.63308,-0.11018 0.96761,-0.11018c0.4649,0 1.31077,0.58742 1.27468,1.36736c-0.02616,0.56503 -1.05406,1.31707 -0.43338,1.60656c0.93484,0.43601 2.33693,-0.32324 3.68732,-0.12714c0.2212,0.03212 1.37122,0.97499 1.75861,1.16628c0.80638,0.39818 2.97181,-0.35057 4.60217,0.3424c1.63036,0.69297 2.88797,2.76699 3.20603,2.97642" fill="none" stroke="#000000" stroke-width="1.5" stroke-linecap="butt"/><g><g><path d="M362.24197,157.90599c0,0 -17.14182,-2.34919 -25.32477,-3.76988c-9.48939,-1.6475 -28.0776,-5.50304 -28.0776,-5.50304c0,0 8.166,-1.60055 12.94794,-2.38725c3.63706,-0.59835 10.34344,-1.59965 14.81044,-2.25901c2.73377,-0.40352 4.39739,-0.80916 6.50486,-2.59657c2.65649,-2.25305 7.86382,-5.79904 15.26571,-6.87477c2.98408,-0.43368 4.72968,-0.58104 7.71697,-0.17009c3.25378,0.44762 5.0366,1.14728 8.01751,2.52629c6.40492,2.96304 10.28417,7.47613 12.19352,10.2271c1.57564,2.27017 3.07854,3.09084 5.61597,4.18528c4.14619,1.78831 10.36799,4.48412 13.72797,5.99958c4.41768,1.9925 11.89535,5.64348 11.89535,5.64348c0,0 -18.95396,-1.06514 -28.54739,-1.91885c-8.27264,-0.73618 -25.44087,-2.88402 -25.44087,-2.88402z" fill="#eced68" stroke="none" stroke-width="0" stroke-linecap="round"/><path d="M362.24197,157.90599c0,0 -17.14182,-2.34919 -25.32477,-3.76988c-9.48939,-1.6475 -28.0776,-5.50304 -28.0776,-5.50304c0,0 8.166,-1.60055 12.94794,-2.38725c2.12689,-0.34989 5.3034,-0.8376 8.46789,-1.31414c2.24691,-0.33836 6.34254,-0.94487 6.34254,-0.94487c0,0 -1.80724,4.54792 6.98226,7.40359c4.54332,1.4761 17.32285,3.88051 27.9534,5.99232c9.66138,1.91927 17.4548,3.62554 17.4548,3.62554l-25.44087,-2.88402z" fill="#8f8621" stroke="none" stroke-width="0" stroke-linecap="round"/><path d="M378.28647,151.52463c-0.06848,0.41239 -6.53135,0.9323 -13.42151,0.30418c-1.02255,-0.09322 -2.05452,-0.21171 -3.07639,-0.3596c-7.68692,-1.11248 -17.4497,-4.13342 -20.94099,-4.71315c-2.86813,-0.47626 -1.95533,-1.3197 -0.91364,-2.50418c2.23535,-2.54176 9.1285,-5.97905 9.1285,-5.97905c0,0 -6.0925,5.80642 0.31696,8.58058c8.05877,3.48801 28.99345,4.15099 28.90707,4.67123z" fill="#8f8621" stroke="none" stroke-width="0" stroke-linecap="butt"/><path d="M377.87874,152.1267c0,0 -3.08106,0.46606 -8.91279,0.25064c-7.73582,-0.28574 -12.08767,-1.18013 -19.55939,-3.20448" fill="none" stroke="#524d14" stroke-width="0.75" stroke-linecap="round"/><path d="M362.24197,157.90599c0,0 -17.14182,-2.34919 -25.32477,-3.76988c-9.48939,-1.6475 -28.0776,-5.50304 -28.0776,-5.50304c0,0 8.166,-1.60055 12.94794,-2.38725c3.63706,-0.59835 10.34344,-1.59965 14.81044,-2.25901c2.73377,-0.40352 4.39739,-0.80916 6.50486,-2.59657c2.65649,-2.25305 7.86382,-5.79904 15.26571,-6.87477c2.98408,-0.43368 4.72968,-0.58104 7.71697,-0.17009c3.25378,0.44762 5.0366,1.14728 8.01751,2.52629c6.40492,2.96304 10.28417,7.47613 12.19352,10.2271c1.57564,2.27017 3.07854,3.09084 5.61597,4.18528c4.14619,1.78831 10.36799,4.48412 13.72797,5.99958c4.41768,1.9925 11.89535,5.64348 11.89535,5.64348c0,0 -18.95396,-1.06514 -28.54739,-1.91885c-8.27264,-0.73618 -25.44087,-2.88402 -25.44087,-2.88402z" fill="none" stroke="#000000" stroke-width="1.5" stroke-linecap="round"/></g><path d="M364.2726,133.88365c0,0 0.30454,-2.18025 0.30058,-3.36511c-0.00522,-1.56015 -0.32919,-5.18362 -0.32919,-5.18362l2.51304,0.12766c0,0 -0.41653,3.17356 -0.69491,4.65798c-0.24375,1.29975 -0.38023,3.99709 -0.38023,3.99709z" fill="#000000" stroke="#000000" stroke-width="1.5" stroke-linecap="butt"/><path d="M376.42859,140.22941c5.27634,3.12972 7.68124,6.67766 7.48583,7.02517c-0.19541,0.34753 -2.7528,-2.7545 -8.02914,-5.88422c-5.27634,-3.12972 -8.7837,-4.39889 -8.5883,-4.74642c0.19541,-0.34753 3.85524,0.47573 9.1316,3.60546z" fill="#faefbe" stroke="none" stroke-width="0" stroke-linecap="butt"/><path d="M404.90314,158.6229c0,0 -8.2019,-1.72663 -12.44525,-4.07992c-4.24335,-2.35328 -7.26972,-4.35292 -7.07839,-4.69793c0.19133,-0.34499 2.94077,1.14265 7.18413,3.49594c4.24335,2.35328 12.33951,5.2819 12.33951,5.2819z" fill="#faefbe" stroke="none" stroke-width="0" stroke-linecap="butt"/><g stroke-linecap="butt"><path d="M379.68623,147.64785c0.70678,-2.60853 3.4809,-4.22838 6.34577,-3.57876c2.86485,0.64963 4.51196,3.26959 3.9143,5.90529c-0.59765,2.63567 -3.20152,4.41213 -6.34222,3.74009c-2.98738,-0.63923 -4.65598,-3.34238 -3.91785,-6.0666z" fill="#ffffff" stroke="#000000" stroke-width="1.4"/><path d="M382.15541,148.25622c0.34429,-1.51837 1.85428,-2.47015 3.37268,-2.12586c1.51837,0.34429 2.47016,1.85429 2.12587,3.37268c-0.34429,1.51837 -1.85428,2.47015 -3.37266,2.12586c-1.51837,-0.34429 -2.47016,-1.85429 -2.12587,-3.37268z" fill="#000000" stroke="none" stroke-width="1.5"/></g><g stroke-linecap="butt"><path d="M338.44295,142.49426c0.6358,-2.62672 3.69818,-4.22307 6.58327,-3.52475c2.88508,0.69833 4.34425,3.39148 3.70845,6.01821c-0.6358,2.62672 -3.29577,4.23406 -6.18086,3.53574c-2.88508,-0.69833 -4.74665,-3.40247 -4.11087,-6.02921z" fill="#ffffff" stroke="#000000" stroke-width="1.4"/><path d="M340.81922,143.0999c0.35852,-1.48115 1.84984,-2.39122 3.33098,-2.03271c1.48115,0.35852 2.39123,1.84985 2.03272,3.33099c-0.35852,1.48115 -1.84984,2.39122 -3.33098,2.03271c-1.48115,-0.35852 -2.39123,-1.84985 -2.03272,-3.33099z" fill="#000000" stroke="none" stroke-width="1.5"/></g></g><path d="M283.30221,239.51931c0,0 6.43101,-15.10247 8.67494,-23.43797c2.68875,-9.98789 6.36577,-31.23356 6.36577,-31.23356l8.65343,-2.74487l5.61503,-1.1106l10.06597,0.89118l8.29605,3.85542l5.18245,3.67466c0,0 -3.08706,19.16597 -3.50851,28.06085c-0.42541,8.97819 0.96781,25.5607 0.96781,25.5607z" fill="url(#color-2)" stroke="none" stroke-width="0" stroke-linecap="butt"/><path d="M289.56183,223.5781c0.96391,-2.70024 1.83139,-5.32763 2.41532,-7.49676c2.68875,-9.98789 6.36577,-31.23356 6.36577,-31.23356l8.65343,-2.74487l5.61503,-1.1106l10.06597,0.89118l8.29605,3.85542l5.18245,3.67466c0,0 -3.08706,19.16597 -3.50851,28.06085c-0.02139,0.45152 0.04999,3.21503 0.13969,6.36172" fill="none" stroke="#000000" stroke-width="1.5" stroke-linecap="butt"/><path d="M260.92044,296.88108l-5.07928,-35.91179c0,0 7.44052,-2.73987 11.02175,-4.48268c6.44867,-3.13825 24.59097,-11.93386 24.59097,-11.93386l13.01891,37.67023c0,0 -22.56532,10.99353 -30.38094,13.23094c-6.11212,1.74975 -13.1714,1.42717 -13.1714,1.42717z" fill="url(#color-3)" stroke="none" stroke-width="0" stroke-linecap="butt"/><path d="M250.21571,246.18226l21.36535,-34.32706c0,0 3.89472,1.97323 8.55655,4.94854c5.34123,3.40892 11.48637,7.74256 14.98258,9.78664c7.17122,4.1927 17.53801,9.17699 17.53801,9.17699l-14.71535,34.97706c0,0 -22.9644,-8.6094 -36.23682,-16.78181c-6.22983,-3.83598 -11.49033,-7.78036 -11.49033,-7.78036z" fill="url(#color-4)" stroke="none" stroke-width="0" stroke-linecap="butt"/><path d="M295.3172,284.82415c0,0 -1.51202,-5.99345 -1.5673,-13.00079c-0.06926,-8.78064 -0.10568,-17.06412 1.48794,-24.17804c1.36568,-6.09639 3.76908,-11.33389 10.17061,-15.28929c4.53339,-2.80111 10.33238,-2.76009 14.38759,-3.55813c0.78271,-0.15404 9.11408,3.01295 16.68991,6.16177c7.31569,3.0407 13.75506,6.6359 13.75506,6.6359l-25.45714,52.62858c0,0 -10.24957,-3.01445 -15.08342,-4.55647c-4.98379,-1.58985 -14.38325,-4.84352 -14.38325,-4.84352z" fill="url(#color-5)" stroke="none" stroke-width="0" stroke-linecap="butt"/><path d="M273.96015,236.4949c-4.22419,9.97337 -15.26432,15.99714 -21.26652,12.52929c-6.00221,-3.46785 -5.94358,-13.3641 -1.71938,-23.33747c4.22419,-9.97337 14.26432,-16.49714 20.26653,-13.02929c6.00221,3.46785 6.94358,13.8641 2.71938,23.83747z" fill="#e2e05f" stroke="#000000" stroke-width="1.5" stroke-linecap="butt"/><path d="M278.42554,279.17413c0,10.26329 -6.74052,18.08333 -16.08334,18.08333c-9.34281,0 -15.75,-7.15338 -15.75,-17.41667c0,-10.26329 2.90719,-18.91667 12.25,-18.91667c9.34281,0 19.58334,7.98671 19.58334,18.25z" fill="#f7f787" stroke="#000000" stroke-width="1.5" stroke-linecap="butt"/><path d="M303.93099,231.41675c0,0 -10.00618,-5.12752 -14.93491,-8.04147c-5.86916,-3.46994 -18.95398,-11.30297 -18.95398,-11.30297" fill="none" stroke="#000000" stroke-width="1.5" stroke-linecap="round"/><path d="M366.3798,267.00765c-0.51677,14.95653 -15.22262,28.7 -30.3,28.7c-15.07738,0 -27.7,-12.12719 -27.7,-26.1c0,-6.46271 2.68435,-14.5863 8.13671,-20.16189c6.336,-6.47922 16.05951,-10.43811 24.16329,-10.43811c15.07738,0 26.3,10.63455 25.7,28z" fill="#f7f787" stroke="#000000" stroke-width="1.5" stroke-linecap="butt"/><path d="M267.0922,296.59081c5.7269,0.69624 26.90305,-8.84963 31.13986,-10.72971c0.49349,-0.21898 25.62205,7.944 25.62205,7.944" fill="none" stroke="#000000" stroke-width="1.5" stroke-linecap="round"/><path d="M344.97774,238.73475c0,0 -7.56358,-2.98564 -9.36964,-3.82095" fill="none" stroke="#000000" stroke-width="1.5" stroke-linecap="round"/></g></g></svg>