<svg version="1.1" xmlns="http://www.w3.org/2000/svg" xmlns:xlink="http://www.w3.org/1999/xlink" width="130.91438" height="45.83424" viewBox="0,0,130.91438,45.83424"><defs><linearGradient x1="548.8476" y1="301.21153" x2="548.8476" y2="321.32053" gradientTransform="translate(-1365.52361,-755.01987) scale(2.80411,2.38703)" gradientUnits="userSpaceOnUse" id="color-1"><stop offset="0" stop-color="#ffffff"/><stop offset="1" stop-color="#fdff9d"/></linearGradient><linearGradient x1="539.09264" y1="320.89155" x2="539.09264" y2="337.93385" gradientTransform="translate(-1610.25679,-939.83831) scale(3.30874,2.81658)" gradientUnits="userSpaceOnUse" id="color-2"><stop offset="0" stop-color="#ffffff"/><stop offset="1" stop-color="#fdff9d"/></linearGradient><linearGradient x1="459.33967" y1="321.23634" x2="459.33967" y2="340.81183" gradientUnits="userSpaceOnUse" id="color-3"><stop offset="0" stop-color="#000000" stop-opacity="0"/><stop offset="1" stop-color="#000000" stop-opacity="0.54118"/></linearGradient><linearGradient x1="459.05293" y1="297.31403" x2="459.05293" y2="335.11788" gradientUnits="userSpaceOnUse" id="color-4"><stop offset="0" stop-color="#1c1c00" stop-opacity="0.55294"/><stop offset="1" stop-color="#1c1c00" stop-opacity="0"/></linearGradient><linearGradient x1="459.33967" y1="321.48634" x2="459.33967" y2="341.06183" gradientUnits="userSpaceOnUse" id="color-5"><stop offset="0" stop-color="#000000" stop-opacity="0"/><stop offset="1" stop-color="#000000" stop-opacity="0.54118"/></linearGradient><linearGradient x1="446.90139" y1="309.61442" x2="466.64043" y2="312.78705" gradientUnits="userSpaceOnUse" id="color-6"><stop offset="0" stop-color="#ffffff"/><stop offset="1" stop-color="#ffffff" stop-opacity="0.24706"/></linearGradient><linearGradient x1="459.33967" y1="297.47757" x2="459.33967" y2="340.81183" gradientUnits="userSpaceOnUse" id="color-7"><stop offset="0" stop-color="#ffff94"/><stop offset="1" stop-color="#cccc48"/></linearGradient></defs><g transform="translate(-422.25624,-296.22757)"><g stroke-miterlimit="10"><text transform="translate(486.97303,316.30048) scale(0.35662,0.41893)" font-size="40" xml:space="preserve" fill="url(#color-1)" fill-rule="nonzero" stroke="none" stroke-width="1" stroke-linecap="butt" stroke-linejoin="miter" font-family="&quot;Allan-Bold&quot;, Sans Serif" font-weight="normal" text-anchor="start"><tspan x="0" dy="0">Zwizzle who?</tspan></text><path d="M422.25624,318.60181c0,-2.02211 1.63925,-3.66135 3.66136,-3.66135c2.02211,0 3.66135,1.63924 3.66135,3.66135c0,2.02211 -1.63924,3.66135 -3.66135,3.66135c-2.02211,0 -3.66136,-1.63924 -3.66136,-3.66135z" fill="#feffce" fill-rule="nonzero" stroke="none" stroke-width="0" stroke-linecap="butt" stroke-linejoin="miter"/><text transform="translate(486.66791,333.6802) scale(0.30223,0.35504)" font-size="40" xml:space="preserve" fill="url(#color-2)" fill-rule="nonzero" stroke="none" stroke-width="1" stroke-linecap="butt" stroke-linejoin="miter" font-family="&quot;Allan-Regular&quot;, Sans Serif" font-weight="normal" text-anchor="start"><tspan x="0" dy="0">see the Z</tspan></text><path d="M446.27967,297.47757h26.12002c5.10646,0 9.21741,3.99835 9.21741,8.96489v25.40446c0,4.96655 -4.11096,8.96489 -9.21741,8.96489h-26.12002c-5.10644,0 -9.21743,-3.99836 -9.21743,-8.96489v-25.40445c0,-4.96655 4.11099,-8.96489 9.21743,-8.96489z" fill="#6e6e30" fill-rule="evenodd" stroke="none" stroke-width="4.43922" stroke-linecap="round" stroke-linejoin="round"/><path d="M481.61712,331.84694c0,4.96655 -4.11097,8.96489 -9.21742,8.96489h-26.12002c-5.10644,0 -9.21742,-3.99835 -9.21742,-8.96489v-10.61059c8.88121,0.04533 18.3634,0.13124 27.11866,0.13175c5.81207,0.00033 11.62414,-0.00626 17.43622,-0.01044z" fill="url(#color-3)" fill-rule="nonzero" stroke="none" stroke-width="4.43922" stroke-linecap="butt" stroke-linejoin="miter"/><path d="M446.11113,297.8523c0,0 -3.95964,3.70779 -4.09603,8.09547c-0.19541,6.28641 -0.35704,13.96842 -2.08069,14.1409c-1.63048,0.16315 -1.52495,-6.62113 -1.80971,-12.71206c-0.07558,-1.61665 -0.20529,-3.18203 -0.34631,-4.56079c0.69899,-0.5495 1.1887,-1.35322 1.32983,-2.27183c0.70529,-0.3159 1.28992,-0.85299 1.66564,-1.52301c0.84661,-0.12983 1.59569,-0.55574 2.1382,-1.16868z" fill="#ffff94" fill-rule="nonzero" stroke="none" stroke-width="0" stroke-linecap="butt" stroke-linejoin="miter"/><path d="M444.04016,317.03787c0,0 3.29817,12.54174 0.42005,12.73425c-2.9218,0.19543 -0.42005,-12.73425 -0.42005,-12.73425z" fill="#ffff94" fill-rule="nonzero" stroke="none" stroke-width="0" stroke-linecap="butt" stroke-linejoin="miter"/><path d="M441.35042,300.80523l16.68562,-0.26339c0,0 -2.74147,2.73672 -3.82729,5.81487c-1.11809,3.16961 -0.63207,6.68534 -4.2431,6.83004c-4.13447,0.08676 -3.91499,-4.08944 -5.05403,-7.51727c-0.90704,-2.72964 -3.56119,-4.86426 -3.56119,-4.86426z" fill="#ffff94" fill-rule="nonzero" stroke="none" stroke-width="0" stroke-linecap="butt" stroke-linejoin="miter"/><path d="M477.57568,304.90361c-1.60054,0.67543 -3.96763,-1.48848 -6.91859,-1.65333c-1.27215,-0.07106 -2.57984,1.8352 -4.10209,1.84568c-2.37621,0.01636 -2.77581,-1.70215 -5.64315,-1.68143c-3.83109,0.02767 -1.9662,-2.05769 -4.66479,-2.20763c-0.2105,-0.0117 -12.09039,3.36848 -12.29426,3.36232c-1.47129,-0.04447 -0.95386,1.59008 -0.86276,3.3116c0.09987,1.88741 -0.18234,3.86489 -1.03703,3.50194c-0.39917,-0.16951 -0.17725,-1.25056 -0.40584,-2.29199c-0.11612,-0.529 -0.66779,-0.99457 -0.82196,-1.43428c-0.68671,-1.95834 -1.49179,-4.46127 -2.0578,-6.04812c0.166,-0.32895 1.63072,-1.91736 2.00645,-2.58738c0.41466,-0.06359 1.71834,-0.91299 2.94815,-1.25171c1.2811,-0.35286 2.25208,-0.29763 3.6465,-0.34671c3.32318,-0.11695 7.98224,-0.00061 10.85947,-0.00061c3.21364,0 9.02795,-0.21076 12.82358,-0.08838c2.67982,0.0864 3.81462,0.3138 3.81462,0.3138c0.42745,0.29623 1.17856,0.70685 1.71327,0.79429c0.26197,0.17859 0.54883,0.32338 0.85432,0.42807c0.42648,0.61973 1.04279,1.0987 1.76499,1.35297c0.14999,0.24363 0.32828,0.46797 0.53033,0.66842c0.16966,0.48567 0.44085,0.92369 0.78812,1.28864c0.05751,0.16501 0.12674,0.32452 0.20668,0.47754c-0.64613,0.81931 -1.64014,1.60988 -3.14822,2.2463z" fill="#ffff94" fill-rule="nonzero" stroke="none" stroke-width="0" stroke-linecap="butt" stroke-linejoin="miter"/><path d="M473.25214,305.54386c0,0 3.18427,9.3636 0.40555,9.50731c-2.8209,0.1459 -0.40555,-9.50731 -0.40555,-9.50731z" fill="#ffff94" fill-rule="nonzero" stroke="none" stroke-width="0" stroke-linecap="butt" stroke-linejoin="miter"/><path d="M481.55713,316.71485c0,0 -3.17665,-1.95851 -2.98175,-5.38249c0.16841,-2.9587 1.01483,-6.6149 1.76,-9.35887c0.05799,0.07107 0.11865,0.13989 0.18183,0.20628c0.14675,0.42106 0.3698,0.80636 0.6526,1.13935c0.07045,0.37251 0.1985,0.72464 0.37456,1.04679z" fill="#ffff94" fill-rule="nonzero" stroke="none" stroke-width="0" stroke-linecap="butt" stroke-linejoin="miter"/><path d="M481.42757,334.99603c-5.83743,-0.00419 -35.82934,0.0763 -44.7493,0.12184v-28.79979c0,-4.98822 4.12893,-9.00402 9.25766,-9.00402h26.234c5.12873,0 9.25764,4.0158 9.25764,9.00402z" fill="url(#color-4)" fill-rule="nonzero" stroke="none" stroke-width="4.43922" stroke-linecap="butt" stroke-linejoin="miter"/><path d="M481.61712,332.09694c0,4.96655 -4.11097,8.96489 -9.21742,8.96489h-26.12002c-5.10644,0 -9.21742,-3.99835 -9.21742,-8.96489v-10.61059c8.88121,0.04533 18.3634,0.13124 27.11866,0.13175c5.81207,0.00033 11.62414,-0.00626 17.43622,-0.01044z" fill="url(#color-5)" fill-rule="nonzero" stroke="none" stroke-width="4.43922" stroke-linecap="butt" stroke-linejoin="miter"/><g fill-rule="nonzero" stroke-linejoin="miter"><g stroke-width="0.7"><g fill="none" stroke="#1c1c00" stroke-linecap="round"><path d="M475.06323,324.46803l-21.37072,-9.8254"/><path d="M470.97911,327.70071l-18.74048,-8.61613"/><path d="M467.82599,330.21595l-15.12389,-6.95336"/><path d="M457.96191,311.14273l18.82268,8.65392"/><path d="M476.57366,314.94178l-13.56219,-6.23536"/><path d="M471.43409,309.8474l-13.61928,19.64263"/><path d="M460.6408,330.26065l12.73913,-18.37322"/><path d="M463.49816,330.51703l11.71999,-16.90335"/><path d="M466.28828,331.18307l10.60822,-15.29988"/><path d="M455.7913,328.03104l13.10972,-18.90771"/><path d="M453.97398,325.96199l12.04426,-17.37104"/><path d="M452.32105,323.89707l9.86703,-14.23089"/></g><path d="M457.84197,329.63243c0.89426,0.41114 4.22125,1.14562 7.20811,0.80935c3.95653,-0.44543 7.65688,-2.08111 7.65688,-2.08111c0,0 -12.79953,8.36098 -19.01164,10.1607c-0.39965,0.11578 -0.77463,0.67511 -1.18723,1.33721c-0.48336,-0.15574 -0.71317,0.76014 -1.24833,0.76014c-0.57599,0 -1.12921,0.66887 -1.64409,0.84818c-0.17139,-0.01777 -0.63107,-1.5983 -0.80716,-1.5983c-0.19979,0 -0.39683,0.01172 -0.59049,0.03452c0.61703,-1.18419 1.82389,-2.41841 1.70296,-2.89527c-1.22082,-4.81403 0.85937,-17.67085 0.85937,-17.67085c0,0 4.60191,9.16455 7.06162,10.29543zM451.90798,337.56549c1.38522,0.63687 10.18129,-4.83489 10.18129,-4.83489c0,0 -3.04916,0.79067 -6.5262,-1.06207c-3.45688,-1.84199 -3.91258,-3.73726 -3.91258,-3.73726c0,0 -1.20992,8.95956 0.25748,9.63422z" fill="#ffffb0" stroke="#1c1c00" stroke-linecap="butt"/><path d="M452.95797,314.21683c4.29813,-6.19905 12.97125,-8.83876 19.37196,-5.89596c6.40071,2.94279 8.10519,10.35371 3.80706,16.55275c-4.29813,6.19905 -12.97124,8.83876 -19.37195,5.89596c-6.40071,-2.94279 -8.10519,-10.3537 -3.80707,-16.55275zM458.16464,328.9422c4.92362,2.26369 13.05528,-0.15291 16.36154,-4.92141c3.30626,-4.7685 1.64685,-11.68663 -3.27677,-13.95031c-4.92362,-2.26369 -13.00896,0.0861 -16.31521,4.8546c-3.30625,4.7685 -1.69318,11.75344 3.23044,14.01713z" fill="#ffffb0" stroke="#1c1c00" stroke-linecap="butt"/><path d="M451.61818,317.46719c0,0 0.51387,9.49954 6.36028,12.16056c4.68178,2.13093 13.37707,-0.70432 13.37707,-0.70432c0,0 -2.7933,1.93807 -3.74097,2.47878c-0.89389,0.51002 -2.62098,1.44184 -2.62098,1.44184c0,0 -0.2879,-0.29811 -1.40677,-0.43328c-0.7294,-0.08812 -1.74782,-0.0541 -2.72753,-0.16396c-1.89401,-0.2124 -3.87754,-0.6232 -4.9903,-1.11509c-1.35478,-0.5989 -3.24532,-2.75431 -4.45023,-3.93235c-0.92431,-0.9037 -1.0824,-0.88129 -1.0824,-0.88129c0,0 0.24773,-3.03367 0.4345,-4.51071c0.19425,-1.53614 0.84731,-4.34018 0.84731,-4.34018z" fill="#ffffb0" stroke="none" stroke-linecap="butt"/><g fill="#333315" stroke="#000000" stroke-linecap="butt"><path d=""/><path d=""/></g></g><path d="M453.20211,302.99297c3.55927,0.84762 8.78901,4.04926 11.63169,9.501c2.10235,4.03192 0.38669,7.71296 0.38669,7.71296c0,0 -0.0092,-3.97322 -4.26669,-5.41468c-6.45536,-2.18559 -7.23219,0.7493 -10.36948,0.00217c-6.24238,-1.48658 -3.62459,-13.28803 2.61779,-11.80145z" fill="url(#color-6)" stroke="none" stroke-width="0" stroke-linecap="butt"/><g stroke="none" stroke-width="0" stroke-linecap="butt"><path d="M440.73358,310.11808c-0.1422,-0.67169 -0.28751,-1.33218 -0.2434,-1.94266c0.06802,-0.94102 0.44353,-1.80036 0.86535,-2.68766c0.43002,-0.90456 0.85512,-1.87567 1.59039,-2.60137c0.47483,-0.46866 1.11679,-0.77 1.74373,-1.07451c0.63418,-0.308 1.25453,-0.61729 1.94404,-0.76327c1.2658,-0.26799 2.25038,-0.05024 3.42836,0.2799c0.85694,0.24017 1.9613,0.46303 2.64231,0.97671c0.47002,0.35455 0.68535,0.86119 1.02665,1.33165c0.41513,0.57223 0.93155,1.13244 1.24054,1.82634c0.21525,0.48339 0.61759,0.94698 0.73161,1.4855c0.19707,0.93086 0.07249,2.0159 -0.03295,2.97913c-0.11473,1.04822 -0.23949,1.96814 -0.74752,2.80021c-0.50427,0.82593 -1.36511,1.26162 -2.1222,1.85636c-0.89177,0.70052 -1.81307,1.183 -2.99743,1.43374c-1.27231,0.26938 -2.40775,0.13586 -3.56547,-0.19948c-1.11023,-0.32159 -2.25145,-0.82265 -3.07234,-1.61419c-0.76405,-0.73674 -1.26025,-1.71948 -1.70199,-2.74651c-0.19669,-0.4573 -0.62261,-0.83426 -0.72967,-1.33992z" fill="#fcff63"/><path d="M444.18685,302.0588c0.76567,0.72553 1.44941,1.479 1.68661,2.57794c0.42151,1.89058 -0.53864,3.86609 -1.46034,5.43613c-0.58842,1.00288 -1.45836,1.87252 -2.5159,2.32363c-0.1309,-0.25854 -0.25339,-0.52453 -0.3714,-0.79426c0.57876,-0.53698 1.1245,-1.12079 1.54498,-1.75679c0.91795,-1.06652 1.64089,-3.0345 1.35678,-4.44221c-0.22324,-1.01132 -0.43582,-2.046 -1.10971,-2.83045c0.26725,-0.19493 0.56407,-0.35956 0.86898,-0.514z" fill="#1c1c00"/><path d="M453.73101,303.63688c0.1415,0.19506 0.29478,0.38871 0.4476,0.58674c-0.72943,0.67451 -1.00439,1.9469 -1.4361,2.74869c-0.41502,1.60433 -0.67032,2.64609 0.04014,4.21285c0.45974,0.78208 0.90416,1.60416 1.41643,2.36226c-0.38184,0.32464 -0.81472,0.59852 -1.22764,0.90636c-0.65812,-1.22227 -1.31623,-2.44454 -1.97434,-3.66681c-0.83677,-1.55409 -0.1115,-3.58408 0.74752,-4.96215c0.47121,-0.75837 1.10014,-1.7194 1.90288,-2.30705c0.02709,0.03989 0.05486,0.07963 0.0835,0.11912z" fill="#1c1c00"/></g></g><path d="M446.27967,297.47757h26.12002c5.10646,0 9.21741,3.99835 9.21741,8.96489v25.40446c0,4.96655 -4.11096,8.96489 -9.21741,8.96489h-26.12002c-5.10644,0 -9.21743,-3.99836 -9.21743,-8.96489v-25.40445c0,-4.96655 4.11099,-8.96489 9.21743,-8.96489z" fill="none" fill-rule="evenodd" stroke="url(#color-7)" stroke-width="2.5" stroke-linecap="round" stroke-linejoin="round"/></g></g></svg>