<svg version="1.1" xmlns="http://www.w3.org/2000/svg" xmlns:xlink="http://www.w3.org/1999/xlink" width="178.07966" height="45.83424" viewBox="0,0,178.07966,45.83424"><defs><linearGradient x1="549.8494" y1="247.18104" x2="549.8494" y2="267.28994" gradientTransform="translate(-1368.32772,-626.04398) scale(2.80411,2.38703)" gradientUnits="userSpaceOnUse" id="color-1"><stop offset="0" stop-color="#ffffff"/><stop offset="1" stop-color="#fdff9d"/></linearGradient><linearGradient x1="540.09313" y1="266.86105" x2="540.09313" y2="283.90326" gradientTransform="translate(-1613.56553,-787.6529) scale(3.30874,2.81658)" gradientUnits="userSpaceOnUse" id="color-2"><stop offset="0" stop-color="#ffffff"/><stop offset="1" stop-color="#fdff9d"/></linearGradient><linearGradient x1="460.33967" y1="267.1697" x2="460.33967" y2="286.74519" gradientUnits="userSpaceOnUse" id="color-3"><stop offset="0" stop-color="#000000" stop-opacity="0"/><stop offset="1" stop-color="#000000" stop-opacity="0.54118"/></linearGradient><linearGradient x1="460.05293" y1="243.24741" x2="460.05293" y2="281.05121" gradientUnits="userSpaceOnUse" id="color-4"><stop offset="0" stop-color="#1c1c00" stop-opacity="0.55294"/><stop offset="1" stop-color="#1c1c00" stop-opacity="0"/></linearGradient><linearGradient x1="460.33967" y1="267.4197" x2="460.33967" y2="286.99519" gradientUnits="userSpaceOnUse" id="color-5"><stop offset="0" stop-color="#000000" stop-opacity="0"/><stop offset="1" stop-color="#000000" stop-opacity="0.54118"/></linearGradient><linearGradient x1="460.33967" y1="243.41093" x2="460.33967" y2="286.74519" gradientUnits="userSpaceOnUse" id="color-6"><stop offset="0" stop-color="#ffff94"/><stop offset="1" stop-color="#cccc48"/></linearGradient></defs><g transform="translate(-423.25624,-242.16093)"><g stroke-miterlimit="10"><text transform="translate(487.97303,262.26861) scale(0.35662,0.41893)" font-size="40" xml:space="preserve" fill="url(#color-1)" fill-rule="nonzero" stroke="none" stroke-width="1" stroke-linecap="butt" stroke-linejoin="miter" font-family="&quot;Allan-Bold&quot;, Sans Serif" font-weight="normal" text-anchor="start"><tspan x="0" dy="0">YOU DID IT WOW!</tspan></text><path d="M423.25624,264.56993c0,-2.02211 1.63925,-3.66135 3.66136,-3.66135c2.02211,0 3.66135,1.63924 3.66135,3.66135c0,2.02211 -1.63924,3.66135 -3.66135,3.66135c-2.02211,0 -3.66136,-1.63924 -3.66136,-3.66135z" fill="#feffce" fill-rule="nonzero" stroke="none" stroke-width="0" stroke-linecap="butt" stroke-linejoin="miter"/><text transform="translate(487.66791,279.64829) scale(0.30223,0.35504)" font-size="40" xml:space="preserve" fill="url(#color-2)" fill-rule="nonzero" stroke="none" stroke-width="1" stroke-linecap="butt" stroke-linejoin="miter" font-family="&quot;Allan-Regular&quot;, Sans Serif" font-weight="normal" text-anchor="start"><tspan x="0" dy="0">read the credits like a good boy</tspan></text><path d="M447.27967,243.41093h26.12002c5.10646,0 9.21741,3.99835 9.21741,8.96489v25.40446c0,4.96655 -4.11096,8.96489 -9.21741,8.96489h-26.12002c-5.10644,0 -9.21743,-3.99836 -9.21743,-8.96489v-25.40445c0,-4.96655 4.11099,-8.96489 9.21743,-8.96489z" fill="#6e6e30" fill-rule="evenodd" stroke="none" stroke-width="4.43922" stroke-linecap="round" stroke-linejoin="round"/><path d="M482.61712,277.7803c0,4.96655 -4.11097,8.96489 -9.21742,8.96489h-26.12002c-5.10644,0 -9.21742,-3.99835 -9.21742,-8.96489v-10.61059c8.88121,0.04533 18.3634,0.13124 27.11866,0.13175c5.81207,0.00033 11.62414,-0.00626 17.43622,-0.01044z" fill="url(#color-3)" fill-rule="nonzero" stroke="none" stroke-width="4.43922" stroke-linecap="butt" stroke-linejoin="miter"/><path d="M447.11113,243.78566c0,0 -3.95964,3.70779 -4.09603,8.09547c-0.19541,6.28641 -0.35704,13.96842 -2.08069,14.1409c-1.63048,0.16315 -1.52495,-6.62113 -1.80971,-12.71206c-0.07558,-1.61665 -0.20529,-3.18203 -0.34631,-4.56079c0.69899,-0.5495 1.1887,-1.35322 1.32983,-2.27183c0.70529,-0.3159 1.28992,-0.85299 1.66564,-1.52301c0.84661,-0.12983 1.59569,-0.55574 2.1382,-1.16868z" fill="#ffff94" fill-rule="nonzero" stroke="none" stroke-width="0" stroke-linecap="butt" stroke-linejoin="miter"/><path d="M445.04016,262.97124c0,0 3.29817,12.54174 0.42005,12.73425c-2.9218,0.19543 -0.42005,-12.73425 -0.42005,-12.73425z" fill="#ffff94" fill-rule="nonzero" stroke="none" stroke-width="0" stroke-linecap="butt" stroke-linejoin="miter"/><path d="M442.35042,246.7386l16.68562,-0.26339c0,0 -2.74147,2.73672 -3.82729,5.81487c-1.11809,3.16961 -0.63207,6.68534 -4.2431,6.83004c-4.13447,0.08676 -3.91499,-4.08944 -5.05403,-7.51727c-0.90704,-2.72964 -3.56119,-4.86426 -3.56119,-4.86426z" fill="#ffff94" fill-rule="nonzero" stroke="none" stroke-width="0" stroke-linecap="butt" stroke-linejoin="miter"/><path d="M478.57568,250.83698c-1.60054,0.67543 -3.96763,-1.48848 -6.91859,-1.65333c-1.27215,-0.07106 -2.57984,1.8352 -4.10209,1.84568c-2.37621,0.01636 -2.77581,-1.70215 -5.64315,-1.68143c-3.83109,0.02767 -1.9662,-2.05769 -4.66479,-2.20763c-0.2105,-0.0117 -12.09039,3.36848 -12.29426,3.36232c-1.47129,-0.04447 -0.95386,1.59008 -0.86276,3.3116c0.09987,1.88741 -0.18234,3.86489 -1.03703,3.50194c-0.39917,-0.16951 -0.17725,-1.25056 -0.40584,-2.29199c-0.11612,-0.529 -0.66779,-0.99457 -0.82196,-1.43428c-0.68671,-1.95834 -1.49179,-4.46127 -2.0578,-6.04812c0.166,-0.32895 1.63072,-1.91736 2.00645,-2.58738c0.41466,-0.06359 1.71834,-0.91299 2.94815,-1.25171c1.2811,-0.35286 2.25208,-0.29763 3.6465,-0.34671c3.32318,-0.11695 7.98224,-0.00061 10.85947,-0.00061c3.21364,0 9.02795,-0.21076 12.82358,-0.08838c2.67982,0.0864 3.81462,0.3138 3.81462,0.3138c0.42745,0.29623 1.17856,0.70685 1.71327,0.79429c0.26197,0.17859 0.54883,0.32338 0.85432,0.42807c0.42648,0.61973 1.04279,1.0987 1.76499,1.35297c0.14999,0.24363 0.32828,0.46797 0.53033,0.66842c0.16966,0.48567 0.44085,0.92369 0.78812,1.28864c0.05751,0.16501 0.12674,0.32452 0.20668,0.47754c-0.64613,0.81931 -1.64014,1.60988 -3.14822,2.2463z" fill="#ffff94" fill-rule="nonzero" stroke="none" stroke-width="0" stroke-linecap="butt" stroke-linejoin="miter"/><path d="M474.25214,251.47724c0,0 3.18427,9.3636 0.40555,9.50731c-2.8209,0.1459 -0.40555,-9.50731 -0.40555,-9.50731z" fill="#ffff94" fill-rule="nonzero" stroke="none" stroke-width="0" stroke-linecap="butt" stroke-linejoin="miter"/><path d="M482.55713,262.64822c0,0 -3.17665,-1.95851 -2.98175,-5.38249c0.16841,-2.9587 1.01483,-6.6149 1.76,-9.35887c0.05799,0.07107 0.11865,0.13989 0.18183,0.20628c0.14675,0.42106 0.3698,0.80636 0.6526,1.13935c0.07045,0.37251 0.1985,0.72464 0.37456,1.04679z" fill="#ffff94" fill-rule="nonzero" stroke="none" stroke-width="0" stroke-linecap="butt" stroke-linejoin="miter"/><path d="M482.42757,280.92936c-5.83743,-0.00419 -35.82934,0.0763 -44.7493,0.12184v-28.79979c0,-4.98822 4.12893,-9.00402 9.25766,-9.00402h26.234c5.12873,0 9.25764,4.0158 9.25764,9.00402z" fill="url(#color-4)" fill-rule="nonzero" stroke="none" stroke-width="4.43922" stroke-linecap="butt" stroke-linejoin="miter"/><path d="M482.61712,278.0303c0,4.96655 -4.11097,8.96489 -9.21742,8.96489h-26.12002c-5.10644,0 -9.21742,-3.99835 -9.21742,-8.96489v-10.61059c8.88121,0.04533 18.3634,0.13124 27.11866,0.13175c5.81207,0.00033 11.62414,-0.00626 17.43622,-0.01044z" fill="url(#color-5)" fill-rule="nonzero" stroke="none" stroke-width="4.43922" stroke-linecap="butt" stroke-linejoin="miter"/><path d="M447.27967,243.41093h26.12002c5.10646,0 9.21741,3.99835 9.21741,8.96489v25.40446c0,4.96655 -4.11096,8.96489 -9.21741,8.96489h-26.12002c-5.10644,0 -9.21743,-3.99836 -9.21743,-8.96489v-25.40445c0,-4.96655 4.11099,-8.96489 9.21743,-8.96489z" fill="none" fill-rule="evenodd" stroke="url(#color-6)" stroke-width="2.5" stroke-linecap="round" stroke-linejoin="round"/><path d="M442.82894,267.25605c0,-7.77165 7.30692,-14.07182 16.32046,-14.07182c9.01354,0 16.32046,6.30017 16.32046,14.07182c0,7.77165 -7.30692,14.07182 -16.32046,14.07182c-9.01354,0 -16.32046,-6.30017 -16.32046,-14.07182z" fill="#fcff63" fill-rule="nonzero" stroke="none" stroke-width="0" stroke-linecap="butt" stroke-linejoin="miter"/><path d="M444.60465,262.75406c-0.06497,-2.88527 1.51335,-5.99686 3.55157,-7.75181c0.82259,-0.70925 2.06873,-1.28239 2.49966,-2.24236c0.19149,-0.42658 -0.12815,-0.98955 0.17697,-1.36374c1.17747,-1.44408 3.63714,0.77599 4.28155,2.0018c0.62572,-2.59787 3.6864,-5.03939 6.67675,-5.25514c1.79333,-0.12939 6.08956,-0.24773 5.30752,1.75075c-1.13392,0.68343 -1.88754,1.68488 -2.7318,2.61464c-0.06855,0.07549 -0.13671,0.17695 -0.20787,0.27853c0.28951,-0.13942 0.5784,-0.26331 0.59645,-0.26712c0.58769,-0.12397 1.97321,-0.06866 2.55444,-0.01425c0.64768,0.06063 3.36172,1.12587 3.2814,1.85643c-0.04631,0.42123 -1.06987,0.80394 -1.22731,1.29949c0.91,1.68833 2.45497,2.18905 3.59564,3.63178c2.20437,2.78811 2.59155,5.47111 2.52268,8.78581c-2.40347,4.31779 -7.55395,7.42202 -13.35269,6.50417c-2.80126,-0.44876 -5.35154,-1.58161 -8.1001,-2.19248c-1.25981,-0.27999 -2.65622,-0.21768 -3.79651,-0.83181c-1.59264,-0.85775 -3.01765,-3.23037 -4.12347,-4.52506c-1.18479,-1.53266 -1.62032,-2.32364 -1.62032,-4.204z" fill="#fcff63" fill-rule="nonzero" stroke="none" stroke-width="0.5" stroke-linecap="butt" stroke-linejoin="miter"/><path d="M467.10055,272.64357c0.48515,0 0.48515,0.4183 0.48515,0.4183l-0.00488,0.46081c-0.30997,1.81992 -1.4607,2.79991 -3.52949,3.16257c0,0 -0.47572,0.08204 -0.57087,-0.32814c-0.09515,-0.41018 0.38058,-0.49222 0.38058,-0.49222c1.66235,-0.28115 2.52409,-0.99413 2.75924,-2.46052l-0.00488,-0.34249c0,0 0,-0.4183 0.48515,-0.4183z" fill="#1c1c00" fill-rule="nonzero" stroke="none" stroke-width="0.5" stroke-linecap="butt" stroke-linejoin="miter"/><path d="M468.96388,273.98224c-0.34369,0 -0.4439,-0.20993 -0.47312,-0.33235c-0.78438,-0.63935 -1.19536,-0.57693 -2.34319,-0.37866c0,0 -0.47572,0.08204 -0.57087,-0.32814c-0.09515,-0.41018 0.38058,-0.49222 0.38058,-0.49222c1.50225,-0.25864 2.24713,-0.2304 3.34965,0.71687l0.14209,0.39619c0,0 0,0.4183 -0.48515,0.4183z" fill="#1c1c00" fill-rule="nonzero" stroke="none" stroke-width="0.5" stroke-linecap="butt" stroke-linejoin="miter"/><path d="M467.20106,277.3067c0.43393,0.18707 0.21696,0.56121 0.21696,0.56121l-0.31088,0.4988c-0.43971,0.23456 -0.91947,0.43559 -1.4254,0.52761c0,0 -0.47572,0.08203 -0.57087,-0.32815c-0.09515,-0.41018 0.38058,-0.49222 0.38058,-0.49222c0.31419,-0.05027 0.62548,-0.14025 0.90376,-0.27568l0.15495,-0.30451c0,0 0.21696,-0.37414 0.65089,-0.18707z" fill="#1c1c00" fill-rule="nonzero" stroke="none" stroke-width="0.5" stroke-linecap="butt" stroke-linejoin="miter"/><path d="M450.89506,270.42277l0.04594,0.01711c0.81501,-0.52218 0.24955,-1.9817 -0.5057,-2.42769c-1.06168,-0.62695 -2.36507,0.06684 -3.10593,0.70984c0,0 -0.04011,0.03458 -0.10661,0.06827c0.11256,0.41273 0.36305,0.80189 0.78363,1.14977c0,0 0.01123,0.00968 0.0276,0.0273c0.73336,0.31779 1.59887,0.53475 2.56602,0.67023c0.09112,-0.15623 0.29505,-0.21484 0.29505,-0.21484zM455.93088,262.98138c-0.55448,-0.35308 -1.24394,-0.41976 -1.94672,-0.39534c-0.13582,0.49725 -0.03477,0.96911 0.24476,1.31751c0.28054,0.10878 0.51838,0.19695 0.76519,0.2643c0.37757,0.0508 0.74035,0.04604 1.14001,-0.06372c0.03827,-0.02342 0.08367,-0.045 0.13536,-0.05897c0.01875,-0.02288 0.0449,-0.05106 0.07846,-0.07865c-0.11431,-0.33238 -0.25383,-0.66193 -0.41706,-0.98513zM452.93742,261.82521c0.80024,-0.07636 1.58484,-0.11577 2.30978,0.01751c-0.66086,-0.9303 -1.38102,-1.44153 -2.6802,-1.93164c-0.05298,-0.00479 -0.15202,-0.0201 -0.24339,-0.06912c-3.6348,-0.63562 -5.49512,1.90261 -6.63248,4.50042c-0.49608,1.94241 -0.24219,3.35096 0.56846,4.34815c-0.43595,-2.91076 3.75844,-6.35258 6.67783,-6.86533zM456.87543,262.5849l0.2032,0.57726c0,0 0.00508,0.02628 0.00498,0.06669c1.39132,3.36682 0.4364,7.09236 -3.78209,8.41097c-5.88584,0.06289 -9.9598,-2.07432 -8.54053,-7.53563c1.34092,-3.10143 3.73167,-5.95016 8.09771,-5.01504c0,0 0.12072,0.02602 0.22459,0.10442c1.70835,0.66674 2.59833,1.46095 3.4768,2.97467c0.05673,0.0983 0.11142,0.1972 0.16404,0.29661c0.05108,0.03811 0.10152,0.0781 0.1513,0.12005z" fill="#1c1c00" fill-rule="nonzero" stroke="none" stroke-width="0.5" stroke-linecap="butt" stroke-linejoin="miter"/><path d="M465.06461,268.7787l0.16164,-0.09005c2.41169,-1.67239 -2.54991,-4.43621 -3.07114,-1.64693c0,0 -0.01458,0.06916 -0.06467,0.14562c0.09491,0.30228 0.21775,0.60131 0.3692,0.8939c0,0 0.03159,0.06129 0.04101,0.1457c0.45272,0.22603 0.96266,0.41281 1.53064,0.55273c0.30427,0.05963 0.59793,0.10473 0.8811,0.13603c0.06616,-0.08752 0.15222,-0.137 0.15222,-0.137zM470.47911,262.69588l0.00825,-0.00571c-0.17259,-0.91598 -0.5727,-1.67931 -1.35869,-2.09092c-0.2563,0.9282 0.01195,2.13532 1.35043,2.09663zM466.31676,259.55268c2.08751,-0.35886 3.39457,0.1034 4.17869,1.01196c-0.7317,-3.46502 -7.13217,-2.54441 -9.05011,-0.63114c-2.09299,2.40542 -2.26564,5.42367 -0.33483,7.31723c-0.94078,-3.32069 1.05775,-6.89659 5.20625,-7.69804zM471.29902,266.84366c0,0 -0.0377,0.26004 -0.29213,0.34274c-1.21455,1.9873 -3.61376,3.08143 -7.21424,2.40418c-5.42841,-1.33728 -6.36369,-6.43209 -3.10107,-10.1839c2.53699,-2.47569 9.77857,-3.171 10.75836,1.05494c0.05594,0.10173 0.05594,0.20083 0.05594,0.20083l-0.01797,-0.01753c0.00191,0.01046 0.00379,0.02094 0.00563,0.03146c0.20375,0.49197 0.27157,0.93091 0.3471,1.45192c0.23343,1.63169 0.06808,3.16424 -0.49933,4.42363z" fill="#1c1c00" fill-rule="nonzero" stroke="none" stroke-width="0.5" stroke-linecap="butt" stroke-linejoin="miter"/></g></g></svg>