<svg version="1.1" xmlns="http://www.w3.org/2000/svg" xmlns:xlink="http://www.w3.org/1999/xlink" width="287.16664" height="248.19595" viewBox="0,0,287.16664,248.19595"><defs><linearGradient x1="192.6971" y1="208.08962" x2="458.13865" y2="208.08962" gradientUnits="userSpaceOnUse" id="color-1"><stop offset="0" stop-color="#8a833c"/><stop offset="1" stop-color="#81782d"/></linearGradient><linearGradient x1="294.19755" y1="210.83354" x2="332.01049" y2="216.59934" gradientUnits="userSpaceOnUse" id="color-2"><stop offset="0" stop-color="#7f772e"/><stop offset="1" stop-color="#8b843d"/></linearGradient><linearGradient x1="256.00781" y1="269.64682" x2="304.47276" y2="269.64682" gradientUnits="userSpaceOnUse" id="color-3"><stop offset="0" stop-color="#7f772e"/><stop offset="1" stop-color="#8b843d"/></linearGradient><linearGradient x1="250.2157" y1="241.29982" x2="312.65819" y2="241.29982" gradientUnits="userSpaceOnUse" id="color-4"><stop offset="0" stop-color="#7f772e"/><stop offset="1" stop-color="#8b843d"/></linearGradient><radialGradient cx="296.63695" cy="252.27482" r="32.71582" gradientUnits="userSpaceOnUse" id="color-5"><stop offset="0" stop-color="#8b843d"/><stop offset="1" stop-color="#7f772e"/></radialGradient></defs><g transform="translate(-171.70911,-49.81151)"><g stroke-miterlimit="10"><path d="M246.91667,248.08334v-110.66667h154v110.66667z" fill-opacity="0.01" fill="#000000" stroke="none" stroke-width="0" stroke-linecap="butt"/><g stroke="#000000" stroke-width="1.5" stroke-linecap="round"><path d="M384.24338,126.09081c0,0 3.4194,2.18897 5.86939,1.1403c0.60467,-0.25881 6.26551,-5.87533 6.97744,-6.17312c1.63365,-0.68333 -1.56137,6.66061 0.38078,6.12056c1.02228,-0.28426 1.45247,0.73843 2.61268,0.42435c1.1721,-0.3173 -4.25186,5.01666 -2.95126,4.69447c0.36788,-0.09114 4.75424,0.7068 6.92635,2.62503c2.47533,2.18601 2.77197,5.52826 3.23881,5.40901c1.673,-0.42735 2.70402,-3.03516 4.4161,-3.72672c0.81547,-0.32939 5.30416,1.99878 6.13118,1.66023c1.12147,-0.45908 1.88619,-2.60003 2.9468,-3.10002c3.44928,-1.62605 3.29835,3.92193 6.80979,3.82531c1.00745,-0.02772 0.83909,-3.03591 1.59875,-2.97996c1.26286,0.09301 -0.12513,5.26242 1.94031,4.49654c9.55529,-3.54316 6.24257,1.38616 7.77393,2.39953c1.24323,0.82271 6.05439,-1.618 7.0341,0.16331c0.73917,1.34395 3.02871,9.17198 3.03146,14.02076c0.00133,2.32949 1.57941,5.25344 1.42413,8.02807c-0.12127,2.16694 0.36827,4.44308 0.14924,6.79224c-0.3683,3.95013 -6.49075,7.79402 -5.78278,11.96451c0.68185,4.0166 -1.15118,8.31118 -0.37847,11.5924c1.35955,5.77313 3.28783,9.61916 4.35405,13.32813c1.10882,3.85715 -5.74757,16.26809 -4.49343,18.79388c4.64311,9.351 3.38061,16.51642 6.35915,23.83211c0.69948,1.71802 6.98701,3.12939 7.51387,4.93964c0.42064,1.44525 -9.56844,3.88637 -15.2032,3.69463c-5.15706,-0.17548 -3.08005,-6.32265 -7.80562,-5.13474c-5.58967,1.40513 -9.8896,12.09455 -9.51028,13.3971c2.01832,6.93075 1.00071,12.99446 2.10665,16.17422c1.46844,4.22202 7.14055,6.24732 10.89235,7.14365c2.01312,0.48095 6.39148,1.44318 4.34044,1.72096c-5.32646,0.72139 -19.85342,1.34951 -26.74705,1.22827c-2.34453,-0.04123 -8.75976,1.04435 -11.5361,0.34575c-3.79082,-0.95387 -3.96675,-3.79351 -6.9033,-4.11049c-6.23706,-0.67326 -9.72856,1.17324 -16.45933,0.6782c-4.72487,-0.34751 -9.29569,1.3113 -14.41357,1.36817c-2.79225,0.03103 -6.68379,-1.58534 -8.68874,-1.56042c-4.57009,0.05681 -9.6842,1.13426 -10.60573,1.23817c-5.21176,0.58771 -14.25435,0.51183 -23.37239,0.61539c-2.50543,0.02846 -8.41804,0.34769 -11.04721,0.27934c-3.28114,-0.0853 -5.92647,4.10986 -13.66196,-1.77033c-2.24363,-1.70551 -3.43291,-0.26853 -5.65785,0.34324c-1.72424,0.47409 -4.4699,0.05315 -6.27888,-0.17863c-5.36412,-0.68728 -8.90064,-1.25175 -13.36854,-2.06381c-2.97318,-0.54039 -6.73025,-1.37615 -10.358,-1.75331c-4.18157,-0.43473 -9.30747,-0.46125 -13.33852,-0.68809c-2.65591,-0.14945 -7.89815,-0.30488 -10.37329,-0.46642c-0.90999,-0.05939 -5.13821,1.21311 -6.01693,1.1508c-1.14857,-0.08144 -8.26499,-2.83007 -9.34667,-2.91251c-1.63712,-0.12477 -2.86183,-4.57693 -4.33175,-4.6891c-3.52812,-0.26925 -5.22679,-0.50023 -7.6396,-0.68349c-1.76837,-0.13432 -3.20415,-0.90706 -4.25889,-0.98084c-2.11435,-0.14792 -5.84605,0.70146 -9.58944,0.89015c-2.92375,0.14738 -6.24462,-0.36826 -6.24462,-0.36826c0,0 -0.31075,-2.54117 2.42165,-3.49788c3.15443,-1.10447 -1.79022,-1.28162 3.3997,-3.09278c1.386,-0.48368 2.26266,-4.6683 3.9143,-5.2156c1.05471,-0.34951 5.49137,1.3134 6.6298,0.98603c1.68784,-0.48537 4.08827,-4.99275 5.42637,-3.82903c2.91138,2.53199 7.06466,-3.94694 10.10144,-4.57031c6.90776,-1.41799 12.2127,-1.7576 13.69645,-4.8203c0.2549,-0.52616 -8.54744,-4.74876 -14.91813,-9.85149c-3.82977,-3.06753 -4.3905,-5.1442 -5.98496,-7.37108c-0.97262,-1.3584 -3.79499,-3.60989 -3.71785,-3.74153c0.5692,-0.97134 3.86347,-2.76121 6.17078,-4.6766c4.27664,-3.55023 8.40995,-7.53175 8.40995,-7.53175c0,0 -2.59854,-1.52015 -3.93552,-2.3023c-1.64801,-0.96409 1.33279,-1.94706 2.92955,-2.99386c1.85179,-1.214 4.15183,-2.75442 5.4258,-3.73072c2.25602,-1.72887 5.61072,-5.06603 5.61072,-5.06603c0,0 -11.49153,-14.83494 -17.57247,-19.22408c-1.64548,-1.18768 -3.68944,0.07328 -3.66992,0.05354c0.81326,-0.82251 1.57913,-2.64852 3.05974,-4.68224c0.92962,-1.2769 2.54487,-2.83762 3.37102,-3.65351c3.07164,-3.0335 8.17404,-6.54808 10.60564,-9.63371c1.75423,-2.22608 0.12894,-5.97466 1.78668,-7.92625c5.78983,-6.81617 -0.16251,5.05972 5.07632,1.25906c1.65003,-1.19706 0.52307,-7.10597 3.72683,-10.56606c3.55946,-3.84425 3.05344,4.19252 7.28855,1.39154c1.76884,-1.16986 1.47392,-6.47467 4.15956,-10.2419c1.4398,-2.01964 2.42247,-0.58954 4.30586,-1.67007c1.59436,-0.91471 4.21204,-4.47872 4.39236,-4.66801c2.74367,-2.88017 -0.41246,3.91168 2.39265,4.91884c1.18207,0.42442 2.08368,-3.94921 3.34917,-3.16542c1.22962,0.76157 -0.50807,3.39646 0.76565,4.51796c1.44186,1.26954 4.95435,1.03771 6.49124,2.56896c1.41665,1.41144 -1.52188,7.94029 -0.17273,9.52222c1.02952,1.20713 2.1061,0.69353 3.19999,1.78611c1.13444,1.13308 0.95416,6.24139 2.0926,7.30525c2.11865,1.97984 0.34325,3.66958 2.35253,4.59736c2.0954,0.96754 4.06822,-1.35763 4.17162,-4.24667c0.13525,-3.77926 -1.74312,-8.52341 1.2495,-8.12397c3.03433,0.40501 5.49756,14.01965 5.49756,14.01965c0,0 0.17728,-10.43563 3.77985,-11.72572c1.61606,-0.57871 4.41829,-0.8955 6.3844,-1.58634c4.3857,-1.54103 -3.40643,-3.3936 2.08296,-5.09273c1.3803,-0.42724 2.83454,-9.909 4.91116,-7.24524c0.6389,0.81954 -0.5974,3.24331 2.05871,3.87273c2.22321,0.52683 2.70152,-5.96752 5.81831,-5.97661c1.95743,-0.0057 2.69979,4.74053 4.93962,5.98449c3.13713,1.7423 7.60898,0.14041 8.37645,-0.00258c2.52631,-0.47067 5.06631,-1.88143 7.57276,-3.56734c4.7903,-3.2221 9.45804,-7.44926 13.67337,-8.03967c1.87457,-0.26255 2.40013,1.82016 4.06554,3.38844c0.83751,0.78866 1.83875,-0.49052 2.81126,0.05328c1.46253,0.81781 2.86004,3.23527 3.53783,2.88102c2.89491,-1.51301 4.67156,-4.12656 6.73079,-5.74946c3.02994,-2.38793 0.6389,-1.0136 2.32268,-2.99875c1.49352,-1.76083 3.49907,-2.04818 5.23503,-4.01113c2.05667,-2.3256 3.73491,-6.19589 3.73491,-6.19589zM302.21004,176.20173c-2.40695,1.82611 12.37189,2.05067 12.37189,5.30496c0,4.35745 -13.54632,10.73061 -9.65762,12.10084c0.32475,0.11443 0.6572,0.21257 0.99633,0.29343c0.00385,0.00276 0.00738,0.0055 0.01058,0.00824c1.36993,1.17548 2.71123,1.66286 4.17872,2.9935c4.93523,4.47499 6.65607,10.81064 11.49908,15.21339c2.05854,1.87141 5.02043,2.44195 7.50516,3.357c1.20891,0.4452 1.83562,1.91784 2.49484,2.64301c0.65553,0.7211 -1.38649,-11.39764 0.47509,-12.92314c2.90051,-2.37686 10.04286,5.25881 11.3242,6.32762c1.30601,1.08938 3.03145,6.54731 3.98188,4.48316c3.77465,-8.19781 4.4309,4.71862 5.46933,2.64177c0.61983,-1.23967 -0.34195,-2.77004 -0.23065,-4.15155c0.04032,-0.50048 0.7015,-0.84596 0.67365,-1.34729c-0.08639,-1.555 -0.38179,-3.13491 -1.00202,-4.56346c-0.31522,-0.72601 -1.56323,-6.10674 -4.85749,-11.66077c-2.28141,-3.84641 -6.41154,-7.42901 -8.3197,-11.0355c-2.37601,-4.49074 -2.41021,-7.98485 -3.20806,-8.46356c-2.30829,-1.38497 -10.64836,-0.19872 -13.8304,-1.52335c-5.5627,-2.31564 -6.32782,-6.8218 -10.16715,-6.84279c-4.65601,-0.02546 -3.69518,3.56824 -8.66913,6.36614c-0.38743,0.21794 -0.73069,0.48034 -1.03856,0.77838zM261.75266,174.59895c-2.01565,-0.50392 -2.19815,1.67494 -3.659,2.86838c-0.97478,0.79635 -2.46437,-0.79167 -3.55234,-0.01306c-0.9455,0.67665 -1.53875,3.67915 -1.8408,4.83788c-0.36048,1.38285 -3.77259,0.24596 -2.79672,2.19771c0.77857,1.55713 3.03686,3.81939 4.87325,4.06776c0.89589,0.12116 1.92887,0.43139 2.82629,0.21741c0.41441,-0.09881 0.93527,-0.72173 1.21401,-0.39955c1.00668,1.16359 2.49791,-0.25971 3.39024,1.43261c1.38713,2.63073 1.8602,0.17428 6.15956,-2.69195c1.53729,-1.02487 2.71648,4.65409 3.07882,2.84237c0.24894,-1.2447 -2.565,-6.74197 -2.95175,-8.17106c-1.4085,-5.20454 -3.5541,-4.52794 -6.4991,-7.20522z" fill="url(#color-1)"/><path d="M382.01974,239.81397c0,0 1.2979,-0.64083 2.15444,-0.49807c0.3736,0.06227 0.93647,0.37003 1.5443,0.41636c0.73451,0.05598 1.53466,-0.13832 2.14581,0.10231c0.59624,0.23476 1.01259,1.12226 1.01259,1.12226" fill="none"/><path d="M436.01974,173.95682c0,0 0.41636,-0.8875 1.0126,-1.12226c0.61115,-0.24062 1.4113,-0.04632 2.14581,-0.10231c0.60783,-0.04632 1.1707,-0.3541 1.5443,-0.41636c0.85654,-0.14275 2.15444,0.49807 2.15444,0.49807" fill="none"/><path d="M348.51974,185.31397c0,0 1.2979,-0.64082 2.15444,-0.49807c0.3736,0.06226 0.93647,0.37004 1.5443,0.41636c0.73451,0.05598 1.53466,-0.13832 2.14581,0.10231c0.59624,0.23476 1.01259,1.12226 1.01259,1.12226" fill="none"/><path d="M279.01974,201.45682c0,0 0.41636,-0.8875 1.0126,-1.12226c0.61115,-0.24062 1.4113,-0.04632 2.14581,-0.10231c0.60783,-0.04632 1.1707,-0.3541 1.5443,-0.41636c0.85654,-0.14275 2.15444,0.49807 2.15444,0.49807" fill="none"/><path d="M259.51974,162.81397c0,0 1.2979,-0.64082 2.15444,-0.49807c0.3736,0.06226 0.93647,0.37004 1.5443,0.41636c0.73451,0.05598 1.53466,-0.13832 2.14581,0.10231c0.59624,0.23476 1.01259,1.12226 1.01259,1.12226" fill="none"/><path d="M212.51974,271.81397c0,0 1.2979,-0.64083 2.15444,-0.49807c0.3736,0.06227 0.93647,0.37003 1.5443,0.41636c0.73451,0.05598 1.53466,-0.13832 2.14581,0.10231c0.59624,0.23476 1.01259,1.12226 1.01259,1.12226" fill="none"/></g><path d="" fill="#000000" stroke="none" stroke-width="1" stroke-linecap="butt"/><path d="" fill="#000000" stroke="#000000" stroke-width="0.3" stroke-linecap="butt"/><path d="" fill="#000000" stroke="#000000" stroke-width="0.3" stroke-linecap="butt"/><path d="" fill="#000000" stroke="#000000" stroke-width="0.3" stroke-linecap="butt"/><path d="M250.78761,229.42414c0,0 -11.53591,-13.05677 -17.73404,-19.4255c-5.89808,-6.06041 -21.26596,-16.40783 -21.26596,-16.40783l5.33333,-0.16666c0,0 11.50135,9.9458 17.16829,15.6683c5.6664,5.72195 17.66505,17.3317 17.66505,17.3317z" fill="#000000" stroke="none" stroke-width="0" stroke-linecap="butt"/><path d="M390.28969,260.73326c1.01362,-0.80392 2.08321,-1.70466 3.12308,-2.67109c7.25991,-6.74722 36.09834,-29.89109 36.09834,-29.89109l-9.1236,-26.62572l3.6378,-0.63234l7.68201,27.89605c0,0 -32.80897,26.84573 -39.05842,33.64959z" fill="#000000" stroke="none" stroke-width="0" stroke-linecap="butt"/><g fill="#000000" stroke="#000000" stroke-width="0.5" stroke-linecap="butt"><path d="M304.72353,186.16104l-26.85842,-115.71349l2.0371,-0.19872l26.85843,115.7135z"/><path d="M368.99341,64.53234c-7.58449,4.9634 -133.77956,87.54738 -133.77956,87.54738l-0.95646,-1.61422c0,0 126.9462,-83.50177 134.24833,-88.30492z"/><path d="M367.52885,79.49889l-0.62072,-29.38718l1.16832,-0.04138l0.62072,29.38718z"/><path d="M365.04242,79.60908l-0.62071,-29.38718l1.16833,-0.04138l0.62072,29.38718z"/><path d="M359.57039,90.79703l-0.31628,-3.24215c0,0 1.0385,-0.07754 1.11307,-0.97015c0.2002,-2.39674 -0.28863,-7.6939 0.82071,-10.65478c1.72769,-4.61125 10.45943,-3.78341 12.48159,0.66028c0.90458,1.98782 -0.04165,6.22293 0.38438,8.83316c0.35938,2.2018 1.87606,2.23753 1.87606,2.23753l-1.18965,2.04134c0,0 -1.44411,-1.65512 -1.49362,-4.63771c-0.04095,-2.46735 0.01435,-5.87586 -1.37638,-7.81468c-1.21281,-1.69076 -2.41181,-3.04924 -4.82121,-2.87354c-1.89175,0.13795 -3.13083,0.8047 -4.18697,2.33684c-1.96697,2.8535 -1.27173,8.4736 -1.59042,11.63712c-0.20396,2.02468 -1.70132,2.44678 -1.70132,2.44678z"/><path d="M362.80082,93.61426c-0.05151,-4.16545 -0.13597,-11.59988 -0.1592,-13.48018c-0.02623,-2.1221 2.86857,-2.39461 5.21923,-2.3815c1.87975,0.01047 3.85953,0.47664 3.88051,2.17357c0.02466,1.99411 0.14118,11.42 0.18706,15.13134c0.00971,0.7853 0.06852,1.49885 -0.73596,1.81295c-1.06739,0.41675 -3.00643,1.11063 -4.07117,1.10469c-1.03958,-0.0058 -3.24572,0.0682 -4.08979,-1.2508c-0.27066,-0.42294 -0.2307,-3.11007 -0.2307,-3.11007z"/></g><path d="M283.3022,239.51931c0,0 6.43101,-15.10247 8.67494,-23.43797c2.68875,-9.98789 6.36577,-31.23356 6.36577,-31.23356l8.65343,-2.74487l5.61503,-1.1106l10.06597,0.89118l8.29605,3.85542l5.18245,3.67466c0,0 -3.08706,19.16597 -3.50851,28.06085c-0.42541,8.97819 0.96781,25.5607 0.96781,25.5607z" fill="url(#color-2)" stroke="none" stroke-width="0" stroke-linecap="butt"/><path d="M289.56182,223.5781c0.96391,-2.70024 1.83139,-5.32763 2.41532,-7.49676c2.68875,-9.98789 6.36577,-31.23356 6.36577,-31.23356l8.65343,-2.74487l5.61503,-1.1106l10.06597,0.89118l8.29605,3.85542l5.18245,3.67466c0,0 -3.08706,19.16597 -3.50851,28.06085c-0.02139,0.45152 0.04999,3.21503 0.13969,6.36172" fill="none" stroke="#000000" stroke-width="1.5" stroke-linecap="butt"/><path d="M260.92043,296.88108l-5.07928,-35.91179c0,0 7.44052,-2.73987 11.02175,-4.48268c6.44867,-3.13825 24.59097,-11.93386 24.59097,-11.93386l13.01891,37.67023c0,0 -22.56532,10.99353 -30.38094,13.23094c-6.11212,1.74975 -13.1714,1.42717 -13.1714,1.42717z" fill="url(#color-3)" stroke="none" stroke-width="0" stroke-linecap="butt"/><path d="M250.2157,246.18226l21.36535,-34.32706c0,0 3.89472,1.97323 8.55655,4.94854c5.34123,3.40892 11.48637,7.74256 14.98258,9.78664c7.17122,4.1927 17.53801,9.17699 17.53801,9.17699l-14.71535,34.97706c0,0 -22.9644,-8.6094 -36.23682,-16.78181c-6.22983,-3.83598 -11.49033,-7.78036 -11.49033,-7.78036z" fill="url(#color-4)" stroke="none" stroke-width="0" stroke-linecap="butt"/><path d="" fill="#000000" stroke="#000000" stroke-width="0.3" stroke-linecap="butt"/><path d="" fill="#000000" stroke="#000000" stroke-width="0.3" stroke-linecap="butt"/><path d="" fill="#000000" stroke="#000000" stroke-width="0.3" stroke-linecap="butt"/><path d="" fill="#000000" stroke="#000000" stroke-width="0.3" stroke-linecap="butt"/><path d="" fill="#000000" stroke="#000000" stroke-width="0.3" stroke-linecap="butt"/><path d="" fill="#000000" stroke="#000000" stroke-width="0.3" stroke-linecap="butt"/><path d="" fill="#000000" stroke="#000000" stroke-width="0.3" stroke-linecap="butt"/><path d="" fill="#000000" stroke="#000000" stroke-width="0.3" stroke-linecap="butt"/><path d="" fill="#000000" stroke="#000000" stroke-width="0.3" stroke-linecap="butt"/><path d="" fill="#000000" stroke="#000000" stroke-width="0.3" stroke-linecap="butt"/><path d="" fill="#000000" stroke="#000000" stroke-width="0.3" stroke-linecap="butt"/><path d="" fill="#000000" stroke="#000000" stroke-width="0.3" stroke-linecap="butt"/><path d="" fill="#000000" stroke="#000000" stroke-width="0.3" stroke-linecap="butt"/><path d="" fill="#000000" stroke="#000000" stroke-width="0.3" stroke-linecap="butt"/><path d="" fill="#000000" stroke="#000000" stroke-width="0.3" stroke-linecap="butt"/><path d="" fill="#000000" stroke="#000000" stroke-width="0.3" stroke-linecap="butt"/><path d="" fill="#000000" stroke="#000000" stroke-width="0.3" stroke-linecap="butt"/><path d="" fill="#000000" stroke="#000000" stroke-width="0.3" stroke-linecap="butt"/><path d="" fill="#000000" stroke="#000000" stroke-width="0.3" stroke-linecap="butt"/><path d="" fill="#000000" stroke="#000000" stroke-width="0.3" stroke-linecap="butt"/><path d="M295.31719,284.82415c0,0 -1.51202,-5.99345 -1.5673,-13.00079c-0.06926,-8.78064 -0.10568,-17.06412 1.48794,-24.17804c1.36568,-6.09639 3.76908,-11.33389 10.17061,-15.28929c4.53339,-2.80111 10.33238,-2.76009 14.38759,-3.55813c0.78271,-0.15404 9.11408,3.01295 16.68991,6.16177c7.31569,3.0407 13.75506,6.6359 13.75506,6.6359l-25.45714,52.62858c0,0 -10.24957,-3.01445 -15.08342,-4.55647c-4.98379,-1.58985 -14.38325,-4.84352 -14.38325,-4.84352z" fill="url(#color-5)" stroke="none" stroke-width="0" stroke-linecap="butt"/><path d="M273.96013,236.4949c-4.22419,9.97337 -15.26432,15.99714 -21.26652,12.52929c-6.00221,-3.46785 -5.94358,-13.3641 -1.71938,-23.33747c4.22419,-9.97337 14.26432,-16.49714 20.26653,-13.02929c6.00221,3.46785 6.94358,13.8641 2.71938,23.83747z" fill="#e2e05f" stroke="#000000" stroke-width="1.5" stroke-linecap="butt"/><path d="M273.59218,253.42414l-19.66666,8.33333" fill="none" stroke="#000000" stroke-width="1.5" stroke-linecap="round"/><path d="M267.09218,296.59081c5.7269,0.69624 26.90305,-8.84963 31.13986,-10.72971c0.49349,-0.21898 25.62205,7.944 25.62205,7.944" fill="none" stroke="#000000" stroke-width="1.5" stroke-linecap="round"/><path d="M278.42553,279.17413c0,10.26329 -6.74052,18.08333 -16.08334,18.08333c-9.34281,0 -15.75,-7.15338 -15.75,-17.41667c0,-10.26329 2.90719,-18.91667 12.25,-18.91667c9.34281,0 19.58334,7.98671 19.58334,18.25z" fill="#e2e05f" stroke="#000000" stroke-width="1.5" stroke-linecap="butt"/><path d="M255.37542,250.52787l10.11111,6" fill="none" stroke="#000000" stroke-width="1.5" stroke-linecap="round"/><path d="M303.93098,231.41675c0,0 -10.00618,-5.12752 -14.93491,-8.04147c-5.86916,-3.46994 -18.95398,-11.30297 -18.95398,-11.30297" fill="none" stroke="#000000" stroke-width="1.5" stroke-linecap="round"/><path d="M366.3798,267.00765c-0.51677,14.95653 -15.22262,28.7 -30.3,28.7c-15.07738,0 -27.7,-12.12719 -27.7,-26.1c0,-6.46271 2.68435,-14.5863 8.13671,-20.16189c6.336,-6.47922 16.05951,-10.43811 24.16329,-10.43811c15.07738,0 26.3,10.63455 25.7,28z" fill="#e2e05f" stroke="#000000" stroke-width="1.5" stroke-linecap="butt"/><path d="M344.97773,238.73475c0,0 -7.56358,-2.98564 -9.36964,-3.82095" fill="none" stroke="#000000" stroke-width="1.5" stroke-linecap="round"/><g><path d="M422.15793,203.51925c0,0 -10.53435,4.40909 -16.02125,6.5373c-6.36292,2.468 -16.85558,4.25317 -16.85558,4.25317c0,0 0.43212,-1.30123 2.91935,-3.83171c1.89173,-1.92463 6.1945,-5.51969 8.5515,-7.8234c1.44247,-1.40986 0.87711,-2.86446 1.33245,-5.12624c0.57395,-2.85099 2.88824,-7.21217 6.80133,-11.01605c1.57757,-1.53354 3.11766,-2.41137 5.07283,-3.27399c2.12959,-0.93958 4.16181,-1.72496 6.54378,-1.81464c5.11804,-0.19267 8.76378,2.48627 11.12024,3.91517c1.94461,1.17917 3.20131,1.23376 5.19359,1.09421c3.25539,-0.22801 8.14593,-0.56043 10.8135,-0.69249c3.5073,-0.17364 3.60651,0.74115 3.60651,0.74115c0,0 -6.91177,5.90456 -12.98334,9.04572c-5.23566,2.70869 -15.22323,7.6455 -15.22323,7.6455z" fill="#eced68" stroke="none" stroke-width="0" stroke-linecap="round"/><path d="M422.15793,203.51925c0,0 -10.34205,4.37724 -15.82895,6.50546c-6.36292,2.468 -16.41111,3.52663 -16.41111,3.52663c0,0 0.56455,-0.67022 3.05178,-3.2007c1.10625,-1.12549 2.77397,-2.77865 4.43952,-4.41815c1.1826,-1.16411 3.34278,-3.27786 3.34278,-3.27786c0,0 0.95067,4.33909 7.43573,3.11132c3.35215,-0.63464 12.00378,-3.81055 19.25028,-6.36351c6.58585,-2.32021 11.66269,-4.80521 11.66269,-4.80521l-16.07105,8.57574z" fill="#8f8621" stroke="none" stroke-width="0" stroke-linecap="round"/><path d="M428.8388,192.05109c0.14281,0.35547 -3.4604,3.34303 -7.82776,5.58716c-0.64814,0.33304 -1.31313,0.64971 -1.98519,0.93897c-2.86349,1.23247 -8.82898,3.21296 -12.33209,3.89578c-3.81334,0.74328 -5.05263,0.13463 -5.05263,0.13463l1.47728,-7.09363c0,0 1.45519,4.67656 6.4919,4.33177c6.33279,-0.43352 19.04834,-8.24309 19.22848,-7.79468z" fill="#8f8621" stroke="none" stroke-width="0" stroke-linecap="butt"/><path d="M432.85346,187.67915c0,0 1.00536,2.70627 -10.95173,9.1835c-9.54291,5.16946 -18.16636,5.96461 -18.16636,5.96461" fill="none" stroke="#524d14" stroke-width="0.75" stroke-linecap="round"/><path d="M422.15793,203.51925c0,0 -10.42733,4.78504 -15.72874,6.47926c-5.76202,1.84143 -17.57683,4.16456 -17.57683,4.16456c0,0 3.38067,-4.08869 5.52911,-6.11645c2.00094,-1.88853 6.95053,-5.66218 6.95053,-5.66218c0,0 0.21139,-13.93099 12.62656,-19.14611c7.36442,-3.0935 11.92416,-2.2956 18.17344,1.49382c1.94461,1.17917 4.68417,1.70092 4.68417,1.70092c0,0 7.15634,-0.767 9.84694,-0.82329c2.3849,-0.0499 5.49043,0.5024 5.49043,0.5024c0,0 -10.20794,7.09862 -15.39966,10.13993c-4.37623,2.56359 -13.72427,6.92085 -13.72427,6.92085z" fill="none" stroke="#000000" stroke-width="1.5" stroke-linecap="round"/></g><g><path d="M210.3967,195.42544c0,0 -11.60058,-1.28187 -17.5447,-2.02777c-6.89314,-0.86498 -16.92789,-3.35334 -16.92789,-3.35334c0,0 1.12919,-0.4682 4.73673,-0.85789c2.74382,-0.29639 8.52833,-0.60679 11.89202,-0.93225c2.05855,-0.19918 2.4222,-1.05411 4.13142,-1.96146c2.15448,-1.14372 6.68135,-2.43906 12.25363,-2.96975c2.24647,-0.21394 4.07845,-0.13496 6.25735,0.08236c2.37327,0.23671 4.57317,0.5143 6.66716,1.22589c4.49926,1.52895 6.062,3.92711 7.24858,5.33651c0.97919,1.16307 2.02454,1.58586 3.81359,2.15102c2.92331,0.92348 7.30906,2.31553 9.67257,3.09773c3.10753,1.02842 2.65911,1.48502 2.65911,1.48502c0,0 -9.36759,0.55886 -16.40355,0.09892c-6.06727,-0.39663 -17.50692,-1.26028 -17.50692,-1.26028z" fill="#eced68" stroke="none" stroke-width="0" stroke-linecap="round"/><path d="M210.3967,195.42544c0,0 -11.41719,-1.23586 -17.36131,-1.98176c-6.89314,-0.86498 -16.12323,-3.5505 -16.12323,-3.5505c0,0 0.87474,-0.13301 4.48228,-0.5227c1.60454,-0.17332 3.99804,-0.41437 6.38172,-0.64975c1.6925,-0.16713 4.7767,-0.46654 4.7767,-0.46654c0,0 -1.71544,2.31758 4.55917,3.79768c3.24336,0.76507 12.51108,2.02478 20.21111,3.12969c6.99804,1.00418 12.79874,1.45456 12.79874,1.45456l-18.77609,-1.09598z" fill="#8f8621" stroke="none" stroke-width="0" stroke-linecap="round"/><path d="M222.81071,192.20743c-0.08488,0.21039 -4.91552,0.45964 -9.96762,0.12166c-0.74977,-0.05016 -1.50442,-0.11326 -2.24915,-0.19133c-3.17313,-0.33265 -9.44133,-1.29857 -12.84219,-2.08899c-3.70203,-0.86041 -4.40936,-1.53524 -4.40936,-1.53524l5.40283,-2.83016c0,0 -1.47977,2.63398 3.03849,4.06651c5.68092,1.80114 21.13407,2.19214 21.027,2.45755z" fill="#8f8621" stroke="none" stroke-width="0" stroke-linecap="butt"/><path d="M228.80131,191.44481c0,0 -0.71639,1.57589 -14.74249,0.80543c-11.19419,-0.6149 -19.04943,-2.97234 -19.04943,-2.97234" fill="none" stroke="#524d14" stroke-width="0.75" stroke-linecap="round"/><path d="M210.3967,195.42544c0,0 -11.72809,-1.07327 -17.26014,-1.96224c-6.01271,-0.96621 -17.49443,-3.62262 -17.49443,-3.62262c0,0 5.282,-0.83145 8.306,-1.0946c2.81637,-0.24508 9.25946,-0.43394 9.25946,-0.43394c0,0 8.30491,-6.40868 21.98767,-4.9067c8.11633,0.89094 11.55941,2.70379 14.70619,6.44147c0.97919,1.16307 3.02314,2.27194 3.02314,2.27194c0,0 6.5813,1.90658 8.92036,2.73127c2.07331,0.731 4.41312,1.9698 4.41312,1.9698c0,0 -12.88918,0.07152 -19.11275,-0.1566c-5.246,-0.19229 -15.79953,-1.12309 -15.79953,-1.12309z" fill="none" stroke="#000000" stroke-width="1.5" stroke-linecap="round"/></g><path d="M213.90106,182.9672c0,0 0.40474,-1.84831 0.47946,-2.86398c0.09839,-1.33733 0.05968,-4.46389 0.05968,-4.46389l2.14516,0.2751c0,0 -0.56619,2.69216 -0.90263,3.94591c-0.29458,1.09778 -0.5894,3.15031 -0.5894,3.15031z" fill="#000000" stroke="#000000" stroke-width="0.5" stroke-linecap="butt"/><path d="M412.95993,183.45416c0,0 -0.30817,-1.48841 -0.86069,-2.44247c-0.72751,-1.25623 -2.7257,-4.04096 -2.7257,-4.04096l2.54533,-0.96786c0,0 1.05728,2.73736 1.46916,4.05336c0.36064,1.15229 1.27448,2.98618 1.27448,2.98618z" fill="#000000" stroke="#000000" stroke-width="1.5" stroke-linecap="butt"/><path d="M242.36963,273.38792c-5.24651,-6.13148 -17.4371,-20.17133 -17.4371,-20.17133l1.34343,-15.30357l2.05682,0.38576l-1.44422,14.38576c0,0 12.19003,15.60183 16.69581,19.23492c2.18797,1.7642 -1.21473,1.46846 -1.21473,1.46846z" fill="#000000" stroke="none" stroke-width="0" stroke-linecap="butt"/><g><g><path d="M225.6652,249.05001c0,0 -8.9946,-1.26425 -13.61025,-2.03186c-5.35258,-0.89015 -13.23908,-3.83913 -13.23908,-3.83913c0,0 0.82996,-0.67446 3.56651,-1.34156c2.08137,-0.50738 6.49345,-1.15412 9.04793,-1.72517c1.56333,-0.34949 1.77649,-1.51374 3.01751,-2.80182c1.5643,-1.62363 4.93626,-3.54524 9.16867,-4.47985c1.7063,-0.37679 3.11725,-0.34316 4.80487,-0.13724c1.83817,0.22429 3.54653,0.51045 5.20702,1.3845c3.56782,1.87803 4.95052,5.04149 5.96877,6.89003c0.84028,1.52546 1.67442,2.05266 3.08981,2.74187c2.31275,1.12617 5.783,2.82457 7.6556,3.78292c2.46208,1.26 2.15329,1.89188 2.15329,1.89188c0,0 -7.14072,1.12293 -12.57169,0.7832c-4.68326,-0.29296 -13.52229,-1.00112 -13.52229,-1.00112z" fill="#eced68" stroke="none" stroke-width="0" stroke-linecap="round"/><path d="M225.6652,249.05001c0,0 -8.85041,-1.20965 -13.46607,-1.97725c-5.35258,-0.89015 -12.63718,-4.1362 -12.63718,-4.1362c0,0 0.66058,-0.21356 3.39713,-0.88066c1.21715,-0.2967 3.03411,-0.71577 4.84398,-1.12682c1.28508,-0.29186 3.62724,-0.81679 3.62724,-0.81679c0,0 -1.13741,3.18502 3.7881,4.92699c2.54601,0.90043 9.74991,2.22733 15.7397,3.40819c5.44371,1.0732 9.92668,1.44903 9.92668,1.44903l-14.48294,-0.72984z" fill="#8f8621" stroke="none" stroke-width="0" stroke-linecap="round"/><path d="M234.9378,244.22991c-0.04892,0.28633 -3.73422,0.81302 -7.63447,0.55869c-0.57882,-0.03774 -1.16238,-0.09269 -1.73949,-0.16818c-2.45893,-0.32162 -7.34002,-1.37229 -10.00876,-2.30057c-2.90508,-1.01049 -3.49935,-1.89006 -3.49935,-1.89006l3.92575,-4.02057c0,0 -0.93237,3.60123 2.64261,5.34882c4.49491,2.19728 16.37543,2.11066 16.31372,2.47186z" fill="#8f8621" stroke="none" stroke-width="0" stroke-linecap="butt"/><path d="M239.47318,242.96677c0,0 -0.42828,2.14788 -11.24361,1.66758c-8.63169,-0.38332 -14.83675,-3.2426 -14.83675,-3.2426" fill="none" stroke="#524d14" stroke-width="0.75" stroke-linecap="round"/><path d="M225.6652,249.05001c0,0 -9.07634,-0.97866 -13.38699,-1.95501c-4.68518,-1.06119 -13.69424,-4.17883 -13.69424,-4.17883c0,0 3.98669,-1.32762 6.28547,-1.8014c2.14094,-0.44125 7.06741,-0.95063 7.06741,-0.95063c0,0 5.87626,-8.94853 16.48451,-7.47075c6.2926,0.87658 9.07228,3.1783 11.77266,8.08057c0.84028,1.52546 2.49294,2.93583 2.49294,2.93583c0,0 5.19347,2.30339 7.05059,3.31986c1.64612,0.90098 3.53564,2.47436 3.53564,2.47436c0,0 -9.87876,0.60707 -14.66893,0.54694c-4.03775,-0.05069 -12.2024,-0.88428 -12.2024,-0.88428z" fill="none" stroke="#000000" stroke-width="1.5" stroke-linecap="round"/></g><path d="M227.65187,232.44248c0,0 0.40239,-1.08551 0.41834,-1.92025c0.02101,-1.09911 -0.19515,-3.6864 -0.19515,-3.6864l2.13318,0.36866c0,0 -0.40568,2.18835 -0.66643,3.20268c-0.22831,0.88815 -0.36002,2.43466 -0.36002,2.43466z" fill="#000000" stroke="#000000" stroke-width="1.5" stroke-linecap="butt"/></g><g fill="#81782d" stroke="none" stroke-width="0.5" stroke-linecap="butt"><path d="M393.10974,257.32494c0.17166,-0.15284 0.33862,0.01412 0.33862,0.01412c0.2201,0.25309 0.30937,0.6707 0.19705,0.98674c-0.00685,0.01929 -0.01714,0.03934 -0.03024,0.05992c-0.02265,0.20583 -0.12866,0.40253 -0.33868,0.57629c0.41357,0.12237 0.60647,0.85521 0.32513,1.14812c-0.25016,0.26045 -1.43202,-0.07657 -1.08327,0.01719c0.76522,0.20572 0.67762,0.82284 0.3488,1.24809c0.25691,0.07781 0.53525,0.28616 0.79908,-0.03634c0.50061,-0.61193 1.81952,-2.3433 3.98503,-4.29012c2.90536,-2.61194 7.47746,-7.35453 7.47746,-7.35453c0,0 -6.3755,10.09841 -6.61259,11.23046c-0.46022,2.19741 -1.85573,2.99378 -3.95804,2.85131c-3.58538,-0.04287 -5.7844,-1.18067 -5.82223,-5.11629c-0.00002,-3.22967 3.12214,-2.56122 4.37387,-1.33495z"/><path d="M430.5682,218.67372c-0.32241,0.00917 -0.35597,0.25438 -0.28915,0.52659c0.01031,-0.05494 0.04333,-0.1128 0.12159,-0.15901c0.21527,-0.12712 0.34239,0.08816 0.34239,0.08816c0.01241,0.02211 0.02451,0.04389 0.03629,0.06532c0.08274,-0.17362 0.01573,-0.52751 -0.21112,-0.52106zM427.37935,214.47833c-1.41762,-2.7075 -1.95642,-5.22601 -1.95642,-5.22601c0,0 5.97491,9.81072 5.75511,10.24809l-0.14218,0.22007c0.43845,1.07689 -2.04898,-2.17193 -3.6565,-5.24215zM430.48788,219.67775c0.00059,-0.00282 0.00124,-0.00565 0.00193,-0.00846c-0.03112,-0.05172 -0.06797,-0.11175 -0.1112,-0.1808c0.03332,0.07747 0.06954,0.15098 0.10397,0.21531c0.0014,-0.00905 0.00322,-0.01776 0.0053,-0.02605z"/><path d="M414.55072,239.59248c-0.03395,-0.32074 -0.28102,-0.33533 -0.54728,-0.24777c0.05557,0.00606 0.1158,0.03451 0.1679,0.10899c0.1433,0.20486 -0.06155,0.34815 -0.06155,0.34815c-0.0211,0.01408 -0.04187,0.02782 -0.06233,0.04122c0.17947,0.06913 0.52715,-0.02491 0.50326,-0.25059zM418.48829,236.09025c2.59039,-1.62176 5.05998,-2.35276 5.05998,-2.35276c0,0 -9.32186,6.71213 -9.77486,6.52663l-0.23036,-0.12483c-1.03996,0.52002 2.00783,-2.21004 4.94524,-4.04905zM413.54348,239.58966c0.00286,0.00038 0.00573,0.0008 0.00859,0.00127c0.04917,-0.03501 0.10618,-0.07636 0.1717,-0.12478c-0.07468,0.03918 -0.14518,0.08095 -0.20667,0.12023c0.00914,0.0007 0.01797,0.00184 0.02639,0.00328z"/></g><path d="M248.33756,220.92449c-0.27761,0.1642 -0.18818,0.39499 0.00213,0.60075c-0.01759,-0.05306 -0.01674,-0.11967 0.02934,-0.19801c0.12675,-0.21549 0.34223,-0.08873 0.34223,-0.08873c0.02157,0.01333 0.04271,0.02652 0.0634,0.03956c-0.01173,-0.19196 -0.24178,-0.46911 -0.4371,-0.35357zM243.51549,218.79899c-2.55176,-1.68188 -4.24316,-3.62415 -4.24316,-3.62415c0,0 9.97961,5.68834 9.99919,6.17745l-0.01778,0.26141c0.90525,0.7297 -2.84466,-0.9075 -5.73826,-2.8147zM248.75367,221.84176c-0.00085,-0.00276 -0.00165,-0.00554 -0.00241,-0.00834c-0.05228,-0.03017 -0.11359,-0.06483 -0.18487,-0.1043c0.06667,0.05163 0.13397,0.09839 0.19526,0.13799c-0.00315,-0.0086 -0.00579,-0.0171 -0.00798,-0.02535z" fill="#888139" stroke="none" stroke-width="0.5" stroke-linecap="butt"/><path d="M248.33756,220.92449c-0.27761,0.1642 -0.18818,0.39499 0.00213,0.60075c-0.01759,-0.05306 -0.01674,-0.11967 0.02934,-0.19801c0.12675,-0.21549 0.34223,-0.08873 0.34223,-0.08873c0.02157,0.01333 0.04271,0.02652 0.0634,0.03956c-0.01173,-0.19196 -0.24178,-0.46911 -0.4371,-0.35357zM243.51549,218.79899c-2.55176,-1.68188 -4.24316,-3.62415 -4.24316,-3.62415c0,0 9.97961,5.68834 9.99919,6.17745l-0.01778,0.26141c0.90525,0.7297 -2.84466,-0.9075 -5.73826,-2.8147zM248.75367,221.84176c-0.00085,-0.00276 -0.00165,-0.00554 -0.00241,-0.00834c-0.05228,-0.03017 -0.11359,-0.06483 -0.18487,-0.1043c0.06667,0.05163 0.13397,0.09839 0.19526,0.13799c-0.00315,-0.0086 -0.00579,-0.0171 -0.00798,-0.02535z" fill="#888139" stroke="none" stroke-width="0.5" stroke-linecap="butt"/><path d="M248.33756,220.92449c-0.27761,0.1642 -0.18818,0.39499 0.00213,0.60075c-0.01759,-0.05306 -0.01674,-0.11967 0.02934,-0.19801c0.12675,-0.21549 0.34223,-0.08873 0.34223,-0.08873c0.02157,0.01333 0.04271,0.02652 0.0634,0.03956c-0.01173,-0.19196 -0.24178,-0.46911 -0.4371,-0.35357zM243.51549,218.79899c-2.55176,-1.68188 -4.24316,-3.62415 -4.24316,-3.62415c0,0 9.97961,5.68834 9.99919,6.17745l-0.01778,0.26141c0.90525,0.7297 -2.84466,-0.9075 -5.73826,-2.8147zM248.75367,221.84176c-0.00085,-0.00276 -0.00165,-0.00554 -0.00241,-0.00834c-0.05228,-0.03017 -0.11359,-0.06483 -0.18487,-0.1043c0.06667,0.05163 0.13397,0.09839 0.19526,0.13799c-0.00315,-0.0086 -0.00579,-0.0171 -0.00798,-0.02535z" fill="#888139" stroke="none" stroke-width="0.5" stroke-linecap="butt"/><path d="M247.68634,227.94155c-0.38551,-0.19205 -0.50674,-0.09326 -0.51788,0.07983c0.03048,-0.02043 0.08886,-0.02845 0.19704,-0.00322c0.29758,0.06939 0.37688,0.25155 0.37688,0.25155c0.00738,0.01832 0.01451,0.03628 0.02137,0.05388c0.1558,-0.034 0.19383,-0.24692 -0.07741,-0.38205zM245.29671,223.95791c-0.78258,-2.18059 -0.58541,-3.73363 -0.58541,-3.73363c0,0 3.82996,8.41225 3.42397,8.49096l-0.24175,0.02035c0.16252,0.79089 -1.7094,-2.30497 -2.59681,-4.77767zM247.25767,228.38082c0.00164,-0.00101 0.00335,-0.00198 0.0051,-0.00293c-0.01975,-0.04412 -0.04353,-0.09576 -0.07188,-0.15569c0.0138,0.05797 0.03236,0.11579 0.05185,0.16807c0.00468,-0.00354 0.00971,-0.00668 0.01493,-0.00944z" fill="#888139" stroke="none" stroke-width="0.5" stroke-linecap="butt"/><path d="M391.1184,257.38953c0.37435,-0.09932 0.76758,-0.15224 1.17317,-0.15224c0.56367,0 1.58924,0.81175 1.54547,1.88954c-0.03171,0.78082 -1.27799,1.82004 -0.52545,2.22009c1.13343,0.60251 2.83339,-0.44668 4.47066,-0.1757c0.2682,0.04439 1.66253,1.34734 2.1322,1.61168c0.97769,0.55024 3.60314,-0.48444 5.57986,0.47317c1.97672,0.95761 3.50149,3.82368 3.88712,4.11309" fill="none" stroke="#000000" stroke-width="1.5" stroke-linecap="butt"/><path d="M228.05864,274.93266c0.21643,-0.15972 0.46627,-0.30728 0.74786,-0.438c0.39134,-0.18165 1.45861,-0.1927 1.8999,0.24558c0.3197,0.31751 -0.09076,1.12815 0.60679,1.04307c1.05059,-0.12815 1.77164,-1.08891 3.02693,-1.50991c0.20563,-0.06896 1.74388,-0.00553 2.18564,-0.05286c0.91958,-0.09853 2.28953,-1.35185 4.08098,-1.61201c1.79145,-0.26016 4.10434,0.3764 4.49873,0.36602" fill="none" stroke="#000000" stroke-width="1.5" stroke-linecap="butt"/><path d="M317.51974,161.70996c0,0 2.62284,-0.85444 4.35377,-0.66409c0.75497,0.08302 1.89245,0.49338 3.12077,0.55515c1.48431,0.07464 3.10128,-0.18442 4.33632,0.13641c1.2049,0.31301 2.04629,1.49634 2.04629,1.49634" fill="none" stroke="#000000" stroke-width="1.5" stroke-linecap="round"/><g stroke="none" stroke-linecap="butt"><path d="M349.86226,235.46622c0.24011,-1.26215 0.45915,-2.63327 0.61274,-4.03424c1.07228,-9.78097 1.43992,-23.90079 1.12006,-32.98407c-0.51254,-14.55502 -7.41201,-46.11622 -7.41201,-46.11622l5.50871,-0.8922c0,0 -0.36438,6.28373 0.40588,14.74542c0.92897,10.20526 3.03402,23.49382 3.19718,31.6365c0.20802,10.38243 -0.24858,28.23567 -0.51997,37.40116z" fill="#000000" stroke-width="0"/><path d="M348.17612,231.25765c0.05415,-0.2218 0.28642,-0.18031 0.28642,-0.18031c0.32498,0.08157 0.63602,0.37132 0.72353,0.69249c0.00534,0.0196 0.00829,0.04177 0.00925,0.06596c0.0985,0.18057 0.1233,0.40092 0.04952,0.66149c0.40965,-0.13455 0.98527,0.35338 0.92067,0.75146c-0.05745,0.35397 -1.22087,0.74881 -0.8808,0.62766c0.74618,-0.26584 1.02535,0.28669 0.99702,0.81951c0.25549,-0.08212 0.60288,-0.07 0.63625,-0.48228c0.06333,-0.78228 0.16236,-2.94036 0.83478,-5.75361c0.90217,-3.77439 1.9621,-10.22929 1.9621,-10.22929c0,0 0.50535,11.84112 0.95464,12.89798c0.87214,2.05145 0.17805,3.49096 -1.63138,4.56579c-2.97204,1.99612 -5.42741,2.31459 -7.69819,-0.87124c-1.83796,-2.63195 1.10925,-3.85586 2.83618,-3.56562z" fill="#81782d" stroke-width="0.5"/><path d="M351.56541,207.01162c-0.27593,-0.16516 -0.43695,0.02167 -0.52825,0.28485c0.03842,-0.04036 0.09751,-0.07099 0.18831,-0.06764c0.24977,0.00922 0.23999,0.25716 0.23999,0.25716c-0.00155,0.02513 -0.00317,0.0498 -0.00488,0.07402c0.16358,-0.10067 0.29896,-0.43219 0.10482,-0.5484zM351.15799,201.79799c0.2752,-3.02141 1.18661,-5.41387 1.18661,-5.41387c0,0 -0.29281,11.39741 -0.71445,11.64491l-0.2387,0.10761c-0.21484,1.13452 -0.54552,-2.91249 -0.23346,-6.33865zM350.95403,207.8072c0.00203,-0.00205 0.0041,-0.00406 0.00621,-0.00603c0.00186,-0.05988 0.0034,-0.12977 0.00448,-0.21062c-0.01397,0.08257 -0.02334,0.16339 -0.02925,0.23557c0.00609,-0.00681 0.01233,-0.01311 0.01857,-0.01892z" fill="#81782d" stroke-width="0.5"/></g><path d="M342.2184,230.69746c0.30875,-0.07187 0.63308,-0.11018 0.96761,-0.11018c0.4649,0 1.31077,0.58742 1.27468,1.36736c-0.02616,0.56503 -1.05406,1.31707 -0.43338,1.60656c0.93484,0.43601 2.33693,-0.32324 3.68732,-0.12714c0.2212,0.03212 1.37122,0.97499 1.75861,1.16628c0.80638,0.39818 2.97181,-0.35057 4.60217,0.3424c1.63036,0.69297 2.88797,2.76699 3.20603,2.97642" fill="none" stroke="#000000" stroke-width="1.5" stroke-linecap="butt"/><g><path d="M338.97128,157.42203c0,0 -17.06585,2.84915 -25.30142,3.92349c-9.55043,1.24587 -28.44485,3.08635 -28.44485,3.08635c0,0 7.32188,-3.95415 11.65425,-6.1259c3.29511,-1.65179 9.40129,-4.60014 13.47076,-6.55674c2.49048,-1.19742 3.9585,-2.07896 5.43985,-4.41174c1.86726,-2.9405 5.78611,-7.87334 12.53428,-11.09937c2.72053,-1.30057 4.34355,-1.95985 7.31807,-2.45488c3.23987,-0.53918 5.15005,-0.40073 8.40605,0.0305c6.99601,0.92658 12.04082,4.08353 14.6812,6.1431c2.17891,1.69961 3.85775,2.03677 6.60576,2.32801c4.49026,0.47588 11.23203,1.20169 14.89052,1.65059c4.81016,0.5902 13.03484,1.85498 13.03484,1.85498c0,0 -18.41472,4.61356 -27.82869,6.64829c-8.11788,1.75459 -25.14912,4.80384 -25.14912,4.80384z" fill="#eced68" stroke="none" stroke-width="0" stroke-linecap="round"/><path d="M338.97128,157.42203c0,0 -17.06585,2.84915 -25.30142,3.92349c-9.55043,1.24587 -28.44485,3.08635 -28.44485,3.08635c0,0 7.32188,-3.95415 11.65425,-6.1259c1.92693,-0.96593 4.81516,-2.37526 7.69523,-3.77036c2.04496,-0.99057 5.77553,-2.78638 5.77553,-2.78638c0,0 -0.37461,4.87948 8.86642,4.99516c4.77672,0.05979 17.6936,-1.44074 28.4716,-2.58226c9.79539,-1.03746 17.74386,-1.7234 17.74386,-1.7234l-25.14912,4.80384z" fill="#8f8621" stroke="none" stroke-width="0" stroke-linecap="round"/><path d="M352.39578,146.56244c0.05712,0.41412 -5.95954,2.83046 -12.72525,4.27755c-1.00408,0.21476 -2.02466,0.40818 -3.04433,0.57053c-7.67039,1.22128 -17.88986,1.23693 -21.39576,1.72052c-2.88013,0.39727 -2.2591,-0.67926 -1.61631,-2.11972c1.37937,-3.09107 6.94022,-8.42092 6.94022,-8.42092c0,0 -4.09256,7.35419 2.85166,8.09906c8.73115,0.93655 28.9177,-4.64943 28.98977,-4.12702z" fill="#8f8621" stroke="none" stroke-width="0" stroke-linecap="butt"/><path d="M352.18532,147.25845c0,0 -2.80352,1.3603 -8.43597,2.88703c-7.47148,2.02522 -11.89257,2.46401 -19.62835,2.75066" fill="none" stroke="#524d14" stroke-width="0.75" stroke-linecap="round"/><path d="M338.97128,157.42203c0,0 -17.06585,2.84915 -25.30142,3.92349c-9.55043,1.24587 -28.44485,3.08635 -28.44485,3.08635c0,0 7.32188,-3.95415 11.65425,-6.1259c3.29511,-1.65179 9.40129,-4.60014 13.47076,-6.55674c2.49048,-1.19742 3.9585,-2.07896 5.43985,-4.41174c1.86726,-2.9405 5.78611,-7.87334 12.53428,-11.09937c2.72053,-1.30057 4.34355,-1.95985 7.31807,-2.45488c3.23987,-0.53918 5.15005,-0.40073 8.40605,0.0305c6.99601,0.92658 12.04082,4.08353 14.6812,6.1431c2.17891,1.69961 3.85775,2.03677 6.60576,2.32801c4.49026,0.47588 11.23203,1.20169 14.89052,1.65059c4.81016,0.5902 13.03484,1.85498 13.03484,1.85498c0,0 -18.41472,4.61356 -27.82869,6.64829c-8.11788,1.75459 -25.14912,4.80384 -25.14912,4.80384z" fill="none" stroke="#000000" stroke-width="1.5" stroke-linecap="round"/></g><path d="M333.77396,133.88091c0,0 -0.35689,-2.17229 -0.71266,-3.30249c-0.46846,-1.48816 -1.85422,-4.85182 -1.85422,-4.85182l2.43751,-0.62464c0,0 0.54504,3.15403 0.7202,4.65414c0.15337,1.31349 0.82434,3.92961 0.82434,3.92961z" fill="#000000" stroke="#000000" stroke-width="1.5" stroke-linecap="butt"/><path d="M347.26633,136.32904c5.96789,1.421 9.3182,4.09435 9.23485,4.48423c-0.08335,0.38989 -3.4468,-1.81238 -9.41469,-3.23338c-5.96789,-1.421 -9.69394,-1.59095 -9.6106,-1.98084c0.08335,-0.38989 3.82253,-0.69101 9.79043,0.72998z" fill="#faefbe" stroke="none" stroke-width="0" stroke-linecap="butt"/><path d="M379.91956,145.43329c0,0 -8.34456,0.78784 -13.09544,-0.19865c-4.75088,-0.98648 -8.23465,-1.99682 -8.15445,-2.38308c0.0802,-0.38625 3.14746,0.21746 7.89834,1.20394c4.75088,0.98648 13.35155,1.37778 13.35155,1.37778z" fill="#faefbe" stroke="none" stroke-width="0" stroke-linecap="butt"/><g stroke-linecap="butt"><path d="M352.58069,142.44484c-0.10004,-2.70073 2.06764,-5.07156 4.99616,-5.30233c2.92851,-0.23076 5.27956,1.78163 5.49187,4.47588c0.2123,2.69423 -1.74629,5.16402 -4.94485,5.45532c-3.04241,0.27708 -5.43871,-1.80835 -5.54318,-4.62886z" fill="#ffffff" stroke="#000000" stroke-width="1.4"/><path d="M355.11912,142.29223c-0.12231,-1.55211 1.03677,-2.90949 2.5889,-3.0318c1.55211,-0.12231 2.9095,1.03678 3.03181,2.5889c0.12231,1.55211 -1.03677,2.90949 -2.58888,3.0318c-1.55211,0.12231 -2.9095,-1.03678 -3.03181,-2.5889z" fill="#000000" stroke="none" stroke-width="1.5"/></g><g stroke-linecap="butt"><path d="M311.6683,149.77597c-0.17322,-2.69702 2.27669,-5.13103 5.23898,-5.32131c2.96229,-0.19026 5.15563,1.94784 5.32886,4.64487c0.17322,2.69702 -1.88918,5.02199 -4.85147,5.21226c-2.96229,0.19026 -5.54314,-1.83879 -5.71637,-4.53582z" fill="#ffffff" stroke="#000000" stroke-width="1.4"/><path d="M314.11722,149.64835c-0.09767,-1.52079 1.05598,-2.8328 2.57676,-2.93048c1.52079,-0.09767 2.83281,1.05598 2.93049,2.57676c0.09767,1.52079 -1.05598,2.8328 -2.57676,2.93048c-1.52079,0.09767 -2.83281,-1.05598 -2.93049,-2.57676z" fill="#000000" stroke="none" stroke-width="1.5"/></g></g></g></svg>