<svg version="1.1" xmlns="http://www.w3.org/2000/svg" xmlns:xlink="http://www.w3.org/1999/xlink" width="34.17311" height="34.17311" viewBox="0,0,34.17311,34.17311"><g transform="translate(-302.91346,-162.9135)"><g stroke="none" stroke-width="0" stroke-linecap="round" stroke-miterlimit="10"><path d="M309.98312,162.9135h20.03379c3.9166,0 7.06966,3.15307 7.06966,7.06966v20.03379c0,3.91659 -3.15306,7.06966 -7.06966,7.06966h-20.03379c-3.91659,0 -7.06966,-3.15307 -7.06966,-7.06966v-20.03379c0,-3.91659 3.15307,-7.06966 7.06966,-7.06966z" fill="#787878" fill-rule="evenodd" stroke-linejoin="round"/><g fill-rule="nonzero" stroke-linejoin="miter"><path d="M326.8146,186.36483l0.65278,2.76343c0,0 -5.02862,-1.04173 -6.33373,-1.15437c-0.66297,-0.05722 -0.97739,0.52335 -0.97739,0.52335l0.19583,6.91944h-1.37083l0.32639,-7.11528c0,0 -0.23519,-0.56862 -1.44566,-0.30357c-1.28304,0.28095 -5.996,1.26098 -5.996,1.26098l1.04444,-2.8287l-7.6375,-6.33194l1.82778,-0.78333l-1.24028,-4.83056l4.56944,0.65278l0.97917,-2.08889c0,0 3.70949,4.17999 3.85139,3.525c0.34965,-1.61398 -1.175,-8.42083 -1.175,-8.42083l2.87222,1.37083l2.80694,-5.43982l2.80694,5.22222l2.61111,-1.30556c0,0 -1.50244,6.89635 -0.97917,8.68194c0.21447,0.73186 3.91667,-3.72083 3.91667,-3.72083l1.10972,2.41528l4.37361,-0.97917l-1.37083,4.7l1.82778,1.10972z" fill="#8a8a8a"/><path d="M327.48125,186.86482l0.65278,2.76343c0,0 -5.02861,-1.04173 -6.33372,-1.15437c-0.66297,-0.05722 -0.97739,0.52335 -0.97739,0.52335l0.19583,6.91944h-1.37083l0.32638,-7.11527c0,0 -0.2352,-0.56862 -1.44566,-0.30357c-1.28305,0.28095 -5.99601,1.26098 -5.99601,1.26098l1.04444,-2.8287l-7.6375,-6.33194l1.82778,-0.78333l-1.24027,-4.83056l4.56944,0.65277l0.97917,-2.08889c0,0 3.7095,4.17999 3.85139,3.525c0.34965,-1.61398 -1.175,-8.42084 -1.175,-8.42084l2.87222,1.37083l2.80694,-5.43981l2.80694,5.22222l2.61111,-1.30555c0,0 -1.50244,6.89635 -0.97916,8.68195c0.21447,0.73185 3.91666,-3.72084 3.91666,-3.72084l1.10973,2.41528l4.37361,-0.97917l-1.37084,4.7l1.82778,1.10972z" fill="#c1c1c1"/></g></g></g></svg>