<svg version="1.1" xmlns="http://www.w3.org/2000/svg" xmlns:xlink="http://www.w3.org/1999/xlink" width="920.25003" height="531.40977" viewBox="0,0,920.25003,531.40977"><defs><linearGradient x1="324.79263" y1="227.43752" x2="324.79263" y2="240.43752" gradientUnits="userSpaceOnUse" id="color-1"><stop offset="0" stop-color="#303015" stop-opacity="0"/><stop offset="1" stop-color="#303015"/></linearGradient><linearGradient x1="317.41666" y1="291.5903" x2="317.41666" y2="441.59032" gradientUnits="userSpaceOnUse" id="color-2"><stop offset="0" stop-color="#303015" stop-opacity="0"/><stop offset="1" stop-color="#303015"/></linearGradient></defs><g transform="translate(59.91668,89.81945)"><g stroke-miterlimit="10"><path d="M30.79263,240.43752v-13h588v13z" fill="url(#color-1)" stroke="none" stroke-width="0"/><path d="M-44.83332,257.70421v-191.5h75v191.5z" fill="#919140" stroke="#303015" stroke-width="7.5"/><path d="M609.83332,257.70421v-191.5h75v191.5z" fill="#919140" stroke="#303015" stroke-width="7.5"/><path d="M-56.16668,353.2042v-118h685v118z" fill="none" stroke="#303015" stroke-width="7.5"/><path d="M-16.63279,373.50006v-135c0,0 -1.78244,-235.34939 5.37519,-292.42645c6.60272,-52.65207 37.37368,-31.83335 37.37368,-31.83335l0.3765,324.17819l586.95797,-0.9184l1.5,-296c0,0 38.02167,-25.46374 44.56003,25.08445c6.2546,48.35445 -4.64336,271.91555 -4.64336,271.91555v135z" fill="#919140" stroke="none" stroke-width="0"/><path d="" fill="#919140" stroke="#303015" stroke-width="4.5"/><path d="M145.24999,282.45005c0,19.90987 -16.11775,36.05 -36,36.05c-19.88225,0 -36,-16.14013 -36,-36.05c0,-19.90987 16.11775,-36.05 36,-36.05c19.88225,0 36,16.14013 36,36.05z" fill="#b9b951" stroke="none" stroke-width="0"/><path d="M104.75,331.25005c0,4.55635 -3.91751,8.25 -8.75,8.25c-4.83249,0 -8.75,-3.69365 -8.75,-8.25c0,-4.55635 3.91751,-8.25 8.75,-8.25c4.83249,0 8.75,3.69365 8.75,8.25z" fill="#b9b951" stroke="none" stroke-width="0"/><path d="M186.25003,315.75005c0,9.25077 -7.94694,16.75 -17.75,16.75c-9.80305,0 -17.75,-7.49923 -17.75,-16.75c0,-9.25077 7.94695,-16.75 17.75,-16.75c9.80306,0 17.75,7.49923 17.75,16.75z" fill="#b9b951" stroke="none" stroke-width="0"/><path d="M134.74999,328.75005c0,2.62336 -2.01472,4.75 -4.5,4.75c-2.48528,0 -4.5,-2.12664 -4.5,-4.75c0,-2.62336 2.01472,-4.75 4.5,-4.75c2.48528,0 4.5,2.12664 4.5,4.75z" fill="#b9b951" stroke="none" stroke-width="0"/><path d="M179.25003,365.75005c0,12.28834 -10.63323,22.25 -23.75,22.25c-13.11676,0 -23.75,-9.96166 -23.75,-22.25c0,-12.28834 10.63324,-22.25 23.75,-22.25c13.11677,0 23.75,9.96166 23.75,22.25z" fill="#b9b951" stroke="none" stroke-width="0"/><path d="M116.25,361.25005c0,5.10863 -4.47715,9.25 -10,9.25c-5.52284,0 -10,-4.14137 -10,-9.25c0,-5.10863 4.47716,-9.25 10,-9.25c5.52285,0 10,4.14137 10,9.25z" fill="#b9b951" stroke="none" stroke-width="0"/><path d="M258.25,238.33338c0,0 0.84761,45.00862 -44.5,47c-48.816,2.14369 -45.5,-47 -45.5,-47z" fill="#b9b951" stroke="none" stroke-width="0"/><path d="M230.25,307.00005c0,5.24671 -4.47716,9.5 -10,9.5c-5.52284,0 -10,-4.25329 -10,-9.5c0,-5.24671 4.47716,-9.5 10,-9.5c5.52284,0 10,4.25329 10,9.5z" fill="#b9b951" stroke="none" stroke-width="0"/><path d="M299.25,285.25005c0,11.73605 -9.51395,21.25 -21.25,21.25c-11.73605,0 -21.25,-9.51395 -21.25,-21.25c0,-11.73605 9.51395,-21.25 21.25,-21.25c11.73605,0 21.25,9.51395 21.25,21.25z" fill="#b9b951" stroke="none" stroke-width="0"/><path d="M310.25,255.75005c0,4.28021 -3.13401,7.75 -7,7.75c-3.86599,0 -7,-3.46979 -7,-7.75c0,-4.2802 3.13401,-7.75 7,-7.75c3.86599,0 7,3.4698 7,7.75z" fill="#b9b951" stroke="none" stroke-width="0"/><path d="M164.74999,279.25005c0,2.8995 -2.3505,5.25 -5.25,5.25c-2.8995,0 -5.25,-2.3505 -5.25,-5.25c0,-2.8995 2.3505,-5.25 5.25,-5.25c2.8995,0 5.25,2.3505 5.25,5.25z" fill="#b9b951" stroke="none" stroke-width="0"/><path d="M251.25,357.25005c0,16.70662 -13.31953,30.25 -29.75,30.25c-16.43047,0 -29.75,-13.54338 -29.75,-30.25c0,-16.70661 13.31953,-30.25 29.75,-30.25c16.43047,0 29.75,13.54339 29.75,30.25z" fill="#b9b951" stroke="none" stroke-width="0"/><path d="M263.75,320.50005c0,3.58985 -2.91015,6.5 -6.5,6.5c-3.58985,0 -6.5,-2.91015 -6.5,-6.5c0,-3.58985 2.91015,-6.5 6.5,-6.5c3.58985,0 6.5,2.91015 6.5,6.5z" fill="#b9b951" stroke="none" stroke-width="0"/><path d="M302.25,328.00005c0,6.62741 -5.26065,12 -11.75,12c-6.48935,0 -11.75,-5.37259 -11.75,-12c0,-6.62741 5.26065,-12 11.75,-12c6.48935,0 11.75,5.37259 11.75,12z" fill="#b9b951" stroke="none" stroke-width="0"/><path d="M271.75,347.75005c0,2.34721 -1.90279,4.25 -4.25,4.25c-2.34721,0 -4.25,-1.90279 -4.25,-4.25c0,-2.34721 1.90279,-4.25 4.25,-4.25c2.34721,0 4.25,1.90279 4.25,4.25z" fill="#b9b951" stroke="none" stroke-width="0"/><path d="M416.75,297.50005c0,26.78581 -22.1619,48.5 -49.5,48.5c-27.3381,0 -49.5,-21.71419 -49.5,-48.5c0,-26.78581 22.1619,-48.5 49.5,-48.5c27.3381,0 49.5,21.71419 49.5,48.5z" fill="#b9b951" stroke="none" stroke-width="0"/><path d="M343.25,363.00005c0,10.76956 -8.73045,19.5 -19.5,19.5c-10.76955,0 -19.5,-8.73044 -19.5,-19.5c0,-10.76956 8.73045,-19.5 19.5,-19.5c10.76955,0 19.5,8.73044 19.5,19.5z" fill="#c7c758" stroke="none" stroke-width="0"/><path d="M439.75,259.00005c0,6.07513 -5.14873,11 -11.5,11c-6.35127,0 -11.5,-4.92487 -11.5,-11c0,-6.07513 5.14873,-11 11.5,-11c6.35127,0 11.5,4.92487 11.5,11z" fill="#b9b951" stroke="none" stroke-width="0"/><path d="M463.75,296.50005c0,8.00813 -6.82766,14.5 -15.25,14.5c-8.42234,0 -15.25,-6.49187 -15.25,-14.5c0,-8.00813 6.82766,-14.5 15.25,-14.5c8.42234,0 15.25,6.49187 15.25,14.5z" fill="#b9b951" stroke="none" stroke-width="0"/><path d="M466.75,266.00005c0,3.31371 -2.68629,6 -6,6c-3.31371,0 -6,-2.68629 -6,-6c0,-3.31371 2.68629,-6 6,-6c3.31371,0 6,2.68629 6,6z" fill="#b9b951" stroke="none" stroke-width="0"/><path d="M463.75,355.25005c0,15.87818 -12.64796,28.75 -28.25,28.75c-15.60204,0 -28.25,-12.87182 -28.25,-28.75c0,-15.87818 12.64796,-28.75 28.25,-28.75c15.60204,0 28.25,12.87182 28.25,28.75z" fill="#b9b951" stroke="none" stroke-width="0"/><path d="M483.75,328.75005c0,4.55635 -3.46979,8.25 -7.75,8.25c-4.28021,0 -7.75,-3.69365 -7.75,-8.25c0,-4.55635 3.46979,-8.25 7.75,-8.25c4.28021,0 7.75,3.69365 7.75,8.25z" fill="#b9b951" stroke="none" stroke-width="0"/><path d="M538.25001,325.75005c0,10.0792 -8.61852,18.25 -19.25,18.25c-10.63148,0 -19.25,-8.1708 -19.25,-18.25c0,-10.0792 8.61852,-18.25 19.25,-18.25c10.63148,0 19.25,8.1708 19.25,18.25z" fill="#b9b951" stroke="none" stroke-width="0"/><path d="M565.75001,354.50005c0,5.79899 -4.47715,10.5 -10,10.5c-5.52285,0 -10,-4.70101 -10,-10.5c0,-5.79899 4.47715,-10.5 10,-10.5c5.52285,0 10,4.70101 10,10.5z" fill="#b9b951" stroke="none" stroke-width="0"/><path d="M513.75001,358.50005c0,4.14214 -3.80558,7.5 -8.5,7.5c-4.69442,0 -8.5,-3.35786 -8.5,-7.5c0,-4.14214 3.80558,-7.5 8.5,-7.5c4.69442,0 8.5,3.35786 8.5,7.5z" fill="#b9b951" stroke="none" stroke-width="0"/><path d="M556.75001,327.25005c0,2.34721 -1.90279,4.25 -4.25,4.25c-2.34721,0 -4.25,-1.90279 -4.25,-4.25c0,-2.34721 1.90279,-4.25 4.25,-4.25c2.34721,0 4.25,1.90279 4.25,4.25z" fill="#b9b951" stroke="none" stroke-width="0"/><path d="M498.75,293.75005c0,4.83249 -3.91751,8.75 -8.75,8.75c-4.83249,0 -8.75,-3.91751 -8.75,-8.75c0,-4.83249 3.91751,-8.75 8.75,-8.75c4.83249,0 8.75,3.91751 8.75,8.75z" fill="#b9b951" stroke="none" stroke-width="0"/><path d="M379.25,359.75005c0,3.72792 -2.79822,6.75 -6.25,6.75c-3.45178,0 -6.25,-3.02208 -6.25,-6.75c0,-3.72792 2.79822,-6.75 6.25,-6.75c3.45178,0 6.25,3.02208 6.25,6.75z" fill="#c7c758" stroke="none" stroke-width="0"/><path d="M860.33335,81.19576c0,0.27614 -0.67157,0.5 -1.5,0.5c-0.82843,0 -1.5,-0.22386 -1.5,-0.5c0,-0.27614 0.67157,-0.5 1.5,-0.5c0.82843,0 1.5,0.22386 1.5,0.5z" fill="#b9b951" stroke="none" stroke-width="0"/><path d="M517.83332,53.20421v-102h144v118z" fill="#919140" stroke="#303015" stroke-width="7.5"/><path d="M613.5909,89.7042v-54h41.5v54z" fill="#919140" stroke="none" stroke-width="0"/><path d="M-21.83332,69.20421v-118h144v102z" fill="#919140" stroke="#303015" stroke-width="7.5"/><path d="M-15.09089,89.7042v-54h41.5v54z" fill="#919140" stroke="none" stroke-width="0"/><path d="M479.66666,258.50005c0,-6.62742 5.37258,-12 12,-12c6.62742,0 12,5.37258 12,12c0,6.62742 -5.37258,12 -12,12c-6.62742,0 -12,-5.37258 -12,-12z" fill="#b9b951" stroke="none" stroke-width="0"/><path d="M514.66666,274.75005c0,-11.45991 9.29009,-20.75 20.75,-20.75c11.45991,0 20.75,9.29009 20.75,20.75c0,11.45991 -9.29009,20.75 -20.75,20.75c-11.45991,0 -20.75,-9.29009 -20.75,-20.75z" fill="#b9b951" stroke="none" stroke-width="0"/><path d="M572.16666,266.00005c0,-9.38884 7.61116,-17 17,-17c9.38884,0 17,7.61116 17,17c0,9.38884 -7.61116,17 -17,17c-9.38884,0 -17,-7.61116 -17,-17z" fill="#b9b951" stroke="none" stroke-width="0"/><path d="M565.66666,313.00005c0,-8.83656 7.16344,-16 16,-16c8.83656,0 16,7.16344 16,16c0,8.83656 -7.16344,16 -16,16c-8.83656,0 -16,-7.16344 -16,-16z" fill="#b9b951" stroke="none" stroke-width="0"/><path d="M564.16666,285.00005c0,-2.48528 2.01472,-4.5 4.5,-4.5c2.48528,0 4.5,2.01472 4.5,4.5c0,2.48528 -2.01472,4.5 -4.5,4.5c-2.48528,0 -4.5,-2.01472 -4.5,-4.5z" fill="#b9b951" stroke="none" stroke-width="0"/><path d="M558.16666,252.75005c0,-1.79493 1.45507,-3.25 3.25,-3.25c1.79493,0 3.25,1.45507 3.25,3.25c0,1.79493 -1.45507,3.25 -3.25,3.25c-1.79493,0 -3.25,-1.45507 -3.25,-3.25z" fill="#b9b951" stroke="none" stroke-width="0"/><path d="M522.16666,248.25005c0,-0.9665 0.7835,-1.75 1.75,-1.75c0.9665,0 1.75,0.7835 1.75,1.75c0,0.9665 -0.7835,1.75 -1.75,1.75c-0.9665,0 -1.75,-0.7835 -1.75,-1.75z" fill="#b9b951" stroke="none" stroke-width="0"/><path d="M608.66666,299.75005c0,-7.31777 5.93223,-13.25 13.25,-13.25c7.31777,0 13.25,5.93223 13.25,13.25c0,7.31777 -5.93223,13.25 -13.25,13.25c-7.31777,0 -13.25,-5.93223 -13.25,-13.25z" fill="#b9b951" stroke="none" stroke-width="0"/><path d="M614.66666,272.00005c0,-3.03757 2.46243,-5.5 5.5,-5.5c3.03757,0 5.5,2.46243 5.5,5.5c0,3.03757 -2.46243,5.5 -5.5,5.5c-3.03757,0 -5.5,-2.46243 -5.5,-5.5z" fill="#b9b951" stroke="none" stroke-width="0"/><path d="M623.83332,241.91672c0,-2.62335 2.12665,-4.75 4.75,-4.75c2.62335,0 4.75,2.12665 4.75,4.75c0,2.62335 -2.12665,4.75 -4.75,4.75c-2.62335,0 -4.75,-2.12665 -4.75,-4.75z" fill="#b9b951" stroke="none" stroke-width="0"/><path d="M606.16666,323.50005c0,-1.65685 1.34315,-3 3,-3c1.65685,0 3,1.34315 3,3c0,1.65685 -1.34315,3 -3,3c-1.65685,0 -3,-1.34315 -3,-3z" fill="#b9b951" stroke="none" stroke-width="0"/><path d="M623.16666,336.50005c0,-3.31371 2.68629,-6 6,-6c3.31371,0 6,2.68629 6,6c0,3.31371 -2.68629,6 -6,6c-3.31371,0 -6,-2.68629 -6,-6z" fill="#b9b951" stroke="none" stroke-width="0"/><path d="M601.16666,339.75005c0,-1.24264 1.00736,-2.25 2.25,-2.25c1.24264,0 2.25,1.00736 2.25,2.25c0,1.24264 -1.00736,2.25 -2.25,2.25c-1.24264,0 -2.25,-1.00736 -2.25,-2.25z" fill="#b9b951" stroke="none" stroke-width="0"/><path d="M577.66666,355.50005c0,-6.07513 4.92487,-11 11,-11c6.07513,0 11,4.92487 11,11c0,6.07513 -4.92487,11 -11,11c-6.07513,0 -11,-4.92487 -11,-11z" fill="#b9b951" stroke="none" stroke-width="0"/><path d="M571.66666,337.25005c0,-0.69036 0.55964,-1.25 1.25,-1.25c0.69036,0 1.25,0.55964 1.25,1.25c0,0.69036 -0.55964,1.25 -1.25,1.25c-0.69036,0 -1.25,-0.55964 -1.25,-1.25z" fill="#b9b951" stroke="none" stroke-width="0"/><path d="M612.16666,358.00005c0,-5.79899 4.70101,-10.5 10.5,-10.5c5.79899,0 10.5,4.70101 10.5,10.5c0,5.79899 -4.70101,10.5 -10.5,10.5c-5.79899,0 -10.5,-4.70101 -10.5,-10.5z" fill="#b9b951" stroke="none" stroke-width="0"/><path d="M-9.66668,272.75005c0,-9.25077 7.49923,-16.75 16.75,-16.75c9.25077,0 16.75,7.49923 16.75,16.75c0,9.25077 -7.49923,16.75 -16.75,16.75c-9.25077,0 -16.75,-7.49923 -16.75,-16.75z" fill="#b9b951" stroke="none" stroke-width="0"/><path d="M632.83332,272.25005c0,-8.1462 6.6038,-14.75 14.75,-14.75c8.1462,0 14.75,6.6038 14.75,14.75c0,8.1462 -6.6038,14.75 -14.75,14.75c-8.1462,0 -14.75,-6.6038 -14.75,-14.75z" fill="#b9b951" stroke="none" stroke-width="0"/><path d="M35.33332,260.25005c0,-8.69848 7.05152,-15.75 15.75,-15.75c8.69848,0 15.75,7.05152 15.75,15.75c0,8.69848 -7.05152,15.75 -15.75,15.75c-8.69848,0 -15.75,-7.05152 -15.75,-15.75z" fill="#b9b951" stroke="none" stroke-width="0"/><path d="M30.33332,323.50005c0,-9.1127 7.3873,-16.5 16.5,-16.5c9.1127,0 16.5,7.3873 16.5,16.5c0,9.1127 -7.3873,16.5 -16.5,16.5c-9.1127,0 -16.5,-7.3873 -16.5,-16.5z" fill="#b9b951" stroke="none" stroke-width="0"/><path d="M9.83332,334.25005c0,-2.07107 1.67893,-3.75 3.75,-3.75c2.07107,0 3.75,1.67893 3.75,3.75c0,2.07107 -1.67893,3.75 -3.75,3.75c-2.07107,0 -3.75,-1.67893 -3.75,-3.75z" fill="#b9b951" stroke="none" stroke-width="0"/><path d="M28.83332,295.00005c0,-3.03757 2.46243,-5.5 5.5,-5.5c3.03757,0 5.5,2.46243 5.5,5.5c0,3.03757 -2.46243,5.5 -5.5,5.5c-3.03757,0 -5.5,-2.46243 -5.5,-5.5z" fill="#b9b951" stroke="none" stroke-width="0"/><path d="M5.83332,305.50005c0,-2.20914 1.79086,-4 4,-4c2.20914,0 4,1.79086 4,4c0,2.20914 -1.79086,4 -4,4c-2.20914,0 -4,-1.79086 -4,-4z" fill="#b9b951" stroke="none" stroke-width="0"/><path d="M56.33332,293.75005c0,-1.24264 1.00736,-2.25 2.25,-2.25c1.24264,0 2.25,1.00736 2.25,2.25c0,1.24264 -1.00736,2.25 -2.25,2.25c-1.24264,0 -2.25,-1.00736 -2.25,-2.25z" fill="#b9b951" stroke="none" stroke-width="0"/><path d="M16.83332,247.25005c0,-1.51878 1.23122,-2.75 2.75,-2.75c1.51878,0 2.75,1.23122 2.75,2.75c0,1.51878 -1.23122,2.75 -2.75,2.75c-1.51878,0 -2.75,-1.23122 -2.75,-2.75z" fill="#b9b951" stroke="none" stroke-width="0"/><path d="M63.33332,354.25005c0,-5.93706 4.81294,-10.75 10.75,-10.75c5.93706,0 10.75,4.81294 10.75,10.75c0,5.93706 -4.81294,10.75 -10.75,10.75c-5.93706,0 -10.75,-4.81294 -10.75,-10.75z" fill="#b9b951" stroke="none" stroke-width="0"/><path d="M26.33332,352.75005c0,-3.45178 2.79822,-6.25 6.25,-6.25c3.45178,0 6.25,2.79822 6.25,6.25c0,3.45178 -2.79822,6.25 -6.25,6.25c-3.45178,0 -6.25,-2.79822 -6.25,-6.25z" fill="#b9b951" stroke="none" stroke-width="0"/><path d="M-2.66668,233.50005c0,-4.14214 3.35786,-7.5 7.5,-7.5c4.14214,0 7.5,3.35786 7.5,7.5c0,4.14214 -3.35786,7.5 -7.5,7.5c-4.14214,0 -7.5,-3.35786 -7.5,-7.5z" fill="#b9b951" stroke="none" stroke-width="0"/><path d="M-13.58334,97.88542c0,-8.28427 6.71573,-15 15,-15c8.28427,0 15,6.71573 15,15c0,8.28427 -6.71573,15 -15,15c-8.28427,0 -15,-6.71573 -15,-15z" fill="#b9b951" stroke="none" stroke-width="0"/><path d="M4.41666,143.38542c0,-3.03757 2.46244,-5.5 5.5,-5.5c3.03757,0 5.5,2.46243 5.5,5.5c0,3.03757 -2.46243,5.5 -5.5,5.5c-3.03756,0 -5.5,-2.46243 -5.5,-5.5z" fill="#b9b951" stroke="none" stroke-width="0"/><path d="M-19.58334,180.88542c0,-8.83656 7.16344,-16 16,-16c8.83656,0 16,7.16344 16,16c0,8.83656 -7.16344,16 -16,16c-8.83656,0 -16,-7.16344 -16,-16z" fill="#b9b951" stroke="none" stroke-width="0"/><path d="M626.41666,94.71876c0,-8.00813 6.49187,-14.5 14.5,-14.5c8.00813,0 14.5,6.49187 14.5,14.5c0,8.00813 -6.49187,14.5 -14.5,14.5c-8.00813,0 -14.5,-6.49187 -14.5,-14.5z" fill="#b9b951" stroke="none" stroke-width="0"/><path d="M626.08332,173.71876c0,-10.21727 8.28273,-18.5 18.5,-18.5c10.21727,0 18.5,8.28273 18.5,18.5c0,10.21727 -8.28273,18.5 -18.5,18.5c-10.21727,0 -18.5,-8.28273 -18.5,-18.5z" fill="#b9b951" stroke="none" stroke-width="0"/><path d="M624.41666,219.88542c0,-3.31371 2.68629,-6 6,-6c3.31371,0 6,2.68629 6,6c0,3.31371 -2.68629,6 -6,6c-3.31371,0 -6,-2.68629 -6,-6z" fill="#b9b951" stroke="none" stroke-width="0"/><path d="M619.41666,133.38542c0,-4.69442 3.80558,-8.5 8.5,-8.5c4.69442,0 8.5,3.80558 8.5,8.5c0,4.69442 -3.80558,8.5 -8.5,8.5c-4.69442,0 -8.5,-3.80558 -8.5,-8.5z" fill="#b9b951" stroke="none" stroke-width="0"/><path d="M621.41666,75.21876c0,-2.57733 2.08934,-4.66666 4.66666,-4.66666c2.57733,0 4.66667,2.08933 4.66667,4.66666c0,2.57733 -2.08934,4.66666 -4.66667,4.66666c-2.57733,0 -4.66666,-2.08933 -4.66666,-4.66666z" fill="#b9b951" stroke="none" stroke-width="0"/><path d="M632.08332,55.55209c0,-1.28867 1.04467,-2.33333 2.33334,-2.33333c1.28867,0 2.33334,1.04467 2.33334,2.33333c0,1.28867 -1.04467,2.33333 -2.33334,2.33333c-1.28867,0 -2.33334,-1.04467 -2.33334,-2.33333z" fill="#b9b951" stroke="none" stroke-width="0"/><path d="M619.41666,113.55209c0,-1.10457 0.89543,-2 2,-2c1.10457,0 2,0.89543 2,2c0,1.10457 -0.89543,2 -2,2c-1.10457,0 -2,-0.89543 -2,-2z" fill="#b9b951" stroke="none" stroke-width="0"/><path d="M619.41666,154.05209c0,-1.933 1.567,-3.5 3.5,-3.5c1.933,0 3.5,1.567 3.5,3.5c0,1.933 -1.567,3.5 -3.5,3.5c-1.933,0 -3.5,-1.567 -3.5,-3.5z" fill="#b9b951" stroke="none" stroke-width="0"/><path d="M619.08332,196.38542c0,-1.933 1.567,-3.5 3.5,-3.5c1.933,0 3.5,1.567 3.5,3.5c0,1.933 -1.567,3.5 -3.5,3.5c-1.933,0 -3.5,-1.567 -3.5,-3.5z" fill="#b9b951" stroke="none" stroke-width="0"/><path d="M606.75,247.21876c0,-1.84095 1.49238,-3.33334 3.33333,-3.33334c1.84095,0 3.33334,1.49239 3.33334,3.33334c0,1.84095 -1.49239,3.33333 -3.33334,3.33333c-1.84095,0 -3.33333,-1.49238 -3.33333,-3.33333z" fill="#b9b951" stroke="none" stroke-width="0"/><path d="M11.16666,73.71876c0,-2.57733 2.08934,-4.66666 4.66667,-4.66666c2.57733,0 4.66666,2.08933 4.66666,4.66666c0,2.57733 -2.08933,4.66666 -4.66666,4.66666c-2.57733,0 -4.66666,-2.08933 -4.66666,-4.66666z" fill="#b9b951" stroke="none" stroke-width="0"/><path d="M13.99999,120.71876c0,-1.7489 1.41777,-3.16666 3.16667,-3.16666c1.7489,0 3.16667,1.41776 3.16667,3.16666c0,1.7489 -1.41777,3.16666 -3.16667,3.16666c-1.7489,0 -3.16667,-1.41776 -3.16667,-3.16666z" fill="#b9b951" stroke="none" stroke-width="0"/><path d="M7.99999,210.05209c0,-2.85347 2.3132,-5.16667 5.16667,-5.16667c2.85347,0 5.16667,2.3132 5.16667,5.16667c0,2.85347 -2.3132,5.16667 -5.16666,5.16667c-2.85347,0 -5.16667,-2.3132 -5.16667,-5.16667z" fill="#b9b951" stroke="none" stroke-width="0"/><path d="M17.99998,171.71876c0,-1.19662 0.97005,-2.16667 2.16667,-2.16667c1.19662,0 2.16667,0.97005 2.16667,2.16667c0,1.19662 -0.97005,2.16666 -2.16667,2.16666c-1.19662,0 -2.16667,-0.97005 -2.16667,-2.16666z" fill="#b9b951" stroke="none" stroke-width="0"/><path d="M74.66666,245.88542c0,-1.84095 1.49238,-3.33333 3.33333,-3.33333c1.84095,0 3.33334,1.49238 3.33334,3.33333c0,1.84095 -1.49238,3.33334 -3.33334,3.33334c-1.84095,0 -3.33333,-1.49239 -3.33333,-3.33334z" fill="#b9b951" stroke="none" stroke-width="0"/><path d="M144.66666,246.38542c0,-1.933 1.567,-3.5 3.5,-3.5c1.933,0 3.5,1.567 3.5,3.5c0,1.933 -1.567,3.5 -3.5,3.5c-1.933,0 -3.5,-1.567 -3.5,-3.5z" fill="#b9b951" stroke="none" stroke-width="0"/><path d="M119.66665,344.88542c0,-1.10457 0.89543,-2 2,-2c1.10457,0 2,0.89543 2,2c0,1.10457 -0.89543,2 -2,2c-1.10457,0 -2,-0.89543 -2,-2z" fill="#b9b951" stroke="none" stroke-width="0"/><path d="M175.99999,340.71875c0,-2.66938 2.16396,-4.83333 4.83333,-4.83333c2.66938,0 4.83333,2.16396 4.83333,4.83333c0,2.66938 -2.16396,4.83333 -4.83333,4.83333c-2.66938,0 -4.83333,-2.16396 -4.83333,-4.83333z" fill="#b9b951" stroke="none" stroke-width="0"/><path d="M184.16665,293.21875c0,-1.7489 1.41776,-3.16667 3.16667,-3.16667c1.7489,0 3.16667,1.41776 3.16667,3.16667c0,1.7489 -1.41776,3.16667 -3.16667,3.16667c-1.7489,0 -3.16667,-1.41776 -3.16667,-3.16667z" fill="#b9b951" stroke="none" stroke-width="0"/><path d="M274.99999,248.21875c0,-2.02504 1.64162,-3.66667 3.66667,-3.66667c2.02504,0 3.66667,1.64162 3.66667,3.66667c0,2.02504 -1.64162,3.66667 -3.66667,3.66667c-2.02504,0 -3.66667,-1.64162 -3.66667,-3.66667z" fill="#b9b951" stroke="none" stroke-width="0"/><path d="M397.66665,246.71875c0,-1.933 1.567,-3.5 3.5,-3.5c1.933,0 3.5,1.567 3.5,3.5c0,1.933 -1.567,3.5 -3.5,3.5c-1.933,0 -3.5,-1.567 -3.5,-3.5z" fill="#b9b951" stroke="none" stroke-width="0"/><path d="M312.66665,330.55208c0,-1.65685 1.34315,-3 3,-3c1.65685,0 3,1.34315 3,3c0,1.65685 -1.34315,3 -3,3c-1.65685,0 -3,-1.34315 -3,-3z" fill="#b9b951" stroke="none" stroke-width="0"/><path d="M425.33332,316.38542c0,-1.7489 1.41776,-3.16667 3.16667,-3.16667c1.7489,0 3.16667,1.41776 3.16667,3.16667c0,1.7489 -1.41776,3.16667 -3.16667,3.16667c-1.7489,0 -3.16667,-1.41776 -3.16667,-3.16667z" fill="#b9b951" stroke="none" stroke-width="0"/><path d="M476.99999,352.21875c0,-1.84095 1.49238,-3.33333 3.33333,-3.33333c1.84095,0 3.33333,1.49238 3.33333,3.33333c0,1.84095 -1.49238,3.33333 -3.33333,3.33333c-1.84095,0 -3.33333,-1.49238 -3.33333,-3.33333z" fill="#b9b951" stroke="none" stroke-width="0"/><path d="M547.99999,307.21875c0,-1.28866 1.04467,-2.33333 2.33333,-2.33333c1.28866,0 2.33333,1.04467 2.33333,2.33333c0,1.28866 -1.04467,2.33333 -2.33333,2.33333c-1.28866,0 -2.33333,-1.04467 -2.33333,-2.33333z" fill="#b9b951" stroke="none" stroke-width="0"/><path d="M633.66665,317.38542c0,-0.82843 0.67157,-1.5 1.5,-1.5c0.82843,0 1.5,0.67157 1.5,1.5c0,0.82843 -0.67157,1.5 -1.5,1.5c-0.82843,0 -1.5,-0.67157 -1.5,-1.5z" fill="#b9b951" stroke="none" stroke-width="0"/><path d="M-15.58334,441.59032v-150h666v150z" fill="url(#color-2)" stroke="none" stroke-width="0"/></g></g></svg>