<svg version="1.1" xmlns="http://www.w3.org/2000/svg" xmlns:xlink="http://www.w3.org/1999/xlink" width="748.33333" height="369.48102" viewBox="0,0,748.33333,369.48102"><defs><linearGradient x1="318.60949" y1="-3.22152" x2="318.60949" y2="364.74051" gradientUnits="userSpaceOnUse" id="color-1"><stop offset="0" stop-color="#ffffff"/><stop offset="1" stop-color="#fdffd4"/></linearGradient><linearGradient x1="-54.16664" y1="25.54984" x2="694.16673" y2="25.54984" gradientUnits="userSpaceOnUse" id="color-2"><stop offset="0" stop-color="#a5a02c"/><stop offset="1" stop-color="#7d690f"/></linearGradient><linearGradient x1="12.302" y1="121.21568" x2="51.80817" y2="117.09004" gradientUnits="userSpaceOnUse" id="color-3"><stop offset="0" stop-color="#382a2d"/><stop offset="1" stop-color="#5e4c47"/></linearGradient><linearGradient x1="40.59064" y1="103.02728" x2="107.82553" y2="96.0059" gradientUnits="userSpaceOnUse" id="color-4"><stop offset="0" stop-color="#5e4c47"/><stop offset="1" stop-color="#382a2d"/></linearGradient></defs><g transform="translate(54.16664,4.74051)"><g stroke-miterlimit="10"><path d="M-47.77955,-3.22152h732.7781v367.96203h-732.7781z" fill="url(#color-1)" fill-rule="evenodd" stroke="none" stroke-width="2.07968" stroke-linecap="round" stroke-linejoin="round"/><path d="M-54.16664,55.84018v-60.58069h748.33333v60.58069z" fill="url(#color-2)" fill-rule="nonzero" stroke="none" stroke-width="0" stroke-linecap="butt" stroke-linejoin="miter"/><text transform="translate(11.03534,39.83269) scale(1.14872,1.02942)" font-size="40" xml:space="preserve" fill="#ffffff" fill-rule="nonzero" stroke="none" stroke-width="1" stroke-linecap="butt" stroke-linejoin="miter" font-family="&quot;Allan-Bold&quot;, Sans Serif" font-weight="normal" text-anchor="start"><tspan x="0" dy="0">CREDITS: The Friends</tspan></text><g fill-rule="nonzero" stroke-linejoin="miter"><text transform="translate(333.64552,258.6894) scale(0.38842,0.38842)" font-size="40" xml:space="preserve" fill="#797621" stroke="none" stroke-width="1" stroke-linecap="butt" font-family="&quot;Allan-Bold&quot;, Sans Serif" font-weight="normal" text-anchor="start"><tspan x="0" dy="0">Eggfinite</tspan></text><g><g><path d="M356.10146,237.5701c-14.98316,0.3375 -27.40303,-11.53516 -27.74052,-26.51832c-0.33751,-14.98317 11.53517,-27.40304 26.51834,-27.74053c14.98316,-0.33751 27.40303,11.53516 27.74052,26.51834c0.33751,14.98316 -11.53515,27.40303 -26.51832,27.74052z" fill="#ffffff" stroke="#ffffff" stroke-width="8.5" stroke-linecap="butt"/><g fill="none"><path d="M379.04708,222.66295c-4.234,0.80468 -22.9714,4.04113 -33.16305,1.80722c-11.88072,-2.60415 -9.82672,-10.43498 -9.82672,-10.43498" stroke="#ffffff" stroke-width="8.5" stroke-linecap="round"/><path d="M338.28185,213.90257l-5.91486,1.12327" stroke="#ffffff" stroke-width="8.5" stroke-linecap="round"/><path d="M365.01834,228.81072c0,0 -3.06642,0.84804 -4.76959,0.86099c-1.94825,0.0148 -6.28379,-0.77699 -6.28379,-0.77699" stroke="#ffffff" stroke-width="8.5" stroke-linecap="round"/><g stroke="none" stroke-width="1" stroke-linecap="butt" font-family="sans-serif" font-weight="normal" font-size="12" text-anchor="start"/></g><path d="M361.9174,218.27861c0.00422,0.3418 -0.08173,1.24427 -0.88383,1.84798c-0.51598,0.38836 -1.65976,0.60573 -2.16604,0.62789c-1.29329,0.05659 -1.62662,-1.70922 -1.63356,-2.2709c-0.00693,-0.56168 1.75658,-1.0629 3.04985,-1.1195c1.29329,-0.05659 1.62662,0.35284 1.63356,0.91451z" fill="#000000" stroke="#ffffff" stroke-width="8.5" stroke-linecap="butt"/><path d="M358.24286,215.05955l0.01467,-5.80548c0,0 6.83141,-7.11783 6.25097,-13.88036c-0.88212,-4.33057 -9.73908,-2.12411 -9.73908,-2.12411l0.40389,-3.63499c0,0 10.71187,-2.92073 11.85667,4.29788c1.1975,8.21765 -6.21937,15.42007 -6.21937,15.42007l0.24793,5.53081z" fill="#000000" stroke="#ffffff" stroke-width="8.5" stroke-linecap="butt"/><g stroke="#ffffff" stroke-width="8.5" stroke-linecap="butt"><path d="M372.195,185.14017c-2.5154,-1.29048 -8.02943,-3.52105 -8.02943,-3.52105l12.77628,-16.83765l1.28404,0.47598l0.27884,23.71813c0,0 -4.07993,-2.69143 -6.30975,-3.8354z" fill="#ffffff"/><path d="M378.4408,183.53596c-1.74239,0.64128 -0.98031,-4.12116 -1.54656,-4.66943c-0.82542,-0.38188 -1.25659,0.18523 -1.42399,0.86493c-0.24582,-0.94302 -0.83871,-2.02382 -0.88223,-2.86261c-0.02228,-0.4294 0.7919,-2.41524 -0.18734,-2.5256c-0.50784,-0.05722 -1.22624,0.98026 -1.54757,1.28226c-0.35552,0.65344 0.39807,2.04691 -0.37992,2.16754c-0.41838,0.06488 -0.74747,-0.66935 -1.59804,-0.33962c-0.888,0.34425 -1.07143,1.82078 -1.9478,2.13453c-0.4341,0.15542 -1.36551,-0.01708 -1.84157,-0.01708c-0.33055,0 -0.9315,0.06858 -1.33468,-0.04129l12.96369,-18.63709z" fill="#000000"/><path d="M372.26034,178.89779c-0.24782,0 -0.44873,-0.2009 -0.44873,-0.44873c0,-0.24783 0.2009,-0.44872 0.44873,-0.44872c0.24782,0 0.44873,0.2009 0.44873,0.44872c0,0.24783 -0.20091,0.44873 -0.44873,0.44873z" fill="#000000"/><path d="M376.59804,186.07742c-0.24782,0 -0.44873,-0.2009 -0.44873,-0.44873c0,-0.24783 0.2009,-0.44872 0.44873,-0.44872c0.24782,0 0.44873,0.2009 0.44873,0.44872c0,0.24783 -0.20091,0.44873 -0.44873,0.44873z" fill="#000000"/><path d="M375.40142,180.61791c-0.12392,0 -0.22436,-0.10045 -0.22436,-0.22436c0,-0.12392 0.10045,-0.22436 0.22436,-0.22436c0.12392,0 0.22436,0.10045 0.22436,0.22436c0,0.12392 -0.10045,0.22436 -0.22436,0.22436z" fill="#000000"/><path d="M373.45694,181.51536c-0.12392,0 -0.22436,-0.10045 -0.22436,-0.22435c0,-0.12392 0.10045,-0.22436 0.22436,-0.22436c0.12392,0 0.22436,0.10045 0.22436,0.22436c0,0.12392 -0.10045,0.22435 -0.22436,0.22435z" fill="#000000"/><path d="M368.67054,179.94482c-0.24782,0 -0.44873,-0.2009 -0.44873,-0.44873c0,-0.24783 0.2009,-0.44872 0.44873,-0.44872c0.24782,0 0.44873,0.2009 0.44873,0.44872c0,0.24783 -0.20091,0.44873 -0.44873,0.44873z" fill="#000000"/></g><g stroke="#ffffff" stroke-width="8.5" stroke-linecap="butt"><path d="M332.17211,189.82817l0.27884,-23.71814l1.28404,-0.47598l12.77628,16.83765c0,0 -5.51405,2.23056 -8.02943,3.52105c-2.22983,1.14397 -6.30975,3.8354 -6.30975,3.8354z" fill="#ffffff"/><path d="M331.96207,161.74511l12.96369,18.63709c-0.40319,0.10987 -1.00414,0.04129 -1.33469,0.04129c-0.47607,0 -1.40749,0.17248 -1.84157,0.01708c-0.87637,-0.31374 -1.05979,-1.79028 -1.94779,-2.13452c-0.85057,-0.32974 -1.17966,0.40448 -1.59804,0.33961c-0.77799,-0.12064 -0.0244,-1.5141 -0.37992,-2.16753c-0.32135,-0.30201 -1.03973,-1.33949 -1.54757,-1.28226c-0.97924,0.11034 -0.16506,2.0962 -0.18734,2.5256c-0.04352,0.8388 -0.63641,1.91961 -0.88223,2.86261c-0.1674,-0.67969 -0.59857,-1.2468 -1.42399,-0.86494c-0.56624,0.54827 0.19582,5.3107 -1.54656,4.66944z" fill="#000000"/><path d="M333.48049,183.04106c0,-0.24783 0.20091,-0.44873 0.44873,-0.44873c0.24782,0 0.44873,0.2009 0.44873,0.44873c0,0.24783 -0.20091,0.44873 -0.44873,0.44873c-0.24782,0 -0.44873,-0.2009 -0.44873,-0.44873z" fill="#000000"/><path d="M336.62161,176.75888c0,-0.24783 0.20091,-0.44873 0.44873,-0.44873c0.24782,0 0.44873,0.20091 0.44873,0.44873c0,0.24783 -0.20091,0.44872 -0.44873,0.44872c-0.24782,0 -0.44873,-0.2009 -0.44873,-0.44872z" fill="#000000"/><path d="M339.83751,181.09659c0,-0.12392 0.10045,-0.22436 0.22436,-0.22436c0.12392,0 0.22436,0.10045 0.22436,0.22436c0,0.12392 -0.10045,0.22436 -0.22436,0.22436c-0.12392,0 -0.22436,-0.10045 -0.22436,-0.22436z" fill="#000000"/><path d="M342.97858,181.84446c0,-0.12392 0.10045,-0.22436 0.22436,-0.22436c0.12392,0 0.22436,0.10045 0.22436,0.22436c0,0.12392 -0.10045,0.22436 -0.22436,0.22436c-0.12392,0 -0.22436,-0.10045 -0.22436,-0.22436z" fill="#000000"/><path d="M341.40806,180.64786c0,-0.24783 0.2009,-0.44873 0.44873,-0.44873c0.24782,0 0.44873,0.20091 0.44873,0.44873c0,0.24783 -0.2009,0.44873 -0.44873,0.44873c-0.24782,0 -0.44873,-0.2009 -0.44873,-0.44873z" fill="#000000"/></g><path d="M350.88469,236.12437l-0.40389,2.55795" fill="none" stroke="#ffffff" stroke-width="8.5" stroke-linecap="round"/><path d="M356.80837,235.8551l-0.53852,4.44277" fill="none" stroke="#ffffff" stroke-width="8.5" stroke-linecap="round"/><path d="M362.05891,236.12436l0.13463,2.55795" fill="none" stroke="#ffffff" stroke-width="8.5" stroke-linecap="round"/></g><g><path d="M356.10146,237.5701c-14.98316,0.3375 -27.40303,-11.53516 -27.74052,-26.51832c-0.33751,-14.98317 11.53517,-27.40304 26.51834,-27.74053c14.98316,-0.33751 27.40303,11.53516 27.74052,26.51834c0.33751,14.98316 -11.53515,27.40303 -26.51832,27.74052z" fill="#ffffff" stroke="#000000" stroke-width="1.5" stroke-linecap="butt"/><g fill="none"><path d="M379.04708,222.66295c-4.234,0.80468 -22.9714,4.04113 -33.16305,1.80722c-11.88072,-2.60415 -9.82672,-10.43498 -9.82672,-10.43498" stroke="#000000" stroke-width="1.5" stroke-linecap="round"/><path d="M338.28185,213.90257l-5.91486,1.12327" stroke="#000000" stroke-width="1.5" stroke-linecap="round"/><path d="M365.01834,228.81072c0,0 -3.06641,0.84804 -4.76958,0.86099c-1.94825,0.0148 -6.28379,-0.77699 -6.28379,-0.77699" stroke="#000000" stroke-width="1.5" stroke-linecap="round"/><g stroke="none" stroke-width="1" stroke-linecap="butt" font-family="sans-serif" font-weight="normal" font-size="12" text-anchor="start"/></g><path d="M361.9174,218.27861c0.00422,0.3418 -0.08174,1.24427 -0.88383,1.84798c-0.51598,0.38836 -1.65976,0.60573 -2.16604,0.62789c-1.29329,0.05659 -1.62662,-1.70922 -1.63356,-2.2709c-0.00693,-0.56168 1.75657,-1.0629 3.04985,-1.1195c1.29329,-0.05659 1.62662,0.35284 1.63356,0.91451z" fill="#000000" stroke="#000000" stroke-width="1.5" stroke-linecap="butt"/><path d="M358.24286,215.05955l0.01467,-5.80548c0,0 6.83141,-7.11783 6.25097,-13.88036c-0.88212,-4.33057 -9.73908,-2.12411 -9.73908,-2.12411l0.40389,-3.63499c0,0 10.71187,-2.92073 11.85667,4.29788c1.1975,8.21765 -6.21937,15.42007 -6.21937,15.42007l0.24793,5.53081z" fill="#000000" stroke="#000000" stroke-width="1.5" stroke-linecap="butt"/><g stroke-linecap="butt"><path d="M372.195,185.14017c-2.5154,-1.29048 -8.02943,-3.52105 -8.02943,-3.52105l12.77628,-16.83765l1.28404,0.47598l0.27884,23.71813c0,0 -4.07993,-2.69143 -6.30975,-3.8354z" fill="#ffffff" stroke="#000000" stroke-width="1.5"/><path d="M378.4408,183.53596c-1.74239,0.64128 -0.98031,-4.12116 -1.54656,-4.66943c-0.82542,-0.38188 -1.25659,0.18523 -1.42399,0.86493c-0.24582,-0.94302 -0.83871,-2.02382 -0.88223,-2.86261c-0.02228,-0.4294 0.7919,-2.41524 -0.18734,-2.5256c-0.50784,-0.05722 -1.22624,0.98026 -1.54757,1.28226c-0.35552,0.65344 0.39807,2.04691 -0.37992,2.16754c-0.41838,0.06488 -0.74747,-0.66935 -1.59804,-0.33962c-0.888,0.34425 -1.07143,1.82078 -1.9478,2.13453c-0.4341,0.15542 -1.36551,-0.01708 -1.84157,-0.01708c-0.33055,0 -0.9315,0.06858 -1.33468,-0.04129l12.96369,-18.63709z" fill="#000000" stroke="none" stroke-width="0"/><path d="M372.26037,178.89779c-0.24782,0 -0.44873,-0.2009 -0.44873,-0.44873c0,-0.24783 0.2009,-0.44872 0.44873,-0.44872c0.24782,0 0.44873,0.2009 0.44873,0.44872c0,0.24783 -0.20091,0.44873 -0.44873,0.44873z" fill="#000000" stroke="none" stroke-width="0.5"/><path d="M376.59804,186.07742c-0.24782,0 -0.44873,-0.2009 -0.44873,-0.44873c0,-0.24783 0.2009,-0.44872 0.44873,-0.44872c0.24782,0 0.44873,0.2009 0.44873,0.44872c0,0.24783 -0.20091,0.44873 -0.44873,0.44873z" fill="#000000" stroke="none" stroke-width="0.5"/><path d="M375.40142,180.61791c-0.12392,0 -0.22436,-0.10045 -0.22436,-0.22436c0,-0.12392 0.10045,-0.22436 0.22436,-0.22436c0.12392,0 0.22436,0.10045 0.22436,0.22436c0,0.12392 -0.10045,0.22436 -0.22436,0.22436z" fill="#000000" stroke="none" stroke-width="0.5"/><path d="M373.45694,181.51536c-0.12392,0 -0.22436,-0.10045 -0.22436,-0.22435c0,-0.12392 0.10045,-0.22436 0.22436,-0.22436c0.12392,0 0.22436,0.10045 0.22436,0.22436c0,0.12392 -0.10045,0.22435 -0.22436,0.22435z" fill="#000000" stroke="none" stroke-width="0.5"/><path d="M368.67054,179.94482c-0.24782,0 -0.44873,-0.2009 -0.44873,-0.44873c0,-0.24783 0.2009,-0.44872 0.44873,-0.44872c0.24782,0 0.44873,0.2009 0.44873,0.44872c0,0.24783 -0.20091,0.44873 -0.44873,0.44873z" fill="#000000" stroke="none" stroke-width="0.5"/></g><g stroke-linecap="butt"><path d="M332.17211,189.82817l0.27884,-23.71814l1.28404,-0.47598l12.77628,16.83765c0,0 -5.51405,2.23056 -8.02943,3.52105c-2.22983,1.14397 -6.30975,3.8354 -6.30975,3.8354z" fill="#ffffff" stroke="#000000" stroke-width="1.5"/><path d="M331.96207,161.74511l12.96369,18.63709c-0.40319,0.10987 -1.00414,0.04129 -1.33469,0.04129c-0.47607,0 -1.40749,0.17248 -1.84157,0.01708c-0.87637,-0.31374 -1.05979,-1.79028 -1.94779,-2.13452c-0.85057,-0.32974 -1.17966,0.40448 -1.59804,0.33961c-0.77799,-0.12064 -0.0244,-1.5141 -0.37992,-2.16753c-0.32135,-0.30201 -1.03973,-1.33949 -1.54757,-1.28226c-0.97924,0.11034 -0.16506,2.0962 -0.18734,2.5256c-0.04352,0.8388 -0.63641,1.91961 -0.88223,2.86261c-0.1674,-0.67969 -0.59857,-1.2468 -1.42399,-0.86494c-0.56624,0.54827 0.19582,5.3107 -1.54656,4.66944z" fill="#000000" stroke="none" stroke-width="0"/><path d="M333.48053,183.04106c0,-0.24783 0.20091,-0.44873 0.44873,-0.44873c0.24782,0 0.44872,0.2009 0.44872,0.44873c0,0.24783 -0.2009,0.44873 -0.44872,0.44873c-0.24782,0 -0.44873,-0.2009 -0.44873,-0.44873z" fill="#000000" stroke="none" stroke-width="0.5"/><path d="M336.62161,176.75888c0,-0.24783 0.20091,-0.44873 0.44873,-0.44873c0.24782,0 0.44873,0.20091 0.44873,0.44873c0,0.24783 -0.20091,0.44872 -0.44873,0.44872c-0.24782,0 -0.44873,-0.2009 -0.44873,-0.44872z" fill="#000000" stroke="none" stroke-width="0.5"/><path d="M339.83751,181.09659c0,-0.12392 0.10045,-0.22436 0.22436,-0.22436c0.12392,0 0.22436,0.10045 0.22436,0.22436c0,0.12392 -0.10045,0.22436 -0.22436,0.22436c-0.12392,0 -0.22436,-0.10045 -0.22436,-0.22436z" fill="#000000" stroke="none" stroke-width="0.5"/><path d="M342.97858,181.84446c0,-0.12392 0.10045,-0.22436 0.22436,-0.22436c0.12392,0 0.22436,0.10045 0.22436,0.22436c0,0.12392 -0.10045,0.22436 -0.22436,0.22436c-0.12392,0 -0.22436,-0.10045 -0.22436,-0.22436z" fill="#000000" stroke="none" stroke-width="0.5"/><path d="M341.40806,180.64786c0,-0.24783 0.2009,-0.44873 0.44873,-0.44873c0.24782,0 0.44873,0.20091 0.44873,0.44873c0,0.24783 -0.2009,0.44873 -0.44873,0.44873c-0.24782,0 -0.44873,-0.2009 -0.44873,-0.44873z" fill="#000000" stroke="none" stroke-width="0.5"/></g><path d="M350.88469,236.12437l-0.40389,2.55795" fill="none" stroke="#000000" stroke-width="2" stroke-linecap="round"/><path d="M356.80837,235.8551l-0.53852,4.44277" fill="none" stroke="#000000" stroke-width="2" stroke-linecap="round"/><path d="M362.05891,236.12436l0.13463,2.55795" fill="none" stroke="#000000" stroke-width="2" stroke-linecap="round"/></g></g></g><text transform="translate(209.78837,105.38913) scale(0.62647,0.63319)" font-size="40" xml:space="preserve" fill="#797621" fill-rule="nonzero" stroke="none" stroke-width="1" stroke-linecap="butt" stroke-linejoin="miter" font-family="&quot;Allan-Regular&quot;, Sans Serif" font-weight="normal" text-anchor="middle"><tspan x="0" dy="0">- Vocal 3 sound &amp; icon</tspan><tspan x="0" dy="48px">- The reason why Hi-Hi </tspan><tspan x="0" dy="48px">is a guitarist</tspan></text><g fill-rule="nonzero" stroke-linejoin="miter"><text transform="translate(44.90081,180.61021) scale(0.38545,0.38545)" font-size="40" xml:space="preserve" fill="#797621" stroke="none" stroke-width="1" stroke-linecap="butt" font-family="&quot;Allan-Bold&quot;, Sans Serif" font-weight="normal" text-anchor="start"><tspan x="0" dy="0">PAWSY</tspan></text><g><g fill="#ffffff" stroke="#ffffff"><path d="M47.42856,144.36382c-1.59822,2.93441 -13.02443,13.40651 -13.02443,13.40651l-2.94756,-5.76719l-11.13577,2.26669c0,0 8.35976,-16.43216 11.25532,-24.01979c4.40559,-11.54469 5.01557,-15.40145 14.03592,-10.48855c4.80379,2.61637 4.21133,12.97518 -1.32329,23.13708z" stroke-width="1.5" stroke-linecap="butt"/><path d="M81.14998,116.56489c8.45933,-5.99455 9.69836,-2.54843 16.05024,7.34443c4.17472,6.502 15.35596,20.24086 15.35596,20.24086l-14.23296,0.87615l-1.69572,6.50231c0,0 -14.1941,-7.913 -16.29875,-10.3492c-7.28843,-8.43655 -3.68379,-21.42217 0.82124,-24.61456z" stroke-width="1.5" stroke-linecap="butt"/><g stroke-width="0" stroke-linecap="butt"><path d="M28.10889,133.91828c-2.0541,-19.6695 12.22603,-37.27997 31.89554,-39.33405c19.6695,-2.05411 37.27998,12.22602 39.33406,31.89552c2.05411,19.66951 -12.22603,37.27997 -31.89554,39.33406c-19.6695,2.0541 -37.27997,-12.22602 -39.33406,-31.89553z"/><path d="M29.12385,135.91771c0,0 -0.25642,-4.49822 -0.07706,-6.68593c1.3798,-16.82946 14.56582,-30.83035 31.97261,-32.64816c18.06485,-1.88653 34.05814,9.73331 38.19332,26.92363c0.36733,1.52698 1.14076,4.9719 1.14076,4.9719c0,0 -1.75051,9.11976 -22.26428,11.26203c-19.6695,2.0541 -48.96531,-3.82349 -48.96531,-3.82349z"/></g><path d="M100.53165,115.27177c0.40426,3.87114 -18.86594,-3.58352 -36.75683,-1.71516c-17.89089,1.86835 -27.62751,12.35219 -28.03178,8.48105c-0.40427,-3.87114 6.54513,-22.70674 24.43601,-24.57509c17.89089,-1.86835 39.94834,13.93807 40.3526,17.8092z" stroke-width="1.5" stroke-linecap="butt"/><g stroke-width="1.5"><path d="M97.03381,145.7415c-5.48206,1.51332 -29.7776,7.78357 -43.42168,5.94082c-15.90534,-2.14814 -14.04547,-12.66795 -14.04547,-12.66795" stroke-linecap="round"/><path d="M34.81967,140.71386l7.65847,-2.11297" stroke-linecap="round"/><path d="M79.24398,155.33468c0,0 -3.9418,1.44487 -6.18042,1.64494c-2.56074,0.22885 -8.34792,-0.3466 -8.34792,-0.3466" stroke-linecap="round"/><g stroke-linecap="butt"><path d="M46.09912,134.50205c-0.31842,-3.04907 1.89521,-5.77897 4.94429,-6.09739c3.04908,-0.31842 5.77898,1.89522 6.0974,4.9443c0.31842,3.04907 -1.89522,5.77897 -4.94429,6.09737c-3.04908,0.31842 -5.77897,-1.89522 -6.09738,-4.9443z"/><path d="M92.86383,129.61838c-0.31842,-3.04908 1.89521,-5.77896 4.94429,-6.09738c3.04908,-0.31842 5.77897,1.89522 6.09739,4.94429c0.31842,3.04907 -1.89522,5.77897 -4.94429,6.09736c-3.04908,0.31842 -5.77897,-1.89521 -6.09737,-4.94429z"/></g></g><g stroke-width="1.5" stroke-linecap="round"><path d="M50.40278,107.92296c0,0 -8.23558,17.40081 -13.02871,24.00334c-1.452,2.00014 -4.58548,4.65596 -7.22234,6.91703c-3.14182,2.69405 -5.7103,4.84141 -5.7103,4.84141c0,0 -1.43792,-1.63268 -1.72827,-2.64513c-0.36004,-1.25544 -0.89617,-3.06064 -0.89617,-3.06064c0,0 -6.1518,2.62489 -9.81941,-2.7387c-5.36255,-7.84233 0.35727,-17.3972 0.35727,-17.3972c0,0 5.58596,8.31405 8.53543,4.981c2.72287,-2.46729 -2.09263,-14.8997 2.13311,-22.31395c4.56157,-8.00348 15.77081,-6.53233 15.77081,-6.53233l11.60861,13.94514z"/><path d="M28.16811,116.7834c0,0 3.75101,-6.53611 5.96022,-9.36245c2.17486,-2.7824 7.1936,-7.46583 7.1936,-7.46583"/></g><path d="M101.28797,120.16507c0,0 -1.27694,0.72483 -6.39208,0.21845c-7.5267,-0.74515 -11.12549,-4.47437 -17.7915,-8.24021c-1.90881,-1.07834 -6.97666,0.70126 -8.35495,-0.85458c-3.52746,-3.98184 -5.37645,-10.63072 -9.71162,-12.04626c-2.65478,-0.86686 -3.65519,3.62108 -6.76594,6.82753c-1.46236,1.50732 -5.25456,2.63665 -6.48645,2.96724c-4.64865,1.24751 -7.30544,-6.39031 -7.15362,-7.56202c0.47355,-3.65469 2.66634,-31.15858 21.46688,-29.24964c8.79813,0.89333 8.2444,5.65219 14.20136,9.73831c2.52418,1.73144 4.2893,-6.89042 14.40204,-1.86384c6.15516,3.05946 1.69505,10.25685 10.17607,13.05781c6.94731,2.29439 2.3573,-2.85425 2.3573,-2.85425c0,0 5.46053,0.88615 6.66194,4.6415c1.02716,3.21071 -0.58003,6.69286 -0.58003,6.69286l5.45807,9.38893c0,0 -5.08505,-0.29763 -3.68491,1.99411c1.23651,2.02391 3.24495,8.99276 3.24495,8.99276z" stroke-width="1.5" stroke-linecap="butt"/><path d="M44.75767,94.05196c0,0 5.39322,-11.40537 11.49887,-10.41225c6.04226,0.98281 8.83892,7.40116 12.53713,12.30527c3.3272,4.41209 7.86798,7.40641 7.86798,7.40641" stroke-width="1.5" stroke-linecap="round"/><path d="M95.41799,110.80412l12.98275,5.33131" stroke-width="1.5" stroke-linecap="round"/><path d="M99.59395,102.69027l4.26413,10.45218" stroke-width="1.5" stroke-linecap="round"/><path d="M65.33043,73.32825c0,0 11.55798,11.37048 15.89758,16.90743c3.68788,4.70541 8.50448,14.2274 8.50448,14.2274" stroke-width="1.5" stroke-linecap="round"/><g stroke-linecap="butt"><path d="M56.50178,113.54056c0.24918,0.50744 -3.2795,2.56809 -7.88156,4.60262c-4.60205,2.03453 -9.0166,8.15234 -9.2658,7.64493c-0.12631,-0.25723 -4.09321,-6.26556 -6.52139,-13.58147c-2.36189,-7.11616 -2.84751,-19.49738 -2.84751,-19.49738c0,0 11.79516,4.53588 17.45798,9.33137c5.37126,4.54856 8.93699,11.2529 9.05828,11.49993z" stroke-width="0"/><path d="M48.62023,118.14318c-2.03972,0.90174 -4.0426,2.60563 -5.66231,4.17928c-6.83826,6.64381 -6.70918,-24.6711 0.50079,-18.56542c5.37126,4.54856 5.16154,14.38615 5.16154,14.38615z" stroke-width="1.5"/><path d="M56.50178,113.54056c0.12065,0.24571 -0.25206,0.81455 -1.59574,1.60922c-1.43146,0.8466 -6.28582,2.9934 -6.28582,2.9934c0,0 -5.50174,-3.42052 -7.70751,-6.43111c-2.72928,-3.7251 -8.00747,-13.50356 -10.07094,-17.38311c-0.38375,-0.72148 0.03871,-1.26739 0.82479,-0.94053c3.46234,1.43968 11.42801,4.96941 15.77693,8.6522c5.37126,4.54856 8.93699,11.25291 9.05828,11.49993z" stroke-width="1.5"/><path d="M56.50178,113.54056c0.24918,0.50744 -3.2795,2.56809 -7.88156,4.60262c-4.60205,2.03453 -9.0166,8.15234 -9.2658,7.64493c-0.12631,-0.25723 -4.09321,-6.26556 -6.52139,-13.58147c-2.36189,-7.11616 -2.84751,-19.49738 -2.84751,-19.49738c0,0 11.79516,4.53588 17.45798,9.33137c5.37126,4.54856 8.93699,11.2529 9.05828,11.49993z" stroke-width="1.5"/></g><g stroke-width="1.5" stroke-linecap="butt"><path d="M88.26911,100.82392c5.82119,-7.19289 10.42672,23.21931 2.38774,18.36569c-1.90412,-1.14961 -2.52047,-0.83928 -4.69964,-1.27296c0,0 -2.02474,-11.73424 2.31191,-17.09274z"/></g></g><g><path d="M45.66016,140.18126c-1.40067,2.57173 -9.94701,13.03361 -9.94701,13.03361l-1.84943,-4.87091l-9.20904,1.80307c0,0 7.32649,-14.40114 9.86415,-21.05095c3.86107,-10.11777 4.39565,-13.49783 12.30108,-9.19217c4.21003,2.29299 3.69082,11.37145 -1.15973,20.27732z" fill="#4e3e3d" stroke="#000000" stroke-width="1.5" stroke-linecap="butt"/><path d="M77.96537,117.10242c7.41377,-5.25362 8.49965,-2.23345 14.06644,6.43666c3.65873,5.69835 13.45796,17.7391 13.45796,17.7391l-9.72202,-0.1494l-1.11925,4.78137c0,0 -10.42175,-8.21909 -12.26628,-10.35419c-6.38757,-7.3938 -8.36507,-15.65574 -4.41687,-18.45356z" fill="#4e3e3d" stroke="#000000" stroke-width="1.5" stroke-linecap="butt"/><g stroke-linecap="butt"><path d="M32.39742,134.32886c-1.8002,-17.23835 10.7149,-32.67217 27.95325,-34.47238c17.23836,-1.8002 32.67217,10.71489 34.47238,27.95325c1.8002,17.23836 -10.71489,32.67218 -27.95325,34.4724c-17.23835,1.8002 -32.67217,-10.71491 -34.47238,-27.95326z" fill="#fcebdf" stroke="none" stroke-width="0"/><path d="M32.36967,134.06322c0,0 -0.22474,-3.94224 -0.06754,-5.85953c1.20927,-14.74934 12.7655,-27.01973 28.02079,-28.61284c15.83205,-1.65335 29.84856,8.53027 33.47263,23.59587c0.32192,1.33826 0.99976,4.35738 0.99976,4.35738c0,0 -1.53414,7.99257 -19.51242,9.87005c-17.23835,1.8002 -42.91321,-3.35091 -42.91321,-3.35091z" fill="#d4c5fa" stroke="none" stroke-width="0"/><path d="M32.39742,134.32886c-1.8002,-17.23835 10.7149,-32.67217 27.95325,-34.47238c17.23836,-1.8002 32.67217,10.71489 34.47238,27.95325c1.8002,17.23836 -10.71489,32.67218 -27.95325,34.4724c-17.23835,1.8002 -32.67217,-10.71491 -34.47238,-27.95326z" fill="none" stroke="#000000" stroke-width="1.5"/></g><path d="M94.9515,115.9691c0.35431,3.39266 -16.53412,-3.14057 -32.21369,-1.50315c-15.67959,1.63742 -24.21277,10.82546 -24.56706,7.43279c-0.3543,-3.39266 5.73615,-19.9002 21.41574,-21.53762c15.67958,-1.63742 35.01073,12.21533 35.36502,15.60797z" fill="#382a2d" stroke="#000000" stroke-width="1.5" stroke-linecap="butt"/><g stroke="#000000" stroke-width="1.5"><path d="M91.88598,142.67281c-4.80448,1.32627 -26.09708,6.82152 -38.05477,5.20654c-13.93944,-1.88264 -12.30946,-11.10222 -12.30946,-11.10222" fill="none" stroke-linecap="round"/><path d="M37.36149,138.26656l6.71189,-1.8518" fill="none" stroke-linecap="round"/><path d="M76.29495,151.08026c0,0 -3.45459,1.26628 -5.41652,1.44162c-2.24422,0.20055 -7.31613,-0.30375 -7.31613,-0.30375" fill="none" stroke-linecap="round"/><g fill="#000000" stroke-linecap="butt"><path d="M47.2468,132.82254c-0.27905,-2.67221 1.66097,-5.06469 4.33319,-5.34374c2.67222,-0.27905 5.06469,1.66096 5.34374,4.33318c0.27905,2.67221 -1.66097,5.06469 -4.33319,5.34375c-2.6722,0.27905 -5.06468,-1.66097 -5.34374,-4.33318z"/><path d="M88.23138,128.5425c-0.27905,-2.67221 1.66097,-5.06467 4.3332,-5.34374c2.67221,-0.27905 5.06467,1.66097 5.34374,4.33318c0.27905,2.67222 -1.66097,5.06469 -4.33318,5.34374c-2.67221,0.27905 -5.06469,-1.66097 -5.34374,-4.33319z"/></g></g><g stroke="#000000" stroke-width="1.5" stroke-linecap="round"><path d="M51.01853,109.52861c0,0 -7.21766,15.25006 -11.41834,21.03654c-1.27254,1.75292 -4.01873,4.0805 -6.32967,6.06209c-2.75351,2.36109 -5.00451,4.24301 -5.00451,4.24301c0,0 -1.26021,-1.43087 -1.51466,-2.31818c-0.31553,-1.10026 -0.23504,-3.78304 -0.23504,-3.78304c0,0 -4.3459,3.25265 -11.17403,-1.11605c-3.12696,-2.00065 -2.43864,-11.02758 -2.43864,-11.02758c0,0 5.99624,7.65333 10.23221,3.81502c2.38632,-2.16235 0.18396,-16.91056 3.8874,-23.4084c3.99778,-7.01426 13.82152,-5.72493 13.82152,-5.72493l10.17379,12.22151z" fill="url(#color-3)"/><path d="M31.53206,117.29392c0,0 3.28738,-5.72825 5.22354,-8.20526c1.90606,-2.4385 6.30447,-6.54305 6.30447,-6.54305" fill="none"/></g><path d="M109.08001,119.01139l-6.47168,-1.62019c0,0 -8.11312,3.50164 -12.59603,3.05783c-6.59639,-0.65304 -9.75038,-3.92133 -15.59248,-7.2217c-1.67288,-0.94504 -6.11434,0.61458 -7.32227,-0.74894c-3.09149,-3.48969 -4.71194,-9.31677 -8.51128,-10.55735c-2.32666,-0.75973 -3.20341,3.17353 -5.92966,5.98365c-1.2816,1.32102 -4.60509,2.31078 -5.68472,2.60049c-4.07407,1.09333 -6.40248,-5.60047 -6.26943,-6.62736c0.41504,-3.20297 2.33677,-27.30741 18.81356,-25.6344c7.7107,0.78292 7.22537,4.9536 12.44606,8.53467c2.21219,1.51743 3.75916,-6.03875 12.62196,-1.63347c5.39438,2.68132 5.84246,10.25032 13.27525,12.70507c7.85492,2.59416 5.84958,-4.90923 5.84958,-4.90923c0,0 2.08356,0.81653 1.82557,4.64109c-0.15038,2.22932 -1.31092,3.57251 -1.31092,3.57251l4.93886,7.65292l-8.06665,-2.86413c0,0 3.34009,3.29349 4.56717,5.30196c1.40909,2.30637 3.41715,7.76659 3.41715,7.76659z" fill="url(#color-4)" stroke="#000000" stroke-width="1.5" stroke-linecap="butt"/><path d="M46.07115,97.37206c0,0 4.72662,-9.99566 10.07759,-9.12528c5.29543,0.86133 7.74642,6.48638 10.98755,10.78433c2.91595,3.86676 6.8955,6.49098 6.8955,6.49098" fill="none" stroke="#000000" stroke-width="1.5" stroke-linecap="round"/><path d="M101.84795,116.72604l-11.3781,-4.67236" fill="none" stroke="#000000" stroke-width="1.5" stroke-linecap="round"/><path d="M97.86676,114.10298l-3.73708,-9.1603" fill="none" stroke="#000000" stroke-width="1.5" stroke-linecap="round"/><path d="M64.10111,79.20982c0,0 10.12941,9.9651 13.93265,14.81767c3.23206,4.12381 7.45333,12.4689 7.45333,12.4689" fill="none" stroke="#000000" stroke-width="1.5" stroke-linecap="round"/><g stroke-linecap="butt"><path d="M56.36371,114.45188c0.21838,0.44472 -2.87417,2.25068 -6.9074,4.03374c-4.03325,1.78305 -7.90215,7.14472 -8.12054,6.70001c-0.11071,-0.22543 -3.58731,-5.49115 -5.71536,-11.9028c-2.06994,-6.23659 -2.49556,-17.08751 -2.49556,-17.08751c0,0 10.33727,3.97524 15.30018,8.17802c4.70737,3.98637 7.83237,9.86205 7.93869,10.07854z" fill="#3b352f" stroke="none" stroke-width="0"/><path d="M49.4563,118.48562c-1.78761,0.79028 -3.54294,2.28356 -4.96245,3.6627c-5.99306,5.82264 -5.87993,-21.62175 0.43889,-16.27073c4.70737,3.98637 4.52356,12.60803 4.52356,12.60803z" fill="#fefefe" stroke="#000000" stroke-width="1.5"/><path d="M56.36371,114.45188c0.10574,0.21533 -0.22092,0.71388 -1.39852,1.41033c-1.25454,0.74196 -5.50888,2.62342 -5.50888,2.62342c0,0 -4.82174,-2.99774 -6.75487,-5.63622c-2.39193,-3.26466 -7.01773,-11.83451 -8.82616,-15.23457c-0.33631,-0.63231 0.03393,-1.11075 0.72284,-0.82429c3.03438,1.26175 10.01551,4.35518 13.82688,7.5828c4.70737,3.98637 7.83238,9.86205 7.9387,10.07854z" fill="#534b40" stroke="#000000" stroke-width="1.5"/><path d="M56.36371,114.45188c0.21838,0.44472 -2.87417,2.25068 -6.9074,4.03374c-4.03325,1.78305 -7.90215,7.14472 -8.12054,6.70001c-0.11071,-0.22543 -3.58731,-5.49115 -5.71536,-11.9028c-2.06994,-6.23659 -2.49556,-17.08751 -2.49556,-17.08751c0,0 10.33727,3.97524 15.30018,8.17802c4.70737,3.98637 7.83237,9.86205 7.93869,10.07854z" fill="none" stroke="#000000" stroke-width="1.5"/></g><g stroke-linecap="butt"><path d="M80.48156,102.60172c4.00695,-4.95113 13.32071,-10.77687 13.32071,-10.77687c0,0 1.78054,10.2747 1.01718,16.54976c-0.78478,6.45118 -3.12163,12.09943 -3.18436,12.33352c-0.12374,0.4618 -4.99648,-3.78919 -9.30548,-4.64672c-4.309,-0.85753 -7.70184,-1.92706 -7.57811,-2.38887c0.06023,-0.2248 1.92943,-6.37461 5.73007,-11.0708z" fill="#3b352f" stroke="none" stroke-width="0"/><path d="M84.20458,103.30703c5.10169,-6.30384 9.13796,20.34939 2.09261,16.0957c-1.66876,-1.00754 -2.20892,-0.73554 -4.11876,-1.11563c0,0 -1.77448,-10.28388 2.02615,-14.98007z" fill="#fefefe" stroke="#000000" stroke-width="1.5"/><path d="M80.48156,102.60172c3.07724,-3.80235 9.28438,-8.12053 11.99912,-9.91966c0.61634,-0.40848 1.07563,-0.03421 0.87446,0.62761c-1.08173,3.55867 -3.87444,12.54207 -5.55474,16.0918c-1.358,2.86886 -5.01469,9.19057 -5.01469,9.19057c0,0 -8.98793,-1.3596 -8.03421,-4.91948c0.06023,-0.2248 1.92942,-6.37462 5.73006,-11.0708z" fill="#534b40" stroke="#000000" stroke-width="1.5"/><path d="M80.48156,102.60172c4.00695,-4.95113 13.32071,-10.77687 13.32071,-10.77687c0,0 1.78054,10.2747 1.01718,16.54976c-0.78478,6.45118 -3.12163,12.09943 -3.18436,12.33352c-0.12374,0.4618 -4.90085,-1.03676 -9.20986,-1.89432c-4.309,-0.85753 -7.79747,-4.67948 -7.67373,-5.14129c0.06023,-0.2248 1.92943,-6.37462 5.73007,-11.0708z" fill="none" stroke="#000000" stroke-width="1.5"/></g></g></g></g><path d="M291.75737,360.46434c-0.00002,0.02824 -0.02294,0.05115 -0.0512,0.05115c-0.02824,0 -0.05117,-0.0229 -0.0512,-0.05115c0.00002,-0.02824 0.02294,-0.05115 0.0512,-0.05115c0.02824,0 0.05117,0.0229 0.0512,0.05115z" fill="#ffffff" fill-rule="nonzero" stroke="#000000" stroke-width="0.27531" stroke-linecap="butt" stroke-linejoin="miter"/><text transform="translate(209.31962,226.2307) scale(0.67903,0.6834)" font-size="40" xml:space="preserve" fill="#797621" fill-rule="nonzero" stroke="none" stroke-width="1" stroke-linecap="butt" stroke-linejoin="miter" font-family="&quot;Allan-Regular&quot;, Sans Serif" font-weight="normal" text-anchor="middle"><tspan x="0" dy="0">-Epic artist behind </tspan><tspan x="0" dy="48px">all the renders in </tspan><tspan x="0" dy="48px">Meet The Polos, plus </tspan><tspan x="0" dy="48px">the group photo</tspan></text><g fill-rule="nonzero" stroke-linejoin="miter"><g><g fill="#ffffff" stroke="none" stroke-width="0"><path d="M64.43186,297.51577l12.42177,-29.14919c0,0 -3.39123,-7.55576 -4.5591,-11.67554c-1.14616,-4.04317 -2.38422,-12.81764 -2.38422,-12.81764l10.33156,0.91949c0,0 1.28362,6.4947 2.78014,9.54085c1.82596,3.71671 7.38526,11.15059 7.38526,11.15059l0.60958,29.66019z" stroke-linecap="butt"/><path d="M31.93684,298.83763l-5.64009,-29.12538c0,0 3.87205,-8.43656 4.87577,-12.45408c0.82262,-3.2927 0.71204,-9.91211 0.71204,-9.91211l9.9073,-3.07114c0,0 0.63444,8.83864 0.36399,13.03242c-0.27558,4.27324 -2.00242,12.37311 -2.00242,12.37311l20.55635,26.20556z" stroke-linecap="butt"/><path d="M14.40491,295.80288l0.85426,-26.754c0,0 5.09134,-6.68266 6.77669,-10.02781c1.38128,-2.74163 2.31026,-11.3757 2.31026,-11.3757l9.62518,1.99474c0,0 -1.2069,7.91025 -2.28234,11.55279c-1.09582,3.71155 -4.23258,10.5133 -4.23258,10.5133l6.61798,26.12542z" stroke-linecap="butt"/><path d="M49.39107,235.46437c0.54355,5.11272 -5.18225,9.98805 -14.51643,10.67696c-21.07271,1.55527 -20.10409,-21.13722 -19.53003,-21.21456c1.20269,-0.16206 8.66841,9.90227 16.37801,4.65237c8.34462,-5.68232 17.1249,0.77253 17.66845,5.88523z" stroke-linecap="butt"/><path d="M45.2797,229.50788c0.38446,3.61631 -4.07726,7.05538 -9.96554,7.68138c-5.88827,0.626 -10.97333,-1.79813 -11.35778,-5.41442c-0.38446,-3.61631 4.07726,-7.05538 9.96554,-7.68138c5.88827,-0.626 10.97333,1.79813 11.35779,5.41442z" stroke-linecap="butt"/><path d="M34.66297,266.25245c-3.48343,-18.96035 9.30473,-37.16219 28.56316,-40.65497c19.25842,-3.49277 37.69435,9.04622 41.17778,28.00657c0.21676,1.17989 0.37053,2.35685 0.46365,3.52752c0.4334,5.44902 14.50164,1.60479 14.65343,3.73814c0.20552,2.88837 -7.17473,23.68232 -12.23579,27.14757c-3.35197,2.29505 -25.94311,5.05223 -30.06933,5.96508c-0.45455,0.10057 -0.91299,0.19284 -1.37512,0.27666c-19.25842,3.49277 -37.69435,-9.04621 -41.17778,-28.00657z" stroke-linecap="butt"/><g><path d="M115.32163,273.77179c-5.29782,1.88783 -41.07515,6.41514 -54.67601,5.6622c-8.13109,-0.45015 -11.81436,-3.39566 -13.47331,-6.15868" stroke-linecap="round"/><path d="M48.35044,264.90013c0,0 3.30637,4.5663 -0.67807,7.8164c-4.50173,3.67208 -8.31739,-2.17386 -8.31739,-2.17386" stroke-linecap="round"/><path d="M94.93031,281.62891c0,0 -3.78291,1.70412 -5.97723,2.06888c-2.51006,0.41722 -8.26368,0.29823 -8.26368,0.29823" stroke-linecap="round"/><g stroke-linecap="butt"><path d="M51.95941,263.30817c-0.53999,-2.93914 1.44237,-5.76069 4.42773,-6.30213c2.98535,-0.54143 5.84319,1.40229 6.38317,4.34145c0.53999,2.93914 -1.44237,5.7607 -4.42772,6.30214c-2.98535,0.54143 -5.8432,-1.40229 -6.38318,-4.34145z"/><path d="M97.7468,255.00409c-0.53999,-2.93914 0.62018,-8.20414 3.60554,-8.74556c2.98534,-0.54143 6.66537,3.84572 7.20537,6.78487c0.53999,2.93914 0.55117,8.642 -2.43418,9.18343c-2.98534,0.54143 -7.83674,-4.28357 -8.37672,-7.22274z"/></g></g><path d="M121.54973,258.73322c0.4233,2.5249 -5.1651,11.92819 -5.1651,11.92819c0,0 -12.06202,-9.64888 -12.3456,-12.31621c-0.28357,-2.66734 16.74214,-4.19619 17.51071,0.38802z" stroke-linecap="butt"/><path d="M34.57056,266.11001c-3.48343,-18.96035 9.30473,-37.16219 28.56316,-40.65496c19.25842,-3.49277 37.69435,9.04622 41.17778,28.00657c0.21676,1.17989 0.37053,2.35685 0.46364,3.52752c0.4334,5.44902 14.50164,1.60479 14.65343,3.73814c0.20552,2.88837 -7.17473,23.68232 -12.23579,27.14757c-3.35196,2.29505 -25.94311,5.05223 -30.06933,5.96508c-0.45455,0.10057 -0.91298,0.19284 -1.37512,0.27667c-19.25842,3.49277 -37.69435,-9.04621 -41.17778,-28.00657z" stroke-linecap="butt"/><path d="M96.14908,236.88694c0,0 -15.28563,1.39672 -28.4551,2.79681c-13.16947,1.40009 -32.41417,4.8161 -32.41417,4.8161c0,0 -11.11212,-16.95629 -6.5079,-21.90631c3.49664,-3.75924 38.40069,-16.09607 42.5972,-15.95338c2.79396,0.09499 23.17767,6.21552 25.72697,10.45488c2.16879,3.60661 -0.94702,19.79191 -0.94702,19.79191z" stroke-linecap="butt"/><path d="M20.49064,299.5041l0.94694,-29.65654c0,0 5.64371,-7.40768 7.5119,-11.11575c1.53113,-3.03906 2.88859,-9.52758 2.88859,-9.52758l10.34174,-0.87112c0,0 -1.33783,8.76845 -2.52995,12.80614c-1.2147,4.11421 -1.35505,11.29916 -1.35505,11.29916l10.20527,29.49836z" stroke-linecap="butt"/><g stroke-linecap="butt"><path d="M99.96428,237.87657c0.26307,2.47451 -1.5507,2.3287 -11.01564,4.43122c-2.63374,0.58506 -4.61483,6.99792 -6.49497,7.52615c-1.65945,0.46625 -7.34425,-4.7911 -9.49055,-4.69213c-8.77014,0.40435 -48.46803,5.57903 -49.96731,4.14951c-1.23577,-1.17825 0.56688,-5.99282 0.6797,-7.07205c0.26836,-2.56725 35.11029,-5.15018 46.97727,-7.61494c2.1007,-0.43631 4.33879,-11.64127 5.49761,-11.34435c1.5708,0.40246 6.9825,8.37517 9.29189,8.37857c7.20628,0.01059 8.85873,-0.24436 10.91336,1.1129c2.15829,1.42573 3.5274,4.361 3.60864,5.12511z"/></g><path d="M31.21666,222.77363c0.34659,3.26003 -7.98671,5.41257 -11.22746,5.75711c-3.24077,0.34454 -5.09576,-2.6933 -5.44234,-5.95332c-0.34659,-3.26003 3.17076,-6.97024 7.99143,-7.10029c4.82067,-0.13005 8.3318,4.03648 8.67838,7.29652z" stroke-linecap="butt"/></g><path d="M69.18531,293.47716l6.93034,-26.69976c0,0 -3.09623,-6.98254 -4.16475,-10.78876c-1.04865,-3.73544 -2.18792,-11.84024 -2.18792,-11.84024l9.40012,0.8644c0,0 1.17733,5.99957 2.54325,8.81481c1.66661,3.43497 6.73496,10.30817 6.73496,10.30817l0.59842,27.39121z" fill="#321700" stroke="#000000" stroke-width="1.5" stroke-linecap="butt"/><path d="M35.2993,294.85004l-5.17395,-26.90477c0,0 3.50998,-7.78518 4.41714,-11.49377c0.74347,-3.03949 0.63309,-9.15248 0.63309,-9.15248l9.00825,-2.82145c0,0 0.59023,8.16315 0.35041,12.03559c-0.24437,3.94581 -1.80332,11.42324 -1.80332,11.42324l12.38905,24.64586z" fill="#321700" stroke="#000000" stroke-width="1.5" stroke-linecap="butt"/><path d="M19.34578,292.02161l0.73757,-24.70526c0,0 4.62178,-6.16371 6.15001,-9.25036c1.25251,-2.52976 2.35789,-7.93346 2.35789,-7.93346l8.48608,-0.71193c0,0 -1.08623,7.30309 -2.05918,10.66527c-0.99139,3.42588 -3.83489,9.70247 -3.83489,9.70247l6.05911,24.13585z" fill="#5a2800" stroke="#000000" stroke-width="1.5" stroke-linecap="butt"/><path d="M51.0839,236.35252c0.50203,4.72224 -4.69959,9.216 -13.19,9.83838c-19.16782,1.40508 -18.32022,-19.54933 -17.79811,-19.61991c1.09386,-0.14788 7.90043,9.15728 14.90618,4.32055c7.58279,-5.23511 15.5799,0.73873 16.08194,5.46098z" fill="#d60035" stroke="#000000" stroke-width="1.5" stroke-linecap="butt"/><path d="M47.33493,230.84581c0.3551,3.34012 -3.69871,6.5094 -9.05441,7.07878c-5.35571,0.56938 -9.98524,-1.67675 -10.34033,-5.01686c-0.3551,-3.34012 3.6987,-6.50941 9.0544,-7.07879c5.35572,-0.56938 9.98525,1.67676 10.34034,5.01687z" fill="#d60035" stroke="#000000" stroke-width="1.5" stroke-linecap="butt"/><path d="M37.7311,264.76264c-3.19697,-17.51448 8.40967,-34.30443 25.92415,-37.5014c17.51448,-3.19697 34.30444,8.40967 37.50141,25.92415c0.19894,1.08992 0.34057,2.17702 0.427,3.25824c0.40233,5.03264 13.19472,1.50343 13.33595,3.47373c0.19124,2.66762 -6.49192,21.85931 -11.09091,25.05188c-3.04594,2.11446 -23.59333,4.6272 -27.34565,5.46409c-0.41337,0.09219 -0.83027,0.17674 -1.25056,0.25345c-17.51448,3.19697 -34.30444,-8.40967 -37.5014,-25.92415z" fill="#febe46" stroke="none" stroke-width="0" stroke-linecap="butt"/><path d="M101.93687,258.08235l11.12138,5.62811c0,0 -4.58816,20.81349 -11.18832,21.51518c-4.919,0.52295 -20.8029,6.20329 -34.73121,5.72615c-4.92413,-0.16868 -9.56748,-3.0793 -13.44593,-4.5245c-13.40678,-4.9957 -15.43189,-21.57534 -15.43189,-21.57534c0,0 1.80771,-2.86356 8.21196,-3.99108c2.41575,-0.42532 6.36835,0.89438 9.83843,0.52547c6.70856,-0.71321 20.26442,1.37251 30.44432,0.69829c9.04532,-0.59907 15.18124,-4.00227 15.18124,-4.00227z" fill="#fee2c0" stroke="none" stroke-width="0" stroke-linecap="butt"/><g stroke="#000000" stroke-width="1.5"><path d="M111.11849,271.82584c-4.8167,1.73552 -37.35712,5.86344 -49.73112,5.148c-7.39762,-0.42772 -10.75271,-3.15326 -12.26598,-5.70729" fill="none" stroke-linecap="round"/><path d="M50.18078,263.53405c0,0 3.01461,4.22173 -0.60527,7.21721c-4.08984,3.38439 -7.56966,-2.01979 -7.56966,-2.01979" fill="none" stroke-linecap="round"/><path d="M92.57985,279.05148c0,0 -3.43886,1.56811 -5.43451,1.9017c-2.28283,0.38158 -7.51713,0.26318 -7.51713,0.26318" fill="none" stroke-linecap="round"/><g fill="#000000" stroke-linecap="butt"><path d="M53.46156,262.06925c-0.49558,-2.71501 1.30362,-5.31769 4.01863,-5.81328c2.71501,-0.49558 5.3177,1.30361 5.81328,4.01863c0.49558,2.71501 -1.30362,5.3177 -4.01863,5.81329c-2.71501,0.49558 -5.31771,-1.30363 -5.81328,-4.01864z"/><path d="M95.10266,254.46841c-0.49558,-2.71501 1.30362,-5.3177 4.01864,-5.81328c2.71501,-0.49558 5.3177,1.30362 5.81328,4.01863c0.49558,2.71501 -1.30362,5.31769 -4.01863,5.81328c-2.71501,0.49558 -5.31771,-1.30361 -5.81329,-4.01863z"/></g></g><path d="M117.76648,260.17814c0.24998,2.35136 -5.68559,8.77693 -5.68559,8.77693c0,0 -6.98232,-4.9387 -7.24424,-7.40232c-0.26192,-2.46362 12.66792,-3.83823 12.92984,-1.37462z" fill="#000000" stroke="#000000" stroke-width="1.5" stroke-linecap="butt"/><path d="M37.64683,264.63095c-3.19697,-17.51448 8.40967,-34.30443 25.92415,-37.5014c17.51448,-3.19697 34.30444,8.40968 37.5014,25.92416c0.19894,1.08992 0.34057,2.17703 0.427,3.25825c0.40233,5.03264 13.19472,1.50343 13.33595,3.47373c0.19124,2.66762 -6.49192,21.85931 -11.09091,25.05188c-3.04594,2.11446 -23.59333,4.6272 -27.34565,5.46409c-0.41337,0.09219 -0.83027,0.17674 -1.25055,0.25346c-17.51448,3.19697 -34.30444,-8.40968 -37.5014,-25.92416z" fill="none" stroke="#000000" stroke-width="1.5" stroke-linecap="butt"/><path d="M93.62239,237.7354c0,0 -13.90348,1.26722 -25.88184,2.54067c-11.97836,1.27346 -29.48047,4.39957 -29.48047,4.39957c0,0 -10.13393,-15.67508 -5.95273,-20.23946c3.17538,-3.46638 34.90981,-14.80744 38.72764,-14.66946c2.54184,0.09186 21.09424,5.77414 23.41964,9.69284c1.97831,3.3338 -0.83223,18.27584 -0.83223,18.27584z" fill="#d60035" stroke="#000000" stroke-width="1.5" stroke-linecap="butt"/><path d="M30.20937,247.30915l-3.27498,-12.66755l13.01992,-2.2278l1.22892,11.55938z" fill="#d60035" stroke="none" stroke-width="0" stroke-linecap="butt"/><path d="M24.88753,295.44858l0.81759,-27.38554c0,0 5.12318,-6.83243 6.81722,-10.25395c1.3884,-2.80423 2.6137,-8.79418 2.6137,-8.79418l9.40674,-0.78915c0,0 -1.20407,8.09542 -2.28259,11.82236c-1.09895,3.79755 -4.25095,10.75509 -4.25095,10.75509l6.71648,26.75437z" fill="#5a2800" stroke="#000000" stroke-width="1.5" stroke-linecap="butt"/><g stroke-linecap="butt"><path d="M97.0946,238.65493c0.24298,2.28553 -1.40724,2.14819 -10.01453,4.0758c-2.39508,0.53639 -4.18782,6.45555 -5.89742,6.94057c-1.50893,0.42812 -6.68824,-4.4353 -8.64062,-4.3471c-7.97772,0.36043 -44.29231,5.10255 -45.65834,3.7802c-1.12593,-1.08991 0.71538,-5.55553 0.81642,-6.55199c0.24034,-2.37038 31.93268,-4.70411 42.72458,-6.96268c1.91039,-0.39981 3.92983,-10.74395 4.98447,-10.46804c1.42957,0.37398 6.36446,7.74456 8.46536,7.75111c6.55566,0.02044 8.05855,-0.21255 9.92967,1.04387c1.96554,1.31982 3.21537,4.03247 3.2904,4.73824z" fill="#ffffff" stroke="none" stroke-width="0"/><path d="M75.91934,247.63294l2.44751,-11.21278l5.82677,9.69064c0,0 -1.40164,3.56816 -2.57702,3.78438c-1.50188,0.27629 -5.69727,-2.26225 -5.69727,-2.26225z" fill="#d60035" stroke="none" stroke-width="0"/><path d="M97.0946,238.65493c0.24298,2.28553 -1.40724,2.14819 -10.01453,4.0758c-2.39508,0.53639 -4.18782,6.45555 -5.89742,6.94057c-1.50893,0.42812 -6.68824,-4.4353 -8.64062,-4.3471c-7.97772,0.36043 -44.08376,5.08038 -45.4498,3.75804c-1.12593,-1.08991 0.50683,-5.53335 0.60787,-6.52982c0.24034,-2.37038 31.93268,-4.7041 42.72458,-6.96267c1.91039,-0.39981 3.92983,-10.74395 4.98447,-10.46804c1.42957,0.37398 6.36446,7.74456 8.46536,7.75111c6.55566,0.02044 8.05855,-0.21255 9.92967,1.04387c1.96554,1.31982 3.21537,4.03247 3.2904,4.73824z" fill="none" stroke="#000000" stroke-width="1.5"/></g><path d="M29.05665,223.62982c0.32012,3.01105 -1.80993,5.70602 -4.75758,6.0194c-2.94766,0.31338 -5.5967,-1.87353 -5.91681,-4.88457c-0.32012,-3.01105 1.80993,-5.70602 4.75758,-6.0194c2.94766,-0.31338 5.59671,1.87353 5.91682,4.88457z" fill="#ffffff" stroke="#000000" stroke-width="1.5" stroke-linecap="butt"/></g><text transform="translate(46.30402,315.00637) scale(0.38608,0.38608)" font-size="40" xml:space="preserve" fill="#797621" stroke="none" stroke-width="1" stroke-linecap="butt" font-family="&quot;Allan-Bold&quot;, Sans Serif" font-weight="normal" text-anchor="start"><tspan x="0" dy="0">NAX JIX</tspan></text></g><g fill-rule="nonzero" stroke-linejoin="miter"><text transform="translate(345.24772,346.00442) scale(0.36545,0.36545)" font-size="40" xml:space="preserve" fill="#797621" stroke="none" stroke-width="1" stroke-linecap="butt" font-family="&quot;Allan-Bold&quot;, Sans Serif" font-weight="normal" text-anchor="start"><tspan x="0" dy="0">Vibre</tspan></text><g><g stroke="#ffffff" stroke-width="8.5"><path d="M350.60799,322.24381c0,0 -2.20803,2.36532 -2.99177,3.66012c-0.81507,1.34654 -1.80832,4.26997 -1.80832,4.26997c0,0 -2.4808,-1.94651 -3.26445,-3.04895c-0.92876,-1.30658 -1.94707,-4.28265 -1.94707,-4.28265c0,0 -2.81622,-0.09306 -4.07524,0.12239c-1.02317,0.1751 -2.91917,1.0746 -2.91917,1.0746c0,0 -0.75462,-3.6938 -1.00717,-5.63598c-0.27024,-2.07813 -0.56477,-6.45256 -0.56477,-6.45256l-5.67295,3.40051c0,0 -0.78097,-15.45047 0.3341,-20.91732c0.95497,-4.68197 5.1279,-13.48651 5.1279,-13.48651l-4.5258,-3.59098c0,0 3.59945,-0.62253 5.59491,-0.73612c2.90913,-0.16559 10.17681,-0.16163 10.17681,-0.16163l-4.25151,-3.89023c0,0 13.77859,-0.68964 19.61179,3.29174h0.49393c5.8332,-3.98138 19.6118,-3.29174 19.6118,-3.29174l-4.2515,3.89023c0,0 7.26767,-0.00396 10.1768,0.16163c1.99546,0.11358 5.59491,0.73612 5.59491,0.73612l-4.5258,3.59098c0,0 4.17292,8.80454 5.1279,13.48651c1.11507,5.46685 0.3341,20.91732 0.3341,20.91732l-5.67295,-3.40051c0,0 -0.29454,4.37443 -0.56477,6.45256c-0.25255,1.94218 -1.00717,5.63599 -1.00717,5.63599c0,0 -1.89599,-0.89951 -2.91917,-1.0746c-1.25903,-0.21546 -4.07525,-0.12239 -4.07525,-0.12239c0,0 -1.01831,2.97607 -1.94707,4.28265c-0.78365,1.10244 -3.26446,3.04896 -3.26446,3.04896c0,0 -0.99325,-2.92343 -1.80831,-4.26997c-0.78375,-1.2948 -2.99177,-3.66012 -2.99177,-3.66012z" fill="#13093d" stroke-linecap="round"/><path d="M378.47827,313.0209c0,0 -0.5951,-5.15793 -0.5462,-7.7983c0.06129,-3.30962 0.88523,-10.50912 0.88523,-10.50912l6.27198,0.33902l-0.33903,16.10374z" fill="#101416" stroke-linecap="butt"/><path d="M335.87582,303.89313c0.19777,-12.63358 10.59964,-22.71481 23.23322,-22.51703c12.63358,0.19776 22.71481,10.59963 22.51703,23.23321c-0.19776,12.63358 -10.59963,22.71481 -23.23321,22.51703c-12.63358,-0.19777 -22.7148,-10.59964 -22.51703,-23.23322z" fill="#23a2ff" stroke-linecap="butt"/><path d="M378.20327,315.30596c-3.59287,0.54167 -19.48253,2.66537 -27.99671,0.45547c-9.92524,-2.57617 -7.94285,-9.10724 -7.94285,-9.10724" fill="none" stroke-linecap="round"/><path d="M343.97876,305.9968l-5.01917,0.75598" fill="none" stroke-linecap="round"/><path d="M366.18679,320.03382c0,0 -2.61064,0.61578 -4.04589,0.57188c-1.6418,-0.05021 -5.26885,-0.85678 -5.26885,-0.85678" fill="none" stroke-linecap="round"/><g fill="#000000" stroke-linecap="butt"><path d="M346.59662,303.04656c0.01974,-1.26065 1.0577,-2.26663 2.31835,-2.24689c1.26065,0.01974 2.26663,1.0577 2.24689,2.31835c-0.01974,1.26065 -1.05769,2.26664 -2.31835,2.2469c-1.26065,-0.01974 -2.26663,-1.05769 -2.2469,-2.31836z"/><path d="M376.68274,303.22526c0.01974,-1.26065 1.0577,-2.26664 2.31835,-2.2469c1.26065,0.01974 2.26664,1.05769 2.2469,2.31836c-0.01974,1.26065 -1.05769,2.26664 -2.31836,2.2469c-1.26065,-0.01974 -2.26663,-1.05769 -2.24689,-2.31836z"/></g><path d="M380.25195,295.64256c0,0.11414 -4.76776,3.46623 -4.76776,3.46623l-2.42632,-2.26108l-10.80588,2.76817l0.66285,-1.74171l-13.09072,1.48477l0.59363,-2.76218l-8.73522,3.3273c0,0 -3.5495,-3.37284 -3.5495,-3.81696c0,-1.36833 4.43566,-14.83765 23.14993,-14.8655c11.57558,-0.01722 18.969,13.89228 18.969,14.40096z" fill="#13093d" stroke-linecap="butt"/><path d="M335.96509,294.09407v-11.45883c0,0 14.10825,-2.32274 21.05947,-2.32274c7.97866,0 24.15645,2.32274 24.15645,2.32274v11.45883z" fill="#13093d" stroke-linecap="butt"/><path d="M331.96835,311.46594l-0.33903,-16.10374l6.27198,-0.33902c0,0 0.82394,7.19949 0.88523,10.50911c0.0489,2.64038 -0.5462,7.79831 -0.5462,7.79831z" fill="#101416" stroke-linecap="butt"/><path d="M379.67684,294.44336c-0.83817,-2.5741 -1.72158,-5.08887 -1.72158,-5.08887l-38.35307,0.01223l-1.26515,5.54842l-3.80926,0.12844c0,0 -2.26452,-7.19957 2.12635,-8.03532c9.01495,-1.7159 16.22524,-1.77468 23.63026,-1.5808c6.16578,0.16141 12.46658,0.35552 20.05661,1.23696l1.08011,0.07088c0,0 1.81766,0.12554 1.69545,1.10944c0.3254,2.61223 0.5196,4.57615 0.58966,7.18962z" fill="#101416" stroke-linecap="round"/></g><g><path d="M350.60799,322.24381c0,0 -2.20803,2.36532 -2.99177,3.66012c-0.81507,1.34654 -1.80831,4.26997 -1.80831,4.26997c0,0 -2.48081,-1.94651 -3.26446,-3.04895c-0.92876,-1.30658 -1.94707,-4.28265 -1.94707,-4.28265c0,0 -2.81622,-0.09306 -4.07525,0.12239c-1.02317,0.1751 -2.91917,1.0746 -2.91917,1.0746c0,0 -0.75462,-3.6938 -1.00717,-5.63598c-0.27024,-2.07813 -0.56477,-6.45256 -0.56477,-6.45256l-5.67295,3.40051c0,0 -0.78096,-15.45047 0.33411,-20.91732c0.95497,-4.68197 5.12789,-13.48651 5.12789,-13.48651l-4.5258,-3.59098c0,0 3.59946,-0.62253 5.59492,-0.73612c2.90913,-0.16559 10.17681,-0.16163 10.17681,-0.16163l-4.2515,-3.89023c0,0 13.77859,-0.68964 19.61179,3.29174h0.49393c5.8332,-3.98138 19.6118,-3.29174 19.6118,-3.29174l-4.25151,3.89023c0,0 7.26767,-0.00396 10.1768,0.16163c1.99546,0.11358 5.59491,0.73612 5.59491,0.73612l-4.52579,3.59098c0,0 4.17292,8.80454 5.12789,13.48651c1.11507,5.46685 0.3341,20.91732 0.3341,20.91732l-5.67295,-3.40051c0,0 -0.29455,4.37443 -0.56477,6.45256c-0.25255,1.94218 -1.00716,5.63599 -1.00716,5.63599c0,0 -1.896,-0.89951 -2.91917,-1.0746c-1.25903,-0.21546 -4.07524,-0.12239 -4.07524,-0.12239c0,0 -1.01832,2.97607 -1.94707,4.28265c-0.78365,1.10244 -3.26445,3.04896 -3.26445,3.04896c0,0 -0.99325,-2.92343 -1.80832,-4.26997c-0.78375,-1.2948 -2.99177,-3.66012 -2.99177,-3.66012z" fill="#13093d" stroke="#000000" stroke-width="1.5" stroke-linecap="round"/><path d="M378.47827,313.0209c0,0 -0.5951,-5.15793 -0.5462,-7.7983c0.06129,-3.30962 0.88523,-10.50912 0.88523,-10.50912l6.27198,0.33902l-0.33903,16.10374z" fill="#101416" stroke="#000000" stroke-width="1.5" stroke-linecap="butt"/><path d="M335.87582,303.89313c0.19777,-12.63358 10.59964,-22.71481 23.23322,-22.51703c12.63358,0.19776 22.71481,10.59963 22.51703,23.23321c-0.19776,12.63358 -10.59963,22.71481 -23.23321,22.51703c-12.63358,-0.19777 -22.7148,-10.59964 -22.51703,-23.23322z" fill="#23a2ff" stroke="#000000" stroke-width="1.5" stroke-linecap="butt"/><path d="M378.20327,315.30596c-3.59287,0.54167 -19.48253,2.66537 -27.99671,0.45547c-9.92524,-2.57617 -7.94285,-9.10724 -7.94285,-9.10724" fill="none" stroke="#000000" stroke-width="1.5" stroke-linecap="round"/><path d="M343.97876,305.9968l-5.01917,0.75598" fill="none" stroke="#000000" stroke-width="1.5" stroke-linecap="round"/><path d="M366.18679,320.03382c0,0 -2.61064,0.61578 -4.04589,0.57188c-1.6418,-0.05021 -5.26885,-0.85678 -5.26885,-0.85678" fill="none" stroke="#000000" stroke-width="1.5" stroke-linecap="round"/><g fill="#000000" stroke="#000000" stroke-width="1.5" stroke-linecap="butt"><path d="M346.59662,303.04656c0.01974,-1.26065 1.0577,-2.26663 2.31835,-2.24689c1.26065,0.01974 2.26663,1.0577 2.24689,2.31835c-0.01974,1.26065 -1.05769,2.26664 -2.31835,2.2469c-1.26065,-0.01974 -2.26663,-1.05769 -2.2469,-2.31836z"/><path d="M376.68274,303.22526c0.01974,-1.26065 1.0577,-2.26664 2.31835,-2.2469c1.26065,0.01974 2.26664,1.05769 2.2469,2.31836c-0.01974,1.26065 -1.05769,2.26664 -2.31836,2.2469c-1.26065,-0.01974 -2.26663,-1.05769 -2.24689,-2.31836z"/></g><path d="M380.25195,295.64256c0,0.11414 -4.76776,3.46623 -4.76776,3.46623l-2.42632,-2.26108l-10.80588,2.76817l0.66285,-1.74171l-13.09072,1.48477l0.59363,-2.76218l-8.73522,3.3273c0,0 -3.5495,-3.37284 -3.5495,-3.81696c0,-1.36833 4.43566,-14.83765 23.14993,-14.8655c11.57558,-0.01722 18.969,13.89228 18.969,14.40096z" fill="#13093d" stroke="#000000" stroke-width="1.5" stroke-linecap="butt"/><path d="M335.96509,294.09407v-11.45883c0,0 14.10825,-2.32274 21.05947,-2.32274c7.97866,0 24.15645,2.32274 24.15645,2.32274v11.45883z" fill="#13093d" stroke="none" stroke-width="0" stroke-linecap="butt"/><path d="M331.96835,311.46594l-0.33903,-16.10374l6.27198,-0.33902c0,0 0.82394,7.19949 0.88523,10.50911c0.0489,2.64038 -0.5462,7.79831 -0.5462,7.79831z" fill="#101416" stroke="#000000" stroke-width="1.5" stroke-linecap="butt"/><path d="M379.67684,294.44336c-0.83817,-2.5741 -1.72158,-5.08887 -1.72158,-5.08887l-38.35307,0.01223l-1.26515,5.54842l-3.80926,0.12844c0,0 -2.26452,-7.19957 2.12635,-8.03532c9.01495,-1.7159 16.22524,-1.77468 23.63026,-1.5808c6.16578,0.16141 12.46658,0.35552 20.05661,1.23696l1.08011,0.07088c0,0 1.81766,0.12554 1.69545,1.10944c0.3254,2.61223 0.5196,4.57615 0.58966,7.18962z" fill="#101416" stroke="#000000" stroke-width="1.5" stroke-linecap="round"/></g></g></g><text transform="translate(399.50003,112) scale(0.5,0.5)" font-size="40" xml:space="preserve" fill="#797621" fill-rule="nonzero" stroke="none" stroke-width="1" stroke-linecap="butt" stroke-linejoin="miter" font-family="&quot;Allan-Regular&quot;, Sans Serif" font-weight="normal" text-anchor="start"><tspan x="0" dy="0">-Helped with Melody 3's animation</tspan></text><text transform="translate(396.50003,212) scale(0.5,0.5)" font-size="40" xml:space="preserve" fill="#797621" fill-rule="nonzero" stroke="none" stroke-width="1" stroke-linecap="butt" stroke-linejoin="miter" font-family="&quot;Allan-Regular&quot;, Sans Serif" font-weight="normal" text-anchor="start"><tspan x="0" dy="0">-Melody 4 design</tspan></text><text transform="translate(400.50006,300) scale(0.5,0.5)" font-size="40" xml:space="preserve" fill="#797621" fill-rule="nonzero" stroke="none" stroke-width="1" stroke-linecap="butt" stroke-linejoin="miter" font-family="&quot;Allan-Regular&quot;, Sans Serif" font-weight="normal" text-anchor="start"><tspan x="0" dy="0">-Helped with Melody 3's animation</tspan><tspan x="0" dy="48px">-Allstar 4 sound</tspan></text><g fill-rule="nonzero" stroke-linejoin="miter"><text transform="translate(329.81688,154.63693) scale(0.33848,0.33848)" font-size="40" xml:space="preserve" fill="#797621" stroke="none" stroke-width="1" stroke-linecap="butt" font-family="&quot;Allan-Bold&quot;, Sans Serif" font-weight="normal" text-anchor="start"><tspan x="0" dy="0">Kautaruma</tspan></text><g><g><path d="M355.77343,121.7043c11.34661,0 21.12852,2.67858 21.12852,5.38552c0,3.34236 -1.45193,2.06078 -1.80588,3.68333c-0.5783,2.65093 1.53701,5.39988 -1.75561,7.42408c-3.89635,2.39534 -14.12402,2.71314 -18.85107,1.69197c-1.37036,-0.29603 -2.89965,0.2481 -4.12471,-0.04595c-5.70328,-1.36892 -9.97508,-3.46661 -12.97588,-4.84139c-8.86415,-4.06098 -7.53973,-7.21755 -6.41381,-9.50688c0.53881,-1.09556 2.12183,-1.16466 1.23194,-1.85701c-0.91665,-0.71316 -0.4262,-1.94033 -0.24685,-2.84292c0.46843,-2.3573 23.81335,0.90924 23.81335,0.90924z" fill="#95394b" stroke="#ffffff" stroke-width="8.5" stroke-linecap="butt"/><path d="M345.82719,129.96152c4.58326,1.09846 8.40008,1.52151 8.38112,1.63513c-0.01896,0.11363 -4.4502,1.41354 -9.03346,0.31509c-4.58326,-1.09846 -7.58297,-4.17931 -7.56401,-4.29294c0.01896,-0.11364 3.63308,1.24426 8.21634,2.34272z" fill="#5a1c29" stroke="#ffffff" stroke-width="8.5" stroke-linecap="butt"/><path d="M364.70917,131.18865c2.93021,-0.53632 5.27308,-1.18801 5.28435,-1.1365c0.01126,0.0515 -2.35421,1.55505 -5.28441,2.09136c-2.93021,0.53632 -5.31552,-0.09768 -5.3268,-0.14918c-0.01126,-0.0515 2.39666,-0.26936 5.32686,-0.80568z" fill="#5a1c29" stroke="#ffffff" stroke-width="8.5" stroke-linecap="butt"/><g stroke="#ffffff" stroke-width="8.5"><path d="M354.50474,84.98457c9.52278,-17.92906 25.09114,-17.84114 25.09114,-17.84114c0,0 3.43171,23.64331 -2.32841,29.41947" fill="#645d96" stroke-linecap="round"/><path d="M374.3348,79.04555c-0.37764,0.86535 -7.11446,-1.03345 -7.42581,-2.00782c-0.26677,-0.83478 3.42343,-5.32369 5.47402,-4.76925c2.05058,0.55445 2.30235,5.97384 1.95182,6.77707z" fill="#504884" stroke-linecap="butt"/></g><path d="M355.55812,129.71571c-11.82689,0.26641 -22.99529,-7.8349 -26.21843,-18.56446c-0.3209,-1.06825 0.70066,-1.68878 0.521,-2.78964c-0.19733,-1.2091 -0.31311,-2.4487 -0.34159,-3.71309c-0.32149,-14.27195 10.98761,-26.10227 25.25955,-26.42374c14.27195,-0.32149 26.10227,10.9876 26.42374,25.25955c0.036,1.59791 0.98344,3.29971 1.28973,4.93364c0.21173,1.12943 -0.08378,2.22642 -0.37572,3.23423c-2.22034,7.66469 -6.88348,12.76032 -13.18268,15.57849c-6.29919,2.81816 -13.37561,2.48502 -13.37561,2.48502z" fill="#645d96" stroke="#ffffff" stroke-width="8.5" stroke-linecap="butt"/><g fill="none"><path d="M380.36404,115.45207c-4.03301,0.76647 -24.57401,4.23402 -34.28188,2.10616c-11.31678,-2.48054 -9.0305,-9.28012 -9.0305,-9.28012" stroke="#ffffff" stroke-width="8.5" stroke-linecap="round"/><path d="M333.20673,108.56219l5.63408,-1.06994" stroke="#ffffff" stroke-width="8.5" stroke-linecap="round"/><path d="M364.30819,121.69272c0,0 -2.92086,0.8078 -4.54318,0.82012c-1.85577,0.01411 -5.98551,-0.74012 -5.98551,-0.74012" stroke="#ffffff" stroke-width="8.5" stroke-linecap="round"/><g stroke="none" stroke-width="1" stroke-linecap="butt" font-family="sans-serif" font-weight="normal" font-size="12" text-anchor="start"/></g><g stroke="#ffffff" stroke-width="8.5" stroke-linecap="butt"><path d="M342.43073,102.73099c-0.48509,-4.8231 5.15976,-7.19576 10.2738,-6.95172c5.56046,0.26535 10.73787,4.02161 10.24232,7.76393c-0.31796,2.40123 -5.09995,1.26298 -10.66042,0.99762c0,0 -9.62916,0.44259 -9.8557,-1.80984z" fill="#ffffff"/><path d="M345.92085,104.33116c-1.84776,-0.24236 -3.40072,-0.7115 -3.4901,-1.60017c-0.23552,-2.34159 0.97385,-4.1056 2.86583,-5.273c1.892,-1.16739 3.45991,7.24509 0.62426,6.87316z" fill="#000000"/></g><path d="M380.25359,107.25921c0,0.78182 -1.52231,2.40657 -3.51423,2.40657c-1.99192,0 -3.6992,-1.62473 -3.6992,-2.40657c0,-0.78182 1.79975,-0.56625 3.79167,-0.56625c1.99192,0 3.42176,-0.21558 3.42176,0.56625z" fill="#000000" stroke="#ffffff" stroke-width="8.5" stroke-linecap="butt"/><path d="M342.56451,106.79833c-0.31585,0.25262 -0.92263,0.68433 -1.20197,0.81948c-0.32635,0.1579 -0.30864,-0.0067 -0.42327,-0.08255c-0.10726,-0.07097 -0.34499,-0.0226 -0.18714,-0.25092c0.15524,-0.22456 0.70235,-0.72415 1.04193,-0.99575c0.28726,-0.22976 0.8075,-0.60152 1.06866,-0.73597c0.36145,-0.18609 0.43304,-0.08269 0.55656,-0.00098c0.10872,0.07193 0.2874,0.07252 0.12429,0.30534c-0.15609,0.2228 -0.64419,0.67348 -0.97908,0.94133z" fill="#000000" stroke="#ffffff" stroke-width="8.5" stroke-linecap="butt"/><path d="M347.22251,107.49395c-0.18086,0.31656 -0.55253,0.87343 -0.75233,1.06897c-0.23341,0.22844 -0.29115,0.06678 -0.43238,0.02143c-0.13216,-0.04245 -0.33226,0.0602 -0.28793,-0.19564c0.04361,-0.25162 0.32895,-0.85926 0.5234,-1.19961c0.1645,-0.28791 0.48243,-0.76692 0.66557,-0.95747c0.25347,-0.26374 0.36696,-0.18179 0.51914,-0.13293c0.13394,0.04302 0.30102,0.00119 0.2538,0.26259c-0.04519,0.25015 -0.2975,0.797 -0.48928,1.13265z" fill="#000000" stroke="#ffffff" stroke-width="8.5" stroke-linecap="butt"/><path d="M351.23711,107.6768c0.0002,0.3469 -0.04821,0.97178 -0.12844,1.21022c-0.09372,0.27855 -0.23079,0.14259 -0.38332,0.13876c-0.14272,-0.0036 -0.27173,0.14771 -0.36482,-0.1047c-0.09156,-0.24824 -0.14839,-0.89713 -0.14862,-1.27008c-0.00019,-0.31549 0.03986,-0.85252 0.10749,-1.08171c0.09361,-0.31721 0.23993,-0.2714 0.40429,-0.26726c0.14466,0.00365 0.27529,-0.08148 0.36864,0.17694c0.08935,0.2473 0.14457,0.83004 0.1448,1.19785z" fill="#000000" stroke="#ffffff" stroke-width="8.5" stroke-linecap="butt"/><path d="M367.37348,100.69729c0,0 2.71777,-4.46313 3.25109,-7.67032c0.53332,-3.20719 -0.42381,-9.33206 -0.42381,-9.33206c0,0 3.05429,2.4778 4.423,4.22577c1.04307,1.33209 3.22732,4.80651 3.22732,4.80651c0,0 -1.39632,3.34758 -3.14839,4.68035c-1.75207,1.33276 -7.32922,3.28976 -7.32922,3.28976z" fill="#8cb5e5" stroke="#ffffff" stroke-width="8.5" stroke-linecap="butt"/><path d="M368.98656,98.90928c0,0 2.36813,-3.82454 2.66016,-6.07452c0.29152,-2.24607 -0.67479,-8.87485 -0.67479,-8.87485c0,0 2.86803,2.79121 3.95725,4.18224c1.11345,1.42198 2.5482,3.86223 2.5482,3.86223c0,0 -1.98032,3.34007 -3.49698,4.57344c-1.26938,1.03229 -4.99384,2.33145 -4.99384,2.33145z" fill="#2d2e62" stroke="#ffffff" stroke-width="8.5" stroke-linecap="butt"/><g stroke="#ffffff" stroke-width="8.5"><path d="M331.70286,94.36343c-5.76011,-5.77617 -2.84136,-29.41947 -2.84136,-29.41947c0,0 16.4314,-0.71734 25.97729,13.72052" fill="#645d96" stroke-linecap="round"/><path d="M336.07442,70.06902c2.05058,-0.55445 5.74076,3.93447 5.474,4.76925c-0.31136,0.97438 -7.04817,2.87317 -7.42581,2.00781c-0.35053,-0.80321 -0.09877,-6.22262 1.95182,-6.77706z" fill="#504884" stroke-linecap="butt"/></g></g><g><path d="M355.77343,121.7043c11.34661,0 21.12852,2.67858 21.12852,5.38552c0,3.34236 -1.45193,2.06078 -1.80588,3.68333c-0.5783,2.65093 1.53701,5.39988 -1.75561,7.42408c-3.89635,2.39534 -14.12402,2.71314 -18.85107,1.69197c-1.37036,-0.29603 -2.89965,0.2481 -4.12471,-0.04595c-5.70328,-1.36892 -9.97508,-3.46661 -12.97588,-4.84139c-8.86415,-4.06098 -7.53973,-7.21755 -6.41381,-9.50688c0.53881,-1.09556 2.12183,-1.16466 1.23194,-1.85701c-0.91665,-0.71316 -0.4262,-1.94033 -0.24685,-2.84292c0.46843,-2.3573 23.81335,0.90924 23.81335,0.90924z" fill="#95394b" stroke="#000000" stroke-width="1.5" stroke-linecap="butt"/><path d="M345.82719,129.96152c4.58326,1.09846 8.40008,1.52151 8.38112,1.63513c-0.01896,0.11363 -4.4502,1.41354 -9.03346,0.31509c-4.58326,-1.09846 -7.58297,-4.17931 -7.56401,-4.29294c0.01896,-0.11364 3.63308,1.24426 8.21634,2.34272z" fill="#5a1c29" stroke="none" stroke-width="0" stroke-linecap="butt"/><path d="M364.70917,131.18865c2.93021,-0.53632 5.27308,-1.18801 5.28435,-1.1365c0.01126,0.0515 -2.35421,1.55505 -5.28441,2.09136c-2.93021,0.53632 -5.31552,-0.09768 -5.3268,-0.14918c-0.01126,-0.0515 2.39666,-0.26936 5.32686,-0.80568z" fill="#5a1c29" stroke="none" stroke-width="0" stroke-linecap="butt"/><g><path d="M354.50474,84.98457c9.52278,-17.92906 25.09114,-17.84114 25.09114,-17.84114c0,0 3.43171,23.64331 -2.3284,29.41947" fill="#645d96" stroke="#000000" stroke-width="1.5" stroke-linecap="round"/><path d="M374.3348,79.04555c-0.37764,0.86535 -7.11446,-1.03345 -7.42581,-2.00782c-0.26677,-0.83478 3.42343,-5.32369 5.47402,-4.76925c2.05058,0.55445 2.30235,5.97384 1.95182,6.77707z" fill="#504884" stroke="none" stroke-width="0" stroke-linecap="butt"/></g><path d="M355.55812,129.71571c-11.82689,0.26641 -22.99529,-7.8349 -26.21843,-18.56446c-0.3209,-1.06825 0.70066,-1.68878 0.521,-2.78964c-0.19733,-1.2091 -0.31311,-2.4487 -0.34159,-3.71309c-0.32149,-14.27195 10.98761,-26.10227 25.25955,-26.42374c14.27195,-0.32149 26.10227,10.9876 26.42374,25.25955c0.036,1.59791 0.98344,3.29971 1.28973,4.93364c0.21173,1.12943 -0.08378,2.22642 -0.37572,3.23423c-2.22034,7.66469 -6.88348,12.76032 -13.18268,15.57849c-6.29919,2.81816 -13.37561,2.48502 -13.37561,2.48502z" fill="#645d96" stroke="#000000" stroke-width="1.5" stroke-linecap="butt"/><g fill="none"><path d="M380.36404,115.45207c-4.03301,0.76647 -24.57401,4.23402 -34.28188,2.10616c-11.31678,-2.48054 -9.0305,-9.28012 -9.0305,-9.28012" stroke="#000000" stroke-width="1.5" stroke-linecap="round"/><path d="M333.20676,108.56219l5.63409,-1.06994" stroke="#000000" stroke-width="1.5" stroke-linecap="round"/><path d="M364.30819,121.69272c0,0 -2.92086,0.8078 -4.54318,0.82012c-1.85577,0.01411 -5.98551,-0.74012 -5.98551,-0.74012" stroke="#000000" stroke-width="1.5" stroke-linecap="round"/><g stroke="none" stroke-width="1" stroke-linecap="butt" font-family="sans-serif" font-weight="normal" font-size="12" text-anchor="start"/></g><g stroke="#000000" stroke-width="1.5" stroke-linecap="butt"><path d="M342.43073,102.73099c-0.48509,-4.8231 5.15976,-7.19576 10.2738,-6.95172c5.56046,0.26535 10.73787,4.02161 10.24232,7.76393c-0.31796,2.40123 -5.09995,1.26298 -10.66042,0.99762c0,0 -9.62916,0.44259 -9.8557,-1.80984z" fill="#ffffff"/><path d="M345.92085,104.33116c-1.84776,-0.24236 -3.40072,-0.7115 -3.4901,-1.60017c-0.23552,-2.34159 0.97385,-4.1056 2.86583,-5.273c1.892,-1.16739 3.45991,7.24509 0.62426,6.87316z" fill="#000000"/></g><path d="M380.25359,107.25921c0,0.78182 -1.52231,2.40657 -3.51423,2.40657c-1.99192,0 -3.69919,-1.62473 -3.69919,-2.40657c0,-0.78182 1.79975,-0.56625 3.79167,-0.56625c1.99192,0 3.42175,-0.21558 3.42175,0.56625z" fill="#000000" stroke="none" stroke-width="0" stroke-linecap="butt"/><path d="M342.56451,106.79833c-0.31585,0.25262 -0.92263,0.68433 -1.20197,0.81948c-0.32635,0.1579 -0.30864,-0.0067 -0.42327,-0.08255c-0.10726,-0.07097 -0.34499,-0.0226 -0.18714,-0.25092c0.15524,-0.22456 0.70235,-0.72415 1.04193,-0.99575c0.28726,-0.22976 0.8075,-0.60152 1.06866,-0.73597c0.36145,-0.18609 0.43304,-0.08269 0.55656,-0.00098c0.10872,0.07193 0.2874,0.07252 0.12429,0.30534c-0.15609,0.2228 -0.64419,0.67348 -0.97908,0.94133z" fill="#000000" stroke="#000000" stroke-width="0.5" stroke-linecap="butt"/><path d="M347.22251,107.49395c-0.18086,0.31656 -0.55253,0.87343 -0.75233,1.06897c-0.23341,0.22844 -0.29115,0.06678 -0.43238,0.02143c-0.13216,-0.04245 -0.33226,0.0602 -0.28793,-0.19564c0.04361,-0.25162 0.32895,-0.85926 0.5234,-1.19961c0.1645,-0.28791 0.48243,-0.76692 0.66557,-0.95747c0.25347,-0.26374 0.36696,-0.18179 0.51914,-0.13293c0.13394,0.04302 0.30102,0.00119 0.2538,0.26259c-0.04519,0.25015 -0.2975,0.797 -0.48928,1.13265z" fill="#000000" stroke="#000000" stroke-width="0.5" stroke-linecap="butt"/><path d="M351.23711,107.6768c0.0002,0.3469 -0.04821,0.97178 -0.12844,1.21022c-0.09372,0.27855 -0.23079,0.14259 -0.38332,0.13876c-0.14272,-0.0036 -0.27173,0.14771 -0.36482,-0.1047c-0.09156,-0.24824 -0.14839,-0.89713 -0.14862,-1.27008c-0.00019,-0.31549 0.03986,-0.85252 0.10749,-1.08171c0.09361,-0.31721 0.23993,-0.2714 0.40429,-0.26726c0.14466,0.00365 0.27529,-0.08148 0.36864,0.17694c0.08935,0.2473 0.14457,0.83004 0.1448,1.19785z" fill="#000000" stroke="#000000" stroke-width="0.5" stroke-linecap="butt"/><path d="M367.37348,100.69729c0,0 2.71777,-4.46313 3.25109,-7.67032c0.53332,-3.20719 -0.42381,-9.33206 -0.42381,-9.33206c0,0 3.05429,2.4778 4.423,4.22577c1.04307,1.33209 3.22732,4.80651 3.22732,4.80651c0,0 -1.39632,3.34758 -3.14839,4.68035c-1.75207,1.33276 -7.32922,3.28976 -7.32922,3.28976z" fill="#8cb5e5" stroke="none" stroke-width="0" stroke-linecap="butt"/><path d="M368.98656,98.90928c0,0 2.36813,-3.82454 2.66016,-6.07452c0.29152,-2.24607 -0.67479,-8.87485 -0.67479,-8.87485c0,0 2.86803,2.79121 3.95725,4.18224c1.11345,1.42198 2.5482,3.86223 2.5482,3.86223c0,0 -1.98032,3.34007 -3.49698,4.57344c-1.26938,1.03229 -4.99384,2.33145 -4.99384,2.33145z" fill="#2d2e62" stroke="none" stroke-width="0" stroke-linecap="butt"/><g><path d="M331.70286,94.36343c-5.76011,-5.77617 -2.84136,-29.41947 -2.84136,-29.41947c0,0 16.4314,-0.71734 25.97729,13.72052" fill="#645d96" stroke="#000000" stroke-width="1.5" stroke-linecap="round"/><path d="M336.07442,70.06902c2.05058,-0.55445 5.74076,3.93447 5.474,4.76925c-0.31136,0.97438 -7.04817,2.87317 -7.42581,2.00781c-0.35053,-0.80321 -0.09877,-6.22262 1.95182,-6.77706z" fill="#504884" stroke="none" stroke-width="0" stroke-linecap="butt"/></g></g></g></g></g></g></svg>