<svg version="1.1" xmlns="http://www.w3.org/2000/svg" xmlns:xlink="http://www.w3.org/1999/xlink" width="34.17311" height="34.17311" viewBox="0,0,34.17311,34.17311"><g transform="translate(-302.91346,-162.91348)"><g stroke="none" stroke-width="0" stroke-miterlimit="10"><path d="M309.98312,162.91348h20.03379c3.9166,0 7.06966,3.15307 7.06966,7.06966v20.03379c0,3.91659 -3.15306,7.06966 -7.06966,7.06966h-20.03379c-3.91659,0 -7.06966,-3.15307 -7.06966,-7.06966v-20.03379c0,-3.91659 3.15307,-7.06966 7.06966,-7.06966z" fill="#787878" fill-rule="evenodd" stroke-linecap="round" stroke-linejoin="round"/><g fill-rule="nonzero" stroke-linecap="butt" stroke-linejoin="miter"><path d="M333.5374,187.36213c-2.15734,2.52901 -8.82295,0.385 -14.88808,-4.78877c-6.06513,-5.17377 -9.23304,-11.4181 -7.0757,-13.94711c2.15734,-2.52901 5.48001,4.50873 11.79874,9.36953c6.17166,4.74766 12.32238,6.83734 10.16504,9.36635z" fill="#8a8a8a"/><path d="M320.93305,178.79442c6.16326,5.34923 13.78192,6.36741 10.96035,9.61836c-2.82157,3.25095 -10.11614,0.48758 -16.2794,-4.86165c-6.16326,-5.34923 -9.39396,-11.6848 -6.57239,-14.93575c2.82157,-3.25095 5.72818,4.82981 11.89144,10.17904z" fill="#c1c1c1"/><path d="M318.73696,181.29523c6.06513,5.17377 12.10932,7.15694 9.95198,9.68595c-2.15734,2.52901 -9.03601,0.81111 -15.10114,-4.36265c-6.06513,-5.17377 -9.01998,-11.84422 -6.86264,-14.37323c2.15734,-2.52901 5.94667,3.87616 12.0118,9.04994z" fill="#8a8a8a"/></g></g></g></svg>