<svg version="1.1" xmlns="http://www.w3.org/2000/svg" xmlns:xlink="http://www.w3.org/1999/xlink" width="118.65751" height="107.36687" viewBox="0,0,118.65751,107.36687"><g transform="translate(-183.31726,-127.02403)"><g data-paper-data="{&quot;isPaintingLayer&quot;:true}" fill-rule="nonzero" stroke-linejoin="miter" stroke-miterlimit="10" stroke-dasharray="" stroke-dashoffset="0" style="mix-blend-mode: normal"><g data-paper-data="{&quot;index&quot;:null}" stroke-linecap="butt"><path d="M201.75123,209.14405c6.87139,-6.01316 10.27899,5.76176 17.16566,8.58578c5.58377,2.28974 11.501,-1.66911 11.501,-1.66911l6,4.41667c0,0 -8.25551,8.21796 -21.5,5.58333c-8.30273,-1.6516 -18.78523,-11.99986 -13.16667,-16.91667z" fill="#ecec68" stroke="#000000" stroke-width="2"/><path d="M205.34607,220.41132l-4.33946,-4.67008l8.14976,-7.57279l4.33946,4.67009z" fill="#000000" stroke="none" stroke-width="0"/><path d="M215.83216,226.20079l-5.50931,-2.08252l4.09743,-9.23928l4.50931,3.08252z" fill="#000000" stroke="none" stroke-width="0"/><path d="M229.0931,225.10025l-6.35739,1.72354l-1.57637,-8.46927l5.60739,-0.59853z" fill="#000000" stroke="none" stroke-width="0"/></g><g data-paper-data="{&quot;index&quot;:null}" stroke-linecap="butt"><path d="M253.47606,225.59818c-2.88504,0.59387 -6.58369,-3.07625 -7.54872,-7.76442c-0.96503,-4.68818 1.16897,-8.61906 4.05399,-9.21294c2.88504,-0.59387 6.46186,3.55799 7.4269,8.24618c0.96504,4.68819 -1.04715,8.13731 -3.93218,8.73118z" fill="#ecec68" stroke="#000000" stroke-width="2"/><path d="M247.80945,221.98413l9.39504,-1.53103c0,0 0.45974,4.30414 -3.46097,5.39515c-3.36799,0.93722 -5.93408,-3.86414 -5.93408,-3.86414z" fill="#000000" stroke="none" stroke-width="0"/><path d="M245.71894,215.04879l10.97373,-1.49065l0.72622,3.42988l-10.93881,1.96076z" fill="#000000" stroke="none" stroke-width="0"/></g><path d="M243.49348,225.92948c8.16615,-0.13998 9.94936,2.12573 8.5651,5.10799c-0.31292,0.67415 -2.25852,2.13538 -8.35773,1.80566c-6.6718,-0.36067 -9.29157,-0.91172 -9.29157,-1.65972c0,-1.57638 -0.72955,-3.24678 0.67809,-4.17864c1.25539,-0.83106 4.39253,-1.0065 8.40611,-1.0753z" data-paper-data="{&quot;index&quot;:null}" fill="#c5c556" stroke="#9b9b44" stroke-width="3" stroke-linecap="butt"/><path d="M244.77073,223.72027c-6.66874,0.1553 -14.65634,0.32516 -14.83464,-0.68419c-0.66998,-3.79291 5.39194,-17.38941 5.39194,-17.38941l17.33579,-0.6324c0,0 5.662,15.11946 5.92945,17.0021c0.26744,1.88264 -6.59292,1.53553 -13.82253,1.70391z" data-paper-data="{&quot;index&quot;:null}" fill="#000000" stroke="#6e6e30" stroke-width="3" stroke-linecap="butt"/><path d="M239.93084,224.68061c1.14715,-0.97617 4.32849,-1.75205 8.32096,-2.28857c8.09458,-1.08777 10.12895,0.95543 9.10055,4.07832c-0.23482,0.71306 -2.44323,2.17791 -8.31846,2.90444c-5.37125,0.66422 -9.10834,0.02646 -9.19438,-0.70902c-0.18257,-1.56076 -1.18637,-2.89791 0.09132,-3.98518z" data-paper-data="{&quot;index&quot;:null}" fill="#c5c556" stroke="#9b9b44" stroke-width="3" stroke-linecap="butt"/><g data-paper-data="{&quot;index&quot;:null}" stroke-linecap="butt"><path d="M237.57982,209.64391c2.9451,0.05097 5.76823,3.52022 5.68541,8.30596c-0.08278,4.78576 -3.04017,9.07572 -5.98523,9.02477c-2.9451,-0.05097 -5.55955,-3.06925 -5.47678,-7.85501c0.08278,-4.78576 2.83149,-9.52668 5.77659,-9.47572z" fill="#ecec68" stroke="#000000" stroke-width="2"/><path d="M237.0633,227.2698c-4.05473,-0.34832 -4.39766,-4.66332 -4.39766,-4.66332l9.51619,-0.23006c0,0 -1.63542,5.19261 -5.11856,4.89339z" fill="#000000" stroke="none" stroke-width="0"/><path d="M242.9279,219.14776l-11.11277,0.09277l0.08045,-3.50497l11.06026,-0.56123z" fill="#000000" stroke="none" stroke-width="0"/></g><g><path d="M242.47955,211.02673c-47.23803,0.17657 -56.88426,-28.14728 -56.88426,-28.14728c0,0 7.98611,-4.35636 12.61353,-11.18182c11.50238,-17.06503 16.90384,-43.28826 45.62173,-43.17346c27.4955,0.10991 33.39952,28.49338 44.40538,44.59236c4.97549,7.27794 11.85797,8.88943 11.85797,8.88943c0,0 -11.20927,28.84733 -57.61434,29.02078z" fill="#ecec68" stroke="none" stroke-width="0" stroke-linecap="butt"/><path d="M278.39235,191.4759c-2.60382,0.0047 -4.7192,-2.51831 -4.72482,-5.63531c-0.00564,-3.11699 2.10062,-5.64763 4.70445,-5.65233c2.60382,-0.0047 4.7192,2.5183 4.72482,5.6353c0.00564,3.11699 -2.10062,5.64764 -4.70444,5.65234z" data-paper-data="{&quot;index&quot;:null}" fill="#6e6e30" stroke="none" stroke-width="0" stroke-linecap="butt"/><path d="M194.34669,176.16925c2.18134,-2.10375 3.36039,-5.167 5.26802,-7.44183c3.90962,-4.66216 6.52087,-15.12143 12.64587,-23.42111c7.66372,-10.38468 18.67922,-15.59224 18.67922,-15.59224c0,0 -15.04316,17.78746 -15.68495,36.02838c-1.12243,31.90253 16.82885,43.63635 16.82885,43.63635c0,0 -19.24584,-1.48661 -31.09861,-9.09782c-11.42716,-7.33789 -14.53493,-18.65314 -14.53493,-18.65314c0,0 4.3082,-1.99795 7.89653,-5.4586z" fill="#cbcb6a" stroke="none" stroke-width="0" stroke-linecap="butt"/><g data-paper-data="{&quot;index&quot;:null}" stroke="none" stroke-width="0" stroke-linecap="butt"><path d="M269.37627,140.64466c0,0 0.48193,-1.50439 1.11077,-3.683c0.86207,-2.98657 2.44017,-7.09442 7.44968,-8.99916c6.29255,-2.39258 12.33004,0.54914 14.9266,3.33913c2.47899,2.66367 6.40148,8.91148 1.3607,17.29815c-2.76819,4.60563 -8.23656,5.95981 -11.95047,6.70339c-2.73259,0.54712 -4.28565,0.99261 -4.28565,0.99261l-8.6116,-15.65114z" fill="#000000"/><path d="M280.47585,149.62464c-3.81995,0.0069 -6.92226,-3.0842 -6.92915,-6.90416c-0.0069,-3.81995 3.0842,-6.92226 6.90416,-6.92915c3.81995,-0.0069 6.92226,3.0842 6.92915,6.90416c0.0069,3.81995 -3.0842,6.92226 -6.90416,6.92915z" fill="#cbcb6a"/></g><path d="M242.33669,211.02698c-47.23803,0.17657 -57.08425,-28.14963 -57.08425,-28.14963c0,0 7.29666,-2.12525 13.48016,-11.18068c11.60524,-16.99526 16.23717,-43.28705 44.95506,-43.17227c27.4955,0.10991 33.39952,28.49338 44.40538,44.59236c4.97549,7.27794 11.85797,8.88943 11.85797,8.88943c0,0 -11.20927,28.84733 -57.61434,29.02078z" data-paper-data="{&quot;index&quot;:null}" fill="none" stroke="#000000" stroke-width="3" stroke-linecap="butt"/><g data-paper-data="{&quot;index&quot;:null}" stroke="none" stroke-width="0" stroke-linecap="butt"><path d="M215.50278,140.74196l-8.55503,15.68214c0,0 -1.55465,-0.43988 -4.28921,-0.97712c-3.71658,-0.73019 -9.18981,-2.06456 -11.9746,-6.66018c-5.07103,-8.36842 -1.17115,-14.63036 1.29821,-17.30296c2.58645,-2.79934 8.61327,-5.76286 14.91444,-3.39302c5.01635,1.88664 6.60929,5.98875 7.48214,8.97219c0.6367,2.1763 1.12406,3.67895 1.12406,3.67895z" fill="#000000"/><path d="M197.50657,142.8578c-0.0069,-3.81995 3.0842,-6.92226 6.90416,-6.92915c3.81995,-0.0069 6.92226,3.0842 6.92915,6.90416c0.0069,3.81995 -3.0842,6.92226 -6.90416,6.92915c-3.81995,0.0069 -6.92226,-3.0842 -6.92915,-6.90416z" fill="#cbcb6a"/></g><path d="M248.91507,128.96371c0,0 0.43729,10.27214 0.07481,15.45959c-0.4803,6.87343 -2.51222,11.88856 -2.51222,11.88856c0,0 -2.96558,-4.85154 -5.39335,-10.52701c-3.21532,-7.51651 -4.91426,-16.58971 -4.91426,-16.58971l10.31542,-0.79847z" data-paper-data="{&quot;index&quot;:null}" fill="#000000" stroke="none" stroke-width="0" stroke-linecap="butt"/><path d="M230.86998,146.56949c0,0 1.79566,-7.16397 11.91585,-7.05724c9.86943,0.10408 15.58411,7.00757 15.58411,7.00757z" data-paper-data="{&quot;index&quot;:null}" fill="#000000" stroke="none" stroke-width="0" stroke-linecap="butt"/><path d="M227.17559,137.8083c0,0 2.73942,-8.37997 14.51561,-8.27624c11.48438,0.10116 17.48434,8.21843 17.48434,8.21843z" data-paper-data="{&quot;index&quot;:null}" fill="#000000" stroke="none" stroke-width="0" stroke-linecap="butt"/><g data-paper-data="{&quot;index&quot;:null}" fill="#000000" stroke="none" stroke-width="0" stroke-linecap="butt"><path d="M292.88047,191.86826c0,0 -2.94733,0.3926 -10.46961,-1.57881c-5.14069,-1.34727 -7.16621,-4.38934 -7.16621,-4.38934c0,0 4.65254,-0.36819 9.27481,-2.1019c5.50754,-2.06576 9.21251,-4.93149 9.21251,-4.93149c0,0 5.02408,2.4122 4.8966,4.35867c-0.15201,2.3211 -5.74811,8.64289 -5.74811,8.64289z"/><path d="M291.22099,193.70743c0,0 -3.89527,1.50483 -3.2913,2.47043c-0.02794,0.01499 -0.05579,0.03014 -0.08356,0.04538c-1.59391,0.87565 -2.92311,2.1731 -3.8375,3.74179c-1.0951,1.14877 -2.03327,2.10728 -2.66214,2.40604c-0.74823,0.3555 -2.30711,1.11707 -3.11311,1.54216c-1.29132,-0.7735 -3.47043,-2.02435 -5.60538,-4.0854c-3.7799,-3.64902 -3.46233,-6.76976 -3.46233,-6.76976c0,0 3.88266,1.48169 8.26277,1.85353c5.21901,0.44308 13.79255,-1.20421 13.79255,-1.20421z"/><path d="M268.40683,203.63006c1.78453,1.11945 4.03086,1.19361 5.06555,1.84081c-0.26257,0.04468 -2.63174,1.23571 -2.85226,1.32579c-2.63302,1.07562 -4.96421,1.78296 -7.14863,2.95873c-0.42321,-1.12564 -0.88473,-2.49537 -1.36362,-4.14758c-1.31742,-4.54502 0.08322,-7.48249 0.08322,-7.48249c0,0 2.1979,2.9843 6.21573,5.50472z"/></g><g data-paper-data="{&quot;index&quot;:null}" fill="#000000" stroke="none" stroke-width="0" stroke-linecap="butt"><path d="M192.66624,191.79928c0,0 -5.6189,-6.30153 -5.7793,-8.62207c-0.13453,-1.94601 4.88082,-4.37633 4.88082,-4.37633c0,0 3.71531,2.85233 9.23027,4.8982c4.62849,1.717 9.28235,2.06839 9.28235,2.06839c0,0 -2.0145,3.04937 -7.15029,4.4152c-7.51511,1.99859 -10.46384,1.61663 -10.46384,1.61663z"/><path d="M193.4569,193.384c0,0 9.45489,1.8647 14.67226,1.4028c4.37875,-0.38767 8.25602,-1.88337 8.25602,-1.88337c0,0 0.32883,3.11954 -3.43786,6.78221c-2.12749,2.06874 -4.30208,3.32744 -5.59061,4.10562c-0.80754,-0.42219 -2.36914,-1.17811 -3.11865,-1.53091c-0.52152,-0.24546 -3.50467,0.18669 -4.36606,-0.69556c-0.17906,-0.18338 1.88442,-1.50384 1.69525,-1.70086c-0.92005,-1.56536 -4.00232,-1.97985 -5.59941,-2.84974c-0.02784,-0.01516 -0.80665,-0.52883 -0.83464,-0.54373c0.60049,-0.96779 -1.67631,-3.08646 -1.67631,-3.08646z"/><path d="M212.12333,205.33165c1.03234,-0.65093 3.27841,-0.73321 5.05888,-1.8591c4.00871,-2.53489 6.19582,-5.52712 6.19582,-5.52712c0,0 1.41126,2.9324 0.11025,7.48214c-0.47292,1.65391 -0.92949,3.02529 -1.34862,4.15245c-2.18864,-1.16786 -4.52239,-1.86678 -7.15926,-2.93289c-0.22084,-0.08929 -2.5943,-1.27176 -2.85704,-1.31548z"/></g><path d="M219.74257,191.69471c-2.60382,0.0047 -4.7192,-2.51831 -4.72482,-5.63531c-0.00564,-3.11699 2.10062,-5.64763 4.70445,-5.65233c2.60382,-0.0047 4.7192,2.5183 4.72482,5.6353c0.00564,3.11699 -2.10062,5.64764 -4.70444,5.65234z" data-paper-data="{&quot;index&quot;:null}" fill="#6e6e30" stroke="none" stroke-width="0" stroke-linecap="butt"/><g data-paper-data="{&quot;index&quot;:null}" fill="#000000" stroke="none" stroke-width="0" stroke-linecap="butt"><path d="M270.11884,155.07002c4.10101,-0.00741 7.43832,7.06486 7.45409,15.79635c0.01577,8.73149 -3.29598,15.81575 -7.39698,15.82316c-4.10101,0.00741 -7.43832,-7.06486 -7.45409,-15.79635c-0.01577,-8.73149 3.29598,-15.81575 7.39698,-15.82316z"/><path d="M274.99057,174.17268c0,0 0.87119,-0.01215 2.08184,-0.16212c1.62533,-0.20134 3.72669,-0.40636 3.86043,1.1673c0.11467,1.34945 -1.96876,2.47219 -3.65248,3.28086c-1.2927,0.62088 -2.28007,1.09817 -2.28007,1.09817c0,0 -3.65028,-0.63317 -3.6526,-1.9236c-0.00232,-1.29044 3.64288,-3.46061 3.64288,-3.46061z"/></g><g data-paper-data="{&quot;index&quot;:null}" fill="#000000" stroke="none" stroke-width="0" stroke-linecap="butt"><path d="M235.18879,171.34927c0.01577,8.73149 -3.29598,15.81575 -7.39698,15.82316c-4.10101,0.00741 -7.43832,-7.06486 -7.45409,-15.79635c-0.01577,-8.73149 3.29598,-15.81575 7.39698,-15.82316c4.10101,-0.00741 7.43832,7.06486 7.45409,15.79635z"/><path d="M226.58735,178.12049c0.00232,1.29043 -3.64564,1.93677 -3.64564,1.93677c0,0 -0.98909,-0.47374 -2.28403,-1.08993c-1.68664,-0.80259 -3.7741,-1.91779 -3.66429,-3.26764c0.12803,-1.57413 2.23013,-1.37671 3.85617,-1.18122c1.2112,0.14561 2.08243,0.1546 2.08243,0.1546c0,0 3.65305,2.157 3.65537,3.44742z"/></g><path d="M271.83075,160.80138c1.60693,-0.00291 2.91464,2.78868 2.92087,6.23519c0.00623,3.44652 -1.2914,6.24281 -2.89832,6.24572c-1.60693,0.00291 -2.91464,-2.78869 -2.92087,-6.2352c-0.00623,-3.44651 1.2914,-6.2428 2.89832,-6.24571z" data-paper-data="{&quot;index&quot;:null}" fill="#ffffff" stroke="none" stroke-width="0" stroke-linecap="butt"/><path d="M229.88348,160.58691c1.60693,-0.00291 2.91464,2.78868 2.92087,6.23519c0.00623,3.44651 -1.2914,6.24281 -2.89832,6.24572c-1.60693,0.00291 -2.91464,-2.78869 -2.92087,-6.2352c-0.00623,-3.44651 1.2914,-6.2428 2.89832,-6.24571z" data-paper-data="{&quot;index&quot;:null}" fill="#ffffff" stroke="none" stroke-width="0" stroke-linecap="butt"/><path d="M249.02753,188.12652c-5.59077,0.0101 -10.13279,-5.40717 -10.14487,-12.09979c-0.01208,-6.69262 4.51033,-12.12627 10.10109,-12.13638c5.59077,-0.0101 10.13279,5.40717 10.14487,12.09979c0.01208,6.69262 -4.51033,12.12627 -10.10109,12.13638z" data-paper-data="{&quot;index&quot;:null}" fill="#6e6e30" stroke="none" stroke-width="0" stroke-linecap="butt"/><path d="M268.56614,180.54459c-0.8853,0.0016 -1.60454,-0.85622 -1.60645,-1.916c-0.00191,-1.05978 0.71421,-1.92019 1.59951,-1.92178c0.8853,-0.0016 1.60454,0.85621 1.60645,1.91599c0.00191,1.05978 -0.71421,1.9202 -1.59951,1.92179z" data-paper-data="{&quot;index&quot;:null}" fill="#6e6e30" stroke="none" stroke-width="0" stroke-linecap="butt"/><path d="M226.041,181.0729c-0.8853,0.0016 -1.60454,-0.85622 -1.60645,-1.916c-0.00191,-1.05978 0.71421,-1.92019 1.59951,-1.92178c0.8853,-0.0016 1.60454,0.85621 1.60645,1.91599c0.00191,1.05978 -0.71421,1.9202 -1.59951,1.92179z" data-paper-data="{&quot;index&quot;:null}" fill="#6e6e30" stroke="none" stroke-width="0" stroke-linecap="butt"/><path d="M257.04869,179.46485c0,0 -1.66313,2.98927 -5.20008,2.52363c-2.4746,-0.32578 -3.07417,-3.95083 -3.07417,-3.95083c0,0 -0.2505,3.12927 -2.81113,3.81383c-3.6108,0.96533 -4.89751,-2.52708 -4.89751,-2.52708" data-paper-data="{&quot;index&quot;:null}" fill="none" stroke="#000000" stroke-width="2" stroke-linecap="round"/><g data-paper-data="{&quot;index&quot;:null}" stroke="none" stroke-width="0" stroke-linecap="butt"><path d="M249.0701,166.94993c3.4175,-0.00618 5.98011,2.37332 5.98428,4.6877c0.00418,2.31438 -3.32578,6.84033 -6.10464,6.99529c-2.77965,0.15501 -5.98422,-4.65906 -5.9884,-6.97344c-0.00418,-2.31438 2.69124,-4.70335 6.10875,-4.70954z" fill="#000000"/><path d="M245.22285,170.8088c-0.00173,-0.95847 0.87411,-1.92905 3.70949,-1.82683c2.90615,0.10477 3.9972,0.85442 3.99895,1.81292c0.00173,0.95848 -1.72245,1.7386 -3.85109,1.74244c-2.12862,0.00384 -3.85561,-0.77003 -3.85735,-1.72852z" fill="#ffffff"/></g></g></g></g></svg>