<svg version="1.1" xmlns="http://www.w3.org/2000/svg" xmlns:xlink="http://www.w3.org/1999/xlink" width="36.7981" height="36.79811" viewBox="0,0,36.7981,36.79811"><g transform="translate(-302.91346,-162.9135)"><g stroke-miterlimit="10"><path d="M311.51757,163.91351h20.83988c4.07419,0 7.35411,3.303 7.35411,7.40583v20.98644c0,4.10283 -3.27992,7.40583 -7.35411,7.40583h-20.83988c-4.07418,0 -7.35411,-3.303 -7.35411,-7.40583v-20.98644c0,-4.10283 3.27993,-7.40583 7.35411,-7.40583z" fill-opacity="0.39216" fill="#000000" fill-rule="evenodd" stroke="none" stroke-width="0" stroke-linecap="round" stroke-linejoin="round"/><path d="M309.98312,162.9135h20.03379c3.9166,0 7.06966,3.15307 7.06966,7.06966v20.03379c0,3.91659 -3.15306,7.06966 -7.06966,7.06966h-20.03379c-3.91659,0 -7.06966,-3.15307 -7.06966,-7.06966v-20.03379c0,-3.91659 3.15307,-7.06966 7.06966,-7.06966z" fill="#a0a300" fill-rule="evenodd" stroke="none" stroke-width="0" stroke-linecap="round" stroke-linejoin="round"/><g fill="#d9db56" fill-rule="nonzero" stroke="#000000" stroke-linecap="butt" stroke-linejoin="miter"><g><path d="M306.23139,186.99702l-1.56769,-7.2409l12.93795,-2.80113l2.28962,7.14075z" stroke-width="1"/><path d="M317.60165,176.95502l2.17654,7.10909c0,0 -4.64768,1.16559 -6.91802,1.65713c-2.24497,0.48604 -6.62877,1.27581 -6.62877,1.27581l-1.56769,-7.2409z" stroke-width="0.5"/></g><g><path d="M323.06444,183.29644l-0.86898,-7.44832l12.93795,-2.80113l0.05719,7.62408z" stroke-width="1"/><path d="M335.33636,173.00302l-0.08341,7.71068c0,0 -5.80412,1.52035 -5.87909,1.53589c-2.02529,0.41968 -6.21955,0.97123 -6.21955,0.97123c0,0 -1.17025,-5.59587 -1.38211,-6.60899c-0.06327,-0.30251 -0.12323,-0.58927 -0.12323,-0.58927z" stroke-width="0.5"/></g><path d="M317.60593,176.72945l4.20207,-1.04428l0.13684,1.71967c0,0 -1.34612,-0.12556 -2.06062,0.02913c-0.40872,0.08849 -1.853,0.77957 -1.853,0.77957z" stroke-width="0.5"/></g></g></g></svg>