<svg version="1.1" xmlns="http://www.w3.org/2000/svg" xmlns:xlink="http://www.w3.org/1999/xlink" width="174.06331" height="45.83424" viewBox="0,0,174.06331,45.83424"><defs><linearGradient x1="262.33967" y1="156.25297" x2="262.33967" y2="175.82846" gradientUnits="userSpaceOnUse" id="color-1"><stop offset="0" stop-color="#000000" stop-opacity="0"/><stop offset="1" stop-color="#000000" stop-opacity="0.54118"/></linearGradient><linearGradient x1="262.05293" y1="132.33068" x2="262.05293" y2="170.13451" gradientUnits="userSpaceOnUse" id="color-2"><stop offset="0" stop-color="#1c1c00" stop-opacity="0.55294"/><stop offset="1" stop-color="#1c1c00" stop-opacity="0"/></linearGradient><linearGradient x1="262.33967" y1="156.50297" x2="262.33967" y2="176.07846" gradientUnits="userSpaceOnUse" id="color-3"><stop offset="0" stop-color="#000000" stop-opacity="0"/><stop offset="1" stop-color="#000000" stop-opacity="0.54118"/></linearGradient><linearGradient x1="262.33967" y1="132.4942" x2="262.33967" y2="175.82846" gradientUnits="userSpaceOnUse" id="color-4"><stop offset="0" stop-color="#ffff94"/><stop offset="1" stop-color="#cccc48"/></linearGradient><linearGradient x1="351.84729" y1="136.01303" x2="351.84729" y2="156.12165" gradientTransform="translate(-813.11483,-360.6798) scale(2.80411,2.38703)" gradientUnits="userSpaceOnUse" id="color-5"><stop offset="0" stop-color="#ffffff"/><stop offset="1" stop-color="#fdff9d"/></linearGradient><linearGradient x1="342.09276" y1="155.69317" x2="342.09276" y2="172.73474" gradientTransform="translate(-958.43533,-474.54945) scale(3.30874,2.81666)" gradientUnits="userSpaceOnUse" id="color-6"><stop offset="0" stop-color="#ffffff"/><stop offset="1" stop-color="#fdff9d"/></linearGradient></defs><g transform="translate(-225.25624,-131.2442)"><g stroke-miterlimit="10"><g><path d="M249.27967,132.4942h26.12002c5.10646,0 9.21741,3.99835 9.21741,8.96489v25.40446c0,4.96655 -4.11096,8.96489 -9.21741,8.96489h-26.12002c-5.10644,0 -9.21743,-3.99836 -9.21743,-8.96489v-25.40445c0,-4.96655 4.11099,-8.96489 9.21743,-8.96489z" fill="#6e6e30" fill-rule="evenodd" stroke="none" stroke-width="4.43922" stroke-linecap="round" stroke-linejoin="round"/><path d="M284.61712,166.86357c0,4.96655 -4.11097,8.96489 -9.21742,8.96489h-26.12002c-5.10644,0 -9.21742,-3.99835 -9.21742,-8.96489v-10.61059c8.88121,0.04533 18.3634,0.13124 27.11866,0.13175c5.81207,0.00033 11.62414,-0.00626 17.43622,-0.01044z" fill="url(#color-1)" fill-rule="nonzero" stroke="none" stroke-width="4.43922" stroke-linecap="butt" stroke-linejoin="miter"/><path d="M249.11113,132.86893c0,0 -3.95964,3.70779 -4.09603,8.09547c-0.19541,6.28641 -0.35704,13.96842 -2.08069,14.1409c-1.63048,0.16315 -1.52495,-6.62113 -1.80971,-12.71206c-0.07558,-1.61665 -0.20529,-3.18203 -0.34631,-4.56079c0.69899,-0.5495 1.1887,-1.35322 1.32983,-2.27183c0.70529,-0.3159 1.28992,-0.85299 1.66564,-1.52301c0.84661,-0.12983 1.59569,-0.55574 2.1382,-1.16868z" fill="#ffff94" fill-rule="nonzero" stroke="none" stroke-width="0" stroke-linecap="butt" stroke-linejoin="miter"/><path d="M247.04016,152.05451c0,0 3.29817,12.54174 0.42005,12.73425c-2.9218,0.19543 -0.42005,-12.73425 -0.42005,-12.73425z" fill="#ffff94" fill-rule="nonzero" stroke="none" stroke-width="0" stroke-linecap="butt" stroke-linejoin="miter"/><path d="M244.35042,135.82187l16.68562,-0.26339c0,0 -2.74147,2.73672 -3.82729,5.81487c-1.11809,3.16961 -0.63207,6.68534 -4.2431,6.83004c-4.13447,0.08676 -3.91499,-4.08944 -5.05403,-7.51727c-0.90704,-2.72964 -3.56119,-4.86426 -3.56119,-4.86426z" fill="#ffff94" fill-rule="nonzero" stroke="none" stroke-width="0" stroke-linecap="butt" stroke-linejoin="miter"/><path d="M280.57568,139.92025c-1.60054,0.67543 -3.96763,-1.48848 -6.91859,-1.65333c-1.27215,-0.07106 -2.57984,1.8352 -4.10209,1.84568c-2.37621,0.01636 -2.77581,-1.70215 -5.64315,-1.68143c-3.83109,0.02767 -1.9662,-2.05769 -4.66479,-2.20763c-0.2105,-0.0117 -12.09039,3.36848 -12.29426,3.36232c-1.47129,-0.04447 -0.95386,1.59008 -0.86276,3.3116c0.09987,1.88741 -0.18234,3.86489 -1.03703,3.50194c-0.39917,-0.16951 -0.17725,-1.25056 -0.40584,-2.29199c-0.11612,-0.529 -0.66779,-0.99457 -0.82196,-1.43428c-0.68671,-1.95834 -1.49179,-4.46127 -2.0578,-6.04812c0.166,-0.32895 1.63072,-1.91736 2.00645,-2.58738c0.41466,-0.06359 1.71834,-0.91299 2.94815,-1.25171c1.2811,-0.35286 2.25208,-0.29763 3.6465,-0.34671c3.32318,-0.11695 7.98224,-0.00061 10.85947,-0.00061c3.21364,0 9.02795,-0.21076 12.82358,-0.08838c2.67982,0.0864 3.81462,0.3138 3.81462,0.3138c0.42745,0.29623 1.17856,0.70685 1.71327,0.79429c0.26197,0.17859 0.54883,0.32338 0.85432,0.42807c0.42648,0.61973 1.04279,1.0987 1.76499,1.35297c0.14999,0.24363 0.32828,0.46797 0.53033,0.66842c0.16966,0.48567 0.44085,0.92369 0.78812,1.28864c0.05751,0.16501 0.12674,0.32452 0.20668,0.47754c-0.64613,0.81931 -1.64014,1.60988 -3.14822,2.2463z" fill="#ffff94" fill-rule="nonzero" stroke="none" stroke-width="0" stroke-linecap="butt" stroke-linejoin="miter"/><path d="M276.25214,140.56051c0,0 3.18427,9.3636 0.40555,9.50731c-2.8209,0.1459 -0.40555,-9.50731 -0.40555,-9.50731z" fill="#ffff94" fill-rule="nonzero" stroke="none" stroke-width="0" stroke-linecap="butt" stroke-linejoin="miter"/><path d="M284.55713,151.73149c0,0 -3.17665,-1.95851 -2.98175,-5.38249c0.16841,-2.9587 1.01483,-6.6149 1.76,-9.35887c0.05799,0.07107 0.11865,0.13989 0.18183,0.20628c0.14675,0.42106 0.3698,0.80636 0.6526,1.13935c0.07045,0.37251 0.1985,0.72464 0.37456,1.04679z" fill="#ffff94" fill-rule="nonzero" stroke="none" stroke-width="0" stroke-linecap="butt" stroke-linejoin="miter"/><path d="M284.42757,170.01266c-5.83743,-0.00419 -35.82934,0.0763 -44.7493,0.12184v-28.79979c0,-4.98822 4.12893,-9.00402 9.25766,-9.00402h26.234c5.12873,0 9.25764,4.0158 9.25764,9.00402z" fill="url(#color-2)" fill-rule="nonzero" stroke="none" stroke-width="4.43922" stroke-linecap="butt" stroke-linejoin="miter"/><path d="M284.61712,167.11357c0,4.96655 -4.11097,8.96489 -9.21742,8.96489h-26.12002c-5.10644,0 -9.21742,-3.99835 -9.21742,-8.96489v-10.61059c8.88121,0.04533 18.3634,0.13124 27.11866,0.13175c5.81207,0.00033 11.62414,-0.00626 17.43622,-0.01044z" fill="url(#color-3)" fill-rule="nonzero" stroke="none" stroke-width="4.43922" stroke-linecap="butt" stroke-linejoin="miter"/><path d="M249.27967,132.4942h26.12002c5.10646,0 9.21741,3.99835 9.21741,8.96489v25.40446c0,4.96655 -4.11096,8.96489 -9.21741,8.96489h-26.12002c-5.10644,0 -9.21743,-3.99836 -9.21743,-8.96489v-25.40445c0,-4.96655 4.11099,-8.96489 9.21743,-8.96489z" fill="none" fill-rule="evenodd" stroke="url(#color-4)" stroke-width="2.5" stroke-linecap="round" stroke-linejoin="round"/></g><text transform="translate(289.97301,151.09959) scale(0.35662,0.41893)" font-size="40" xml:space="preserve" fill="url(#color-5)" fill-rule="nonzero" stroke="none" stroke-width="1" stroke-linecap="butt" stroke-linejoin="miter" font-family="&quot;Allan-Bold&quot;, Sans Serif" font-weight="normal" text-anchor="start"><tspan x="0" dy="0">The Laboratory</tspan></text><path d="M225.25624,153.40092c0,-2.02211 1.63924,-3.66135 3.66135,-3.66135c2.02211,0 3.66135,1.63924 3.66135,3.66135c0,2.02211 -1.63924,3.66136 -3.66135,3.66136c-2.02211,0 -3.66135,-1.63925 -3.66135,-3.66136z" fill="#feffce" fill-rule="nonzero" stroke="none" stroke-width="0" stroke-linecap="butt" stroke-linejoin="miter"/><text transform="translate(289.66791,168.47929) scale(0.30223,0.35503)" font-size="40" xml:space="preserve" fill="url(#color-6)" fill-rule="nonzero" stroke="none" stroke-width="1" stroke-linecap="butt" stroke-linejoin="miter" font-family="&quot;Allan-Regular&quot;, Sans Serif" font-weight="normal" text-anchor="start"><tspan x="0" dy="0">place everyone seen in the lab</tspan></text><g fill-rule="nonzero" stroke="none" stroke-linecap="butt" stroke-linejoin="miter"><path d="M275.28347,159.20148c0.9965,6.14439 -3.39685,11.96892 -9.81281,13.00947c-6.41597,1.04054 -12.42495,-3.09694 -13.42145,-9.24133c-0.9965,-6.14439 3.39685,-11.96892 9.81281,-13.00947c6.41597,-1.04054 12.42495,3.09694 13.42145,9.24133z" fill="#fcff63" stroke-width="0"/><path d="M276.85148,147.08758c0.71822,4.42856 -1.50543,8.97857 -1.36711,13.29245c0.10913,3.40366 -7.8952,2.90805 -11.61531,3.51138c-3.59212,0.58257 -10.15255,4.54289 -11.16794,1.40867c-1.45008,-4.47594 -5.7222,-8.6998 -6.45985,-13.24813c-1.28278,-7.90963 4.52965,-15.43296 12.98242,-16.80383c8.45278,-1.37087 16.34501,3.92984 17.62779,11.83947z" fill="#fcff63" stroke-width="0"/><path d="M265.59973,160.73994c0.02847,0.25696 0.10273,0.81609 -0.05657,1.05606c-0.30129,0.45384 -1.0114,0.37359 -1.47854,0.36231c-1.25436,-0.03028 -3.20967,0.44985 -2.81558,-1.31685c-0.92448,-0.13277 -1.85421,-0.43184 -2.69832,-0.70303c0,0 -0.23645,-0.07828 -0.15817,-0.31474c0.07828,-0.23645 0.31474,-0.15818 0.31474,-0.15818c1.80215,0.61065 4.30664,1.45173 5.85187,-0.18893c0.12629,-0.12782 0.22133,-0.28691 0.29684,-0.44997l-0.00879,-0.03325c0,0 0.03039,-0.24722 0.2776,-0.21683c0.24722,0.03039 0.21683,0.2776 0.21683,0.2776l-0.0358,0.18649c-0.10178,0.20946 -0.2279,0.41175 -0.3876,0.58124c-0.1091,0.11165 -0.22128,0.2132 -0.33622,0.30532c0.38181,0.09034 0.67887,0.24744 1.01771,0.61276zM264.07638,161.66029c0.18784,0.00399 0.95577,0.06767 1.03324,-0.10966c0.06373,-0.14588 0.03534,-0.44225 0.03615,-0.60556c-0.35831,-0.32981 -0.7156,-0.35786 -1.1845,-0.4155l-0.00815,-0.001c-0.68445,0.33794 -1.43681,0.42279 -2.20426,0.3674c-0.30384,1.31135 1.36427,0.74389 2.32752,0.76432z" fill="#1c1c00" stroke-width="0.5"/><path d="M272.67327,160.42943c-0.24722,-0.03039 -0.21683,-0.2776 -0.21683,-0.2776l0.02026,-0.16481c0.06666,-0.49701 -0.00843,-0.97997 -0.17452,-1.451c-1.20234,-2.07539 -3.67343,-1.86272 -4.23297,0.54653c0,0 -0.05751,0.24235 -0.29985,0.18485c-0.24235,-0.05751 -0.18484,-0.29986 -0.18484,-0.29986c0.68997,-2.8547 3.75369,-3.12551 5.17022,-0.63976c0.20273,0.56716 0.28469,1.12194 0.21641,1.72002l-0.02026,0.16481c0,0 -0.03039,0.24722 -0.2776,0.21683z" fill="#1c1c00" stroke-width="0.5"/><path d="M262.86693,160.68429c0.10136,-0.00797 0.20271,-0.01595 0.30407,-0.02392c0,0 0.04883,-0.00367 0.10481,0.01389c0.01767,-0.00167 0.03579,-0.00147 0.05414,0.00078c0.13653,0.01678 0.23361,0.14107 0.21683,0.2776c-0.00539,0.04388 -0.0219,0.08369 -0.04634,0.11695c0.53601,-0.08945 1.07198,-0.18556 1.60011,-0.22779l0.10401,0.00792c0,0 0.24722,0.03039 0.21683,0.2776c-0.03039,0.24722 -0.2776,0.21683 -0.2776,0.21683l-0.00587,-0.0056c-1.13788,0.08107 -2.28049,0.41432 -3.41569,0.41956c0,0 -0.24908,0.00051 -0.24959,-0.24857c-0.00051,-0.24908 0.24857,-0.24959 0.24857,-0.24959c0.25317,0.00021 0.50835,-0.01671 0.76464,-0.04403c-0.07817,-0.05006 -0.12509,-0.142 -0.11301,-0.24029c0.01305,-0.10611 0.09103,-0.1884 0.18923,-0.21191l0.28258,-0.07462l0.00253,0.00957z" fill="#1c1c00" stroke-width="0.5"/><path d="M267.98934,159.46086c-0.36892,0.27302 -0.32683,1.26711 0.09884,1.54808c0.68986,0.45537 2.52556,0.56362 2.64587,-0.45542c0.22124,-1.78072 -1.27792,-1.47061 -2.52747,-1.13728l0.02803,0.00366c0,0 -0.11976,0.09354 -0.24526,0.04095zM267.94821,159.01492l0.13116,-0.08031c1.58058,-0.41257 3.41819,-0.53107 3.1491,1.6797c-0.34918,2.74913 -5.82357,0.41277 -3.52702,-1.55907c0,0 0.12071,-0.09428 0.24675,-0.04032z" fill="#1c1c00" stroke-width="0.5"/><path d="M269.2471,159.80292c0.10408,0.16229 0.14321,0.30308 0.13664,0.4166c0.42014,-0.02793 0.83561,-0.06752 1.21454,-0.09607l0.21389,0.02142c0,0 0.24722,0.03039 0.21683,0.2776c-0.03039,0.24722 -0.27761,0.21683 -0.27761,0.21683l-0.11573,-0.0191c-0.94962,0.07132 -2.08069,0.1881 -3.01477,0.08041c0,0 -0.24722,-0.03039 -0.21682,-0.2776c0.03039,-0.24722 0.2776,-0.21683 0.2776,-0.21683c0.1509,0.01997 0.30841,0.03275 0.47038,0.03988c0.09151,-0.52412 0.62672,-1.17339 1.09505,-0.44314z" fill="#1c1c00" stroke-width="0.5"/><path d="M268.56755,167.06292l0.27468,0.03377v0c0.13653,0.01678 0.23361,0.14107 0.21683,0.2776c-0.00695,0.05656 -0.03235,0.10634 -0.06942,0.14407l-0.19008,0.19767l-0.01765,-0.01697c-0.01187,0.01968 -0.02375,0.03935 -0.03563,0.05903l-0.25257,0.07359c-0.05119,0.10884 -0.18098,0.13507 -0.18098,0.13507l-0.20223,0.03891c-2.39448,0.18012 -4.32831,-1.01403 -5.56415,-3.004c0,0 -0.07826,-0.12695 -0.01543,-0.24494c-0.14699,-0.05624 -0.28779,-0.11422 -0.41996,-0.17019c0,0 -0.22935,-0.09714 -0.13222,-0.32649c0.09714,-0.22935 0.32649,-0.13222 0.32649,-0.13222c0.72039,0.3051 1.93215,0.81549 2.68721,0.27197c1.02679,-0.73913 1.4296,-1.77004 2.92793,-1.59898c0.64458,0.07924 1.02531,0.18048 1.59411,0.49275l-0.03471,-0.02222c0,0 0.24722,0.03039 0.21683,0.27761c-0.03039,0.24722 -0.27761,0.21683 -0.27761,0.21683l-0.14458,-0.03572c-0.40339,-0.22222 -0.67393,-0.31731 -1.0538,-0.38303c-0.00618,0.11128 -0.10121,0.18549 -0.10121,0.18549c-1.17497,0.91371 -1.04075,2.90689 0.25007,3.51893l0.14313,0.00471c0,0 0.01063,0.00131 0.0272,0.00558c0.01711,-0.00013 0.02774,0.00117 0.02774,0.00117zM268.07314,167.50892l0.03291,-0.00711c0.00364,-0.00663 0.00757,-0.01295 0.01173,-0.01894c-1.52452,-0.76298 -1.73438,-3.02617 -0.46528,-4.20603c-1.16813,-0.04816 -1.50705,0.93609 -2.37842,1.53386c-0.62965,0.43195 -1.4336,0.35505 -2.16944,0.14105c1.13114,1.71576 2.84802,2.71668 4.96849,2.55718z" fill="#1c1c00" stroke-width="0.5"/><path d="M267.1116,165.95468c-0.05564,0.24279 -0.29842,0.18715 -0.29842,0.18715l0.08006,-0.0565c-0.7709,0.46854 -1.95399,0.52736 -2.81363,0.33864c0,0 -0.24278,-0.05563 -0.18715,-0.29842c0.05564,-0.24279 0.29842,-0.18715 0.29842,-0.18715c0.69901,0.16856 1.8154,0.13212 2.43769,-0.27511l0.29587,-0.00704c0,0 0.24279,0.05564 0.18715,0.29842z" fill="#1c1c00" stroke-width="0.5"/><path d="M266.75138,167.77376c-0.12361,-0.0152 -0.10842,-0.1388 -0.10842,-0.1388l0.03011,0.03415c-0.14652,-0.19991 -0.23742,-0.41058 -0.33679,-0.63727c-0.16221,-1.25875 0.01936,-2.50342 0.1742,-3.76301c0,0 0.0152,-0.12361 0.1388,-0.10841c0.12361,0.0152 0.10842,0.1388 0.10842,0.1388c-0.15115,1.22955 -0.32481,2.4374 -0.18139,3.66609c0.08881,0.19678 0.1684,0.38229 0.29726,0.55601l0.0166,0.14402c0,0 -0.0152,0.12361 -0.1388,0.10841z" fill="#1c1c00" stroke-width="0.5"/><path d="M265.11469,164.75632c0.12361,0.0152 0.10842,0.13881 0.10842,0.13881l-0.00829,0.01507c0.13876,0.71696 0.36926,1.5651 0.28077,2.30488c0,0 -0.01519,0.12361 -0.1388,0.10842c-0.12361,-0.0152 -0.10841,-0.1388 -0.10841,-0.1388c0.08829,-0.69704 -0.13419,-1.55118 -0.2777,-2.22515l0.00522,-0.09481c0,0 0.01519,-0.12361 0.1388,-0.10842z" fill="#1c1c00" stroke-width="0.5"/><path d="M264.07985,166.37252c-0.11735,0.04169 -0.15904,-0.07566 -0.15904,-0.07566l-0.04615,-0.13364c-0.06795,-0.33619 -0.19837,-0.66985 -0.16141,-1.00757c0,0 0.01519,-0.12361 0.1388,-0.10842c0.12361,0.0152 0.10841,0.13881 0.10841,0.13881c-0.0416,0.29605 0.09779,0.62826 0.15834,0.92783l0.03672,0.09961c0,0 0.04168,0.11735 -0.07567,0.15904z" fill="#1c1c00" stroke-width="0.5"/><path d="M270.36458,142.91776c-0.01994,-0.12293 0.10299,-0.14287 0.10299,-0.14287l-0.02645,0.04124c0.66125,-0.91034 -0.17411,-2.01126 -0.99532,-2.5861c-1.24896,-0.65439 -2.75425,-1.43239 -1.85518,-3.16229c0,0 0.05781,-0.11031 0.16812,-0.0525c0.11031,0.05781 0.0525,0.16812 0.0525,0.16812c-0.84597,1.5992 0.64543,2.2475 1.76395,2.83383c0.948,0.66079 1.81641,1.89717 1.06798,2.94459l-0.13572,0.05896c0,0 -0.12293,0.01994 -0.14287,-0.10299z" fill="#1c1c00" stroke-width="0.5"/><path d="M266.54987,137.63466c0.12293,-0.01994 0.14287,0.10299 0.14287,0.10299l0.02659,0.16391c0.1204,0.7424 0.32341,1.66105 0.9777,2.10732c0.67355,0.48988 2.72321,1.44609 1.57579,2.5741c0,0 -0.09123,0.08478 -0.176,-0.00645c-0.08478,-0.09123 0.00645,-0.176 0.00645,-0.176c1.02447,-0.87426 -1.08286,-1.85402 -1.55188,-2.1896c-0.70276,-0.52609 -0.94229,-1.43329 -1.07791,-2.26949l-0.02658,-0.16391c0,0 -0.01994,-0.12293 0.10299,-0.14287z" fill="#1c1c00" stroke-width="0.5"/><path d="M257.50603,149.11519c0.10449,0.06776 0.03673,0.17225 0.03673,0.17225l-0.04598,0.06794c-0.44233,1.00539 -1.0529,1.58868 -2.0383,2.04805c-1.42204,0.32266 -3.22186,0.58964 -3.8027,-1.11306c0,0 -0.03988,-0.11798 0.0781,-0.15786c0.11798,-0.03988 0.15786,0.0781 0.15786,0.0781c0.52036,1.55572 2.20879,1.23661 3.48619,0.95711c0.9191,-0.43524 1.47629,-0.96998 1.89085,-1.91264l0.06498,-0.10317c0,0 0.06776,-0.1045 0.17225,-0.03673z" fill="#1c1c00" stroke-width="0.5"/><path d="M257.09893,154.83357c-0.11032,0.05779 -0.16811,-0.05253 -0.16811,-0.05253l-0.08905,-0.17347c-0.03161,-0.19492 -0.11106,-0.33904 -0.14325,-0.53751c-0.72191,-1.37883 0.56068,-2.87404 1.30767,-3.91022c0,0 0.07283,-0.10102 0.17385,-0.0282c0.10102,0.07283 0.0282,0.17385 0.0282,0.17385c-0.69895,0.96956 -1.9539,2.38742 -1.27342,3.68582c0.03219,0.19847 0.11163,0.34259 0.14325,0.53751l0.07339,0.13663c0,0 0.05779,0.11032 -0.05253,0.1681z" fill="#1c1c00" stroke-width="0.5"/><path d="M256.04217,154.78713c-0.12293,0.01994 -0.14287,-0.10299 -0.14287,-0.10299l-0.02659,-0.16391c-0.04444,-0.27401 -0.14167,-0.509 -0.18024,-0.78434c-0.85623,-1.19779 -1.56813,-1.21712 -3.06293,-0.97469c0,0 -0.12293,0.01994 -0.14287,-0.10299c-0.01994,-0.12293 0.10299,-0.14287 0.10299,-0.14287c1.58541,-0.25713 2.44656,-0.20954 3.33404,1.12798c0.05182,0.29084 0.14752,0.54509 0.19487,0.83704l0.02659,0.16391c0,0 0.01994,0.12293 -0.10299,0.14287z" fill="#1c1c00" stroke-width="0.5"/><path d="M259.29929,138.01661c-0.07283,0.10102 -0.17385,0.0282 -0.17385,0.0282l-0.02781,-0.02793c-0.41961,-0.13112 -0.74864,-0.20685 -1.09478,0.11775c-1.32928,0.95944 -1.97613,1.62856 -3.7028,1.56837c0,0 -0.12445,-0.00456 -0.11989,-0.12901c0.00456,-0.12445 0.12901,-0.11989 0.12901,-0.11989c1.66738,0.06429 2.25105,-0.58784 3.53579,-1.51209c0.41192,-0.37964 0.82817,-0.31872 1.32696,-0.16286l0.09918,0.06362c0,0 0.10102,0.07283 0.02819,0.17385z" fill="#1c1c00" stroke-width="0.5"/><path d="M253.79446,142.31077c-0.12293,0.01994 -0.14287,-0.103 -0.14287,-0.103l0.01305,-0.1474c0.65845,-0.91337 1.2217,-1.48015 2.38,-1.65494c1.01992,-0.54782 1.62705,-1.49913 2.82951,-1.69414c0,0 0.12293,-0.01994 0.14287,0.10299c0.01994,0.12293 -0.10299,0.14287 -0.10299,0.14287c-1.17025,0.18979 -1.77653,1.16397 -2.79064,1.68458c-1.11559,0.19084 -1.61535,0.67465 -2.25669,1.56429l0.03077,-0.03813c0,0 0.01994,0.12293 -0.10299,0.14287z" fill="#1c1c00" stroke-width="0.5"/><path d="M253.50351,141.4543c-0.12293,-0.01996 -0.10297,-0.14289 -0.10297,-0.14289l0.03593,-0.20048c0.09615,-0.13635 0.2517,-0.87371 -0.01564,-0.75822c0,0 -0.12293,0.01994 -0.14287,-0.10299c-0.01994,-0.12293 0.10299,-0.14287 0.10299,-0.14287c0.54637,-0.03429 0.5403,0.7547 0.28563,1.09942l-0.02018,0.14506c0,0 -0.01996,0.12293 -0.14289,0.10297z" fill="#1c1c00" stroke-width="0.5"/><path d="M266.45575,153.30888c-0.07281,-0.10104 0.02823,-0.17385 0.02823,-0.17385l0.05029,0.00872c0.15807,-0.97347 0.08996,-2.27844 -0.72016,-2.98187c-0.51306,-0.26645 -1.12644,-0.45699 -1.34506,-1.05353c-0.23437,-0.63951 -0.2696,-1.80412 -0.9572,-2.11448c0,0 -0.11335,-0.05161 -0.06175,-0.16495c0.0516,-0.11335 0.16495,-0.06175 0.16495,-0.06175c0.78494,0.36007 0.82884,1.52244 1.08832,2.25671c0.1857,0.52553 0.80667,0.6975 1.25161,0.93257c0.88517,0.781 1.00134,2.14207 0.82514,3.22721l-0.15053,0.15344c0,0 -0.10104,0.07281 -0.17385,-0.02823z" fill="#1c1c00" stroke-width="0.5"/><path d="M265.10141,146.33671c0.12293,-0.01994 0.14287,0.10299 0.14287,0.10299l0.00036,0.02542c0.5393,1.29771 0.98414,1.3817 2.11441,1.88914c1.17784,0.85611 1.18982,2.35783 2.94771,2.07274c0,0 0.12293,-0.01994 0.14287,0.103c0.01994,0.12293 -0.10299,0.14287 -0.10299,0.14287c-1.9009,0.30829 -1.86016,-1.21124 -3.11262,-2.10318c-1.16307,-0.53986 -1.64083,-0.697 -2.21822,-2.00624l-0.01737,-0.08386c0,0 -0.01994,-0.12293 0.10299,-0.14287z" fill="#1c1c00" stroke-width="0.5"/><path d="M268.92312,151.22651c-0.03714,0.11887 -0.15602,0.08173 -0.15602,0.08173l-0.06105,-0.03285c-0.55089,0.08934 -0.77192,0.37272 -0.66633,0.99123c0,0 0.01994,0.12293 -0.10299,0.14287c-0.12293,0.01994 -0.14287,-0.10299 -0.14287,-0.10299c-0.11464,-0.73952 0.17852,-1.16445 0.87232,-1.27697l0.17522,0.04098c0,0 0.11887,0.03714 0.08173,0.15601z" fill="#1c1c00" stroke-width="0.5"/><path d="M259.34581,143.69615c-0.11887,-0.03714 -0.08173,-0.15602 -0.08173,-0.15602l0.05476,-0.15382c0.40391,-0.5466 0.25278,-1.18119 1.10587,-1.33778c0,0 0.12293,-0.01994 0.14287,0.10299c0.01994,0.12293 -0.10299,0.14287 -0.10299,0.14287c-0.72263,0.09591 -0.61195,0.76843 -0.9437,1.23757l-0.01907,0.08245c0,0 -0.03714,0.11887 -0.15601,0.08173z" fill="#1c1c00" stroke-width="0.5"/><path d="M260.60342,143.84196c-0.12293,0.01994 -0.14287,-0.103 -0.14287,-0.103l0.01305,-0.1474c0.24208,-0.28081 0.11969,-0.72022 0.56596,-0.96337c0,0 0.11032,-0.05779 0.16811,0.05253c0.05779,0.11032 -0.05253,0.16811 -0.05253,0.16811c-0.40033,0.19823 -0.28302,0.58735 -0.47949,0.88839l0.03077,-0.03813c0,0 0.01994,0.12293 -0.10299,0.14287z" fill="#1c1c00" stroke-width="0.5"/><path d="M249.06365,146.76486c-0.01994,-0.12293 0.103,-0.14287 0.103,-0.14287l-0.02645,0.04124c0.58241,-0.77799 0.62424,-1.4551 0.4624,-2.45303c0,0 -0.01994,-0.12293 0.10299,-0.14287c0.12293,-0.01994 0.14287,0.10299 0.14287,0.10299c0.17608,1.08572 0.08382,1.77349 -0.50621,2.63856l-0.13572,0.05896c0,0 -0.12293,0.01994 -0.14287,-0.10299z" fill="#1c1c00" stroke-width="0.5"/><path d="M249.82109,147.40412c-0.10102,-0.07283 -0.0282,-0.17385 -0.0282,-0.17385l0.08487,-0.11669c0.49264,-1.08211 0.70428,-1.61274 0.80607,-2.82895c0,0 0.01047,-0.1241 0.13457,-0.11362c0.1241,0.01047 0.11362,0.13457 0.11362,0.13457c-0.10588,1.24346 -0.33377,1.82364 -0.83885,2.93305l-0.09823,0.13731c0,0 -0.07283,0.10102 -0.17385,0.0282z" fill="#1c1c00" stroke-width="0.5"/><path d="M262.97391,154.77002c0.05779,0.11032 -0.05253,0.16811 -0.05253,0.16811l-0.14092,0.07257c-0.37198,0.34324 -0.9179,0.48762 -1.31466,0.82487c0,0 -0.09515,0.08034 -0.1755,-0.01481c-0.08034,-0.09515 0.01481,-0.1755 0.01481,-0.1755c0.40247,-0.33778 0.95975,-0.48984 1.33151,-0.8379l0.16918,-0.08987c0,0 0.11032,-0.05779 0.16811,0.05253z" fill="#1c1c00" stroke-width="0.5"/><path d="M263.26962,155.87263c0.01994,0.12293 -0.10299,0.14287 -0.10299,0.14287l0.02645,-0.04124c-0.25937,0.35707 -0.67095,0.55239 -1.02348,0.80643c0,0 -0.10104,0.07281 -0.17385,-0.02823c-0.07281,-0.10104 0.02823,-0.17385 0.02823,-0.17385c0.32564,-0.23466 0.73024,-0.4186 0.96705,-0.75002l0.13572,-0.05896c0,0 0.12293,-0.01994 0.14287,0.103z" fill="#1c1c00" stroke-width="0.5"/><path d="M252.1464,157.64788c0.01994,0.12293 -0.103,0.14287 -0.103,0.14287l-0.21247,0.02486c-0.6587,-0.43642 -0.90602,-1.28072 -1.46949,-1.8212c0,0 -0.08971,-0.08638 -0.00333,-0.17609c0.08639,-0.08971 0.17609,-0.00333 0.17609,-0.00333c0.53631,0.51827 0.79211,1.26954 1.35397,1.75821l0.11535,-0.02831c0,0 0.12293,-0.01994 0.14287,0.103z" fill="#1c1c00" stroke-width="0.5"/><path d="M252.60144,156.87826c-0.07283,0.10102 -0.17385,0.0282 -0.17385,0.0282l-0.04227,-0.03345c-0.42363,-0.19842 -0.73532,-0.75814 -0.81264,-1.20681c0,0 -0.01994,-0.12293 0.10299,-0.14287c0.12293,-0.01994 0.14287,0.10299 0.14287,0.10299c0.0535,0.35733 0.32627,0.8692 0.66998,1.01999l0.08473,0.05809c0,0 0.10102,0.07283 0.02819,0.17385z" fill="#1c1c00" stroke-width="0.5"/><path d="M274.20807,147.85974c-0.12293,0.01994 -0.14287,-0.103 -0.14287,-0.103l-0.02309,-0.14858c-0.24152,-0.5483 -0.21681,-1.09176 -0.70209,-1.43896c0,0 -0.10102,-0.07283 -0.0282,-0.17385c0.07283,-0.10102 0.17385,-0.0282 0.17385,-0.0282c0.54976,0.39985 0.52972,0.96281 0.79531,1.57047l0.03008,0.17924c0,0 0.01994,0.12293 -0.10299,0.14287z" fill="#1c1c00" stroke-width="0.5"/><path d="M274.09436,145.05757c0.10393,-0.06863 0.17255,0.0353 0.17255,0.0353l0.0297,0.05968c0.57632,0.42607 0.98977,1.33032 1.10865,2.05042c0,0 0.01994,0.12293 -0.10299,0.14287c-0.12293,0.01994 -0.14287,-0.10299 -0.14287,-0.10299c-0.1025,-0.6449 -0.48452,-1.52245 -1.00845,-1.88825l-0.0919,-0.12448c0,0 -0.06863,-0.10393 0.0353,-0.17255z" fill="#1c1c00" stroke-width="0.5"/><path d="M270.20379,168.34572c0.12217,0.02419 0.09798,0.14636 0.09798,0.14636l-0.03618,0.10854c-0.57886,0.71232 -1.18576,1.35636 -2.14871,1.16568c-1.02484,-0.20294 -2.1994,0.73546 -3.3317,-0.34251c0,0 -0.08823,-0.0879 -0.00033,-0.17613c0.08789,-0.08823 0.17613,-0.00033 0.17613,-0.00033c1.0072,1.07117 2.22124,0.07997 3.20429,0.27464c0.85633,0.16957 1.39026,-0.43943 1.90684,-1.07821l-0.01468,-0.00006c0,0 0.02419,-0.12217 0.14636,-0.09798z" fill="#1c1c00" stroke-width="0.5"/><path d="M261.12617,167.16485c-0.12293,0.01994 -0.14287,-0.103 -0.14287,-0.103l-0.02659,-0.16391c-0.06129,-0.40618 -0.43041,-0.78633 -0.63059,-1.14066c-0.87588,-1.55122 -1.89267,-0.93163 -3.33605,-0.39134c0,0 -0.11663,0.04366 -0.16029,-0.07298c-0.04366,-0.11664 0.07297,-0.1603 0.07297,-0.1603c1.55283,-0.58126 2.69045,-1.18001 3.64026,0.50214c0.22064,0.39099 0.58301,0.77576 0.65956,1.22325l0.02659,0.16391c0,0 0.01994,0.12293 -0.10299,0.14287z" fill="#1c1c00" stroke-width="0.5"/><path d="M275.92864,140.4297c-0.16384,-0.16384 0,-0.32769 0,-0.32769l0.17607,-0.15926c0.17639,-0.08773 0.3307,-0.16127 0.50108,-0.19768c-0.41303,-0.31634 -1.87935,-1.47489 -1.66375,-1.97287c0.33059,-0.76357 1.32944,-0.32557 1.8578,-0.60994c0,0 0.20724,-0.10362 0.31087,0.10362c0.10362,0.20724 -0.10362,0.31087 -0.10362,0.31087c-0.45847,0.21797 -1.2253,-0.03897 -1.61781,0.31689c-0.0457,0.04142 1.31434,1.34023 1.47441,1.47476l0.33,0.09393c0.09964,0.02593 0.1732,0.1165 0.1732,0.22426c0,0.0817 -0.04229,0.15353 -0.10617,0.19478l-0.34457,0.22971l-0.03374,-0.0506c-0.15485,0.09923 -0.31164,0.16658 -0.57044,0.29677l-0.05563,0.07245c0,0 -0.16384,0.16384 -0.32769,0z" fill="#fcff63" stroke-width="0.5"/><path d="M248.2876,167.1439c0,0.23171 -0.23171,0.23171 -0.23171,0.23171l-0.21947,-0.02446c-0.77677,-0.38838 -2.66751,-1.94438 -1.27439,-2.73157c0.0027,-0.00135 0.48529,-0.14716 0.36993,-0.25021c-0.9771,-0.87283 -2.95491,-3.07071 -0.77922,-3.78655c0.4712,-0.15503 0.83412,-0.15843 1.32388,-0.15843c0,0 0.23171,0 0.23171,0.23171c0,0.23171 -0.23171,0.23171 -0.23171,0.23171c-0.25796,0 -0.51923,-0.04431 -0.77386,-0.00299c-1.4421,0.23402 -1.23453,1.55927 -0.25277,2.466c0.1631,0.15064 0.80305,0.57347 0.87617,0.77493c0.2299,0.6334 -0.13776,0.69876 -0.55689,0.90833c-0.93978,0.35427 0.93742,1.7341 1.27439,1.90258l0.01223,-0.02446c0,0 0.23171,0 0.23171,0.23171z" fill="#fcff63" stroke-width="0.5"/><path d="M244.81199,138.41219c0.23171,0 0.23171,0.23171 0.23171,0.23171v0.11585c0,0.61778 -0.19253,1.74097 0.17504,2.28111c0.1251,0.18384 0.71157,0.08133 0.8036,0.2236c0.42451,0.65621 -0.37766,1.79314 -0.65554,2.34891c0,0 -0.10362,0.20724 -0.31087,0.10362c-0.20724,-0.10362 -0.10362,-0.31087 -0.10362,-0.31087c0.2366,-0.4732 0.81668,-1.27003 0.7347,-1.82182c-0.04177,-0.28117 -0.64275,-0.01629 -0.81835,-0.23982c-0.48906,-0.6225 -0.28837,-1.84595 -0.28837,-2.58474v-0.11585c0,0 0,-0.23171 0.23171,-0.23171z" fill="#fcff63" stroke-width="0.5"/><path d="M280.3589,159.63339c0.0638,0.02524 0.13602,0.08238 0.13602,0.21174c0,0.23171 -0.23171,0.23171 -0.23171,0.23171l-0.34756,-0.23171c0.14876,-1.20642 -1.23425,-1.8703 -2.31707,-1.85366c0,0 -0.23171,0 -0.23171,-0.23171c0,-0.23171 0.23171,-0.23171 0.23171,-0.23171c1.38885,0.01546 2.57745,0.76735 2.76032,2.10533z" fill="#fcff63" stroke-width="0.5"/><path d="M242.95833,149.88171c0,-0.23171 0.23171,-0.23171 0.23171,-0.23171l0.17847,0.0062c0.29248,-0.14624 0.54281,-0.12205 0.86421,-0.12205c0,0 0.23171,0 0.23171,0.23171c0,0.23171 -0.23171,0.23171 -0.23171,0.23171c-0.29799,0 -0.4861,-0.02616 -0.75774,0.10966l-0.28494,0.0062c0,0 -0.23171,0 -0.23171,-0.23171z" fill="#fcff63" stroke-width="0.5"/><path d="M280.95833,147.56463c0,0.23171 -0.23171,0.23171 -0.23171,0.23171h-0.23171c-0.29146,-0.00324 -0.52379,-0.12027 -0.81098,-0.11585c0,0 -0.23171,0 -0.23171,-0.23171c0,-0.23171 0.23171,-0.23171 0.23171,-0.23171c0.29146,0.00324 0.52379,0.12027 0.81098,0.11585h0.23171c0,0 0.23171,0 0.23171,0.23171z" fill="#fcff63" stroke-width="0.5"/><path d="M249.10109,136.2928c0.03402,-0.2292 0.26322,-0.19517 0.26322,-0.19517l0.23438,0.04642c0.44318,0.22211 0.64274,0.41449 1.12184,0.41449c0,0 0.23171,0 0.23171,0.23171c0,0.23171 -0.23171,0.23171 -0.23171,0.23171c-0.55809,0 -0.83138,-0.21518 -1.32909,-0.46341l-0.09518,-0.00251c0,0 -0.2292,-0.03402 -0.19517,-0.26322z" fill="#fcff63" stroke-width="0.5"/><path d="M272.96443,136.32682c0,0.23171 -0.23171,0.23171 -0.23171,0.23171l-0.17847,-0.0062c-0.38531,0.20735 -0.52749,0.34291 -0.98007,0.35376c0,0 -0.23171,0 -0.23171,-0.23171c0,-0.23171 0.23171,-0.23171 0.23171,-0.23171c0.37252,0.01321 0.54267,-0.18312 0.87359,-0.34137l0.28494,-0.0062c0,0 0.23171,0 0.23171,0.23171z" fill="#fcff63" stroke-width="0.5"/><path d="M277.83028,163.20488c0,0.23171 -0.23171,0.23171 -0.23171,0.23171l-0.21947,-0.02446c-0.30595,-0.15297 -0.50737,-0.26288 -0.75534,-0.50682c0,0 -0.16384,-0.16384 0,-0.32769c0.16384,-0.16384 0.32769,0 0.32769,0c0.20914,0.2135 0.37079,0.28796 0.6349,0.42001l0.01223,-0.02446c0,0 0.23171,0 0.23171,0.23171z" fill="#fcff63" stroke-width="0.5"/><path d="M243.60547,157.11262c-0.16384,-0.16384 0,-0.32769 0,-0.32769l0.25158,-0.25158c0.59806,-0.5965 1.06046,-1.75462 1.99762,-1.78579c0,0 0.23171,0 0.23171,0.23171c0,0.23171 -0.23171,0.23171 -0.23171,0.23171c-0.6482,-0.03916 -1.24976,1.22886 -1.66994,1.65006l-0.25158,0.25158c0,0 -0.16384,0.16384 -0.32769,0z" fill="#fcff63" stroke-width="0.5"/><path d="M280.84248,152.8939c0,0.23171 -0.23171,0.23171 -0.23171,0.23171l-0.26286,-0.05261c-0.36439,-0.30705 -1.23893,-0.65876 -1.70665,-0.64252c0,0 -0.23171,0 -0.23171,-0.23171c0,-0.23171 0.23171,-0.23171 0.23171,-0.23171c0.61024,0.01328 1.52618,0.36635 2.00067,0.74773l-0.03116,-0.05261c0,0 0.23171,0 0.23171,0.23171z" fill="#fcff63" stroke-width="0.5"/><path d="M279.08021,142.71101c0.10362,0.20724 -0.10362,0.31087 -0.10362,0.31087l-0.23171,0.11585c-0.49596,0.24798 -0.81268,0.37202 -1.37801,0.37202c0,0 -0.23171,0 -0.23171,-0.23171c0,-0.23171 0.23171,-0.23171 0.23171,-0.23171c0.49579,0 0.72966,-0.10254 1.17077,-0.3231l0.23171,-0.11585c0,0 0.20724,-0.10362 0.31087,0.10362z" fill="#fcff63" stroke-width="0.5"/></g></g></g></svg>