<svg version="1.1" xmlns="http://www.w3.org/2000/svg" xmlns:xlink="http://www.w3.org/1999/xlink" width="34.17311" height="34.17311" viewBox="0,0,34.17311,34.17311"><g transform="translate(-302.91346,-162.91348)"><g stroke-miterlimit="10"><path d="M309.98312,162.91349h20.03379c3.9166,0 7.06966,3.15307 7.06966,7.06966v20.03379c0,3.91659 -3.15306,7.06966 -7.06966,7.06966h-20.03379c-3.91659,0 -7.06966,-3.15307 -7.06966,-7.06966v-20.03379c0,-3.91659 3.15307,-7.06966 7.06966,-7.06966z" fill="#787878" fill-rule="evenodd" stroke="none" stroke-width="0" stroke-linecap="round" stroke-linejoin="round"/><g fill="#c1c1c1" fill-rule="nonzero" stroke-width="1" stroke-linecap="butt" stroke-linejoin="miter"><path d="M321.7939,169.63715c1.34911,3.2517 -1.74227,10.99565 -1.74227,10.99565c0,0 -7.66555,-3.28097 -9.01466,-6.53266c-1.34911,-3.2517 0.48737,-5.62834 3.45781,-6.86076c2.97044,-1.23242 5.95001,-0.85392 7.29912,2.39777z" stroke="#8a8a8a"/><path d="M325.08342,192.76071c-2.97044,1.23242 -5.95001,0.85392 -7.29912,-2.39778c-1.34911,-3.2517 1.74227,-10.99564 1.74227,-10.99564c0,0 7.66554,3.28097 9.01465,6.53266c1.34911,3.2517 -0.48736,5.62834 -3.4578,6.86076z" stroke="#8a8a8a"/><path d="M309.63714,177.90774c3.25169,-1.34911 10.99565,1.74227 10.99565,1.74227c0,0 -3.28097,7.66555 -6.53267,9.01466c-3.25169,1.34911 -5.62834,-0.48737 -6.86076,-3.45781c-1.23242,-2.97044 -0.85391,-5.95001 2.39778,-7.29912z" stroke="#8a8a8a"/><path d="M332.76069,174.61821c1.23242,2.97044 0.85391,5.95001 -2.39778,7.29912c-3.25169,1.34911 -10.99565,-1.74227 -10.99565,-1.74227c0,0 3.28097,-7.66555 6.53267,-9.01466c3.25169,-1.34911 5.62834,0.48737 6.86076,3.45781z" stroke="#8a8a8a"/><path d="M314.67429,182.12215c-1.17201,-2.82484 0.16787,-6.06491 2.99271,-7.23692c2.82484,-1.17201 6.06491,0.16787 7.23692,2.99271c1.17201,2.82484 -0.16787,6.06491 -2.99271,7.23692c-2.82484,1.17201 -6.06491,-0.16787 -7.23692,-2.99271z" stroke="#8a8a8a"/></g></g></g></svg>