<svg version="1.1" xmlns="http://www.w3.org/2000/svg" xmlns:xlink="http://www.w3.org/1999/xlink" width="36.79812" height="36.7981" viewBox="0,0,36.79812,36.7981"><g transform="translate(-302.91346,-162.9135)"><g stroke-miterlimit="10"><path d="M311.51759,163.9135h20.83988c4.07419,0 7.35411,3.303 7.35411,7.40583v20.98644c0,4.10283 -3.27992,7.40583 -7.35411,7.40583h-20.83988c-4.07418,0 -7.35411,-3.303 -7.35411,-7.40583v-20.98644c0,-4.10283 3.27993,-7.40583 7.35411,-7.40583z" fill-opacity="0.39216" fill="#000000" fill-rule="evenodd" stroke="none" stroke-width="0" stroke-linecap="round" stroke-linejoin="round"/><path d="M309.98312,162.9135h20.03379c3.9166,0 7.06966,3.15307 7.06966,7.06966v20.03379c0,3.91659 -3.15306,7.06966 -7.06966,7.06966h-20.03379c-3.91659,0 -7.06966,-3.15307 -7.06966,-7.06966v-20.03379c0,-3.91659 3.15307,-7.06966 7.06966,-7.06966z" fill="#a0a300" fill-rule="evenodd" stroke="none" stroke-width="0" stroke-linecap="round" stroke-linejoin="round"/><g fill-rule="nonzero" stroke-linecap="butt" stroke-linejoin="miter"><g stroke="none" stroke-width="0"><g fill="#000000"><path d="M335.78365,185.80304c-0.24314,1.5361 -7.21996,1.70824 -15.58316,0.38448c-8.3632,-1.32376 -14.94581,-3.64214 -14.70268,-5.17824c0.24314,-1.5361 7.21996,-1.70824 15.58316,-0.38448c8.3632,1.32376 14.94581,3.64214 14.70267,5.17824z"/><path d="M331.33141,183.75859c-0.41483,2.58942 -21.37124,-0.7679 -20.9564,-3.35732c0.41483,-2.58942 5.44238,-3.93699 11.22933,-3.00989c5.78695,0.9271 10.14191,3.77779 9.72707,6.36722z"/></g><g fill="#d9db56"><path d="M334.50221,185.16057c-0.24314,1.5361 -7.21996,1.70823 -15.58317,0.38446c-8.3632,-1.32376 -14.94581,-3.64214 -14.70268,-5.17824c0.24314,-1.5361 7.21996,-1.70823 15.58316,-0.38446c8.3632,1.32376 14.94583,3.64214 14.70268,5.17824z"/><path d="M330.04996,183.11613c-0.41483,2.58941 -21.37124,-0.76791 -20.95641,-3.35733c0.41483,-2.58941 5.44238,-3.937 11.22933,-3.00989c5.78695,0.9271 10.14191,3.77781 9.72708,6.36722z"/></g></g><g><path d="M314.12575,178.5736c0,1.41552 -1.20488,2.56302 -2.69117,2.56302c-1.48629,0 -2.69117,-1.1475 -2.69117,-2.56302c0,-1.41552 1.20488,-2.56302 2.69117,-2.56302c1.48629,0 2.69117,1.1475 2.69117,2.56302z" fill="#d9db56" stroke="#000000" stroke-width="0.5"/><path d="M312.2507,178.11495c0,0.80462 -0.65226,1.45688 -1.45688,1.45688c-0.80462,0 -1.45688,-0.65226 -1.45688,-1.45688c0,-0.80462 0.65226,-1.45688 1.45688,-1.45688c0.80462,0 1.45688,0.65227 1.45688,1.45688z" fill="#000000" stroke="none" stroke-width="0"/></g><g><path d="M326.59013,181.54131c0,1.41552 -1.20488,2.56302 -2.69117,2.56302c-1.48629,0 -2.69117,-1.1475 -2.69117,-2.56302c0,-1.41552 1.20488,-2.56302 2.69117,-2.56302c1.48629,0 2.69117,1.1475 2.69117,2.56302z" fill="#d9db56" stroke="#000000" stroke-width="0.5"/><path d="M325.52446,181.24454c0,0.80462 -0.65226,1.45688 -1.45688,1.45688c-0.80462,0 -1.45688,-0.65227 -1.45688,-1.45688c0,-0.80462 0.65227,-1.45688 1.45688,-1.45688c0.80462,0 1.45688,0.65226 1.45688,1.45688z" fill="#000000" stroke="none" stroke-width="0"/></g><g fill="#000000" stroke="none" stroke-width="0"><path d="M321.23622,177.69381c-0.59895,-0.01004 0.93665,-4.77164 0.93665,-4.77164l1.21878,0.48788c0,0 -1.15771,4.30047 -2.15543,4.28376z"/><path d="M320.55255,177.14779c0,0 -0.14319,0.63768 0.5293,0.86585c0.67249,0.22817 1.35266,-0.36073 1.35266,-0.36073c0,0 -1.07656,0.80506 -1.53797,0.6485c-0.44177,-0.14989 -0.34401,-1.15362 -0.34401,-1.15362z"/></g></g></g></g></svg>