<svg version="1.1" xmlns="http://www.w3.org/2000/svg" xmlns:xlink="http://www.w3.org/1999/xlink" width="14.0553" height="13.5266" viewBox="0,0,14.0553,13.5266"><g transform="translate(-293.09737,-216.57506)"><g stroke="none" stroke-miterlimit="10"><path d="M293.18174,230.10166v-13.5266h13.97092v13.5266z" fill-opacity="0.01" fill="#000000" stroke-width="2"/><path d="M293.85098,220.41784c0.56925,0 2.81377,-0.0638 2.81377,-0.0638c0,0 2.73972,-2.9236 3.50484,-3.59772c0.30286,-0.26685 0.63411,-0.21782 0.63411,0.35575c0,2.75523 0,10.87982 0,12.38028c0,0.46613 -0.33279,0.53846 -0.63069,0.23368c-0.72401,-0.74078 -3.62975,-3.7161 -3.62975,-3.7161c0,0 -2.07273,0 -2.6863,0c-0.30864,0 -0.7596,-0.38042 -0.7596,-0.77084c0,-1.09645 0,-3.15026 0,-3.86248c0,-0.43933 0.43245,-0.95877 0.75365,-0.95877z" fill="#383819" stroke-width="0"/><path d="M305.81111,225.58707c-0.91446,-0.91446 -3.08501,-3.08502 -3.65894,-3.65894c-0.2877,-0.2877 -0.19118,-0.80441 -0.04299,-0.95263c0.19919,-0.19919 0.65001,-0.33502 0.95674,-0.02828c0.59057,0.59057 2.83092,2.83092 3.72608,3.72608c0.28929,0.28929 0.0744,0.73764 -0.0865,0.89853c-0.15463,0.15463 -0.62417,0.28548 -0.89443,0.01524z" fill="#383819" stroke-width="0"/><path d="M302.19557,225.5718c-0.1609,-0.1609 -0.37577,-0.60923 -0.0865,-0.89853c0.89517,-0.89517 3.13552,-3.13552 3.72608,-3.72608c0.30674,-0.30674 0.75755,-0.17092 0.95675,0.02828c0.14821,0.14821 0.24472,0.66494 -0.04297,0.95264c-0.57393,0.57393 -2.74449,2.7445 -3.65894,3.65894c-0.27025,0.27025 -0.73979,0.13937 -0.89443,-0.01524z" fill="#383819" stroke-width="0"/></g></g></svg>