<svg version="1.1" xmlns="http://www.w3.org/2000/svg" xmlns:xlink="http://www.w3.org/1999/xlink" width="34.17311" height="34.17311" viewBox="0,0,34.17311,34.17311"><g transform="translate(-302.91346,-162.9135)"><g stroke="none" stroke-width="0" stroke-miterlimit="10"><path d="M309.98312,162.9135h20.03379c3.9166,0 7.06966,3.15307 7.06966,7.06966v20.03379c0,3.91659 -3.15306,7.06966 -7.06966,7.06966h-20.03379c-3.91659,0 -7.06966,-3.15307 -7.06966,-7.06966v-20.03379c0,-3.91659 3.15307,-7.06966 7.06966,-7.06966z" fill="#787878" fill-rule="evenodd" stroke-linecap="round" stroke-linejoin="round"/><g fill="#8a8a8a" fill-rule="nonzero" stroke-linecap="butt" stroke-linejoin="miter"><path d="M323.23427,175.47507c0,3.9788 -3.32386,7.20425 -7.42404,7.20425c-4.10019,0 -7.42405,-3.22545 -7.42405,-7.20425c0,-3.9788 3.32386,-7.20425 7.42405,-7.20425c4.10019,0 7.42404,3.22545 7.42404,7.20425zM315.73695,179.34819c2.16604,0 3.92195,-1.75592 3.92195,-3.92195c0,-2.16604 -1.75592,-3.92195 -3.92195,-3.92195c-2.16604,0 -3.92195,1.75592 -3.92195,3.92195c0,2.16604 1.75592,3.92195 3.92195,3.92195z"/><g><path d="M313.51462,170.51758v-5.71456h4.59119v5.71456z"/><path d="M313.51462,186.09828v-5.71456h4.59119v5.71456z"/></g><g><path d="M320.73384,173.15933l5.71451,-0.02337l0.01878,4.59115l-5.71451,0.02337z"/><path d="M305.15326,173.22306l5.71451,-0.02337l0.01878,4.59115l-5.71451,0.02337z"/></g><g><path d="M320.82032,177.59731l3.8303,4.24087l-3.4072,3.07733l-3.8303,-4.24087z"/><path d="M310.37701,166.03456l3.8303,4.24087l-3.4072,3.07734l-3.8303,-4.24087z"/></g><g><path d="M314.20732,180.67466l-3.8303,4.24087l-3.4072,-3.07733l3.8303,-4.24087z"/><path d="M324.65061,169.11195l-3.8303,4.24087l-3.4072,-3.07734l3.8303,-4.24087z"/></g></g><g fill="#c1c1c1" fill-rule="nonzero" stroke-linecap="butt" stroke-linejoin="miter"><path d="M322.36269,175.45063c0,3.9788 -3.32386,7.20425 -7.42405,7.20425c-4.10019,0 -7.42404,-3.22545 -7.42404,-7.20425c0,-3.9788 3.32386,-7.20425 7.42404,-7.20425c4.10019,0 7.42405,3.22545 7.42405,7.20425zM318.78736,175.40182c0,-2.16604 -1.75592,-3.92195 -3.92195,-3.92195c-1.09544,0 -2.08598,0.44911 -2.79755,1.17324c-0.72414,0.71157 -1.17324,1.70212 -1.17324,2.79756c0,2.16604 1.75592,3.92195 3.92195,3.92195c1.09544,0 2.086,-0.44911 2.79757,-1.17325c0.72413,-0.71157 1.17323,-1.70211 1.17323,-2.79755z"/><g><path d="M312.64306,170.49316v-5.71456h4.59119v5.71456z"/><path d="M312.64306,186.07385v-5.71456h4.59119v5.71456z"/></g><g><path d="M319.86233,173.1349l5.71451,-0.02337l0.01878,4.59115l-5.71451,0.02337z"/><path d="M304.28173,173.19864l5.71451,-0.02337l0.01878,4.59115l-5.71451,0.02337z"/></g><g><path d="M319.94876,177.57292l3.8303,4.24087l-3.4072,3.07733l-3.8303,-4.24087z"/><path d="M309.50548,166.01017l3.8303,4.24087l-3.4072,3.07734l-3.8303,-4.24087z"/></g><g><path d="M313.33576,180.65023l-3.8303,4.24087l-3.4072,-3.07733l3.8303,-4.24087z"/><path d="M323.77907,169.08753l-3.8303,4.24087l-3.4072,-3.07734l3.8303,-4.24087z"/></g></g><g fill="#8a8a8a" fill-rule="nonzero" stroke-linecap="butt" stroke-linejoin="miter"><path d="M332.49296,188.5219c0,2.27584 -1.90122,4.12078 -4.24649,4.12078c-2.34528,0 -4.2465,-1.84493 -4.2465,-4.12078c0,-2.27584 1.90122,-4.12078 4.2465,-4.12078c2.34528,0 4.24649,1.84493 4.24649,4.12078zM328.20455,190.73726c1.23896,0 2.24333,-1.00437 2.24333,-2.24333c0,-1.23896 -1.00437,-2.24333 -2.24333,-2.24333c-1.23896,0 -2.24333,1.00437 -2.24333,2.24333c0,1.23896 1.00437,2.24333 2.24333,2.24333z"/><g><path d="M326.93341,185.68622v-3.26868h2.62613v3.26868z"/><path d="M326.93341,194.59828v-3.26868h2.62613v3.26868z"/></g><g><path d="M331.06273,187.19731l3.26866,-0.01337l0.01074,2.6261l-3.26866,0.01337z"/><path d="M322.15076,187.23375l3.26866,-0.01337l0.01074,2.6261l-3.26866,0.01337z"/></g><g><path d="M331.1122,189.73581l2.1909,2.42574l-1.94889,1.76021l-2.1909,-2.42574z"/><path d="M325.13872,183.12201l2.1909,2.42574l-1.94889,1.76021l-2.1909,-2.42574z"/></g><g><path d="M327.32962,191.49602l-2.1909,2.42574l-1.94889,-1.76021l2.1909,-2.42574z"/><path d="M333.3031,184.88221l-2.1909,2.42574l-1.94889,-1.76021l2.1909,-2.42574z"/></g></g><g fill="#c1c1c1" fill-rule="nonzero" stroke-linecap="butt" stroke-linejoin="miter"><path d="M331.99442,188.50793c0,2.27584 -1.90122,4.12078 -4.2465,4.12078c-2.34528,0 -4.24649,-1.84493 -4.24649,-4.12078c0,-2.27584 1.90122,-4.12078 4.24649,-4.12078c2.34528,0 4.2465,1.84493 4.2465,4.12078zM329.94937,188.47999c0,-1.23896 -1.00437,-2.24333 -2.24333,-2.24333c-0.62658,0 -1.19316,0.25689 -1.60018,0.67108c-0.4142,0.40701 -0.67108,0.9736 -0.67108,1.60018c0,1.23896 1.00437,2.24333 2.24333,2.24333c0.62658,0 1.19318,-0.25689 1.60019,-0.67109c0.4142,-0.40701 0.67108,-0.97359 0.67108,-1.60018z"/><g><path d="M326.43487,185.67225v-3.26868h2.62613v3.26868z"/><path d="M326.43487,194.58431v-3.26868h2.62613v3.26868z"/></g><g><path d="M330.56424,187.18334l3.26866,-0.01337l0.01074,2.6261l-3.26866,0.01337z"/><path d="M321.65227,187.21978l3.26866,-0.01337l0.01074,2.6261l-3.26866,0.01337z"/></g><g><path d="M330.61368,189.72184l2.1909,2.42574l-1.94889,1.76021l-2.1909,-2.42574z"/><path d="M324.64018,183.10804l2.1909,2.42574l-1.94889,1.76021l-2.1909,-2.42574z"/></g><g><path d="M326.83108,191.48205l-2.1909,2.42574l-1.94889,-1.76021l2.1909,-2.42574z"/><path d="M332.80458,184.86824l-2.1909,2.42574l-1.94889,-1.76021l2.1909,-2.42574z"/></g></g></g></g></svg>