<svg version="1.1" xmlns="http://www.w3.org/2000/svg" xmlns:xlink="http://www.w3.org/1999/xlink" width="118.44649" height="105.19139" viewBox="0,0,118.44649,105.19139"><g transform="translate(-181.02728,-124.26531)"><g data-paper-data="{&quot;isPaintingLayer&quot;:true}" fill-rule="nonzero" stroke-linejoin="miter" stroke-miterlimit="10" stroke-dasharray="" stroke-dashoffset="0" style="mix-blend-mode: normal"><g stroke-linecap="butt"><path d="M288.12285,206.52785c5.76625,4.74275 -4.395,15.40663 -12.64336,17.31127c-13.15776,3.03829 -21.66064,-4.92346 -21.66064,-4.92346l5.86218,-4.59803c0,0 6.03549,3.77611 11.54665,1.31674c6.79712,-3.03323 9.84316,-14.90681 16.89517,-9.10653z" fill="#ecec68" stroke="#000000" stroke-width="2"/><path d="M276.49667,210.57965l4.19466,-4.80057l8.37745,7.32011l-4.19466,4.80056z" fill="#000000" stroke="none" stroke-width="0"/><path d="M271.22206,215.86634l4.41297,-3.21893l4.37797,9.1097l-5.44308,2.24997z" fill="#000000" stroke="none" stroke-width="0"/><path d="M263.38228,215.9005l5.62307,0.42683l-1.31672,8.51351l-6.40711,-1.52839z" fill="#000000" stroke="none" stroke-width="0"/></g><g data-paper-data="{&quot;index&quot;:null}" stroke-linecap="butt"><path d="M262.71695,209.97198c4.17408,2.3425 5.46151,6.12246 4.01998,8.69113c-1.44153,2.56867 -6.63749,2.95836 -10.81158,0.61587c-4.17408,-2.3425 -5.74565,-6.53011 -4.30412,-9.09877c1.44153,-2.56867 6.92163,-2.55071 11.09573,-0.20821z" fill="#ecec68" stroke="#000000" stroke-width="2"/><path d="M260.29398,220.57627l4.99872,-8.10085c0,0 3.55289,2.47264 1.8084,6.14944c-1.49856,3.1585 -6.80712,1.9514 -6.80712,1.9514z" fill="#000000" stroke="none" stroke-width="0"/><path d="M253.68482,217.61178l6.06352,-9.26705l3.067,1.6985l-5.6855,9.54869z" fill="#000000" stroke="none" stroke-width="0"/></g><g stroke-linecap="butt"><path d="M230.26328,208.9872c1.62183,2.45881 0.35428,6.74824 -3.64127,9.38372c-3.99555,2.63549 -9.20608,2.61902 -10.82791,0.16021c-1.62183,-2.45881 -0.60849,-6.32128 3.38706,-8.95677c3.99555,-2.63549 9.46029,-3.04597 11.08213,-0.58716z" fill="#ecec68" stroke="#000000" stroke-width="2"/><path d="M215.42811,218.51908c-2.0034,-3.5424 1.36324,-6.26319 1.36324,-6.26319l5.56618,7.72196c0,0 -5.20845,1.58427 -6.92942,-1.45877z" fill="#000000" stroke="none" stroke-width="0"/><path d="M225.44302,218.76935l-6.35491,-9.11688l2.93745,-1.91383l6.71179,8.80888z" fill="#000000" stroke="none" stroke-width="0"/></g><path d="M240.91497,226.18342c0,0.7405 -3.6377,1.8081 -9.04974,1.77241c-5.91985,-0.03904 -8.28349,-1.2374 -8.59956,-1.91835c-1.38426,-2.98226 0.39895,-5.24797 8.5651,-5.10799c4.02776,0.06904 7.27771,0.47006 8.5305,1.30635c1.39536,0.93146 0.5537,2.37617 0.5537,3.94758z" fill="#c5c556" stroke="#9b9b44" stroke-width="3" stroke-linecap="butt"/><path d="M241.88014,219.35735c-6.6669,0.22029 -14.65249,0.46798 -14.84061,-0.53958c-0.70692,-3.7862 5.22218,-17.44114 5.22218,-17.44114l17.32881,-0.80133c0,0 5.8091,15.06355 6.09488,16.94349c0.28578,1.87994 -6.57764,1.59973 -13.80526,1.83856z" fill="#000000" stroke="#6e6e30" stroke-width="3" stroke-linecap="butt"/><g stroke="none" stroke-width="0" stroke-linecap="butt"><path d="M241.04772,208.5764c-46.40346,0.42387 -57.98311,-28.27679 -57.98311,-28.27679c0,0 6.86117,-1.69994 11.74256,-9.04132c10.79774,-16.23931 16.33592,-44.69642 43.82773,-45.16023c28.71404,-0.48442 34.45258,25.66709 46.17366,42.58266c4.71488,6.76533 12.7564,11.01854 12.7564,11.01854c0,0 -9.28087,28.44566 -56.51726,28.87714z" fill="#ecec68"/><path d="M296.55118,178.46037c0,0 -2.36428,11.38009 -13.69604,18.86445c-11.75384,7.76314 -31.57652,9.47159 -31.57652,9.47159c0,0 17.79876,-11.9639 16.26578,-43.84934c-0.87652,-18.23115 -16.14738,-35.82351 -16.14738,-35.82351c0,0 11.08162,5.06534 18.87836,15.35051c6.23133,8.22015 8.97699,18.64494 12.9463,23.2564c1.93677,2.25009 3.15514,5.29791 5.36338,7.3734c3.63257,3.41418 7.96613,5.35651 7.96613,5.35651z" fill="#cbcb6a"/></g><path d="M199.96915,184.1326c-0.03395,-3.06806 2.42568,-5.58273 5.49375,-5.61668c3.06806,-0.03395 5.58274,2.42567 5.61669,5.49373c0.03395,3.06806 -2.42568,5.58274 -5.49374,5.61669c-3.06806,0.03395 -5.58274,-2.42568 -5.61669,-5.49374z" fill="#6e6e30" stroke="none" stroke-width="0" stroke-linecap="butt"/><path d="M269.07725,183.47896c-0.03395,-3.06806 2.42568,-5.58273 5.49375,-5.61668c3.06806,-0.03395 5.58274,2.42567 5.61669,5.49373c0.03395,3.06806 -2.42568,5.58274 -5.49374,5.61669c-3.06806,0.03395 -5.58274,-2.42568 -5.61669,-5.49374z" fill="#6e6e30" stroke="none" stroke-width="0" stroke-linecap="butt"/><g stroke="none" stroke-width="0" stroke-linecap="butt"><path d="M213.10443,138.54795l-8.40945,15.76069c0,0 -1.55866,-0.42547 -4.29808,-0.93737c-3.72318,-0.69573 -9.20853,-1.97939 -12.03576,-6.54902c-5.1483,-8.3211 -1.30656,-14.61888 1.13794,-17.31423c2.56043,-2.82318 8.55956,-5.84237 14.88238,-3.53099c5.03361,1.8401 6.66446,5.9273 7.56489,8.90253c0.65684,2.17032 1.15808,3.66839 1.15808,3.66839z" fill="#000000"/><path d="M195.12858,140.83035c-0.04227,-3.81974 3.01997,-6.95051 6.83971,-6.99278c3.81974,-0.04227 6.95051,3.01997 6.99278,6.83971c0.04227,3.81974 -3.01997,6.95051 -6.83971,6.99278c-3.81974,0.04227 -6.95051,-3.01997 -6.99278,-6.83971z" fill="#cbcb6a"/></g><path d="M241.04771,208.57641c-46.40346,0.42387 -57.98311,-28.27679 -57.98311,-28.27679c0,0 6.86117,-1.69994 11.74256,-9.04132c10.79774,-16.23931 16.33592,-44.69642 43.82773,-45.16023c28.71404,-0.48442 33.684,25.74557 45.50704,42.59004c6.29956,8.97508 13.42303,11.01116 13.42303,11.01116c0,0 -9.28087,28.44566 -56.51726,28.87714z" fill="none" stroke="#000000" stroke-width="3" stroke-linecap="butt"/><g data-paper-data="{&quot;index&quot;:null}" stroke="none" stroke-width="0" stroke-linecap="butt"><path d="M266.9747,137.95181c0,0 0.46797,-1.50879 1.07662,-3.69312c0.83438,-2.99443 2.37438,-7.11671 7.36603,-9.06775c6.27013,-2.45074 12.3346,0.43496 14.95687,3.20078c2.50355,2.6406 6.48372,8.85182 1.52082,17.28481c-2.72542,4.63107 -8.18102,6.03581 -11.88789,6.81376c-2.72741,0.5724 -4.27628,1.03225 -4.27628,1.03225l-8.75616,-15.57073z" fill="#000000"/><path d="M278.15695,146.82862c-3.81974,0.04227 -6.95051,-3.01997 -6.99278,-6.83971c-0.04227,-3.81974 3.01997,-6.95051 6.83971,-6.99278c3.81974,-0.04227 6.95051,3.01997 6.99278,6.83971c0.04227,3.81974 -3.01997,6.95051 -6.83971,6.99278z" fill="#cbcb6a"/></g><path d="M232.43122,126.09931l13.12696,0.10475c0,0 -0.16761,9.11644 -1.94556,17.09612c-1.34247,6.02517 -3.36511,11.3394 -3.36511,11.3394c0,0 -2.91968,-4.55583 -4.65601,-11.22366c-1.31042,-5.03227 -3.16028,-17.3166 -3.16028,-17.3166z" fill="#000000" stroke="none" stroke-width="0" stroke-linecap="butt"/><path d="M225.77103,145.5492c0,0 4.04612,-7.67334 13.91339,-7.90444c10.11797,-0.23697 13.58493,7.60014 13.58493,7.60014z" fill="#000000" stroke="none" stroke-width="0" stroke-linecap="butt"/><path d="M223.41467,135.94968c0,0 4.46651,-8.17801 15.94864,-8.427c11.77387,-0.2553 16.0494,8.0729 16.0494,8.0729z" fill="#000000" stroke="none" stroke-width="0" stroke-linecap="butt"/><g fill="#000000" stroke="none" stroke-width="0" stroke-linecap="butt"><path d="M190.2615,190.06984c0,0 -5.67702,-6.24923 -5.85889,-8.56818c-0.15253,-1.94467 4.84009,-4.42134 4.84009,-4.42134c0,0 3.74155,2.81781 9.27523,4.81251c4.6442,1.67408 9.3011,1.98235 9.3011,1.98235c0,0 -1.98618,3.0679 -7.10911,4.48122c-7.49628,2.06808 -10.44841,1.71344 -10.44841,1.71344z"/><path d="M191.94451,191.8875c0,0 8.59403,1.53679 13.8069,1.02657c4.37496,-0.42819 8.23823,-1.95973 8.23823,-1.95973c0,0 0.35771,3.11637 -3.37491,6.81375c-2.10825,2.08835 -4.27108,3.36714 -5.55234,4.1572c-0.81141,-0.4147 -2.37995,-1.15613 -3.1327,-1.50197c-0.63264,-0.29066 -1.58308,-1.23699 -2.69288,-2.37158c-0.93451,-1.55678 -2.28028,-2.83702 -3.88534,-3.69208c-0.02798,-0.0149 -0.05602,-0.02967 -0.08415,-0.04431c0.59151,-0.97329 -3.32281,-2.42786 -3.32281,-2.42786z"/><path d="M214.88451,201.51565c3.98505,-2.5719 6.14436,-5.58426 6.14436,-5.58426c0,0 1.43834,2.9192 0.17953,7.4808c-0.4576,1.65822 -0.90145,3.03377 -1.31013,4.16477c-2.19937,-1.14754 -4.53947,-1.82482 -7.18612,-2.86647c-0.22167,-0.08724 -2.60597,-1.24768 -2.86909,-1.28897c1.02627,-0.66047 3.27146,-0.76354 5.04144,-1.90586z"/></g><g data-paper-data="{&quot;index&quot;:null}" fill="#000000" stroke="none" stroke-width="0" stroke-linecap="butt"><path d="M279.98276,187.22914c-5.15296,-1.29961 -7.20654,-4.3228 -7.20654,-4.3228c0,0 4.64894,-0.41125 9.25495,-2.18769c5.48817,-2.11667 9.16646,-5.01659 9.16646,-5.01659c0,0 5.04621,2.36558 4.93675,4.31315c-0.13052,2.32241 -5.66784,8.69574 -5.66784,8.69574c0,0 -2.94356,0.41988 -10.48378,-1.4818z"/><path d="M288.05989,193.41351c-0.02779,0.01526 -0.79994,0.53891 -0.82758,0.55443c-1.58575,0.89037 -4.66244,1.34449 -5.56226,2.92158c-0.18661,0.19943 1.89368,1.49322 1.717,1.67888c-0.84996,0.89327 -3.83843,0.49954 -4.35674,0.75171c-0.74492,0.36242 -2.29666,1.13837 -3.0987,1.57092c-1.29843,-0.76152 -3.48904,-1.99213 -5.64298,-4.03331c-3.81352,-3.61388 -3.52488,-6.7374 -3.52488,-6.7374c0,0 3.89622,1.44568 8.27958,1.77694c5.22288,0.39472 14.65299,-1.59153 14.65299,-1.59153c0,0 -2.24934,2.1478 -1.63644,3.10778z"/><path d="M271.18523,202.49266c-0.26214,0.0471 -2.62019,1.26002 -2.83986,1.35215c-2.62294,1.09996 -4.94749,1.82886 -7.12092,3.02479c-0.43362,-1.12168 -0.9078,-2.48708 -1.40197,-4.13476c-1.35945,-4.53261 0.01394,-7.48294 0.01394,-7.48294c0,0 2.22543,2.96384 6.26644,5.44692c1.79482,1.10288 4.04175,1.15624 5.08239,1.79383z"/></g><g fill="#000000" stroke="none" stroke-width="0" stroke-linecap="butt"><path d="M223.7819,169.13514c0.09511,8.5944 -3.74506,15.6049 -8.57726,15.65837c-4.83219,0.05347 -8.82656,-6.87032 -8.92167,-15.46472c-0.09511,-8.5944 3.74506,-15.6049 8.57726,-15.65837c4.83219,-0.05347 8.82656,6.87032 8.92167,15.46472z"/><path d="M213.70611,175.89705c0.01406,1.27017 -4.27871,1.94747 -4.27871,1.94747c0,0 -1.16959,-0.45518 -2.70082,-1.04713c-1.99442,-0.77101 -4.46387,-1.84522 -4.34633,-3.17515c0.13707,-1.55089 2.61574,-1.38023 4.53342,-1.20613c1.42842,0.12969 2.45508,0.12873 2.45508,0.12873c0,0 4.3233,2.08203 4.33736,3.35221z"/></g><g data-paper-data="{&quot;index&quot;:null}" fill="#000000" stroke="none" stroke-width="0" stroke-linecap="butt"><path d="M264.80646,153.51773c4.83219,-0.05347 8.82656,6.87032 8.92167,15.46472c0.09511,8.5944 -3.74506,15.6049 -8.57726,15.65837c-4.83219,0.05347 -8.82656,-6.87032 -8.92167,-15.46472c-0.09511,-8.5944 3.74506,-15.6049 8.57726,-15.65837z"/><path d="M270.7143,172.266c0,0 1.02644,-0.02176 2.45164,-0.18303c1.91336,-0.2165 4.38764,-0.44197 4.55899,1.10551c0.14694,1.32701 -2.29812,2.4556 -4.27499,3.27056c-1.51776,0.62569 -2.677,1.10664 -2.677,1.10664c0,0 -4.30671,-0.58213 -4.32076,-1.8523c-0.01406,-1.27017 4.26211,-3.44737 4.26211,-3.44737z"/></g><path d="M216.41412,165.44154c0.03754,3.3924 -1.46695,6.15947 -3.36039,6.18042c-1.89343,0.02095 -3.45879,-2.71214 -3.49633,-6.10455c-0.03754,-3.3924 1.46695,-6.15946 3.36039,-6.18041c1.89343,-0.02095 3.45879,2.71214 3.49633,6.10454z" fill="#ffffff" stroke="none" stroke-width="0" stroke-linecap="butt"/><path d="M265.83649,164.6089c0.03754,3.3924 -1.46695,6.15947 -3.36039,6.18042c-1.89343,0.02095 -3.45879,-2.71215 -3.49633,-6.10455c-0.03754,-3.3924 1.46695,-6.15946 3.36039,-6.18041c1.89343,-0.02095 3.45879,2.71214 3.49633,6.10454z" fill="#ffffff" stroke="none" stroke-width="0" stroke-linecap="butt"/><path d="M228.08206,174.09868c-0.0729,-6.58757 5.20828,-11.98694 11.79584,-12.05984c6.58757,-0.0729 11.98694,5.20828 12.05984,11.79584c0.0729,6.58757 -5.20828,11.98694 -11.79584,12.05984c-6.58757,0.0729 -11.98694,-5.20828 -12.05984,-11.79584z" fill="#6e6e30" stroke="none" stroke-width="0" stroke-linecap="butt"/><path d="M215.11175,176.85348c-0.01154,-1.04315 0.82474,-1.89812 1.86787,-1.90967c1.04315,-0.01154 1.89813,0.82473 1.90968,1.86786c0.01154,1.04315 -0.82474,1.89813 -1.86787,1.90968c-1.04315,0.01154 -1.89813,-0.82474 -1.90968,-1.86787z" fill="#6e6e30" stroke="none" stroke-width="0" stroke-linecap="butt"/><path d="M265.2247,176.74339c-0.01154,-1.04315 0.82474,-1.89812 1.86787,-1.90967c1.04315,-0.01154 1.89813,0.82473 1.90968,1.86786c0.01154,1.04315 -0.82474,1.89813 -1.86787,1.90968c-1.04315,0.01154 -1.89813,-0.82474 -1.90968,-1.86787z" fill="#6e6e30" stroke="none" stroke-width="0" stroke-linecap="butt"/><path d="M239.92992,187.71841c-6.78784,0.08929 -6.62542,-8.07003 -6.62542,-8.07003c0,0 3.17855,0.26749 4.0148,-0.12239c1.01294,-0.47226 2.91942,-2.63308 2.91942,-2.63308c0,0 2.10627,2.13021 3.01272,2.54235c0.7515,0.34168 3.33677,-0.04103 3.33677,-0.04103c0,0 0.65817,8.6572 -6.65829,8.32418z" fill="#c5c556" stroke="#000000" stroke-width="1.5" stroke-linecap="butt"/><path d="M249.40839,177.11287c0,0 -1.47063,3.45655 -5.73768,2.55991c-3.02603,-0.63586 -3.36193,-3.71221 -3.36193,-3.71221c0,0 -0.65926,3.57692 -3.57075,3.93424c-4.16142,0.51072 -6.15996,-2.40688 -6.15996,-2.40688" fill="none" stroke="#000000" stroke-width="2" stroke-linecap="round"/><g stroke="none" stroke-width="0" stroke-linecap="butt"><path d="M247.07507,169.59657c0.02521,2.27804 -3.68795,7.06387 -6.96515,6.9525c-3.27624,-0.11133 -7.25876,-4.51677 -7.28397,-6.79482c-0.02521,-2.27804 2.96324,-4.65807 6.99006,-4.70264c4.02682,-0.04456 7.23386,2.26691 7.25907,4.54495z" fill="#000000"/><path d="M244.39935,168.7928c0.01044,0.94343 -2.01434,1.73074 -4.52248,1.75849c-2.50815,0.02776 -4.54986,-0.71455 -4.5603,-1.65798c-0.01044,-0.94343 1.26537,-1.69748 4.68823,-1.84365c3.33952,-0.14262 4.38412,0.79972 4.39456,1.74314z" fill="#ffffff"/></g><path d="M240.25057,177.96427l0.06521,5.89249" fill="none" stroke="#000000" stroke-width="1" stroke-linecap="round"/><path d="M260.38123,222.029c-0.18759,0.71917 -1.84121,2.50414 -7.90135,3.26812c-6.62907,0.83571 -9.30513,0.761 -9.4386,0.02501c-0.28131,-1.55107 -1.29724,-3.06447 -0.07848,-4.23257c1.08694,-1.04174 4.14242,-1.77419 8.0793,-2.55812c3.93688,-0.78393 10.16898,0.31615 9.33913,3.49756z" data-paper-data="{&quot;index&quot;:null}" fill="#c5c556" stroke="#9b9b44" stroke-width="3" stroke-linecap="butt"/></g></g></svg>