<svg version="1.1" xmlns="http://www.w3.org/2000/svg" xmlns:xlink="http://www.w3.org/1999/xlink" width="378" height="460.00001" viewBox="0,0,378,460.00001"><defs><linearGradient x1="320" y1="-67.5" x2="320" y2="269.5" gradientUnits="userSpaceOnUse" id="color-1"><stop offset="0" stop-color="#ffffd1"/><stop offset="1" stop-color="#f1f19c"/></linearGradient></defs><g transform="translate(-131,83.00001)"><g data-paper-data="{&quot;isPaintingLayer&quot;:true}" stroke-miterlimit="10" stroke-dasharray="" stroke-dashoffset="0" style="mix-blend-mode: normal"><path d="M145.24891,375c-6.76488,0 -12.24891,-5.33739 -12.24891,-11.9214v-432.15721c0,-6.58401 5.48402,-11.9214 12.24891,-11.9214h349.50219c6.76488,0 12.2489,5.33739 12.2489,11.9214v432.15721c0,6.584 -5.48402,11.9214 -12.2489,11.9214z" fill="#535311" fill-rule="nonzero" stroke="#212108" stroke-width="4" stroke-linecap="butt" stroke-linejoin="miter"/><path d="M160.66812,361.5c-6.16798,0 -11.16812,-4.94148 -11.16812,-11.03711v-406.92577c0,-6.09563 5.00014,-11.03711 11.16812,-11.03711h318.66376c6.16798,0 11.16812,4.94149 11.16812,11.03712v406.92577c0,6.09563 -5.00014,11.03711 -11.16812,11.03711z" fill="url(#color-1)" fill-rule="nonzero" stroke="#212108" stroke-width="4.5" stroke-linecap="butt" stroke-linejoin="miter"/><text transform="translate(160.5,-35.68135) scale(0.61033,0.61033)" font-size="40" xml:space="preserve" fill="#212108" fill-rule="nonzero" stroke="none" stroke-width="1" stroke-linecap="butt" stroke-linejoin="miter" stroke-miterlimit="10" stroke-dasharray="" stroke-dashoffset="0" font-family="&quot;Allan-Regular&quot;, Sans Serif" font-weight="normal" text-anchor="start" style="mix-blend-mode: normal"><tspan x="0" dy="0">name: Signy</tspan><tspan x="0" dy="46.150000000000006px">age: 26</tspan><tspan x="0" dy="46.150000000000006px">occupation: low rank dealer</tspan></text><g><path d="M432.53444,-56.08653h32.93116c6.43804,0 11.62097,5.18296 11.62097,11.62097v32.93116c0,6.43802 -5.18294,11.62098 -11.62097,11.62098h-32.93116c-6.43802,0 -11.62098,-5.18296 -11.62098,-11.62097v-32.93116c0,-6.43801 5.18296,-11.62097 11.62098,-11.62097z" fill="#a0a300" fill-rule="evenodd" stroke="#212108" stroke-width="2" stroke-linecap="round" stroke-linejoin="round"/><g fill="#d9db56" fill-rule="nonzero" stroke="#000000" stroke-width="1.5" stroke-linecap="butt" stroke-linejoin="miter" font-family="&quot;Helvetica Neue&quot;, Helvetica, Arial, sans-serif" font-weight="400" font-size="16" text-anchor="start"><g/><g data-paper-data="{&quot;index&quot;:null}"/></g></g><text transform="translate(160.5,50.59693) scale(0.40168,0.40168)" font-size="40" xml:space="preserve" fill="#212108" fill-rule="nonzero" stroke="none" stroke-width="1" stroke-linecap="butt" stroke-linejoin="miter" stroke-miterlimit="10" stroke-dasharray="" stroke-dashoffset="0" font-family="&quot;Allan-Regular&quot;, Sans Serif" font-weight="normal" text-anchor="start" style="mix-blend-mode: normal"><tspan x="0" dy="0">Description-</tspan><tspan x="0" dy="46.150000000000006px">Signy had been mute since birth, his parents couldn’t </tspan><tspan x="0" dy="46.150000000000006px">extract a single word from him. They tried for years </tspan><tspan x="0" dy="46.150000000000006px">but he just wouldn’t blabber anything. After finishing </tspan><tspan x="0" dy="46.150000000000006px">high school, he decided to seek a job. Everyone rejected </tspan><tspan x="0" dy="46.150000000000006px">him because he would just stare at them and not say a </tspan><tspan x="0" dy="46.150000000000006px">word. The last place to go was the MCS. Dr. Ohno fitted Signy </tspan><tspan x="0" dy="46.150000000000006px">with a faceplate that could display what he was thinking </tspan><tspan x="0" dy="46.150000000000006px">at all times to help him communicate with the other </tspan><tspan x="0" dy="46.150000000000006px">members. Signy felt truly at home despite being a criminal </tspan><tspan x="0" dy="46.150000000000006px">dealing illegal drugs. Since he was a low rank dealer he was </tspan><tspan x="0" dy="46.150000000000006px">of course, partnered up with another low rank dealer, Blendery. </tspan><tspan x="0" dy="46.150000000000006px">Upon hearing this name Signy thought his partner was gonna </tspan><tspan x="0" dy="46.150000000000006px">be just like him, a normal dude with a blender on his head. Upon </tspan><tspan x="0" dy="46.150000000000006px">meeting Blendery he was well... he wasn't mad I guess. At least </tspan><tspan x="0" dy="46.150000000000006px">Blendery also thought Signy was gonna be a cautionary sign </tspan><tspan x="0" dy="46.150000000000006px">with a face and legs.</tspan></text><path d="M160.16667,-30.16667v-1.66667h252.16667v1.66667z" fill="#212108" fill-rule="nonzero" stroke="none" stroke-width="0" stroke-linecap="butt" stroke-linejoin="miter"/><path d="M160.16667,-0.66667v-1.66667h252.16667v1.66667z" fill="#212108" fill-rule="nonzero" stroke="none" stroke-width="0" stroke-linecap="butt" stroke-linejoin="miter"/><path d="M160.16667,29.33333v-1.66667h252.16667v1.66667z" fill="#212108" fill-rule="nonzero" stroke="none" stroke-width="0" stroke-linecap="butt" stroke-linejoin="miter"/><g fill-rule="nonzero" stroke-linejoin="miter"><path d="M425.6547,-8.53204l22.76251,-43.93589l24.14204,43.93589z" fill="#d9db56" stroke="none" stroke-width="NaN" stroke-linecap="butt"/><path d="M467.07059,-10.85916l-36.57045,0.29853l18.21059,-35.3763z" fill="none" stroke="#000000" stroke-width="1.2" stroke-linecap="round"/><path d="M451.4386,-30.58038c0,3.68552 -1.25989,6.67325 -2.81402,6.67325c-1.55415,0 -2.81402,-2.98772 -2.81402,-6.67325c0,-3.68552 1.25989,-6.67325 2.81402,-6.67325c1.55415,0 2.81402,2.98773 2.81402,6.67325z" fill="#000000" stroke="none" stroke-width="0" stroke-linecap="butt"/><path d="M451.11699,-18.19869c0,1.37653 -1.18788,2.49243 -2.65322,2.49243c-1.46534,0 -2.65322,-1.1159 -2.65322,-2.49243c0,-1.37653 1.18788,-2.49243 2.65322,-2.49243c1.46534,0 2.65322,1.1159 2.65322,2.49243z" fill="#000000" stroke="none" stroke-width="0" stroke-linecap="butt"/></g></g></g></svg>