<svg version="1.1" xmlns="http://www.w3.org/2000/svg" xmlns:xlink="http://www.w3.org/1999/xlink" width="34.17311" height="34.17311" viewBox="0,0,34.17311,34.17311"><g transform="translate(-302.91346,-162.91351)"><g stroke-miterlimit="10"><path d="M309.98312,162.91351h20.03379c3.9166,0 7.06966,3.15307 7.06966,7.06966v20.03379c0,3.91659 -3.15306,7.06966 -7.06966,7.06966h-20.03379c-3.91659,0 -7.06966,-3.15307 -7.06966,-7.06966v-20.03379c0,-3.91659 3.15307,-7.06966 7.06966,-7.06966z" fill="#787878" fill-rule="evenodd" stroke="none" stroke-width="0" stroke-linecap="round" stroke-linejoin="round"/><g fill-rule="nonzero" stroke="#8a8a8a" stroke-linecap="butt" stroke-linejoin="miter"><g><path d="M306.23141,186.99702l-1.56769,-7.2409l12.93795,-2.80113l2.28962,7.14075z" fill="#d9db56" stroke-width="1"/><path d="M317.60166,176.95502l2.17654,7.10909c0,0 -4.64768,1.16559 -6.91802,1.65713c-2.24497,0.48604 -6.62877,1.27581 -6.62877,1.27581l-1.56769,-7.2409z" fill="#c1c1c1" stroke-width="0.5"/></g><g><path d="M323.06444,183.29644l-0.86898,-7.44832l12.93795,-2.80113l0.05719,7.62408z" fill="#d9db56" stroke-width="1"/><path d="M335.33637,173.00302l-0.08341,7.71068c0,0 -5.80412,1.52035 -5.87909,1.53589c-2.02529,0.41968 -6.21955,0.97123 -6.21955,0.97123c0,0 -1.17025,-5.59587 -1.38211,-6.60899c-0.06327,-0.30251 -0.12323,-0.58927 -0.12323,-0.58927z" fill="#c1c1c1" stroke-width="0.5"/></g><path d="M317.60594,176.72945l4.20207,-1.04428l0.13684,1.71967c0,0 -1.34612,-0.12556 -2.06062,0.02913c-0.40872,0.08849 -1.853,0.77957 -1.853,0.77957z" fill="#c1c1c1" stroke-width="0.5"/></g></g></g></svg>