<svg version="1.1" xmlns="http://www.w3.org/2000/svg" xmlns:xlink="http://www.w3.org/1999/xlink" width="184.75899" height="259.33685" viewBox="0,0,184.75899,259.33685"><g transform="translate(-229.46592,-49.44381)"><g stroke-miterlimit="10"><path d="" fill="#c5c556" stroke="none" stroke-width="0" stroke-linecap="butt"/><g stroke="#000000"><path d="M323.22076,307.48066v-98.5h16v98.5z" fill="#ffffff" stroke-width="1.5" stroke-linecap="butt"/><path d="M328.47076,233.72659l0.25,7" fill="none" stroke-width="1" stroke-linecap="round"/><path d="M334.72076,244.47659v6.75" fill="none" stroke-width="1" stroke-linecap="round"/><path d="M329.22076,256.47659v-5" fill="none" stroke-width="1" stroke-linecap="round"/><path d="M332.97076,266.72659v-6" fill="none" stroke-width="1" stroke-linecap="round"/><path d="M327.47076,269.72659l0.75,3" fill="none" stroke-width="1" stroke-linecap="round"/><path d="M332.72076,283.72659v-6" fill="none" stroke-width="1" stroke-linecap="round"/><path d="M327.97076,291.47659v-4.75" fill="none" stroke-width="1" stroke-linecap="round"/><path d="M332.22076,299.22659l-0.5,-3.75" fill="none" stroke-width="1" stroke-linecap="round"/><g><path d="M300.47076,308.03066v-98.5h16v98.5z" fill="#ffffff" stroke-width="1.5" stroke-linecap="butt"/><path d="M306.47076,224.52659v7.25" fill="none" stroke-width="1" stroke-linecap="round"/><path d="M311.72076,237.27659l-0.25,6.25" fill="none" stroke-width="1" stroke-linecap="round"/><path d="M303.72076,242.52659v5.75" fill="none" stroke-width="1" stroke-linecap="round"/><path d="M308.72076,250.52659v5" fill="none" stroke-width="1" stroke-linecap="round"/><path d="M304.47076,258.77659l-0.25,5" fill="none" stroke-width="1" stroke-linecap="round"/><path d="M312.22076,261.52659l-0.75,4.5" fill="none" stroke-width="1" stroke-linecap="round"/><path d="M306.97076,274.77659l0.25,-5" fill="none" stroke-width="1" stroke-linecap="round"/><path d="M312.72076,281.27659l0.25,-5.75" fill="none" stroke-width="1" stroke-linecap="round"/><path d="M304.72076,280.77659l1,3.5" fill="none" stroke-width="1" stroke-linecap="round"/><path d="M309.97076,288.27659l-0.5,-3.75" fill="none" stroke-width="1" stroke-linecap="round"/><path d="M305.97076,295.02659v5.5" fill="none" stroke-width="1" stroke-linecap="round"/><path d="M311.22076,302.02659l0.25,-4.25" fill="none" stroke-width="1" stroke-linecap="round"/></g></g><path d="M381.47076,198.78066c0,1.63198 -0.00343,3.25265 -0.02125,4.86066l-1.16254,0.96878l0.05729,0.06874c-0.0235,0.02051 -0.04692,0.04116 -0.07027,0.06193l-0.19902,0.06797c-0.32575,0.43057 -0.74424,0.81749 -1.12743,1.22103c-0.28119,0.27388 -0.56731,0.5382 -0.86801,0.77418l-0.10975,0.33204l-0.10419,-0.07577l-2.65038,3.64427c-0.3106,0.41659 -0.49445,0.93324 -0.49445,1.49283c0,1.24422 0.90893,2.27614 2.09901,2.46801c-0.05864,0.1621 -0.11683,0.32316 -0.17458,0.48339c-1.71448,2.18577 -3.47252,4.31908 -5.3048,6.4342l-3.3677,1.9244c-2.9683,0.28085 -5.89093,0.68094 -8.81659,1.6327c-1.59305,0.51824 -3.59534,0.60481 -4.65099,1.90506c-9.20877,0.05582 -18.41753,0.28881 -27.61948,0.31627c-0.39621,-0.52604 -0.99532,-0.89061 -1.68103,-0.97743l-4.6023,-0.65747c-3.49566,-1.27682 -7.60344,-0.71999 -11.18322,-0.31819l-0.17093,0.11169l-0.01851,-0.06786l-1.3151,0.35866c-5.99767,-0.07288 -12.00305,-0.01348 -17.98403,-0.11305c-0.4075,-0.00678 -0.81504,-0.0146 -1.22261,-0.02347c-3.91819,-3.20479 -7.90524,-6.65451 -12.28952,-9.00471c-2.08131,-1.11569 -6.25798,-3.346 -9.02309,-2.63381c-0.13153,0.03388 -0.26205,0.07051 -0.39165,0.10966l-0.0117,-0.05069l-1.36941,0.31602l-0.49904,-0.99807l-0.01941,0.0097l-0.01247,-0.07131c-1.6082,-2.81434 -2.823,-6.44564 -4.46209,-9.51231c-0.10359,-1.67275 -0.15874,-3.35928 -0.15874,-5.05806c0,-16.15022 7.13249,-30.69305 13.35997,-43.31258c10.969,-22.22787 26.48889,-37.43742 47.89003,-37.43742c21.39975,0 36.30834,15.20764 46.83565,37.43309c5.97778,12.62041 12.91435,27.16485 12.91435,43.31691z" fill="#c5c556" stroke="none" stroke-width="0" stroke-linecap="butt"/><path d="" fill="none" stroke="#000000" stroke-width="1" stroke-linecap="round"/><g stroke="none" stroke-width="0" stroke-linecap="butt"><g><path d="M300.02027,163.78276c5.13025,7.91214 4.41156,11.81771 1.58819,13.64839c-2.82337,1.83068 -6.68228,0.89324 -11.81253,-7.0189c-3.06996,-4.73466 -5.89952,-10.89397 -7.07207,-15.46976c1.96537,-1.35539 3.93101,-2.85028 6.05239,-3.93334c3.70033,2.93678 8.17235,8.0363 11.24402,12.77361z" fill="#a1a147"/><path d="M303.40048,156.93222c6.94162,6.17606 7.44502,10.32953 5.44529,13.12144c-1.99973,2.79191 -5.7453,3.16502 -12.68693,-3.01104c-6.94162,-6.17606 -10.46771,-11.389 -8.46799,-14.18091c1.99973,-2.79191 8.768,-2.10555 15.70962,4.07052z" fill="#a1a147"/><path d="M285.08642,153.29945c3.36488,-0.68651 6.9615,5.73167 9.76768,14.58917c2.80617,8.8575 0.93723,12.12485 -2.42764,12.81136c-3.36488,0.68651 -6.95146,-1.4678 -9.75763,-10.3253c-2.80617,-8.8575 -0.94728,-16.38872 2.4176,-17.07523z" fill="#a1a147"/><path d="M298.4889,165.06924c4.22825,6.52103 4.03206,9.48306 2.19375,10.67503c-1.83831,1.19197 -4.62261,0.16249 -8.85086,-6.35854c-2.26636,-3.49528 -6.24874,-9.45431 -8.85226,-14.6203c1.84196,-1.28044 3.69008,-2.66239 5.67228,-3.69219c3.61718,4.50954 7.56758,10.49585 9.83709,13.99601z" fill="#c5c556"/><path d="M302.70177,157.74732c5.72116,5.09019 6.13604,8.5134 4.48791,10.81444c-1.64813,2.30104 -4.73516,2.60855 -10.45632,-2.48164c-3.52374,-3.13512 -10.11791,-7.51413 -14.27845,-10.95309c2.01131,-1.37266 4.01547,-2.9177 6.17904,-4.0445c5.19937,1.49001 11.09097,4.01625 14.06782,6.66479z" fill="#c5c556"/><path d="M293.7265,167.17184c2.31279,7.30018 0.77245,9.99307 -2.00081,10.55888c-2.77326,0.56581 -5.72926,-1.20974 -8.04206,-8.50992c-1.11229,-3.51085 -2.85386,-8.8646 -2.27401,-13.98449c0.53895,-0.37603 1.93586,-2.90259 2.47964,-3.28261c1.6149,-1.12857 5.69378,-1.08178 7.46339,-1.84793c1.35783,5.20015 1.04814,12.88154 2.37385,17.06607z" fill="#c5c556"/></g><g fill="#a1a147"><path d="M294.94068,176.51862l-3.07086,-7.23414l4.58024,6.42139z"/><path d="M302.18633,171.362l-4.23477,-6.6543l5.55429,5.55993z"/></g></g><g stroke="none" stroke-width="0" stroke-linecap="butt"><g><path d="M351.39157,151.75915c2.12138,1.08306 4.08702,2.57795 6.05239,3.93334c-1.17255,4.57579 -4.0021,10.73511 -7.07207,15.46976c-5.13025,7.91214 -8.98915,8.84958 -11.81253,7.0189c-2.82337,-1.83068 -3.54207,-5.73625 1.58818,-13.64839c3.07168,-4.7373 7.54369,-9.83683 11.24402,-12.77361z" fill="#a1a147"/><path d="M352.47696,153.61171c1.99973,2.79191 -1.52636,8.00485 -8.46799,14.18091c-6.94162,6.17606 -10.6872,5.80295 -12.68693,3.01104c-1.99973,-2.79191 -1.49633,-6.94538 5.44529,-13.12144c6.94162,-6.17606 13.7099,-6.86243 15.70963,-4.07052z" fill="#a1a147"/><path d="M357.49899,171.12468c-2.80617,8.8575 -6.39276,11.01181 -9.75763,10.3253c-3.36488,-0.68651 -5.23382,-3.95387 -2.42764,-12.81136c2.80617,-8.8575 6.4028,-15.27568 9.76768,-14.58917c3.36487,0.68651 5.22377,8.21774 2.4176,17.07523z" fill="#a1a147"/><path d="M351.516,151.82323c1.9822,1.02981 3.83031,2.41175 5.67228,3.69219c-2.60352,5.16599 -6.58591,11.12501 -8.85226,14.6203c-4.22825,6.52103 -7.01255,7.55051 -8.85086,6.35854c-1.83831,-1.19197 -2.0345,-4.154 2.19375,-10.67503c2.26951,-3.50016 6.21992,-9.48647 9.83709,-13.99601z" fill="#c5c556"/><path d="M351.53386,151.83253c2.16357,1.1268 6.73916,3.8147 8.75047,5.18735c-4.16054,3.43896 -13.32613,6.67512 -16.84987,9.81024c-5.72116,5.09019 -8.80819,4.78268 -10.45632,2.48164c-1.64813,-2.30104 -1.23325,-5.72424 4.4879,-10.81444c2.97685,-2.64855 8.86845,-5.17478 14.06782,-6.66479z" fill="#c5c556"/><path d="M348.24373,149.85578c2.36548,1.02412 6.66066,4.06635 8.80018,5.5591c0.57984,5.11989 0.55256,10.90221 -0.55973,14.41306c-2.31279,7.30018 -5.2688,9.07573 -8.04206,8.50992c-2.77326,-0.56581 -4.31361,-3.2587 -2.00081,-10.55888c1.32572,-4.18453 0.44459,-12.72306 1.80242,-17.92321z" fill="#c5c556"/></g><g fill="#a1a147"><path d="M343.78276,176.42017l4.58024,-6.42139l-3.07086,7.23414z"/><path d="M336.72696,170.98192l5.55429,-5.55993l-4.23477,6.6543z"/></g></g><path d="M381.47076,198.78066c0,4.47134 -0.02574,8.8578 -0.30273,13.13144c-3.0692,1.85081 -6.10293,3.80092 -9.35836,5.36447c-13.74687,6.60247 -26.37637,9.8137 -41.55391,9.75409c-2.04025,-0.00801 -4.00496,-0.92791 -6.035,-1c-9.49596,-0.33722 -18.41728,-1.55535 -27.76701,-2.56462c-7.61897,-0.82244 -13.42435,-1.10918 -20.56606,-4.8205c-3.35739,-1.74473 -8.81412,-12.07892 -11.00897,-15.39686c-0.08126,-0.12283 -0.15511,-0.24898 -0.22313,-0.37784c-0.16782,-1.26846 -0.65264,-2.43689 -1.37226,-3.42309c-0.16532,-0.28262 -0.36223,-0.55562 -0.60551,-0.81343c-0.68594,-0.72691 -1.42055,-1.26031 -2.17864,-1.62427c0.49361,-15.44385 7.33252,-29.38532 13.33158,-41.54198c1.63286,-3.30887 3.36657,-6.46222 5.20551,-9.43302c-0.47273,4.73925 -0.09303,9.4996 -0.31332,14.30837c-0.18261,3.98628 -0.8116,8.03385 0.06323,12.00527c0.96866,4.39736 3.3103,8.05286 5.6547,11.76769c1.85011,2.93161 2.40225,6.16439 4.37051,9.05707c2.26856,3.33403 5.29028,6.02367 8.1268,8.84807c5.75996,4.11654 12.68144,7.21356 19.92734,7.25902c3.73216,0.02342 7.05922,-1.34862 10.66072,-1.6853c4.34438,-0.40612 7.95704,-0.71986 12.2597,-1.71265c4.74933,-1.09586 10.26811,-1.78212 14.32035,-4.80883c3.18867,-2.38169 4.42684,-6.82611 6.03125,-10.20358c0.63662,-1.34016 2.99709,-5.20581 3.64248,-6.28474c2.67518,-6.23169 5.66632,-12.79463 9.74999,-18.30632c4.28826,9.90673 7.94077,20.78087 7.94077,32.50152z" fill="#a1a147" stroke="none" stroke-width="0" stroke-linecap="butt"/><path d="M379.32937,224.48019c-5.85056,1.58549 -11.68462,3.24841 -17.69044,4.07259c-6.2635,0.85954 -12.85703,0.97979 -19.16816,0.97788c-18.12444,0 -36.29684,0.29725 -54.39003,-0.94392c-6.44216,-0.44193 -13.26455,-0.37832 -19.62637,-1.50886c-1.29705,-0.2305 -2.60618,-0.57188 -3.91676,-0.97027c-2.30876,-8.53464 -4.06683,-17.73551 -4.06683,-27.32695c0,-7.80452 1.66563,-15.23368 4.08984,-22.25182c0.42291,9.40375 1.87192,18.48299 6.82289,27.15883c1.56224,2.7376 2.76404,5.405 5.31979,7.41309c2.87096,2.25575 6.48038,3.73938 9.86299,4.97646c8.02346,3.96523 18.87756,3.8701 27.65449,3.8701c7.83002,0 15.80746,1.82393 23.59671,0.98609c7.98445,-0.85884 15.76645,-4.37359 22.85466,-7.91669c6.71186,-3.35593 12.28223,-7.80049 18.34899,-12.21176c0.81856,-0.59519 1.63677,-1.18527 2.44961,-1.77909c-0.00203,8.8968 -0.12247,17.45505 -2.14137,25.4543z" fill="#838339" stroke="none" stroke-width="0" stroke-linecap="butt"/><path d="M319.38535,229.59495v-91.2h1.02083v91.2z" fill-opacity="0.54118" fill="#2c2c13" stroke="none" stroke-width="0" stroke-linecap="butt"/><g stroke="none" stroke-linecap="butt"><g stroke-width="0"><path d="M276.06634,53.74149c19.01346,-8.71128 25.45122,1.18469 27.00717,4.58076c1.873,4.08806 4.52971,14.04188 -14.48375,22.75316c-9.98572,4.57511 -25.1767,9.14052 -37.65938,11.44792c-3.49281,-3.33001 -6.8187,-6.83969 -10.46894,-9.9923c-0.33299,-0.57189 -0.70177,-1.11461 -1.18967,-1.55118c-0.01416,-0.01267 -0.02839,-0.02524 -0.04269,-0.03771l0.00969,-0.00733l-1.12364,-1.48502c-0.02189,-0.02935 -0.04465,-0.05803 -0.06826,-0.08598c9.79125,-9.04103 26.00001,-20.11544 38.01947,-25.62233z" fill="#c5c556"/><path d="" fill="#c5c556"/><path d="M244.56161,82.73319c3.26844,-0.41676 6.80474,-0.72332 9.96838,-1.57986c2.99697,-0.81142 5.87321,-2.07458 8.94667,-2.81557c4.25448,-1.94926 8.77253,-2.70133 13.16751,-4.35138c9.31188,-3.49607 18.09854,-8.3842 27.04694,-12.74015c1.1596,4.89741 0.11272,12.85865 -15.44735,19.98771c-9.872,4.52299 -24.83136,9.03653 -37.23184,11.3682c-0.01358,-0.01405 -0.02124,-0.02135 -0.02124,-0.02135c-3.28301,-3.1263 -6.41623,-6.41388 -9.80692,-9.41776c1.12333,-0.14174 2.24878,-0.28585 3.37785,-0.42982z" fill="#a1a147"/><path d="" fill="#a1a147"/><path d="M250.42772,89.32982c5.03701,-1.46979 10.04293,-3.0247 15.05186,-4.79303c1.50099,-0.52991 2.79199,-1.60484 4.33086,-2.01183c2.56272,-0.67776 5.12899,-0.67959 7.60818,-1.80054c3.03397,-0.2997 5.08936,-1.35104 7.88351,-2.33616c3.36505,-1.1864 6.52425,-2.14478 9.80442,-3.64763c1.76073,-0.8067 3.86384,-1.52184 5.78677,-2.40351c-2.35066,2.92715 -6.28666,5.98155 -12.64956,8.89681c-9.872,4.52299 -24.83136,9.03653 -37.23184,11.3682c-0.01358,-0.01405 -0.02124,-0.02135 -0.02124,-0.02135c-0.9625,-0.91656 -1.91213,-1.84698 -2.85914,-2.78005c0.7625,-0.09653 1.52724,-0.24655 2.29617,-0.47093z" fill="#838339"/><path d="" fill="#838339"/><path d="M229.56321,91.58341c-0.97431,-3.1494 5.47616,-10.10644 14.54745,-17.4286c2.40387,6.09769 4.82785,12.18835 7.19797,18.29805c-11.4601,2.15068 -20.72364,2.43337 -21.74542,-0.86946z" fill="#2b2b13"/></g><g stroke-width="0"><path d="M358.82005,88.26616c-16.52186,-12.82288 -11.66238,-21.90704 -8.90534,-25.45938c2.29034,-2.95103 10.81778,-11.11547 27.33964,1.70741c10.11183,7.84795 22.85497,21.67333 30.43336,32.56264c-0.42919,0.52171 -0.76651,1.1791 -1.18064,1.6987c-1.28042,1.6065 -2.50946,3.26804 -3.72202,4.94344c-2.59834,2.04033 -5.40904,3.74995 -8.3753,4.65234c0,0 -0.14941,0.04651 -0.34646,0.15615c-11.86633,-5.06681 -26.26731,-13.29497 -35.24322,-20.26132z" fill="#c5c556"/><path d="M359.12071,88.49951c-13.52101,-10.49387 -12.72227,-18.48382 -10.47497,-22.98703c7.71729,6.28424 15.15557,13.04968 23.42308,18.57976c3.90206,2.61006 8.12899,4.37396 11.82595,7.24323c2.82305,1.42325 5.33485,3.30983 8.06735,4.78418c2.88445,1.55634 6.25732,2.66232 9.34423,3.81442c1.11795,0.41725 2.232,0.83374 3.34447,1.24705c-0.62924,0.83878 -1.24965,1.68654 -1.8658,2.53787c-2.59834,2.04033 -5.40904,3.74995 -8.3753,4.65234c0,0 -0.2036,0.06339 -0.44891,0.21658c-11.7879,-5.07964 -25.9656,-13.20074 -34.84012,-20.0884z" fill="#a1a147"/><path d="M359.12071,88.49951c-5.52908,-4.29121 -8.66361,-8.16371 -10.28373,-11.5503c1.6708,1.29747 3.55504,2.47396 5.08504,3.66141c2.85032,2.21218 5.7072,3.86665 8.71242,5.79012c2.49537,1.59714 4.25638,3.09006 7.14175,4.07465c2.15771,1.65746 4.65577,2.24526 6.996,3.49031c1.40527,0.74764 2.41671,2.08897 3.75703,2.94762c4.47278,2.86542 8.99138,5.52235 13.55967,8.10352c1.39071,0.78578 2.83277,1.27991 4.30326,1.64683c-1.29101,0.70867 -2.62031,1.29327 -3.98243,1.70765c0,0 -0.2036,0.06339 -0.44891,0.21658c-11.7879,-5.07964 -25.9656,-13.20074 -34.84012,-20.0884z" fill="#838339"/><path d="M413.88752,111.97535c-1.74899,2.98224 -10.70322,0.59168 -21.36942,-4.11911c3.70267,-5.40705 7.45341,-10.78327 11.18619,-16.17092c7.15959,9.20014 11.85097,17.44635 10.18324,20.29004z" fill="#2b2b13"/></g><path d="M381.1848,103.28158c-1.42067,19.97499 -11.65278,41.91419 -40.27962,43.15827c-10.78687,0.46879 -20.6024,-2.24238 -20.6024,-2.24238c0,0 -8.74276,3.39313 -20.88177,0.15136c-22.92673,-6.12264 -35.13182,-27.68658 -33.60701,-49.12571c1.91656,-26.94739 29.29688,-46.98862 61.15566,-44.76334c31.85877,2.22528 56.13171,25.87441 54.21515,52.8218z" fill="#c5c556" stroke-width="0"/><path d="M356.04114,101.34861c-0.24562,5.22286 -17.41429,5.85314 -33.86952,4.88436c-15.27367,-0.89921 -29.9397,-3.02658 -29.71172,-7.87443c0.27739,-5.89845 2.28406,-10.90999 10.07569,-13.01246c5.51139,-1.48718 15.51449,-0.99316 22.78848,-0.65109c9.9514,0.46799 19.73026,2.39107 25.30624,5.91505c4.26185,2.69345 5.61597,6.37584 5.4108,10.73857z" fill="#9b9b44" stroke-width="0"/><path d="M381.1848,103.28157c-1.42067,19.97499 -11.65278,41.9142 -40.27962,43.15828c-10.78687,0.46879 -20.60239,-2.24238 -20.60239,-2.24238c0,0 -8.74276,3.39312 -20.88178,0.15135c-22.92673,-6.12264 -35.13182,-27.68658 -33.60701,-49.12571c0.74876,-10.52771 5.384,-20.00133 12.6544,-27.50499c-0.63635,2.71553 -1.15399,5.47146 -1.45669,8.41952c-0.54854,5.34221 -0.69676,11.70431 0.18834,17.11172c1.14113,6.97171 5.06737,12.84488 7.05261,19.46819c1.29469,4.31944 1.59333,9.66414 5.83893,12.27151c4.62469,2.84019 10.44795,4.44091 15.88134,4.58222c3.92317,0.10203 7.79058,-1.31784 11.72007,-0.62989c2.76097,0.48337 5.54669,2.92996 8.35329,3.6955c2.51176,0.68511 6.1288,0.62159 8.29217,0.6942c12.01957,0.40338 26.38837,-1.6906 31.39628,-14.48512c2.50162,-6.39129 2.388,-13.01816 4.35906,-19.48998c1.44765,-4.75325 5.41423,-10.83551 7.52224,-15.88418c0.02866,-0.06864 0.05746,-0.13721 0.08638,-0.20574c2.71076,6.23741 3.98025,13.01516 3.48238,20.01549z" fill="#a1a147" stroke-width="0"/><path d="M381.1848,103.28156c-1.42067,19.97499 -11.65278,41.9142 -40.27962,43.15828c-10.78687,0.46879 -20.60239,-2.24239 -20.60239,-2.24239c0,0 -8.74276,3.39312 -20.88178,0.15135c-22.92673,-6.12264 -35.13182,-27.68658 -33.60701,-49.12571c0.45046,-6.33355 2.30757,-12.28559 5.29884,-17.65671c0.27238,2.2272 0.51367,4.45365 0.60929,6.69119c0.09023,2.11139 -1.35158,4.26453 -1.50245,6.3823c-0.22322,3.13344 -0.56089,7.11634 -0.35537,10.5355c0.23732,3.94818 2.53016,7.772 4.11824,11.30103c5.56011,12.3557 10.894,23.08806 25.60486,24.93575c7.20297,0.90469 14.36198,-0.00376 21.682,0.35397c1.2694,0.06203 3.00245,1.22448 4.37816,1.4082c6.0004,0.80128 12.31358,1.35413 18.31096,0.64573c9.39591,-1.10984 19.47987,-10.10163 26.04386,-16.34465c2.19666,-2.08924 4.41296,-4.06844 5.71937,-6.85391c3.16242,-6.74275 3.68027,-14.39379 5.23185,-21.62223c0.34651,2.71146 0.43054,5.47903 0.23117,8.28228z" fill="#838339" stroke-width="0"/><path d="M312.83916,101.15292c0.04555,5.62832 -9.30775,13.39673 -21.08688,11.58512c-10.05791,-1.5469 -17.10247,-6.28166 -16.70049,-14.82945c0.40198,-8.54778 9.93522,-13.36722 20.10015,-12.88919c10.16494,0.47803 17.64167,10.50392 17.68722,16.13353z" fill="#9b9b44" stroke-width="0"/><path d="M355.52128,89.71877c9.72854,0.45751 18.37937,5.90594 17.99464,14.08676c-0.38472,8.18082 -7.52237,12.05959 -17.24493,12.63016c-11.38639,0.66822 -19.6009,-7.57398 -19.05198,-12.9328c0.54905,-5.36005 8.57373,-14.24163 18.30227,-13.78412z" fill="#9b9b44" stroke-width="0"/><path d="M309.64276,100.48914c0.03919,4.84245 -8.00814,11.52616 -18.14254,9.96749c-8.65352,-1.3309 -14.71446,-5.40456 -14.36861,-12.75882c0.34585,-7.35426 8.54797,-11.50077 17.29358,-11.08949c8.7456,0.41128 15.17838,9.03727 15.21756,13.88082z" fill="#000000" stroke-width="0"/><path d="M355.71761,91.11385c8.7456,0.41128 16.52239,5.30924 16.17653,12.6635c-0.34585,7.35426 -6.76233,10.84114 -15.50258,11.35406c-10.23595,0.60069 -17.62051,-6.80874 -17.12704,-11.62613c0.49358,-4.81849 7.70747,-12.80271 16.45308,-12.39143z" fill="#000000" stroke-width="0"/><path d="M349.73355,126.18003c0,0 -6.7523,11.37013 -27.1869,9.7225c-21.36091,-1.72232 -28.01447,-13.22021 -28.01447,-13.22021c0,0 15.59273,5.42225 28.66145,6.03684c13.06872,0.61459 26.53993,-2.53914 26.53993,-2.53914z" fill="#000000" stroke-width="0"/><path d="M353.97388,124.2153c-0.12619,2.68331 -16.80358,5.16115 -31.85994,4.45309c-15.05635,-0.70806 -30.14259,-5.2207 -30.0164,-7.90401c0.12619,-2.68331 15.54619,-1.43304 30.60254,-0.72498c15.05635,0.70806 31.39998,1.49259 31.27379,4.1759z" fill="#a1a147" stroke-width="0"/><path d="M357.12606,122.37974c-0.12619,2.68331 -19.64888,4.30597 -34.70524,3.5979c-15.05636,-0.70806 -32.52421,-4.43098 -32.39802,-7.11429c0.12619,-2.68331 17.9278,-2.22277 32.98417,-1.5147c15.05635,0.70806 34.24528,2.34778 34.11909,5.03109z" fill="#c5c556" stroke-width="0"/><path d="M288.48166,120.47409c-0.20253,4.30654 -3.9535,7.62902 -8.37803,7.42095c-4.42454,-0.20807 -7.84716,-3.8679 -7.64463,-8.17445c0.20253,-4.30654 3.9535,-7.62902 8.37804,-7.42095c4.42454,0.20807 7.84715,3.86789 7.64462,8.17445z" fill-opacity="0.54118" fill="#2c2c13" stroke-width="0"/><path d="M372.13794,126.09146c-0.20253,4.30654 -3.9535,7.62901 -8.37803,7.42094c-4.42454,-0.20807 -7.84715,-3.8679 -7.64462,-8.17444c0.20253,-4.30654 3.9535,-7.62902 8.37803,-7.42095c4.42454,0.20807 7.84715,3.8679 7.64462,8.17445z" fill-opacity="0.54118" fill="#2c2c13" stroke-width="0"/><path d="M323.2589,104.50449c0.40388,-8.58815 0.17988,-22.68472 0.47252,-34.49904c0.28057,-11.32672 1.0863,-20.56164 1.0863,-20.56164l0.71978,0.03385c0,0 -0.73272,9.40293 -0.94071,20.87062c-0.21248,11.71548 0.09552,25.58913 -0.3048,34.10175c-0.32529,6.91711 -0.98474,16.33809 -1.68028,24.32704c-0.12986,0.01287 -0.87543,-0.05443 -0.92891,-0.05219c0.62071,-7.96508 1.24966,-17.27944 1.57608,-24.22039z" fill-opacity="0.54118" fill="#2c2c13" stroke-width="0"/><path d="M320.34956,144.45575c0,0 0.17484,-3.60845 0.59204,-8.7126c0.2358,0.07496 0.73362,0.16799 1.02852,0.17228c-0.46561,5.05822 -0.90078,8.57416 -0.90078,8.57416z" fill-opacity="0.54118" fill="#2c2c13" stroke-width="0"/><path d="M332.39894,111.29792c-0.12152,2.58393 -6.00055,5.60679 -8.90824,5.35211c-3.097,-0.27127 -8.48817,-3.58057 -8.36666,-6.1645c0.12152,-2.58393 17.39641,-1.77154 17.2749,0.81239z" fill="#000000" stroke-width="0"/><path d="M278.26258,93.30945c0.05832,-0.4999 0.13026,-0.97689 0.27113,-1.38267c1.06388,-3.06474 4.88055,-4.20813 7.63181,-4.61256c1.69714,-0.59468 3.40938,-1.52854 5.20307,-1.79206c1.73954,-0.25557 3.41908,0.62864 5.01921,1.10996c2.36693,0.71196 4.96582,1.74701 6.92142,3.36615c0.95677,1.06791 2.33333,1.66795 3.24917,2.8116c1.1296,1.41058 1.40858,3.03207 2.30654,4.52277c0.51695,0.85819 1.27444,1.07303 1.44522,2.20425c0.3483,2.30691 -0.99748,4.09474 -2.14467,5.81772c-2.13181,1.95502 -4.9192,3.7692 -7.56403,4.90386c-2.76655,1.18688 -6.36102,0.63402 -9.27318,0.49707c-6.42533,-0.30217 -11.9488,-3.76179 -14.93201,-9.34588c-0.38172,-1.34388 -0.77731,-3.0947 -0.41858,-4.49726c0.31521,-1.23241 1.37443,-1.86575 1.79747,-2.99936zM277.27993,98.10192c-0.01392,0.93306 0.22635,1.957 0.45252,2.76768c2.74489,5.05832 7.80422,8.1708 13.66354,8.44635c2.61982,0.1232 6.18891,0.7494 8.65879,-0.39095c2.4314,-1.12257 5.008,-2.69993 7.01769,-4.50971c0.95427,-1.43323 2.0095,-2.74082 1.81129,-4.67266c-0.07491,-0.73017 -0.91228,-1.09774 -1.2579,-1.67405c-0.53124,-0.8858 -0.66608,-2.07556 -1.17076,-2.95843c-1.01156,-1.76963 -2.80793,-2.62511 -4.14022,-4.06871c-1.78469,-1.47039 -4.19228,-2.38353 -6.33978,-3.02852c-1.35192,-0.40605 -2.92234,-1.29787 -4.40074,-1.06436c-1.73819,0.27456 -3.40812,1.19641 -5.06352,1.76485c-0.87179,0.13533 -2.12537,-0.02352 -2.8997,0.37813c-0.69301,0.35947 -1.10189,1.07675 -1.75712,1.47777c-0.79967,0.48943 -1.58246,0.7838 -1.95102,1.80698c-0.14368,0.39885 -0.24185,0.80612 -0.32157,1.21513c0.02942,0.17671 -0.02586,0.33838 -0.08107,0.44746c-0.23827,1.39691 -0.37617,2.7862 -1.48704,3.90429c0,0 -0.34556,0.31451 -0.73339,0.15876z" fill="#000000" stroke-width="0.5"/><path d="M341.89156,99.19077c-0.76725,1.55026 -1.30748,3.63773 -1.49275,4.99838c-0.05039,0.37007 -0.44988,1.42968 -0.2805,1.8038c0.66922,1.47825 1.54041,2.75523 2.5329,4.064c1.48626,1.30148 2.92055,1.59866 4.72901,2.04906c3.16232,0.78758 7.16524,2.96972 10.38467,1.2383c3.46539,-0.35958 8.59888,-1.49421 11.13943,-4.03009c0.91442,-0.91273 0.88742,-2.69639 1.82774,-3.83454c1.47358,-3.27952 -0.00817,-5.76599 -1.85566,-8.38143c-0.48293,-0.68367 -1.00571,-1.75331 -1.72455,-2.21766c-0.92182,-0.59547 -1.76901,-0.67379 -2.78597,-1.05738c-4.90559,-1.21281 -10.81429,-3.12853 -15.57656,-0.24307c-2.34197,1.25674 -5.68599,3.21986 -6.80044,5.49127zM341.80688,96.79379c1.62134,-1.82641 4.31312,-3.41177 6.26986,-4.46629c5.16631,-3.08045 11.39072,-1.21837 16.72408,0.12175c1.10527,0.4391 2.15135,0.55137 3.16546,1.24237c0.87928,0.59912 1.49057,1.72694 2.08962,2.57854c2.19954,3.12681 3.65043,6.16193 1.89797,9.97385c-1.05433,1.27616 -0.93072,2.91514 -2.00636,4.0646c-0.74609,0.79728 -1.36708,0.9094 -2.28368,1.35212c-3.03954,1.4681 -6.0377,2.76806 -9.48108,3.06288c-1.60156,0.86132 -3.36782,0.61448 -5.09121,0.37574c-3.74799,-0.51921 -8.63487,-1.53329 -11.49639,-4.06169c-1.05518,-1.39771 -2.2484,-2.9073 -2.83275,-4.55633c-0.26138,-0.73761 0.10788,-1.77193 0.21052,-2.50137c0.18092,-1.28581 0.62353,-3.0023 1.24774,-4.52241c-0.11889,-0.35658 0.14756,-0.6791 0.14756,-0.6791l0.36191,-0.43093c0.2707,-0.52515 0.56475,-0.99879 0.87775,-1.38635c0,0 0.07417,-0.08978 0.19898,-0.16735z" fill="#000000" stroke-width="0.5"/><path d="M347.97175,127.30586c0.53984,0.02539 0.51446,0.56522 0.51446,0.56522l-0.06158,0.48658c-0.41129,0.72947 -1.34111,1.06829 -1.75837,1.79435c-2.59232,1.82245 -5.20604,3.93701 -8.23926,5.10392c-1.40756,0.5415 -2.87203,0.05374 -4.29918,-0.01935c-2.06295,-0.51445 -3.31204,0.59628 -5.2546,0.76139c-0.95458,0.08114 -1.93586,-0.18288 -2.89198,-0.13458c-1.79282,0.09055 -3.31416,0.73129 -5.2558,0.60665c-2.37654,-1.29328 -5.05625,-0.83903 -7.57559,-1.51046c-2.16125,-0.57599 -4.31858,-1.50934 -6.47646,-2.16974c-2.27513,-0.10699 -4.8919,-2.07307 -6.47298,-3.61232c-0.45074,-0.43882 -0.55817,-1.09252 -1.04126,-1.45595c-0.99126,-0.74576 -1.8447,-1.25941 -2.70385,-2.20336c0,0 -0.36378,-0.39968 0.0359,-0.76346c0.39968,-0.36378 0.76345,0.0359 0.76345,0.0359c0.82582,0.90732 1.65832,1.33903 2.57698,2.08472c2.13023,1.72912 3.8417,4.69942 7.02406,4.84908c2.22608,0.65808 4.3814,1.57809 6.59162,2.19599c2.4702,0.69058 5.25818,0.16909 7.57559,1.51046c1.81669,0.04136 3.19606,-0.52148 4.90246,-0.64695c0.94776,-0.06969 1.9193,0.19978 2.86633,0.13622c2.01648,-0.13534 3.3119,-1.29694 5.49304,-0.75302c1.22651,0.0515 2.57065,0.54779 3.77598,0.07185c1.01154,-0.39941 1.57758,-0.919 2.392,-1.53971c1.10759,-0.84416 3.03802,-0.93573 4.08823,-1.9337c0.47641,-0.45272 0.71507,-0.94581 1.3289,-1.34437c0.46163,-0.84839 1.42144,-0.88232 1.57117,-1.51169l-0.0345,-0.08924c0,0 0.02539,-0.53984 0.56523,-0.51446z" fill="#000000" stroke-width="0.5"/></g></g></g></svg>