<svg version="1.1" xmlns="http://www.w3.org/2000/svg" xmlns:xlink="http://www.w3.org/1999/xlink" width="190.48552" height="316.37251" viewBox="0,0,190.48552,316.37251"><g transform="translate(-221.85076,-18.54412)"><g stroke-miterlimit="10"><path d="M263.40898,324.61251v-293.22501h113.18203v293.22501z" fill-opacity="0.01" fill="#000000" stroke="none" stroke-width="0" stroke-linecap="butt"/><path d="M273.86075,104.68474c3.19464,-3.56683 3.7424,-5.76024 3.7424,-5.76024c0,0 -2.0416,0.31079 -5.98397,-0.55078c-4.0255,-0.87975 -6.5489,-3.72284 -6.5489,-3.72284c0,0 3.99434,-2.65296 6.16061,-4.887c2.90673,-2.99767 4.52082,-6.6707 4.52082,-6.6707c0,0 -2.46674,1.0657 -4.56377,1.20415c-4.42195,0.29198 -6.3202,-1.78645 -6.3202,-1.78645c0,0 14.24449,-9.62262 17.65726,-27.54206c5.13704,-26.97321 40.54607,-26.13996 49.76621,-14.25559c12.5382,16.1612 15.87221,38.80871 6.64745,54.12635c-15.07868,25.03807 -18.80366,23.87443 -36.42322,26.48325c-24.8852,3.68457 -35.27097,-11.78992 -35.27097,-11.78992c0,0 3.46565,-1.33046 6.61627,-4.84815z" fill="#ecec68" stroke="#0d0d00" stroke-width="1.75" stroke-linecap="butt"/><g stroke-linecap="butt"><path d="M294.33641,147.92155l-12.03157,-3.20157l5.44294,-18.92307l14.62247,12.74541z" fill="#0d0d00" stroke="none" stroke-width="0"/><path d="M320.51174,154.69723c4.7116,15.82163 0.37598,38.03176 -12.0309,41.72648c-12.40688,3.69472 -28.18678,-12.52513 -32.89838,-28.34673c-4.71162,-15.82159 3.42924,-25.25368 15.83613,-28.94839c12.40687,-3.69471 24.3815,-0.25292 29.09312,15.56868z" fill="#ecec68" stroke="#0d0d00" stroke-width="1.75"/><path d="M280.31088,177.551l-4.181,-7.07986l44.14877,-13.07236l1.87006,7.6931z" fill-opacity="0.70196" fill="#0d0d00" stroke="none" stroke-width="0"/><path d="M313.28812,142.38046l5.34928,7.15335l-44.37235,12.9895l0.55279,-8.09363z" fill-opacity="0.70196" fill="#0d0d00" stroke="none" stroke-width="0"/><path d="M290.38741,190.25657l-5.9555,-4.97201l37.61451,-12.73371l-1.49689,8.7236z" fill-opacity="0.70196" fill="#0d0d00" stroke="none" stroke-width="0"/></g><path d="M293.81685,143.44975c-0.23048,0.29614 -14.19278,25.55786 -30.67034,29.36451c-14.23454,3.28843 -9.92133,-11.75953 -9.92133,-11.75953c0,0 -28.84976,4.09497 -30.49961,-7.70156c-2.1668,-15.49247 24.31114,-19.25458 45.868,-23.20475c12.90078,-2.36398 34.89236,-6.486 34.89236,-6.486c0,0 -5.45652,14.37493 -9.66906,19.78732z" fill-opacity="0.4" fill="#f2d849" stroke="#0d0d00" stroke-width="1.5" stroke-linecap="butt"/><path d="M341.79071,145.82092c-3.5292,-5.88083 -7.21263,-20.80882 -7.21263,-20.80882c0,0 21.33411,6.74362 33.85571,10.64591c20.92329,6.52061 46.75441,13.44791 42.73537,28.56609c-3.06021,11.51152 -31.20572,3.96781 -31.20572,3.96781c0,0 2.4673,15.45825 -11.26688,10.47745c-15.89834,-5.76569 -26.7128,-32.52664 -26.90588,-32.8484z" fill-opacity="0.4" fill="#f2d849" stroke="#0d0d00" stroke-width="1.5" stroke-linecap="butt"/><g stroke-linecap="butt"><path d="" fill="#0d0d00" stroke="none" stroke-width="0"/><path d="" fill="#ecec68" stroke="#0d0d00" stroke-width="1.75"/><path d="" fill-opacity="0.70196" fill="#0d0d00" stroke="none" stroke-width="0"/><path d="" fill-opacity="0.70196" fill="#0d0d00" stroke="none" stroke-width="0"/><path d="" fill-opacity="0.70196" fill="#0d0d00" stroke="none" stroke-width="0"/></g><path d="" fill="#ecec68" stroke="#0d0d00" stroke-width="1.75" stroke-linecap="butt"/><path d="" fill="#6e6e30" stroke="#0d0d00" stroke-width="1.35" stroke-linecap="butt"/><g stroke-linecap="butt"><path d="" fill="#ecec68" stroke="#0d0d00" stroke-width="1.75"/><path d="" fill="#ecec68" stroke="#0d0d00" stroke-width="1.75"/><path d="" fill="#ecec68" stroke="#0d0d00" stroke-width="1.75"/><path d="" fill="#ecec68" stroke="#0d0d00" stroke-width="1.75"/><path d="" fill="#ecec68" stroke="#0d0d00" stroke-width="1.75"/><path d="" fill="#ecec68" stroke="none" stroke-width="0"/><path d="" fill="#ecec68" stroke="none" stroke-width="0"/><path d="" fill-opacity="0.70196" fill="#0d0d00" stroke="none" stroke-width="0"/><path d="" fill-opacity="0.70196" fill="#0d0d00" stroke="none" stroke-width="0"/><path d="" fill-opacity="0.70196" fill="#0d0d00" stroke="none" stroke-width="0"/><path d="" fill="#9b9b44" stroke="#0d0d00" stroke-width="1.75"/></g><g stroke-linecap="butt"><path d="" fill="#ecec68" stroke="#0d0d00" stroke-width="1.75"/><path d="" fill="#ecec68" stroke="#0d0d00" stroke-width="1.75"/><path d="" fill="#ecec68" stroke="#0d0d00" stroke-width="1.75"/><path d="" fill="#ecec68" stroke="#0d0d00" stroke-width="1.75"/><path d="" fill="#ecec68" stroke="#0d0d00" stroke-width="1.75"/><path d="" fill="#ecec68" stroke="none" stroke-width="0"/><path d="" fill="#ecec68" stroke="none" stroke-width="0"/><path d="" fill-opacity="0.70196" fill="#0d0d00" stroke="none" stroke-width="0"/><path d="" fill-opacity="0.70196" fill="#0d0d00" stroke="none" stroke-width="0"/><path d="" fill-opacity="0.70196" fill="#0d0d00" stroke="none" stroke-width="0"/><path d="" fill="#9b9b44" stroke="#0d0d00" stroke-width="1.75"/></g><g stroke="#0d0d00" stroke-linecap="butt"><path d="" fill="#494920" stroke-width="1.75"/><path d="" fill="#080d00" stroke-width="1.5"/></g><g stroke="#0d0d00" stroke-linecap="butt"><path d="" fill="#494920" stroke-width="1.75"/><path d="" fill="#ffffd5" stroke-width="1.5"/><path d="" fill="#0d0d00" stroke-width="1.5"/><path d="" fill="#080d00" stroke-width="1.5"/></g><path d="" fill="#ffffd5" stroke="#0d0d00" stroke-width="1.5" stroke-linecap="butt"/><path d="" fill="#0d0d00" stroke="#0d0d00" stroke-width="1.5" stroke-linecap="butt"/><path d="" fill="#494920" stroke="none" stroke-width="0" stroke-linecap="butt"/><path d="" fill="none" stroke="#0d0d00" stroke-width="1.5" stroke-linecap="round"/><path d="" fill="#9b9b44" stroke="#0d0d00" stroke-width="1.75" stroke-linecap="butt"/><path d="" fill="#0d0d00" stroke="none" stroke-width="0" stroke-linecap="butt"/><path d="" fill="#ffffd5" stroke="#0d0d00" stroke-width="1.5" stroke-linecap="butt"/><path d="" fill="#9b9b44" stroke="#0d0d00" stroke-width="1.5" stroke-linecap="butt"/><path d="" fill="#9b9b44" stroke="#0d0d00" stroke-width="1.5" stroke-linecap="butt"/><path d="" fill="#9b9b44" stroke="none" stroke-width="0" stroke-linecap="butt"/><path d="" fill="#9b9b44" stroke="none" stroke-width="0" stroke-linecap="butt"/><path d="" fill="#9b9b44" stroke="none" stroke-width="0" stroke-linecap="butt"/><path d="" fill="none" stroke="#0d0d00" stroke-width="1" stroke-linecap="round"/><path d="" fill="#ffffd5" stroke="#0d0d00" stroke-width="1" stroke-linecap="butt"/><path d="" fill="#ffffd5" stroke="#0d0d00" stroke-width="1" stroke-linecap="butt"/><path d="" fill="#c1c155" stroke="#0d0d00" stroke-width="1.5" stroke-linecap="butt"/><path d="" fill="#c1c155" stroke="#0d0d00" stroke-width="1.5" stroke-linecap="butt"/><path d="" fill="#ecec68" stroke="#0d0d00" stroke-width="1.5" stroke-linecap="butt"/><path d="" fill="#0d0d00" stroke="none" stroke-width="NaN" stroke-linecap="butt"/><path d="" fill="#0d0d00" stroke="none" stroke-width="NaN" stroke-linecap="butt"/><path d="" fill="#ecec68" stroke="#0d0d00" stroke-width="1.75" stroke-linecap="butt"/><path d="" fill="#ecec68" stroke="#0d0d00" stroke-width="1.75" stroke-linecap="butt"/><path d="" fill="#ecec68" stroke="#0d0d00" stroke-width="1.75" stroke-linecap="butt"/><path d="" fill="#ecec68" stroke="#0d0d00" stroke-width="1.75" stroke-linecap="butt"/><path d="" fill="#ecec68" stroke="#0d0d00" stroke-width="1.75" stroke-linecap="butt"/><path d="" fill="#ecec68" stroke="none" stroke-width="0" stroke-linecap="butt"/><path d="" fill="#ecec68" stroke="none" stroke-width="0" stroke-linecap="butt"/><g stroke="#0d0d00" stroke-width="1" stroke-linecap="butt"><g fill="#c5c556"><path d=""/><path d=""/></g><g fill="#c5c556"><path d=""/><path d=""/></g><path d="" fill="#ffffd5"/></g><path d="" fill="none" stroke="#0d0d00" stroke-width="1" stroke-linecap="round"/><path d="" fill="#c4c44a" stroke="none" stroke-width="0" stroke-linecap="butt"/><g stroke-linecap="butt"><path d="" fill="#a5a549" stroke="none" stroke-width="0"/><path d="" fill="#0d0d00" stroke="none" stroke-width="0"/><path d="" fill="#0d0d00" stroke="#0d0d00" stroke-width="1"/><g fill="#0d0d00" stroke="none" stroke-width="0"><path d=""/><path d=""/><path d=""/></g><g stroke="none" stroke-width="0"><path d="" fill="#6e6e30"/><path d="" fill="#6e6e30"/><path d="" fill="#6e6e30"/><path d="" fill="#6e6e30"/><path d="" fill="#6e6e30"/><path d="" fill="#6e6e30"/><path d="" fill="#ffffff"/></g></g><g stroke-linecap="butt"><path d="" fill="#a5a549" stroke="none" stroke-width="0"/><path d="" fill="#0d0d00" stroke="none" stroke-width="0"/><path d="" fill="#0d0d00" stroke="#080d00" stroke-width="1"/><g fill="#0d0d00" stroke="none" stroke-width="0"><path d=""/><path d=""/><path d=""/></g><g stroke="none" stroke-width="0"><path d="" fill="#6e6e30"/><path d="" fill="#6e6e30"/><path d="" fill="#6e6e30"/><path d="" fill="#6e6e30"/><path d="" fill="#6e6e30"/><path d="" fill="#6e6e30"/><path d="" fill="#ffffff"/></g></g><path d="" fill="#ecec68" stroke="#0d0d00" stroke-width="1.75" stroke-linecap="round"/><g stroke-linecap="butt"><path d="M331.99345,203.25884c0,0 0.61792,-15.95897 1.44184,-33.69064c1.11331,-23.95969 -6.78845,-61.08028 17.80803,-47.82947c6.45044,3.47503 9.2973,15.86992 8.68694,27.11663c-0.60672,11.17965 -3.95534,21.65151 -3.95534,21.65151c0,0 -1.03554,11.41229 -1.94761,17.22205c-0.94534,6.02159 -4.32441,17.86505 -4.32441,17.86505z" fill="#ecec68" stroke="#0d0d00" stroke-width="1.75"/><path d="M341.74897,201.96653c4.83182,-0.61416 9.83975,3.53775 12.07236,8.59304c2.43251,5.50793 0.10719,13.49741 -2.33448,15.64385c-3.35379,2.94825 -9.96418,-1.32562 -9.96418,-1.32562c0,0 -5.03776,-22.24218 0.22629,-22.91126z" fill="#ecec68" stroke="#0d0d00" stroke-width="1.75"/><path d="M350.88481,214.46922c0.0092,0.14872 -0.0909,15.61358 -6.49828,15.21171c-8.55136,-0.53635 -8.77461,-8.1139 -8.77461,-8.1139c0,0 3.59706,-16.7253 9.77533,-16.77456c5.67098,-0.04522 5.49756,9.67676 5.49756,9.67676z" fill="#ecec68" stroke="#0d0d00" stroke-width="1.75"/><path d="M342.82584,202.32351c4.8708,0.63205 2.70503,9.93469 2.70503,9.93469c-0.02297,0.1437 -2.29401,13.51812 -8.06113,14.83683c-8.02372,1.83469 -6.50415,-9.84909 -6.50415,-9.84909c0,0 6.55374,-15.61101 11.86026,-14.92244z" fill="#ecec68" stroke="#0d0d00" stroke-width="1.75"/><path d="M344.64567,203.21804c1.64906,1.41437 -7.60872,4.12955 -10.23485,8.17929c-2.98107,3.8236 0.27816,9.07178 0.27816,9.07178c0,0 -14.05038,-0.70397 -6.74709,-14.53779c3.47898,-6.58983 13.93301,-5.08977 16.70377,-2.71332z" fill="#ecec68" stroke="#0d0d00" stroke-width="1.75"/><path d="M332.41762,206.29328l1.3589,-12.02396l16.98579,1.34427l-2.49151,14.77515z" fill="#ecec68" stroke="none" stroke-width="0"/><path d="M352.43802,220.68554c0,0 -2.0645,-1.74745 -5.36046,-1.98373c-2.62354,-0.18807 -6.0307,0.43913 -7.73338,-0.04737c-4.12422,-1.17841 -10.42936,-6.3704 -10.42936,-6.3704l7.42425,-11.51529c0,0 7.04508,-1.44976 14.07705,6.32741c3.40707,3.7681 2.02189,13.58938 2.02189,13.58938z" fill="#ecec68" stroke="none" stroke-width="0"/><path d="M345.66675,154.83054c-7.67151,-0.62088 -12.82296,-3.83769 -12.82296,-3.83769l-0.13653,-9.09891l26.65807,3.57538l-0.37039,7.82016c0,0 -2.49004,2.4182 -13.32818,1.54104z" fill-opacity="0.70196" fill="#0d0d00" stroke="none" stroke-width="0"/><path d="M344.04731,174.7924c-8.43265,-1.155 -10.95197,-3.38496 -10.95197,-3.38496l0.03686,-9.07565c0,0 3.4088,3.25748 11.17963,4.32448c8.61583,1.18304 12.26064,-1.2074 12.26064,-1.2074l-0.76017,8.1982c0,0 -2.46095,2.41967 -11.76499,1.14532z" fill-opacity="0.70196" fill="#0d0d00" stroke="none" stroke-width="0"/><path d="M342.39601,198.06536c-7.72309,-1.05983 -10.0893,-2.66389 -10.0893,-2.66389l0.13439,-9.06256c0,0 3.17081,2.62018 10.28774,3.59948c7.89083,1.08579 10.95202,-0.7508 10.95202,-0.7508l-1.00332,8.13886c0,0 -1.76036,1.90827 -10.28152,0.73891z" fill-opacity="0.70196" fill="#0d0d00" stroke="none" stroke-width="0"/><path d="M345.78918,150.88918c-8.15835,-0.4529 -12.61117,-2.49331 -12.63242,-3.33103c-0.30605,-12.05863 -2.79362,-23.1901 2.02436,-27.14012c2.73122,-2.23921 9.67572,-2.11989 16.06222,1.32069c5.3182,2.86508 10.37984,15.11445 8.63094,27.18874c-0.03058,0.21111 -2.3514,2.61311 -14.08509,1.96173z" fill="#9b9b44" stroke="#0d0d00" stroke-width="1.75"/></g><g stroke-linecap="butt"><path d="M288.20348,204.72796c0,0 -2.73099,-12.00948 -3.34797,-18.0735c-0.59526,-5.85071 -1.00959,-17.30239 -1.00959,-17.30239c0,0 -2.77508,-10.63824 -2.77385,-21.83433c0.00124,-11.26325 3.51693,-23.48529 10.14654,-26.60495c25.27969,-11.8957 15.37398,24.74106 15.18466,48.72586c-0.14012,17.75024 -0.38966,33.71924 -0.38966,33.71924z" fill="#ecec68" stroke="#0d0d00" stroke-width="1.75"/><path d="M296.34263,201.53776c5.21995,0.95394 -1.01811,22.88975 -1.01811,22.88975c0,0 -6.83271,3.90865 -10.02146,0.78262c-2.3215,-2.27583 -4.20958,-10.3798 -1.48157,-15.74752c2.50382,-4.9266 7.72979,-8.80047 12.52115,-7.92485z" fill="#ecec68" stroke="#0d0d00" stroke-width="1.75"/><path d="M292.55628,204.16198c6.16648,0.38466 8.85007,17.28061 8.85007,17.28061c0,0 -0.63436,7.55426 -9.20224,7.62548c-6.41974,0.05338 -5.67998,-15.39412 -5.66271,-15.54211c0,0 0.35472,-9.71705 6.01488,-9.36398z" fill="#ecec68" stroke="#0d0d00" stroke-width="1.75"/><path d="M295.24798,201.83572c5.33608,-0.39943 11.03249,15.54441 11.03249,15.54441c0,0 0.8829,11.74906 -7.02935,9.48141c-5.68702,-1.62992 -7.22849,-15.10793 -7.24362,-15.25266c0,0 -1.65744,-9.40651 3.24049,-9.77314z" fill="#ecec68" stroke="#0d0d00" stroke-width="1.75"/><path d="M293.38229,202.63012c2.8957,-2.22249 13.41576,-3.15269 16.53178,3.61631c6.54137,14.20997 -7.52652,14.15 -7.52652,14.15c0,0 3.53939,-5.06347 0.77034,-9.04329c-2.40236,-4.18638 -11.49905,-7.40025 -9.77562,-8.72299z" fill="#ecec68" stroke="#0d0d00" stroke-width="1.75"/><path d="M289.37309,209.59339l-1.68556,-14.88862l17.03374,-0.41998l0.704,12.08001z" fill="#ecec68" stroke="none" stroke-width="0"/><path d="M284.65294,219.64875c0,0 -0.84985,-9.882 2.75679,-13.45953c7.4439,-7.38385 14.39987,-5.5537 14.39987,-5.5537l6.78802,11.90144c0,0 -6.57776,4.84198 -10.75987,5.7947c-1.72656,0.39332 -5.09465,-0.41794 -7.72453,-0.37261c-3.30394,0.05696 -5.46027,1.68972 -5.46027,1.68972z" fill="#ecec68" stroke="none" stroke-width="0"/><path d="M281.76524,151.99609l0.05477,-7.82874l26.81289,-2.1226l-0.63039,9.07805c0,0 -5.31852,2.93234 -13.01241,3.13575c-10.8698,0.28737 -13.22485,-2.26248 -13.22485,-2.26248z" fill-opacity="0.70196" fill="#0d0d00" stroke="none" stroke-width="0"/><path d="M283.83783,172.49648l-0.3139,-8.22738c0,0 3.50963,2.58482 12.17698,1.87136c7.8173,-0.64348 11.39795,-3.71107 11.39795,-3.71107l-0.456,9.06426c0,0 -2.63669,2.08986 -11.11961,2.78528c-9.35952,0.76729 -11.68543,-1.78246 -11.68543,-1.78246z" fill-opacity="0.70196" fill="#0d0d00" stroke="none" stroke-width="0"/><path d="M285.68215,196.31113l-0.55992,-8.18133c0,0 2.95697,2.00012 10.89511,1.34439c7.1596,-0.59142 10.468,-3.03556 10.468,-3.03556l-0.35791,9.05649c0,0 -2.44981,1.4732 -10.21906,2.11211c-8.57209,0.70494 -10.22623,-1.2961 -10.22623,-1.2961z" fill-opacity="0.70196" fill="#0d0d00" stroke="none" stroke-width="0"/><path d="M281.12406,147.59268c-1.09071,-12.15142 4.62858,-24.1079 10.09452,-26.67997c5.60783,-2.63884 11.99687,-3.32135 14.63197,-1.85161c5.89013,3.28527 3.06562,15.59797 2.02596,28.61504c-0.06672,0.83534 -4.62375,2.63093 -12.79466,2.64018c-11.75175,0.01329 -13.93871,-2.51119 -13.95779,-2.72364z" fill="#9b9b44" stroke="#0d0d00" stroke-width="1.75"/></g><g stroke="#0d0d00" stroke-linecap="butt"><path d="M343.28372,168.52621c1.57051,0.61318 8.28838,9.05799 8.28838,9.05799c0,0 11.70608,5.3101 12.42364,28.4523c0.59213,19.09689 -6.03411,34.31567 -6.03411,34.31567c0,0 -1.54311,18.66129 -4.4982,32.98192c-2.95508,14.32063 -9.77938,36.72745 -9.77938,36.72745l-23.53796,-0.71747l0.07992,-132.64153c0,0 14.92481,-11.3517 23.05772,-8.17632z" fill="#494920" stroke-width="1.75"/><path d="M319.85249,305.29258v-3.32279c0,0 27.48357,-0.6001 27.98562,0c0.93972,1.12327 -0.81595,3.43621 -3.17871,4.19494z" fill="#080d00" stroke-width="1.5"/></g><g stroke="#0d0d00" stroke-linecap="butt"><path d="M297.64475,168.27621c8.13291,-3.17538 23.05772,8.17632 23.05772,8.17632l0.07992,132.64153l-23.53796,0.71747c0,0 -6.8243,-22.40682 -9.77938,-36.72745c-2.95509,-14.32064 -4.4982,-32.98192 -4.4982,-32.98192c0,0 -6.62624,-15.21878 -6.03411,-34.31568c0.71756,-23.14219 12.42364,-28.4523 12.42364,-28.4523c0,0 6.71787,-8.44481 8.28838,-9.05799z" fill="#494920" stroke-width="1.75"/><path d="M320.54213,307.57133l0.15642,14.66283c0,0 -2.13105,3.33828 -9.57044,6.63437c-13.16886,5.83458 -24.81656,5.60696 -30.80438,4.24795c-3.1241,-0.83013 -6.25925,-6.65632 -2.7366,-11.22699c3.1823,-4.12908 10.60019,-4.84717 15.0485,-8.02239c3.86947,-2.76205 5.72916,-5.94676 5.72916,-5.94676z" fill="#ffffd5" stroke-width="1.5"/><path d="M298.36476,303.9663l22.55234,0.18266l-0.21858,14.13117c0,0 -19.29936,15.66566 -40.37482,10.88232c-3.12409,-0.83014 -5.56047,-4.33037 -2.03782,-8.90104c3.1823,-4.12908 9.90142,-7.17312 14.34973,-10.34834c3.86947,-2.76205 5.72916,-5.94677 5.72916,-5.94677z" fill="#0d0d00" stroke-width="1.5"/><path d="M293.59031,301.71979c0.50205,-0.6001 27.48562,0 27.48562,0v3.32279c0,0 -23.44233,1.32909 -24.80692,0.89088c0,0 -5.36842,-2.3404 -2.6787,-4.21367z" fill="#080d00" stroke-width="1.5"/></g><path d="M342.39708,308.17037c0,0 1.85969,3.18471 5.72916,5.94676c4.44831,3.17522 11.8662,3.89332 15.0485,8.02239c3.52265,4.57067 0.3875,10.39685 -2.7366,11.22699c-5.98782,1.35901 -17.63553,1.58663 -30.80439,-4.24795c-7.43939,-3.29608 -9.57043,-6.63436 -9.57043,-6.63436l0.15642,-14.66283z" fill="#ffffd5" stroke="#0d0d00" stroke-width="1.5" stroke-linecap="butt"/><path d="M342.39708,304.2163c0,0 1.85969,3.18472 5.72916,5.94677c4.44831,3.17523 11.16743,6.21927 14.34973,10.34834c3.52265,4.57066 1.08627,8.0709 -2.03782,8.90104c-21.07546,4.78335 -40.37482,-10.88232 -40.37482,-10.88232l-0.21858,-14.13117l22.55234,-0.18266z" fill="#0d0d00" stroke="#0d0d00" stroke-width="1.5" stroke-linecap="butt"/><path d="M303.78506,203.29675l-1,-20.1721h35.96121l-0.8,20.63442c0,0 -11.12869,1.61816 -17.03787,1.61816c-6.07339,0 -17.12334,-2.08048 -17.12334,-2.08048z" fill="#494920" stroke="none" stroke-width="0" stroke-linecap="butt"/><path d="M337.61108,203.09229c0,0 -7.8499,2.22242 -17.37731,2.30103c-8.35113,0.06889 -16.04309,-2.30103 -16.04309,-2.30103" fill="none" stroke="#0d0d00" stroke-width="1.5" stroke-linecap="round"/><path d="M320.78497,132.2487c0.07423,-0.16039 0.11366,-0.2439 0.11366,-0.2439v0.00001l18.74453,0.50929c0,0 1.24602,4.8033 3.54111,11.4236c2.39272,6.90191 6.67581,15.79908 8.43956,23.19404c1.43286,6.00761 -1.25042,8.63525 -1.25042,8.63525c0,0 -6.2686,9.75654 -30.5128,9.4732c-0.16936,0.00046 -0.34123,-0.0021 -0.51563,-0.00772c-0.17392,-0.00386 -0.34519,-0.01062 -0.5138,-0.02025c-24.22433,-1.03337 -29.95401,-11.11605 -29.95401,-11.11605c0,0 -2.53665,-2.76946 -0.77969,-8.69041c2.16269,-7.28828 6.92257,-15.93975 9.68653,-22.70156c2.65119,-6.48593 4.15619,-11.21447 4.15619,-11.21447l18.74452,0.50928v-0.00001c0,0 0.03483,0.08552 0.10025,0.24971z" fill="#9b9b44" stroke="#0d0d00" stroke-width="1.75" stroke-linecap="butt"/><path d="M287.87973,172.50221c0.78428,0.41572 5.90325,7.53607 27.75766,8.10916c0.79976,-0.01072 3.08769,0.04725 3.34844,0.05509c0.26078,0.00184 2.54888,0.02887 3.34764,0.06928c21.86079,0.23884 27.91443,-6.00536 28.71359,-6.39168c1.46528,-0.7083 3.16515,6.15695 3.16515,6.15695c0,0 -11.47168,10.89149 -34.77488,10.07984c-0.21229,-0.00739 -0.42408,-0.01811 -0.63518,-0.03208c-0.2115,0.0061 -0.42356,0.00896 -0.63602,0.00846c-23.31727,-0.0542 -32.04446,-11.86201 -32.04446,-11.86201c0,0 0.32009,-6.95523 1.75804,-6.193z" fill="#0d0d00" stroke="none" stroke-width="0" stroke-linecap="butt"/><path d="M311.41657,190.06407c-1.05735,-2.17853 -1.02698,-8.30935 -0.24267,-10.13486c0.80976,-1.88473 13.81321,-1.74561 15.252,-0.4207c1.38499,1.27538 0.96781,9.74784 -0.26734,11.06158c-1.14541,1.21827 -13.96338,0.82037 -14.74204,-0.506z" fill="#ffffd5" stroke="#0d0d00" stroke-width="1.5" stroke-linecap="butt"/><path d="M320.66974,117.35077c9.35881,7.26348 9.03443,32.55187 2.70781,33.45825c-25.62518,6.29138 -30.78345,2.96407 -33.57383,-1.27559c-3.16328,-4.80623 -1.3328,-9.68127 1.02944,-13.04185c2.36224,-3.36057 4.14892,-4.49255 6.16607,-11.44782c0,0 16.92549,-12.92786 23.67051,-7.69299z" fill="#9b9b44" stroke="#0d0d00" stroke-width="1.5" stroke-linecap="butt"/><path d="M350.58737,151.18481c-3.01647,4.08189 -8.34781,7.1242 -33.59357,-0.54931c-6.26806,-1.24857 -5.21886,-26.51726 4.52055,-33.26185c7.01931,-4.86092 22.9265,7.71096 23.21787,8.96694c1.63649,7.05453 2.5278,6.95106 5.53538,11.76574c2.17629,3.48387 3.73936,8.45111 0.31975,13.0785z" fill="#9b9b44" stroke="#0d0d00" stroke-width="1.5" stroke-linecap="butt"/><path d="M312.15967,166.43162l3.32792,-24.9188c0,0 2.54382,-23.04326 9.8046,-21.27606c4.73268,1.15189 15.48254,30.46624 15.48254,30.46624c0,0 -9.98343,0.94143 -8.75396,3.88132c0.65103,1.55675 4.11933,1.17418 5.35938,3.59733c1.66801,3.25942 2.47099,7.00161 2.47099,7.00161z" fill="#9b9b44" stroke="none" stroke-width="0" stroke-linecap="butt"/><path d="M299.764,164.0941c0,0 1.00499,-3.69307 2.84752,-6.8571c1.3698,-2.35225 4.81222,-1.78193 5.54681,-3.30102c1.38726,-2.86879 -8.5303,-4.35092 -8.5303,-4.35092c0,0 12.32575,-28.6874 17.11399,-29.58061c7.34603,-1.37033 8.63488,21.77706 8.63488,21.77706l1.96993,25.06275z" fill="#9b9b44" stroke="none" stroke-width="0" stroke-linecap="butt"/><path d="M291.87056,128.61851c0,0 -1.88516,-10.00262 28.26806,-9.48575c34.78218,0.59622 31.20321,11.35166 31.20321,11.35166c0,0 -15.42315,-1.93662 -28.19626,-2.38222c-25.46772,-0.88849 -31.275,0.51632 -31.275,0.51632z" fill="#9b9b44" stroke="none" stroke-width="0" stroke-linecap="butt"/><path d="M319.77529,146.44292l0.69664,-25.64053" fill="none" stroke="#0d0d00" stroke-width="1" stroke-linecap="round"/><path d="M326.52976,132.10443c-0.0345,1.26979 -0.65072,1.56862 -1.58702,1.54318c-0.9363,-0.02544 -1.83811,-0.36552 -1.80361,-1.6353c0.0345,-1.26979 0.80985,-1.85012 1.74614,-1.82468c0.9363,0.02544 1.67898,0.647 1.64448,1.9168z" fill="#ffffd5" stroke="#0d0d00" stroke-width="1" stroke-linecap="butt"/><path d="M324.88221,137.73317c0.93629,0.02544 1.83423,0.50831 1.79973,1.77811c-0.0345,1.26979 -0.80208,1.5645 -1.73838,1.53907c-0.9363,-0.02544 -1.68674,-0.3614 -1.65225,-1.63118c0.0345,-1.26979 0.65459,-1.71142 1.59088,-1.68598z" fill="#ffffd5" stroke="#0d0d00" stroke-width="1" stroke-linecap="butt"/><path d="M317.27216,117.78131l8.12341,-1.96407c0,0 11.60069,-0.44917 14.92321,7.68732c2.40394,5.88694 -4.20931,12.53774 -4.20931,12.53774z" fill="#c1c155" stroke="#0d0d00" stroke-width="1.5" stroke-linecap="butt"/><path d="M304.05734,135.19171c0,0 -5.47905,-7.47952 -2.75901,-13.22725c3.75942,-7.94407 14.55531,-6.38622 14.55531,-6.38622l7.26296,2.92776z" fill="#c1c155" stroke="#0d0d00" stroke-width="1.5" stroke-linecap="butt"/><path d="M315.88361,94.42531l11.98564,0.32564l0.7131,21.47981c0,0 -3.17341,4.83099 -7.5808,4.59183c-4.42511,-0.24011 -6.99634,-4.98789 -6.99634,-4.98789z" fill="#ecec68" stroke="#0d0d00" stroke-width="1.5" stroke-linecap="butt"/><path d="M339.12711,105.95525c-4.06471,-2.21514 -3.97501,-7.1988 -0.62338,-10.04294c3.35162,-2.84412 8.11316,-2.60376 10.64633,1.76997c3.95132,6.82234 -2.32534,15.58076 -2.32534,15.58076c0,0 -2.91555,-4.70171 -7.6976,-7.30781z" fill="#ecec68" stroke="#0d0d00" stroke-width="1.75" stroke-linecap="butt"/><path d="M344.411,100.94407c-3.64177,-0.67146 -4.86838,-4.37116 -3.07847,-7.26487c1.78991,-2.89371 1.59236,-8.12124 5.40527,-6.62039c9.49159,3.73608 6.88306,17.59599 6.88306,17.59599c0,0 -4.92537,-2.92075 -9.20984,-3.71074z" fill="#ecec68" stroke="#0d0d00" stroke-width="1.75" stroke-linecap="butt"/><path d="M337.07192,24.18939c0,0 0.28956,3.79398 -0.16428,14.17022c-0.28855,6.59713 -2.00137,15.66564 -2.00137,15.66564l-6.33722,-1.01789c0,0 2.65438,-8.88193 3.24961,-15.40646c1.04737,-11.48007 -0.8462,-16.02781 0.46198,-18.22813c1.04481,-1.75727 8.2008,-0.32637 16.36968,0.68317c8.06496,0.99671 17.15644,1.53031 16.27889,6.26838c-1.3986,7.55133 -27.85726,-2.13493 -27.85726,-2.13493z" fill="#0d0d00" stroke="none" stroke-width="NaN" stroke-linecap="butt"/><path d="M310.33654,59.66453c-5.65945,1.9527 -9.07566,18.1385 -14.13921,15.23009c-5.16581,-2.96712 -3.27373,-16.24445 9.42359,-23.86366c8.21274,-4.92817 21.61883,-7.35396 23.79456,-1.72119c2.17573,5.63277 -13.41948,8.40209 -19.07892,10.35479z" fill="#6e6e30" stroke="#0d0d00" stroke-width="1.35" stroke-linecap="butt"/><path d="M293.568,86.16346c3.53707,-3.29154 4.12773,1.68147 7.34001,4.08513c3.21233,2.40365 3.46186,6.99275 -0.2451,9.30031c-4.36116,2.71482 -9.1094,8.33733 -9.1094,8.33733c0,0 -6.79043,-13.52905 2.01447,-21.72275z" fill="#ecec68" stroke="#0d0d00" stroke-width="1.75" stroke-linecap="butt"/><path d="M294.05541,98.01319c0.89358,-5.89236 6.01528,-8.20978 10.92006,-6.53409c4.90477,1.67568 7.15266,7.10616 3.64732,11.29016c-4.12394,4.92247 -5.66734,11.24508 -5.66734,11.24508c0,0 -3.85168,-1.80575 -6.35546,-6.06949c-2.98443,-5.08224 -2.54459,-9.93166 -2.54459,-9.93166z" fill="#ecec68" stroke="#0d0d00" stroke-width="1.75" stroke-linecap="butt"/><path d="M305.63196,28.40861c0,0 -18.07528,17.8844 -22.38906,11.93882c-3.44362,-4.74627 4.41894,-8.39741 12.52561,-12.47918c5.58943,-2.81433 11.13861,-5.80299 12.33562,-5.28226c3.40153,1.47973 1.60642,7.32715 3.41788,18.00244c1.02953,6.06715 4.15794,14.19305 4.15794,14.19305l-5.86117,1.4118c0,0 -2.26021,-8.36874 -3.00777,-14.52609c-1.17578,-9.68452 -1.17909,-13.25852 -1.17909,-13.25852z" fill="#0d0d00" stroke="none" stroke-width="NaN" stroke-linecap="butt"/><path d="M296.22842,98.2212c-2.10461,-5.10791 -2.55838,-10.94613 -2.1873,-16.82866c0.37087,-5.87874 1.07684,-11.95069 4.70352,-18.48997c6.97144,-12.57014 21.45077,-12.71503 22.57474,-12.70708c1.12396,0.00794 15.72539,0.04354 22.77178,12.57107c3.66585,6.51743 4.40826,12.58501 4.81438,18.46145c0.40636,5.88017 2.53652,14.48915 0.46261,19.60959c-2.62399,6.47856 -18.31038,11.6507 -21.17333,11.67058c-3.23257,0.02244 -9.97381,0.34704 -15.92937,-1.91839c-7.90902,-3.00852 -14.51802,-8.68194 -16.03702,-12.36859z" fill="#ecec68" stroke="#0d0d00" stroke-width="1.75" stroke-linecap="butt"/><path d="M340.87515,106.23672l2.88209,-17.79729c0,0 1.35196,0.26541 2.46453,0.79535c1.36928,0.65221 0.48246,-2.97996 1.13628,-2.4887c1.16867,0.87806 4.70195,6.93669 4.70195,6.93669c0,0 0.48173,2.99363 -0.01845,4.81189c-0.12654,0.46002 -0.60973,2.12487 -1.06717,2.80345c-0.62897,0.93306 -1.29751,1.9761 -1.84494,3.06617c-1.64571,3.2769 -3.4404,5.83387 -3.4404,5.83387z" fill="#ecec68" stroke="none" stroke-width="0" stroke-linecap="butt"/><path d="M303.48605,109.41524c0,0 -3.33001,-3.17406 -6.54935,-6.0604c-1.07092,-0.96013 -1.95293,-3.25949 -3.04555,-4.01217c-0.79465,-0.54742 -1.91568,0.4062 -2.25295,-0.04403c-1.33307,-1.77967 -0.70705,-5.73911 -0.70705,-5.73911c0,0 -0.46181,-1.73063 0.44201,-3.19829c0.50569,-0.82113 1.43663,-2.42826 2.65803,-3.73459c0.99241,-1.06141 2.36158,-1.93578 2.36158,-1.93578l10.43095,18.21486z" fill="#ecec68" stroke="none" stroke-width="0" stroke-linecap="butt"/><g stroke="#0d0d00" stroke-width="1" stroke-linecap="butt"><g fill="#c5c556"><path d="M299.15852,58.50306c0,0 1.018,-3.74435 2.85364,-5.36183c1.83566,-1.61749 3.2028,-1.43061 3.79378,-0.49552c0.59097,0.93508 0.85886,2.50821 -0.9768,4.12565c-1.83564,1.61746 -5.67062,1.73169 -5.67062,1.73169z"/><path d="M293.88372,63.15097c-0.59099,-0.93507 -0.63203,-2.22602 1.20358,-3.84348c1.83564,-1.61747 5.4438,-2.01384 5.4438,-2.01384c0,0 -0.93061,3.72018 -2.76624,5.33765c-1.83567,1.6175 -3.29019,1.45479 -3.88118,0.51968z"/></g><g fill="#c5c556"><path d="M299.50112,57.35463c0,0 3.50632,-0.16471 4.42566,1.2899c0.91932,1.45458 0.08356,2.93782 -1.09651,3.97761c-1.18006,1.03981 -2.66855,1.52861 -3.58786,0.07405c-0.9193,-1.45458 0.25871,-5.34154 0.25871,-5.34154z"/><path d="M295.58805,57.20067c-0.91932,-1.45457 0.09126,-2.98619 1.27131,-4.02596c1.18006,-1.03981 2.74295,-1.6354 3.66228,-0.18083c0.91931,1.45457 -0.33315,5.44834 -0.33315,5.44834c0,0 -3.68114,0.21306 -4.60047,-1.24153z"/></g><path d="M301.09875,59.88248c-1.38287,1.21851 -3.06532,1.31801 -3.7579,0.22218c-0.69258,-1.09583 -0.13295,-2.97195 1.24991,-4.19046c1.38287,-1.21852 3.06532,-1.318 3.75789,-0.22217c0.6926,1.09583 0.13296,2.97193 -1.24991,4.19044z" fill="#ffffd5"/></g><path d="M348.4456,86.91405c-0.1048,1.35 -2.31596,4.36586 -8.66459,4.42244c-2.46214,0.02196 -6.99862,-1.73807 -9.89064,-1.9626c-1.99608,-0.15497 -8.25219,1.51254 -10.04828,1.26782c-7.51595,-1.02406 -8.99165,-5.12501 -8.87427,-6.63721c0.13582,-1.74965 2.29137,-6.78341 11.70198,-6.23679c0.66648,0.03871 4.83852,3.20416 8.37731,3.59871c4.0431,0.45078 4.6806,-1.28165 6.95547,-0.58041c2.27488,0.70123 10.56674,4.53402 10.44298,6.12806z" fill="#c4c44a" stroke="none" stroke-width="0" stroke-linecap="butt"/><path d="M301.90906,87.87926c1.06122,-2.8748 6.03868,-3.68539 11.11748,-1.81055c5.0788,1.87487 8.33567,5.72517 7.27447,8.59996c-1.06122,2.87481 -6.43822,2.68366 -11.51702,0.80884c-5.07879,-1.87483 -7.93618,-4.72346 -6.87491,-7.59824z" fill="#a5a549" stroke="none" stroke-width="0" stroke-linecap="butt"/><path d="M314.56162,60.87345c5.09954,-0.38927 7.53341,6.51625 7.53341,6.51625c0,0 -3.46703,-3.48009 -7.17633,-3.0044c-3.96986,0.5091 -6.5138,5.00266 -6.5138,5.00266c0,0 1.51652,-8.16031 6.15673,-8.51453z" fill="#0d0d00" stroke="none" stroke-width="0" stroke-linecap="butt"/><path d="M303.84213,83.74753c-0.46518,-5.72784 5.24856,-14.52695 11.7048,-14.5463c6.45622,-0.01938 11.49662,8.56295 10.94008,15.96076c-0.2211,4.05087 -6.05722,7.58363 -10.65969,7.32375c-7.84004,-0.4427 -11.5667,-3.58636 -11.98511,-8.73819z" fill="#0d0d00" stroke="#0d0d00" stroke-width="1" stroke-linecap="butt"/><g fill="#0d0d00" stroke="none" stroke-width="0" stroke-linecap="butt"><path d="M309.47778,72.21669l-4.41622,4.79201l-1.60047,-7.22916z"/><path d="M305.93592,76.53761l-2.06805,6.56137l-2.63051,-7.58511z"/><path d="M306.35417,73.78501l-2.69546,4.91649l-1.43499,-5.99214z"/></g><path d="M350.14675,94.15681c-2.40709,2.93466 -10.21573,1.91367 -11.05324,-0.05132c-0.83753,-1.96497 2.03612,-5.03977 5.50757,-6.51939c3.47143,-1.47962 7.7683,5.14553 5.54567,6.57071z" fill="#a5a549" stroke="none" stroke-width="0" stroke-linecap="butt"/><path d="M350.83639,83.85801c-0.36349,4.83494 -0.51235,7.6048 -7.86407,8.06416c-4.31581,0.26967 -9.14359,-2.99755 -9.37379,-6.79613c-0.56367,-6.93625 3.94755,-12.2402 10.00379,-12.25834c6.05627,-0.01818 7.63824,5.61478 7.23412,10.99029z" fill="#0d0d00" stroke="#080d00" stroke-width="1" stroke-linecap="butt"/><g fill="#0d0d00" stroke="none" stroke-width="0" stroke-linecap="butt"><path d="M353.4182,74.85809l-3.79409,5.69899l-2.20774,-5.60673z"/><path d="M353.42086,80.54518l-4.80112,5.66196l0.40787,-6.34823z"/><path d="M353.50674,77.79757l-3.23831,4.6876l-0.68243,-5.1394z"/></g><g stroke="#0d0d00" stroke-linecap="round"><g><path d="M318.82795,103.59913c-13.04793,-2.02802 -16.00227,-8.98693 -16.00227,-8.98693c0,0 4.53184,1.87167 7.61701,2.60178c6.06867,1.43617 9.88889,1.00284 12.86457,1.39791c2.35446,0.31259 8.05423,1.78228 11.19108,1.97471c4.55752,0.27955 6.293,-0.34751 6.293,-0.34751c0,0 -6.36016,5.78524 -21.96338,3.36004z" fill="#ffffff" stroke-width="1"/><path d="M336.64567,102.51068c0,0 -4.08944,0.65612 -13.27654,-0.84963c-9.28194,-1.52129 -17.08184,-2.96437 -17.08184,-2.96437" fill="none" stroke-width="0.5"/></g><path d="M302.93382,93.47537l-1.63811,1.36576" fill="none" stroke-width="1"/></g><g stroke="none" stroke-width="0" stroke-linecap="butt"><path d="M317.85856,87.39517c-0.33422,0.02298 -0.66395,-0.00108 -0.98585,-0.06802c-0.21396,-1.52727 -0.59331,-3.01139 -0.69945,-4.55589c-0.05731,-0.83382 -0.12097,-1.66673 -0.18828,-2.4991c1.17597,-0.06864 2.35125,-0.13707 3.52769,-0.17559c0.12084,0.54702 0.23172,1.08628 0.32702,1.61453c0.23476,1.38182 0.37101,2.91279 0.64811,4.37005c-0.73056,0.76721 -1.63146,1.24542 -2.62924,1.314z" fill="#6e6e30"/><path d="M322.36707,80.07742c0.125,2.0543 -0.3846,3.94066 -1.30094,5.28469c-0.21025,-1.27237 -0.33477,-2.58173 -0.53695,-3.77174c-0.08908,-0.49378 -0.19322,-0.99927 -0.30729,-1.51313c0.71436,-0.01538 1.42927,-0.01751 2.1452,0.00016z" fill="#6e6e30"/><path d="M312.38545,80.68324c-0.00533,-0.07742 -0.00975,-0.15457 -0.01326,-0.23151c0.97271,-0.03137 1.94364,-0.08322 2.91385,-0.13895c0.06752,0.83485 0.1314,1.67021 0.18888,2.5065c0.0997,1.45058 0.43975,2.84598 0.65806,4.27385c-1.98709,-0.85001 -3.53765,-3.35625 -3.74752,-6.40991z" fill="#6e6e30"/><path d="M316.88881,73.2856c0.35705,-0.02453 0.70898,0.00457 1.05171,0.08235c0.39845,1.99279 0.95557,4.05464 1.41484,6.03484c-1.14299,0.04004 -2.2849,0.10677 -3.42749,0.17323c-0.16267,-1.95776 -0.34146,-3.9131 -0.5014,-5.87088c0.45464,-0.23859 0.94549,-0.384 1.46234,-0.41953z" fill="#6e6e30"/><path d="M322.29988,79.37572c-0.74656,-0.01669 -1.49201,-0.01222 -2.23687,0.00595c-0.44082,-1.88252 -0.98113,-3.85536 -1.37766,-5.76287c1.81702,0.81762 3.256,3.02374 3.61453,5.75692z" fill="#6e6e30"/><path d="M312.36445,79.75186c0.05793,-2.40698 0.98891,-4.49482 2.39558,-5.61091c0.15136,1.82567 0.31709,3.64949 0.46886,5.47542c-0.95375,0.05443 -1.90821,0.10481 -2.86445,0.13549z" fill="#6e6e30"/><path d="M322.43634,76.91375c0.04329,0.62969 -0.71925,1.195 -1.70315,1.26263c-0.9839,0.06763 -1.81658,-0.38802 -1.85987,-1.01772c-0.04329,-0.62969 0.71925,-1.195 1.70315,-1.26262c0.9839,-0.06763 1.81658,0.38802 1.85987,1.01772z" fill="#ffffff"/></g><g stroke="none" stroke-width="0" stroke-linecap="butt"><path d="M344.6438,87.57387c-0.3072,0.02112 -0.61029,-0.00099 -0.90617,-0.06253c-0.19668,-1.40386 -0.54535,-2.76805 -0.64293,-4.18774c-0.05267,-0.76644 -0.11118,-1.53206 -0.17305,-2.29716c1.08095,-0.06309 2.16125,-0.12597 3.24262,-0.16139c0.11108,0.50282 0.213,0.99852 0.30059,1.48405c0.21579,1.27017 0.34105,2.67742 0.59572,4.01692c-0.67153,0.70522 -1.49961,1.14477 -2.41677,1.20781z" fill="#6e6e30"/><path d="M348.78804,80.84744c0.11491,1.88829 -0.35352,3.62222 -1.19582,4.85766c-0.19325,-1.16954 -0.30773,-2.37312 -0.49357,-3.46696c-0.08186,-0.45389 -0.17761,-0.91852 -0.28246,-1.39085c0.65663,-0.01412 1.31379,-0.01611 1.97187,0.00015z" fill="#6e6e30"/><path d="M339.61299,81.4043c-0.00489,-0.07115 -0.00896,-0.14211 -0.0122,-0.21282c0.89411,-0.02883 1.78658,-0.0765 2.67839,-0.12772c0.06207,0.76737 0.12077,1.53524 0.17361,2.30396c0.09165,1.33336 0.40422,2.616 0.60489,3.92851c-1.82651,-0.78132 -3.2518,-3.08504 -3.4447,-5.89195z" fill="#6e6e30"/><path d="M343.75241,74.60446c0.32819,-0.02255 0.6517,0.00421 0.96675,0.07568c0.36625,1.83177 0.87835,3.72702 1.30051,5.54718c-1.05062,0.03679 -2.10024,0.09814 -3.15051,0.15921c-0.14953,-1.79954 -0.31387,-3.59688 -0.46089,-5.39645c0.4179,-0.21931 0.86907,-0.35298 1.34416,-0.38563z" fill="#6e6e30"/><path d="M348.72624,80.20245c-0.68623,-0.01534 -1.37145,-0.01124 -2.05612,0.00546c-0.40518,-1.73041 -0.90185,-3.54382 -1.26633,-5.29718c1.67019,0.75154 2.9929,2.77939 3.32243,5.29173z" fill="#6e6e30"/><path d="M339.59366,80.5482c0.05326,-2.21247 0.909,-4.13161 2.20202,-5.1575c0.13911,1.67815 0.29146,3.35458 0.43095,5.03297c-0.87667,0.05002 -1.75402,0.09634 -2.63297,0.12454z" fill="#6e6e30"/><path d="M348.85169,77.93943c0.03977,0.57882 -0.66112,1.09843 -1.56552,1.16057c-0.90439,0.06215 -1.6698,-0.35668 -1.70958,-0.93548c-0.03977,-0.57882 0.66112,-1.09842 1.56552,-1.16057c0.90439,-0.06215 1.66979,0.35667 1.70958,0.93548z" fill="#ffffff"/></g><path d="M318.81196,50.24974c0,0 2.60535,-2.68043 5.56253,-4.51041c2.592,-1.60401 6.38443,-2.68907 6.50819,-2.82212c0.34639,-0.37227 -0.06988,-1.70964 -0.8572,-2.74301c-0.79989,-1.04984 -1.97394,-1.79294 -1.97394,-1.79294c0,0 5.01063,-2.85031 11.72456,1.27536c5.83041,3.58274 6.73636,8.89938 6.73636,8.89938c0,0 1.2397,-1.79492 1.638,-3.22836c0.84581,-3.04419 0.7095,-5.13817 0.7095,-5.13817c0,0 4.85943,0.39191 6.0295,11.01577c0.77433,7.0307 -1.16335,12.53902 -1.16335,12.53902c0,0 1.31665,-0.22298 2.10811,-0.64303c0.79145,-0.42003 2.33231,-1.7136 2.33231,-1.7136c0,0 1.05672,10.21841 -13.93576,14.22885c-10.69266,2.86026 -16.4474,-3.65171 -16.4474,-3.65171" fill="#ecec68" stroke="#0d0d00" stroke-width="1.75" stroke-linecap="round"/></g></g></svg>