<svg version="1.1" xmlns="http://www.w3.org/2000/svg" xmlns:xlink="http://www.w3.org/1999/xlink" width="748.33333" height="369.48102" viewBox="0,0,748.33333,369.48102"><defs><linearGradient x1="318.60949" y1="-3.22152" x2="318.60949" y2="364.74051" gradientUnits="userSpaceOnUse" id="color-1"><stop offset="0" stop-color="#ffffff"/><stop offset="1" stop-color="#fdffd4"/></linearGradient><linearGradient x1="-54.16664" y1="25.54984" x2="694.1668" y2="25.54984" gradientUnits="userSpaceOnUse" id="color-2"><stop offset="0" stop-color="#a5a02c"/><stop offset="1" stop-color="#7d690f"/></linearGradient></defs><g transform="translate(54.16664,4.74051)"><g stroke-miterlimit="10"><path d="M-47.77955,-3.22152h732.7781v367.96203h-732.7781z" fill="url(#color-1)" fill-rule="evenodd" stroke="none" stroke-width="2.07968" stroke-linecap="round" stroke-linejoin="round"/><path d="M-54.16664,55.84018v-60.58069h748.33333v60.58069z" fill="url(#color-2)" fill-rule="nonzero" stroke="none" stroke-width="0" stroke-linecap="butt" stroke-linejoin="miter"/><path d="M266.97047,353.14145c-0.00002,0.02694 -0.02188,0.04879 -0.04884,0.04879c-0.02694,0 -0.04881,-0.02184 -0.04884,-0.04879c0.00002,-0.02694 0.02188,-0.04879 0.04884,-0.04879c0.02694,0 0.04881,0.02184 0.04884,0.04879z" fill="#ffffff" fill-rule="nonzero" stroke="#000000" stroke-width="0.27531" stroke-linecap="butt" stroke-linejoin="miter"/><text transform="translate(301.16302,145.0775) scale(0.81043,0.81043)" font-size="40" xml:space="preserve" fill="#797621" fill-rule="nonzero" stroke="none" stroke-width="1" stroke-linecap="butt" stroke-linejoin="miter" font-family="&quot;Allan-Regular&quot;, Sans Serif" font-weight="normal" text-anchor="middle"><tspan x="0" dy="0">Designs:</tspan><tspan x="0" dy="46.150000000000006px">-Beats 1,2,3,5</tspan><tspan x="0" dy="46.150000000000006px">-Effects 1,3,4,5</tspan><tspan x="0" dy="46.150000000000006px">-Vocal 1</tspan><tspan x="0" dy="46.150000000000006px">-Allstars 3,4</tspan><tspan x="0" dy="46.150000000000006px">-Celine</tspan></text><g fill-rule="nonzero" stroke-linejoin="miter"><g stroke="#ffffff" stroke-width="10"><path d="M159.6525,179.39423c5.15493,7.15126 8.8195,15.77946 10.55345,25.70134c6.22642,35.62781 -17.60819,69.55741 -53.23603,75.78379c-35.62781,6.22641 -69.55733,-17.60818 -75.78377,-53.23601c-1.16381,-6.65939 -1.17926,-13.08878 -0.20222,-19.18209l-0.61442,1.82485c0,0 -4.99939,-5.7834 -3.97494,-19.11846c0.93388,-12.15569 5.73047,-26.49009 8.59569,-31.02952c6.00446,-9.51316 2.39349,5.7866 13.31377,1.14066c9.75795,-4.15141 17.42691,-14.47162 26.44342,-23.23719c4.55172,-4.42501 15.20332,-8.82508 20.41871,-10.80861c1.50887,-0.57384 2.95155,0.25066 2.91294,1.86451c-0.0423,1.76846 -0.15845,6.62313 -0.15845,6.62313c0,0 27.96524,6.30979 39.37077,12.39594c6.97129,3.71995 11.62539,12.71267 16.76225,18.65117c3.93475,4.54883 9.42215,6.47773 8.81623,7.85166c-1.32247,2.99859 -9.44424,9.7618 -9.44424,9.7618z" fill="#003aff" stroke-linecap="round"/><path d="M40.61571,217.48245c0.25483,-10.31473 3.04963,-20.18378 7.87067,-28.87546" fill="#003aff" stroke-linecap="butt"/><path d="M145.15971,165.72374c6.41461,4.31152 12.03554,9.79426 16.51768,16.20572" fill="#003aff" stroke-linecap="butt"/><g><path d="M168.30497,236.34454c-10.17191,3.57875 -55.30913,18.61362 -81.35846,16.91056c-30.36655,-1.98532 -28.22292,-22.12714 -28.22292,-22.12714" fill="#003aff" stroke-linecap="round"/><path d="M49.9664,234.96278l14.21041,-4.9974" fill="#003aff" stroke-linecap="round"/><path d="M135.90788,256.81488c0,0 -7.26741,3.2481 -11.47573,3.91899c-4.81387,0.76743 -15.83587,0.43506 -15.83587,0.43506" fill="#003aff" stroke-linecap="round"/><g fill="#000000" stroke-linecap="butt"><path d="M70.49052,221.73915c-1.00067,-5.72587 2.82989,-11.17889 8.55578,-12.17953c5.72587,-1.00067 11.17886,2.82989 12.17954,8.5558c1.00067,5.72587 -2.82987,11.17891 -8.55578,12.17955c-5.72586,1.00067 -11.17886,-2.82993 -12.17957,-8.55582z"/><path d="M158.31069,206.39152c-1.00068,-5.72587 2.82989,-11.17885 8.55578,-12.17954c5.72587,-1.00068 11.17887,2.82988 12.17955,8.55578c1.00068,5.72587 -2.82988,11.17886 -8.55578,12.17954c-5.72586,1.00068 -11.17887,-2.82988 -12.17955,-8.55578z"/></g></g></g><g stroke="#000000" stroke-width="2"><path d="M159.6525,179.39422c5.15495,7.15126 8.81951,15.77946 10.55345,25.70134c6.22642,35.62781 -17.60819,69.55739 -53.23604,75.78379c-35.62781,6.22641 -69.55733,-17.60819 -75.78376,-53.23601c-1.16381,-6.65939 -1.17928,-13.0888 -0.20222,-19.18209l-0.61442,1.82487c0,0 -4.99939,-5.7834 -3.97494,-19.11844c0.93388,-12.15569 5.73047,-26.49009 8.5957,-31.02952c6.00446,-9.51316 2.39349,5.7866 13.31375,1.14065c9.75795,-4.15141 17.42691,-14.47162 26.4434,-23.23719c4.55171,-4.42501 15.20332,-8.82508 20.41871,-10.80862c1.50887,-0.57384 2.95155,0.25066 2.91294,1.86451c-0.04231,1.76846 -0.15845,6.62312 -0.15845,6.62312c0,0 27.96524,6.3098 39.37077,12.39594c6.97129,3.71995 11.62539,12.71266 16.76225,18.65117c3.93475,4.54883 9.42215,6.47773 8.81623,7.85166c-1.32247,2.99859 -9.44424,9.7618 -9.44424,9.7618z" fill="#003aff" stroke-linecap="round"/><path d="M40.6157,217.48245c0.25483,-10.31473 3.04964,-20.18378 7.87067,-28.87546" fill="#003aff" stroke-linecap="butt"/><path d="M145.15971,165.72374c6.41461,4.31152 12.03554,9.79426 16.51768,16.20572" fill="#003aff" stroke-linecap="butt"/><g><path d="M168.30497,236.34453c-10.17192,3.57875 -55.30913,18.61362 -81.35846,16.91056c-30.36656,-1.98532 -28.22292,-22.12714 -28.22292,-22.12714" fill="#003aff" stroke-linecap="round"/><path d="M49.96641,234.96277l14.21042,-4.99738" fill="#003aff" stroke-linecap="round"/><path d="M135.90788,256.81488c0,0 -7.26741,3.24811 -11.47573,3.919c-4.81387,0.76743 -15.83587,0.43506 -15.83587,0.43506" fill="#003aff" stroke-linecap="round"/><g fill="#000000" stroke-linecap="butt"><path d="M70.49052,221.73914c-1.00067,-5.72587 2.82989,-11.17889 8.55579,-12.17953c5.72587,-1.00067 11.17887,2.82989 12.17955,8.55579c1.00067,5.72587 -2.82987,11.1789 -8.55578,12.17955c-5.72586,1.00067 -11.17887,-2.82993 -12.17957,-8.55582z"/><path d="M158.31069,206.39153c-1.00068,-5.72587 2.82989,-11.17885 8.55578,-12.17955c5.72587,-1.00068 11.17887,2.82988 12.17955,8.55578c1.00068,5.72587 -2.82988,11.17887 -8.55578,12.17955c-5.72586,1.00068 -11.17887,-2.82988 -12.17955,-8.55578z"/></g></g></g></g><text transform="translate(7.03534,41.33269) scale(1.40445,1.15442)" font-size="40" xml:space="preserve" fill="#ffffff" fill-rule="nonzero" stroke="none" stroke-width="1" stroke-linecap="butt" stroke-linejoin="miter" font-family="&quot;Allan-Bold&quot;, Sans Serif" font-weight="normal" text-anchor="start"><tspan x="0" dy="0">CREDITS: Slapbread</tspan></text><text transform="translate(139.50001,98.75) scale(1.04171,1.04171)" font-size="40" xml:space="preserve" fill="#797621" fill-rule="nonzero" stroke="none" stroke-width="1" stroke-linecap="butt" stroke-linejoin="miter" font-family="&quot;Allan-Regular&quot;, Sans Serif" font-weight="normal" text-anchor="start"><tspan x="0" dy="0">Director of this... uh... whatever this is</tspan></text><text transform="translate(495.33338,152.4525) scale(1.0235,1.0235)" font-size="40" xml:space="preserve" fill="#797621" fill-rule="nonzero" stroke="none" stroke-width="1" stroke-linecap="butt" stroke-linejoin="miter" font-family="&quot;Allan-Regular&quot;, Sans Serif" font-weight="normal" text-anchor="middle"><tspan x="0" dy="0">Animations:</tspan><tspan x="0" dy="46.150000000000006px">-Allstars 2,4</tspan></text><text transform="translate(544.79093,327.125) scale(0.5325,0.5325)" font-size="40" xml:space="preserve" fill="#797621" fill-rule="nonzero" stroke="none" stroke-width="1" stroke-linecap="butt" stroke-linejoin="miter" font-family="&quot;Allan-Regular&quot;, Sans Serif" font-weight="normal" text-anchor="middle"><tspan x="0" dy="0">press arrow keys or WASD</tspan><tspan x="0" dy="46.150000000000006px"> or click to advance</tspan></text></g></g></svg>