<svg version="1.1" xmlns="http://www.w3.org/2000/svg" xmlns:xlink="http://www.w3.org/1999/xlink" width="169.57282" height="56.09675" viewBox="0,0,169.57282,56.09675"><defs><linearGradient x1="278.21044" y1="214.18912" x2="278.21044" y2="252.09926" gradientTransform="translate(-380.04972,-307.19802) scale(1.6707,1.26626)" gradientUnits="userSpaceOnUse" id="color-1"><stop offset="0" stop-color="#ffffb6"/><stop offset="1" stop-color="#ffff70"/></linearGradient><linearGradient x1="191.34388" y1="204.14168" x2="191.34388" y2="258.23842" gradientUnits="userSpaceOnUse" id="color-2"><stop offset="0" stop-color="#c5c556"/><stop offset="1" stop-color="#878723"/></linearGradient></defs><g transform="translate(-163.2955,-203.14166)"><g stroke-miterlimit="10"><g><path d="M175.79565,253.90127v-46.21653h157.07267v46.21653z" fill-opacity="0.01176" fill="#000000" stroke="none" stroke-width="NaN"/><g stroke="none" stroke-width="1" font-weight="normal" text-anchor="start"><text transform="translate(226.22904,241.77902) scale(0.59855,0.78973)" font-size="40" xml:space="preserve" fill="#828216" font-family="&quot;Allan-Regular&quot;, Sans Serif"><tspan x="0" dy="0">REFERENCES</tspan></text><text transform="translate(227.47876,242.6035) scale(0.59855,0.78973)" font-size="40" xml:space="preserve" fill="url(#color-1)" font-family="&quot;Allan-Regular&quot;, Sans Serif"><tspan x="0" dy="0">REFERENCES</tspan></text><g fill="none" font-family="sans-serif" font-size="12"/><g fill="none" font-family="sans-serif" font-size="12"/><g fill="none" font-family="sans-serif" font-size="12"/></g><path d="M167.92211,258.23842c-2.00292,0 -3.62661,-1.62368 -3.62661,-3.62659v-46.84354c0,-2.00291 1.62368,-3.62662 3.62661,-3.62662h46.84353c2.00292,0 3.62658,1.62371 3.62658,3.62662v46.84354c0,2.00291 -1.62367,3.62659 -3.62658,3.62659z" fill="url(#color-2)" stroke="#343404" stroke-width="2"/><path d="M169.24939,231.44398c0,-12.09583 9.80561,-21.90144 21.90144,-21.90144c12.09583,0 21.90144,9.80561 21.90144,21.90144c0,12.09583 -9.80561,21.90144 -21.90144,21.90144c-12.09583,0 -21.90144,-9.80561 -21.90144,-21.90144zM190.91907,246.79813c8.63988,0 15.64388,-7.00401 15.64388,-15.64388c0,-8.63988 -7.00401,-15.64388 -15.64388,-15.64388c-8.63988,0 -15.64388,7.00401 -15.64388,15.64388c0,8.63988 7.00401,15.64388 15.64388,15.64388z" fill="#343404" stroke="none" stroke-width="0"/><path d="M180.42361,231.55571c0,-5.9862 4.85277,-10.83898 10.83898,-10.83898c4.72632,0 8.74611,3.02507 10.22879,7.24464c-1.07462,0.13353 -2.15121,0.28234 -3.22001,0.41331c-1.181,-2.76595 -3.92585,-4.70446 -7.12348,-4.70446c-4.27586,0 -7.74213,3.46627 -7.74213,7.74213c0,4.27586 3.46627,7.74213 7.74213,7.74213c2.94992,0 5.51452,-1.64983 6.8214,-4.0771c1.25951,-0.12618 2.46502,-0.27471 3.68086,-0.4162c-1.33525,4.47284 -5.48061,7.73352 -10.38756,7.73352c-5.9862,0 -10.83898,-4.85277 -10.83898,-10.83898z" fill="#343404" stroke="none" stroke-width="0"/></g></g></g></svg>