<svg version="1.1" xmlns="http://www.w3.org/2000/svg" xmlns:xlink="http://www.w3.org/1999/xlink" width="378" height="460.00001" viewBox="0,0,378,460.00001"><defs><linearGradient x1="320" y1="-67.5" x2="320" y2="269.5" gradientUnits="userSpaceOnUse" id="color-1"><stop offset="0" stop-color="#ffffd1"/><stop offset="1" stop-color="#f1f19c"/></linearGradient></defs><g transform="translate(-131.5,82.00001)"><g stroke-miterlimit="10"><path d="M145.74891,376c-6.76488,0 -12.24891,-5.33739 -12.24891,-11.9214v-432.15721c0,-6.58401 5.48402,-11.9214 12.24891,-11.9214h349.50219c6.76488,0 12.2489,5.33739 12.2489,11.9214v432.15721c0,6.584 -5.48402,11.9214 -12.2489,11.9214z" fill="#535311" fill-rule="nonzero" stroke="#212108" stroke-width="4" stroke-linecap="butt" stroke-linejoin="miter"/><path d="M160.66812,361.5c-6.16798,0 -11.16812,-4.94148 -11.16812,-11.03711v-406.92577c0,-6.09563 5.00014,-11.03711 11.16812,-11.03711h318.66376c6.16798,0 11.16812,4.94149 11.16812,11.03712v406.92577c0,6.09563 -5.00014,11.03711 -11.16812,11.03711z" fill="url(#color-1)" fill-rule="nonzero" stroke="#212108" stroke-width="4.5" stroke-linecap="butt" stroke-linejoin="miter"/><text transform="translate(160.5,-35.68135) scale(0.61033,0.61033)" font-size="40" xml:space="preserve" fill="#212108" fill-rule="nonzero" stroke="none" stroke-width="1" stroke-linecap="butt" stroke-linejoin="miter" font-family="&quot;Allan-Regular&quot;, Sans Serif" font-weight="normal" text-anchor="start"><tspan x="0" dy="0">name: Londogia</tspan><tspan x="0" dy="46.15px">age: uh yo mama</tspan><tspan x="0" dy="46.15px">occupation: McMustard mascot</tspan></text><g><path d="M432.53444,-56.08653h32.93116c6.43804,0 11.62097,5.18296 11.62097,11.62097v32.93116c0,6.43802 -5.18294,11.62098 -11.62097,11.62098h-32.93116c-6.43802,0 -11.62098,-5.18296 -11.62098,-11.62097v-32.93116c0,-6.43801 5.18296,-11.62097 11.62098,-11.62097z" fill="#a0a300" fill-rule="evenodd" stroke="#212108" stroke-width="2" stroke-linecap="round" stroke-linejoin="round"/><g fill="none" fill-rule="nonzero" stroke="none" stroke-width="1" stroke-linecap="butt" stroke-linejoin="miter" font-family="sans-serif" font-weight="normal" font-size="12" text-anchor="start"><g/><g/></g></g><path d="M160.16667,-30.16667v-1.66667h252.16667v1.66667z" fill="#212108" fill-rule="nonzero" stroke="none" stroke-width="0" stroke-linecap="butt" stroke-linejoin="miter"/><path d="M160.16667,-0.66667v-1.66667h252.16667v1.66667z" fill="#212108" fill-rule="nonzero" stroke="none" stroke-width="0" stroke-linecap="butt" stroke-linejoin="miter"/><path d="M160.16667,29.33333v-1.66667h252.16667v1.66667z" fill="#212108" fill-rule="nonzero" stroke="none" stroke-width="0" stroke-linecap="butt" stroke-linejoin="miter"/><g fill-rule="nonzero" stroke="none" stroke-width="0" stroke-linecap="butt" stroke-linejoin="miter"><path d="M426.77843,-14.15388c-3.70486,-4.34315 6.85795,-7.93181 17.45672,-16.08511c10.85134,-8.3476 16.55746,-20.43371 20.26232,-16.09057c3.70486,4.34314 -1.73548,15.06671 -12.15131,23.95178c-10.41583,8.88507 -21.86288,12.56704 -25.56774,8.2239z" fill="#000000"/><path d="M468.8458,-46.34822c4.84556,5.58295 -0.70261,16.46321 -11.28696,25.6496c-10.58435,9.18639 -23.11153,13.932 -27.95709,8.34905c-4.84557,-5.58295 8.23818,-7.3315 18.82253,-16.51789c10.58435,-9.18639 15.57596,-23.06371 20.42152,-17.48076z" fill="#d9db56"/><path d="M452.19568,-24.57273c10.41583,-8.88509 16.92336,-19.88487 20.62822,-15.54173c3.70487,4.34314 -1.36958,15.7985 -11.78541,24.68357c-10.41582,8.88505 -22.22877,11.83525 -25.93363,7.49211c-3.70486,-4.34315 6.675,-7.7489 17.09083,-16.63397z" fill="#000000"/></g><text transform="translate(160.5,59.66469) scale(0.43621,0.43254)" font-size="40" xml:space="preserve" fill="#212108" fill-rule="nonzero" stroke="none" stroke-width="1" stroke-linecap="butt" stroke-linejoin="miter" font-family="&quot;Allan-Regular&quot;, Sans Serif" font-weight="normal" text-anchor="start"><tspan x="0" dy="0">Description-</tspan><tspan x="0" dy="46.15px">Londogia, whose real name is Londogia go figure, was </tspan><tspan x="0" dy="46.15px">looking to make some quick and easy money, so after a </tspan><tspan x="0" dy="46.15px">swift search on Indeed, she found a job listing to work at </tspan><tspan x="0" dy="46.15px">McMustard. After walking in through the restaurant’s </tspan><tspan x="0" dy="46.15px">front doors, the one employee on duty promptly stuffed </tspan><tspan x="0" dy="46.15px">her in a hotdog costume and ordered her to dance outside </tspan><tspan x="0" dy="46.15px">the restaurant like a lunatic. Londogia did not object to this, </tspan><tspan x="0" dy="46.15px">nor did she question how oddly understaffed the restaurant </tspan><tspan x="0" dy="46.15px">was, and got to dancing immediately. This is basically </tspan><tspan x="0" dy="46.15px">what she does all day now, and she fucking hates it. She's</tspan><tspan x="0" dy="46.15px">not looked upon fondly like the other (more popular) hotdog,</tspan><tspan x="0" dy="46.15px">but if he can't make it she has to fill in. </tspan><tspan x="0" dy="46.15px"> </tspan><tspan x="0" dy="46.15px">boo womp bitch</tspan></text></g></g></svg>