<svg version="1.1" xmlns="http://www.w3.org/2000/svg" xmlns:xlink="http://www.w3.org/1999/xlink" width="34.17311" height="34.17311" viewBox="0,0,34.17311,34.17311"><g transform="translate(-302.91346,-162.91348)"><g stroke-miterlimit="10"><path d="M309.98312,162.91348h20.03379c3.9166,0 7.06966,3.15307 7.06966,7.06966v20.03379c0,3.91659 -3.15306,7.06966 -7.06966,7.06966h-20.03379c-3.91659,0 -7.06966,-3.15307 -7.06966,-7.06966v-20.03379c0,-3.91659 3.15307,-7.06966 7.06966,-7.06966z" fill="#a0a300" fill-rule="evenodd" stroke="none" stroke-width="0" stroke-linecap="round" stroke-linejoin="round"/><g fill-rule="nonzero" stroke-linejoin="miter"><path d="M306.48804,191.13463l13.26429,-25.60256l14.06818,25.60256z" fill="#d9db56" stroke="none" stroke-width="NaN" stroke-linecap="butt"/><path d="M330.62213,189.77856l-21.31053,0.17396l10.61177,-20.61467z" fill="none" stroke="#000000" stroke-width="0.5" stroke-linecap="round"/><path d="M321.51297,178.2865c0,2.14765 -0.73417,3.88867 -1.6398,3.88867c-0.90564,0 -1.6398,-1.74102 -1.6398,-3.88867c0,-2.14765 0.73417,-3.88867 1.6398,-3.88867c0.90564,0 1.6398,1.74102 1.6398,3.88867z" fill="#000000" stroke="none" stroke-width="0" stroke-linecap="butt"/><path d="M321.32556,185.50163c0,0.80214 -0.69221,1.4524 -1.5461,1.4524c-0.85389,0 -1.5461,-0.65026 -1.5461,-1.4524c0,-0.80214 0.69221,-1.4524 1.5461,-1.4524c0.85389,0 1.5461,0.65026 1.5461,1.4524z" fill="#000000" stroke="none" stroke-width="0" stroke-linecap="butt"/></g></g></g></svg>