<svg version="1.1" xmlns="http://www.w3.org/2000/svg" xmlns:xlink="http://www.w3.org/1999/xlink" width="118.18549" height="310.11991" viewBox="0,0,118.18549,310.11991"><g transform="translate(-258.40552,-24.79673)"><g stroke-miterlimit="10"><path d="M263.40899,324.6125v-293.22501h113.18203v293.22501z" fill-opacity="0.01" fill="#000000" stroke="none" stroke-width="0" stroke-linecap="butt"/><path d="M312.70588,141.3851c0.08762,0.36489 11.11655,27.03815 3.80987,42.28982c-6.31205,13.1755 -15.38009,0.41557 -15.38009,0.41557c0,0 -14.80113,25.09984 -25.04902,19.02857c-13.45866,-7.97346 0.12265,-31.01218 10.48646,-50.32264c6.20226,-11.5564 16.70302,-31.3138 16.70302,-31.3138c0,0 7.82867,13.23345 9.42975,19.90248z" fill-opacity="0.4" fill="#f2d849" stroke="#0d0d00" stroke-width="1.5" stroke-linecap="butt"/><path d="M327.43377,141.3851c1.60107,-6.66903 9.42975,-19.90248 9.42975,-19.90248c0,0 10.50075,19.7574 16.70301,31.3138c10.36381,19.31046 23.94512,42.34918 10.48646,50.32265c-10.24789,6.07127 -25.04903,-19.02858 -25.04903,-19.02858c0,0 -9.06804,12.75993 -15.38009,-0.41557c-7.30668,-15.25166 3.72227,-41.92493 3.80988,-42.28982z" fill-opacity="0.4" fill="#f2d849" stroke="#0d0d00" stroke-width="1.5" stroke-linecap="butt"/><path d="M272.26043,116.57841c2.56444,-4.04371 2.74397,-6.29735 2.74397,-6.29735c0,0 -1.96269,0.64238 -5.99306,0.44098c-4.11537,-0.20565 -7.07204,-2.59496 -7.07204,-2.59496c0,0 3.50357,-3.27383 5.27287,-5.83376c2.37408,-3.43495 3.36203,-7.32345 3.36203,-7.32345c0,0 -2.25785,1.45692 -4.30355,1.93842c-4.3137,1.01533 -6.52796,-0.72255 -6.52796,-0.72255c0,0 12.46772,-11.83454 12.88655,-30.07126c0.63044,-27.45079 36.44686,-32.62132 47.55961,-22.48447c14.57823,13.298 17.33031,33.24853 10.75069,49.87485c-10.75497,27.17724 -10.72754,29.30039 -27.67802,34.77178c-23.94021,7.72758 -36.72982,-5.82787 -36.72982,-5.82787c0,0 3.1996,-1.88238 5.72871,-5.87037z" fill="#ecec68" stroke="#0d0d00" stroke-width="1.75" stroke-linecap="butt"/><g stroke-linecap="butt"><path d="M333.91472,203.33423c0,0 0.18426,-15.96987 0.52629,-33.71738c0.46217,-23.98109 -8.44486,-60.87338 16.50243,-48.29548c6.54244,3.29856 9.72488,15.61156 9.42021,26.8707c-0.30286,11.192 -3.36584,21.75094 -3.36584,21.75094c0,0 -0.72521,11.4362 -1.47915,17.26859c-0.78145,6.04504 -3.8376,17.97591 -3.8376,17.97591z" fill="#ecec68" stroke="#0d0d00" stroke-width="1.75"/><path d="M343.63155,201.77744c4.81336,-0.74516 9.9322,3.2692 12.30129,8.26199c2.58121,5.43983 0.47373,13.48952 -1.90873,15.70148c-3.27247,3.03826 -9.99651,-1.05451 -9.99651,-1.05451c0,0 -5.63999,-22.09715 -0.39605,-22.90896z" fill="#ecec68" stroke="#0d0d00" stroke-width="1.75"/><path d="M353.10358,214.0274c0.01324,0.14841 0.33319,15.6103 -6.08274,15.38259c-8.56278,-0.3039 -8.99174,-7.87259 -8.99174,-7.87259c0,0 3.14149,-16.81683 9.31614,-17.03387c5.66766,-0.19922 5.75835,9.52388 5.75835,9.52388z" fill="#ecec68" stroke="#0d0d00" stroke-width="1.75"/><path d="M344.71772,202.10504c4.88617,0.49953 2.97386,9.85755 2.97386,9.85755c-0.01906,0.14427 -1.92602,13.57544 -7.6552,15.0503c-7.97093,2.05193 -6.76925,-9.66881 -6.76925,-9.66881c0,0 6.12734,-15.78325 11.4506,-15.23905z" fill="#ecec68" stroke="#0d0d00" stroke-width="1.75"/><path d="M346.56117,202.94982c1.68687,1.36906 -7.49376,4.33468 -10.00893,8.45426c-2.87612,3.90315 0.52445,9.06088 0.52445,9.06088c0,0 -14.06432,-0.32211 -7.13944,-14.34918c3.29872,-6.68188 13.78964,-5.46631 16.62392,-3.16599z" fill="#ecec68" stroke="#0d0d00" stroke-width="1.75"/><path d="M334.42116,206.35603l1.03183,-12.05643l17.01604,0.88245l-2.0893,14.83736z" fill="#ecec68" stroke="none" stroke-width="0"/><path d="M354.82505,220.19924c0,0 -2.11119,-1.69073 -5.41236,-1.8374c-2.62768,-0.11675 -6.01655,0.60276 -7.73181,0.16268c-4.1547,-1.06596 -10.59852,-6.0848 -10.59852,-6.0848l7.10876,-11.71268c0,0 7.0031,-1.64056 14.24371,5.94275c3.50815,3.67417 2.39022,13.52945 2.39022,13.52945z" fill="#ecec68" stroke="none" stroke-width="0"/><path d="M346.26769,154.55238c-7.68554,-0.4123 -12.92245,-3.48801 -12.92245,-3.48801l-0.38361,-9.09184l26.74535,2.85004l-0.15787,7.82734c0,0 -2.42344,2.48494 -13.28141,1.90246z" fill-opacity="0.70196" fill="#0d0d00" stroke="none" stroke-width="0"/><path d="M345.191,174.55092c-8.46091,-0.92555 -11.03986,-3.08626 -11.03986,-3.08626l-0.20965,-9.0733c0,0 3.49602,3.16369 11.29296,4.01925c8.64478,0.9486 12.22332,-1.53995 12.22332,-1.53995l-0.53723,8.21582c0,0 -2.39432,2.48562 -11.72954,1.46443z" fill-opacity="0.70196" fill="#0d0d00" stroke="none" stroke-width="0"/><path d="M344.1724,197.86015c-7.74903,-0.84969 -10.15793,-2.38888 -10.15793,-2.38888l-0.1118,-9.06287c0,0 3.24081,2.5331 10.38171,3.31875c7.91741,0.87108 10.92759,-1.04798 10.92759,-1.04798l-0.78191,8.16311c0,0 -1.70788,1.95538 -10.25766,1.01788z" fill-opacity="0.70196" fill="#0d0d00" stroke="none" stroke-width="0"/><path d="M346.28303,150.60915c-8.16764,-0.23116 -12.67423,-2.14987 -12.71823,-2.98671c-0.63344,-12.04587 -3.42242,-23.10567 1.28649,-27.18509c2.6694,-2.31256 9.61458,-2.3819 16.09217,0.88396c5.39406,2.71958 10.78651,14.82697 9.36618,26.94429c-0.02483,0.21186 -2.27956,2.67601 -14.02661,2.34355z" fill="#9b9b44" stroke="#0d0d00" stroke-width="1.75"/></g><g stroke-linecap="butt"><path d="M290.15727,205.65963c0,0 -3.05616,-11.93087 -3.8376,-17.97591c-0.75395,-5.83239 -1.47915,-17.26859 -1.47915,-17.26859c0,0 -3.06299,-10.55894 -3.36584,-21.75094c-0.30467,-11.25914 2.87778,-23.57214 9.42022,-26.87071c24.94729,-12.5779 16.04027,24.31439 16.50243,48.29548c0.34203,17.7475 0.52629,33.71738 0.52629,33.71738z" fill="#ecec68" stroke="#0d0d00" stroke-width="1.75"/><path d="M298.2068,202.24955c5.24394,0.81181 -0.39606,22.90896 -0.39606,22.90896c0,0 -6.72404,4.09278 -9.99651,1.05451c-2.38245,-2.21195 -4.48993,-10.26164 -1.90872,-15.70147c2.36909,-4.99279 7.48792,-9.00716 12.30129,-8.262z" fill="#ecec68" stroke="#0d0d00" stroke-width="1.75"/><path d="M294.49307,204.97564c6.17465,0.21704 9.31614,17.03387 9.31614,17.03387c0,0 -0.42896,7.5687 -8.99174,7.8726c-6.41593,0.22771 -6.09598,-15.23418 -6.08274,-15.38259c0,0 0.09068,-9.72309 5.75834,-9.52388z" fill="#ecec68" stroke="#0d0d00" stroke-width="1.75"/><path d="M297.12057,202.57714c5.32326,-0.54421 11.4506,15.23904 11.4506,15.23904c0,0 1.20168,11.72075 -6.76925,9.66882c-5.72918,-1.47486 -7.63615,-14.90603 -7.65521,-15.0503c0,0 -1.91231,-9.35802 2.97386,-9.85755z" fill="#ecec68" stroke="#0d0d00" stroke-width="1.75"/><path d="M295.27718,203.42191c2.83427,-2.30032 13.32519,-3.51589 16.62391,3.16599c6.92489,14.02707 -7.13944,14.34919 -7.13944,14.34919c0,0 3.40057,-5.15773 0.52445,-9.06088c-2.51517,-4.11959 -11.69579,-7.08521 -10.00893,-8.45427z" fill="#ecec68" stroke="#0d0d00" stroke-width="1.75"/><path d="M291.4586,210.4915l-2.08931,-14.83735l17.01605,-0.88245l1.03183,12.05643z" fill="#ecec68" stroke="none" stroke-width="0"/><path d="M287.01329,220.67134c0,0 -1.11792,-9.85527 2.39022,-13.52944c7.24061,-7.5833 14.24371,-5.94275 14.24371,-5.94275l7.10876,11.71268c0,0 -6.44383,5.01884 -10.59852,6.0848c-1.71525,0.44008 -5.10412,-0.27943 -7.7318,-0.16268c-3.30117,0.14668 -5.41236,1.8374 -5.41236,1.8374z" fill="#ecec68" stroke="none" stroke-width="0"/><path d="M282.2892,153.12205l-0.15787,-7.82734l26.74535,-2.85004l-0.38361,9.09183c0,0 -5.23692,3.07571 -12.92245,3.488c-10.85798,0.58249 -13.28142,-1.90246 -13.28142,-1.90246z" fill-opacity="0.70196" fill="#0d0d00" stroke="none" stroke-width="0"/><path d="M284.91778,173.55861l-0.53724,-8.21582c0,0 3.57854,2.48855 12.22332,1.53995c7.79694,-0.85556 11.29296,-4.01926 11.29296,-4.01926l-0.20965,9.0733c0,0 -2.57896,2.16071 -11.03986,3.08626c-9.33522,1.0212 -11.72953,-1.46443 -11.72953,-1.46443z" fill-opacity="0.70196" fill="#0d0d00" stroke="none" stroke-width="0"/><path d="M287.40826,197.31438l-0.78191,-8.1631c0,0 3.01019,1.91907 10.9276,1.04799c7.1409,-0.78565 10.3817,-3.31875 10.3817,-3.31875l-0.1118,9.06287c0,0 -2.4089,1.53919 -10.15793,2.38888c-8.54978,0.9375 -10.25766,-1.01788 -10.25766,-1.01788z" fill-opacity="0.70196" fill="#0d0d00" stroke="none" stroke-width="0"/><path d="M281.52871,148.73764c-1.42033,-12.11732 3.97212,-24.22471 9.36618,-26.94429c5.53409,-2.79017 11.90224,-3.64596 14.57628,-2.24832c5.97719,3.12408 3.48812,15.50895 2.80238,28.54945c-0.04401,0.83684 -4.55059,2.75555 -12.71824,2.98671c-11.74706,0.33246 -14.00177,-2.13169 -14.02661,-2.34355z" fill="#9b9b44" stroke="#0d0d00" stroke-width="1.75"/></g><g stroke="#0d0d00" stroke-linecap="butt"><path d="M343.28371,168.52624c1.57051,0.61318 8.28838,9.05799 8.28838,9.05799c0,0 11.70608,5.3101 12.42364,28.4523c0.59213,19.09689 -6.03411,34.31567 -6.03411,34.31567c0,0 -1.54311,18.66129 -4.4982,32.98192c-2.95508,14.32063 -9.77938,36.72745 -9.77938,36.72745l-23.53796,-0.71747l0.07992,-132.64153c0,0 14.92481,-11.3517 23.05772,-8.17632z" fill="#494920" stroke-width="1.75"/><path d="M319.85249,305.29258v-3.32279c0,0 27.48357,-0.6001 27.98562,0c0.93972,1.12327 -0.81595,3.43621 -3.17871,4.19494z" fill="#080d00" stroke-width="1.5"/></g><g stroke="#0d0d00" stroke-linecap="butt"><path d="M297.64475,168.27624c8.13291,-3.17538 23.05772,8.17632 23.05772,8.17632l0.07992,132.64153l-23.53796,0.71747c0,0 -6.8243,-22.40682 -9.77938,-36.72745c-2.95509,-14.32064 -4.4982,-32.98192 -4.4982,-32.98192c0,0 -6.62624,-15.21878 -6.03411,-34.31568c0.71756,-23.14219 12.42364,-28.4523 12.42364,-28.4523c0,0 6.71787,-8.44481 8.28838,-9.05799z" fill="#494920" stroke-width="1.75"/><path d="M320.54212,307.57133l0.15642,14.66283c0,0 -2.13105,3.33828 -9.57044,6.63437c-13.16886,5.83458 -24.81656,5.60696 -30.80438,4.24795c-3.1241,-0.83013 -6.25925,-6.65632 -2.7366,-11.22699c3.1823,-4.12908 10.60019,-4.84717 15.0485,-8.02239c3.86947,-2.76205 5.72916,-5.94676 5.72916,-5.94676z" fill="#ffffd5" stroke-width="1.5"/><path d="M298.36476,303.9663l22.55234,0.18266l-0.21858,14.13117c0,0 -19.29936,15.66566 -40.37482,10.88232c-3.12409,-0.83014 -5.56047,-4.33037 -2.03782,-8.90104c3.1823,-4.12908 9.90142,-7.17312 14.34973,-10.34834c3.86947,-2.76205 5.72916,-5.94677 5.72916,-5.94677z" fill="#0d0d00" stroke-width="1.5"/><path d="M293.59031,301.71979c0.50205,-0.6001 27.48562,0 27.48562,0v3.32279c0,0 -23.44233,1.32909 -24.80692,0.89088c0,0 -5.36842,-2.3404 -2.6787,-4.21367z" fill="#080d00" stroke-width="1.5"/></g><path d="M342.39707,308.17037c0,0 1.85969,3.18471 5.72916,5.94676c4.44831,3.17522 11.8662,3.89332 15.0485,8.02239c3.52265,4.57067 0.3875,10.39685 -2.7366,11.22699c-5.98782,1.35901 -17.63553,1.58663 -30.80439,-4.24795c-7.43939,-3.29608 -9.57043,-6.63436 -9.57043,-6.63436l0.15642,-14.66283z" fill="#ffffd5" stroke="#0d0d00" stroke-width="1.5" stroke-linecap="butt"/><path d="M342.39707,304.2163c0,0 1.85969,3.18472 5.72916,5.94677c4.44831,3.17523 11.16743,6.21927 14.34973,10.34834c3.52265,4.57066 1.08627,8.0709 -2.03782,8.90104c-21.07546,4.78335 -40.37482,-10.88232 -40.37482,-10.88232l-0.21858,-14.13117l22.55234,-0.18266z" fill="#0d0d00" stroke="#0d0d00" stroke-width="1.5" stroke-linecap="butt"/><path d="M303.78505,203.29678l-1,-20.1721h35.96121l-0.8,20.63442c0,0 -11.12869,1.61816 -17.03787,1.61816c-6.07339,0 -17.12334,-2.08048 -17.12334,-2.08048z" fill="#494920" stroke="none" stroke-width="0" stroke-linecap="butt"/><path d="M337.61107,203.09232c0,0 -7.8499,2.22242 -17.37731,2.30103c-8.35113,0.06889 -16.04309,-2.30103 -16.04309,-2.30103" fill="none" stroke="#0d0d00" stroke-width="1.5" stroke-linecap="round"/><path d="M320.75826,132.32217c0.06985,-0.16235 0.107,-0.24689 0.107,-0.24689v0.00001h18.75144c0,0 1.37601,4.76768 3.85007,11.32321c2.57928,6.83438 7.10244,15.61194 9.06639,22.95627c1.5955,5.96648 -1.01543,8.66603 -1.01543,8.66603c0,0 -6.00131,9.92318 -30.24426,10.29841c-0.16929,0.00506 -0.34116,0.00717 -0.51565,0.00629c-0.17397,0.00087 -0.34535,-0.00124 -0.51416,-0.00628c-24.24346,-0.37507 -30.24486,-10.29841 -30.24486,-10.29841c0,0 -2.61094,-2.69955 -1.01543,-8.66603c1.96395,-7.34433 6.48711,-16.12189 9.06639,-22.95627c2.47406,-6.55554 3.85007,-11.32321 3.85007,-11.32321h18.75144v-0.00001c0,0 0.03714,0.08454 0.10699,0.24689z" fill="#9b9b44" stroke="#0d0d00" stroke-width="1.75" stroke-linecap="butt"/><path d="M289.41605,173.66525c0.79186,0.40108 6.00669,6.85483 27.86798,7.022c0.79943,-0.02557 3.08803,-0.01009 3.34889,-0.0071c0.26076,-0.003 2.54898,-0.01847 3.34835,0.0071c21.86145,-0.16714 27.07632,-6.62091 27.86818,-7.022c1.45187,-0.73539 4.78457,7.29166 4.78457,7.29166c0,0 -12.05131,10.00632 -35.36556,9.62753c-0.2124,-0.00345 -0.42435,-0.01024 -0.63567,-0.02027c-0.21135,0.01003 -0.42332,0.01682 -0.63576,0.02027c-23.31425,0.37879 -33.19451,-12.49495 -33.19451,-12.49495c0,0 1.16167,-5.15963 2.61353,-4.42424z" fill="#0d0d00" stroke="none" stroke-width="0" stroke-linecap="butt"/><path d="M313.15504,190.13471c-1.07703,-2.16887 -1.10216,-8.29971 -0.33441,-10.13225c0.79267,-1.89198 13.79684,-1.87059 15.24756,-0.55876c1.39648,1.26279 1.05602,9.73868 -0.16719,11.06355c-1.13434,1.22859 -13.95538,0.94675 -14.74601,-0.37252z" fill="#ffffd5" stroke="#0d0d00" stroke-width="1.5" stroke-linecap="butt"/><path d="M296.78557,125.76595c0.32537,-1.24761 16.56815,-13.38279 23.45285,-8.33304c9.55264,7.00662 9.91519,32.29449 3.61552,33.37236c-25.44486,6.98503 -30.69159,3.79904 -33.59609,-0.36327c-3.29266,-4.71855 -1.59525,-9.6415 0.67485,-13.06499c2.2701,-3.42349 4.02537,-4.60358 5.85287,-11.61106z" fill="#9b9b44" stroke="#0d0d00" stroke-width="1.5" stroke-linecap="butt"/><path d="M351.06393,150.44189c-2.9045,4.16231 -8.15123,7.3483 -33.59609,0.36327c-6.29967,-1.07787 -5.93713,-26.36574 3.61551,-33.37236c6.8847,-5.04976 23.12747,7.08544 23.45284,8.33304c1.82749,7.00748 2.71566,6.87985 5.85289,11.61106c2.2701,3.42348 3.96751,8.34643 0.67484,13.06499z" fill="#9b9b44" stroke="#0d0d00" stroke-width="1.5" stroke-linecap="butt"/><path d="M313.0645,166.72672l2.64991,-25c0,0 1.91704,-23.10385 9.22314,-21.5345c4.76222,1.02292 16.30428,30.0345 16.30428,30.0345c0,0 -9.95417,1.21223 -8.64532,4.11764c0.69307,1.53849 4.1497,1.06187 5.45511,3.45045c1.75592,3.21291 2.66024,6.93191 2.66024,6.93191z" fill="#9b9b44" stroke="none" stroke-width="0" stroke-linecap="butt"/><path d="M300.60992,164.72672c0,0 0.90432,-3.719 2.66024,-6.93191c1.30541,-2.38858 4.76205,-1.91196 5.45511,-3.45045c1.30884,-2.90541 -8.64532,-4.11764 -8.64532,-4.11764c0,0 11.54207,-29.01159 16.30428,-30.03451c7.3061,-1.56934 9.22315,21.53451 9.22315,21.53451l2.6499,25z" fill="#9b9b44" stroke="none" stroke-width="0" stroke-linecap="butt"/><path d="M291.75588,129.4786c0,0 -2.15614,-9.94773 28,-10.25c34.78554,-0.34867 31.5,10.5 31.5,10.5c0,0 -15.47005,-1.51702 -28.25056,-1.61555c-25.48246,-0.19647 -31.24944,1.36555 -31.24944,1.36555z" fill="#9b9b44" stroke="none" stroke-width="0" stroke-linecap="butt"/><path d="M320.13445,120.88862v25.65" fill="none" stroke="#0d0d00" stroke-width="1" stroke-linecap="round"/><path d="M326.497,132.02194c0,1.27025 -0.60788,1.58571 -1.54452,1.58571c-0.93664,0 -1.84736,-0.31546 -1.84736,-1.58571c0,-1.27025 0.7593,-1.87143 1.69594,-1.87143c0.93664,0 1.69594,0.60117 1.69594,1.87143z" fill="#ffffd5" stroke="#0d0d00" stroke-width="1" stroke-linecap="butt"/><path d="M325.00293,137.69332c0.93663,0 1.84736,0.45831 1.84736,1.72857c0,1.27025 -0.7593,1.58571 -1.69594,1.58571c-0.93664,0 -1.69594,-0.31546 -1.69594,-1.58571c0,-1.27025 0.60787,-1.72857 1.54451,-1.72857z" fill="#ffffd5" stroke="#0d0d00" stroke-width="1" stroke-linecap="butt"/><path d="M316.5688,117.97575l8.06707,-2.18397c0,0 11.58422,-0.76407 15.1265,7.27918c2.56293,5.81948 -3.86724,12.64744 -3.86724,12.64744z" fill="#c1c155" stroke="#0d0d00" stroke-width="1.5" stroke-linecap="butt"/><path d="M304.11671,135.71839c0,0 -5.68017,-7.32796 -3.11724,-13.14744c3.54228,-8.04325 14.3765,-6.77918 14.3765,-6.77918l7.33979,2.72942z" fill="#c1c155" stroke="#0d0d00" stroke-width="1.5" stroke-linecap="butt"/><path d="M314.83137,94.64589h11.99007l1.29622,21.45252c0,0 -3.04103,4.91539 -7.45329,4.79603c-4.43,-0.11983 -7.12923,-4.79603 -7.12923,-4.79603z" fill="#ecec68" stroke="#0d0d00" stroke-width="1.5" stroke-linecap="butt"/><path d="M310.66796,60.61163c-5.66528,1.93571 -10.70456,14.98092 -15.75939,12.05734c-5.15688,-2.98261 3.13599,-17.47559 11.86726,-22.22433c6.95618,-3.78333 15.57674,-3.36302 16.84497,0.34871c1.26824,3.71174 -7.28757,7.88257 -12.95285,9.8183z" fill="#6e6e30" stroke="#0d0d00" stroke-width="1.35" stroke-linecap="butt"/><path d="M339.64847,30.41933c0,0 -0.24648,3.57753 -2.08233,13.19216c-1.16722,6.11292 -3.99914,14.33664 -3.99914,14.33664l-5.77123,-1.812c0,0 3.68453,-7.92154 5.12788,-13.92499c2.53962,-10.56321 1.39288,-15.06204 2.9124,-16.93586c1.21358,-1.49652 7.69215,0.81209 15.17266,2.86566c7.38535,2.02746 15.79102,3.76277 14.3276,8.06182c-2.33231,6.85163 -25.68784,-5.78342 -25.68784,-5.78342z" fill="#0d0d00" stroke="none" stroke-width="NaN" stroke-linecap="butt"/><path d="M302.80448,30.41933c0,0 -23.35554,12.63504 -25.68785,5.78342c-1.46341,-4.29907 6.94227,-6.03438 14.32761,-8.06183c7.48052,-2.05358 13.95908,-4.3622 15.17266,-2.86566c1.51951,1.87383 0.37278,6.37266 2.9124,16.93586c1.44335,6.00345 5.12787,13.92499 5.12787,13.92499l-5.77123,1.81201c0,0 -2.83192,-8.22371 -3.99914,-14.33665c-1.83587,-9.61465 -2.08233,-13.19216 -2.08233,-13.19216z" fill="#0d0d00" stroke="none" stroke-width="NaN" stroke-linecap="butt"/><path d="M292.69347,88.66284c3.51948,-2.88817 3.78337,1.82342 6.66348,4.27231c2.88012,2.4489 2.84571,6.77942 -0.77584,8.73224c-4.26072,2.29746 -9.62975,6.54239 -9.62975,6.54239c0,0 -5.01903,-12.35735 3.74211,-19.54694z" fill="#ecec68" stroke="#0d0d00" stroke-width="1.75" stroke-linecap="butt"/><path d="M292.45707,99.83569c1.18589,-5.48915 6.13854,-7.36827 10.65306,-5.50476c4.51452,1.86351 6.31013,7.10249 2.76817,10.83187c-1.88683,1.98668 -6.9785,8.87792 -6.9785,8.87792c0,0 -7.91361,-5.56337 -6.44273,-14.20502z" fill="#ecec68" stroke="#0d0d00" stroke-width="1.75" stroke-linecap="butt"/><path d="M343.0718,101.6674c-3.62155,-1.95282 -3.65595,-6.28334 -0.77584,-8.73224c2.88012,-2.44889 3.144,-7.16048 6.66348,-4.27231c8.76114,7.18959 3.74211,19.54695 3.74211,19.54695c0,0 -5.36904,-4.24494 -9.62975,-6.5424z" fill="#ecec68" stroke="#0d0d00" stroke-width="1.75" stroke-linecap="butt"/><path d="M335.77461,105.16287c-3.54196,-3.72937 -1.74635,-8.96836 2.76817,-10.83187c4.51452,-1.86351 9.46719,0.01561 10.65307,5.50477c1.84978,8.5622 -6.44274,14.20501 -6.44274,14.20501c0,0 -2.81144,-4.49035 -6.9785,-8.87791z" fill="#ecec68" stroke="#0d0d00" stroke-width="1.75" stroke-linecap="butt"/><path d="M307.99557,111.24102c-5.69661,-2.5635 -10.49163,-5.42655 -13.13505,-11.89723c-2.08926,-5.11419 -1.85513,-10.80292 -1.46639,-16.6843c0.38849,-5.87761 1.11268,-11.94741 4.75897,-18.47579c7.00911,-12.54918 21.48881,-12.65062 22.61273,-12.63931c1.12394,0.01132 15.72518,0.09072 22.73396,12.63931c3.64629,6.52837 4.37048,12.59819 4.75897,18.47579c0.38873,5.88138 0.62286,11.5701 -1.46639,16.6843c-2.64342,6.47066 -7.43844,9.33373 -13.13504,11.89723c-5.39641,2.42841 -11.39515,3.3438 -13.0226,3.29799c-1.52032,-0.04279 -7.24284,-0.86962 -12.63917,-3.29799z" fill="#ecec68" stroke="#0d0d00" stroke-width="1.75" stroke-linecap="butt"/><path d="M337.4746,105.18565l8.74186,-17.74207c0,0 1.33895,0.74202 2.33451,1.68205c1.22527,1.15694 2.19507,2.61381 2.71878,3.35639c0.93607,1.32725 0.60323,2.98194 0.60323,2.98194c0,0 0.82094,3.68701 -0.32842,5.43889c-0.29079,0.44323 -1.40102,-0.38788 -2.11626,0.17353c-0.98347,0.77194 -1.67813,2.9861 -2.62898,3.95188c-2.85844,2.90329 -4.92991,6.11192 -4.92991,6.11192z" fill="#ecec68" stroke="none" stroke-width="0" stroke-linecap="butt"/><path d="M299.95018,111.14017c0,0 -2.23815,-3.20863 -5.09658,-6.11192c-0.95086,-0.96578 -1.64553,-3.17994 -2.62898,-3.95188c-0.71524,-0.56141 -1.82546,0.26971 -2.11625,-0.17352c-1.14935,-1.7519 -0.32842,-5.4389 -0.32842,-5.4389c0,0 -0.33284,-1.65468 0.60323,-2.98194c0.52373,-0.74258 1.4935,-2.19944 2.71877,-3.35639c0.99555,-0.94003 2.33449,-1.68205 2.33449,-1.68205l8.74186,17.74207z" fill="#ecec68" stroke="none" stroke-width="0" stroke-linecap="butt"/><g stroke="#0d0d00" stroke-width="1" stroke-linecap="butt"><g fill="#c5c556"><path d="M303.59126,55.65491c0,0 2.1999,-3.43967 4.49335,-4.29272c2.29346,-0.85304 3.54807,-0.03856 3.81197,1.20361c0.26388,1.24217 0.00891,3.00261 -2.28453,3.85563c-2.29344,0.85303 -6.02079,-0.76652 -6.02079,-0.76652z"/><path d="M297.00077,58.10616c-0.2639,-1.24217 0.11734,-2.60579 2.41078,-3.45883c2.29344,-0.85304 5.8945,0.36972 5.8945,0.36972c0,0 -2.10792,3.4541 -4.40136,4.30715c-2.29348,0.85304 -3.64005,0.02414 -3.90395,-1.21805z"/></g><g fill="#c5c556"><path d="M304.29517,54.61365c0,0 3.42755,1.41797 3.83806,3.35026c0.41053,1.93229 -0.87709,3.09874 -2.35145,3.64712c-1.47437,0.54838 -3.06594,0.38288 -3.47645,-1.5494c-0.41051,-1.93228 1.98985,-5.44796 1.98985,-5.44796z"/><path d="M300.58009,52.67929c-0.41053,-1.93228 1.06108,-3.06987 2.53542,-3.61824c1.47437,-0.54838 3.17234,-0.4604 3.58286,1.47187c0.41052,1.93227 -2.09628,5.5255 -2.09628,5.5255c0,0 -3.61153,-1.44684 -4.02204,-3.37913z"/></g><path d="M305.00861,57.97168c-1.72777,0.64264 -3.37909,-0.01645 -3.68836,-1.47213c-0.30926,-1.45568 0.84068,-3.1567 2.56844,-3.79933c1.72777,-0.64265 3.37909,0.01646 3.68834,1.47214c0.30928,1.4557 -0.84067,3.15668 -2.56843,3.79931z" fill="#ffffd5"/></g><path d="M339.28519,98.45764c0,0 0.28335,5.35265 -6.20564,5.709c-5.60206,0.30765 -7.30689,-0.79593 -12.06372,-0.84205c-5.44088,-0.05275 -9.16016,1.6244 -13.99304,0.55309c-4.23237,-0.9382 -4.6569,-5.42348 -4.6569,-5.42348" fill="none" stroke="#0d0d00" stroke-width="1" stroke-linecap="round"/><path d="M339.4597,87.14559c0,1.35406 -2.42468,4.46772 -8.74988,5.01552c-2.45304,0.21245 -6.65856,-1.12685 -9.55929,-1.12685c-2.0021,0 -7.98178,1.23955 -9.79138,1.13459c-7.57266,-0.43924 -9.48996,-3.50651 -9.48996,-5.02326c0,-1.75491 2.15376,-5.30589 11.57843,-5.4893c0.66747,-0.01299 7.34043,1.43859 8.02696,1.43859c1.30193,0 4.67929,-0.94821 5.90666,-0.90258c8.55851,0.31814 12.07846,3.30978 12.07846,4.95329z" fill="#c4c44a" stroke="none" stroke-width="0" stroke-linecap="butt"/><path d="M296.15648,90.3901c0.67719,-2.43194 4.70912,-3.43354 9.00552,-2.23715c4.29643,1.1964 7.23039,4.13771 6.55318,6.56964c-0.67719,2.43195 -5.10477,2.63807 -9.40119,1.44168c-4.29642,-1.19638 -6.83474,-3.34225 -6.15755,-5.77418z" fill="#a5a549" stroke="none" stroke-width="0" stroke-linecap="butt"/><path d="M308.04111,64.99797c5.11266,-0.13214 7.19593,6.88709 7.19593,6.88709c0,0 -3.2875,-3.65015 -7.01604,-3.36173c-3.99045,0.3087 -7.42398,4.00186 -7.42398,4.00186c0,0 2.59195,-7.407 7.2441,-7.52723z" fill="#0d0d00" stroke="none" stroke-width="0" stroke-linecap="butt"/><path d="M296.86816,85.64746c-0.42025,-5.37428 4.59959,-11.44698 10.65589,-11.44698c6.05627,0 10.45839,5.9154 9.91551,12.8533c-0.21881,3.79927 -5.03678,7.08095 -9.35338,6.82422c-7.35305,-0.43734 -10.83999,-3.39669 -11.21799,-8.23053z" fill="#0d0d00" stroke="#0d0d00" stroke-width="1" stroke-linecap="butt"/><g fill="#0d0d00" stroke="none" stroke-width="0" stroke-linecap="butt"><path d="M302.98062,76.5469l-4.0682,4.44513l-1.50302,-6.67942z"/><path d="M299.71942,80.55361l-1.89128,6.07368l-2.45659,-7.00527z"/><path d="M300.09738,78.00705l-2.47667,4.55471l-1.34603,-5.53611z"/></g><path d="M345.62144,90.39011c0.67719,2.43193 -1.86113,4.57781 -6.15755,5.77419c-4.29642,1.19639 -8.724,0.99027 -9.40119,-1.44168c-0.6772,-2.43193 2.25676,-5.37325 6.55318,-6.56965c4.2964,-1.19639 8.32833,-0.19479 9.00552,2.23716z" fill="#a5a549" stroke="none" stroke-width="0" stroke-linecap="butt"/><path d="M344.90969,85.64753c-0.378,4.83384 -3.86494,7.79319 -11.21799,8.23052c-4.3166,0.25673 -9.13456,-3.02495 -9.35338,-6.82422c-0.54288,-6.9379 3.73424,-12.72829 9.79051,-12.72829c6.0563,0 11.20114,5.94769 10.78089,11.32197z" fill="#0d0d00" stroke="#080d00" stroke-width="1" stroke-linecap="butt"/><g fill="#0d0d00" stroke="none" stroke-width="0" stroke-linecap="butt"><path d="M344.36847,74.31261l-1.50302,6.67942l-4.0682,-4.44513z"/><path d="M346.4064,79.62202l-2.4566,7.00527l-1.89127,-6.07368z"/><path d="M345.50322,77.02572l-1.34604,5.53611l-2.47667,-4.55471z"/></g><g stroke="none" stroke-width="0" stroke-linecap="butt"><path d="M309.68235,76.8966c0.37405,0 0.72805,0.07733 1.06002,0.21724c0,1.92059 0,3.84119 0,5.76179c-0.92138,0 -1.84276,0 -2.76414,0c0,-1.81707 0,-3.63418 0,-5.45125c0.52448,-0.33204 1.09855,-0.52779 1.70412,-0.52779z" fill="#6e6e30"/><path d="M314.25552,82.8756c-0.62707,0 -1.25411,0 -1.88117,0c-0.25768,0 -0.51534,0 -0.77302,0c0,-1.82822 0,-3.65644 0,-5.48464c1.59126,1.04867 2.56604,3.55769 2.65421,5.48464z" fill="#6e6e30"/><path d="M304.88721,82.8756c0.0537,-1.70729 0.99842,-3.86835 2.40395,-5.06909c0,1.6897 0,3.37939 0,5.06909c-0.80131,0 -1.60264,0 -2.40395,0z" fill="#6e6e30"/><path d="M309.29938,88.31908h-0.00001c-0.49738,0 -0.95954,-0.09433 -1.38178,-0.26444c0.02704,-0.81992 0.06065,-1.64478 0.06065,-2.46276c0,-0.64585 0,-1.29174 0,-1.93761c0.92138,0 1.84276,0 2.76414,0c0,0.75204 0,1.50408 0,2.25612c0,0.72787 -0.03379,1.45195 -0.07269,2.1736c-0.43083,0.15174 -0.89055,0.23514 -1.37029,0.23514z" fill="#6e6e30"/><path d="M312.20252,83.65421c0.60185,0 1.23472,0 1.878,0c-0.11174,1.74691 -1.17726,3.42047 -2.71171,4.20319c0.0336,-0.64683 0.06069,-1.29566 0.06069,-1.94708c0,-0.75204 0,-1.5041 0,-2.25613c0.25768,0 0.51534,0 0.77302,0z" fill="#6e6e30"/><path d="M304.90083,83.65417c0.79678,0 1.59355,0 2.39033,0c0,0.64585 -0.02373,3.41517 -0.04735,4.15235c-1.36874,-0.80861 -2.21806,-2.46297 -2.34297,-4.15231z" fill="#6e6e30"/><path d="M314.45339,80.51041c0.0244,0.41957 -0.59782,0.93231 -1.33303,0.98722c-0.73519,0.05491 -1.58308,-0.55574 -1.60749,-0.97535c-0.0244,-0.4196 0.73018,-0.88061 1.36579,-0.88316c0.63561,-0.00257 1.55032,0.45168 1.57472,0.87126z" fill="#ffffff"/></g><g stroke="none" stroke-width="0" stroke-linecap="butt"><path d="M331.59551,77.17982c0.60557,0 1.17965,0.19574 1.70412,0.52779c0,1.81707 0,3.63418 0,5.45125c-0.92138,0 -1.84276,0 -2.76414,0c0,-1.92059 0,-3.84119 0,-5.76179c0.33197,-0.1399 0.68596,-0.21724 1.06001,-0.21724z" fill="#6e6e30"/><path d="M329.67661,77.67427c0,1.82822 0,3.65644 0,5.48464c-0.25768,0 -0.51534,0 -0.77302,0c-0.62706,0 -1.25411,0 -1.88118,0c0.08817,-1.92697 1.06295,-4.43597 2.6542,-5.48464z" fill="#6e6e30"/><path d="M333.98672,83.15887c0,-1.6897 0,-3.37939 0,-5.06909c1.40553,1.20073 2.35025,3.3618 2.40395,5.06909c-0.80131,0 -1.60264,0 -2.40395,0z" fill="#6e6e30"/><path d="M331.97848,88.6024c-0.47973,0 -0.93946,-0.0834 -1.37029,-0.23514c-0.0389,-0.72164 -0.07269,-1.44572 -0.07269,-2.17359c0,-0.75204 0,-1.5041 0,-2.25613c0.92138,0 1.84276,0 2.76414,0c0,0.64585 0,1.29174 0,1.93761c0,0.81798 0.03361,1.64284 0.06065,2.46276c-0.42224,0.17011 -0.8844,0.26444 -1.38178,0.26444h-0.00001z" fill="#6e6e30"/><path d="M329.07534,83.9375c0.25768,0 0.51534,0 0.77302,0c0,0.75204 0,1.5041 0,2.25613c0,0.65142 0.02709,1.30025 0.06069,1.94708c-1.53445,-0.78271 -2.59997,-2.45627 -2.71171,-4.20319c0.64328,0 1.27615,0 1.878,0z" fill="#6e6e30"/><path d="M336.37709,83.93758c-0.12491,1.68936 -0.97423,3.3437 -2.34297,4.15231c-0.02361,-0.73718 -0.04735,-1.47704 -0.04735,-2.21473c0,-0.64585 0,-1.29174 0,-1.93761c0.79678,0 1.59355,0 2.39033,0z" fill="#6e6e30"/><path d="M333.95376,80.79363c0.0244,-0.41957 0.93911,-0.87382 1.57472,-0.87126c0.63562,0.00256 1.39019,0.46356 1.36579,0.88316c-0.02441,0.4196 -0.8723,1.03025 -1.60749,0.97535c-0.73521,-0.05491 -1.35742,-0.56764 -1.33302,-0.98722z" fill="#ffffff"/></g><path d="M317.46549,52.07952c0,0 2.71163,-2.94375 5.88686,-5.05868c2.78312,-1.85377 6.95657,-3.28975 7.08493,-3.43537c0.35924,-0.40747 -0.21588,-1.72306 -1.18342,-2.69804c-0.98301,-0.99052 -2.36171,-1.63738 -2.36171,-1.63738c0,0 5.40022,-3.33025 13.27454,0.24367c6.8381,3.1036 8.28309,8.4005 8.28309,8.4005c0,0 1.24854,-1.92618 1.58083,-3.41165c0.70563,-3.15466 0.38424,-5.26056 0.38424,-5.26056c0,0 5.49086,-0.03727 7.65901,10.6043c1.43484,7.04241 -0.29947,12.78699 -0.29947,12.78699c0,0 1.46128,-0.34304 2.31671,-0.83855c0.85541,-0.49549 2.48257,-1.94144 2.48257,-1.94144c0,0 0.22463,12.27246 -14.17296,16.34983c-13.64913,3.86541 -25.46746,-3.41444 -25.46746,-3.41444" fill="#ecec68" stroke="#0d0d00" stroke-width="1.75" stroke-linecap="round"/></g></g></svg>