<svg version="1.1" xmlns="http://www.w3.org/2000/svg" xmlns:xlink="http://www.w3.org/1999/xlink" width="118.6609" height="107.37629" viewBox="0,0,118.6609,107.37629"><g transform="translate(-184.8723,-127.01461)"><g data-paper-data="{&quot;isPaintingLayer&quot;:true}" fill-rule="nonzero" stroke-linejoin="miter" stroke-miterlimit="10" stroke-dasharray="" stroke-dashoffset="0" style="mix-blend-mode: normal"><g data-paper-data="{&quot;index&quot;:null}" stroke-linecap="butt"><path d="M203.35124,209.54405c6.87139,-6.01316 10.27899,5.76176 17.16566,8.58578c5.58377,2.28974 11.501,-1.66911 11.501,-1.66911l6,4.41667c0,0 -8.25551,8.21796 -21.5,5.58333c-8.30273,-1.6516 -18.78523,-11.99986 -13.16667,-16.91667z" fill="#ecec68" stroke="#000000" stroke-width="2"/><path d="M206.94608,220.81132l-4.33946,-4.67008l8.14976,-7.57279l4.33946,4.67009z" fill="#000000" stroke="none" stroke-width="0"/><path d="M217.43217,226.60079l-5.50931,-2.08252l4.09743,-9.23928l4.50931,3.08252z" fill="#000000" stroke="none" stroke-width="0"/><path d="M230.69311,225.50025l-6.35739,1.72354l-1.57637,-8.46927l5.60739,-0.59853z" fill="#000000" stroke="none" stroke-width="0"/></g><g data-paper-data="{&quot;index&quot;:null}" stroke-linecap="butt"><path d="M254.58013,225.90617c-2.89096,0.56432 -6.55187,-3.14345 -7.46889,-7.84124c-0.91701,-4.69781 1.25709,-8.60665 4.14803,-9.17098c2.89096,-0.56432 6.42512,3.62391 7.34214,8.32173c0.91702,4.69782 -1.13035,8.12617 -4.0213,8.69049z" fill="#ecec68" stroke="#000000" stroke-width="2"/><path d="M248.95079,222.23433l9.41021,-1.43483c0,0 0.41568,4.30862 -3.51599,5.35946c-3.3774,0.90271 -5.89424,-3.92465 -5.89424,-3.92465z" fill="#000000" stroke="none" stroke-width="0"/><path d="M246.93134,215.27797l10.98841,-1.3783l0.69109,3.43713l-10.9583,1.84874z" fill="#000000" stroke="none" stroke-width="0"/></g><path d="M241.49348,225.92948c8.16615,-0.13998 9.94936,2.12573 8.5651,5.10799c-0.31292,0.67415 -2.25852,2.13538 -8.35773,1.80566c-6.6718,-0.36067 -9.29157,-0.91172 -9.29157,-1.65972c0,-1.57638 -0.72955,-3.24678 0.67809,-4.17864c1.25539,-0.83106 4.39253,-1.0065 8.40611,-1.0753z" data-paper-data="{&quot;index&quot;:null}" fill="#c5c556" stroke="#9b9b44" stroke-width="3" stroke-linecap="butt"/><path d="M231.0676,223.10336c-0.63114,-3.79957 5.56957,-17.33334 5.56957,-17.33334l17.34135,-0.45501c0,0 5.50702,15.1766 5.75519,17.06187c0.24816,1.88528 -6.60828,1.468 -13.83924,1.5624c-7.23095,0.09441 -14.65891,0.17518 -14.82687,-0.83594z" data-paper-data="{&quot;index&quot;:null}" fill="#000000" stroke="#6e6e30" stroke-width="3" stroke-linecap="butt"/><path d="M241.10889,225.17908c1.24424,-0.84896 4.48995,-1.28294 8.5168,-1.39286c8.1643,-0.22285 9.97042,2.02465 8.6165,5.02081c-0.30914,0.68412 -2.6605,1.90641 -8.57965,2.00551c-5.4114,0.09062 -9.05974,-0.94002 -9.06726,-1.68048c-0.01595,-1.57132 -0.87223,-3.00742 0.5136,-3.953z" data-paper-data="{&quot;index&quot;:null}" fill="#c5c556" stroke="#9b9b44" stroke-width="3" stroke-linecap="butt"/><g data-paper-data="{&quot;index&quot;:null}" stroke-linecap="butt"><path d="M240.07944,209.83223c2.9403,-0.17562 6.0218,3.06631 6.30718,7.84426c0.28541,4.77796 -2.33339,9.28259 -5.27365,9.45823c-2.9403,0.17562 -5.77907,-2.63272 -6.0645,-7.41068c-0.28541,-4.77796 2.09066,-9.71618 5.03096,-9.89181z" fill="#ecec68" stroke="#000000" stroke-width="2"/><path d="M240.91961,227.44566c-4.06951,-0.03555 -4.74318,-4.3114 -4.74318,-4.3114l9.47034,-0.96103c0,0 -1.23135,5.30298 -4.72718,5.27244z" fill="#000000" stroke="none" stroke-width="0"/><path d="M246.14239,218.89676l-11.07275,0.94689l-0.18926,-3.50078l10.98437,-1.40993z" fill="#000000" stroke="none" stroke-width="0"/></g><g><path d="M243.73327,211.22297c-47.23736,-0.30673 -56.59331,-28.72779 -56.59331,-28.72779c0,0 8.03026,-4.27443 12.72727,-11.05219c11.67637,-16.94646 17.34584,-43.11305 46.06105,-42.70445c27.49294,0.39121 33.10626,28.8336 43.94683,45.04434c4.90077,7.32846 11.7664,9.01028 11.7664,9.01028c0,0 -11.50382,28.73114 -57.90823,28.42981z" fill="#ecec68" stroke="none" stroke-width="0" stroke-linecap="butt"/><path d="M279.84422,192.04059c-2.60373,-0.02194 -4.69319,-2.56646 -4.66692,-5.68335c0.02625,-3.11688 2.15829,-5.62584 4.76203,-5.6039c2.60373,0.02194 4.69319,2.56645 4.66692,5.68334c-0.02625,3.11688 -2.15829,5.62585 -4.76202,5.60391z" data-paper-data="{&quot;index&quot;:null}" fill="#6e6e30" stroke="none" stroke-width="0" stroke-linecap="butt"/><path d="M195.95956,175.87487c2.20275,-2.08132 3.41308,-5.13235 5.34388,-7.38754c3.95711,-4.62192 6.67524,-15.05392 12.88483,-23.2905c7.76956,-10.30573 18.83777,-15.40032 18.83777,-15.40032c0,0 -15.22436,17.63262 -16.05273,35.86602c-1.44876,31.88938 16.38153,43.80624 16.38153,43.80624c0,0 -19.02768,-1.66296 -30.80196,-9.39504c-11.35149,-7.45442 -14.54527,-18.82134 -14.54527,-18.82134c0,0 4.32842,-1.95377 7.95196,-5.37753z" fill="#cbcb6a" stroke="none" stroke-width="0" stroke-linecap="butt"/><g data-paper-data="{&quot;index&quot;:null}" stroke="none" stroke-width="0" stroke-linecap="butt"><path d="M271.34866,141.11977c0,0 0.4973,-1.49938 1.14839,-3.67144c0.89258,-2.97759 2.51262,-7.06908 7.54136,-8.92247c6.3167,-2.32808 12.32378,0.67526 14.89166,3.49167c2.45161,2.68889 6.30997,8.97651 1.18365,17.31117c-2.81517,4.57707 -8.2971,5.87523 -12.01843,6.58077c-2.73804,0.51913 -4.29558,0.94871 -4.29558,0.94871l-8.45102,-15.73843z" fill="#000000"/><path d="M282.35579,150.21284c-3.81982,-0.03218 -6.89034,-3.15486 -6.85815,-6.97469c0.03218,-3.81982 3.15486,-6.89034 6.97469,-6.85815c3.81982,0.03218 6.89034,3.15486 6.85815,6.97469c-0.03218,3.81982 -3.15486,6.89034 -6.97469,6.85815z" fill="#cbcb6a"/></g><path d="M243.59042,211.22176c-47.23736,-0.30673 -56.79326,-28.73218 -56.79326,-28.73218c0,0 7.31802,-2.05049 13.59384,-11.04218c11.77851,-16.87564 16.67919,-43.11866 45.3944,-42.71008c27.49294,0.39121 33.10626,28.8336 43.94683,45.04434c4.90077,7.32846 11.7664,9.01028 11.7664,9.01028c0,0 -11.50382,28.73114 -57.90823,28.42981z" data-paper-data="{&quot;index&quot;:null}" fill="none" stroke="#000000" stroke-width="3" stroke-linecap="butt"/><g data-paper-data="{&quot;index&quot;:null}" stroke="none" stroke-width="0" stroke-linecap="butt"><path d="M217.477,140.66589l-8.71503,15.59379c0,0 -1.55007,-0.45576 -4.27899,-1.02095c-3.70891,-0.76818 -9.16821,-2.15847 -11.90583,-6.78234c-4.98515,-8.41986 -1.02141,-14.64158 1.47517,-17.28877c2.61495,-2.77273 8.67178,-5.67444 14.94837,-3.24025c4.99679,1.93786 6.54767,6.05606 7.38995,9.04827c0.6144,2.1827 1.08636,3.69026 1.08636,3.69026z" fill="#000000"/><path d="M199.46008,142.5975c0.03218,-3.81982 3.15486,-6.89034 6.97469,-6.85815c3.81982,0.03218 6.89034,3.15486 6.85815,6.97469c-0.03218,3.81982 -3.15486,6.89034 -6.97469,6.85815c-3.81982,-0.03218 -6.89034,-3.15486 -6.85815,-6.97469z" fill="#cbcb6a"/></g><path d="M251.00804,129.23009c0,0 0.33217,10.27608 -0.08336,15.45955c-0.5506,6.86816 -2.63372,11.86224 -2.63372,11.86224c0,0 -2.91579,-4.88163 -5.28537,-10.58164c-3.13825,-7.54901 -4.74427,-16.63912 -4.74427,-16.63912l10.32305,-0.69289z" data-paper-data="{&quot;index&quot;:null}" fill="#000000" stroke="none" stroke-width="0" stroke-linecap="butt"/><path d="M232.78377,146.65033c0,0 1.86886,-7.14522 11.98743,-6.93496c9.86785,0.20505 15.5116,7.16664 15.5116,7.16664z" data-paper-data="{&quot;index&quot;:null}" fill="#000000" stroke="none" stroke-width="0" stroke-linecap="butt"/><path d="M229.17921,137.8518c0,0 2.82501,-8.3515 14.59952,-8.1273c11.48274,0.21865 17.39934,8.39688 17.39934,8.39688z" data-paper-data="{&quot;index&quot;:null}" fill="#000000" stroke="none" stroke-width="0" stroke-linecap="butt"/><g data-paper-data="{&quot;index&quot;:null}" fill="#000000" stroke="none" stroke-width="0" stroke-linecap="butt"><path d="M294.32757,192.58116c0,0 -2.95119,0.36243 -10.45291,-1.68584c-5.12664,-1.39979 -7.12093,-4.46243 -7.12093,-4.46243c0,0 4.65606,-0.32057 9.29583,-2.0069c5.52839,-2.0093 9.26248,-4.83698 9.26248,-4.83698c0,0 4.99914,2.46347 4.85175,4.40854c-0.17575,2.31942 -5.83623,8.58363 -5.83623,8.58363z"/><path d="M292.64936,194.40325c0,0 -3.91046,1.4649 -3.3164,2.43663c-0.02809,0.0147 -0.0561,0.02957 -0.08402,0.04452c-1.60279,0.8593 -2.94519,2.14308 -3.87558,3.70233c-1.1068,1.13751 -2.05472,2.08637 -2.68662,2.37868c-0.75183,0.34783 -2.31842,1.09341 -3.12872,1.51023c-1.28334,-0.78667 -3.44954,-2.05975 -5.56329,-4.14253c-3.74237,-3.6875 -3.39289,-6.80483 -3.39289,-6.80483c0,0 3.8673,1.52134 8.24337,1.93797c5.2142,0.49645 13.80415,-1.06304 13.80415,-1.06304z"/><path d="M269.73487,204.09195c1.77298,1.13765 4.01844,1.23479 5.04645,1.89254c-0.26301,0.04199 -2.64424,1.20872 -2.86567,1.29654c-2.64389,1.04863 -4.98219,1.73208 -7.17853,2.88544c-0.41167,-1.12991 -0.85915,-2.50429 -1.32111,-4.16131c-1.27085,-4.55826 0.15977,-7.48125 0.15977,-7.48125c0,0 2.16725,3.00663 6.15909,5.56802z"/></g><g data-paper-data="{&quot;index&quot;:null}" fill="#000000" stroke="none" stroke-width="0" stroke-linecap="butt"><path d="M194.11929,191.48689c0,0 -5.55414,-6.35869 -5.69079,-8.68075c-0.11461,-1.94728 4.92534,-4.32617 4.92534,-4.32617c0,0 3.68593,2.89019 9.17967,4.99238c4.61068,1.76426 9.2607,2.16325 9.2607,2.16325c0,0 -2.04559,3.0286 -7.19509,4.34181c-7.53516,1.9216 -10.47983,1.50949 -10.47983,1.50949z"/><path d="M194.89369,193.07962c0,0 9.43532,1.96133 14.65714,1.55284c4.38249,-0.34285 8.27486,-1.7988 8.27486,-1.7988c0,0 0.2969,3.12274 -3.50707,6.74668c-2.14854,2.04687 -4.3359,3.28325 -5.63232,4.04821c-0.80318,-0.43043 -2.35696,-1.20229 -3.10282,-1.56274c-0.51898,-0.25078 -3.5064,0.15082 -4.35872,-0.74019c-0.17717,-0.1852 1.89971,-1.48448 1.71256,-1.68343c-0.90399,-1.57469 -3.98185,-2.02069 -5.56996,-2.90688c-0.02768,-0.01544 -0.8012,-0.53706 -0.82903,-0.55224c0.61036,-0.9616 -1.64464,-3.10345 -1.64464,-3.10345z"/><path d="M213.43691,205.21762c1.03895,-0.64033 3.28574,-0.69963 5.07764,-1.80725c4.03443,-2.49374 6.25204,-5.46344 6.25204,-5.46344c0,0 1.38118,2.94669 0.03369,7.48288c-0.48982,1.64899 -0.96039,3.01562 -1.39103,4.13844c-2.17658,-1.19019 -4.50305,-1.91295 -7.12888,-3.00598c-0.21991,-0.09154 -2.58115,-1.29824 -2.84343,-1.34464z"/></g><path d="M221.19527,191.65935c-2.60373,-0.02194 -4.69319,-2.56646 -4.66692,-5.68335c0.02625,-3.11688 2.15829,-5.62584 4.76203,-5.6039c2.60373,0.02194 4.69319,2.56645 4.66692,5.68334c-0.02625,3.11688 -2.15829,5.62585 -4.76202,5.60391z" data-paper-data="{&quot;index&quot;:null}" fill="#6e6e30" stroke="none" stroke-width="0" stroke-linecap="butt"/><g data-paper-data="{&quot;index&quot;:null}" fill="#000000" stroke="none" stroke-width="0" stroke-linecap="butt"><path d="M271.94361,155.55197c4.10087,0.03455 7.36565,7.14059 7.29209,15.87179c-0.07356,8.73119 -3.45762,15.7812 -7.55848,15.74665c-4.10087,-0.03455 -7.36565,-7.14059 -7.29209,-15.87179c0.07356,-8.73119 3.45762,-15.7812 7.55848,-15.74665z"/><path d="M276.61964,174.70347c0,0 0.87127,-0.00324 2.08339,-0.14081c1.6273,-0.1847 3.73065,-0.36821 3.84829,1.20673c0.10086,1.35055 -1.99395,2.45192 -3.68586,3.24332c-1.29898,0.60762 -2.29119,1.07479 -2.29119,1.07479c0,0 -3.64361,-0.67048 -3.63273,-1.96087c0.01088,-1.2904 3.67809,-3.42316 3.67809,-3.42316z"/></g><g data-paper-data="{&quot;index&quot;:null}" fill="#000000" stroke="none" stroke-width="0" stroke-linecap="butt"><path d="M236.84883,171.473c-0.07356,8.73119 -3.45762,15.7812 -7.55848,15.74665c-4.10087,-0.03455 -7.36565,-7.14059 -7.29209,-15.87179c0.07356,-8.73119 3.45762,-15.7812 7.55848,-15.74665c4.10087,0.03455 7.36565,7.14059 7.29209,15.87179z"/><path d="M228.17857,178.15586c-0.01088,1.29039 -3.66526,1.89937 -3.66526,1.89937c0,0 -0.98419,-0.48383 -2.27276,-1.11324c-1.67834,-0.8198 -3.75428,-1.9563 -3.63067,-3.30496c0.14413,-1.57274 2.2441,-1.35382 3.86805,-1.14171c1.20965,0.15799 2.08074,0.1759 2.08074,0.1759c0,0 3.63079,2.19426 3.61991,3.48464z"/></g><path d="M273.59679,161.30054c1.60688,0.01353 2.88596,2.81835 2.85693,6.26475c-0.02903,3.4464 -1.3552,6.22927 -2.96207,6.21574c-1.60688,-0.01353 -2.88596,-2.81836 -2.85693,-6.26476c0.02903,-3.44639 1.3552,-6.22926 2.96207,-6.21573z" data-paper-data="{&quot;index&quot;:null}" fill="#ffffff" stroke="none" stroke-width="0" stroke-linecap="butt"/><path d="M231.65391,160.65692c1.60688,0.01353 2.88596,2.81835 2.85693,6.26475c-0.02903,3.44639 -1.3552,6.22927 -2.96207,6.21574c-1.60688,-0.01353 -2.88596,-2.81836 -2.85693,-6.26476c0.02903,-3.44639 1.3552,-6.22926 2.96207,-6.21573z" data-paper-data="{&quot;index&quot;:null}" fill="#ffffff" stroke="none" stroke-width="0" stroke-linecap="butt"/><path d="M250.5152,188.39096c-5.59058,-0.0471 -10.07694,-5.51056 -10.02055,-12.20295c0.05639,-6.69239 4.63416,-12.07949 10.22473,-12.0324c5.59058,0.0471 10.07694,5.51056 10.02055,12.20295c-0.05639,6.69239 -4.63416,12.07949 -10.22473,12.0324z" data-paper-data="{&quot;index&quot;:null}" fill="#6e6e30" stroke="none" stroke-width="0" stroke-linecap="butt"/><path d="M270.13036,181.00932c-0.88527,-0.00746 -1.5957,-0.87259 -1.58676,-1.93234c0.00893,-1.05974 0.73382,-1.91278 1.61909,-1.90531c0.88527,0.00746 1.5957,0.87258 1.58676,1.93233c-0.00893,1.05974 -0.73382,1.91279 -1.61909,1.90532z" data-paper-data="{&quot;index&quot;:null}" fill="#6e6e30" stroke="none" stroke-width="0" stroke-linecap="butt"/><path d="M227.60204,181.10253c-0.88527,-0.00746 -1.5957,-0.87259 -1.58676,-1.93234c0.00893,-1.05974 0.73382,-1.91278 1.61909,-1.90531c0.88527,0.00746 1.5957,0.87258 1.58676,1.93233c-0.00893,1.05974 -0.73382,1.91279 -1.61909,1.90532z" data-paper-data="{&quot;index&quot;:null}" fill="#6e6e30" stroke="none" stroke-width="0" stroke-linecap="butt"/><path d="M258.62456,179.8118c0,0 -1.69363,2.9721 -5.22563,2.4703c-2.47114,-0.35108 -3.03359,-3.98207 -3.03359,-3.98207c0,0 -0.2825,3.12654 -2.85,3.78487c-3.62049,0.92834 -4.8714,-2.57705 -4.8714,-2.57705" data-paper-data="{&quot;index&quot;:null}" fill="none" stroke="#000000" stroke-width="2" stroke-linecap="round"/><g data-paper-data="{&quot;index&quot;:null}" stroke="none" stroke-width="0" stroke-linecap="butt"><path d="M250.77443,167.21591c3.41738,0.02878 5.95552,2.43438 5.93601,4.74868c-0.0195,2.3143 -3.39559,6.80595 -6.17589,6.93247c-2.78109,0.12656 -5.93624,-4.72004 -5.91674,-7.03434c0.0195,-2.3143 2.73922,-4.67557 6.15661,-4.6468z" fill="#000000"/><path d="M246.8879,171.03522c0.00808,-0.95844 0.8938,-1.92001 3.72799,-1.78878c2.90493,0.1345 3.98825,0.89527 3.98019,1.85374c-0.00808,0.95845 -1.74015,1.72089 -3.86872,1.70295c-2.12855,-0.01794 -3.84753,-0.80944 -3.83946,-1.76789z" fill="#ffffff"/></g></g></g></g></svg>