<svg version="1.1" xmlns="http://www.w3.org/2000/svg" xmlns:xlink="http://www.w3.org/1999/xlink" width="160.98518" height="64.70212" viewBox="0,0,160.98518,64.70212"><defs><linearGradient x1="191.16737" y1="131.24939" x2="191.16737" y2="187.25077" gradientUnits="userSpaceOnUse" id="color-1"><stop offset="0" stop-color="#c5c556"/><stop offset="1" stop-color="#878723"/></linearGradient><linearGradient x1="351.19396" y1="129.04427" x2="351.19396" y2="161.0492" gradientTransform="translate(-399.5066,-229.5328) scale(1.46066,1.49986)" gradientUnits="userSpaceOnUse" id="color-2"><stop offset="0" stop-color="#ffffb6"/><stop offset="1" stop-color="#ffff70"/></linearGradient></defs><g transform="translate(-162.16667,-126.67126)"><g stroke-miterlimit="10"><g><path d="M172.21939,184.55575v-50.0282h148.49641v50.0282z" fill-opacity="0.01176" fill="#000000" stroke="none" stroke-width="NaN"/><g><g><path d="M166.92097,187.25077c-2.07344,0 -3.7543,-1.68085 -3.7543,-3.75428v-48.49283c0,-2.07343 1.68084,-3.7543 3.7543,-3.7543h48.49281c2.07344,0 3.75427,1.68087 3.75427,3.7543v48.49283c0,2.07343 -1.68083,3.75428 -3.75427,3.75428z" fill="url(#color-1)" stroke="#343404" stroke-width="2"/><path d="M170.92316,157.94962c0,0 2.88406,-2.7711 2.9441,-3.17622c0.15748,-1.06253 -0.0785,-18.7987 16.83081,-19.45413c20.88722,-0.42752 18.25673,16.54114 19.43406,19.74263c1.61431,4.38968 2.88094,8.14228 2.88094,8.14228c0,0 -1.29486,-0.96095 -1.90907,-1.46653c-0.57286,-0.47155 -1.77883,-1.47205 -1.77883,-1.47205c0,0 1.44643,4.8423 0.61341,9.68405c-0.73108,4.43655 -3.41493,8.0605 -3.41493,8.0605l-0.54059,-1.09841c0,0 -0.47854,1.02849 -1.01077,1.55954c-0.53223,0.53101 -1.60914,1.36298 -1.60914,1.36298l-0.04306,-1.73336c0,0 -3.30372,5.15576 -11.39473,5.08725c-7.63039,-0.11954 -12.19995,-4.99536 -12.19995,-4.99536l-0.05436,1.2423c0,0 -1.82253,-1.54082 -2.89256,-4.54258c-1.27536,-3.57771 -1.51589,-5.72911 -1.51589,-5.72911c0,0 -1.09455,0.88868 -2.67525,1.29825c-1.98071,0.51319 -3.25061,0.16156 -3.25061,0.16156c0,0 1.68832,-1.27148 2.61297,-2.23203c0.82362,-0.85558 1.23842,-1.58033 1.23842,-1.58033c0,0 -0.98623,0.50758 -1.9807,0.75712c-1.03761,0.26037 -1.88584,0.24844 -1.88584,0.24844c0,0 2.32797,-2.35719 3.28999,-5.08854c0.90826,-2.57887 0.98253,-5.12736 0.98253,-5.12736c0,0 -0.63718,0.30959 -1.5583,0.37206c-0.58388,0.03959 -1.11269,-0.0229 -1.11269,-0.0229z" fill="#343404" stroke="none" stroke-width="0.5"/></g><text transform="translate(187.98374,177.07962) rotate(-10.71337) scale(1.13986,1.13986)" font-size="40" xml:space="preserve" fill="#adad42" stroke="none" stroke-width="1" font-family="&quot;Allan-Regular&quot;, Sans Serif" font-weight="normal" text-anchor="start"><tspan x="0" dy="0">?</tspan></text></g><g stroke="none" stroke-width="1" font-family="&quot;Allan-Regular&quot;, Sans Serif" font-weight="normal" font-size="40" text-anchor="middle"><text transform="translate(271.72366,152.34037) scale(0.68462,0.66673)" font-size="40" xml:space="preserve" fill="#828216"><tspan x="0" dy="0">MEET THE </tspan><tspan x="0" dy="48px">POLOS</tspan></text><text transform="translate(273.51021,153.03641) scale(0.68462,0.66673)" font-size="40" xml:space="preserve" fill="url(#color-2)"><tspan x="0" dy="0">MEET THE </tspan><tspan x="0" dy="48px">POLOS</tspan></text></g></g></g></g></svg>