<svg version="1.1" xmlns="http://www.w3.org/2000/svg" xmlns:xlink="http://www.w3.org/1999/xlink" width="124.0003" height="293.42069" viewBox="0,0,124.0003,293.42069"><defs><linearGradient x1="319.15309" y1="87.25152" x2="319.15309" y2="126.89174" gradientUnits="userSpaceOnUse" id="color-1"><stop offset="0" stop-color="#adad36" stop-opacity="0.66275"/><stop offset="1" stop-color="#adad36" stop-opacity="0"/></linearGradient><linearGradient x1="381.67602" y1="14.83191" x2="332.72016" y2="67.55589" gradientUnits="userSpaceOnUse" id="color-2"><stop offset="0" stop-color="#7f7f38"/><stop offset="1" stop-color="#515124"/></linearGradient><linearGradient x1="318.52796" y1="52.05581" x2="318.52796" y2="145.88406" gradientUnits="userSpaceOnUse" id="color-3"><stop offset="0" stop-color="#7f7f38"/><stop offset="1" stop-color="#515124"/></linearGradient></defs><g transform="translate(-267.73266,-6.20497)"><g stroke-miterlimit="10"><path d="M286.64893,292.96608c0,0 -13.99429,-53.36149 7.40535,-68.91096c21.39964,-15.54947 41.67878,-13.30474 57.29402,4.97912c15.61523,18.28386 3.50779,63.93185 3.50779,63.93185z" fill="#494920" stroke="none" stroke-width="1.5" stroke-linecap="butt"/><path d="M319.38839,299.62566v-58.95273h1.7539v58.95273z" fill-opacity="0.76471" fill="#292912" stroke="none" stroke-width="1.5" stroke-linecap="butt"/><path d="M282.98668,250.06169c0,0 -0.66051,-10.4262 5.41348,-27.65881c2.24357,-6.36525 6.53184,-17.88193 7.45692,-22.53349c3.50302,-17.61403 6.61735,-47.79671 6.61735,-47.79671h33.90871c0,0 4.20389,30.13804 8.07665,46.92527c1.4136,6.1275 7.38095,17.01224 9.82012,27.46587c2.94054,12.60244 4.70904,23.59786 4.70904,23.59786z" fill="#bcbc52" stroke="#777734" stroke-width="1.5" stroke-linecap="butt"/><path d="M269.90713,207.97086c8.08782,-11.96389 15.7356,-40.17897 23.2382,-50.12949c1.71529,-2.27496 11.75596,-8.58355 11.75596,-8.58355l-4.94918,23.68443c0,0 -2.22893,20.84238 -6.83845,29.414c-3.78318,7.03501 8.07451,15.83216 8.07451,15.83216c0,0 -0.65445,7.93641 -7.20844,14.14171c-7.47965,7.08169 -8.90144,6.57142 -8.90144,6.57142c0,0 -22.36012,-20.29644 -15.17117,-30.93068z" fill="#bcbc52" stroke="#777734" stroke-width="1.5" stroke-linecap="butt"/><path d="M304.81297,250.06169l7.70231,-97.989h15.09652l9.55086,97.989z" fill="#777734" stroke="#777734" stroke-width="1.5" stroke-linecap="butt"/><path d="M337.50006,218.18841c0,0 12.84131,-9.40029 9.05811,-16.4353c-4.60952,-8.57162 -7.23189,-28.81086 -7.23189,-28.81086l-3.04756,-22.88024c0,0 7.4833,3.82899 9.19859,6.10395c7.5026,9.95052 16.00283,36.82529 24.09065,48.78918c7.18895,10.63425 -15.95804,33.94639 -15.95804,33.94639c0,0 -1.02835,0.51028 -8.508,-6.57142c-7.47965,-7.0817 -7.60188,-14.1417 -7.60188,-14.1417z" fill="#bcbc52" stroke="#777734" stroke-width="1.5" stroke-linecap="butt"/><path d="M293.97586,173.57397l2.36801,-16.19872h12.18284l-2.85821,18.85426z" fill="#bcbc52" stroke="none" stroke-width="1.5" stroke-linecap="butt"/><path d="M333.60988,176.22951l-2.85821,-18.85426h15.33037l-0.77951,16.19872z" fill="#bcbc52" stroke="none" stroke-width="1.5" stroke-linecap="butt"/><path d="M300.96474,227.43715c0,0 -3.45462,5.47874 -6.35849,8.3497c-2.90387,2.87096 -6.72086,4.58141 -6.72086,4.58141" fill="none" stroke="#777734" stroke-width="1" stroke-linecap="round"/><path d="M350.40943,240.16721c0,0 -3.81699,-1.71046 -6.72086,-4.58141c-2.90387,-2.87096 -6.35849,-8.3497 -6.35849,-8.3497" fill="none" stroke="#777734" stroke-width="1" stroke-linecap="round"/><path d="M323.42312,163.47441c-0.62832,0.99296 -1.70415,1.84729 -2.08889,3.19319c-0.8632,3.01961 -0.69288,7.59431 0.49488,10.44743c0.37408,0.89859 0.91757,1.39803 1.2809,2.38464c1.17788,3.19852 2.34516,6.91334 2.47814,10.83766c0.18794,5.54589 -1.51482,9.86483 -2.95981,14.4327c-0.55519,1.75507 -0.79952,4.03463 -1.06863,6.01924c-0.08852,0.65281 -0.4677,1.34509 -0.48148,2.03532c-0.0198,0.99185 0.11678,2.00867 0,2.97755c-0.25683,2.1308 -0.52123,2.67517 -0.14093,5.83586c0.71418,5.93567 4.10603,9.31282 4.08712,15.72574c-0.0074,2.5088 0.15883,4.20702 -0.22319,6.42583c-0.32916,1.91183 -1.56635,5.34968 -2.38782,7.37528c-0.77216,-0.03263 -1.5705,-0.04763 -2.33804,-0.03148c-0.40819,-0.12597 -0.83259,-0.19241 -1.26823,-0.19241c-0.35843,0 -0.70927,0.04497 -1.04971,0.13109c0.44411,-2.22573 1.12164,-4.31944 1.82596,-6.32488c0.28683,-0.8167 1.17241,-3.08334 1.21297,-3.83378c0.04939,-0.9134 0.08247,-3.67966 -0.14093,-4.96259c-0.40247,-2.3113 -1.69774,-4.31493 -2.31365,-6.45268c-0.49279,-1.71043 -1.15457,-3.31796 -1.40935,-5.1969c-0.40842,-3.012 -0.10326,-6.04784 -0.08226,-9.04008c0.00785,-1.11879 -0.13166,-2.26442 0,-3.35667c0.42074,-3.49073 1.13719,-7.66026 2.05535,-10.83766c0.90907,-3.14596 2.56897,-6.27323 2.45458,-10.09696c-0.08179,-2.7339 -1.12293,-5.09812 -1.86075,-7.35333c-0.27777,-0.84905 -0.97912,-1.48761 -1.2985,-2.44957c-1.32563,-3.9927 -1.64571,-8.06038 -1.64571,-12.69854c0,-4.49131 1.91621,-7.97215 3.74245,-10.31213c0.17426,-0.22328 0.39273,-0.6708 0.63819,-1.12758c0.04229,-0.08426 0.0866,-0.16507 0.13275,-0.24217c0.43205,-0.76967 0.93312,-1.45646 1.41904,-1.00857c1.16755,0 2.11403,1.74506 2.11403,3.89768c0,1.10442 -0.24914,2.10156 -0.64945,2.81077c-0.12531,0.31559 -0.26731,0.64075 -0.42374,0.97721z" fill="#494920" stroke="none" stroke-width="1.5" stroke-linecap="butt"/><path d="M303.96212,167.86558l-3.64201,-13.44839l5.12332,-6.92023l7.67792,-0.3445l9.59247,4.12258z" fill="#bcbc52" stroke="#777734" stroke-width="1.5" stroke-linecap="butt"/><path d="M320.12443,151.85032l6.03529,-3.69262l10.95661,1.01466l3.2806,6.74513l-3.27468,11.94809z" fill="#bcbc52" stroke="#777734" stroke-width="1.5" stroke-linecap="butt"/><path d="M314.27971,109.00629h12.65227l2.04891,38.49089c0,0 -5.59545,6.07477 -8.62613,6.07477c-2.85328,0 -9.0579,-7.08001 -9.0579,-7.08001z" fill="#ecec68" stroke="#000000" stroke-width="1.5" stroke-linecap="butt"/><g><path d="M285.00522,102.93178c0,-20.87215 15.89393,-37.79238 35.5001,-37.79238c19.60616,0 35.50009,16.92023 35.50009,37.79238c0,8.24731 -2.99041,17.64561 -8.19299,23.95398c-7.96404,9.65675 -19.92527,12.89341 -27.07118,12.87401c-3.85864,-0.01047 -15.11701,-2.4049 -23.36504,-9.99189c-7.44713,-6.85027 -12.37096,-16.93256 -12.37096,-26.8361z" fill="#ecec68" stroke="#000000" stroke-width="1.5" stroke-linecap="butt"/><path d="M284.07514,126.0951l21.04678,-19.91647c0,0 18.68014,-29.41477 27.07206,-31.54058c5.09823,-1.29146 18.5293,19.98904 18.5293,19.98904l3.50779,32.26467c0,0 -15.06608,-4.26946 -29.62616,-4.34184c-21.18113,-0.1053 -40.52978,3.54518 -40.52978,3.54518z" fill="url(#color-1)" stroke="none" stroke-width="1.5" stroke-linecap="butt"/><path d="M323.16013,103.46619c0,0 -0.12961,4.02124 1.97694,7.99319c1.9155,3.61171 5.26559,7.14449 4.49013,8.30984c-1.06785,1.60473 -5.17374,1.09195 -5.17374,1.09195" fill="none" stroke="#000000" stroke-width="1.5" stroke-linecap="round"/><path d="M334.87287,69.82736l22.72867,-61.6019l6.62842,15.38311l18.6036,-10.96212l-5.95225,21.46311l12.90538,3.28546z" fill="url(#color-2)" stroke="#42421e" stroke-width="1.5" stroke-linecap="butt"/><path d="M353.97872,67.57419c-3.20084,4.16374 -7.49362,1.67384 -12.5079,-2.35233c-5.01429,-4.02617 -8.85128,-8.06397 -5.65043,-12.22769c3.20084,-4.16373 21.35918,10.4163 18.15833,14.58004z" fill="#393900" stroke="none" stroke-width="1.5" stroke-linecap="butt"/><path d="M345.81089,99.94881c0,9.88219 -3.12666,17.89328 -6.98358,17.89328c-3.85692,0 -6.98358,-8.01109 -6.98358,-17.89328c0,-9.88219 3.12666,-17.89328 6.98358,-17.89328c3.85692,0 6.98358,8.01109 6.98358,17.89328z" fill="#000000" stroke="none" stroke-width="0" stroke-linecap="butt"/><path d="M303.90942,131.36864c0,0 -2.66886,-7.14334 3.80336,-9.09825c2.50795,-0.75752 11.15803,1.91733 14.63919,2.01131c3.39238,0.09159 12.37968,-2.26895 14.63886,-1.48253c5.78114,2.01241 2.13157,8.56947 2.13157,8.56947c0,0 -9.50283,-2.77871 -16.91797,-2.81467c-9.64079,-0.04676 -18.29501,2.81467 -18.29501,2.81467z" fill="#ffffff" stroke="#000000" stroke-width="1" stroke-linecap="butt"/><path d="M327.9462,133.02729c0,0 -3.41179,0.70526 -6.39035,0.68803c-2.50832,-0.01452 -6.02763,-0.81368 -6.02763,-0.81368" fill="none" stroke="#000000" stroke-width="0.75" stroke-linecap="round"/><path d="M344.7904,115.05862c0,0 -1.86289,4.9981 -6.27829,4.923c-4.16778,-0.07088 -6.01675,-5.17431 -6.01675,-5.17431" fill="none" stroke-opacity="0.55686" stroke="#000000" stroke-width="0.5" stroke-linecap="round"/><path d="M303.72499,126.36757c0,0 12.59865,-0.21302 18.57295,-0.06715c6.03328,0.14731 17.6974,0.94674 17.6974,0.94674" fill="none" stroke="#000000" stroke-width="0.5" stroke-linecap="round"/><path d="M303.82499,142.84409c-2.25165,-1.56547 -4.626,-4.77618 -4.626,-4.77618l-1.14628,7.39025c0,0 -4.04231,-1.04257 -6.92421,-5.83789c-1.81057,-3.0127 -2.66697,-5.75055 -2.66697,-5.75055l-1.80703,6.41646c0,0 -16.12155,-10.33379 -15.35429,-39.79737c0.91306,-35.06238 15.05895,-35.57826 37.98346,-45.73758c22.26602,-9.8675 38.14583,10.53266 38.14583,10.53266c0,0 9.51672,5.33347 14.70464,18.73636c9.17305,23.69837 -2.37132,48.97596 -2.37132,48.97596l-3.78264,-3.94729c0,0 -1.41617,4.08253 -2.93641,6.36394c-1.52024,2.2814 -5.30169,5.60359 -5.30169,5.60359c0,0 4.13717,-24.83767 0.58191,-41.03551c-3.36316,-15.32264 -14.86886,-20.47558 -14.86886,-20.47558c0,0 -10.31404,11.8505 -14.82407,21.83684c-14.17819,31.39401 -10.03413,43.61245 -10.03413,43.61245c0,0 -2.52032,-0.54508 -4.77199,-2.11055z" fill="url(#color-3)" stroke="#42421e" stroke-width="1.5" stroke-linecap="butt"/><path d="M348.96049,97.00977l-7.3132,4.33979" fill="none" stroke="#000000" stroke-width="1.5" stroke-linecap="round"/></g></g></g></svg>