<svg version="1.1" xmlns="http://www.w3.org/2000/svg" xmlns:xlink="http://www.w3.org/1999/xlink" width="118.07597" height="109.25548" viewBox="0,0,118.07597,109.25548"><g transform="translate(-178.37262,-120.20122)"><g data-paper-data="{&quot;isPaintingLayer&quot;:true}" fill-rule="nonzero" stroke-linejoin="miter" stroke-miterlimit="10" stroke-dasharray="" stroke-dashoffset="0" style="mix-blend-mode: normal"><g stroke-linecap="butt"><path d="M286.32171,199.96473c6.40668,3.83377 -2.05813,15.8885 -9.93214,18.99704c-12.56061,4.95874 -22.15163,-1.6519 -22.15163,-1.6519l5.11428,-5.41766c0,0 6.52937,2.83786 11.61415,-0.41273c6.27125,-4.00907 7.52009,-16.20336 15.35533,-11.51475z" fill="#ecec68" stroke="#000000" stroke-width="2"/><path d="M275.42623,205.69827l3.43518,-5.37031l9.37169,5.99473l-3.43517,5.3703z" fill="#000000" stroke="none" stroke-width="0"/><path d="M270.99528,211.7097l3.88596,-3.83863l5.68237,8.35847l-5.04856,3.03341z" fill="#000000" stroke="none" stroke-width="0"/><path d="M263.24751,212.90782l5.62411,-0.41302l-0.03772,8.61464l-6.56304,-0.55988z" fill="#000000" stroke="none" stroke-width="0"/></g><g data-paper-data="{&quot;index&quot;:null}" stroke-linecap="butt"><path d="M268.83063,211.75068c-0.64723,2.87353 -5.51507,4.73204 -10.18455,3.68028c-4.66948,-1.05177 -7.37237,-4.61551 -6.72513,-7.48904c0.64723,-2.87353 5.90387,-4.42261 10.57337,-3.37085c4.6695,1.05176 6.98356,4.30607 6.33632,7.1796z" fill="#ecec68" stroke="#000000" stroke-width="2"/><path d="M263.20326,215.42552l2.47486,-9.19163c0,0 4.1114,1.35404 3.49056,5.37605c-0.53331,3.45505 -5.96542,3.81556 -5.96542,3.81556z" fill="#000000" stroke="none" stroke-width="0"/><path d="M256.0225,214.47369l3.16193,-10.61351l3.42452,0.75106l-2.71918,10.77536z" fill="#000000" stroke="none" stroke-width="0"/></g><g stroke-linecap="butt"><path d="M229.85544,208.10068c1.2553,2.66464 -0.60995,6.72995 -4.93998,8.76981c-4.33003,2.03987 -9.48515,1.28183 -10.74045,-1.3828c-1.2553,-2.66464 0.29756,-6.34351 4.62759,-8.3834c4.33003,-2.03987 9.79754,-1.66825 11.05285,0.99639z" fill="#ecec68" stroke="#000000" stroke-width="2"/><path d="M213.81447,215.42367c-1.47873,-3.79152 2.24093,-6.00535 2.24093,-6.00535l4.41027,8.43569c0,0 -5.38093,0.82669 -6.65119,-2.43034z" fill="#000000" stroke="none" stroke-width="0"/><path d="M223.69176,217.09704l-4.99238,-9.92867l3.17997,-1.47618l5.38948,9.6746z" fill="#000000" stroke="none" stroke-width="0"/></g><path d="M240.91497,226.18342c0,0.7405 -3.6377,1.8081 -9.04974,1.77241c-5.91985,-0.03904 -8.28349,-1.2374 -8.59956,-1.91835c-1.38426,-2.98226 0.39895,-5.24797 8.5651,-5.10799c4.02776,0.06904 7.27771,0.47006 8.5305,1.30635c1.39536,0.93146 0.5537,2.37617 0.5537,3.94758z" fill="#c5c556" stroke="#9b9b44" stroke-width="3" stroke-linecap="butt"/><path d="M241.66832,218.61713c-6.64608,0.57074 -14.60758,1.23821 -14.84844,0.24195c-0.90514,-3.74376 4.29735,-17.69172 4.29735,-17.69172l17.26265,-1.71191c0,0 6.59357,14.73707 6.97785,16.59937c0.38429,1.8623 -6.48437,1.94357 -13.68941,2.56232z" fill="#000000" stroke="#6e6e30" stroke-width="3" stroke-linecap="butt"/><g stroke="none" stroke-width="0" stroke-linecap="butt"><path d="M240.40666,207.23601c-46.24351,3.87273 -59.92497,-23.88756 -59.92497,-23.88756c0,0 6.71579,-2.20536 11.03785,-9.88934c9.56049,-16.99716 12.96758,-45.78726 40.34883,-48.29377c28.59855,-2.61792 36.26554,23.03455 49.21182,39.03186c5.20482,6.39605 13.54031,10.03962 13.54031,10.03962c0,0 -7.14029,29.05695 -54.21386,32.9992z" fill="#ecec68"/><path d="M293.51742,173.07672c0,0 -1.71931,11.51824 -12.46327,19.82438c-11.14413,8.61553 -30.57725,11.79919 -30.57725,11.79919c0,0 16.86001,-13.2541 12.96062,-44.93731c-2.22955,-18.11552 -18.76612,-34.52383 -18.76612,-34.52383c0,0 11.42755,4.22741 19.9674,13.90444c6.82524,7.73411 10.33837,17.92592 14.63955,22.2295c2.0987,2.09986 3.54031,5.04867 5.89674,6.95423c3.87635,3.13465 8.34233,4.74941 8.34233,4.74941z" fill="#cbcb6a"/></g><path d="M197.62443,185.914c-0.26196,-3.05704 2.00391,-5.74762 5.06096,-6.00958c3.05704,-0.26196 5.74764,2.00389 6.00959,5.06093c0.26196,3.05704 -2.00391,5.74764 -5.06095,6.00959c-3.05704,0.26196 -5.74764,-2.0039 -6.00959,-5.06094z" fill="#6e6e30" stroke="none" stroke-width="0" stroke-linecap="butt"/><path d="M266.49266,180.12408c-0.26196,-3.05704 2.0039,-5.74763 5.06095,-6.00959c3.05704,-0.26196 5.74763,2.00389 6.00959,5.06093c0.26196,3.05704 -2.0039,5.74764 -5.06094,6.00959c-3.05704,0.26196 -5.74764,-2.0039 -6.0096,-5.06094z" fill="#6e6e30" stroke="none" stroke-width="0" stroke-linecap="butt"/><g stroke="none" stroke-width="0" stroke-linecap="butt"><path d="M207.33419,139.47892l-7.21439,16.3423c0,0 -1.58597,-0.30841 -4.35587,-0.61523c-3.7646,-0.41699 -9.33021,-1.28927 -12.48936,-5.63605c-5.75271,-7.9153 -2.38984,-14.48129 -0.1525,-17.35092c2.34344,-3.00573 8.1015,-6.46259 14.57867,-4.6277c5.15649,1.46077 7.0867,5.4154 8.20584,8.31545c0.81638,2.11548 1.42762,3.57214 1.42762,3.57214z" fill="#000000"/><path d="M189.57779,143.09148c-0.32614,-3.80603 2.49485,-7.1558 6.30087,-7.48195c3.80603,-0.32614 7.1558,2.49485 7.48195,6.30087c0.32614,3.80603 -2.49485,7.1558 -6.30088,7.48195c-3.80603,0.32614 -7.1558,-2.49485 -7.48195,-6.30088z" fill="#cbcb6a"/></g><path d="M240.40665,207.09317c-46.24351,3.87273 -59.92498,-23.88756 -59.92498,-23.88756c0,0 6.71579,-2.20536 11.03785,-9.88934c9.56049,-16.99716 12.96758,-45.78726 40.34883,-48.29377c28.59855,-2.61792 35.50493,23.16995 48.5476,39.08878c6.94941,8.48188 14.20454,9.9827 14.20454,9.9827c0,0 -7.14029,29.05695 -54.21386,32.9992z" fill="none" stroke="#000000" stroke-width="3" stroke-linecap="butt"/><g data-paper-data="{&quot;index&quot;:null}" stroke="none" stroke-width="0" stroke-linecap="butt"><path d="M261.01104,134.87925c0,0 0.3545,-1.5394 0.79907,-3.76294c0.60944,-3.04818 1.83869,-7.27355 6.67147,-9.59032c6.07056,-2.91013 12.33279,-0.4833 15.15344,2.0799c2.69295,2.44716 7.1239,8.34526 2.80172,17.12389c-2.37356,4.82089 -7.70963,6.62735 -11.34839,7.67875c-2.6773,0.7736 -4.1877,1.34733 -4.1877,1.34733l-9.88959,-14.87662z" fill="#000000"/><path d="M272.82232,142.90011c-3.80602,0.32614 -7.1558,-2.49485 -7.48195,-6.30087c-0.32614,-3.80603 2.49485,-7.1558 6.30088,-7.48195c3.80602,-0.32614 7.1558,2.49485 7.48195,6.30088c0.32614,3.80603 -2.49485,7.1558 -6.30088,7.48195z" fill="#cbcb6a"/></g><path d="M225.68195,125.62782l13.09842,-0.8715c0,0 0.51065,9.10366 -0.6691,17.19345c-0.89079,6.10831 -2.51273,11.55821 -2.51273,11.55821c0,0 -3.25032,-4.32615 -5.47759,-10.84643c-1.68094,-4.92092 -4.439,-17.03371 -4.439,-17.03371z" fill="#000000" stroke="none" stroke-width="0" stroke-linecap="butt"/><path d="M220.48627,145.51905c0,0 3.46442,-7.95292 13.28719,-8.917c10.07235,-0.98856 14.11239,6.56908 14.11239,6.56908z" fill="#000000" stroke="none" stroke-width="0" stroke-linecap="butt"/><path d="M217.42272,136.12129c0,0 3.84612,-8.48746 15.27796,-9.58943c11.72231,-1.12997 16.60519,6.8573 16.60519,6.8573z" fill="#000000" stroke="none" stroke-width="0" stroke-linecap="butt"/><g fill="#000000" stroke="none" stroke-width="0" stroke-linecap="butt"><path d="M188.38507,192.55655c0,0 -6.12593,-5.80986 -6.4797,-8.10886c-0.29669,-1.92795 4.49797,-4.76896 4.49797,-4.76896c0,0 3.9407,2.53183 9.60736,4.10959c4.75581,1.32416 9.42274,1.28534 9.42274,1.28534c0,0 -1.75258,3.20708 -6.75625,4.99737c-7.32177,2.6197 -10.2921,2.48552 -10.2921,2.48552z"/><path d="M190.19856,194.24406c0,0 8.6845,0.89358 13.84501,-0.0028c4.33102,-0.75228 8.06973,-2.5668 8.06973,-2.5668c0,0 0.58841,3.08115 -2.85898,7.04581c-1.94715,2.23932 -4.00891,3.67536 -5.22788,4.55849c-0.84,-0.35323 -2.45932,-0.97598 -3.2357,-1.2649c-0.6525,-0.24282 -1.67066,-1.11587 -2.86175,-2.16481c-1.04766,-1.48299 -2.4849,-2.65964 -4.14909,-3.393c-0.02901,-0.01278 -0.05808,-0.02543 -0.08721,-0.03794c0.51752,-1.01458 -3.49412,-2.17409 -3.49412,-2.17409z"/><path d="M213.79091,202.14c3.7828,-2.86107 5.71217,-6.02562 5.71217,-6.02562c0,0 1.6514,2.80417 0.73521,7.44674c-0.33304,1.68765 -0.67339,3.09239 -0.99685,4.25066c-2.2786,-0.98084 -4.66258,-1.48226 -7.37935,-2.32426c-0.22754,-0.07052 -2.69152,-1.05047 -2.95698,-1.07208c0.97433,-0.73494 3.20564,-1.00466 4.88579,-2.27542z"/></g><g data-paper-data="{&quot;index&quot;:null}" fill="#000000" stroke="none" stroke-width="0" stroke-linecap="butt"><path d="M277.6468,183.05307c-5.23532,-0.9129 -7.50799,-3.77505 -7.50799,-3.77505c0,0 4.6055,-0.75575 9.06668,-2.86973c5.31561,-2.51885 8.76812,-5.68421 8.76812,-5.68421c0,0 5.20812,1.98386 5.24376,3.93418c0.04251,2.32568 -5.00564,9.09306 -5.00564,9.09306c0,0 -2.9042,0.63757 -10.56493,-0.69824z"/><path d="M286.16138,188.61979c-0.02658,0.01728 -0.75766,0.59689 -0.78406,0.61442c-1.51516,1.00581 -4.54958,1.68742 -5.32965,3.32704c-0.17127,0.21275 1.99945,1.34829 1.83707,1.54658c-0.78119,0.95399 -3.79066,0.78354 -4.28879,1.07354c-0.71591,0.4168 -2.20567,1.30597 -2.97333,1.79695c-1.35145,-0.66288 -3.6275,-1.7272 -5.92723,-3.6026c-4.07166,-3.32035 -4.01604,-6.45668 -4.01604,-6.45668c0,0 3.99291,1.15201 8.38877,1.15645c5.23777,0.00531 14.49412,-2.67655 14.49412,-2.67655c0,0 -2.08342,2.30908 -1.40085,3.22084z"/><path d="M270.00844,198.92842c-0.25792,0.06645 -2.51926,1.45134 -2.73147,1.55955c-2.5339,1.29193 -4.79783,2.19164 -6.87632,3.54585c-0.51582,-1.08634 -1.0902,-2.4127 -1.7055,-4.01909c-1.69268,-4.41899 -0.54245,-7.46326 -0.54245,-7.46326c0,0 2.43963,2.79018 6.65407,4.96595c1.87185,0.96639 4.11653,0.85254 5.2017,1.41099z"/></g><g fill="#000000" stroke="none" stroke-width="0" stroke-linecap="butt"><path d="M220.25623,169.1876c0.73383,8.56354 -2.57449,15.84015 -7.38934,16.25274c-4.81483,0.41259 -9.31293,-6.19506 -10.04676,-14.7586c-0.73383,-8.56354 2.57449,-15.84015 7.38934,-16.25274c4.81483,-0.41259 9.31293,6.19507 10.04676,14.75861z"/><path d="M210.71106,176.67992c0.10845,1.26561 -4.12207,2.2602 -4.12207,2.2602c0,0 -1.2002,-0.36696 -2.7712,-0.84343c-2.04622,-0.62059 -4.58871,-1.50823 -4.57037,-2.84322c0.02139,-1.55679 2.50589,-1.57089 4.4312,-1.53985c1.43411,0.02313 2.45786,-0.05416 2.45786,-0.05416c0,0 4.46612,1.75483 4.57459,3.02045z"/></g><g data-paper-data="{&quot;index&quot;:null}" fill="#000000" stroke="none" stroke-width="0" stroke-linecap="butt"><path d="M260.00611,150.56329c4.81484,-0.41259 9.31293,6.19507 10.04676,14.75861c0.73383,8.56354 -2.57449,15.84015 -7.38934,16.25274c-4.81484,0.41259 -9.31293,-6.19506 -10.04676,-14.7586c-0.73383,-8.56354 2.57449,-15.84016 7.38934,-16.25275z"/><path d="M267.29151,168.82044c0,0 1.02198,-0.09802 2.43124,-0.3648c1.89197,-0.35816 4.34263,-0.76695 4.62856,0.7635c0.2452,1.31241 -2.10919,2.61967 -4.02,3.57935c-1.46704,0.7368 -2.58731,1.30261 -2.58731,1.30261c0,0 -4.33807,-0.26032 -4.44652,-1.52593c-0.10845,-1.26561 3.99401,-3.75472 3.99401,-3.75472z"/></g><path d="M212.63422,166.05201c0.28966,3.38022 -1.00495,6.25149 -2.89159,6.41316c-1.88664,0.16167 -3.65087,-2.44747 -3.94052,-5.82771c-0.28966,-3.38022 1.00495,-6.25148 2.89159,-6.41315c1.88664,-0.16167 3.65087,2.44747 3.94052,5.8277z" fill="#ffffff" stroke="none" stroke-width="0" stroke-linecap="butt"/><path d="M261.8579,161.54718c0.28966,3.38022 -1.00494,6.25149 -2.89158,6.41316c-1.88664,0.16167 -3.65087,-2.44748 -3.94052,-5.82771c-0.28966,-3.38022 1.00494,-6.25148 2.89159,-6.41315c1.88664,-0.16167 3.65086,2.44747 3.94051,5.8277z" fill="#ffffff" stroke="none" stroke-width="0" stroke-linecap="butt"/><path d="M224.91351,173.81769c-0.56248,-6.56392 4.30265,-12.34099 10.86656,-12.90347c6.56392,-0.56248 12.34099,4.30265 12.90347,10.86656c0.56248,6.56392 -4.30265,12.34099 -10.86656,12.90346c-6.56392,0.56248 -12.34099,-4.30264 -12.90347,-10.86655z" fill="#6e6e30" stroke="none" stroke-width="0" stroke-linecap="butt"/><path d="M212.18393,177.52919c-0.08907,-1.0394 0.68133,-1.95418 1.72072,-2.04326c1.0394,-0.08907 1.9542,0.68133 2.04328,1.72071c0.08907,1.0394 -0.68134,1.95419 -1.72072,2.04327c-1.0394,0.08907 -1.95419,-0.68134 -2.04327,-1.72072z" fill="#6e6e30" stroke="none" stroke-width="0" stroke-linecap="butt"/><path d="M262.14999,173.69358c-0.08907,-1.0394 0.68133,-1.95419 1.72072,-2.04327c1.0394,-0.08907 1.9542,0.68133 2.04327,1.72071c0.08907,1.0394 -0.68134,1.95419 -1.72071,2.04327c-1.0394,0.08907 -1.9542,-0.68133 -2.04327,-1.72071z" fill="#6e6e30" stroke="none" stroke-width="0" stroke-linecap="butt"/><path d="M237.7412,186.51885c-6.76242,0.59372 -7.20708,-7.5551 -7.20708,-7.5551c0,0 3.18964,0.03043 3.99459,-0.42054c0.97503,-0.54627 2.71558,-2.84285 2.71558,-2.84285c0,0 2.25881,1.96772 3.1934,2.31132c0.77483,0.28486 3.32448,-0.289 3.32448,-0.289c0,0 1.3,8.5843 -6.02097,8.79617z" fill="#c5c556" stroke="#000000" stroke-width="1.5" stroke-linecap="butt"/><path d="M246.40492,175.23796c0,0 -1.20957,3.55633 -5.53147,2.97941c-3.06493,-0.40912 -3.62862,-3.45198 -3.62862,-3.45198c0,0 -0.39149,3.61604 -3.26836,4.18884c-4.11193,0.8187 -6.32186,-1.94223 -6.32186,-1.94223" fill="none" stroke="#000000" stroke-width="2" stroke-linecap="round"/><g stroke="none" stroke-width="0" stroke-linecap="butt"><path d="M243.51924,167.91594c0.19451,2.26986 -3.15255,7.31851 -6.42896,7.4511c-3.27545,0.13256 -7.57448,-3.96458 -7.76899,-6.23445c-0.19451,-2.26986 2.60872,-4.86549 6.62108,-5.20933c4.01236,-0.34382 7.38237,1.7228 7.57689,3.99267z" fill="#000000"/><path d="M240.79116,167.31333c0.08056,0.94004 -1.88008,1.87571 -4.37922,2.08987c-2.49914,0.21416 -4.59039,-0.37429 -4.67095,-1.31434c-0.08056,-0.94004 1.13567,-1.78687 4.53818,-2.18711c3.31967,-0.39051 4.43144,0.47156 4.51199,1.41159z" fill="#ffffff"/></g><path d="M237.33575,176.76787l0.50312,5.87133" fill="none" stroke="#000000" stroke-width="1" stroke-linecap="round"/><path d="M254.16988,211.26134c3.23897,1.43374 4.38175,5.94606 2.55248,10.07853c-1.82926,4.13246 -5.93786,6.32023 -9.17683,4.88647c-3.23897,-1.43374 -4.38175,-5.94606 -2.55248,-10.07853c1.82926,-4.13246 5.93786,-6.32022 9.17683,-4.88647z" data-paper-data="{&quot;index&quot;:null}" fill="#c5c556" stroke="#9b9b44" stroke-width="3" stroke-linecap="butt"/></g></g></svg>