<svg version="1.1" xmlns="http://www.w3.org/2000/svg" xmlns:xlink="http://www.w3.org/1999/xlink" width="36.79812" height="36.7981" viewBox="0,0,36.79812,36.7981"><g transform="translate(-302.91346,-162.9135)"><g stroke="none" stroke-miterlimit="10"><path d="M311.51759,163.9135h20.83988c4.07419,0 7.35411,3.303 7.35411,7.40583v20.98644c0,4.10283 -3.27992,7.40583 -7.35411,7.40583h-20.83988c-4.07418,0 -7.35411,-3.303 -7.35411,-7.40583v-20.98644c0,-4.10283 3.27993,-7.40583 7.35411,-7.40583z" fill-opacity="0.39216" fill="#000000" fill-rule="evenodd" stroke-width="0" stroke-linecap="round" stroke-linejoin="round"/><path d="M309.98312,162.9135h20.03379c3.9166,0 7.06966,3.15307 7.06966,7.06966v20.03379c0,3.91659 -3.15306,7.06966 -7.06966,7.06966h-20.03379c-3.91659,0 -7.06966,-3.15307 -7.06966,-7.06966v-20.03379c0,-3.91659 3.15307,-7.06966 7.06966,-7.06966z" fill="#a0a300" fill-rule="evenodd" stroke-width="0" stroke-linecap="round" stroke-linejoin="round"/><g fill="#000000" fill-rule="nonzero" stroke-linecap="butt" stroke-linejoin="miter"><g stroke-width="0.25"><path d="M319.97292,167.78313c-0.47472,0.08744 -0.82994,0.2521 -1.30586,0.48841c-0.37579,0.31957 -0.82032,0.53228 -1.19117,0.85811c-0.34702,0.30488 -0.5239,0.77056 -0.84019,1.06571c-0.42924,0.40056 -1.18623,0.06261 -1.3975,-0.38546c0.20363,-0.63537 0.36073,-1.30728 0.86563,-1.79297c0.5982,-0.57545 1.73392,-0.8158 2.52366,-0.68284c0.4863,0.08117 0.95143,0.22794 1.3634,0.44067z"/><path d="M329.09885,168.58707c0.23312,-0.09375 0.46784,-0.172 0.69551,-0.22827c0.66369,-0.05113 1.80119,-0.1926 2.4218,0.14349c0.1938,0.10495 0.36121,0.28377 0.5484,0.4033c0.45983,0.29365 0.82656,0.65928 0.7941,1.24142c-0.04086,1.00707 -1.33537,1.17602 -2.01519,0.59559c-0.48758,-0.41629 -0.82087,-1.05515 -1.30302,-1.50135c-0.4011,-0.19482 -0.74403,-0.46606 -1.14159,-0.65418z"/><path d="M329.84452,176.84533c-0.01536,0.09057 -0.02952,0.18007 -0.0381,0.26586c-0.06874,0.68633 -0.19807,1.38717 -0.6489,1.9374c-0.25836,0.53694 -0.64566,1.35024 -1.30539,1.45598c-0.95105,0.15242 -1.33854,-0.68192 -0.79373,-1.41172c0.25231,-0.39803 0.65443,-0.60905 1.02768,-0.87553c0.59851,-0.42729 1.24386,-0.8418 1.75843,-1.37199z"/><path d="M321.12859,187.45483c-0.0054,-0.00591 -0.02989,-0.00624 -0.03543,-0.01209c-0.09009,-0.0953 -0.22436,-0.17509 -0.35215,-0.25406c0.96105,-0.6161 1.58467,-1.88866 1.7327,-3.08891l0.03543,-0.03647c0.27078,-0.57642 1.01212,-1.15033 1.60419,-1.36655c0.37778,-0.13952 0.84498,-0.38589 1.24672,-0.4015c1.13126,-0.044 1.86604,1.06457 1.67649,2.12516c-0.25675,1.53818 -1.68544,2.73502 -2.9596,3.48046c-0.72015,0.51679 -1.58981,0.87258 -1.91666,1.77468c-0.15048,0.41533 -0.17516,0.95592 -0.06803,1.37666c0.00196,0.00769 -0.00309,0.034 -0.00114,0.04185c-0.14067,-0.08 -0.2646,-0.18133 -0.32022,-0.31949c-0.16373,-0.4067 0.10749,-1.13393 0.17023,-1.55259c0.2189,-0.37106 0.40027,-0.70603 0.69753,-1.03361c0.14291,-0.15748 0.46734,-0.36015 0.46891,-0.60649c0.00264,-0.41131 -0.34558,-0.44583 -0.63911,-0.49483c-0.57657,-0.09624 -0.90777,0.01464 -1.33989,0.36779z"/><path d="M315.31183,181.97836c-0.58657,0.89148 -0.83967,2.33525 -0.16516,3.17249c-0.61701,-0.01072 -1.19897,0.13978 -1.69896,0.42464c-0.03183,-0.01001 -0.06375,-0.0201 -0.09559,-0.0301c-0.47779,-0.22849 -1.04099,-0.56139 -1.38937,-0.96508c-0.59037,-0.68405 -0.50356,-1.94876 -0.27893,-2.74171c0.49976,-1.61101 2.02297,-2.30054 3.54634,-2.67039c1.61846,-0.50056 3.38754,-0.46613 4.62892,-1.79589c0.16415,-0.25495 0.3833,-0.54155 0.49178,-0.82274c0.65308,-1.69297 -0.78542,-2.29464 -1.96052,-3.06277c-0.70351,-0.69988 0.47693,-1.63617 1.16096,-1.66693c0.34275,-0.01543 0.68585,0.24043 0.99598,0.34065c0,0 0.07161,0.02272 0.14056,-0.00371c0.01499,0.17316 0.02816,0.35024 0.0336,0.53457c0.01772,0.60035 -0.06061,1.27824 0.07639,1.86137c0,0 0.04764,0.19296 0.24027,0.14591c0.19263,-0.04704 0.13551,-0.22259 0.13551,-0.22259c-0.14006,-0.5463 -0.04303,-1.2141 -0.06243,-1.78027c-0.02677,-0.78116 -0.18884,-1.41882 -0.05692,-2.20921c0.02282,-0.15225 0.14273,-0.56683 0.31035,-0.6367c0.26337,-0.1098 1.03914,0.09278 1.2115,0.3239c0.06821,0.09146 0.01737,0.2284 0.04188,0.33984c0.12983,0.59041 -0.02824,1.18369 0.03836,1.77108c-0.02686,0.15364 -0.03419,0.30288 -0.03841,0.4556c-0.20031,0.33844 -0.35431,0.70041 -0.42436,1.10529c0,0 -0.03226,0.1959 0.16333,0.22854c0.19559,0.03264 0.21555,-0.14771 0.21555,-0.14771c0.04391,-0.27551 0.13633,-0.53018 0.25889,-0.77113c0.13191,-0.01923 0.15614,-0.16454 0.15614,-0.16454l0.01203,-0.08383c0.00038,-0.01622 0.00078,-0.03233 0.00119,-0.04839c0.24774,-0.39346 0.57473,-0.77001 0.86908,-1.13076c0.32542,-0.39884 0.60937,-0.8362 1.10902,-1.02275c0.39406,-0.04155 1.09301,-0.07297 1.37399,0.27511c0.1414,0.17517 0.03275,0.47167 0.00147,0.66045c-0.10341,0.62417 -0.61643,1.15689 -1.11908,1.51598c-0.33848,0.29132 -0.73425,0.50319 -1.09525,0.75869c-0.29181,0.10586 -0.55747,0.22629 -0.76157,0.32595l-0.16555,0.13824c0,0 -0.14743,0.13261 -0.0151,0.28028c0.13233,0.14767 0.28021,0.0156 0.28021,0.0156l0.08984,-0.09062c0.13247,-0.06488 0.31826,-0.1548 0.53066,-0.24443c0.0651,0.00618 0.12101,-0.0227 0.12101,-0.0227l0.14976,-0.07981c0.00469,-0.00335 0.00939,-0.0067 0.01409,-0.01003c0.74942,-0.27505 1.66303,-0.42783 1.82878,0.42163c0.02741,0.14051 -0.00204,0.37936 -0.01187,0.5095c-0.19497,1.26502 -1.71091,0.94538 -2.57199,0.98292c-0.27456,0.01197 -0.62855,0.13192 -0.90277,0.21667c-0.07294,-0.01499 -0.1402,0.01999 -0.1402,0.01999l-0.07505,0.04279c-0.76359,0.235 -1.04512,0.73802 -1.24781,1.48669c-0.1555,0.92488 -0.18078,2.14472 0.14765,3.04307c0.23917,0.65419 0.52508,1.3212 0.65615,2.00675c0.26317,1.32377 -0.41552,3.38459 -1.70449,4.01009c-1.80271,0.46735 -2.87812,-0.7552 -4.23404,-1.61574c-1.36191,-0.43619 -1.13937,-2.17318 -0.49809,-3.14046c0,0 0.10893,-0.16575 -0.05654,-0.27502c-0.16546,-0.10927 -0.27496,0.05599 -0.27496,0.05599z"/><path d="M311.25854,179.41833c0.37798,0.19997 0.66767,0.51878 1.01508,0.7596c-0.42078,0.40476 -0.75396,0.90633 -0.95642,1.53328c-0.26136,0.92268 -0.32025,2.33332 0.35877,3.12377c0.35415,0.41228 0.89645,0.75458 1.39471,1.00381c-0.18536,0.14824 -0.35938,0.32297 -0.51761,0.52134l-0.00003,-0.00002c-0.05836,-0.02759 -0.11689,-0.05504 -0.17525,-0.08263c-0.57176,-0.36481 -0.72024,-1.155 -1.48522,-1.23403c-0.22254,-0.02299 -0.61729,-0.05942 -0.81445,0.05274c-0.77655,0.44168 -0.2325,1.70639 0.23431,2.13597c0.26419,0.46122 0.66809,0.89445 0.8841,1.3722c0.01784,0.03946 0.01896,0.22073 0.02214,0.36538c-0.07929,-0.10558 -0.17504,-0.20513 -0.17566,-0.20583c-0.31106,-0.36162 -0.64451,-0.71171 -0.99216,-1.03769c-0.97213,-0.97268 -2.65549,-2.24019 -2.81702,-3.68443c0.07021,-1.66914 0.06742,-3.30674 1.57604,-4.36802c0.65449,-0.56661 1.68955,-0.65707 2.44868,-0.25545z"/><path d="M315.71448,185.60114c0,0 0.0048,0.00078 0.01297,0.00139c0.07318,0.03376 0.15151,0.06369 0.23403,0.08962c0.46535,0.30192 0.8234,0.67711 1.26614,1.00144c0.83687,0.61305 2.06446,0.87771 3.0977,0.67294c0.15214,0.11579 0.37399,0.21383 0.50047,0.34442c0.72676,0.7503 -0.30987,2.21109 -0.83973,2.74121c-0.66467,0.57134 -1.46216,0.93019 -1.73183,1.85472c-0.06895,0.23641 -0.12252,0.56426 -0.06528,0.80733c0.02352,0.09983 0.04598,0.18362 0.10303,0.26885c0.0197,0.02941 0.07293,0.08729 0.11876,0.12046c-0.19495,-0.03152 -0.54609,-0.05831 -0.57877,-0.06376c-1.64962,-0.27535 -3.02683,-1.16801 -4.19027,-2.332c-0.67426,-0.62611 -1.329,-1.75313 -1.36507,-2.69014c-0.0168,-0.43639 0.17073,-1.004 0.29277,-1.42107c0.25121,-0.42937 0.55932,-0.76005 0.90928,-0.99468c0.05026,0.01823 0.26618,-0.1379 0.27006,-0.1584c0.57068,-0.28958 1.24226,-0.36306 1.96573,-0.24229z"/></g><path d="M324.14689,171.58307c-0.1285,-0.1285 0,-0.257 0,-0.257l0.16153,-0.16154c0.45382,-0.45057 1.09278,-0.70634 1.6286,-1.06199c0.89686,-0.86903 3.2059,-1.65651 4.39581,-1.65651c0,0 0.18172,0 0.18172,0.18172c0,0.18172 -0.18172,0.18172 -0.18172,0.18172c-1.08304,0 -3.3689,0.74607 -4.16538,1.57413c-0.51982,0.3478 -1.16578,0.59799 -1.60203,1.03792l-0.16153,0.16153c0,0 -0.1285,0.1285 -0.257,0z" stroke-width="0.5"/><path d="M322.53157,174.49064c-0.1285,-0.1285 0,-0.257 0,-0.257l0.16519,-0.12856c1.78627,-0.44578 3.55967,-1.92148 5.3894,-0.54365c1.4507,0.72384 2.82,2.77479 1.40599,4.24061c0,0 -0.1285,0.1285 -0.257,0c-0.1285,-0.1285 0,-0.257 0,-0.257c1.31595,-1.24917 -0.16105,-3.0839 -1.34006,-3.67445c-1.72293,-1.28733 -3.42113,0.16411 -5.11017,0.58708l0.00366,0.03297c0,0 -0.12849,0.1285 -0.257,0z" stroke-width="0.5"/><path d="M318.84389,167.90086c0,-0.18172 0.18172,-0.18172 0.18172,-0.18172h0.24229c2.04116,0.09054 2.20087,1.91963 2.20087,3.57389c0,0 0,0.18172 -0.18172,0.18172c-0.18172,0 -0.18172,-0.18172 -0.18172,-0.18172c0,-1.27854 -0.01935,-3.35602 -1.83742,-3.21044h-0.24229c0,0 -0.18172,0 -0.18172,-0.18172z" stroke-width="0.5"/></g></g></g></svg>