<svg version="1.1" xmlns="http://www.w3.org/2000/svg" xmlns:xlink="http://www.w3.org/1999/xlink" width="118.44559" height="109.62331" viewBox="0,0,118.44559,109.62331"><g transform="translate(-180.39099,-119.83339)"><g data-paper-data="{&quot;isPaintingLayer&quot;:true}" fill-rule="nonzero" stroke-linejoin="miter" stroke-miterlimit="10" stroke-dasharray="" stroke-dashoffset="0" style="mix-blend-mode: normal"><g stroke-linecap="butt"><path d="M288.375,207.45833c5.61856,4.91681 -4.86394,15.26507 -13.16667,16.91667c-13.24449,2.63463 -21.5,-5.58333 -21.5,-5.58333l-0.1,-8.31667c0,0 9.51723,8.05885 17.601,5.56911c6.88667,-2.82402 10.29427,-14.59894 17.16566,-8.58578z" fill="#ecec68" stroke="#000000" stroke-width="2"/><path d="M276.63039,211.15282l4.33946,-4.67009l8.14976,7.57279l-4.33946,4.67008z" fill="#000000" stroke="none" stroke-width="0"/><path d="M271.19663,216.27579l4.50931,-3.08252l4.09743,9.23928l-5.50931,2.08252z" fill="#000000" stroke="none" stroke-width="0"/><path d="M263.35949,216.07027l5.60739,0.59853l-1.57637,8.46927l-6.35739,-1.72354z" fill="#000000" stroke="none" stroke-width="0"/></g><path d="M240.91494,226.18342c0,0.7405 -3.6377,1.8081 -9.04974,1.77241c-5.91985,-0.03904 -8.28349,-1.2374 -8.59956,-1.91835c-1.38426,-2.98226 0.39895,-5.24797 8.5651,-5.10799c4.02776,0.06904 7.27771,0.47006 8.5305,1.30635c1.39536,0.93146 0.5537,2.37617 0.5537,3.94758z" fill="#c5c556" stroke="#9b9b44" stroke-width="3" stroke-linecap="butt"/><path d="M250.09348,220.92948c8.16615,-0.13998 9.94936,2.12573 8.5651,5.10799c-0.31292,0.67415 -2.25852,2.13538 -8.35773,1.80566c-6.6718,-0.36067 -9.29157,-0.91172 -9.29157,-1.65972c0,-1.57638 -0.72955,-3.24678 0.67809,-4.17864c1.25539,-0.83106 4.39253,-1.0065 8.40611,-1.0753z" data-paper-data="{&quot;index&quot;:null}" fill="#c5c556" stroke="#9b9b44" stroke-width="3" stroke-linecap="butt"/><path d="M241.68733,219.36998c-6.67004,0.08177 -14.65905,0.16354 -14.8262,-0.84771c-0.62812,-3.80007 5.58333,-17.32891 5.58333,-17.32891l17.34171,-0.44122c0,0 5.49496,15.18096 5.74163,17.06643c0.24667,1.88547 -6.60945,1.46275 -13.84047,1.55141z" fill="#000000" stroke="#6e6e30" stroke-width="3" stroke-linecap="butt"/><g stroke="none" stroke-width="0" stroke-linecap="butt"><path d="M240.08335,203.83337c-46.40531,-0.08963 -57.66666,-28.91667 -57.66666,-28.91667c0,0 6.87956,-1.62391 11.84189,-8.91083c10.97677,-16.11883 16.82951,-44.51292 44.32477,-44.67249c28.71764,-0.16666 34.16645,26.04675 45.69964,43.09099c4.63973,6.81709 12.63369,11.15902 12.63369,11.15902c0,0 -9.59507,28.34122 -56.83334,28.24998z" fill="#ecec68"/><path d="M295.91667,174.33335c0,0 -3.48769,11.52447 -14.90157,18.88298c-11.83902,7.6326 -30.68177,8.95036 -30.68177,8.95036c0,0 17.93006,-11.76622 16.75,-43.66667c-0.67473,-18.23973 -15.74999,-36 -15.74999,-36c0,0 11.02489,5.18765 18.70734,15.55847c6.13999,8.2886 8.77013,18.74313 12.68816,23.39823c1.91175,2.27138 3.09632,5.3325 5.28146,7.4323c3.59457,3.45417 7.90637,5.44433 7.90637,5.44433z" fill="#cbcb6a"/></g><path d="M199.27778,178.93651c0,-3.06825 2.48731,-5.55555 5.55556,-5.55555c3.06825,0 5.55556,2.4873 5.55556,5.55555c0,3.06825 -2.48731,5.55556 -5.55556,5.55556c-3.06825,0 -5.55556,-2.48731 -5.55556,-5.55556z" fill="#6e6e30" stroke="none" stroke-width="0" stroke-linecap="butt"/><path d="M268.38889,179.04762c0,-3.06825 2.48731,-5.55555 5.55556,-5.55555c3.06825,0 5.55556,2.4873 5.55556,5.55555c0,3.06825 -2.48731,5.55556 -5.55556,5.55556c-3.06825,0 -5.55556,-2.48731 -5.55556,-5.55556z" fill="#6e6e30" stroke="none" stroke-width="0" stroke-linecap="butt"/><g stroke="none" stroke-width="0" stroke-linecap="butt"><path d="M212.91667,133.5l-8.58333,15.66667c0,0 -1.55386,-0.44269 -4.28744,-0.98487c-3.71525,-0.73689 -9.18606,-2.08117 -11.96256,-6.6818c-5.05591,-8.37756 -1.14472,-14.63244 1.32946,-17.30058c2.59151,-2.79467 8.62368,-5.7473 14.92054,-3.36609c5.01294,1.89569 6.59846,6.00068 7.46592,8.98569c0.63278,2.17746 1.11742,3.68098 1.11742,3.68098z" fill="#000000"/><path d="M194.91667,135.58335c0,-3.81997 3.0967,-6.91667 6.91667,-6.91667c3.81997,0 6.91667,3.0967 6.91667,6.91667c0,3.81997 -3.0967,6.91667 -6.91667,6.91667c-3.81997,0 -6.91667,-3.0967 -6.91667,-6.91667z" fill="#cbcb6a"/></g><path d="M240.08334,203.83338c-46.40531,-0.08963 -57.66666,-28.91667 -57.66666,-28.91667c0,0 6.87956,-1.62391 11.84189,-8.91083c10.97677,-16.11883 16.82951,-44.51292 44.32477,-44.67249c28.71764,-0.16666 33.39705,26.11672 45.03297,43.09099c6.19986,9.04424 13.30036,11.15902 13.30036,11.15902c0,0 -9.59507,28.34122 -56.83334,28.24998z" fill="none" stroke="#000000" stroke-width="3" stroke-linecap="butt"/><g data-paper-data="{&quot;index&quot;:null}" stroke="none" stroke-width="0" stroke-linecap="butt"><path d="M266.79024,133.5c0,0 0.48464,-1.50352 1.11742,-3.68098c0.86746,-2.98501 2.45298,-7.09 7.46592,-8.98569c6.29686,-2.38121 12.32903,0.57142 14.92054,3.36609c2.47418,2.66814 6.38537,8.92302 1.32946,17.30058c-2.7765,4.60063 -8.24731,5.94491 -11.96256,6.6818c-2.73358,0.54218 -4.28744,0.98487 -4.28744,0.98487l-8.58333,-15.66667z" fill="#000000"/><path d="M277.87358,142.5c-3.81997,0 -6.91667,-3.0967 -6.91667,-6.91667c0,-3.81997 3.0967,-6.91667 6.91667,-6.91667c3.81997,0 6.91667,3.0967 6.91667,6.91667c0,3.81997 -3.0967,6.91667 -6.91667,6.91667z" fill="#cbcb6a"/></g><path d="M232.38003,121.26598l13.125,0.25c0,0 -0.26848,9.11403 -2.13462,17.07354c-1.40906,6.00995 -3.49038,11.30147 -3.49038,11.30147c0,0 -2.86909,-4.58786 -4.53153,-11.27449c-1.25466,-5.04646 -2.96847,-17.35051 -2.96847,-17.35051z" fill="#000000" stroke="none" stroke-width="0" stroke-linecap="butt"/><path d="M225.50503,140.64098c0,0 4.13078,-7.6281 14,-7.75c10.11997,-0.125 13.5,7.75 13.5,7.75z" fill="#000000" stroke="none" stroke-width="0" stroke-linecap="butt"/><path d="M223.25503,131.01598c0,0 4.55673,-8.12809 16.04091,-8.25c11.77597,-0.125 15.95909,8.25 15.95909,8.25z" fill="#000000" stroke="none" stroke-width="0" stroke-linecap="butt"/><g fill="#000000" stroke="none" stroke-width="0" stroke-linecap="butt"><path d="M189.50503,184.76597c0,0 -5.60752,-6.31167 -5.76372,-8.63249c-0.131,-1.94624 4.88872,-4.36751 4.88872,-4.36751c0,0 3.71014,2.85904 9.22141,4.91485c4.62539,1.72537 9.27859,2.08515 9.27859,2.08515c0,0 -2.02001,3.04573 -7.15826,4.40228c-7.51871,1.985 -10.46673,1.59772 -10.46673,1.59772z"/><path d="M191.16782,186.60214c0,0 8.5765,1.63179 13.7947,1.17929c4.37943,-0.37975 8.25941,-1.86845 8.25941,-1.86845c0,0 0.3232,3.12014 -3.4501,6.77599c-2.13123,2.06489 -4.30808,3.31967 -5.598,4.09551c-0.80677,-0.42365 -2.36701,-1.18239 -3.11589,-1.53654c-0.62939,-0.29764 -1.5693,-1.25443 -2.66647,-2.40123c-0.91723,-1.56703 -2.24875,-2.86208 -3.84425,-3.73485c-0.02781,-0.01521 -0.05569,-0.03029 -0.08365,-0.04524c0.60224,-0.96669 -3.29574,-2.46448 -3.29574,-2.46448z"/><path d="M213.99988,196.48354c4.01327,-2.52765 6.20578,-5.51593 6.20578,-5.51593c0,0 1.40595,2.93494 0.09674,7.48233c-0.47592,1.65305 -0.93496,3.02361 -1.35613,4.15002c-2.18654,-1.17181 -4.519,-1.87494 -7.15396,-2.94581c-0.22069,-0.08969 -2.592,-1.27644 -2.85465,-1.32064c1.03352,-0.64907 3.27971,-0.72729 5.06222,-1.84996z"/></g><g data-paper-data="{&quot;index&quot;:null}" fill="#000000" stroke="none" stroke-width="0" stroke-linecap="butt"><path d="M279.25223,182.91825c-5.13826,-1.35655 -7.15826,-4.40228 -7.15826,-4.40228c0,0 4.65321,-0.35978 9.27859,-2.08515c5.51126,-2.05581 9.22141,-4.91485 9.22141,-4.91485c0,0 5.01972,2.42127 4.88872,4.36751c-0.15621,2.32082 -5.76372,8.63249 -5.76372,8.63249c0,0 -2.94803,0.38728 -10.46674,-1.59772z"/><path d="M287.26045,189.19162c-0.02796,0.01495 -0.80585,0.53003 -0.83366,0.54524c-1.59551,0.87277 -4.67703,1.29282 -5.59425,2.85985c-0.18881,0.19735 1.87704,1.51408 1.69832,1.69778c-0.85979,0.88381 -3.84372,0.45704 -4.36479,0.70345c-0.74888,0.35415 -2.30912,1.11289 -3.11589,1.53654c-1.28992,-0.77584 -3.46678,-2.03062 -5.598,-4.09551c-3.7733,-3.65586 -3.45011,-6.77599 -3.45011,-6.77599c0,0 3.87998,1.4887 8.25941,1.86845c5.21819,0.45249 14.6697,-1.42929 14.6697,-1.42929c0,0 -2.27297,2.12278 -1.67073,3.08948z"/><path d="M270.28634,198.08349c-0.26265,0.0442 -2.63397,1.23095 -2.85465,1.32064c-2.63495,1.07087 -4.96742,1.774 -7.15395,2.94581c-0.42118,-1.12641 -0.88022,-2.49697 -1.35613,-4.15002c-1.30921,-4.54738 0.09674,-7.48233 0.09674,-7.48233c0,0 2.1925,2.98828 6.20578,5.51593c1.78251,1.12267 4.02871,1.20089 5.06223,1.84996z"/></g><g fill="#000000" stroke="none" stroke-width="0" stroke-linecap="butt"><path d="M223.25503,164.20347c0,8.59493 -3.91751,15.5625 -8.75,15.5625c-4.83249,0 -8.75,-6.96757 -8.75,-15.5625c0,-8.59493 3.91751,-15.5625 8.75,-15.5625c4.83249,0 8.75,6.96757 8.75,15.5625z"/><path d="M213.10503,170.85347c0,1.27025 -4.3,1.9 -4.3,1.9c0,0 -1.16448,-0.46809 -2.68907,-1.07695c-1.98577,-0.79303 -4.44318,-1.8945 -4.31093,-3.22305c0.15422,-1.54928 2.63085,-1.3512 4.54649,-1.15589c1.4269,0.14549 2.45351,0.15589 2.45351,0.15589c0,0 4.3,2.12974 4.3,3.4z"/></g><g data-paper-data="{&quot;index&quot;:null}" fill="#000000" stroke="none" stroke-width="0" stroke-linecap="butt"><path d="M264.44991,149.04097c4.83249,0 8.75,6.96757 8.75,15.5625c0,8.59493 -3.91751,15.5625 -8.75,15.5625c-4.83249,0 -8.75,-6.96757 -8.75,-15.5625c0,-8.59493 3.91751,-15.5625 8.75,-15.5625z"/><path d="M270.14991,167.85347c0,0 1.02662,-0.0104 2.45352,-0.15589c1.91564,-0.19531 4.39226,-0.39339 4.54648,1.15589c0.13225,1.32855 -2.32515,2.43002 -4.31092,3.22305c-1.52459,0.60886 -2.68908,1.07695 -2.68908,1.07695c0,0 -4.3,-0.62975 -4.3,-1.9c0,-1.27025 4.3,-3.4 4.3,-3.4z"/></g><path d="M215.92857,160.42857c0,3.39261 -1.53502,6.14286 -3.42857,6.14286c-1.89355,0 -3.42857,-2.75025 -3.42857,-6.14286c0,-3.39261 1.53502,-6.14285 3.42857,-6.14285c1.89355,0 3.42857,2.75025 3.42857,6.14285z" fill="#ffffff" stroke="none" stroke-width="0" stroke-linecap="butt"/><path d="M265.35714,160.14286c0,3.39261 -1.53502,6.14286 -3.42857,6.14286c-1.89355,0 -3.42857,-2.75026 -3.42857,-6.14286c0,-3.39261 1.53502,-6.14285 3.42857,-6.14285c1.89355,0 3.42857,2.75025 3.42857,6.14285z" fill="#ffffff" stroke="none" stroke-width="0" stroke-linecap="butt"/><path d="M227.5,169.21429c0,-6.58797 5.3406,-11.92857 11.92857,-11.92857c6.58797,0 11.92857,5.3406 11.92857,11.92857c0,6.58797 -5.3406,11.92857 -11.92857,11.92857c-6.58797,0 -11.92857,-5.3406 -11.92857,-11.92857z" fill="#6e6e30" stroke="none" stroke-width="0" stroke-linecap="butt"/><path d="M214.5,171.8254c0,-1.04321 0.84569,-1.88888 1.88889,-1.88888c1.04321,0 1.88889,0.84568 1.88889,1.88888c0,1.04321 -0.84569,1.88889 -1.88889,1.88889c-1.04321,0 -1.88889,-0.84569 -1.88889,-1.88889z" fill="#6e6e30" stroke="none" stroke-width="0" stroke-linecap="butt"/><path d="M264.61111,172.26984c0,-1.04321 0.84569,-1.88888 1.88889,-1.88888c1.04321,0 1.88889,0.84568 1.88889,1.88888c0,1.04321 -0.84569,1.88889 -1.88889,1.88889c-1.04321,0 -1.88889,-0.84569 -1.88889,-1.88889z" fill="#6e6e30" stroke="none" stroke-width="0" stroke-linecap="butt"/><path d="M239.39944,182.02226c-6.79087,-0.40062 -9.21651,-7.74701 -7.75836,-9.39411c1.57961,-1.78429 1.60443,1.11072 4.84011,0.61426c2.26381,-0.34734 2.80646,-2.13105 2.80646,-2.13105c0,0 0.90921,1.53208 2.65626,2.08264c2.0861,0.65741 2.38074,-2.2054 4.47725,-0.95763c3.20488,2.0779 -0.69504,10.15912 -7.02172,9.78588z" fill="#000000" stroke="#000000" stroke-width="2" stroke-linecap="round"/><g stroke="none" stroke-width="0" stroke-linecap="butt"><path d="M246.54167,164.92262c0,2.27818 -3.76589,7.02263 -7.04166,6.875c-3.27481,-0.14758 -7.20834,-4.59682 -7.20834,-6.875c0,-2.27818 3.0146,-4.625 7.04167,-4.625c4.02707,0 7.20833,2.34682 7.20833,4.625z" fill="#000000"/><path d="M243.875,164.08929c0,0.94349 -2.03337,1.70834 -4.54166,1.70834c-2.5083,0 -4.54167,-0.76485 -4.54167,-1.70834c0,-0.94349 1.28408,-1.68337 4.70834,-1.79166c3.34089,-0.10566 4.375,0.84818 4.375,1.79166z" fill="#ffffff"/></g><path d="M245.07223,172.83513c0,3.79236 -2.44751,9.43154 -5.46667,9.43154c-3.01916,0 -5.46667,-5.63918 -5.46667,-9.43154c0,-3.79236 2.3364,-3.85736 5.35556,-3.85736c3.01916,0 5.57778,0.065 5.57778,3.85736z" fill="#c5c556" stroke="#000000" stroke-width="1.5" stroke-linecap="butt"/><g data-paper-data="{&quot;index&quot;:null}" stroke-linecap="butt"><path d="M222.45969,207.21971c-3.631,-0.4909 -6.19251,-3.71441 -5.72128,-7.19991c0.47123,-3.48549 3.79675,-5.91309 7.42775,-5.42219c3.631,0.4909 6.19251,3.71441 5.72128,7.19991c-0.47123,3.48549 -3.79675,5.91309 -7.42775,5.42219z" fill="#ecec68" stroke="#000000" stroke-width="2"/><path d="M229.45462,201.87972c0,0 -0.21022,6.00099 -6.73632,5.37671c-6.10651,-0.58415 -6.72332,-7.19641 -6.72332,-7.19641z" fill="#000000" stroke="none" stroke-width="0"/></g><g data-paper-data="{&quot;index&quot;:null}" stroke-linecap="butt"><path d="M248.65085,202.59752c-0.47123,-3.48549 2.09028,-6.709 5.72128,-7.19991c3.631,-0.4909 6.95652,1.9367 7.42775,5.42219c0.47123,3.48549 -2.09027,6.709 -5.72128,7.19991c-3.631,0.4909 -6.95652,-1.9367 -7.42775,-5.42219z" fill="#ecec68" stroke="#000000" stroke-width="2"/><path d="M262.54331,200.86002c0,0 -0.61681,6.61226 -6.72332,7.19641c-6.5261,0.62428 -6.73632,-5.3767 -6.73632,-5.3767z" fill="#000000" stroke="none" stroke-width="0"/></g></g></g></svg>