<svg version="1.1" xmlns="http://www.w3.org/2000/svg" xmlns:xlink="http://www.w3.org/1999/xlink" width="118.44749" height="104.78455" viewBox="0,0,118.44749,104.78455"><g transform="translate(-185.38763,-129.60635)"><g data-paper-data="{&quot;isPaintingLayer&quot;:true}" fill-rule="nonzero" stroke-linejoin="miter" stroke-miterlimit="10" stroke-dasharray="" stroke-dashoffset="0" style="mix-blend-mode: normal"><g data-paper-data="{&quot;index&quot;:null}" stroke-linecap="butt"><path d="M265.51388,215.45259c3.40714,3.36179 3.65047,7.34756 1.58168,9.44427c-2.06879,2.09671 -7.18316,1.10018 -10.59031,-2.26161c-3.40714,-3.36179 -3.81685,-7.81579 -1.74806,-9.91249c2.06879,-2.09671 7.34954,-0.63195 10.75669,2.72984z" fill="#ecec68" stroke="#000000" stroke-width="2"/><path d="M260.37609,225.04035l6.96084,-6.49289c0,0 2.77364,3.32324 0.11996,6.40871c-2.27958,2.65052 -7.0808,0.08417 -7.0808,0.08417z" fill="#000000" stroke="none" stroke-width="0"/><path d="M254.78464,220.43549l8.29585,-7.33644l2.50947,2.44826l-8.00564,7.70792z" fill="#000000" stroke="none" stroke-width="0"/></g><path d="M255.09348,225.92948c8.16615,-0.13998 9.94936,2.12573 8.5651,5.10799c-0.31292,0.67415 -2.25852,2.13538 -8.35773,1.80566c-6.6718,-0.36067 -9.29157,-0.91172 -9.29157,-1.65972c0,-1.57638 -0.72955,-3.24678 0.67809,-4.17864c1.25539,-0.83106 4.39253,-1.0065 8.40611,-1.0753z" data-paper-data="{&quot;index&quot;:null}" fill="#c5c556" stroke="#9b9b44" stroke-width="3" stroke-linecap="butt"/><g data-paper-data="{&quot;index&quot;:null}" stroke-linecap="butt"><path d="M199.15124,211.74405c6.87139,-6.01316 10.27899,5.76176 17.16566,8.58578c5.58377,2.28974 11.501,-1.66911 11.501,-1.66911l6,4.41667c0,0 -8.25551,8.21796 -21.5,5.58333c-8.30273,-1.6516 -18.78523,-11.99986 -13.16667,-16.91667z" fill="#ecec68" stroke="#000000" stroke-width="2"/><path d="M202.74608,223.01132l-4.33946,-4.67008l8.14976,-7.57279l4.33946,4.67009z" fill="#000000" stroke="none" stroke-width="0"/><path d="M213.23217,228.80079l-5.50931,-2.08252l4.09743,-9.23928l4.50931,3.08252z" fill="#000000" stroke="none" stroke-width="0"/><path d="M226.49311,227.70025l-6.35739,1.72354l-1.57637,-8.46927l5.60739,-0.59853z" fill="#000000" stroke="none" stroke-width="0"/></g><path d="M245.83019,224.51284c-6.67004,0.08177 -14.65905,0.16354 -14.8262,-0.84771c-0.62812,-3.80007 5.58333,-17.32891 5.58333,-17.32891l17.34171,-0.44122c0,0 5.49496,15.18096 5.74163,17.06643c0.24667,1.88547 -6.60945,1.46275 -13.84047,1.55141z" data-paper-data="{&quot;index&quot;:null}" fill="#000000" stroke="#6e6e30" stroke-width="3" stroke-linecap="butt"/><path d="M230.73191,227.09298c1.25279,-0.83629 4.50274,-1.23731 8.5305,-1.30635c8.16615,-0.13998 9.94936,2.12573 8.5651,5.10799c-0.31607,0.68095 -2.67971,1.87931 -8.59956,1.91835c-5.41204,0.03569 -9.04974,-1.03191 -9.04974,-1.77241c0,-1.57141 -0.84166,-3.01612 0.5537,-3.94758z" data-paper-data="{&quot;index&quot;:null}" fill="#c5c556" stroke="#9b9b44" stroke-width="3" stroke-linecap="butt"/><g data-paper-data="{&quot;index&quot;:null}" stroke-linecap="butt"><path d="M233.61301,211.39701c2.36729,1.75273 2.6491,6.21664 -0.19907,10.06347c-2.84816,3.84685 -7.74777,5.61989 -10.11506,3.86717c-2.36729,-1.75273 -2.74131,-5.72836 0.10685,-9.57521c2.84816,-3.84685 7.83998,-6.10817 10.20727,-4.35544z" fill="#ecec68" stroke="#000000" stroke-width="2"/><path d="M222.951,225.44196c-3.09761,-2.63951 -0.86944,-6.35059 -0.86944,-6.35059l7.87857,5.3422c0,0 -4.3482,3.27582 -7.00914,1.00839z" fill="#000000" stroke="none" stroke-width="0"/><path d="M232.44335,222.23939l-9.09819,-6.38164l2.10205,-2.80584l9.32766,5.96986z" fill="#000000" stroke="none" stroke-width="0"/></g><g><path d="M244.02474,213.82873c-47.23725,-0.32347 -56.58314,-28.74783 -56.58314,-28.74783c0,0 8.03177,-4.27158 12.73117,-11.04768c11.68238,-16.94233 17.3611,-43.1069 46.07617,-42.68813c27.4928,0.40094 33.09604,28.84532 43.93088,45.0599c4.89817,7.3302 11.76321,9.01445 11.76321,9.01445c0,0 -11.51399,28.72707 -57.9183,28.4093z" fill="#ecec68" stroke="none" stroke-width="0" stroke-linecap="butt"/><path d="M280.14248,194.65914c-2.60372,-0.02286 -4.69228,-2.56812 -4.66491,-5.68501c0.02736,-3.11688 2.16029,-5.62508 4.76401,-5.60222c2.60372,0.02286 4.69228,2.56811 4.66491,5.685c-0.02736,3.11688 -2.16029,5.62509 -4.76401,5.60223z" data-paper-data="{&quot;index&quot;:null}" fill="#6e6e30" stroke="none" stroke-width="0" stroke-linecap="butt"/><path d="M196.26355,178.46372c2.20349,-2.08054 3.41489,-5.13114 5.3465,-7.38565c3.95875,-4.62052 6.68057,-15.05156 12.89308,-23.28594c7.7732,-10.30298 18.84321,-15.39364 18.84321,-15.39364c0,0 -15.2306,17.62724 -16.06543,35.86034c-1.46007,31.88886 16.36601,43.81204 16.36601,43.81204c0,0 -18.82701,-1.46907 -30.59856,-9.20531c-11.34884,-7.45843 -14.73867,-19.02713 -14.73867,-19.02713c0,0 4.32911,-1.95223 7.95386,-5.37471z" fill="#cbcb6a" stroke="none" stroke-width="0" stroke-linecap="butt"/><g data-paper-data="{&quot;index&quot;:null}" stroke="none" stroke-width="0" stroke-linecap="butt"><path d="M271.66495,143.73531c0,0 0.49782,-1.49921 1.14969,-3.67103c0.89363,-2.97728 2.51513,-7.06819 7.54452,-8.9198c6.31752,-2.32584 12.32354,0.67963 14.89041,3.49695c2.45066,2.68976 6.30679,8.97873 1.17753,17.31158c-2.81678,4.57608 -8.29918,5.87228 -12.02076,6.57652c-2.73823,0.51816 -4.29592,0.94719 -4.29592,0.94719l-8.44546,-15.74142z" fill="#000000"/><path d="M282.66886,152.83228c-3.81982,-0.03354 -6.88922,-3.1573 -6.85568,-6.97712c0.03354,-3.81982 3.1573,-6.88922 6.97712,-6.85568c3.81982,0.03354 6.88922,3.1573 6.85568,6.97712c-0.03354,3.81982 -3.1573,6.88922 -6.97712,6.85568z" fill="#cbcb6a"/></g><path d="M243.88189,213.82748c-47.23725,-0.32347 -56.58314,-28.74783 -56.58314,-28.74783c0,0 7.11879,-2.05236 13.39781,-11.04183c11.78449,-16.87146 16.69446,-43.11275 45.40953,-42.69399c27.4928,0.40094 33.09604,28.84532 43.93088,45.0599c4.89817,7.3302 11.76321,9.01445 11.76321,9.01445c0,0 -11.51399,28.72707 -57.9183,28.4093z" data-paper-data="{&quot;index&quot;:null}" fill="none" stroke="#000000" stroke-width="3" stroke-linecap="butt"/><g data-paper-data="{&quot;index&quot;:null}" stroke="none" stroke-width="0" stroke-linecap="butt"><path d="M217.79346,143.26235l-8.72054,15.59071c0,0 -1.54991,-0.45631 -4.27863,-1.02247c-3.70864,-0.76948 -9.16744,-2.16173 -11.90344,-6.78656c-4.98217,-8.42162 -1.01622,-14.64193 1.48129,-17.28824c2.61594,-2.77181 8.6738,-5.67137 14.94952,-3.23497c4.9961,1.93963 6.54553,6.05838 7.38675,9.05089c0.61364,2.18293 1.08506,3.69065 1.08506,3.69065z" fill="#000000"/><path d="M199.77586,145.18758c0.03354,-3.81982 3.1573,-6.88922 6.97712,-6.85568c3.81982,0.03354 6.88922,3.1573 6.85568,6.97712c-0.03354,3.81982 -3.1573,6.88922 -6.97712,6.85568c-3.81982,-0.03354 -6.88922,-3.1573 -6.85568,-6.97712z" fill="#cbcb6a"/></g><path d="M251.32854,131.83843c0,0 0.32853,10.2762 -0.08884,15.45951c-0.55303,6.86796 -2.63791,11.8613 -2.63791,11.8613c0,0 -2.91406,-4.88266 -5.28162,-10.58351c-3.13558,-7.55013 -4.73837,-16.6408 -4.73837,-16.6408l10.32329,-0.68924z" data-paper-data="{&quot;index&quot;:null}" fill="#000000" stroke="none" stroke-width="0" stroke-linecap="butt"/><path d="M233.09811,149.25221c0,0 1.87139,-7.14456 11.98988,-6.93072c9.86777,0.20854 15.50906,7.17214 15.50906,7.17214z" data-paper-data="{&quot;index&quot;:null}" fill="#000000" stroke="none" stroke-width="0" stroke-linecap="butt"/><path d="M229.49666,140.4524c0,0 2.82797,-8.3505 14.60239,-8.12212c11.48267,0.22272 17.39638,8.40305 17.39638,8.40305z" data-paper-data="{&quot;index&quot;:null}" fill="#000000" stroke="none" stroke-width="0" stroke-linecap="butt"/><g data-paper-data="{&quot;index&quot;:null}" fill="#000000" stroke="none" stroke-width="0" stroke-linecap="butt"><path d="M294.62563,195.20483c0,0 -2.95131,0.36138 -10.4523,-1.68955c-5.12614,-1.40161 -7.11934,-4.46495 -7.11934,-4.46495c0,0 4.65618,-0.31892 9.29654,-2.00361c5.52911,-2.00735 9.2642,-4.83371 9.2642,-4.83371c0,0 4.99827,2.46524 4.85019,4.41026c-0.17657,2.31936 -5.83928,8.58156 -5.83928,8.58156z"/><path d="M292.94678,197.02633c0,0 -3.91098,1.46351 -3.31725,2.43545c-0.02809,0.0147 -0.0561,0.02954 -0.08404,0.0445c-1.6031,0.85873 -2.94594,2.14204 -3.87689,3.70096c-1.1072,1.13712 -2.05547,2.08563 -2.68745,2.37773c-0.75196,0.34756 -2.3188,1.09258 -3.12926,1.50913c-1.28306,-0.78713 -3.44881,-2.06098 -5.56183,-4.1445c-3.74106,-3.68883 -3.39048,-6.80602 -3.39048,-6.80602c0,0 3.86676,1.5227 8.24269,1.94089c5.21403,0.49829 13.80452,-1.05814 13.80452,-1.05814z"/><path d="M270.02886,206.70692c1.77259,1.13828 4.018,1.23621 5.04578,1.89433c-0.26303,0.04189 -2.64467,1.20778 -2.86613,1.29553c-2.64426,1.0477 -4.9828,1.73032 -7.17955,2.88289c-0.41127,-1.13006 -0.85826,-2.5046 -1.31964,-4.16177c-1.26924,-4.55871 0.16242,-7.48119 0.16242,-7.48119c0,0 2.16619,3.00741 6.15712,5.5702z"/></g><g data-paper-data="{&quot;index&quot;:null}" fill="#000000" stroke="none" stroke-width="0" stroke-linecap="butt"><path d="M194.41775,194.07507c0,0 -5.55188,-6.36066 -5.68771,-8.68276c-0.11391,-1.94732 4.92687,-4.32442 4.92687,-4.32442c0,0 3.68491,2.8915 9.17791,4.99562c4.61005,1.76591 9.25993,2.16653 9.25993,2.16653c0,0 -2.04666,3.02788 -7.19663,4.33927c-7.53585,1.91892 -10.48036,1.50577 -10.48036,1.50577z"/><path d="M195.19159,195.66809c0,0 9.43463,1.96468 14.65659,1.55802c4.3826,-0.34129 8.27549,-1.79587 8.27549,-1.79587c0,0 0.29579,3.12285 -3.50946,6.74544c-2.14927,2.0461 -4.33706,3.28172 -5.63374,4.04621c-0.80302,-0.43072 -2.35654,-1.20312 -3.10228,-1.56384c-0.51889,-0.25097 -3.50645,0.14958 -4.35845,-0.74174c-0.1771,-0.18526 1.90023,-1.48381 1.71316,-1.68281c-0.90343,-1.57502 -3.98114,-2.02211 -5.56893,-2.90885c-0.02768,-0.01545 -0.80101,-0.53734 -0.82884,-0.55254c0.6107,-0.96138 -1.64354,-3.10403 -1.64354,-3.10403z"/><path d="M213.73051,207.81265c1.03918,-0.63997 3.28598,-0.69847 5.07828,-1.80545c4.03532,-2.49232 6.25397,-5.46124 6.25397,-5.46124c0,0 1.38013,2.94718 0.03105,7.48289c-0.4904,1.64881 -0.96146,3.01529 -1.39251,4.13795c-2.17616,-1.19096 -4.50237,-1.91454 -7.12781,-3.0085c-0.21988,-0.09162 -2.58069,-1.29915 -2.84295,-1.34565z"/></g><path d="M221.49366,194.25712c-2.60372,-0.02286 -4.69228,-2.56812 -4.66491,-5.68501c0.02736,-3.11688 2.16029,-5.62508 4.76401,-5.60222c2.60372,0.02286 4.69228,2.56811 4.66491,5.685c-0.02736,3.11688 -2.16029,5.62509 -4.76401,5.60223z" data-paper-data="{&quot;index&quot;:null}" fill="#6e6e30" stroke="none" stroke-width="0" stroke-linecap="butt"/><g data-paper-data="{&quot;index&quot;:null}" fill="#000000" stroke="none" stroke-width="0" stroke-linecap="butt"><path d="M272.25479,158.16772c4.10086,0.036 7.36312,7.1432 7.28647,15.87436c-0.07665,8.73116 -3.46321,15.77998 -7.56406,15.74398c-4.10086,-0.036 -7.36312,-7.1432 -7.28647,-15.87436c0.07665,-8.73116 3.46321,-15.77998 7.56406,-15.74398z"/><path d="M276.92405,177.32088c0,0 0.87128,-0.00292 2.08344,-0.14008c1.62736,-0.18413 3.73079,-0.3669 3.84785,1.20809c0.10038,1.35059 -1.99481,2.45121 -3.68701,3.24202c-1.2992,0.60715 -2.29156,1.07398 -2.29156,1.07398c0,0 -3.64337,-0.67177 -3.63204,-1.96215c0.01133,-1.29039 3.67931,-3.42185 3.67931,-3.42185z"/></g><g data-paper-data="{&quot;index&quot;:null}" fill="#000000" stroke="none" stroke-width="0" stroke-linecap="butt"><path d="M237.15438,174.07633c-0.07665,8.73116 -3.46321,15.77998 -7.56406,15.74398c-4.10086,-0.036 -7.36312,-7.1432 -7.28647,-15.87436c0.07665,-8.73116 3.46321,-15.77998 7.56406,-15.74398c4.10086,0.036 7.36312,7.1432 7.28647,15.87436z"/><path d="M228.48175,180.75612c-0.01133,1.29038 -3.66593,1.89808 -3.66593,1.89808c0,0 -0.98402,-0.48419 -2.27236,-1.11405c-1.67805,-0.82039 -3.75359,-1.95763 -3.62951,-3.30625c0.14469,-1.57269 2.24458,-1.35302 3.86846,-1.14034c1.20958,0.15842 2.08067,0.17664 2.08067,0.17664c0,0 3.63,2.19554 3.61867,3.48592z"/></g><path d="M273.90593,163.91689c1.60687,0.01411 2.88496,2.81938 2.8547,6.26576c-0.03026,3.44639 -1.3574,6.22879 -2.96427,6.21469c-1.60687,-0.01411 -2.88496,-2.81939 -2.8547,-6.26577c0.03026,-3.44638 1.3574,-6.22878 2.96427,-6.21468z" data-paper-data="{&quot;index&quot;:null}" fill="#ffffff" stroke="none" stroke-width="0" stroke-linecap="butt"/><path d="M231.96329,163.2584c1.60687,0.01411 2.88496,2.81938 2.8547,6.26576c-0.03026,3.44638 -1.3574,6.22879 -2.96427,6.21469c-1.60687,-0.01411 -2.88496,-2.81939 -2.8547,-6.26577c0.03026,-3.44638 1.3574,-6.22878 2.96427,-6.21468z" data-paper-data="{&quot;index&quot;:null}" fill="#ffffff" stroke="none" stroke-width="0" stroke-linecap="butt"/><path d="M250.81476,190.99911c-5.59056,-0.04908 -10.07498,-5.51412 -10.01623,-12.20651c0.05875,-6.69239 4.63843,-12.07785 10.22899,-12.02877c5.59056,0.04908 10.07498,5.51412 10.01623,12.20651c-0.05875,6.69239 -4.63843,12.07785 -10.22899,12.02877z" data-paper-data="{&quot;index&quot;:null}" fill="#6e6e30" stroke="none" stroke-width="0" stroke-linecap="butt"/><path d="M270.43253,183.62444c-0.88527,-0.00777 -1.59538,-0.87316 -1.58607,-1.9329c0.0093,-1.05974 0.73449,-1.91252 1.61976,-1.90474c0.88527,0.00777 1.59538,0.87315 1.58607,1.93289c-0.0093,1.05974 -0.73449,1.91253 -1.61976,1.90475z" data-paper-data="{&quot;index&quot;:null}" fill="#6e6e30" stroke="none" stroke-width="0" stroke-linecap="butt"/><path d="M227.90418,183.70258c-0.88527,-0.00777 -1.59538,-0.87316 -1.58607,-1.9329c0.0093,-1.05974 0.73449,-1.91252 1.61976,-1.90474c0.88527,0.00777 1.59538,0.87315 1.58607,1.93289c-0.0093,1.05974 -0.73449,1.91253 -1.61976,1.90475z" data-paper-data="{&quot;index&quot;:null}" fill="#6e6e30" stroke="none" stroke-width="0" stroke-linecap="butt"/><path d="M258.92714,182.42283c0,0 -1.69468,2.97149 -5.2265,2.46844c-2.47101,-0.35196 -3.03218,-3.98314 -3.03218,-3.98314c0,0 -0.28361,3.12644 -2.85135,3.78386c-3.62081,0.92706 -4.87049,-2.57878 -4.87049,-2.57878" data-paper-data="{&quot;index&quot;:null}" fill="none" stroke="#000000" stroke-width="2" stroke-linecap="round"/><g data-paper-data="{&quot;index&quot;:null}" stroke="none" stroke-width="0" stroke-linecap="butt"><path d="M251.08149,169.82416c3.41738,0.03 5.95465,2.43648 5.93433,4.75077c-0.02032,2.31429 -3.398,6.80475 -6.17833,6.93027c-2.78114,0.12557 -5.93457,-4.72214 -5.91426,-7.03643c0.02032,-2.31429 2.74087,-4.67461 6.15825,-4.64461z" fill="#000000"/><path d="M247.1936,173.6421c0.00841,-0.95843 0.89447,-1.91969 3.72862,-1.78747c2.90487,0.13552 3.98794,0.89669 3.97953,1.85514c-0.00841,0.95844 -1.74076,1.72027 -3.86931,1.70159c-2.12854,-0.01869 -3.84724,-0.81081 -3.83883,-1.76926z" fill="#ffffff"/></g></g></g></g></svg>