<svg version="1.1" xmlns="http://www.w3.org/2000/svg" xmlns:xlink="http://www.w3.org/1999/xlink" width="364" height="107" viewBox="0,0,364,107"><defs><linearGradient x1="320" y1="128.5" x2="320" y2="232.00007" gradientUnits="userSpaceOnUse" id="color-1"><stop offset="0" stop-color="#68682e"/><stop offset="1" stop-color="#303015"/></linearGradient><linearGradient x1="205.00001" y1="184.68665" x2="205.00001" y2="224.51153" gradientUnits="userSpaceOnUse" id="color-2"><stop offset="0" stop-color="#000000" stop-opacity="0"/><stop offset="1" stop-color="#000000" stop-opacity="0.54118"/></linearGradient><linearGradient x1="205.00005" y1="136.43663" x2="205.00005" y2="213.01153" gradientUnits="userSpaceOnUse" id="color-3"><stop offset="0" stop-color="#1c1c00" stop-opacity="0.55294"/><stop offset="1" stop-color="#1c1c00" stop-opacity="0"/></linearGradient><linearGradient x1="205.50004" y1="225.26153" x2="205.50004" y2="148.68663" gradientUnits="userSpaceOnUse" id="color-4"><stop offset="0" stop-color="#1c1c00" stop-opacity="0.30196"/><stop offset="1" stop-color="#1c1c00" stop-opacity="0"/></linearGradient><linearGradient x1="205.00001" y1="136.35118" x2="205.00001" y2="224.51153" gradientUnits="userSpaceOnUse" id="color-5"><stop offset="0" stop-color="#ffff94"/><stop offset="1" stop-color="#cccc48"/></linearGradient><linearGradient x1="478.29155" y1="146.27172" x2="478.29155" y2="216.13736" gradientTransform="translate(-206.55378,-136.49421) scale(0.79444,0.68702)" gradientUnits="userSpaceOnUse" id="color-6"><stop offset="0" stop-color="#ffffff"/><stop offset="1" stop-color="#fdff9d"/></linearGradient></defs><g transform="translate(-128.25,-126.75007)"><g stroke-miterlimit="10"><path d="M130,232.00007v-103.5h360.5v103.5z" fill="url(#color-1)" fill-rule="nonzero" stroke="#252510" stroke-width="3.5" stroke-linecap="butt" stroke-linejoin="miter"/><path d="M178.43044,136.35118h53.13923c10.38871,0 18.75214,8.13434 18.75214,18.23841v51.68346c0,10.10407 -8.36346,18.23841 -18.75214,18.23841h-53.13923c-10.38868,0 -18.75217,-8.13434 -18.75217,-18.23841v-51.68346c0,-10.10407 8.36349,-18.23841 18.75217,-18.23841z" fill="#6e6e30" fill-rule="evenodd" stroke="none" stroke-width="4.43922" stroke-linecap="round" stroke-linejoin="round"/><path d="M250.32181,206.27311c0,10.10407 -8.36346,18.23841 -18.75214,18.23841h-53.13923c-10.38868,0 -18.75217,-8.13434 -18.75217,-18.23841v-21.58645c18.06815,0.09223 37.35897,0.267 55.17088,0.26802c11.82421,0.00067 23.64844,-0.01273 35.47267,-0.02123z" fill="url(#color-2)" fill-rule="nonzero" stroke="none" stroke-width="4.43922" stroke-linecap="butt" stroke-linejoin="miter"/><path d="M178.08754,137.11354c0,0 -8.05558,7.54324 -8.33307,16.46965c-0.39756,12.78921 -0.72638,28.41772 -4.23301,28.76861c-3.3171,0.33192 -3.1024,-13.4702 -3.68173,-25.86175c-0.15377,-3.28895 -0.41765,-6.47361 -0.70454,-9.27859c1.42204,-1.11792 2.41833,-2.75301 2.70544,-4.62186c1.43487,-0.64268 2.62425,-1.73534 3.38863,-3.09846c1.72237,-0.26413 3.24631,-1.1306 4.35002,-2.37761z" fill="#ffff94" fill-rule="nonzero" stroke="none" stroke-width="0" stroke-linecap="butt" stroke-linejoin="miter"/><path d="M173.87431,176.1452c0,0 6.70989,25.51523 0.85457,25.90687c-5.94419,0.39758 -0.85457,-25.90687 -0.85457,-25.90687z" fill="#ffff94" fill-rule="nonzero" stroke="none" stroke-width="0" stroke-linecap="butt" stroke-linejoin="miter"/><path d="M168.40225,143.12106l33.94565,-0.53584c0,0 -5.57733,5.56766 -7.78635,11.82991c-2.27466,6.44833 -1.28589,13.60084 -8.63226,13.89521c-8.41127,0.17652 -7.96475,-8.31966 -10.28204,-15.29332c-1.84531,-5.55325 -7.24499,-9.89597 -7.24499,-9.89597z" fill="#ffff94" fill-rule="nonzero" stroke="none" stroke-width="0" stroke-linecap="butt" stroke-linejoin="miter"/><path d="M242.09982,151.45891c-3.25619,1.37412 -8.07183,-3.02822 -14.07533,-3.36357c-2.58811,-0.14457 -5.24849,3.73357 -8.34538,3.75489c-4.83421,0.03328 -5.6472,-3.46288 -11.48056,-3.42075c-7.79407,0.05629 -4.00009,-4.18622 -9.49016,-4.49126c-0.42824,-0.02379 -24.597,6.85293 -25.01175,6.84039c-2.99325,-0.09046 -1.94054,3.2349 -1.75522,6.73721c0.20318,3.8398 -0.37096,7.86283 -2.10977,7.12443c-0.81208,-0.34486 -0.36059,-2.54418 -0.82566,-4.66289c-0.23623,-1.07622 -1.35855,-2.02338 -1.67223,-2.91793c-1.39706,-3.98409 -3.03493,-9.07612 -4.18643,-12.30446c0.33771,-0.66924 3.31758,-3.90073 4.08196,-5.26384c0.8436,-0.12937 3.49582,-1.8574 5.99779,-2.54651c2.6063,-0.71785 4.58168,-0.60551 7.41855,-0.70534c6.76077,-0.23791 16.23925,-0.00124 22.09277,-0.00124c6.53791,0 18.3667,-0.42877 26.08862,-0.1798c5.45191,0.17578 7.76055,0.63839 7.76055,0.63839c0.86962,0.60266 2.39767,1.43803 3.48551,1.61591c0.53296,0.36334 1.11657,0.65789 1.73805,0.87089c0.86764,1.2608 2.12147,2.23522 3.59075,2.75252c0.30513,0.49566 0.66788,0.95206 1.07891,1.35987c0.34515,0.98806 0.89686,1.87919 1.60337,2.62165c0.117,0.33569 0.25784,0.6602 0.42048,0.97152c-1.31449,1.66683 -3.33672,3.27518 -6.40482,4.56993z" fill="#ffff94" fill-rule="nonzero" stroke="none" stroke-width="0" stroke-linecap="butt" stroke-linejoin="miter"/><path d="M233.3039,152.76146c0,0 6.47815,19.04953 0.82506,19.34192c-5.7389,0.29684 -0.82506,-19.34192 -0.82506,-19.34192z" fill="#ffff94" fill-rule="nonzero" stroke="none" stroke-width="0" stroke-linecap="butt" stroke-linejoin="miter"/><path d="M250.19977,175.48805c0,0 -6.46264,-3.98442 -6.06614,-10.95027c0.34262,-6.01924 2.06458,-13.45753 3.5806,-19.03993c0.11797,0.1446 0.24138,0.28459 0.36991,0.41966c0.29857,0.85662 0.75235,1.6405 1.32767,2.31794c0.14332,0.75783 0.40384,1.47423 0.76201,2.12962z" fill="#ffff94" fill-rule="nonzero" stroke="none" stroke-width="0" stroke-linecap="butt" stroke-linejoin="miter"/><path d="M250.32182,212.76473c-11.82423,-0.0085 -72.5754,0.15456 -90.64355,0.24679v-58.33645c0,-10.10407 8.36349,-18.23841 18.75217,-18.23841h53.13923c10.38868,0 18.75214,8.13434 18.75214,18.23841z" fill="url(#color-3)" fill-rule="nonzero" stroke="none" stroke-width="4.43922" stroke-linecap="butt" stroke-linejoin="miter"/><path d="M250.82181,207.02311c0,10.10407 -8.36346,18.23841 -18.75214,18.23841h-53.13923c-10.38868,0 -18.75217,-8.13434 -18.75217,-18.23841v-58.33645c18.06815,0.09223 78.81932,0.25529 90.64355,0.24679z" fill="url(#color-4)" fill-rule="nonzero" stroke="none" stroke-width="4.43922" stroke-linecap="butt" stroke-linejoin="miter"/><path d="M178.43044,136.35118h53.13923c10.38871,0 18.75214,8.13434 18.75214,18.23841v51.68346c0,10.10407 -8.36346,18.23841 -18.75214,18.23841h-53.13923c-10.38868,0 -18.75217,-8.13434 -18.75217,-18.23841v-51.68346c0,-10.10407 8.36349,-18.23841 18.75217,-18.23841z" fill="none" fill-rule="evenodd" stroke="url(#color-5)" stroke-width="2.5" stroke-linecap="round" stroke-linejoin="round"/><text transform="translate(260,198.67543) scale(1.25875,1.45556)" font-size="40" xml:space="preserve" fill="url(#color-6)" fill-rule="nonzero" stroke="none" stroke-width="1" stroke-linecap="butt" stroke-linejoin="miter" font-family="&quot;Allan-Bold&quot;, Sans Serif" font-weight="normal" text-anchor="start"><tspan x="0" dy="0">Sore Thumbs</tspan></text><g fill-rule="nonzero" stroke-linejoin="miter"><path d="M181.07554,182.1914c-0.49008,-5.22328 0.28449,-12.28572 0.28449,-12.28572c0,0 -1.45698,-26.54659 22.72564,-27.85184c26.61198,-1.43638 24.59031,35.19438 24.32569,39.17486c-0.35806,4.06019 -2.15134,6.80349 -2.67534,8.96696c-0.52401,2.16347 -0.34785,4.39493 -1.8736,11.48733c-0.95217,4.42615 -3.53436,6.39167 -8.50881,10.4998c-4.97446,4.10813 -7.68877,6.62664 -11.05157,6.67604c-3.23623,0.04755 -7.58844,-3.65266 -11.83441,-7.4357c-4.52125,-4.02833 -7.53685,-6.07116 -8.25074,-10.8428c-0.64293,-4.29737 -0.65945,-7.0963 -0.95339,-10.92058c-0.21484,-2.79506 -1.92028,-4.61582 -2.18793,-7.46834z" fill="#fcff63" stroke="#1c1c00" stroke-width="1.25" stroke-linecap="butt"/><path d="M209.68881,197.34031c0.26719,0.08369 1.44441,0.55282 2.8217,1.02545c1.38826,0.4764 3.37902,0.90579 3.36988,0.97198c-0.0116,0.084 -4.88788,0.08965 -6.40772,0.24975c-1.27365,0.13417 -3.13311,0.27875 -3.13311,0.27875c0,0 -3.32768,-0.4589 -6.21707,-0.96594c-2.31574,-0.40637 -4.87125,-0.65618 -4.87625,-0.69313c-0.00674,-0.04982 1.81203,-0.28075 3.19659,-0.55094c0.53674,-0.19618 2.54809,-0.58667 2.54809,-0.58667c0,0 2.32142,-0.10969 3.56387,0.22872c1.33127,0.3626 1.32819,0.96608 1.44418,0.97536c0,0 0.55478,-0.69104 1.10963,-0.83139c0.55485,-0.14035 2.38061,-0.16447 2.5802,-0.10195z" fill="#fcff63" stroke="#1c1c00" stroke-width="1.25" stroke-linecap="butt"/><path d="M200.71652,199.13912c2.3848,0.4056 5.58245,1.109 5.58245,1.109c0,0 2.71206,-0.61461 3.95666,-0.72465c0.96492,-0.08531 5.25382,-0.27911 5.27455,-0.13185c0.02028,0.14398 -4.23041,5.09606 -9.90623,4.91703c-6.44995,-0.17215 -10.71028,-5.97906 -10.69255,-6.04587c0.01773,-0.06681 3.40032,0.47074 5.78512,0.87634z" fill="#fcff63" stroke="#1c1c00" stroke-width="1.25" stroke-linecap="butt"/><path d="M204.54167,188.71768c-0.8779,0 -3.00467,-1.40072 -3.21579,-2.30433c-0.18889,-0.80847 1.11684,-1.64456 3.21579,-1.64456c2.09896,0 3.56856,0.21084 3.4224,1.79945c-0.12404,1.34821 -1.32345,2.14944 -3.4224,2.14944z" fill="#fcff63" stroke="#1c1c00" stroke-width="1" stroke-linecap="butt"/><path d="M207.6007,175.789c0,0 0.08713,1.70547 0.0049,3.0617c-0.16283,2.68558 -0.91842,11.92641 -0.91842,11.92641l-2.53213,0.00371c0,0 -0.68188,-1.79267 -0.95388,-4.08125c-0.36816,-3.09779 -0.38173,-6.99981 -0.64834,-8.43432c-0.25271,-1.35979 -0.76086,-2.45505 -0.76086,-2.45505" fill="#fcff63" stroke="#1c1c00" stroke-width="1.25" stroke-linecap="round"/><path d="M182.52959,190.58387c0,0 -6.77739,-4.68794 -8.02358,-11.43454c-1.31122,-7.09873 -1.15986,-11.97016 1.66813,-12.12591c2.82799,-0.15578 3.67075,3.1164 4.57354,10.48041c0.90278,7.364 1.78192,13.08006 1.78192,13.08006z" fill="#fcff63" stroke="#1c1c00" stroke-width="1.25" stroke-linecap="butt"/><path d="M182.59506,186.10098c0,0 -4.85994,-3.85255 -5.40963,-10.64416c-0.30664,-3.78858 3.33623,-2.59868 3.33623,-2.59868" fill="none" stroke="#1c1c00" stroke-width="1" stroke-linecap="round"/><path d="M227.87734,179.9105c1.34873,-7.48727 2.39926,-10.79603 5.27985,-10.52045c2.88058,0.27558 2.75326,5.25936 1.00255,12.45876c-1.66387,6.84228 -8.86028,11.35334 -8.86028,11.35334c0,0 1.22917,-5.8044 2.5779,-13.29167z" fill="#fcff63" stroke="#1c1c00" stroke-width="1.25" stroke-linecap="butt"/><path d="M228.36911,174.82436c0,0 3.79112,-1.06586 3.25847,2.79265c-0.9548,6.91694 -5.19502,10.65334 -5.19502,10.65334" fill="none" stroke="#1c1c00" stroke-width="1" stroke-linecap="round"/><g stroke-width="1.25" stroke-linecap="butt"><path d="M184.90597,176.44748c0.06024,-3.50347 4.10888,-6.39986 8.67183,-6.34408c4.56294,0.05579 7.66623,3.04262 7.60599,6.5461c-0.06024,3.50347 -3.50183,6.29837 -8.06478,6.24259c-4.56294,-0.05579 -8.27329,-2.94114 -8.21305,-6.44462z" fill="#fcff63" stroke="#1c1c00"/><path d="M186.30328,176.59569c0.05484,-3.35611 3.16616,-6.03728 6.94928,-5.98863c3.78316,0.04865 6.8055,2.80875 6.75066,6.16483c-0.05484,3.35611 -3.16614,6.03729 -6.94928,5.98864c-3.78316,-0.04865 -6.80551,-2.80876 -6.75067,-6.16484z" fill="#1c1c00" stroke="none"/></g><g stroke-width="1.25" stroke-linecap="butt"><path d="M208.14725,175.92246c0.06024,-3.50347 4.10888,-6.39986 8.67183,-6.34408c4.56294,0.05579 7.66623,3.04262 7.60599,6.5461c-0.06024,3.50347 -3.50183,6.29837 -8.06478,6.24259c-4.56294,-0.05579 -8.27329,-2.94114 -8.21305,-6.44462z" fill="#fcff63" stroke="#1c1c00"/><path d="M209.54456,176.0707c0.05485,-3.35611 3.16616,-6.03728 6.94928,-5.98862c3.78316,0.04865 6.80551,2.80875 6.75066,6.16483c-0.05485,3.35611 -3.16613,6.03729 -6.94927,5.98863c-3.78316,-0.04865 -6.80552,-2.80876 -6.75067,-6.16484z" fill="#1c1c00" stroke="none"/></g></g></g></g></svg>