<svg version="1.1" xmlns="http://www.w3.org/2000/svg" xmlns:xlink="http://www.w3.org/1999/xlink" width="152.28622" height="45.83424" viewBox="0,0,152.28622,45.83424"><defs><linearGradient x1="460.33967" y1="44.50297" x2="460.33967" y2="64.07846" gradientUnits="userSpaceOnUse" id="color-1"><stop offset="0" stop-color="#000000" stop-opacity="0"/><stop offset="1" stop-color="#000000" stop-opacity="0.54118"/></linearGradient><linearGradient x1="460.05293" y1="20.58068" x2="460.05293" y2="58.38451" gradientUnits="userSpaceOnUse" id="color-2"><stop offset="0" stop-color="#1c1c00" stop-opacity="0.55294"/><stop offset="1" stop-color="#1c1c00" stop-opacity="0"/></linearGradient><linearGradient x1="460.33967" y1="44.75297" x2="460.33967" y2="64.32846" gradientUnits="userSpaceOnUse" id="color-3"><stop offset="0" stop-color="#000000" stop-opacity="0"/><stop offset="1" stop-color="#000000" stop-opacity="0.54118"/></linearGradient><linearGradient x1="460.33967" y1="20.7442" x2="460.33967" y2="64.07846" gradientUnits="userSpaceOnUse" id="color-4"><stop offset="0" stop-color="#ffff94"/><stop offset="1" stop-color="#cccc48"/></linearGradient><linearGradient x1="544.97153" y1="23.93235" x2="544.97153" y2="44.04121" gradientTransform="translate(-1485.23211,-93.12541) scale(3.04368,2.38703)" gradientUnits="userSpaceOnUse" id="color-5"><stop offset="0" stop-color="#ffffff"/><stop offset="1" stop-color="#fdff9d"/></linearGradient><linearGradient x1="540.09297" y1="44.11157" x2="540.09297" y2="61.15336" gradientTransform="translate(-1613.56553,-160.24764) scale(3.30874,2.81666)" gradientUnits="userSpaceOnUse" id="color-6"><stop offset="0" stop-color="#ffffff"/><stop offset="1" stop-color="#fdff9d"/></linearGradient></defs><g transform="translate(-423.25624,-19.4942)"><g stroke-miterlimit="10"><g><path d="M447.27967,20.7442h26.12002c5.10646,0 9.21741,3.99835 9.21741,8.96489v25.40446c0,4.96655 -4.11096,8.96489 -9.21741,8.96489h-26.12002c-5.10644,0 -9.21743,-3.99836 -9.21743,-8.96489v-25.40445c0,-4.96655 4.11099,-8.96489 9.21743,-8.96489z" fill="#6e6e30" fill-rule="evenodd" stroke="none" stroke-width="4.43922" stroke-linecap="round" stroke-linejoin="round"/><path d="M482.61712,55.11357c0,4.96655 -4.11097,8.96489 -9.21742,8.96489h-26.12002c-5.10644,0 -9.21742,-3.99835 -9.21742,-8.96489v-10.61059c8.88121,0.04533 18.3634,0.13124 27.11866,0.13175c5.81207,0.00033 11.62414,-0.00626 17.43622,-0.01044z" fill="url(#color-1)" fill-rule="nonzero" stroke="none" stroke-width="4.43922" stroke-linecap="butt" stroke-linejoin="miter"/><path d="M447.11113,21.11893c0,0 -3.95964,3.70779 -4.09603,8.09547c-0.19541,6.28641 -0.35704,13.96842 -2.08069,14.1409c-1.63048,0.16315 -1.52495,-6.62113 -1.80971,-12.71206c-0.07558,-1.61665 -0.20529,-3.18203 -0.34631,-4.56079c0.69899,-0.5495 1.1887,-1.35322 1.32983,-2.27183c0.70529,-0.3159 1.28992,-0.85299 1.66564,-1.52301c0.84661,-0.12983 1.59569,-0.55574 2.1382,-1.16868z" fill="#ffff94" fill-rule="nonzero" stroke="none" stroke-width="0" stroke-linecap="butt" stroke-linejoin="miter"/><path d="M445.04016,40.30451c0,0 3.29817,12.54174 0.42005,12.73425c-2.9218,0.19543 -0.42005,-12.73425 -0.42005,-12.73425z" fill="#ffff94" fill-rule="nonzero" stroke="none" stroke-width="0" stroke-linecap="butt" stroke-linejoin="miter"/><path d="M442.35042,24.07187l16.68562,-0.26339c0,0 -2.74147,2.73672 -3.82729,5.81487c-1.11809,3.16961 -0.63207,6.68534 -4.2431,6.83004c-4.13447,0.08676 -3.91499,-4.08944 -5.05403,-7.51727c-0.90704,-2.72964 -3.56119,-4.86426 -3.56119,-4.86426z" fill="#ffff94" fill-rule="nonzero" stroke="none" stroke-width="0" stroke-linecap="butt" stroke-linejoin="miter"/><path d="M478.57568,28.17025c-1.60054,0.67543 -3.96763,-1.48848 -6.91859,-1.65333c-1.27215,-0.07106 -2.57984,1.8352 -4.10209,1.84568c-2.37621,0.01636 -2.77581,-1.70215 -5.64315,-1.68143c-3.83109,0.02767 -1.9662,-2.05769 -4.66479,-2.20763c-0.2105,-0.0117 -12.09039,3.36848 -12.29426,3.36232c-1.47129,-0.04447 -0.95386,1.59008 -0.86276,3.3116c0.09987,1.88741 -0.18234,3.86489 -1.03703,3.50194c-0.39917,-0.16951 -0.17725,-1.25056 -0.40584,-2.29199c-0.11612,-0.529 -0.66779,-0.99457 -0.82196,-1.43428c-0.68671,-1.95834 -1.49179,-4.46127 -2.0578,-6.04812c0.166,-0.32895 1.63072,-1.91736 2.00645,-2.58738c0.41466,-0.06359 1.71834,-0.91299 2.94815,-1.25171c1.2811,-0.35286 2.25208,-0.29763 3.6465,-0.34671c3.32318,-0.11695 7.98224,-0.00061 10.85947,-0.00061c3.21364,0 9.02795,-0.21076 12.82358,-0.08838c2.67982,0.0864 3.81462,0.3138 3.81462,0.3138c0.42745,0.29623 1.17856,0.70685 1.71327,0.79429c0.26197,0.17859 0.54883,0.32338 0.85432,0.42807c0.42648,0.61973 1.04279,1.0987 1.76499,1.35297c0.14999,0.24363 0.32828,0.46797 0.53033,0.66842c0.16966,0.48567 0.44085,0.92369 0.78812,1.28864c0.05751,0.16501 0.12674,0.32452 0.20668,0.47754c-0.64613,0.81931 -1.64014,1.60988 -3.14822,2.2463z" fill="#ffff94" fill-rule="nonzero" stroke="none" stroke-width="0" stroke-linecap="butt" stroke-linejoin="miter"/><path d="M474.25214,28.81051c0,0 3.18427,9.3636 0.40555,9.50731c-2.8209,0.1459 -0.40555,-9.50731 -0.40555,-9.50731z" fill="#ffff94" fill-rule="nonzero" stroke="none" stroke-width="0" stroke-linecap="butt" stroke-linejoin="miter"/><path d="M482.55713,39.98149c0,0 -3.17665,-1.95851 -2.98175,-5.38249c0.16841,-2.9587 1.01483,-6.6149 1.76,-9.35887c0.05799,0.07107 0.11865,0.13989 0.18183,0.20628c0.14675,0.42106 0.3698,0.80636 0.6526,1.13935c0.07045,0.37251 0.1985,0.72464 0.37456,1.04679z" fill="#ffff94" fill-rule="nonzero" stroke="none" stroke-width="0" stroke-linecap="butt" stroke-linejoin="miter"/><path d="M482.42757,58.26266c-5.83743,-0.00419 -35.82934,0.0763 -44.7493,0.12184v-28.79979c0,-4.98822 4.12893,-9.00402 9.25766,-9.00402h26.234c5.12873,0 9.25764,4.0158 9.25764,9.00402z" fill="url(#color-2)" fill-rule="nonzero" stroke="none" stroke-width="4.43922" stroke-linecap="butt" stroke-linejoin="miter"/><path d="M482.61712,55.36357c0,4.96655 -4.11097,8.96489 -9.21742,8.96489h-26.12002c-5.10644,0 -9.21742,-3.99835 -9.21742,-8.96489v-10.61059c8.88121,0.04533 18.3634,0.13124 27.11866,0.13175c5.81207,0.00033 11.62414,-0.00626 17.43622,-0.01044z" fill="url(#color-3)" fill-rule="nonzero" stroke="none" stroke-width="4.43922" stroke-linecap="butt" stroke-linejoin="miter"/><path d="M447.27967,20.7442h26.12002c5.10646,0 9.21741,3.99835 9.21741,8.96489v25.40446c0,4.96655 -4.11096,8.96489 -9.21741,8.96489h-26.12002c-5.10644,0 -9.21743,-3.99836 -9.21743,-8.96489v-25.40445c0,-4.96655 4.11099,-8.96489 9.21743,-8.96489z" fill="none" fill-rule="evenodd" stroke="url(#color-4)" stroke-width="2.5" stroke-linecap="round" stroke-linejoin="round"/></g><text transform="translate(487.97301,39.01303) scale(0.32855,0.41893)" font-size="40" xml:space="preserve" fill="url(#color-5)" fill-rule="nonzero" stroke="none" stroke-width="1" stroke-linecap="butt" stroke-linejoin="miter" font-family="&quot;Allan-Bold&quot;, Sans Serif" font-weight="normal" text-anchor="start"><tspan x="0" dy="0">Sore Thumbs</tspan></text><path d="M423.25624,41.81435c0,-2.02211 1.63924,-3.66135 3.66135,-3.66135c2.02211,0 3.66135,1.63924 3.66135,3.66135c0,2.02211 -1.63924,3.66136 -3.66135,3.66136c-2.02211,0 -3.66135,-1.63925 -3.66135,-3.66136z" fill="#feffce" fill-rule="nonzero" stroke="none" stroke-width="0" stroke-linecap="butt" stroke-linejoin="miter"/><text transform="translate(487.66791,56.89272) scale(0.30223,0.35503)" font-size="40" xml:space="preserve" fill="url(#color-6)" fill-rule="nonzero" stroke="none" stroke-width="1" stroke-linecap="butt" stroke-linejoin="miter" font-family="&quot;Allan-Regular&quot;, Sans Serif" font-weight="normal" text-anchor="start"><tspan x="0" dy="0">place all the weird guys</tspan></text><g fill-rule="nonzero" stroke-width="0.65" stroke-linejoin="miter"><path d="M448.70383,42.91351c-0.23908,-2.54813 0.13879,-5.99349 0.13879,-5.99349c0,0 -0.71078,-12.95053 11.08651,-13.58729c12.98243,-0.70073 11.99618,17.16928 11.86708,19.11113c-0.17468,1.98073 -1.04951,3.31903 -1.30514,4.37446c-0.25563,1.05543 -0.1697,2.14403 -0.91402,5.604c-0.46451,2.15926 -1.72421,3.11812 -4.15095,5.12224c-2.42675,2.00412 -3.7509,3.23275 -5.39142,3.25685c-1.57877,0.0232 -3.70196,-1.78192 -5.77332,-3.62744c-2.20565,-1.96519 -3.67679,-2.96176 -4.02505,-5.28957c-0.31365,-2.09644 -0.32171,-3.46187 -0.4651,-5.32751c-0.10481,-1.36355 -0.93679,-2.25179 -1.06736,-3.64337z" fill="#fcff63" stroke="#1c1c00" stroke-linecap="butt"/><path d="M462.66257,50.30377c0.13035,0.04083 0.70464,0.26969 1.37654,0.50026c0.67725,0.23241 1.64843,0.44188 1.64397,0.47417c-0.00566,0.04098 -2.38451,0.04373 -3.12595,0.12184c-0.62134,0.06545 -1.52846,0.13599 -1.52846,0.13599c0,0 -1.62338,-0.22387 -3.03295,-0.47123c-1.12971,-0.19824 -2.3764,-0.32011 -2.37884,-0.33814c-0.00329,-0.0243 0.88398,-0.13696 1.55943,-0.26877c0.26184,-0.0957 1.24306,-0.2862 1.24306,-0.2862c0,0 1.13249,-0.05351 1.7386,0.11158c0.64945,0.17689 0.64795,0.47129 0.70453,0.47582c0,0 0.27064,-0.33712 0.54132,-0.40559c0.27068,-0.06847 1.16136,-0.08024 1.25873,-0.04974z" fill="#fcff63" stroke="#1c1c00" stroke-linecap="butt"/><path d="M458.28552,51.1813c1.1634,0.19787 2.72335,0.54102 2.72335,0.54102c0,0 1.32306,-0.29983 1.93022,-0.35351c0.47073,-0.04162 2.56303,-0.13616 2.57314,-0.06432c0.00989,0.07024 -2.06377,2.48607 -4.83267,2.39873c-3.14655,-0.08398 -5.22492,-2.91683 -5.21627,-2.94943c0.00865,-0.03259 1.65882,0.22965 2.82222,0.42752z" fill="#fcff63" stroke="#1c1c00" stroke-linecap="butt"/><path d="M460.15158,46.0973c-0.42828,0 -1.4658,-0.68333 -1.5688,-1.12415c-0.09215,-0.39441 0.54484,-0.80228 1.5688,-0.80228c1.02396,0 1.74089,0.10286 1.66959,0.87785c-0.06051,0.65771 -0.64563,1.04859 -1.66959,1.04859z" fill="#fcff63" stroke="#1c1c00" stroke-linecap="butt"/><path d="M461.6439,39.79014c0,0 0.04251,0.832 0.00239,1.49362c-0.07944,1.31014 -0.44804,5.8182 -0.44804,5.8182l-1.23528,0.00181c0,0 -0.33265,-0.87454 -0.46534,-1.991c-0.1796,-1.51123 -0.18622,-3.4148 -0.31629,-4.11461c-0.12328,-0.66336 -0.37118,-1.19768 -0.37118,-1.19768" fill="#fcff63" stroke="#1c1c00" stroke-linecap="round"/><path d="M449.41317,47.00771c0,0 -3.30629,-2.28697 -3.91424,-5.57824c-0.63967,-3.46306 -0.56583,-5.83954 0.81378,-5.91552c1.37961,-0.076 1.79074,1.52031 2.23116,5.11278c0.44041,3.59247 0.86929,6.381 0.86929,6.381z" fill="#fcff63" stroke="#1c1c00" stroke-linecap="butt"/><path d="M449.44511,44.82076c0,0 -2.37088,-1.87943 -2.63904,-5.19266c-0.14959,-1.84823 1.62755,-1.26774 1.62755,-1.26774" fill="none" stroke="#1c1c00" stroke-linecap="round"/><path d="M471.53569,41.80078c0.65797,-3.6526 1.17046,-5.26675 2.57573,-5.13231c1.40527,0.13444 1.34315,2.56573 0.48909,6.0779c-0.8117,3.33795 -4.32241,5.53863 -4.32241,5.53863c0,0 0.59964,-2.83163 1.25761,-6.48423z" fill="#fcff63" stroke="#1c1c00" stroke-linecap="butt"/><path d="M471.7756,39.31955c0,0 1.84947,-0.51997 1.58962,1.36237c-0.46579,3.37437 -2.53435,5.19714 -2.53435,5.19714" fill="none" stroke="#1c1c00" stroke-linecap="round"/><g stroke-linecap="butt"><path d="M450.57247,40.11137c0.02939,-1.70914 2.00448,-3.12212 4.23048,-3.09491c2.22599,0.02722 3.73991,1.48432 3.71052,3.19346c-0.02939,1.70914 -1.70834,3.07261 -3.93434,3.04539c-2.22599,-0.02722 -4.03605,-1.43481 -4.00667,-3.14395z" fill="#fcff63" stroke="#1c1c00"/><path d="M451.25414,40.18368c0.02675,-1.63725 1.54458,-2.94524 3.39015,-2.9215c1.84558,0.02373 3.32001,1.37023 3.29325,3.00746c-0.02675,1.63725 -1.54457,2.94524 -3.39015,2.92151c-1.84558,-0.02373 -3.32001,-1.37023 -3.29326,-3.00747z" fill="#1c1c00" stroke="none"/></g><g stroke-linecap="butt"><path d="M461.91053,39.85526c0.02939,-1.70914 2.00448,-3.12212 4.23048,-3.09491c2.22599,0.02722 3.73991,1.48432 3.71052,3.19346c-0.02939,1.70914 -1.70834,3.07261 -3.93434,3.04539c-2.22599,-0.02722 -4.03605,-1.43481 -4.00667,-3.14395z" fill="#fcff63" stroke="#1c1c00"/><path d="M462.5922,39.92757c0.02676,-1.63725 1.54458,-2.94524 3.39015,-2.9215c1.84558,0.02373 3.32001,1.37023 3.29325,3.00746c-0.02676,1.63725 -1.54457,2.94524 -3.39014,2.9215c-1.84558,-0.02373 -3.32002,-1.37023 -3.29326,-3.00747z" fill="#1c1c00" stroke="none"/></g></g></g></g></svg>