<svg version="1.1" xmlns="http://www.w3.org/2000/svg" xmlns:xlink="http://www.w3.org/1999/xlink" width="34.17311" height="34.17311" viewBox="0,0,34.17311,34.17311"><g transform="translate(-302.91346,-162.9135)"><g stroke="none" stroke-miterlimit="10"><path d="M309.98312,162.9135h20.03379c3.9166,0 7.06966,3.15307 7.06966,7.06966v20.03379c0,3.91659 -3.15306,7.06966 -7.06966,7.06966h-20.03379c-3.91659,0 -7.06966,-3.15307 -7.06966,-7.06966v-20.03379c0,-3.91659 3.15307,-7.06966 7.06966,-7.06966z" fill="#a0a300" fill-rule="evenodd" stroke-width="0" stroke-linecap="round" stroke-linejoin="round"/><g fill="#000000" fill-rule="nonzero" stroke-width="0.5" stroke-linecap="butt" stroke-linejoin="miter"><path d="M313.83096,177.57304c-0.05821,0.00966 -0.11316,0.02955 -0.16639,0.05495c0.09439,0.00893 0.18858,0.01914 0.28252,0.03078c0,0 0.30817,0.03852 0.26965,0.34669c-0.03852,0.30817 -0.34669,0.26965 -0.34669,0.26965c-1.15847,-0.14624 -2.36008,-0.06103 -3.52743,-0.06128c-0.43893,-0.0001 -1.08778,-0.09447 -1.49177,0.14429c-0.52751,0.31177 -0.22008,0.70431 0.07633,1.06754c0.43354,0.53128 1.21895,0.74972 1.86134,0.9118c1.27616,0.21345 2.45039,0.24808 3.75684,0.24808h0.06368c0,0 0.31057,0 0.31057,0.31057c0,0.31057 -0.31057,0.31057 -0.31057,0.31057h-0.06368c-0.43843,0 -0.86285,-0.00446 -1.28137,-0.01801v0.02583c0,0.94403 0.09271,1.86015 -0.60039,2.57568c0,0 -0.07405,0.07405 -0.17916,0.09315c-0.58688,0.62879 -1.24233,1.15511 -1.9211,1.67914c0.50295,-0.00416 1.11969,0.09456 1.37,0.1103c1.89054,0.1189 3.98296,-0.04278 5.79957,-0.56027c1.17971,-0.13226 2.15467,0.03905 3.30393,0.25471c0.88807,0.16665 1.62305,0.27831 2.29615,0.95141l0.28705,0.16951c0,0 0.26631,0.15979 0.10653,0.4261c-0.15979,0.26631 -0.4261,0.10653 -0.4261,0.10653l-0.34973,-0.21255c-0.61013,-0.61013 -1.2285,-0.68067 -2.03393,-0.83157c-1.06609,-0.19973 -1.96836,-0.37515 -3.06385,-0.25471c-1.50103,0.43017 -3.09035,0.57142 -4.66728,0.57256c-0.10164,0.73142 0.52854,1.46239 0.64842,2.19985c0.10047,0.61811 0.003,1.32878 0.003,1.95341c0,0.65417 0.01909,1.30326 0.03637,1.95268c0.15466,0.08092 0.15466,0.27605 0.15466,0.27605v0.31839c0,0.14662 0.008,0.81435 -0.03279,0.90302c-0.01432,0.03113 -0.04808,0.07215 -0.09457,0.11893v0.06057c0,0 0,0.31057 -0.31057,0.31057c-0.04513,0 -0.08371,-0.00656 -0.11667,-0.01777c-0.05205,0.03859 -0.10278,0.07518 -0.14941,0.10806c0.00674,-0.00256 0.01302,-0.00454 0.01872,-0.00582c0.13516,-0.03035 0.27356,-0.04397 0.40977,-0.06922c0.34379,-0.06372 0.67633,-0.18092 1.00528,-0.2994c1.11692,-0.40229 2.02051,-0.59226 3.19858,-0.59131c0.85021,0.00433 1.65784,0.17267 2.49994,0.26838c0.83936,0.0954 1.69817,0.04961 2.54133,0.04961c0.41409,0 0.82819,-0.00139 1.24228,0c0.2569,0.00086 0.58787,0.15848 0.77038,-0.02232c0.16693,-0.16536 0.03572,-0.4686 0.05009,-0.70313c0.02297,-0.37495 0.06456,-0.75386 0.0632,-1.12903c0,0 0,-0.12266 0.07708,-0.21381c0.01753,-0.06874 0.03507,-0.13747 0.0526,-0.20621c-0.00511,-1.0749 0.35392,-2.01949 0.64485,-3.03462c0.34274,-1.1959 0.43555,-2.53821 0.60376,-3.77116c0.08267,-0.60598 0.15912,-1.25162 0.35227,-1.83567c0.08413,-0.25438 0.09779,-0.57695 0.30874,-0.74215c0.38179,-0.29898 0.8031,0.00139 1.11413,0.1581c0.97452,0.53378 1.76098,0.65688 2.51488,-0.31007c0.37902,-0.48613 0.73655,-0.95192 0.60039,-1.6125c-0.05363,-0.26019 0.01665,-0.61153 -0.19438,-0.7729c-0.20037,-0.15322 -0.48359,0.14374 -0.72663,0.21124c-0.38461,0.10681 -0.78892,0.15675 -1.15524,0.31532c-0.47216,0.20439 -0.89233,0.49338 -1.3304,0.7604l0.04633,0.06692l-0.50749,0.35134c-0.05078,0.03617 -0.1129,0.05745 -0.17999,0.05745c-0.17152,0 -0.31057,-0.13905 -0.31057,-0.31057c0,-0.01941 0.00178,-0.03841 0.00519,-0.05683l0.06272,-0.3763l0.00523,0.00087l-0.00186,-0.01811c0.33599,-1.15102 0.26395,-2.35052 0.45308,-3.53821c0.15391,-0.96653 0.44193,-1.89002 0.49493,-2.87294c0.05369,-0.99568 -0.00045,-2.0112 -0.00045,-3.00854c0.00284,-0.73066 -0.21082,-1.42586 -0.36877,-2.13797c-0.13384,-0.60341 -0.26732,-1.19251 -0.44587,-1.78425c-0.01252,-0.04149 -0.14854,-0.50268 -0.23263,-0.7948c-0.36287,0.68731 -1.05853,1.23953 -1.51818,1.85392c-0.36569,0.48879 -0.67902,1.03023 -1.01413,1.54039c-0.2064,0.31422 -0.63858,1.08724 -1.06604,1.1193c-0.20514,0.01539 -0.24027,-0.33398 -0.36041,-0.50097c-0.30117,-0.90528 -0.68849,-1.80774 -1.07949,-2.67712c-0.29242,-0.65019 -0.63832,-1.40574 -0.6165,-2.13368c0.00282,-0.09417 -0.01799,0.19209 -0.0608,0.27601c-0.09468,0.1856 -0.1955,0.36802 -0.29636,0.55033c-0.17053,0.30824 -0.34291,0.61557 -0.50542,0.92812c-0.44693,0.85959 -0.78933,1.76595 -1.21932,2.62659l0.04243,0.01498l-0.20432,0.57892c-0.0406,0.12425 -0.15745,0.21402 -0.29527,0.21402c-0.12925,0 -0.24005,-0.07895 -0.28682,-0.19125l-0.21989,-0.49629l0.00173,-0.00077l-0.00478,-0.00636c-0.4088,-1.06242 -0.8278,-2.1271 -1.1831,-3.20862c-0.12533,-0.38259 -0.33317,-0.737 -0.43682,-1.12602c-0.00488,-0.0183 -0.00929,-0.03697 -0.01314,-0.05587c-0.15585,0.24146 -0.37212,0.44716 -0.53187,0.68776c-0.4568,0.68796 -0.87225,1.38103 -1.27328,2.10275c-0.12632,0.22734 -0.57962,1.1033 -0.79506,1.19678c-0.4228,0.18346 -0.77612,-0.36814 -0.94651,-0.5956c-0.3901,-0.52077 -1.06938,-1.37293 -1.38702,-2.14663c-0.07912,1.75274 -0.04861,3.52083 -0.19321,5.2671c0.29816,-0.20696 0.60316,-0.37133 0.88585,-0.44576c0.4225,-0.11123 1.10199,-0.01043 1.52877,-0.01043c0.9653,0 1.65402,0.32704 2.47624,0.84109c0.02222,0.01389 0.79209,0.51938 0.86224,0.64691c0.1192,0.2167 0.12647,0.77156 0.10717,1.00963c-0.0123,0.15168 -0.02972,0.31538 -0.05408,0.48552c0.19342,-0.18562 0.40849,-0.33679 0.63928,-0.44032c1.15084,-0.51627 2.5919,-0.32836 3.83715,-0.26169c0.79687,-0.22562 1.63674,-0.23683 2.3797,0.25359c0.04557,0.03008 0.6335,0.62725 0.64518,0.63903c1.04108,1.69643 0.14842,3.55404 -1.25602,4.69993c-0.26994,0.22025 -0.54298,0.46986 -0.87718,0.56828c-0.47776,0.14069 -1.0307,0.08398 -1.51955,0.05529c-1.16574,-0.06842 -2.09132,-0.17305 -3.17149,-0.65534c-0.5578,-0.37307 -1.16143,-0.91017 -1.46259,-1.52886c-0.15876,-0.32616 -0.22324,-0.69918 -0.20987,-1.08258c-0.13978,0.11485 -0.29749,0.20676 -0.47538,0.2688c-0.5849,0.20399 -1.13017,0.22539 -1.67027,0.15759c-0.12462,0.01538 -0.24969,0.03349 -0.37618,0.05448zM312.99785,177.28558c0.01563,-0.00457 0.0311,-0.0096 0.04644,-0.01503c-0.18756,-0.05031 -0.37737,-0.10323 -0.57081,-0.15505c-0.07638,-0.031 -0.14999,-0.05699 -0.22239,-0.07864c0.18936,0.20427 0.44544,0.33678 0.74675,0.24872zM315.37315,176.82856h0.06368c0,0 0.0197,0 0.04917,0.00496c0.04865,-0.01311 0.09766,-0.02761 0.14704,-0.0436c0.87789,-0.28415 1.08441,-1.70602 1.14962,-2.47463c0.01821,-0.21466 0.08132,-0.45597 -0.02019,-0.64599c-0.1244,-0.23288 -0.43482,-0.29992 -0.65877,-0.43975c-0.72893,-0.45515 -1.29931,-0.74672 -2.1471,-0.74672c-0.36331,0 -1.00363,-0.10405 -1.36913,-0.01043c-0.62184,0.15926 -1.45353,0.95193 -1.88209,1.43069c-0.33745,0.37697 -0.8729,1.24398 -0.64687,1.78513c0.04744,0.11358 0.18377,0.16442 0.26687,0.25522c0.24123,0.26361 0.44159,0.48414 0.65824,0.65641c-0.00237,-0.0388 0.00306,-0.08266 0.01951,-0.13203c0.09821,-0.29463 0.39285,-0.19642 0.39285,-0.19642l0.09282,0.04774c0.42581,0.00098 0.78347,0.05019 1.18037,0.20685c0.52038,0.13798 1.00451,0.2924 1.49375,0.36583c0.39768,-0.0491 0.79823,-0.06326 1.21022,-0.06326zM312.64283,181.21451v-0.05336c-0.65471,-0.03747 -1.30474,-0.10334 -1.98198,-0.2158c-1.01979,-0.26072 -1.91799,-0.61439 -2.49101,-1.53877c-0.36206,-0.58407 -0.28861,-1.19804 0.35329,-1.57611c0.53111,-0.31281 1.23438,-0.23765 1.81947,-0.23777c0.42953,-0.00009 0.86298,-0.01056 1.29713,-0.01711c-0.75756,-0.16864 -1.22143,-0.56903 -1.7789,-1.21983c-0.12615,-0.14727 -0.30801,-0.26026 -0.38035,-0.44018c-0.31344,-0.77957 0.2541,-1.8566 0.75405,-2.41761c0.17272,-0.19382 0.39028,-0.41737 0.63171,-0.63659c0.23605,-2.15493 0.14746,-4.35214 0.28507,-6.51674l0.0274,-0.43024c0.00904,-0.16341 0.14442,-0.29314 0.31009,-0.29314c0.11298,0 0.21187,0.06033 0.26621,0.15053l0.31554,0.50486l-0.06092,0.03808c0.35097,0.46501 0.63034,0.95494 0.95511,1.49458c0.20836,0.34622 0.42267,0.68957 0.65692,1.01882c0.07067,0.09933 0.14968,0.19267 0.21813,0.29355c0.01657,0.02442 0.02025,0.10588 0.03598,0.0809c0.7081,-1.12433 1.21616,-2.36119 2.00942,-3.45213c0.04026,-0.05537 0.68803,-0.9513 0.85436,-0.89195c0.47489,0.16947 0.82727,1.50319 0.96948,1.93531c0.32624,0.99403 0.70781,1.97349 1.08429,2.95031c0.05527,-0.31208 0.20681,-0.5918 0.34982,-0.93895c0.36736,-0.89174 0.84087,-1.73512 1.30737,-2.57828c0.1481,-0.26767 0.56693,-1.45375 1.1711,-1.08399c0.16006,0.09796 0.44671,1.15037 0.51529,1.38237c0.36863,1.24692 1.01218,2.39769 1.44199,3.62442c0.01503,-0.0324 0.03133,-0.06415 0.04743,-0.09512c0.18746,-0.36074 0.44526,-0.68033 0.66823,-1.02026c0.58065,-0.88524 1.2519,-1.64849 1.89578,-2.48352c0.10066,-0.13054 0.64571,-0.97876 0.8237,-0.99298c0.46391,-0.03706 0.61441,0.8658 0.67639,1.07331c0.43144,1.44454 0.9784,3.07147 0.98355,4.58595c0,1.00854 0.05384,2.03509 -0.00045,3.04198c-0.05424,1.00581 -0.34441,1.94874 -0.50176,2.93716c-0.17193,1.08001 -0.14223,2.16143 -0.37155,3.21763c0.19408,-0.18859 0.43134,-0.30412 0.73428,-0.49239c0.58002,-0.36048 1.11665,-0.4944 1.77168,-0.67396c0.23036,-0.06314 0.93017,-0.32255 1.20836,-0.14689c0.7951,0.50207 0.56815,2.15991 0.16909,2.78737c-0.49994,0.78608 -1.41939,1.71911 -2.47052,1.54457c-0.39545,-0.06566 -0.88367,-0.36618 -1.23011,-0.55495c-0.14472,-0.08214 -0.35778,-0.33501 -0.45684,-0.2013c-0.08148,0.10999 -0.04588,0.26995 -0.07333,0.40405c-0.12077,0.59004 -0.2541,1.15637 -0.33542,1.75374c-0.17132,1.25861 -0.27091,2.62536 -0.61888,3.84672c-0.28313,0.99376 -0.62417,1.90066 -0.6287,2.95109c-0.04208,0.17135 -0.08417,0.34269 -0.12626,0.51404c-0.00009,0.00766 -0.00018,0.01533 -0.00028,0.02301l0.00151,-0.00189c0,0 0,0.01019 -0.00185,0.02689c-0.00727,0.50969 -0.03725,1.06387 -0.12919,1.54903c-0.03077,0.16238 -0.02103,0.35927 -0.13774,0.47628c-0.41677,0.41782 -1.34347,0.23239 -1.85718,0.23239c-1.07043,0 -2.16671,0.06644 -3.23229,-0.05355c-0.81881,-0.0922 -1.60532,-0.26222 -2.4316,-0.26445c-0.48826,-0.0004 -1.01539,-0.05596 -1.49468,0.05569c-0.89102,0.20755 -1.69228,0.65364 -2.59506,0.82472c-0.31562,0.05981 -1.32635,0.39403 -1.34664,-0.31964c-0.02442,-0.85896 0.46417,-0.67422 0.76049,-0.87185c-0.0061,-1.12816 -0.06315,-2.24394 -0.06315,-3.3748c0,-0.59251 0.10334,-1.28273 0.003,-1.86726c-0.14126,-0.8229 -0.69735,-1.46295 -0.65146,-2.29242c-0.43053,-0.00903 -0.85915,-0.02711 -1.28377,-0.05119c-0.60121,-0.03409 -1.02315,0.02682 -1.49297,-0.09799l-0.01846,0.09228l-0.31275,-0.06255c-0.14516,-0.02607 -0.2553,-0.15301 -0.2553,-0.30567c0,-0.13331 0.08399,-0.247 0.20195,-0.29104l0.28081,-0.11232c0.94136,-0.74369 1.8731,-1.41537 2.64577,-2.34257c0,0 0.05245,-0.06294 0.1358,-0.09723c0.26427,-0.52299 0.17428,-1.21392 0.17428,-1.80531zM320.25944,175.18837c-0.15061,-0.27161 0.121,-0.42222 0.121,-0.42222l0.03537,-0.01962c0.03815,-0.02113 0.0767,-0.04215 0.11563,-0.06302c-0.79585,-0.03526 -1.60279,-0.00799 -2.29354,0.28941c-0.90277,0.38868 -1.59891,2.00363 -1.12507,2.91355c0.26271,0.50448 0.74519,0.96314 1.21188,1.27296c0.99305,0.43913 1.83452,0.51613 2.90715,0.57937c0.42211,0.02489 0.90197,0.08014 1.3167,-0.03322c0.25459,-0.06959 0.44706,-0.28314 0.65109,-0.45056c1.08475,-0.89016 2.04226,-2.46287 1.16373,-3.83289c-0.16884,-0.16723 -0.3042,-0.374 -0.50102,-0.50717c-0.47679,-0.32261 -1.01592,-0.36298 -1.54683,-0.26258c-0.09198,0.12939 -0.26815,0.12261 -0.26815,0.12261c-0.05785,-0.00223 -0.1163,-0.00492 -0.17529,-0.00797c-0.41467,0.13398 -0.81156,0.33204 -1.15505,0.52272l-0.03537,0.01962c0,0 -0.27161,0.15061 -0.42222,-0.121z"/><path d="M313.07786,175.01585c0.00818,0.0721 -0.01118,0.15681 -0.09589,0.24152c-0.21961,0.21961 -0.43921,0 -0.43921,0l-0.12393,-0.56994c0.14068,-0.11169 0.24279,-0.32357 0.42205,-0.33507c0.34937,-0.02241 0.6575,0.25077 1.00123,0.31719c0,0 0.30454,0.06091 0.24363,0.36545c-0.06091,0.30454 -0.36545,0.24363 -0.36545,0.24363c-0.22275,-0.04577 -0.45743,-0.23812 -0.64244,-0.26277z"/><path d="M320.35222,176.90239c0.01377,-0.08634 0.07071,-0.26487 0.30618,-0.26487c0.31057,0 0.31057,0.31057 0.31057,0.31057l-0.06211,0.25002c-0.06368,0.0849 -0.12735,0.16981 -0.19103,0.25471c0,0 -0.18634,0.24846 -0.4348,0.06211c-0.24846,-0.18634 -0.06211,-0.4348 -0.06211,-0.4348c0.04444,-0.05925 0.08888,-0.1185 0.13331,-0.17775z"/></g></g></g></svg>