<svg version="1.1" xmlns="http://www.w3.org/2000/svg" xmlns:xlink="http://www.w3.org/1999/xlink" width="378" height="460.00001" viewBox="0,0,378,460.00001"><defs><linearGradient x1="320" y1="-67.5" x2="320" y2="269.5" gradientUnits="userSpaceOnUse" id="color-1"><stop offset="0" stop-color="#ffffd1"/><stop offset="1" stop-color="#f1f19c"/></linearGradient></defs><g transform="translate(-131,83.00001)"><g stroke-miterlimit="10"><path d="M145.24891,375c-6.76488,0 -12.24891,-5.33739 -12.24891,-11.9214v-432.15721c0,-6.58401 5.48402,-11.9214 12.24891,-11.9214h349.50219c6.76488,0 12.2489,5.33739 12.2489,11.9214v432.15721c0,6.584 -5.48402,11.9214 -12.2489,11.9214z" fill="#535311" fill-rule="nonzero" stroke="#212108" stroke-width="4" stroke-linecap="butt" stroke-linejoin="miter"/><path d="M160.66812,361.5c-6.16798,0 -11.16812,-4.94148 -11.16812,-11.03711v-406.92577c0,-6.09563 5.00014,-11.03711 11.16812,-11.03711h318.66376c6.16798,0 11.16812,4.94149 11.16812,11.03712v406.92577c0,6.09563 -5.00014,11.03711 -11.16812,11.03711z" fill="url(#color-1)" fill-rule="nonzero" stroke="#212108" stroke-width="4.5" stroke-linecap="butt" stroke-linejoin="miter"/><text transform="translate(160.5,-35.68135) scale(0.61033,0.61033)" font-size="40" xml:space="preserve" fill="#212108" fill-rule="nonzero" stroke="none" stroke-width="1" stroke-linecap="butt" stroke-linejoin="miter" font-family="&quot;Allan-Regular&quot;, Sans Serif" font-weight="normal" text-anchor="start"><tspan x="0" dy="0">name: Bweswees Bizznip</tspan><tspan x="0" dy="46.150000000000006px">age: 21</tspan><tspan x="0" dy="46.150000000000006px">occupation: unaware dealer</tspan></text><g><path d="M432.53444,-56.08653h32.93116c6.43804,0 11.62097,5.18296 11.62097,11.62097v32.93116c0,6.43802 -5.18294,11.62098 -11.62097,11.62098h-32.93116c-6.43802,0 -11.62098,-5.18296 -11.62098,-11.62097v-32.93116c0,-6.43801 5.18296,-11.62097 11.62098,-11.62097z" fill="#a0a300" fill-rule="evenodd" stroke="#212108" stroke-width="2" stroke-linecap="round" stroke-linejoin="round"/><g fill="none" fill-rule="nonzero" stroke="none" stroke-width="1" stroke-linecap="butt" stroke-linejoin="miter" font-family="sans-serif" font-weight="normal" font-size="12" text-anchor="start"><g/><g/></g></g><text transform="translate(158.14853,44.96585) scale(0.37935,0.41092)" font-size="40" xml:space="preserve" fill="#212108" fill-rule="nonzero" stroke="none" stroke-width="1" stroke-linecap="butt" stroke-linejoin="miter" font-family="&quot;Allan-Regular&quot;, Sans Serif" font-weight="normal" text-anchor="start"><tspan x="0" dy="0">Description-</tspan><tspan x="0" dy="46.150000000000006px">Ever since 2013 the MCS’s sales have rapidly decreased, it </tspan><tspan x="0" dy="46.150000000000006px">didn’t seem like people were that interested in ingesting a dry </tspan><tspan x="0" dy="46.150000000000006px">clay like substance to have the worst trip of their life. That was </tspan><tspan x="0" dy="46.150000000000006px">all until Bweswees Bizznip was accidentally recruited. Originally </tspan><tspan x="0" dy="46.150000000000006px">she was just someone who came down to the syndicate’s nightclub </tspan><tspan x="0" dy="46.150000000000006px">with her sister Juinip to drink copious amounts of root beer, until </tspan><tspan x="0" dy="46.150000000000006px">DJ scratchy spat fucking awful game and somehow won her over. </tspan><tspan x="0" dy="46.150000000000006px">(he had to convince her he was Big Band). It started out with </tspan><tspan x="0" dy="46.150000000000006px">Bweswees just stopping by to support her big billy, but then she </tspan><tspan x="0" dy="46.150000000000006px">wanted to try selling mustanyl herself after Scratchy convinced her </tspan><tspan x="0" dy="46.150000000000006px">it was some kind of lemon flavoring. Of course, she baked the drug </tspan><tspan x="0" dy="46.150000000000006px">into muffins and went door to door selling them for $5 each </tspan><tspan x="0" dy="46.150000000000006px">(mustanyl’s worth $70). However, she accumulated over 95k in just </tspan><tspan x="0" dy="46.150000000000006px">a day. The syndicate got real hyped thinking Bweswees was a hidden </tspan><tspan x="0" dy="46.150000000000006px">gem of a dealer, but after she started putting fresh fruit in the pastries, </tspan><tspan x="0" dy="46.150000000000006px">it neutralized the neurotoxins and killed her sales.</tspan></text><path d="M160.16667,-30.16667v-1.66667h252.16667v1.66667z" fill="#212108" fill-rule="nonzero" stroke="none" stroke-width="0" stroke-linecap="butt" stroke-linejoin="miter"/><path d="M160.16667,-0.66667v-1.66667h252.16667v1.66667z" fill="#212108" fill-rule="nonzero" stroke="none" stroke-width="0" stroke-linecap="butt" stroke-linejoin="miter"/><path d="M160.16667,29.33333v-1.66667h252.16667v1.66667z" fill="#212108" fill-rule="nonzero" stroke="none" stroke-width="0" stroke-linecap="butt" stroke-linejoin="miter"/><g fill="#d9db56" fill-rule="nonzero" stroke="#000d00" stroke-width="1.5" stroke-linecap="butt" stroke-linejoin="miter"><path d="M452.71442,-45.37492c2.22944,5.37351 -2.87914,18.17057 -2.87914,18.17057c0,0 -12.6675,-5.42188 -14.89694,-10.79537c-2.22944,-5.37351 0.80539,-9.30096 5.71411,-11.33757c4.90872,-2.0366 9.83253,-1.41112 12.06197,3.96237z"/><path d="M458.15044,-7.16269c-4.90872,2.0366 -9.83253,1.41112 -12.06197,-3.96239c-2.22944,-5.37351 2.87914,-18.17055 2.87914,-18.17055c0,0 12.66748,5.42188 14.89692,10.79537c2.22944,5.37351 -0.80537,9.30096 -5.7141,11.33757z"/><path d="M432.62509,-31.70757c5.37349,-2.22944 18.17057,2.87914 18.17057,2.87914c0,0 -5.42188,12.6675 -10.79539,14.89694c-5.37349,2.22944 -9.30096,-0.80539 -11.33757,-5.71411c-2.0366,-4.90872 -1.41111,-9.83253 3.96239,-12.06197z"/><path d="M470.83729,-37.1436c2.0366,4.90872 1.41111,9.83253 -3.96239,12.06197c-5.37349,2.22944 -18.17057,-2.87914 -18.17057,-2.87914c0,0 5.42188,-12.6675 10.79539,-14.89694c5.37349,-2.22944 9.30096,0.80539 11.33757,5.71411z"/><path d="M440.9491,-24.74316c-1.93677,-4.66811 0.27741,-10.0224 4.94552,-11.95918c4.66811,-1.93677 10.0224,0.27741 11.95918,4.94552c1.93677,4.66811 -0.27741,10.0224 -4.94552,11.95918c-4.66811,1.93677 -10.0224,-0.27741 -11.95918,-4.94552z"/></g></g></g></svg>