<svg version="1.1" xmlns="http://www.w3.org/2000/svg" xmlns:xlink="http://www.w3.org/1999/xlink" width="100.5541" height="64.63933" viewBox="0,0,100.5541,64.63933"><g transform="translate(-47.88413,-208.71586)"><g stroke-miterlimit="10"><path d="M49.75982,269.40515l-0.85981,-55.71608l98.36296,2.06356l0.17197,50.90112z" fill="#4b4e12" stroke="#000000" stroke-width="2" stroke-linecap="butt" stroke-linejoin="miter"/><path d="M61.02339,272.32854l-1.54767,-62.59461l78.75915,1.37571l-0.68786,59.15535z" fill="#faff9a" stroke="#000000" stroke-width="2" stroke-linecap="butt" stroke-linejoin="miter"/><path d="M75.51284,232.77179c-0.33793,4.70915 -1.90813,8.46304 -3.50713,8.38451c-1.599,-0.07853 -2.62129,-3.95971 -2.28336,-8.66888c0.33793,-4.70915 1.90813,-8.46304 3.50713,-8.38451c1.599,0.07853 2.62129,3.95971 2.28336,8.66888z" fill="#000000" stroke="none" stroke-width="1.3" stroke-linecap="butt" stroke-linejoin="miter"/><path d="M124.92372,227.11058c1.39993,-0.06875 2.77463,3.21777 3.07049,7.34065c0.29586,4.12288 -0.59915,7.52086 -1.99908,7.5896c-1.39993,0.06875 -2.77463,-3.21777 -3.07049,-7.34065c-0.29586,-4.12288 0.59915,-7.52086 1.99908,-7.5896z" fill="#000000" stroke="none" stroke-width="1.3" stroke-linecap="butt" stroke-linejoin="miter"/><path d="M132.65837,244.86355c0,0 -1.39435,23.39186 -34.78964,21.964c-33.36246,-1.42645 -32.27602,-23.73276 -32.27602,-23.73276c0,0 5.87456,7.76111 34.95185,7.69041c26.91231,-0.06543 32.1138,-5.92164 32.1138,-5.92164z" fill="#ffffff" stroke="#000000" stroke-width="1.3" stroke-linecap="butt" stroke-linejoin="round"/><path d="M129.56303,253.11779c0,0 -8.37274,4.88368 -29.92585,4.42116c-22.27398,-0.47798 -31.24392,-5.01074 -31.24392,-5.01074" fill="none" stroke="#000000" stroke-width="1.3" stroke-linecap="round" stroke-linejoin="miter"/><path d="M98.16745,251.05423l-0.1474,15.32929" fill="none" stroke="#000000" stroke-width="1.3" stroke-linecap="round" stroke-linejoin="miter"/><path d="M109.66443,265.94133l0.73699,-14.7397" fill="none" stroke="#000000" stroke-width="1.3" stroke-linecap="round" stroke-linejoin="miter"/><path d="M121.75099,249.58027l-0.73699,12.67614" fill="none" stroke="#000000" stroke-width="1.3" stroke-linecap="round" stroke-linejoin="miter"/><path d="M87.70228,264.31996l-0.88438,-13.70792" fill="none" stroke="#000000" stroke-width="1.3" stroke-linecap="round" stroke-linejoin="miter"/><path d="M76.50009,248.84326l1.47397,13.11834" fill="none" stroke="#000000" stroke-width="1.3" stroke-linecap="round" stroke-linejoin="miter"/></g></g></svg>