<svg version="1.1" xmlns="http://www.w3.org/2000/svg" xmlns:xlink="http://www.w3.org/1999/xlink" width="36.79812" height="36.7981" viewBox="0,0,36.79812,36.7981"><g transform="translate(-302.91346,-162.9135)"><g stroke-miterlimit="10"><path d="M311.51759,163.9135h20.83988c4.07419,0 7.35411,3.303 7.35411,7.40583v20.98644c0,4.10283 -3.27992,7.40583 -7.35411,7.40583h-20.83988c-4.07418,0 -7.35411,-3.303 -7.35411,-7.40583v-20.98644c0,-4.10283 3.27993,-7.40583 7.35411,-7.40583z" fill-opacity="0.39216" fill="#000000" fill-rule="evenodd" stroke="none" stroke-width="0" stroke-linecap="round" stroke-linejoin="round"/><path d="M309.98312,162.9135h20.03379c3.9166,0 7.06966,3.15307 7.06966,7.06966v20.03379c0,3.91659 -3.15306,7.06966 -7.06966,7.06966h-20.03379c-3.91659,0 -7.06966,-3.15307 -7.06966,-7.06966v-20.03379c0,-3.91659 3.15307,-7.06966 7.06966,-7.06966z" fill="#a0a300" fill-rule="evenodd" stroke="none" stroke-width="0" stroke-linecap="round" stroke-linejoin="round"/><g fill-rule="nonzero" stroke-width="1" stroke-linejoin="miter"><path d="M309.40774,184.9506c-0.02291,2.10032 -0.33593,3.79977 -0.69914,3.79581c-0.36321,-0.00396 -0.63908,-1.70983 -0.61617,-3.81016c0.02291,-2.10032 0.33593,-3.79977 0.69915,-3.79581c0.36321,0.00396 0.63908,1.70983 0.61617,3.81016z" fill="#000000" stroke="none" stroke-linecap="butt"/><path d="M332.74275,178.44428c0.56758,-0.02227 1.08056,1.30718 1.14579,2.96938c0.06522,1.66223 -0.34203,3.02776 -0.9096,3.05003c-0.56758,0.02227 -1.08056,-1.30718 -1.14579,-2.96938c-0.06522,-1.66223 0.34202,-3.02776 0.9096,-3.05003z" fill="#000000" stroke="none" stroke-linecap="butt"/><path d="M332.50737,181.61979c-0.01816,1.66338 -0.4933,3.00682 -1.06128,3.00063c-0.56798,-0.00619 -1.01372,-1.35965 -0.99557,-3.02306c0.01816,-1.66338 0.4933,-3.00681 1.06128,-3.00062c0.56798,0.00619 1.01372,1.35965 0.99557,3.02305z" fill="#000000" stroke="none" stroke-linecap="butt"/><path d="M329.62192,179.0091c0.65665,-0.2441 1.38367,1.32368 1.62385,3.50173c0.24017,2.17805 -0.09744,4.14161 -0.7541,4.38571c-0.65665,0.2441 -1.38367,-1.32369 -1.62384,-3.50174c-0.24017,-2.17805 0.09744,-4.1416 0.75409,-4.3857z" fill="#000000" stroke="none" stroke-linecap="butt"/><path d="M326.88577,181.71414c0.4511,0.04996 0.63124,2.12705 0.40236,4.63931c-0.22888,2.51226 -0.78012,4.50835 -1.23121,4.45839c-0.4511,-0.04996 -0.63124,-2.12705 -0.40235,-4.63931c0.22888,-2.51226 0.78012,-4.50835 1.23121,-4.45839z" fill="#000000" stroke="none" stroke-linecap="butt"/><path d="M328.07902,182.01222c0.69085,0.18619 1.21475,1.42127 1.1702,2.75861c-0.04456,1.33736 -0.64073,2.27054 -1.33158,2.08435c-0.69085,-0.18619 -1.21476,-1.42128 -1.17021,-2.75861c0.04456,-1.33736 0.64074,-2.27054 1.33159,-2.08435z" fill="#000000" stroke="none" stroke-linecap="butt"/><path d="M328.94372,182.13788c0.36295,-0.01424 0.72395,1.67567 0.8063,3.7745c0.08235,2.09884 -0.14513,3.81183 -0.50808,3.82607c-0.36295,0.01424 -0.72395,-1.67566 -0.8063,-3.7745c-0.08235,-2.09884 0.14513,-3.81184 0.50808,-3.82608z" fill="#000000" stroke="none" stroke-linecap="butt"/><path d="M325.1925,183.09325c0.4372,-0.01715 0.83234,1.0069 0.88258,2.28727c0.05024,1.28039 -0.26345,2.33225 -0.70065,2.3494c-0.4372,0.01715 -0.83235,-1.00691 -0.88259,-2.28728c-0.05024,-1.28039 0.26346,-2.33225 0.70066,-2.34939z" fill="#000000" stroke="none" stroke-linecap="butt"/><path d="M323.86958,186.30181c0.2999,2.50477 0.17863,4.58613 -0.27087,4.64883c-0.4495,0.06271 -1.05701,-1.91698 -1.35691,-4.42175c-0.2999,-2.50477 -0.17862,-4.58614 0.27088,-4.64884c0.4495,-0.06271 1.057,1.91699 1.3569,4.42176z" fill="#000000" stroke="none" stroke-linecap="butt"/><path d="M322.74908,186.15342c0.08239,1.33554 -0.40635,2.58495 -1.09166,2.79063c-0.6853,0.20568 -1.30765,-0.71027 -1.39004,-2.04583c-0.08239,-1.33554 0.40634,-2.58495 1.09165,-2.79062c0.6853,-0.20568 1.30766,0.71026 1.39005,2.04582z" fill="#000000" stroke="none" stroke-linecap="butt"/><path d="M321.08372,186.17203c-0.02291,2.10032 -0.33593,3.79977 -0.69915,3.79581c-0.36321,-0.00396 -0.63908,-1.70983 -0.61617,-3.81016c0.02291,-2.10032 0.33593,-3.79977 0.69915,-3.79581c0.36321,0.00396 0.63908,1.70983 0.61617,3.81016z" fill="#000000" stroke="none" stroke-linecap="butt"/><path d="M325.01119,185.5393c-0.01398,1.28128 -0.37999,2.31612 -0.8175,2.31135c-0.43751,-0.00477 -0.78085,-1.04733 -0.76687,-2.32863c0.01398,-1.28128 0.37998,-2.31611 0.81749,-2.31134c0.43751,0.00477 0.78086,1.04733 0.76687,2.32862z" fill="#000000" stroke="none" stroke-linecap="butt"/><path d="M319.01235,188.26826c0.2488,3.3297 0.1472,5.9857 -0.22695,5.9323c-0.37413,-0.05338 -0.87913,-2.79594 -1.12793,-6.12564c-0.2488,-3.3297 -0.1472,-5.9857 0.22695,-5.9323c0.37413,0.05338 0.87913,2.79594 1.12793,6.12564z" fill="#000000" stroke="none" stroke-linecap="butt"/><path d="M317.9588,186.34086c0.08239,1.33554 -0.40635,2.58495 -1.09166,2.79062c-0.6853,0.20568 -1.30765,-0.71027 -1.39004,-2.04582c-0.08239,-1.33554 0.40635,-2.58495 1.09166,-2.79062c0.6853,-0.20568 1.30765,0.71027 1.39004,2.04582z" fill="#000000" stroke="none" stroke-linecap="butt"/><path d="M318.08997,185.09391c-0.01136,1.04087 -0.30868,1.88153 -0.6641,1.87766c-0.35542,-0.00387 -0.63434,-0.85082 -0.62298,-1.89169c0.01136,-1.04087 0.30868,-1.88153 0.66411,-1.87766c0.35542,0.00387 0.63433,0.85081 0.62298,1.89169z" fill="#000000" stroke="none" stroke-linecap="butt"/><path d="M316.29343,186.35946c-0.02291,2.10032 -0.33593,3.79978 -0.69915,3.79581c-0.36321,-0.00396 -0.63908,-1.70983 -0.61617,-3.81016c0.02291,-2.10032 0.33593,-3.79978 0.69915,-3.79581c0.36321,0.00396 0.63908,1.70983 0.61617,3.81016z" fill="#000000" stroke="none" stroke-linecap="butt"/><path d="M320.2209,185.72673c-0.01398,1.28128 -0.37999,2.31611 -0.8175,2.31134c-0.43751,-0.00477 -0.78085,-1.04733 -0.76687,-2.32862c0.01398,-1.28128 0.37998,-2.31611 0.81749,-2.31134c0.43751,0.00477 0.78086,1.04732 0.76687,2.32862z" fill="#000000" stroke="none" stroke-linecap="butt"/><path d="M312.46815,186.17801c-0.01136,1.04087 -0.30868,1.88153 -0.66411,1.87766c-0.35542,-0.00387 -0.63434,-0.85081 -0.62298,-1.89169c0.01136,-1.04087 0.30868,-1.88153 0.66411,-1.87766c0.35542,0.00387 0.63434,0.85081 0.62298,1.89169z" fill="#000000" stroke="none" stroke-linecap="butt"/><path d="M310.67161,187.44356c-0.02291,2.10033 -0.33593,3.79978 -0.69914,3.79581c-0.36321,-0.00396 -0.63909,-1.70983 -0.61618,-3.81016c0.02291,-2.10033 0.33593,-3.79978 0.69915,-3.79581c0.36321,0.00396 0.63908,1.70983 0.61617,3.81016z" fill="#000000" stroke="none" stroke-linecap="butt"/><path d="M314.59907,186.81083c-0.01398,1.28128 -0.37998,2.31611 -0.81749,2.31134c-0.43751,-0.00477 -0.78086,-1.04733 -0.76687,-2.32862c0.01398,-1.28128 0.37999,-2.31611 0.8175,-2.31134c0.43751,0.00477 0.78085,1.04733 0.76687,2.32862z" fill="#000000" stroke="none" stroke-linecap="butt"/><path d="M315.47765,185.2368c-0.01137,1.04226 -1.39818,1.87216 -3.09754,1.85363c-1.69936,-0.01853 -3.06774,-0.87849 -3.05637,-1.92075c0.01137,-1.04226 1.39819,-1.87217 3.09754,-1.85363c1.69936,0.01853 3.06773,0.8785 3.05636,1.92077z" fill="#000000" stroke="none" stroke-linecap="butt"/><path d="M330.98652,175.06158c1.07497,4.63187 -3.28188,9.60012 -9.73132,11.09692c-6.44943,1.49679 -12.54916,-1.04468 -13.62413,-5.67654c-1.07497,-4.63187 3.28188,-9.60013 9.73132,-11.09693c6.44943,-1.49679 12.54916,1.04468 13.62414,5.67655z" fill="#d9db56" stroke="#000000" stroke-linecap="butt"/><path d="M314.03969,179.2126c0.62495,2.73902 -0.86374,5.43462 -3.32509,6.02079c-2.46135,0.58617 -4.9633,-1.15905 -5.58825,-3.89808c-0.62495,-2.73902 0.86374,-5.43462 3.3251,-6.02079c2.46135,-0.58617 4.96329,1.15906 5.58825,3.89808z" fill="#d9db56" stroke="#000000" stroke-linecap="butt"/><path d="M312.28864,184.89332c0,0 -2.43295,-7.28083 -2.81503,-9.00958c-0.15757,-0.71292 0.50499,-1.44232 0.50499,-1.44232l5.54751,-1.03598l2.26997,10.27065c0,0 -3.83553,1.29128 -4.66798,1.47527c-0.28139,0.06219 -0.83947,-0.25804 -0.83947,-0.25804z" fill="#d9db56" stroke="none" stroke-linecap="butt"/><path d="M328.00597,170.86593c3.71365,-0.7786 5.6285,1.48159 6.20677,4.23093c0.57827,2.74934 -0.399,4.9467 -4.11265,5.7253c-3.71365,0.7786 -7.19295,-0.81899 -7.77122,-3.56833c-0.57827,-2.74934 1.96345,-5.6093 5.6771,-6.3879z" fill="#d9db56" stroke="#000000" stroke-linecap="butt"/><path d="M328.02789,181.7949c-0.83245,0.18399 -5.93539,0.61478 -5.93539,0.61478l-3.04203,-10.03665l6.46458,-1.90403c0,0 1.86373,1.12155 2.0213,1.83447c0.38208,1.72875 1.14408,8.90364 1.14408,8.90364c0,0 -0.37114,0.5256 -0.65253,0.58779z" fill="#d9db56" stroke="none" stroke-linecap="butt"/><path d="M312.1063,180.81479c0,0 6.39399,1.52308 8.34811,1.07012c1.96395,-0.45523 7.01781,-4.65634 7.01781,-4.65634c0,0 0.23865,-0.9039 0.26836,-0.51175c0.02577,0.34014 0.32093,1.75795 0.33612,2.86681c0.02219,1.61971 -0.24154,3.01426 -0.24154,3.01426c0,0 -4.27365,2.78295 -6.31068,3.265c-2.01741,0.47741 -6.76646,0.06883 -6.76646,0.06883c0,0 -1.27863,-2.36192 -1.6763,-3.20919c-0.05371,-0.11442 -0.80783,-1.05742 -0.88641,-1.21418c-0.31955,-0.63746 -0.08901,-0.69357 -0.08901,-0.69357z" fill="none" stroke="#000000" stroke-linecap="round"/><path d="M316.89862,186.15565l-1.94074,-4.76714l0.30142,0.50368" fill="none" stroke="#000000" stroke-linecap="round"/><path d="M319.10028,185.79578l-1.21707,-3.78648" fill="none" stroke="#000000" stroke-linecap="round"/><path d="M321.66445,185.35579l-0.84824,-3.55116" fill="none" stroke="#000000" stroke-linecap="round"/><path d="M323.71047,180.27782l0.27012,4.37597" fill="none" stroke="#000000" stroke-linecap="round"/><path d="M325.64508,178.70963l0.50413,5.14802" fill="none" stroke="#000000" stroke-linecap="round"/><path d="M327.7837,180.6449c0,0 -4.20245,2.47154 -6.56042,3.0034c-2.28744,0.51595 -7.38222,0.1415 -7.38222,0.1415" fill="none" stroke="#000000" stroke-linecap="round"/><path d="M327.38169,174.23866c0.48304,2.18552 -1.10536,4.71166 -3.25751,5.18732c-0.8993,0.19876 -1.75576,0.25368 -2.84481,-0.6843c-0.90762,-0.78172 -1.4101,-1.50823 -1.69129,-2.78051c-0.48304,-2.18552 0.87005,-4.34282 3.0222,-4.81848c2.15215,-0.47566 4.28838,0.91045 4.77141,3.09597z" fill="none" stroke="#000000" stroke-linecap="butt"/><path d="M325.72979,175.07901c0.27286,1.23456 -0.26605,2.40337 -1.2037,2.6106c-0.93765,0.20723 -1.91895,-0.62559 -2.19181,-1.86014c-0.27286,-1.23456 0.26606,-2.40337 1.2037,-2.6106c0.93765,-0.20723 1.91895,0.62557 2.19181,1.86014z" fill="#000000" stroke="#000000" stroke-linecap="butt"/><path d="M313.92379,173.12591c2.15215,-0.47566 4.28839,0.91045 4.77142,3.09596c0.28119,1.27228 0.13171,2.14288 -0.36192,3.2343c-0.5923,1.3096 -1.39213,1.62073 -2.29143,1.81949c-2.15215,0.47566 -4.65722,-1.14577 -5.14025,-3.33128c-0.48304,-2.18552 0.87004,-4.34281 3.02219,-4.81847z" fill="none" stroke="#000000" stroke-linecap="butt"/><path d="M313.95749,175.39967c0.93765,-0.20723 1.91895,0.62559 2.19181,1.86014c0.27286,1.23456 -0.26606,2.40338 -1.2037,2.61061c-0.93765,0.20723 -1.91895,-0.62558 -2.19181,-1.86015c-0.27286,-1.23456 0.26605,-2.40337 1.2037,-2.6106z" fill="#000000" stroke="#000000" stroke-linecap="butt"/><path d="M317.68107,180.85792c-0.10721,0.11936 -1.06607,0.23577 -1.16677,0.24866c-0.01488,0.00191 -0.02974,0.00377 -0.04458,0.0056c-1.06179,0.41007 -2.30714,0.33748 -3.39528,-0.35069c-0.67147,-0.43053 -1.31238,-1.12358 -1.75455,-1.80786c-0.06891,-0.01149 -0.13745,-0.02416 -0.20559,-0.038c0,0 -0.30316,-0.06168 -0.24149,-0.36483c0.05856,-0.28786 0.33487,-0.24678 0.36259,-0.24189c0.23451,-0.17664 0.42255,0.05535 0.42255,0.05535l0.01182,0.0151c2.24749,0.27468 4.87961,-0.74451 6.57525,-2.11957l0.31761,-0.25745c0.03709,-0.03138 0.08214,-0.05445 0.13288,-0.06567c0.16683,-0.03687 0.33197,0.06848 0.36884,0.23531c0.01597,0.07226 0.00526,0.1442 -0.02558,0.20555l-0.11637,0.23653c-0.01488,0.72189 0.02281,1.42965 -0.21729,2.14141c-0.15609,0.4627 -0.38675,0.87295 -0.67275,1.22321c-0.14398,0.44912 -0.2806,0.80054 -0.35131,0.87925z" fill-opacity="0.27451" fill="#000000" stroke="none" stroke-linecap="butt"/><path d="M318.26326,183.68609c0.00009,-0.00313 0.00021,-0.00624 0.00035,-0.00931c-0.5519,0.06332 -1.18033,0.11072 -1.699,0.03671c-0.21334,0.01858 -0.45006,0.02092 -0.74964,0.02966l-0.00654,-0.00305l-0.00004,0.00303l-0.33394,-0.00442c-0.11262,0.0009 -0.21672,-0.06012 -0.27152,-0.15706c-0.49997,0.03819 -0.99984,0.08807 -1.50411,0.10775c0,0 -0.30915,0.01166 -0.3208,-0.2975c-0.01164,-0.30916 0.2975,-0.3208 0.2975,-0.3208c1.15277,-0.04174 2.28043,-0.23593 3.43981,-0.11544l0.38211,0.03997c0.03513,0.00285 0.06907,0.01169 0.10054,0.0257c0.66317,-0.02496 1.33433,-0.02828 2.0129,-0.12676c2.55863,-0.37132 4.51346,-1.04341 6.73553,-2.36504c0.30748,-0.13459 0.55319,-0.31 0.83127,-0.49797l0.03038,-0.00122l-0.00501,-0.01137l0.28288,-0.12461c0.02002,-0.0093 0.04135,-0.01657 0.06379,-0.02154c0.16683,-0.03687 0.33197,0.06849 0.36884,0.23532c0.02474,0.11196 -0.01457,0.22316 -0.09354,0.29534l-0.2579,0.24412l-0.04687,-0.04952c-1.70303,2.33514 -6.08968,2.84502 -8.62594,3.40557l-0.33028,0.00017c0,0 -0.30926,-0.0085 -0.30076,-0.31775z" fill-opacity="0.58039" fill="#000000" stroke="none" stroke-linecap="butt"/><path d="M327.0698,182.39554c0.17946,-0.14775 0.35292,-0.30059 0.51963,-0.45858c0,0 0.22468,-0.21267 0.43735,0.01202c0.12336,0.13033 0.09956,0.25661 0.05783,0.33969c0.00668,0.16152 -0.14204,0.26284 -0.14204,0.26284l-0.27537,0.18759c-0.07862,0.05354 -0.15748,0.10672 -0.2366,0.15951c-1.99373,1.62496 -4.66325,2.65428 -7.12265,3.20056c-0.83782,0.18517 -1.67101,0.21166 -2.50193,0.1573c-0.91599,0.00501 -1.80528,-0.1008 -2.61507,-0.34797l-0.01311,0.07975l-0.60342,-0.09923c-0.12419,-0.01748 -0.23033,-0.11001 -0.25899,-0.23968c-0.03687,-0.16683 0.06849,-0.33197 0.23532,-0.36884c0.01888,-0.00418 0.03774,-0.00652 0.05639,-0.00717l0.37002,-0.0194l0.00075,0.01449l0.03253,-0.01444c0.2334,0.03803 0.46689,0.07727 0.70049,0.1157c0.88602,-0.07351 2.04822,0.21608 2.81592,0.17692c1.91365,-0.0976 4.0656,-0.66291 5.73424,-1.57956c0.98755,-0.43586 1.91432,-0.97588 2.8087,-1.57149z" fill-opacity="0.58039" fill="#000000" stroke="none" stroke-linecap="butt"/><path d="M321.8141,179.01611c-0.40698,-0.1971 -0.78905,-0.47192 -1.12561,-0.82574c-0.51771,-0.54427 -0.7818,-1.202 -1.09954,-1.85038l-0.20522,-0.16545c-0.05381,-0.04263 -0.09384,-0.10336 -0.10981,-0.17562c-0.03687,-0.16683 0.06849,-0.33197 0.23532,-0.36884c0.05074,-0.01121 0.10131,-0.00926 0.14818,0.00356l0.39652,0.09961c2.11722,0.53237 4.93371,0.34733 6.85608,-0.84896l0.00435,-0.01868c0,0 0.07277,-0.28963 0.35987,-0.22828c0.02309,-0.01611 0.25633,-0.16982 0.43076,0.06655c0.1837,0.24893 -0.06523,0.43263 -0.06523,0.43263c-0.05596,0.04128 -0.11279,0.08165 -0.17042,0.12111c-0.11259,0.80689 -0.40175,1.70549 -0.82922,2.37891c-0.69676,1.08266 -1.79551,1.67334 -2.93123,1.74894c-0.01423,0.00459 -0.02849,0.00917 -0.04279,0.01371c-0.09676,0.03074 -1.01536,0.32929 -1.16289,0.26623c-0.0973,-0.04158 -0.3693,-0.30268 -0.68914,-0.64929z" fill-opacity="0.27451" fill="#000000" stroke="none" stroke-linecap="butt"/></g></g></g></svg>