<svg version="1.1" xmlns="http://www.w3.org/2000/svg" xmlns:xlink="http://www.w3.org/1999/xlink" width="286.09707" height="246.19585" viewBox="0,0,286.09707,246.19585"><defs><linearGradient x1="191.6971" y1="208.58962" x2="459.63865" y2="208.58962" gradientUnits="userSpaceOnUse" id="color-1"><stop offset="0" stop-color="#8a833c"/><stop offset="1" stop-color="#81782d"/></linearGradient><linearGradient x1="294.09635" y1="211.5328" x2="332.16328" y2="217.25195" gradientUnits="userSpaceOnUse" id="color-2"><stop offset="0" stop-color="#7f772e"/><stop offset="1" stop-color="#8b843d"/></linearGradient><linearGradient x1="255.65009" y1="269.87023" x2="304.44059" y2="269.87023" gradientUnits="userSpaceOnUse" id="color-3"><stop offset="0" stop-color="#7f772e"/><stop offset="1" stop-color="#8b843d"/></linearGradient><linearGradient x1="249.81907" y1="241.75258" x2="312.681" y2="241.75258" gradientUnits="userSpaceOnUse" id="color-4"><stop offset="0" stop-color="#7f772e"/><stop offset="1" stop-color="#8b843d"/></linearGradient><radialGradient cx="296.55213" cy="252.63878" r="32.93557" gradientUnits="userSpaceOnUse" id="color-5"><stop offset="0" stop-color="#8b843d"/><stop offset="1" stop-color="#7f772e"/></radialGradient></defs><g transform="translate(-174.27855,-51.81163)"><g stroke-miterlimit="10"><path d="M246.25,248.41667v-110.66667h154v110.66667z" fill-opacity="0.01" fill="#000000" stroke="none" stroke-width="0" stroke-linecap="butt"/><g stroke="#000000" stroke-width="1.5" stroke-linecap="round"><path d="M385.04741,127.06165c0,0 3.4516,2.1764 5.92467,1.13376c0.61037,-0.25732 6.32452,-5.84159 7.04316,-6.13768c1.64904,-0.67941 -1.57608,6.62236 0.38437,6.08541c1.0319,-0.28263 1.46614,0.73419 2.63728,0.42192c1.18314,-0.31548 -4.2919,4.98785 -2.97905,4.66752c0.37135,-0.09062 4.79902,0.70274 6.99158,2.60996c2.49864,2.17346 2.79807,5.49651 3.26931,5.37795c1.68876,-0.42489 2.72949,-3.01774 4.4577,-3.70533c0.82315,-0.32749 5.35411,1.98731 6.18892,1.6507c1.13203,-0.45644 1.90395,-2.5851 2.97455,-3.08222c3.48176,-1.61671 3.32941,3.89941 6.87392,3.80335c1.01693,-0.02756 0.84699,-3.01847 1.61381,-2.96284c1.27476,0.09248 -0.12631,5.23219 1.95858,4.47071c9.64529,-3.52282 6.30137,1.3782 7.84715,2.38575c1.25494,0.81799 6.1114,-1.60871 7.10035,0.16237c0.74613,1.33623 3.05724,9.11932 3.06002,13.94026c0.00134,2.31611 1.59429,5.22327 1.43754,7.98197c-0.12241,2.15449 0.37174,4.41757 0.15064,6.75324c-0.37176,3.92745 -6.55188,7.74926 -5.83724,11.89581c0.68827,3.99354 -1.16202,8.26345 -0.38203,11.52584c1.37236,5.73998 3.31879,9.56393 4.39506,13.2516c1.11926,3.835 -5.80171,16.17468 -4.53575,18.68596c4.68684,9.2973 3.41245,16.42158 6.41904,23.69526c0.70607,1.70816 7.05282,3.11142 7.58464,4.91128c0.4246,1.43695 -9.65856,3.86406 -15.34639,3.67342c-5.20563,-0.17447 -3.10906,-6.28635 -7.87914,-5.10526c-5.64231,1.39707 -9.98274,12.0251 -9.59985,13.32017c2.03733,6.89095 1.01013,12.91985 2.12649,16.08135c1.48227,4.19778 7.2078,6.21145 10.99493,7.10263c2.03208,0.47818 6.45168,1.43489 4.38132,1.71107c-5.37662,0.71724 -20.0404,1.34177 -26.99896,1.22122c-2.36662,-0.041 -8.84226,1.03835 -11.64475,0.34376c-3.82652,-0.94839 -4.00411,-3.77173 -6.96832,-4.08689c-6.2958,-0.6694 -9.82018,1.1665 -16.61435,0.67431c-4.76937,-0.34551 -9.38323,1.30377 -14.54932,1.36032c-2.81854,0.03085 -6.74674,-1.57625 -8.77057,-1.55147c-4.61313,0.05649 -9.77541,1.12775 -10.70562,1.23106c-5.26085,0.58434 -14.3886,0.50889 -23.59251,0.61185c-2.52903,0.0283 -8.49732,0.34569 -11.15125,0.27774c-3.31204,-0.08481 -5.98229,4.08626 -13.79064,-1.76016c-2.26476,-1.69572 -3.46524,-0.26699 -5.71114,0.34127c-1.74048,0.47137 -4.51199,0.05285 -6.33801,-0.1776c-5.41464,-0.68333 -8.98448,-1.24456 -13.49446,-2.05196c-3.00119,-0.53729 -6.79363,-1.36825 -10.45556,-1.74325c-4.22095,-0.43223 -9.39513,-0.4586 -13.46414,-0.68413c-2.68093,-0.14859 -7.97253,-0.30313 -10.47099,-0.46375c-0.91856,-0.05905 -5.1866,1.20614 -6.0736,1.14419c-1.15938,-0.08098 -8.34283,-2.81382 -9.4347,-2.89578c-1.65254,-0.12405 -2.88879,-4.55065 -4.37255,-4.66218c-3.56135,-0.2677 -5.27601,-0.49735 -7.71155,-0.67956c-1.78502,-0.13355 -3.23433,-0.90186 -4.299,-0.97521c-2.13426,-0.14707 -5.90111,0.69743 -9.67975,0.88503c-2.95129,0.14653 -6.30343,-0.36614 -6.30343,-0.36614c0,0 -0.31368,-2.52658 2.44445,-3.47779c3.18414,-1.09813 -1.80708,-1.27426 3.43172,-3.07502c1.39905,-0.48091 2.28397,-4.6415 3.95117,-5.18565c1.06464,-0.3475 5.54309,1.30586 6.69224,0.98037c1.70374,-0.48258 4.12678,-4.96409 5.47748,-3.80705c2.9388,2.51745 7.13119,-3.92427 10.19657,-4.54406c6.97282,-1.40985 12.32772,-1.74751 13.82545,-4.79262c0.2573,-0.52314 -8.62795,-4.72149 -15.05864,-9.79492c-3.86584,-3.04992 -4.43185,-5.11467 -6.04132,-7.32876c-0.98178,-1.3506 -3.83073,-3.58916 -3.75286,-3.72004c0.57456,-0.96577 3.89986,-2.74536 6.22889,-4.64975c4.31691,-3.52984 8.48916,-7.4885 8.48916,-7.4885c0,0 -2.62301,-1.51142 -3.97259,-2.28908c-1.66353,-0.95855 1.34535,-1.93588 2.95714,-2.97667c1.86923,-1.20703 4.19094,-2.73861 5.4769,-3.70929c2.27727,-1.71894 5.66356,-5.03695 5.66356,-5.03695c0,0 -11.59976,-14.74975 -17.73798,-19.11369c-1.66098,-1.18086 -3.72418,0.07286 -3.70448,0.05324c0.82092,-0.81779 1.59401,-2.63332 3.08856,-4.65536c0.93838,-1.26957 2.56883,-2.82132 3.40276,-3.63252c3.10057,-3.01609 8.25102,-6.51048 10.70552,-9.57839c1.77076,-2.21329 0.13016,-5.94036 1.80351,-7.88074c5.84436,-6.77703 -0.16404,5.03067 5.12413,1.25183c1.66557,-1.19019 0.528,-7.06517 3.76193,-10.50539c3.59298,-3.82218 3.08219,4.16844 7.35719,1.38354c1.7855,-1.16314 1.48781,-6.43749 4.19874,-10.18309c1.45336,-2.00804 2.44529,-0.58615 4.34641,-1.66047c1.60938,-0.90946 4.25172,-4.45301 4.43373,-4.64121c2.76951,-2.86363 -0.41635,3.88922 2.41518,4.89059c1.1932,0.42198 2.10332,-3.92654 3.38072,-3.14724c1.2412,0.7572 -0.51286,3.37696 0.77285,4.49202c1.45544,1.26225 5.00102,1.03176 6.55238,2.55421c1.43,1.40333 -1.53621,7.89469 -0.17435,9.46754c1.03922,1.2002 2.12593,0.68955 3.23012,1.77586c1.14513,1.12658 0.96314,6.20555 2.11231,7.2633c2.1386,1.96848 0.34649,3.6485 2.37469,4.57096c2.11514,0.96198 4.10653,-1.34984 4.2109,-4.22228c0.13653,-3.75756 -1.75953,-8.47446 1.26127,-8.07732c3.06291,0.40268 5.54934,13.93915 5.54934,13.93915c0,0 0.17894,-10.37571 3.81545,-11.65839c1.63128,-0.57539 4.4599,-0.89037 6.44453,-1.57724c4.42701,-1.53218 -3.43851,-3.37411 2.10258,-5.06348c1.3933,-0.42479 2.86124,-9.8521 4.95741,-7.20364c0.64492,0.81483 -0.60303,3.22468 2.0781,3.85049c2.24415,0.52381 2.72697,-5.93325 5.87311,-5.94229c1.97586,-0.00566 2.72521,4.71331 4.98614,5.95013c3.16668,1.73229 7.68065,0.1396 8.45534,-0.00257c2.5501,-0.46796 5.11402,-1.87063 7.64408,-3.54686c4.83542,-3.2036 9.54713,-7.40649 13.80216,-7.9935c1.89222,-0.26104 2.42273,1.80971 4.10382,3.36898c0.84539,0.78413 1.85607,-0.4877 2.83774,0.05298c1.47631,0.81311 2.88698,3.21669 3.57115,2.86447c2.92217,-1.50432 4.71556,-4.10286 6.79418,-5.71644c3.05848,-2.37421 0.64492,-1.00778 2.34456,-2.98153c1.50759,-1.75072 3.53202,-2.03643 5.28433,-3.9881c2.07604,-2.31224 3.77009,-6.16032 3.77009,-6.16032zM302.24145,176.88483c-2.42962,1.81563 12.48842,2.03889 12.48842,5.2745c0,4.33243 -13.6739,10.66899 -9.74858,12.03135c0.32781,0.11377 0.66339,0.21135 1.00571,0.29175c0.00389,0.00275 0.00745,0.00547 0.01068,0.00819c1.38284,1.16873 2.73676,1.65331 4.21807,2.97631c4.98172,4.4493 6.71877,10.74857 11.60739,15.12604c2.07792,1.86067 5.0677,2.42793 7.57584,3.33773c1.2203,0.44264 1.85291,1.90682 2.51834,2.62783c0.6617,0.71696 -1.39955,-11.33219 0.47956,-12.84893c2.92782,-2.36321 10.13745,5.22862 11.43086,6.29129c1.31831,1.08312 3.06,6.50971 4.01939,4.45741c3.8102,-8.15073 4.47263,4.69152 5.52084,2.6266c0.62567,-1.23255 -0.34517,-2.75414 -0.23282,-4.12771c0.0407,-0.4976 0.70811,-0.8411 0.67999,-1.33955c-0.0872,-1.54607 -0.38538,-3.11691 -1.01146,-4.53726c-0.31819,-0.72184 -1.57795,-6.07168 -4.90323,-11.59381c-2.3029,-3.82432 -6.47192,-7.38635 -8.39805,-10.97213c-2.39839,-4.46496 -2.43291,-7.939 -3.23827,-8.41496c-2.33003,-1.37701 -10.74865,-0.19759 -13.96066,-1.51461c-5.61509,-2.30235 -6.38741,-6.78263 -10.2629,-6.80349c-4.69986,-0.02532 -3.72998,3.54775 -8.75078,6.32958c-0.39108,0.21669 -0.73757,0.47759 -1.04834,0.77392zM261.40304,175.29125c-2.03463,-0.50102 -2.21886,1.66532 -3.69347,2.85191c-0.98396,0.79178 -2.48757,-0.78712 -3.58579,-0.01298c-0.95441,0.67276 -1.55325,3.65803 -1.85814,4.8101c-0.36388,1.37491 -3.80812,0.24455 -2.82306,2.18509c0.7859,1.54819 3.06546,3.79745 4.91915,4.0444c0.90433,0.12046 1.94703,0.42891 2.85291,0.21616c0.41831,-0.09824 0.94408,-0.71759 1.22544,-0.39726c1.01616,1.1569 2.52144,-0.25822 3.42217,1.42438c1.40019,2.61562 1.87772,0.17328 6.21758,-2.67649c1.55176,-1.01898 2.74206,4.62737 3.10781,2.82605c0.25128,-1.23755 -2.58916,-6.70326 -2.97955,-8.12414c-1.42176,-5.17466 -3.58757,-4.50194 -6.56031,-7.16385z" fill="url(#color-1)"/><path d="M382.80283,240.1318c0,0 1.31011,-0.63715 2.17473,-0.49521c0.37712,0.06191 0.94529,0.36791 1.55885,0.41397c0.74142,0.05566 1.54912,-0.13752 2.16602,0.10173c0.60186,0.23341 1.02213,1.11581 1.02213,1.11581" fill="none"/><path d="M437.31141,174.65281c0,0 0.42028,-0.8824 1.02214,-1.11581c0.6169,-0.23924 1.4246,-0.04606 2.16602,-0.10172c0.61356,-0.04605 1.18173,-0.35207 1.55885,-0.41397c0.86461,-0.14193 2.17473,0.49521 2.17473,0.49521" fill="none"/><path d="M348.98732,185.94474c0,0 1.31012,-0.63714 2.17473,-0.4952c0.37712,0.0619 0.94529,0.36792 1.55885,0.41397c0.74142,0.05566 1.54912,-0.13753 2.16602,0.10172c0.60186,0.23341 1.02213,1.11582 1.02213,1.11582" fill="none"/><path d="M278.83275,201.99491c0,0 0.42029,-0.88241 1.02214,-1.11582c0.6169,-0.23924 1.4246,-0.04606 2.16602,-0.10173c0.61356,-0.04605 1.18173,-0.35206 1.55884,-0.41397c0.86461,-0.14193 2.17473,0.49521 2.17473,0.49521" fill="none"/><path d="M259.14909,163.57395c0,0 1.31012,-0.63714 2.17473,-0.49521c0.37712,0.0619 0.94529,0.36792 1.55884,0.41397c0.74142,0.05566 1.54912,-0.13753 2.16602,0.10172c0.60186,0.23341 1.02213,1.11581 1.02213,1.11581" fill="none"/><path d="M211.70643,271.94806c0,0 1.31012,-0.63715 2.17473,-0.49521c0.37712,0.06191 0.94529,0.36791 1.55884,0.41397c0.74142,0.05566 1.54911,-0.13753 2.16602,0.10172c0.60186,0.23341 1.02213,1.11582 1.02213,1.11582" fill="none"/></g><path d="" fill="#000000" stroke="none" stroke-width="1" stroke-linecap="butt"/><path d="" fill="#000000" stroke="#000000" stroke-width="0.3" stroke-linecap="butt"/><path d="" fill="#000000" stroke="#000000" stroke-width="0.3" stroke-linecap="butt"/><path d="" fill="#000000" stroke="#000000" stroke-width="0.3" stroke-linecap="butt"/><path d="" fill="#000000" stroke="#000000" stroke-width="0.3" stroke-linecap="butt"/><path d="" fill="#000000" stroke="#000000" stroke-width="0.3" stroke-linecap="butt"/><path d="" fill="#000000" stroke="#000000" stroke-width="0.3" stroke-linecap="butt"/><path d="" fill="#000000" stroke="#000000" stroke-width="0.3" stroke-linecap="butt"/><path d="" fill="#000000" stroke="#000000" stroke-width="0.3" stroke-linecap="butt"/><path d="" fill="#000000" stroke="#000000" stroke-width="0.3" stroke-linecap="butt"/><path d="" fill="#000000" stroke="#000000" stroke-width="0.3" stroke-linecap="butt"/><path d="" fill="#000000" stroke="#000000" stroke-width="0.3" stroke-linecap="butt"/><path d="" fill="#000000" stroke="#000000" stroke-width="0.3" stroke-linecap="butt"/><path d="" fill="#000000" stroke="#000000" stroke-width="0.3" stroke-linecap="butt"/><path d="" fill="#000000" stroke="#000000" stroke-width="0.3" stroke-linecap="butt"/><path d="" fill="#000000" stroke="#000000" stroke-width="0.3" stroke-linecap="butt"/><path d="" fill="#000000" stroke="#000000" stroke-width="0.3" stroke-linecap="butt"/><path d="" fill="#000000" stroke="#000000" stroke-width="0.3" stroke-linecap="butt"/><path d="" fill="#000000" stroke="#000000" stroke-width="0.3" stroke-linecap="butt"/><path d="" fill="#000000" stroke="#000000" stroke-width="0.3" stroke-linecap="butt"/><path d="" fill="#000000" stroke="#000000" stroke-width="0.3" stroke-linecap="butt"/><path d="" fill="#000000" stroke="#000000" stroke-width="0.3" stroke-linecap="butt"/><path d="" fill="#000000" stroke="#000000" stroke-width="0.3" stroke-linecap="butt"/><path d="" fill="#000000" stroke="#000000" stroke-width="0.3" stroke-linecap="butt"/><path d="M250.39482,229.97298c0,0 -11.6134,-12.95113 -17.85316,-19.26833c-5.9377,-6.01138 -21.4088,-16.27507 -21.4088,-16.27507l5.36915,-0.16531c0,0 11.5786,9.86533 17.28361,15.54153c5.70446,5.67565 17.78371,17.19147 17.78371,17.19147z" fill="#000000" stroke="none" stroke-width="0" stroke-linecap="butt"/><path d="M390.58084,260.43291c1.06602,-0.73724 2.19401,-1.56709 3.29598,-2.46371c7.69353,-6.25989 38.03898,-27.50376 38.03898,-27.50376l-11.23632,-30.0767l3.6932,-0.74569l9.71271,31.58158c0,0 -34.55383,24.67908 -41.23519,31.05369z" fill="#000000" stroke="none" stroke-width="0" stroke-linecap="butt"/><g fill="#000000" stroke="#000000" stroke-width="0.5" stroke-linecap="butt"><path d="M304.69303,187.05993l-27.03883,-114.77725l2.05078,-0.19711l27.03884,114.77726z"/><path d="M369.39461,66.41533c-7.63543,4.92324 -134.67816,86.83903 -134.67816,86.83903l-0.96288,-1.60116c0,0 127.7989,-82.82615 135.15007,-87.59044z"/><path d="M367.92021,81.26077l-0.62489,-29.14941l1.17617,-0.04105l0.62489,29.14941z"/><path d="M365.41709,81.37008l-0.62488,-29.14941l1.17618,-0.04105l0.62489,29.14941z"/><path d="M359.9083,92.46751l-0.3184,-3.21592c0,0 1.04548,-0.07691 1.12055,-0.9623c0.20154,-2.37735 -0.29057,-7.63165 0.82622,-10.56857c1.73929,-4.57394 10.52969,-3.7528 12.56543,0.65494c0.91066,1.97174 -0.04193,6.17258 0.38696,8.76169c0.36179,2.18399 1.88866,2.21943 1.88866,2.21943l-1.19764,2.02482c0,0 -1.45381,-1.64173 -1.50365,-4.60019c-0.04123,-2.44739 0.01445,-5.82832 -1.38563,-7.75145c-1.22096,-1.67708 -2.42801,-3.02457 -4.85359,-2.85029c-1.90446,0.13683 -3.15186,0.79819 -4.21509,2.31793c-1.98018,2.83041 -1.28027,8.40504 -1.6011,11.54296c-0.20533,2.0083 -1.71275,2.42698 -1.71275,2.42698z"/><path d="M363.16042,95.26194c-0.05186,-4.13175 -0.13688,-11.50602 -0.16027,-13.37111c-0.02641,-2.10493 2.88784,-2.37524 5.25429,-2.36223c1.89238,0.01039 3.88545,0.47278 3.90658,2.15598c0.02483,1.97798 0.14213,11.3276 0.18832,15.00891c0.00978,0.77895 0.06898,1.48672 -0.7409,1.79828c-1.07456,0.41338 -3.02662,1.10164 -4.09852,1.09575c-1.04656,-0.00575 -3.26752,0.06765 -4.11726,-1.24068c-0.27248,-0.41952 -0.23225,-3.08491 -0.23225,-3.08491z"/></g><path d="M283.12781,239.98647c0,0 6.47421,-14.98028 8.73321,-23.24833c2.70681,-9.90708 6.40853,-30.98085 6.40853,-30.98085l8.71156,-2.72266l5.65275,-1.10161l10.13358,0.88397l8.35177,3.82423l5.21726,3.64493c0,0 -3.1078,19.0109 -3.53208,27.83381c-0.42827,8.90555 0.97431,25.35389 0.97431,25.35389z" fill="url(#color-2)" stroke="none" stroke-width="0" stroke-linecap="butt"/><path d="M289.42948,224.17424c0.97038,-2.67839 1.84369,-5.28452 2.43154,-7.4361c2.70681,-9.90708 6.40853,-30.98085 6.40853,-30.98085l8.71156,-2.72266l5.65275,-1.10161l10.13358,0.88397l8.35177,3.82423l5.21726,3.64493c0,0 -3.1078,19.0109 -3.53208,27.83381c-0.02153,0.44787 0.05033,3.18902 0.14063,6.31025" fill="none" stroke="#000000" stroke-width="1.5" stroke-linecap="butt"/><path d="M260.5957,296.88413l-5.1134,-35.62123c0,0 7.4905,-2.7177 11.09578,-4.44641c6.49199,-3.11286 24.75615,-11.8373 24.75615,-11.8373l13.10636,37.36544c0,0 -22.71689,10.90458 -30.58501,13.12389c-6.15318,1.73559 -13.25987,1.41562 -13.25987,1.41562z" fill="url(#color-3)" stroke="none" stroke-width="0" stroke-linecap="butt"/><path d="M249.81907,246.59551l21.50886,-34.04932c0,0 3.92088,1.95726 8.61402,4.9085c5.37711,3.38134 11.56352,7.67991 15.08322,9.70746c7.21939,4.15878 17.65581,9.10274 17.65581,9.10274l-14.81419,34.69406c0,0 -23.11865,-8.53974 -36.48022,-16.64603c-6.27168,-3.80494 -11.56751,-7.71741 -11.56751,-7.71741z" fill="url(#color-4)" stroke="none" stroke-width="0" stroke-linecap="butt"/><path d="M295.22351,284.92474c0,0 -1.52218,-5.94496 -1.57783,-12.8956c-0.06973,-8.7096 -0.10639,-16.92605 1.49793,-23.98241c1.37485,-6.04706 3.7944,-11.24219 10.23893,-15.16558c4.56384,-2.77845 10.40178,-2.73776 14.48423,-3.52934c0.78797,-0.15279 9.1753,2.98857 16.80202,6.11191c7.36483,3.0161 13.84745,6.58221 13.84745,6.58221l-25.62814,52.20276c0,0 -10.31842,-2.99006 -15.18474,-4.5196c-5.01727,-1.57699 -14.47986,-4.80433 -14.47986,-4.80433z" fill="url(#color-5)" stroke="none" stroke-width="0" stroke-linecap="butt"/><path d="M273.723,236.98653c-4.25256,9.89268 -15.36685,15.86771 -21.40937,12.42792c-6.04253,-3.43979 -5.9835,-13.25597 -1.73093,-23.14865c4.25256,-9.89268 14.36013,-16.36366 20.40266,-12.92387c6.04253,3.43979 6.99022,13.75193 2.73765,23.6446z" fill="#e2e05f" stroke="#000000" stroke-width="1.5" stroke-linecap="butt"/><path d="M253.55382,262.0447l19.79876,-8.2659" fill="none" stroke="#000000" stroke-width="1.5" stroke-linecap="round"/><path d="M266.80892,296.5962c5.76537,0.69061 27.08376,-8.77803 31.34903,-10.6429c0.4968,-0.21721 25.79415,7.87972 25.79415,7.87972" fill="none" stroke="#000000" stroke-width="1.5" stroke-linecap="round"/><path d="M278.21839,279.32045c0,10.18025 -6.7858,17.93702 -16.19137,17.93702c-9.40557,0 -15.85579,-7.0955 -15.85579,-17.27575c0,-10.18025 2.92672,-18.76361 12.33228,-18.76361c9.40557,0 19.71488,7.92209 19.71488,18.10234z" fill="#e2e05f" stroke="#000000" stroke-width="1.5" stroke-linecap="butt"/><path d="M255.01345,250.90596l10.17903,5.95145" fill="none" stroke="#000000" stroke-width="1.5" stroke-linecap="round"/><path d="M303.89516,231.94947c0,0 -10.07339,-5.08603 -15.03523,-7.97641c-5.90858,-3.44186 -19.08129,-11.21152 -19.08129,-11.21152" fill="none" stroke="#000000" stroke-width="1.5" stroke-linecap="round"/><path d="M366.76345,267.25239c-0.52024,14.83552 -15.32487,28.46779 -30.50352,28.46779c-15.17865,0 -27.88606,-12.02907 -27.88606,-25.88882c0,-6.41042 2.70238,-14.46828 8.19136,-19.99876c6.37856,-6.4268 16.16738,-10.35365 24.32559,-10.35365c15.17865,0 26.47666,10.54851 25.87263,27.77345z" fill="#fae06b" stroke="#000000" stroke-width="1.5" stroke-linecap="butt"/><path d="M345.21762,239.20826c0,0 -7.61438,-2.96148 -9.43258,-3.79003" fill="none" stroke="#000000" stroke-width="1.5" stroke-linecap="round"/><g><path d="M213.25612,196.24937c0,0 -11.6785,-1.2715 -17.66255,-2.01136c-6.93944,-0.85798 -17.04159,-3.32621 -17.04159,-3.32621c0,0 1.13677,-0.46441 4.76855,-0.85095c2.76225,-0.29399 8.58561,-0.60188 11.9719,-0.92471c2.07238,-0.19757 2.43847,-1.04558 4.15917,-1.94559c2.16895,-1.13447 6.72623,-2.41933 12.33594,-2.94572c2.26156,-0.21221 4.10584,-0.13387 6.29938,0.08169c2.38921,0.23479 4.60389,0.51014 6.71194,1.21597c4.52948,1.51658 6.10272,3.89534 7.29727,5.29333c0.98577,1.15366 2.03814,1.57303 3.83921,2.13362c2.94295,0.91601 7.35815,2.29679 9.73754,3.07267c3.1284,1.0201 2.67697,1.473 2.67697,1.473c0,0 -9.43051,0.55434 -16.51373,0.09812c-6.10802,-0.39342 -17.62451,-1.25008 -17.62451,-1.25008z" fill="#eced68" stroke="none" stroke-width="0" stroke-linecap="round"/><path d="M213.25612,196.24937c0,0 -11.49388,-1.22586 -17.47793,-1.96573c-6.93944,-0.85798 -16.23153,-3.52177 -16.23153,-3.52177c0,0 0.88062,-0.13193 4.51239,-0.51847c1.61532,-0.17192 4.02489,-0.41102 6.42459,-0.64449c1.70387,-0.16578 4.80879,-0.46277 4.80879,-0.46277c0,0 -1.72696,2.29883 4.58979,3.76695c3.26515,0.75888 12.59512,2.0084 20.34687,3.10437c7.04505,0.99606 12.88471,1.44279 12.88471,1.44279l-18.90221,-1.08711z" fill="#8f8621" stroke="none" stroke-width="0" stroke-linecap="round"/><path d="M225.75351,193.05739c-0.08545,0.20869 -4.94854,0.45592 -10.03457,0.12068c-0.75481,-0.04975 -1.51453,-0.11234 -2.26426,-0.18978c-3.19444,-0.32996 -9.50475,-1.28806 -12.92845,-2.07209c-3.7269,-0.85345 -4.43898,-1.52282 -4.43898,-1.52282l5.43912,-2.80726c0,0 -1.48971,2.61267 3.0589,4.03361c5.71908,1.78657 21.27603,2.1744 21.16824,2.43767z" fill="#8f8621" stroke="none" stroke-width="0" stroke-linecap="butt"/><path d="M231.78437,192.30094c0,0 -0.7212,1.56314 -14.84152,0.79891c-11.26938,-0.60992 -19.17738,-2.94829 -19.17738,-2.94829" fill="none" stroke="#524d14" stroke-width="0.75" stroke-linecap="round"/><path d="M213.25612,196.24937c0,0 -11.80687,-1.06459 -17.37608,-1.94636c-6.0531,-0.95839 -17.61194,-3.59331 -17.61194,-3.59331c0,0 5.31748,-0.82472 8.36179,-1.08574c2.83529,-0.2431 9.32166,-0.43043 9.32166,-0.43043c0,0 8.36069,-6.35683 22.13536,-4.867c8.17085,0.88373 11.63705,2.68191 14.80497,6.38935c0.98577,1.15366 3.04345,2.25356 3.04345,2.25356c0,0 6.62551,1.89115 8.98028,2.70917c2.08724,0.72509 4.44276,1.95386 4.44276,1.95386c0,0 -12.97576,0.07094 -19.24113,-0.15533c-5.28124,-0.19073 -15.90566,-1.114 -15.90566,-1.114z" fill="none" stroke="#000000" stroke-width="1.5" stroke-linecap="round"/></g><path d="M217.79073,184.88384c0,0 0.40746,-1.83336 0.48268,-2.84081c0.09905,-1.32651 0.06008,-4.42777 0.06008,-4.42777l2.15957,0.27287c0,0 -0.56999,2.67038 -0.90869,3.91398c-0.29656,1.0889 -0.59336,3.12482 -0.59336,3.12482z" fill="#000000" stroke="#000000" stroke-width="0.5" stroke-linecap="butt"/><path d="M241.92031,273.58105c-5.28175,-6.08187 -17.55422,-20.00812 -17.55422,-20.00812l1.35245,-15.17975l2.07064,0.38264l-1.45392,14.26936c0,0 12.27191,15.4756 16.80796,19.07929c2.20267,1.74993 -1.22289,1.45658 -1.22289,1.45658z" fill="#000000" stroke="none" stroke-width="0" stroke-linecap="butt"/><g><g><path d="M225.10369,249.44006c0,0 -9.05502,-1.25402 -13.70167,-2.01542c-5.38853,-0.88295 -13.32801,-3.80807 -13.32801,-3.80807c0,0 0.83553,-0.669 3.59047,-1.33071c2.09535,-0.50327 6.53707,-1.14478 9.1087,-1.71121c1.57383,-0.34666 1.78842,-1.50149 3.03778,-2.77915c1.57481,-1.61049 4.96942,-3.51656 9.23026,-4.4436c1.71776,-0.37374 3.13819,-0.34038 4.83714,-0.13613c1.85052,0.22248 3.57035,0.50632 5.242,1.3733c3.59179,1.86283 4.98377,5.0007 6.00886,6.83428c0.84592,1.51312 1.68567,2.03605 3.11056,2.71969c2.32828,1.11706 5.82184,2.80172 7.70702,3.75231c2.47862,1.24981 2.16775,1.87657 2.16775,1.87657c0,0 -7.18868,1.11384 -12.65613,0.77686c-4.71472,-0.29059 -13.61312,-0.99302 -13.61312,-0.99302z" fill="#eced68" stroke="none" stroke-width="0" stroke-linecap="round"/><path d="M225.10369,249.44006c0,0 -8.90986,-1.19986 -13.55652,-1.96125c-5.38853,-0.88295 -12.72206,-4.10273 -12.72206,-4.10273c0,0 0.66502,-0.21183 3.41995,-0.87353c1.22533,-0.2943 3.05449,-0.70998 4.87652,-1.1177c1.29371,-0.2895 3.6516,-0.81018 3.6516,-0.81018c0,0 -1.14505,3.15925 3.81354,4.88713c2.56311,0.89314 9.8154,2.20931 15.84542,3.38061c5.48028,1.06452 9.99336,1.43731 9.99336,1.43731l-14.58022,-0.72393z" fill="#8f8621" stroke="none" stroke-width="0" stroke-linecap="round"/><path d="M234.43855,244.65896c-0.04925,0.28401 -3.7593,0.80644 -7.68575,0.55417c-0.58271,-0.03743 -1.17019,-0.09194 -1.75117,-0.16682c-2.47545,-0.31902 -7.38932,-1.36119 -10.07599,-2.28196c-2.92459,-1.00231 -3.52286,-1.87477 -3.52286,-1.87477l3.95212,-3.98804c0,0 -0.93863,3.57209 2.66036,5.30554c4.5251,2.1795 16.48542,2.09358 16.4233,2.45186z" fill="#8f8621" stroke="none" stroke-width="0" stroke-linecap="butt"/><path d="M239.00439,243.40604c0,0 -0.43116,2.1305 -11.31913,1.65409c-8.68967,-0.38022 -14.93641,-3.21636 -14.93641,-3.21636" fill="none" stroke="#524d14" stroke-width="0.75" stroke-linecap="round"/><path d="M225.10369,249.44006c0,0 -9.13731,-0.97074 -13.47691,-1.93919c-4.71665,-1.0526 -13.78622,-4.14502 -13.78622,-4.14502c0,0 4.01347,-1.31688 6.32769,-1.78682c2.15532,-0.43768 7.11488,-0.94294 7.11488,-0.94294c0,0 5.91573,-8.87613 16.59524,-7.4103c6.33487,0.86949 9.13322,3.15258 11.85174,8.01519c0.84592,1.51312 2.50969,2.91208 2.50969,2.91208c0,0 5.22835,2.28475 7.09795,3.293c1.65718,0.89369 3.55939,2.45434 3.55939,2.45434c0,0 -9.94512,0.60216 -14.76746,0.54251c-4.06487,-0.05028 -12.28436,-0.87713 -12.28436,-0.87713z" fill="none" stroke="#000000" stroke-width="1.5" stroke-linecap="round"/></g><path d="M227.1037,232.9669c0,0 0.40509,-1.07673 0.42115,-1.90471c0.02115,-1.09022 -0.19646,-3.65657 -0.19646,-3.65657l2.14751,0.36568c0,0 -0.4084,2.17064 -0.67091,3.17677c-0.22984,0.88096 -0.36244,2.41496 -0.36244,2.41496z" fill="#000000" stroke="#000000" stroke-width="1.5" stroke-linecap="butt"/></g><g fill="#81782d" stroke="none" stroke-width="0.5" stroke-linecap="butt"><path d="M393.67293,257.64804c0.17281,-0.1516 0.34089,0.01401 0.34089,0.01401c0.22158,0.25104 0.31145,0.66527 0.19837,0.97876c-0.0069,0.01913 -0.01726,0.03902 -0.03044,0.05944c-0.0228,0.20416 -0.12952,0.39927 -0.34095,0.57163c0.41635,0.12138 0.61054,0.84829 0.32731,1.13883c-0.25184,0.25834 -1.44164,-0.07595 -1.09055,0.01705c0.77036,0.20406 0.68217,0.81618 0.35114,1.23799c0.25864,0.07718 0.53885,0.28384 0.80445,-0.03605c0.50397,-0.60698 1.83174,-2.32434 4.0118,-4.25541c2.92488,-2.59081 7.52769,-7.29502 7.52769,-7.29502c0,0 -6.41832,10.0167 -6.65701,11.13959c-0.46331,2.17963 -1.86819,2.96956 -3.98463,2.82824c-3.60946,-0.04252 -5.82325,-1.17112 -5.86134,-5.07489c-0.00002,-3.20354 3.14311,-2.5405 4.40325,-1.32415z"/><path d="M431.383,219.30954c-0.32458,0.0091 -0.35836,0.25232 -0.29109,0.52233c0.01038,-0.0545 0.04362,-0.11189 0.12241,-0.15772c0.21672,-0.12609 0.34469,0.08745 0.34469,0.08745c0.01249,0.02193 0.02467,0.04353 0.03653,0.06479c0.0833,-0.17222 0.01584,-0.52324 -0.21254,-0.51684zM428.17273,215.1481c-1.42714,-2.68559 -1.96956,-5.18373 -1.96956,-5.18373c0,0 6.01504,9.73134 5.79377,10.16517l-0.14314,0.21829c0.4414,1.06818 -2.06274,-2.15436 -3.68106,-5.19974zM431.30214,220.30545c0.00059,-0.0028 0.00125,-0.0056 0.00194,-0.00839c-0.03133,-0.0513 -0.06843,-0.11085 -0.11195,-0.17934c0.03354,0.07684 0.07001,0.14976 0.10467,0.21357c0.00141,-0.00898 0.00324,-0.01762 0.00534,-0.02584z"/><path d="M415.25793,240.05905c-0.03418,-0.31814 -0.28291,-0.33262 -0.55096,-0.24577c0.05594,0.00601 0.11658,0.03423 0.16903,0.10811c0.14426,0.2032 -0.06196,0.34533 -0.06196,0.34533c-0.02124,0.01397 -0.04215,0.02759 -0.06275,0.04089c0.18068,0.06857 0.53069,-0.02471 0.50664,-0.24856zM419.22195,236.58516c2.60779,-1.60864 5.09397,-2.33372 5.09397,-2.33372c0,0 -9.38447,6.65782 -9.84052,6.47382l-0.23191,-0.12382c-1.04695,0.51581 2.02132,-2.19216 4.97846,-4.01629zM414.24393,240.05625c0.00288,0.00038 0.00577,0.00079 0.00865,0.00126c0.0495,-0.03473 0.10689,-0.07574 0.17285,-0.12377c-0.07518,0.03886 -0.14616,0.0803 -0.20806,0.11926c0.0092,0.00069 0.01809,0.00183 0.02657,0.00325z"/></g><path d="M247.92832,221.5421c-0.27947,0.16287 -0.18944,0.39179 0.00214,0.59589c-0.01771,-0.05263 -0.01685,-0.1187 0.02954,-0.19641c0.1276,-0.21375 0.34453,-0.08801 0.34453,-0.08801c0.02171,0.01322 0.043,0.02631 0.06383,0.03924c-0.01181,-0.19041 -0.2434,-0.46531 -0.44004,-0.35071zM243.07387,219.4338c-2.5689,-1.66827 -4.27166,-3.59483 -4.27166,-3.59483c0,0 10.04664,5.64232 10.06635,6.12747l-0.0179,0.25929c0.91133,0.7238 -2.86377,-0.90016 -5.7768,-2.79193zM248.34722,222.45195c-0.00086,-0.00274 -0.00166,-0.0055 -0.00243,-0.00827c-0.05263,-0.02993 -0.11435,-0.06431 -0.18611,-0.10346c0.06712,0.05121 0.13487,0.09759 0.19657,0.13687c-0.00317,-0.00853 -0.00583,-0.01696 -0.00803,-0.02514z" fill="#888139" stroke="none" stroke-width="0.5" stroke-linecap="butt"/><path d="M247.92832,221.5421c-0.27947,0.16287 -0.18944,0.39179 0.00214,0.59589c-0.01771,-0.05263 -0.01685,-0.1187 0.02954,-0.19641c0.1276,-0.21375 0.34453,-0.08801 0.34453,-0.08801c0.02171,0.01322 0.043,0.02631 0.06383,0.03924c-0.01181,-0.19041 -0.2434,-0.46531 -0.44004,-0.35071zM243.07387,219.4338c-2.5689,-1.66827 -4.27166,-3.59483 -4.27166,-3.59483c0,0 10.04664,5.64232 10.06635,6.12747l-0.0179,0.25929c0.91133,0.7238 -2.86377,-0.90016 -5.7768,-2.79193zM248.34722,222.45195c-0.00086,-0.00274 -0.00166,-0.0055 -0.00243,-0.00827c-0.05263,-0.02993 -0.11435,-0.06431 -0.18611,-0.10346c0.06712,0.05121 0.13487,0.09759 0.19657,0.13687c-0.00317,-0.00853 -0.00583,-0.01696 -0.00803,-0.02514z" fill="#888139" stroke="none" stroke-width="0.5" stroke-linecap="butt"/><path d="M247.92832,221.5421c-0.27947,0.16287 -0.18944,0.39179 0.00214,0.59589c-0.01771,-0.05263 -0.01685,-0.1187 0.02954,-0.19641c0.1276,-0.21375 0.34453,-0.08801 0.34453,-0.08801c0.02171,0.01322 0.043,0.02631 0.06383,0.03924c-0.01181,-0.19041 -0.2434,-0.46531 -0.44004,-0.35071zM243.07387,219.4338c-2.5689,-1.66827 -4.27166,-3.59483 -4.27166,-3.59483c0,0 10.04664,5.64232 10.06635,6.12747l-0.0179,0.25929c0.91133,0.7238 -2.86377,-0.90016 -5.7768,-2.79193zM248.34722,222.45195c-0.00086,-0.00274 -0.00166,-0.0055 -0.00243,-0.00827c-0.05263,-0.02993 -0.11435,-0.06431 -0.18611,-0.10346c0.06712,0.05121 0.13487,0.09759 0.19657,0.13687c-0.00317,-0.00853 -0.00583,-0.01696 -0.00803,-0.02514z" fill="#888139" stroke="none" stroke-width="0.5" stroke-linecap="butt"/><path d="M247.27274,228.50239c-0.3881,-0.1905 -0.51014,-0.09251 -0.52136,0.07918c0.03068,-0.02026 0.08946,-0.02822 0.19836,-0.00319c0.29958,0.06883 0.37941,0.24951 0.37941,0.24951c0.00743,0.01817 0.01461,0.03599 0.02151,0.05344c0.15685,-0.03372 0.19513,-0.24492 -0.07793,-0.37896zM244.86704,224.55098c-0.78784,-2.16295 -0.58934,-3.70342 -0.58934,-3.70342c0,0 3.85569,8.34419 3.44697,8.42226l-0.24337,0.02019c0.16361,0.78449 -1.72088,-2.28632 -2.61425,-4.73901zM246.84117,228.9381c0.00165,-0.001 0.00337,-0.00196 0.00513,-0.00291c-0.01988,-0.04376 -0.04382,-0.09499 -0.07236,-0.15443c0.01389,0.0575 0.03258,0.11485 0.0522,0.16671c0.00471,-0.00351 0.00978,-0.00663 0.01503,-0.00936z" fill="#888139" stroke="none" stroke-width="0.5" stroke-linecap="butt"/><path d="M391.66821,257.71209c0.37686,-0.09852 0.77274,-0.15101 1.18105,-0.15101c0.56746,0 1.59991,0.80518 1.55585,1.87425c-0.03192,0.7745 -1.28657,1.80531 -0.52898,2.20213c1.14104,0.59764 2.85242,-0.44307 4.50069,-0.17428c0.27,0.04403 1.6737,1.33644 2.14652,1.59864c0.98426,0.54579 3.62734,-0.48052 5.61734,0.46934c1.99,0.94986 3.52501,3.79274 3.91323,4.07981" fill="none" stroke="#000000" stroke-width="1.5" stroke-linecap="butt"/><path d="M227.51318,275.11329c0.21788,-0.15843 0.4694,-0.30479 0.75288,-0.43446c0.39397,-0.18018 1.46841,-0.19114 1.91266,0.24359c0.32185,0.31494 -0.09137,1.11902 0.61087,1.03463c1.05765,-0.12711 1.78354,-1.0801 3.04726,-1.49769c0.20701,-0.0684 1.75559,-0.00549 2.20032,-0.05243c0.92576,-0.09773 2.30491,-1.34091 4.10839,-1.59897c1.80348,-0.25806 4.13191,0.37335 4.52895,0.36306" fill="none" stroke="#000000" stroke-width="1.5" stroke-linecap="butt"/><path d="M317.57519,162.80668c0,0 2.64046,-0.84753 4.38301,-0.65872c0.76004,0.08235 1.90516,0.48939 3.14173,0.55066c1.49428,0.07404 3.12211,-0.18293 4.36545,0.13531c1.21299,0.31048 2.06003,1.48423 2.06003,1.48423" fill="none" stroke="#000000" stroke-width="1.5" stroke-linecap="round"/><g stroke="none" stroke-linecap="butt"><path d="M350.13498,235.96618c0.24172,-1.25194 0.46223,-2.61196 0.61686,-4.0016c1.07948,-9.70183 1.44959,-23.70741 1.12758,-32.71719c-0.51598,-14.43725 -7.4618,-45.74309 -7.4618,-45.74309l5.54571,-0.88498c0,0 -0.36683,6.23289 0.40861,14.62611c0.93521,10.12269 3.0544,23.30373 3.21866,31.38053c0.20942,10.29843 -0.25025,28.00721 -0.52346,37.09855z" fill="#000000" stroke-width="0"/><path d="M348.43749,231.79166c0.05451,-0.22001 0.28834,-0.17885 0.28834,-0.17885c0.32716,0.08091 0.64029,0.36832 0.72839,0.68689c0.00538,0.01944 0.00835,0.04143 0.00931,0.06543c0.09916,0.17911 0.12413,0.39768 0.04985,0.65614c0.4124,-0.13346 0.99189,0.35052 0.92685,0.74538c-0.05784,0.35111 -1.22907,0.74275 -0.88672,0.62258c0.75119,-0.26369 1.03224,0.28437 1.00372,0.81288c0.25721,-0.08146 0.60693,-0.06943 0.64052,-0.47838c0.06376,-0.77595 0.16345,-2.91657 0.84039,-5.70706c0.90823,-3.74385 1.97528,-10.14652 1.97528,-10.14652c0,0 0.50874,11.74531 0.96105,12.79362c0.878,2.03485 0.17925,3.46271 -1.64234,4.52885c-2.992,1.97997 -5.46387,2.29586 -7.7499,-0.86419c-1.85031,-2.61065 1.1167,-3.82466 2.85523,-3.53677z" fill="#81782d" stroke-width="0.5"/><path d="M351.84956,207.7418c-0.27778,-0.16382 -0.43988,0.02149 -0.5318,0.28255c0.03868,-0.04003 0.09816,-0.07042 0.18957,-0.06709c0.25145,0.00915 0.2416,0.25508 0.2416,0.25508c-0.00156,0.02493 -0.00319,0.0494 -0.00491,0.07342c0.16468,-0.09986 0.30097,-0.42869 0.10552,-0.54396zM351.43939,202.57036c0.27705,-2.99696 1.19458,-5.37007 1.19458,-5.37007c0,0 -0.29478,11.30519 -0.71925,11.55069l-0.2403,0.10674c-0.21628,1.12534 -0.54918,-2.88892 -0.23503,-6.28736zM351.23408,208.53095c0.00204,-0.00203 0.00413,-0.00403 0.00625,-0.00598c0.00187,-0.0594 0.00342,-0.12872 0.00451,-0.20892c-0.01406,0.0819 -0.0235,0.16207 -0.02945,0.23366c0.00613,-0.00675 0.01241,-0.013 0.01869,-0.01877z" fill="#81782d" stroke-width="0.5"/></g><path d="M342.43975,231.236c0.31082,-0.07129 0.63733,-0.10929 0.97411,-0.10929c0.46802,0 1.31957,0.58267 1.28324,1.3563c-0.02634,0.56046 -1.06114,1.30641 -0.43629,1.59356c0.94112,0.43248 2.35263,-0.32062 3.71209,-0.12611c0.22269,0.03186 1.38043,0.9671 1.77042,1.15684c0.8118,0.39496 2.99177,-0.34773 4.63308,0.33963c1.64131,0.68736 2.90737,2.7446 3.22756,2.95234" fill="none" stroke="#000000" stroke-width="1.5" stroke-linecap="butt"/><g stroke-linecap="round"><path d="M337.84875,165.9446c0,0 -17.40518,0.66506 -25.76628,0.69023c-9.69599,0.0292 -28.79901,-0.52736 -28.79901,-0.52736c0,0 7.81487,-2.97329 12.41759,-4.56735c3.50074,-1.21241 9.97364,-3.34836 14.28644,-4.76367c2.6394,-0.86615 4.21755,-1.5496 5.99357,-3.65936c2.2387,-2.65937 6.77959,-7.02206 13.92894,-9.35079c2.88226,-0.93882 4.58693,-1.38416 7.6204,-1.49854c3.30408,-0.12456 5.19407,0.25101 8.39084,1.08331c6.86875,1.78834 11.50528,5.52679 13.88017,7.88418c1.95983,1.94538 3.59353,2.48749 6.30079,3.11839c4.42369,1.03089 11.06407,2.58982 14.66054,3.48993c4.72862,1.18346 12.78137,3.45854 12.78137,3.45854c0,0 -18.97663,2.23215 -28.63667,3.05465c-8.33007,0.70925 -25.72615,1.57555 -25.72615,1.57555z" fill="#faefbe" stroke="none" stroke-width="0"/><path d="M337.84875,165.9446c0,0 -17.40518,0.66506 -25.76628,0.69023c-9.69599,0.0292 -28.79901,-0.52736 -28.79901,-0.52736c0,0 7.81487,-2.97329 12.41759,-4.56735c3.50074,-1.21241 9.97364,-3.34836 14.28644,-4.76367c2.6394,-0.86615 4.21755,-1.5496 5.99357,-3.65936c2.2387,-2.65937 6.77959,-7.02206 13.92894,-9.35079c2.88226,-0.93882 4.58693,-1.38416 7.6204,-1.49854c3.30408,-0.12456 5.19407,0.25101 8.39084,1.08331c6.86875,1.78834 11.50528,5.52679 13.88017,7.88418c1.95983,1.94538 3.59353,2.48749 6.30079,3.11839c4.42369,1.03089 11.06407,2.58982 14.66054,3.48993c4.72862,1.18346 12.78137,3.45854 12.78137,3.45854c0,0 -18.97663,2.23215 -28.63667,3.05465c-8.33007,0.70925 -25.72615,1.57555 -25.72615,1.57555z" fill="#fae06b" stroke="#000000" stroke-width="1.5"/></g><path d="M335.65225,142.12977c0,0 -0.08015,-2.18217 -0.29172,-3.33883c-0.27858,-1.52299 -1.2347,-5.00634 -1.2347,-5.00634l2.51366,-0.3092c0,0 0.1432,3.17174 0.12734,4.66975c-0.01388,1.31164 0.32349,3.96988 0.32349,3.96988z" fill="#000000" stroke="#000000" stroke-width="1.5" stroke-linecap="butt"/><path d="M348.81509,146.22928c5.77913,2.146 8.78494,5.19628 8.65212,5.56947c-0.13282,0.3732 -3.21167,-2.2152 -8.9908,-4.36122c-5.77913,-2.146 -9.47854,-2.78011 -9.34574,-3.15331c0.13282,-0.3732 3.90526,-0.20095 9.6844,1.94503z" fill="#faefbe" stroke="none" stroke-width="0" stroke-linecap="butt"/><path d="M380.2665,159.27906c0,0 -8.43351,-0.27039 -13.05253,-1.83636c-4.61902,-1.56596 -7.96961,-2.99663 -7.84039,-3.36663c0.12921,-0.37 3.11557,0.60836 7.73459,2.17431c4.61902,1.56596 13.15833,3.02867 13.15833,3.02867z" fill="#faefbe" stroke="none" stroke-width="0" stroke-linecap="butt"/><g><g><path d="M421.02161,207.29988c0,0 -10.84661,3.85634 -16.48625,5.69379c-6.54004,2.13082 -17.19023,3.32103 -17.19023,3.32103c0,0 0.51091,-1.29764 3.15959,-3.72298c2.01452,-1.84467 6.55051,-5.24451 9.05495,-7.44698c1.53271,-1.34791 1.05019,-2.86097 1.64101,-5.13414c0.74472,-2.86535 3.32741,-7.16287 7.48406,-10.79833c1.67576,-1.46563 3.27524,-2.26663 5.29097,-3.02742c2.19556,-0.82866 4.28417,-1.5063 6.68332,-1.45554c5.15494,0.10908 8.66111,3.05093 10.94518,4.64461c1.88488,1.31515 3.14463,1.44558 5.15508,1.42239c3.28507,-0.03788 8.2196,-0.08448 10.90827,-0.0598c3.53504,0.03244 3.58087,0.96873 3.58087,0.96873c0,0 -7.29403,5.5932 -13.5809,8.426c-5.42132,2.44278 -15.74951,6.86842 -15.74951,6.86842z" fill="#eced68" stroke="none" stroke-width="0" stroke-linecap="round"/><path d="M421.02161,207.29988c0,0 -10.65148,3.83541 -16.29112,5.67287c-6.54004,2.13082 -16.70075,2.6086 -16.70075,2.6086c0,0 0.60684,-0.64799 3.25552,-3.07334c1.17806,-1.07873 2.95146,-2.66065 4.72189,-4.22882c1.25707,-1.11346 3.55251,-3.13446 3.55251,-3.13446c0,0 0.69987,4.46965 7.28962,3.60748c3.40627,-0.44566 12.28813,-3.16003 19.72116,-5.32459c6.75538,-1.96722 12.00392,-4.19197 12.00392,-4.19197l-16.65635,7.76398z" fill="#8f8621" stroke="none" stroke-width="0" stroke-linecap="round"/><path d="M428.41125,196.03456c0.12259,0.37004 -3.67456,3.19374 -8.19589,5.21579c-0.67099,0.30008 -1.35795,0.58252 -2.0504,0.83666c-2.95038,1.0828 -9.06229,2.74148 -12.6231,3.22716c-3.87615,0.52867 -5.08578,-0.16421 -5.08578,-0.16421l1.90242,-7.12641c0,0 1.18703,4.84295 6.2692,4.79246c6.38994,-0.06347 19.62892,-7.24822 19.78355,-6.78143z" fill="#8f8621" stroke="none" stroke-width="0" stroke-linecap="butt"/><path d="M432.70344,191.82743c0,0 0.851,2.81228 -11.54727,8.6872c-9.89501,4.68876 -18.60834,4.98349 -18.60834,4.98349" fill="none" stroke="#524d14" stroke-width="0.75" stroke-linecap="round"/><path d="M421.02161,207.29988c0,0 -10.7612,4.24508 -16.18886,5.65219c-5.89924,1.52937 -17.90986,3.18792 -17.90986,3.18792c0,0 3.63835,-3.95684 5.91694,-5.89111c2.12215,-1.80145 7.3187,-5.34438 7.3187,-5.34438c0,0 1.0329,-14.15567 13.81719,-18.71968c7.58338,-2.70728 12.11889,-1.62402 18.1762,2.60239c1.88488,1.31515 4.60738,2.00907 4.60738,2.00907c0,0 7.23724,-0.35355 9.94459,-0.25044c2.39974,0.09138 5.48826,0.83819 5.48826,0.83819c0,0 -10.67697,6.61114 -16.07373,9.39484c-4.54906,2.34644 -14.20039,6.22077 -14.20039,6.22077z" fill="none" stroke="#000000" stroke-width="1.5" stroke-linecap="round"/></g><path d="M412.95942,186.34482c0,0 -0.22205,-1.53213 -0.72114,-2.53537c-0.65715,-1.32098 -2.50132,-4.27224 -2.50132,-4.27224l2.61504,-0.83265c0,0 0.90134,2.847 1.23778,4.20997c0.29458,1.19341 1.10497,3.113 1.10497,3.113z" fill="#000000" stroke="#000000" stroke-width="1.5" stroke-linecap="butt"/></g><g><path d="M341.71899,165.00237c0,0 -17.39499,0.88689 -25.75506,1.01864c-9.69481,0.15279 -28.80352,-0.16018 -28.80352,-0.16018c0,0 7.77518,-3.07266 12.35658,-4.72526c2.0377,-0.73503 5.08754,-1.79882 8.12761,-2.84951c2.15855,-0.74602 6.09509,-2.09588 6.09509,-2.09588c0,0 -0.93213,4.76657 8.29766,5.92075c4.77092,0.5966 17.86198,0.57176 28.7727,0.65998c9.916,0.08016 17.94454,0.29886 17.94454,0.29886l-25.7033,1.90337z" fill="#8f8621" stroke="none" stroke-width="0" stroke-linecap="round"/><path d="M356.38699,155.8113c0.00983,0.41455 -6.28418,2.11861 -13.21665,2.78316c-1.02882,0.09863 -2.07172,0.17437 -3.11015,0.21958c-7.81155,0.34019 -18.03499,-0.79471 -21.5969,-0.71276c-2.92613,0.06732 -2.18198,-0.9237 -1.37449,-2.27092c1.73279,-2.89099 7.90373,-7.51763 7.90373,-7.51763c0,0 -4.93359,6.7869 1.92702,8.30263c8.62602,1.90576 29.45504,-1.32701 29.46745,-0.80406z" fill="#8f8621" stroke="none" stroke-width="0" stroke-linecap="butt"/><path d="M355.8741,156.64813c0,0 -2.95952,1.02501 -8.7676,1.89561c-7.70445,1.15486 -12.1766,1.08964 -19.94679,0.50139" fill="none" stroke="#524d14" stroke-width="0.75" stroke-linecap="round"/></g><g stroke-linecap="butt"><path d="M353.34452,152.91292c0.24356,-2.66995 2.70982,-4.73114 5.66374,-4.59126c2.95391,0.13989 5.04587,2.4146 4.91525,5.09224c-0.13061,2.67763 -2.40066,4.86239 -5.63196,4.74823c-3.07355,-0.10858 -5.2014,-2.46084 -4.94704,-5.2492z" fill="#ffffff" stroke="#000000" stroke-width="1.4"/><path d="M357.64551,154.36265c0.07524,-1.54255 1.40539,-2.73292 2.97097,-2.65878c1.56558,0.07414 2.77373,1.38472 2.69848,2.92727c-0.07524,1.54255 -1.40539,2.73292 -2.97095,2.65878c-1.56558,-0.07414 -2.77373,-1.38472 -2.69848,-2.92727z" fill="#000000" stroke="none" stroke-width="1.5"/></g><g stroke-linecap="butt"><path d="M311.55496,155.00004c0.16999,-2.67547 2.92615,-4.76346 5.90864,-4.57951c2.9825,0.18397 4.90097,2.56262 4.73098,5.2381c-0.16999,2.67547 -2.5253,4.70472 -5.5078,4.52076c-2.9825,-0.18397 -5.30182,-2.50387 -5.13182,-5.17936z" fill="#ffffff" stroke="#000000" stroke-width="1.4"/><path d="M312.49231,153.51359c0.09586,-1.50863 1.41482,-2.65504 2.94597,-2.5606c1.53116,0.09445 2.69469,1.39401 2.59884,2.90263c-0.09586,1.50863 -1.41482,2.65504 -2.94597,2.5606c-1.53116,-0.09445 -2.69469,-1.39401 -2.59884,-2.90263z" fill="#000000" stroke="none" stroke-width="1.5"/></g></g></g></svg>