<svg version="1.1" xmlns="http://www.w3.org/2000/svg" xmlns:xlink="http://www.w3.org/1999/xlink" width="117.66495" height="108.62688" viewBox="0,0,117.66495,108.62688"><g transform="translate(-184.37727,-120.82982)"><g data-paper-data="{&quot;isPaintingLayer&quot;:true}" fill-rule="nonzero" stroke-linejoin="miter" stroke-miterlimit="10" stroke-dasharray="" stroke-dashoffset="0" style="mix-blend-mode: normal"><g stroke-linecap="butt"><path d="M288.37502,207.45833c5.61856,4.91681 -4.86394,15.26507 -13.16667,16.91667c-13.24449,2.63463 -21.5,-5.58333 -21.5,-5.58333l6,-4.41667c0,0 5.91723,3.95885 11.501,1.66911c6.88667,-2.82402 10.29427,-14.59894 17.16566,-8.58578z" fill="#ecec68" stroke="#000000" stroke-width="2"/><path d="M276.63041,211.15282l4.33946,-4.67009l8.14976,7.57279l-4.33946,4.67008z" fill="#000000" stroke="none" stroke-width="0"/><path d="M271.19665,216.27579l4.50931,-3.08252l4.09743,9.23928l-5.50931,2.08252z" fill="#000000" stroke="none" stroke-width="0"/><path d="M263.35949,216.07027l5.60739,0.59853l-1.57637,8.46927l-6.35739,-1.72354z" fill="#000000" stroke="none" stroke-width="0"/></g><g data-paper-data="{&quot;index&quot;:null}" stroke-linecap="butt"><path d="M263.48255,210.65005c3.79155,2.92137 4.51895,6.84775 2.72119,9.18102c-1.79776,2.33327 -6.99547,1.96764 -10.78703,-0.95373c-3.79155,-2.92137 -4.74117,-7.2922 -2.94341,-9.62546c1.79776,-2.33327 7.21769,-1.52319 11.00925,1.39818z" fill="#ecec68" stroke="#000000" stroke-width="2"/><path d="M259.55188,220.79262l6.11741,-7.29303c0,0 3.15807,2.96033 0.90032,6.34629c-1.93947,2.90865 -7.01773,0.94673 -7.01773,0.94673z" fill="#000000" stroke="none" stroke-width="0"/><path d="M253.44077,216.90373l7.33963,-8.29303l2.78921,2.12408l-7.0063,8.62636z" fill="#000000" stroke="none" stroke-width="0"/></g><g stroke-linecap="butt"><path d="M230.1708,208.02965c1.79776,2.33327 0.84814,6.7041 -2.94341,9.62546c-3.79155,2.92137 -8.98926,3.287 -10.78702,0.95373c-1.79776,-2.33327 -1.07036,-6.25965 2.72119,-9.18102c3.79155,-2.92137 9.21148,-3.73145 11.00924,-1.39818z" fill="#ecec68" stroke="#000000" stroke-width="2"/><path d="M216.07449,218.62366c-2.25775,-3.38597 0.90032,-6.34629 0.90032,-6.34629l6.11741,7.29303c0,0 -5.07826,1.96191 -7.01773,-0.94674z" fill="#000000" stroke="none" stroke-width="0"/><path d="M226.08079,218.13891l-7.0063,-8.62636l2.78921,-2.12407l7.33963,8.29303z" fill="#000000" stroke="none" stroke-width="0"/></g><path d="M240.91496,226.18342c0,0.7405 -3.6377,1.8081 -9.04974,1.77241c-5.91985,-0.03904 -8.28349,-1.2374 -8.59956,-1.91835c-1.38426,-2.98226 0.39895,-5.24797 8.5651,-5.10799c4.02776,0.06904 7.27771,0.47006 8.5305,1.30635c1.39536,0.93146 0.5537,2.37617 0.5537,3.94758z" fill="#c5c556" stroke="#9b9b44" stroke-width="3" stroke-linecap="butt"/><path d="M250.0935,220.92948c8.16615,-0.13998 9.94936,2.12573 8.5651,5.10799c-0.31292,0.67415 -2.25852,2.13538 -8.35773,1.80566c-6.6718,-0.36067 -9.29157,-0.91172 -9.29157,-1.65972c0,-1.57638 -0.72955,-3.24678 0.67809,-4.17864c1.25539,-0.83106 4.39253,-1.0065 8.40611,-1.0753z" data-paper-data="{&quot;index&quot;:null}" fill="#c5c556" stroke="#9b9b44" stroke-width="3" stroke-linecap="butt"/><path d="M241.68735,219.36998c-6.67004,0.08177 -14.65905,0.16354 -14.8262,-0.84771c-0.62812,-3.80007 5.58333,-17.32891 5.58333,-17.32891l17.34171,-0.44122c0,0 5.49496,15.18096 5.74163,17.06643c0.24667,1.88547 -6.60945,1.46275 -13.84047,1.55141z" fill="#000000" stroke="#6e6e30" stroke-width="3" stroke-linecap="butt"/><g stroke="none" stroke-width="0" stroke-linecap="butt"><path d="M240.46043,208.686c-46.12107,-5.12918 -54.18491,-35.00878 -54.18491,-35.00878c0,0 7.01523,-0.86711 12.73964,-7.57197c12.66251,-14.83129 21.56451,-42.42177 48.91444,-39.59412c28.56586,2.95336 31.13539,29.60349 40.74919,47.79951c3.87186,7.28069 11.34698,12.46514 11.34698,12.46514c0,0 -12.61644,27.13145 -59.56536,21.9102z" fill="#ecec68"/><path d="M299.16745,185.42453c0,0 -4.26583,11.10609 -16.41138,17.1814c-0.3552,0.17768 -3.51416,2.35021 -3.87639,2.51775c-12.48488,5.77469 -28.04889,3.01873 -28.04889,3.01873c0,0 19.10193,-9.74924 21.39355,-41.58915c1.31028,-18.20512 -11.74686,-37.49764 -11.74686,-37.49764c0,0 10.39625,6.35438 16.90687,17.49823c5.20345,8.90643 6.68256,19.58478 10.07182,24.63788c1.65374,2.46557 2.49885,5.63723 4.44299,7.96196c3.19815,3.82415 7.2683,6.27083 7.2683,6.27083z" fill="#cbcb6a"/></g><path d="M202.60028,179.50453c0.33323,-3.0501 3.07598,-5.25254 6.12609,-4.91929c3.0501,0.33323 5.25255,3.07597 4.9193,6.12608c-0.33323,3.0501 -3.07598,5.25255 -6.12609,4.9193c-3.0501,-0.33323 -5.25255,-3.07598 -4.9193,-6.12609z" fill="#6e6e30" stroke="none" stroke-width="0" stroke-linecap="butt"/><path d="M271.29049,187.12113c0.33324,-3.0501 3.07598,-5.25254 6.12609,-4.91929c3.0501,0.33323 5.25256,3.07597 4.91931,6.12608c-0.33324,3.0501 -3.07599,5.25255 -6.1261,4.9193c-3.0501,-0.33323 -5.25255,-3.07598 -4.9193,-6.12609z" fill="#6e6e30" stroke="none" stroke-width="0" stroke-linecap="butt"/><g stroke="none" stroke-width="0" stroke-linecap="butt"><path d="M221.09334,135.81812l-10.23411,14.64175c0,0 -1.4966,-0.60883 -4.1551,-1.4447c-3.61324,-1.13605 -8.90569,-3.06657 -11.16608,-7.94153c-4.11612,-8.87712 0.45127,-14.6702 3.20061,-17.05384c2.87971,-2.49668 9.19687,-4.77668 15.19787,-1.72567c4.77739,2.42893 5.90768,6.68183 6.44581,9.7434c0.39254,2.23329 0.71103,3.78057 0.71103,3.78057z" fill="#000000"/><path d="M202.97354,135.93416c0.41489,-3.79738 3.8296,-6.53942 7.62698,-6.12452c3.79738,0.41489 6.53941,3.8296 6.12452,7.62697c-0.41489,3.79738 -3.82959,6.53942 -7.62697,6.12453c-3.79738,-0.41489 -6.53942,-3.8296 -6.12453,-7.62698z" fill="#cbcb6a"/></g><path d="M240.46042,208.68601c-46.12107,-5.12918 -54.18491,-35.00878 -54.18491,-35.00878c0,0 7.01523,-0.86711 12.73964,-7.57197c12.66251,-14.83129 21.56451,-42.42177 48.91444,-39.59412c28.56586,2.95336 30.36294,29.58947 40.08648,47.7271c5.18088,9.66409 12.00971,12.53756 12.00971,12.53756c0,0 -12.61644,27.13145 -59.56536,21.9102z" fill="none" stroke="#000000" stroke-width="3" stroke-linecap="butt"/><g data-paper-data="{&quot;index&quot;:null}" stroke="none" stroke-width="0" stroke-linecap="butt"><path d="M274.64823,141.66931c0,0 0.64508,-1.44199 1.5106,-3.53784c1.18652,-2.87315 3.20852,-6.78164 8.3977,-8.12166c6.51822,-1.68321 12.19403,1.90711 14.46669,4.9667c2.16975,2.92108 5.37847,9.56375 -0.55742,17.34264c-3.25975,4.27186 -8.8442,5.01401 -12.6175,5.34303c-2.77631,0.24208 -4.36904,0.51339 -4.36904,0.51339l-6.831,-16.50622z" fill="#000000"/><path d="M284.68851,151.81984c-3.79737,-0.41489 -6.53942,-3.8296 -6.12452,-7.62698c0.41489,-3.79738 3.8296,-6.53941 7.62697,-6.12451c3.79737,0.41489 6.53942,3.8296 6.12452,7.62697c-0.41489,3.79738 -3.82959,6.53942 -7.62697,6.12452z" fill="#cbcb6a"/></g><path d="M241.77031,125.77038l13.02021,1.67402c0,0 -1.25676,9.03096 -3.97634,16.74071c-2.05345,5.82137 -4.6972,10.85551 -4.6972,10.85551c0,0 -2.35382,-4.87233 -3.28019,-11.69996c-0.69915,-5.15288 -1.06648,-17.57026 -1.06648,-17.57026z" fill="#000000" stroke="none" stroke-width="0" stroke-linecap="butt"/><path d="M232.83166,144.28408c0,0 4.93483,-7.13433 14.75892,-6.18361c10.07367,0.97487 12.57841,9.1704 12.57841,9.1704z" fill="#000000" stroke="none" stroke-width="0" stroke-linecap="butt"/><path d="M231.64035,134.47163c0,0 5.41255,-7.5851 16.84204,-6.45899c11.71989,1.15473 14.96865,9.93451 14.96865,9.93451z" fill="#000000" stroke="none" stroke-width="0" stroke-linecap="butt"/><g fill="#000000" stroke="none" stroke-width="0" stroke-linecap="butt"><path d="M192.25223,184.23807c0,0 -4.88885,-6.88336 -4.79206,-9.20742c0.08116,-1.94895 5.33416,-3.81071 5.33416,-3.81071c0,0 3.37767,3.24509 8.63306,5.88731c4.41064,2.21753 8.99723,3.08055 8.99723,3.08055c0,0 -2.33886,2.80832 -7.59406,3.59877c-7.68981,1.15665 -10.57833,0.45147 -10.57833,0.45147z"/><path d="M193.70574,186.24398c0,0 8.34853,2.55363 13.58502,2.67055c4.39476,0.09814 8.41349,-0.96035 8.41349,-0.96035c0,0 -0.01759,3.13678 -4.16563,6.36119c-2.34289,1.82122 -4.64316,2.83212 -6.00969,3.46329c-0.75598,-0.50878 -2.22459,-1.43247 -2.93058,-1.86586c-0.59334,-0.36423 -1.42377,-1.41744 -2.3899,-2.67663c-0.74161,-1.65738 -1.92462,-3.08939 -3.41587,-4.13028c-0.026,-0.01815 -0.05206,-0.03616 -0.07825,-0.05406c0.70368,-0.89556 -3.00858,-2.80785 -3.00858,-2.80785z"/><path d="M215.32951,198.54672c4.26406,-2.07682 6.76816,-4.80928 6.76816,-4.80928c0,0 1.07888,3.07027 -0.71648,7.44857c-0.65264,1.59159 -1.25781,2.90417 -1.79883,3.97817c-2.04634,-1.40235 -4.28864,-2.35464 -6.79169,-3.70536c-0.20965,-0.11312 -2.43803,-1.55041 -2.69433,-1.62289c1.0979,-0.53298 3.3393,-0.36678 5.2332,-1.28922z"/></g><g data-paper-data="{&quot;index&quot;:null}" fill="#000000" stroke="none" stroke-width="0" stroke-linecap="butt"><path d="M281.66918,192.14873c-4.96053,-1.9066 -6.63779,-5.15369 -6.63779,-5.15369c0,0 4.66476,0.14773 9.45017,-1.06506c5.70195,-1.44507 9.70066,-3.88425 9.70066,-3.88425c0,0 4.72704,2.95215 4.38545,4.87262c-0.40734,2.29013 -6.66718,7.95542 -6.66718,7.95542c0,0 -2.97265,0.06479 -10.23131,-2.72507z"/><path d="M288.94867,199.25477c-0.02943,0.01182 -0.85866,0.43937 -0.88796,0.45147c-1.68086,0.69432 -4.78978,0.7772 -5.87177,2.23535c-0.20913,0.17569 1.7015,1.70899 1.50389,1.87219c-0.95069,0.78521 -3.87063,0.03687 -4.41537,0.22524c-0.78292,0.27071 -2.41632,0.8555 -3.26433,1.18904c-1.19802,-0.91136 -3.22573,-2.39514 -5.12008,-4.67928c-3.35391,-4.04405 -2.69374,-7.11061 -2.69374,-7.11061c0,0 3.69534,1.90131 8.00761,2.75444c5.13818,1.01656 14.73816,0.17244 14.73816,0.17244c0,0 -2.49008,1.86336 -1.9964,2.88975z"/><path d="M271.10924,206.25048c-0.26589,0.01542 -2.75208,0.93761 -2.98119,1.00277c-2.73567,0.77836 -5.13072,1.22399 -7.43158,2.15139c-0.29635,-1.16549 -0.60382,-2.57781 -0.89738,-4.27276c-0.80758,-4.66267 0.90881,-7.42756 0.90881,-7.42756c0,0 1.85497,3.20873 5.56998,6.15732c1.65003,1.30963 3.87444,1.63135 4.83136,2.38882z"/></g><g fill="#000000" stroke="none" stroke-width="0" stroke-linecap="butt"><path d="M228.03585,167.46281c-0.93349,8.54408 -5.58457,15.04497 -10.38849,14.5201c-4.8039,-0.52485 -7.94149,-7.87669 -7.00799,-16.42078c0.93349,-8.54408 5.58458,-15.04497 10.38849,-14.5201c4.8039,0.52485 7.94149,7.87669 7.00799,16.42078z"/><path d="M217.22364,172.97107c-0.13794,1.26274 -4.48093,1.42174 -4.48093,1.42174c0,0 -1.10675,-0.59179 -2.55619,-1.36264c-1.8879,-1.00403 -4.21113,-2.36586 -3.93538,-3.6722c0.32157,-1.52337 2.76205,-1.05748 4.64514,-0.65525c1.40266,0.2996 2.42206,0.42144 2.42206,0.42144c0,0 4.04325,2.58417 3.9053,3.84691z"/></g><g data-paper-data="{&quot;index&quot;:null}" fill="#000000" stroke="none" stroke-width="0" stroke-linecap="butt"><path d="M270.63383,156.86417c4.80391,0.52485 7.94149,7.87668 7.00799,16.42077c-0.93349,8.54408 -5.58457,15.04497 -10.38848,14.52011c-4.80391,-0.52485 -7.94149,-7.87669 -7.00799,-16.42078c0.93349,-8.54408 5.58457,-15.04496 10.38848,-14.5201z"/><path d="M274.2569,176.18447c0,0 1.02166,0.10117 2.45595,0.11152c1.92551,0.0139 4.409,0.08598 4.39403,1.64284c-0.01283,1.33504 -2.57531,2.1631 -4.63548,2.73577c-1.58169,0.43969 -2.79015,0.77852 -2.79015,0.77852c0,0 -4.20618,-1.09305 -4.0682,-2.35579c0.13795,-1.26274 4.64384,-2.91286 4.64384,-2.91286z"/></g><path d="M221.16272,162.91453c-0.36847,3.37254 -2.19311,5.93982 -4.07547,5.73415c-1.88235,-0.20565 -3.10958,-3.10636 -2.74112,-6.4789c0.36847,-3.37254 2.1931,-5.9398 4.07546,-5.73412c1.88235,0.20565 3.10959,3.10635 2.74113,6.47888z" fill="#ffffff" stroke="none" stroke-width="0" stroke-linecap="butt"/><path d="M270.32992,167.99893c-0.36848,3.37254 -2.1931,5.93981 -4.07546,5.73414c-1.88236,-0.20565 -3.10958,-3.10637 -2.74112,-6.4789c0.36848,-3.37254 2.1931,-5.9398 4.07546,-5.73412c1.88236,0.20565 3.10958,3.10635 2.74112,6.47888z" fill="#ffffff" stroke="none" stroke-width="0" stroke-linecap="butt"/><path d="M231.71148,172.90503c0.71552,-6.54899 6.60457,-11.27796 13.15356,-10.56244c6.54899,0.71552 11.27796,6.60458 10.56244,13.15357c-0.71552,6.54899 -6.60457,11.27796 -13.15357,10.56244c-6.54899,-0.71552 -11.27796,-6.60458 -10.56244,-13.15357z" fill="#6e6e30" stroke="none" stroke-width="0" stroke-linecap="butt"/><path d="M218.50479,174.08876c0.1133,-1.03704 1.04584,-1.78585 2.08286,-1.67254c1.03704,0.1133 1.78587,1.04584 1.67256,2.08286c-0.1133,1.03704 -1.04585,1.78587 -2.08287,1.67256c-1.03704,-0.1133 -1.78587,-1.04585 -1.67256,-2.08287z" fill="#6e6e30" stroke="none" stroke-width="0" stroke-linecap="butt"/><path d="M268.27119,179.97314c0.11331,-1.03704 1.04584,-1.78586 2.08286,-1.67255c1.03704,0.1133 1.78587,1.04584 1.67256,2.08286c-0.11331,1.03704 -1.04585,1.78587 -2.08287,1.67256c-1.03704,-0.1133 -1.78587,-1.04585 -1.67256,-2.08287z" fill="#6e6e30" stroke="none" stroke-width="0" stroke-linecap="butt"/><path d="M252.52422,178.44829c0,0 -1.87349,3.25584 -6.00265,1.85528c-2.92827,-0.99322 -2.8938,-4.08765 -2.8938,-4.08765c0,0 -1.08235,3.4724 -4.01568,3.47893c-4.19263,0.00934 -5.82788,-3.12636 -5.82788,-3.12636" fill="none" stroke="#000000" stroke-width="2" stroke-linecap="round"/><g stroke="none" stroke-width="0" stroke-linecap="butt"><path d="M251.10662,170.70687c-0.24744,2.26469 -4.50633,6.57207 -7.74668,6.06954c-3.23942,-0.50238 -6.66644,-5.35254 -6.41901,-7.61723c0.24744,-2.26469 3.4991,-4.27022 7.50235,-3.83285c4.00325,0.4374 6.91079,3.11584 6.66336,5.38055z" fill="#000000"/><path d="M248.54624,169.58882c-0.10248,0.93791 -2.2069,1.4774 -4.70033,1.20496c-2.49347,-0.27243 -4.43174,-1.25361 -4.32926,-2.1915c0.10248,-0.93791 1.4593,-1.53395 4.87509,-1.26969c3.33259,0.2578 4.257,1.31832 4.15453,2.25623z" fill="#ffffff"/></g></g></g></svg>