<svg version="1.1" xmlns="http://www.w3.org/2000/svg" xmlns:xlink="http://www.w3.org/1999/xlink" width="36.79812" height="36.7981" viewBox="0,0,36.79812,36.7981"><g transform="translate(-302.91346,-162.9135)"><g stroke="none" stroke-width="0" stroke-miterlimit="10"><path d="M311.51759,163.9135h20.83988c4.07419,0 7.35411,3.303 7.35411,7.40583v20.98644c0,4.10283 -3.27992,7.40583 -7.35411,7.40583h-20.83988c-4.07418,0 -7.35411,-3.303 -7.35411,-7.40583v-20.98644c0,-4.10283 3.27993,-7.40583 7.35411,-7.40583z" fill-opacity="0.39216" fill="#000000" fill-rule="evenodd" stroke-linecap="round" stroke-linejoin="round"/><path d="M309.98312,162.9135h20.03379c3.9166,0 7.06966,3.15307 7.06966,7.06966v20.03379c0,3.91659 -3.15306,7.06966 -7.06966,7.06966h-20.03379c-3.91659,0 -7.06966,-3.15307 -7.06966,-7.06966v-20.03379c0,-3.91659 3.15307,-7.06966 7.06966,-7.06966z" fill="#a0a300" fill-rule="evenodd" stroke-linecap="round" stroke-linejoin="round"/><path d="M307.81253,192.12502v-25.875h9.125v25.875z" fill="#000000" fill-rule="nonzero" stroke-linecap="butt" stroke-linejoin="miter"/><path d="M320.68753,187.62503v-9.24771h9v9.24771z" fill="#d9db56" fill-rule="nonzero" stroke-linecap="butt" stroke-linejoin="miter"/></g></g></svg>