<svg version="1.1" xmlns="http://www.w3.org/2000/svg" xmlns:xlink="http://www.w3.org/1999/xlink" width="79.46378" height="97.8732" viewBox="0,0,79.46378,97.8732"><g transform="translate(-277.28317,-183.20941)"><g stroke-miterlimit="10"><path d="M287.60172,230.3112c0,0 -3.66372,-7.21556 -3.6267,-13.32642c0.0796,-13.13941 12.23991,-25.22791 12.23991,-25.22791l4.02433,9.65065c0,0 4.25082,-6.70935 11.47826,-11.31799c6.12797,-3.90755 15.09967,-5.79005 15.09967,-5.79005l-0.67707,12.73281c0,0 8.69347,-1.36293 14.29352,-1.28202c8.44634,0.12204 14.22803,4.00456 14.22803,4.00456c0,0 -4.66244,6.9841 -6.27708,12.16313c-1.94611,6.24226 -0.28536,18.39323 -0.28536,18.39323z" fill="#bac12c" stroke="#000000" stroke-width="1.75" stroke-linecap="butt"/><path d="M278.28318,240.25739c0,-21.99487 17.42021,-36.33893 39.41507,-36.33893c21.99486,0 34.30252,15.37504 37.65593,37.11276c3.35328,21.73693 -15.25092,39.05139 -37.24578,39.05139c-21.99486,0 -39.82523,-17.83035 -39.82523,-39.82523z" fill="#bac12c" stroke="#000000" stroke-width="2" stroke-linecap="butt"/><path d="M292.1134,228.77313v-22.35331c0,0 17.31192,-4.30661 25.8396,-4.30661c8.4935,0 25.22437,4.30661 25.22437,4.30661v22.35331z" fill="#bac12c" stroke="none" stroke-width="0" stroke-linecap="butt"/><g stroke="#000000" stroke-width="1" stroke-linecap="round"><path d="M326.5252,256.76201l-2.18915,14.3804c0,0 -15.24573,4.11965 -25.4477,-2.10553c-9.98902,-6.09523 -8.89426,-14.19282 -8.89426,-14.19282l43.35032,1.57394" fill="#ffffff"/><path d="M292.29371,262.74564l32.4136,1.79727" fill="none"/></g><g stroke="none" stroke-linecap="butt"><path d="M309.55949,234.94232c0,9.4391 -3.12071,14.41315 -6.97029,14.41315c-3.84959,0 -6.97029,-4.97405 -6.97029,-14.41315c0,-9.4391 3.12071,-13.46802 6.97029,-13.46802c3.84959,0 6.97029,4.02892 6.97029,13.46802z" fill="#000000" stroke-width="NaN"/><path d="M294.38671,230.42562v-10.56549h17.46242v10.56549z" fill="#bac12c" stroke-width="0"/></g><g stroke="none" stroke-linecap="butt"><path d="M340.37552,234.94232c0,9.4391 -3.12071,14.41314 -6.9703,14.41314c-3.84959,0 -6.9703,-4.97404 -6.9703,-14.41314c0,-9.4391 3.12071,-13.46802 6.9703,-13.46802c3.84959,0 6.9703,4.02892 6.9703,13.46802z" fill="#000000" stroke-width="NaN"/><path d="M325.20275,230.42562v-10.56549h17.46242v10.56549z" fill="#bac12c" stroke-width="0"/></g></g></g></svg>