<svg version="1.1" xmlns="http://www.w3.org/2000/svg" xmlns:xlink="http://www.w3.org/1999/xlink" width="364" height="108.1716" viewBox="0,0,364,108.1716"><defs><linearGradient x1="320" y1="128.5" x2="320" y2="232.00006" gradientUnits="userSpaceOnUse" id="color-1"><stop offset="0" stop-color="#68682e"/><stop offset="1" stop-color="#303015"/></linearGradient><linearGradient x1="205.00001" y1="184.68667" x2="205.00001" y2="224.51153" gradientUnits="userSpaceOnUse" id="color-2"><stop offset="0" stop-color="#000000" stop-opacity="0"/><stop offset="1" stop-color="#000000" stop-opacity="0.54118"/></linearGradient><linearGradient x1="205.00005" y1="136.43662" x2="205.00005" y2="213.01153" gradientUnits="userSpaceOnUse" id="color-3"><stop offset="0" stop-color="#1c1c00" stop-opacity="0.55294"/><stop offset="1" stop-color="#1c1c00" stop-opacity="0"/></linearGradient><linearGradient x1="205.50004" y1="225.26153" x2="205.50004" y2="148.68662" gradientUnits="userSpaceOnUse" id="color-4"><stop offset="0" stop-color="#1c1c00" stop-opacity="0.30196"/><stop offset="1" stop-color="#1c1c00" stop-opacity="0"/></linearGradient><linearGradient x1="205.00001" y1="136.35119" x2="205.00001" y2="224.51153" gradientUnits="userSpaceOnUse" id="color-5"><stop offset="0" stop-color="#ffff94"/><stop offset="1" stop-color="#cccc48"/></linearGradient><linearGradient x1="454.23511" y1="141.20052" x2="454.23511" y2="219.15605" gradientTransform="translate(-229.05296,-122.94169) scale(0.88608,0.61579)" gradientUnits="userSpaceOnUse" id="color-6"><stop offset="0" stop-color="#ffffff"/><stop offset="1" stop-color="#fdff9d"/></linearGradient></defs><g transform="translate(-128.25,-126.75005)"><g stroke-miterlimit="10"><path d="M130,232.00006v-103.5h360.5v103.5z" fill="url(#color-1)" fill-rule="nonzero" stroke="#252510" stroke-width="3.5" stroke-linecap="butt" stroke-linejoin="miter"/><path d="M178.43044,136.35119h53.13923c10.38871,0 18.75214,8.13434 18.75214,18.23841v51.68346c0,10.10407 -8.36346,18.23841 -18.75214,18.23841h-53.13923c-10.38868,0 -18.75217,-8.13434 -18.75217,-18.23841v-51.68346c0,-10.10407 8.36349,-18.23841 18.75217,-18.23841z" fill="#6e6e30" fill-rule="evenodd" stroke="none" stroke-width="4.43922" stroke-linecap="round" stroke-linejoin="round"/><path d="M250.32181,206.27309c0,10.10407 -8.36346,18.23841 -18.75214,18.23841h-53.13923c-10.38868,0 -18.75217,-8.13434 -18.75217,-18.23841v-21.58645c18.06815,0.09223 37.35897,0.267 55.17088,0.26802c11.82421,0.00067 23.64844,-0.01273 35.47267,-0.02123z" fill="url(#color-2)" fill-rule="nonzero" stroke="none" stroke-width="4.43922" stroke-linecap="butt" stroke-linejoin="miter"/><path d="M178.08754,137.11353c0,0 -8.05558,7.54324 -8.33307,16.46965c-0.39756,12.78921 -0.72638,28.41772 -4.23301,28.76861c-3.3171,0.33192 -3.1024,-13.4702 -3.68173,-25.86175c-0.15377,-3.28895 -0.41765,-6.47361 -0.70454,-9.27859c1.42204,-1.11792 2.41833,-2.75301 2.70544,-4.62186c1.43487,-0.64268 2.62425,-1.73534 3.38863,-3.09846c1.72237,-0.26413 3.24631,-1.1306 4.35002,-2.37761z" fill="#ffff94" fill-rule="nonzero" stroke="none" stroke-width="0" stroke-linecap="butt" stroke-linejoin="miter"/><path d="M173.87431,176.14521c0,0 6.70989,25.51523 0.85457,25.90687c-5.94419,0.39758 -0.85457,-25.90687 -0.85457,-25.90687z" fill="#ffff94" fill-rule="nonzero" stroke="none" stroke-width="0" stroke-linecap="butt" stroke-linejoin="miter"/><path d="M168.40225,143.12107l33.94565,-0.53584c0,0 -5.57733,5.56766 -7.78635,11.82991c-2.27466,6.44833 -1.28589,13.60084 -8.63226,13.89521c-8.41127,0.17652 -7.96475,-8.31966 -10.28204,-15.29332c-1.84531,-5.55325 -7.24499,-9.89597 -7.24499,-9.89597z" fill="#ffff94" fill-rule="nonzero" stroke="none" stroke-width="0" stroke-linecap="butt" stroke-linejoin="miter"/><path d="M242.09982,151.45891c-3.25619,1.37412 -8.07183,-3.02822 -14.07533,-3.36357c-2.58811,-0.14457 -5.24849,3.73357 -8.34538,3.75489c-4.83421,0.03328 -5.6472,-3.46288 -11.48056,-3.42075c-7.79407,0.05629 -4.00009,-4.18622 -9.49016,-4.49126c-0.42824,-0.02379 -24.597,6.85293 -25.01175,6.84039c-2.99325,-0.09046 -1.94054,3.2349 -1.75522,6.73721c0.20318,3.8398 -0.37096,7.86283 -2.10977,7.12443c-0.81208,-0.34486 -0.36059,-2.54418 -0.82566,-4.66289c-0.23623,-1.07622 -1.35855,-2.02338 -1.67223,-2.91793c-1.39706,-3.98409 -3.03493,-9.07612 -4.18643,-12.30446c0.33771,-0.66924 3.31758,-3.90073 4.08196,-5.26384c0.8436,-0.12937 3.49582,-1.8574 5.99779,-2.54651c2.6063,-0.71785 4.58168,-0.60551 7.41855,-0.70534c6.76077,-0.23791 16.23925,-0.00124 22.09277,-0.00124c6.53791,0 18.3667,-0.42877 26.08862,-0.1798c5.45191,0.17578 7.76055,0.63839 7.76055,0.63839c0.86962,0.60266 2.39767,1.43803 3.48551,1.61591c0.53296,0.36334 1.11657,0.65789 1.73805,0.87089c0.86764,1.2608 2.12147,2.23522 3.59075,2.75252c0.30513,0.49566 0.66788,0.95206 1.07891,1.35987c0.34515,0.98806 0.89686,1.87919 1.60337,2.62165c0.117,0.33569 0.25784,0.6602 0.42048,0.97152c-1.31449,1.66683 -3.33672,3.27518 -6.40482,4.56993z" fill="#ffff94" fill-rule="nonzero" stroke="none" stroke-width="0" stroke-linecap="butt" stroke-linejoin="miter"/><path d="M233.3039,152.76147c0,0 6.47815,19.04953 0.82506,19.34192c-5.7389,0.29684 -0.82506,-19.34192 -0.82506,-19.34192z" fill="#ffff94" fill-rule="nonzero" stroke="none" stroke-width="0" stroke-linecap="butt" stroke-linejoin="miter"/><path d="M250.19977,175.48805c0,0 -6.46264,-3.98442 -6.06614,-10.95027c0.34262,-6.01924 2.06458,-13.45753 3.5806,-19.03993c0.11797,0.1446 0.24138,0.28459 0.36991,0.41966c0.29857,0.85662 0.75235,1.6405 1.32767,2.31794c0.14332,0.75783 0.40384,1.47423 0.76201,2.12962z" fill="#ffff94" fill-rule="nonzero" stroke="none" stroke-width="0" stroke-linecap="butt" stroke-linejoin="miter"/><path d="M250.32182,212.76475c-11.82423,-0.0085 -72.5754,0.15456 -90.64355,0.24679v-58.33645c0,-10.10407 8.36349,-18.23841 18.75217,-18.23841h53.13923c10.38868,0 18.75214,8.13434 18.75214,18.23841z" fill="url(#color-3)" fill-rule="nonzero" stroke="none" stroke-width="4.43922" stroke-linecap="butt" stroke-linejoin="miter"/><path d="M250.82181,207.02309c0,10.10407 -8.36346,18.23841 -18.75214,18.23841h-53.13923c-10.38868,0 -18.75217,-8.13434 -18.75217,-18.23841v-58.33645c18.06815,0.09223 78.81932,0.25529 90.64355,0.24679z" fill="url(#color-4)" fill-rule="nonzero" stroke="none" stroke-width="4.43922" stroke-linecap="butt" stroke-linejoin="miter"/><path d="M178.43044,136.35119h53.13923c10.38871,0 18.75214,8.13434 18.75214,18.23841v51.68346c0,10.10407 -8.36346,18.23841 -18.75214,18.23841h-53.13923c-10.38868,0 -18.75217,-8.13434 -18.75217,-18.23841v-51.68346c0,-10.10407 8.36349,-18.23841 18.75217,-18.23841z" fill="none" fill-rule="evenodd" stroke="url(#color-5)" stroke-width="2.5" stroke-linecap="round" stroke-linejoin="round"/><text transform="translate(258.50001,199.64994) scale(1.12856,1.62394)" font-size="40" xml:space="preserve" fill="url(#color-6)" fill-rule="nonzero" stroke="none" stroke-width="1" stroke-linecap="butt" stroke-linejoin="miter" font-family="&quot;Allan-Bold&quot;, Sans Serif" font-weight="normal" text-anchor="start"><tspan x="0" dy="0">Smurfette Rule</tspan></text><g fill-rule="nonzero" stroke="none" stroke-width="0" stroke-linecap="butt" stroke-linejoin="miter"><path d="M203.56667,210.00007l1.4,-20.6h6.2v20.6z" fill="#fcff63"/><path d="M196.42075,223.2079l-2.91512,-22.53077l24.79538,-1.0359l-1.79332,23.56667z" fill="#1c1c00"/><path d="M173.5164,223.02586c0,0 8.93308,-21.87278 20.64462,-22.49921c3.85611,-0.20625 5.49586,1.10672 2.89985,4.11169c-5.72386,6.62557 -23.54447,18.38752 -23.54447,18.38752z" fill="#1c1c00"/><path d="M218.19384,199.7002c11.71154,0.62643 18.55231,23.32565 18.55231,23.32565c0,0 -16.10133,-10.42979 -21.89114,-17.34491c-2.99053,-3.57178 -0.87035,-6.20588 3.33883,-5.98074z" fill="#1c1c00"/><path d="M218.30101,223.22587h-44.58461c0,0 3.27154,-5.64358 15.63846,-5.64358c12.36692,0 28.94615,5.64358 28.94615,5.64358z" fill="#fcff63"/><path d="M220.84973,217.56429c12.36692,0 15.83846,5.64358 15.83846,5.64358h-44.78461c0,0 16.57923,-5.64358 28.94615,-5.64358z" fill="#fcff63"/><path d="M214.89131,223.31374c2.49677,3.42887 1.25365,11.59224 -1.27711,11.40472c-0.98246,-0.0728 -0.5458,-3.21334 -2.42343,-5.27516c-3.41949,-3.75494 -5.82032,-8.69721 -4.53475,-9.63332c2.05146,-1.49379 5.73852,0.0749 8.23529,3.50376z" fill="#fcff63"/><path d="M208.70016,220.01001c1.28557,0.9361 -1.11526,5.87837 -4.53475,9.63331c-1.87763,2.06182 -1.44097,5.20236 -2.42343,5.27516c-2.53075,0.18752 -3.77387,-7.97585 -1.27711,-11.40471c2.49677,-3.42887 6.18383,-4.99755 8.23529,-3.50376z" fill="#fcff63"/><g><path d="M193.16567,159.1068c0,-12.89877 9.69749,-21.72239 21.4251,-18.14379c11.98726,3.65783 8.04343,14.84383 17.5062,23.61422c9.46277,8.77038 9.88609,-1.34966 9.88609,-1.34966c0,0 1.92816,6.37672 -1.22695,11.14494c-3.0603,4.62492 -10.79146,5.71921 -16.32081,6.39568c-16.25373,1.98847 -31.26963,-14.0487 -31.26963,-21.66138z" fill="#fcff63"/><path d="M215.41828,159.30875c0,3.54705 -5.8319,6.4225 -13.02592,6.4225c-7.19402,0 -13.02592,-2.87546 -13.02592,-6.4225c0,-3.54704 5.8319,-6.42249 13.02592,-6.42249c7.19402,0 13.02592,2.87545 13.02592,6.42249z" fill="#1c1c00"/><path d="M184.63573,175.64306c-1.21601,-9.86709 5.79706,-18.85171 15.66414,-20.06773c9.86709,-1.21601 18.8517,5.79706 20.06771,15.66415c0.35923,2.91486 -0.66349,6.4194 -1.51762,9.68723c-2.03717,7.7941 -6.50832,15.08997 -13.46055,15.94675c-5.89795,0.72686 -11.36387,-3.65618 -15.35775,-9.26178c-2.68776,-3.7724 -4.9068,-7.9995 -5.39595,-11.96862z" fill="#fcff63"/></g></g></g></g></svg>