<svg version="1.1" xmlns="http://www.w3.org/2000/svg" xmlns:xlink="http://www.w3.org/1999/xlink" width="225.08208" height="294.02453" viewBox="0,0,225.08208,294.02453"><g transform="translate(-160.68037,-37.78996)"><g stroke-miterlimit="10"><path d="M252.07381,331.81449l2.16374,-279.82778h131.5249l-2.16374,279.82778z" fill-opacity="0.01" fill="#000000" stroke="none" stroke-width="2" stroke-linecap="butt"/><g fill="#000000" stroke="#ecec68" stroke-width="1" stroke-linecap="butt"><path d="M347.73837,117.76268c0,0 27.71405,-17.64516 30.90198,-17.73011c1.10159,-0.02935 3.26031,7.47458 1.7121,9.86767c-0.75015,1.15952 -28.90303,16.77696 -28.90303,16.77696z"/><path d="M341.41153,142.34885l-5.81217,-5.57141c0,0 -16.43449,-7.75112 -15.58674,-10.34563c0.37327,-1.14239 1.85691,-5.32255 3.75945,-6.78781c1.97833,-1.52367 13.25309,5.93658 13.25309,5.93658c0,0 27.92688,-24.0324 31.10002,-24.39088c1.09648,-0.12387 3.93312,7.15236 2.60608,9.66509c-0.643,1.21749 -16.2033,14.1647 -16.2033,14.1647l3.97684,13.8753z"/></g><g fill="#000000" stroke="#ecec68" stroke-width="1" stroke-linecap="butt"><path d="M193.63951,274.54481c0,0 -30.47379,-12.2788 -32.39728,-14.82247c-0.66466,-0.87898 4.18339,-6.99987 7.03054,-7.13259c1.37951,-0.06431 30.4592,13.75095 30.4592,13.75095z"/><path d="M217.31838,265.38952l-1.15094,7.96852c0,0 3.25498,17.87673 0.65146,18.69636c-1.14635,0.3609 -5.40956,1.58566 -7.70811,0.89045c-2.39015,-0.72289 -2.88036,-14.23344 -2.88036,-14.23344c0,0 -35.79302,-8.73651 -37.9304,-11.10904c-0.73857,-0.81984 3.52993,-7.35971 6.34574,-7.74192c1.36435,-0.18518 20.94704,4.94041 20.94704,4.94041l8.973,-11.30596z"/></g><path d="M280.19252,323.67534c0,0 -1.42567,-70.94955 -5.49316,-97.86776c-4.06749,-26.91821 -27.44864,-65.03253 -22.78267,-67.93635c4.64545,-2.89104 23.43224,-6.32678 36.1039,-9.28524c11.60023,-2.70831 32.31235,-6.27541 36.32945,-5.11476c5.60064,1.61818 16.65928,37.32908 27.64478,61.84106c13.86768,30.943 12.69772,109.36306 12.69772,109.36306z" fill="#000000" stroke="#ecec68" stroke-width="1" stroke-linecap="round"/><path d="M323.91957,143.52597c2.36695,-1.91025 30.06309,20.41889 30.06309,20.41889l-13.18018,-19.94152l20.81505,-9.71542c0,0 26.2372,42.46546 20.29586,47.72566c-7.02409,6.21883 -37.94803,3.34708 -37.94803,3.34708" fill="#000000" stroke="#ecec68" stroke-width="1" stroke-linecap="round"/><path d="M328.38108,319.09775c0,0 -5.99149,-79.60262 -17.7353,-114.3804c-6.68622,-19.80036 -23.80739,-55.49437 -23.80739,-55.49437c0,0 7.40483,-1.8044 11.19209,-2.46727c3.30433,-0.57835 10.28096,-1.29108 10.28096,-1.29108c0,0 14.65437,24.2874 26.893,59.22491c11.08011,31.63028 17.64969,111.64986 17.64969,111.64986z" fill="#ecec68" stroke="none" stroke-width="0" stroke-linecap="butt"/><path d="M329.20439,195.52838l-1.16201,12.86904l-13.18947,-11.00968l-8.29995,-35.29386l-6.36125,-8.09491l9.41929,-4.50827l1.25836,11.53018z" fill="#000000" stroke="none" stroke-width="0" stroke-linecap="butt"/><g><path d="M304.33916,123.24954l-3.39795,-9.44741l17.52777,-6.30421l3.39795,9.44741z" fill="#000000" stroke="none" stroke-width="0" stroke-linecap="butt"/><path d="M312.54411,133.32426c0,0 0.50439,1.16898 1.68582,2.34054c1.32044,1.3094 2.57877,7.43395 2.57877,7.43395c0,0 -0.08935,5.32684 -12.07519,9.95293c-12.1846,4.70282 -27.93749,-1.80362 -27.93749,-1.80362c0,0 -0.11916,-5.61133 -3.06337,-12.14589c-6.52013,-14.4712 -31.26453,-58.49839 -31.26453,-58.49839l13.28006,9.79751l-2.41655,-26.37495l10.13018,12.44033l2.38842,-18.91236l9.08606,11.50292l-1.05575,-19.64304l12.94777,12.41166l-0.94876,-15.41437l9.71203,11.27776l-0.32339,-16.62404l12.84986,38.58268c0,0 6.6615,-1.6742 8.70909,2.37872c1.95372,3.86716 -4.18508,7.34359 -4.18508,7.34359" fill="#000000" stroke="#ecec68" stroke-width="1" stroke-linecap="round"/><path d="M314.28526,125.33765c0,0 13.23866,0.94389 9.9685,4.12832c-1.69219,1.64782 -8.20334,4.06734 -15.30074,7.40335" fill="#000000" stroke="#ecec68" stroke-width="1" stroke-linecap="round"/><path d="M321.3191,109.02161c0,0 21.78171,6.03872 20.16593,8.94827c-1.39452,2.51115 -14.10221,6.27959 -23.97177,9.98341c-16.3883,6.15014 -33.01244,11.87167 -33.01244,11.87167" fill="#000000" stroke="#ecec68" stroke-width="1" stroke-linecap="round"/><path d="M301.38048,99.4253c-2.16732,-6.02586 0.61099,-12.54198 6.20551,-14.55416c5.59452,-2.01218 11.88674,1.24153 14.05406,7.26741c2.16732,6.02587 -0.61099,12.54199 -6.2055,14.55416c-5.59454,2.01219 -11.88675,-1.24155 -14.05407,-7.26743z" fill="#ecec68" stroke="#000000" stroke-width="1.5" stroke-linecap="butt"/><path d="M311.15506,97.73784c-0.94508,0.33992 -2.01002,-0.21519 -2.37856,-1.23988c-0.36855,-1.02468 0.09883,-2.13091 1.04393,-2.47085c0.9451,-0.33993 2.01002,0.2152 2.37857,1.23987c0.36855,1.02468 -0.09884,2.13091 -1.04394,2.47084z" fill="#000000" stroke="none" stroke-width="0.5" stroke-linecap="butt"/><path d="M302.13091,107.17124c0,0 21.4391,-11.01767 23.95716,-5.07035c2.68173,6.33388 -13.30886,11.58014 -13.30886,11.58014" fill="#000000" stroke="#ecec68" stroke-width="1" stroke-linecap="round"/><g stroke-linecap="butt"><path d="M282.3467,107.61643c-2.53795,-7.05635 0.71545,-14.68679 7.2667,-17.04308c6.55125,-2.35628 13.91951,1.45386 16.45747,8.51021c2.53795,7.05633 -0.71547,14.6868 -7.26671,17.04309c-6.55125,2.35628 -13.91949,-1.45388 -16.45744,-8.51023z" fill="#ecec68" stroke="#000000" stroke-width="1.5"/><path d="M294.29336,102.94196c0.4188,1.1644 -0.11231,2.4215 -1.18628,2.80777c-1.07397,0.38628 -2.28411,-0.24454 -2.70292,-1.40896c-0.4188,-1.16442 0.11231,-2.4215 1.18629,-2.80778c1.07395,-0.38627 2.2841,0.24452 2.7029,1.40893z" fill="#000000" stroke="none" stroke-width="0.5"/></g><g stroke="#ecec68" stroke-width="1" stroke-linecap="round"><path d="M274.30145,136.18118c0,0 -8.54238,12.57469 -13.57885,-8.93021c-0.91997,-3.92818 8.68612,-0.44253 8.68612,-0.44253" fill="#000000"/><path d="M265.48219,128.64124c0,0 2.27735,2.47536 3.02928,3.59745c0.80294,1.19819 1.6453,3.37833 1.6453,3.37833" fill="none"/><path d="M265.42734,132.63086c0,0 1.0405,-0.26497 1.44675,-0.2281c0.57919,0.05258 2.06407,0.53863 2.06407,0.53863" fill="none"/></g></g><path d="M305.79168,155.29581c0,0 17.11414,35.95464 25.41043,61.56043c6.32411,19.51882 13.69873,98.41034 13.69873,98.41034" fill="none" stroke="#000000" stroke-width="1" stroke-linecap="round"/><path d="M317.45835,222.62914l-44.66667,-48l12.33334,-5.33333l-17,-3.66667l8.66666,-14.66666" fill="none" stroke="#ecec68" stroke-width="1" stroke-linecap="round"/><path d="M317.79168,143.62914l10,6l-6,4.33334l7,3.33333l9.33334,62" fill="none" stroke="#ecec68" stroke-width="1" stroke-linecap="round"/><path d="M267.83334,191.32397c0,0 -9.11374,16.19393 -15.39285,26.55836c-8.47998,13.99722 -30.89837,49.85083 -30.89837,49.85083l-22.63237,-6.6496c0,0 18.12682,-35.00582 33.27914,-64.58563c10.80579,-21.09467 17.5655,-39.32886 20.59683,-39.07872" fill="#000000" stroke="#ecec68" stroke-width="1" stroke-linecap="round"/><path d="M197.42659,262.91636l7,-13.42857l23.14286,8.57143l-6.85714,12.14286z" fill="#ecec68" stroke="none" stroke-width="0" stroke-linecap="butt"/><path d="M345.50172,189.60111l-8.5,-21.75" fill="none" stroke="#ecec68" stroke-width="1" stroke-linecap="round"/><path d="M341.44326,145.71637l-3.675,-5.55357l22.14286,-9.82857l4.86786,8.11786z" fill="#ecec68" stroke="none" stroke-width="0" stroke-linecap="butt"/></g></g></svg>