<svg version="1.1" xmlns="http://www.w3.org/2000/svg" xmlns:xlink="http://www.w3.org/1999/xlink" width="290.43864" height="237.39018" viewBox="0,0,290.43864,237.39018"><defs><linearGradient x1="191.1971" y1="209.08962" x2="459.13865" y2="209.08962" gradientUnits="userSpaceOnUse" id="color-1"><stop offset="0" stop-color="#8a833c"/><stop offset="1" stop-color="#81782d"/></linearGradient><linearGradient x1="294.19756" y1="211.18317" x2="332.0105" y2="216.92564" gradientUnits="userSpaceOnUse" id="color-2"><stop offset="0" stop-color="#7f772e"/><stop offset="1" stop-color="#8b843d"/></linearGradient><linearGradient x1="256.00782" y1="269.75852" x2="304.47278" y2="269.75852" gradientUnits="userSpaceOnUse" id="color-3"><stop offset="0" stop-color="#7f772e"/><stop offset="1" stop-color="#8b843d"/></linearGradient><linearGradient x1="250.21571" y1="241.5262" x2="312.65821" y2="241.5262" gradientUnits="userSpaceOnUse" id="color-4"><stop offset="0" stop-color="#7f772e"/><stop offset="1" stop-color="#8b843d"/></linearGradient><radialGradient cx="296.63696" cy="252.4568" r="32.71582" gradientUnits="userSpaceOnUse" id="color-5"><stop offset="0" stop-color="#8b843d"/><stop offset="1" stop-color="#7f772e"/></radialGradient></defs><g transform="translate(-169.437,-60.61727)"><g stroke-miterlimit="10"><path d="M246.91667,248.08334v-110.66667h154v110.66667z" fill-opacity="0.01" fill="#000000" stroke="none" stroke-width="0" stroke-linecap="butt"/><g stroke="#000000" stroke-width="1.5" stroke-linecap="round"><path d="M384.54741,128.03249c0,0 3.4516,2.16383 5.92467,1.12721c0.61037,-0.25583 6.32452,-5.80786 7.04316,-6.10223c1.64904,-0.67548 -1.57608,6.58412 0.38437,6.05027c1.0319,-0.28099 1.46614,0.72996 2.63728,0.41948c1.18314,-0.31366 -4.29189,4.95905 -2.97905,4.64056c0.37135,-0.09009 4.79901,0.69869 6.99158,2.59489c2.49863,2.16091 2.79807,5.46478 3.26931,5.34689c1.68876,-0.42244 2.72949,-3.00031 4.4577,-3.68393c0.82315,-0.3256 5.35411,1.97583 6.18892,1.64117c1.13203,-0.4538 1.90395,-2.57017 2.97456,-3.06441c3.48176,-1.60737 3.3294,3.87689 6.87392,3.78138c1.01693,-0.0274 0.847,-3.00104 1.61381,-2.94573c1.27475,0.09195 -0.12631,5.20198 1.95858,4.4449c9.64529,-3.50248 6.30138,1.37024 7.84715,2.37197c1.25493,0.81327 6.1114,-1.59943 7.10035,0.16143c0.74614,1.32851 3.05724,9.06665 3.06002,13.85975c0.00133,2.30274 1.59429,5.1931 1.43754,7.93587c-0.12242,2.14205 0.37174,4.39205 0.15064,6.71423c-0.37176,3.90477 -6.55187,7.70451 -5.83724,11.82711c0.68827,3.97047 -1.16201,8.21573 -0.38203,11.45927c1.37236,5.70684 3.31878,9.50869 4.39506,13.17506c1.11926,3.81285 -5.80171,16.08127 -4.53575,18.57805c4.68684,9.24362 3.41246,16.32674 6.41904,23.55841c0.70607,1.6983 7.05281,3.09346 7.58464,4.88292c0.42461,1.42865 -9.65855,3.84174 -15.34638,3.6522c-5.20563,-0.17347 -3.10906,-6.25004 -7.87914,-5.07577c-5.64231,1.389 -9.98274,11.95566 -9.59985,13.24325c2.03733,6.85115 1.01013,12.84522 2.12649,15.98847c1.48227,4.17354 7.2078,6.17557 10.99493,7.06161c2.03208,0.47542 6.45168,1.4266 4.38132,1.70119c-5.37662,0.7131 -20.0404,1.33402 -26.99895,1.21417c-2.36662,-0.04076 -8.84227,1.03235 -11.64475,0.34178c-3.82652,-0.94292 -4.00411,-3.74995 -6.96832,-4.06329c-6.29581,-0.66553 -9.82018,1.15976 -16.61435,0.67041c-4.76937,-0.34352 -9.38323,1.29625 -14.54932,1.35246c-2.81854,0.03067 -6.74674,-1.56715 -8.77057,-1.54251c-4.61313,0.05616 -9.77542,1.12123 -10.70562,1.22395c-5.26085,0.58096 -14.3886,0.50595 -23.59251,0.60832c-2.52903,0.02813 -8.49732,0.3437 -11.15126,0.27614c-3.31203,-0.08432 -5.98229,4.06266 -13.79064,-1.75c-2.26477,-1.68592 -3.46525,-0.26544 -5.71114,0.33931c-1.74048,0.46864 -4.51198,0.05254 -6.33801,-0.17658c-5.41464,-0.67939 -8.98448,-1.23737 -13.49446,-2.04011c-3.00119,-0.53419 -6.79363,-1.36035 -10.45556,-1.73318c-4.22094,-0.42974 -9.39512,-0.45594 -13.46414,-0.68017c-2.68093,-0.14773 -7.97253,-0.30139 -10.47099,-0.46107c-0.91856,-0.05871 -5.1866,1.19918 -6.0736,1.13759c-1.15938,-0.08051 -8.34283,-2.79757 -9.4347,-2.87905c-1.65254,-0.12334 -2.88879,-4.52437 -4.37255,-4.63526c-3.56134,-0.26615 -5.27601,-0.49448 -7.71155,-0.67563c-1.78502,-0.13277 -3.23433,-0.89665 -4.299,-0.96958c-2.13425,-0.14622 -5.90111,0.6934 -9.67975,0.87993c-2.95129,0.14569 -6.30343,-0.36404 -6.30343,-0.36404c0,0 -0.31368,-2.51198 2.44445,-3.4577c3.18414,-1.09179 -1.80709,-1.2669 3.43171,-3.05726c1.39905,-0.47813 2.28398,-4.6147 3.95117,-5.15571c1.06464,-0.34549 5.54309,1.29833 6.69224,0.97471c1.70374,-0.47979 4.12679,-4.93541 5.47748,-3.78505c2.9388,2.50291 7.13119,-3.90161 10.19657,-4.51783c6.97281,-1.4017 12.32774,-1.73742 13.82546,-4.76495c0.2573,-0.52012 -8.62796,-4.69422 -15.05865,-9.73835c-3.86584,-3.03231 -4.43184,-5.08513 -6.04132,-7.28643c-0.98179,-1.3428 -3.83073,-3.56844 -3.75286,-3.69857c0.57456,-0.96018 3.89985,-2.7295 6.22889,-4.62289c4.31691,-3.50946 8.48917,-7.44526 8.48917,-7.44526c0,0 -2.62301,-1.50269 -3.97259,-2.27586c-1.66354,-0.95301 1.34535,-1.92469 2.95714,-2.95947c1.86923,-1.20006 4.19094,-2.72279 5.4769,-3.68787c2.27727,-1.70902 5.66356,-5.00786 5.66356,-5.00786c0,0 -11.59976,-14.66458 -17.73798,-19.00331c-1.66098,-1.17405 -3.72418,0.07244 -3.70448,0.05293c0.82092,-0.81307 1.59401,-2.61811 3.08856,-4.62848c0.93838,-1.26224 2.56883,-2.80503 3.40276,-3.61154c3.10057,-2.99866 8.25102,-6.47289 10.70553,-9.52308c1.77076,-2.20051 0.13016,-5.90604 1.80351,-7.83522c5.84436,-6.73789 -0.16404,5.00162 5.12413,1.24461c1.66557,-1.18331 0.528,-7.02437 3.76193,-10.44472c3.59298,-3.80011 3.08219,4.14436 7.35719,1.37555c1.7855,-1.15643 1.48781,-6.40031 4.19874,-10.12428c1.45336,-1.99644 2.44529,-0.58275 4.34641,-1.65088c1.60938,-0.9042 4.25172,-4.4273 4.43373,-4.61441c2.76951,-2.84709 -0.41636,3.86676 2.41517,4.86235c1.1932,0.41954 2.10332,-3.90385 3.38072,-3.12906c1.2412,0.75283 -0.51287,3.35745 0.77285,4.46607c1.45544,1.25496 5.00102,1.02581 6.55238,2.53947c1.43,1.39523 -1.53621,7.8491 -0.17435,9.41286c1.03922,1.19326 2.12595,0.68558 3.23013,1.76561c1.14513,1.12007 0.96314,6.1697 2.1123,7.22135c2.1386,1.95711 0.34649,3.62744 2.37469,4.54457c2.11514,0.95643 4.10653,-1.34205 4.2109,-4.19791c0.13653,-3.73586 -1.75953,-8.42552 1.26127,-8.03067c3.06291,0.40036 5.54934,13.85866 5.54934,13.85866c0,0 0.17894,-10.31579 3.81545,-11.59106c1.63128,-0.57207 4.4599,-0.88522 6.44453,-1.56813c4.42701,-1.52334 -3.43851,-3.35462 2.10258,-5.03424c1.3933,-0.42233 2.86124,-9.79519 4.95741,-7.16203c0.64492,0.81012 -0.60303,3.20605 2.07809,3.82824c2.24415,0.52078 2.72698,-5.89898 5.87312,-5.90796c1.97586,-0.00563 2.72521,4.68608 4.98614,5.91576c3.16668,1.72229 7.68065,0.1388 8.45534,-0.00255c2.5501,-0.46526 5.11401,-1.85983 7.64407,-3.52638c4.83542,-3.18509 9.54714,-7.36371 13.80217,-7.94734c1.89222,-0.25953 2.42272,1.79926 4.10382,3.34953c0.84539,0.77961 1.85607,-0.48488 2.83774,0.05267c1.47631,0.80841 2.88698,3.19812 3.57115,2.84793c2.92217,-1.49563 4.71555,-4.07917 6.79418,-5.68343c3.05848,-2.3605 0.64493,-1.00196 2.34456,-2.96431c1.50759,-1.74061 3.53202,-2.02466 5.28433,-3.96507c2.07604,-2.29889 3.7701,-6.12474 3.7701,-6.12474zM301.74145,177.56794c-2.42962,1.80514 12.48842,2.02711 12.48842,5.24403c0,4.30741 -13.6739,10.60738 -9.74857,11.96187c0.32781,0.11311 0.66339,0.21014 1.00571,0.29007c0.00389,0.00272 0.00745,0.00542 0.01068,0.00813c1.38284,1.16198 2.73676,1.64376 4.21807,2.95912c4.98172,4.4236 6.71876,10.68649 11.60738,15.03868c2.07792,1.84992 5.0677,2.41392 7.57584,3.31846c1.2203,0.44009 1.85291,1.8958 2.51834,2.61265c0.6617,0.71282 -1.39954,-11.26674 0.47956,-12.77472c2.92782,-2.34956 10.13745,5.19842 11.43086,6.25496c1.31831,1.07687 3.06,6.47211 4.01939,4.43167c3.8102,-8.10367 4.47263,4.66443 5.52084,2.61143c0.62567,-1.22543 -0.34516,-2.73822 -0.23282,-4.10386c0.0407,-0.49473 0.70811,-0.83626 0.67999,-1.33183c-0.0872,-1.53714 -0.38538,-3.0989 -1.01146,-4.51105c-0.31819,-0.71768 -1.57795,-6.03662 -4.90323,-11.52686c-2.3029,-3.80224 -6.47192,-7.34368 -8.39805,-10.90876c-2.39839,-4.43917 -2.43291,-7.89315 -3.23827,-8.36637c-2.33003,-1.36906 -10.74865,-0.19644 -13.96066,-1.50586c-5.61509,-2.28904 -6.38741,-6.74346 -10.2629,-6.7642c-4.69986,-0.02517 -3.72998,3.52726 -8.75078,6.29303c-0.39108,0.21544 -0.73756,0.47483 -1.04833,0.76944zM260.90304,175.98356c-2.03463,-0.49813 -2.21886,1.6557 -3.69346,2.83543c-0.98396,0.7872 -2.48757,-0.78258 -3.58579,-0.01291c-0.95441,0.66888 -1.55326,3.6369 -1.85815,4.78232c-0.36388,1.36697 -3.80812,0.24315 -2.82306,2.17248c0.7859,1.53925 3.06547,3.77552 4.91915,4.02104c0.90433,0.11977 1.94703,0.42643 2.85291,0.21491c0.41831,-0.09768 0.94408,-0.71344 1.22544,-0.39496c1.01617,1.15023 2.52143,-0.25673 3.42217,1.41616c1.40019,2.60052 1.87773,0.17228 6.21758,-2.66103c1.55176,-1.01309 2.74206,4.60065 3.10781,2.80973c0.25128,-1.2304 -2.58916,-6.66456 -2.97955,-8.07722c-1.42176,-5.14477 -3.58758,-4.47594 -6.56032,-7.12248z" fill="url(#color-1)"/><path d="M382.30284,240.44964c0,0 1.3101,-0.63348 2.17471,-0.49235c0.37712,0.06155 0.94529,0.36579 1.55885,0.41158c0.74142,0.05534 1.54913,-0.13673 2.16603,0.10114c0.60186,0.23206 1.02213,1.10937 1.02213,1.10937" fill="none"/><path d="M436.81141,175.3488c0,0 0.42028,-0.87731 1.02214,-1.10936c0.6169,-0.23785 1.4246,-0.04579 2.16602,-0.10113c0.61356,-0.04578 1.18173,-0.35003 1.55885,-0.41158c0.86462,-0.14111 2.17473,0.49235 2.17473,0.49235" fill="none"/><path d="M348.48732,186.57552c0,0 1.31011,-0.63345 2.17473,-0.49235c0.37712,0.06154 0.94529,0.3658 1.55885,0.41158c0.74142,0.05534 1.54912,-0.13673 2.16602,0.10113c0.60186,0.23206 1.02213,1.10938 1.02213,1.10938" fill="none"/><path d="M278.33275,202.533c0,0 0.42029,-0.87732 1.02214,-1.10938c0.6169,-0.23785 1.4246,-0.0458 2.16602,-0.10114c0.61356,-0.04578 1.18173,-0.35003 1.55885,-0.41158c0.86462,-0.14111 2.17472,0.49235 2.17472,0.49235" fill="none"/><path d="M258.64909,164.33392c0,0 1.31011,-0.63345 2.17473,-0.49235c0.37712,0.06154 0.94529,0.36579 1.55884,0.41157c0.74142,0.05534 1.54912,-0.13673 2.16602,0.10113c0.60186,0.23206 1.02213,1.10938 1.02213,1.10938" fill="none"/><path d="M211.20643,272.08215c0,0 1.31012,-0.63347 2.17474,-0.49235c0.37712,0.06155 0.94529,0.36578 1.55884,0.41157c0.74142,0.05534 1.54912,-0.13674 2.16602,0.10113c0.60186,0.23206 1.02211,1.10938 1.02211,1.10938" fill="none"/></g><path d="" fill="#000000" stroke="none" stroke-width="1" stroke-linecap="butt"/><path d="" fill="#000000" stroke="#000000" stroke-width="0.3" stroke-linecap="butt"/><path d="" fill="#000000" stroke="#000000" stroke-width="0.3" stroke-linecap="butt"/><path d="" fill="#000000" stroke="#000000" stroke-width="0.3" stroke-linecap="butt"/><path d="" fill="#000000" stroke="#000000" stroke-width="0.3" stroke-linecap="butt"/><path d="" fill="#000000" stroke="#000000" stroke-width="0.3" stroke-linecap="butt"/><path d="" fill="#000000" stroke="#000000" stroke-width="0.3" stroke-linecap="butt"/><path d="" fill="#000000" stroke="#000000" stroke-width="0.3" stroke-linecap="butt"/><path d="" fill="#000000" stroke="#000000" stroke-width="0.3" stroke-linecap="butt"/><path d="" fill="#000000" stroke="#000000" stroke-width="0.3" stroke-linecap="butt"/><path d="" fill="#000000" stroke="#000000" stroke-width="0.3" stroke-linecap="butt"/><path d="" fill="#000000" stroke="#000000" stroke-width="0.3" stroke-linecap="butt"/><path d="" fill="#000000" stroke="#000000" stroke-width="0.3" stroke-linecap="butt"/><path d="" fill="#000000" stroke="#000000" stroke-width="0.3" stroke-linecap="butt"/><path d="" fill="#000000" stroke="#000000" stroke-width="0.3" stroke-linecap="butt"/><path d="" fill="#000000" stroke="#000000" stroke-width="0.3" stroke-linecap="butt"/><path d="" fill="#000000" stroke="#000000" stroke-width="0.3" stroke-linecap="butt"/><path d="" fill="#000000" stroke="#000000" stroke-width="0.3" stroke-linecap="butt"/><path d="" fill="#000000" stroke="#000000" stroke-width="0.3" stroke-linecap="butt"/><path d="" fill="#000000" stroke="#000000" stroke-width="0.3" stroke-linecap="butt"/><path d="" fill="#000000" stroke="#000000" stroke-width="0.3" stroke-linecap="butt"/><path d="" fill="#000000" stroke="#000000" stroke-width="0.3" stroke-linecap="butt"/><path d="" fill="#000000" stroke="#000000" stroke-width="0.3" stroke-linecap="butt"/><path d="" fill="#000000" stroke="#000000" stroke-width="0.3" stroke-linecap="butt"/><path d="M251.56811,226.20105c0,0 -12.58458,-12.00051 -19.29224,-17.80659c-6.38294,-5.52499 -22.5602,-14.51825 -22.5602,-14.51825l5.30085,-0.60838c0,0 12.29071,8.91579 18.41513,14.12462c6.12384,5.20831 19.04888,15.73426 19.04888,15.73426z" fill="#000000" stroke="none" stroke-width="0" stroke-linecap="butt"/><path d="M390.2897,260.88102c1.01362,-0.80067 2.08321,-1.69776 3.12308,-2.66028c7.25991,-6.71992 36.09834,-29.77017 36.09834,-29.77017l-9.1236,-26.51801l3.6378,-0.62978l7.68201,27.7832c0,0 -32.80897,26.73713 -39.05842,33.51346z" fill="#000000" stroke="none" stroke-width="0" stroke-linecap="butt"/><path d="M304.72354,186.61048l-26.85842,-115.24537l2.0371,-0.19792l26.85843,115.24538z" fill="#000000" stroke="#000000" stroke-width="0.5" stroke-linecap="butt"/><path d="M373.53762,75.54545c-8.07141,4.1004 -142.36811,72.32528 -142.36811,72.32528l-0.77831,-1.70109c0,0 135.14164,-69.05302 142.91518,-73.02506z" fill="#000000" stroke="#000000" stroke-width="0.5" stroke-linecap="butt"/><path d="M370.42043,93.23848l2.93311,-29.12756l1.1647,0.10077l-2.93311,29.12756z" fill="#000000" stroke="#000000" stroke-width="0.5" stroke-linecap="butt"/><path d="M367.99723,90.05017l2.52541,-29.16574l1.166,0.08447l-2.5254,29.16574z" fill="#000000" stroke="#000000" stroke-width="0.5" stroke-linecap="butt"/><path d="M361.36045,100.54092l0.03225,-3.24432c0,0 1.04079,0.03472 1.21038,-0.84113c0.45534,-2.35175 0.53579,-7.64946 1.95534,-10.46222c2.21081,-4.38055 10.80355,-2.62329 12.33883,1.99395c0.68678,2.06546 -0.70686,6.15746 -0.56242,8.78784c0.12185,2.2188 1.62594,2.41703 1.62594,2.41703l-1.40106,1.89359c0,0 -1.25877,-1.79394 -0.98905,-4.75262c0.22313,-2.44756 0.6426,-5.81672 -0.53276,-7.88586c-1.025,-1.8044 -2.0718,-3.2783 -4.48606,-3.36303c-1.89557,-0.06652 -3.19878,0.46065 -4.41266,1.86438c-2.26074,2.61434 -2.17051,8.25399 -2.82565,11.35228c-0.41929,1.98293 -1.95313,2.24012 -1.95313,2.24012z" fill="#000000" stroke="#000000" stroke-width="0.5" stroke-linecap="butt"/><path d="M364.27094,103.67738c0.39422,-4.13015 1.10525,-11.50076 1.28323,-13.36513c0.20085,-2.10412 3.10806,-2.06314 5.44373,-1.79777c1.86776,0.2122 3.78625,0.88636 3.62565,2.56892c-0.18872,1.97721 -1.08084,11.32321 -1.4321,15.0031c-0.07432,0.77864 -0.09216,1.49152 -0.92557,1.71616c-1.10578,0.29806 -3.10782,0.77695 -4.16577,0.65674c-1.03295,-0.11737 -3.23425,-0.28096 -3.93239,-1.67766c-0.22387,-0.44786 0.10321,-3.10435 0.10321,-3.10435z" fill="#000000" stroke="#000000" stroke-width="0.5" stroke-linecap="butt"/><path d="M283.30221,239.75289c0,0 6.43101,-15.04137 8.67494,-23.34315c2.68875,-9.94748 6.36577,-31.1072 6.36577,-31.1072l8.65343,-2.73377l5.61503,-1.10611l10.06597,0.88757l8.29605,3.83982l5.18245,3.65979c0,0 -3.08706,19.08843 -3.50851,27.94733c-0.42541,8.94187 0.96781,25.45729 0.96781,25.45729z" fill="url(#color-2)" stroke="none" stroke-width="0" stroke-linecap="butt"/><path d="M289.56183,223.87617c0.96391,-2.68932 1.83139,-5.30608 2.41532,-7.46643c2.68875,-9.94748 6.36577,-31.1072 6.36577,-31.1072l8.65343,-2.73377l5.61503,-1.10611l10.06597,0.88757l8.29605,3.83982l5.18245,3.65979c0,0 -3.08706,19.08843 -3.50851,27.94733c-0.02139,0.44969 0.04999,3.20202 0.13969,6.33598" fill="none" stroke="#000000" stroke-width="1.5" stroke-linecap="butt"/><path d="M260.92044,296.8826l-5.07928,-35.76651c0,0 7.44052,-2.72879 11.02175,-4.46455c6.44867,-3.12555 24.59097,-11.88558 24.59097,-11.88558l13.01891,37.51783c0,0 -22.56532,10.94906 -30.38094,13.17741c-6.11212,1.74267 -13.1714,1.4214 -13.1714,1.4214z" fill="url(#color-3)" stroke="none" stroke-width="0" stroke-linecap="butt"/><path d="M250.21571,246.38888l21.36535,-34.18819c0,0 3.89472,1.96525 8.55655,4.92852c5.34123,3.39513 11.48637,7.71124 14.98258,9.74705c7.17122,4.17574 17.53801,9.13986 17.53801,9.13986l-14.71535,34.83556c0,0 -22.9644,-8.57457 -36.23682,-16.71392c-6.22983,-3.82046 -11.49033,-7.74888 -11.49033,-7.74888z" fill="url(#color-4)" stroke="none" stroke-width="0" stroke-linecap="butt"/><path d="M295.3172,284.87445c0,0 -1.51202,-5.9692 -1.5673,-12.9482c-0.06926,-8.74512 -0.10568,-16.99509 1.48794,-24.08023c1.36568,-6.07173 3.76908,-11.28804 10.17061,-15.22744c4.53339,-2.78978 10.33238,-2.74892 14.38759,-3.54374c0.78271,-0.15342 9.11408,3.00076 16.68991,6.13684c7.31569,3.0284 13.75506,6.60905 13.75506,6.60905l-25.45714,52.41567c0,0 -10.24957,-3.00225 -15.08342,-4.53804c-4.98379,-1.58342 -14.38325,-4.82393 -14.38325,-4.82393z" fill="url(#color-5)" stroke="none" stroke-width="0" stroke-linecap="butt"/><path d="M273.96015,236.74071c-4.22419,9.93302 -15.26432,15.93242 -21.26652,12.4786c-6.00221,-3.45382 -5.94358,-13.31004 -1.71938,-23.24306c4.22419,-9.93302 14.26432,-16.4304 20.26653,-12.97658c6.00221,3.45382 6.94358,13.80801 2.71938,23.74104z" fill="#e2e05f" stroke="#000000" stroke-width="1.5" stroke-linecap="butt"/><path d="M273.5922,253.60147l-19.66666,8.29962" fill="none" stroke="#000000" stroke-width="1.5" stroke-linecap="round"/><path d="M267.0922,296.5935c5.7269,0.69342 26.90305,-8.81383 31.13986,-10.6863c0.49349,-0.21809 25.62205,7.91186 25.62205,7.91186" fill="none" stroke="#000000" stroke-width="1.5" stroke-linecap="round"/><path d="M278.42554,279.24728c0,10.22177 -6.74052,18.01017 -16.08334,18.01017c-9.34281,0 -15.75,-7.12444 -15.75,-17.34621c0,-10.22177 2.90719,-18.84014 12.25,-18.84014c9.34281,0 19.58334,7.9544 19.58334,18.17617z" fill="#e2e05f" stroke="#000000" stroke-width="1.5" stroke-linecap="butt"/><path d="M255.37543,250.71691l10.11111,5.97573" fill="none" stroke="#000000" stroke-width="1.5" stroke-linecap="round"/><path d="M303.93099,231.68311c0,0 -10.00618,-5.10678 -14.93491,-8.00894c-5.86916,-3.4559 -18.95398,-11.25724 -18.95398,-11.25724" fill="none" stroke="#000000" stroke-width="1.5" stroke-linecap="round"/><path d="M366.3798,267.13002c-0.51677,14.89602 -15.22262,28.58389 -30.3,28.58389c-15.07738,0 -27.7,-12.07813 -27.7,-25.99441c0,-6.43656 2.68435,-14.52729 8.13671,-20.08032c6.336,-6.45301 16.05951,-10.39588 24.16329,-10.39588c15.07738,0 26.3,10.59153 25.7,27.88673z" fill="#e2e05f" stroke="#000000" stroke-width="1.5" stroke-linecap="butt"/><path d="M344.97774,238.9715c0,0 -7.56358,-2.97356 -9.36964,-3.80549" fill="none" stroke="#000000" stroke-width="1.5" stroke-linecap="round"/><g><path d="M422.15794,203.40049c0,0 -10.53435,4.39125 -16.02125,6.51085c-6.36292,2.45802 -16.85558,4.23596 -16.85558,4.23596c0,0 0.43212,-1.29597 2.91935,-3.81621c1.89173,-1.91684 6.1945,-5.49736 8.5515,-7.79175c1.44247,-1.40416 0.87711,-2.85287 1.33245,-5.1055c0.57395,-2.83946 2.88824,-7.18299 6.80133,-10.97148c1.57757,-1.52734 3.11766,-2.40161 5.07283,-3.26075c2.12959,-0.93578 4.16181,-1.71798 6.54378,-1.8073c5.11804,-0.19189 8.76378,2.47621 11.12024,3.89933c1.94461,1.1744 3.20131,1.22877 5.19359,1.08978c3.25539,-0.22709 8.14593,-0.55816 10.8135,-0.68969c3.5073,-0.17294 3.60651,0.73815 3.60651,0.73815c0,0 -6.91177,5.88067 -12.98334,9.00913c-5.23566,2.69773 -15.22323,7.61457 -15.22323,7.61457z" fill="#eced68" stroke="none" stroke-width="0" stroke-linecap="round"/><path d="M422.15794,203.40049c0,0 -10.34205,4.35953 -15.82895,6.47914c-6.36292,2.45802 -16.41111,3.51236 -16.41111,3.51236c0,0 0.56455,-0.66751 3.05178,-3.18775c1.10625,-1.12094 2.77397,-2.76741 4.43952,-4.40028c1.1826,-1.1594 3.34278,-3.2646 3.34278,-3.2646c0,0 0.95067,4.32154 7.43573,3.09873c3.35215,-0.63207 12.00378,-3.79513 19.25028,-6.33777c6.58585,-2.31082 11.66269,-4.78577 11.66269,-4.78577l-16.07105,8.54105z" fill="#8f8621" stroke="none" stroke-width="0" stroke-linecap="round"/><path d="M428.83881,191.97872c0.14281,0.35403 -3.4604,3.32951 -7.82776,5.56456c-0.64814,0.33169 -1.31313,0.64708 -1.98519,0.93517c-2.86349,1.22748 -8.82898,3.19996 -12.33209,3.88002c-3.81334,0.74027 -5.05263,0.13409 -5.05263,0.13409l1.47728,-7.06493c0,0 1.45519,4.65764 6.4919,4.31425c6.33279,-0.43177 19.04834,-8.20974 19.22848,-7.76315z" fill="#8f8621" stroke="none" stroke-width="0" stroke-linecap="butt"/><path d="M432.85347,187.62447c0,0 1.00536,2.69532 -10.95173,9.14635c-9.54291,5.14855 -18.16636,5.94048 -18.16636,5.94048" fill="none" stroke="#524d14" stroke-width="0.75" stroke-linecap="round"/><path d="M422.15794,203.40049c0,0 -10.42733,4.76568 -15.72874,6.45305c-5.76202,1.83398 -17.57683,4.14771 -17.57683,4.14771c0,0 3.38067,-4.07215 5.52911,-6.09171c2.00094,-1.88089 6.95053,-5.63927 6.95053,-5.63927c0,0 0.21139,-13.87463 12.62656,-19.06865c7.36442,-3.08099 11.92416,-2.28631 18.17344,1.48778c1.94461,1.1744 4.68417,1.69404 4.68417,1.69404c0,0 7.15634,-0.7639 9.84694,-0.81996c2.3849,-0.0497 5.49043,0.50037 5.49043,0.50037c0,0 -10.20794,7.0699 -15.39966,10.09891c-4.37623,2.55322 -13.72427,6.89285 -13.72427,6.89285z" fill="none" stroke="#000000" stroke-width="1.5" stroke-linecap="round"/></g><g><path d="M208.4826,195.81258c0,0 -11.66707,-0.30873 -17.65269,-0.55532c-6.94126,-0.28596 -17.14857,-1.92216 -17.14857,-1.92216c0,0 1.08621,-0.55847 4.64869,-1.24486c2.70955,-0.52206 8.44802,-1.31057 11.77285,-1.91296c2.03477,-0.36866 2.32586,-1.24737 3.95345,-2.28986c2.0516,-1.31407 6.45467,-2.97566 11.96329,-3.96518c2.2208,-0.39892 4.05299,-0.47269 6.24242,-0.43797c2.38474,0.03782 4.60013,0.1306 6.74617,0.66293c4.61109,1.14376 6.36838,3.39411 7.66836,4.69436c1.07277,1.073 2.14974,1.40579 3.97969,1.81811c2.99014,0.67374 7.4767,1.69106 9.89721,2.27108c3.18247,0.76259 2.77369,1.253 2.77369,1.253c0,0 -9.28835,1.33271 -16.33816,1.46061c-6.07921,0.11028 -17.55104,0.20325 -17.55104,0.20325z" fill="#fae06b" stroke="none" stroke-width="0" stroke-linecap="round"/><path d="M208.4826,195.81258c0,0 -11.48048,-0.2783 -17.4661,-0.52489c-6.94126,-0.28596 -16.36316,-2.18468 -16.36316,-2.18468c0,0 0.8606,-0.20466 4.42308,-0.89106c1.5845,-0.30529 3.94956,-0.74332 6.3053,-1.17491c1.67267,-0.30645 4.72115,-0.85977 4.72115,-0.85977c0,0 -1.51619,2.44264 4.85999,3.39047c3.29586,0.48994 12.63635,0.97044 20.40171,1.4275c7.05741,0.4154 12.87546,0.3806 12.87546,0.3806l-18.80208,0.47173z" fill="#8f8621" stroke="none" stroke-width="0" stroke-linecap="round"/><path d="M220.585,191.58769c-0.06704,0.21586 -4.86007,0.86445 -9.92275,0.94863c-0.75134,0.01249 -1.50862,0.01254 -2.25727,-0.00309c-3.18982,-0.0666 -9.51674,-0.50464 -12.97167,-1.00666c-3.76089,-0.54647 -4.52203,-1.15748 -4.52203,-1.15748l5.14799,-3.25764c0,0 -1.25496,2.73709 3.36703,3.78358c5.81134,1.31577 21.24326,0.42034 21.1587,0.69265z" fill="#8f8621" stroke="none" stroke-width="0" stroke-linecap="butt"/><path d="M226.49113,190.33324c0,0 -0.58247,1.62355 -14.62397,2.02384c-11.20648,0.31947 -19.23095,-1.36782 -19.23095,-1.36782" fill="none" stroke="#524d14" stroke-width="0.75" stroke-linecap="round"/><path d="M208.4826,195.81258c0,0 -11.77674,-0.09111 -17.36366,-0.51392c-6.07234,-0.45955 -17.7356,-2.14237 -17.7356,-2.14237c0,0 5.19426,-1.26391 8.18578,-1.77624c2.78612,-0.47716 9.19102,-1.19974 9.19102,-1.19974c0,0 7.74153,-7.0503 21.50189,-6.69605c8.16236,0.21013 11.74462,1.72338 15.19214,5.17161c1.07277,1.073 3.20208,2.00377 3.20208,2.00377c0,0 6.71737,1.34563 9.11706,1.96985c2.12705,0.5533 4.56202,1.58846 4.56202,1.58846c0,0 -12.83832,1.14151 -19.05923,1.43202c-5.24376,0.24488 -15.83815,0.19761 -15.83815,0.19761z" fill="none" stroke="#000000" stroke-width="1.5" stroke-linecap="round"/></g><path d="M211.4358,182.65893c0,0 0.24919,-1.86803 0.23895,-2.88228c-0.01348,-1.33546 -0.31279,-4.4353 -0.31279,-4.4353l2.16063,0.09486c0,0 -0.33971,2.71896 -0.57042,3.99123c-0.20201,1.114 -0.32463,3.17559 -0.32463,3.17559z" fill="#000000" stroke="#000000" stroke-width="0.5" stroke-linecap="butt"/><path d="M412.95993,183.41657c0,0 -0.30817,-1.48239 -0.86069,-2.43259c-0.72751,-1.25115 -2.7257,-4.02461 -2.7257,-4.02461l2.54533,-0.96394c0,0 1.05728,2.72629 1.46916,4.03696c0.36064,1.14763 1.27448,2.9741 1.27448,2.9741z" fill="#000000" stroke="#000000" stroke-width="1.5" stroke-linecap="butt"/><path d="M242.36963,273.48448c-5.24651,-6.10667 -17.4371,-20.08973 -17.4371,-20.08973l1.34343,-15.24166l2.05682,0.3842l-1.44422,14.32756c0,0 12.19003,15.53871 16.69581,19.1571c2.18797,1.75706 -1.21473,1.46252 -1.21473,1.46252z" fill="#000000" stroke="none" stroke-width="0" stroke-linecap="butt"/><g><g><path d="M223.33187,250.57297c0,0 -8.9946,-1.25914 -13.61025,-2.02364c-5.35258,-0.88655 -13.23908,-3.8236 -13.23908,-3.8236c0,0 0.82996,-0.67173 3.56651,-1.33613c2.08137,-0.50533 6.49345,-1.14945 9.04793,-1.71819c1.56333,-0.34808 1.77649,-1.50762 3.01751,-2.79049c1.5643,-1.61706 4.93626,-3.5309 9.16867,-4.46173c1.7063,-0.37527 3.11725,-0.34177 4.80487,-0.13668c1.83817,0.22338 3.54653,0.50838 5.20702,1.3789c3.56782,1.87043 4.95052,5.02109 5.96877,6.86216c0.84028,1.51929 1.67442,2.04436 3.08981,2.73078c2.31275,1.12161 5.783,2.81314 7.6556,3.76762c2.46208,1.2549 2.15329,1.88423 2.15329,1.88423c0,0 -7.14072,1.11839 -12.57169,0.78003c-4.68326,-0.29177 -13.52229,-0.99707 -13.52229,-0.99707z" fill="#fae06b" stroke="none" stroke-width="0" stroke-linecap="round"/><path d="M223.33187,250.57297c0,0 -8.85041,-1.20476 -13.46607,-1.96925c-5.35258,-0.88655 -12.63718,-4.11947 -12.63718,-4.11947c0,0 0.66058,-0.2127 3.39713,-0.8771c1.21715,-0.2955 3.03411,-0.71287 4.84398,-1.12226c1.28508,-0.29068 3.62724,-0.81349 3.62724,-0.81349c0,0 -1.13741,3.17213 3.7881,4.90706c2.54601,0.89679 9.74991,2.21832 15.7397,3.3944c5.44371,1.06886 9.92668,1.44317 9.92668,1.44317l-14.48294,-0.72689z" fill="#8f8621" stroke="none" stroke-width="0" stroke-linecap="round"/><path d="M232.60448,245.77237c-0.04892,0.28517 -3.73422,0.80973 -7.63447,0.55643c-0.57882,-0.03759 -1.16238,-0.09232 -1.73949,-0.1675c-2.45893,-0.32032 -7.34002,-1.36674 -10.00876,-2.29126c-2.90508,-1.0064 -3.49935,-1.88241 -3.49935,-1.88241l3.92575,-4.0043c0,0 -0.93237,3.58666 2.64261,5.32718c4.49491,2.18839 16.37543,2.10212 16.31372,2.46186z" fill="#8f8621" stroke="none" stroke-width="0" stroke-linecap="butt"/><path d="M237.13986,244.51434c0,0 -0.42828,2.13919 -11.24361,1.66083c-8.63169,-0.38177 -14.83675,-3.22948 -14.83675,-3.22948" fill="none" stroke="#524d14" stroke-width="0.75" stroke-linecap="round"/><path d="M223.33187,250.57297c0,0 -9.07634,-0.9747 -13.38699,-1.9471c-4.68518,-1.0569 -13.69424,-4.16192 -13.69424,-4.16192c0,0 3.98669,-1.32225 6.28547,-1.79411c2.14094,-0.43946 7.06741,-0.94678 7.06741,-0.94678c0,0 5.87626,-8.91233 16.48451,-7.44053c6.2926,0.87303 9.07228,3.16544 11.77266,8.04788c0.84028,1.51929 2.49294,2.92395 2.49294,2.92395c0,0 5.19347,2.29407 7.05059,3.30643c1.64612,0.89734 3.53564,2.46435 3.53564,2.46435c0,0 -9.87876,0.60461 -14.66893,0.54473c-4.03775,-0.05048 -12.2024,-0.8807 -12.2024,-0.8807z" fill="none" stroke="#000000" stroke-width="1.5" stroke-linecap="round"/></g><path d="M225.31854,234.03262c0,0 0.40239,-1.08112 0.41834,-1.91248c0.02101,-1.09466 -0.19515,-3.67149 -0.19515,-3.67149l2.13318,0.36717c0,0 -0.40568,2.1795 -0.66643,3.18972c-0.22831,0.88456 -0.36002,2.42481 -0.36002,2.42481z" fill="#000000" stroke="#000000" stroke-width="1.5" stroke-linecap="butt"/></g><g fill="#81782d" stroke="none" stroke-width="0.5" stroke-linecap="butt"><path d="M393.10974,257.48649c0.17166,-0.15222 0.33862,0.01406 0.33862,0.01406c0.2201,0.25207 0.30937,0.66799 0.19705,0.98275c-0.00685,0.01921 -0.01714,0.03918 -0.03024,0.05968c-0.02265,0.205 -0.12866,0.4009 -0.33868,0.57396c0.41357,0.12187 0.60647,0.85175 0.32513,1.14348c-0.25016,0.2594 -1.43202,-0.07626 -1.08327,0.01712c0.76522,0.20489 0.67762,0.81951 0.3488,1.24304c0.25691,0.0775 0.53525,0.285 0.79908,-0.03619c0.50061,-0.60945 1.81952,-2.33382 3.98503,-4.27276c2.90536,-2.60137 7.47746,-7.32478 7.47746,-7.32478c0,0 -6.3755,10.05756 -6.61259,11.18503c-0.46022,2.18852 -1.85573,2.98167 -3.95804,2.83977c-3.58538,-0.0427 -5.7844,-1.17589 -5.82223,-5.09559c-0.00002,-3.2166 3.12214,-2.55086 4.37387,-1.32955z"/><path d="M430.56821,218.99163c-0.32241,0.00913 -0.35597,0.25335 -0.28915,0.52446c0.01031,-0.05472 0.04333,-0.11234 0.12159,-0.15837c0.21527,-0.12661 0.34239,0.0878 0.34239,0.0878c0.01241,0.02202 0.02451,0.04371 0.03629,0.06506c0.08274,-0.17292 0.01573,-0.52538 -0.21112,-0.51895zM427.37936,214.81321c-1.41762,-2.69655 -1.95642,-5.20487 -1.95642,-5.20487c0,0 5.97491,9.77103 5.75511,10.20663l-0.14218,0.21918c0.43845,1.07253 -2.04898,-2.16314 -3.6565,-5.22094zM430.48789,219.9916c0.00059,-0.00281 0.00124,-0.00563 0.00193,-0.00843c-0.03112,-0.05151 -0.06797,-0.1113 -0.1112,-0.18007c0.03332,0.07716 0.06954,0.15037 0.10397,0.21444c0.0014,-0.00901 0.00322,-0.01769 0.0053,-0.02594z"/><path d="M414.55073,239.82576c-0.03395,-0.31944 -0.28102,-0.33397 -0.54728,-0.24677c0.05557,0.00604 0.1158,0.03437 0.1679,0.10855c0.1433,0.20403 -0.06155,0.34674 -0.06155,0.34674c-0.0211,0.01402 -0.04187,0.02771 -0.06233,0.04105c0.17947,0.06885 0.52715,-0.02481 0.50326,-0.24958zM418.4883,236.3377c2.59039,-1.6152 5.05998,-2.34324 5.05998,-2.34324c0,0 -9.32186,6.68498 -9.77486,6.50023l-0.23036,-0.12432c-1.03996,0.51792 2.00783,-2.2011 4.94524,-4.03267zM413.54348,239.82295c0.00286,0.00038 0.00573,0.0008 0.00859,0.00126c0.04917,-0.03487 0.10618,-0.07605 0.1717,-0.12428c-0.07468,0.03902 -0.14518,0.08062 -0.20667,0.11974c0.00914,0.0007 0.01797,0.00183 0.02639,0.00327z"/></g><path d="M248.33757,221.23329c-0.27761,0.16354 -0.18818,0.39339 0.00213,0.59832c-0.01759,-0.05285 -0.01674,-0.11919 0.02934,-0.19721c0.12675,-0.21462 0.34223,-0.08837 0.34223,-0.08837c0.02157,0.01328 0.04271,0.02641 0.0634,0.0394c-0.01173,-0.19118 -0.24178,-0.46721 -0.4371,-0.35214zM243.51549,219.11639c-2.55176,-1.67508 -4.24316,-3.60949 -4.24316,-3.60949c0,0 9.97961,5.66533 9.99919,6.15246l-0.01778,0.26035c0.90525,0.72675 -2.84466,-0.90383 -5.73826,-2.80331zM248.75368,222.14685c-0.00085,-0.00275 -0.00165,-0.00552 -0.00241,-0.00831c-0.05228,-0.03005 -0.11359,-0.06457 -0.18487,-0.10388c0.06667,0.05142 0.13397,0.09799 0.19526,0.13743c-0.00315,-0.00857 -0.00579,-0.01703 -0.00798,-0.02525z" fill="#888139" stroke="none" stroke-width="0.5" stroke-linecap="butt"/><path d="M248.33757,221.23329c-0.27761,0.16354 -0.18818,0.39339 0.00213,0.59832c-0.01759,-0.05285 -0.01674,-0.11919 0.02934,-0.19721c0.12675,-0.21462 0.34223,-0.08837 0.34223,-0.08837c0.02157,0.01328 0.04271,0.02641 0.0634,0.0394c-0.01173,-0.19118 -0.24178,-0.46721 -0.4371,-0.35214zM243.51549,219.11639c-2.55176,-1.67508 -4.24316,-3.60949 -4.24316,-3.60949c0,0 9.97961,5.66533 9.99919,6.15246l-0.01778,0.26035c0.90525,0.72675 -2.84466,-0.90383 -5.73826,-2.80331zM248.75368,222.14685c-0.00085,-0.00275 -0.00165,-0.00552 -0.00241,-0.00831c-0.05228,-0.03005 -0.11359,-0.06457 -0.18487,-0.10388c0.06667,0.05142 0.13397,0.09799 0.19526,0.13743c-0.00315,-0.00857 -0.00579,-0.01703 -0.00798,-0.02525z" fill="#888139" stroke="none" stroke-width="0.5" stroke-linecap="butt"/><path d="M248.33757,221.23329c-0.27761,0.16354 -0.18818,0.39339 0.00213,0.59832c-0.01759,-0.05285 -0.01674,-0.11919 0.02934,-0.19721c0.12675,-0.21462 0.34223,-0.08837 0.34223,-0.08837c0.02157,0.01328 0.04271,0.02641 0.0634,0.0394c-0.01173,-0.19118 -0.24178,-0.46721 -0.4371,-0.35214zM243.51549,219.11639c-2.55176,-1.67508 -4.24316,-3.60949 -4.24316,-3.60949c0,0 9.97961,5.66533 9.99919,6.15246l-0.01778,0.26035c0.90525,0.72675 -2.84466,-0.90383 -5.73826,-2.80331zM248.75368,222.14685c-0.00085,-0.00275 -0.00165,-0.00552 -0.00241,-0.00831c-0.05228,-0.03005 -0.11359,-0.06457 -0.18487,-0.10388c0.06667,0.05142 0.13397,0.09799 0.19526,0.13743c-0.00315,-0.00857 -0.00579,-0.01703 -0.00798,-0.02525z" fill="#888139" stroke="none" stroke-width="0.5" stroke-linecap="butt"/><path d="M247.68634,228.22197c-0.38551,-0.19127 -0.50674,-0.09288 -0.51788,0.07951c0.03048,-0.02035 0.08886,-0.02833 0.19704,-0.00321c0.29758,0.06911 0.37688,0.25053 0.37688,0.25053c0.00738,0.01825 0.01451,0.03613 0.02137,0.05366c0.1558,-0.03386 0.19383,-0.24592 -0.07741,-0.3805zM245.29672,224.25444c-0.78258,-2.17177 -0.58541,-3.71853 -0.58541,-3.71853c0,0 3.82996,8.37822 3.42397,8.45661l-0.24175,0.02027c0.16252,0.78769 -1.7094,-2.29565 -2.59681,-4.75834zM247.25768,228.65946c0.00164,-0.00101 0.00335,-0.00197 0.0051,-0.00292c-0.01975,-0.04394 -0.04353,-0.09537 -0.07188,-0.15506c0.0138,0.05774 0.03236,0.11532 0.05185,0.16739c0.00468,-0.00353 0.00971,-0.00665 0.01493,-0.0094z" fill="#888139" stroke="none" stroke-width="0.5" stroke-linecap="butt"/><path d="M391.11841,257.55081c0.37435,-0.09892 0.76758,-0.15162 1.17317,-0.15162c0.56367,0 1.58924,0.80847 1.54547,1.8819c-0.03171,0.77766 -1.27799,1.81268 -0.52545,2.21111c1.13343,0.60007 2.83339,-0.44487 4.47066,-0.17499c0.2682,0.04421 1.66253,1.34189 2.1322,1.60516c0.97769,0.54801 3.60314,-0.48248 5.57986,0.47126c1.97672,0.95374 3.50149,3.80821 3.88712,4.09645" fill="none" stroke="#000000" stroke-width="1.5" stroke-linecap="butt"/><path d="M228.05865,275.02297c0.21643,-0.15907 0.46627,-0.30604 0.74786,-0.43623c0.39134,-0.18092 1.45861,-0.19192 1.8999,0.24459c0.3197,0.31623 -0.09076,1.12359 0.60679,1.03885c1.05059,-0.12763 1.77164,-1.0845 3.02693,-1.5038c0.20563,-0.06868 1.74388,-0.00551 2.18564,-0.05265c0.91958,-0.09813 2.28953,-1.34638 4.08098,-1.60549c1.79145,-0.25911 4.10434,0.37488 4.49873,0.36454" fill="none" stroke="#000000" stroke-width="1.5" stroke-linecap="butt"/><g stroke="none" stroke-linecap="butt"><path d="M349.23096,235.45879c0.0021,-1.27958 -0.0367,-2.66194 -0.14534,-4.06142c-0.75853,-9.7706 -3.0134,-23.65765 -5.01069,-32.48852c-3.20045,-14.15056 -15.82819,-43.76664 -15.82819,-43.76664l5.24802,-1.88974c0,0 0.80619,6.21719 3.13092,14.35659c2.80374,9.81657 7.33447,22.43376 9.0035,30.37297c2.1281,10.123 4.98729,27.6804 6.4188,36.70083z" fill="#000000" stroke-width="0"/><path d="M346.79424,231.65097c0.01212,-0.22707 0.24805,-0.22933 0.24805,-0.22933c0.33447,0.01986 0.69381,0.24605 0.83931,0.54423c0.00888,0.0182 0.01589,0.03935 0.02131,0.06284c0.13025,0.15855 0.19545,0.36963 0.17122,0.63827c0.37763,-0.20728 1.03369,0.16404 1.04396,0.56556c0.00913,0.35704 -1.06099,0.95816 -0.74926,0.77683c0.684,-0.39787 1.06071,0.09138 1.1316,0.61808c0.23585,-0.12752 0.57947,-0.17976 0.53588,-0.58943c-0.08271,-0.77731 -0.38525,-2.90772 -0.24572,-5.78516c0.18722,-3.86051 0.03282,-10.37358 0.03282,-10.37358c0,0 2.69055,11.49576 3.32788,12.44722c1.23714,1.84684 0.82178,3.38379 -0.75717,4.76963c-2.55073,2.50206 -4.90458,3.26685 -7.72632,0.56787c-2.29379,-2.23675 0.37562,-3.97846 2.12643,-4.01308z" fill="#81782d" stroke-width="0.5"/><path d="M345.63248,207.29569c0.21231,0.07791 0.1407,0.42735 -0.0014,0.55607c-0.00281,-0.02401 -0.00579,-0.04846 -0.00892,-0.07334c0,0 -0.03633,-0.24447 -0.28348,-0.2074c-0.08985,0.01348 -0.14224,0.05436 -0.17252,0.10095c0.04096,-0.27443 0.16458,-0.48699 0.46633,-0.37626zM345.17911,208.18717c-0.00505,0.00683 -0.01002,0.01415 -0.01474,0.02194c-0.00756,-0.07173 -0.01333,-0.15256 -0.0149,-0.23595c0.01392,0.07933 0.02535,0.14801 0.03462,0.20696c-0.00171,0.00232 -0.00337,0.00467 -0.00499,0.00705z" fill="#81782d" stroke-width="0.5"/></g><path d="M342.21841,230.96673c0.30875,-0.07158 0.63308,-0.10973 0.96761,-0.10973c0.4649,0 1.31077,0.58504 1.27468,1.36183c-0.02616,0.56274 -1.05406,1.31174 -0.43338,1.60006c0.93484,0.43425 2.33693,-0.32193 3.68732,-0.12663c0.2212,0.03199 1.37122,0.97105 1.75861,1.16156c0.80638,0.39657 2.97181,-0.34915 4.60217,0.34101c1.63036,0.69017 2.88797,2.7558 3.20603,2.96438" fill="none" stroke="#000000" stroke-width="1.5" stroke-linecap="butt"/><g><path d="M327.04365,159.56266c0,0 -17.26639,1.10589 -25.56835,1.34172c-9.62743,0.27349 -28.61112,0.19593 -28.61112,0.19593c0,0 7.68391,-3.18125 12.21353,-4.89722c3.44514,-1.30513 9.81795,-3.61211 14.06428,-5.14134c2.59872,-0.93587 4.14828,-1.66164 5.85774,-3.82404c2.15479,-2.72572 6.55196,-7.21915 13.59153,-9.73667c2.83801,-1.01493 4.51933,-1.50488 7.52864,-1.69608c3.27777,-0.20825 5.16418,0.12116 8.35996,0.87607c6.8666,1.62208 11.56664,5.25778 13.98543,7.5642c1.99605,1.90331 3.63224,2.40633 6.33677,2.97142c4.41921,0.92334 11.05315,2.32091 14.64757,3.13382c4.72591,1.06881 12.78073,3.14963 12.78073,3.14963c0,0 -18.78661,2.71844 -28.35798,3.78731c-8.25361,0.92171 -25.50577,2.22934 -25.50577,2.22934z" fill="#eced68" stroke="none" stroke-width="0" stroke-linecap="round"/><path d="M327.04365,159.56266c0,0 -17.26639,1.10589 -25.56835,1.34172c-9.62743,0.27349 -28.61112,0.19593 -28.61112,0.19593c0,0 7.68391,-3.18125 12.21353,-4.89722c2.01467,-0.76321 5.0305,-1.86904 8.03678,-2.96158c2.13456,-0.77575 6.02749,-2.17976 6.02749,-2.17976c0,0 -0.86568,4.79718 8.31639,5.84166c4.74625,0.53989 17.74861,0.35281 28.5868,0.30624c9.85008,-0.04234 17.82719,0.0778 17.82719,0.0778l-25.50577,2.22934z" fill="#8f8621" stroke="none" stroke-width="0" stroke-linecap="round"/><path d="M341.49663,150.15316c0.01499,0.41608 -6.21501,2.20491 -13.0923,2.958c-1.02064,0.11177 -2.05553,0.20071 -3.08639,0.25899c-7.75452,0.4383 -17.9233,-0.57451 -21.46011,-0.4481c-2.90553,0.10384 -2.17892,-0.90036 -1.39389,-2.26298c1.68461,-2.92401 7.75548,-7.6456 7.75548,-7.6456c0,0 -4.81462,6.87515 2.0188,8.31197c8.59186,1.80654 29.23947,-1.69715 29.25839,-1.17226z" fill="#8f8621" stroke="none" stroke-width="0" stroke-linecap="butt"/><path d="M341.21693,150.82163c0,0 -2.92661,1.06576 -8.68449,2.01179c-7.63787,1.25491 -12.08067,1.24482 -19.80582,0.75046" fill="none" stroke="#524d14" stroke-width="0.75" stroke-linecap="round"/><path d="M327.04365,159.56266c0,0 -17.26639,1.10589 -25.56835,1.34172c-9.62743,0.27349 -28.61112,0.19593 -28.61112,0.19593c0,0 7.68391,-3.18125 12.21353,-4.89722c3.44514,-1.30513 9.81795,-3.61211 14.06428,-5.14134c2.59872,-0.93587 4.14828,-1.66164 5.85774,-3.82404c2.15479,-2.72572 6.55196,-7.21915 13.59153,-9.73667c2.83801,-1.01493 4.51933,-1.50488 7.52864,-1.69608c3.27777,-0.20825 5.16418,0.12116 8.35996,0.87607c6.8666,1.62208 11.56664,5.25778 13.98543,7.5642c1.99605,1.90331 3.63224,2.40633 6.33677,2.97142c4.41921,0.92334 11.05315,2.32091 14.64757,3.13382c4.72591,1.06881 12.78073,3.14963 12.78073,3.14963c0,0 -18.78661,2.71844 -28.35798,3.78731c-8.25361,0.92171 -25.50577,2.22934 -25.50577,2.22934z" fill="none" stroke="#000000" stroke-width="1.5" stroke-linecap="round"/></g><path d="M323.96437,135.9132c0,0 -0.09618,-2.19041 -0.31509,-3.35018c-0.28827,-1.52709 -1.26441,-5.01743 -1.26441,-5.01743l2.49448,-0.32916c0,0 0.16631,3.18352 0.16192,4.68771c-0.00384,1.31706 0.35144,3.98355 0.35144,3.98355z" fill="#000000" stroke="#000000" stroke-width="1.5" stroke-linecap="butt"/><path d="M334.37083,138.85754c5.94017,1.52654 9.23973,4.25122 9.14907,4.6379c-0.09065,0.38669 -3.41218,-1.86915 -9.35236,-3.39569c-5.94017,-1.52654 -9.66238,-1.76541 -9.57174,-2.1521c0.09065,-0.38669 3.83482,-0.61666 9.77501,0.90988z" fill="#faefbe" stroke="none" stroke-width="0" stroke-linecap="butt"/><path d="M369.28331,152.87822c0,0 -8.37134,-0.41446 -12.9318,-2.06489c-4.56048,-1.65044 -7.86349,-3.14353 -7.72876,-3.51281c0.13472,-0.36927 3.08381,0.66358 7.64428,2.31401c4.56048,1.65044 13.01629,3.26369 13.01629,3.26369z" fill="#faefbe" stroke="none" stroke-width="0" stroke-linecap="butt"/><g stroke-linecap="butt"><path d="M341.86991,146.35927c0.22166,-2.68257 2.65576,-4.77048 5.59095,-4.65202c2.93517,0.11846 5.03038,2.38681 4.92096,5.07627c-0.10942,2.68944 -2.34768,4.89996 -5.55819,4.80939c-3.05377,-0.08614 -5.18523,-2.43206 -4.95373,-5.23363z" fill="#ffffff" stroke="#000000" stroke-width="1.4"/><path d="M341.70849,147.75377c0.06303,-1.54935 1.37523,-2.75445 2.93089,-2.69168c1.55564,0.06278 2.76565,1.36968 2.70262,2.91903c-0.06303,1.54935 -1.37523,2.75445 -2.93087,2.69168c-1.55564,-0.06278 -2.76565,-1.36968 -2.70262,-2.91903z" fill="#000000" stroke="none" stroke-width="1.5"/></g><g stroke-linecap="butt"><path d="M300.3762,148.766c0.14857,-2.68757 2.8704,-4.80454 5.8343,-4.64205c2.9639,0.16251 4.88757,2.53651 4.73902,5.22409c-0.14857,2.68757 -2.47267,4.74259 -5.43658,4.58009c-2.9639,-0.16251 -5.2853,-2.47453 -5.13675,-5.16212z" fill="#ffffff" stroke="#000000" stroke-width="1.4"/><path d="M300.42292,150.07504c0.08378,-1.51546 1.38519,-2.67635 2.9068,-2.59292c1.52162,0.08344 2.68723,1.37959 2.60346,2.89504c-0.08378,1.51546 -1.38519,2.67635 -2.9068,2.59292c-1.52162,-0.08344 -2.68723,-1.37959 -2.60346,-2.89504z" fill="#000000" stroke="none" stroke-width="1.5"/></g></g></g></svg>