<svg version="1.1" xmlns="http://www.w3.org/2000/svg" xmlns:xlink="http://www.w3.org/1999/xlink" width="378" height="460.00001" viewBox="0,0,378,460.00001"><defs><linearGradient x1="320" y1="-67.5" x2="320" y2="269.5" gradientUnits="userSpaceOnUse" id="color-1"><stop offset="0" stop-color="#ffffd1"/><stop offset="1" stop-color="#f1f19c"/></linearGradient></defs><g transform="translate(-131,83.00001)"><g stroke-miterlimit="10"><path d="M145.24891,375c-6.76488,0 -12.24891,-5.33739 -12.24891,-11.9214v-432.15721c0,-6.58401 5.48402,-11.9214 12.24891,-11.9214h349.50219c6.76488,0 12.2489,5.33739 12.2489,11.9214v432.15721c0,6.584 -5.48402,11.9214 -12.2489,11.9214z" fill="#535311" fill-rule="nonzero" stroke="#212108" stroke-width="4" stroke-linecap="butt" stroke-linejoin="miter"/><path d="M160.66812,361.5c-6.16798,0 -11.16812,-4.94148 -11.16812,-11.03711v-406.92577c0,-6.09563 5.00014,-11.03711 11.16812,-11.03711h318.66376c6.16798,0 11.16812,4.94149 11.16812,11.03712v406.92577c0,6.09563 -5.00014,11.03711 -11.16812,11.03711z" fill="url(#color-1)" fill-rule="nonzero" stroke="#212108" stroke-width="4.5" stroke-linecap="butt" stroke-linejoin="miter"/><text transform="translate(160.5,-35.68135) scale(0.61033,0.61033)" font-size="40" xml:space="preserve" fill="#212108" fill-rule="nonzero" stroke="none" stroke-width="1" stroke-linecap="butt" stroke-linejoin="miter" font-family="&quot;Allan-Regular&quot;, Sans Serif" font-weight="normal" text-anchor="start"><tspan x="0" dy="0">name: Blendery</tspan><tspan x="0" dy="46.150000000000006px">age: blender age</tspan><tspan x="0" dy="46.150000000000006px">occupation: low rank dealer</tspan></text><g><path d="M432.53444,-56.08653h32.93116c6.43804,0 11.62097,5.18296 11.62097,11.62097v32.93116c0,6.43802 -5.18294,11.62098 -11.62097,11.62098h-32.93116c-6.43802,0 -11.62098,-5.18296 -11.62098,-11.62097v-32.93116c0,-6.43801 5.18296,-11.62097 11.62098,-11.62097z" fill="#a0a300" fill-rule="evenodd" stroke="#212108" stroke-width="2" stroke-linecap="round" stroke-linejoin="round"/><g fill="none" fill-rule="nonzero" stroke="none" stroke-width="1" stroke-linecap="butt" stroke-linejoin="miter" font-family="sans-serif" font-weight="normal" font-size="12" text-anchor="start"><g/><g/></g></g><path d="M160.16667,-30.16667v-1.66667h252.16667v1.66667z" fill="#212108" fill-rule="nonzero" stroke="none" stroke-width="0" stroke-linecap="butt" stroke-linejoin="miter"/><path d="M160.16667,-0.66667v-1.66667h252.16667v1.66667z" fill="#212108" fill-rule="nonzero" stroke="none" stroke-width="0" stroke-linecap="butt" stroke-linejoin="miter"/><path d="M160.16667,29.33333v-1.66667h252.16667v1.66667z" fill="#212108" fill-rule="nonzero" stroke="none" stroke-width="0" stroke-linecap="butt" stroke-linejoin="miter"/><g fill-rule="nonzero" stroke="none" stroke-width="0" stroke-linecap="butt" stroke-linejoin="miter"><path d="M436.1674,-5.63598l4.46925,-13.22218l17.22177,0.10869l3.62515,13.12625z" fill="#000000"/><path d="M440.51879,-18.09811l-4.72492,-24.28452h26.73834l-4.58428,24.37267z" fill="#d9db56"/><path d="M433.29394,-41.85605v-4.239h31.41212v4.239z" fill="#000000"/><path d="M435.03302,-45.22552l4.89116,-4.67378l18.47772,-0.10869l4.99985,4.99985z" fill="#000000"/></g><text transform="translate(158.5,53.36124) scale(0.46091,0.51044)" font-size="40" xml:space="preserve" fill="#212108" fill-rule="nonzero" stroke="none" stroke-width="1" stroke-linecap="butt" stroke-linejoin="miter" font-family="&quot;Allan-Regular&quot;, Sans Serif" font-weight="normal" text-anchor="start"><tspan x="0" dy="0">Description-</tspan><tspan x="0" dy="46.150000000000006px">Blendery had a dream, to win the hit reality TV show </tspan><tspan x="0" dy="46.150000000000006px">“Battle to lick my feet”, and get a taste of yummy lexicon </tspan><tspan x="0" dy="46.150000000000006px">tootsies. However, he was the first to leave the show at </tspan><tspan x="0" dy="46.150000000000006px">only 97 votes, just 7 short of dresser drawer. Instead of </tspan><tspan x="0" dy="46.150000000000006px">being subjected to a weird hellscape situation like most </tspan><tspan x="0" dy="46.150000000000006px">object shows, he was sent out to the streets of Cincinnati, </tspan><tspan x="0" dy="46.150000000000006px">left to sell his body for services (people used him to make </tspan><tspan x="0" dy="46.150000000000006px">milkshakes). One day, the Boss’s blender broke after she </tspan><tspan x="0" dy="46.150000000000006px">put a jawbreaker in it, and ordered some of the lackeys to </tspan><tspan x="0" dy="46.150000000000006px">go get her a new one. Not wanting to spend their hard </tspan><tspan x="0" dy="46.150000000000006px">earned paycheck, they kidnapped Blendery and he’s been </tspan><tspan x="0" dy="46.150000000000006px">working for the MCS ever since.</tspan><tspan x="0" dy="46.150000000000006px"> </tspan></text></g></g></svg>