<svg version="1.1" xmlns="http://www.w3.org/2000/svg" xmlns:xlink="http://www.w3.org/1999/xlink" width="188.91508" height="45.83424" viewBox="0,0,188.91508,45.83424"><defs><linearGradient x1="262.33967" y1="212.00297" x2="262.33967" y2="231.57846" gradientUnits="userSpaceOnUse" id="color-1"><stop offset="0" stop-color="#000000" stop-opacity="0"/><stop offset="1" stop-color="#000000" stop-opacity="0.54118"/></linearGradient><linearGradient x1="262.05293" y1="188.08068" x2="262.05293" y2="225.88451" gradientUnits="userSpaceOnUse" id="color-2"><stop offset="0" stop-color="#1c1c00" stop-opacity="0.55294"/><stop offset="1" stop-color="#1c1c00" stop-opacity="0"/></linearGradient><linearGradient x1="262.33967" y1="212.25297" x2="262.33967" y2="231.82846" gradientUnits="userSpaceOnUse" id="color-3"><stop offset="0" stop-color="#000000" stop-opacity="0"/><stop offset="1" stop-color="#000000" stop-opacity="0.54118"/></linearGradient><linearGradient x1="262.33967" y1="188.2442" x2="262.33967" y2="231.57846" gradientUnits="userSpaceOnUse" id="color-4"><stop offset="0" stop-color="#ffff94"/><stop offset="1" stop-color="#cccc48"/></linearGradient><linearGradient x1="351.84341" y1="191.84762" x2="351.84341" y2="211.95644" gradientTransform="translate(-813.11488,-493.96131) scale(2.80411,2.38703)" gradientUnits="userSpaceOnUse" id="color-5"><stop offset="0" stop-color="#ffffff"/><stop offset="1" stop-color="#fdff9d"/></linearGradient><linearGradient x1="342.09151" y1="211.52761" x2="342.09151" y2="228.56967" gradientTransform="translate(-958.43533,-631.80177) scale(3.30874,2.81658)" gradientUnits="userSpaceOnUse" id="color-6"><stop offset="0" stop-color="#ffffff"/><stop offset="1" stop-color="#fdff9d"/></linearGradient></defs><g transform="translate(-225.25624,-186.9942)"><g stroke-miterlimit="10"><g><path d="M249.27967,188.2442h26.12002c5.10646,0 9.21741,3.99835 9.21741,8.96489v25.40446c0,4.96655 -4.11096,8.96489 -9.21741,8.96489h-26.12002c-5.10644,0 -9.21743,-3.99836 -9.21743,-8.96489v-25.40445c0,-4.96655 4.11099,-8.96489 9.21743,-8.96489z" fill="#6e6e30" fill-rule="evenodd" stroke="none" stroke-width="4.43922" stroke-linecap="round" stroke-linejoin="round"/><path d="M284.61712,222.61357c0,4.96655 -4.11097,8.96489 -9.21742,8.96489h-26.12002c-5.10644,0 -9.21742,-3.99835 -9.21742,-8.96489v-10.61059c8.88121,0.04533 18.3634,0.13124 27.11866,0.13175c5.81207,0.00033 11.62414,-0.00626 17.43622,-0.01044z" fill="url(#color-1)" fill-rule="nonzero" stroke="none" stroke-width="4.43922" stroke-linecap="butt" stroke-linejoin="miter"/><path d="M249.11113,188.61893c0,0 -3.95964,3.70779 -4.09603,8.09547c-0.19541,6.28641 -0.35704,13.96842 -2.08069,14.1409c-1.63048,0.16315 -1.52495,-6.62113 -1.80971,-12.71206c-0.07558,-1.61665 -0.20529,-3.18203 -0.34631,-4.56079c0.69899,-0.5495 1.1887,-1.35322 1.32983,-2.27183c0.70529,-0.3159 1.28992,-0.85299 1.66564,-1.52301c0.84661,-0.12983 1.59569,-0.55574 2.1382,-1.16868z" fill="#ffff94" fill-rule="nonzero" stroke="none" stroke-width="0" stroke-linecap="butt" stroke-linejoin="miter"/><path d="M247.04016,207.80451c0,0 3.29817,12.54174 0.42005,12.73425c-2.9218,0.19543 -0.42005,-12.73425 -0.42005,-12.73425z" fill="#ffff94" fill-rule="nonzero" stroke="none" stroke-width="0" stroke-linecap="butt" stroke-linejoin="miter"/><path d="M244.35042,191.57187l16.68562,-0.26339c0,0 -2.74147,2.73672 -3.82729,5.81487c-1.11809,3.16961 -0.63207,6.68534 -4.2431,6.83004c-4.13447,0.08676 -3.91499,-4.08944 -5.05403,-7.51727c-0.90704,-2.72964 -3.56119,-4.86426 -3.56119,-4.86426z" fill="#ffff94" fill-rule="nonzero" stroke="none" stroke-width="0" stroke-linecap="butt" stroke-linejoin="miter"/><path d="M280.57568,195.67025c-1.60054,0.67543 -3.96763,-1.48848 -6.91859,-1.65333c-1.27215,-0.07106 -2.57984,1.8352 -4.10209,1.84568c-2.37621,0.01636 -2.77581,-1.70215 -5.64315,-1.68143c-3.83109,0.02767 -1.9662,-2.05769 -4.66479,-2.20763c-0.2105,-0.0117 -12.09039,3.36848 -12.29426,3.36232c-1.47129,-0.04447 -0.95386,1.59008 -0.86276,3.3116c0.09987,1.88741 -0.18234,3.86489 -1.03703,3.50194c-0.39917,-0.16951 -0.17725,-1.25056 -0.40584,-2.29199c-0.11612,-0.529 -0.66779,-0.99457 -0.82196,-1.43428c-0.68671,-1.95834 -1.49179,-4.46127 -2.0578,-6.04812c0.166,-0.32895 1.63072,-1.91736 2.00645,-2.58738c0.41466,-0.06359 1.71834,-0.91299 2.94815,-1.25171c1.2811,-0.35286 2.25208,-0.29763 3.6465,-0.34671c3.32318,-0.11695 7.98224,-0.00061 10.85947,-0.00061c3.21364,0 9.02795,-0.21076 12.82358,-0.08838c2.67982,0.0864 3.81462,0.3138 3.81462,0.3138c0.42745,0.29623 1.17856,0.70685 1.71327,0.79429c0.26197,0.17859 0.54883,0.32338 0.85432,0.42807c0.42648,0.61973 1.04279,1.0987 1.76499,1.35297c0.14999,0.24363 0.32828,0.46797 0.53033,0.66842c0.16966,0.48567 0.44085,0.92369 0.78812,1.28864c0.05751,0.16501 0.12674,0.32452 0.20668,0.47754c-0.64613,0.81931 -1.64014,1.60988 -3.14822,2.2463z" fill="#ffff94" fill-rule="nonzero" stroke="none" stroke-width="0" stroke-linecap="butt" stroke-linejoin="miter"/><path d="M276.25214,196.31051c0,0 3.18427,9.3636 0.40555,9.50731c-2.8209,0.1459 -0.40555,-9.50731 -0.40555,-9.50731z" fill="#ffff94" fill-rule="nonzero" stroke="none" stroke-width="0" stroke-linecap="butt" stroke-linejoin="miter"/><path d="M284.55713,207.48149c0,0 -3.17665,-1.95851 -2.98175,-5.38249c0.16841,-2.9587 1.01483,-6.6149 1.76,-9.35887c0.05799,0.07107 0.11865,0.13989 0.18183,0.20628c0.14675,0.42106 0.3698,0.80636 0.6526,1.13935c0.07045,0.37251 0.1985,0.72464 0.37456,1.04679z" fill="#ffff94" fill-rule="nonzero" stroke="none" stroke-width="0" stroke-linecap="butt" stroke-linejoin="miter"/><path d="M284.42757,225.76266c-5.83743,-0.00419 -35.82934,0.0763 -44.7493,0.12184v-28.79979c0,-4.98822 4.12893,-9.00402 9.25766,-9.00402h26.234c5.12873,0 9.25764,4.0158 9.25764,9.00402z" fill="url(#color-2)" fill-rule="nonzero" stroke="none" stroke-width="4.43922" stroke-linecap="butt" stroke-linejoin="miter"/><path d="M284.61712,222.86357c0,4.96655 -4.11097,8.96489 -9.21742,8.96489h-26.12002c-5.10644,0 -9.21742,-3.99835 -9.21742,-8.96489v-10.61059c8.88121,0.04533 18.3634,0.13124 27.11866,0.13175c5.81207,0.00033 11.62414,-0.00626 17.43622,-0.01044z" fill="url(#color-3)" fill-rule="nonzero" stroke="none" stroke-width="4.43922" stroke-linecap="butt" stroke-linejoin="miter"/><path d="M249.27967,188.2442h26.12002c5.10646,0 9.21741,3.99835 9.21741,8.96489v25.40446c0,4.96655 -4.11096,8.96489 -9.21741,8.96489h-26.12002c-5.10644,0 -9.21743,-3.99836 -9.21743,-8.96489v-25.40445c0,-4.96655 4.11099,-8.96489 9.21743,-8.96489z" fill="none" fill-rule="evenodd" stroke="url(#color-4)" stroke-width="2.5" stroke-linecap="round" stroke-linejoin="round"/></g><text transform="translate(289.97303,206.93521) scale(0.35662,0.41893)" font-size="40" xml:space="preserve" fill="url(#color-5)" fill-rule="nonzero" stroke="none" stroke-width="1" stroke-linecap="butt" stroke-linejoin="miter" font-family="&quot;Allan-Bold&quot;, Sans Serif" font-weight="normal" text-anchor="start"><tspan x="0" dy="0">The Yellow Album</tspan></text><path d="M225.25624,209.23653c0,-2.02211 1.63925,-3.66135 3.66136,-3.66135c2.02211,0 3.66135,1.63924 3.66135,3.66135c0,2.02211 -1.63924,3.66135 -3.66135,3.66135c-2.02211,0 -3.66136,-1.63924 -3.66136,-3.66135z" fill="#feffce" fill-rule="nonzero" stroke="none" stroke-width="0" stroke-linecap="butt" stroke-linejoin="miter"/><text transform="translate(289.66791,224.3149) scale(0.30223,0.35504)" font-size="40" xml:space="preserve" fill="url(#color-6)" fill-rule="nonzero" stroke="none" stroke-width="1" stroke-linecap="butt" stroke-linejoin="miter" font-family="&quot;Allan-Regular&quot;, Sans Serif" font-weight="normal" text-anchor="start"><tspan x="0" dy="0">place all 4 members of Musteezer</tspan></text><g fill-rule="nonzero" stroke-width="2" stroke-linecap="butt" stroke-linejoin="miter"><g fill="#d9db56" stroke="#1c1c00"><path d="M258.75317,198.5316l3.72342,7.57735l3.56734,-7.39416l7.46482,17.17162l0.11996,2.55924l-1.79566,-0.00213l-5.68817,-13.3488l-3.71282,8.35242l-3.44902,-8.13809l-6.05984,13.04635l-1.68779,0.01027v-2.51925z"/><path d="M253.19483,215.92639l-0.27991,2.43927l-9.63712,0.03999l0.87973,-2.47926z"/><path d="M280.38669,215.96637l0.87973,2.47926h-9.39719l-0.51985,-2.47926z"/><path d="M254.31449,211.00786v2.31931h-8.87734l1.11967,-2.31931z"/><path d="M277.94742,211.00786l1.11967,2.31931h-8.87734v-2.31931z"/></g><g fill="#fcff63" stroke="none"><path d="M258.75317,198.5316l3.72342,7.57735l3.56734,-7.39416l7.46482,17.17162l0.11996,2.55924l-1.79566,-0.00213l-5.68817,-13.3488l-3.71282,8.35242l-3.44902,-8.13809l-6.05984,13.04635l-1.68779,0.01027v-2.51924z"/><path d="M253.19483,215.92639l-0.27992,2.43927l-9.63712,0.03999l0.87973,-2.47926z"/><path d="M280.38669,215.96637l0.87973,2.47926h-9.39719l-0.51985,-2.47926z"/><path d="M254.31449,211.00786v2.31931h-8.87734l1.11966,-2.31931z"/><path d="M277.94742,211.00786l1.11967,2.31931h-8.87734v-2.31931z"/></g></g></g></g></svg>