<svg version="1.1" xmlns="http://www.w3.org/2000/svg" xmlns:xlink="http://www.w3.org/1999/xlink" width="34.17311" height="34.17311" viewBox="0,0,34.17311,34.17311"><g transform="translate(-302.91346,-162.9135)"><g stroke-miterlimit="10"><path d="M309.98312,162.9135h20.03379c3.9166,0 7.06966,3.15307 7.06966,7.06966v20.03379c0,3.91659 -3.15306,7.06966 -7.06966,7.06966h-20.03379c-3.91659,0 -7.06966,-3.15307 -7.06966,-7.06966v-20.03379c0,-3.91659 3.15307,-7.06966 7.06966,-7.06966z" fill="#787878" fill-rule="evenodd" stroke="none" stroke-width="0" stroke-linecap="round" stroke-linejoin="round"/><g fill-rule="nonzero" stroke-width="1" stroke-linejoin="miter"><path d="M309.40774,184.9506c-0.02291,2.10032 -0.33593,3.79977 -0.69914,3.79581c-0.36321,-0.00396 -0.63908,-1.70983 -0.61617,-3.81016c0.02291,-2.10032 0.33593,-3.79977 0.69915,-3.79581c0.36321,0.00396 0.63908,1.70983 0.61617,3.81016z" fill="#8a8a8a" stroke="none" stroke-linecap="butt"/><path d="M332.74276,178.44428c0.56758,-0.02227 1.08056,1.30718 1.14579,2.96938c0.06522,1.66223 -0.34203,3.02776 -0.9096,3.05003c-0.56758,0.02227 -1.08056,-1.30718 -1.14579,-2.96938c-0.06522,-1.66223 0.34202,-3.02776 0.9096,-3.05003z" fill="#8a8a8a" stroke="none" stroke-linecap="butt"/><path d="M332.50739,181.61979c-0.01816,1.66338 -0.4933,3.00682 -1.06128,3.00063c-0.56798,-0.00619 -1.01372,-1.35965 -0.99557,-3.02306c0.01816,-1.66338 0.4933,-3.00681 1.06128,-3.00062c0.56798,0.00619 1.01372,1.35965 0.99557,3.02305z" fill="#8a8a8a" stroke="none" stroke-linecap="butt"/><path d="M329.62192,179.0091c0.65665,-0.2441 1.38367,1.32368 1.62385,3.50173c0.24017,2.17805 -0.09744,4.14161 -0.7541,4.38571c-0.65665,0.2441 -1.38367,-1.32369 -1.62384,-3.50174c-0.24017,-2.17805 0.09744,-4.1416 0.75409,-4.3857z" fill="#8a8a8a" stroke="none" stroke-linecap="butt"/><path d="M326.88579,181.71414c0.4511,0.04996 0.63124,2.12705 0.40236,4.63931c-0.22888,2.51226 -0.78012,4.50835 -1.23121,4.45839c-0.4511,-0.04996 -0.63124,-2.12705 -0.40235,-4.63931c0.22888,-2.51226 0.78012,-4.50835 1.23121,-4.45839z" fill="#8a8a8a" stroke="none" stroke-linecap="butt"/><path d="M328.07903,182.01222c0.69085,0.18619 1.21475,1.42127 1.1702,2.75861c-0.04456,1.33736 -0.64073,2.27054 -1.33158,2.08435c-0.69085,-0.18619 -1.21476,-1.42128 -1.17021,-2.75861c0.04456,-1.33736 0.64074,-2.27054 1.33159,-2.08435z" fill="#8a8a8a" stroke="none" stroke-linecap="butt"/><path d="M328.94372,182.13788c0.36295,-0.01424 0.72395,1.67567 0.8063,3.7745c0.08235,2.09884 -0.14513,3.81183 -0.50808,3.82607c-0.36295,0.01424 -0.72395,-1.67566 -0.8063,-3.7745c-0.08235,-2.09884 0.14513,-3.81184 0.50808,-3.82608z" fill="#8a8a8a" stroke="none" stroke-linecap="butt"/><path d="M325.19253,183.09325c0.4372,-0.01715 0.83234,1.0069 0.88258,2.28727c0.05024,1.28039 -0.26345,2.33225 -0.70065,2.3494c-0.4372,0.01715 -0.83235,-1.00691 -0.88259,-2.28728c-0.05024,-1.28039 0.26346,-2.33225 0.70066,-2.34939z" fill="#8a8a8a" stroke="none" stroke-linecap="butt"/><path d="M323.86958,186.30181c0.2999,2.50477 0.17863,4.58613 -0.27087,4.64883c-0.4495,0.06271 -1.05701,-1.91698 -1.35691,-4.42175c-0.2999,-2.50477 -0.17862,-4.58614 0.27088,-4.64884c0.4495,-0.06271 1.057,1.91699 1.3569,4.42176z" fill="#8a8a8a" stroke="none" stroke-linecap="butt"/><path d="M322.74908,186.15342c0.08239,1.33554 -0.40635,2.58495 -1.09166,2.79063c-0.6853,0.20568 -1.30765,-0.71027 -1.39004,-2.04583c-0.08239,-1.33554 0.40634,-2.58495 1.09165,-2.79062c0.6853,-0.20568 1.30766,0.71026 1.39005,2.04582z" fill="#8a8a8a" stroke="none" stroke-linecap="butt"/><path d="M321.08374,186.17203c-0.02291,2.10032 -0.33593,3.79977 -0.69915,3.79581c-0.36321,-0.00396 -0.63908,-1.70983 -0.61617,-3.81016c0.02291,-2.10032 0.33593,-3.79977 0.69915,-3.79581c0.36321,0.00396 0.63908,1.70983 0.61617,3.81016z" fill="#8a8a8a" stroke="none" stroke-linecap="butt"/><path d="M325.0112,185.5393c-0.01398,1.28128 -0.37999,2.31612 -0.8175,2.31135c-0.43751,-0.00477 -0.78085,-1.04733 -0.76687,-2.32863c0.01398,-1.28128 0.37998,-2.31611 0.81749,-2.31134c0.43751,0.00477 0.78086,1.04733 0.76687,2.32862z" fill="#8a8a8a" stroke="none" stroke-linecap="butt"/><path d="M319.01237,188.26826c0.2488,3.3297 0.1472,5.9857 -0.22695,5.9323c-0.37413,-0.05338 -0.87913,-2.79594 -1.12793,-6.12564c-0.2488,-3.3297 -0.1472,-5.9857 0.22695,-5.9323c0.37413,0.05338 0.87913,2.79594 1.12793,6.12564z" fill="#8a8a8a" stroke="none" stroke-linecap="butt"/><path d="M317.95883,186.34086c0.08239,1.33554 -0.40635,2.58495 -1.09166,2.79062c-0.6853,0.20568 -1.30765,-0.71027 -1.39004,-2.04582c-0.08239,-1.33554 0.40635,-2.58495 1.09166,-2.79062c0.6853,-0.20568 1.30765,0.71027 1.39004,2.04582z" fill="#8a8a8a" stroke="none" stroke-linecap="butt"/><path d="M318.08997,185.09391c-0.01136,1.04087 -0.30868,1.88153 -0.6641,1.87766c-0.35542,-0.00387 -0.63434,-0.85082 -0.62298,-1.89169c0.01136,-1.04087 0.30868,-1.88153 0.66411,-1.87766c0.35542,0.00387 0.63433,0.85081 0.62298,1.89169z" fill="#000000" stroke="none" stroke-linecap="butt"/><path d="M316.29344,186.35946c-0.02291,2.10032 -0.33593,3.79978 -0.69915,3.79581c-0.36321,-0.00396 -0.63908,-1.70983 -0.61617,-3.81016c0.02291,-2.10032 0.33593,-3.79978 0.69915,-3.79581c0.36321,0.00396 0.63908,1.70983 0.61617,3.81016z" fill="#8a8a8a" stroke="none" stroke-linecap="butt"/><path d="M320.22092,185.72673c-0.01398,1.28128 -0.37999,2.31611 -0.8175,2.31134c-0.43751,-0.00477 -0.78085,-1.04733 -0.76687,-2.32862c0.01398,-1.28128 0.37998,-2.31611 0.81749,-2.31134c0.43751,0.00477 0.78086,1.04732 0.76687,2.32862z" fill="#8a8a8a" stroke="none" stroke-linecap="butt"/><path d="M312.46817,186.17801c-0.01136,1.04087 -0.30868,1.88153 -0.66411,1.87766c-0.35542,-0.00387 -0.63434,-0.85081 -0.62298,-1.89169c0.01136,-1.04087 0.30868,-1.88153 0.66411,-1.87766c0.35542,0.00387 0.63434,0.85081 0.62298,1.89169z" fill="#8a8a8a" stroke="none" stroke-linecap="butt"/><path d="M310.67161,187.44356c-0.02291,2.10033 -0.33593,3.79978 -0.69914,3.79581c-0.36321,-0.00396 -0.63909,-1.70983 -0.61618,-3.81016c0.02291,-2.10033 0.33593,-3.79978 0.69915,-3.79581c0.36321,0.00396 0.63908,1.70983 0.61617,3.81016z" fill="#8a8a8a" stroke="none" stroke-linecap="butt"/><path d="M314.59909,186.81083c-0.01398,1.28128 -0.37998,2.31611 -0.81749,2.31134c-0.43751,-0.00477 -0.78086,-1.04733 -0.76687,-2.32862c0.01398,-1.28128 0.37999,-2.31611 0.8175,-2.31134c0.43751,0.00477 0.78085,1.04733 0.76687,2.32862z" fill="#8a8a8a" stroke="none" stroke-linecap="butt"/><path d="M315.47767,185.2368c-0.01137,1.04226 -1.39818,1.87216 -3.09754,1.85363c-1.69936,-0.01853 -3.06774,-0.87849 -3.05637,-1.92075c0.01137,-1.04226 1.39819,-1.87217 3.09754,-1.85363c1.69936,0.01853 3.06773,0.8785 3.05636,1.92077z" fill="#8a8a8a" stroke="none" stroke-linecap="butt"/><path d="M330.98652,175.06158c1.07497,4.63187 -3.28188,9.60012 -9.73132,11.09692c-6.44943,1.49679 -12.54916,-1.04468 -13.62413,-5.67654c-1.07497,-4.63187 3.28188,-9.60013 9.73132,-11.09693c6.44943,-1.49679 12.54916,1.04468 13.62414,5.67655z" fill="#c1c1c1" stroke="#8a8a8a" stroke-linecap="butt"/><path d="M314.0397,179.2126c0.62495,2.73902 -0.86374,5.43462 -3.32509,6.02079c-2.46135,0.58617 -4.9633,-1.15905 -5.58825,-3.89808c-0.62495,-2.73902 0.86374,-5.43462 3.3251,-6.02079c2.46135,-0.58617 4.96329,1.15906 5.58825,3.89808z" fill="#c1c1c1" stroke="#8a8a8a" stroke-linecap="butt"/><path d="M312.28864,184.89332c0,0 -2.43295,-7.28083 -2.81503,-9.00958c-0.15757,-0.71292 0.50499,-1.44232 0.50499,-1.44232l5.54751,-1.03598l2.26997,10.27065c0,0 -3.83553,1.29128 -4.66798,1.47527c-0.28139,0.06219 -0.83947,-0.25804 -0.83947,-0.25804z" fill="#c1c1c1" stroke="none" stroke-linecap="butt"/><path d="M328.00597,170.86593c3.71365,-0.7786 5.6285,1.48159 6.20677,4.23093c0.57827,2.74934 -0.399,4.9467 -4.11265,5.7253c-3.71365,0.7786 -7.19295,-0.81899 -7.77122,-3.56833c-0.57827,-2.74934 1.96345,-5.6093 5.6771,-6.3879z" fill="#c1c1c1" stroke="#8a8a8a" stroke-linecap="butt"/><path d="M328.0279,181.7949c-0.83245,0.18399 -5.93539,0.61478 -5.93539,0.61478l-3.04203,-10.03665l6.46458,-1.90403c0,0 1.86373,1.12155 2.0213,1.83447c0.38208,1.72875 1.14408,8.90364 1.14408,8.90364c0,0 -0.37114,0.5256 -0.65253,0.58779z" fill="#c1c1c1" stroke="none" stroke-linecap="butt"/><path d="M312.10632,180.81479c0,0 6.39399,1.52308 8.34811,1.07012c1.96395,-0.45523 7.01781,-4.65634 7.01781,-4.65634c0,0 0.23865,-0.9039 0.26836,-0.51175c0.02577,0.34014 0.32093,1.75795 0.33612,2.86681c0.02219,1.61971 -0.24154,3.01426 -0.24154,3.01426c0,0 -4.27365,2.78295 -6.31068,3.265c-2.01741,0.47741 -6.76646,0.06883 -6.76646,0.06883c0,0 -1.27863,-2.36192 -1.6763,-3.20919c-0.05371,-0.11442 -0.80783,-1.05742 -0.88641,-1.21418c-0.31955,-0.63746 -0.08901,-0.69357 -0.08901,-0.69357z" fill="none" stroke="#8a8a8a" stroke-linecap="round"/><path d="M316.89862,186.15565l-1.94074,-4.76714l0.30142,0.50368" fill="none" stroke="#8a8a8a" stroke-linecap="round"/><path d="M317.88323,182.0093l1.21707,3.78648" fill="none" stroke="#8a8a8a" stroke-linecap="round"/><path d="M320.81622,181.80463l0.84824,3.55116" fill="none" stroke="#8a8a8a" stroke-linecap="round"/><path d="M323.71049,180.27782l0.27012,4.37597" fill="none" stroke="#8a8a8a" stroke-linecap="round"/><path d="M326.14923,183.85765l-0.50413,-5.14802" fill="none" stroke="#8a8a8a" stroke-linecap="round"/><path d="M327.78371,180.6449c0,0 -4.20245,2.47154 -6.56042,3.0034c-2.28744,0.51595 -7.38222,0.1415 -7.38222,0.1415" fill="none" stroke="#8a8a8a" stroke-linecap="round"/><path d="M327.38169,174.23866c0.48304,2.18552 -1.10536,4.71166 -3.25751,5.18732c-0.8993,0.19876 -1.75576,0.25368 -2.84481,-0.6843c-0.90762,-0.78172 -1.4101,-1.50823 -1.69129,-2.78051c-0.48304,-2.18552 0.87005,-4.34282 3.0222,-4.81848c2.15215,-0.47566 4.28838,0.91045 4.77141,3.09597z" fill="none" stroke="#8a8a8a" stroke-linecap="butt"/><path d="M325.72981,175.07901c0.27286,1.23456 -0.26605,2.40337 -1.2037,2.6106c-0.93765,0.20723 -1.91895,-0.62559 -2.19181,-1.86014c-0.27286,-1.23456 0.26606,-2.40337 1.2037,-2.6106c0.93765,-0.20723 1.91895,0.62557 2.19181,1.86014z" fill="#8a8a8a" stroke="#8a8a8a" stroke-linecap="butt"/><path d="M318.69523,176.22187c0.28119,1.27228 0.13171,2.14288 -0.36192,3.2343c-0.5923,1.3096 -1.39213,1.62073 -2.29143,1.81949c-2.15215,0.47566 -4.65722,-1.14577 -5.14025,-3.33128c-0.48304,-2.18552 0.87004,-4.34281 3.02219,-4.81847c2.15215,-0.47566 4.28838,0.91045 4.77141,3.09596z" fill="#c1c1c1" stroke="#8a8a8a" stroke-linecap="butt"/><path d="M313.9575,175.39967c0.93765,-0.20723 1.91895,0.62559 2.19181,1.86014c0.27286,1.23456 -0.26606,2.40338 -1.2037,2.61061c-0.93765,0.20723 -1.91895,-0.62558 -2.19181,-1.86015c-0.27286,-1.23456 0.26605,-2.40337 1.2037,-2.6106z" fill="#8a8a8a" stroke="#8a8a8a" stroke-linecap="butt"/></g></g></g></svg>