<svg version="1.1" xmlns="http://www.w3.org/2000/svg" xmlns:xlink="http://www.w3.org/1999/xlink" width="378" height="460.00001" viewBox="0,0,378,460.00001"><defs><linearGradient x1="320" y1="-67.5" x2="320" y2="269.5" gradientUnits="userSpaceOnUse" id="color-1"><stop offset="0" stop-color="#ffffd1"/><stop offset="1" stop-color="#f1f19c"/></linearGradient></defs><g transform="translate(-131,83.00001)"><g data-paper-data="{&quot;isPaintingLayer&quot;:true}" stroke-miterlimit="10" stroke-dasharray="" stroke-dashoffset="0" style="mix-blend-mode: normal"><path d="M145.24891,375c-6.76488,0 -12.24891,-5.33739 -12.24891,-11.9214v-432.15721c0,-6.58401 5.48402,-11.9214 12.24891,-11.9214h349.50219c6.76488,0 12.2489,5.33739 12.2489,11.9214v432.15721c0,6.584 -5.48402,11.9214 -12.2489,11.9214z" fill="#535311" fill-rule="nonzero" stroke="#212108" stroke-width="4" stroke-linecap="butt" stroke-linejoin="miter"/><path d="M160.66812,361.5c-6.16798,0 -11.16812,-4.94148 -11.16812,-11.03711v-406.92577c0,-6.09563 5.00014,-11.03711 11.16812,-11.03711h318.66376c6.16798,0 11.16812,4.94149 11.16812,11.03712v406.92577c0,6.09563 -5.00014,11.03711 -11.16812,11.03711z" fill="url(#color-1)" fill-rule="nonzero" stroke="#212108" stroke-width="4.5" stroke-linecap="butt" stroke-linejoin="miter"/><text transform="translate(160.5,-35.68135) scale(0.61033,0.61033)" font-size="40" xml:space="preserve" fill="#212108" fill-rule="nonzero" stroke="none" stroke-width="1" stroke-linecap="butt" stroke-linejoin="miter" stroke-miterlimit="10" stroke-dasharray="" stroke-dashoffset="0" font-family="&quot;Allan-Regular&quot;, Sans Serif" font-weight="normal" text-anchor="start" style="mix-blend-mode: normal"><tspan x="0" dy="0">name: Tinky-Tonks</tspan><tspan x="0" dy="46.15px">age: 37</tspan><tspan x="0" dy="46.15px">occupation: lackey</tspan></text><g><path d="M432.53444,-56.08653h32.93116c6.43804,0 11.62097,5.18296 11.62097,11.62097v32.93116c0,6.43802 -5.18294,11.62098 -11.62097,11.62098h-32.93116c-6.43802,0 -11.62098,-5.18296 -11.62098,-11.62097v-32.93116c0,-6.43801 5.18296,-11.62097 11.62098,-11.62097z" fill="#a0a300" fill-rule="evenodd" stroke="#212108" stroke-width="2" stroke-linecap="round" stroke-linejoin="round"/><g fill="none" fill-rule="nonzero" stroke="none" stroke-width="1" stroke-linecap="butt" stroke-linejoin="miter" font-family="sans-serif" font-weight="normal" font-size="12" text-anchor="start"><g/><g data-paper-data="{&quot;index&quot;:null}"/></g></g><text transform="translate(160,51.68636) scale(0.40744,0.45767)" font-size="40" xml:space="preserve" fill="#212108" fill-rule="nonzero" stroke="none" stroke-width="1" stroke-linecap="butt" stroke-linejoin="miter" stroke-miterlimit="10" stroke-dasharray="" stroke-dashoffset="0" font-family="&quot;Allan-Regular&quot;, Sans Serif" font-weight="normal" text-anchor="start" style="mix-blend-mode: normal"><tspan x="0" dy="0">Description-</tspan><tspan x="0" dy="46.15px">Tinky is the designated handyman of the MCS, he helps </tspan><tspan x="0" dy="46.15px">with the maintenance of the MCS HQ and he also helps build </tspan><tspan x="0" dy="46.15px">weapons and gizmos for the Beat Troupe. Despite his technical </tspan><tspan x="0" dy="46.15px">genius he can’t help but stick random metal pieces to his head. </tspan><tspan x="0" dy="46.15px">This was due to a weird birth defect which made his skull </tspan><tspan x="0" dy="46.15px">unusually magnetic. Years of ingesting the iron, copper, mercury </tspan><tspan x="0" dy="46.15px">etc through his skin has taken its toll on Tinky, his skin has </tspan><tspan x="0" dy="46.15px">become a black hairy froth and he grew a third eye in exchange </tspan><tspan x="0" dy="46.15px">for his mouth and nose. He became taller, lankier, and has </tspan><tspan x="0" dy="46.15px">sprouted many smaller arms from everywhere, a mutant at it's </tspan><tspan x="0" dy="46.15px">finest. He works for the Beat Troupe because he likes the thrill of </tspan><tspan x="0" dy="46.15px">adventure and can make a universal lock pick in under a minute, </tspan><tspan x="0" dy="46.15px">unlike most others who are forced to do it or else they’ll be sent to </tspan><tspan x="0" dy="46.15px">the stampede room.</tspan></text><path d="M160.16667,-30.16667v-1.66667h252.16667v1.66667z" fill="#212108" fill-rule="nonzero" stroke="none" stroke-width="0" stroke-linecap="butt" stroke-linejoin="miter"/><path d="M160.16667,-0.66667v-1.66667h252.16667v1.66667z" fill="#212108" fill-rule="nonzero" stroke="none" stroke-width="0" stroke-linecap="butt" stroke-linejoin="miter"/><path d="M160.16667,29.33333v-1.66667h252.16667v1.66667z" fill="#212108" fill-rule="nonzero" stroke="none" stroke-width="0" stroke-linecap="butt" stroke-linejoin="miter"/><g fill-rule="nonzero" stroke="none" stroke-width="0" stroke-linecap="butt" stroke-linejoin="miter"><g><path d="M454.13718,-34.15372c0,6.16274 -5.14831,11.15862 -11.49905,11.15862c-6.35076,0 -11.49907,-4.99588 -11.49907,-11.15862c0,-6.16274 5.14831,-11.15862 11.49907,-11.15862c6.35076,0 11.49905,4.99588 11.49905,11.15862zM442.52464,-28.15466c3.35497,0 6.07469,-2.71973 6.07469,-6.07469c0,-3.35497 -2.71973,-6.07469 -6.07469,-6.07469c-3.35497,0 -6.07469,2.71973 -6.07469,6.07469c0,3.35497 2.71973,6.07469 6.07469,6.07469z" fill="#000000"/><g fill="#000000"><path d="M439.08249,-41.83236v-8.85125h7.11127v8.85125z"/><path d="M439.08249,-17.69945v-8.85125h7.11127v8.85125z"/></g><g><path d="M450.26433,-37.74057l8.85117,-0.0362l0.02909,7.11121l-8.85117,0.0362z" fill="#000000"/><path d="M426.13164,-37.64186l8.85117,-0.0362l0.02909,7.11121l-8.85117,0.0362z" fill="#c2c255"/></g><g fill="#000000"><path d="M450.39823,-30.86656l5.93273,6.56866l-5.27739,4.76646l-5.93273,-6.56866z"/><path d="M434.22268,-48.77601l5.93273,6.56866l-5.27739,4.76648l-5.93273,-6.56866z"/></g><g data-paper-data="{&quot;index&quot;:null}" fill="#000000"><path d="M440.15539,-26.10008l-5.93273,6.56866l-5.27739,-4.76646l5.93273,-6.56866z"/><path d="M456.33096,-44.00953l-5.93273,6.56866l-5.27739,-4.76648l5.93273,-6.56866z"/></g></g><g fill="#d9db56"><path d="M452.78725,-34.19154c0,6.16274 -5.14831,11.15862 -11.49907,11.15862c-6.35076,0 -11.49905,-4.99588 -11.49905,-11.15862c0,-6.16274 5.14831,-11.15862 11.49905,-11.15862c6.35076,0 11.49907,4.99588 11.49907,11.15862zM447.24941,-34.26719c0,-3.35497 -2.71973,-6.07469 -6.07469,-6.07469c-1.69672,0 -3.23096,0.69562 -4.33311,1.81723c-1.12162,1.10215 -1.81723,2.6364 -1.81723,4.33313c0,3.35497 2.71973,6.07469 6.07469,6.07469c1.69672,0 3.23099,-0.69562 4.33314,-1.81724c1.1216,-1.10215 1.81721,-2.63639 1.81721,-4.33311z"/><g><path d="M437.73256,-41.87018v-8.85125h7.11127v8.85125z"/><path d="M437.73256,-17.73729v-8.85125h7.11127v8.85125z"/></g><g><path d="M448.91441,-37.77839l8.85117,-0.0362l0.02909,7.11121l-8.85117,0.0362z"/><path d="M424.78172,-37.67968l8.85117,-0.0362l0.02909,7.11121l-8.85117,0.0362z"/></g><g><path d="M449.04831,-30.90438l5.93273,6.56866l-5.27739,4.76646l-5.93273,-6.56866z"/><path d="M432.87274,-48.81382l5.93273,6.56866l-5.27739,4.76648l-5.93273,-6.56866z"/></g><g data-paper-data="{&quot;index&quot;:null}"><path d="M438.80547,-26.13791l-5.93273,6.56866l-5.27739,-4.76646l5.93273,-6.56866z"/><path d="M454.98104,-44.04736l-5.93273,6.56866l-5.27739,-4.76648l5.93273,-6.56866z"/></g></g></g><g fill-rule="nonzero" stroke="none" stroke-width="0" stroke-linecap="butt" stroke-linejoin="miter"><g><path d="M468.47793,-13.94557c0,3.52504 -2.94479,6.38265 -6.57737,6.38265c-3.63259,0 -6.57738,-2.8576 -6.57738,-6.38265c0,-3.52504 2.94479,-6.38265 6.57738,-6.38265c3.63259,0 6.57737,2.8576 6.57737,6.38265zM461.83564,-10.51416c1.91902,0 3.47468,-1.55566 3.47468,-3.47468c0,-1.91902 -1.55566,-3.47468 -3.47468,-3.47468c-1.91902,0 -3.47468,1.55566 -3.47468,3.47468c0,1.91902 1.55566,3.47468 3.47468,3.47468z" fill="#000000"/><g fill="#000000"><path d="M459.86676,-18.33769v-5.06284h4.0676v5.06284z"/><path d="M459.86676,-4.53385v-5.06284h4.0676v5.06284z"/></g><g><path d="M466.26269,-15.99722l5.06281,-0.02071l0.01664,4.06755l-5.06281,0.02071z" fill="#000000"/><path d="M452.45897,-15.94076l5.06281,-0.02071l0.01664,4.06755l-5.06281,0.02071z" fill="#c2c255"/></g><g fill="#000000"><path d="M466.33928,-12.06533l3.39347,3.75722l-3.01863,2.72638l-3.39347,-3.75722z"/><path d="M457.08698,-22.30941l3.39347,3.75722l-3.01863,2.72638l-3.39347,-3.75722z"/></g><g data-paper-data="{&quot;index&quot;:null}" fill="#000000"><path d="M460.48045,-9.33895l-3.39347,3.75722l-3.01863,-2.72638l3.39347,-3.75722z"/><path d="M469.73276,-19.58302l-3.39347,3.75722l-3.01863,-2.72638l3.39347,-3.75722z"/></g></g><g fill="#d9db56"><path d="M467.70578,-13.96721c0,3.52504 -2.94479,6.38265 -6.57738,6.38265c-3.63259,0 -6.57737,-2.8576 -6.57737,-6.38265c0,-3.52504 2.94479,-6.38265 6.57737,-6.38265c3.63259,0 6.57738,2.8576 6.57738,6.38265zM464.53817,-14.01047c0,-1.91902 -1.55566,-3.47468 -3.47468,-3.47468c-0.97051,0 -1.84808,0.3979 -2.47851,1.03943c-0.64155,0.63042 -1.03943,1.508 -1.03943,2.47851c0,1.91902 1.55566,3.47468 3.47468,3.47468c0.97051,0 1.84811,-0.3979 2.47853,-1.03945c0.64155,-0.63042 1.03943,-1.50799 1.03943,-2.47851z"/><g><path d="M459.09461,-18.35933v-5.06284h4.0676v5.06284z"/><path d="M459.09461,-4.5555v-5.06284h4.0676v5.06284z"/></g><g><path d="M465.49054,-16.01886l5.06281,-0.02071l0.01664,4.06755l-5.06281,0.02071z"/><path d="M451.68683,-15.9624l5.06281,-0.02071l0.01664,4.06755l-5.06281,0.02071z"/></g><g><path d="M465.56713,-12.08697l3.39347,3.75722l-3.01863,2.72638l-3.39347,-3.75722z"/><path d="M456.31482,-22.33103l3.39347,3.75722l-3.01863,2.72638l-3.39347,-3.75722z"/></g><g data-paper-data="{&quot;index&quot;:null}"><path d="M459.70831,-9.36059l-3.39347,3.75722l-3.01863,-2.72638l3.39347,-3.75722z"/><path d="M468.9606,-19.60466l-3.39347,3.75722l-3.01863,-2.72638l3.39347,-3.75722z"/></g></g></g></g></g></svg>