<svg version="1.1" xmlns="http://www.w3.org/2000/svg" xmlns:xlink="http://www.w3.org/1999/xlink" width="111.2263" height="260.67467" viewBox="0,0,111.2263,260.67467"><defs><linearGradient x1="287.44543" y1="158.70715" x2="287.44543" y2="306.89119" gradientUnits="userSpaceOnUse" id="color-1"><stop offset="0" stop-color="#d0d05b"/><stop offset="1" stop-color="#929240"/></linearGradient><linearGradient x1="353.44542" y1="158.85001" x2="353.44542" y2="307.03405" gradientUnits="userSpaceOnUse" id="color-2"><stop offset="0" stop-color="#d0d05b"/><stop offset="1" stop-color="#929240"/></linearGradient><linearGradient x1="321.17454" y1="156.82298" x2="321.17454" y2="240.7846" gradientUnits="userSpaceOnUse" id="color-3"><stop offset="0" stop-color="#919140"/><stop offset="1" stop-color="#89893c"/></linearGradient><linearGradient x1="320.5074" y1="204.83584" x2="320.5074" y2="312.66136" gradientUnits="userSpaceOnUse" id="color-4"><stop offset="0" stop-color="#89893c"/><stop offset="1" stop-color="#919140"/></linearGradient><linearGradient x1="306.18184" y1="112.40714" x2="306.18184" y2="125.38117" gradientUnits="userSpaceOnUse" id="color-5"><stop offset="0" stop-color="#000000"/><stop offset="1" stop-color="#000000" stop-opacity="0"/></linearGradient><linearGradient x1="306.18184" y1="125.38117" x2="306.18184" y2="112.40714" gradientUnits="userSpaceOnUse" id="color-6"><stop offset="0" stop-color="#000000"/><stop offset="1" stop-color="#000000" stop-opacity="0"/></linearGradient><linearGradient x1="336.54547" y1="112.21494" x2="336.54547" y2="125.18896" gradientUnits="userSpaceOnUse" id="color-7"><stop offset="0" stop-color="#000000"/><stop offset="1" stop-color="#000000" stop-opacity="0"/></linearGradient><linearGradient x1="336.54547" y1="125.18896" x2="336.54547" y2="112.21493" gradientUnits="userSpaceOnUse" id="color-8"><stop offset="0" stop-color="#000000"/><stop offset="1" stop-color="#000000" stop-opacity="0"/></linearGradient><linearGradient x1="296.04547" y1="115.61364" x2="301.81172" y2="115.61364" gradientUnits="userSpaceOnUse" id="color-9"><stop offset="0" stop-color="#ffffff"/><stop offset="1" stop-color="#ffffff" stop-opacity="0"/></linearGradient><linearGradient x1="296.04547" y1="117.32071" x2="299.81172" y2="117.32071" gradientUnits="userSpaceOnUse" id="color-10"><stop offset="0" stop-color="#ffffff"/><stop offset="1" stop-color="#ffffff" stop-opacity="0"/></linearGradient></defs><g transform="translate(-264.38685,-51.9867)"><g stroke-miterlimit="10"><path d="M264.38685,308.0133v-256.0266h111.2263v256.0266z" fill-opacity="0.01" fill="#000000" stroke="none" stroke-width="2" stroke-linecap="butt"/><path d="M352.79228,156.95786c-0.17374,5.70496 -14.19799,7.22142 -31.50909,6.82567c-15.9375,-0.36435 -28.86495,-1.14765 -30.69841,-6.26701c-0.15802,-0.44122 -0.7578,-1.21411 -0.74401,-1.66679c0.17374,-5.70496 15.05612,-8.09095 32.36721,-7.6952c5.75247,0.13151 17.97658,0.8957 25.11577,3.49714c3.41649,1.24493 5.49714,4.36693 5.46853,5.3062z" fill="#47471f" stroke="none" stroke-width="0" stroke-linecap="butt"/><path d="M281.28042,302.6416c0,0 -0.63536,-94.38387 -0.79335,-118.01201c-0.05451,-8.15261 8.18688,-36.76129 40.20201,-36.9211c31.60235,-0.15775 39.85672,29.48704 39.84884,36.89673c-0.07659,46.24274 0.65429,117.98648 0.65429,117.98648l-10.49667,0.09614l-0.15882,-114.84311c0,0 0.07549,-3.0993 -2.81625,-3.15415c-3.43441,-0.06514 -2.94538,3.11562 -2.94538,3.11562l0.20548,114.86995l-48.21366,0.07222l-0.30539,-115.23309c0,0 0.27949,-2.919 -2.8856,-2.93443c-3.11083,-0.01515 -2.81569,2.90899 -2.81569,2.90899l0.35311,115.0668z" fill="#ffffff" stroke="#000000" stroke-width="2" stroke-linecap="butt"/><path d="M292.75003,158.70715c7.06924,0 8,21.81581 8,47c0,21.11182 -8.38325,100.93569 -8.38325,100.93569c0,0 -12.5451,0.64049 -16.01675,-0.13568c-5.02787,-1.12411 0.04202,-40.42847 0.44975,-71.19669c0.15173,-11.44994 0.15025,-24.17314 0.15025,-31.00331c0,-25.18418 8.73075,-45.6 15.8,-45.6z" fill="url(#color-1)" stroke="#adad4c" stroke-width="2" stroke-linecap="butt"/><path d="M348.14081,158.85002c7.06925,0 15.8,20.41582 15.8,45.6c0,6.83017 -0.00148,19.55337 0.15025,31.00331c0.40773,30.76822 5.47762,70.07258 0.44975,71.19669c-3.47165,0.77617 -16.01675,0.13568 -16.01675,0.13568c0,0 -8.38325,-79.82387 -8.38325,-100.93569c0,-25.18419 0.93076,-47 8,-47z" fill="url(#color-2)" stroke="#adad4c" stroke-width="2" stroke-linecap="butt"/><path d="M350.41669,198.25002c0,18.96178 1.44316,42.73333 -30.03333,42.53333c-30.87587,-0.19618 -29.63333,-23.57156 -29.63333,-42.53333c0,-9.69187 -5.51052,-33.4458 0.10145,-39.68859c5.36764,-5.97099 21.67696,5.35526 29.73188,5.35526c8.9131,0 26.31327,-10.30173 31.77994,-3.17022c4.63885,6.05159 -1.9466,28.79931 -1.9466,37.50355z" fill="url(#color-3)" stroke="#8d8d3e" stroke-width="2" stroke-linecap="butt"/><path d="M352.39225,157.14811c-0.17374,5.70495 -7.26847,16.17274 -32.18409,15.17567c-25.09101,-1.00409 -30.67866,-10.90385 -30.50492,-16.6088c0.06486,-2.12996 5.53146,-4.72636 11.18691,-3.82855c5.10869,0.811 7.41135,6.1626 11.04126,8.83759c2.96194,2.18275 14.45571,2.31241 14.45571,2.31241c0,0 7.48251,-8.58796 14.16684,-10.82659c4.47422,-1.49845 11.89603,3.04268 11.8383,4.93827z" fill="#6e6e30" stroke="none" stroke-width="0" stroke-linecap="butt"/><path d="M352.76329,308.26112c0,0 -21.20639,4.26536 -32.01804,4.39693c-10.69094,0.1301 -32.49378,-3.61189 -32.49378,-3.61189c0,0 3.89855,-80.19671 3.89855,-89.88859c0,-18.96177 57.06667,-19.16177 57.06667,-0.2c0,8.70425 3.5466,89.30355 3.5466,89.30355z" fill="url(#color-4)" stroke="none" stroke-width="0" stroke-linecap="butt"/><path d="M304.12503,219.00001v-52.5h5v52.5z" fill="#6e6e30" stroke="none" stroke-width="0" stroke-linecap="butt"/><path d="M333.37503,213.50001v-47h5v47z" fill="#6e6e30" stroke="none" stroke-width="0" stroke-linecap="butt"/><path d="M310.87503,221.75001c0,2.8995 -2.07068,5.25 -4.625,5.25c-2.55432,0 -4.625,-2.3505 -4.625,-5.25c0,-2.8995 2.07068,-5.25 4.625,-5.25c2.55432,0 4.625,2.3505 4.625,5.25z" fill="#6e6e30" stroke="none" stroke-width="0" stroke-linecap="butt"/><path d="M340.37501,215.00001c0,2.8995 -2.07069,5.25 -4.625,5.25c-2.55432,0 -4.625,-2.3505 -4.625,-5.25c0,-2.8995 2.07068,-5.25 4.625,-5.25c2.55431,0 4.625,2.3505 4.625,5.25z" fill="#6e6e30" stroke="none" stroke-width="0" stroke-linecap="butt"/><path d="M294.12503,295.67858c0,0 2.79954,-12.79675 3.31521,-19.48816c0.48207,-6.25538 0.54193,-19.44041 0.54193,-19.44041c0,0 15.56389,2 23.76786,2c7.57995,0 21.30357,-2 21.30357,-2c0,0 0.60317,14.91644 1.16557,21.5796c0.53104,6.2917 3.69158,17.34897 3.69158,17.34897c0,0 -19.11428,5 -28.73214,5c-8.01805,0 -25.05357,-5 -25.05357,-5z" fill="#818139" stroke="none" stroke-width="0" stroke-linecap="butt"/><g><path d="M276.37138,104.21342c0,0 6.16329,-5.92187 6.29161,-6.78761c0.33654,-2.27063 -0.16776,-40.17317 35.96775,-41.57382c44.63633,-0.91362 39.01489,35.34872 41.53088,42.1903c3.44981,9.38084 6.15664,17.40016 6.15664,17.40016c0,0 -2.76715,-2.05351 -4.0797,-3.13397c-1.2242,-1.00773 -3.80143,-3.14585 -3.80143,-3.14585c0,0 3.09111,10.3481 1.31092,20.69498c-1.5623,9.48098 -7.29782,17.22543 -7.29782,17.22543l-1.15522,-2.34735c0,0 -1.02266,2.19794 -2.16005,3.33274c-1.1374,1.13479 -3.43873,2.91273 -3.43873,2.91273l-0.09205,-3.70421c0,0 -7.0601,11.01795 -24.35066,10.87154c-16.30625,-0.25547 -26.07151,-10.6752 -26.07151,-10.6752l-0.1162,2.65484c0,0 -3.89477,-3.29276 -6.18145,-9.70754c-2.72545,-7.64567 -3.23946,-12.24324 -3.23946,-12.24324c0,0 -2.33908,1.89916 -5.71704,2.7744c-4.23278,1.09673 -6.94665,0.34526 -6.94665,0.34526c0,0 3.60795,-2.71717 5.58396,-4.76989c1.76007,-1.8284 2.64658,-3.37722 2.64658,-3.37722c0,0 -2.10758,1.0847 -4.23277,1.61795c-2.21739,0.5564 -4.03008,0.53093 -4.03008,0.53093c0,0 4.97492,-5.03728 7.03074,-10.87429c1.94102,-5.51108 2.09972,-10.95731 2.09972,-10.95731c0,0 -1.36165,0.66163 -3.33013,0.79513c-1.24776,0.08463 -2.37785,-0.0489 -2.37785,-0.0489z" fill="#000000" stroke="none" stroke-width="1.5" stroke-linecap="butt"/><path d="M293.15727,115.53504c-0.57709,-7.29323 0.335,-17.15448 0.335,-17.15448c0,0 3.41059,-0.04124 13.91429,-3.14424c8.0696,-2.38394 20.54731,-9.48722 20.54731,-9.48722c0,0 -2.16005,3.00503 -3.40781,4.46015c-1.32651,1.54696 -3.99292,4.56297 -3.99292,4.56297c0,0 7.838,-1.66761 14.67476,-4.72931c8.56837,-3.53575 10.59252,-6.05309 12.95042,-4.5927c2.7829,1.72362 1.03006,23.1827 0.71846,28.74062c-0.42163,5.66922 -2.53327,9.49969 -3.15031,12.52053c-0.61704,3.02084 -0.4096,6.13662 -2.20622,16.0397c-1.12121,6.18021 -4.16183,8.92466 -10.01942,14.66081c-5.85759,5.73616 -9.05378,9.25275 -13.01359,9.32173c-3.81077,0.06639 -8.93565,-5.1002 -13.93542,-10.38244c-5.32393,-5.62474 -8.87489,-8.47713 -9.71551,-15.13975c-0.75707,-6.00039 -0.77653,-9.90853 -1.12266,-15.24835c-0.25298,-3.90273 -2.26119,-6.44504 -2.57636,-10.42801z" fill="#ffffff" stroke="#000000" stroke-width="1.5" stroke-linecap="butt"/><path d="M340.78282,100.08134c0,0 1.52429,0.31807 4.2558,1.11029c2.49492,0.72361 4.44935,1.74403 4.44935,1.74403l0.1951,1.17035c0,0 -7.24963,-3.12997 -15.1158,-2.4706c-6.2896,0.52724 -9.96319,2.8124 -9.96319,2.8124l0.04575,-4.17683c0,0 3.12748,-1.70421 7.86366,-1.85557c4.90428,-0.15672 8.09084,0.59125 8.09084,0.59125z" fill="#000000" stroke="none" stroke-width="1.5" stroke-linecap="butt"/><path d="M328.46314,143.40222c0.5704,0.21186 3.08357,1.39942 6.02385,2.59586c2.9637,1.20597 7.21362,2.29294 7.19412,2.4605c-0.02476,0.21265 -10.43477,0.22694 -13.67937,0.63224c-2.71902,0.33964 -6.68867,0.70564 -6.68867,0.70564c0,0 -7.10401,-1.16169 -13.27235,-2.44521c-4.94371,-1.02869 -10.39929,-1.66108 -10.40995,-1.75461c-0.01439,-0.12613 3.86835,-0.71071 6.82417,-1.39467c1.14585,-0.49661 5.43971,-1.48513 5.43971,-1.48513c0,0 4.95585,-0.27766 7.60826,0.579c2.84203,0.91791 2.83546,2.44556 3.0831,2.46906c0,0 1.18436,-1.74932 2.36886,-2.10461c1.18451,-0.35528 5.08219,-0.41633 5.50828,-0.25808z" fill="#ffffff" stroke="#000000" stroke-width="1.4" stroke-linecap="butt"/><path d="M309.81515,147.95582c5.09114,1.02674 11.91756,2.80736 11.91756,2.80736c0,0 5.78976,-1.55585 8.44678,-1.8344c2.05992,-0.21596 11.216,-0.70654 11.26026,-0.33377c0.04328,0.36447 -9.03119,12.90033 -21.14808,12.44714c-13.76954,-0.43578 -22.86459,-15.13559 -22.82675,-15.30472c0.03784,-0.16913 7.2591,1.19165 12.35024,2.2184z" fill="#ffffff" stroke="#000000" stroke-width="1.9" stroke-linecap="butt"/><path d="M320.78941,144.96213c-1.03376,0 -3.5381,-3.26042 -3.7867,-5.3637c-0.22243,-1.88186 1.31512,-3.82799 3.7867,-3.82799c2.47159,0 4.2021,0.49077 4.02999,4.18853c-0.14607,3.13818 -1.55841,5.00317 -4.02999,5.00317z" fill="#ffffff" stroke="#000000" stroke-width="1.15" stroke-linecap="butt"/><path d="M324.39152,114.86842c0,0 0.1026,3.96976 0.00576,7.12662c-0.19174,6.25113 -1.08147,27.7607 -1.08147,27.7607l-2.98167,0.00864c0,0 -0.80294,-4.17274 -1.12322,-9.49979c-0.43353,-7.21063 -0.4495,-16.29321 -0.76344,-19.63229c-0.29758,-3.16513 -0.89593,-5.71453 -0.89593,-5.71453" fill="#ffffff" stroke="#000000" stroke-width="1.3" stroke-linecap="round"/><path d="M294.8569,125.65826c0,0 -4.93211,-3.51705 -6.16417,-8.97502c-1.29636,-5.74284 -1.46118,-9.7328 0.48013,-9.99193c1.94131,-0.25915 2.70321,2.37692 3.73262,8.35569c1.0294,5.97877 1.95143,10.61127 1.95143,10.61127z" fill="#ffffff" stroke="#000000" stroke-width="1" stroke-linecap="butt"/><path d="M294.65432,121.7107c0,0 -3.56385,-2.92338 -4.31816,-8.45061c-0.42079,-3.08327 2.15675,-2.28016 2.15675,-2.28016" fill="none" stroke="#000000" stroke-width="0.25" stroke-linecap="round"/><path d="M297.66772,115.0548c0.07093,-4.89188 4.83834,-8.93609 10.21137,-8.8582c5.37302,0.0779 9.02724,4.2484 8.95632,9.14029c-0.07093,4.89188 -4.12352,8.79439 -9.49655,8.7165c-5.37302,-0.0779 -9.74207,-4.1067 -9.67114,-8.99859z" fill="#ffffff" stroke="#000000" stroke-width="1.4" stroke-linecap="butt"/><path d="M302.10536,115.17274c0.03999,-2.75843 2.30855,-4.96213 5.06696,-4.92214c2.75843,0.03999 4.96213,2.30855 4.92214,5.06696c-0.03999,2.75843 -2.30854,4.96213 -5.06696,4.92214c-2.75843,-0.03999 -4.96213,-2.30855 -4.92214,-5.06696z" fill="#000000" stroke="none" stroke-width="1.5" stroke-linecap="butt"/><path d="M324.724,115.05553c0.20353,-4.88817 4.45264,-8.85847 9.77048,-8.85847c5.31783,0 9.27453,3.96607 9.27453,8.85847c0,4.8924 -3.88585,9.07104 -9.69964,9.14188c-5.52997,0.06739 -9.55792,-4.03692 -9.34537,-9.14188z" fill="#ffffff" stroke="#000000" stroke-width="1.4" stroke-linecap="butt"/><path d="M329.32675,115.14108c0,-2.81845 2.2848,-5.10325 5.10325,-5.10325c2.81845,0 5.10325,2.2848 5.10325,5.10325c0,2.81845 -2.28479,5.10325 -5.10325,5.10325c-2.81845,0 -5.10325,-2.2848 -5.10325,-5.10325z" fill="#000000" stroke="none" stroke-width="1.5" stroke-linecap="butt"/><path d="M297.59928,114.52262c0,0 0.06357,-9.01512 10.60111,-8.8249c9.47101,0.16586 9.55554,9.40723 9.55554,9.40723z" fill="#ffffff" stroke="#000000" stroke-width="1.15" stroke-linecap="butt"/><path d="M324.34635,114.65352c0,0 -0.24686,-9.4582 11.19813,-9.1032c9.71427,0.33347 9.54677,9.65229 9.54677,9.65229z" fill="#ffffff" stroke="#000000" stroke-width="1.15" stroke-linecap="butt"/><path d="M301.22004,101.69277c0,0 3.36963,-1.819 8.03244,-2.28178c5.16698,-0.51283 7.76823,-0.06628 7.76823,-0.06628l0.29508,4.13747c0,0 -3.83554,-0.68065 -8.01795,-0.52113c-5.59346,0.21333 -6.64488,1.43293 -10.89774,1.89119c-3.64408,0.39266 -6.73723,0.15884 -6.73723,0.15884l-0.02589,-1.23155c0,0 3.59517,0.07398 5.23371,-0.06836c1.35239,-0.11749 3.9757,-0.93808 3.9757,-0.93808z" fill="#000000" stroke="none" stroke-width="1.5" stroke-linecap="butt"/><path d="M349.09005,115.04699c1.0294,-5.97877 1.7913,-8.61483 3.73262,-8.35569c1.94131,0.25914 1.77649,4.24909 0.48013,9.99193c-1.23206,5.45797 -6.16417,8.97502 -6.16417,8.97502c0,0 0.92203,-4.6325 1.95143,-10.61127z" fill="#ffffff" stroke="#000000" stroke-width="1" stroke-linecap="butt"/><path d="M349.50265,110.97993c0,0 2.57754,-0.80312 2.15675,2.28016c-0.75431,5.52723 -4.31816,8.45061 -4.31816,8.45061" fill="none" stroke="#000000" stroke-width="0.25" stroke-linecap="round"/><g stroke-linecap="butt"><g stroke="#000000" stroke-width="1"><path d="M294.04547,125.38117v-12.97403h23.18182l1.27273,13.07013z" fill="url(#color-5)"/><path d="M317.2273,112.40714l1.09091,12.97403c0,0 -8.38662,0.27273 -12.45455,0.27273c-4.02247,0 -11.81818,-0.27273 -11.81818,-0.27273v-12.97403z" fill="url(#color-6)"/></g><g stroke="#000000" stroke-width="1"><path d="M324.2273,125.28506l1.27273,-13.07013h23.18182l-2.72727,13.07013z" fill="url(#color-7)"/><path d="M349.04547,112.21493l-3,13.16624c0,0 -7.04149,0.48209 -10.63144,0.4502c-3.62189,-0.03218 -11.00493,-0.64241 -11.00493,-0.64241c0,0 0.07067,-10.01121 0.08347,-11.82371c0.00382,-0.54121 0.00744,-1.05422 0.00744,-1.05422z" fill="url(#color-8)"/></g><path d="M317.3182,114.90584v-2.88312h7.72727v2.88312c0,0 -2.62888,-1.34545 -3.90909,-1.34545c-1.29537,0 -3.81818,1.34545 -3.81818,1.34545z" fill="#000000" stroke="none" stroke-width="0"/></g><path d="M296.04547,116.47727v-1.72727h5.76623v1.72727z" fill="url(#color-9)" stroke="none" stroke-width="0" stroke-linecap="butt"/><path d="M296.04547,118.18435v-1.72728h3.76623v1.72728z" fill="url(#color-10)" stroke="none" stroke-width="0" stroke-linecap="butt"/></g></g></g></svg>