<svg version="1.1" xmlns="http://www.w3.org/2000/svg" xmlns:xlink="http://www.w3.org/1999/xlink" width="278.28629" height="285.13708" viewBox="0,0,278.28629,285.13708"><g transform="translate(-167.79887,-46.67741)"><g stroke-miterlimit="10"><path d="M252.07381,331.81449l2.16374,-279.82778h131.5249l-2.16374,279.82778z" fill-opacity="0.01" fill="#000000" stroke="none" stroke-width="2" stroke-linecap="butt"/><g fill="#000000" stroke="#ecec68" stroke-width="1" stroke-linecap="butt"><path d="M405.23143,207.39818c0,0 30.04195,-7.83342 31.33711,-7.5233c2.67303,0.64006 6.15967,7.31397 5.37127,8.02654c-2.28158,2.06205 -33.36655,8.18818 -33.36655,8.18818z"/><path d="M406.15696,207.94462c0,0 24.7128,-18.79249 26.02756,-19.00475c2.71345,-0.43803 8.50016,4.37984 8.04675,5.34094c-1.31218,2.78134 -27.64478,20.3995 -27.64478,20.3995z"/><path d="M393.81113,206.2362c0,0 4.81646,-2.67755 8.19188,-3.19315c4.75213,-0.7259 17.63122,-0.75141 17.63122,-0.75141c0,0 16.54969,-10.35166 17.85875,-10.57372c2.7017,-0.45831 8.51205,4.33307 8.06811,5.30015c-1.28473,2.79866 -28.60178,20.03851 -28.60178,20.03851c0,0 13.51779,5.14386 13.53629,7.5518c0.02306,3.00166 -5.02294,5.84258 -6.18187,5.84021c-2.63216,-0.00536 -11.56048,-3.4175 -11.56048,-3.4175l-17.5091,-6.40002z"/></g><g fill="#000000" stroke="#ecec68" stroke-width="1" stroke-linecap="butt"><path d="M209.76482,232.97668c0,0 -30.96491,6.70663 -33.87726,5.71874c-1.00635,-0.34138 -0.45302,-7.85082 1.74683,-9.49864c1.0659,-0.79844 31.75056,-5.52409 31.75056,-5.52409z"/><path d="M205.52179,233.27492c0,0 -31.16085,-5.72773 -33.46863,-7.76042c-0.79746,-0.7024 2.60348,-7.42041 5.26809,-8.09463c1.29107,-0.32667 31.43084,7.12155 31.43084,7.12155z"/><path d="M223.97009,231.78571l-2.65108,9.13505c0,0 -2.70977,4.60385 -3.63182,6.19405c-1.56243,2.69458 -2.81084,5.02122 -3.56913,5.35073c-1.06293,0.46189 -4.47826,0.96796 -6.75287,0.53337c-2.36524,-0.45188 -1.45216,-16.10719 -1.45216,-16.10719c0,0 -35.2091,-4.76365 -37.49855,-6.82312c-0.79112,-0.71165 2.64201,-7.41473 5.30387,-8.06567c1.28975,-0.31538 20.58788,2.62245 20.58788,2.62245l23.95783,-3.76311z"/></g><path d="M372.87035,246.80699l4.81466,-27.72694l14.72933,-12.06987c0,0 2.44242,9.75227 5.11173,13.50375c0.30151,0.42373 11.25419,6.95365 11.25419,6.95365z" fill="#000000" stroke="#ecec68" stroke-width="1" stroke-linecap="butt"/><path d="M361.52367,240.35574l6.34179,-78.35186c0,0 9.54227,3.35174 12.51564,7.48547c2.55445,3.55129 2.82741,15.42683 2.82741,15.42683l-8.38754,59.94019c0,0 -1.63088,3.89041 -8.46592,3.1235c-4.95868,-0.55637 -4.83139,-7.62414 -4.83139,-7.62414z" fill="#000000" stroke="#ecec68" stroke-width="1" stroke-linecap="butt"/><path d="M223.74879,241.41136c0,0 1.30841,-8.43192 0.03852,-12.01534c-1.45966,-4.11892 -9.2886,-9.35228 -9.2886,-9.35228c0,0 23.8424,-5.05119 32.36956,-7.32601c5.57075,-1.48611 13.81514,-4.99477 13.81514,-4.99477c0,0 21.45574,-52.99683 22.55483,-51.40879c1.86839,2.69957 9.62273,32.47278 8.19625,46.47159c-0.2687,2.6368 -7.47867,16.7135 -16.59122,23.84992c-9.11256,7.1364 -18.87485,7.93823 -27.72142,10.35483c-8.12315,2.21897 -23.37305,4.42086 -23.37305,4.42086z" fill="#000000" stroke="#ecec68" stroke-width="1" stroke-linecap="butt"/><g><path d="M285.7454,155.24835c5.06438,-1.04212 34.55882,-7.16304 49.2649,-5.57409c24.21758,0.17869 38.49196,16.06284 38.49196,16.06284c0,0 -6.2674,33.56699 -9.6093,54.83399c-3.34192,21.267 -2.9321,64.56921 -2.9321,64.56921c0,0 -65.23517,13.96187 -69.64389,13.62831c-1.72296,-0.13035 0.14351,-64.71944 0.36655,-97.2206c0.16674,-24.29451 -14.49585,-44.53871 -5.93812,-46.29967z" fill="#000000" stroke="#ecec68" stroke-width="1" stroke-linecap="butt"/><path d="M322.92506,154.83363l22.52882,1.04708l-6.49061,133.5822l-16.60668,3.82171z" fill="#ecec68" stroke="none" stroke-width="0" stroke-linecap="butt"/><path d="M331.98903,167.26038l-2.56962,-8.59783l10.13223,0.82324l-3.24059,7.43919l4.01024,30.62084l-7.50834,8.63422l-6.55046,-9.4566z" fill="#000000" stroke="none" stroke-width="0" stroke-linecap="butt"/><path d="M324.00377,208.69708l-24.12311,-37.09973l9.57017,-7.38906l-11.04343,-0.98912l10.9371,-12.04233" fill="none" stroke="#ecec68" stroke-width="1" stroke-linecap="round"/><path d="M358.69201,155.73118l9.15141,11.05307l-10.60538,1.47262l8.6977,7.75762l-23.03019,34.41519" fill="none" stroke="#ecec68" stroke-width="1" stroke-linecap="round"/><path d="M330.54605,291.58517l3.3147,-128.14315" fill="none" stroke="#000000" stroke-width="1.5" stroke-linecap="round"/></g><g><path d="M299.97855,134.80887l-0.05563,-10.59693l19.6605,-0.10318l0.05563,10.59692z" fill="#000000" stroke="none" stroke-width="0" stroke-linecap="butt"/><path d="M299.12913,104.12967c0,0 -7.34549,-1.22136 -6.81031,-5.76303c0.5609,-4.75986 7.77136,-5.51456 7.77136,-5.51456l-1.24536,-42.90498l5.70454,16.59694l5.54029,-14.69984l4.64618,15.62443l8.33695,-16.99663l6.07273,19.85517l4.83813,-14.69617l9.22218,17.88255l5.53343,-16.00389l7.16363,27.02187l9.61382,-14.52562c0,0 -8.57263,52.61327 -9.79129,69.32195c-0.55031,7.54491 0.66487,13.21811 0.66487,13.21811c0,0 -14.07768,12.6115 -24.97366,11.36119c-10.89601,-1.25029 -16.25991,-16.24041 -16.25991,-16.24041" fill="#000000" stroke="#ecec68" stroke-width="1" stroke-linecap="round"/><path d="M320.00152,149.87946c-8.24487,-0.73472 -15.57641,-0.77336 -17.85115,-1.79358c-4.39592,-1.97157 8.38572,-7.70541 8.38572,-7.70541" fill="#000000" stroke="#ecec68" stroke-width="1" stroke-linecap="round"/><path d="M345.31266,143.94713c0,0 -18.55354,0.35329 -37.02858,0.19623c-11.12627,-0.09458 -25.08946,0.77539 -27.382,-1.20854c-2.65627,-2.29868 16.74773,-16.17942 16.74773,-16.17942" fill="#000000" stroke="#ecec68" stroke-width="1" stroke-linecap="round"/><path d="M313.93729,110.01588c0.03549,6.75908 -5.02283,12.2651 -11.2981,12.29805c-6.27523,0.03293 -11.39108,-5.41965 -11.42656,-12.17872c-0.03549,-6.75908 5.02287,-12.26508 11.29811,-12.29801c6.27525,-0.03294 11.39108,5.41965 11.42656,12.17872z" fill="#ecec68" stroke="#000000" stroke-width="1.5" stroke-linecap="butt"/><path d="M303.63596,111.88572c-1.06009,0.00555 -1.92435,-0.92167 -1.93039,-2.07102c-0.00605,-1.14934 0.84846,-2.08564 1.90854,-2.09118c1.06009,-0.00555 1.92435,0.92168 1.93039,2.07104c0.00605,1.14938 -0.84847,2.08564 -1.90853,2.09118z" fill="#000000" stroke="none" stroke-width="0.5" stroke-linecap="butt"/><path d="M307.80426,128.27921c0,0 -17.75321,0.59482 -17.39038,-6.65603c0.34069,-6.80834 25.58687,-3.65658 25.58687,-3.65658" fill="#000000" stroke="#ecec68" stroke-width="1" stroke-linecap="round"/><g stroke-linecap="butt"><path d="M335.77456,111.23742c0.04155,7.91494 -5.88178,14.36254 -13.23017,14.40112c-7.34837,0.03856 -13.3391,-6.34652 -13.38063,-14.26145c-0.04151,-7.91493 5.88184,-14.36253 13.23023,-14.40112c7.34838,-0.03856 13.33907,6.34649 13.38063,14.26142z" fill="#ecec68" stroke="#000000" stroke-width="1.5"/><path d="M322.23742,110.93337c-0.00686,-1.30609 0.96417,-2.37 2.16879,-2.37632c1.20466,-0.00633 2.18676,1.04734 2.19363,2.35345c0.00686,1.30612 -0.96415,2.37003 -2.16879,2.37636c-1.20463,0.00633 -2.18677,-1.04735 -2.19363,-2.35343z" fill="#000000" stroke="none" stroke-width="0.5"/></g><g stroke="#ecec68" stroke-width="1" stroke-linecap="round"><path d="M355.55612,125.57368c0,0 8.25939,-6.93695 8.77111,-2.70946c2.80137,23.14363 -10.22436,13.77414 -10.22436,13.77414" fill="#000000"/><path d="M358.00711,134.57689c0,0 0.04488,-2.46651 0.40658,-3.94532c0.33871,-1.38488 1.69916,-4.66416 1.69916,-4.66416" fill="none"/><path d="M358.24541,131.48283c0,0 1.29582,-1.02001 1.85094,-1.28206c0.38935,-0.18379 1.51686,-0.29824 1.51686,-0.29824" fill="none"/></g></g><path d="M382.18564,234.18443c0,1.91044 2.46447,3.80014 -0.40827,6.27356c-2.98858,2.57319 -9.33699,7.04525 -12.39194,6.73122c-3.20312,-0.32926 1.13949,-9.10686 1.13949,-13.00479c0,-3.89793 -1.2918,-14.08315 1.92821,-14.08315c1.05676,0 3.54602,3.54059 6.23606,5.16582c1.31753,0.79601 3.35158,-0.37123 3.99226,0.27887c2.03709,2.06705 -0.49581,6.64631 -0.49581,8.63846z" fill="#000000" stroke="none" stroke-width="0" stroke-linecap="butt"/><path d="M292.65039,181.59186c0,10.28147 -3.02251,18.61623 -6.75094,18.61623c-3.72843,0 -6.75094,-8.33478 -6.75094,-18.61623c0,-10.28147 1.26048,-24.7459 4.96556,-25.16261c5.29141,-0.59514 4.84583,3.75779 5.60951,4.36928c3.42862,2.74517 2.92678,12.38482 2.92678,20.79333z" fill="#000000" stroke="none" stroke-width="0" stroke-linecap="butt"/><path d="M218.7458,230.09506c-2.08232,-4.44592 -8.40234,-9.28752 -8.40234,-9.28752l4.90978,-1.43202c0,0 7.27511,6.66105 8.84537,10.82406c0.8962,2.37598 0.18048,11.8834 0.18048,11.8834l-3.75303,0.4652c0,0 0.30205,-8.00721 -1.78027,-12.45313z" fill="#ecec68" stroke="none" stroke-width="0" stroke-linecap="butt"/><path d="M409.40132,228.19701c0,0 -9.60672,-3.05504 -13.4932,-7.71142c-3.88648,-4.65638 -4.64747,-13.18126 -4.64747,-13.18126l4.09856,-2.5576c0,0 0.98086,8.37602 4.19394,12.13016c3.21307,3.75414 14.40858,10.94325 14.40858,10.94325z" fill="#ecec68" stroke="none" stroke-width="0" stroke-linecap="butt"/><path d="M365.89886,198.74545l3.66364,-35.72055c0,0 4.80456,2.46165 5.98369,3.10174c0.71111,0.38603 1.5268,1.84418 1.5268,1.84418l-0.18319,30.77463z" fill="#000000" stroke="none" stroke-width="0" stroke-linecap="butt"/></g></g></svg>