<svg version="1.1" xmlns="http://www.w3.org/2000/svg" xmlns:xlink="http://www.w3.org/1999/xlink" width="176.66088" height="310.11995" viewBox="0,0,176.66088,310.11995"><g transform="translate(-236.59361,-24.79669)"><g stroke-miterlimit="10"><path d="M263.40898,324.61251v-293.22501h113.18203v293.22501z" fill-opacity="0.01" fill="#000000" stroke="none" stroke-width="0" stroke-linecap="butt"/><g stroke-linecap="butt"><path d="M363.01022,140.48308l19.3039,-1.90297l-6.54015,18.57242l-11.65834,-4.36943z" fill="#0d0d00" stroke="none" stroke-width="0"/><path d="M338.86223,143.12284c13.01397,-10.15673 24.76522,-6.01602 32.72987,4.18917c7.96465,10.20519 9.1266,22.61035 -3.88736,32.76707c-13.01395,10.15674 -35.27573,14.21893 -43.24037,4.01373c-7.96465,-10.20519 1.38389,-30.81326 14.39786,-40.97002z" fill="#ecec68" stroke="#0d0d00" stroke-width="1.75"/><path d="M331.50036,150.64154l5.98502,-5.18272l28.38494,36.25322l-7.512,3.34292z" fill-opacity="0.70196" fill="#0d0d00" stroke="none" stroke-width="0"/><path d="M376.24224,169.40463l-4.2435,6.91413l-28.61513,-36.31538l8.50637,-2.72527z" fill-opacity="0.70196" fill="#0d0d00" stroke="none" stroke-width="0"/><path d="M323.41819,164.75219l3.83973,-7.97486l23.25814,32.18785l-7.73518,0.59665z" fill-opacity="0.70196" fill="#0d0d00" stroke="none" stroke-width="0"/></g><path d="M369.93605,116.97834c2.62554,3.83342 5.52871,5.47037 5.52871,5.47037c0,0 -12.78961,13.55545 -36.72982,5.82787c-16.95048,-5.47139 -11.67305,-6.34454 -22.42802,-33.52178c-6.57962,-16.62632 -7.82754,-37.82685 6.75069,-51.12485c11.11275,-10.13685 45.67917,-4.96632 46.30961,22.48447c0.41883,18.23672 12.88655,30.07126 12.88655,30.07126c0,0 -2.21426,1.73788 -6.52796,0.72255c-2.0457,-0.4815 -4.30355,-1.93842 -4.30355,-1.93842c0,0 0.98795,3.8885 3.36203,7.32345c1.7693,2.55993 5.27287,5.83376 5.27287,5.83376c0,0 -2.95667,2.38931 -7.07204,2.59496c-4.03037,0.2014 -5.99306,-0.44098 -5.99306,-0.44098c0,0 0.31845,2.86392 2.94399,6.69734z" fill="#ecec68" stroke="#0d0d00" stroke-width="1.75" stroke-linecap="butt"/><path d="M331.04343,60.61159c-5.75837,-1.93573 -17.95477,-6.85656 -16.66569,-10.5683c1.28907,-3.71173 13.55128,-3.38204 20.62176,0.40129c8.87474,4.74874 17.30387,19.24172 12.06226,22.22433c-5.13789,2.92358 -10.25997,-10.12163 -16.01834,-12.05734z" fill="#6e6e30" stroke="#0d0d00" stroke-width="1.35" stroke-linecap="butt"/><path d="M295.00498,139.9301c-0.3734,0.03719 -28.2982,7.33834 -42.41521,-1.97352c-12.19529,-8.04429 1.67877,-15.29382 1.67877,-15.29382c0,0 -22.85516,-18.07535 -15.44733,-27.40294c9.72878,-12.25 30.70771,4.33668 48.43033,17.229c10.60616,7.71545 28.75294,20.80418 28.75294,20.80418c0,0 -14.1747,5.95733 -20.99947,6.6371z" fill-opacity="0.4" fill="#f2d849" stroke="#0d0d00" stroke-width="1.5" stroke-linecap="butt"/><path d="M354.84308,139.93009c-6.82477,-0.67977 -20.99946,-6.6371 -20.99946,-6.6371c0,0 18.14678,-13.08873 28.75294,-20.80418c17.72262,-12.89231 38.70155,-29.479 48.43032,-17.229c7.40784,9.3276 -15.44733,27.40295 -15.44733,27.40295c0,0 13.87405,7.24952 1.67876,15.29382c-14.117,9.31187 -42.0418,2.01072 -42.4152,1.97352z" fill-opacity="0.4" fill="#f2d849" stroke="#0d0d00" stroke-width="1.5" stroke-linecap="butt"/><g stroke-linecap="butt"><path d="M333.91471,203.33417c0,0 0.18426,-15.96987 0.52629,-33.71738c0.46217,-23.98109 -8.44486,-60.87338 16.50243,-48.29548c6.54244,3.29856 9.72488,15.61156 9.42021,26.8707c-0.30286,11.192 -3.36584,21.75094 -3.36584,21.75094c0,0 -0.72521,11.4362 -1.47915,17.26859c-0.78145,6.04504 -3.8376,17.97591 -3.8376,17.97591z" fill="#ecec68" stroke="#0d0d00" stroke-width="1.75"/><path d="M343.63152,201.77738c4.81336,-0.74516 9.9322,3.2692 12.30129,8.26199c2.58121,5.43983 0.47373,13.48952 -1.90873,15.70148c-3.27247,3.03826 -9.99651,-1.05451 -9.99651,-1.05451c0,0 -5.63999,-22.09715 -0.39605,-22.90896z" fill="#ecec68" stroke="#0d0d00" stroke-width="1.75"/><path d="M353.10355,214.02734c0.01324,0.14841 0.33319,15.6103 -6.08274,15.38259c-8.56278,-0.3039 -8.99174,-7.87259 -8.99174,-7.87259c0,0 3.14149,-16.81683 9.31614,-17.03387c5.66766,-0.19922 5.75835,9.52388 5.75835,9.52388z" fill="#ecec68" stroke="#0d0d00" stroke-width="1.75"/><path d="M344.71769,202.10498c4.88617,0.49953 2.97386,9.85755 2.97386,9.85755c-0.01906,0.14427 -1.92602,13.57544 -7.6552,15.0503c-7.97093,2.05193 -6.76925,-9.66881 -6.76925,-9.66881c0,0 6.12734,-15.78325 11.4506,-15.23905z" fill="#ecec68" stroke="#0d0d00" stroke-width="1.75"/><path d="M346.56114,202.94976c1.68687,1.36906 -7.49376,4.33468 -10.00893,8.45426c-2.87612,3.90315 0.52445,9.06088 0.52445,9.06088c0,0 -14.06432,-0.32211 -7.13944,-14.34918c3.29872,-6.68188 13.78964,-5.46631 16.62392,-3.16599z" fill="#ecec68" stroke="#0d0d00" stroke-width="1.75"/><path d="M334.42114,206.35597l1.03183,-12.05643l17.01604,0.88245l-2.0893,14.83736z" fill="#ecec68" stroke="none" stroke-width="0"/><path d="M354.82502,220.19918c0,0 -2.11119,-1.69073 -5.41236,-1.8374c-2.62768,-0.11675 -6.01655,0.60276 -7.73181,0.16268c-4.1547,-1.06596 -10.59852,-6.0848 -10.59852,-6.0848l7.10876,-11.71268c0,0 7.0031,-1.64056 14.24371,5.94275c3.50815,3.67417 2.39022,13.52945 2.39022,13.52945z" fill="#ecec68" stroke="none" stroke-width="0"/><path d="M346.26766,154.55237c-7.68554,-0.4123 -12.92245,-3.48801 -12.92245,-3.48801l-0.38361,-9.09184l26.74535,2.85004l-0.15787,7.82734c0,0 -2.42344,2.48494 -13.28141,1.90246z" fill-opacity="0.70196" fill="#0d0d00" stroke="none" stroke-width="0"/><path d="M345.19097,174.55086c-8.46091,-0.92555 -11.03986,-3.08626 -11.03986,-3.08626l-0.20965,-9.0733c0,0 3.49602,3.16369 11.29296,4.01925c8.64478,0.9486 12.22332,-1.53995 12.22332,-1.53995l-0.53723,8.21582c0,0 -2.39432,2.48562 -11.72954,1.46443z" fill-opacity="0.70196" fill="#0d0d00" stroke="none" stroke-width="0"/><path d="M344.17237,197.86009c-7.74903,-0.84969 -10.15793,-2.38888 -10.15793,-2.38888l-0.1118,-9.06287c0,0 3.24081,2.5331 10.38171,3.31875c7.91741,0.87108 10.92759,-1.04798 10.92759,-1.04798l-0.78191,8.16311c0,0 -1.70788,1.95538 -10.25766,1.01788z" fill-opacity="0.70196" fill="#0d0d00" stroke="none" stroke-width="0"/><path d="M346.283,150.60915c-8.16764,-0.23116 -12.67423,-2.14987 -12.71823,-2.98671c-0.63344,-12.04587 -3.42242,-23.10567 1.28649,-27.18509c2.6694,-2.31256 9.61458,-2.3819 16.09217,0.88396c5.39406,2.71958 10.78651,14.82697 9.36618,26.94429c-0.02483,0.21186 -2.27956,2.67601 -14.02661,2.34355z" fill="#9b9b44" stroke="#0d0d00" stroke-width="1.75"/></g><g stroke-linecap="butt"><path d="M290.15724,205.65957c0,0 -3.05616,-11.93087 -3.8376,-17.97591c-0.75395,-5.83239 -1.47915,-17.26859 -1.47915,-17.26859c0,0 -3.06299,-10.55894 -3.36584,-21.75094c-0.30467,-11.25914 2.87778,-23.57214 9.42022,-26.87071c24.94729,-12.5779 16.04027,24.31439 16.50243,48.29548c0.34203,17.7475 0.52629,33.71738 0.52629,33.71738z" fill="#ecec68" stroke="#0d0d00" stroke-width="1.75"/><path d="M298.20678,202.24949c5.24394,0.81181 -0.39606,22.90896 -0.39606,22.90896c0,0 -6.72404,4.09278 -9.99651,1.05451c-2.38245,-2.21195 -4.48993,-10.26164 -1.90872,-15.70147c2.36909,-4.99279 7.48792,-9.00716 12.30129,-8.262z" fill="#ecec68" stroke="#0d0d00" stroke-width="1.75"/><path d="M294.49307,204.97558c6.17465,0.21704 9.31614,17.03387 9.31614,17.03387c0,0 -0.42896,7.5687 -8.99174,7.8726c-6.41593,0.22771 -6.09598,-15.23418 -6.08274,-15.38259c0,0 0.09068,-9.72309 5.75834,-9.52388z" fill="#ecec68" stroke="#0d0d00" stroke-width="1.75"/><path d="M297.12057,202.57708c5.32326,-0.54421 11.4506,15.23904 11.4506,15.23904c0,0 1.20168,11.72075 -6.76925,9.66882c-5.72918,-1.47486 -7.63615,-14.90603 -7.65521,-15.0503c0,0 -1.91231,-9.35802 2.97386,-9.85755z" fill="#ecec68" stroke="#0d0d00" stroke-width="1.75"/><path d="M295.27716,203.42185c2.83427,-2.30032 13.32519,-3.51589 16.62391,3.16599c6.92489,14.02707 -7.13944,14.34919 -7.13944,14.34919c0,0 3.40057,-5.15773 0.52445,-9.06088c-2.51517,-4.11959 -11.69579,-7.08521 -10.00893,-8.45427z" fill="#ecec68" stroke="#0d0d00" stroke-width="1.75"/><path d="M291.45857,210.49144l-2.08931,-14.83735l17.01605,-0.88245l1.03183,12.05643z" fill="#ecec68" stroke="none" stroke-width="0"/><path d="M287.01326,220.67128c0,0 -1.11792,-9.85527 2.39022,-13.52944c7.24061,-7.5833 14.24371,-5.94275 14.24371,-5.94275l7.10876,11.71268c0,0 -6.44383,5.01884 -10.59852,6.0848c-1.71525,0.44008 -5.10412,-0.27943 -7.7318,-0.16268c-3.30117,0.14668 -5.41236,1.8374 -5.41236,1.8374z" fill="#ecec68" stroke="none" stroke-width="0"/><path d="M282.2892,153.12201l-0.15787,-7.82734l26.74535,-2.85004l-0.38361,9.09183c0,0 -5.23692,3.07571 -12.92245,3.488c-10.85798,0.58249 -13.28142,-1.90246 -13.28142,-1.90246z" fill-opacity="0.70196" fill="#0d0d00" stroke="none" stroke-width="0"/><path d="M284.91778,173.55855l-0.53724,-8.21582c0,0 3.57854,2.48855 12.22332,1.53995c7.79694,-0.85556 11.29296,-4.01926 11.29296,-4.01926l-0.20965,9.0733c0,0 -2.57896,2.16071 -11.03986,3.08626c-9.33522,1.0212 -11.72953,-1.46443 -11.72953,-1.46443z" fill-opacity="0.70196" fill="#0d0d00" stroke="none" stroke-width="0"/><path d="M287.40825,197.31432l-0.78191,-8.1631c0,0 3.01019,1.91907 10.9276,1.04799c7.1409,-0.78565 10.3817,-3.31875 10.3817,-3.31875l-0.1118,9.06287c0,0 -2.4089,1.53919 -10.15793,2.38888c-8.54978,0.9375 -10.25766,-1.01788 -10.25766,-1.01788z" fill-opacity="0.70196" fill="#0d0d00" stroke="none" stroke-width="0"/><path d="M281.52868,148.73764c-1.42033,-12.11732 3.97212,-24.22471 9.36618,-26.94429c5.53409,-2.79017 11.90224,-3.64596 14.57628,-2.24832c5.97719,3.12408 3.48812,15.50895 2.80238,28.54945c-0.04401,0.83684 -4.55059,2.75555 -12.71824,2.98671c-11.74706,0.33246 -14.00177,-2.13169 -14.02661,-2.34355z" fill="#9b9b44" stroke="#0d0d00" stroke-width="1.75"/></g><g><g stroke="#0d0d00" stroke-linecap="butt"><path d="M343.28368,168.52618c1.57051,0.61318 8.28838,9.05799 8.28838,9.05799c0,0 11.70608,5.3101 12.42364,28.4523c0.59213,19.09689 -6.03411,34.31567 -6.03411,34.31567c0,0 -1.54311,18.66129 -4.4982,32.98192c-2.95508,14.32063 -9.77938,36.72745 -9.77938,36.72745l-23.53796,-0.71747l0.07992,-132.64153c0,0 14.92481,-11.3517 23.05772,-8.17632z" fill="#494920" stroke-width="1.75"/><path d="M319.85249,305.29258v-3.32279c0,0 27.48357,-0.6001 27.98562,0c0.93972,1.12327 -0.81595,3.43621 -3.17871,4.19494z" fill="#080d00" stroke-width="1.5"/></g><g stroke="#0d0d00" stroke-linecap="butt"><path d="M297.64475,168.27618c8.13291,-3.17538 23.05772,8.17632 23.05772,8.17632l0.07992,132.64153l-23.53796,0.71747c0,0 -6.8243,-22.40682 -9.77938,-36.72745c-2.95509,-14.32064 -4.4982,-32.98192 -4.4982,-32.98192c0,0 -6.62624,-15.21878 -6.03411,-34.31568c0.71756,-23.14219 12.42364,-28.4523 12.42364,-28.4523c0,0 6.71787,-8.44481 8.28838,-9.05799z" fill="#494920" stroke-width="1.75"/><path d="M320.54209,307.57133l0.15642,14.66283c0,0 -2.13105,3.33828 -9.57044,6.63437c-13.16886,5.83458 -24.81656,5.60696 -30.80438,4.24795c-3.1241,-0.83013 -6.25925,-6.65632 -2.7366,-11.22699c3.1823,-4.12908 10.60019,-4.84717 15.0485,-8.02239c3.86947,-2.76205 5.72916,-5.94676 5.72916,-5.94676z" fill="#ffffd5" stroke-width="1.5"/><path d="M298.36473,303.96627l22.55234,0.18266l-0.21858,14.13117c0,0 -19.29936,15.66566 -40.37482,10.88232c-3.12409,-0.83014 -5.56047,-4.33037 -2.03782,-8.90104c3.1823,-4.12908 9.90142,-7.17312 14.34973,-10.34834c3.86947,-2.76205 5.72916,-5.94677 5.72916,-5.94677z" fill="#0d0d00" stroke-width="1.5"/><path d="M293.59031,301.71979c0.50205,-0.6001 27.48562,0 27.48562,0v3.32279c0,0 -23.44233,1.32909 -24.80692,0.89088c0,0 -5.36842,-2.3404 -2.6787,-4.21367z" fill="#080d00" stroke-width="1.5"/></g><path d="M342.39704,308.17037c0,0 1.85969,3.18471 5.72916,5.94676c4.44831,3.17522 11.8662,3.89332 15.0485,8.02239c3.52265,4.57067 0.3875,10.39685 -2.7366,11.22699c-5.98782,1.35901 -17.63553,1.58663 -30.80439,-4.24795c-7.43939,-3.29608 -9.57043,-6.63436 -9.57043,-6.63436l0.15642,-14.66283z" fill="#ffffd5" stroke="#0d0d00" stroke-width="1.5" stroke-linecap="butt"/><path d="M342.39704,304.21627c0,0 1.85969,3.18472 5.72916,5.94677c4.44831,3.17523 11.16743,6.21927 14.34973,10.34834c3.52265,4.57066 1.08627,8.0709 -2.03782,8.90104c-21.07546,4.78335 -40.37482,-10.88232 -40.37482,-10.88232l-0.21858,-14.13117l22.55234,-0.18266z" fill="#0d0d00" stroke="#0d0d00" stroke-width="1.5" stroke-linecap="butt"/><path d="M303.78502,203.29672l-1,-20.1721h35.96121l-0.8,20.63442c0,0 -11.12869,1.61816 -17.03787,1.61816c-6.07339,0 -17.12334,-2.08048 -17.12334,-2.08048z" fill="#494920" stroke="none" stroke-width="0" stroke-linecap="butt"/><path d="M337.61104,203.09226c0,0 -7.8499,2.22242 -17.37731,2.30103c-8.35113,0.06889 -16.04309,-2.30103 -16.04309,-2.30103" fill="none" stroke="#0d0d00" stroke-width="1.5" stroke-linecap="round"/></g><path d="M320.75823,132.32217c0.06985,-0.16235 0.107,-0.24689 0.107,-0.24689v0.00001h18.75144c0,0 1.37601,4.76768 3.85007,11.32321c2.57928,6.83438 7.10244,15.61194 9.06639,22.95627c1.5955,5.96648 -1.01543,8.66603 -1.01543,8.66603c0,0 -6.00131,9.92318 -30.24426,10.29841c-0.16929,0.00506 -0.34116,0.00717 -0.51565,0.00629c-0.17397,0.00087 -0.34535,-0.00124 -0.51416,-0.00628c-24.24346,-0.37507 -30.24486,-10.29841 -30.24486,-10.29841c0,0 -2.61094,-2.69955 -1.01543,-8.66603c1.96395,-7.34433 6.48711,-16.12189 9.06639,-22.95627c2.47406,-6.55554 3.85007,-11.32321 3.85007,-11.32321h18.75144v-0.00001c0,0 0.03714,0.08454 0.10699,0.24689z" fill="#9b9b44" stroke="#0d0d00" stroke-width="1.75" stroke-linecap="butt"/><path d="M289.41604,173.66519c0.79186,0.40108 6.00669,6.85483 27.86798,7.022c0.79943,-0.02557 3.08803,-0.01009 3.34889,-0.0071c0.26076,-0.003 2.54898,-0.01847 3.34835,0.0071c21.86145,-0.16714 27.07632,-6.62091 27.86818,-7.022c1.45187,-0.73539 4.78457,7.29166 4.78457,7.29166c0,0 -12.05131,10.00632 -35.36556,9.62753c-0.2124,-0.00345 -0.42435,-0.01024 -0.63567,-0.02027c-0.21135,0.01003 -0.42332,0.01682 -0.63576,0.02027c-23.31425,0.37879 -33.19451,-12.49495 -33.19451,-12.49495c0,0 1.16167,-5.15963 2.61353,-4.42424z" fill="#0d0d00" stroke="none" stroke-width="0" stroke-linecap="butt"/><path d="M313.15504,190.13465c-1.07703,-2.16887 -1.10216,-8.29971 -0.33441,-10.13225c0.79267,-1.89198 13.79684,-1.87059 15.24756,-0.55876c1.39648,1.26279 1.05602,9.73868 -0.16719,11.06355c-1.13434,1.22859 -13.95538,0.94675 -14.74601,-0.37252z" fill="#ffffd5" stroke="#0d0d00" stroke-width="1.5" stroke-linecap="butt"/><path d="M296.78554,125.76589c0.32537,-1.24761 16.56815,-13.38279 23.45285,-8.33304c9.55264,7.00662 9.91519,32.29449 3.61552,33.37236c-25.44486,6.98503 -30.69159,3.79904 -33.59609,-0.36327c-3.29266,-4.71855 -1.59525,-9.6415 0.67485,-13.06499c2.2701,-3.42349 4.02537,-4.60358 5.85287,-11.61106z" fill="#9b9b44" stroke="#0d0d00" stroke-width="1.5" stroke-linecap="butt"/><path d="M351.0639,150.44189c-2.9045,4.16231 -8.15123,7.3483 -33.59609,0.36327c-6.29967,-1.07787 -5.93713,-26.36574 3.61551,-33.37236c6.8847,-5.04976 23.12747,7.08544 23.45284,8.33304c1.82749,7.00748 2.71566,6.87985 5.85289,11.61106c2.2701,3.42348 3.96751,8.34643 0.67484,13.06499z" fill="#9b9b44" stroke="#0d0d00" stroke-width="1.5" stroke-linecap="butt"/><path d="M313.06447,166.72672l2.64991,-25c0,0 1.91704,-23.10385 9.22314,-21.5345c4.76222,1.02292 16.30428,30.0345 16.30428,30.0345c0,0 -9.95417,1.21223 -8.64532,4.11764c0.69307,1.53849 4.1497,1.06187 5.45511,3.45045c1.75592,3.21291 2.66024,6.93191 2.66024,6.93191z" fill="#9b9b44" stroke="none" stroke-width="0" stroke-linecap="butt"/><path d="M300.60991,164.72672c0,0 0.90432,-3.719 2.66024,-6.93191c1.30541,-2.38858 4.76205,-1.91196 5.45511,-3.45045c1.30884,-2.90541 -8.64532,-4.11764 -8.64532,-4.11764c0,0 11.54207,-29.01159 16.30428,-30.03451c7.3061,-1.56934 9.22315,21.53451 9.22315,21.53451l2.6499,25z" fill="#9b9b44" stroke="none" stroke-width="0" stroke-linecap="butt"/><path d="M291.75588,129.4786c0,0 -2.15614,-9.94773 28,-10.25c34.78554,-0.34867 31.5,10.5 31.5,10.5c0,0 -15.47005,-1.51702 -28.25056,-1.61555c-25.48246,-0.19647 -31.24944,1.36555 -31.24944,1.36555z" fill="#9b9b44" stroke="none" stroke-width="0" stroke-linecap="butt"/><path d="M320.13442,146.53856v-25.65" fill="none" stroke="#0d0d00" stroke-width="1" stroke-linecap="round"/><path d="M326.49697,132.0219c0,1.27025 -0.60788,1.58571 -1.54452,1.58571c-0.93664,0 -1.84736,-0.31546 -1.84736,-1.58571c0,-1.27025 0.7593,-1.87143 1.69594,-1.87143c0.93664,0 1.69594,0.60117 1.69594,1.87143z" fill="#ffffd5" stroke="#0d0d00" stroke-width="1" stroke-linecap="butt"/><path d="M325.00293,137.69332c0.93663,0 1.84736,0.45831 1.84736,1.72857c0,1.27025 -0.7593,1.58571 -1.69594,1.58571c-0.93664,0 -1.69594,-0.31546 -1.69594,-1.58571c0,-1.27025 0.60787,-1.72857 1.54451,-1.72857z" fill="#ffffd5" stroke="#0d0d00" stroke-width="1" stroke-linecap="butt"/><path d="M316.85449,117.97569l8.06707,-2.18397c0,0 11.58422,-0.76407 15.1265,7.27918c2.56293,5.81948 -3.86724,12.64744 -3.86724,12.64744z" fill="#c1c155" stroke="#0d0d00" stroke-width="1.5" stroke-linecap="butt"/><path d="M304.11668,135.71839c0,0 -5.68017,-7.32796 -3.11724,-13.14744c3.54228,-8.04325 14.3765,-6.77918 14.3765,-6.77918l7.33979,2.72942z" fill="#c1c155" stroke="#0d0d00" stroke-width="1.5" stroke-linecap="butt"/><path d="M314.83137,94.64583h11.99007l1.29622,21.45252c0,0 -3.04103,4.91539 -7.45329,4.79603c-4.43,-0.11983 -7.12923,-4.79603 -7.12923,-4.79603z" fill="#ecec68" stroke="#0d0d00" stroke-width="1.5" stroke-linecap="butt"/><path d="M352.37925,109.24064c0,0 -5.67866,-4.48973 -10.18509,-6.91968c-3.8304,-2.06544 -3.8668,-6.64569 -0.82058,-9.23582c3.0462,-2.59011 3.32531,-7.57342 7.04776,-4.51869c9.26639,7.60421 3.95791,20.67419 3.95791,20.67419z" fill="#ecec68" stroke="#0d0d00" stroke-width="1.75" stroke-linecap="butt"/><path d="M348.67137,100.38363c1.5557,9.14 -6.81427,15.02421 -6.81427,15.02421c0,0 -5.3853,-7.28865 -7.38094,-9.3899c-3.74622,-3.94445 -1.84706,-9.48556 2.92781,-11.45653c4.77487,-1.97098 10.01313,0.01651 11.26741,5.82221z" fill="#ecec68" stroke="#0d0d00" stroke-width="1.75" stroke-linecap="butt"/><path d="M293.01985,88.61698c3.38715,-2.77958 3.64111,1.75486 6.41295,4.11168c2.77182,2.35683 2.73872,6.52453 -0.74667,8.40393c-4.10052,2.21108 -9.26769,6.29642 -9.26769,6.29642c0,0 -4.83032,-11.89276 3.60141,-18.81203z" fill="#ecec68" stroke="#0d0d00" stroke-width="1.75" stroke-linecap="butt"/><path d="M298.99283,113.04074c0,0 -7.98074,-5.43065 -6.20051,-13.67093c1.14129,-5.28278 5.90775,-7.09125 10.25254,-5.2978c4.34478,1.79345 6.07288,6.83546 2.66409,10.42461c-4.01039,4.2226 -6.71612,8.54412 -6.71612,8.54412z" fill="#ecec68" stroke="#0d0d00" stroke-width="1.75" stroke-linecap="butt"/><path d="M301.59803,30.4193c0,0 -23.35553,12.63505 -25.68784,5.78342c-1.46342,-4.29905 6.94225,-6.03436 14.3276,-8.06182c7.48051,-2.05357 13.95908,-4.36218 15.17266,-2.86566c1.51952,1.87382 0.37278,6.37265 2.9124,16.93586c1.44335,6.00345 5.12788,13.92499 5.12788,13.92499l-5.77123,1.812c0,0 -2.83192,-8.22372 -3.99914,-14.33664c-1.83585,-9.61463 -2.08233,-13.19216 -2.08233,-13.19216z" fill="#0d0d00" stroke="none" stroke-width="NaN" stroke-linecap="butt"/><path d="M338.44203,30.41927c0,0 -0.24646,3.57751 -2.08233,13.19216c-1.16722,6.11294 -3.99914,14.33665 -3.99914,14.33665l-5.77123,-1.81201c0,0 3.68452,-7.92154 5.12787,-13.92499c2.53962,-10.5632 1.39289,-15.06203 2.9124,-16.93586c1.21358,-1.49654 7.69214,0.81208 15.17266,2.86566c7.38534,2.02745 15.79102,3.76276 14.32761,8.06183c-2.33231,6.85162 -25.68785,-5.78342 -25.68785,-5.78342z" fill="#0d0d00" stroke="none" stroke-width="NaN" stroke-linecap="butt"/><path d="M333.25092,111.24098c-5.39633,2.42837 -11.11885,3.2552 -12.63917,3.29799c-1.62745,0.04581 -7.62619,-0.86958 -13.0226,-3.29799c-5.6966,-2.5635 -10.49162,-5.42657 -13.13504,-11.89723c-2.08925,-5.1142 -1.85512,-10.80292 -1.46639,-16.6843c0.38849,-5.8776 1.11268,-11.94742 4.75897,-18.47579c7.00878,-12.54859 21.61002,-12.62799 22.73396,-12.63931c1.12392,-0.01131 15.60362,0.09013 22.61273,12.63931c3.64629,6.52838 4.37048,12.59818 4.75897,18.47579c0.38874,5.88138 0.62287,11.57011 -1.46639,16.6843c-2.64342,6.47068 -7.43844,9.33373 -13.13505,11.89723z" fill="#ecec68" stroke="#0d0d00" stroke-width="1.75" stroke-linecap="butt"/><path d="M299.84331,110.2492c0,0 -1.99359,-3.08799 -4.74456,-5.88212c-0.9151,-0.92947 -1.58364,-3.06038 -2.53014,-3.8033c-0.68835,-0.5403 -1.75684,0.25956 -2.03669,-0.16701c-1.10615,-1.68601 -0.31607,-5.2344 -0.31607,-5.2344c0,0 -0.32033,-1.59248 0.58055,-2.86983c0.50402,-0.71466 1.43736,-2.11676 2.61656,-3.2302c0.95813,-0.90469 2.24674,-1.61881 2.24674,-1.61881l8.41318,17.075z" fill="#ecec68" stroke="none" stroke-width="0" stroke-linecap="butt"/><path d="M336.27419,106.0421l9.24599,-18.76524c0,0 1.41616,0.78481 2.46912,1.77905c1.29593,1.22367 2.32163,2.76455 2.87556,3.54995c0.99005,1.4038 0.63802,3.15391 0.63802,3.15391c0,0 0.86827,3.89963 -0.34736,5.75256c-0.30756,0.46879 -1.4818,-0.41026 -2.23829,0.18353c-1.04016,0.81646 -1.7749,3.15831 -2.78059,4.17978c-3.02327,3.07072 -5.39049,6.46439 -5.39049,6.46439z" fill="#ecec68" stroke="none" stroke-width="0" stroke-linecap="butt"/><path d="M310.08925,79.35676c1.22754,0.04077 5.15488,1.09906 6.45359,1.19059c0.68483,0.04826 8.19333,-1.18061 8.85823,-1.12073c9.38846,0.84552 11.78725,4.91413 11.66388,6.66469c-0.10663,1.513 -2.35982,3.68789 -9.94462,3.59368c-1.8125,-0.02252 -8.31525,-0.92938 -10.31239,-1.07013c-2.89355,-0.20392 -5.43282,1.58641 -7.86486,1.20203c-6.27104,-0.99111 -9.47083,-5.01753 -9.37564,-6.36824c0.11554,-1.63944 1.9621,-4.37623 10.5218,-4.09191z" fill="#c4c44a" stroke="none" stroke-width="0" stroke-linecap="butt"/><path d="M344.09004,88.76505c0.67719,2.43193 -1.86113,4.5778 -6.15755,5.77418c-4.29642,1.19639 -8.724,0.99027 -9.40119,-1.44168c-0.67721,-2.43193 2.25675,-5.37324 6.55318,-6.56964c4.2964,-1.19639 8.32833,-0.19479 9.00552,2.23715z" fill="#a5a549" stroke="none" stroke-width="0" stroke-linecap="butt"/><path d="M334.44356,66.17557c4.99604,0.61357 6.27605,8.85267 6.27605,8.85267c0,0 -2.55047,-4.63254 -6.81571,-5.36342c-3.9853,-0.68289 -7.88243,2.60059 -7.88243,2.60059c0,0 2.93152,-6.76415 8.4221,-6.08983z" fill="#0d0d00" stroke="none" stroke-width="0" stroke-linecap="butt"/><path d="M321.3069,87.67874c-0.54288,-6.9379 3.85924,-12.8533 9.91551,-12.8533c6.0563,0 12.07614,7.5727 10.65589,14.19698c0,0 -20.35259,2.45559 -20.5714,-1.34368z" fill="#0d0d00" stroke="#0d0d00" stroke-width="1" stroke-linecap="butt"/><g fill="#0d0d00" stroke="none" stroke-width="0" stroke-linecap="butt"><path d="M343.29952,76.08952l-2.00587,6.54601l-3.71892,-4.74121z"/><path d="M344.92835,81.53837l-2.98143,6.79851l-1.42463,-6.19976z"/><path d="M344.22497,78.88089l-1.76252,5.41792l-2.12367,-4.72962z"/></g><path d="M299.52097,86.70951c3.71442,1.03433 6.25093,3.57721 5.66547,5.67971c-0.58546,2.10251 -4.41326,2.28071 -8.12768,1.24639c-3.71442,-1.03432 -4.28389,-3.01451 -3.69843,-5.117c0,0 2.44624,-2.84341 6.16064,-1.80909z" fill="#a5a549" stroke="none" stroke-width="0" stroke-linecap="butt"/><path d="M303.36767,75.9505c6.05627,0 10.33339,5.79039 9.79051,12.72829c-0.11243,1.95206 -20.14277,1.7526 -20.32137,-0.5313c-0.02423,-0.30981 0.04045,-6.26 0.18549,-6.80679c0.92413,-3.48411 5.11061,-5.3902 10.34537,-5.3902z" fill="#0d0d00" stroke="#080d00" stroke-width="1" stroke-linecap="butt"/><g fill="#0d0d00" stroke="none" stroke-width="0" stroke-linecap="butt"><path d="M297.16023,78.16093l-3.74134,4.72354l-1.97484,-6.55543z"/><path d="M294.19255,82.38972l-1.45397,6.19294l-2.9492,-6.81255z"/><path d="M294.38827,79.82273l-2.14605,4.71951l-1.73685,-5.42621z"/></g><g stroke="none" stroke-width="0" stroke-linecap="butt"><path d="M331.56412,77.89656c0.60557,0 1.17964,0.1846 1.70412,0.49773c0,1.71358 0,3.42721 0,5.14079c-0.92138,0 -1.84276,0 -2.76414,0c0,-1.81122 0,-3.62244 0,-5.43365c0.33197,-0.13194 0.68597,-0.20487 1.06002,-0.20487z" fill="#6e6e30"/><path d="M326.99093,83.53508c0.08817,-1.81721 1.06295,-4.18333 2.65421,-5.17228c0,1.72408 0,3.44818 0,5.17228c-0.25768,0 -0.51534,0 -0.77302,0c-0.62706,0 -1.2541,0 -1.88117,0z" fill="#6e6e30"/><path d="M333.95534,83.53508c0,-1.59347 0,-3.18693 0,-4.7804c1.40553,1.13236 2.35025,3.17034 2.40395,4.7804c-0.80131,0 -1.60264,0 -2.40395,0z" fill="#6e6e30"/><path d="M331.94708,88.66856c-0.47974,0 -0.93946,-0.07865 -1.37029,-0.22175c-0.0389,-0.68055 -0.07269,-1.36339 -0.07269,-2.04981c0,-0.70921 0,-1.41842 0,-2.12763c0.92138,0 1.84276,0 2.76414,0c0,0.60909 0,1.21819 0,1.82726c0,0.77139 0.03361,1.54928 0.06065,2.3225c-0.42224,0.16042 -0.8844,0.24938 -1.38178,0.24938h-0.00001z" fill="#6e6e30"/><path d="M329.04395,84.26933c0.25768,0 0.51534,0 0.77302,0c0,0.7092 0,1.41843 0,2.12764c0,0.61432 0.02709,1.2262 0.06069,1.83619c-1.53445,-0.73814 -2.59997,-2.31639 -2.71171,-3.96381c0.64328,0 1.27615,0 1.878,0z" fill="#6e6e30"/><path d="M336.34565,84.26936c-0.12491,1.59313 -0.97423,3.15327 -2.34297,3.91583c-0.02362,-0.6952 -0.04735,-3.3068 -0.04735,-3.91587c0.79678,0 1.59355,0 2.39033,0z" fill="#6e6e30"/><path d="M333.79312,81.30455c0.0244,-0.39568 0.93911,-0.82406 1.57472,-0.82164c0.63561,0.0024 1.39019,0.43716 1.36579,0.83286c-0.02441,0.39571 -0.8723,0.97158 -1.60749,0.9198c-0.73521,-0.05178 -1.35743,-0.53532 -1.33303,-0.931z" fill="#ffffff"/></g><g stroke="none" stroke-width="0" stroke-linecap="butt"><path d="M306.52597,78.1637c0.37405,0 0.72804,0.07294 1.06001,0.20487c0,1.81122 0,3.62244 0,5.43365c-0.92138,0 -1.84276,0 -2.76414,0c0,-1.71358 0,-3.42721 0,-5.14079c0.52447,-0.31314 1.09855,-0.49773 1.70412,-0.49773z" fill="#6e6e30"/><path d="M311.09909,83.80224c-0.62707,0 -1.25412,0 -1.88118,0c-0.25768,0 -0.51534,0 -0.77302,0c0,-1.72408 0,-3.44818 0,-5.17228c1.59125,0.98895 2.56603,3.35505 2.6542,5.17228z" fill="#6e6e30"/><path d="M301.7308,83.80224c0.0537,-1.61006 0.99842,-3.64805 2.40395,-4.7804c0,1.59347 0,3.18693 0,4.7804c-0.80131,0 -1.60264,0 -2.40395,0z" fill="#6e6e30"/><path d="M306.143,88.93565h-0.00001c-0.49738,0 -0.95954,-0.08896 -1.38178,-0.24938c0.02704,-0.77322 0.06065,-1.55111 0.06065,-2.3225c0,-0.60909 0,-1.21819 0,-1.82726c0.92138,0 1.84276,0 2.76414,0c0,0.7092 0,1.41843 0,2.12764c0,0.68642 -0.03379,1.36926 -0.07269,2.0498c-0.43083,0.1431 -0.89056,0.22175 -1.37029,0.22175z" fill="#6e6e30"/><path d="M309.04616,84.53649c0.60185,0 1.23472,0 1.878,0c-0.11174,1.64743 -1.17726,3.22568 -2.71171,3.96381c0.0336,-0.60999 0.06069,-1.22187 0.06069,-1.83619c0,-0.7092 0,-1.41843 0,-2.12764c0.25768,0 0.51534,0 0.77302,0z" fill="#6e6e30"/><path d="M301.7444,84.53652c0.79678,0 1.59355,0 2.39033,0c0,0.60909 0,1.21819 0,1.82726c0,0.69568 -0.02374,1.3934 -0.04735,2.0886c-1.36874,-0.76256 -2.21806,-2.32268 -2.34297,-3.91583z" fill="#6e6e30"/><path d="M311.16772,81.5717c0.0244,0.39568 -0.59781,0.87921 -1.33302,0.931c-0.73519,0.05177 -1.58308,-0.5241 -1.60749,-0.9198c-0.0244,-0.3957 0.73017,-0.83045 1.36579,-0.83286c0.63561,-0.00241 1.55032,0.42597 1.57472,0.82164z" fill="#ffffff"/></g><path d="M316.97989,72.602c0,0 -11.81833,7.27985 -25.46746,3.41444c-14.39759,-4.07737 -14.17296,-16.34983 -14.17296,-16.34983c0,0 1.62716,1.44595 2.48257,1.94144c0.85543,0.49551 2.31671,0.83855 2.31671,0.83855c0,0 -1.73431,-5.74458 -0.29947,-12.78699c2.16815,-10.64157 7.65901,-10.6043 7.65901,-10.6043c0,0 -0.32139,2.1059 0.38424,5.26056c0.33229,1.48547 1.58083,3.41165 1.58083,3.41165c0,0 1.44499,-5.2969 8.28309,-8.4005c7.87432,-3.57392 13.27454,-0.24367 13.27454,-0.24367c0,0 -1.3787,0.64686 -2.36171,1.63738c-0.96754,0.97498 -1.54266,2.29057 -1.18342,2.69804c0.12836,0.14562 4.30181,1.5816 7.08493,3.43537c3.17523,2.11493 5.88686,5.05868 5.88686,5.05868" fill="#ecec68" stroke="#0d0d00" stroke-width="1.75" stroke-linecap="round"/><g><g fill="#0d0d00" stroke="#0d0d00" stroke-width="1" stroke-linecap="round"><path d="M311.88671,98.21746c5.38354,-0.85401 9.37234,-2.21256 11.59717,-2.58218c2.81188,-0.46714 6.89472,-0.00027 12.57896,-1.72491c2.88975,-0.87676 9.06062,-3.56831 9.06062,-3.56831c0,0 -3.34944,15.77558 -16.87122,18.34097c-14.5854,2.76718 -24.87924,-10.81402 -24.87924,-10.81402c0,0 5.4022,0.84204 8.51372,0.34845z"/></g><path d="M335.72019,103.8398c0.00404,1.42343 -2.84691,3.24374 -7.02297,4.13591c-4.17607,0.89218 -7.80253,0.48696 -8.22353,-0.18509c-0.75567,-1.20629 3.51018,-3.38544 7.68625,-4.27761c4.17607,-0.89218 7.55651,-0.98925 7.56025,0.3268z" fill="#9b9b44" stroke="none" stroke-width="0" stroke-linecap="butt"/><path d="M310.64258,102.67794l-5.10429,-3.76443c0,0 3.56331,0.56569 7.54298,0.08325c3.68942,-0.44725 7.69017,-1.92183 10.6845,-2.47448c2.74802,-0.50718 7.10527,-0.38673 10.80095,-1.27009c5.02849,-1.20193 9.13815,-3.3829 9.13815,-3.3829l-2.41856,4.26192c0,0 -8.03295,2.68714 -15.58779,4.30116c-6.60484,1.41105 -15.05595,2.24557 -15.05595,2.24557z" fill="#ffffff" stroke="none" stroke-width="0" stroke-linecap="butt"/></g></g></g></svg>