<svg version="1.1" xmlns="http://www.w3.org/2000/svg" xmlns:xlink="http://www.w3.org/1999/xlink" width="378" height="460.00001" viewBox="0,0,378,460.00001"><defs><linearGradient x1="320" y1="-67.5" x2="320" y2="269.5" gradientUnits="userSpaceOnUse" id="color-1"><stop offset="0" stop-color="#ffffd1"/><stop offset="1" stop-color="#f1f19c"/></linearGradient></defs><g transform="translate(-131,83.00001)"><g stroke-miterlimit="10"><path d="M145.24891,375c-6.76488,0 -12.24891,-5.33739 -12.24891,-11.9214v-432.15721c0,-6.58401 5.48402,-11.9214 12.24891,-11.9214h349.50219c6.76488,0 12.2489,5.33739 12.2489,11.9214v432.15721c0,6.584 -5.48402,11.9214 -12.2489,11.9214z" fill="#535311" fill-rule="nonzero" stroke="#212108" stroke-width="4" stroke-linecap="butt" stroke-linejoin="miter"/><path d="M160.66812,361.5c-6.16798,0 -11.16812,-4.94148 -11.16812,-11.03711v-406.92577c0,-6.09563 5.00014,-11.03711 11.16812,-11.03711h318.66376c6.16798,0 11.16812,4.94149 11.16812,11.03712v406.92577c0,6.09563 -5.00014,11.03711 -11.16812,11.03711z" fill="url(#color-1)" fill-rule="nonzero" stroke="#212108" stroke-width="4.5" stroke-linecap="butt" stroke-linejoin="miter"/><text transform="translate(160.5,-35.68135) scale(0.61033,0.61033)" font-size="40" xml:space="preserve" fill="#212108" fill-rule="nonzero" stroke="none" stroke-width="1" stroke-linecap="butt" stroke-linejoin="miter" font-family="&quot;Allan-Regular&quot;, Sans Serif" font-weight="normal" text-anchor="start"><tspan x="0" dy="0">name: Howard</tspan><tspan x="0" dy="46.150000000000006px">age: </tspan><tspan x="0" dy="46.150000000000006px">occupation: financial supporter</tspan></text><g><path d="M432.53444,-56.08653h32.93116c6.43804,0 11.62097,5.18296 11.62097,11.62097v32.93116c0,6.43802 -5.18294,11.62098 -11.62097,11.62098h-32.93116c-6.43802,0 -11.62098,-5.18296 -11.62098,-11.62097v-32.93116c0,-6.43801 5.18296,-11.62097 11.62098,-11.62097z" fill="#a0a300" fill-rule="evenodd" stroke="#212108" stroke-width="2" stroke-linecap="round" stroke-linejoin="round"/><g fill="none" fill-rule="nonzero" stroke="none" stroke-width="1" stroke-linecap="butt" stroke-linejoin="miter" font-family="sans-serif" font-weight="normal" font-size="12" text-anchor="start"><g/><g/></g></g><text transform="translate(160.5,55.7039) scale(0.46586,0.49145)" font-size="40" xml:space="preserve" fill="#212108" fill-rule="nonzero" stroke="none" stroke-width="1" stroke-linecap="butt" stroke-linejoin="miter" font-family="&quot;Allan-Regular&quot;, Sans Serif" font-weight="normal" text-anchor="start"><tspan x="0" dy="0">Description-</tspan><tspan x="0" dy="46.150000000000006px">During its earlier years, the MCS was almost </tspan><tspan x="0" dy="46.150000000000006px">constantly living off scraps, with their mustanyl </tspan><tspan x="0" dy="46.150000000000006px">drug ring not having many members, and most of </tspan><tspan x="0" dy="46.150000000000006px">them being amateur dealers. It was safe to say </tspan><tspan x="0" dy="46.150000000000006px">these guys were making NO bank. Until eventually, </tspan><tspan x="0" dy="46.150000000000006px">at some point during the 80s, Joopers met up with </tspan><tspan x="0" dy="46.150000000000006px">Howard, and they were able to come up with an </tspan><tspan x="0" dy="46.150000000000006px">arrangement that could benefit them both. Howard </tspan><tspan x="0" dy="46.150000000000006px">would be responsible for funding almost 80% of the</tspan><tspan x="0" dy="46.150000000000006px">company (because of how god damn loaded he is), </tspan><tspan x="0" dy="46.150000000000006px">and in return, Joopers would provide shelter for his 200 </tspan><tspan x="0" dy="46.150000000000006px">homunculi (he would take care of them, but they keep</tspan><tspan x="0" dy="46.150000000000006px">trashing his home).</tspan></text><path d="M160.16667,-30.16667v-1.66667h252.16667v1.66667z" fill="#212108" fill-rule="nonzero" stroke="none" stroke-width="0" stroke-linecap="butt" stroke-linejoin="miter"/><path d="M160.16667,-0.66667v-1.66667h252.16667v1.66667z" fill="#212108" fill-rule="nonzero" stroke="none" stroke-width="0" stroke-linecap="butt" stroke-linejoin="miter"/><path d="M160.16667,29.33333v-1.66667h252.16667v1.66667z" fill="#212108" fill-rule="nonzero" stroke="none" stroke-width="0" stroke-linecap="butt" stroke-linejoin="miter"/><g fill-rule="nonzero" stroke-width="1" stroke-linejoin="miter"><path d="M431.88786,-34.44022c0,-10.2189 8.28404,-18.50294 18.50294,-18.50294c10.2189,0 18.50294,8.28404 18.50294,18.50294c0,10.2189 -8.28404,18.50294 -18.50294,18.50294c-10.2189,0 -18.50294,-8.28404 -18.50294,-18.50294z" fill="#e3e361" stroke="none" stroke-linecap="butt"/><path d="M462.75172,-29.66774c0,0 2.6563,4.11022 -0.90838,6.98752c-3.41425,2.75589 -11.18002,1.18788 -11.18002,1.18788" fill="none" stroke="#000000" stroke-linecap="round"/><path d="M463.52034,-30.64598l-2.27094,2.27094" fill="none" stroke="#000000" stroke-linecap="round"/><path d="M450.62101,-25.73591c0,0 -9.15685,3.26325 -15.33104,2.95073c-6.91385,-0.34995 -9.04514,-4.65346 -9.10587,-6.62243c-0.05274,-1.71032 -0.18117,-8.04448 4.09518,-10.6937c4.35436,-2.69756 11.2746,-2.99299 14.82438,-3.73911c1.84022,-0.38678 2.05932,-1.81444 2.05932,-1.81444" fill="#e3e361" stroke="#000000" stroke-linecap="round"/><path d="M456.06848,-48.73507c0.47608,0 0.86201,0.82012 0.86201,1.8318c0,1.01167 -0.38594,1.8318 -0.86201,1.8318c-0.47608,0 -0.86201,-0.82012 -0.86201,-1.8318c0,-1.01167 0.38594,-1.8318 0.86201,-1.8318z" fill="#000000" stroke="none" stroke-linecap="butt"/><path d="M442.30952,-48.85737c0.47608,0 0.86201,0.82012 0.86201,1.8318c0,1.01167 -0.38594,1.8318 -0.86201,1.8318c-0.47608,0 -0.86201,-0.82012 -0.86201,-1.8318c0,-1.01167 0.38594,-1.8318 0.86201,-1.8318z" fill="#000000" stroke="none" stroke-linecap="butt"/><g fill="#e3e361" stroke="none" stroke-linecap="butt"><path d="M446.48251,-2.6689v-16.21475h3.59575v16.21475z"/><path d="M435.22038,-2.5332c0,0 -2.34035,-2.62192 0,-5.29185c3.10992,-3.54787 14.85786,0 14.85786,0v5.29185z"/></g><g fill="#e3e361" stroke="none" stroke-linecap="butt"><path d="M451.01897,-2.72335v-16.21475h3.59573v16.21475z"/><path d="M451.08682,-2.5198v-5.29185c0,0 11.74794,-3.54787 14.85786,0c2.34035,2.66993 0,5.29185 0,5.29185z"/></g></g><text transform="translate(195.5,-9.12547) scale(0.4242,0.4242)" font-size="40" xml:space="preserve" fill="#212108" fill-rule="nonzero" stroke="none" stroke-width="1" stroke-linecap="butt" stroke-linejoin="miter" font-family="&quot;Allan-Regular&quot;, Sans Serif" font-weight="normal" text-anchor="start"><tspan x="0" dy="0">for your own sake, we won’t tell you</tspan></text><text transform="translate(421.00729,12.91956) scale(0.24695,0.24695)" font-size="40" xml:space="preserve" fill="#212108" fill-rule="nonzero" stroke="none" stroke-width="1" stroke-linecap="butt" stroke-linejoin="miter" font-family="&quot;Allan-Regular&quot;, Sans Serif" font-weight="normal" text-anchor="start"><tspan x="0" dy="0">psst not unlockable</tspan></text></g></g></svg>