<svg version="1.1" xmlns="http://www.w3.org/2000/svg" xmlns:xlink="http://www.w3.org/1999/xlink" width="136.75" height="252.5" viewBox="0,0,136.75,252.5"><g transform="translate(-251.625,-54.25)"><g stroke-miterlimit="10"><path d="M354.3192,225.45124c-22.06299,-0.1834 -19.1942,-43.70123 -19.1942,-43.70123c0,0 2.78419,-31.82437 8.75,-13.25c5.09828,15.87332 -0.49833,46.3153 9.77767,47.18731c8.17455,0.69368 11.72233,-7.18731 11.72233,-7.18731l10.5,-0.75c0,0 -3.95466,17.84754 -21.5558,17.70123z" fill="#c5c556" stroke="#000000" stroke-width="2" stroke-linecap="butt"/><path d="M369.375,176.50001c9.94112,0 18,7.83501 18,17.5c0,9.66499 -8.05888,17.5 -18,17.5c-9.94113,0 -18,-7.83501 -18,-17.5c0,-9.66499 8.05887,-17.5 18,-17.5z" fill="#ffffff" stroke="#000000" stroke-width="2" stroke-linecap="butt"/><path d="M264.125,207.75001l10.5,0.75c0,0 3.54778,7.88099 11.72233,7.18731c10.276,-0.87201 4.67939,-31.31399 9.77767,-47.18731c5.96581,-18.57437 8.75,13.25 8.75,13.25c0,0 2.86879,43.51783 -19.1942,43.70123c-17.60114,0.14631 -21.5558,-17.70123 -21.5558,-17.70123z" fill="#c5c556" stroke="#000000" stroke-width="2" stroke-linecap="butt"/><path d="M300.62501,305.75001v-162h38.75v162z" fill="#c5c556" stroke="#000000" stroke-width="2" stroke-linecap="butt"/><path d="M288.625,194.00001c0,9.66499 -8.05887,17.5 -18,17.5c-9.94112,0 -18,-7.83501 -18,-17.5c0,-9.66499 8.05888,-17.5 18,-17.5c9.94113,0 18,7.83501 18,17.5z" fill="#ffffff" stroke="#000000" stroke-width="2" stroke-linecap="butt"/><path d="M296.125,184.75001l3.5,-12.25l40.75,-0.25l3,12.5z" fill="#c5c556" stroke="none" stroke-width="0" stroke-linecap="butt"/><path d="M284.57585,65.15451l26.33847,42.17935l-8.5018,4.23903z" fill="#000000" stroke="none" stroke-width="0" stroke-linecap="butt"/><path d="M258.99912,83.99912l38.36055,31.64303l-6.71751,6.71751z" fill="#000000" stroke="none" stroke-width="0" stroke-linecap="butt"/><path d="M337.5875,111.57288l-8.5018,-4.23903l26.33848,-42.17935z" fill="#000000" stroke="none" stroke-width="0" stroke-linecap="butt"/><path d="M349.35787,122.35966l-6.71751,-6.71751l38.36055,-31.64303z" fill="#000000" stroke="none" stroke-width="0" stroke-linecap="butt"/><path d="M324.75001,103.75001h-9.5l4.75,-49.5z" fill="#000000" stroke="none" stroke-width="0" stroke-linecap="butt"/><path d="M283.01892,140.16075c1.10019,11.82096 -2.74123,23.63924 -8.31256,22.3628c-9.69108,-2.22033 -6.29669,-20.44467 -6.29669,-20.44467c0,0 -9.12853,-20.33312 2.31256,-22.3628c5.62781,-0.99839 11.1965,8.62372 12.29669,20.44468z" fill="#ffffff" stroke="#000000" stroke-width="2" stroke-linecap="butt"/><path d="M356.9811,140.16075c1.10019,-11.82096 6.66888,-21.44307 12.29669,-20.44468c11.44109,2.02967 2.31256,22.3628 2.31256,22.3628c0,0 3.3944,18.22435 -6.29669,20.44467c-5.57133,1.27644 -9.41275,-10.54183 -8.31256,-22.3628z" fill="#ffffff" stroke="#000000" stroke-width="2" stroke-linecap="butt"/><path d="M275.15084,138.25001c0,-22.68804 20.07966,-41.08033 44.84916,-41.08033c24.76951,0 44.84916,18.39228 44.84916,41.08032c0,22.68804 -20.07966,41.08032 -44.84916,41.08032c-24.7695,0 -44.84916,-18.39228 -44.84916,-41.08032z" fill="#ffffff" stroke="#000000" stroke-width="2" stroke-linecap="butt"/><path d="M326.37685,136.72452c0,-9.43724 7.56195,-17.08763 16.89009,-17.08763c9.32814,0 16.89009,7.65039 16.89009,17.08763c0,9.43724 -7.56194,17.08763 -16.89008,17.08763c-9.32814,0 -16.89009,-7.65039 -16.89009,-17.08763z" fill="#ffffff" stroke="#000000" stroke-width="4" stroke-linecap="butt"/><path d="M279.8679,136.79752c0,-9.43724 7.56195,-17.08763 16.89009,-17.08763c9.32814,0 16.89009,7.65039 16.89009,17.08763c0,9.43724 -7.56194,17.08763 -16.89008,17.08763c-9.32813,0 -16.89008,-7.65039 -16.89008,-17.08763z" fill="#ffffff" stroke="#000000" stroke-width="4" stroke-linecap="butt"/><path d="M300.569,136.58829c0,2.05153 -2.01947,3.71462 -4.51061,3.71462c-2.49114,0 -4.51061,-1.66309 -4.51061,-3.71462c0,-2.05153 2.01947,-3.71462 4.51061,-3.71462c2.49114,0 4.51061,1.66309 4.51061,3.71462z" fill="#000000" stroke="none" stroke-width="NaN" stroke-linecap="butt"/><path d="M312.24352,141.18733v-5.48349h15.74291v5.48349z" fill="#000000" stroke="none" stroke-width="0" stroke-linecap="butt"/><path d="M343.94161,132.87366c2.49114,0 4.51061,1.66309 4.51061,3.71462c0,2.05153 -2.01947,3.71462 -4.51061,3.71462c-2.49114,0 -4.51061,-1.66309 -4.51061,-3.71462c0,-2.05153 2.01947,-3.71462 4.51061,-3.71462z" fill="#000000" stroke="none" stroke-width="NaN" stroke-linecap="butt"/><g stroke="#000000" stroke-width="1.5"><path d="M339.7,159.55001c0,0 -6.4028,12.65 -19.7,12.65c-13.2972,0 -19.7,-12.65 -19.7,-12.65z" fill="#ffffff" stroke-linecap="butt"/><path d="M306.50002,160.09606v6.46151" fill="none" stroke-linecap="round"/><path d="M312.70002,159.91404v10.55683" fill="none" stroke-linecap="round"/><path d="M333.50001,166.55757v-6.46151" fill="none" stroke-linecap="round"/><path d="M327.30001,170.47087v-10.55683" fill="none" stroke-linecap="round"/><path d="M319.90001,172.20001v-12.28597" fill="none" stroke-linecap="round"/></g><path d="M300.62501,305.75001v-78.5h38.75v78.5z" fill="#4f4f23" stroke="#000000" stroke-width="2" stroke-linecap="butt"/><path d="M320,304.62501v-77.25" fill="none" stroke="#000000" stroke-width="2" stroke-linecap="round"/></g></g></svg>