<svg version="1.1" xmlns="http://www.w3.org/2000/svg" xmlns:xlink="http://www.w3.org/1999/xlink" width="187.16089" height="303.52914" viewBox="0,0,187.16089,303.52914"><g transform="translate(-230.59361,-31.38749)"><g stroke-miterlimit="10"><path d="M263.40898,324.61251v-293.22501h113.18203v293.22501z" fill-opacity="0.01" fill="#000000" stroke="none" stroke-width="0" stroke-linecap="butt"/><g stroke-linecap="butt"><path d="M345.25119,143.73695l18.98794,-7.60143l-0.97625,19.20839l-13.14731,-0.52938z" fill="#0d0d00" stroke="none" stroke-width="0"/><path d="M321.57738,153.48642c10.09993,-13.3576 23.27181,-13.06851 34.45134,-6.00814c11.17954,7.06037 16.13323,18.2184 6.0333,31.57597c-10.09991,13.3576 -31.42884,23.85654 -42.60837,16.79616c-11.17954,-7.06037 -7.97621,-29.00642 2.12371,-42.36404z" fill="#ecec68" stroke="#0d0d00" stroke-width="1.75"/><path d="M316.40365,162.68776l4.48912,-6.61783l39.80685,25.05391l-6.59693,5.37252z" fill-opacity="0.70196" fill="#0d0d00" stroke="none" stroke-width="0"/><path d="M367.46685,166.56964l-2.19685,7.6977l-40.0591,-25.04199l7.79286,-5.10007z" fill-opacity="0.70196" fill="#0d0d00" stroke="none" stroke-width="0"/><path d="M312.50628,178.22278l1.4647,-8.55976l33.37271,22.83204l-7.65906,2.89204z" fill-opacity="0.70196" fill="#0d0d00" stroke="none" stroke-width="0"/></g><path d="M368.02153,122.78353c2.84677,3.69313 5.95099,5.24275 5.95099,5.24275c0,0 -13.3276,13.39907 -38.82914,6.24123c-18.05595,-5.06799 -12.47748,-5.99961 -24.33082,-32.30323c-7.25157,-16.09187 -8.92914,-36.7208 6.29839,-49.89666c11.60769,-10.04373 48.32819,-5.53984 49.45601,21.186c0.74925,17.75512 14.16087,29.08944 14.16087,29.08944c0,0 -2.3176,1.72667 -6.90631,0.80418c-2.17612,-0.43747 -4.59342,-1.82169 -4.59342,-1.82169c0,0 1.11216,3.77198 3.68576,7.0809c1.91799,2.46601 5.68593,5.60061 5.68593,5.60061c0,0 -3.0935,2.37255 -7.45158,2.63617c-4.26807,0.25817 -6.35891,-0.33727 -6.35891,-0.33727c0,0 0.38544,2.7844 3.23223,6.47754z" fill="#ecec68" stroke="#0d0d00" stroke-width="1.75" stroke-linecap="butt"/><path d="M327.24322,68.20373c-6.31038,-1.02362 -19.78857,-3.98334 -18.94439,-7.75165c0.84416,-3.76828 13.76179,-5.24583 21.70298,-2.63254c9.96762,3.28014 20.80384,16.02272 15.71044,19.66663c-4.9926,3.57176 -12.15865,-8.25884 -18.46903,-9.28245z" fill="#6e6e30" stroke="#0d0d00" stroke-width="1.35" stroke-linecap="butt"/><path d="M292.46149,144.9674c-0.39579,0.03623 -29.99453,7.14803 -44.95779,-1.92234c-12.92633,-7.83567 1.77941,-14.8972 1.77941,-14.8972c0,0 -24.22521,-17.60659 -16.37332,-26.69228c10.31197,-11.93231 32.54848,4.22422 51.33348,16.78219c11.24194,7.51536 30.47654,20.26464 30.47654,20.26464c0,0 -15.02441,5.80284 -22.25828,6.46498z" fill-opacity="0.4" fill="#f2d849" stroke="#0d0d00" stroke-width="1.5" stroke-linecap="butt"/><path d="M355.88658,144.96739c-7.23388,-0.66214 -22.25827,-6.46498 -22.25827,-6.46498c0,0 19.23458,-12.74928 30.47654,-20.26464c18.785,-12.55796 41.02151,-28.7145 51.33347,-16.78219c7.85191,9.0857 -16.37332,26.69228 -16.37332,26.69228c0,0 14.70573,7.06152 1.7794,14.8972c-14.96324,9.07038 -44.56199,1.95858 -44.95777,1.92234z" fill-opacity="0.4" fill="#f2d849" stroke="#0d0d00" stroke-width="1.5" stroke-linecap="butt"/><g stroke-linecap="butt"><path d="M344.91426,206.04416c0,0 -3.25852,-15.26582 -6.73732,-32.25816c-4.70068,-22.96068 -21.91279,-56.37387 6.69202,-49.33165c7.50162,1.84682 13.46383,12.95702 15.57982,23.75449c2.10337,10.73307 1.20579,21.41036 1.20579,21.41036c0,0 1.71784,11.04979 2.19536,16.76136c0.49491,5.91982 -0.09921,17.90406 -0.09921,17.90406z" fill="#ecec68" stroke="#0d0d00" stroke-width="1.75"/><path d="M354.6611,202.63065c4.83385,-1.66612 11.01284,1.14591 14.54976,5.43686c3.8536,4.67514 3.40553,12.76988 1.41106,15.35221c-2.73953,3.54698 -10.60117,0.97883 -10.60117,0.97883c0,0 -10.62593,-19.95274 -5.35966,-21.76789z" fill="#ecec68" stroke="#0d0d00" stroke-width="1.75"/><path d="M367.13639,212.43218c0.0458,0.1389 3.71781,14.8202 -2.98918,15.87671c-8.95124,1.41002 -11.03133,-5.72251 -11.03133,-5.72251c0,0 -0.37276,-16.66055 5.98778,-18.09327c5.83829,-1.31509 8.03274,7.93908 8.03274,7.93908z" fill="#ecec68" stroke="#0d0d00" stroke-width="1.75"/><path d="M355.85899,202.72744c5.17828,-0.49361 5.21535,8.81004 5.21535,8.81004c0.01139,0.14136 0.93386,13.32819 -4.6927,15.87197c-7.82819,3.53911 -9.11306,-7.87662 -9.11306,-7.87662c0,0 2.94891,-16.26763 8.59042,-16.80541z" fill="#ecec68" stroke="#0d0d00" stroke-width="1.75"/><path d="M357.95441,203.16708c2.0462,0.9707 -6.83992,5.62126 -8.56002,10.04908c-2.14141,4.29308 2.50151,8.53657 2.50151,8.53657c0,0 -14.66412,2.48478 -10.50823,-12.26645c1.97969,-7.02683 13.1287,-7.95022 16.56673,-6.31922z" fill="#ecec68" stroke="#0d0d00" stroke-width="1.75"/><path d="M346.09253,208.82528l-1.53364,-11.70213l17.84816,-2.53638l1.03703,14.56401z" fill="#ecec68" stroke="none" stroke-width="0"/><path d="M370.25597,217.97604c0,0 -2.55601,-1.19322 -6.01331,-0.67777c-2.75197,0.4103 -6.11317,1.76916 -7.98816,1.69c-4.5416,-0.19177 -12.31249,-3.69867 -12.31249,-3.69867l4.84664,-12.58067c0,0 6.91272,-2.95468 16.06442,2.83957c4.43408,2.80736 5.4029,12.4275 5.4029,12.4275z" fill="#ecec68" stroke="none" stroke-width="0"/><path d="M347.19531,157.07245c-8.06434,1.1325 -14.16309,-0.76097 -14.16309,-0.76097l-2.36205,-8.59404l28.3693,-2.59143l1.527,7.49567c0,0 -1.97802,2.85078 -13.37116,4.45076z" fill-opacity="0.70196" fill="#0d0d00" stroke="none" stroke-width="0"/><path d="M350.398,176.35722c-8.97982,0.79697 -12.12274,-0.75157 -12.12274,-0.75157l-2.17751,-8.61089c0,0 4.31122,2.32296 12.58692,1.59105c9.1756,-0.8115 12.35149,-3.89502 12.35149,-3.89502l1.21727,7.94145c0,0 -1.94765,2.84564 -11.8554,3.72498z" fill-opacity="0.70196" fill="#0d0d00" stroke="none" stroke-width="0"/><path d="M354.37614,198.78766c-8.22472,0.728 -11.05691,-0.26161 -11.05691,-0.26161l-2.07373,-8.62037c0,0 3.91018,1.77229 11.49,1.10393c8.40406,-0.74103 11.11317,-3.16865 11.11317,-3.16865l0.95197,7.93975c0,0 -1.34987,2.20374 -10.42449,3.00695z" fill-opacity="0.70196" fill="#0d0d00" stroke="none" stroke-width="0"/><path d="M346.35943,153.30908c-8.52549,1.40094 -13.61644,0.46583 -13.84288,-0.32346c-3.2594,-11.36148 -8.54262,-21.35472 -4.5374,-26.17973c2.27049,-2.73523 9.46252,-4.18006 16.88978,-2.35154c6.18488,1.52266 14.39601,11.99807 15.53965,23.8354c0.02,0.20696 -1.78744,3.00443 -14.04916,5.01933z" fill="#9b9b44" stroke="#0d0d00" stroke-width="1.75"/></g><g stroke-linecap="butt"><path d="M273.28395,203.7545c0,0 -0.58212,-11.98474 -0.08127,-17.90413c0.48323,-5.71117 2.21216,-16.7595 2.21216,-16.7595c0,0 -0.88688,-10.67805 1.22726,-21.40934c2.12681,-10.79566 8.10017,-21.90082 15.60364,-23.74131c28.61185,-7.018 11.36627,26.38061 6.64258,49.33729c-3.49583,16.98938 -6.76966,32.25244 -6.76966,32.25244z" fill="#ecec68" stroke="#0d0d00" stroke-width="1.75"/><path d="M282.37524,202.10819c5.26445,1.81961 -5.38149,21.76335 -5.38149,21.76335c0,0 -7.86421,2.5615 -10.60018,-0.9878c-1.99187,-2.584 -2.43183,-10.67912 1.42646,-15.35099c3.54122,-4.28794 9.72301,-7.09476 14.55521,-5.42455z" fill="#ecec68" stroke="#0d0d00" stroke-width="1.75"/><path d="M277.93077,203.96688c6.3591,1.4381 5.96965,18.09834 5.96965,18.09834c0,0 -2.08723,7.13077 -11.03706,5.71318c-6.70594,-1.06217 -3.01921,-15.74036 -2.97327,-15.87923c0,0 2.20371,-9.25231 8.04067,-7.93228z" fill="#ecec68" stroke="#0d0d00" stroke-width="1.75"/><path d="M281.17721,202.20396c5.64096,0.54253 8.57357,16.81266 8.57357,16.81266c0,0 -1.29631,11.41463 -9.12096,7.86891c-5.62403,-2.54853 -4.68834,-15.73459 -4.67681,-15.87595c0,0 0.04639,-9.30361 5.22418,-8.80563z" fill="#ecec68" stroke="#0d0d00" stroke-width="1.75"/><path d="M279.08138,202.64183c3.43966,-1.6281 14.58774,-0.69526 16.56039,6.33324c4.14111,14.75474 -10.52052,12.25755 -10.52052,12.25755c0,0 4.64717,-4.23955 2.51007,-8.53444c-1.71566,-4.42929 -10.59711,-9.08737 -8.54994,-10.05633z" fill="#ecec68" stroke="#0d0d00" stroke-width="1.75"/><path d="M273.5857,208.62087l1.05162,-14.56312l17.84563,2.55149l-1.54536,11.70083z" fill="#ecec68" stroke="none" stroke-width="0"/><path d="M266.76496,217.44038c0,0 0.97847,-9.61931 5.41534,-12.42292c9.15748,-5.78651 16.06726,-2.82598 16.06726,-2.82598l4.83404,12.58476c0,0 -7.77442,3.50032 -12.31619,3.68824c-1.87506,0.07759 -5.23489,-1.28414 -7.98646,-1.69676c-3.45679,-0.51838 -6.01399,0.67267 -6.01399,0.67267z" fill="#ecec68" stroke="none" stroke-width="0"/><path d="M276.51996,152.09426l1.53451,-7.49437l28.36668,2.61544l-2.37065,8.59202c0,0 -6.10064,1.8883 -14.16385,0.74898c-11.39155,-1.60961 -13.3667,-4.46209 -13.3667,-4.46209z" fill-opacity="0.70196" fill="#0d0d00" stroke="none" stroke-width="0"/><path d="M274.81299,172.10339l1.2252,-7.94041c0,0 3.1728,3.08621 12.34757,3.90547c8.27496,0.73891 12.58851,-1.5804 12.58851,-1.5804l-2.18615,8.60905c0,0 -3.14449,1.54588 -12.12349,0.74132c-9.90686,-0.88771 -11.85166,-3.735 -11.85166,-3.735z" fill-opacity="0.70196" fill="#0d0d00" stroke="none" stroke-width="0"/><path d="M272.24254,195.24968l0.95992,-7.93894c0,0 2.70669,2.42993 11.11,3.17806c7.57915,0.67476 11.49108,-1.0942 11.49108,-1.0942l-2.08236,8.61862c0,0 -2.83319,0.98722 -11.05717,0.25225c-9.0738,-0.8109 -10.42148,-3.01578 -10.42148,-3.01578z" fill-opacity="0.70196" fill="#0d0d00" stroke="none" stroke-width="0"/><path d="M276.6822,147.76238c1.15551,-11.83634 9.37713,-22.3048 15.56353,-23.82223c6.347,-1.55681 13.13965,-1.103 15.61071,0.76275c5.5235,4.17042 0.25394,15.48235 -3.28693,27.77897c-0.22724,0.7891 -5.31911,1.71991 -13.84321,0.31174c-12.25971,-2.02528 -14.06432,-4.82427 -14.04414,-5.03122z" fill="#9b9b44" stroke="#0d0d00" stroke-width="1.75"/></g><g><g stroke="#0d0d00" stroke-linecap="butt"><path d="M343.63426,172.82187c1.66465,0.59728 8.78522,8.82308 8.78522,8.82308c0,0 12.4078,5.17239 13.16838,27.71442c0.62762,18.60164 -6.39583,33.42573 -6.39583,33.42573c0,0 -1.63561,18.17733 -4.76784,32.12658c-3.13222,13.94924 -10.3656,35.77497 -10.3656,35.77497l-24.94894,-0.69886l0.08472,-129.20163c0,0 15.81948,-11.0573 24.43991,-7.96428z" fill="#494920" stroke-width="1.75"/><path d="M318.79848,306.0414v-3.23662c0,0 29.13107,-0.58454 29.66321,0c0.99605,1.09414 -0.86486,3.34709 -3.36926,4.08615z" fill="#080d00" stroke-width="1.5"/></g><g stroke="#0d0d00" stroke-linecap="butt"><path d="M295.25949,172.57836c8.62043,-3.09303 24.43991,7.96428 24.43991,7.96428l0.08472,129.20163l-24.94894,0.69886c0,0 -7.23338,-21.82572 -10.3656,-35.77497c-3.13223,-13.94925 -4.76784,-32.12658 -4.76784,-32.12658c0,0 -7.02345,-14.8241 -6.39583,-33.42574c0.76058,-22.54203 13.16838,-27.71442 13.16838,-27.71442c0,0 7.12057,-8.2258 8.78522,-8.82308z" fill="#494920" stroke-width="1.75"/><path d="M319.52943,308.26105l0.16579,14.28256c0,0 -2.25879,3.2517 -10.14414,6.46232c-13.95827,5.68327 -26.30418,5.46155 -32.65094,4.13778c-3.31137,-0.8086 -6.63446,-6.4837 -2.90064,-10.93583c3.37306,-4.022 11.23562,-4.72146 15.95058,-7.81434c4.10142,-2.69042 6.07259,-5.79254 6.07259,-5.79254z" fill="#ffffd5" stroke-width="1.5"/><path d="M296.02264,304.74948l23.90424,0.17793l-0.23168,13.7647c0,0 -20.45625,15.25939 -42.79509,10.6001c-3.31136,-0.80861 -5.89379,-4.21807 -2.15998,-8.6702c3.37306,-4.022 10.49496,-6.98709 15.20992,-10.07997c4.10142,-2.69042 6.07259,-5.79255 6.07259,-5.79255z" fill="#0d0d00" stroke-width="1.5"/><path d="M290.96201,302.56126c0.53214,-0.58454 29.13325,0 29.13325,0v3.23662c0,0 -24.84758,1.29462 -26.29396,0.86777c0,0 -5.69023,-2.27971 -2.83927,-4.10439z" fill="#080d00" stroke-width="1.5"/></g><path d="M342.69447,308.84455c0,0 1.97117,3.10212 6.07259,5.79254c4.71496,3.09287 12.57752,3.79236 15.95058,7.81434c3.73381,4.45213 0.41073,10.12722 -2.90064,10.93583c-6.34676,1.32377 -18.69269,1.54548 -32.65095,-4.13778c-7.88535,-3.2106 -10.14413,-6.46231 -10.14413,-6.46231l0.16579,-14.28256z" fill="#ffffd5" stroke="#0d0d00" stroke-width="1.5" stroke-linecap="butt"/><path d="M342.69447,304.993c0,0 1.97117,3.10213 6.07259,5.79255c4.71496,3.09288 11.83686,6.05798 15.20992,10.07997c3.73381,4.45212 1.15139,7.86159 -2.15998,8.6702c-22.33882,4.6593 -42.79509,-10.6001 -42.79509,-10.6001l-0.23168,-13.7647l23.90424,-0.17793z" fill="#0d0d00" stroke="#0d0d00" stroke-width="1.5" stroke-linecap="butt"/><path d="M301.76785,206.69068l-1.05995,-19.64896h38.11691l-0.84796,20.09929c0,0 -11.7958,1.57619 -18.0592,1.57619c-6.43746,0 -18.1498,-2.02652 -18.1498,-2.02652z" fill="#494920" stroke="none" stroke-width="0" stroke-linecap="butt"/><path d="M337.62157,206.49153c0,0 -8.32046,2.16478 -18.41899,2.24135c-8.85174,0.06711 -17.00479,-2.24135 -17.00479,-2.24135" fill="none" stroke="#0d0d00" stroke-width="1.5" stroke-linecap="round"/></g><path d="M319.75852,137.55677c0.07404,-0.15814 0.11341,-0.24049 0.11341,-0.24049v0.00001h19.87549c0,0 1.45849,4.64404 4.08086,11.02956c2.73389,6.65714 7.07394,14.37215 9.15561,21.52601c1.69115,5.81174 -0.62204,9.2762 -0.62204,9.2762c0,0 -6.36106,9.66583 -32.05725,10.03133c-0.17944,0.00493 -0.36161,0.00699 -0.54657,0.00613c-0.1844,0.00085 -0.36606,-0.00121 -0.54498,-0.00612c-25.69673,-0.36534 -32.05789,-10.03133 -32.05789,-10.03133c0,0 -2.16176,-3.32531 -0.47062,-9.13705c2.08168,-7.15386 6.27029,-15.00802 9.00419,-21.66516c2.62237,-6.38553 4.08086,-11.02956 4.08086,-11.02956h19.87549v-0.00001c0,0 0.03937,0.08235 0.1134,0.24049z" fill="#9b9b44" stroke="#0d0d00" stroke-width="1.75" stroke-linecap="butt"/><path d="M286.53753,177.82762c0.83932,0.39068 6.36676,5.57605 29.53853,5.73888c0.84736,-0.02491 3.27314,-0.00983 3.54964,-0.00692c0.27639,-0.00293 2.70178,-0.01799 3.54906,0.00692c23.17193,-0.1628 28.69941,-5.34819 29.53873,-5.73888c1.53891,-0.71632 5.07138,7.10256 5.07138,7.10256c0,0 -12.77373,8.64581 -37.48554,8.27684c-0.22513,-0.00336 -0.44979,0.1697 -0.67378,0.15993c-0.22402,0.00977 -0.60012,-0.16329 -0.82529,-0.15993c-24.71182,0.36896 -35.03293,-11.06991 -35.03293,-11.06991c0,0 1.23131,-5.02582 2.77019,-4.3095z" fill="#0d0d00" stroke="none" stroke-width="0" stroke-linecap="butt"/><path d="M311.69955,192.75794c-1.1416,-2.13325 -1.16823,-8.16342 -0.35446,-9.96588c0.84018,-1.86091 14.62389,-1.83988 16.16158,-0.54959c1.48019,1.24205 1.11933,9.57878 -0.17721,10.88189c-1.20233,1.20841 -14.79194,0.9312 -15.62996,-0.3664z" fill="#ffffd5" stroke="#0d0d00" stroke-width="1.5" stroke-linecap="butt"/><path d="M294.34879,130.96804c0.34487,-1.19176 17.56132,-12.78362 24.85873,-7.95996c10.12528,6.69293 10.50955,30.84864 3.83225,31.87825c-26.97015,6.6723 -32.5314,3.62895 -35.61001,-0.34701c-3.49004,-4.5073 -1.69088,-9.20984 0.7153,-12.48005c2.40618,-3.27022 4.26667,-4.39747 6.20372,-11.09122z" fill="#9b9b44" stroke="#0d0d00" stroke-width="1.5" stroke-linecap="butt"/><path d="M351.88086,154.53927c-3.07861,3.97596 -8.63985,7.01932 -35.61001,0.34701c-6.6773,-1.02961 -6.29303,-25.18532 3.83224,-31.87825c7.2974,-4.82368 24.51384,6.76821 24.85872,7.95996c1.93704,6.69374 2.87845,6.57183 6.20374,11.09122c2.40618,3.27021 4.20534,7.97275 0.71529,12.48005z" fill="#9b9b44" stroke="#0d0d00" stroke-width="1.5" stroke-linecap="butt"/><path d="M311.60356,170.09501l2.80875,-23.88072c0,0 2.03196,-22.06945 9.77602,-20.57037c5.04769,0.97713 17.28164,28.68982 17.28164,28.68982c0,0 -10.55087,1.15795 -9.16357,3.93328c0.73462,1.46961 4.39845,1.01433 5.78211,3.29597c1.86118,3.06907 2.81971,6.62156 2.81971,6.62156z" fill="#9b9b44" stroke="none" stroke-width="0" stroke-linecap="butt"/><path d="M298.40241,168.18456c0,0 0.95853,-3.5525 2.81971,-6.62156c1.38366,-2.28164 5.04751,-1.82637 5.78211,-3.29597c1.3873,-2.77533 -9.16357,-3.93328 -9.16357,-3.93328c0,0 12.23396,-27.71271 17.28164,-28.68983c7.74406,-1.49908 9.77603,20.57038 9.77603,20.57038l2.80874,23.88072z" fill="#9b9b44" stroke="none" stroke-width="0" stroke-linecap="butt"/><path d="M289.01762,134.51454c0,0 -2.28539,-9.50236 29.67845,-9.7911c36.87076,-0.33305 33.38827,10.0299 33.38827,10.0299c0,0 -16.3974,-1.4491 -29.94403,-1.54321c-27.01,-0.18767 -33.12269,1.30441 -33.12269,1.30441z" fill="#9b9b44" stroke="none" stroke-width="0" stroke-linecap="butt"/><path d="M319.09732,126.18276v23.80921" fill="none" stroke="#0d0d00" stroke-width="1" stroke-linecap="round"/><path d="M325.84127,136.51711c0,1.17909 -0.64432,1.47191 -1.63711,1.47191c-0.99279,0 -1.9581,-0.29282 -1.9581,-1.47191c0,-1.17909 0.80482,-1.73713 1.7976,-1.73713c0.99279,0 1.7976,0.55802 1.7976,1.73713z" fill="#ffffd5" stroke="#0d0d00" stroke-width="1" stroke-linecap="butt"/><path d="M324.25766,141.78152c0.99278,0 1.9581,0.42542 1.9581,1.60452c0,1.17909 -0.80482,1.47191 -1.7976,1.47191c-0.99279,0 -1.7976,-0.29282 -1.7976,-1.47191c0,-1.17909 0.64431,-1.60452 1.63709,-1.60452z" fill="#ffffd5" stroke="#0d0d00" stroke-width="1" stroke-linecap="butt"/><path d="M315.62077,123.47895l8.55065,-2.02724c0,0 12.27864,-0.70924 16.03326,6.75679c2.71657,5.40184 -4.09906,11.73978 -4.09906,11.73978z" fill="#c1c155" stroke="#0d0d00" stroke-width="1.5" stroke-linecap="butt"/><path d="M302.1194,139.94832c0,0 -6.02066,-6.80206 -3.30411,-12.2039c3.75462,-7.46602 15.23829,-6.29267 15.23829,-6.29267l7.77977,2.53354z" fill="#c1c155" stroke="#0d0d00" stroke-width="1.5" stroke-linecap="butt"/><path d="M313.47637,100.85752h12.70882l1.37392,20.89618c0,0 -3.22333,4.78792 -7.90007,4.67165c-4.69555,-0.11672 -7.55659,-4.67165 -7.55659,-4.67165z" fill="#ecec68" stroke="#0d0d00" stroke-width="1.5" stroke-linecap="butt"/><path d="M342.04154,109.10163c-4.09409,-1.95268 -4.20937,-6.41303 -1.02432,-8.98255c3.18503,-2.5695 3.39739,-7.42727 7.39363,-4.50941c9.94797,7.26348 4.54083,20.07461 4.54083,20.07461c0,0 -6.09346,-4.28536 -10.91014,-6.58265z" fill="#ecec68" stroke="#0d0d00" stroke-width="1.75" stroke-linecap="butt"/><path d="M348.87374,107.11509c1.8018,8.87791 -6.97027,14.73761 -6.97027,14.73761c0,0 -5.82945,-7.01587 -7.97965,-9.03166c-4.03634,-3.78402 -2.11637,-9.20999 2.91109,-11.20308c5.02747,-1.9931 10.61232,-0.138 12.03883,5.49712z" fill="#ecec68" stroke="#0d0d00" stroke-width="1.75" stroke-linecap="butt"/><path d="M289.69652,96.51142c3.54321,-2.75928 3.88828,1.6531 6.86538,3.90587c2.97708,2.25277 3.01178,6.31238 -0.65061,8.19646c-4.30876,2.21656 -9.71658,6.27498 -9.71658,6.27498c0,0 -5.31838,-11.50857 3.50182,-18.3773z" fill="#ecec68" stroke="#0d0d00" stroke-width="1.75" stroke-linecap="butt"/><path d="M296.43573,120.20689c0,0 -8.54903,-5.16634 -6.8003,-13.21932c1.12109,-5.16269 6.14237,-6.9974 10.77707,-5.31753c4.63468,1.67986 6.55058,6.56391 2.998,10.11199c-4.17956,4.1743 -6.97476,8.42486 -6.97476,8.42486z" fill="#ecec68" stroke="#0d0d00" stroke-width="1.75" stroke-linecap="butt"/><path d="M297.81326,39.69809c0,0 -24.54092,12.66523 -27.12745,6.02801c-1.62294,-4.16451 7.25644,-5.98396 15.04958,-8.07224c7.89354,-2.11517 14.72096,-4.46333 16.03219,-3.02447c1.64178,1.80161 0.50179,6.20087 3.37019,16.44978c1.6302,5.82482 5.66777,13.48326 5.66777,13.48326l-6.08607,1.8536c0,0 -3.13901,-7.96587 -4.47841,-13.90155c-2.10665,-9.33586 -2.42779,-12.81639 -2.42779,-12.81639z" fill="#0d0d00" stroke="none" stroke-width="NaN" stroke-linecap="butt"/><path d="M336.861,39.13109c0,0 -0.2013,3.48809 -1.98598,12.88048c-1.13468,5.97163 -3.99827,14.02464 -3.99827,14.02464l-6.14677,-1.67599c0,0 3.77226,-7.77184 5.2014,-13.64108c2.51465,-10.32705 1.22399,-14.69102 2.803,-16.53941c1.26111,-1.47622 8.16583,0.67256 16.12817,2.55751c7.86103,1.86097 16.79853,3.42172 15.31957,7.6313c-2.35708,6.70899 -27.32115,-5.23743 -27.32115,-5.23743z" fill="#0d0d00" stroke="none" stroke-width="NaN" stroke-linecap="butt"/><path d="M332.71276,117.92686c-5.67843,2.44814 -11.7294,3.34149 -13.33992,3.40655c-1.72402,0.06966 -8.09689,-0.72956 -13.85675,-3.01167c-6.08026,-2.40905 -11.21002,-5.12374 -14.1199,-11.38511c-2.29985,-4.94881 -2.14698,-10.4929 -1.83348,-16.22702c0.31331,-5.73043 0.97918,-11.65325 4.73425,-18.06764c7.21787,-12.32948 22.69112,-12.63151 23.88209,-12.65982c1.19096,-0.02831 16.53842,-0.15234 24.17689,11.96201c3.9737,6.30217 4.84285,12.20267 5.353,17.92116c0.51048,5.72215 0.85387,11.25906 -1.27472,16.27215c-2.69318,6.34276 -7.72707,9.205 -13.72147,11.78937z" fill="#ecec68" stroke="#0d0d00" stroke-width="1.75" stroke-linecap="butt"/><path d="M297.29035,117.47499c0,0 -2.16454,-2.97686 -5.12684,-5.65585c-0.9854,-0.89117 -1.7296,-2.95627 -2.74516,-3.66527c-0.73857,-0.51563 -1.85757,0.27983 -2.1613,-0.13131c-1.20055,-1.62505 -0.42263,-5.09314 -0.42263,-5.09314c0,0 -0.36616,-1.54606 0.56722,-2.80399c0.5222,-0.70379 1.48789,-2.08372 2.71897,-3.1863c1.00029,-0.89585 2.35402,-1.6112 2.35402,-1.6112l9.20231,16.50064z" fill="#ecec68" stroke="none" stroke-width="0" stroke-linecap="butt"/><path d="M335.82979,112.8169l9.48479,-18.41859c0,0 1.51401,0.74257 2.6466,1.6947c1.39393,1.17184 2.50678,2.65679 3.107,3.4132c1.07277,1.35198 0.729,3.06191 0.729,3.06191c0,0 0.9855,3.78467 -0.27182,5.60802c-0.31811,0.46131 -1.5773,-0.37677 -2.36909,0.2132c-1.08871,0.81119 -1.82817,3.10333 -2.87691,4.11366c-3.15268,3.03723 -5.60466,6.37891 -5.60466,6.37891z" fill="#ecec68" stroke="none" stroke-width="0" stroke-linecap="butt"/><path d="M307.63182,87.2298c1.30164,0.02082 5.48161,0.99111 6.85953,1.06026c0.7266,0.03647 8.66362,-1.27593 9.3693,-1.22784c9.96417,0.67902 12.57456,4.6047 12.47312,6.31155c-0.08767,1.47523 -2.43921,3.62811 -10.47926,3.65308c-1.92128,0.00596 -8.82816,-0.77721 -10.94712,-0.88356c-3.07003,-0.15408 -5.73121,1.62868 -8.31515,1.29173c-6.66272,-0.86879 -10.12133,-4.74106 -10.04306,-6.05804c0.09501,-1.5985 2.00618,-4.2924 11.08261,-4.1472z" fill="#c4c44a" stroke="none" stroke-width="0" stroke-linecap="butt"/><path d="M343.82384,95.86974c0.75842,2.35814 -1.89579,4.48716 -6.42916,5.71849c-4.53336,1.23134 -9.22923,1.09872 -9.98764,-1.25945c-0.75844,-2.35814 2.30175,-5.26797 6.83514,-6.49932c4.53334,-1.23134 8.8232,-0.31788 9.58162,2.04027z" fill="#a5a549" stroke="none" stroke-width="0" stroke-linecap="butt"/><path d="M333.2221,74.01728c5.30514,0.5207 6.79968,8.52543 6.79968,8.52543c0,0 -2.7806,-4.47259 -7.31319,-5.1188c-4.2351,-0.60378 -8.31035,2.65412 -8.31035,2.65412c0,0 2.9936,-6.63302 8.82387,-6.06075z" fill="#0d0d00" stroke="none" stroke-width="0" stroke-linecap="butt"/><path d="M319.65978,95.16233c-0.69153,-6.74878 3.87484,-12.57778 10.29336,-12.67099c6.41854,-0.09319 12.92525,7.18957 11.53097,13.6631c0,0 -5.21868,2.82262 -10.76607,3.01853c-5.2883,0.18675 -10.91403,-2.20639 -11.05826,-4.01064z" fill="#0d0d00" stroke="#0d0d00" stroke-width="1" stroke-linecap="butt"/><g fill="#0d0d00" stroke="none" stroke-width="0" stroke-linecap="butt"><path d="M342.77378,83.53665l-2.01624,6.40632l-4.02076,-4.56045z"/><path d="M344.59127,88.81846l-3.04592,6.66725l-1.61366,-6.0163z"/><path d="M343.80133,86.24105l-1.77722,5.30388l-2.32989,-4.5737z"/></g><path d="M296.55455,94.5536c3.95392,0.95022 6.68471,3.38781 6.09944,5.44454c-0.58527,2.05674 -4.63904,2.28921 -8.59295,1.33899c-3.95392,-0.95021 -4.5906,-2.87005 -4.00533,-4.92676c0,0 2.54494,-2.80696 6.49883,-1.85675z" fill="#a5a549" stroke="none" stroke-width="0" stroke-linecap="butt"/><path d="M300.45116,84.01573c6.4185,-0.09319 11.04842,5.4805 10.58924,12.24599c-0.04301,0.94641 -5.52821,3.95362 -10.84662,3.9478c-5.3753,-0.00589 -10.58474,-3.03581 -10.69913,-4.15255c-0.03086,-0.30137 -0.06195,-6.09752 0.0826,-6.63229c0.92106,-3.40755 5.32603,-5.32839 10.87389,-5.40895z" fill="#0d0d00" stroke="#080d00" stroke-width="1" stroke-linecap="butt"/><g fill="#0d0d00" stroke="none" stroke-width="0" stroke-linecap="butt"><path d="M293.90947,86.26409l-3.88602,4.65804l-2.20274,-6.35424z"/><path d="M290.8351,90.42836l-1.43723,6.05395l-3.23968,-6.58966z"/><path d="M290.99953,87.92524l-2.19538,4.62956l-1.93161,-5.25809z"/></g><g stroke="none" stroke-width="0" stroke-linecap="butt"><path d="M330.36671,85.47719c0.64179,-0.00932 1.25329,0.16164 1.81438,0.45854c0.02869,1.66894 0.05739,3.33791 0.08607,5.00685c-0.9765,0.01418 -1.95298,0.02836 -2.92947,0.04253c-0.03032,-1.76402 -0.06066,-3.52805 -0.09099,-5.29208c0.34961,-0.13361 0.72357,-0.21008 1.11999,-0.21585z" fill="#6e6e30"/><path d="M325.6144,91.03917c0.06302,-1.77122 1.05648,-4.09069 2.72636,-5.07837c0.02887,1.67915 0.05773,3.35834 0.08661,5.03751c-0.27309,0.00396 -0.54617,0.00793 -0.81925,0.01189c-0.66457,0.00966 -1.32911,0.0193 -1.99369,0.02895z" fill="#6e6e30"/><path d="M332.99538,90.932c-0.02667,-1.55195 -0.05337,-3.1039 -0.08004,-4.65584c1.50855,1.08123 2.54391,3.05157 2.62778,4.61886c-0.84924,0.01234 -1.69849,0.02466 -2.54774,0.037z" fill="#6e6e30"/><path d="M330.95297,95.96263c-0.50843,0.00738 -0.99697,-0.06215 -1.45596,-0.19488c-0.05262,-0.66222 -0.09987,-1.32675 -0.11136,-1.99529c-0.01188,-0.69073 -0.02375,-1.38146 -0.03563,-2.07219c0.9765,-0.01418 1.95298,-0.02836 2.92947,-0.04253c0.0102,0.59322 0.02039,1.18645 0.0306,1.77965c0.01292,0.75129 0.06157,1.5084 0.10316,2.26105c-0.4448,0.16273 -0.93312,0.25649 -1.46025,0.26414h-0.00001z" fill="#6e6e30"/><path d="M327.80252,91.72269c0.27309,-0.00396 0.54617,-0.00793 0.81925,-0.01189c0.01188,0.69072 0.02375,1.38147 0.03563,2.0722c0.01029,0.59831 0.04924,1.19383 0.09507,1.78741c-1.63859,-0.6953 -2.79427,-2.21603 -2.94028,-3.81881c0.68176,-0.00989 1.35248,-0.01964 1.99033,-0.0289z" fill="#6e6e30"/><path d="M335.54095,91.61037c-0.10571,1.55353 -0.9797,3.0861 -2.41755,3.84986c-0.03667,-0.67673 -0.10555,-3.21991 -0.11575,-3.8131c0.84443,-0.01227 1.68887,-0.02451 2.5333,-0.03678z" fill="#6e6e30"/><path d="M332.78609,88.76208c0.01923,-0.38575 0.98148,-0.81703 1.65515,-0.82446c0.67367,-0.00744 1.48066,0.40437 1.46143,0.79015c-0.01924,0.38578 -0.90821,0.95969 -1.68824,0.92057c-0.78006,-0.03911 -1.44759,-0.50048 -1.42835,-0.88623z" fill="#ffffff"/></g><g stroke="none" stroke-width="0" stroke-linecap="butt"><path d="M303.83544,86.12267c0.39642,-0.00575 0.77281,0.05983 1.12684,0.18323c0.03032,1.76402 0.06066,3.52805 0.09099,5.29208c-0.9765,0.01418 -1.95298,0.02836 -2.92947,0.04253c-0.02869,-1.66894 -0.05739,-3.33791 -0.08607,-5.00685c0.5506,-0.31305 1.15592,-0.50167 1.79771,-0.51099z" fill="#6e6e30"/><path d="M308.7765,91.54392c-0.66458,0.00966 -1.32913,0.0193 -1.9937,0.02895c-0.27309,0.00396 -0.54617,0.00793 -0.81925,0.01189c-0.02887,-1.67915 -0.05773,-3.35834 -0.08661,-5.03751c1.70298,0.9387 2.77569,3.22814 2.89956,4.99667z" fill="#6e6e30"/><path d="M298.84786,91.68808c0.02996,-1.56893 0.99705,-3.56837 2.46769,-4.69284c0.02667,1.55195 0.05337,3.1039 0.08004,4.65584c-0.84924,0.01234 -1.69849,0.02466 -2.54774,0.037z" fill="#6e6e30"/><path d="M303.60994,96.61983h-0.00001c-0.52714,0.00766 -1.01843,-0.07187 -1.46861,-0.22162c0.01571,-0.75349 0.03831,-1.51162 0.02539,-2.26292c-0.0102,-0.59322 -0.02039,-1.18645 -0.0306,-1.77965c0.9765,-0.01418 1.95298,-0.02836 2.92947,-0.04253c0.01188,0.69072 0.02375,1.38147 0.03563,2.0722c0.01149,0.66853 -0.01288,1.3341 -0.04272,1.99751c-0.45421,0.146 -0.94011,0.22967 -1.44854,0.23706z" fill="#6e6e30"/><path d="M306.61307,92.29063c0.63784,-0.00926 1.30857,-0.01901 1.99033,-0.0289c-0.09084,1.60622 -1.19366,3.15975 -2.80753,3.90226c0.0254,-0.59461 0.04386,-1.19097 0.03357,-1.78928c-0.01188,-0.69072 -0.02375,-1.38147 -0.03563,-2.0722c0.27309,-0.00396 0.54617,-0.00793 0.81925,-0.01189z" fill="#6e6e30"/><path d="M298.87458,92.40301c0.84443,-0.01227 1.68887,-0.02451 2.5333,-0.03678c0.0102,0.59322 0.02039,1.18645 0.0306,1.77965c0.01165,0.67755 -0.00182,1.35746 -0.01521,2.03491c-1.46338,-0.72162 -2.38962,-2.22803 -2.54868,-3.77775z" fill="#6e6e30"/><path d="M308.81188,89.37044c0.03249,0.385 -0.61885,0.8655 -1.39716,0.92725c-0.7783,0.06174 -1.68655,-0.48609 -1.71904,-0.87109c-0.03249,-0.38502 0.75994,-0.82005 1.43353,-0.83218c0.67358,-0.01213 1.65018,0.39101 1.68266,0.776z" fill="#ffffff"/></g><path d="M318.88815,80.87834c0,0 -11.49277,7.27203 -24.95632,3.71738c-14.20185,-3.74958 -14.17167,-15.70574 -14.17167,-15.70574c0,0 1.62033,1.38323 2.46803,1.85265c0.84773,0.46943 2.28804,0.78105 2.28804,0.78105c0,0 -1.79224,-5.56821 -0.49248,-12.44921c1.96403,-10.39766 7.35669,-10.44586 7.35669,-10.44586c0,0 -0.28293,2.05597 0.45895,5.11758c0.34936,1.44166 1.60533,3.29843 1.60533,3.29843c0,0 1.33681,-5.18113 8.00374,-8.30908c7.67721,-3.60197 13.03195,-0.4416 13.03195,-0.4416c0,0 -1.34387,0.65122 -2.29382,1.63106c-0.93501,0.96447 -1.47937,2.25463 -1.12027,2.64595c0.1283,0.13985 4.24896,1.47419 7.01077,3.23683c3.15092,2.01096 5.85944,4.83629 5.85944,4.83629" fill="#ecec68" stroke="#0d0d00" stroke-width="1.75" stroke-linecap="round"/><g><g fill="#0d0d00" stroke="#0d0d00" stroke-width="1" stroke-linecap="round"><path d="M309.06903,104.48998c5.75104,-0.46139 10.10375,-1.19707 12.48255,-1.39681c3.00648,-0.25242 7.22733,0.00244 13.40347,-0.93127c3.13982,-0.47466 9.94815,-1.93285 9.94815,-1.93285c0,0 -5.50258,8.55892 -20.00047,9.9459c-15.63828,1.49607 -24.71412,-5.87724 -24.71412,-5.87724c0,0 5.55648,0.45894 8.88039,0.19226z"/></g><path d="M333.34238,107.5497c-0.17546,0.77239 -3.39373,1.75906 -7.88386,2.24161c-4.49013,0.48256 -8.24036,0.26131 -8.59683,-0.10351c-0.63983,-0.65484 4.1069,-1.8357 8.59704,-2.31825c4.49013,-0.48256 8.0459,-0.53396 7.88368,0.18016z" fill="#9b9b44" stroke="none" stroke-width="0" stroke-linecap="butt"/><path d="M307.20181,106.90987l-4.87527,-2.04457c0,0 3.66377,0.30829 7.8963,0.048c3.92383,-0.24131 8.30373,-1.03994 11.51226,-1.3387c2.94459,-0.27418 7.49681,-0.20719 11.4823,-0.68513c5.42278,-0.65032 10.00601,-1.83221 10.00601,-1.83221l-3.07326,2.3117c0,0 -8.75967,1.4551 -16.88268,2.32807c-7.10157,0.7632 -16.0657,1.21286 -16.0657,1.21286z" fill="#ffffff" stroke="none" stroke-width="0" stroke-linecap="butt"/></g></g></g></svg>