<svg version="1.1" xmlns="http://www.w3.org/2000/svg" xmlns:xlink="http://www.w3.org/1999/xlink" width="140.11964" height="256.0266" viewBox="0,0,140.11964,256.0266"><g transform="translate(-251.94019,-51.9867)"><g stroke-miterlimit="10"><path d="M271.38686,308.0133v-256.0266h97.2263v256.0266z" fill-opacity="0.01" fill="#000000" stroke="none" stroke-width="2" stroke-linecap="butt"/><path d="M339.41667,268.03334l-5.58333,-95.53334c0,0 16.97364,-21.41099 27.73333,-7.16666c6.9674,9.22387 2.55,102.93334 2.55,102.93334z" fill="#000000" stroke="#ecec68" stroke-width="1" stroke-linecap="butt"/><path d="M280.50002,243.00001c0,0 -25.03379,-84.74955 -18.16667,-92.58333c11.7674,-13.42387 31.83333,21.74999 31.83333,21.74999l-1.82142,71.19048z" fill="#000000" stroke="#ecec68" stroke-width="1" stroke-linecap="butt"/><path d="M307.83342,177.17292v-29.33333h12.33333v29.33333z" fill="#000000" stroke="#ecec68" stroke-width="1" stroke-linecap="butt"/><path d="M350.17704,109.45956c4.88665,0 8.84806,4.71831 8.84806,10.53864c0,5.82033 -3.96141,10.53864 -8.84806,10.53864c-4.88665,0 -8.84806,-4.71831 -8.84806,-10.53864c0,-5.82033 3.96141,-10.53864 8.84806,-10.53864z" fill="#000000" stroke="#ecec68" stroke-width="1" stroke-linecap="butt"/><path d="M286.67116,119.9982c0,5.82033 -3.96141,10.53864 -8.84806,10.53864c-4.88665,0 -8.84806,-4.71831 -8.84806,-10.53864c0,-5.82033 3.96141,-10.53864 8.84806,-10.53864c4.88665,0 8.84806,4.71831 8.84806,10.53864z" fill="#000000" stroke="#ecec68" stroke-width="1" stroke-linecap="butt"/><path d="M285.38149,61.50707l8.75398,13.14226l6.40122,-15.32737l6.66325,13.8051l6.03487,-17.46248l6.31876,18.06147l8.13126,-15.62074l6.75016,16.04443l8.00743,-13.33003c0,0 3.01702,82.39879 0.54172,86.86399c-1.95582,3.52812 -57.39697,3.39829 -58.68609,-0.34367c-1.84203,-5.34688 1.08344,-85.83296 1.08344,-85.83296z" fill="#000000" stroke="#ecec68" stroke-width="1" stroke-linecap="butt"/><path d="M277.50005,127.49792v-14.8h73.8v14.8z" fill="#000000" stroke="none" stroke-width="0" stroke-linecap="butt"/><path d="M308.35722,167.07768v-22h11.28571v22z" fill="#000000" stroke="none" stroke-width="0" stroke-linecap="butt"/><path d="M304.50005,303.83542l-23.5,-131h66l4.5,131z" fill="#000000" stroke="#ecec68" stroke-width="1" stroke-linecap="butt"/><path d="M313.98717,218.66875l-19.98715,-45.5h40z" fill="#ecec68" stroke="none" stroke-width="0" stroke-linecap="butt"/><path d="M313.92859,218.94256l-5.14637,-12.6435l5.21201,-29.37555l5.22324,29.401z" fill="#000000" stroke="none" stroke-width="0" stroke-linecap="butt"/><path d="M313.99422,190.97352l-9.07749,-17.2881h18.16667z" fill="#000000" stroke="none" stroke-width="0" stroke-linecap="butt"/><path d="M324.95,192.5854l-10.7,26.3l-9.3,-22.1" fill="none" stroke="#ecec68" stroke-width="1" stroke-linecap="round"/><path d="M314.37505,218.25l14,84.75" fill="none" stroke="#ecec68" stroke-width="1" stroke-linecap="round"/><path d="M276.25002,199.33334c0,0 0.27042,-24.50858 2.72208,-28.50388c1.91371,-3.11864 11.77792,-0.49612 11.77792,-0.49612c0,0 2.43248,1.22572 3.00032,2.25815c1.00364,1.8248 2.49968,7.74185 2.49968,7.74185l-5.16667,12z" fill="#000000" stroke="none" stroke-width="0" stroke-linecap="butt"/><path d="M281.43903,261.14259c0,0 -25.95246,7.16208 -28.47032,6.46239c-0.87005,-0.24178 -0.75758,-6.63926 1.03049,-8.1419c0.86637,-0.72807 26.67524,-6.19614 26.67524,-6.19614z" fill="#000000" stroke="#ecec68" stroke-width="1" stroke-linecap="butt"/><path d="M292.30494,243.40235l3.21417,5.76167c0,0 11.01184,10.0224 9.7241,11.85119c-0.567,0.80523 -2.73402,3.72339 -4.57666,4.414c-1.91606,0.71814 -8.95565,-7.83621 -8.95565,-7.83621c0,0 -27.6544,12.11471 -30.22642,11.63287c-0.88876,-0.1665 -1.36211,-6.54854 0.28145,-8.19807c0.79636,-0.79924 16.09833,-7.20214 16.09833,-7.20214l0.21954,-11.82585z" fill="#000000" stroke="#ecec68" stroke-width="1" stroke-linecap="butt"/><path d="M293.32999,239.0021l0.74814,7.87983l-16.77126,-1.31071c0,0 -3.57821,-4.85081 -3.20699,-6.99659c0.33396,-1.93042 19.23011,0.42747 19.23011,0.42747z" fill="#ecec68" stroke="#ecec68" stroke-width="1" stroke-linecap="butt"/><path d="M336.91667,192.33334l-5.16667,-12c0,0 1.49604,-5.91705 2.49968,-7.74185c0.56784,-1.03243 3.00032,-2.25815 3.00032,-2.25815c0,0 9.86421,-2.62252 11.77792,0.49612c2.45166,3.9953 2.72208,28.50388 2.72208,28.50388z" fill="#000000" stroke="none" stroke-width="0" stroke-linecap="butt"/><g stroke="#ecec68" stroke-width="1" stroke-linecap="butt"><path d="M363.32557,277.26695c0,0 25.80887,5.46807 26.67524,6.19614c1.78807,1.50264 1.90054,7.90012 1.03049,8.1419c-2.51786,0.69969 -28.47032,-6.46239 -28.47032,-6.46239z" fill="#000000"/><path d="M365.91621,265.9998l0.21954,11.82585c0,0 15.30197,6.4029 16.09833,7.20214c1.64356,1.64953 1.17021,8.03157 0.28145,8.19807c-2.57202,0.48184 -30.22642,-11.63287 -30.22642,-11.63287c0,0 -7.03959,8.55435 -8.95565,7.83621c-1.84264,-0.69061 -4.00966,-3.60877 -4.57666,-4.414c-1.28774,-1.82879 9.7241,-11.85119 9.7241,-11.85119l3.21417,-5.76167z" fill="#000000"/><path d="M369.23346,264.24129c0.37122,2.14578 -3.20699,6.99659 -3.20699,6.99659l-17.6284,2.025l0.31957,-8.59412c0,0 20.18186,-2.35789 20.51582,-0.42747z" fill="#ecec68"/></g><path d="M314.83333,223.42107l-23,-27.33334l4,-5l-8,-5.33333l7,-11.66666" fill="none" stroke="#ecec68" stroke-width="1" stroke-linecap="round"/><path d="M334.5,173.08773l4,14.33333l-5.66667,3l4,5l-21,28" fill="none" stroke="#ecec68" stroke-width="1" stroke-linecap="round"/></g></g></svg>