<svg version="1.1" xmlns="http://www.w3.org/2000/svg" xmlns:xlink="http://www.w3.org/1999/xlink" width="185.48459" height="262.75" viewBox="0,0,185.48459,262.75"><g transform="translate(-227.57237,-46.03066)"><g stroke-miterlimit="10"><path d="" fill="#c5c556" stroke="none" stroke-width="0" stroke-linecap="butt"/><g stroke="#000000"><path d="M323.22076,307.48066v-98.5h16v98.5z" fill="#ffffff" stroke-width="1.5" stroke-linecap="butt"/><path d="M328.47076,233.72659l0.25,7" fill="none" stroke-width="1" stroke-linecap="round"/><path d="M334.72076,244.47659v6.75" fill="none" stroke-width="1" stroke-linecap="round"/><path d="M329.22076,256.47659v-5" fill="none" stroke-width="1" stroke-linecap="round"/><path d="M332.97076,266.72659v-6" fill="none" stroke-width="1" stroke-linecap="round"/><path d="M327.47076,269.72659l0.75,3" fill="none" stroke-width="1" stroke-linecap="round"/><path d="M332.72076,283.72659v-6" fill="none" stroke-width="1" stroke-linecap="round"/><path d="M327.97076,291.47659v-4.75" fill="none" stroke-width="1" stroke-linecap="round"/><path d="M332.22076,299.22659l-0.5,-3.75" fill="none" stroke-width="1" stroke-linecap="round"/><g><path d="M300.47076,308.03066v-98.5h16v98.5z" fill="#ffffff" stroke-width="1.5" stroke-linecap="butt"/><path d="M306.47076,224.52659v7.25" fill="none" stroke-width="1" stroke-linecap="round"/><path d="M311.72076,237.27659l-0.25,6.25" fill="none" stroke-width="1" stroke-linecap="round"/><path d="M303.72076,242.52659v5.75" fill="none" stroke-width="1" stroke-linecap="round"/><path d="M308.72076,250.52659v5" fill="none" stroke-width="1" stroke-linecap="round"/><path d="M304.47076,258.77659l-0.25,5" fill="none" stroke-width="1" stroke-linecap="round"/><path d="M312.22076,261.52659l-0.75,4.5" fill="none" stroke-width="1" stroke-linecap="round"/><path d="M306.97076,274.77659l0.25,-5" fill="none" stroke-width="1" stroke-linecap="round"/><path d="M312.72076,281.27659l0.25,-5.75" fill="none" stroke-width="1" stroke-linecap="round"/><path d="M304.72076,280.77659l1,3.5" fill="none" stroke-width="1" stroke-linecap="round"/><path d="M309.97076,288.27659l-0.5,-3.75" fill="none" stroke-width="1" stroke-linecap="round"/><path d="M305.97076,295.02659v5.5" fill="none" stroke-width="1" stroke-linecap="round"/><path d="M311.22076,302.02659l0.25,-4.25" fill="none" stroke-width="1" stroke-linecap="round"/></g></g><path d="M381.47076,198.78066c0,1.63198 -0.00343,3.25265 -0.02125,4.86066l-1.16254,0.96878l0.05729,0.06874c-0.0235,0.02051 -0.04692,0.04116 -0.07027,0.06193l-0.19902,0.06797c-0.32575,0.43057 -0.74424,0.81749 -1.12743,1.22103c-0.28119,0.27388 -0.56731,0.5382 -0.86801,0.77418l-0.10975,0.33204l-0.10419,-0.07577l-2.65038,3.64427c-0.3106,0.41659 -0.49445,0.93324 -0.49445,1.49283c0,1.24422 0.90893,2.27614 2.09901,2.46801c-0.05864,0.1621 -0.11683,0.32316 -0.17458,0.48339c-1.71448,2.18577 -3.47252,4.31908 -5.3048,6.4342l-3.3677,1.9244c-2.9683,0.28085 -5.89093,0.68094 -8.81659,1.6327c-1.59305,0.51824 -3.59534,0.60481 -4.65099,1.90506c-9.20877,0.05582 -18.41753,0.28881 -27.61948,0.31627c-0.39621,-0.52604 -0.99532,-0.89061 -1.68103,-0.97743l-4.6023,-0.65747c-3.49566,-1.27682 -7.60344,-0.71999 -11.18322,-0.31819l-0.17093,0.11169l-0.01851,-0.06786l-1.3151,0.35866c-5.99767,-0.07288 -12.00305,-0.01348 -17.98403,-0.11305c-0.4075,-0.00678 -0.81504,-0.0146 -1.22261,-0.02347c-3.91819,-3.20479 -7.90524,-6.65451 -12.28952,-9.00471c-2.08131,-1.11569 -6.25798,-3.346 -9.02309,-2.63381c-0.13153,0.03388 -0.26205,0.07051 -0.39165,0.10966l-0.0117,-0.05069l-1.36941,0.31602l-0.49904,-0.99807l-0.01941,0.0097l-0.01247,-0.07131c-1.6082,-2.81434 -2.823,-6.44564 -4.46209,-9.51231c-0.10359,-1.67275 -0.15874,-3.35928 -0.15874,-5.05806c0,-16.15022 7.13249,-30.69305 13.35997,-43.31258c10.969,-22.22787 26.48889,-37.43742 47.89003,-37.43742c21.39975,0 36.30834,15.20764 46.83565,37.43309c5.97778,12.62041 12.91435,27.16485 12.91435,43.31691z" fill="#c5c556" stroke="none" stroke-width="0" stroke-linecap="butt"/><path d="" fill="none" stroke="#000000" stroke-width="1" stroke-linecap="round"/><g stroke="none" stroke-width="0" stroke-linecap="butt"><g><path d="M300.02027,163.78276c5.13025,7.91214 4.41156,11.81771 1.58819,13.64839c-2.82337,1.83068 -6.68228,0.89324 -11.81253,-7.0189c-3.06996,-4.73466 -5.89952,-10.89397 -7.07207,-15.46976c1.96537,-1.35539 3.93101,-2.85028 6.05239,-3.93334c3.70033,2.93678 8.17235,8.0363 11.24402,12.77361z" fill="#a1a147"/><path d="M303.40048,156.93222c6.94162,6.17606 7.44502,10.32953 5.44529,13.12144c-1.99973,2.79191 -5.7453,3.16502 -12.68693,-3.01104c-6.94162,-6.17606 -10.46771,-11.389 -8.46799,-14.18091c1.99973,-2.79191 8.768,-2.10555 15.70962,4.07052z" fill="#a1a147"/><path d="M285.08642,153.29945c3.36488,-0.68651 6.9615,5.73167 9.76768,14.58917c2.80617,8.8575 0.93723,12.12485 -2.42764,12.81136c-3.36488,0.68651 -6.95146,-1.4678 -9.75763,-10.3253c-2.80617,-8.8575 -0.94728,-16.38872 2.4176,-17.07523z" fill="#a1a147"/><path d="M298.4889,165.06924c4.22825,6.52103 4.03206,9.48306 2.19375,10.67503c-1.83831,1.19197 -4.62261,0.16249 -8.85086,-6.35854c-2.26636,-3.49528 -6.24874,-9.45431 -8.85226,-14.6203c1.84196,-1.28044 3.69008,-2.66239 5.67228,-3.69219c3.61718,4.50954 7.56758,10.49585 9.83709,13.99601z" fill="#c5c556"/><path d="M302.70177,157.74732c5.72116,5.09019 6.13604,8.5134 4.48791,10.81444c-1.64813,2.30104 -4.73516,2.60855 -10.45632,-2.48164c-3.52374,-3.13512 -10.11791,-7.51413 -14.27845,-10.95309c2.01131,-1.37266 4.01547,-2.9177 6.17904,-4.0445c5.19937,1.49001 11.09097,4.01625 14.06782,6.66479z" fill="#c5c556"/><path d="M293.7265,167.17184c2.31279,7.30018 0.77245,9.99307 -2.00081,10.55888c-2.77326,0.56581 -5.72926,-1.20974 -8.04206,-8.50992c-1.11229,-3.51085 -2.85386,-8.8646 -2.27401,-13.98449c0.53895,-0.37603 1.93586,-2.90259 2.47964,-3.28261c1.6149,-1.12857 5.69378,-1.08178 7.46339,-1.84793c1.35783,5.20015 1.04814,12.88154 2.37385,17.06607z" fill="#c5c556"/></g><g fill="#a1a147"><path d="M294.94068,176.51862l-3.07086,-7.23414l4.58024,6.42139z"/><path d="M302.18633,171.362l-4.23477,-6.6543l5.55429,5.55993z"/></g></g><g stroke="none" stroke-width="0" stroke-linecap="butt"><g><path d="M351.39157,151.75915c2.12138,1.08306 4.08702,2.57795 6.05239,3.93334c-1.17255,4.57579 -4.0021,10.73511 -7.07207,15.46976c-5.13025,7.91214 -8.98915,8.84958 -11.81253,7.0189c-2.82337,-1.83068 -3.54207,-5.73625 1.58818,-13.64839c3.07168,-4.7373 7.54369,-9.83683 11.24402,-12.77361z" fill="#a1a147"/><path d="M352.47696,153.61171c1.99973,2.79191 -1.52636,8.00485 -8.46799,14.18091c-6.94162,6.17606 -10.6872,5.80295 -12.68693,3.01104c-1.99973,-2.79191 -1.49633,-6.94538 5.44529,-13.12144c6.94162,-6.17606 13.7099,-6.86243 15.70963,-4.07052z" fill="#a1a147"/><path d="M357.49899,171.12468c-2.80617,8.8575 -6.39276,11.01181 -9.75763,10.3253c-3.36488,-0.68651 -5.23382,-3.95387 -2.42764,-12.81136c2.80617,-8.8575 6.4028,-15.27568 9.76768,-14.58917c3.36487,0.68651 5.22377,8.21774 2.4176,17.07523z" fill="#a1a147"/><path d="M351.516,151.82323c1.9822,1.02981 3.83031,2.41175 5.67228,3.69219c-2.60352,5.16599 -6.58591,11.12501 -8.85226,14.6203c-4.22825,6.52103 -7.01255,7.55051 -8.85086,6.35854c-1.83831,-1.19197 -2.0345,-4.154 2.19375,-10.67503c2.26951,-3.50016 6.21992,-9.48647 9.83709,-13.99601z" fill="#c5c556"/><path d="M351.53386,151.83253c2.16357,1.1268 6.73916,3.8147 8.75047,5.18735c-4.16054,3.43896 -13.32613,6.67512 -16.84987,9.81024c-5.72116,5.09019 -8.80819,4.78268 -10.45632,2.48164c-1.64813,-2.30104 -1.23325,-5.72424 4.4879,-10.81444c2.97685,-2.64855 8.86845,-5.17478 14.06782,-6.66479z" fill="#c5c556"/><path d="M348.24373,149.85578c2.36548,1.02412 6.66066,4.06635 8.80018,5.5591c0.57984,5.11989 0.55256,10.90221 -0.55973,14.41306c-2.31279,7.30018 -5.2688,9.07573 -8.04206,8.50992c-2.77326,-0.56581 -4.31361,-3.2587 -2.00081,-10.55888c1.32572,-4.18453 0.44459,-12.72306 1.80242,-17.92321z" fill="#c5c556"/></g><g fill="#a1a147"><path d="M343.78276,176.42017l4.58024,-6.42139l-3.07086,7.23414z"/><path d="M336.72696,170.98192l5.55429,-5.55993l-4.23477,6.6543z"/></g></g><path d="M381.47076,198.78066c0,4.47134 -0.02574,8.8578 -0.30273,13.13144c-3.0692,1.85081 -6.10293,3.80092 -9.35836,5.36447c-13.74687,6.60247 -26.37637,9.8137 -41.55391,9.75409c-2.04025,-0.00801 -4.00496,-0.92791 -6.035,-1c-9.49596,-0.33722 -18.41728,-1.55535 -27.76701,-2.56462c-7.61897,-0.82244 -13.42435,-1.10918 -20.56606,-4.8205c-3.35739,-1.74473 -8.81412,-12.07892 -11.00897,-15.39686c-0.08126,-0.12283 -0.15511,-0.24898 -0.22313,-0.37784c-0.16782,-1.26846 -0.65264,-2.43689 -1.37226,-3.42309c-0.16532,-0.28262 -0.36223,-0.55562 -0.60551,-0.81343c-0.68594,-0.72691 -1.42055,-1.26031 -2.17864,-1.62427c0.49361,-15.44385 7.33252,-29.38532 13.33158,-41.54198c1.63286,-3.30887 3.36657,-6.46222 5.20551,-9.43302c-0.47273,4.73925 -0.09303,9.4996 -0.31332,14.30837c-0.18261,3.98628 -0.8116,8.03385 0.06323,12.00527c0.96866,4.39736 3.3103,8.05286 5.6547,11.76769c1.85011,2.93161 2.40225,6.16439 4.37051,9.05707c2.26856,3.33403 5.29028,6.02367 8.1268,8.84807c5.75996,4.11654 12.68144,7.21356 19.92734,7.25902c3.73216,0.02342 7.05922,-1.34862 10.66072,-1.6853c4.34438,-0.40612 7.95704,-0.71986 12.2597,-1.71265c4.74933,-1.09586 10.26811,-1.78212 14.32035,-4.80883c3.18867,-2.38169 4.42684,-6.82611 6.03125,-10.20358c0.63662,-1.34016 2.99709,-5.20581 3.64248,-6.28474c2.67518,-6.23169 5.66632,-12.79463 9.74999,-18.30632c4.28826,9.90673 7.94077,20.78087 7.94077,32.50152z" fill="#a1a147" stroke="none" stroke-width="0" stroke-linecap="butt"/><path d="M379.32937,224.48019c-5.85056,1.58549 -11.68462,3.24841 -17.69044,4.07259c-6.2635,0.85954 -12.85703,0.97979 -19.16816,0.97788c-18.12444,0 -36.29684,0.29725 -54.39003,-0.94392c-6.44216,-0.44193 -13.26455,-0.37832 -19.62637,-1.50886c-1.29705,-0.2305 -2.60618,-0.57188 -3.91676,-0.97027c-2.30876,-8.53464 -4.06683,-17.73551 -4.06683,-27.32695c0,-7.80452 1.66563,-15.23368 4.08984,-22.25182c0.42291,9.40375 1.87192,18.48299 6.82289,27.15883c1.56224,2.7376 2.76404,5.405 5.31979,7.41309c2.87096,2.25575 6.48038,3.73938 9.86299,4.97646c8.02346,3.96523 18.87756,3.8701 27.65449,3.8701c7.83002,0 15.80746,1.82393 23.59671,0.98609c7.98445,-0.85884 15.76645,-4.37359 22.85466,-7.91669c6.71186,-3.35593 12.28223,-7.80049 18.34899,-12.21176c0.81856,-0.59519 1.63677,-1.18527 2.44961,-1.77909c-0.00203,8.8968 -0.12247,17.45505 -2.14137,25.4543z" fill="#838339" stroke="none" stroke-width="0" stroke-linecap="butt"/><path d="M319.38535,229.59495v-91.2h1.02083v91.2z" fill-opacity="0.54118" fill="#2c2c13" stroke="none" stroke-width="0" stroke-linecap="butt"/><g stroke="none" stroke-linecap="butt"><g stroke-width="0"><path d="M272.37902,52.61372c18.58325,-9.59483 25.47877,-0.0122 27.19254,3.30703c2.06297,3.99556 5.18433,13.81359 -13.39892,23.40842c-9.75978,5.03914 -24.71952,10.31312 -37.08003,13.20435c-3.64538,-3.16226 -7.13247,-6.51183 -10.92678,-9.48948c-0.35949,-0.55562 -0.75335,-1.08041 -1.26122,-1.49358c-0.01474,-0.01199 -0.02954,-0.02388 -0.04441,-0.03566l0.00933,-0.00778l-1.19216,-1.4306c-0.02324,-0.02829 -0.04733,-0.05587 -0.07222,-0.08268c9.35573,-9.491 25.02637,-21.3146 36.77387,-27.38003z" fill="#c5c556"/><path d="" fill="#c5c556"/><path d="M242.27097,83.05337c3.24525,-0.56984 6.76325,-1.04218 9.88316,-2.04639c2.95554,-0.95131 5.76927,-2.34819 8.80453,-3.23274c4.15822,-2.14696 8.63595,-3.11044 12.94856,-4.96513c9.13737,-3.92964 17.68471,-9.22513 26.41861,-13.99663c1.38838,4.83753 0.71664,12.83916 -14.49136,20.69129c-9.64863,4.98174 -24.37945,10.19302 -36.65671,13.10464c-0.01423,-0.0134 -0.02222,-0.02033 -0.02222,-0.02033c-3.42625,-2.96863 -6.71044,-6.10539 -10.2385,-8.94668c1.11543,-0.19435 2.23287,-0.39117 3.35393,-0.58802z" fill="#a1a147"/><path d="" fill="#a1a147"/><path d="M248.44048,89.36715c4.96241,-1.70478 9.88976,-3.49313 14.81009,-5.49481c1.47444,-0.59983 2.71352,-1.73422 4.23157,-2.21305c2.52805,-0.7974 5.0914,-0.91978 7.5152,-2.15595c3.01654,-0.44189 5.02028,-1.58862 7.76506,-2.70391c3.3056,-1.34317 6.4163,-2.44889 9.62225,-4.10417c1.72089,-0.88852 3.78809,-1.70167 5.66748,-2.67269c-2.21056,3.03434 -5.99873,6.27027 -12.21766,9.48121c-9.64863,4.98174 -24.37945,10.19302 -36.65671,13.10464c-0.01423,-0.0134 -0.02222,-0.02033 -0.02222,-0.02033c-1.00449,-0.87033 -1.99678,-1.75512 -2.98658,-2.64267c0.75712,-0.13224 1.51397,-0.31802 2.27151,-0.57827z" fill="#838339"/><path d="" fill="#838339"/><path d="M227.70487,92.59838c-1.12118,-3.10015 4.99536,-10.35253 13.71267,-18.09273c2.68766,5.97804 5.39507,11.9481 8.04958,17.93972c-11.34642,2.68665 -20.58645,3.40419 -21.76226,0.153z" fill="#2b2b13"/></g><g stroke-width="0"><path d="M356.66319,83.21288c-17.10598,-12.0326 -12.6786,-21.33501 -10.09148,-25.01294c2.14919,-3.05536 10.28368,-11.61137 27.38966,0.42123c10.46933,7.36428 23.84786,20.57578 31.92941,31.09707c-0.40421,0.5413 -0.71027,1.21381 -1.09954,1.75229c-1.20354,1.66487 -2.35317,3.38232 -3.48569,5.11283c-2.49963,2.16014 -5.22691,3.9999 -8.14751,5.04064c0,0 -0.14706,0.05348 -0.33874,0.17225c-12.09125,-4.50379 -26.86285,-12.04637 -36.1561,-18.58338z" fill="#c5c556"/><path d="M356.97448,83.43185c-13.99904,-9.84713 -13.57651,-17.86578 -11.54323,-22.46959c8.00398,5.91478 15.75185,12.32333 24.27002,17.45894c4.02036,2.42388 8.32549,3.98727 12.15315,6.6797c2.88679,1.28906 5.48444,3.05557 8.28318,4.39993c2.95438,1.41912 6.37548,2.36544 9.5131,3.37126c1.13632,0.36427 2.2687,0.72797 3.39936,1.08856c-0.58914,0.86741 -1.16904,1.74338 -1.74452,2.62272c-2.49963,2.16014 -5.22691,3.9999 -8.14751,5.04064c0,0 -0.2004,0.07288 -0.43824,0.23743c-12.01351,-4.52029 -26.55705,-11.96642 -35.74532,-18.42959z" fill="#a1a147"/><path d="M356.97448,83.43185c-5.72456,-4.02674 -9.03754,-7.74772 -10.81496,-11.05447c1.7299,1.21755 3.66733,2.30423 5.25142,3.4185c2.95109,2.07584 5.88254,3.59428 8.9748,5.37446c2.56764,1.47816 4.39684,2.8867 7.32527,3.73466c2.23319,1.55427 4.7561,2.02407 7.15224,3.15782c1.43884,0.6808 2.51217,1.97314 3.89135,2.76788c4.60245,2.65215 9.24087,5.09388 13.92537,7.4576c1.42609,0.71958 2.88977,1.14543 4.37587,1.44286c-1.25629,0.76853 -2.55667,1.41493 -3.89782,1.89284c0,0 -0.2004,0.07288 -0.43824,0.23743c-12.01351,-4.52029 -26.55705,-11.96642 -35.74532,-18.42959z" fill="#838339"/><path d="M412.78362,104.30907c-1.60697,3.06111 -10.66361,1.09382 -21.53933,-3.11072c3.44458,-5.57502 6.93863,-11.12149 10.4142,-16.67855c7.58387,8.85366 12.65744,16.87038 11.12513,19.78928z" fill="#2b2b13"/></g><path d="M379.7086,97.16112c-0.48077,20.01968 -9.67097,42.41531 -38.20777,45.00278c-10.75294,0.97499 -20.68499,-1.2721 -20.68499,-1.2721c0,0 -8.57371,3.80008 -20.85161,1.13213c-23.18903,-5.03889 -36.39363,-26.00568 -35.87762,-47.49277c0.64858,-27.00767 27.05722,-48.31298 58.98536,-47.58674c31.92813,0.72624 57.28521,23.20903 56.63663,50.2167z" fill="#c5c556" stroke-width="0"/><path d="M354.5019,96.41143c0,5.22863 -17.12011,6.66472 -33.60268,6.47001c-15.29905,-0.18073 -30.04882,-1.61681 -30.04882,-6.47001c0,-5.90497 1.76904,-11.00524 9.4533,-13.47141c5.43544,-1.74444 15.45071,-1.72087 22.73274,-1.72087c9.9624,0 19.8208,1.46159 25.55617,4.71975c4.38367,2.49027 5.90928,6.10499 5.90928,10.47254z" fill="#9b9b44" stroke-width="0"/><path d="M379.7086,97.16111c-0.48077,20.01968 -9.67097,42.41532 -38.20777,45.00279c-10.75294,0.97499 -20.68498,-1.2721 -20.68498,-1.2721c0,0 -8.57371,3.80007 -20.85162,1.13212c-23.18903,-5.03889 -36.39363,-26.00568 -35.87762,-47.49277c0.25339,-10.55126 4.43848,-20.23217 11.34837,-28.06907c-0.50808,2.74242 -0.89569,5.51963 -1.05957,8.47865c-0.29698,5.36208 -0.14617,11.72412 0.99196,17.08398c1.46737,6.91041 5.66517,12.59266 7.95935,19.1154c1.49617,4.25385 2.04555,9.57862 6.40895,11.98368c4.753,2.61981 10.64503,3.94521 16.07906,3.83113c3.92363,-0.08238 7.72007,-1.68235 11.67754,-1.17975c2.78063,0.35314 5.6782,2.66617 8.51767,3.29902c2.54117,0.56636 6.15123,0.333 8.31563,0.3039c12.02525,-0.16169 26.27982,-2.92834 30.68117,-15.94399c2.19862,-6.50175 1.77383,-13.11597 3.4387,-19.67323c1.22277,-4.81601 4.89925,-11.07788 6.76777,-16.22001c0.0254,-0.06991 0.05095,-0.13976 0.07662,-0.20957c3.00077,6.10318 4.58725,12.81382 4.41877,19.82981z" fill="#a1a147" stroke-width="0"/><path d="M379.7086,97.1611c-0.48077,20.01968 -9.67097,42.41532 -38.20777,45.00279c-10.75294,0.97499 -20.68498,-1.27211 -20.68498,-1.27211c0,0 -8.57371,3.80007 -20.85162,1.13212c-23.18903,-5.03889 -36.39363,-26.00568 -35.87762,-47.49277c0.15244,-6.34772 1.7279,-12.38043 4.46356,-17.88613c0.3767,2.21195 0.72232,4.4246 0.92294,6.65518c0.18931,2.10482 -1.14976,4.32331 -1.20098,6.44583c-0.07578,3.14047 -0.22598,7.13483 0.13993,10.54056c0.42253,3.93267 2.89246,7.64456 4.64457,11.0951c6.13439,12.08087 11.96655,22.55082 26.74796,23.70542c7.23752,0.56533 14.34595,-0.67842 21.67469,-0.66494c1.27091,0.00233 3.05666,1.08209 4.43948,1.20098c6.03142,0.51852 12.3636,0.7742 18.32108,-0.21515c9.3334,-1.54999 18.98384,-11.00556 25.24731,-17.55003c2.09609,-2.19012 4.21697,-4.27125 5.39109,-7.11501c2.84218,-6.88386 3.00005,-14.55078 4.21036,-21.84413c0.4735,2.69219 0.68745,5.45276 0.61998,8.26228z" fill="#838339" stroke-width="0"/><path d="M311.33842,98.24539c0.30989,5.61997 -8.66816,13.81918 -20.51938,12.5629c-10.11947,-1.07272 -17.37867,-5.47133 -17.37867,-14.02856c0,-8.55723 9.29632,-13.81918 19.47248,-13.81918c10.17617,0 18.11562,9.6636 18.42558,15.28485z" fill="#9b9b44" stroke-width="0"/><path d="M353.4363,84.81884c9.73929,0 18.63651,5.03604 18.63651,13.2259c0,8.18986 -6.94756,12.39964 -16.63258,13.42631c-11.34243,1.20236 -19.93505,-6.64486 -19.63847,-12.02355c0.29665,-5.37992 7.89526,-14.62866 17.63455,-14.62866z" fill="#9b9b44" stroke-width="0"/><path d="M308.11437,97.73249c0.26662,4.83526 -7.45785,11.88962 -17.65428,10.80874c-8.70649,-0.92293 -14.9521,-4.70737 -14.9521,-12.06976c0,-7.36239 7.99828,-11.88962 16.75355,-11.88962c8.75527,0 15.58615,8.31428 15.85282,13.15064z" fill="#000000" stroke-width="0"/><path d="M353.69794,86.20316c8.75527,0 16.75355,4.52723 16.75355,11.88962c0,7.36239 -6.2456,11.14684 -14.9521,12.06977c-10.19643,1.08087 -17.9209,-5.97349 -17.65428,-10.80874c0.26668,-4.83636 7.09755,-13.15064 15.85282,-13.15064z" fill="#000000" stroke-width="0"/><path d="M349.36774,121.51173c0,0 -6.21073,11.67477 -26.70017,10.98889c-21.41824,-0.71698 -28.60457,-11.88962 -28.60457,-11.88962c0,0 15.83023,4.68379 28.91339,4.68379c13.08316,0 26.39135,-3.78306 26.39135,-3.78306z" fill="#000000" stroke-width="0"/><path d="M353.5111,119.34998c0,2.68628 -16.54258,5.94481 -31.61558,5.94481c-15.07299,0 -30.35456,-3.79897 -30.35456,-6.48525c0,-2.68628 15.46171,-2.16175 30.5347,-2.16175c15.07299,0 31.43543,0.01591 31.43543,2.70219z" fill="#a1a147" stroke-width="0"/><path d="M356.57357,117.36837c0,2.68628 -19.42491,5.22423 -34.49791,5.22423c-15.073,0 -32.69645,-2.89825 -32.69645,-5.58452c0,-2.68628 17.80359,-3.06248 32.8766,-3.06248c15.07299,0 34.31776,0.7365 34.31776,3.42277z" fill="#c5c556" stroke-width="0"/><path d="M287.91543,118.68944c0,4.3113 -3.59076,7.80632 -8.02018,7.80632c-4.42943,0 -8.02019,-3.49501 -8.02019,-7.80632c0,-4.3113 3.59076,-7.80632 8.02019,-7.80632c4.42943,0 8.02018,3.495 8.02018,7.80632z" fill-opacity="0.54118" fill="#2c2c13" stroke-width="0"/><path d="M371.74324,120.3708c0,4.3113 -3.59076,7.80631 -8.02018,7.80631c-4.42943,0 -8.02018,-3.49501 -8.02018,-7.80631c0,-4.3113 3.59076,-7.80632 8.02018,-7.80632c4.42943,0 8.02018,3.49501 8.02018,7.80632z" fill-opacity="0.54118" fill="#2c2c13" stroke-width="0"/><path d="M321.9041,101.10378c0,-8.59764 -0.88595,-22.66813 -1.14861,-34.48315c-0.25182,-11.3274 0.11921,-20.58997 0.11921,-20.58997h0.72058c0,0 -0.2902,9.42697 0.04074,20.89177c0.3381,11.71253 1.29748,25.55639 1.29748,34.07842c0,6.92475 -0.21616,16.36631 -0.53565,24.37912c-0.12911,0.01896 -0.87702,-0.01325 -0.93034,-0.0085c0.24586,-7.98545 0.43657,-17.31907 0.43657,-24.26769z" fill-opacity="0.54118" fill="#2c2c13" stroke-width="0"/><path d="M320.8747,141.14761c0,0 0.00514,-3.61268 0.18211,-8.73079c0.23906,0.0638 0.7407,0.13334 1.03548,0.12377c-0.22748,5.07451 -0.49701,8.60701 -0.49701,8.60701z" fill-opacity="0.54118" fill="#2c2c13" stroke-width="0"/><path d="M331.35317,107.46036c0,2.58679 -5.73054,5.88248 -8.64699,5.76467c-3.10632,-0.12549 -8.647,-3.17788 -8.647,-5.76467c0,-2.58679 17.29399,-2.58679 17.29399,0z" fill="#000000" stroke-width="0"/><path d="M276.43156,92.03483c0.03477,-0.50209 0.08423,-0.98193 0.20588,-1.39388c0.91874,-3.11133 4.67748,-4.43275 7.40671,-4.96598c1.66733,-0.67375 3.33381,-1.68701 5.11314,-2.0345c1.72561,-0.337 3.44484,0.46733 5.06581,0.87295c2.39776,0.59999 5.0424,1.51181 7.07191,3.0373c1.00588,1.02179 2.40911,1.5565 3.37766,2.65586c1.19462,1.35596 1.54946,2.96255 2.51645,4.40943c0.55669,0.83296 1.32344,1.01198 1.54717,2.13393c0.45628,2.288 -0.80403,4.13708 -1.86901,5.91204c-2.03762,2.053 -4.73671,3.99612 -7.32532,5.25377c-2.70774,1.31553 -6.32421,0.93213 -9.23959,0.93213c-6.43243,0 -12.11232,-3.19634 -15.35455,-8.63412c-0.44443,-1.32446 -0.92183,-3.05477 -0.62938,-4.47263c0.25697,-1.24586 1.28527,-1.92825 1.65459,-3.08049zM275.67512,96.86817c0.02993,0.93268 0.31803,1.94421 0.58203,2.74337c2.97948,4.92379 8.17943,7.79517 14.04523,7.79517c2.62272,0 6.21728,0.45785 8.63087,-0.79727c2.37598,-1.23555 4.87564,-2.9322 6.7981,-4.83439c0.88589,-1.47648 1.87853,-2.83219 1.58979,-4.75259c-0.10913,-0.72584 -0.96284,-1.05367 -1.33515,-1.61311c-0.57226,-0.85987 -0.76285,-2.04198 -1.30844,-2.90017c-1.09357,-1.72016 -2.92815,-2.49031 -4.32678,-3.86973c-1.85179,-1.38493 -4.29962,-2.18396 -6.47505,-2.72736c-1.3695,-0.34209 -2.98008,-1.15916 -4.44588,-0.85646c-1.72337,0.35591 -3.34816,1.35519 -4.97503,2.00076c-0.86447,0.17613 -2.12413,0.07635 -2.87874,0.51393c-0.67536,0.39163 -1.05009,1.12732 -1.68576,1.55868c-0.7758,0.52645 -1.54389,0.85727 -1.86398,1.89664c-0.12479,0.40516 -0.20372,0.81659 -0.26413,1.22889c0.03769,0.17513 -0.00994,0.33922 -0.05996,0.45077c-0.17239,1.40656 -0.24487,2.80079 -1.30199,3.96983c0,0 -0.3304,0.3304 -0.72512,0.19304z" fill="#000000" stroke-width="0.5"/><path d="M340.26657,94.92065c-0.69358,1.58459 -1.13515,3.69513 -1.2563,5.06298c-0.03295,0.37203 -0.38222,1.44923 -0.19546,1.81499c0.73792,1.44518 1.66814,2.67983 2.72101,3.94053c1.54576,1.23023 2.99242,1.4597 4.82005,1.82465c3.19583,0.63816 7.29683,2.62985 10.43138,0.74911c3.44467,-0.52197 8.5192,-1.8965 10.93782,-4.54892c0.87053,-0.95468 0.75978,-2.7351 1.64559,-3.91617c1.3179,-3.34512 -0.27902,-5.75924 -2.24733,-8.28501c-0.51451,-0.66023 -1.08696,-1.70413 -1.82682,-2.1342c-0.94877,-0.55151 -1.79871,-0.58995 -2.83257,-0.92534c-4.95715,-0.98103 -10.94932,-2.61707 -15.57078,0.48892c-2.28035,1.36537 -5.52846,3.48341 -6.53498,5.80466zM340.06939,92.5303c1.53375,-1.90056 4.14809,-3.61061 6.05313,-4.75589c5.0159,-3.31974 11.32091,-1.75211 16.71134,-0.66401c1.12468,0.38669 2.17488,0.4497 3.22033,1.0923c0.90645,0.55715 1.57005,1.65501 2.20844,2.47753c2.344,3.02003 3.93586,5.98365 2.3644,9.87368c-0.99322,1.32428 -0.79275,2.95564 -1.81321,4.15436c-0.70781,0.83145 -1.32285,0.97262 -2.21764,1.4579c-2.96722,1.60926 -5.901,3.04863 -9.32673,3.50488c-1.55933,0.9356 -3.33524,0.77201 -5.06794,0.61449c-3.76824,-0.34257 -8.69736,-1.12597 -11.6745,-3.51716c-1.11967,-1.3466 -2.38249,-2.79847 -3.04366,-4.41823c-0.29574,-0.72452 0.02452,-1.77504 0.09278,-2.5085c0.12032,-1.29289 0.48181,-3.02828 1.03392,-4.57603c-0.13551,-0.3506 0.1155,-0.68528 0.1155,-0.68528l0.34127,-0.44746c0.24573,-0.53729 0.51721,-1.02422 0.81166,-1.42605c0,0 0.06987,-0.09317 0.1909,-0.17651z" fill="#000000" stroke-width="0.5"/><path d="M347.66077,122.71908c0.54044,0 0.54044,0.54043 0.54044,0.54043l-0.03865,0.48894c-0.37657,0.74799 -1.28945,1.13011 -1.67214,1.87497c-2.50385,1.94221 -5.01535,4.17722 -7.9904,5.48533c-1.38057,0.60702 -2.86633,0.1886 -4.29534,0.18263c-2.08484,-0.41697 -3.28037,0.75121 -5.21303,1.00739c-0.94971,0.12589 -1.94231,-0.09174 -2.89511,0.00142c-1.78659,0.17467 -3.27615,0.88617 -5.2215,0.85287c-2.43467,-1.18021 -5.09008,-0.60058 -7.63818,-1.15293c-2.18592,-0.47383 -4.38471,-1.30481 -6.57123,-1.86311c-2.27764,0 -4.98388,-1.84098 -6.63552,-3.30426c-0.47086,-0.41716 -0.60888,-1.06509 -1.1085,-1.40543c-1.0252,-0.69837 -1.90182,-1.17136 -2.80437,-2.07391c0,0 -0.38215,-0.38215 0,-0.7643c0.38215,-0.38215 0.76429,0 0.76429,0c0.86753,0.86753 1.71939,1.25965 2.67207,1.96136c2.2091,1.62714 4.05822,4.51377 7.24409,4.51377c2.25454,0.55278 4.45069,1.37053 6.6875,1.88392c2.49991,0.57378 5.26032,-0.0781 7.63818,1.15293c1.81663,-0.04403 3.16803,-0.67104 4.86666,-0.87653c0.94344,-0.11413 1.92657,0.1094 2.86956,0.00142c2.0079,-0.22992 3.24732,-1.45109 5.4516,-1.01023c1.22758,-0.00617 2.59354,0.42643 3.77519,-0.10561c0.99166,-0.44649 1.53267,-0.99209 2.31703,-1.65038c1.06671,-0.89526 2.99071,-1.07741 3.99288,-2.12361c0.45462,-0.4746 0.66985,-0.97836 1.26428,-1.40531c0.42127,-0.86914 1.37842,-0.94812 1.49842,-1.58383l-0.03865,-0.08752c0,0 0,-0.54044 0.54044,-0.54044z" fill="#000000" stroke-width="0.5"/></g></g></g></svg>