<svg version="1.1" xmlns="http://www.w3.org/2000/svg" xmlns:xlink="http://www.w3.org/1999/xlink" width="34.17311" height="34.17311" viewBox="0,0,34.17311,34.17311"><g transform="translate(-302.91346,-162.9135)"><g stroke-miterlimit="10"><path d="M309.98312,162.9135h20.03379c3.9166,0 7.06966,3.15307 7.06966,7.06966v20.03379c0,3.91659 -3.15306,7.06966 -7.06966,7.06966h-20.03379c-3.91659,0 -7.06966,-3.15307 -7.06966,-7.06966v-20.03379c0,-3.91659 3.15307,-7.06966 7.06966,-7.06966z" fill="#a0a300" fill-rule="evenodd" stroke="none" stroke-width="0" stroke-linecap="round" stroke-linejoin="round"/><g fill="none" fill-rule="nonzero" stroke="#d9db56" stroke-width="1" stroke-linecap="round" stroke-linejoin="miter"><path d="M323.63864,178.86355c0,0 -0.49458,4.81038 -3.80153,4.80593c-3.61401,-0.00487 -3.76533,-4.92116 -3.76533,-4.92116"/><path d="M316.80159,181.89799c0,0 -1.08948,0.48878 -1.74292,-0.00483c-0.61919,-0.46773 -0.5246,-1.49318 -0.5246,-1.49318"/><path d="M325.24653,180.32316c0,0 0.09778,1.02544 -0.54234,1.49318c-0.67553,0.49361 -1.80184,0.00483 -1.80184,0.00483"/></g><g fill-rule="nonzero" stroke-linejoin="miter"><path d="M330.83523,184.73461c0,0 -4.85109,7.12736 -10.83523,7.12736c-5.98412,0 -10.83523,-7.12736 -10.83523,-7.12736c0,0 4.85111,2.26592 10.83523,2.26592c5.98412,0 10.83523,-2.26592 10.83523,-2.26592z" fill="#d9db56" stroke="none" stroke-width="0" stroke-linecap="butt"/><path d="M319.62921,192.6859l0.0824,-7.58053" fill="none" stroke="#a0a300" stroke-width="1" stroke-linecap="round"/><path d="M314.27339,184.77579l-0.32959,7.08615" fill="none" stroke="#a0a300" stroke-width="1" stroke-linecap="round"/><path d="M325.6442,191.28517l-0.16479,-6.50938" fill="none" stroke="#a0a300" stroke-width="1" stroke-linecap="round"/></g><g fill-rule="nonzero" stroke="none" stroke-width="0" stroke-linecap="butt" stroke-linejoin="miter"><path d="M317.76207,172.8141c0,2.20914 -1.82071,4 -4.06667,4c-2.24596,0 -4.06667,-1.79086 -4.06667,-4c0,-2.20914 1.82071,-4 4.06667,-4c2.24596,0 4.06667,1.79086 4.06667,4z" fill="#d9db56"/><path d="M315.44412,173.16537c0,1.08616 -0.78522,1.96667 -1.75385,1.96667c-0.96862,0 -1.75385,-0.8805 -1.75385,-1.96667c0,-1.08616 0.78522,-1.96667 1.75385,-1.96667c0.96862,0 1.75385,0.8805 1.75385,1.96667z" fill="#000000"/></g><g fill-rule="nonzero" stroke="none" stroke-width="0" stroke-linecap="butt" stroke-linejoin="miter"><path d="M330.5494,173.04486c0,2.20914 -1.82071,4 -4.06667,4c-2.24596,0 -4.06667,-1.79086 -4.06667,-4c0,-2.20914 1.82071,-4 4.06667,-4c2.24596,0 4.06667,1.79086 4.06667,4z" fill="#d9db56"/><path d="M328.23145,173.39614c0,1.08616 -0.78522,1.96667 -1.75385,1.96667c-0.96863,0 -1.75385,-0.8805 -1.75385,-1.96667c0,-1.08616 0.78522,-1.96667 1.75385,-1.96667c0.96863,0 1.75385,0.8805 1.75385,1.96667z" fill="#000000"/></g></g></g></svg>