<svg version="1.1" xmlns="http://www.w3.org/2000/svg" xmlns:xlink="http://www.w3.org/1999/xlink" width="117.65222" height="107.91068" viewBox="0,0,117.65222,107.91068"><g transform="translate(-183.6205,-121.54603)"><g data-paper-data="{&quot;isPaintingLayer&quot;:true}" fill-rule="nonzero" stroke-linejoin="miter" stroke-miterlimit="10" stroke-dasharray="" stroke-dashoffset="0" style="mix-blend-mode: normal"><g stroke-linecap="butt"><path d="M288.37502,207.45833c5.61856,4.91681 -4.86394,15.26507 -13.16667,16.91667c-13.24449,2.63463 -21.5,-5.58333 -21.5,-5.58333l6,-4.41667c0,0 5.91723,3.95885 11.501,1.66911c6.88667,-2.82402 10.29427,-14.59894 17.16566,-8.58578z" fill="#ecec68" stroke="#000000" stroke-width="2"/><path d="M276.63041,211.15282l4.33946,-4.67009l8.14976,7.57279l-4.33946,4.67008z" fill="#000000" stroke="none" stroke-width="0"/><path d="M271.19665,216.27579l4.50931,-3.08252l4.09743,9.23928l-5.50931,2.08252z" fill="#000000" stroke="none" stroke-width="0"/><path d="M263.35949,216.07027l5.60739,0.59853l-1.57637,8.46927l-6.35739,-1.72354z" fill="#000000" stroke="none" stroke-width="0"/></g><g data-paper-data="{&quot;index&quot;:null}" stroke-linecap="butt"><path d="M263.48255,210.65005c3.79155,2.92137 4.51895,6.84775 2.72119,9.18102c-1.79776,2.33327 -6.99547,1.96764 -10.78703,-0.95373c-3.79155,-2.92137 -4.74117,-7.2922 -2.94341,-9.62546c1.79776,-2.33327 7.21769,-1.52319 11.00925,1.39818z" fill="#ecec68" stroke="#000000" stroke-width="2"/><path d="M259.55188,220.79262l6.11741,-7.29303c0,0 3.15807,2.96033 0.90032,6.34629c-1.93947,2.90865 -7.01773,0.94673 -7.01773,0.94673z" fill="#000000" stroke="none" stroke-width="0"/><path d="M253.44077,216.90373l7.33963,-8.29303l2.78921,2.12408l-7.0063,8.62636z" fill="#000000" stroke="none" stroke-width="0"/></g><g stroke-linecap="butt"><path d="M230.1708,208.02965c1.79776,2.33327 0.84814,6.7041 -2.94341,9.62546c-3.79155,2.92137 -8.98926,3.287 -10.78702,0.95373c-1.79776,-2.33327 -1.07036,-6.25965 2.72119,-9.18102c3.79155,-2.92137 9.21148,-3.73145 11.00924,-1.39818z" fill="#ecec68" stroke="#000000" stroke-width="2"/><path d="M216.07449,218.62366c-2.25775,-3.38597 0.90032,-6.34629 0.90032,-6.34629l6.11741,7.29303c0,0 -5.07826,1.96191 -7.01773,-0.94674z" fill="#000000" stroke="none" stroke-width="0"/><path d="M226.08079,218.13891l-7.0063,-8.62636l2.78921,-2.12407l7.33963,8.29303z" fill="#000000" stroke="none" stroke-width="0"/></g><path d="M240.91496,226.18342c0,0.7405 -3.6377,1.8081 -9.04974,1.77241c-5.91985,-0.03904 -8.28349,-1.2374 -8.59956,-1.91835c-1.38426,-2.98226 0.39895,-5.24797 8.5651,-5.10799c4.02776,0.06904 7.27771,0.47006 8.5305,1.30635c1.39536,0.93146 0.5537,2.37617 0.5537,3.94758z" fill="#c5c556" stroke="#9b9b44" stroke-width="3" stroke-linecap="butt"/><path d="M250.0935,220.92948c8.16615,-0.13998 9.94936,2.12573 8.5651,5.10799c-0.31292,0.67415 -2.25852,2.13538 -8.35773,1.80566c-6.6718,-0.36067 -9.29157,-0.91172 -9.29157,-1.65972c0,-1.57638 -0.72955,-3.24678 0.67809,-4.17864c1.25539,-0.83106 4.39253,-1.0065 8.40611,-1.0753z" data-paper-data="{&quot;index&quot;:null}" fill="#c5c556" stroke="#9b9b44" stroke-width="3" stroke-linecap="butt"/><path d="M241.68735,219.36998c-6.67004,0.08177 -14.65905,0.16354 -14.8262,-0.84771c-0.62812,-3.80007 5.58333,-17.32891 5.58333,-17.32891l17.34171,-0.44122c0,0 5.49496,15.18096 5.74163,17.06643c0.24667,1.88547 -6.60945,1.46275 -13.84047,1.55141z" fill="#000000" stroke="#6e6e30" stroke-width="3" stroke-linecap="butt"/><g stroke="none" stroke-width="0" stroke-linecap="butt"><path d="M239.66979,209.43261c-46.11626,-5.17219 -54.15223,-35.0593 -54.15223,-35.0593c0,0 7.01604,-0.86057 12.74669,-7.56009c12.67633,-14.81948 21.60406,-42.40164 48.95134,-39.54849c28.5631,2.97999 31.10777,29.6325 40.7046,47.8375c3.86507,7.2843 11.33535,12.47572 11.33535,12.47572c0,0 -12.64173,27.11968 -59.58577,21.85466z" fill="#ecec68"/><path d="M298.39847,186.22589c0,0 -3.87562,10.70025 -16.02683,16.76423c-12.60383,6.28987 -32.33099,5.90858 -32.33099,5.90858c0,0 19.11101,-9.73142 21.43232,-41.56918c1.32725,-18.20389 -11.71189,-37.50858 -11.71189,-37.50858c0,0 10.39032,6.36406 16.89055,17.51399c5.19514,8.91127 6.6643,19.591 10.04884,24.64726c1.65145,2.46712 2.49359,5.63956 4.43556,7.96609c3.19457,3.82713 7.26245,6.2776 7.26245,6.2776z" fill="#cbcb6a"/></g><path d="M201.83687,180.21585c0.33607,-3.04979 3.08088,-5.24966 6.13067,-4.91358c3.04979,0.33607 5.24967,3.08087 4.91359,6.13066c-0.33607,3.04979 -3.08088,5.24968 -6.13067,4.91359c-3.04979,-0.33607 -5.24967,-3.08088 -4.91359,-6.13067z" fill="#6e6e30" stroke="none" stroke-width="0" stroke-linecap="butt"/><path d="M270.51994,187.8965c0.33609,-3.04979 3.08087,-5.24966 6.13066,-4.91358c3.04979,0.33607 5.24969,3.08087 4.91361,6.13066c-0.33609,3.04979 -3.08089,5.24967 -6.13068,4.91359c-3.04979,-0.33607 -5.24968,-3.08088 -4.91359,-6.13067z" fill="#6e6e30" stroke="none" stroke-width="0" stroke-linecap="butt"/><g stroke="none" stroke-width="0" stroke-linecap="butt"><path d="M220.37065,136.5467l-10.24776,14.6322c0,0 -1.49603,-0.61023 -4.15375,-1.44857c-3.61218,-1.13942 -8.90283,-3.07487 -11.15868,-7.95194c-4.10784,-8.88095 0.46495,-14.66977 3.21651,-17.05085c2.88204,-2.49398 9.20132,-4.7681 15.19948,-1.71149c4.77512,2.43338 5.90144,6.68734 6.43672,9.7494c0.39047,2.23367 0.7075,3.78123 0.7075,3.78123z" fill="#000000"/><path d="M202.25076,136.64586c0.41843,-3.797 3.8357,-6.53585 7.63269,-6.11742c3.797,0.41843 6.53584,3.8357 6.11741,7.63268c-0.41843,3.797 -3.83569,6.53585 -7.63268,6.11742c-3.797,-0.41843 -6.53585,-3.8357 -6.11742,-7.63268z" fill="#cbcb6a"/></g><path d="M239.66978,209.43262c-46.11626,-5.17219 -54.15223,-35.05929 -54.15223,-35.05929c0,0 7.01605,-0.86057 12.7467,-7.56009c12.67633,-14.81948 21.60406,-42.40164 48.95134,-39.54849c28.56309,2.97999 30.33534,29.61778 40.04195,47.76446c5.17187,9.66892 11.99801,12.54876 11.99801,12.54876c0,0 -12.64173,27.11968 -59.58577,21.85466z" fill="none" stroke="#000000" stroke-width="3" stroke-linecap="butt"/><g data-paper-data="{&quot;index&quot;:null}" stroke="none" stroke-width="0" stroke-linecap="butt"><path d="M273.92006,142.44783c0,0 0.64642,-1.44139 1.5139,-3.53644c1.18919,-2.87204 3.21484,-6.77865 8.40527,-8.11383c6.51979,-1.67713 12.19225,1.91848 14.46204,4.9802c2.16703,2.9231 5.36955,9.56875 -0.57359,17.3421c-3.26373,4.26882 -8.84888,5.00576 -12.62248,5.33126c-2.77652,0.2395 -4.36952,0.50931 -4.36952,0.50931l-6.81561,-16.51257z" fill="#000000"/><path d="M283.95088,152.60771c-3.79699,-0.41843 -6.53585,-3.8357 -6.11741,-7.63269c0.41843,-3.797 3.8357,-6.53584 7.63268,-6.1174c3.79699,0.41843 6.53585,3.8357 6.11741,7.63268c-0.41843,3.797 -3.83569,6.53585 -7.63267,6.11741z" fill="#cbcb6a"/></g><path d="M241.05698,126.51826l13.01864,1.68616c0,0 -1.26518,9.02979 -3.99195,16.73699c-2.05888,5.81945 -4.70732,10.85112 -4.70732,10.85112c0,0 -2.34928,-4.87453 -3.26928,-11.70301c-0.69434,-5.15353 -1.0501,-17.57125 -1.0501,-17.57125z" fill="#000000" stroke="none" stroke-width="0" stroke-linecap="butt"/><path d="M232.10107,145.0236c0,0 4.94148,-7.12973 14.76468,-6.16984c10.07277,0.98426 12.56985,9.18211 12.56985,9.18211z" fill="#000000" stroke="none" stroke-width="0" stroke-linecap="butt"/><path d="M230.91891,135.21006c0,0 5.41962,-7.58005 16.84806,-6.44329c11.71881,1.16566 14.95939,9.94846 14.95939,9.94846z" fill="#000000" stroke="none" stroke-width="0" stroke-linecap="butt"/><g fill="#000000" stroke="none" stroke-width="0" stroke-linecap="butt"><path d="M191.4844,184.93975c0,0 -4.88243,-6.88792 -4.78347,-9.21188c0.08298,-1.94887 5.33771,-3.80573 5.33771,-3.80573c0,0 3.37464,3.24824 8.62758,5.89536c4.40858,2.22164 8.99435,3.08894 8.99435,3.08894c0,0 -2.34147,2.80614 -7.5974,3.59169c-7.69089,1.14948 -10.57875,0.44161 -10.57875,0.44161z"/><path d="M192.93604,186.94701c0,0 8.34615,2.56141 13.58252,2.68322c4.39468,0.10224 8.41438,-0.9525 8.41438,-0.9525c0,0 -0.02051,3.13676 -4.17156,6.3573c-2.34458,1.81903 -4.6458,2.82779 -6.01292,3.45768c-0.75552,-0.50948 -2.22324,-1.43455 -2.92884,-1.8686c-0.593,-0.36479 -1.42245,-1.41877 -2.3874,-2.67886c-0.74006,-1.65806 -1.92173,-3.09118 -3.41202,-4.13347c-0.02598,-0.01817 -0.05203,-0.03621 -0.07821,-0.05413c0.70451,-0.8949 -3.00595,-2.81065 -3.00595,-2.81065z"/><path d="M214.54833,199.2699c4.26599,-2.07285 6.77264,-4.80297 6.77264,-4.80297c0,0 1.07602,3.07127 -0.72343,7.4479c-0.65412,1.59097 -1.26052,2.90301 -1.80254,3.9765c-2.04503,-1.40427 -4.28644,-2.35864 -6.78823,-3.71169c-0.20954,-0.11332 -2.43658,-1.55268 -2.69282,-1.62539c1.0984,-0.53196 3.33964,-0.36366 5.2344,-1.28433z"/></g><g data-paper-data="{&quot;index&quot;:null}" fill="#000000" stroke="none" stroke-width="0" stroke-linecap="butt"><path d="M280.89394,192.93377c-4.95875,-1.91122 -6.63298,-5.15987 -6.63298,-5.15987c0,0 4.66463,0.15208 9.45116,-1.05625c5.70329,-1.43975 9.70427,-3.8752 9.70427,-3.8752c0,0 4.72429,2.95656 4.3809,4.87671c-0.40948,2.28975 -6.6746,7.9492 -6.6746,7.9492c0,0 -2.97271,0.06202 -10.22876,-2.73461z"/><path d="M288.1668,200.0466c-0.02943,0.0118 -0.85906,0.43857 -0.88837,0.45063c-1.68151,0.69275 -4.79051,0.77273 -5.87386,2.22987c-0.20929,0.17549 1.69991,1.71058 1.50215,1.87359c-0.95142,0.78432 -3.87066,0.03326 -4.41558,0.22111c-0.78318,0.26998 -2.41712,0.85325 -3.26544,1.186c-1.19718,-0.91248 -3.2235,-2.39814 -5.11571,-4.68404c-3.35014,-4.04718 -2.68711,-7.11312 -2.68711,-7.11312c0,0 3.69357,1.90475 8.00504,2.76191c5.13723,1.02135 14.73799,0.18617 14.73799,0.18617c0,0 -2.49182,1.86103 -1.99909,2.88789z"/><path d="M270.32085,207.02567c-0.2659,0.01517 -2.75295,0.93503 -2.98212,0.99999c-2.73639,0.77581 -5.13186,1.21922 -7.43358,2.14447c-0.29526,-1.16576 -0.60142,-2.57837 -0.89339,-4.27359c-0.80323,-4.66342 0.91574,-7.4267 0.91574,-7.4267c0,0 1.85198,3.21045 5.56423,6.16251c1.64882,1.31117 3.87292,1.63496 4.82913,2.39332z"/></g><g fill="#000000" stroke="none" stroke-width="0" stroke-linecap="butt"><path d="M227.28366,168.19785c-0.94146,8.54322 -5.59861,15.03976 -10.40202,14.51041c-4.8034,-0.52934 -7.93414,-7.8841 -6.99268,-16.42731c0.94146,-8.54322 5.59861,-15.03976 10.40202,-14.5104c4.8034,0.52934 7.93414,7.88409 6.99268,16.42731z"/><path d="M216.46631,173.69603c-0.13913,1.26261 -4.48225,1.41756 -4.48225,1.41756c0,0 -1.10619,-0.59282 -2.55492,-1.36502c-1.88697,-1.00579 -4.20892,-2.36979 -3.93195,-3.67587c0.32299,-1.52307 2.76304,-1.05489 4.64575,-0.65092c1.40239,0.30092 2.42167,0.4237 2.42167,0.4237c0,0 4.04084,2.58795 3.90171,3.85056z"/></g><g data-paper-data="{&quot;index&quot;:null}" fill="#000000" stroke="none" stroke-width="0" stroke-linecap="butt"><path d="M269.8915,157.63894c4.80341,0.52934 7.93414,7.88408 6.99268,16.4273c-0.94146,8.54322 -5.59861,15.03976 -10.40201,14.51041c-4.80341,-0.52934 -7.93414,-7.88409 -6.99268,-16.42731c0.94146,-8.54322 5.5986,-15.03975 10.40201,-14.51041z"/><path d="M273.49655,176.96261c0,0 1.02157,0.10211 2.45583,0.1138c1.9255,0.0157 4.40893,0.09009 4.3925,1.64695c-0.01407,1.33503 -2.57733,2.1607 -4.63803,2.73145c-1.58211,0.43821 -2.79087,0.77593 -2.79087,0.77593c0,0 -4.20516,-1.09697 -4.066,-2.35958c0.13914,-1.26261 4.64655,-2.90853 4.64655,-2.90853z"/></g><path d="M220.41478,163.64316c-0.3716,3.3722 -2.19866,5.93777 -4.08082,5.73035c-1.88216,-0.20741 -3.10668,-3.10926 -2.73508,-6.48145c0.3716,-3.3722 2.19865,-5.93775 4.08081,-5.73032c1.88216,0.20741 3.10669,3.10925 2.73509,6.48143z" fill="#ffffff" stroke="none" stroke-width="0" stroke-linecap="butt"/><path d="M269.5772,168.77341c-0.37162,3.3722 -2.19864,5.93777 -4.08081,5.73034c-1.88216,-0.20741 -3.10668,-3.10927 -2.73507,-6.48146c0.37162,-3.3722 2.19864,-5.93775 4.08081,-5.73031c1.88216,0.20741 3.10668,3.10924 2.73507,6.48143z" fill="#ffffff" stroke="none" stroke-width="0" stroke-linecap="butt"/><path d="M230.95421,173.6435c0.72162,-6.54832 6.61508,-11.2718 13.1634,-10.55016c6.54832,0.72162 11.2718,6.61509 10.55016,13.16341c-0.72162,6.54832 -6.61508,11.2718 -13.16341,10.55016c-6.54832,-0.72162 -11.2718,-6.61509 -10.55017,-13.16341z" fill="#6e6e30" stroke="none" stroke-width="0" stroke-linecap="butt"/><path d="M217.74642,174.81491c0.11426,-1.03693 1.04749,-1.78486 2.08442,-1.6706c1.03693,0.11426 1.78489,1.04749 1.67063,2.08442c-0.11426,1.03693 -1.04751,1.78489 -2.08443,1.67062c-1.03693,-0.11426 -1.78489,-1.04751 -1.67063,-2.08443z" fill="#6e6e30" stroke="none" stroke-width="0" stroke-linecap="butt"/><path d="M267.50731,180.7457c0.11428,-1.03693 1.04749,-1.78488 2.08441,-1.67061c1.03693,0.11426 1.78489,1.04749 1.67063,2.08441c-0.11428,1.03693 -1.04751,1.78489 -2.08443,1.67063c-1.03693,-0.11426 -1.78489,-1.0475 -1.67063,-2.08442z" fill="#6e6e30" stroke="none" stroke-width="0" stroke-linecap="butt"/><path d="M251.76177,179.20616c0,0 -1.87653,3.25409 -6.00438,1.84968c-2.92733,-0.99595 -2.88999,-4.09035 -2.88999,-4.09035c0,0 -1.08559,3.47139 -4.01892,3.47519c-4.19264,0.00543 -5.82496,-3.13179 -5.82496,-3.13179" fill="none" stroke="#000000" stroke-width="2" stroke-linecap="round"/><g stroke="none" stroke-width="0" stroke-linecap="butt"><path d="M250.35139,171.46342c-0.24955,2.26446 -4.51247,6.56787 -7.75234,6.06232c-3.23895,-0.5054 -6.66145,-5.35875 -6.4119,-7.62321c0.24955,-2.26446 3.50308,-4.26696 7.50592,-3.82585c4.00284,0.44112 6.90788,3.12228 6.65834,5.38675z" fill="#000000"/><path d="M247.79206,170.343c-0.10335,0.93781 -2.20828,1.47534 -4.70146,1.20058c-2.49321,-0.27475 -4.43057,-1.25774 -4.32721,-2.19554c0.10335,-0.93781 1.46073,-1.53259 4.87627,-1.26514c3.33235,0.26092 4.25578,1.32229 4.15242,2.2601z" fill="#ffffff"/></g></g></g></svg>