<svg version="1.1" xmlns="http://www.w3.org/2000/svg" xmlns:xlink="http://www.w3.org/1999/xlink" width="378" height="460.00001" viewBox="0,0,378,460.00001"><defs><linearGradient x1="320" y1="-67.5" x2="320" y2="269.5" gradientUnits="userSpaceOnUse" id="color-1"><stop offset="0" stop-color="#ffffd1"/><stop offset="1" stop-color="#f1f19c"/></linearGradient></defs><g transform="translate(-131,83.00001)"><g stroke-miterlimit="10"><path d="M145.24891,375c-6.76488,0 -12.24891,-5.33739 -12.24891,-11.9214v-432.15721c0,-6.58401 5.48402,-11.9214 12.24891,-11.9214h349.50219c6.76488,0 12.2489,5.33739 12.2489,11.9214v432.15721c0,6.584 -5.48402,11.9214 -12.2489,11.9214z" fill="#535311" fill-rule="nonzero" stroke="#212108" stroke-width="4" stroke-linecap="butt" stroke-linejoin="miter"/><path d="M160.66812,361.5c-6.16798,0 -11.16812,-4.94148 -11.16812,-11.03711v-406.92577c0,-6.09563 5.00014,-11.03711 11.16812,-11.03711h318.66376c6.16798,0 11.16812,4.94149 11.16812,11.03712v406.92577c0,6.09563 -5.00014,11.03711 -11.16812,11.03711z" fill="url(#color-1)" fill-rule="nonzero" stroke="#212108" stroke-width="4.5" stroke-linecap="butt" stroke-linejoin="miter"/><text transform="translate(160.5,-35.68135) scale(0.61033,0.61033)" font-size="40" xml:space="preserve" fill="#212108" fill-rule="nonzero" stroke="none" stroke-width="1" stroke-linecap="butt" stroke-linejoin="miter" font-family="&quot;Allan-Regular&quot;, Sans Serif" font-weight="normal" text-anchor="start"><tspan x="0" dy="0">name: Dubstard</tspan><tspan x="0" dy="46.150000000000006px">age: male</tspan><tspan x="0" dy="46.150000000000006px">occupation: lab experiment</tspan><tspan x="0" dy="46.150000000000006px"> </tspan></text><g><path d="M432.53444,-56.08653h32.93116c6.43804,0 11.62097,5.18296 11.62097,11.62097v32.93116c0,6.43802 -5.18294,11.62098 -11.62097,11.62098h-32.93116c-6.43802,0 -11.62098,-5.18296 -11.62098,-11.62097v-32.93116c0,-6.43801 5.18296,-11.62097 11.62098,-11.62097z" fill="#a0a300" fill-rule="evenodd" stroke="#212108" stroke-width="2" stroke-linecap="round" stroke-linejoin="round"/><g fill="none" fill-rule="nonzero" stroke="none" stroke-width="1" stroke-linecap="butt" stroke-linejoin="miter" font-family="sans-serif" font-weight="normal" font-size="12" text-anchor="start"><g/><g/></g></g><text transform="translate(161.5,50.75074) scale(0.41162,0.43502)" font-size="40" xml:space="preserve" fill="#212108" fill-rule="nonzero" stroke="none" stroke-width="1" stroke-linecap="butt" stroke-linejoin="miter" font-family="&quot;Allan-Regular&quot;, Sans Serif" font-weight="normal" text-anchor="start"><tspan x="0" dy="0">Description-</tspan><tspan x="0" dy="46.150000000000006px">Dubstard was the first of the MCS's many attempts to </tspan><tspan x="0" dy="46.150000000000006px">create artificial members, since he kept sliding everywhere </tspan><tspan x="0" dy="46.150000000000006px">and staining everything, he was given a marble plinth to </tspan><tspan x="0" dy="46.150000000000006px">keep him suspended in the air. On one fateful day, Dubstard </tspan><tspan x="0" dy="46.150000000000006px">was left unsupervised in the mustard laboratory, where he </tspan><tspan x="0" dy="46.150000000000006px">gained unfiltered access to the internet via kindle fire. He </tspan><tspan x="0" dy="46.150000000000006px">was mashing random buttons on the screen leading him </tspan><tspan x="0" dy="46.150000000000006px">down a rabbit hole of alpha male advice videos, he witnessed </tspan><tspan x="0" dy="46.150000000000006px">mangos, still water, winter arcs, and FLICKER GOONING! </tspan><tspan x="0" dy="46.150000000000006px">At this point there was no going back, Dubstard became a </tspan><tspan x="0" dy="46.150000000000006px">bonafide super sigma baby, and the lab technicians couldn’t </tspan><tspan x="0" dy="46.150000000000006px">reverse it. Dubstard spends everyday idolizing Patrick Bateman </tspan><tspan x="0" dy="46.150000000000006px">and listening to aggressive gym phonk. If his Dr Livesey posters </tspan><tspan x="0" dy="46.150000000000006px">are ever taken away, or Money Rain's ever turned off, uh oh </tspan><tspan x="0" dy="46.150000000000006px">he's crying.</tspan></text><path d="M160.16667,-30.16667v-1.66667h252.16667v1.66667z" fill="#212108" fill-rule="nonzero" stroke="none" stroke-width="0" stroke-linecap="butt" stroke-linejoin="miter"/><path d="M160.16667,-0.66667v-1.66667h252.16667v1.66667z" fill="#212108" fill-rule="nonzero" stroke="none" stroke-width="0" stroke-linecap="butt" stroke-linejoin="miter"/><path d="M160.16667,29.33333v-1.66667h252.16667v1.66667z" fill="#212108" fill-rule="nonzero" stroke="none" stroke-width="0" stroke-linecap="butt" stroke-linejoin="miter"/><g fill-rule="nonzero" stroke-width="1.5" stroke-linejoin="miter"><path d="M472.00728,-24.99697c0,0 -9.67083,15.59548 -22.61268,15.59548c-5.45518,0 -9.46544,-2.82735 -13.48574,-6.09851c-5.51745,-4.48937 -10.1328,-9.81467 -10.1328,-9.81467c0,0 10.94633,-22.07277 23.88818,-22.07277c12.94187,0 22.34304,22.39047 22.34304,22.39047z" fill="#d9db56" stroke="none" stroke-linecap="butt"/><path d="M457.13887,-28.12038c0,5.80643 -3.42004,10.51346 -7.63886,10.51346c-4.21882,0 -7.63886,-4.70703 -7.63886,-10.51346c0,-5.80643 3.42004,-10.51348 7.63886,-10.51348c4.21882,0 7.63886,4.70705 7.63886,10.51348z" fill="none" stroke="#000000" stroke-linecap="butt"/><path d="M451.97139,-27.86379c0,2.19104 -1.10648,3.96724 -2.47139,3.96724c-1.36492,0 -2.47141,-1.7762 -2.47141,-3.96724c0,-2.19104 1.10649,-3.96724 2.47141,-3.96724c1.36492,0 2.47139,1.7762 2.47139,3.96724z" fill="#000000" stroke="#000000" stroke-linecap="butt"/><path d="M449.81709,-9.41904c-9.57681,0.01488 -23.86415,-15.70173 -23.86415,-15.70173c0,0 11.28394,-21.62793 23.87771,-21.88997c11.51074,-0.23951 23.39332,21.71022 23.39332,21.71022c0,0 -12.35996,15.86638 -23.40688,15.88147z" fill="none" stroke="#000000" stroke-linecap="round"/></g></g></g></svg>