<svg version="1.1" xmlns="http://www.w3.org/2000/svg" xmlns:xlink="http://www.w3.org/1999/xlink" width="205.50833" height="315.26323" viewBox="0,0,205.50833,315.26323"><g transform="translate(-210.08762,-39.62759)"><g stroke-miterlimit="10"><path d="M252.07381,331.81449l2.16374,-279.82778h131.5249l-2.16374,279.82778z" fill-opacity="0.01" fill="#000000" stroke="none" stroke-width="2" stroke-linecap="butt"/><g fill="#000000" stroke-linecap="butt"><path d="M237.50831,58.17939l-8.27832,-3.19409c0,0 -15.60271,-5.63053 -16.438,-6.38899c-1.72391,-1.56537 1.43005,-4.46309 2.30938,-4.67378c2.54474,-0.60972 27.76978,6.60845 27.76978,6.60845l-9.43319,-7.33994l5.02405,-2.97313c0,0 6.88939,4.59042 8.3624,6.91343c2.90322,4.57852 4.97088,7.72156 4.97088,7.72156l-3.82671,10.07651z" stroke="#ecec68" stroke-width="1"/><path d="M244.01394,65.69809c0,0 -30.42378,3.03213 -32.69066,1.73196c-0.78332,-0.44928 -1.30242,-4.33024 0.80151,-5.34444c1.01941,-0.49141 33.52349,-2.47909 33.52349,-2.47909z" stroke="#ecec68" stroke-width="1"/><path d="M240.28348,61.70233c0,0 -27.49462,-2.45994 -29.26508,-4.38209c-0.61178,-0.6642 -0.89292,-4.79076 1.4187,-5.12471c1.12005,-0.16181 30.98832,4.43958 30.98832,4.43958z" stroke="#ecec68" stroke-width="1"/><path d="M246.0019,69.92534c0,0 -28.66436,9.65025 -31.12156,8.76069c-0.84909,-0.30739 -1.24932,-3.6777 0.64807,-5.03968c0.91934,-0.65992 31.03235,-10.00319 31.03235,-10.00319z" stroke="#ecec68" stroke-width="1"/><path d="M245.87037,68.87592c0,0 -10.38888,1.79645 -10.38888,-3.38889c0,-1.55284 -2.22229,-9.06295 -0.66565,-10.88368c3.6414,-4.25918 13.05454,-2.72743 13.05454,-2.72743c0,0 0.27574,4.21745 0.12383,8.78375c-0.13335,4.00835 -2.12382,8.21625 -2.12382,8.21625z" stroke="none" stroke-width="0"/></g><path d="M279.62053,303.39441c0,0 -24.27244,-57.84824 -24.32587,-73.19001c-0.02917,-8.37365 1.35263,-12.26886 11.9455,-17.77298c8.35666,-4.34218 14.99132,7.18281 14.99132,7.18281c0,0 26.55835,36.70654 25.81382,86.46654c-0.27494,18.37523 -31.14706,47.85181 -33.80886,48.31005c-3.88061,0.66807 -18.15915,-18.00308 -21.6143,-18.32962c-1.30453,-0.12329 26.99839,-32.66679 26.99839,-32.66679z" fill="#000000" stroke="#ecec68" stroke-width="1" stroke-linecap="butt"/><path d="M255.92373,235.3374c-2.75537,-7.90739 -2.71787,-12.04026 5.50417,-20.69488c6.48632,-6.82759 16.51345,1.90744 16.51345,1.90744c0,0 37.06717,26.05264 52.57305,73.34091c5.72597,17.46248 -13.85987,55.38808 -16.22721,56.68843c-3.4513,1.89576 -23.0333,-11.10554 -26.40635,-10.28872c-1.27353,0.3084 14.88418,-39.6799 14.88418,-39.6799c0,0 -41.79305,-46.78577 -46.84129,-61.27328z" fill="#000000" stroke="#ecec68" stroke-width="1" stroke-linecap="butt"/><path d="M241.88066,74.91809l-2.64448,-3.68257c0,0 5.18392,-4.34902 7.95381,-6.78652c2.7286,-2.40117 4.6511,-10.23113 4.6511,-10.23113l5.62125,5.92096c0,0 -0.48611,9.70459 -3.11122,12.01469c-2.85471,2.51215 -12.47045,2.76457 -12.47045,2.76457z" fill="#ecec68" stroke="#ecec68" stroke-width="1" stroke-linecap="butt"/><path d="M332.55917,179.58514l14.89299,-14.97933c0,0 4.28109,12.12754 8.94407,11.53193c3.68821,-0.47111 10.63558,-25.64108 10.63558,-25.64108l13.43729,9.60441c0,0 -13.89384,38.58069 -22.27487,36.74512c-9.25618,-2.02724 -25.63504,-17.26106 -25.63504,-17.26106z" fill="#000000" stroke="#ecec68" stroke-width="1" stroke-linecap="butt"/><g><path d="M358.57499,140.32l4.98587,-7.72349l14.3294,9.2503l-4.98588,7.72349z" fill="#000000" stroke="none" stroke-width="0" stroke-linecap="butt"/><path d="M355.8044,151.89003c0,0 -10.91791,8.459 -19.46953,4.28857c-8.55162,-4.17043 -12.96117,-19.96264 -12.96117,-19.96264c0,0 3.53612,-3.58166 6.65462,-9.356c6.90615,-12.78763 25.18976,-55.26379 25.18976,-55.26379l0.25192,15.10888l17.84882,-16.41785l-3.42187,14.28575l15.08925,-8.7737l-3.32009,13.00497l13.70662,-11.68599l-1.83497,16.32005l10.68906,-9.25781l-2.80832,13.33531l11.91687,-9.47511l-20.93294,30.79488c0,0 4.92076,3.91676 3.10968,7.65936c-1.72807,3.57103 -7.66973,1.03632 -7.66973,1.03632" fill="#000000" stroke="#ecec68" stroke-width="1" stroke-linecap="round"/><path d="M362.58367,148.71794c0,0 6.67133,10.15784 2.53657,9.54821c-2.13957,-0.31547 -7.51911,-3.70857 -13.89138,-7.01887" fill="#000000" stroke="#ecec68" stroke-width="1" stroke-linecap="round"/><path d="M378.36564,144.7676c0,0 7.71233,19.206 4.69711,19.64742c-2.60234,0.38099 -12.40752,-6.77134 -20.58822,-11.89439c-13.58395,-8.50678 -26.9871,-17.4234 -26.9871,-17.4234" fill="#000000" stroke="#ecec68" stroke-width="1" stroke-linecap="round"/><path d="M374.26643,124.92537c3.18015,-4.92629 9.46587,-6.52636 14.03953,-3.57383c4.57366,2.95251 5.70335,9.33955 2.52318,14.26585c-3.18016,4.92629 -9.46588,6.52635 -14.03953,3.57383c-4.57368,-2.95252 -5.70333,-9.33956 -2.52316,-14.26586z" fill="#ecec68" stroke="#000000" stroke-width="1.5" stroke-linecap="butt"/><path d="M380.92713,131.10002c-0.77263,-0.49876 -0.96061,-1.58221 -0.41982,-2.41992c0.54078,-0.83771 1.6055,-1.11246 2.37816,-0.61369c0.77265,0.49877 0.96059,1.58223 0.41982,2.41992c-0.54078,0.8377 -1.60551,1.11245 -2.37816,0.61368z" fill="#000000" stroke="none" stroke-width="0.5" stroke-linecap="butt"/><path d="M369.04714,129.77668c0,0 19.93313,9.47663 17.00507,14.61449c-3.11837,5.47181 -15.82356,-3.24797 -15.82356,-3.24797" fill="#000000" stroke="#ecec68" stroke-width="1" stroke-linecap="round"/><g stroke-linecap="butt"><path d="M357.72695,115.62799c3.724,-5.76874 11.08461,-7.64243 16.44043,-4.18501c5.35579,3.45743 6.67866,10.93672 2.95467,16.70546c-3.72398,5.76873 -11.08463,7.64243 -16.44044,4.18502c-5.3558,-3.45744 -6.67864,-10.93672 -2.95464,-16.70546z" fill="#ecec68" stroke="#000000" stroke-width="1.5"/><path d="M367.76842,121.72296c-0.61452,0.95193 -1.82445,1.26417 -2.70244,0.69738c-0.878,-0.56679 -1.09159,-1.79797 -0.47706,-2.74992c0.61453,-0.95193 1.82445,-1.26416 2.70245,-0.69737c0.87799,0.56678 1.09159,1.79796 0.47708,2.74988z" fill="#000000" stroke="none" stroke-width="0.5"/></g><g stroke="#ecec68" stroke-width="1" stroke-linecap="round"><path d="M332.46996,125.65033c0,0 -13.898,0.77318 -1.04909,-14.84425c2.34704,-2.85274 5.14983,6.07456 5.14983,6.07456" fill="#000000"/><path d="M333.05464,115.04214c0,0 -0.53544,3.03296 -0.93401,4.20378c-0.42559,1.25023 -1.5438,3.07492 -1.5438,3.07492" fill="none"/><path d="M330.12107,117.2197c0,0 0.77111,0.60985 0.97009,0.92596c0.28366,0.45068 0.75529,1.80132 0.75529,1.80132" fill="none"/></g></g><path d="M249.12562,223.78124c0,0 7.33441,-34.02191 17.54362,-53.94414c11.18686,-21.82998 38.91331,-57.0452 38.91331,-57.0452c0,0 15.11013,13.87893 22.18444,22.01591c15.97155,18.37072 20.1442,31.33372 20.1442,31.33372c0,0 -14.59962,24.69544 -18.11039,37.79833c-5.58319,20.83751 -10.09889,34.72372 -10.09889,34.72372z" fill="#000000" stroke="#ecec68" stroke-width="1" stroke-linecap="round"/><path d="M241.78645,74.81046c0,0 8.26967,-3.2526 10.98582,-5.78395c2.4026,-2.23913 4.48613,-8.63529 4.48613,-8.63529l53.06787,56.80794l-23.54169,20.75975c0,0 -10.95859,-18.74678 -17.41637,-27.82493c-8.40615,-11.81712 -27.58176,-35.3235 -27.58176,-35.3235z" fill="#000000" stroke="#ecec68" stroke-width="1" stroke-linecap="butt"/><path d="M289.71691,142.32817l-11.41446,-21.01004l18.99232,-17.1774l20.93719,21.37629z" fill="#000000" stroke="none" stroke-width="0" stroke-linecap="butt"/><path d="M328.08333,179.54347l15.5,-19c0,0 2.30347,2.24398 3.18573,3.98844c1.35394,2.67711 4.1476,10.51156 4.1476,10.51156l-4.33333,13.83333z" fill="#000000" stroke="none" stroke-width="0" stroke-linecap="butt"/></g></g></svg>