<svg version="1.1" xmlns="http://www.w3.org/2000/svg" xmlns:xlink="http://www.w3.org/1999/xlink" width="364" height="107" viewBox="0,0,364,107"><defs><linearGradient x1="320.00001" y1="128.5" x2="320.00001" y2="232.00005" gradientUnits="userSpaceOnUse" id="color-1"><stop offset="0" stop-color="#68682e"/><stop offset="1" stop-color="#303015"/></linearGradient><linearGradient x1="205.00003" y1="184.68665" x2="205.00003" y2="224.51151" gradientUnits="userSpaceOnUse" id="color-2"><stop offset="0" stop-color="#000000" stop-opacity="0"/><stop offset="1" stop-color="#000000" stop-opacity="0.54118"/></linearGradient><linearGradient x1="205.66674" y1="136.43661" x2="205.66674" y2="213.01151" gradientUnits="userSpaceOnUse" id="color-3"><stop offset="0" stop-color="#1c1c00" stop-opacity="0.55294"/><stop offset="1" stop-color="#1c1c00" stop-opacity="0"/></linearGradient><linearGradient x1="205.16673" y1="224.59485" x2="205.16673" y2="148.01995" gradientUnits="userSpaceOnUse" id="color-4"><stop offset="0" stop-color="#1c1c00" stop-opacity="0.30196"/><stop offset="1" stop-color="#1c1c00" stop-opacity="0"/></linearGradient><linearGradient x1="517.55045" y1="156.57711" x2="517.55045" y2="205.84324" gradientTransform="translate(-435.88057,-188.55263) scale(1.17726,0.9743)" gradientUnits="userSpaceOnUse" id="color-5"><stop offset="0" stop-color="#ffffff"/><stop offset="1" stop-color="#fdff9d"/></linearGradient><linearGradient x1="205.00003" y1="136.35118" x2="205.00003" y2="224.51151" gradientUnits="userSpaceOnUse" id="color-6"><stop offset="0" stop-color="#ffff94"/><stop offset="1" stop-color="#cccc48"/></linearGradient></defs><g transform="translate(-128.25,-126.75005)"><g stroke-miterlimit="10"><path d="M130,232.00005v-103.5h360.5v103.5z" fill="url(#color-1)" fill-rule="nonzero" stroke="#252510" stroke-width="3.5" stroke-linecap="butt" stroke-linejoin="miter"/><path d="M178.43046,136.35118h53.13923c10.38871,0 18.75214,8.13434 18.75214,18.23841v51.68346c0,10.10407 -8.36346,18.23841 -18.75214,18.23841h-53.13923c-10.38868,0 -18.75217,-8.13434 -18.75217,-18.23841v-51.68346c0,-10.10407 8.36349,-18.23841 18.75217,-18.23841z" fill="#6e6e30" fill-rule="evenodd" stroke="none" stroke-width="4.43922" stroke-linecap="round" stroke-linejoin="round"/><path d="M250.32183,206.27311c0,10.10407 -8.36346,18.23841 -18.75214,18.23841h-53.13923c-10.38868,0 -18.75217,-8.13434 -18.75217,-18.23841v-21.58645c18.06815,0.09223 37.35897,0.267 55.17088,0.26802c11.82421,0.00067 23.64844,-0.01273 35.47267,-0.02123z" fill="url(#color-2)" fill-rule="nonzero" stroke="none" stroke-width="4.43922" stroke-linecap="butt" stroke-linejoin="miter"/><path d="M178.08754,137.11353c0,0 -8.05558,7.54324 -8.33307,16.46965c-0.39756,12.78921 -0.72638,28.41772 -4.23301,28.76861c-3.3171,0.33192 -3.1024,-13.4702 -3.68173,-25.86175c-0.15377,-3.28895 -0.41765,-6.47361 -0.70454,-9.27859c1.42204,-1.11792 2.41833,-2.75301 2.70544,-4.62186c1.43487,-0.64268 2.62425,-1.73534 3.38863,-3.09846c1.72237,-0.26413 3.24631,-1.1306 4.35002,-2.37761z" fill="#ffff94" fill-rule="nonzero" stroke="none" stroke-width="0" stroke-linecap="butt" stroke-linejoin="miter"/><path d="M168.40227,143.12106l33.94565,-0.53584c0,0 -5.57733,5.56766 -7.78635,11.82991c-2.27466,6.44833 -1.28589,13.60084 -8.63226,13.89521c-8.41127,0.17652 -7.96475,-8.31966 -10.28204,-15.29332c-1.84531,-5.55325 -7.24499,-9.89597 -7.24499,-9.89597z" fill="#ffff94" fill-rule="nonzero" stroke="none" stroke-width="0" stroke-linecap="butt" stroke-linejoin="miter"/><path d="M242.09984,151.4589c-3.25619,1.37412 -8.07183,-3.02822 -14.07533,-3.36357c-2.58811,-0.14457 -5.24849,3.73357 -8.34538,3.75489c-4.83421,0.03328 -5.6472,-3.46288 -11.48056,-3.42075c-7.79407,0.05629 -4.00009,-4.18622 -9.49016,-4.49126c-0.42824,-0.02379 -24.597,6.85293 -25.01175,6.84039c-2.99325,-0.09046 -1.94054,3.2349 -1.75522,6.73721c0.20318,3.8398 -0.37096,7.86283 -2.10977,7.12443c-0.81208,-0.34486 -0.36059,-2.54418 -0.82566,-4.66289c-0.23623,-1.07622 -1.35855,-2.02338 -1.67223,-2.91793c-1.39706,-3.98409 -3.03493,-9.07612 -4.18643,-12.30446c0.33771,-0.66924 3.31758,-3.90073 4.08196,-5.26384c0.8436,-0.12937 3.49582,-1.8574 5.99779,-2.54651c2.6063,-0.71785 4.58168,-0.60551 7.41855,-0.70534c6.76077,-0.23791 16.23925,-0.00124 22.09277,-0.00124c6.53791,0 18.3667,-0.42877 26.08862,-0.1798c5.45191,0.17578 7.76055,0.63839 7.76055,0.63839c0.86962,0.60266 2.39767,1.43803 3.48551,1.61591c0.53296,0.36334 1.11657,0.65789 1.73805,0.87089c0.86764,1.2608 2.12147,2.23522 3.59075,2.75252c0.30513,0.49566 0.66788,0.95206 1.07891,1.35987c0.34515,0.98806 0.89686,1.87919 1.60337,2.62165c0.117,0.33569 0.25784,0.6602 0.42048,0.97152c-1.31449,1.66683 -3.33672,3.27518 -6.40482,4.56993z" fill="#ffff94" fill-rule="nonzero" stroke="none" stroke-width="0" stroke-linecap="butt" stroke-linejoin="miter"/><path d="M233.30392,152.76146c0,0 6.47815,19.04953 0.82506,19.34192c-5.7389,0.29684 -0.82506,-19.34192 -0.82506,-19.34192z" fill="#ffff94" fill-rule="nonzero" stroke="none" stroke-width="0" stroke-linecap="butt" stroke-linejoin="miter"/><path d="M250.19979,175.48803c0,0 -6.46264,-3.98442 -6.06614,-10.95027c0.34262,-6.01924 2.06458,-13.45753 3.5806,-19.03993c0.11797,0.1446 0.24138,0.28459 0.36991,0.41966c0.29857,0.85662 0.75235,1.6405 1.32767,2.31794c0.14332,0.75783 0.40384,1.47423 0.76201,2.12962z" fill="#ffff94" fill-rule="nonzero" stroke="none" stroke-width="0" stroke-linecap="butt" stroke-linejoin="miter"/><path d="M250.9885,212.76473c-11.82423,-0.0085 -72.5754,0.15456 -90.64355,0.24679v-58.33645c0,-10.10407 8.36349,-18.23841 18.75217,-18.23841h53.13923c10.38868,0 18.75214,8.13434 18.75214,18.23841z" fill="url(#color-3)" fill-rule="nonzero" stroke="none" stroke-width="4.43922" stroke-linecap="butt" stroke-linejoin="miter"/><path d="M250.4885,206.35645c0,10.10407 -8.36346,18.23841 -18.75214,18.23841h-53.13923c-10.38868,0 -18.75217,-8.13434 -18.75217,-18.23841v-58.33645c18.06815,0.09223 78.81932,0.25529 90.64355,0.24679z" fill="url(#color-4)" fill-rule="nonzero" stroke="none" stroke-width="4.43922" stroke-linecap="butt" stroke-linejoin="miter"/><text transform="translate(370.25004,193.52665) scale(0.84943,1.02638)" font-size="40" xml:space="preserve" fill="url(#color-5)" fill-rule="nonzero" stroke="none" stroke-width="1" stroke-linecap="butt" stroke-linejoin="miter" font-family="&quot;Allan-Bold&quot;, Sans Serif" font-weight="normal" text-anchor="middle"><tspan x="0" dy="0">Lank the LONG way</tspan></text><path d="M178.43046,136.35118h53.13923c10.38871,0 18.75214,8.13434 18.75214,18.23841v51.68346c0,10.10407 -8.36346,18.23841 -18.75214,18.23841h-53.13923c-10.38868,0 -18.75217,-8.13434 -18.75217,-18.23841v-51.68346c0,-10.10407 8.36349,-18.23841 18.75217,-18.23841z" fill="none" fill-rule="evenodd" stroke="url(#color-6)" stroke-width="2.5" stroke-linecap="round" stroke-linejoin="round"/><path d="" fill="#fcff63" fill-rule="nonzero" stroke="none" stroke-width="0" stroke-linecap="butt" stroke-linejoin="miter"/><g fill="#fcff63" fill-rule="nonzero" stroke="none" stroke-width="0" stroke-linecap="butt" stroke-linejoin="miter"><g><path d="M170.83336,213.81333v-53.072h28.17932v4.62838l3.65288,-2.93131l2.69535,3.04279l2.33956,-3.28129l3.48847,3.16981v-4.62838h27.83142v53.072zM204.92682,166.91252c-16.23548,0 -29.39693,9.67024 -29.39693,21.59907c0,11.92883 13.16144,21.59907 29.39695,21.59907c16.23548,0 29.39693,-9.67024 29.39693,-21.59907c0,-11.92883 -13.16144,-21.59907 -29.39693,-21.59907z"/><path d="M231.87903,188.27741c0,10.86528 -12.17712,19.67333 -26.68336,19.67333c-14.50626,0 -26.89211,-8.80805 -26.89211,-19.67331c0,-10.86528 12.38585,-19.67333 26.89211,-19.67333c14.50626,0 26.68338,8.80805 26.68338,19.67333zM209.65679,188.68941c-6.52717,-1.22575 -14.72538,1.30254 -15.52729,7.49773c-0.01005,8.08794 17.77387,11.9479 21.91803,2.61688c2.0594,-4.63689 -1.01109,-9.10433 -6.39075,-10.11461zM224.0036,184.53888c0,-2.8118 -2.56998,-5.09121 -5.74023,-5.09121c-3.17025,0 -5.74023,2.27942 -5.74023,5.09121c0,1.33879 2.60261,2.04012 5.32948,2.10404c-0.3385,1.76297 -0.37136,4.13369 1.70594,3.01957c1.14562,-0.61443 0.91334,-1.95163 0.56522,-3.11645c2.13183,-0.24094 3.87982,-0.90998 3.87982,-2.00716zM199.08579,184.65459c0,-2.8118 -2.56998,-5.09121 -5.74023,-5.09121c-3.17025,0 -5.74023,2.27942 -5.74023,5.09121c0,2.8118 11.48046,2.8118 11.48046,0zM187.38354,198.49342c2.16153,0 3.91378,-1.55413 3.91378,-3.47129c0,-1.91713 -1.75225,-3.47129 -3.91378,-3.47129c-2.16153,0 -3.91378,1.55413 -3.91378,3.47129c0,1.91713 1.75225,3.47129 3.91378,3.47129zM223.28607,198.67856c2.16153,0 3.91378,-1.55413 3.91378,-3.47129c0,-1.91713 -1.75225,-3.47129 -3.91378,-3.47129c-2.16153,0 -3.91378,1.55413 -3.91378,3.47129c0,1.91713 1.75225,3.47129 3.91378,3.47129zM192.95418,173.89364l0.13169,0.19315c-1.46222,1.94888 -2.44651,2.21729 -4.91284,2.84203c0,0 -0.75263,0.19073 -0.5376,0.85827c0.21503,0.66756 0.96768,0.47683 0.96768,0.47683c2.78929,-0.70715 4.11857,-1.19804 5.78487,-3.40628l0.13169,-0.96395c0,0 0,-0.69426 -0.78275,-0.69426c-0.78275,0 -0.78275,0.69426 -0.78275,0.69426zM223.48177,176.09211l-0.25915,0.00943c-1.83744,0.27776 -2.88612,-0.66262 -3.58748,-2.13427c0,0 -0.30834,-0.63813 -1.0278,-0.36464c-0.71948,0.27348 -0.41112,0.91161 -0.41112,0.91161c1.00446,2.05481 2.69905,3.33171 5.28378,2.95693l0.00177,0.00943c0,0 0.78275,0 0.78275,-0.69426c0,-0.69426 -0.78275,-0.69426 -0.78275,-0.69426z"/><path d="M200.05633,163.05552v-2.46845h10.08889v2.46845l-2.62122,-1.66332l-2.33626,2.74327l-2.43756,-2.61408z"/><path d="M215.03152,196.49001c0,3.69485 -4.15303,5.84858 -9.39311,5.84858c-5.24008,0 -9.58287,-2.15373 -9.58287,-5.84858c0,-3.69485 4.24792,-6.69009 9.48798,-6.69009c2.29185,0 4.58368,0.48883 6.22355,1.4427c2.10951,1.22706 3.26443,3.16858 3.26443,5.2474zM206.49234,190.95699c-3.42185,0 -9.36269,2.78647 -2.7014,3.73363c0.24515,0.03486 0.49296,0.05426 0.74113,0.05985c-0.43169,1.47787 -0.83647,2.95797 -0.8614,4.47341c-0.53841,-0.047 -1.08698,-0.12087 -1.64788,-0.21783c-2.21285,-0.9913 -3.91238,-2.85454 -3.90358,-5.16685c0,0 0,-0.23143 -0.26092,-0.23143c-0.26092,0 -0.26092,0.23143 -0.26092,0.23143c0.00824,2.51291 1.8287,4.53824 4.25606,5.60463c3.31237,0.60091 6.25574,0.37933 9.1458,-1.28727l0.16403,-0.07107c0,0 0.23339,-0.10349 0.11669,-0.31049c-0.11669,-0.207 -0.35006,-0.10349 -0.35006,-0.10349l-0.21549,0.09723c-2.11009,1.22151 -4.22815,1.61816 -6.52317,1.49224c-0.00392,-1.52213 0.43371,-3.02779 0.87869,-4.5194c3.76776,-0.2055 7.2191,-3.33338 2.05763,-3.52294c-0.2268,-0.26165 -0.63523,-0.26165 -0.63523,-0.26165zM205.08152,200.77261l-0.24392,0.07526c-1.08592,-0.01337 -2.09008,-0.31205 -3.08924,-0.33959c0,0 -0.26092,0 -0.26092,0.23143c0,0.23143 0.26092,0.23143 0.26092,0.23143c0.93635,-0.04447 2.11595,0.3433 3.17283,0.33362l0.32536,-0.09304c0,0 0.24753,-0.07318 0.16501,-0.29274c-0.0825,-0.21954 -0.33004,-0.14636 -0.33004,-0.14636z"/><path d="M174.80248,158.70565l11.88015,-18.26397l10.74869,18.26397h-5.31776l-5.20463,-11.54043l-5.8835,11.54043z"/><path d="M227.73712,158.70565l-5.8835,-11.54043l-5.20463,11.54043h-5.31776l10.74869,-18.26397l11.88015,18.26397z"/></g><path d="M197.76544,183.15405c-0.23887,0.49066 -1.03058,0.38058 -2.03918,-0.11044c-1.00861,-0.49104 -1.63259,-1.28685 -1.39372,-1.77753c0.23887,-0.49066 0.811,-0.70997 1.81961,-0.21893c1.00861,0.49104 1.85217,1.61624 1.6133,2.1069z"/><path d="M223.01773,183.15405c-0.23887,0.49067 -1.03059,0.38058 -2.03918,-0.11045c-1.0086,-0.49103 -1.63258,-1.28685 -1.39371,-1.77752c0.23887,-0.49067 0.811,-0.70997 1.8196,-0.21894c1.0086,0.49103 1.85217,1.61624 1.6133,2.10691z"/></g></g></g></svg>