<svg version="1.1" xmlns="http://www.w3.org/2000/svg" xmlns:xlink="http://www.w3.org/1999/xlink" width="118.40559" height="107.05763" viewBox="0,0,118.40559,107.05763"><g transform="translate(-179.81109,-122.39908)"><g data-paper-data="{&quot;isPaintingLayer&quot;:true}" fill-rule="nonzero" stroke-linejoin="miter" stroke-miterlimit="10" stroke-dasharray="" stroke-dashoffset="0" style="mix-blend-mode: normal"><g stroke-linecap="butt"><path d="M287.66851,203.41291c6.02516,4.40917 -3.51695,15.63046 -11.64444,17.99838c-12.96494,3.77731 -21.90435,-3.691 -21.90435,-3.691l5.59286,-4.92209c0,0 6.23932,3.42885 11.60262,0.66184c6.61476,-3.41266 8.98465,-15.43945 16.3533,-10.04713z" fill="#ecec68" stroke="#000000" stroke-width="2"/><path d="M276.28999,208.11551l3.91655,-5.03003l8.7779,6.83478l-3.91655,5.03003z" fill="#000000" stroke="none" stroke-width="0"/><path d="M271.3227,213.69195l4.22393,-3.46327l4.88599,8.84762l-5.30717,2.55409z" fill="#000000" stroke="none" stroke-width="0"/><path d="M263.49739,214.16928l5.63821,0.10825l-0.8333,8.57433l-6.48327,-1.16371z" fill="#000000" stroke="none" stroke-width="0"/></g><g data-paper-data="{&quot;index&quot;:null}" stroke-linecap="butt"><path d="M261.77779,205.96797c4.45038,1.76192 6.23281,5.33523 5.14855,8.07393c-1.08425,2.7387 -6.18111,3.82127 -10.63149,2.05936c-4.45038,-1.76192 -6.56902,-5.70112 -5.48477,-8.43981c1.08426,-2.7387 6.51732,-3.45538 10.96772,-1.69346z" fill="#ecec68" stroke="#000000" stroke-width="2"/><path d="M260.79794,216.80133l3.86789,-8.69772c0,0 3.85224,1.97415 2.61628,5.85159c-1.06171,3.33085 -6.48417,2.84613 -6.48417,2.84613z" fill="#000000" stroke="none" stroke-width="0"/><path d="M253.85109,214.74939l4.76678,-9.99611l3.26697,1.27211l-4.35442,10.22455z" fill="#000000" stroke="none" stroke-width="0"/></g><g stroke-linecap="butt"><path d="M229.63516,207.96722c1.53055,2.51664 0.10654,6.7567 -3.98299,9.24385c-4.08953,2.48717 -9.29595,2.2796 -10.8265,-0.23704c-1.53055,-2.51664 -0.37624,-6.33935 3.71329,-8.82651c4.08953,-2.48717 9.56564,-2.69694 11.09621,-0.1803z" fill="#ecec68" stroke="#000000" stroke-width="2"/><path d="M214.46037,216.94857c-1.87213,-3.6135 1.59204,-6.20897 1.59204,-6.20897l5.27921,7.92091c0,0 -5.26305,1.39218 -6.87125,-1.71194z" fill="#000000" stroke="none" stroke-width="0"/><path d="M224.45936,217.56599l-6.01626,-9.34383l3.00567,-1.8048l6.38419,9.04912z" fill="#000000" stroke="none" stroke-width="0"/></g><path d="M240.91497,226.18342c0,0.7405 -3.6377,1.8081 -9.04974,1.77241c-5.91985,-0.03904 -8.28349,-1.2374 -8.59956,-1.91835c-1.38426,-2.98226 0.39895,-5.24797 8.5651,-5.10799c4.02776,0.06904 7.27771,0.47006 8.5305,1.30635c1.39536,0.93146 0.5537,2.37617 0.5537,3.94758z" fill="#c5c556" stroke="#9b9b44" stroke-width="3" stroke-linecap="butt"/><path d="M241.52662,218.31238c-6.66048,0.36609 -14.63875,0.78843 -14.84887,-0.21478c-0.78958,-3.76983 4.83937,-17.55121 4.83937,-17.55121l17.30713,-1.18025c0,0 6.13726,14.93286 6.4641,16.8061c0.32684,1.87324 -6.54107,1.74324 -13.76173,2.14013z" fill="#000000" stroke="#6e6e30" stroke-width="3" stroke-linecap="butt"/><g stroke="none" stroke-width="0" stroke-linecap="butt"><path d="M240.45854,207.55223c-46.38308,1.43894 -58.58784,-27.00152 -58.58784,-27.00152c0,0 6.82234,-1.84964 11.54196,-9.29605c10.43989,-16.47164 15.35418,-45.0431 42.82926,-46.10824c28.69657,-1.11248 35.00586,24.90722 47.0942,41.56232c4.86176,6.66056 12.9944,10.73683 12.9944,10.73683c0,0 -8.65634,28.64189 -55.87199,30.10666z" fill="#ecec68"/><path d="M295.28987,176.22915c0,0 -2.51851,11.88601 -13.68382,19.61649c-11.58119,8.01842 -30.95799,9.70319 -30.95799,9.70319c0,0 17.53276,-12.35042 15.30259,-44.19469c-1.27515,-18.20761 -16.92723,-35.46168 -16.92723,-35.46168c0,0 11.18978,4.82169 19.20967,14.93384c6.40967,8.08186 9.38273,18.44409 13.45198,22.9676c1.98553,2.20718 3.27029,5.22762 5.5234,7.2543c3.70639,3.3339 8.08141,5.18096 8.08141,5.18096z" fill="#cbcb6a"/></g><path d="M198.85505,184.01295c-0.10106,-3.06659 2.30297,-5.63446 5.36956,-5.73552c3.06659,-0.10106 5.63447,2.30295 5.73553,5.36953c0.10106,3.06659 -2.30296,5.63448 -5.36955,5.73553c-3.06659,0.10106 -5.63448,-2.30297 -5.73553,-5.36955z" fill="#6e6e30" stroke="none" stroke-width="0" stroke-linecap="butt"/><path d="M267.93231,181.84759c-0.10106,-3.06659 2.30297,-5.63446 5.36956,-5.73552c3.06658,-0.10106 5.63447,2.30295 5.73553,5.36953c0.10106,3.06659 -2.30296,5.63448 -5.36955,5.73554c-3.06658,0.10106 -5.63447,-2.30297 -5.73553,-5.36955z" fill="#6e6e30" stroke="none" stroke-width="0" stroke-linecap="butt"/><g stroke="none" stroke-width="0" stroke-linecap="butt"><path d="M210.98993,138.15185l-8.06264,15.94089c0,0 -1.5676,-0.39127 -4.31756,-0.84311c-3.73751,-0.61411 -9.24963,-1.77746 -12.17615,-6.28414c-5.32911,-8.20648 -1.62607,-14.58679 0.75888,-17.33498c2.49805,-2.87852 8.4297,-6.02823 14.80157,-3.85573c5.07266,1.72954 6.79254,5.78008 7.75785,8.7349c0.70416,2.15543 1.23806,3.64218 1.23806,3.64218z" fill="#000000"/><path d="M193.06831,140.82696c-0.12582,-3.8179 2.86719,-7.01492 6.68509,-7.14074c3.8179,-0.12582 7.01492,2.8672 7.14074,6.6851c0.12582,3.8179 -2.86719,7.01492 -6.68509,7.14074c-3.8179,0.12582 -7.01492,-2.86719 -7.14074,-6.68509z" fill="#cbcb6a"/></g><path d="M240.45853,207.55224c-46.38308,1.43894 -58.58784,-27.00152 -58.58784,-27.00152c0,0 6.82234,-1.84964 11.54196,-9.29605c10.43989,-16.47164 15.35418,-45.0431 42.82927,-46.10824c28.69657,-1.11248 34.23917,25.0025 46.42789,41.58428c6.4944,8.83512 13.66071,10.71487 13.66071,10.71487c0,0 -8.65634,28.64189 -55.87199,30.10666z" fill="none" stroke="#000000" stroke-width="3" stroke-linecap="butt"/><g data-paper-data="{&quot;index&quot;:null}" stroke="none" stroke-width="0" stroke-linecap="butt"><path d="M264.83426,136.37733c0,0 0.43485,-1.51866 0.99557,-3.71579c0.76867,-3.01197 2.21812,-7.16695 7.16589,-9.22673c6.21501,-2.58733 12.34116,0.16501 15.02331,2.8728c2.56072,2.5852 6.67582,8.70786 1.8986,17.24741c-2.62345,4.68958 -8.04701,6.21334 -11.73598,7.0722c-2.71423,0.63193 -4.25268,1.12556 -4.25268,1.12556l-9.0947,-15.37545z" fill="#000000"/><path d="M276.20803,145.00738c-3.8179,0.12582 -7.01491,-2.86719 -7.14074,-6.68509c-0.12583,-3.8179 2.86719,-7.01492 6.68509,-7.14074c3.8179,-0.12582 7.01491,2.86719 7.14074,6.68509c0.12583,3.8179 -2.86719,7.01492 -6.68509,7.14074z" fill="#cbcb6a"/></g><path d="M230.03975,125.28338l13.12611,-0.18246c0,0 0.03187,9.11793 -1.57109,17.13459c-1.21033,6.0531 -3.11623,11.4103 -3.11623,11.4103c0,0 -3.01865,-4.49086 -4.90043,-11.11911c-1.4202,-5.0024 -3.53836,-17.24332 -3.53836,-17.24332z" fill="#000000" stroke="none" stroke-width="0" stroke-linecap="butt"/><path d="M223.80666,144.87432c0,0 3.87728,-7.76002 13.73713,-8.20693c10.11037,-0.45827 13.74795,7.30112 13.74795,7.30112z" fill="#000000" stroke="none" stroke-width="0" stroke-linecap="butt"/><path d="M221.24086,135.32865c0,0 4.28653,-8.27377 15.76046,-8.77389c11.76547,-0.51282 16.22217,7.71986 16.22217,7.71986z" fill="#000000" stroke="none" stroke-width="0" stroke-linecap="butt"/><g fill="#000000" stroke="none" stroke-width="0" stroke-linecap="butt"><path d="M189.27961,190.16115c0,0 -5.81237,-6.12354 -6.04493,-8.43796c-0.19503,-1.94087 4.7422,-4.52617 4.7422,-4.52617c0,0 3.8023,2.73528 9.3783,4.60844c4.67971,1.57208 9.34224,1.77839 9.34224,1.77839c0,0 -1.91859,3.11062 -7.00938,4.63568c-7.44924,2.23158 -10.40842,1.94161 -10.40842,1.94161z"/><path d="M191.00198,191.94155c0,0 8.6256,1.34841 13.82605,0.72427c4.36454,-0.5238 8.19339,-2.13949 8.19339,-2.13949c0,0 0.4258,3.1078 -3.22504,6.88595c-2.06206,2.13397 -4.19639,3.45977 -5.46006,4.27767c-0.82029,-0.39685 -2.40467,-1.10379 -3.16481,-1.43308c-0.63885,-0.27675 -1.60977,-1.20206 -2.74412,-2.3121c-0.96834,-1.53597 -2.3418,-2.78646 -3.96518,-3.6062c-0.0283,-0.01429 -0.05666,-0.02844 -0.0851,-0.04246c0.57008,-0.986 -3.37513,-2.35458 -3.37513,-2.35458z"/><path d="M214.14713,201.06554c3.92783,-2.65847 6.02072,-5.71735 6.02072,-5.71735c0,0 1.50186,2.88704 0.34315,7.47509c-0.42121,1.66783 -0.83487,3.05277 -1.2187,4.19244c-2.22395,-1.09915 -4.57831,-1.72508 -7.24711,-2.70858c-0.22352,-0.08237 -2.63264,-1.19037 -2.8966,-1.22589c1.01157,-0.68276 3.25398,-0.83493 4.99854,-2.0157z"/></g><g data-paper-data="{&quot;index&quot;:null}" fill="#000000" stroke="none" stroke-width="0" stroke-linecap="butt"><path d="M278.91725,185.35829c-5.18016,-1.18657 -7.29939,-4.16411 -7.29939,-4.16411c0,0 4.63883,-0.51286 9.20488,-2.38963c5.44055,-2.23623 9.05451,-5.21592 9.05451,-5.21592c0,0 5.09676,2.25462 5.02993,4.20412c-0.07968,2.32471 -5.47625,8.81766 -5.47625,8.81766c0,0 -2.93366,0.48418 -10.51368,-1.25209z"/><path d="M287.12774,191.36448c-0.02745,0.01586 -0.78796,0.55628 -0.81525,0.5724c-1.56589,0.92485 -4.63191,1.44617 -5.49702,3.04257c-0.1822,0.20346 1.9259,1.45144 1.75332,1.64092c-0.83022,0.91165 -3.82659,0.58339 -4.33926,0.84684c-0.73681,0.37863 -2.2712,1.18834 -3.06359,1.63834c-1.31478,-0.73293 -3.53179,-1.91532 -5.72987,-3.90889c-3.89167,-3.52958 -3.67143,-6.65867 -3.67143,-6.65867c0,0 3.92691,1.3601 8.31647,1.59538c5.23026,0.28036 14.61467,-1.91171 14.61467,-1.91171c0,0 -2.20182,2.19649 -1.56806,3.14283z"/><path d="M270.45574,200.81062c-0.26105,0.05283 -2.592,1.31704 -2.8096,1.41395c-2.59825,1.15708 -4.90629,1.93666 -7.05304,3.17985c-0.45806,-1.11193 -0.96199,-2.46663 -1.49209,-4.1031c-1.45828,-4.50179 -0.14977,-7.48145 -0.14977,-7.48145c0,0 2.28974,2.91445 6.3841,5.30853c1.81852,1.06335 4.06608,1.06754 5.12042,1.68221z"/></g><g fill="#000000" stroke="none" stroke-width="0" stroke-linecap="butt"><path d="M222.334,168.49813c0.28311,8.59026 -3.40277,15.6831 -8.23264,15.84227c-4.82987,0.15917 -8.97475,-6.67558 -9.25786,-15.26584c-0.28311,-8.59026 3.40278,-15.6831 8.23265,-15.84226c4.82987,-0.15917 8.97475,6.67557 9.25785,15.26583z"/><path d="M212.40855,175.47885c0.04184,1.26956 -4.23508,2.0406 -4.23508,2.0406c0,0 -1.17926,-0.42948 -2.72308,-0.98779c-2.01081,-0.72719 -4.50316,-1.74712 -4.41475,-3.07931c0.10311,-1.55352 2.58491,-1.43712 4.50594,-1.30502c1.43091,0.09841 2.45731,0.07499 2.45731,0.07499c0,0 4.36782,1.98695 4.40966,3.25652z"/></g><g data-paper-data="{&quot;index&quot;:null}" fill="#000000" stroke="none" stroke-width="0" stroke-linecap="butt"><path d="M263.00708,151.98696c4.82986,-0.15917 8.97475,6.67558 9.25786,15.26584c0.2831,8.59026 -3.40277,15.6831 -8.23264,15.84226c-4.82986,0.15917 -8.97475,-6.67558 -9.25786,-15.26584c-0.28311,-8.59026 3.40277,-15.6831 8.23265,-15.84226z"/><path d="M269.32366,170.6015c0,0 1.02571,-0.04421 2.44705,-0.23662c1.90816,-0.25831 4.37692,-0.53785 4.58209,1.00551c0.17593,1.32348 -2.24385,2.50529 -4.20242,3.3633c-1.50371,0.65875 -2.65215,1.16494 -2.65215,1.16494c0,0 -4.31842,-0.48777 -4.36025,-1.75733c-0.04185,-1.26956 4.18568,-3.53979 4.18568,-3.53979z"/></g><path d="M214.88718,164.9666c0.11175,3.39076 -1.33185,6.19009 -3.22438,6.25246c-1.89252,0.06237 -3.5173,-2.63583 -3.62904,-6.0266c-0.11175,-3.39076 1.33184,-6.19008 3.22437,-6.25245c1.89252,-0.06237 3.5173,2.63583 3.62905,6.02659z" fill="#ffffff" stroke="none" stroke-width="0" stroke-linecap="butt"/><path d="M264.2795,163.05294c0.11174,3.39076 -1.33184,6.19009 -3.22438,6.25245c-1.89252,0.06237 -3.5173,-2.63584 -3.62904,-6.0266c-0.11174,-3.39076 1.33185,-6.19008 3.22438,-6.25244c1.89252,-0.06237 3.51729,2.63583 3.62904,6.02659z" fill="#ffffff" stroke="none" stroke-width="0" stroke-linecap="butt"/><path d="M226.74172,173.36641c-0.217,-6.5844 4.94479,-12.09801 11.52919,-12.31501c6.5844,-0.217 12.09801,4.94479 12.31501,11.52918c0.217,6.5844 -4.94479,12.09801 -11.52919,12.31501c-6.5844,0.217 -12.09801,-4.94479 -12.31501,-11.52919z" fill="#6e6e30" stroke="none" stroke-width="0" stroke-linecap="butt"/><path d="M213.83478,176.4043c-0.03436,-1.04265 0.78301,-1.91571 1.82564,-1.95007c1.04265,-0.03436 1.91572,0.78301 1.95009,1.82564c0.03436,1.04265 -0.78301,1.91572 -1.82564,1.95009c-1.04265,0.03436 -1.91572,-0.78302 -1.95009,-1.82565z" fill="#6e6e30" stroke="none" stroke-width="0" stroke-linecap="butt"/><path d="M263.93333,175.19791c-0.03436,-1.04265 0.78301,-1.91571 1.82564,-1.95007c1.04265,-0.03436 1.91571,0.783 1.95009,1.82563c0.03436,1.04265 -0.78301,1.91572 -1.82564,1.95009c-1.04265,0.03436 -1.91571,-0.78301 -1.95009,-1.82564z" fill="#6e6e30" stroke="none" stroke-width="0" stroke-linecap="butt"/><path d="M238.8847,186.72368c-6.78426,0.23776 -6.80039,-7.92316 -6.80039,-7.92316c0,0 3.18364,0.19789 4.01116,-0.21019c1.00236,-0.4943 2.86112,-2.69631 2.86112,-2.69631c0,0 2.15237,2.08362 3.06762,2.47583c0.75879,0.32516 3.33507,-0.11402 3.33507,-0.11402c0,0 0.84741,8.64074 -6.47458,8.46786z" fill="#c5c556" stroke="#000000" stroke-width="1.5" stroke-linecap="butt"/><path d="M248.12888,175.91332c0,0 -1.39466,3.4879 -5.6803,2.68482c-3.03922,-0.5695 -3.44234,-3.63777 -3.44234,-3.63777c0,0 -0.58085,3.59049 -3.48382,4.01141c-4.14925,0.60163 -6.21114,-2.27154 -6.21114,-2.27154" fill="none" stroke="#000000" stroke-width="2" stroke-linecap="round"/><g stroke="none" stroke-width="0" stroke-linecap="butt"><path d="M245.63169,168.44986c0.07504,2.27695 -3.53253,7.14287 -6.81138,7.10322c-3.27789,-0.03963 -7.35584,-4.35689 -7.43088,-6.63385c-0.07504,-2.27695 2.86063,-4.72178 6.88551,-4.85443c4.02488,-0.13264 7.28172,2.10811 7.35676,4.38505z" fill="#000000"/><path d="M242.93902,167.70482c0.03107,0.94297 -1.97599,1.77439 -4.48292,1.85701c-2.50694,0.08263 -4.56441,-0.61485 -4.59548,-1.55782c-0.03107,-0.94297 1.22793,-1.72476 4.64677,-1.94577c3.3356,-0.21564 4.40057,0.70362 4.43164,1.64659z" fill="#ffffff"/></g><path d="M239.18598,182.85451l-0.1941,-5.88965" fill="none" stroke="#000000" stroke-width="1" stroke-linecap="round"/><path d="M252.97214,211.24017c3.31706,1.24244 4.72101,5.68044 3.13582,9.91255c-1.58518,4.2321 -5.55923,6.65571 -8.87629,5.41326c-3.31706,-1.24244 -4.72101,-5.68044 -3.13582,-9.91255c1.58518,-4.2321 5.55923,-6.65571 8.87629,-5.41326z" data-paper-data="{&quot;index&quot;:null}" fill="#c5c556" stroke="#9b9b44" stroke-width="3" stroke-linecap="butt"/></g></g></svg>