<svg version="1.1" xmlns="http://www.w3.org/2000/svg" xmlns:xlink="http://www.w3.org/1999/xlink" width="36.79812" height="36.7981" viewBox="0,0,36.79812,36.7981"><g transform="translate(-302.91346,-162.9135)"><g stroke-miterlimit="10"><path d="M311.51759,163.9135h20.83988c4.07419,0 7.35411,3.303 7.35411,7.40583v20.98644c0,4.10283 -3.27992,7.40583 -7.35411,7.40583h-20.83988c-4.07418,0 -7.35411,-3.303 -7.35411,-7.40583v-20.98644c0,-4.10283 3.27993,-7.40583 7.35411,-7.40583z" fill-opacity="0.39216" fill="#000000" fill-rule="evenodd" stroke="none" stroke-width="0" stroke-linecap="round" stroke-linejoin="round"/><path d="M309.98312,162.9135h20.03379c3.9166,0 7.06966,3.15307 7.06966,7.06966v20.03379c0,3.91659 -3.15306,7.06966 -7.06966,7.06966h-20.03379c-3.91659,0 -7.06966,-3.15307 -7.06966,-7.06966v-20.03379c0,-3.91659 3.15307,-7.06966 7.06966,-7.06966z" fill="#a0a300" fill-rule="evenodd" stroke="none" stroke-width="0" stroke-linecap="round" stroke-linejoin="round"/><g fill-rule="nonzero" stroke-width="0.65" stroke-linejoin="miter"><path d="M309.97603,176.34454c0,-5.56808 4.51381,-10.08189 10.08189,-10.08189c5.56808,0 10.08189,4.51381 10.08189,10.08189c0,5.56808 -4.51381,10.08189 -10.08189,10.08189c-5.56808,0 -10.08189,-4.51381 -10.08189,-10.08189z" fill="#e3e361" stroke="none" stroke-linecap="butt"/><path d="M326.79314,178.94497c0,0 1.44737,2.23958 -0.49496,3.80736c-1.86036,1.50163 -6.09178,0.64725 -6.09178,0.64725" fill="none" stroke="#000000" stroke-linecap="round"/><path d="M325.97457,179.64934l1.23739,-1.23739" fill="none" stroke="#000000" stroke-linecap="round"/><path d="M320.18334,181.08735c0,0 -4.98939,1.77808 -8.35359,1.6078c-3.76722,-0.19068 -4.92852,-2.53558 -4.96161,-3.60843c-0.02874,-0.93192 -0.09872,-4.38328 2.23138,-5.82679c2.37261,-1.46985 6.14331,-1.63082 8.07752,-2.03737c1.0027,-0.21075 1.12208,-0.98865 1.12208,-0.98865" fill="#e3e361" stroke="#000000" stroke-linecap="round"/><path d="M323.15157,168.55555c0.25941,0 0.46969,0.44687 0.46969,0.99811c0,0.55124 -0.21029,0.99811 -0.46969,0.99811c-0.25941,0 -0.46969,-0.44687 -0.46969,-0.99811c0,-0.55124 0.21029,-0.99811 0.46969,-0.99811z" fill="#000000" stroke="none" stroke-linecap="butt"/><path d="M315.65459,168.48891c0.25941,0 0.46969,0.44687 0.46969,0.99811c0,0.55124 -0.21029,0.99811 -0.46969,0.99811c-0.25941,0 -0.46969,-0.44687 -0.46969,-0.99811c0,-0.55124 0.21029,-0.99811 0.46969,-0.99811z" fill="#000000" stroke="none" stroke-linecap="butt"/><g fill="#e3e361" stroke="none" stroke-linecap="butt"><path d="M317.92837,193.65611v-8.8351h1.95925v8.8351z"/><path d="M311.79186,193.73005c0,0 -1.27521,-1.42863 0,-2.88343c1.69454,-1.93317 8.09576,0 8.09576,0v2.88343z"/></g><g fill="#e3e361" stroke="none" stroke-linecap="butt"><path d="M320.4002,193.62645v-8.8351h1.95924v8.8351z"/><path d="M320.43717,193.73736v-2.88343c0,0 6.40122,-1.93317 8.09576,0c1.27521,1.45479 0,2.88343 0,2.88343z"/></g></g></g></g></svg>