<svg version="1.1" xmlns="http://www.w3.org/2000/svg" xmlns:xlink="http://www.w3.org/1999/xlink" width="288.92341" height="248.19595" viewBox="0,0,288.92341,248.19595"><defs><linearGradient x1="192.6971" y1="208.08962" x2="458.13865" y2="208.08962" gradientUnits="userSpaceOnUse" id="color-1"><stop offset="0" stop-color="#8a833c"/><stop offset="1" stop-color="#81782d"/></linearGradient><linearGradient x1="294.19756" y1="210.83354" x2="332.0105" y2="216.59934" gradientUnits="userSpaceOnUse" id="color-2"><stop offset="0" stop-color="#7f772e"/><stop offset="1" stop-color="#8b843d"/></linearGradient><linearGradient x1="256.00782" y1="269.64682" x2="304.47278" y2="269.64682" gradientUnits="userSpaceOnUse" id="color-3"><stop offset="0" stop-color="#7f772e"/><stop offset="1" stop-color="#8b843d"/></linearGradient><linearGradient x1="250.21571" y1="241.29982" x2="312.65821" y2="241.29982" gradientUnits="userSpaceOnUse" id="color-4"><stop offset="0" stop-color="#7f772e"/><stop offset="1" stop-color="#8b843d"/></linearGradient><radialGradient cx="296.63696" cy="252.27482" r="32.71582" gradientUnits="userSpaceOnUse" id="color-5"><stop offset="0" stop-color="#8b843d"/><stop offset="1" stop-color="#7f772e"/></radialGradient></defs><g transform="translate(-169.95233,-49.81151)"><g stroke-miterlimit="10"><path d="M246.91667,248.08334v-110.66667h154v110.66667z" fill-opacity="0.01" fill="#000000" stroke="none" stroke-width="0" stroke-linecap="butt"/><g stroke="#000000" stroke-width="1.5" stroke-linecap="round"><path d="M384.24338,126.0908c0,0 3.4194,2.18897 5.86939,1.1403c0.60467,-0.2588 6.26551,-5.87533 6.97744,-6.17312c1.63365,-0.68332 -1.56137,6.66061 0.38078,6.12056c1.02227,-0.28426 1.45247,0.73844 2.61268,0.42436c1.1721,-0.31731 -4.25185,5.01666 -2.95126,4.69447c0.36788,-0.09114 4.75424,0.7068 6.92635,2.62503c2.47532,2.18601 2.77197,5.52827 3.23881,5.40902c1.673,-0.42735 2.70402,-3.03517 4.4161,-3.72673c0.81547,-0.32939 5.30415,1.9988 6.13118,1.66024c1.12147,-0.45907 1.88619,-2.60003 2.9468,-3.10002c3.44928,-1.62605 3.29834,3.92193 6.80978,3.82531c1.00745,-0.02772 0.83909,-3.0359 1.59875,-2.97995c1.26286,0.09302 -0.12513,5.26242 1.94031,4.49653c9.55529,-3.54316 6.24258,1.38615 7.77394,2.39952c1.24322,0.82272 6.05439,-1.61801 7.0341,0.16331c0.73917,1.34394 3.02871,9.17198 3.03146,14.02077c0.00132,2.32949 1.57941,5.25344 1.42413,8.02808c-0.12128,2.16693 0.36827,4.44307 0.14924,6.79223c-0.3683,3.95013 -6.49075,7.79402 -5.78278,11.96452c0.68185,4.01659 -1.15117,8.31118 -0.37847,11.5924c1.35955,5.77313 3.28782,9.61916 4.35405,13.32813c1.10882,3.85715 -5.74758,16.26809 -4.49344,18.79388c4.64311,9.35101 3.38062,16.51641 6.35915,23.8321c0.69948,1.71803 6.98701,3.1294 7.51387,4.93965c0.42064,1.44525 -9.56843,3.88637 -15.20319,3.69463c-5.15706,-0.17548 -3.08006,-6.32265 -7.80563,-5.13474c-5.58967,1.40514 -9.8896,12.09455 -9.51028,13.3971c2.01831,6.93075 1.00071,12.99446 2.10665,16.17422c1.46844,4.22202 7.14055,6.24732 10.89234,7.14365c2.01312,0.48095 6.39149,1.44317 4.34044,1.72096c-5.32646,0.72138 -19.85341,1.34951 -26.74704,1.22827c-2.34453,-0.04123 -8.75977,1.04435 -11.5361,0.34575c-3.79082,-0.95387 -3.96675,-3.79351 -6.90331,-4.11049c-6.23707,-0.67325 -9.72855,1.17324 -16.45933,0.6782c-4.72487,-0.34751 -9.29568,1.31131 -14.41357,1.36818c-2.79224,0.03103 -6.6838,-1.58535 -8.68874,-1.56043c-4.57009,0.05681 -9.6842,1.13425 -10.60573,1.23817c-5.21175,0.58771 -14.25434,0.51183 -23.37238,0.61539c-2.50543,0.02846 -8.41805,0.3477 -11.04721,0.27935c-3.28113,-0.08531 -5.92647,4.10986 -13.66197,-1.77033c-2.24363,-1.70551 -3.43292,-0.26853 -5.65786,0.34324c-1.72424,0.47409 -4.46988,0.05315 -6.27886,-0.17863c-5.36412,-0.68728 -8.90065,-1.25174 -13.36855,-2.06381c-2.97318,-0.54039 -6.73024,-1.37615 -10.358,-1.75331c-4.18156,-0.43473 -9.30746,-0.46125 -13.33851,-0.68808c-2.65591,-0.14945 -7.89814,-0.30489 -10.37329,-0.46643c-0.90999,-0.05939 -5.13822,1.21311 -6.01693,1.1508c-1.14856,-0.08144 -8.26499,-2.83007 -9.34667,-2.9125c-1.63711,-0.12477 -2.86183,-4.57693 -4.33175,-4.68911c-3.52812,-0.26924 -5.22679,-0.50023 -7.6396,-0.68349c-1.76837,-0.13432 -3.20415,-0.90707 -4.25889,-0.98084c-2.11435,-0.14792 -5.84605,0.70146 -9.58944,0.89015c-2.92375,0.14738 -6.24462,-0.36827 -6.24462,-0.36827c0,0 -0.31076,-2.54116 2.42164,-3.49787c3.15443,-1.10447 -1.79022,-1.28161 3.3997,-3.09278c1.38599,-0.48368 2.26267,-4.66831 3.91431,-5.2156c1.05471,-0.34951 5.49137,1.31341 6.6298,0.98603c1.68785,-0.48537 4.08829,-4.99275 5.42638,-3.82903c2.91138,2.53199 7.06466,-3.94693 10.10144,-4.57031c6.90776,-1.41799 12.21272,-1.7576 13.69646,-4.82031c0.2549,-0.52615 -8.54746,-4.74876 -14.91815,-9.85149c-3.82977,-3.06754 -4.39049,-5.1442 -5.98496,-7.37107c-0.97262,-1.3584 -3.79499,-3.6099 -3.71785,-3.74153c0.5692,-0.97134 3.86346,-2.76122 6.17077,-4.6766c4.27663,-3.55023 8.40996,-7.53175 8.40996,-7.53175c0,0 -2.59853,-1.52015 -3.93552,-2.3023c-1.64802,-0.96409 1.33279,-1.94706 2.92955,-2.99386c1.85179,-1.214 4.15184,-2.75442 5.42581,-3.73071c2.25602,-1.72887 5.61071,-5.06603 5.61071,-5.06603c0,0 -11.49152,-14.83495 -17.57247,-19.22408c-1.64548,-1.18768 -3.68944,0.07327 -3.66992,0.05354c0.81326,-0.82252 1.57913,-2.64853 3.05974,-4.68224c0.92962,-1.2769 2.54486,-2.83761 3.37101,-3.65349c3.07164,-3.0335 8.17405,-6.54809 10.60565,-9.63372c1.75423,-2.22608 0.12893,-5.97466 1.78667,-7.92625c5.78983,-6.81617 -0.16251,5.05972 5.07632,1.25907c1.65003,-1.19706 0.52307,-7.10598 3.72683,-10.56606c3.55946,-3.84426 3.05344,4.19251 7.28855,1.39153c1.76884,-1.16986 1.47392,-6.47467 4.15956,-10.2419c1.4398,-2.01963 2.42247,-0.58952 4.30586,-1.67006c1.59436,-0.9147 4.21205,-4.47873 4.39236,-4.66802c2.74367,-2.88017 -0.41246,3.91168 2.39265,4.91884c1.18206,0.42442 2.08369,-3.94921 3.34918,-3.16541c1.22962,0.76157 -0.50808,3.39646 0.76565,4.51796c1.44186,1.26954 4.95435,1.03772 6.49124,2.56896c1.41665,1.41144 -1.52188,7.94028 -0.17273,9.52221c1.02953,1.20713 2.10611,0.69355 3.2,1.78612c1.13444,1.13308 0.95415,6.24138 2.09259,7.30524c2.11865,1.97985 0.34325,3.66958 2.35253,4.59736c2.0954,0.96754 4.06822,-1.35764 4.17162,-4.24668c0.13525,-3.77927 -1.74311,-8.5234 1.2495,-8.12396c3.03433,0.40501 5.49756,14.01966 5.49756,14.01966c0,0 0.17727,-10.43563 3.77984,-11.72572c1.61606,-0.57871 4.41829,-0.8955 6.3844,-1.58634c4.3857,-1.54103 -3.40643,-3.3936 2.08297,-5.09273c1.3803,-0.42723 2.83454,-9.90899 4.91115,-7.24524c0.63891,0.81954 -0.59741,3.24329 2.0587,3.87271c2.22321,0.52684 2.70153,-5.96752 5.81832,-5.97661c1.95743,-0.0057 2.69979,4.74053 4.93962,5.9845c3.13714,1.7423 7.60899,0.14041 8.37645,-0.00258c2.52631,-0.47066 5.06631,-1.88144 7.57275,-3.56735c4.7903,-3.22209 9.45806,-7.44926 13.67338,-8.03967c1.87457,-0.26255 2.40012,1.82017 4.06553,3.38844c0.83751,0.78866 1.83875,-0.49051 2.81126,0.05329c1.46253,0.8178 2.86005,3.23527 3.53783,2.88101c2.89491,-1.51301 4.67155,-4.12656 6.73078,-5.74946c3.02994,-2.38792 0.63891,-1.0136 2.32269,-2.99875c1.49352,-1.76083 3.49907,-2.04818 5.23503,-4.01113c2.05667,-2.32559 3.73492,-6.19589 3.73492,-6.19589zM302.21004,176.20173c-2.40695,1.82611 12.37189,2.05066 12.37189,5.30496c0,4.35745 -13.54631,10.73061 -9.65762,12.10083c0.32475,0.11443 0.6572,0.21258 0.99633,0.29344c0.00385,0.00276 0.00738,0.00549 0.01058,0.00823c1.36993,1.17548 2.71123,1.66286 4.17872,2.9935c4.93523,4.47499 6.65607,10.81064 11.49908,15.21339c2.05854,1.87141 5.02042,2.44196 7.50516,3.35701c1.20891,0.4452 1.83562,1.91782 2.49484,2.643c0.65553,0.7211 -1.38648,-11.39763 0.47509,-12.92314c2.90051,-2.37686 10.04286,5.25881 11.3242,6.32762c1.30601,1.08938 3.03145,6.5473 3.98188,4.48315c3.77465,-8.19781 4.43089,4.71862 5.46932,2.64177c0.61983,-1.23967 -0.34193,-2.77004 -0.23064,-4.15154c0.04032,-0.50048 0.7015,-0.84597 0.67365,-1.3473c-0.08639,-1.555 -0.38179,-3.13491 -1.00202,-4.56346c-0.31522,-0.72601 -1.56322,-6.10675 -4.85748,-11.66077c-2.28141,-3.84642 -6.41154,-7.429 -8.3197,-11.03549c-2.37601,-4.49074 -2.4102,-7.98485 -3.20806,-8.46356c-2.30829,-1.38496 -10.64837,-0.19872 -13.83041,-1.52336c-5.5627,-2.31564 -6.32782,-6.8218 -10.16715,-6.84278c-4.65602,-0.02546 -3.69518,3.56824 -8.66913,6.36614c-0.38743,0.21794 -0.73068,0.48034 -1.03855,0.77838zM261.75265,174.59895c-2.01565,-0.50392 -2.19815,1.67493 -3.659,2.86837c-0.97478,0.79635 -2.46436,-0.79167 -3.55233,-0.01306c-0.9455,0.67665 -1.53877,3.67915 -1.84082,4.83788c-0.36048,1.38285 -3.77258,0.24597 -2.79672,2.19771c0.77856,1.55713 3.03686,3.81939 4.87325,4.06776c0.89589,0.12116 1.92888,0.43139 2.8263,0.21741c0.4144,-0.09882 0.93527,-0.72173 1.21401,-0.39955c1.00669,1.16359 2.49791,-0.25972 3.39024,1.4326c1.38714,2.63073 1.86021,0.17428 6.15956,-2.69194c1.53728,-1.02487 2.71648,4.6541 3.07882,2.84237c0.24894,-1.2447 -2.565,-6.74198 -2.95175,-8.17106c-1.4085,-5.20453 -3.5541,-4.52794 -6.4991,-7.20522z" fill="url(#color-1)"/><path d="M382.01975,239.81397c0,0 1.29787,-0.64084 2.15442,-0.49808c0.3736,0.06227 0.93647,0.37005 1.5443,0.41637c0.73451,0.05598 1.53467,-0.13832 2.14582,0.10232c0.59624,0.23476 1.01259,1.12225 1.01259,1.12225" fill="none"/><path d="M436.01973,173.95681c0,0 0.41636,-0.8875 1.01261,-1.12225c0.61115,-0.24061 1.4113,-0.04632 2.14581,-0.10231c0.60783,-0.04631 1.1707,-0.3541 1.5443,-0.41636c0.85655,-0.14275 2.15444,0.49807 2.15444,0.49807" fill="none"/><path d="M348.51974,185.31396c0,0 1.29789,-0.64082 2.15444,-0.49806c0.3736,0.06226 0.93647,0.37005 1.5443,0.41636c0.73451,0.05598 1.53466,-0.13832 2.14581,0.10231c0.59624,0.23476 1.01259,1.12226 1.01259,1.12226" fill="none"/><path d="M279.01974,201.45683c0,0 0.41636,-0.88752 1.0126,-1.12227c0.61115,-0.24061 1.4113,-0.04632 2.1458,-0.10232c0.60783,-0.04631 1.17071,-0.3541 1.54431,-0.41636c0.85655,-0.14275 2.15443,0.49807 2.15443,0.49807" fill="none"/><path d="M259.51974,162.81397c0,0 1.29789,-0.64082 2.15444,-0.49807c0.3736,0.06226 0.93647,0.37004 1.5443,0.41635c0.73451,0.05598 1.53466,-0.13833 2.14581,0.10231c0.59624,0.23476 1.01259,1.12226 1.01259,1.12226" fill="none"/><path d="M212.51974,271.81397c0,0 1.2979,-0.64083 2.15445,-0.49807c0.3736,0.06227 0.93647,0.37004 1.5443,0.41636c0.73451,0.05598 1.53466,-0.13833 2.14581,0.10231c0.59624,0.23476 1.01257,1.12226 1.01257,1.12226" fill="none"/></g><path d="" fill="#000000" stroke="none" stroke-width="1" stroke-linecap="butt"/><path d="" fill="#000000" stroke="#000000" stroke-width="0.3" stroke-linecap="butt"/><path d="" fill="#000000" stroke="#000000" stroke-width="0.3" stroke-linecap="butt"/><path d="" fill="#000000" stroke="#000000" stroke-width="0.3" stroke-linecap="butt"/><path d="M251.56811,225.91243c0,0 -12.58458,-12.04926 -19.29224,-17.87892c-6.38294,-5.54743 -22.5602,-14.57722 -22.5602,-14.57722l5.30085,-0.61085c0,0 12.29071,8.95201 18.41513,14.18199c6.12384,5.22947 19.04888,15.79817 19.04888,15.79817z" fill="#000000" stroke="none" stroke-width="0" stroke-linecap="butt"/><path d="M390.2897,260.73326c1.01362,-0.80392 2.08321,-1.70466 3.12308,-2.67109c7.25991,-6.74722 36.09834,-29.89109 36.09834,-29.89109l-9.1236,-26.62572l3.6378,-0.63234l7.68201,27.89605c0,0 -32.80897,26.84573 -39.05842,33.64959z" fill="#000000" stroke="none" stroke-width="0" stroke-linecap="butt"/><g fill="#000000" stroke="#000000" stroke-width="0.5" stroke-linecap="butt"><path d="M304.72354,186.16104l-26.85842,-115.71349l2.0371,-0.19872l26.85843,115.7135z"/><path d="M368.99342,64.53234c-7.58449,4.9634 -133.77956,87.54738 -133.77956,87.54738l-0.95646,-1.61422c0,0 126.9462,-83.50177 134.24833,-88.30492z"/><path d="M367.52886,79.49889l-0.62072,-29.38718l1.16832,-0.04138l0.62072,29.38718z"/><path d="M365.04242,79.60908l-0.62071,-29.38718l1.16833,-0.04138l0.62072,29.38718z"/><path d="M359.5704,90.79703l-0.31628,-3.24215c0,0 1.0385,-0.07754 1.11307,-0.97015c0.2002,-2.39674 -0.28863,-7.6939 0.82071,-10.65478c1.72769,-4.61125 10.45943,-3.78341 12.48159,0.66028c0.90458,1.98782 -0.04165,6.22293 0.38438,8.83316c0.35938,2.2018 1.87606,2.23753 1.87606,2.23753l-1.18965,2.04134c0,0 -1.44411,-1.65512 -1.49362,-4.63771c-0.04095,-2.46735 0.01435,-5.87586 -1.37638,-7.81468c-1.21281,-1.69076 -2.41181,-3.04924 -4.82121,-2.87354c-1.89175,0.13795 -3.13083,0.8047 -4.18697,2.33684c-1.96697,2.8535 -1.27173,8.4736 -1.59042,11.63712c-0.20396,2.02468 -1.70132,2.44678 -1.70132,2.44678z"/><path d="M362.80082,93.61426c-0.05151,-4.16545 -0.13597,-11.59988 -0.1592,-13.48018c-0.02623,-2.1221 2.86857,-2.39461 5.21923,-2.3815c1.87975,0.01047 3.85953,0.47664 3.88051,2.17357c0.02466,1.99411 0.14118,11.42 0.18706,15.13134c0.00971,0.7853 0.06852,1.49885 -0.73596,1.81295c-1.06739,0.41675 -3.00643,1.11063 -4.07117,1.10469c-1.03958,-0.0058 -3.24572,0.0682 -4.08979,-1.2508c-0.27066,-0.42294 -0.2307,-3.11007 -0.2307,-3.11007z"/></g><path d="M283.30221,239.51931c0,0 6.43101,-15.10247 8.67494,-23.43797c2.68875,-9.98789 6.36577,-31.23356 6.36577,-31.23356l8.65343,-2.74487l5.61503,-1.1106l10.06597,0.89118l8.29605,3.85542l5.18245,3.67466c0,0 -3.08706,19.16597 -3.50851,28.06085c-0.42541,8.97819 0.96781,25.5607 0.96781,25.5607z" fill="url(#color-2)" stroke="none" stroke-width="0" stroke-linecap="butt"/><path d="M289.56183,223.5781c0.96391,-2.70024 1.83139,-5.32763 2.41532,-7.49676c2.68875,-9.98789 6.36577,-31.23356 6.36577,-31.23356l8.65343,-2.74487l5.61503,-1.1106l10.06597,0.89118l8.29605,3.85542l5.18245,3.67466c0,0 -3.08706,19.16597 -3.50851,28.06085c-0.02139,0.45152 0.04999,3.21503 0.13969,6.36172" fill="none" stroke="#000000" stroke-width="1.5" stroke-linecap="butt"/><path d="M260.92044,296.88108l-5.07928,-35.91179c0,0 7.44052,-2.73987 11.02175,-4.48268c6.44867,-3.13825 24.59097,-11.93386 24.59097,-11.93386l13.01891,37.67023c0,0 -22.56532,10.99353 -30.38094,13.23094c-6.11212,1.74975 -13.1714,1.42717 -13.1714,1.42717z" fill="url(#color-3)" stroke="none" stroke-width="0" stroke-linecap="butt"/><path d="M250.21571,246.18226l21.36535,-34.32706c0,0 3.89472,1.97323 8.55655,4.94854c5.34123,3.40892 11.48637,7.74256 14.98258,9.78664c7.17122,4.1927 17.53801,9.17699 17.53801,9.17699l-14.71535,34.97706c0,0 -22.9644,-8.6094 -36.23682,-16.78181c-6.22983,-3.83598 -11.49033,-7.78036 -11.49033,-7.78036z" fill="url(#color-4)" stroke="none" stroke-width="0" stroke-linecap="butt"/><path d="" fill="#000000" stroke="#000000" stroke-width="0.3" stroke-linecap="butt"/><path d="" fill="#000000" stroke="#000000" stroke-width="0.3" stroke-linecap="butt"/><path d="" fill="#000000" stroke="#000000" stroke-width="0.3" stroke-linecap="butt"/><path d="" fill="#000000" stroke="#000000" stroke-width="0.3" stroke-linecap="butt"/><path d="" fill="#000000" stroke="#000000" stroke-width="0.3" stroke-linecap="butt"/><path d="" fill="#000000" stroke="#000000" stroke-width="0.3" stroke-linecap="butt"/><path d="" fill="#000000" stroke="#000000" stroke-width="0.3" stroke-linecap="butt"/><path d="" fill="#000000" stroke="#000000" stroke-width="0.3" stroke-linecap="butt"/><path d="" fill="#000000" stroke="#000000" stroke-width="0.3" stroke-linecap="butt"/><path d="" fill="#000000" stroke="#000000" stroke-width="0.3" stroke-linecap="butt"/><path d="" fill="#000000" stroke="#000000" stroke-width="0.3" stroke-linecap="butt"/><path d="" fill="#000000" stroke="#000000" stroke-width="0.3" stroke-linecap="butt"/><path d="" fill="#000000" stroke="#000000" stroke-width="0.3" stroke-linecap="butt"/><path d="" fill="#000000" stroke="#000000" stroke-width="0.3" stroke-linecap="butt"/><path d="" fill="#000000" stroke="#000000" stroke-width="0.3" stroke-linecap="butt"/><path d="" fill="#000000" stroke="#000000" stroke-width="0.3" stroke-linecap="butt"/><path d="" fill="#000000" stroke="#000000" stroke-width="0.3" stroke-linecap="butt"/><path d="" fill="#000000" stroke="#000000" stroke-width="0.3" stroke-linecap="butt"/><path d="" fill="#000000" stroke="#000000" stroke-width="0.3" stroke-linecap="butt"/><path d="" fill="#000000" stroke="#000000" stroke-width="0.3" stroke-linecap="butt"/><path d="M295.3172,284.82415c0,0 -1.51202,-5.99345 -1.5673,-13.00079c-0.06926,-8.78064 -0.10568,-17.06412 1.48794,-24.17804c1.36568,-6.09639 3.76908,-11.33389 10.17061,-15.28929c4.53339,-2.80111 10.33238,-2.76009 14.38759,-3.55813c0.78271,-0.15404 9.11408,3.01295 16.68991,6.16177c7.31569,3.0407 13.75506,6.6359 13.75506,6.6359l-25.45714,52.62858c0,0 -10.24957,-3.01445 -15.08342,-4.55647c-4.98379,-1.58985 -14.38325,-4.84352 -14.38325,-4.84352z" fill="url(#color-5)" stroke="none" stroke-width="0" stroke-linecap="butt"/><path d="M273.96015,236.4949c-4.22419,9.97337 -15.26432,15.99714 -21.26652,12.52929c-6.00221,-3.46785 -5.94358,-13.3641 -1.71938,-23.33747c4.22419,-9.97337 14.26432,-16.49714 20.26653,-13.02929c6.00221,3.46785 6.94358,13.8641 2.71938,23.83747z" fill="#e2e05f" stroke="#000000" stroke-width="1.5" stroke-linecap="butt"/><path d="M253.92554,261.75747l19.66666,-8.33333" fill="none" stroke="#000000" stroke-width="1.5" stroke-linecap="round"/><path d="M267.0922,296.59081c5.7269,0.69624 26.90305,-8.84963 31.13986,-10.72971c0.49349,-0.21898 25.62205,7.944 25.62205,7.944" fill="none" stroke="#000000" stroke-width="1.5" stroke-linecap="round"/><path d="M278.42554,279.17413c0,10.26329 -6.74052,18.08333 -16.08334,18.08333c-9.34281,0 -15.75,-7.15338 -15.75,-17.41667c0,-10.26329 2.90719,-18.91667 12.25,-18.91667c9.34281,0 19.58334,7.98671 19.58334,18.25z" fill="#e2e05f" stroke="#000000" stroke-width="1.5" stroke-linecap="butt"/><path d="M255.37543,250.52787l10.11111,6" fill="none" stroke="#000000" stroke-width="1.5" stroke-linecap="round"/><path d="M303.93099,231.41675c0,0 -10.00618,-5.12752 -14.93491,-8.04147c-5.86916,-3.46994 -18.95398,-11.30297 -18.95398,-11.30297" fill="none" stroke="#000000" stroke-width="1.5" stroke-linecap="round"/><path d="M366.3798,267.00765c-0.51677,14.95653 -15.22262,28.7 -30.3,28.7c-15.07738,0 -27.7,-12.12719 -27.7,-26.1c0,-6.46271 2.68435,-14.5863 8.13671,-20.16189c6.336,-6.47922 16.05951,-10.43811 24.16329,-10.43811c15.07738,0 26.3,10.63455 25.7,28z" fill="#e2e05f" stroke="#000000" stroke-width="1.5" stroke-linecap="butt"/><path d="M344.97774,238.73475c0,0 -7.56358,-2.98564 -9.36964,-3.82095" fill="none" stroke="#000000" stroke-width="1.5" stroke-linecap="round"/><g><path d="M422.15794,203.01925c0,0 -10.53435,4.40909 -16.02125,6.5373c-6.36292,2.468 -16.85558,4.25317 -16.85558,4.25317c0,0 0.43212,-1.30123 2.91935,-3.83171c1.89173,-1.92463 6.1945,-5.51969 8.5515,-7.8234c1.44247,-1.40986 0.87711,-2.86446 1.33245,-5.12624c0.57395,-2.85099 2.88824,-7.21217 6.80133,-11.01605c1.57757,-1.53354 3.11766,-2.41137 5.07283,-3.27399c2.12959,-0.93958 4.16181,-1.72496 6.54378,-1.81464c5.11804,-0.19267 8.76378,2.48627 11.12024,3.91517c1.94461,1.17917 3.20131,1.23376 5.19359,1.09421c3.25539,-0.22801 8.14593,-0.56043 10.8135,-0.69249c3.5073,-0.17364 3.60651,0.74115 3.60651,0.74115c0,0 -6.91177,5.90456 -12.98334,9.04572c-5.23566,2.70869 -15.22323,7.6455 -15.22323,7.6455z" fill="#eced68" stroke="none" stroke-width="0" stroke-linecap="round"/><path d="M422.15794,203.01925c0,0 -10.34205,4.37724 -15.82895,6.50546c-6.36292,2.468 -16.41111,3.52663 -16.41111,3.52663c0,0 0.56455,-0.67022 3.05178,-3.2007c1.10625,-1.12549 2.77397,-2.77865 4.43952,-4.41815c1.1826,-1.16411 3.34278,-3.27786 3.34278,-3.27786c0,0 0.95067,4.33909 7.43573,3.11132c3.35215,-0.63464 12.00378,-3.81055 19.25028,-6.36351c6.58585,-2.32021 11.66269,-4.80521 11.66269,-4.80521l-16.07105,8.57574z" fill="#8f8621" stroke="none" stroke-width="0" stroke-linecap="round"/><path d="M428.83881,191.55109c0.14281,0.35547 -3.4604,3.34303 -7.82776,5.58716c-0.64814,0.33304 -1.31313,0.64971 -1.98519,0.93897c-2.86349,1.23247 -8.82898,3.21296 -12.33209,3.89578c-3.81334,0.74328 -5.05263,0.13463 -5.05263,0.13463l1.47728,-7.09363c0,0 1.45519,4.67656 6.4919,4.33177c6.33279,-0.43352 19.04834,-8.24309 19.22848,-7.79468z" fill="#8f8621" stroke="none" stroke-width="0" stroke-linecap="butt"/><path d="M432.85347,187.17915c0,0 1.00536,2.70627 -10.95173,9.1835c-9.54291,5.16946 -18.16636,5.96461 -18.16636,5.96461" fill="none" stroke="#524d14" stroke-width="0.75" stroke-linecap="round"/><path d="M422.15794,203.01925c0,0 -10.42733,4.78504 -15.72874,6.47926c-5.76202,1.84143 -17.57683,4.16456 -17.57683,4.16456c0,0 3.38067,-4.08869 5.52911,-6.11645c2.00094,-1.88853 6.95053,-5.66218 6.95053,-5.66218c0,0 0.21139,-13.93099 12.62656,-19.14611c7.36442,-3.0935 11.92416,-2.2956 18.17344,1.49382c1.94461,1.17917 4.68417,1.70092 4.68417,1.70092c0,0 7.15634,-0.767 9.84694,-0.82329c2.3849,-0.0499 5.49043,0.5024 5.49043,0.5024c0,0 -10.20794,7.09862 -15.39966,10.13993c-4.37623,2.56359 -13.72427,6.92085 -13.72427,6.92085z" fill="none" stroke="#000000" stroke-width="1.5" stroke-linecap="round"/></g><g><path d="M208.9826,194.90052c0,0 -11.66707,-0.30998 -17.65269,-0.55758c-6.94126,-0.28712 -17.14857,-1.92997 -17.14857,-1.92997c0,0 1.08621,-0.56074 4.64869,-1.24992c2.70955,-0.52418 8.44802,-1.31589 11.77285,-1.92073c2.03477,-0.37016 2.32586,-1.25244 3.95345,-2.29916c2.0516,-1.31941 6.45467,-2.98775 11.96329,-3.98129c2.2208,-0.40054 4.05299,-0.47461 6.24242,-0.43975c2.38474,0.03797 4.60013,0.13113 6.74617,0.66562c4.61109,1.14841 6.36838,3.4079 7.66836,4.71343c1.07277,1.07736 2.14974,1.4115 3.97969,1.8255c2.99014,0.67648 7.4767,1.69793 9.89721,2.2803c3.18247,0.76569 2.77369,1.25809 2.77369,1.25809c0,0 -9.28835,1.33812 -16.33816,1.46654c-6.07921,0.11073 -17.55104,0.20408 -17.55104,0.20408z" fill="#f7f787" stroke="none" stroke-width="0" stroke-linecap="round"/><path d="M208.9826,194.90052c0,0 -11.48048,-0.27943 -17.4661,-0.52702c-6.94126,-0.28712 -16.36316,-2.19355 -16.36316,-2.19355c0,0 0.8606,-0.20549 4.42308,-0.89468c1.5845,-0.30653 3.94956,-0.74634 6.3053,-1.17968c1.67267,-0.30769 4.72115,-0.86326 4.72115,-0.86326c0,0 -1.51619,2.45256 4.85999,3.40424c3.29586,0.49193 12.63635,0.97438 20.40171,1.4333c7.05741,0.41709 12.87546,0.38215 12.87546,0.38215l-18.80208,0.47365z" fill="#8f8621" stroke="none" stroke-width="0" stroke-linecap="round"/><path d="M221.085,190.65847c-0.06704,0.21674 -4.86007,0.86796 -9.92275,0.95248c-0.75134,0.01254 -1.50862,0.01259 -2.25727,-0.0031c-3.18982,-0.06687 -9.51674,-0.50669 -12.97167,-1.01075c-3.76089,-0.54869 -4.52203,-1.16218 -4.52203,-1.16218l5.14799,-3.27087c0,0 -1.25496,2.74821 3.36703,3.79895c5.81134,1.32111 21.24326,0.42205 21.1587,0.69546z" fill="#8f8621" stroke="none" stroke-width="0" stroke-linecap="butt"/><path d="M226.99113,189.39892c0,0 -0.58247,1.63014 -14.62397,2.03206c-11.20648,0.32077 -19.23095,-1.37338 -19.23095,-1.37338" fill="none" stroke="#524d14" stroke-width="0.75" stroke-linecap="round"/><path d="M208.9826,194.90052c0,0 -11.77674,-0.09148 -17.36366,-0.51601c-6.07234,-0.46142 -17.7356,-2.15107 -17.7356,-2.15107c0,0 5.19426,-1.26904 8.18578,-1.78346c2.78612,-0.4791 9.19102,-1.20461 9.19102,-1.20461c0,0 7.74153,-7.07894 21.50189,-6.72325c8.16236,0.21098 11.74462,1.73038 15.19214,5.19262c1.07277,1.07736 3.20208,2.01191 3.20208,2.01191c0,0 6.71737,1.3511 9.11706,1.97785c2.12705,0.55555 4.56202,1.59491 4.56202,1.59491c0,0 -12.83832,1.14615 -19.05923,1.43784c-5.24376,0.24587 -15.83815,0.19841 -15.83815,0.19841z" fill="none" stroke="#000000" stroke-width="1.5" stroke-linecap="round"/></g><path d="M211.4358,182.19344c0,0 0.24919,-1.87562 0.23895,-2.89399c-0.01348,-1.34088 -0.31279,-4.45332 -0.31279,-4.45332l2.16063,0.09525c0,0 -0.33971,2.73 -0.57042,4.00744c-0.20201,1.11852 -0.32463,3.18849 -0.32463,3.18849z" fill="#000000" stroke="#000000" stroke-width="0.5" stroke-linecap="butt"/><path d="M412.95993,182.95416c0,0 -0.30817,-1.48841 -0.86069,-2.44247c-0.72751,-1.25623 -2.7257,-4.04096 -2.7257,-4.04096l2.54533,-0.96786c0,0 1.05728,2.73736 1.46916,4.05336c0.36064,1.15229 1.27448,2.98618 1.27448,2.98618z" fill="#000000" stroke="#000000" stroke-width="1.5" stroke-linecap="butt"/><path d="M242.36963,273.38792c-5.24651,-6.13148 -17.4371,-20.17133 -17.4371,-20.17133l1.34343,-15.30357l2.05682,0.38576l-1.44422,14.38576c0,0 12.19003,15.60183 16.69581,19.23492c2.18797,1.7642 -1.21473,1.46846 -1.21473,1.46846z" fill="#000000" stroke="none" stroke-width="0" stroke-linecap="butt"/><g><g><path d="M223.83187,249.88334c0,0 -8.9946,-1.26425 -13.61025,-2.03186c-5.35258,-0.89015 -13.23908,-3.83913 -13.23908,-3.83913c0,0 0.82996,-0.67446 3.56651,-1.34156c2.08137,-0.50738 6.49345,-1.15412 9.04793,-1.72517c1.56333,-0.34949 1.77649,-1.51374 3.01751,-2.80182c1.5643,-1.62363 4.93626,-3.54524 9.16867,-4.47985c1.7063,-0.37679 3.11725,-0.34316 4.80487,-0.13724c1.83817,0.22429 3.54653,0.51045 5.20702,1.3845c3.56782,1.87803 4.95052,5.04149 5.96877,6.89003c0.84028,1.52546 1.67442,2.05266 3.08981,2.74187c2.31275,1.12617 5.783,2.82457 7.6556,3.78292c2.46208,1.26 2.15329,1.89188 2.15329,1.89188c0,0 -7.14072,1.12293 -12.57169,0.7832c-4.68326,-0.29296 -13.52229,-1.00112 -13.52229,-1.00112z" fill="#f7f787" stroke="none" stroke-width="0" stroke-linecap="round"/><path d="M223.83187,249.88334c0,0 -8.85041,-1.20965 -13.46607,-1.97725c-5.35258,-0.89015 -12.63718,-4.1362 -12.63718,-4.1362c0,0 0.66058,-0.21356 3.39713,-0.88066c1.21715,-0.2967 3.03411,-0.71577 4.84398,-1.12682c1.28508,-0.29186 3.62724,-0.81679 3.62724,-0.81679c0,0 -1.13741,3.18502 3.7881,4.92699c2.54601,0.90043 9.74991,2.22733 15.7397,3.40819c5.44371,1.0732 9.92668,1.44903 9.92668,1.44903l-14.48294,-0.72984z" fill="#8f8621" stroke="none" stroke-width="0" stroke-linecap="round"/><path d="M233.10448,245.06324c-0.04892,0.28633 -3.73422,0.81302 -7.63447,0.55869c-0.57882,-0.03774 -1.16238,-0.09269 -1.73949,-0.16818c-2.45893,-0.32162 -7.34002,-1.37229 -10.00876,-2.30057c-2.90508,-1.01049 -3.49935,-1.89006 -3.49935,-1.89006l3.92575,-4.02057c0,0 -0.93237,3.60123 2.64261,5.34882c4.49491,2.19728 16.37543,2.11066 16.31372,2.47186z" fill="#8f8621" stroke="none" stroke-width="0" stroke-linecap="butt"/><path d="M237.63986,243.8001c0,0 -0.42828,2.14788 -11.24361,1.66758c-8.63169,-0.38332 -14.83675,-3.2426 -14.83675,-3.2426" fill="none" stroke="#524d14" stroke-width="0.75" stroke-linecap="round"/><path d="M223.83187,249.88334c0,0 -9.07634,-0.97866 -13.38699,-1.95501c-4.68518,-1.06119 -13.69424,-4.17883 -13.69424,-4.17883c0,0 3.98669,-1.32762 6.28547,-1.8014c2.14094,-0.44125 7.06741,-0.95063 7.06741,-0.95063c0,0 5.87626,-8.94853 16.48451,-7.47075c6.2926,0.87658 9.07228,3.1783 11.77266,8.08057c0.84028,1.52546 2.49294,2.93583 2.49294,2.93583c0,0 5.19347,2.30339 7.05059,3.31986c1.64612,0.90098 3.53564,2.47436 3.53564,2.47436c0,0 -9.87876,0.60707 -14.66893,0.54694c-4.03775,-0.05069 -12.2024,-0.88428 -12.2024,-0.88428z" fill="none" stroke="#000000" stroke-width="1.5" stroke-linecap="round"/></g><path d="M225.81854,233.27581c0,0 0.40239,-1.08551 0.41834,-1.92025c0.02101,-1.09911 -0.19515,-3.6864 -0.19515,-3.6864l2.13318,0.36866c0,0 -0.40568,2.18835 -0.66643,3.20268c-0.22831,0.88815 -0.36002,2.43466 -0.36002,2.43466z" fill="#000000" stroke="#000000" stroke-width="1.5" stroke-linecap="butt"/></g><g fill="#81782d" stroke="none" stroke-width="0.5" stroke-linecap="butt"><path d="M393.10974,257.32494c0.17166,-0.15284 0.33862,0.01412 0.33862,0.01412c0.2201,0.25309 0.30937,0.6707 0.19705,0.98674c-0.00685,0.01929 -0.01714,0.03934 -0.03024,0.05992c-0.02265,0.20583 -0.12866,0.40253 -0.33868,0.57629c0.41357,0.12237 0.60647,0.85521 0.32513,1.14812c-0.25016,0.26045 -1.43202,-0.07657 -1.08327,0.01719c0.76522,0.20572 0.67762,0.82284 0.3488,1.24809c0.25691,0.07781 0.53525,0.28616 0.79908,-0.03634c0.50061,-0.61193 1.81952,-2.3433 3.98503,-4.29012c2.90536,-2.61194 7.47746,-7.35453 7.47746,-7.35453c0,0 -6.3755,10.09841 -6.61259,11.23046c-0.46022,2.19741 -1.85573,2.99378 -3.95804,2.85131c-3.58538,-0.04287 -5.7844,-1.18067 -5.82223,-5.11629c-0.00002,-3.22967 3.12214,-2.56122 4.37387,-1.33495z"/><path d="M430.56821,218.67372c-0.32241,0.00917 -0.35597,0.25438 -0.28915,0.52659c0.01031,-0.05494 0.04333,-0.1128 0.12159,-0.15901c0.21527,-0.12712 0.34239,0.08816 0.34239,0.08816c0.01241,0.02211 0.02451,0.04389 0.03629,0.06532c0.08274,-0.17362 0.01573,-0.52751 -0.21112,-0.52106zM427.37936,214.47833c-1.41762,-2.7075 -1.95642,-5.22601 -1.95642,-5.22601c0,0 5.97491,9.81072 5.75511,10.24809l-0.14218,0.22007c0.43845,1.07689 -2.04898,-2.17193 -3.6565,-5.24215zM430.48789,219.67775c0.00059,-0.00282 0.00124,-0.00565 0.00193,-0.00846c-0.03112,-0.05172 -0.06797,-0.11175 -0.1112,-0.1808c0.03332,0.07747 0.06954,0.15098 0.10397,0.21531c0.0014,-0.00905 0.00322,-0.01776 0.0053,-0.02605z"/><path d="M414.55073,239.59248c-0.03395,-0.32074 -0.28102,-0.33533 -0.54728,-0.24777c0.05557,0.00606 0.1158,0.03451 0.1679,0.10899c0.1433,0.20486 -0.06155,0.34815 -0.06155,0.34815c-0.0211,0.01408 -0.04187,0.02782 -0.06233,0.04122c0.17947,0.06913 0.52715,-0.02491 0.50326,-0.25059zM418.4883,236.09025c2.59039,-1.62176 5.05998,-2.35276 5.05998,-2.35276c0,0 -9.32186,6.71213 -9.77486,6.52663l-0.23036,-0.12483c-1.03996,0.52002 2.00783,-2.21004 4.94524,-4.04905zM413.54348,239.58966c0.00286,0.00038 0.00573,0.0008 0.00859,0.00127c0.04917,-0.03501 0.10618,-0.07636 0.1717,-0.12478c-0.07468,0.03918 -0.14518,0.08095 -0.20667,0.12023c0.00914,0.0007 0.01797,0.00184 0.02639,0.00328z"/></g><path d="M248.33757,220.92449c-0.27761,0.1642 -0.18818,0.39499 0.00213,0.60075c-0.01759,-0.05306 -0.01674,-0.11967 0.02934,-0.19801c0.12675,-0.21549 0.34223,-0.08873 0.34223,-0.08873c0.02157,0.01333 0.04271,0.02652 0.0634,0.03956c-0.01173,-0.19196 -0.24178,-0.46911 -0.4371,-0.35357zM243.51549,218.79899c-2.55176,-1.68188 -4.24316,-3.62415 -4.24316,-3.62415c0,0 9.97961,5.68834 9.99919,6.17745l-0.01778,0.26141c0.90525,0.7297 -2.84466,-0.9075 -5.73826,-2.8147zM248.75368,221.84176c-0.00085,-0.00276 -0.00165,-0.00554 -0.00241,-0.00834c-0.05228,-0.03017 -0.11359,-0.06483 -0.18487,-0.1043c0.06667,0.05163 0.13397,0.09839 0.19526,0.13799c-0.00315,-0.0086 -0.00579,-0.0171 -0.00798,-0.02535z" fill="#888139" stroke="none" stroke-width="0.5" stroke-linecap="butt"/><path d="M248.33757,220.92449c-0.27761,0.1642 -0.18818,0.39499 0.00213,0.60075c-0.01759,-0.05306 -0.01674,-0.11967 0.02934,-0.19801c0.12675,-0.21549 0.34223,-0.08873 0.34223,-0.08873c0.02157,0.01333 0.04271,0.02652 0.0634,0.03956c-0.01173,-0.19196 -0.24178,-0.46911 -0.4371,-0.35357zM243.51549,218.79899c-2.55176,-1.68188 -4.24316,-3.62415 -4.24316,-3.62415c0,0 9.97961,5.68834 9.99919,6.17745l-0.01778,0.26141c0.90525,0.7297 -2.84466,-0.9075 -5.73826,-2.8147zM248.75368,221.84176c-0.00085,-0.00276 -0.00165,-0.00554 -0.00241,-0.00834c-0.05228,-0.03017 -0.11359,-0.06483 -0.18487,-0.1043c0.06667,0.05163 0.13397,0.09839 0.19526,0.13799c-0.00315,-0.0086 -0.00579,-0.0171 -0.00798,-0.02535z" fill="#888139" stroke="none" stroke-width="0.5" stroke-linecap="butt"/><path d="M248.33757,220.92449c-0.27761,0.1642 -0.18818,0.39499 0.00213,0.60075c-0.01759,-0.05306 -0.01674,-0.11967 0.02934,-0.19801c0.12675,-0.21549 0.34223,-0.08873 0.34223,-0.08873c0.02157,0.01333 0.04271,0.02652 0.0634,0.03956c-0.01173,-0.19196 -0.24178,-0.46911 -0.4371,-0.35357zM243.51549,218.79899c-2.55176,-1.68188 -4.24316,-3.62415 -4.24316,-3.62415c0,0 9.97961,5.68834 9.99919,6.17745l-0.01778,0.26141c0.90525,0.7297 -2.84466,-0.9075 -5.73826,-2.8147zM248.75368,221.84176c-0.00085,-0.00276 -0.00165,-0.00554 -0.00241,-0.00834c-0.05228,-0.03017 -0.11359,-0.06483 -0.18487,-0.1043c0.06667,0.05163 0.13397,0.09839 0.19526,0.13799c-0.00315,-0.0086 -0.00579,-0.0171 -0.00798,-0.02535z" fill="#888139" stroke="none" stroke-width="0.5" stroke-linecap="butt"/><path d="M247.68634,227.94155c-0.38551,-0.19205 -0.50674,-0.09326 -0.51788,0.07983c0.03048,-0.02043 0.08886,-0.02845 0.19704,-0.00322c0.29758,0.06939 0.37688,0.25155 0.37688,0.25155c0.00738,0.01832 0.01451,0.03628 0.02137,0.05388c0.1558,-0.034 0.19383,-0.24692 -0.07741,-0.38205zM245.29672,223.95791c-0.78258,-2.18059 -0.58541,-3.73363 -0.58541,-3.73363c0,0 3.82996,8.41225 3.42397,8.49096l-0.24175,0.02035c0.16252,0.79089 -1.7094,-2.30497 -2.59681,-4.77767zM247.25768,228.38082c0.00164,-0.00101 0.00335,-0.00198 0.0051,-0.00293c-0.01975,-0.04412 -0.04353,-0.09576 -0.07188,-0.15569c0.0138,0.05797 0.03236,0.11579 0.05185,0.16807c0.00468,-0.00354 0.00971,-0.00668 0.01493,-0.00944z" fill="#888139" stroke="none" stroke-width="0.5" stroke-linecap="butt"/><path d="M391.11841,257.38953c0.37435,-0.09932 0.76758,-0.15224 1.17317,-0.15224c0.56367,0 1.58924,0.81175 1.54547,1.88954c-0.03171,0.78082 -1.27799,1.82004 -0.52545,2.22009c1.13343,0.60251 2.83339,-0.44668 4.47066,-0.1757c0.2682,0.04439 1.66253,1.34734 2.1322,1.61168c0.97769,0.55024 3.60314,-0.48444 5.57986,0.47317c1.97672,0.95761 3.50149,3.82368 3.88712,4.11309" fill="none" stroke="#000000" stroke-width="1.5" stroke-linecap="butt"/><path d="M228.05865,274.93266c0.21643,-0.15972 0.46627,-0.30728 0.74786,-0.438c0.39134,-0.18165 1.45861,-0.1927 1.8999,0.24558c0.3197,0.31751 -0.09076,1.12815 0.60679,1.04307c1.05059,-0.12815 1.77164,-1.08891 3.02693,-1.50991c0.20563,-0.06896 1.74388,-0.00553 2.18564,-0.05286c0.91958,-0.09853 2.28953,-1.35185 4.08098,-1.61201c1.79145,-0.26016 4.10434,0.3764 4.49873,0.36602" fill="none" stroke="#000000" stroke-width="1.5" stroke-linecap="butt"/><g stroke="none" stroke-linecap="butt"><path d="M349.23096,235.20777c0.0021,-1.28478 -0.0367,-2.67275 -0.14534,-4.07792c-0.75853,-9.81029 -3.0134,-23.75375 -5.01069,-32.62049c-3.20045,-14.20804 -15.82819,-43.94442 -15.82819,-43.94442l5.24802,-1.89742c0,0 0.80619,6.24244 3.13092,14.41491c2.80374,9.85644 7.33447,22.52488 9.0035,30.49634c2.1281,10.16412 4.98729,27.79284 6.4188,36.84991z" fill="#000000" stroke-width="0"/><path d="M346.79424,231.38448c0.01212,-0.22799 0.24805,-0.23026 0.24805,-0.23026c0.33447,0.01994 0.69381,0.24705 0.83931,0.54644c0.00888,0.01827 0.01589,0.03951 0.02131,0.0631c0.13025,0.15919 0.19545,0.37113 0.17122,0.64086c0.37763,-0.20812 1.03369,0.16471 1.04396,0.56786c0.00913,0.35849 -1.06099,0.96205 -0.74926,0.77999c0.684,-0.39949 1.06071,0.09175 1.1316,0.62059c0.23585,-0.12804 0.57947,-0.18049 0.53588,-0.59182c-0.08271,-0.78047 -0.38525,-2.91953 -0.24572,-5.80866c0.18722,-3.87619 0.03282,-10.41572 0.03282,-10.41572c0,0 2.69055,11.54246 3.32788,12.49778c1.23714,1.85434 0.82178,3.39753 -0.75717,4.789c-2.55073,2.51222 -4.90458,3.28012 -7.72632,0.57018c-2.29379,-2.24584 0.37562,-3.99462 2.12643,-4.02938z" fill="#81782d" stroke-width="0.5"/><path d="M345.63248,206.93027c0.21231,0.07823 0.1407,0.42909 -0.0014,0.55833c-0.00281,-0.02411 -0.00579,-0.04866 -0.00892,-0.07364c0,0 -0.03633,-0.24546 -0.28348,-0.20824c-0.08985,0.01353 -0.14224,0.05458 -0.17252,0.10136c0.04096,-0.27554 0.16458,-0.48897 0.46633,-0.37779zM345.17911,207.82537c-0.00505,0.00686 -0.01002,0.01421 -0.01474,0.02203c-0.00756,-0.07202 -0.01333,-0.15318 -0.0149,-0.23691c0.01392,0.07965 0.02535,0.14861 0.03462,0.2078c-0.00171,0.00233 -0.00337,0.00469 -0.00499,0.00708z" fill="#81782d" stroke-width="0.5"/></g><path d="M342.21841,230.69746c0.30875,-0.07187 0.63308,-0.11018 0.96761,-0.11018c0.4649,0 1.31077,0.58742 1.27468,1.36736c-0.02616,0.56503 -1.05406,1.31707 -0.43338,1.60656c0.93484,0.43601 2.33693,-0.32324 3.68732,-0.12714c0.2212,0.03212 1.37122,0.97499 1.75861,1.16628c0.80638,0.39818 2.97181,-0.35057 4.60217,0.3424c1.63036,0.69297 2.88797,2.76699 3.20603,2.97642" fill="none" stroke="#000000" stroke-width="1.5" stroke-linecap="butt"/><g><path d="M327.82733,158.2415c0,0 -17.28465,0.77597 -25.58964,0.85202c-9.63094,0.0882 -28.60957,-0.3571 -28.60957,-0.3571c0,0 7.7443,-3.04484 12.30642,-4.67979c3.46986,-1.2435 9.88631,-3.43607 14.16156,-4.88903c2.61642,-0.88919 4.1798,-1.58778 5.93096,-3.72547c2.20736,-2.69457 6.69103,-7.12029 13.77821,-9.51131c2.8572,-0.96393 4.54773,-1.42323 7.56019,-1.55693c3.2812,-0.14562 5.16086,0.22158 8.34137,1.04128c6.83379,1.76127 11.46229,5.50203 13.8358,7.86421c1.95869,1.94932 3.58479,2.48595 6.27783,3.10558c4.40044,1.01245 11.00597,2.54385 14.58392,3.42948c4.70425,1.16442 12.71712,3.40921 12.71712,3.40921c0,0 -18.83592,2.36534 -28.42627,3.25309c-8.26998,0.76552 -25.54432,1.7443 -25.54432,1.7443z" fill="#eced68" stroke="none" stroke-width="0" stroke-linecap="round"/><path d="M327.82733,158.2415c0,0 -17.28465,0.77597 -25.58964,0.85202c-9.63094,0.0882 -28.60957,-0.3571 -28.60957,-0.3571c0,0 7.7443,-3.04484 12.30642,-4.67979c2.02913,-0.72717 5.06588,-1.77891 8.09283,-2.81749c2.14924,-0.73744 6.06872,-2.07153 6.06872,-2.07153c0,0 -0.95875,4.79901 8.2013,6.02526c4.73487,0.63385 17.73843,0.69771 28.57549,0.86074c9.84906,0.14815 17.82234,0.42317 17.82234,0.42317l-25.54432,1.7443z" fill="#8f8621" stroke="none" stroke-width="0" stroke-linecap="round"/><path d="M342.46047,149.0753c0.0069,0.41798 -6.2567,2.09316 -13.14733,2.71605c-1.02262,0.09244 -2.05905,0.16171 -3.09085,0.20025c-7.76159,0.2899 -17.90878,-0.92365 -21.44738,-0.86521c-2.907,0.048 -2.16101,-0.94603 -1.34965,-2.29872c1.74112,-2.90273 7.90262,-7.52511 7.90262,-7.52511c0,0 -4.94733,6.8086 1.85688,8.38324c8.55514,1.97984 29.26698,-1.13777 29.27569,-0.61048z" fill="#8f8621" stroke="none" stroke-width="0" stroke-linecap="butt"/><path d="M342.16783,149.74095c0,0 -2.94677,1.01324 -8.72196,1.85149c-7.66083,1.11194 -12.1026,1.01581 -19.81669,0.37001" fill="none" stroke="#524d14" stroke-width="0.75" stroke-linecap="round"/><path d="M327.82733,158.2415c0,0 -17.28465,0.77597 -25.58964,0.85202c-9.63094,0.0882 -28.60957,-0.3571 -28.60957,-0.3571c0,0 7.7443,-3.04484 12.30642,-4.67979c3.46986,-1.2435 9.88631,-3.43607 14.16156,-4.88903c2.61642,-0.88919 4.1798,-1.58778 5.93096,-3.72547c2.20736,-2.69457 6.69103,-7.12029 13.77821,-9.51131c2.8572,-0.96393 4.54773,-1.42323 7.56019,-1.55693c3.2812,-0.14562 5.16086,0.22158 8.34137,1.04128c6.83379,1.76127 11.46229,5.50203 13.8358,7.86421c1.95869,1.94932 3.58479,2.48595 6.27783,3.10558c4.40044,1.01245 11.00597,2.54385 14.58392,3.42948c4.70425,1.16442 12.71712,3.40921 12.71712,3.40921c0,0 -18.83592,2.36534 -28.42627,3.25309c-8.26998,0.76552 -25.54432,1.7443 -25.54432,1.7443z" fill="none" stroke="#000000" stroke-width="1.5" stroke-linecap="round"/></g><path d="M324.46437,134.75783c0,0 -0.09618,-2.19931 -0.31509,-3.36379c-0.28827,-1.53329 -1.26441,-5.03781 -1.26441,-5.03781l2.49448,-0.3305c0,0 0.16631,3.19645 0.16192,4.70675c-0.00384,1.32241 0.35144,3.99973 0.35144,3.99973z" fill="#000000" stroke="#000000" stroke-width="1.5" stroke-linecap="butt"/><path d="M334.37083,138.21413c5.94017,1.53274 9.23973,4.26849 9.14907,4.65674c-0.09065,0.38826 -3.41218,-1.87674 -9.35236,-3.40948c-5.94017,-1.53274 -9.66238,-1.77258 -9.57174,-2.16084c0.09065,-0.38826 3.83482,-0.61916 9.77501,0.91358z" fill="#faefbe" stroke="none" stroke-width="0" stroke-linecap="butt"/><path d="M369.28331,152.29176c0,0 -8.37134,-0.41614 -12.9318,-2.07328c-4.56048,-1.65714 -7.86349,-3.1563 -7.72876,-3.52708c0.13472,-0.37077 3.08381,0.66628 7.64428,2.32341c4.56048,1.65714 13.01629,3.27695 13.01629,3.27695z" fill="#faefbe" stroke="none" stroke-width="0" stroke-linecap="butt"/><g stroke-linecap="butt"><path d="M342.36991,145.24633c0.22166,-2.69347 2.65576,-4.78986 5.59095,-4.67092c2.93517,0.11894 5.03038,2.39651 4.92096,5.09689c-0.10942,2.70036 -2.34768,4.91986 -5.55819,4.82893c-3.05377,-0.08649 -5.18523,-2.44194 -4.95373,-5.25489z" fill="#ffffff" stroke="#000000" stroke-width="1.4"/><path d="M342.20849,146.6465c0.06303,-1.55564 1.37523,-2.76564 2.93089,-2.70261c1.55564,0.06303 2.76565,1.37524 2.70262,2.93089c-0.06303,1.55564 -1.37523,2.76564 -2.93087,2.70261c-1.55564,-0.06303 -2.76565,-1.37524 -2.70262,-2.93089z" fill="#000000" stroke="none" stroke-width="1.5"/></g><g stroke-linecap="butt"><path d="M300.8762,147.66284c0.14857,-2.69849 2.8704,-4.82406 5.8343,-4.66091c2.9639,0.16317 4.88757,2.54681 4.73902,5.24531c-0.14857,2.69849 -2.47267,4.76185 -5.43658,4.59869c-2.9639,-0.16317 -5.2853,-2.48458 -5.13675,-5.18309z" fill="#ffffff" stroke="#000000" stroke-width="1.4"/><path d="M300.92292,148.97719c0.08378,-1.52162 1.38519,-2.68722 2.9068,-2.60345c1.52162,0.08378 2.68723,1.38519 2.60346,2.9068c-0.08378,1.52162 -1.38519,2.68722 -2.9068,2.60345c-1.52162,-0.08378 -2.68723,-1.38519 -2.60346,-2.9068z" fill="#000000" stroke="none" stroke-width="1.5"/></g></g></g></svg>