<svg version="1.1" xmlns="http://www.w3.org/2000/svg" xmlns:xlink="http://www.w3.org/1999/xlink" width="117.68873" height="109.88266" viewBox="0,0,117.68873,109.88266"><g transform="translate(-185.07978,-119.57404)"><g data-paper-data="{&quot;isPaintingLayer&quot;:true}" fill-rule="nonzero" stroke-linejoin="miter" stroke-miterlimit="10" stroke-dasharray="" stroke-dashoffset="0" style="mix-blend-mode: normal"><g stroke-linecap="butt"><path d="M288.37501,207.45834c5.61856,4.91681 -4.86394,15.26507 -13.16667,16.91667c-13.24449,2.63463 -21.5,-5.58333 -21.5,-5.58333l6,-4.41667c0,0 5.91723,3.95885 11.501,1.66911c6.88667,-2.82402 10.29427,-14.59894 17.16566,-8.58578z" fill="#ecec68" stroke="#000000" stroke-width="2"/><path d="M276.6304,211.15283l4.33946,-4.67009l8.14976,7.57279l-4.33946,4.67008z" fill="#000000" stroke="none" stroke-width="0"/><path d="M271.19664,216.2758l4.50931,-3.08252l4.09743,9.23928l-5.50931,2.08252z" fill="#000000" stroke="none" stroke-width="0"/><path d="M263.35949,216.07028l5.60739,0.59853l-1.57637,8.46927l-6.35739,-1.72354z" fill="#000000" stroke="none" stroke-width="0"/></g><g data-paper-data="{&quot;index&quot;:null}" stroke-linecap="butt"><path d="M263.48254,210.65006c3.79155,2.92137 4.51895,6.84775 2.72119,9.18102c-1.79776,2.33327 -6.99547,1.96764 -10.78703,-0.95373c-3.79155,-2.92137 -4.74117,-7.2922 -2.94341,-9.62546c1.79776,-2.33327 7.21769,-1.52319 11.00925,1.39818z" fill="#ecec68" stroke="#000000" stroke-width="2"/><path d="M259.55187,220.79263l6.11741,-7.29303c0,0 3.15807,2.96033 0.90032,6.34629c-1.93947,2.90865 -7.01773,0.94673 -7.01773,0.94673z" fill="#000000" stroke="none" stroke-width="0"/><path d="M253.44076,216.90374l7.33963,-8.29303l2.78921,2.12408l-7.0063,8.62636z" fill="#000000" stroke="none" stroke-width="0"/></g><g stroke-linecap="butt"><path d="M230.17079,208.02966c1.79776,2.33327 0.84814,6.7041 -2.94341,9.62546c-3.79155,2.92137 -8.98926,3.287 -10.78702,0.95373c-1.79776,-2.33327 -1.07036,-6.25965 2.72119,-9.18102c3.79155,-2.92137 9.21148,-3.73145 11.00924,-1.39818z" fill="#ecec68" stroke="#000000" stroke-width="2"/><path d="M216.07448,218.62367c-2.25775,-3.38597 0.90032,-6.34629 0.90032,-6.34629l6.11741,7.29303c0,0 -5.07826,1.96191 -7.01773,-0.94674z" fill="#000000" stroke="none" stroke-width="0"/><path d="M226.08078,218.13892l-7.0063,-8.62636l2.78921,-2.12407l7.33963,8.29303z" fill="#000000" stroke="none" stroke-width="0"/></g><path d="M240.91495,226.18343c0,0.7405 -3.6377,1.8081 -9.04974,1.77241c-5.91985,-0.03904 -8.28349,-1.2374 -8.59956,-1.91835c-1.38426,-2.98226 0.39895,-5.24797 8.5651,-5.10799c4.02776,0.06904 7.27771,0.47006 8.5305,1.30635c1.39536,0.93146 0.5537,2.37617 0.5537,3.94758z" fill="#c5c556" stroke="#9b9b44" stroke-width="3" stroke-linecap="butt"/><path d="M250.09349,220.92949c8.16615,-0.13998 9.94936,2.12573 8.5651,5.10799c-0.31292,0.67415 -2.25852,2.13538 -8.35773,1.80566c-6.6718,-0.36067 -9.29157,-0.91172 -9.29157,-1.65972c0,-1.57638 -0.72955,-3.24678 0.67809,-4.17864c1.25539,-0.83106 4.39253,-1.0065 8.40611,-1.0753z" data-paper-data="{&quot;index&quot;:null}" fill="#c5c556" stroke="#9b9b44" stroke-width="3" stroke-linecap="butt"/><path d="M241.68734,219.36999c-6.67004,0.08177 -14.65905,0.16354 -14.8262,-0.84771c-0.62812,-3.80007 5.58333,-17.32891 5.58333,-17.32891l17.34171,-0.44122c0,0 5.49496,15.18096 5.74163,17.06643c0.24667,1.88547 -6.60945,1.46275 -13.84047,1.55141z" fill="#000000" stroke="#6e6e30" stroke-width="3" stroke-linecap="butt"/><g stroke="none" stroke-width="0" stroke-linecap="butt"><path d="M240.90283,207.6611c-46.08333,-5.45785 -53.93395,-35.39418 -53.93395,-35.39418c0,0 7.02123,-0.81708 12.7933,-7.48095c12.76792,-14.74064 21.8664,-42.26695 49.19547,-39.2444c28.54408,3.15693 30.92355,29.8247 40.40739,48.0888c3.81986,7.30811 11.25784,12.54572 11.25784,12.54572c0,0 -12.80955,27.04082 -59.72005,21.485z" fill="#ecec68"/><path d="M299.77419,184.81875c0,0 -4.34057,11.06115 -16.52912,17.04971c-12.64256,6.21165 -31.96826,5.32299 -31.96826,5.32299c0,0 19.17094,-9.61282 21.6895,-41.43557c1.44003,-18.19532 -11.47924,-37.58043 -11.47924,-37.58043c0,0 10.35069,6.42834 16.7817,17.61831c5.13982,8.9433 6.54277,19.63193 9.89592,24.70906c1.63612,2.4773 2.4586,5.65489 4.38612,7.99342c3.1708,3.84685 7.22341,6.3225 7.22341,6.3225z" fill="#cbcb6a"/></g><path d="M203.25168,178.21047c0.35497,-3.04765 3.11335,-5.23048 6.161,-4.8755c3.04765,0.35497 5.23049,3.11334 4.8755,6.16099c-0.35497,3.04765 -3.11335,5.23049 -6.161,4.8755c-3.04765,-0.35497 -5.23049,-3.11335 -4.8755,-6.161z" fill="#6e6e30" stroke="none" stroke-width="0" stroke-linecap="butt"/><path d="M271.88585,186.31657c0.35498,-3.04765 3.11335,-5.23048 6.161,-4.87549c3.04765,0.35497 5.2305,3.11334 4.87551,6.16099c-0.35498,3.04765 -3.11336,5.23049 -6.16101,4.8755c-3.04765,-0.35497 -5.23049,-3.11335 -4.8755,-6.161z" fill="#6e6e30" stroke="none" stroke-width="0" stroke-linecap="butt"/><g stroke="none" stroke-width="0" stroke-linecap="butt"><path d="M222.05571,134.65701l-10.33823,14.56842c0,0 -1.49221,-0.61948 -4.14469,-1.47429c-3.60504,-1.16178 -8.88361,-3.12998 -11.10918,-8.02093c-4.05273,-8.90625 0.55584,-14.6666 3.32211,-17.03059c2.89744,-2.47609 9.23068,-4.71099 15.20979,-1.61728c4.75995,2.46292 5.85989,6.72378 6.37618,9.78911c0.37661,2.23603 0.68406,3.78553 0.68406,3.78553z" fill="#000000"/><path d="M203.93555,134.64386c0.44196,-3.79432 3.87612,-6.51195 7.67045,-6.06999c3.79432,0.44196 6.51194,3.87612 6.06999,7.67044c-0.44196,3.79432 -3.87611,6.51196 -7.67044,6.07c-3.79432,-0.44196 -6.51196,-3.87612 -6.07,-7.67045z" fill="#cbcb6a"/></g><path d="M240.90282,207.66111c-46.08333,-5.45785 -53.93395,-35.39418 -53.93395,-35.39418c0,0 7.02123,-0.81708 12.7933,-7.48095c12.76792,-14.74064 21.8664,-42.26695 49.19547,-39.2444c28.54408,3.15693 30.15122,29.80518 39.74521,48.01166c5.11185,9.70078 11.92003,12.62286 11.92003,12.62286c0,0 -12.80955,27.04082 -59.72004,21.485z" fill="none" stroke="#000000" stroke-width="3" stroke-linecap="butt"/><g data-paper-data="{&quot;index&quot;:null}" stroke="none" stroke-width="0" stroke-linecap="butt"><path d="M275.56753,140.88984c0,0 0.65535,-1.43735 1.53579,-3.52698c1.20697,-2.86461 3.25678,-6.75859 8.45538,-8.06159c6.53006,-1.6367 12.18013,1.994 14.43091,5.06971c2.14887,2.93648 5.31015,9.60185 -0.68104,17.33823c-3.29012,4.24851 -8.87971,4.95083 -12.65527,5.25294c-2.77796,0.22228 -4.37259,0.48222 -4.37259,0.48222l-6.71315,-16.5545z" fill="#000000"/><path d="M285.53519,151.11169c-3.79431,-0.44196 -6.51195,-3.87612 -6.06999,-7.67045c0.44196,-3.79432 3.87612,-6.51195 7.67044,-6.06998c3.79431,0.44196 6.51196,3.87612 6.06999,7.67044c-0.44196,3.79432 -3.87611,6.51196 -7.67044,6.06999z" fill="#cbcb6a"/></g><path d="M242.80379,124.75693l13.00795,1.7668c0,0 -1.32111,9.02177 -4.09558,16.71194c-2.0949,5.80658 -4.77447,10.82175 -4.77447,10.82175c0,0 -2.31903,-4.88898 -3.1967,-11.72305c-0.6624,-5.15774 -0.94119,-17.57741 -0.94119,-17.57741z" fill="#000000" stroke="none" stroke-width="0" stroke-linecap="butt"/><path d="M233.73338,143.20643c0,0 4.98557,-7.09897 14.80263,-6.07823c10.06647,1.04666 12.51271,9.25984 12.51271,9.25984z" fill="#000000" stroke="none" stroke-width="0" stroke-linecap="butt"/><path d="M232.61206,133.38574c0,0 5.46648,-7.54632 16.88765,-6.33876c11.71136,1.23825 14.89744,10.04097 14.89744,10.04097z" fill="#000000" stroke="none" stroke-width="0" stroke-linecap="butt"/><g fill="#000000" stroke="none" stroke-width="0" stroke-linecap="butt"><path d="M192.87015,182.87011c0,0 -4.83966,-6.91805 -4.7263,-9.24135c0.09505,-1.94832 5.3612,-3.77258 5.3612,-3.77258c0,0 3.35445,3.26908 8.59087,5.9487c4.39472,2.24892 8.97503,3.14462 8.97503,3.14462c0,0 -2.35882,2.79157 -7.61952,3.54453c-7.69786,1.1018 -10.58128,0.37605 -10.58128,0.37605z"/><path d="M194.30932,184.88634c0,0 8.33011,2.61309 13.56564,2.76734c4.39396,0.12947 8.42012,-0.90035 8.42012,-0.90035c0,0 -0.03995,3.13658 -4.21087,6.33133c-2.35581,1.80447 -4.66323,2.79895 -6.03423,3.42036c-0.75233,-0.51415 -2.21433,-1.4483 -2.9172,-1.88671c-0.59072,-0.36845 -1.41362,-1.42755 -2.37076,-2.6936c-0.72977,-1.66262 -1.90255,-3.10303 -3.38634,-4.15452c-0.02587,-0.01834 -0.0518,-0.03653 -0.07787,-0.05462c0.71005,-0.89052 -2.98848,-2.82923 -2.98848,-2.82923z"/><path d="M215.84484,197.34292c4.27876,-2.04637 6.80228,-4.7609 6.80228,-4.7609c0,0 1.05697,3.07788 -0.76956,7.44328c-0.66397,1.58689 -1.27848,2.89514 -1.82715,3.96525c-2.03628,-1.4169 -4.27174,-2.38516 -6.7651,-3.75369c-0.20883,-0.11461 -2.42692,-1.56775 -2.68269,-1.64205c1.10168,-0.52514 3.34183,-0.34296 5.24226,-1.25188z"/></g><g data-paper-data="{&quot;index&quot;:null}" fill="#000000" stroke="none" stroke-width="0" stroke-linecap="butt"><path d="M282.22844,191.41804c-4.94681,-1.94191 -6.60089,-5.20088 -6.60089,-5.20088c0,0 4.6636,0.18098 9.45753,-0.99766c5.71211,-1.40438 9.7281,-3.815 9.7281,-3.815c0,0 4.70587,2.98577 4.3506,4.90376c-0.42365,2.28716 -6.72373,7.90769 -6.72373,7.90769c0,0 -2.97303,0.0436 -10.21162,-2.79794z"/><path d="M289.45707,198.57579c-0.02951,0.01161 -0.86177,0.43323 -0.89115,0.44512c-1.68577,0.68232 -4.7952,0.74304 -5.88756,2.19344c-0.21037,0.1742 1.68928,1.72107 1.49051,1.88286c-0.95626,0.77841 -3.8708,0.00928 -4.41687,0.19375c-0.78483,0.26513 -2.42235,0.83825 -3.27272,1.16574c-1.19149,-0.91988 -3.20858,-2.41807 -5.08659,-4.71567c-3.325,-4.06786 -2.64298,-7.12964 -2.64298,-7.12964c0,0 3.68169,1.92761 7.98777,2.81145c5.13081,1.05316 14.73655,0.2775 14.73655,0.2775c0,0 -2.5033,1.84556 -2.01695,2.87544z"/><path d="M271.56822,205.44415c-0.26599,0.01352 -2.75869,0.91797 -2.98826,0.98149c-2.74115,0.75884 -5.13931,1.18738 -7.44673,2.09835c-0.28803,-1.16757 -0.58543,-2.58204 -0.8669,-4.27905c-0.77432,-4.66831 0.96174,-7.42089 0.96174,-7.42089c0,0 1.83204,3.22188 5.52594,6.19688c1.64065,1.32136 3.86271,1.65894 4.8142,2.4232z"/></g><g fill="#000000" stroke="none" stroke-width="0" stroke-linecap="butt"><path d="M228.77245,166.35038c-0.99438,8.53721 -5.69169,15.00477 -10.49174,14.44567c-4.80004,-0.55909 -7.88514,-7.9331 -6.89075,-16.47032c0.99438,-8.5372 5.69169,-15.00477 10.49174,-14.44567c4.80004,0.55909 7.88514,7.9331 6.89075,16.47032z"/><path d="M217.92124,171.78143c-0.14694,1.26173 -4.49095,1.38975 -4.49095,1.38975c0,0 -1.10251,-0.59967 -2.54641,-1.38083c-1.8807,-1.01747 -4.19415,-2.39582 -3.9091,-3.70016c0.33242,-1.52104 2.76951,-1.03776 4.64969,-0.62211c1.40049,0.30959 2.419,0.43869 2.419,0.43869c0,0 4.02472,2.61293 3.87778,3.87465z"/></g><g data-paper-data="{&quot;index&quot;:null}" fill="#000000" stroke="none" stroke-width="0" stroke-linecap="butt"><path d="M271.44491,156.05569c4.80005,0.55909 7.88513,7.9331 6.89074,16.47031c-0.99438,8.53721 -5.69168,15.00478 -10.49172,14.44568c-4.80005,-0.55909 -7.88514,-7.93311 -6.89075,-16.47032c0.99438,-8.5372 5.69169,-15.00477 10.49173,-14.44567z"/><path d="M274.93015,175.40133c0,0 1.02091,0.10845 2.45509,0.12902c1.92536,0.02763 4.40828,0.11741 4.38221,1.67413c-0.02234,1.33491 -2.59067,2.14469 -4.65487,2.70265c-1.58479,0.4284 -2.79563,0.75861 -2.79563,0.75861c0,0 -4.19827,-1.12301 -4.0513,-2.38473c0.14695,-1.26173 4.66449,-2.87967 4.66449,-2.87967z"/></g><path d="M221.93192,161.75322c-0.39251,3.36982 -2.2354,5.92404 -4.11625,5.70495c-1.88083,-0.21907 -3.08736,-3.12845 -2.69486,-6.49829c0.39251,-3.36982 2.23539,-5.92401 4.11624,-5.70491c1.88083,0.21907 3.08737,3.12843 2.69487,6.49826z" fill="#ffffff" stroke="none" stroke-width="0" stroke-linecap="butt"/><path d="M271.06162,167.18801c-0.39252,3.36982 -2.23539,5.92403 -4.11624,5.70494c-1.88084,-0.21907 -3.08736,-3.12846 -2.69486,-6.49828c0.39252,-3.36982 2.23539,-5.92402 4.11624,-5.70492c1.88084,0.21907 3.08736,3.12844 2.69486,6.49826z" fill="#ffffff" stroke="none" stroke-width="0" stroke-linecap="butt"/><path d="M232.40919,171.81867c0.76219,-6.54372 6.6848,-11.23059 13.22852,-10.4684c6.54372,0.76219 11.23059,6.68481 10.4684,13.22853c-0.76219,6.54372 -6.6848,11.23059 -13.22853,10.4684c-6.54372,-0.76219 -11.23059,-6.68481 -10.4684,-13.22853z" fill="#6e6e30" stroke="none" stroke-width="0" stroke-linecap="butt"/><path d="M219.19439,172.90822c0.1207,-1.0362 1.05855,-1.77836 2.09473,-1.65765c1.0362,0.1207 1.77837,1.05855 1.65767,2.09473c-0.1207,1.0362 -1.05856,1.77837 -2.09474,1.65767c-1.0362,-0.1207 -1.77837,-1.05855 -1.65767,-2.09474z" fill="#6e6e30" stroke="none" stroke-width="0" stroke-linecap="butt"/><path d="M268.91758,179.14724c0.1207,-1.0362 1.05855,-1.77836 2.09473,-1.65766c1.0362,0.1207 1.77837,1.05855 1.65767,2.09473c-0.1207,1.0362 -1.05855,1.77837 -2.09474,1.65767c-1.0362,-0.1207 -1.77837,-1.05856 -1.65767,-2.09474z" fill="#6e6e30" stroke="none" stroke-width="0" stroke-linecap="butt"/><path d="M253.18188,177.51016c0,0 -1.89666,3.2424 -6.01573,1.81244c-2.92111,-1.01407 -2.86458,-4.10817 -2.86458,-4.10817c0,0 -1.10708,3.4646 -4.04038,3.45022c-4.19259,-0.02054 -5.80544,-3.16782 -5.80544,-3.16782" fill="none" stroke="#000000" stroke-width="2" stroke-linecap="round"/><g stroke="none" stroke-width="0" stroke-linecap="butt"><path d="M251.81951,169.75883c-0.26359,2.26287 -4.55306,6.53978 -7.78974,6.01416c-3.23576,-0.52545 -6.62811,-5.39993 -6.36455,-7.66279c0.26359,-2.26287 3.52945,-4.24516 7.52949,-3.77927c4.00002,0.46592 6.8884,3.16503 6.62483,5.42791z" fill="#000000"/><path d="M249.26716,168.62256c-0.10916,0.93715 -2.21737,1.46162 -4.7088,1.17141c-2.49147,-0.2902 -4.42269,-1.28517 -4.31352,-2.22231c0.10916,-0.93715 1.4702,-1.52351 4.88402,-1.2349c3.33067,0.28155 4.24749,1.34863 4.13834,2.2858z" fill="#ffffff"/></g></g></g></svg>