<svg version="1.1" xmlns="http://www.w3.org/2000/svg" xmlns:xlink="http://www.w3.org/1999/xlink" width="128.47078" height="256.0266" viewBox="0,0,128.47078,256.0266"><g transform="translate(-256.8586,-52.09781)"><g stroke-miterlimit="10"><path d="M261.2376,308.12441v-256.0266h117.5249v256.0266z" fill-opacity="0.01" fill="#000000" stroke="none" stroke-width="2" stroke-linecap="butt"/><path d="M381.30422,276.85289c0,6.92408 -5.61307,12.53715 -12.53715,12.53715c-6.92408,0 -12.53715,-5.61307 -12.53715,-12.53715c0,-6.92408 5.61308,-12.53715 12.53715,-12.53715c6.92408,0 12.53715,5.61307 12.53715,12.53715z" fill="#ffffff" stroke="#000000" stroke-width="1.5" stroke-linecap="butt"/><path d="M287.09988,276.14987c0,6.92408 -5.61307,12.53715 -12.53715,12.53715c-6.92408,0 -12.53715,-5.61307 -12.53715,-12.53715c0,-6.92408 5.61308,-12.53715 12.53715,-12.53715c6.92408,0 12.53715,5.61307 12.53715,12.53715z" fill="#ffffff" stroke="#000000" stroke-width="1.5" stroke-linecap="butt"/><path d="M349.83538,162.97839c11.70638,-2.32294 17.36579,7.54597 25.21189,47.08616c7.84608,39.54019 15.09819,65.03593 3.39179,67.35887c-2.45172,0.4865 -17.75901,3.49541 -20.12294,1.65727c-8.92325,-6.93856 -8.86526,-31.86041 -15.06812,-63.11951c-7.84608,-39.54019 -5.11902,-50.65985 6.58737,-52.98279z" fill="#c5c556" stroke="#8d8d3e" stroke-width="1.5" stroke-linecap="butt"/><path d="M298.31552,214.08646c-6.20285,31.2591 -6.14487,56.18095 -15.06812,63.11951c-2.36393,1.83815 -16.73385,-0.93643 -19.18558,-1.42293c-11.7064,-2.32294 -5.39165,-28.05302 2.45443,-67.59321c7.8461,-39.54019 13.5055,-49.40909 25.21189,-47.08616c11.7064,2.32294 14.43346,13.4426 6.58737,52.98279z" fill="#c5c556" stroke="#8d8d3e" stroke-width="1.5" stroke-linecap="butt"/><path d="M351.6017,201.80575c0,30.18768 -7.306,46.92643 -34.09636,46.92643c-26.79034,0 -27.7692,-15.68423 -27.7692,-45.8719c0,-30.18768 2.7364,-54.65962 29.52674,-54.65962c26.79036,0 32.33881,23.41742 32.33881,53.6051z" fill="#c5c556" stroke="none" stroke-width="1.5" stroke-linecap="butt"/><path d="M364.95903,259.10169c0,29.41114 -18.65687,42.21637 -46.02813,41.57568c-22.87638,-0.53547 -42.5521,-9.70398 -42.5521,-39.11512c0,-14.54963 1.07598,-35.60164 9.3496,-51.38577c8.45098,-16.12247 19.32285,-29.63702 33.00721,-29.63702c15.59108,0 27.95613,11.95605 37.43185,31.29319c6.98351,14.25126 8.79156,34.79015 8.79156,47.26904z" fill="#c5c556" stroke="none" stroke-width="1.5" stroke-linecap="butt"/><path d="M362.30323,276.43977c0,0 -2.08145,8.54947 -10.57893,15.8899c-7.07568,6.11223 -18.88736,11.24246 -34.98053,11.23522c-25.67017,-0.01156 -37.55287,-20.41269 -37.55287,-24.45358c0,-4.04089 17.07873,17.92587 38.72455,17.92587c21.64583,0 44.38776,-20.59741 44.38776,-20.59741z" fill="#979742" stroke="none" stroke-width="1.5" stroke-linecap="butt"/><path d="M365.56444,182.06267c0,18.50735 -20.42389,33.5105 -45.61803,33.5105c-25.19414,0 -45.61803,-15.00317 -45.61803,-33.5105c0,-18.50735 20.42389,-33.5105 45.61803,-33.5105c25.19414,0 45.61803,15.00317 45.61803,33.5105z" fill="#c5c556" stroke="none" stroke-width="1.5" stroke-linecap="butt"/><path d="M315.86065,200.41996c0,0 -10.82428,8.89672 -21.49894,7.2594c-10.67466,-1.63731 -16.06386,-12.25128 -16.06386,-12.25128c0,0 6.90324,7.97543 17.5779,9.61274c10.67466,1.63731 19.98488,-4.62086 19.98488,-4.62086z" fill="#b6b650" stroke="none" stroke-width="1.5" stroke-linecap="butt"/><path d="M345.72083,204.53165c10.51644,-2.45633 16.78353,-10.94078 16.78353,-10.94078c0,0 -4.5539,10.99826 -15.07034,13.45459c-10.51644,2.45633 -21.9951,-5.5784 -21.9951,-5.5784c0,0 9.76546,5.52092 20.28192,3.06459z" fill="#b6b650" stroke="none" stroke-width="1.5" stroke-linecap="butt"/><path d="M327.24998,203.69999c0,0 -2.76511,-1.39244 -6.56149,-1.39244c-3.79638,0 -7.1864,1.39244 -7.1864,1.39244c0,0 3.07756,-2.81207 6.87394,-2.81207c3.79638,0 6.87395,2.81207 6.87395,2.81207z" fill="#b6b650" stroke="none" stroke-width="1.5" stroke-linecap="butt"/><path d="M289.6663,206.74466c0,0 -13.87746,-4.95085 -15.51214,-23.06008c-1.63006,-18.05797 13.8249,-25.30754 13.8249,-25.30754" fill="none" stroke="#8d8d3e" stroke-width="1.5" stroke-linecap="round"/><path d="M352.50392,154.87932c0,5.35808 -14.37366,9.70164 -32.10447,9.70164c-17.73081,0 -32.10448,-4.34358 -32.10448,-9.70164c0,-5.35808 14.37367,-9.70164 32.10448,-9.70164c17.73081,0 32.10447,4.34358 32.10447,9.70164z" fill="#b0b04d" stroke="none" stroke-width="0" stroke-linecap="butt"/><path d="M349.13257,156.81438c1.02579,12.00307 -29.28423,25.48024 -29.28423,25.48024c0,0 -27.8358,-13.4876 -29.30026,-24.66341c-0.38338,-2.92583 10.72251,-8.79221 28.87143,-9.54268c20.96892,1.02416 29.57202,7.07549 29.71306,8.72584z" fill="#ffffff" stroke="none" stroke-width="1.5" stroke-linecap="butt"/><path d="M305.09918,168.66214c6.64734,5.08505 14.68207,13.59359 14.68207,13.59359c0,0 -9.61018,0.82311 -20.63839,-9.50781c-14.4471,-13.53361 -8.779,-15.7134 -7.6519,-17.18679c1.12709,-1.47338 6.96086,8.01595 13.60821,13.101z" fill="#b0b04d" stroke="none" stroke-width="1.5" stroke-linecap="butt"/><path d="M349.30728,155.43499c1.13243,1.5515 6.94923,3.94006 -8.32165,17.61339c-11.65706,10.43755 -21.58628,9.36158 -21.58628,9.36158c0,0 8.51577,-8.62078 15.51553,-13.72994c6.99978,-5.10914 13.25995,-14.79654 14.39239,-13.24504z" fill="#b0b04d" stroke="none" stroke-width="1.5" stroke-linecap="butt"/><path d="M319.45307,184.69612c0,0 -0.13223,-5.459 0.67053,-9.31551c0.66711,-3.20477 4.17225,-7.55014 4.17225,-7.55014c0,0 -2.9199,4.32095 -3.35555,7.65425c-0.51708,3.95622 0.09984,9.28725 0.09984,9.28725z" fill="#bfbfbf" stroke="none" stroke-width="1.5" stroke-linecap="butt"/><path d="M293.59938,157.62612c0.95769,2.87306 0.63918,5.5671 -0.7114,6.0173c-1.3506,0.4502 -3.22182,-1.51392 -4.1795,-4.38698c-0.95769,-2.87306 -0.63918,-5.5671 0.71141,-6.0173c1.3506,-0.4502 3.2218,1.51392 4.1795,4.38698z" fill="#b0b04d" stroke="none" stroke-width="0" stroke-linecap="butt"/><path d="M349.95349,163.42355c-2.68225,4.42783 -6.14885,7.23452 -7.74285,6.26891c-1.59401,-0.96561 -0.71185,-5.33786 1.9704,-9.76569c2.68225,-4.42783 6.14885,-7.2345 7.74285,-6.26889c1.59401,0.96561 0.71185,5.33784 -1.9704,9.76567z" fill="#b0b04d" stroke="none" stroke-width="0" stroke-linecap="butt"/><path d="M346.12989,166.50255c0,0.8298 -5.62199,6.75743 -11.67098,11.58753c-4.70642,3.75807 -8.96848,6.85169 -15.57901,6.36286c-11.52776,-0.85247 -23.27354,-15.06893 -23.27354,-16.54434c0,-1.47541 18.232,14.01349 23.21813,14.01349c4.98612,0 27.3054,-16.89493 27.3054,-15.41953z" fill="#b0b04d" stroke="none" stroke-width="1.5" stroke-linecap="butt"/><path d="M296.26253,169.9239l0.09374,-9.84225" fill="none" stroke="#8d8d3e" stroke-width="0.5" stroke-linecap="round"/><path d="M352.12899,158.67565c0,0 -4.6302,9.7909 -14.41763,16.87467c-11.11533,8.86418 -18.01493,8.90264 -18.01493,8.90264h0.18747c0,0 -6.80586,0.05527 -17.92119,-8.80891c-5.94425,-4.74038 -9.68231,-8.91272 -13.10532,-16.21852c-1.34456,-2.86973 -0.36768,-6.66173 1.40604,-7.59259c2.14984,-1.12826 6.80906,-6.28717 29.62881,-6.56218c37.02181,-0.44618 32.23675,13.31113 32.23675,13.31113z" fill="none" stroke="#8d8d3e" stroke-width="1.5" stroke-linecap="round"/><path d="M347.44221,154.83247c0,0 -4.95388,7.22649 -8.66264,10.83328c-4.99497,4.85766 -18.61445,16.16259 -18.61445,16.16259c0,0 -14.08815,-11.49241 -19.08312,-16.35007c-3.70876,-3.6068 -8.66264,-10.83328 -8.66264,-10.83328" fill="none" stroke="#8d8d3e" stroke-width="1.5" stroke-linecap="round"/><path d="M301.1368,165.51833l-0.09374,9.84225" fill="none" stroke="#8d8d3e" stroke-width="1.5" stroke-linecap="round"/><path d="M307.04215,171.14247l-0.18747,8.155" fill="none" stroke="#8d8d3e" stroke-width="1.5" stroke-linecap="round"/><path d="M344.25518,159.51924l0.09374,9.84225" fill="none" stroke="#8d8d3e" stroke-width="0.5" stroke-linecap="round"/><path d="M340.03711,164.11229l0.09374,9.84225" fill="none" stroke="#8d8d3e" stroke-width="1.5" stroke-linecap="round"/><path d="M334.13176,169.73644l0.18748,8.155" fill="none" stroke="#8d8d3e" stroke-width="1.5" stroke-linecap="round"/><path d="M313.88483,177.04782l-0.18748,5.43667" fill="none" stroke="#8d8d3e" stroke-width="1.5" stroke-linecap="round"/><path d="M319.97768,183.98426v-2.15592" fill="none" stroke="#8d8d3e" stroke-width="1.5" stroke-linecap="round"/><path d="M328.32015,181.26592v-5.90535" fill="none" stroke="#8d8d3e" stroke-width="1.5" stroke-linecap="round"/><path d="M292.51313,165.4246l-0.09374,-9.74852" fill="none" stroke="#8d8d3e" stroke-width="0.5" stroke-linecap="round"/><path d="M347.25471,165.23712l0.09374,-9.56104" fill="none" stroke="#8d8d3e" stroke-width="0.5" stroke-linecap="round"/><path d="M352.76383,159.2162c0,0 15.17749,7.81382 12.88352,25.79951c-2.3005,18.03675 -16.35086,21.91075 -16.35086,21.91075" fill="none" stroke="#8d8d3e" stroke-width="1.5" stroke-linecap="round"/><path d="M353.1973,205.55911c0,0 6.69322,13.81781 9.86967,31.29631c1.25134,6.88554 1.6491,19.78664 1.08374,28.18768c-0.59966,8.91076 -3.29832,13.91106 -3.29832,13.91106c0,0 -9.17621,25.41256 -40.90588,24.66436c-34.46245,-0.81265 -40.65014,-24.03946 -40.65014,-24.03946c0,0 -2.22999,-4.84407 -2.82965,-13.75484c-0.56537,-8.40103 -0.32384,-20.67724 0.92751,-27.56278c3.17644,-17.47851 9.55722,-32.07745 9.55722,-32.07745" fill="none" stroke="#8d8d3e" stroke-width="1.5" stroke-linecap="round"/><path d="M361.50255,277.36062c0,0 -20.63492,18.88092 -42.02588,19.13877c-24.33094,0.29328 -40.30531,-17.73273 -40.30531,-17.73273" fill="none" stroke="#8d8d3e" stroke-width="1.5" stroke-linecap="round"/><path d="M289.79478,293.9206l-0.78114,-7.03018" fill="none" stroke="#8d8d3e" stroke-width="1.5" stroke-linecap="round"/><path d="M302.13663,300.32586l0.15622,-6.24904" fill="none" stroke="#8d8d3e" stroke-width="1.5" stroke-linecap="round"/><path d="M319.94642,302.66926v-5.78037" fill="none" stroke="#8d8d3e" stroke-width="1.5" stroke-linecap="round"/><path d="M336.1939,300.95077l-0.15622,-7.81131" fill="none" stroke="#8d8d3e" stroke-width="1.5" stroke-linecap="round"/><path d="M348.84825,293.45191l0.31245,-6.24904" fill="none" stroke="#8d8d3e" stroke-width="1.5" stroke-linecap="round"/><path d="M356.65953,281.4225l-0.46867,4.843" fill="none" stroke="#8d8d3e" stroke-width="1.5" stroke-linecap="round"/><path d="M319.9118,177.57386c0,0 -0.53621,-2.82777 -1.43323,-4.77048c-0.75577,-1.63682 -2.94119,-3.38222 -2.94119,-3.38222c0,0 2.48893,1.66436 3.34265,3.19839c1.02734,1.846 1.83214,4.66182 1.83214,4.66182z" fill="#bfbfbf" stroke="none" stroke-width="1.5" stroke-linecap="butt"/><path d="M293.35005,154.47029c0,0 17.60001,-7.63363 26.79972,-7.65036c9.13314,-0.0166 26.50027,7.65036 26.50027,7.65036" fill="none" stroke="#000000" stroke-width="1" stroke-linecap="round"/><path d="M349.40652,105.33148c0,18.72958 -13.06134,33.91291 -29.17335,33.91291c-16.112,0 -29.17334,-15.18333 -29.17334,-33.91291c0,-18.72958 13.06134,-33.42212 29.17334,-33.42212c16.112,0 29.17335,14.69254 29.17335,33.42213z" fill="#000000" stroke="none" stroke-width="1" stroke-linecap="butt"/><path d="M332.38141,83.00613c0.17734,5.84829 -5.42299,4.32602 -12.7689,4.32602c-7.34588,0 -13.83295,1.52227 -13.83295,-4.32602c0,-6.62079 6.30971,-5.25302 13.65562,-5.25302c7.34588,0 12.72679,-1.98324 12.94623,5.25302z" fill="#c5c556" stroke="#9b9b44" stroke-width="1" stroke-linecap="butt"/><path d="M334.17039,86.29942c19.79365,0 31.17521,16.13348 31.17521,35.07527c0,13.23484 -23.5731,34.24152 -23.5731,34.24152c0,0 -43.44169,-16.07786 -43.44169,-35.01965c0,-18.94179 16.04593,-34.29715 35.83958,-34.29715z" fill="#000000" stroke="none" stroke-width="1" stroke-linecap="butt"/><path d="M341.44536,119.86023c0,18.94179 -43.44169,35.01965 -43.44169,35.01965c0,0 -23.57309,-21.00668 -23.57309,-34.24152c0,-18.94179 11.38156,-35.07527 31.17521,-35.07527c19.79365,0 35.83958,15.35536 35.83958,34.29715z" fill="#000000" stroke="none" stroke-width="1" stroke-linecap="butt"/><path d="M283.88622,132.19071c-1.46063,-5.63703 -1.64633,-9.55348 0.54097,-9.80784c2.1873,-0.25438 3.04575,2.33313 4.20559,8.20174c1.15985,5.86862 3.69625,10.41576 3.69625,10.41576c0,0 -7.05462,-3.45226 -8.44281,-8.80967z" fill="#ffffff" stroke="#000000" stroke-width="1" stroke-linecap="butt"/><path d="M290.60322,137.12554c0,0 -4.01544,-2.86952 -4.86533,-8.29491c-0.47411,-3.02646 2.43004,-2.23815 2.43004,-2.23815" fill="none" stroke="#000000" stroke-width="0.5" stroke-linecap="round"/><path d="M351.93671,130.58461c1.15984,-5.86862 2.01827,-8.45611 4.20558,-8.20174c2.18731,0.25437 2.00159,4.1708 0.54097,9.80784c-1.38819,5.35741 -8.558,8.91872 -8.558,8.91872c0,0 2.65163,-4.65621 3.81146,-10.52483z" fill="#ffffff" stroke="#000000" stroke-width="1" stroke-linecap="butt"/><path d="M352.40152,126.59249c0,0 2.90415,-0.78832 2.43005,2.23815c-0.84989,5.42539 -4.86533,8.29491 -4.86533,8.29491" fill="none" stroke="#000000" stroke-width="0.5" stroke-linecap="round"/><path d="M351.49484,93.89842c0,5.845 -14.45085,10.5833 -32.27689,10.5833c-17.82604,0 -32.27689,-4.7383 -32.27689,-10.5833c0,-5.845 14.45085,-10.5833 32.27689,-10.5833c17.82604,0 32.27689,4.7383 32.27689,10.5833z" fill="#000000" stroke="none" stroke-width="1" stroke-linecap="butt"/><path d="M309.77747,83.77358c0,0 -3.40848,1.41101 -8.63185,2.22909c-5.22338,0.81807 -10.62104,3.07365 -10.62104,3.07365c0,0 5.92793,-3.42625 11.1513,-4.24432c5.22338,-0.81807 8.10159,-1.0584 8.10159,-1.0584z" fill="#f5f5f5" stroke="none" stroke-width="1" stroke-linecap="butt"/><path d="M338.17137,85.29963c5.20429,0.90575 11.05521,4.43103 11.05521,4.43103c0,0 -5.34671,-2.3459 -10.55098,-3.25165c-5.20429,-0.90575 -8.49915,-2.60474 -8.49915,-2.60474c0,0 2.79065,0.51961 7.99492,1.42536z" fill="#f5f5f5" stroke="none" stroke-width="1" stroke-linecap="butt"/><path d="M328.14047,83.89982c0,0 -3.96448,-0.18877 -8.32035,-0.18877c-4.35586,0 -8.32036,0.03776 -8.32036,0.03776c0,0 3.87781,-0.49079 8.23367,-0.49079c4.35586,0 8.40702,0.6418 8.40702,0.6418z" fill="#f5f5f5" stroke="none" stroke-width="1" stroke-linecap="butt"/><path d="M319.18556,85.20339l2.48953,-0.09059l-0.91597,25.81028z" fill="#151515" stroke="none" stroke-width="1" stroke-linecap="butt"/><path d="M289.25629,130.97642c-0.65021,-7.15886 0.37745,-16.83842 0.37745,-16.83842c0,0 1.94383,-4.96625 10.12063,-5.34498c7.87435,-0.52803 20.97591,1.80313 20.97591,1.80313c0,0 10.08657,-2.25132 18.94206,-2.72053c5.36627,-0.28432 10.82891,0.85023 11.75027,1.34737c3.13553,1.69186 0.98725,14.97847 0.63617,20.43399c-0.29797,3.49038 -5.89092,14.76173 -10.38589,25.14351c-2.67143,6.17006 -3.34281,12.0259 -6.10221,15.74743c-7.4024,9.98339 -16.18996,10.68376 -16.18996,10.68376c0,0 -11.26734,-5.55125 -15.56767,-11.87332c-2.04861,-3.01174 -2.8691,-9.00642 -5.0184,-14.33985c-2.36238,-5.8622 -9.18321,-20.1325 -9.53831,-24.04209z" fill="#ffffff" stroke="#000000" stroke-width="1" stroke-linecap="butt"/><g><path d="M334.71805,165.95684c0,0 -10.42959,12.07998 -14.64441,12.07998c-3.29025,0 -14.64441,-12.07998 -14.64441,-12.07998c0,0 2.67168,-6.38835 9.05771,-8.76777c2.77713,-1.03475 5.3385,1.00524 5.3385,1.00524c0,0 2.39798,-1.97617 5.55598,-1.06979c4.95982,1.42351 9.33663,8.83233 9.33663,8.83233z" fill="#8d8d8d" stroke="none" stroke-width="0" stroke-linecap="butt"/><path d="M334.71805,165.95684c0,0 -10.42959,8.64968 -14.64441,8.64968c-3.29025,0 -14.64441,-8.64968 -14.64441,-8.64968c0,0 2.67168,-9.58208 9.05771,-11.9615c2.77713,-1.03475 5.3385,1.00525 5.3385,1.00525c0,0 2.39798,-1.97617 5.55598,-1.0698c4.95982,1.42351 9.33663,12.02605 9.33663,12.02605z" fill="#bababa" stroke="none" stroke-width="0" stroke-linecap="butt"/><path d="M325.65957,174.67101c0,0 -3.39475,3.24849 -5.46503,3.28234c-1.85621,0.09477 -5.6947,-3.2893 -5.6947,-3.2893" fill="none" stroke="#000000" stroke-width="0.5" stroke-linecap="round"/><path d="M312.41285,154.83943c0,0 1.9896,-1.21812 4.00233,-1.0351c1.83146,0.15115 3.53646,1.07792 3.53646,1.07792c0,0 1.76752,-0.92993 3.47767,-1.11828c2.09025,-0.12512 3.82264,1.31204 3.82264,1.31204" fill="none" stroke="#000000" stroke-width="0.5" stroke-linecap="round"/><path d="M334.71805,165.95684c0,0 -10.42959,8.64968 -14.64441,8.64968c-3.29025,0 -14.64441,-8.64968 -14.64441,-8.64968c0,0 2.67168,-6.38835 9.05771,-8.76777c2.77713,-1.03475 5.3385,1.00524 5.3385,1.00524c0,0 2.39798,-1.97617 5.55598,-1.06979c4.95982,1.42351 9.33663,8.83233 9.33663,8.83233z" fill="#000000" stroke="none" stroke-width="0" stroke-linecap="butt"/><path d="M310.83238,159.83682c0,0 2.67477,-2.51938 5.27832,-2.65481c1.59541,-0.08298 3.69486,1.47194 3.69486,1.47194c0,0 1.8615,-1.62053 4.18332,-1.44008c3.2802,0.25494 5.28627,2.66237 5.28627,2.66237c0,0 -3.14733,1.75775 -9.52425,1.83279c-5.28245,0.06215 -8.91854,-1.87222 -8.91854,-1.87222z" fill="#ffffff" stroke="none" stroke-width="0" stroke-linecap="butt"/><path d="M308.82915,167.98244c0,0 4.05786,1.37852 11.14188,1.34058c7.35993,-0.03943 11.69346,-1.34058 11.69346,-1.34058c0,0 -4.33532,3.09962 -7.82251,4.89899c-1.48141,0.7644 -3.12618,1.29414 -3.70549,1.2519c-2.83863,-0.20698 -11.30736,-6.15089 -11.30736,-6.15089z" fill="#ffffff" stroke="none" stroke-width="0" stroke-linecap="butt"/></g><g fill="#000000" stroke-width="0" stroke-linecap="butt"><path d="M314.53587,151.95609c0,0 4.23621,1.14851 6.30808,1.14851c1.87021,0 5.58024,-1.14851 5.58024,-1.14851c0,0 -2.92724,3.56039 -5.70154,3.56039c-2.77429,0 -6.18678,-3.56039 -6.18678,-3.56039z" stroke="#000000"/><path d="M314.59113,151.92882c0.35528,-2.55018 5.0678,-17.81379 5.0678,-17.81379c0,0 -1.13595,6.46472 -1.95,9.54757c-0.4717,1.78638 -1.03475,4.60831 -1.31557,6.7908c-0.19177,1.49041 0.17673,2.80521 0.17673,2.80521c0,0 -2.07647,-0.62978 -1.97895,-1.32978z" stroke="none"/><path d="M324.34663,152.79919c0.10575,-0.85278 0.14318,-3.31841 0.07799,-3.99331c-0.11924,-1.23443 -0.34175,-2.50388 -0.44616,-3.30955c-0.19907,-1.53603 -0.92549,-7.57385 -0.92549,-7.57385c0,0 3.14772,13.37347 3.27261,13.88998c0.12488,0.51652 -2.08571,1.84759 -1.97895,0.98673z" stroke="none"/></g><path d="M317.3096,130.90953c0,0 -5.24542,5.40755 -11.23637,5.40755c-5.99096,0 -10.45878,-5.40755 -10.45878,-5.40755c0,0 4.84014,-7.92317 10.83109,-7.92317c5.99096,0 10.86407,7.92317 10.86407,7.92317z" fill="#ffffff" stroke="#000000" stroke-width="1" stroke-linecap="butt"/><path d="M291.98955,132.43852c0,0 6.87778,-11.19386 14.16181,-11.54541c8.96915,-0.43288 11.32744,9.70195 11.32744,9.70195c0,0 -7.1788,-7.65822 -10.81849,-7.60828c-7.08518,0.4865 -10.91268,8.10444 -10.91268,8.10444l-3.75809,1.34728z" fill="#000000" stroke="none" stroke-width="0" stroke-linecap="butt"/><path d="M297.45338,133.3321l1.71074,0.88345l-3.18818,3.38654z" fill="#000000" stroke="none" stroke-width="0" stroke-linecap="butt"/><path d="M300.24945,134.9882l1.82446,0.64815l-2.65635,3.77555z" fill="#000000" stroke="none" stroke-width="0" stroke-linecap="butt"/><path d="M303.58645,136.2067l1.91518,0.34051l-1.92874,4.15274z" fill="#000000" stroke="none" stroke-width="0" stroke-linecap="butt"/><path d="M306.85057,136.03143l1.93951,-0.17855l-0.62931,4.4972z" fill="#000000" stroke="none" stroke-width="0" stroke-linecap="butt"/><path d="M313.37403,120.38745c0,0 -4.93383,-3.76842 -8.23897,-3.49631c-3.56153,0.29321 -7.42317,5.01852 -7.42317,5.01852c0,0 2.25087,-6.41245 7.20179,-6.82004c4.95091,-0.40759 8.46035,5.29784 8.46035,5.29784z" fill="#000000" stroke="none" stroke-width="0" stroke-linecap="butt"/><g stroke="none" stroke-linecap="butt"><path d="M308.64621,132.89523c-2.44382,0.08449 -3.16744,-6.04459 -0.03484,-6.082c3.35701,-0.04009 2.7252,5.98898 0.03484,6.082z" fill="#000000" stroke-width="0"/><path d="M311.58963,130.89646c0,0.27385 -0.40057,0.49584 -0.89469,0.49584c-0.49413,0 -0.89469,-0.22199 -0.89469,-0.49584c0,-0.27385 0.40057,-0.49584 0.89469,-0.49584c0.49413,0 0.89469,0.22199 0.89469,0.49584z" fill="#ffffff" stroke-width="NaN"/></g><path d="M334.70195,123.31355c5.99095,0 10.83109,7.92317 10.83109,7.92317c0,0 -4.46782,5.40755 -10.45878,5.40755c-5.99095,0 -11.23637,-5.40755 -11.23637,-5.40755c0,0 4.87311,-7.92317 10.86407,-7.92317z" fill="#ffffff" stroke="#000000" stroke-width="1" stroke-linecap="butt"/><path d="M349.15794,132.76568l-3.75809,-1.34728c0,0 -3.8275,-7.61794 -10.91268,-8.10444c-3.63969,-0.04994 -10.81849,7.60828 -10.81849,7.60828c0,0 2.35829,-10.13484 11.32744,-9.70195c7.28403,0.35155 14.16181,11.54541 14.16181,11.54541z" fill="#000000" stroke="none" stroke-width="0" stroke-linecap="butt"/><path d="M345.17154,137.92928l-3.18818,-3.38654l1.71074,-0.88345z" fill="#000000" stroke="none" stroke-width="0" stroke-linecap="butt"/><path d="M341.72991,139.73909l-2.65635,-3.77555l1.82446,-0.64815z" fill="#000000" stroke="none" stroke-width="0" stroke-linecap="butt"/><path d="M336.98831,141.02714l-1.92874,-4.15274l1.91518,-0.34051z" fill="#000000" stroke="none" stroke-width="0" stroke-linecap="butt"/><path d="M332.98671,140.67726l-0.62931,-4.4972l1.93951,0.17855z" fill="#000000" stroke="none" stroke-width="0" stroke-linecap="butt"/><path d="M327.77345,120.71464c0,0 3.50944,-5.70543 8.46035,-5.29784c4.95092,0.40759 7.20179,6.82004 7.20179,6.82004c0,0 -3.86164,-4.72532 -7.42317,-5.01852c-3.30514,-0.2721 -8.23897,3.49631 -8.23897,3.49631z" fill="#000000" stroke="none" stroke-width="0" stroke-linecap="butt"/><g stroke="none" stroke-linecap="butt"><path d="M332.5361,127.14042c3.13261,0.03741 2.40898,6.16649 -0.03484,6.082c-2.69036,-0.09302 -3.32217,-6.12209 0.03484,-6.082z" fill="#000000" stroke-width="0"/><path d="M330.45254,130.72781c0.49413,0 0.89469,0.22199 0.89469,0.49584c0,0.27385 -0.40057,0.49584 -0.89469,0.49584c-0.49413,0 -0.89469,-0.22199 -0.89469,-0.49584c0,-0.27385 0.40057,-0.49584 0.89469,-0.49584z" fill="#ffffff" stroke-width="NaN"/></g></g></g></svg>