<svg version="1.1" xmlns="http://www.w3.org/2000/svg" xmlns:xlink="http://www.w3.org/1999/xlink" width="180.95514" height="309.11993" viewBox="0,0,180.95514,309.11993"><defs><radialGradient cx="406.30368" cy="130.65876" r="34.30063" gradientUnits="userSpaceOnUse" id="color-1"><stop offset="0" stop-color="#000000" stop-opacity="0"/><stop offset="1" stop-color="#000000" stop-opacity="0.29768"/></radialGradient><radialGradient cx="236.19473" cy="129.17778" r="34.30063" gradientUnits="userSpaceOnUse" id="color-2"><stop offset="0" stop-color="#000000" stop-opacity="0"/><stop offset="1" stop-color="#000000" stop-opacity="0.29768"/></radialGradient></defs><g transform="translate(-230.67805,-25.79671)"><g stroke-miterlimit="10"><path d="M263.40898,324.61251v-293.22501h113.18203v293.22501z" fill-opacity="0.01" fill="#000000" stroke="none" stroke-width="0" stroke-linecap="butt"/><g><path d="M348.57614,128.91301c0,0 23.98811,8.73288 39.95412,8.79758c15.96601,0.0647 17.94362,-8.56297 17.94362,-8.56297c0,0 5.05104,14.10504 5.1577,23.49014c0.10666,9.38511 -5.10908,25.65057 -5.10908,25.65057c0,0 0.87102,-4.27606 -1.49537,-9.03911c-2.51153,-5.05521 -8.40535,-11.46211 -12.11893,-13.57379c-8.6703,-4.93026 -44.33207,-26.76244 -44.33207,-26.76244z" fill="url(#color-1)" stroke="none" stroke-width="0" stroke-linecap="round"/><path d="M341.90126,145.49397c-2.04798,-6.54564 -2.11923,-21.92118 -2.11923,-21.92118c0,0 19.1512,11.56946 30.4047,18.30571c18.80432,11.25611 42.28335,24.06117 34.82328,37.81104c-5.68036,10.46965 -31.26404,-3.47855 -31.26404,-3.47855c0,0 -1.23544,15.60508 -13.41401,7.53551c-14.09763,-9.34119 -18.31867,-37.89437 -18.4307,-38.25251z" fill-opacity="0.4" fill="#f2d849" stroke="#0d0d00" stroke-width="1.5" stroke-linecap="butt"/></g><path d="M272.26043,117.57842c2.56444,-4.04371 2.74397,-6.29735 2.74397,-6.29735c0,0 -1.96269,0.64238 -5.99306,0.44098c-4.11537,-0.20565 -7.07204,-2.59496 -7.07204,-2.59496c0,0 3.50357,-3.27383 5.27287,-5.83376c2.37408,-3.43495 3.36203,-7.32345 3.36203,-7.32345c0,0 -2.25785,1.45692 -4.30355,1.93842c-4.3137,1.01533 -6.52796,-0.72255 -6.52796,-0.72255c0,0 12.46772,-11.83454 12.88655,-30.07126c0.63044,-27.45079 36.44686,-32.62132 47.55961,-22.48447c14.57823,13.298 17.33031,33.24853 10.75069,49.87485c-10.75497,27.17724 -10.72754,29.30039 -27.67802,34.77178c-23.94021,7.72758 -36.72982,-5.82787 -36.72982,-5.82787c0,0 3.1996,-1.88238 5.72871,-5.87037z" fill="#ecec68" stroke="#0d0d00" stroke-width="1.75" stroke-linecap="butt"/><g><path d="M293.93484,127.9154c0,0 -35.84331,21.53284 -44.55458,26.39034c-3.73112,2.08051 -9.67838,8.43784 -12.23213,13.47184c-2.40618,4.74307 -1.57099,9.02627 -1.57099,9.02627c0,0 -5.07937,-16.30856 -4.89414,-25.69245c0.18523,-9.38389 5.35419,-23.44614 5.35419,-23.44614c0,0 1.90531,8.64392 17.87129,8.7129c15.96598,0.06898 40.02638,-8.46275 40.02638,-8.46275z" fill="url(#color-2)" stroke="none" stroke-width="0" stroke-linecap="round"/><path d="M300.47069,144.55167c-0.11502,0.35719 -4.57498,28.87402 -18.75032,38.09685c-12.24571,7.96733 -13.35045,-7.64755 -13.35045,-7.64755c0,0 -25.69957,13.73351 -31.29207,3.21667c-7.34469,-13.81185 16.24073,-26.41986 35.13862,-37.51815c11.30951,-6.6418 30.5569,-18.05051 30.5569,-18.05051c0,0 -0.19998,15.3744 -2.30269,21.90266z" fill-opacity="0.4" fill="#f2d849" stroke="#0d0d00" stroke-width="1.5" stroke-linecap="butt"/></g><g stroke-linecap="butt"><path d="M344.20342,204.11178c0,0 -2.36128,-15.79541 -4.84989,-33.37091c-3.36269,-23.74865 -18.03112,-58.75171 8.60083,-50.30715c6.98424,2.21459 12.0869,13.86365 13.57913,25.02763c1.48332,11.0974 0.14093,22.00937 0.14093,22.00937c0,0 1.10525,11.40575 1.28973,17.28377c0.19119,6.09234 -0.92598,18.35764 -0.92598,18.35764z" fill="#ecec68" stroke="#0d0d00" stroke-width="1.75"/><path d="M353.54833,201.02746c4.63327,-1.50217 10.32607,1.64579 13.46002,6.19759c3.41456,4.95935 2.61588,13.24193 0.61607,15.80507c-2.74687,3.52062 -10.03687,0.55088 -10.03687,0.55088c0,0 -9.08696,-20.91699 -4.03922,-22.55354z" fill="#ecec68" stroke="#0d0d00" stroke-width="1.75"/><path d="M364.85028,211.61268c0.03671,0.14441 2.81486,15.35803 -3.55545,16.15495c-8.5019,1.06359 -10.13069,-6.3402 -10.13069,-6.3402c0,0 0.42334,-17.1025 6.48462,-18.30008c5.56361,-1.09925 7.20153,8.48533 7.20153,8.48533z" fill="#ecec68" stroke="#0d0d00" stroke-width="1.75"/><path d="M354.67281,201.17791c4.90336,-0.28496 4.50571,9.25817 4.50571,9.25817c0.00416,0.14546 0.26043,13.70891 -5.16076,16.07732c-7.54244,3.29511 -8.22261,-8.46742 -8.22261,-8.46742c0,0 3.53568,-16.5576 8.87767,-16.86807z" fill="#ecec68" stroke="#0d0d00" stroke-width="1.75"/><path d="M356.62727,201.71834c1.88336,1.08296 -6.70783,5.47274 -8.53487,9.94028c-2.21784,4.31136 1.96069,8.86173 1.96069,8.86173c0,0 -13.93613,1.92173 -9.33342,-13.02911c2.19254,-7.12193 12.74316,-7.59254 15.90759,-5.77293z" fill="#ecec68" stroke="#0d0d00" stroke-width="1.75"/><path d="M345.18462,207.01436l-0.90131,-12.06689l16.93942,-1.8386l0.3002,14.98073z" fill="#ecec68" stroke="none" stroke-width="0"/><path d="M367.53264,217.43161c0,0 -2.3535,-1.33295 -5.63589,-0.95204c-2.61274,0.3032 -5.84378,1.5532 -7.60723,1.39189c-4.27143,-0.39072 -11.43226,-4.31934 -11.43226,-4.31934l5.15281,-12.69527c0,0 6.65247,-2.73486 15.00832,3.59861c4.04849,3.06861 4.51427,12.97615 4.51427,12.97615z" fill="#ecec68" stroke="none" stroke-width="0"/><path d="M348.63029,153.98527c-7.65312,0.81688 -13.313,-1.38561 -13.313,-1.38561l-1.82658,-8.91472l26.8579,-1.4455l1.09064,7.75259c0,0 -1.99679,2.83916 -12.80895,3.99323z" fill-opacity="0.70196" fill="#0d0d00" stroke="none" stroke-width="0"/><path d="M350.75208,173.90005c-8.50033,0.43365 -11.39046,-1.28879 -11.39046,-1.28879l-1.65189,-8.92412c0,0 3.95522,2.56658 11.78891,2.16957c8.68552,-0.44018 11.8221,-3.46685 11.8221,-3.46685l0.77799,8.19653c0,0 -1.96793,2.83519 -11.34664,3.31366z" fill-opacity="0.70196" fill="#0d0d00" stroke="none" stroke-width="0"/><path d="M353.45846,197.07403c-7.78545,0.39518 -10.40873,-0.74075 -10.40873,-0.74075l-1.55363,-8.92941c0,0 3.60285,1.98468 10.77773,1.62312c7.95509,-0.40088 10.62125,-2.77481 10.62125,-2.77481l0.52804,8.18345c0,0 -1.37469,2.2024 -9.96466,2.63841z" fill-opacity="0.70196" fill="#0d0d00" stroke="none" stroke-width="0"/><path d="M348.01748,150.08991c-8.10022,1.07248 -12.85485,-0.10408 -13.03156,-0.92323c-2.54365,-11.79127 -7.0583,-22.26579 -3.05913,-27.04304c2.26706,-2.70815 9.11257,-3.88262 16.02758,-1.68998c5.75831,1.82588 13.01004,12.92001 13.5375,25.10888c0.00923,0.21311 -1.82432,3.00488 -13.4744,4.54737z" fill="#9b9b44" stroke="#0d0d00" stroke-width="1.75"/></g><g stroke-linecap="butt"><path d="M279.89321,203.13211c0,0 -1.16751,-12.26062 -1.00131,-18.35369c0.16035,-5.87873 1.21879,-17.28892 1.21879,-17.28892c0,0 -1.38717,-10.90637 0.0506,-22.00976c1.4464,-11.17 6.50122,-22.83991 13.47631,-25.08315c26.59706,-8.55378 12.07242,26.50918 8.80721,50.27143c-2.41646,17.58555 -4.71289,33.39053 -4.71289,33.39053z" fill="#ecec68" stroke="#0d0d00" stroke-width="1.75"/><path d="M288.37444,201.0126c5.05441,1.61581 -3.94664,22.56992 -3.94664,22.56992c0,0 -7.27775,2.99965 -10.03904,-0.50969c-2.0103,-2.5549 -2.84296,-10.83413 0.55121,-15.80745c3.11525,-4.56462 8.79507,-7.73593 13.43447,-6.25278z" fill="#ecec68" stroke="#0d0d00" stroke-width="1.75"/><path d="M284.28263,203.1293c6.06615,1.17269 6.55967,18.27331 6.55967,18.27331c0,0 -1.5984,7.41042 -10.10459,6.38173c-6.37353,-0.77078 -3.65783,-15.99567 -3.62172,-16.14023c0,0 1.59857,-9.59121 7.16664,-8.51481z" fill="#ecec68" stroke="#0d0d00" stroke-width="1.75"/><path d="M287.25053,201.16764c5.34322,0.28853 8.94682,16.83149 8.94682,16.83149c0,0 -0.63189,11.76523 -8.1878,8.50111c-5.43087,-2.34614 -5.23027,-15.91052 -5.22671,-16.056c0,0 -0.43681,-9.54142 4.46768,-9.27658z" fill="#ecec68" stroke="#0d0d00" stroke-width="1.75"/><path d="M285.29837,201.71609c3.15693,-1.83258 13.70939,-1.40527 15.93114,5.7076c4.66404,14.93183 -9.27987,13.06732 -9.27987,13.06732c0,0 4.15983,-4.56748 1.92431,-8.8697c-1.84535,-4.46002 -10.45448,-8.8145 -8.57559,-9.90518z" fill="#ecec68" stroke="#0d0d00" stroke-width="1.75"/><path d="M280.42888,208.10739l0.2387,-14.98183l16.94683,1.76907l-0.85178,12.07049z" fill="#ecec68" stroke="none" stroke-width="0"/><path d="M274.45757,217.474c0,0 0.42512,-9.90936 4.46098,-12.99456c8.32978,-6.3677 14.99342,-3.66018 14.99342,-3.66018l5.20487,12.67402c0,0 -7.14466,3.95797 -11.41444,4.36623c-1.76277,0.16855 -4.99891,-1.06818 -7.61287,-1.36065c-3.28394,-0.36743 -5.63194,0.97516 -5.63194,0.97516z" fill="#ecec68" stroke="none" stroke-width="0"/><path d="M280.2741,150.01l1.05882,-7.757l26.86361,1.33527l-1.78998,8.92214c0,0 -5.65081,2.22569 -13.3072,1.44022c-10.81682,-1.10968 -12.82524,-3.94063 -12.82524,-3.94063z" fill-opacity="0.70196" fill="#0d0d00" stroke="none" stroke-width="0"/><path d="M279.69916,170.60688l0.74433,-8.19965c0,0 3.14897,3.01377 11.83622,3.4183c7.83525,0.36486 11.7799,-2.21794 11.7799,-2.21794l-1.61525,8.93083c0,0 -2.88305,1.73429 -11.38507,1.33552c-9.3806,-0.43996 -11.36014,-3.26706 -11.36014,-3.26706z" fill-opacity="0.70196" fill="#0d0d00" stroke="none" stroke-width="0"/><path d="M278.47265,194.46133l0.49445,-8.18554c0,0 2.67589,2.36299 10.63255,2.73121c7.17631,0.33211 10.77097,-1.66734 10.77097,-1.66734l-1.51697,8.93571c0,0 -2.61859,1.14669 -10.4056,0.78346c-8.59168,-0.40075 -9.9754,-2.5975 -9.9754,-2.5975z" fill-opacity="0.70196" fill="#0d0d00" stroke="none" stroke-width="0"/><path d="M280.20327,145.56069c0.47744,-12.19093 7.68357,-23.31474 13.43435,-25.16423c5.90006,-1.89749 12.32387,-1.7546 14.7486,0.0411c5.41992,4.01386 1.03893,15.86238 -1.66234,28.63845c-0.17335,0.81987 -4.9231,2.01593 -13.02767,0.9767c-11.65633,-1.49467 -13.50129,-4.27888 -13.49295,-4.49203z" fill="#9b9b44" stroke="#0d0d00" stroke-width="1.75"/></g><g><g stroke="#0d0d00" stroke-linecap="butt"><path d="M343.28369,168.52618c1.57051,0.61318 8.28838,9.05799 8.28838,9.05799c0,0 11.70608,5.3101 12.42364,28.4523c0.59213,19.09689 -6.03411,34.31567 -6.03411,34.31567c0,0 -1.54311,18.66129 -4.4982,32.98192c-2.95508,14.32063 -9.77938,36.72745 -9.77938,36.72745l-23.53796,-0.71747l0.07992,-132.64153c0,0 14.92481,-11.3517 23.05772,-8.17632z" fill="#494920" stroke-width="1.75"/><path d="M319.85249,305.29258v-3.32279c0,0 27.48357,-0.6001 27.98562,0c0.93972,1.12327 -0.81595,3.43621 -3.17871,4.19494z" fill="#080d00" stroke-width="1.5"/></g><g stroke="#0d0d00" stroke-linecap="butt"><path d="M297.64475,168.27618c8.13291,-3.17538 23.05772,8.17632 23.05772,8.17632l0.07992,132.64153l-23.53796,0.71747c0,0 -6.8243,-22.40682 -9.77938,-36.72745c-2.95509,-14.32064 -4.4982,-32.98192 -4.4982,-32.98192c0,0 -6.62624,-15.21878 -6.03411,-34.31568c0.71756,-23.14219 12.42364,-28.4523 12.42364,-28.4523c0,0 6.71787,-8.44481 8.28838,-9.05799z" fill="#494920" stroke-width="1.75"/><path d="M320.5421,307.57133l0.15642,14.66283c0,0 -2.13105,3.33828 -9.57044,6.63437c-13.16886,5.83458 -24.81656,5.60696 -30.80438,4.24795c-3.1241,-0.83013 -6.25925,-6.65632 -2.7366,-11.22699c3.1823,-4.12908 10.60019,-4.84717 15.0485,-8.02239c3.86947,-2.76205 5.72916,-5.94676 5.72916,-5.94676z" fill="#ffffd5" stroke-width="1.5"/><path d="M298.36474,303.96627l22.55234,0.18266l-0.21858,14.13117c0,0 -19.29936,15.66566 -40.37482,10.88232c-3.12409,-0.83014 -5.56047,-4.33037 -2.03782,-8.90104c3.1823,-4.12908 9.90142,-7.17312 14.34973,-10.34834c3.86947,-2.76205 5.72916,-5.94677 5.72916,-5.94677z" fill="#0d0d00" stroke-width="1.5"/><path d="M293.59031,301.71979c0.50205,-0.6001 27.48562,0 27.48562,0v3.32279c0,0 -23.44233,1.32909 -24.80692,0.89088c0,0 -5.36842,-2.3404 -2.6787,-4.21367z" fill="#080d00" stroke-width="1.5"/></g><path d="M342.39705,308.17037c0,0 1.85969,3.18471 5.72916,5.94676c4.44831,3.17522 11.8662,3.89332 15.0485,8.02239c3.52265,4.57067 0.3875,10.39685 -2.7366,11.22699c-5.98782,1.35901 -17.63553,1.58663 -30.80439,-4.24795c-7.43939,-3.29608 -9.57043,-6.63436 -9.57043,-6.63436l0.15642,-14.66283z" fill="#ffffd5" stroke="#0d0d00" stroke-width="1.5" stroke-linecap="butt"/><path d="M342.39705,304.21627c0,0 1.85969,3.18472 5.72916,5.94677c4.44831,3.17523 11.16743,6.21927 14.34973,10.34834c3.52265,4.57066 1.08627,8.0709 -2.03782,8.90104c-21.07546,4.78335 -40.37482,-10.88232 -40.37482,-10.88232l-0.21858,-14.13117l22.55234,-0.18266z" fill="#0d0d00" stroke="#0d0d00" stroke-width="1.5" stroke-linecap="butt"/><path d="M303.78503,203.29672l-1,-20.1721h35.96121l-0.8,20.63442c0,0 -11.12869,1.61816 -17.03787,1.61816c-6.07339,0 -17.12334,-2.08048 -17.12334,-2.08048z" fill="#494920" stroke="none" stroke-width="0" stroke-linecap="butt"/><path d="M337.61105,203.09226c0,0 -7.8499,2.22242 -17.37731,2.30103c-8.35113,0.06889 -16.04309,-2.30103 -16.04309,-2.30103" fill="none" stroke="#0d0d00" stroke-width="1.5" stroke-linecap="round"/></g><path d="M320.75824,132.32217c0.06985,-0.16235 0.107,-0.24689 0.107,-0.24689v0.00001h18.75144c0,0 1.37601,4.76768 3.85007,11.32321c2.57928,6.83438 6.67387,14.7548 8.63782,22.09913c1.5955,5.96648 -0.58686,9.52317 -0.58686,9.52317c0,0 -6.00131,9.92318 -30.24426,10.29841c-0.16929,0.00506 -0.34116,0.00717 -0.51565,0.00629c-0.17397,0.00087 -0.34535,-0.00124 -0.51416,-0.00628c-24.24346,-0.37507 -30.24486,-10.29841 -30.24486,-10.29841c0,0 -2.03951,-3.41384 -0.444,-9.38032c1.96395,-7.34433 5.91568,-15.4076 8.49496,-22.24198c2.47406,-6.55554 3.85007,-11.32321 3.85007,-11.32321h18.75144v-0.00001c0,0 0.03714,0.08454 0.10699,0.24689z" fill="#9b9b44" stroke="#0d0d00" stroke-width="1.75" stroke-linecap="butt"/><path d="M289.41605,173.66519c0.79186,0.40108 6.00669,5.72451 27.86798,5.89168c0.79943,-0.02557 3.08803,-0.01009 3.34889,-0.0071c0.26076,-0.003 2.54898,-0.01847 3.34835,0.0071c21.86145,-0.16714 27.07632,-5.49059 27.86818,-5.89168c1.45187,-0.73539 4.78457,7.29166 4.78457,7.29166c0,0 -12.05131,8.876 -35.36556,8.49721c-0.2124,-0.00345 -0.42435,0.17422 -0.63567,0.16419c-0.21135,0.01003 -0.56618,-0.16764 -0.77862,-0.16419c-23.31425,0.37879 -33.05165,-11.36463 -33.05165,-11.36463c0,0 1.16167,-5.15963 2.61353,-4.42424z" fill="#0d0d00" stroke="none" stroke-width="0" stroke-linecap="butt"/><path d="M313.15504,188.99302c-1.07703,-2.19005 -1.10216,-8.38077 -0.33441,-10.23121c0.79267,-1.91046 13.79684,-1.88886 15.24756,-0.56422c1.39648,1.27512 1.05602,9.8338 -0.16719,11.17161c-1.13434,1.24059 -13.95538,0.956 -14.74601,-0.37616z" fill="#ffffd5" stroke="#0d0d00" stroke-width="1.5" stroke-linecap="butt"/><path d="M296.78555,125.55802c0.32537,-1.22349 16.56815,-13.12398 23.45285,-8.17189c9.55264,6.87112 9.91519,31.66996 3.61552,32.72698c-25.44486,6.84995 -30.69159,3.72557 -33.59609,-0.35625c-3.29266,-4.6273 -1.59525,-9.45505 0.67485,-12.81232c2.2701,-3.35729 4.02537,-4.51455 5.85287,-11.38651z" fill="#9b9b44" stroke="#0d0d00" stroke-width="1.5" stroke-linecap="butt"/><path d="M351.06391,149.75681c-2.9045,4.08181 -8.15123,7.2062 -33.59609,0.35625c-6.29967,-1.05702 -5.93713,-25.85586 3.61551,-32.72698c6.8847,-4.95211 23.12747,6.94841 23.45284,8.17189c1.82749,6.87196 2.71566,6.7468 5.85289,11.38651c2.2701,3.35728 3.96751,8.18502 0.67484,12.81232z" fill="#9b9b44" stroke="#0d0d00" stroke-width="1.5" stroke-linecap="butt"/><path d="M313.06448,165.72671l2.64991,-24.51653c0,0 1.91704,-22.65704 9.22314,-21.11805c4.76222,1.00314 16.30428,29.45366 16.30428,29.45366c0,0 -9.95417,1.18878 -8.64532,4.03801c0.69307,1.50874 4.1497,1.04134 5.45511,3.38372c1.75592,3.15078 2.66024,6.79786 2.66024,6.79786z" fill="#9b9b44" stroke="none" stroke-width="0" stroke-linecap="butt"/><path d="M300.60992,163.7654c0,0 0.90432,-3.64708 2.66024,-6.79786c1.30541,-2.34239 4.76205,-1.87499 5.45511,-3.38372c1.30884,-2.84922 -8.64532,-4.03801 -8.64532,-4.03801c0,0 11.54207,-28.45054 16.30428,-29.45367c7.3061,-1.53899 9.22315,21.11806 9.22315,21.11806l2.6499,24.51653z" fill="#9b9b44" stroke="none" stroke-width="0" stroke-linecap="butt"/><path d="M291.75588,129.19894c0,0 -2.15614,-9.75535 28,-10.05178c34.78554,-0.34192 31.5,10.29694 31.5,10.29694c0,0 -15.47005,-1.48768 -28.25056,-1.5843c-25.48246,-0.19267 -31.24944,1.33914 -31.24944,1.33914z" fill="#9b9b44" stroke="none" stroke-width="0" stroke-linecap="butt"/><path d="M320.13443,145.08845v-24.44311" fill="none" stroke="#0d0d00" stroke-width="1" stroke-linecap="round"/><path d="M326.49698,131.25483c0,1.21048 -0.60788,1.5111 -1.54452,1.5111c-0.93664,0 -1.84736,-0.30062 -1.84736,-1.5111c0,-1.21048 0.7593,-1.78338 1.69594,-1.78338c0.93664,0 1.69594,0.57288 1.69594,1.78338z" fill="#ffffd5" stroke="#0d0d00" stroke-width="1" stroke-linecap="butt"/><path d="M325.00293,136.65938c0.93663,0 1.84736,0.43675 1.84736,1.64724c0,1.21048 -0.7593,1.5111 -1.69594,1.5111c-0.93664,0 -1.69594,-0.30062 -1.69594,-1.5111c0,-1.21048 0.60787,-1.64724 1.54451,-1.64724z" fill="#ffffd5" stroke="#0d0d00" stroke-width="1" stroke-linecap="butt"/><path d="M316.8545,117.86953l8.06707,-2.08121c0,0 11.58422,-0.72812 15.1265,6.93668c2.56293,5.54566 -3.86724,12.05235 -3.86724,12.05235z" fill="#c1c155" stroke="#0d0d00" stroke-width="1.5" stroke-linecap="butt"/><path d="M304.11669,134.77739c0,0 -5.68017,-6.98316 -3.11724,-12.52882c3.54228,-7.6648 14.3765,-6.46021 14.3765,-6.46021l7.33979,2.60099z" fill="#c1c155" stroke="#0d0d00" stroke-width="1.5" stroke-linecap="butt"/><path d="M314.83137,94.64583h11.99007l1.29622,21.45252c0,0 -3.04103,4.91539 -7.45329,4.79603c-4.43,-0.11983 -7.12923,-4.79603 -7.12923,-4.79603z" fill="#ecec68" stroke="#0d0d00" stroke-width="1.5" stroke-linecap="butt"/><path d="M310.66796,61.61161c-5.66528,1.93571 -10.70456,14.98092 -15.75939,12.05734c-5.15688,-2.98261 3.13599,-17.47559 11.86726,-22.22433c6.95618,-3.78333 15.57674,-3.36302 16.84497,0.34871c1.26824,3.71174 -7.28757,7.88257 -12.95285,9.8183z" fill="#6e6e30" stroke="#0d0d00" stroke-width="1.35" stroke-linecap="butt"/><path d="M339.64846,31.41931c0,0 -0.24647,3.57752 -2.08233,13.19216c-1.16722,6.11292 -3.99914,14.33664 -3.99914,14.33664l-5.77123,-1.812c0,0 3.68453,-7.92155 5.12788,-13.925c2.53962,-10.56321 1.39288,-15.06205 2.9124,-16.93586c1.21358,-1.49651 7.69215,0.81209 15.17266,2.86567c7.38535,2.02745 15.79102,3.76276 14.32761,8.06182c-2.33231,6.85163 -25.68784,-5.78342 -25.68784,-5.78342z" fill="#0d0d00" stroke="none" stroke-width="NaN" stroke-linecap="butt"/><path d="M302.80447,31.41931c0,0 -23.35553,12.63504 -25.68784,5.78342c-1.46341,-4.29906 6.94226,-6.03438 14.32761,-8.06183c7.48052,-2.05358 13.95909,-4.3622 15.17266,-2.86566c1.51951,1.87383 0.37278,6.37266 2.9124,16.93587c1.44335,6.00345 5.12788,13.92499 5.12788,13.92499l-5.77123,1.81202c0,0 -2.83192,-8.22371 -3.99914,-14.33664c-1.83587,-9.61465 -2.08234,-13.19216 -2.08234,-13.19216z" fill="#0d0d00" stroke="none" stroke-width="NaN" stroke-linecap="butt"/><path d="M292.69347,89.66282c3.51948,-2.88817 3.78337,1.82342 6.66348,4.27231c2.88012,2.4489 2.84571,6.77942 -0.77584,8.73224c-4.26072,2.29746 -9.62975,6.54239 -9.62975,6.54239c0,0 -5.01903,-12.35735 3.74211,-19.54694z" fill="#ecec68" stroke="#0d0d00" stroke-width="1.75" stroke-linecap="butt"/><path d="M292.45707,100.83567c1.18589,-5.48915 6.13854,-7.36827 10.65306,-5.50476c4.51452,1.86351 6.31013,7.10249 2.76817,10.83187c-1.88683,1.98668 -6.9785,8.87792 -6.9785,8.87792c0,0 -7.91361,-5.56337 -6.44273,-14.20502z" fill="#ecec68" stroke="#0d0d00" stroke-width="1.75" stroke-linecap="butt"/><path d="M343.07179,102.66738c-3.62155,-1.95282 -3.65595,-6.28334 -0.77584,-8.73224c2.88012,-2.44889 3.144,-7.16048 6.66348,-4.27231c8.76114,7.18959 3.74211,19.54695 3.74211,19.54695c0,0 -5.36904,-4.24494 -9.62975,-6.5424z" fill="#ecec68" stroke="#0d0d00" stroke-width="1.75" stroke-linecap="butt"/><path d="M335.7746,106.16285c-3.54196,-3.72937 -1.74635,-8.96836 2.76817,-10.83187c4.51452,-1.86351 9.46719,0.01561 10.65307,5.50477c1.84978,8.5622 -6.44274,14.20501 -6.44274,14.20501c0,0 -2.81144,-4.49035 -6.9785,-8.87791z" fill="#ecec68" stroke="#0d0d00" stroke-width="1.75" stroke-linecap="butt"/><path d="M307.99557,112.241c-5.69661,-2.5635 -10.49163,-5.42655 -13.13505,-11.89723c-2.08926,-5.11419 -1.85513,-10.80292 -1.46639,-16.6843c0.38849,-5.87761 1.11268,-11.94741 4.75897,-18.47579c7.00911,-12.54918 21.48881,-12.65062 22.61273,-12.63931c1.12394,0.01132 15.72518,0.09072 22.73396,12.63931c3.64629,6.52837 4.37048,12.59819 4.75897,18.47579c0.38873,5.88138 0.62286,11.5701 -1.46639,16.6843c-2.64342,6.47066 -7.43844,9.33373 -13.13504,11.89723c-5.39641,2.42841 -11.39515,3.3438 -13.0226,3.29799c-1.52032,-0.04279 -7.24284,-0.86962 -12.63917,-3.29799z" fill="#ecec68" stroke="#0d0d00" stroke-width="1.75" stroke-linecap="butt"/><path d="M337.47459,106.18563l8.74186,-17.74207c0,0 1.33895,0.74202 2.33451,1.68205c1.22527,1.15694 2.19507,2.61381 2.71878,3.35639c0.93607,1.32725 0.60323,2.98194 0.60323,2.98194c0,0 0.82094,3.68701 -0.32842,5.43889c-0.29079,0.44323 -1.40102,-0.38788 -2.11626,0.17353c-0.98347,0.77194 -1.67813,2.9861 -2.62898,3.95188c-2.85844,2.90329 -4.92991,6.11192 -4.92991,6.11192z" fill="#ecec68" stroke="none" stroke-width="0" stroke-linecap="butt"/><path d="M299.95018,112.14015c0,0 -2.23815,-3.20863 -5.09658,-6.11192c-0.95086,-0.96578 -1.64553,-3.17994 -2.62898,-3.95188c-0.71524,-0.56141 -1.82546,0.26971 -2.11625,-0.17352c-1.14935,-1.7519 -0.32842,-5.4389 -0.32842,-5.4389c0,0 -0.33284,-1.65468 0.60323,-2.98194c0.52373,-0.74258 1.4935,-2.19944 2.71877,-3.35639c0.99555,-0.94003 2.33449,-1.68205 2.33449,-1.68205l8.74186,17.74207z" fill="#ecec68" stroke="none" stroke-width="0" stroke-linecap="butt"/><g stroke="#0d0d00" stroke-width="1" stroke-linecap="butt"><g fill="#c5c556"><path d="M303.59121,56.6549c0,0 2.1999,-3.43967 4.49334,-4.29272c2.29347,-0.85303 3.54807,-0.03856 3.81197,1.20361c0.26388,1.24217 0.00891,3.0026 -2.28453,3.85562c-2.29344,0.85303 -6.02078,-0.76652 -6.02078,-0.76652z"/><path d="M299.41157,55.64731c2.29345,-0.85304 5.8945,0.36971 5.8945,0.36971c0,0 -2.10792,3.45409 -4.40136,4.30714c-2.29348,0.85305 -3.64005,0.02414 -3.90395,-1.21805c-0.2639,-1.24219 0.11737,-2.60576 2.41081,-3.4588z"/></g><g fill="#c5c556"><path d="M304.29517,55.61364c0,0 3.42754,1.41797 3.83806,3.35026c0.41053,1.93229 -0.87709,3.09873 -2.35145,3.64712c-1.47436,0.54838 -3.06594,0.38287 -3.47645,-1.5494c-0.41051,-1.93228 1.98985,-5.44795 1.98985,-5.44795z"/><path d="M300.58008,53.67927c-0.41053,-1.93227 1.06108,-3.06988 2.53541,-3.61824c1.47436,-0.54838 3.17234,-0.4604 3.58286,1.47188c0.41052,1.93227 -2.09627,5.52549 -2.09627,5.52549c0,0 -3.61152,-1.44684 -4.02204,-3.37913z"/></g><path d="M305.00861,58.97166c-1.72776,0.64263 -3.37908,-0.01645 -3.68836,-1.47214c-0.30926,-1.45569 0.84068,-3.1567 2.56844,-3.79933c1.72777,-0.64265 3.37908,0.01646 3.68834,1.47214c0.30928,1.45569 -0.84067,3.15668 -2.56844,3.79931z" fill="#ffffd5"/></g><path d="M295.99113,87.64385c0.38861,-2.49437 4.27601,-3.95989 8.68272,-3.27333c4.40673,0.68657 7.66405,3.2652 7.27542,5.75956c-0.38861,2.49438 -4.76184,3.21605 -9.16856,2.52949c-4.40672,-0.68655 -7.17823,-2.52137 -6.78962,-5.01574z" fill="#a5a549" stroke="none" stroke-width="0" stroke-linecap="butt"/><path d="M345.62143,86.83453c0.67719,2.43193 -1.86113,4.57781 -6.15755,5.77419c-4.29642,1.19639 -8.724,0.99027 -9.40119,-1.44168c-0.6772,-2.43193 2.25676,-5.37325 6.55318,-6.56965c4.2964,-1.19639 8.32833,-0.19479 9.00552,2.23716z" fill="#a5a549" stroke="none" stroke-width="0" stroke-linecap="butt"/><path d="M320.80557,109.48617c-17.68248,-0.51838 -22.71056,-15.88972 -22.71056,-15.88972c0,0 6.61477,2.14022 11.10974,2.53996c4.49497,0.39974 7.36869,-0.41213 11.91969,-0.49198c4.30388,-0.07551 6.83237,1.24772 11.25539,0.85232c4.42302,-0.3954 11.63403,-2.89855 11.63403,-2.89855c0,0 -5.2484,15.73628 -23.20829,15.88797z" fill="#ffffff" stroke="#0d0d00" stroke-width="1" stroke-linecap="round"/><path d="M339.45969,84.51983c0,1.21083 -2.42468,3.99512 -8.74988,4.48494c-2.45304,0.18998 -6.65856,-1.00765 -9.55929,-1.00765c-2.0021,0 -7.98178,1.1084 -9.79138,1.01455c-7.57266,-0.39277 -9.48996,-3.13557 -9.48996,-4.49186c0,-1.56927 2.15376,-4.7446 11.57843,-4.90861c0.66747,-0.01162 7.34043,1.28639 8.02696,1.28639c1.30193,0 4.67929,-0.84792 5.90666,-0.80711c8.55851,0.28449 12.07846,2.95966 12.07846,4.42933z" fill="#c4c44a" stroke="none" stroke-width="0" stroke-linecap="butt"/><path d="M297.03484,86.81818c-0.11085,-1.21802 1.44578,-12.1439 10.1423,-12.81485c9.91648,-0.76507 10.55716,12.61693 10.4291,14.02321c-0.05128,0.76498 -20.47078,-0.10297 -20.57137,-1.20834z" fill="#0d0d00" stroke="#0d0d00" stroke-width="1" stroke-linecap="butt"/><g fill="#0d0d00" stroke="none" stroke-width="0" stroke-linecap="butt"><path d="M302.15738,79.17467l-3.28898,4.42715l-2.32683,-5.29089z"/><path d="M299.58006,83.09265l-0.38594,2.09472c-0.7545,0.15665 -1.49606,0.32791 -2.35856,0.42128l-1.5297,-2.51413z"/><path d="M299.6006,80.90548l-1.75534,4.23383l-2.02427,-4.36732z"/></g><path d="M339.61112,100.66667c0,0 -4.82204,2.11111 -18.44444,2.11111c-13.88183,0 -18.88889,-2.11111 -18.88889,-2.11111" fill="none" stroke="#0d0d00" stroke-width="1" stroke-linecap="round"/><path d="M299.2369,73.7608c0,0 -0.19313,-6.58627 5.72331,-8.76351c5.40165,-1.9878 8.92934,3.54097 8.92934,3.54097c0,0 -3.58249,-1.56604 -7.70556,-0.43842c-5.06676,1.38571 -6.94709,5.66096 -6.94709,5.66096z" fill="#0d0d00" stroke="none" stroke-width="0" stroke-linecap="butt"/><path d="M310.15012,87.0409c0.12697,-1.5684 0.26952,-3.13233 0.46112,-4.6915c0.86502,0.11983 1.76212,0.20586 2.6407,0.2745c0.01108,1.08546 0.03394,2.17526 0.06017,3.27705c0.03564,0.39443 0.03242,0.77991 0.01328,1.16641c-1.09116,0.02231 -2.26201,0.00359 -3.17526,-0.02646z" fill="#6e6e30" stroke="none" stroke-width="0" stroke-linecap="butt"/><path d="M308.5162,86.94384c-0.8873,-1.17898 -1.01634,-3.19915 -0.63357,-5.15152c0.65244,0.19417 1.37634,0.3464 2.13536,0.46849c-0.19457,1.581 -0.33917,3.16683 -0.46789,4.75726c-0.6185,-0.02703 -1.02081,-0.05685 -1.03389,-0.07422z" fill="#6e6e30" stroke="none" stroke-width="0" stroke-linecap="butt"/><path d="M316.5691,86.55552c-0.04089,0.30229 -1.2086,0.44202 -2.64274,0.49485c0.01809,-0.392 0.02003,-0.78329 -0.01521,-1.18315c-0.02494,-1.07548 -0.04702,-2.13923 -0.05816,-3.19863c0.84886,0.06021 1.66886,0.10737 2.41254,0.15687c0.32093,1.30793 0.45335,2.62289 0.30357,3.73008z" fill="#6e6e30" stroke="none" stroke-width="0" stroke-linecap="butt"/><path d="M312.20845,76.52795c0.37282,0.07734 0.7533,0.29949 1.12688,0.633c-0.07784,1.6319 -0.09792,3.24477 -0.08826,4.86418c-0.85347,-0.06658 -1.72313,-0.15024 -2.56077,-0.26668c0.14026,-1.06842 0.30559,-2.13459 0.50677,-3.19842c0.13174,-0.69723 0.26625,-1.37514 0.37145,-2.06163c0.21028,-0.02441 0.42526,-0.01581 0.64394,0.02955z" fill="#6e6e30" stroke="none" stroke-width="0" stroke-linecap="butt"/><path d="M310.92931,76.67548c-0.09658,0.58856 -0.21235,1.17321 -0.3258,1.7731c-0.20243,1.07129 -0.36895,2.14491 -0.5103,3.22079c-0.74085,-0.12017 -1.44613,-0.27014 -2.08022,-0.46149c0.5161,-2.06211 1.58847,-3.9427 2.91632,-4.53239z" fill="#6e6e30" stroke="none" stroke-width="0" stroke-linecap="butt"/><path d="M313.84792,82.06961c-0.0091,-1.43392 0.00475,-2.86239 0.06171,-4.30373c0.89028,1.08107 1.69307,2.72908 2.19208,4.448c-0.70082,-0.04491 -1.46525,-0.08873 -2.25379,-0.14427z" fill="#6e6e30" stroke="none" stroke-width="0" stroke-linecap="butt"/><path d="M315.85176,80.05554c0,0.58297 -0.8861,1.05555 -1.97917,1.05555c-1.09306,0 -1.97917,-0.47259 -1.97917,-1.05555c0,-0.58297 0.8861,-1.05555 1.97917,-1.05555c1.09306,0 1.97917,0.47259 1.97917,1.05555z" fill="#ffffff" stroke="none" stroke-width="0" stroke-linecap="butt"/><path d="M278.05556,63.44445z" fill="#ffffff" stroke="none" stroke-width="0" stroke-linecap="butt"/><path d="M345.00126,86.8182c-0.10059,1.10537 -20.52009,1.97332 -20.57137,1.20834c-0.12806,-1.40628 0.51262,-14.78828 10.4291,-14.02321c8.69652,0.67095 10.25315,11.59683 10.1423,12.81485z" fill="#0d0d00" stroke="#0d0d00" stroke-width="1" stroke-linecap="butt"/><g fill="#0d0d00" stroke="none" stroke-width="0" stroke-linecap="butt"><path d="M345.49455,78.31094l-2.32683,5.29089l-3.28898,-4.42715z"/><path d="M346.73027,83.09453l-1.5297,2.51413c-0.8625,-0.09337 -1.60406,-0.26463 -2.35856,-0.42128l-0.38594,-2.09472z"/><path d="M346.21514,80.77199l-2.02427,4.36732l-1.75534,-4.23383z"/></g><path d="M341.4452,87.25317c-1.08447,0.12273 -2.25207,0.21198 -3.16419,0.26619c-0.01807,-1.57343 -0.02021,-3.14384 0.02693,-4.71404c0.87238,0.03963 1.7736,0.04264 2.65476,0.03005c0.11103,1.07982 0.2342,2.16288 0.36183,3.25757c0.07183,0.38946 0.10413,0.77359 0.12068,1.16022z" fill="#6e6e30" stroke="none" stroke-width="0" stroke-linecap="butt"/><path d="M336.6451,87.57324c-0.99215,-1.09221 -1.30676,-3.09191 -1.10549,-5.07124c0.66755,0.13325 1.4024,0.21814 2.16944,0.26977c-0.04808,1.5922 -0.04595,3.1846 -0.02761,4.78013c-0.61835,0.03006 -1.02171,0.03744 -1.03633,0.02134z" fill="#6e6e30" stroke="none" stroke-width="0" stroke-linecap="butt"/><path d="M344.62799,86.44465c-0.01287,0.30478 -1.16274,0.55149 -2.58592,0.73621c-0.0181,-0.392 -0.05222,-0.7818 -0.12415,-1.17672c-0.12391,-1.0686 -0.24391,-2.12581 -0.3526,-3.17967c0.8508,-0.01825 1.67166,-0.04684 2.41674,-0.06607c0.44006,1.2728 0.69306,2.56998 0.64592,3.68625z" fill="#6e6e30" stroke="none" stroke-width="0" stroke-linecap="butt"/><path d="M339.36202,76.86149c0.37836,0.04266 0.7777,0.22882 1.18041,0.52649c0.07284,1.63213 0.20143,3.24 0.36025,4.85163c-0.85596,0.01234 -1.72964,0.00914 -2.57444,-0.02962c0.04124,-1.07681 0.10763,-2.15368 0.20994,-3.23152c0.06694,-0.7064 0.13842,-1.39381 0.17993,-2.08709c0.20713,-0.04368 0.42201,-0.05493 0.64393,-0.0299z" fill="#6e6e30" stroke="none" stroke-width="0" stroke-linecap="butt"/><path d="M335.61558,81.90804c0.32392,-2.1009 1.21847,-4.07229 2.48634,-4.7818c-0.04196,0.59496 -0.10335,1.18779 -0.16106,1.79558c-0.10287,1.08538 -0.16977,2.16978 -0.2114,3.2541c-0.74876,-0.0514 -1.46487,-0.13576 -2.11389,-0.26788z" fill="#6e6e30" stroke="none" stroke-width="0" stroke-linecap="butt"/><path d="M343.76258,82.16454c-0.70198,0.01984 -1.46718,0.04663 -2.25749,0.06398c-0.14116,-1.42699 -0.25898,-2.85065 -0.33505,-4.29112c0.98608,0.99444 1.93729,2.56149 2.59254,4.22713z" fill="#6e6e30" stroke="none" stroke-width="0" stroke-linecap="butt"/><path d="M343.00105,80.05556c0,0.58297 -0.8861,1.05555 -1.97916,1.05555c-1.09306,0 -1.97917,-0.47259 -1.97917,-1.05555c0,-0.58297 0.88611,-1.05555 1.97917,-1.05555c1.09306,0 1.97916,0.47258 1.97916,1.05555z" fill="#ffffff" stroke="none" stroke-width="0" stroke-linecap="butt"/><path d="M317.46549,53.0795c0,0 2.71163,-2.94375 5.88686,-5.05868c2.78312,-1.85377 6.95657,-3.28975 7.08493,-3.43537c0.35924,-0.40747 -0.21588,-1.72306 -1.18342,-2.69804c-0.98301,-0.99052 -2.36171,-1.63738 -2.36171,-1.63738c0,0 5.40022,-3.33025 13.27454,0.24367c6.8381,3.1036 8.28309,8.4005 8.28309,8.4005c0,0 1.24854,-1.92618 1.58083,-3.41165c0.70563,-3.15466 0.38424,-5.26056 0.38424,-5.26056c0,0 5.49086,-0.03727 7.65901,10.6043c1.43484,7.04241 -0.29947,12.78699 -0.29947,12.78699c0,0 1.46128,-0.34304 2.31671,-0.83855c0.85541,-0.49549 2.48257,-1.94144 2.48257,-1.94144c0,0 0.22463,12.27246 -14.17296,16.34983c-13.64913,3.86541 -25.46746,-3.41444 -25.46746,-3.41444" fill="#ecec68" stroke="#0d0d00" stroke-width="1.75" stroke-linecap="round"/></g></g></svg>