<svg version="1.1" xmlns="http://www.w3.org/2000/svg" xmlns:xlink="http://www.w3.org/1999/xlink" width="135.55044" height="55.09059" viewBox="0,0,135.55044,55.09059"><defs><linearGradient x1="262.30266" y1="99.53736" x2="262.30266" y2="119.11285" gradientUnits="userSpaceOnUse" id="color-1"><stop offset="0" stop-color="#000000" stop-opacity="0"/><stop offset="1" stop-color="#000000" stop-opacity="0.54118"/></linearGradient><linearGradient x1="262.30268" y1="75.82059" x2="262.30268" y2="113.46016" gradientUnits="userSpaceOnUse" id="color-2"><stop offset="0" stop-color="#1c1c00"/><stop offset="1" stop-color="#1c1c00" stop-opacity="0"/></linearGradient><linearGradient x1="262.54845" y1="119.4815" x2="262.54845" y2="81.84195" gradientUnits="userSpaceOnUse" id="color-3"><stop offset="0" stop-color="#1c1c00"/><stop offset="1" stop-color="#1c1c00" stop-opacity="0"/></linearGradient><linearGradient x1="262.30266" y1="75.7786" x2="262.30266" y2="119.11285" gradientUnits="userSpaceOnUse" id="color-4"><stop offset="0" stop-color="#ffff94"/><stop offset="1" stop-color="#cccc48"/></linearGradient><linearGradient x1="351.84527" y1="79.26568" x2="351.84527" y2="99.37442" gradientTransform="translate(-813.11488,-225.21338) scale(2.80411,2.38703)" gradientUnits="userSpaceOnUse" id="color-5"><stop offset="0" stop-color="#ffffff"/><stop offset="1" stop-color="#fdff9d"/></linearGradient><linearGradient x1="342.09173" y1="98.94497" x2="342.09173" y2="115.98706" gradientTransform="translate(-958.43533,-314.69224) scale(3.30874,2.81658)" gradientUnits="userSpaceOnUse" id="color-6"><stop offset="0" stop-color="#ffffff"/><stop offset="1" stop-color="#fdff9d"/></linearGradient></defs><g transform="translate(-225.25624,-71.61453)"><g stroke-miterlimit="10"><g><path d="M249.24267,75.7786h26.12002c5.10646,0 9.21742,3.99836 9.21742,8.9649v25.40445c0,4.96655 -4.11097,8.9649 -9.21742,8.9649h-26.12002c-5.10645,0 -9.21742,-3.99835 -9.21742,-8.9649v-25.40445c0,-4.96655 4.11098,-8.9649 9.21743,-8.9649z" fill="#6e6e30" fill-rule="evenodd" stroke="none" stroke-width="4.43922" stroke-linecap="round" stroke-linejoin="round"/><path d="M284.58011,110.14795c0,4.96655 -4.11097,8.9649 -9.21742,8.9649h-26.12002c-5.10645,0 -9.21742,-3.99835 -9.21742,-8.9649v-10.61059c8.88121,0.04534 18.36341,0.13123 27.11866,0.13173c5.81207,0.00033 11.62414,-0.00625 17.43622,-0.01044z" fill="url(#color-1)" fill-rule="nonzero" stroke="none" stroke-width="4.43922" stroke-linecap="butt" stroke-linejoin="miter"/><path d="M249.07412,76.15331c0,0 -3.95963,3.70781 -4.09604,8.09548c-0.19541,6.2864 -0.35704,13.96843 -2.08069,14.14091c-1.63048,0.16315 -1.52495,-6.62113 -1.80971,-12.71206c-0.07558,-1.61665 -0.2053,-3.18203 -0.34631,-4.56079c0.69899,-0.54949 1.18871,-1.35321 1.32983,-2.27182c0.7053,-0.3159 1.28992,-0.85299 1.66564,-1.52302c0.84662,-0.12983 1.5957,-0.55573 2.13822,-1.16869z" fill="#ffff94" fill-rule="nonzero" stroke="none" stroke-width="0" stroke-linecap="butt" stroke-linejoin="miter"/><path d="M247.00315,95.33891c0,0 3.29818,12.54174 0.42005,12.73425c-2.92181,0.19543 -0.42005,-12.73425 -0.42005,-12.73425z" fill="#ffff94" fill-rule="nonzero" stroke="none" stroke-width="0" stroke-linecap="butt" stroke-linejoin="miter"/><path d="M244.31342,79.10626l16.68562,-0.2634c0,0 -2.74149,2.73672 -3.82729,5.81486c-1.11809,3.1696 -0.63206,6.68535 -4.2431,6.83004c-4.13447,0.08677 -3.91499,-4.08944 -5.05403,-7.51727c-0.90704,-2.72964 -3.56119,-4.86426 -3.56119,-4.86426z" fill="#ffff94" fill-rule="nonzero" stroke="none" stroke-width="0" stroke-linecap="butt" stroke-linejoin="miter"/><path d="M280.53867,83.20465c-1.60054,0.67543 -3.96761,-1.4885 -6.91857,-1.65333c-1.27215,-0.07106 -2.57984,1.83519 -4.10208,1.84567c-2.3762,0.01635 -2.77581,-1.70214 -5.64314,-1.68143c-3.83109,0.02767 -1.96621,-2.05769 -4.66479,-2.20763c-0.21049,-0.0117 -12.09038,3.36849 -12.29425,3.36232c-1.47131,-0.04446 -0.95386,1.59008 -0.86276,3.3116c0.09987,1.88741 -0.18234,3.86489 -1.03703,3.50194c-0.39917,-0.16951 -0.17724,-1.25056 -0.40584,-2.29199c-0.11612,-0.529 -0.66778,-0.99457 -0.82196,-1.43428c-0.68671,-1.95834 -1.49179,-4.46128 -2.0578,-6.04814c0.166,-0.32896 1.63072,-1.91736 2.00645,-2.58738c0.41466,-0.06359 1.71834,-0.91298 2.94815,-1.25171c1.2811,-0.35285 2.25207,-0.29764 3.64651,-0.3467c3.32319,-0.11694 7.98224,-0.00061 10.85946,-0.00061c3.21364,0 9.02796,-0.21076 12.82358,-0.08838c2.67982,0.08641 3.81462,0.3138 3.81462,0.3138c0.42746,0.29623 1.17854,0.70685 1.71326,0.79429c0.26197,0.1786 0.54884,0.32338 0.85433,0.42807c0.42647,0.61973 1.04278,1.09871 1.765,1.35298c0.14999,0.24363 0.32828,0.46798 0.53032,0.66843c0.16966,0.48567 0.44084,0.92368 0.78812,1.28864c0.05751,0.16501 0.12673,0.32452 0.20668,0.47754c-0.64612,0.81931 -1.64013,1.60989 -3.14822,2.24631z" fill="#ffff94" fill-rule="nonzero" stroke="none" stroke-width="0" stroke-linecap="butt" stroke-linejoin="miter"/><path d="M276.21513,83.84491c0,0 3.18427,9.36359 0.40555,9.50732c-2.82089,0.14591 -0.40555,-9.50732 -0.40555,-9.50732z" fill="#ffff94" fill-rule="nonzero" stroke="none" stroke-width="0" stroke-linecap="butt" stroke-linejoin="miter"/><path d="M284.58011,113.33885c-5.81207,-0.00419 -35.67365,0.07596 -44.55487,0.1213v-28.67466c0,-4.96655 4.11098,-8.9649 9.21743,-8.9649h26.12002c5.10645,0 9.21742,3.99835 9.21742,8.9649z" fill="url(#color-2)" fill-rule="nonzero" stroke="none" stroke-width="4.43922" stroke-linecap="butt" stroke-linejoin="miter"/><path d="M284.82588,110.5166c0,4.96655 -4.11096,8.9649 -9.2174,8.9649h-26.12002c-5.10645,0 -9.21742,-3.99836 -9.21742,-8.9649v-28.67466c8.8812,0.04534 38.7428,0.12548 44.55488,0.12131z" fill="url(#color-3)" fill-rule="nonzero" stroke="none" stroke-width="4.43922" stroke-linecap="butt" stroke-linejoin="miter"/><path d="M249.24267,75.7786h26.12002c5.10646,0 9.21742,3.99836 9.21742,8.9649v25.40445c0,4.96655 -4.11097,8.9649 -9.21742,8.9649h-26.12002c-5.10645,0 -9.21742,-3.99835 -9.21742,-8.9649v-25.40445c0,-4.96655 4.11098,-8.9649 9.21743,-8.9649z" fill="none" fill-rule="evenodd" stroke="url(#color-4)" stroke-width="2.5" stroke-linecap="round" stroke-linejoin="round"/><text transform="translate(255.53855,112.68805) rotate(-16.07718) scale(1.52321,0.97458) skewX(1.8204)" font-size="40" xml:space="preserve" fill="#e3e361" fill-rule="nonzero" stroke="none" stroke-width="1" stroke-linecap="butt" stroke-linejoin="miter" font-family="&quot;Allan-Bold&quot;, Sans Serif" font-weight="normal" text-anchor="start"><tspan x="0" dy="0">?</tspan></text></g><text transform="translate(289.97303,94.34864) scale(0.35662,0.41893)" font-size="40" xml:space="preserve" fill="url(#color-5)" fill-rule="nonzero" stroke="none" stroke-width="1" stroke-linecap="butt" stroke-linejoin="miter" font-family="&quot;Allan-Bold&quot;, Sans Serif" font-weight="normal" text-anchor="start"><tspan x="0" dy="0">Smurfette Rule</tspan></text><path d="M225.25624,96.64997c0,-2.02211 1.63925,-3.66135 3.66136,-3.66135c2.02211,0 3.66135,1.63924 3.66135,3.66135c0,2.02211 -1.63924,3.66135 -3.66135,3.66135c-2.02211,0 -3.66136,-1.63924 -3.66136,-3.66135z" fill="#feffce" fill-rule="nonzero" stroke="none" stroke-width="0" stroke-linecap="butt" stroke-linejoin="miter"/><text transform="translate(289.66791,111.72833) scale(0.30223,0.35504)" font-size="40" xml:space="preserve" fill="url(#color-6)" fill-rule="nonzero" stroke="none" stroke-width="1" stroke-linecap="butt" stroke-linejoin="miter" font-family="&quot;Allan-Regular&quot;, Sans Serif" font-weight="normal" text-anchor="start"><tspan x="0" dy="0">???</tspan></text></g></g></svg>