<svg version="1.1" xmlns="http://www.w3.org/2000/svg" xmlns:xlink="http://www.w3.org/1999/xlink" width="124.74725" height="283.01102" viewBox="0,0,124.74725,283.01102"><g transform="translate(-256.74779,-38.49449)"><g stroke-width="2" stroke-miterlimit="10"><path d="M264.14937,321.50551v-283.01102h111.70128v283.01102z" fill-opacity="0.01" fill="#000000" stroke="none" stroke-linecap="butt"/><g fill="#ffff70" stroke="#000000"><path d="M368.32789,101.08968c0,22.62086 -21.72355,39.20481 -48.52093,39.20481c-26.79737,0 -48.52093,-16.58396 -48.52093,-39.20481c0,-22.62086 21.72356,-40.95869 48.52093,-40.95869c26.79738,0 48.52093,18.33783 48.52093,40.9587z" stroke-linecap="butt"/><path d="M278.80644,120.29374c0,0 -18.44845,1.49328 -20.86647,-7.75602c-2.21422,-8.46971 15.4358,-19.05664 15.4358,-19.05664" stroke-linecap="round"/><path d="M366.49127,93.48108c0,0 14.91752,10.17236 13.95953,18.87415c-0.95799,8.70178 -19.69397,8.24227 -19.69397,8.24227" stroke-linecap="round"/></g><path d="M303.17785,303.19738c0,12.07845 -14.05254,12.0946 -26.42621,10.02373c-3.74666,-0.62704 0.91125,-90.76992 0.91125,-147.16667c0,-12.07845 6.49345,-19.59185 17.31372,-19.59185c10.82028,0 8.20123,144.65633 8.20123,156.73478z" fill="#ffffff" stroke="#000000" stroke-linecap="butt"/><path d="M344.52361,146.4626c10.82027,0 17.31373,7.5134 17.31373,19.59185c0,56.39675 4.6579,146.53963 0.91125,147.16667c-12.37367,2.07087 -26.42621,2.05471 -26.42621,-10.02373c0,-12.07845 -2.61904,-156.73478 8.20123,-156.73478z" fill="#ffffff" stroke="#000000" stroke-linecap="butt"/><path d="M348.49596,230.80559c0.92651,27.98507 3.05511,81.8275 3.05511,81.8275c0,0 -20.79344,4.6551 -31.39457,4.79869c-10.48276,0.14198 -31.86105,-3.94191 -31.86105,-3.94191c0,0 2.19569,-50.27311 3.2589,-79.22151l-0.67885,-28.57646c-0.18171,-4.40305 -0.13014,-8.86446 -0.13014,-13.12198c0,-10.57745 -5.40321,-36.50185 0.09948,-43.31506c5.26311,-6.51658 21.25484,5.84458 29.15292,5.84458c6.18786,0 17.25598,-8.11643 24.62117,-8.55617c3.03718,-0.18133 4.77242,3.12758 6.33744,5.40002c1.10943,1.61092 1.76661,3.90089 1.81993,7.1931c0.16528,10.2054 -3.52612,26.251 -3.52612,33.43353l-0.00002,-0.00001c0,4.80106 0.07616,9.88466 -0.19224,14.85856z" fill="#ffffff" stroke="#000000" stroke-linecap="butt"/><path d="M303.32187,150.41865c0,0 4.0768,-1.09074 4.45335,-2.09485c0.49949,-1.332 -0.9906,-19.04611 -0.9906,-19.04611h26.42621c0,0 -1.48509,18.5285 -0.82516,20.01335c0.35699,0.80323 4.65241,1.85663 4.65241,1.85663c0,0 -6.78785,11.07569 -16.58472,10.81348c-8.39544,-0.22469 -17.13148,-11.54248 -17.13148,-11.54248z" fill="#b7b84b" stroke="#000000" stroke-linecap="butt"/><path d="M361.28031,89.13916c0,0.48906 -13.60318,37.3376 -30.3442,49.34613c-3.53797,2.53783 -9.30539,1.68248 -12.78823,1.68248c-4.72415,0 -10.86474,0.20352 -15.26086,-3.98547c-14.18073,-13.51257 -23.92283,-45.05851 -23.92283,-45.51074c0,-0.59242 13.19224,24.82005 40.09494,23.75204c26.6871,-1.05944 42.22119,-25.87686 42.22119,-25.28443z" fill="#000000" stroke="#000000" stroke-linecap="butt"/><g stroke-linecap="butt"><g><path d="M315.3832,93.92429c0,7.77294 -5.26562,15.0251 -12.21073,15.0251c-6.94511,0 -15.30898,-8.20312 -15.30898,-15.97606c0,-7.77294 7.99937,-15.97607 14.94448,-15.97607c6.94511,0 12.57523,9.15408 12.57523,16.92702z" fill="#f5f5b3" stroke="none"/><path d="M315.15539,94.39976c0,7.77294 -5.26562,15.02512 -12.21073,15.02512c-6.94511,0 -15.30898,-8.20312 -15.30898,-15.97606c0,-0.13899 0.00257,-0.2781 0.00762,-0.4173c3.92242,3.33731 8.92999,5.3385 14.38546,5.3385c4.88603,0 9.41279,-1.60523 13.12247,-4.33788c0.00277,0.12286 0.00417,0.24542 0.00417,0.36764z" fill="#c9c958" stroke="none"/><path d="M292.55643,93.35371c0,-5.40954 4.039,-9.79484 9.02136,-9.79484c4.98236,0 9.02136,4.3853 9.02136,9.79484c0,5.40954 -4.039,9.79485 -9.02136,9.79485c-4.98236,0 -9.02136,-4.38531 -9.02136,-9.79485z" fill="#000000" stroke="#000000"/><path d="M315.3832,94.87524c0,7.77294 -5.26562,15.02511 -12.21073,15.02511c-6.94511,0 -15.30898,-8.20313 -15.30898,-15.97607c0,-7.77294 7.99937,-15.97606 14.94448,-15.97606c6.94511,0 12.57523,9.15408 12.57523,16.92702z" fill="none" stroke="#000000"/></g><g><path d="M336.27053,73.54691c6.92824,0.50483 14.30924,10.03815 13.74171,18.52056c-0.56754,8.48241 -9.51004,16.82631 -16.43828,16.32148c-6.92824,-0.50483 -11.65156,-8.80169 -11.08403,-17.28408c0.56753,-8.4824 6.85236,-18.06277 13.7806,-17.55794z" fill="#f5f5b3" stroke="none"/><path d="M322.71344,91.23941c3.50114,3.25172 7.89971,5.33251 12.77387,5.68767c5.44222,0.39655 10.58375,-1.42329 14.74031,-4.7801c-0.00511,0.15228 -0.01272,0.30427 -0.02286,0.45593c-0.56754,8.48241 -9.51004,16.82631 -16.43827,16.32148c-6.92824,-0.50483 -11.65157,-8.80168 -11.08403,-17.28409c0.00892,-0.13337 0.01926,-0.26703 0.03099,-0.40089z" fill="#c9c958" stroke="none"/><path d="M335.58831,102.17457c-4.97026,-0.36217 -8.67927,-5.44133 -8.28429,-11.34462c0.39498,-5.90329 4.74435,-10.39527 9.71462,-10.03311c4.97026,0.36217 8.67926,5.44132 8.28429,11.34461c-0.39498,5.9033 -4.74435,10.39528 -9.71462,10.03311z" fill="#000000" stroke="#000000"/><path d="M336.2011,74.58467c6.92824,0.50483 14.30924,10.03816 13.7417,18.52056c-0.56754,8.48241 -9.51004,16.8263 -16.43828,16.32147c-6.92824,-0.50483 -12.335,-9.75264 -11.76746,-18.23504c0.56753,-8.4824 7.5358,-17.11181 14.46404,-16.60699z" fill="none" stroke="#000000"/></g></g><g fill="#f5f5b3" stroke="none" stroke-linecap="butt"><path d="M296.31633,93.04123c-0.12457,0.01659 -0.14118,-0.10799 -0.14118,-0.10799l-0.00418,-0.03141c0.00499,-0.15977 0.21176,-0.33069 0.3696,-0.30551c0,0 0.11924,0.03974 0.0795,0.15897c-0.03975,0.11924 -0.15899,0.0795 -0.15899,0.0795c-0.01344,-0.01153 -0.04976,0.01847 -0.04095,0.03384l0.00418,0.03142c0,0 0.01659,0.12459 -0.10799,0.14118z"/><path d="M301.01938,101.18038c0,0 -0.12568,0.00001 -0.12568,-0.12569c0,-0.12568 0.12568,-0.12568 0.12568,-0.12568c0.06703,0 0.13406,0 0.20109,0h0.25137c0.06942,0 0.12568,0.05627 0.12568,0.12568c0,0.06942 -0.05627,0.12569 -0.12568,0.12569c-0.06703,0 -0.38544,0 -0.45246,0z"/><path d="M309.32094,96.12156c0.03372,0 0.0584,0.00905 0.07645,0.02228c0.04703,-0.0447 0.08655,-0.09652 0.11279,-0.1539c0,0 0.0562,-0.11241 0.16861,-0.05621c0.11242,0.05621 0.05622,0.16863 0.05622,0.16863c-0.07119,0.13411 -0.18087,0.25883 -0.3155,0.32934l-0.08548,0.17096c-0.02015,0.04251 -0.06346,0.07191 -0.11363,0.07191c-0.06942,0 -0.12569,-0.05627 -0.12569,-0.12568c0,-0.02111 0.0052,-0.041 0.0144,-0.05848l0.09942,-0.19883l-0.01327,-0.04434c0,0 0,-0.12569 0.12568,-0.12569z"/><path d="M294.45448,98.72283l-0.07684,0.19167c-0.05925,-0.05925 -0.1185,-0.1185 -0.17775,-0.17775c0,0 -0.08888,-0.08888 0,-0.17774c0.05253,-0.05253 0.10505,-0.04296 0.13923,-0.02636c0.00005,-0.00002 0.00009,-0.00003 0.00013,-0.00006c0.11528,-0.05008 0.16536,0.06521 0.16536,0.06521l-0.02524,0.06292c0.02534,0.02534 0.05068,0.05068 0.07602,0.07601z"/><path d="M302.58223,86.80084c-0.01593,0.10409 -0.127,0.10128 -0.127,0.10128l-0.28327,-0.00718c-0.06813,-0.00149 -0.12289,-0.05717 -0.12289,-0.12565c0,-0.05394 0.03399,-0.09995 0.08172,-0.11779l0.23066,-0.09226l0.00302,0.00754l0.01991,-0.01427c0.09171,-0.00075 0.18342,-0.0015 0.27514,-0.00227c0,0 0.12568,-0.00001 0.12568,0.12569c0,0.12569 -0.12568,0.12569 -0.12568,0.12569c-0.02576,-0.00025 -0.05153,-0.00052 -0.07729,-0.00077z"/></g><path d="M344.96849,154.33553l-2.31954,-6.3456c0,0 1.98197,-0.48144 3.2302,-0.45404c1.18438,0.026 4.07768,0.69139 4.07768,0.69139l4.61015,5.90576z" fill="#ffffff" stroke="none" stroke-linecap="butt"/><g fill="#f5f5b3" stroke="none" stroke-linecap="butt"><path d="M335.71344,91.40099c-0.12457,0.01659 -0.14118,-0.10799 -0.14118,-0.10799l-0.00418,-0.03142c0.00499,-0.15977 0.21177,-0.33069 0.3696,-0.3055c0,0 0.11924,0.03974 0.0795,0.15897c-0.03975,0.11923 -0.15899,0.07949 -0.15899,0.07949c-0.01343,-0.01153 -0.04975,0.01848 -0.04095,0.03386l0.00419,0.03141c0,0 0.01659,0.12459 -0.108,0.14118z"/><path d="M340.41649,99.54014c0,0 -0.12568,0 -0.12568,-0.12568c0,-0.12568 0.12568,-0.12568 0.12568,-0.12568c0.06703,0 0.13407,0 0.2011,0h0.25137c0.06942,0 0.12568,0.05627 0.12568,0.12568c0,0.06941 -0.05627,0.12568 -0.12568,0.12568c-0.06703,0 -0.38543,0 -0.45246,0z"/><path d="M331.95107,85.36883c0.03372,0 0.05839,0.00905 0.07644,0.02228c0.04703,-0.0447 0.08655,-0.09652 0.11279,-0.1539c0,0 0.05621,-0.11241 0.16863,-0.05621c0.11242,0.05621 0.05622,0.16863 0.05622,0.16863c-0.07119,0.13411 -0.18088,0.25883 -0.31551,0.32934l-0.08548,0.17096c-0.02015,0.04251 -0.06346,0.07191 -0.11363,0.07191c-0.06941,0 -0.12568,-0.05627 -0.12568,-0.12568c0,-0.02111 0.0052,-0.041 0.0144,-0.05848l0.09942,-0.19884l-0.01327,-0.04434c0,0 0,-0.12568 0.12568,-0.12568z"/><path d="M333.85159,97.08258l-0.07683,0.19166c-0.05925,-0.05925 -0.1185,-0.11849 -0.17775,-0.17774c0,0 -0.08888,-0.08886 0,-0.17773c0.05253,-0.05253 0.10505,-0.04297 0.13923,-0.02636c0.00005,-0.00002 0.00008,-0.00003 0.00012,-0.00006c0.11528,-0.05008 0.16536,0.06521 0.16536,0.06521l-0.02523,0.06293c0.02534,0.02534 0.05068,0.05067 0.07602,0.07601z"/><path d="M341.97935,85.1606c-0.01593,0.10409 -0.127,0.10128 -0.127,0.10128l-0.28327,-0.00718c-0.06813,-0.00149 -0.12289,-0.05718 -0.12289,-0.12565c0,-0.05396 0.03399,-0.09996 0.08173,-0.11778l0.23066,-0.09228l0.00302,0.00753l0.0199,-0.01426c0.09171,-0.00075 0.18343,-0.00151 0.27514,-0.00226c0,0 0.12568,0 0.12568,0.12568c0,0.12568 -0.12568,0.12568 -0.12568,0.12568c-0.02576,-0.00025 -0.05153,-0.00051 -0.07729,-0.00077z"/></g><path d="M287.0595,154.33553l2.07102,-5.5172c0,0 1.40611,-0.98676 2.3654,-1.08969c2.0317,-0.218 5.35536,0.26128 5.35536,0.26128l-2.31955,6.3456z" fill="#ffffff" stroke="none" stroke-linecap="butt"/><g fill="#f5f5b3" stroke="#000000" stroke-linecap="butt"><path d="M344.09162,107.74692c0.15429,0.01556 0.30048,0.49785 0.35784,1.08808c0.05349,0.6288 0.24149,1.85562 0.42203,2.76997c0.31117,1.55093 0.25314,1.7399 -0.45701,2.21378c-0.4554,0.26578 -1.34673,0.60451 -2.02189,0.73124c-0.63658,0.13063 -1.4738,0.31895 -1.83648,0.43823c-0.55944,0.13841 -0.6865,-0.14715 -0.74323,-1.51658c-0.09671,-1.88465 0.08362,-3.91617 0.42926,-5.54738c0,0 2.47907,-3.58842 3.04079,-1.8174z"/><path d="M295.4822,108.44543l-1.09409,6.23255l-1.1918,-0.15914c-0.65181,-0.10469 -1.666,-0.47969 -2.25202,-0.85048c-0.84435,-0.51373 -1.04077,-0.88421 -0.87418,-1.76357c0.34129,-2.22544 1.50909,-5.69229 2.17711,-6.52108z"/><path d="M299.78238,109.54043c1.36652,3.44966 2.26243,5.86666 1.95322,6.61474c-0.54873,1.19149 -2.05429,2.59819 -2.74856,2.52818c-1.0761,-0.14746 -2.14733,-1.5023 -2.312,-2.96054c-0.21815,-2.08704 0.08586,-5.87477 0.64238,-7.14339c0,0 1.77976,-0.74454 2.46497,0.96101z"/><path d="M337.03415,110.50301c1.46798,2.05721 2.03522,6.47827 0.96951,7.77348c-0.18151,0.25444 -1.28484,0.37697 -2.44974,0.33743l-2.13695,-0.05962l0.07646,-3.84963c0.0875,-3.18615 0.24631,-3.98835 0.78695,-4.7131c0.93056,-1.11403 1.69419,-0.9591 2.75376,0.51145z"/><path d="M330.8884,112.69777c0.94774,1.42031 1.34677,4.03211 0.80549,5.53606c-0.375,1.01419 -4.41911,2.86626 -4.53418,2.0754c-0.04992,-0.27778 -0.31117,-1.55094 -0.6071,-2.86656c-0.35841,-1.59337 -0.34828,-2.82276 0.05597,-3.79161c0,0 3.18946,-2.50486 4.27982,-0.95328z"/><path d="M307.56021,113.1319c-0.02723,0.27 0.33062,1.35808 0.72314,2.48863c0.91988,2.4695 0.90401,3.01339 -0.33966,4.91406c-1.2939,2.0125 -1.88444,2.45947 -3.15729,2.33112c-1.77427,-0.17891 -2.37131,-1.21318 -2.11461,-3.75886c0.12446,-1.23427 0.4301,-2.33338 0.63462,-2.42964c0.2431,-0.09238 0.44793,-0.57824 0.4946,-1.04109c0.04667,-0.46285 0.47582,-1.62744 0.92797,-2.63385c0.44826,-0.96783 2.83123,0.12964 2.83123,0.12964z"/><path d="M314.51135,114.81182c2.02472,3.17596 2.33364,1.39446 2.17848,3.27528c-0.14002,1.38855 -0.37955,1.83195 -1.52597,2.76836c-0.76039,0.58571 -1.94507,1.12862 -2.65102,1.17432c-1.09555,0.04538 -1.39243,-0.10144 -1.84687,-1.00445c-0.4891,-0.94548 -0.48847,-1.72467 0.00418,-5.06477c0.16128,-1.04536 0.31298,-0.84964 0.51287,-1.69031z"/><path d="M324.08869,113.94936c1.41301,2.44891 1.89641,6.53234 0.58986,7.39547c-1.04206,0.67418 -4.78343,0.29693 -5.24564,-0.52894c-1.36923,-2.41482 0.06437,-3.54431 0.90374,-6.19037z"/><path d="M341.78259,123.75017c0.45832,0.86444 0.50791,1.53181 0.17472,3.29052c-0.48034,2.4452 -1.5347,4.0143 -2.61469,3.90541c-0.88714,-0.08946 -1.20283,-0.82263 -1.70167,-3.98998c-0.41815,-2.80854 -0.22885,-3.14012 2.18264,-3.87104c1.3234,-0.37308 1.40055,-0.36531 1.95902,0.66509z"/><path d="M300.22529,124.52621c1.15131,2.49284 -0.16397,7.03579 -1.9768,6.85298c-1.11856,-0.11279 -3.81725,-6.58003 -2.97194,-7.2351c0.12739,-0.10404 0.81808,-0.38506 1.5357,-0.54648c2.11815,-0.52672 2.80076,-0.34099 3.41304,0.9286z"/><path d="M333.84438,136.71499c-0.3465,-0.8142 -1.39361,-3.07071 -1.72909,-3.22142c-0.99863,-0.52929 -0.43726,-3.00529 0.91368,-4.03796c0.63301,-0.48166 1.4203,-0.94774 1.73665,-0.99377c1.67443,-0.37664 2.01639,1.25533 1.20287,5.45924z"/><path d="M329.1386,131.34014c1.2845,0.01263 0.51897,6.83189 -0.96747,8.43535l-1.51594,-0.03597c-0.41618,-0.50952 -0.70109,-1.16166 -0.66997,-1.47022c0.02723,-0.27 -0.08816,-0.67126 -0.25768,-0.92213c-0.1734,-0.2123 -0.50824,-1.14221 -0.72735,-2.06046c-0.35363,-1.51626 -0.32641,-1.78626 0.3105,-2.30648c0.38603,-0.35071 1.33539,-0.87838 2.10324,-1.15162c0.76784,-0.27325 1.53182,-0.50791 1.72467,-0.48847z"/><path d="M305.36935,128.55348c0.68229,0.57532 0.75521,1.01127 0.54908,3.05553c-0.28392,2.81568 -1.04884,4.21914 -2.33724,4.24508c-1.09555,0.04538 -1.33053,-0.32898 -1.99144,-3.43474c-0.84923,-3.94298 -0.83335,-4.48686 -0.08105,-4.60581c1.50458,-0.23792 3.109,0.07971 3.86066,0.73995z"/><path d="M321.5564,133.12925c0.3076,1.19991 -0.3471,4.60161 -0.96456,4.92898c-0.20452,0.09626 -0.40548,0.54356 -0.45216,1.00641c-0.12876,1.27703 -2.08995,0.87272 -2.61452,-0.29868c-0.70633,-1.57731 -1.25905,-3.79095 -1.12268,-5.14335c0.10501,-1.04142 0.28653,-1.29585 1.23167,-1.39536c0.59024,-0.05737 1.26149,-0.14553 1.46212,-0.20323c1.31563,-0.29593 2.17164,0.10208 2.46012,1.10524z"/><path d="M308.88657,131.35077l2.50711,0.2528l2.50711,0.2528l-0.33805,2.96607c-0.22525,1.98215 -0.41048,3.07574 -0.7609,3.92758c-0.57694,1.4025 -2.69747,0.9561 -3.21123,-0.47077c-0.27324,-0.76785 -0.66219,-1.54736 -0.84338,-1.68253c-0.21975,-0.13905 -0.24959,-1.38888 -0.10957,-2.77743z"/></g><path d="M287.52513,314.31602c0,0 2.30103,-35.56417 4.79399,-67.58561c0.74445,-9.56217 2.8919,-20.48965 3.41599,-31.49131c1.56027,-32.75273 0.90251,-67.30191 0.90251,-67.30191c0,0 2.44322,0.36427 3.81753,0.64497c1.28094,0.26163 4.16792,1.44167 4.16792,1.44167l-0.23387,48.86396l32.79104,-0.16897l-0.29779,-49.96475l6.7604,-1.60157c0,0 -0.2251,33.46855 1.24367,65.57022c0.50051,10.93918 2.52589,22.73083 3.18833,32.24209c2.21376,31.78498 4.45268,68.43997 4.45268,68.43997c0,0 -20.58321,4.51122 -30.68161,4.65279c-11.40879,0.15994 -34.3208,-3.74155 -34.3208,-3.74155z" fill="#9b9d30" stroke="#000000" stroke-linecap="butt"/><path d="M268.31618,235.81993l32.48739,-87.22307l3.87143,0.01657l-36.05507,97.53399z" fill="#2b2b24" stroke="#000000" stroke-linecap="butt"/><path d="M375.08415,244.02117l-38.84957,-93.88899l3.29155,-0.34794l35.55802,84.51694z" fill="#2b2b24" stroke="#000000" stroke-linecap="butt"/><g fill="#ffffff" stroke="#000000" stroke-linecap="butt"><path d="M305.58614,154.5105c0,0 -1.52401,-7.20035 -1.62853,-8.18455c-0.023,-0.2166 0.71728,-0.39638 0.71728,-0.39638l15.56716,13.82061c0,0 0.89561,2.38074 -0.13487,2.30703c-1.67521,-0.11983 -6.33649,-0.33793 -7.95822,-1.19502c-2.66438,-1.40813 -6.56281,-6.35169 -6.56281,-6.35169z"/><path d="M328.6617,160.86219c-1.62173,0.85709 -6.28302,1.07519 -7.95822,1.19502c-1.0305,0.07371 -0.13487,-2.30703 -0.13487,-2.30703l15.56716,-13.8206c0,0 0.74028,0.17979 0.71728,0.39638c-0.10452,0.98419 -1.62853,8.18455 -1.62853,8.18455c0,0 -3.89844,4.94357 -6.56281,6.35169z"/></g><g fill="#ffff70" stroke="#000000" stroke-linecap="butt"><path d="M362.26968,202.21522l3.22433,-21.85201l3.983,21.85201z"/><path d="M374.02903,200.72245v6.53519h-16.88036v-6.53519z"/><path d="M355.63134,244.22225v-39.21108h20.10469v39.21108z"/></g><g fill="#ffff70" stroke="#000000" stroke-linecap="butt"><path d="M341.76658,202.21522l3.22434,-21.85201l3.983,21.85201z"/><path d="M353.52593,200.72245v6.53519h-16.88035v-6.53519z"/><path d="M335.12824,244.22225v-39.21108h20.10469v39.21108z"/></g><g fill="#ffffb6" stroke="#000000" stroke-linecap="butt"><g><path d="M270.35382,237.59764v-38.36361h29.46371v38.36361z"/><path d="M276.42881,205.86303l-4.10062,-6.62901c0,0 17.1392,0 22.50103,0c2.98263,0 8.70234,-0.16568 8.70234,-0.16568l0.53847,6.79469z"/></g><g><path d="M274.3785,242.88674v-38.36362c0,0 24.71727,0 28.09956,0c0.83571,0 1.36415,0.52586 1.36415,1.36157c0,3.97035 0,37.00205 0,37.00205z"/><path d="M278.47911,211.15213c0,0 -3.20396,-5.17948 -3.77518,-6.10291c-0.25185,-0.40714 0.41294,-0.52609 0.89168,-0.52609c3.28911,0 29.02767,0 29.02767,0l1.49705,6.62901z"/></g><g><path d="M278.25131,246.6949v-38.36362h29.46371v38.36362z"/><path d="M282.35193,214.96029l-4.10061,-6.62901h29.46371l2.27812,6.62901z"/></g></g><g stroke-linecap="butt"><g stroke="#000000"><path d="M266.69611,253.27985v-30.36927h108.94732v30.36927z" fill="#ffffff"/><path d="M266.90227,254.43722c0,0 -0.65499,-0.73091 0.02517,-0.73047c10.75969,0.00687 101.45134,0.06566 108.36855,0.09917c0.60577,0.00294 0.46601,0.50986 0.02663,0.89409c-1.09893,0.96096 -5.13151,2.9682 -5.13151,2.9682l-96.90264,-0.45668c0,0 -5.17237,-1.90059 -6.38621,-2.77432z" fill="#fdfde9"/></g><g fill="#000000" stroke="none"><path d="M293.03002,247.55858c0.06599,0.36919 -0.19171,0.71962 -0.57561,0.78269c-0.04984,0.00819 -0.09935,0.01112 -0.14793,0.00923c-0.07573,0.02749 -0.13011,0.03644 -0.13011,0.03644l-1.09265,-0.50863c-0.44415,-2.48475 -1.35725,-4.78263 -1.30072,-7.32828c0.02701,-1.21616 0.85338,-1.64431 1.32908,-2.44583c-2.18601,0.38039 -4.88282,0.99788 -7.03046,0.31097c-0.17864,2.82493 -0.28201,5.62974 0.22472,8.3745l0.23899,1.33699c0,0 0.1195,0.66849 -0.57561,0.78268c-0.69511,0.11419 -0.81461,-0.5543 -0.81461,-0.5543l-0.23899,-1.33698c-0.53195,-3.05941 -0.34452,-6.16484 -0.14222,-9.2854c-0.13718,-0.16066 -0.2842,-0.45069 -0.0214,-0.80803c0.02594,-0.03527 0.05256,-0.06669 0.07968,-0.09462c0.19134,-3.00865 0.33346,-6.02858 -0.20345,-9.03219c0,0 -0.1195,-0.66849 0.57561,-0.78268c0.69511,-0.11419 0.81461,0.5543 0.81461,0.5543c0.55968,3.13102 0.36479,6.30044 0.15436,9.45304c1.92176,0.92233 5.10055,0.00556 7.05991,-0.3163l0.27804,-0.04568c0,0 0.03087,-0.00507 0.08071,-0.00681c0.5937,-2.52004 0.3728,-4.69559 -1.34088,-6.74609c0,0 -0.44203,-0.52892 0.10758,-0.95338c0.54961,-0.42446 0.99163,0.10444 0.99163,0.10444c2.20078,2.63334 2.3844,5.6981 1.31785,8.98946c-0.29996,0.92567 -1.51975,1.44297 -1.4746,2.49067c0.09705,2.25198 0.71604,4.27147 1.15556,6.45587c0.33156,0.00641 0.62264,0.23802 0.6809,0.56396z"/><path d="M302.66146,233.81524c-2.20127,3.11854 -3.12659,6.51117 -1.43767,10.04429c1.26103,2.63802 -0.23787,4.54086 3.48168,3.12868c1.18885,-2.22226 3.67562,-8.83166 1.50675,-11.14234c-0.8337,-0.88821 -2.30428,-1.16053 -3.3347,-1.77844zM302.50143,232.42982c0.32298,-0.20518 0.59392,-0.10795 0.76176,0.00624c0.12213,0.07662 0.21949,0.18922 0.27369,0.3253l0.08965,0.15748c1.13986,0.69298 2.73991,0.99136 3.64263,2.02986c2.67625,3.0788 0.13515,10.13428 -1.61173,13.0414c-4.88594,2.21862 -4.06209,-0.32399 -5.73749,-3.61433c-2.03814,-4.00274 -0.74031,-8.16474 1.82635,-11.67236c0,0 0.30257,-0.41141 0.75514,-0.2736z"/><path d="M310.77232,234.735c-0.1195,-0.66849 0.57562,-0.78268 0.57562,-0.78268l0.15263,0.0001c-0.00249,-0.32614 0.24069,-0.61522 0.5859,-0.67193c0.14606,-0.024 0.28935,-0.00293 0.41447,0.0527l0.92091,0.394l-0.02249,0.04868l0.38365,0.18929l-0.03394,0.06371c0.75737,-0.07124 1.47217,0.11093 2.32428,0.24818l1.02666,-0.16866c0.38389,-0.06306 0.74861,0.18511 0.81461,0.5543c0.06599,0.36919 -0.19172,0.71962 -0.57561,0.78268l-1.11217,0.1827l-0.0264,-0.14768l-0.08649,0.15734c-0.13954,-0.01939 -0.27232,-0.03755 -0.39906,-0.05497c-0.54299,0.13594 -1.08806,0.20058 -1.64572,0.1889c0.48714,3.05669 0.41373,6.51457 -0.04038,9.3807c0,0 -0.10645,0.6703 -0.80367,0.56723c-0.69723,-0.10307 -0.59077,-0.77337 -0.59077,-0.77337c0.49636,-3.11856 0.05918,-6.24795 -0.03832,-9.37727c-0.36739,-0.09182 -0.74323,-0.21524 -1.13011,-0.37148l0.12102,0.09183c0,0 -0.69512,0.11419 -0.81461,-0.5543z"/><path d="M322.79705,228.49989c0.59387,-0.02707 0.69998,0.56652 0.69998,0.56652c0.65655,3.73707 -0.34603,8.55723 0.63699,11.62086c0.32888,1.02498 -0.0965,1.73072 -0.08763,2.71208c0.00343,0.37904 -0.68372,1.10456 -0.28951,1.10225c0.55172,-0.00322 1.13332,-0.00906 1.64299,0.19462c2.90598,1.26595 8.46132,-1.79394 8.30116,-5.03008c-0.19189,-3.87727 -1.96846,-4.28113 -4.69387,-6.14807c-0.62384,-0.80543 -5.20032,-6.74001 -6.21012,-5.01819zM322.22055,229.95474c-0.04071,0.01286 -0.08503,0.02345 -0.13326,0.03138c-0.69511,0.11419 -0.81461,-0.5543 -0.81461,-0.5543l-0.04991,-0.48466c1.18225,-6.05498 7.36814,1.7347 8.77246,3.6039c3.03144,2.0396 4.92276,2.92275 5.11636,7.10383c0.19475,4.20588 -6.46934,7.88791 -10.28402,6.28046c-0.57333,-0.27027 -1.40256,0.07575 -1.88473,-0.32686c-1.0015,-0.83624 -0.22957,-3.07552 -0.03233,-3.98367c0.20012,-0.92142 -0.9791,-1.54474 -0.74404,-2.69419c0.59107,-2.89035 0.5606,-5.85546 0.05409,-8.9759z"/><path d="M340.38428,237.43788c-0.16323,0.03683 -0.30206,0.0163 -0.30206,0.0163c-2.63938,-0.42058 -2.25973,3.36525 -2.5159,4.97831c-0.10852,0.68331 -0.5404,2.2269 0.1593,2.06853c2.06381,-0.46713 3.65158,-0.84183 5.79572,0.16003c0.9169,-0.09409 0.98246,-1.2213 1.0541,-1.90895c0.31495,-3.02284 -2.76091,-3.57979 -4.19115,-5.31422zM338.83334,236.36075c-0.0462,-0.1019 -0.0669,-0.23004 -0.04137,-0.39078c0.10645,-0.6703 0.80367,-0.56722 0.80367,-0.56722l1.20431,0.26268c0.69185,1.50967 2.90661,2.14459 4.15314,3.55226c1.9195,2.16763 1.53354,6.21814 -1.60588,6.78916c-1.82403,-0.72942 -5.76961,0.22653 -6.84515,-0.82385c-1.90684,-1.86222 -0.35431,-7.51797 2.33128,-8.82225z"/><path d="M363.44434,231.58733c0.11949,0.66849 -0.57561,0.78268 -0.57561,0.78268l-0.7501,0.11807c-1.01448,0.429 -2.03744,1.02494 -2.67725,1.8949c-0.3961,0.52367 -1.13477,2.42364 -0.99075,2.91136c0.14798,0.5011 1.00659,0.42924 1.41105,0.77599c2.42773,2.08132 5.40528,5.64059 2.09623,8.13034c-0.52474,0.39481 -2.13895,0.43279 -2.81625,0.54406c0,0 -0.69511,0.11419 -0.8146,-0.5543c-0.11949,-0.66849 0.57561,-0.78268 0.57561,-0.78268c0.30761,-0.05053 2.00615,-0.10117 2.18854,-0.2781c3.38421,-3.28298 -2.97105,-4.83997 -4.00048,-7.47629c-0.33292,-0.85259 0.69898,-3.36028 1.19862,-4.05428c1.14452,-1.55624 1.67152,-1.66974 3.42221,-2.41007l0.91816,-0.15599c0,0 0.69511,-0.11418 0.8146,0.5543z"/><path d="M347.12969,247.17164c0.20398,-0.64899 0.87914,-0.45217 0.87914,-0.45217l0.68606,0.20548c2.11026,0.9948 3.82396,-0.3349 4.24021,-2.25016c0.09862,-0.45378 -0.27541,-1.0443 -0.66341,-1.60437c-0.73674,0.31932 -1.68693,0.33417 -2.80847,-0.09538c-1.88684,-0.72266 -1.70917,-3.46889 -1.05006,-4.90026c1.24299,-2.69935 3.79273,-3.40969 6.5792,-2.99932c0,0 0.69723,0.10306 0.59078,0.77336c-0.10645,0.6703 -0.80367,0.56724 -0.80367,0.56724c-0.31122,-0.04619 -0.78494,-0.01345 -1.33199,0.08889c0.12746,0.71306 0.35532,1.98773 0.48278,2.70079c0.21274,1.22194 -0.04111,2.3587 -0.67526,3.12357c0.4779,0.78898 1.20982,1.45936 1.07994,2.51435c-0.36606,2.97324 -3.3864,4.44975 -6.21233,3.32041l-0.52172,-0.14662c0,0 -0.67517,-0.19682 -0.47118,-0.84581zM351.52183,241.75836c-0.27254,-1.26287 -0.00225,-2.75204 0.4255,-4.10347l-0.10865,-0.01283l0.09182,-0.72478c-2.03603,0.72119 -4.03458,2.1344 -2.63443,3.88739c0.66553,0.83324 1.54239,1.13911 2.22576,0.95369z"/></g></g><g stroke="#000000" stroke-linecap="butt"><path d="M287.64106,70.54958l7.83674,-26.60846c0,0 15.41771,-2.96986 22.60046,-2.99871c7.87939,-0.03165 22.77972,2.81646 22.77972,2.81646l8.20124,26.06171c0,0 -19.72523,2.80077 -30.06463,2.92349c-10.129,0.12022 -31.35354,-2.19449 -31.35354,-2.19449z" fill="#ffffff"/><path d="M287.85508,70.51327l1.13906,-3.87281c0,0 19.64981,2.19962 29.61248,2.16116c9.69798,-0.03744 29.39087,-2.38896 29.39087,-2.38896l1.13906,3.41718c0,0 -20.75168,3.64499 -30.98246,3.64499c-10.04095,0 -30.29902,-2.96155 -30.29902,-2.96155z" fill="#9b9d30"/><path d="M317.47736,54.81041c0,0 6.26731,-2.86984 10.02466,-4.05175c4.17512,-1.31332 13.9051,-3.47554 13.9051,-3.47554l1.11617,3.84992c0,0 -11.0342,2.42473 -14.99318,3.75942c-2.97011,1.00131 -6.65846,3.54004 -6.65846,3.54004z" fill="#9b9d30"/><path d="M322.93816,68.01818c0,0 0.24599,-4.63977 -6.5101,-8.99604c-9.14947,-5.89949 -22.42204,-7.87291 -22.42204,-7.87291l1.36687,-3.87281c0,0 12.62124,0.99784 23.162,8.00865c7.96374,5.29679 8.95952,12.73311 8.95952,12.73311z" fill="#9b9d30"/></g></g></g></svg>