<svg version="1.1" xmlns="http://www.w3.org/2000/svg" xmlns:xlink="http://www.w3.org/1999/xlink" width="118.31718" height="107.55382" viewBox="0,0,118.31718,107.55382"><g transform="translate(-182.97964,-126.55916)"><g data-paper-data="{&quot;isPaintingLayer&quot;:true}" fill-rule="nonzero" stroke-linejoin="miter" stroke-miterlimit="10" stroke-dasharray="" stroke-dashoffset="0" style="mix-blend-mode: normal"><g data-paper-data="{&quot;index&quot;:null}" stroke-linecap="butt"><path d="M197.75124,210.14405c6.87139,-6.01316 10.27899,5.76176 17.16566,8.58578c5.58377,2.28974 11.501,-1.66911 11.501,-1.66911l6,4.41667c0,0 -8.25551,8.21796 -21.5,5.58333c-8.30273,-1.6516 -18.78523,-11.99986 -13.16667,-16.91667z" fill="#ecec68" stroke="#000000" stroke-width="2"/><path d="M201.34608,221.41132l-4.33946,-4.67008l8.14976,-7.57279l4.33946,4.67009z" fill="#000000" stroke="none" stroke-width="0"/><path d="M211.83217,227.20079l-5.50931,-2.08252l4.09743,-9.23928l4.50931,3.08252z" fill="#000000" stroke="none" stroke-width="0"/><path d="M225.09311,226.10025l-6.35739,1.72354l-1.57637,-8.46927l5.60739,-0.59853z" fill="#000000" stroke="none" stroke-width="0"/></g><g data-paper-data="{&quot;index&quot;:null}" stroke-linecap="butt"><path d="M263.37181,215.08563c2.13207,4.28539 1.06904,8.13448 -1.56812,9.44653c-2.63716,1.31205 -7.15152,-1.28994 -9.2836,-5.57532c-2.13207,-4.28539 -1.0745,-8.63136 1.56265,-9.94341c2.63716,-1.31205 7.15698,1.78682 9.28906,6.07221z" fill="#ecec68" stroke="#000000" stroke-width="2"/><path d="M255.40118,222.48774l8.69091,-3.88317c0,0 1.54536,4.04337 -1.96586,6.10093c-3.01623,1.76751 -6.72505,-2.21777 -6.72505,-2.21777z" fill="#000000" stroke="none" stroke-width="0"/><path d="M251.60629,216.31782l10.2274,-4.24793l1.57936,3.13003l-10.07342,4.69347z" fill="#000000" stroke="none" stroke-width="0"/></g><path d="M251.3364,222.13483c8.10762,-0.98594 10.11614,1.08266 9.04856,4.19238c-0.24133,0.70297 -2.02494,2.35805 -8.12546,2.66251c-6.67324,0.33304 -9.33602,0.0566 -9.41358,-0.68736c-0.16345,-1.56788 -1.06226,-3.15363 0.24117,-4.22642c1.16245,-0.95675 4.2645,-1.45651 8.24932,-1.94109z" data-paper-data="{&quot;index&quot;:null}" fill="#c5c556" stroke="#9b9b44" stroke-width="3" stroke-linecap="butt"/><path d="M245.41007,223.6572c-6.66237,0.33013 -14.64278,0.70938 -14.84748,-0.29494c-0.76922,-3.77404 4.93407,-17.52483 4.93407,-17.52483l17.31325,-1.08679c0,0 6.05654,14.96578 6.37326,16.84076c0.31672,1.87498 -6.55039,1.70789 -13.77309,2.0658z" data-paper-data="{&quot;index&quot;:null}" fill="#000000" stroke="#6e6e30" stroke-width="3" stroke-linecap="butt"/><path d="M233.33192,226.89299c1.25279,-0.83629 4.50274,-1.23731 8.5305,-1.30635c8.16615,-0.13998 9.94936,2.12573 8.5651,5.10799c-0.31607,0.68095 -2.67971,1.87931 -8.59956,1.91835c-5.41204,0.03569 -9.04974,-1.03191 -9.04974,-1.77241c0,-1.57141 -0.84166,-3.01612 0.5537,-3.94758z" data-paper-data="{&quot;index&quot;:null}" fill="#c5c556" stroke="#9b9b44" stroke-width="3" stroke-linecap="butt"/><g data-paper-data="{&quot;index&quot;:null}" stroke-linecap="butt"><path d="M233.17113,209.55902c2.84905,0.7477 4.76924,4.78735 3.55424,9.41703c-1.21499,4.6297 -5.10508,8.09625 -7.95412,7.34857c-2.84905,-0.7477 -4.67343,-4.29975 -3.45845,-8.92946c1.21499,-4.6297 5.00927,-8.58384 7.85832,-7.83613z" fill="#ecec68" stroke="#000000" stroke-width="2"/><path d="M228.49074,226.55999c-3.85657,-1.29965 -3.16675,-5.57294 -3.16675,-5.57294l9.29945,2.03251c0,0 -2.81981,4.65688 -6.13272,3.54043z" fill="#000000" stroke="none" stroke-width="0"/><path d="M236.11366,220.05981l-10.81797,-2.54439l0.90908,-3.38599l10.87801,2.07683z" fill="#000000" stroke="none" stroke-width="0"/></g><g><path d="M243.01852,212.01786c-47.19531,2.01619 -57.93735,-25.91048 -57.93735,-25.91048c0,0 7.81038,-4.66408 12.16846,-11.66459c10.82903,-17.50007 15.20508,-43.91376 43.90566,-44.91752c27.47892,-0.96103 34.4839,27.17097 46.10841,42.82909c5.25516,7.07864 12.19519,8.42086 12.19519,8.42086c0,0 -10.07726,29.26201 -56.44037,31.24264z" fill="#ecec68" stroke="none" stroke-width="0" stroke-linecap="butt"/><path d="M278.14264,191.08318c-2.60166,0.10611 -4.8137,-2.3326 -4.94071,-5.44702c-0.12703,-3.11441 1.87907,-5.72516 4.48074,-5.83127c2.60166,-0.10611 4.8137,2.33259 4.94071,5.44701c0.12703,3.11441 -1.87907,5.72517 -4.48073,5.83128z" data-paper-data="{&quot;index&quot;:null}" fill="#6e6e30" stroke="none" stroke-width="0" stroke-linecap="butt"/><path d="M193.56461,179.06144c2.09775,-2.18711 3.1566,-5.29395 4.97419,-7.64136c3.72508,-4.81089 5.927,-15.36392 11.7241,-23.89586c7.25345,-10.67528 18.05778,-16.3079 18.05778,-16.3079c0,0 -14.33899,18.35985 -14.26987,36.61192c0.12091,31.92204 18.51557,42.94782 18.51557,42.94782c0,0 -18.89844,-0.41367 -31.03865,-7.55748c-11.70427,-6.88727 -15.64107,-18.39516 -15.64107,-18.39516c0,0 4.22712,-2.16422 7.67794,-5.762z" fill="#cbcb6a" stroke="none" stroke-width="0" stroke-linecap="butt"/><g data-paper-data="{&quot;index&quot;:null}" stroke="none" stroke-width="0" stroke-linecap="butt"><path d="M267.1537,140.64165c0,0 0.42297,-1.52202 0.96649,-3.72346c0.74509,-3.01788 2.16201,-7.18407 7.09355,-9.28248c6.19459,-2.63584 12.34207,0.06851 15.04532,2.75526c2.58085,2.5651 6.7437,8.6554 2.03338,17.23203c-2.58671,4.70995 -7.9982,6.27607 -11.68033,7.16374c-2.70921,0.65313 -4.24374,1.15877 -4.24374,1.15877l-9.21463,-15.30387z" fill="#000000"/><path d="M278.5946,149.18253c-3.81679,0.15567 -7.03712,-2.81226 -7.19279,-6.62905c-0.15567,-3.81679 2.81226,-7.03712 6.62905,-7.19279c3.81679,-0.15567 7.03712,2.81226 7.19279,6.62905c0.15567,3.81679 -2.81226,7.03712 -6.62905,7.19279z" fill="#cbcb6a"/></g><path d="M242.87579,212.02368c-47.19531,2.01619 -57.93735,-25.91048 -57.93735,-25.91048c0,0 7.00842,-2.40238 12.83456,-11.69176c10.93453,-17.43435 14.53897,-43.88659 43.23954,-44.89036c27.47892,-0.96103 34.4839,27.17097 46.10841,42.82909c5.25516,7.07864 12.19519,8.42086 12.19519,8.42086c0,0 -10.07726,29.26201 -56.44037,31.24264z" data-paper-data="{&quot;index&quot;:null}" fill="none" stroke="#000000" stroke-width="3" stroke-linecap="butt"/><g data-paper-data="{&quot;index&quot;:null}" stroke="none" stroke-width="0" stroke-linecap="butt"><path d="M213.32488,142.83707l-7.93777,16.00343c0,0 -1.5706,-0.379 -4.32401,-0.80933c-3.7422,-0.58488 -9.26324,-1.70509 -12.22491,-6.18876c-5.39311,-8.16457 -1.74006,-14.57364 0.62333,-17.34039c2.47547,-2.89795 8.3823,-6.09395 14.77098,-3.97132c5.08602,1.68984 6.83752,5.7268 7.8259,8.67398c0.72098,2.14986 1.26649,3.63238 1.26649,3.63238z" fill="#000000"/><path d="M195.42472,145.6522c-0.15567,-3.81679 2.81226,-7.03712 6.62905,-7.19279c3.81679,-0.15567 7.03712,2.81226 7.19279,6.62905c0.15567,3.81679 -2.81226,7.03712 -6.62905,7.19279c-3.81679,0.15567 -7.03712,-2.81226 -7.19279,-6.62905z" fill="#cbcb6a"/></g><path d="M246.25309,129.76646c0,0 0.83702,10.24732 0.67685,15.44494c-0.21224,6.88692 -2.04729,11.97738 -2.04729,11.97738c0,0 -3.15228,-4.73236 -5.79925,-10.30897c-3.50562,-7.38559 -5.55664,-16.38573 -5.55664,-16.38573l10.27649,-1.19962z" data-paper-data="{&quot;index&quot;:null}" fill="#000000" stroke="none" stroke-width="0" stroke-linecap="butt"/><path d="M228.90738,148.06167c0,0 1.51529,-7.22847 11.63195,-7.51597c9.86599,-0.28038 15.8452,6.3953 15.8452,6.3953z" data-paper-data="{&quot;index&quot;:null}" fill="#000000" stroke="none" stroke-width="0" stroke-linecap="butt"/><path d="M224.87457,139.45101c0,0 2.41097,-8.4803 14.18226,-8.83529c11.47961,-0.34619 17.79116,7.53124 17.79116,7.53124z" data-paper-data="{&quot;index&quot;:null}" fill="#000000" stroke="none" stroke-width="0" stroke-linecap="butt"/><g data-paper-data="{&quot;index&quot;:null}" fill="#000000" stroke="none" stroke-width="0" stroke-linecap="butt"><path d="M292.63505,190.91098c0,0 -2.9298,0.50709 -10.52315,-1.16986c-5.18926,-1.14603 -7.33172,-4.10691 -7.33172,-4.10691c0,0 4.63467,-0.54911 9.18591,-2.46153c5.42291,-2.2787 9.01346,-5.28655 9.01346,-5.28655c0,0 5.11422,2.2147 5.06264,4.16466c-0.0615,2.32526 -5.40714,8.8602 -5.40714,8.8602z"/><path d="M291.04846,192.81338c0,0 -3.8337,1.65539 -3.19258,2.59674c-0.02733,0.01607 -0.05457,0.03229 -0.08173,0.0486c-1.5586,0.93707 -2.83625,2.2853 -3.68886,3.88841c-1.04953,1.19055 -1.94966,2.18487 -2.56641,2.5079c-0.73382,0.38437 -2.26185,1.20607 -3.05069,1.66224c-1.32046,-0.72262 -3.54664,-1.88766 -5.76024,-3.86399c-3.91915,-3.49904 -3.72337,-6.62977 -3.72337,-6.62977c0,0 3.93742,1.32935 8.32869,1.53032c5.23231,0.23948 13.73518,-1.74047 13.73518,-1.74047z"/><path d="M268.63806,203.61703c1.82678,1.0491 4.07429,1.03572 5.1334,1.64213c-0.26063,0.05487 -2.58161,1.33727 -2.79846,1.43587c-2.58913,1.17736 -4.891,1.97495 -7.02798,3.2349c-0.46673,-1.10831 -0.98124,-2.45902 -1.52412,-4.09132c-1.49343,-4.49026 -0.20826,-7.48005 -0.20826,-7.48005c0,0 2.31246,2.89644 6.42541,5.25846z"/></g><g data-paper-data="{&quot;index&quot;:null}" fill="#000000" stroke="none" stroke-width="0" stroke-linecap="butt"><path d="M192.49417,194.74505c0,0 -5.86006,-6.07791 -6.11072,-8.39044c-0.21021,-1.93929 4.70667,-4.5631 4.70667,-4.5631c0,0 3.82358,2.70547 9.41404,4.53499c4.69185,1.53544 9.35586,1.70531 9.35586,1.70531c0,0 -1.89421,3.12552 -6.97291,4.69033c-7.43157,2.28976 -10.39293,2.02293 -10.39293,2.02293z"/><path d="M193.34595,196.29778c0,0 9.52034,1.49505 14.71577,0.8303c4.36033,-0.55791 8.1764,-2.20348 8.1764,-2.20348c0,0 0.45008,3.10437 -3.17111,6.91096c-2.04531,2.15002 -4.16922,3.49247 -5.42646,4.32024c-0.82337,-0.39042 -2.41322,-1.08495 -3.17591,-1.40829c-0.53068,-0.22496 -3.49474,0.32304 -4.38983,-0.52499c-0.18606,-0.17626 1.82442,-1.57609 1.62772,-1.76559c-0.98032,-1.52834 -4.0764,-1.82247 -5.70615,-2.6295c-0.02841,-0.01406 -0.82663,-0.49701 -0.85518,-0.51081c0.56234,-0.99044 -1.79524,-3.01883 -1.79524,-3.01883z"/><path d="M212.46354,207.50937c1.00621,-0.69064 3.24736,-0.86034 4.98264,-2.05472c3.90695,-2.6891 5.97585,-5.76424 5.97585,-5.76424c0,0 1.52439,2.87521 0.40157,7.47217c-0.40815,1.67107 -0.81096,3.0592 -1.18588,4.20183c-2.23247,-1.08173 -4.59166,-1.68923 -7.26805,-2.65183c-0.22415,-0.08062 -2.64186,-1.16976 -2.90611,-1.20321z"/></g><path d="M219.54588,193.58603c-2.60166,0.10611 -4.8137,-2.3326 -4.94071,-5.44702c-0.12703,-3.11441 1.87907,-5.72516 4.48074,-5.83127c2.60166,-0.10611 4.8137,2.33259 4.94071,5.44701c0.12703,3.11441 -1.87907,5.72517 -4.48073,5.83128z" data-paper-data="{&quot;index&quot;:null}" fill="#6e6e30" stroke="none" stroke-width="0" stroke-linecap="butt"/><g data-paper-data="{&quot;index&quot;:null}" fill="#000000" stroke="none" stroke-width="0" stroke-linecap="butt"><path d="M268.45752,155.02715c4.09761,-0.16712 7.70783,6.7698 8.06365,15.49405c0.35582,8.72425 -2.67751,15.93212 -6.77511,16.09924c-4.09761,0.16712 -7.70783,-6.7698 -8.06365,-15.49405c-0.35582,-8.72425 2.67751,-15.93212 6.77511,-16.09924z"/><path d="M274.06954,173.92558c0,0 0.87006,-0.04607 2.07395,-0.24308c1.61625,-0.26449 3.70804,-0.5512 3.90296,1.01606c0.16714,1.34396 -1.87098,2.54699 -3.52193,3.42063c-1.26754,0.67075 -2.23557,1.18614 -2.23557,1.18614c0,0 -3.67217,-0.49052 -3.72475,-1.77988c-0.05258,-1.28937 3.50534,-3.59986 3.50534,-3.59986z"/></g><g data-paper-data="{&quot;index&quot;:null}" fill="#000000" stroke="none" stroke-width="0" stroke-linecap="butt"><path d="M234.188,172.65446c0.35582,8.72425 -2.67751,15.93212 -6.77511,16.09924c-4.09761,0.16712 -7.70783,-6.7698 -8.06365,-15.49405c-0.35582,-8.72425 2.67751,-15.93212 6.77511,-16.09924c4.09761,-0.16712 7.70783,6.7698 8.06365,15.49405z"/><path d="M225.8568,179.75553c0.05258,1.28936 -3.56744,2.07729 -3.56744,2.07729c0,0 -1.00679,-0.43486 -2.32474,-1.00015c-1.71662,-0.73629 -3.84593,-1.76935 -3.78878,-3.12245c0.06663,-1.57793 2.17482,-1.46252 3.80724,-1.33051c1.21595,0.09832 2.08687,0.07338 2.08687,0.07338c0,0 3.73428,2.01309 3.78686,3.30244z"/></g><path d="M270.39135,160.68749c1.60559,-0.06549 3.02104,2.67305 3.16149,6.11671c0.14045,3.44366 -1.04728,6.28837 -2.65287,6.35386c-1.60559,0.06549 -3.02104,-2.67306 -3.16149,-6.11672c-0.14045,-3.44365 1.04728,-6.28836 2.65287,-6.35385z" data-paper-data="{&quot;index&quot;:null}" fill="#ffffff" stroke="none" stroke-width="0" stroke-linecap="butt"/><path d="M228.46755,162.10688c1.60559,-0.06549 3.02104,2.67305 3.16149,6.11671c0.14045,3.44365 -1.04728,6.28837 -2.65287,6.35386c-1.60559,0.06549 -3.02104,-2.67306 -3.16149,-6.11672c-0.14045,-3.44365 1.04728,-6.28836 2.65287,-6.35385z" data-paper-data="{&quot;index&quot;:null}" fill="#ffffff" stroke="none" stroke-width="0" stroke-linecap="butt"/><path d="M248.66965,188.88c-5.58613,0.22784 -10.33569,-5.00843 -10.60842,-11.69551c-0.27273,-6.68708 4.03463,-12.29273 9.62076,-12.52057c5.58613,-0.22784 10.33569,5.00843 10.60842,11.69551c0.27273,6.68708 -4.03463,12.29273 -9.62076,12.52057z" data-paper-data="{&quot;index&quot;:null}" fill="#6e6e30" stroke="none" stroke-width="0" stroke-linecap="butt"/><path d="M267.89815,180.54287c-0.88457,0.03608 -1.63667,-0.79308 -1.67985,-1.85198c-0.04319,-1.0589 0.63888,-1.94655 1.52345,-1.98262c0.88457,-0.03608 1.63667,0.79307 1.67985,1.85197c0.04319,1.0589 -0.63888,1.94656 -1.52345,1.98263z" data-paper-data="{&quot;index&quot;:null}" fill="#6e6e30" stroke="none" stroke-width="0" stroke-linecap="butt"/><path d="M225.42585,182.72698c-0.88457,0.03608 -1.63667,-0.79308 -1.67985,-1.85198c-0.04319,-1.0589 0.63888,-1.94655 1.52345,-1.98262c0.88457,-0.03608 1.63667,0.79307 1.67985,1.85197c0.04319,1.0589 -0.63888,1.94656 -1.52345,1.98263z" data-paper-data="{&quot;index&quot;:null}" fill="#6e6e30" stroke="none" stroke-width="0" stroke-linecap="butt"/><path d="M256.34738,179.9125c0,0 -1.54545,3.05177 -5.09785,2.72424c-2.48541,-0.22916 -3.22571,-3.8281 -3.22571,-3.8281c0,0 -0.12844,3.13665 -2.66047,3.92042c-3.57046,1.10523 -4.99222,-2.33442 -4.99222,-2.33442" data-paper-data="{&quot;index&quot;:null}" fill="none" stroke="#000000" stroke-width="2" stroke-linecap="round"/><g data-paper-data="{&quot;index&quot;:null}" stroke="none" stroke-width="0" stroke-linecap="butt"><path d="M247.88744,167.71782c3.41467,-0.13927 6.068,2.13861 6.16231,4.45107c0.09431,2.31246 -3.05685,6.96467 -5.82756,7.22773c-2.77151,0.26315 -6.16113,-4.42246 -6.25545,-6.73492c-0.09431,-2.31246 2.50602,-4.8046 5.92069,-4.94388z" fill="#000000"/><path d="M244.19339,171.7236c-0.03906,-0.95767 0.79831,-1.96163 3.63553,-1.96992c2.90802,-0.0085 4.02745,0.6981 4.06652,1.6558c0.03906,0.95768 -1.65343,1.80437 -3.7803,1.89111c-2.12686,0.08674 -3.88267,-0.61929 -3.92174,-1.57698z" fill="#ffffff"/></g></g></g></g></svg>