<svg version="1.1" xmlns="http://www.w3.org/2000/svg" xmlns:xlink="http://www.w3.org/1999/xlink" width="117.88675" height="109.38805" viewBox="0,0,117.88675,109.38805"><g transform="translate(-184.77997,-120.06865)"><g data-paper-data="{&quot;isPaintingLayer&quot;:true}" fill-rule="nonzero" stroke-linejoin="miter" stroke-miterlimit="10" stroke-dasharray="" stroke-dashoffset="0" style="mix-blend-mode: normal"><g stroke-linecap="butt"><path d="M288.37502,207.45833c5.61856,4.91681 -4.86394,15.26507 -13.16667,16.91667c-13.24449,2.63463 -21.5,-5.58333 -21.5,-5.58333l6,-4.41667c0,0 5.91723,3.95885 11.501,1.66911c6.88667,-2.82402 10.29427,-14.59894 17.16566,-8.58578z" fill="#ecec68" stroke="#000000" stroke-width="2"/><path d="M276.63041,211.15282l4.33946,-4.67009l8.14976,7.57279l-4.33946,4.67008z" fill="#000000" stroke="none" stroke-width="0"/><path d="M271.19665,216.27579l4.50931,-3.08252l4.09743,9.23928l-5.50931,2.08252z" fill="#000000" stroke="none" stroke-width="0"/><path d="M263.35949,216.07027l5.60739,0.59853l-1.57637,8.46927l-6.35739,-1.72354z" fill="#000000" stroke="none" stroke-width="0"/></g><g data-paper-data="{&quot;index&quot;:null}" stroke-linecap="butt"><path d="M263.48255,210.65005c3.79155,2.92137 4.51895,6.84775 2.72119,9.18102c-1.79776,2.33327 -6.99547,1.96764 -10.78703,-0.95373c-3.79155,-2.92137 -4.74117,-7.2922 -2.94341,-9.62546c1.79776,-2.33327 7.21769,-1.52319 11.00925,1.39818z" fill="#ecec68" stroke="#000000" stroke-width="2"/><path d="M259.55188,220.79262l6.11741,-7.29303c0,0 3.15807,2.96033 0.90032,6.34629c-1.93947,2.90865 -7.01773,0.94673 -7.01773,0.94673z" fill="#000000" stroke="none" stroke-width="0"/><path d="M253.44077,216.90373l7.33963,-8.29303l2.78921,2.12408l-7.0063,8.62636z" fill="#000000" stroke="none" stroke-width="0"/></g><g stroke-linecap="butt"><path d="M230.1708,208.02965c1.79776,2.33327 0.84814,6.7041 -2.94341,9.62546c-3.79155,2.92137 -8.98926,3.287 -10.78702,0.95373c-1.79776,-2.33327 -1.07036,-6.25965 2.72119,-9.18102c3.79155,-2.92137 9.21148,-3.73145 11.00924,-1.39818z" fill="#ecec68" stroke="#000000" stroke-width="2"/><path d="M216.07449,218.62366c-2.25775,-3.38597 0.90032,-6.34629 0.90032,-6.34629l6.11741,7.29303c0,0 -5.07826,1.96191 -7.01773,-0.94674z" fill="#000000" stroke="none" stroke-width="0"/><path d="M226.08079,218.13891l-7.0063,-8.62636l2.78921,-2.12407l7.33963,8.29303z" fill="#000000" stroke="none" stroke-width="0"/></g><path d="M240.91496,226.18342c0,0.7405 -3.6377,1.8081 -9.04974,1.77241c-5.91985,-0.03904 -8.28349,-1.2374 -8.59956,-1.91835c-1.38426,-2.98226 0.39895,-5.24797 8.5651,-5.10799c4.02776,0.06904 7.27771,0.47006 8.5305,1.30635c1.39536,0.93146 0.5537,2.37617 0.5537,3.94758z" fill="#c5c556" stroke="#9b9b44" stroke-width="3" stroke-linecap="butt"/><path d="M250.0935,220.92948c8.16615,-0.13998 9.94936,2.12573 8.5651,5.10799c-0.31292,0.67415 -2.25852,2.13538 -8.35773,1.80566c-6.6718,-0.36067 -9.29157,-0.91172 -9.29157,-1.65972c0,-1.57638 -0.72955,-3.24678 0.67809,-4.17864c1.25539,-0.83106 4.39253,-1.0065 8.40611,-1.0753z" data-paper-data="{&quot;index&quot;:null}" fill="#c5c556" stroke="#9b9b44" stroke-width="3" stroke-linecap="butt"/><path d="M241.68735,219.36998c-6.67004,0.08177 -14.65905,0.16354 -14.8262,-0.84771c-0.62812,-3.80007 5.58333,-17.32891 5.58333,-17.32891l17.34171,-0.44122c0,0 5.49496,15.18096 5.74163,17.06643c0.24667,1.88547 -6.60945,1.46275 -13.84047,1.55141z" fill="#000000" stroke="#6e6e30" stroke-width="3" stroke-linecap="butt"/><g stroke="none" stroke-width="0" stroke-linecap="butt"><path d="M240.34286,208.38045c-46.04369,-5.78279 -53.68293,-35.77376 -53.68293,-35.77376c0,0 7.02683,-0.76753 12.84575,-7.39052c12.87159,-14.6502 22.16401,-42.11165 49.47108,-38.89638c28.5211,3.35821 30.71239,30.0421 40.06715,48.37264c3.76821,7.33487 11.16905,12.62482 11.16905,12.62482c0,0 -12.99998,26.94978 -59.87012,21.06318z" fill="#ecec68"/><path d="M299.37388,185.95396c0,0 -5.0142,11.01616 -17.2447,16.9186c-12.68606,6.12231 -31.4093,5.11143 -31.4093,5.11143c0,0 19.23828,-9.47734 21.98126,-41.28154c1.56835,-18.18471 -11.21385,-37.66047 -11.21385,-37.66047c0,0 10.30508,6.50119 16.65699,17.73626c5.0766,8.97933 6.40412,19.67759 9.72137,24.77825c1.61861,2.48878 2.41865,5.67211 4.32962,8.02418c3.14359,3.86912 7.17863,6.37328 7.17863,6.37328z" fill="#cbcb6a"/></g><path d="M202.90039,178.66495c0.37645,-3.04506 3.15017,-5.20838 6.19525,-4.83191c3.04506,0.37645 5.2084,3.15016 4.83192,6.19523c-0.37645,3.04506 -3.15017,5.20839 -6.19524,4.83192c-3.04506,-0.37645 -5.2084,-3.15017 -4.83192,-6.19524z" fill="#6e6e30" stroke="none" stroke-width="0" stroke-linecap="butt"/><path d="M271.47567,187.25501c0.37646,-3.04506 3.15017,-5.20838 6.19525,-4.83191c3.04507,0.37645 5.20841,3.15016 4.83193,6.19523c-0.37646,3.04506 -3.15018,5.20839 -6.19525,4.83192c-3.04507,-0.37645 -5.2084,-3.15017 -4.83192,-6.19524z" fill="#6e6e30" stroke="none" stroke-width="0" stroke-linecap="butt"/><g stroke="none" stroke-width="0" stroke-linecap="butt"><path d="M222.0112,135.24522l-10.44074,14.49513c0,0 -1.48782,-0.63 -4.1342,-1.50349c-3.59677,-1.18718 -8.8613,-3.19257 -11.05232,-8.0991c-3.9898,-8.93461 0.65929,-14.66233 3.44216,-17.00673c2.91483,-2.45558 9.2637,-4.64576 15.22082,-1.50994c4.74246,2.49644 5.81231,6.76494 6.30697,9.83384c0.36083,2.23863 0.65734,3.79028 0.65734,3.79028z" fill="#000000"/><path d="M203.89157,135.10425c0.4687,-3.79111 3.92196,-6.48445 7.71308,-6.01573c3.79111,0.4687 6.48444,3.92197 6.01574,7.71307c-0.4687,3.79111 -3.92196,6.48444 -7.71307,6.01574c-3.79111,-0.4687 -6.48444,-3.92196 -6.01574,-7.71308z" fill="#cbcb6a"/></g><path d="M240.34285,208.38046c-46.04369,-5.78279 -53.68294,-35.77376 -53.68294,-35.77376c0,0 7.02683,-0.76753 12.84575,-7.39052c12.87159,-14.6502 22.16401,-42.11165 49.47108,-38.89638c28.5211,3.35821 29.94022,30.01713 39.40553,48.29085c5.0433,9.7366 11.83069,12.70663 11.83069,12.70663c0,0 -12.99998,26.94978 -59.87012,21.06319z" fill="none" stroke="#000000" stroke-width="3" stroke-linecap="butt"/><g data-paper-data="{&quot;index&quot;:null}" stroke="none" stroke-width="0" stroke-linecap="butt"><path d="M275.47771,141.85539c0,0 0.66547,-1.4327 1.56063,-3.51606c1.22715,-2.85603 3.30438,-6.73546 8.51205,-8.00174c6.54143,-1.5906 12.16575,2.07987 14.39479,5.17138c2.1281,2.95156 5.24228,9.63907 -0.80334,17.33299c-3.32001,4.2252 -8.91443,4.88807 -12.69201,5.16354c-2.77947,0.20268 -4.37588,0.45138 -4.37588,0.45138l-6.5962,-16.60145z" fill="#000000"/><path d="M285.37302,152.1473c-3.79111,-0.4687 -6.48444,-3.92196 -6.01573,-7.71308c0.4687,-3.79111 3.92196,-6.48444 7.71307,-6.01573c3.79111,0.4687 6.48444,3.92197 6.01573,7.71307c-0.4687,3.79111 -3.92195,6.48445 -7.71306,6.01573z" fill="#cbcb6a"/></g><path d="M242.82859,125.49175l12.99516,1.85851c0,0 -1.38472,9.01223 -4.21337,16.68263c-2.13581,5.79166 -4.85069,10.7878 -4.85069,10.7878c0,0 -2.28448,-4.90523 -3.11392,-11.74531c-0.62599,-5.16228 -0.81718,-17.58362 -0.81718,-17.58362z" fill="#000000" stroke="none" stroke-width="0" stroke-linecap="butt"/><path d="M233.62826,143.87681c0,0 5.03552,-7.06363 14.84514,-5.97367c10.05883,1.11765 12.44708,9.34788 12.44708,9.34788z" fill="#000000" stroke="none" stroke-width="0" stroke-linecap="butt"/><path d="M232.57624,134.04845c0,0 5.51958,-7.50757 16.93195,-6.21947c11.70234,1.32083 14.82624,10.14581 14.82624,10.14581z" fill="#000000" stroke="none" stroke-width="0" stroke-linecap="butt"/><g fill="#000000" stroke="none" stroke-width="0" stroke-linecap="butt"><path d="M192.48625,183.25125c0,0 -4.79073,-6.95201 -4.66099,-9.27446c0.10879,-1.94761 5.38767,-3.73468 5.38767,-3.73468c0,0 3.33131,3.29267 8.54869,6.00916c4.37875,2.27987 8.95264,3.20785 8.95264,3.20785c0,0 -2.37846,2.77486 -7.64434,3.4907c-7.70544,1.04747 -10.58367,0.3014 -10.58367,0.3014z"/><path d="M193.91116,185.27757c0,0 8.31147,2.67179 13.54577,2.86296c4.39292,0.16046 8.42627,-0.84092 8.42627,-0.84092c0,0 -0.06207,3.13621 -4.25543,6.30147c-2.36848,1.78781 -4.68286,2.76598 -6.0582,3.37771c-0.74869,-0.51945 -2.20405,-1.46388 -2.90382,-1.90724c-0.58811,-0.37261 -1.40353,-1.4375 -2.3517,-2.71026c-0.71803,-1.66773 -1.88061,-3.11637 -3.35694,-4.17831c-0.02574,-0.01852 -0.05154,-0.0369 -0.07747,-0.05517c0.71631,-0.88549 -2.96846,-2.85024 -2.96846,-2.85024z"/><path d="M215.35827,197.88576c4.29308,-2.01613 6.83569,-4.71281 6.83569,-4.71281c0,0 1.03522,3.08526 -0.82205,7.43766c-0.67515,1.58218 -1.29887,2.88604 -1.85507,3.95226c-2.02624,-1.43123 -4.25481,-2.41522 -6.73845,-3.80131c-0.20802,-0.11608 -2.4158,-1.58483 -2.67104,-1.66094c1.10535,-0.51736 3.34417,-0.31938 5.25096,-1.21487z"/></g><g data-paper-data="{&quot;index&quot;:null}" fill="#000000" stroke="none" stroke-width="0" stroke-linecap="butt"><path d="M281.78201,192.42931c-4.93299,-1.97677 -6.56403,-5.24731 -6.56403,-5.24731c0,0 4.66219,0.21387 9.46432,-0.93092c5.72187,-1.36406 9.75477,-3.74627 9.75477,-3.74627c0,0 4.6847,3.0189 4.3159,4.93433c-0.43978,2.28412 -6.77934,7.86006 -6.77934,7.86006c0,0 -2.97327,0.02262 -10.19163,-2.86991z"/><path d="M288.95998,199.63788c-0.02959,0.0114 -0.8648,0.42714 -0.89427,0.43883c-1.69054,0.67041 -4.80032,0.70919 -5.90288,2.15185c-0.2116,0.17271 1.67709,1.73295 1.47718,1.89333c-0.96173,0.77165 -3.87077,-0.01803 -4.41812,0.16259c-0.78668,0.25958 -2.42821,0.82115 -3.28087,1.14263c-1.18498,-0.92826 -3.19144,-2.44064 -5.0532,-4.75142c-3.29622,-4.09121 -2.59262,-7.1481 -2.59262,-7.1481c0,0 3.668,1.95352 7.96774,2.86773c5.12324,1.08933 14.73424,0.38145 14.73424,0.38145c0,0 -2.51626,1.82785 -2.03719,2.86114z"/><path d="M271.02313,206.37987c-0.26608,0.01164 -2.76511,0.89849 -2.99511,0.96039c-2.74644,0.73948 -5.14756,1.15109 -7.46134,2.04577c-0.27979,-1.16958 -0.5672,-2.58611 -0.83669,-4.28506c-0.74137,-4.67365 1.01406,-7.41392 1.01406,-7.41392c0,0 1.80928,3.23471 5.48209,6.2357c1.63129,1.3329 3.85091,1.68614 4.79699,2.4571z"/></g><g fill="#000000" stroke="none" stroke-width="0" stroke-linecap="butt"><path d="M228.50419,166.98519c-1.05457,8.52998 -5.79739,14.96425 -10.59338,14.3713c-4.79597,-0.59293 -7.82898,-7.98854 -6.77439,-16.51853c1.05457,-8.52998 5.7974,-14.96425 10.59339,-14.3713c4.79597,0.59293 7.82897,7.98853 6.77439,16.51852z"/><path d="M217.61495,172.33955c-0.15583,1.26066 -4.50065,1.35805 -4.50065,1.35805c0,0 -1.09824,-0.60743 -2.5366,-1.39876c-1.87347,-1.03071 -4.17715,-2.42534 -3.8829,-3.72764c0.34314,-1.51865 2.77677,-1.0182 4.65397,-0.5893c1.39827,0.31947 2.41584,0.45575 2.41584,0.45575c0,0 4.00619,2.64125 3.85035,3.90191z"/></g><g data-paper-data="{&quot;index&quot;:null}" fill="#000000" stroke="none" stroke-width="0" stroke-linecap="butt"><path d="M271.24821,156.99178c4.79598,0.59293 7.82898,7.98853 6.77439,16.51852c-1.05457,8.52998 -5.79739,14.96425 -10.59338,14.37131c-4.79598,-0.59293 -7.82897,-7.98854 -6.77439,-16.51853c1.05457,-8.52998 5.79739,-14.96424 10.59337,-14.3713z"/><path d="M274.59689,176.36153c0,0 1.02013,0.11565 2.45413,0.14634c1.92512,0.04121 4.40733,0.14851 4.37028,1.70499c-0.03177,1.33472 -2.60573,2.12635 -4.67381,2.66975c-1.58776,0.41721 -2.80091,0.73887 -2.80091,0.73887c0,0 -4.19025,-1.1526 -4.03438,-2.41325c0.15584,-1.26066 4.68469,-2.8467 4.68469,-2.8467z"/></g><path d="M221.69626,162.33989c-0.41627,3.36697 -2.27713,5.90812 -4.15639,5.67577c-1.87924,-0.23233 -3.06521,-3.15015 -2.64896,-6.51713c0.41627,-3.36697 2.27712,-5.9081 4.15638,-5.67574c1.87924,0.23233 3.06522,3.15014 2.64897,6.51711z" fill="#ffffff" stroke="none" stroke-width="0" stroke-linecap="butt"/><path d="M270.7864,168.12111c-0.41627,3.36697 -2.27712,5.90811 -4.15638,5.67576c-1.87926,-0.23233 -3.06521,-3.15016 -2.64896,-6.51713c0.41627,-3.36697 2.27712,-5.9081 4.15638,-5.67574c1.87926,0.23233 3.06521,3.15014 2.64896,6.5171z" fill="#ffffff" stroke="none" stroke-width="0" stroke-linecap="butt"/><path d="M232.10227,172.479c0.80833,-6.53818 6.76386,-11.18315 13.30204,-10.37482c6.53818,0.80833 11.18316,6.76387 10.37483,13.30205c-0.80833,6.53818 -6.76386,11.18315 -13.30205,10.37482c-6.53818,-0.80833 -11.18315,-6.76387 -10.37482,-13.30205z" fill="#6e6e30" stroke="none" stroke-width="0" stroke-linecap="butt"/><path d="M218.88012,173.4753c0.12799,-1.03533 1.07106,-1.77083 2.10637,-1.64283c1.03533,0.12799 1.77086,1.07106 1.64285,2.10637c-0.12799,1.03533 -1.07107,1.77085 -2.10638,1.64285c-1.03533,-0.12799 -1.77086,-1.07107 -1.64285,-2.10638z" fill="#6e6e30" stroke="none" stroke-width="0" stroke-linecap="butt"/><path d="M268.55805,180.06492c0.128,-1.03533 1.07106,-1.77085 2.10637,-1.64284c1.03533,0.12799 1.77085,1.07106 1.64285,2.10637c-0.128,1.03533 -1.07107,1.77086 -2.10638,1.64285c-1.03533,-0.12799 -1.77085,-1.07107 -1.64285,-2.10638z" fill="#6e6e30" stroke="none" stroke-width="0" stroke-linecap="butt"/><path d="M252.83429,178.31688c0,0 -1.91948,3.22895 -6.02836,1.76996c-2.91389,-1.03465 -2.83553,-4.12828 -2.83553,-4.12828c0,0 -1.13148,3.4567 -4.06462,3.42163c-4.19234,-0.05013 -5.78295,-3.20871 -5.78295,-3.20871" fill="none" stroke="#000000" stroke-width="2" stroke-linecap="round"/><g stroke="none" stroke-width="0" stroke-linecap="butt"><path d="M251.52663,170.55614c-0.27954,2.26095 -4.59909,6.5075 -7.83199,5.95906c-3.23197,-0.54827 -6.58986,-5.44655 -6.31033,-7.7075c0.27954,-2.26095 3.55931,-4.22017 7.55596,-3.72606c3.99665,0.49414 6.8659,3.21354 6.58638,5.47451z" fill="#000000"/><path d="M248.98237,169.40189c-0.11577,0.93636 -2.22763,1.44594 -4.71695,1.13817c-2.48935,-0.30776 -4.41351,-1.31634 -4.29774,-2.25268c0.11577,-0.93636 1.4809,-1.5131 4.8926,-1.20042c3.3286,0.30504 4.23788,1.37857 4.12212,2.31493z" fill="#ffffff"/></g></g></g></svg>