<svg version="1.1" xmlns="http://www.w3.org/2000/svg" xmlns:xlink="http://www.w3.org/1999/xlink" width="118.05214" height="109.89026" viewBox="0,0,118.05214,109.89026"><g transform="translate(-183.82517,-119.50064)"><g data-paper-data="{&quot;isPaintingLayer&quot;:true}" fill-rule="nonzero" stroke-linejoin="miter" stroke-miterlimit="10" stroke-dasharray="" stroke-dashoffset="0" style="mix-blend-mode: normal"><g stroke-linecap="butt"><path d="M285.15815,202.46094c6.05906,4.36245 -3.39601,15.65719 -11.50494,18.08788c-12.93534,3.87743 -21.93223,-3.52151 -21.93223,-3.52151l5.55463,-4.96519c0,0 6.26565,3.38051 11.6074,0.57211c6.58818,-3.46369 8.86503,-15.50846 16.27513,-10.17327z" fill="#ecec68" stroke="#000000" stroke-width="2"/><path d="M273.81635,207.25139l3.87754,-5.06017l8.83049,6.76671l-3.87754,5.06016z" fill="#000000" stroke="none" stroke-width="0"/><path d="M268.89232,212.86605l4.19703,-3.49582l4.95424,8.80958l-5.28726,2.59506z" fill="#000000" stroke="none" stroke-width="0"/><path d="M261.07092,213.40387l5.63887,0.06465l-0.76698,8.58051l-6.49207,-1.11355z" fill="#000000" stroke="none" stroke-width="0"/></g><g data-paper-data="{&quot;index&quot;:null}" stroke-linecap="butt"><path d="M270.22328,213.07429c-1.03347,2.75826 -6.10945,3.93483 -10.59163,2.25543c-4.48217,-1.67939 -6.67323,-5.57878 -5.63976,-8.33703c1.03347,-2.75826 6.45237,-3.57522 10.93455,-1.89583c4.48218,1.67939 6.33031,5.21916 5.29683,7.97742z" fill="#ecec68" stroke="#000000" stroke-width="2"/><path d="M264.14689,215.94648l3.70653,-8.76772c0,0 3.88806,1.90263 2.72395,5.80224c-0.99999,3.34989 -6.43048,2.96546 -6.43048,2.96546z" fill="#000000" stroke="none" stroke-width="0"/><path d="M257.16332,214.02325l4.58126,-10.08248l3.28992,1.21154l-4.16475,10.30325z" fill="#000000" stroke="none" stroke-width="0"/></g><g stroke-linecap="butt"><path d="M229.75475,204.20186c0.92336,2.79704 -1.42048,6.60656 -5.96568,8.10704c-4.5452,1.50049 -9.57058,0.12373 -10.49394,-2.67333c-0.92336,-2.79704 1.06358,-6.2608 5.60877,-7.76128c4.5452,-1.50049 9.92748,-0.46948 10.85084,2.32756z" fill="#ecec68" stroke="#000000" stroke-width="2"/><path d="M212.94499,209.52836c-1.00868,-3.94269 2.9517,-5.68976 2.9517,-5.68976l3.35622,8.90769c0,0 -5.44143,0.16898 -6.30792,-3.21791z" fill="#000000" stroke="none" stroke-width="0"/><path d="M222.54695,212.38557l-3.75325,-10.46018l3.33534,-1.08022l4.17819,10.25608z" fill="#000000" stroke="none" stroke-width="0"/></g><path d="M250.09352,220.92948c8.16615,-0.13998 9.94936,2.12573 8.5651,5.10799c-0.31292,0.67415 -2.25852,2.13538 -8.35773,1.80566c-6.6718,-0.36067 -9.29157,-0.91172 -9.29157,-1.65972c0,-1.57638 -0.72955,-3.24678 0.67809,-4.17864c1.25539,-0.83106 4.39253,-1.0065 8.40611,-1.0753z" data-paper-data="{&quot;index&quot;:null}" fill="#c5c556" stroke="#9b9b44" stroke-width="3" stroke-linecap="butt"/><path d="M241.8129,219.19299c-6.6341,-0.69629 -14.57818,-1.54634 -14.62632,-2.57017c-0.18088,-3.84739 7.56525,-16.55994 7.56525,-16.55994l17.27492,1.58326c0,0 3.6879,15.718 3.71311,17.61937c0.02521,1.90138 -6.73489,0.68233 -13.92696,-0.07251z" fill="#000000" stroke="#6e6e30" stroke-width="3" stroke-linecap="butt"/><g stroke="none" stroke-width="0" stroke-linecap="butt"><path d="M241.08449,206.22965c-46.26618,-3.59188 -55.31964,-33.18667 -55.31964,-33.18667c0,0 6.9825,-1.10004 12.48067,-7.99163c12.16205,-15.24436 20.14118,-43.11572 47.57005,-41.19959c28.64831,2.00132 32.10308,28.55122 42.31694,46.41732c4.11197,7.14784 11.75541,12.08073 11.75541,12.08073c0,0 -11.7068,27.53618 -58.80343,23.87983z" fill="#ecec68"/><path d="M298.98508,181.02788c0,0 -3.71281,10.90874 -15.64953,17.38479c-0.42559,0.2309 -3.05703,2.25435 -3.4934,2.47058c-12.2584,6.07448 -28.41116,4.45812 -28.41116,4.45812c0,0 18.76698,-10.37936 19.99802,-42.27788c0.70387,-18.23863 -12.98792,-37.08607 -12.98792,-37.08607c0,0 10.60189,6.00497 17.47968,16.92606c5.49688,8.72838 7.33045,19.3516 10.88596,24.28914c1.73485,2.40919 2.68502,5.55099 4.70543,7.80972c3.32361,3.71562 7.4729,6.02554 7.4729,6.02554z" fill="#cbcb6a"/></g><path d="M202.27444,178.32395c0.23158,-3.05949 2.89953,-5.35197 5.95902,-5.1204c3.05949,0.23158 5.35198,2.89952 5.12041,5.95901c-0.23158,3.05949 -2.89953,5.35198 -5.95902,5.12041c-3.05949,-0.23158 -5.35198,-2.89953 -5.12041,-5.95902z" fill="#6e6e30" stroke="none" stroke-width="0" stroke-linecap="butt"/><path d="M271.18003,183.651c0.23158,-3.05949 2.89953,-5.35197 5.95902,-5.1204c3.05949,0.23158 5.35198,2.89952 5.12041,5.95901c-0.23158,3.05949 -2.89953,5.35198 -5.95902,5.12041c-3.05949,-0.23158 -5.35198,-2.89953 -5.12041,-5.95902z" fill="#6e6e30" stroke="none" stroke-width="0" stroke-linecap="butt"/><g stroke="none" stroke-width="0" stroke-linecap="butt"><path d="M219.3038,134.04647l-9.74131,14.97414c0,0 -1.51602,-0.55871 -4.20088,-1.30567c-3.64903,-1.0152 -9.00277,-2.76857 -11.42412,-7.56562c-4.40918,-8.73527 -0.03705,-14.6771 2.63145,-17.15088c2.79505,-2.5911 9.03287,-5.08003 15.13204,-2.23034c4.85556,2.26864 6.12672,6.48159 6.76641,9.52357c0.46663,2.21901 0.83641,3.75483 0.83641,3.75483z" fill="#000000"/><path d="M201.19791,134.76528c0.28832,-3.80908 3.60991,-6.66321 7.41898,-6.3749c3.80908,0.28832 6.66321,3.60991 6.3749,7.41898c-0.28832,3.80908 -3.60991,6.66321 -7.41898,6.3749c-3.80908,-0.28832 -6.66321,-3.60991 -6.3749,-7.41898z" fill="#cbcb6a"/></g><path d="M241.08448,206.22966c-46.26618,-3.59188 -55.31964,-33.18667 -55.31964,-33.18667c0,0 6.9825,-1.10004 12.48067,-7.99163c12.16205,-15.24436 20.14118,-43.11572 47.57005,-41.19959c28.64831,2.00132 31.33059,28.56291 41.65216,46.367c5.49955,9.48638 12.42018,12.13106 12.42018,12.13106c0,0 -11.7068,27.53618 -58.80343,23.87983z" fill="none" stroke="#000000" stroke-width="3" stroke-linecap="butt"/><g data-paper-data="{&quot;index&quot;:null}" stroke="none" stroke-width="0" stroke-linecap="butt"><path d="M273.02369,138.11263c0,0 0.59674,-1.46265 1.39206,-3.58614c1.09028,-2.91102 2.98112,-6.88464 8.12283,-8.39656c6.45863,-1.89915 12.25073,1.50034 14.62392,4.48263c2.26574,2.84727 5.69368,9.37952 0.01987,17.35157c-3.11583,4.37795 -8.67249,5.30548 -12.43275,5.75985c-2.76671,0.33432 -4.34954,0.65846 -4.34954,0.65846l-7.37638,-16.26982z" fill="#000000"/><path d="M283.39614,147.9235c-3.80908,-0.28832 -6.66321,-3.60991 -6.3749,-7.41898c0.28832,-3.80908 3.60991,-6.66321 7.41898,-6.3749c3.80908,0.28832 6.66321,3.60991 6.3749,7.41898c-0.28832,3.80908 -3.60991,6.66321 -7.41898,6.3749z" fill="#cbcb6a"/></g><path d="M239.63502,123.31636l13.0687,1.23991c0,0 -0.9556,9.06776 -3.41717,16.86374c-1.85865,5.88645 -4.33342,11.0058 -4.33342,11.0058c0,0 -2.51463,-4.79132 -3.66765,-11.58435c-0.87019,-5.12677 -1.65045,-17.52507 -1.65045,-17.52507z" fill="#000000" stroke="none" stroke-width="0" stroke-linecap="butt"/><path d="M231.31728,142.11719c0,0 4.69474,-7.29457 14.54501,-6.67123c10.10054,0.63917 12.87655,8.74682 12.87655,8.74682z" fill="#000000" stroke="none" stroke-width="0" stroke-linecap="butt"/><path d="M229.80016,132.34982c0,0 5.15722,-7.76099 16.61784,-7.01576c11.75182,0.76416 15.29089,9.431 15.29089,9.431z" fill="#000000" stroke="none" stroke-width="0" stroke-linecap="butt"/><g fill="#000000" stroke="none" stroke-width="0" stroke-linecap="butt"><path d="M192.08957,183.39917c0,0 -5.11514,-6.7169 -5.09574,-9.04289c0.01627,-1.95057 5.20441,-3.98607 5.20441,-3.98607c0,0 3.48377,3.13091 8.82415,5.59682c4.48197,2.06956 9.09475,2.77952 9.09475,2.77952c0,0 -2.24413,2.88458 -7.47011,3.84945c-7.64709,1.41186 -10.55747,0.80317 -10.55747,0.80317z"/><path d="M193.60902,185.3556c0,0 8.42888,2.27446 13.66635,2.2171c4.3956,-0.04813 8.37688,-1.23974 8.37688,-1.23974c0,0 0.08679,3.13563 -3.95169,6.49627c-2.281,1.89815 -4.54635,2.98504 -5.89114,3.66131c-0.77248,-0.48334 -2.27102,-1.35768 -2.99103,-1.76733c-0.60512,-0.34429 -1.47015,-1.3693 -2.47763,-2.59563c-0.79634,-1.63179 -2.02632,-3.02364 -3.55139,-4.01435c-0.02659,-0.01726 -0.05325,-0.03441 -0.08,-0.05143c0.67349,-0.91848 -3.10033,-2.70621 -3.10033,-2.70621z"/><path d="M215.63015,196.9321c4.1926,-2.21753 6.6044,-5.03181 6.6044,-5.03181c0,0 1.18042,3.03268 -0.46827,7.46829c-0.59932,1.61241 -1.1605,2.94442 -1.66549,4.03582c-2.09186,-1.3335 -4.3646,-2.21067 -6.91121,-3.47736c-0.21329,-0.10609 -2.48827,-1.46843 -2.74684,-1.53234c1.07956,-0.56922 3.32525,-0.47767 5.18741,-1.4626z"/></g><g data-paper-data="{&quot;index&quot;:null}" fill="#000000" stroke="none" stroke-width="0" stroke-linecap="butt"><path d="M281.72024,188.33051c-5.02121,-1.74049 -6.80557,-4.93001 -6.80557,-4.93001c0,0 4.66709,-0.00755 9.4095,-1.37888c5.65071,-1.63398 9.56606,-4.20484 9.56606,-4.20484c0,0 4.82265,2.79323 4.54514,4.72404c-0.33093,2.30241 -6.39883,8.17284 -6.39883,8.17284c0,0 -2.96885,0.16367 -10.31629,-2.38316z"/><path d="M289.2321,195.19042c-0.02901,0.01279 -0.84355,0.46769 -0.87244,0.48076c-1.65683,0.74986 -4.76126,0.93612 -5.79415,2.42946c-0.20317,0.18253 1.75741,1.65143 1.56533,1.82112c-0.92404,0.81639 -3.86725,0.16562 -4.40544,0.372c-0.77348,0.29661 -2.38653,0.93543 -3.22297,1.29697c-1.22768,-0.87099 -3.30362,-2.28649 -5.27292,-4.50635c-3.48661,-3.93023 -2.92884,-7.01706 -2.92884,-7.01706c0,0 3.75655,1.7773 8.09483,2.48652c5.16915,0.84505 14.73573,-0.31799 14.73573,-0.31799c0,0 -2.42671,1.94518 -1.89914,2.95457z"/><path d="M271.6353,202.77579c-0.26523,0.02424 -2.71937,1.02864 -2.94618,1.10142c-2.70826,0.86894 -5.08715,1.39402 -7.35589,2.39745c-0.33497,-1.15498 -0.68924,-2.55629 -1.03903,-4.24054c-0.96226,-4.63322 0.6612,-7.45369 0.6612,-7.45369c0,0 1.9607,3.14524 5.77176,5.96859c1.69269,1.254 3.92658,1.50154 4.90816,2.22676z"/></g><path d="M231.14995,170.75958c0.49723,-6.56918 6.22569,-11.49146 12.79486,-10.99421c6.56918,0.49723 11.49146,6.22569 10.99421,12.79486c-0.49723,6.56918 -6.22569,11.49146 -12.79486,10.99421c-6.56918,-0.49723 -11.49146,-6.22569 -10.99421,-12.79486z" fill="#6e6e30" stroke="none" stroke-width="0" stroke-linecap="butt"/><path d="M241.77522,185.35316c-6.77011,-0.49824 -5.90249,-8.61291 -5.90249,-8.61291c0,0 3.1435,0.54145 4.01034,0.22537c1.04999,-0.38287 3.13626,-2.37066 3.13626,-2.37066c0,0 1.9141,2.30443 2.78149,2.79344c0.71912,0.40541 3.32782,0.24778 3.32782,0.24778c0,0 -0.0932,8.68169 -7.35341,7.717z" fill="#c5c556" stroke="#000000" stroke-width="1.5" stroke-linecap="butt"/><path d="M252.13559,175.60732c0,0 -1.76413,3.31637 -5.93762,2.05396c-2.95968,-0.89525 -3.0282,-3.98912 -3.0282,-3.98912c0,0 -0.96621,3.50649 -3.8977,3.6106c-4.19001,0.14882 -5.92867,-2.93073 -5.92867,-2.93073" fill="none" stroke="#000000" stroke-width="2" stroke-linecap="round"/><g stroke="none" stroke-width="0" stroke-linecap="butt"><path d="M250.46123,167.91734c-0.17195,2.27168 -4.2852,6.71837 -7.54047,6.32391c-3.25433,-0.39433 -6.84083,-5.12777 -6.66888,-7.39944c0.17195,-2.27168 3.35508,-4.38427 7.37066,-4.08033c4.01558,0.30395 7.01063,2.88418 6.83869,5.15587z" fill="#000000"/><path d="M247.86506,166.88511c-0.07121,0.9408 -2.1565,1.54999 -4.65764,1.36068c-2.50115,-0.18932 -4.47099,-1.10546 -4.39978,-2.04626c0.07121,-0.9408 1.40747,-1.58166 4.83013,-1.43118c3.33933,0.1468 4.29851,1.17597 4.22729,2.11676z" fill="#ffffff"/></g><path d="M242.93845,175.66331l-0.44477,5.87604" fill="none" stroke="#000000" stroke-width="1" stroke-linecap="round"/><path d="M236.16947,214.55607c1.95577,4.07413 0.9526,8.61953 -2.24064,10.15243c-3.19323,1.53289 -7.36733,-0.52718 -9.32309,-4.60131c-1.95577,-4.07413 -0.95259,-8.61953 2.24064,-10.15242c3.19323,-1.53289 7.36733,0.52718 9.32309,4.6013z" fill="#c5c556" stroke="#9b9b44" stroke-width="3" stroke-linecap="butt"/><g fill="#000000" stroke="none" stroke-width="0" stroke-linecap="butt"><g><path d="M215.94849,168.81978c-0.17365,1.25832 -4.50672,1.82966 -4.50672,1.82966c0,0 -1.6878,-1.0948 -3.11484,-1.90636c-1.85872,-1.05704 -3.55689,-2.54752 -3.24427,-3.84551c0.36456,-1.51366 2.79086,-0.97888 4.66182,-0.52352c1.39361,0.33919 3.32166,1.1926 3.32166,1.1926c0,0 3.05599,1.9948 2.88235,3.25314z"/><path d="M211.03761,170.51086c-1.5313,-0.89014 0.03158,-5.24492 0.03158,-5.24492l18.25556,2.51924l-0.7421,5.37761c0,0 -16.3439,-1.95371 -17.54504,-2.65192z"/></g><g data-paper-data="{&quot;index&quot;:null}"><path d="M273.19896,173.86487c0,0 2.08712,-0.29933 3.52052,-0.24839c1.92435,0.0684 4.40481,0.21074 4.34579,1.76656c-0.05061,1.33416 -2.08898,2.30899 -4.16452,2.82312c-1.59351,0.39473 -3.51474,0.99149 -3.51474,0.99149c0,0 -4.01638,-1.72355 -3.84273,-2.98188c0.17365,-1.25833 3.65569,-2.3509 3.65569,-2.3509z"/><path d="M256.20505,176.97463l0.7421,-5.37761l18.25556,2.51924c0,0 0.32502,4.61531 -1.39013,5.05745c-1.34535,0.3468 -17.60754,-2.19907 -17.60754,-2.19907z"/></g></g></g></g></svg>