<svg version="1.1" xmlns="http://www.w3.org/2000/svg" xmlns:xlink="http://www.w3.org/1999/xlink" width="118.63828" height="108.17665" viewBox="0,0,118.63828,108.17665"><g transform="translate(-182.57909,-126.21425)"><g data-paper-data="{&quot;isPaintingLayer&quot;:true}" fill-rule="nonzero" stroke-linejoin="miter" stroke-miterlimit="10" stroke-dasharray="" stroke-dashoffset="0" style="mix-blend-mode: normal"><g data-paper-data="{&quot;index&quot;:null}" stroke-linecap="butt"><path d="M200.75124,209.14405c6.87139,-6.01316 10.27899,5.76176 17.16566,8.58578c5.58377,2.28974 11.501,-1.66911 11.501,-1.66911l6,4.41667c0,0 -8.25551,8.21796 -21.5,5.58333c-8.30273,-1.6516 -18.78523,-11.99986 -13.16667,-16.91667z" fill="#ecec68" stroke="#000000" stroke-width="2"/><path d="M204.34608,220.41132l-4.33946,-4.67008l8.14976,-7.57279l4.33946,4.67009z" fill="#000000" stroke="none" stroke-width="0"/><path d="M214.83217,226.20079l-5.50931,-2.08252l4.09743,-9.23928l4.50931,3.08252z" fill="#000000" stroke="none" stroke-width="0"/><path d="M228.09311,225.10025l-6.35739,1.72354l-1.57637,-8.46927l5.60739,-0.59853z" fill="#000000" stroke="none" stroke-width="0"/></g><g data-paper-data="{&quot;index&quot;:null}" stroke-linecap="butt"><path d="M255.2468,225.04508c-2.87786,0.62774 -6.61939,-2.99865 -7.63946,-7.67515c-1.02007,-4.67651 1.06758,-8.63221 3.94542,-9.25996c2.87786,-0.62774 6.50324,3.48179 7.52332,8.15831c1.02008,4.67652 -0.95143,8.14906 -3.82928,8.7768z" fill="#ecec68" stroke="#000000" stroke-width="2"/><path d="M249.5381,221.49789l9.37639,-1.64136c0,0 0.5103,4.29844 -3.39731,5.43546c-3.35674,0.97674 -5.97909,-3.79412 -5.97909,-3.79412z" fill="#000000" stroke="none" stroke-width="0"/><path d="M247.36622,214.5876l10.95545,-1.61954l0.76649,3.42111l-10.91501,2.0892z" fill="#000000" stroke="none" stroke-width="0"/></g><path d="M245.49348,225.92948c8.16615,-0.13998 9.94936,2.12573 8.5651,5.10799c-0.31292,0.67415 -2.25852,2.13538 -8.35773,1.80566c-6.6718,-0.36067 -9.29157,-0.91172 -9.29157,-1.65972c0,-1.57638 -0.72955,-3.24678 0.67809,-4.17864c1.25539,-0.83106 4.39253,-1.0065 8.40611,-1.0753z" data-paper-data="{&quot;index&quot;:null}" fill="#c5c556" stroke="#9b9b44" stroke-width="3" stroke-linecap="butt"/><path d="M244.52014,223.29314c-6.66645,0.23368 -14.65151,0.49741 -14.84166,-0.50977c-0.71452,-3.78477 5.18716,-17.45159 5.18716,-17.45159l17.32716,-0.83613c0,0 5.83933,15.05186 6.12889,16.93123c0.28955,1.87937 -6.57442,1.61292 -13.80155,1.86627z" data-paper-data="{&quot;index&quot;:null}" fill="#000000" stroke="#6e6e30" stroke-width="3" stroke-linecap="butt"/><path d="M234.66909,223.44475c1.08067,-1.0493 4.20428,-2.03213 8.15297,-2.8293c8.00582,-1.61624 10.1698,0.28916 9.3484,3.47276c-0.18755,0.72692 -2.29515,2.33344 -8.11009,3.44368c-5.31613,1.01502 -9.087,0.6237 -9.22108,-0.10456c-0.28452,-1.54543 -1.37385,-2.81387 -0.17021,-3.98259z" data-paper-data="{&quot;index&quot;:null}" fill="#c5c556" stroke="#9b9b44" stroke-width="3" stroke-linecap="butt"/><g data-paper-data="{&quot;index&quot;:null}" stroke-linecap="butt"><path d="M236.62982,209.35659c2.92966,0.30547 5.44219,4.00588 4.94581,8.76652c-0.49635,4.76067 -3.81365,8.7788 -6.74328,8.47335c-2.92966,-0.30547 -5.27329,-3.53854 -4.77695,-8.29921c0.49635,-4.76067 3.64476,-9.24612 6.57441,-8.94066z" fill="#ecec68" stroke="#000000" stroke-width="2"/><path d="M234.59093,226.87178c-4.00942,-0.69767 -3.97789,-5.02616 -3.97789,-5.02616l9.50044,0.59377c0,0 -2.07835,5.03173 -5.52257,4.4324z" fill="#000000" stroke="none" stroke-width="0"/><path d="M241.13596,219.28734l-11.07916,-0.86862l0.38326,-3.48489l11.06736,0.39737z" fill="#000000" stroke="none" stroke-width="0"/></g><g><path d="M242.07991,210.62741c-47.23269,0.73181 -57.21119,-27.47669 -57.21119,-27.47669c0,0 7.93435,-4.44993 12.48122,-11.32931c11.301,-17.19906 16.39384,-43.48396 45.1111,-43.70674c27.49489,-0.21329 33.73214,28.09882 44.92647,44.06732c5.06069,7.21895 11.96164,8.74943 11.96164,8.74943c0,0 -10.86941,28.9771 -57.26924,29.696z" fill="#ecec68" stroke="none" stroke-width="0" stroke-linecap="butt"/><path d="M277.76042,190.65579c-2.60358,0.03531 -4.74848,-2.46266 -4.79073,-5.57938c-0.04228,-3.11671 2.03409,-5.67193 4.63768,-5.70724c2.60358,-0.03531 4.74848,2.46265 4.79073,5.57937c0.04228,3.11671 -2.03409,5.67194 -4.63767,5.70725z" data-paper-data="{&quot;index&quot;:null}" fill="#6e6e30" stroke="none" stroke-width="0" stroke-linecap="butt"/><path d="M193.54065,176.33811c2.15646,-2.12925 3.29942,-5.20614 5.18018,-7.50324c3.85455,-4.70779 6.34268,-15.19703 12.36969,-23.56814c7.54112,-10.47405 18.49465,-15.81073 18.49465,-15.81073c0,0 -14.83304,17.96306 -15.26037,36.21026c-0.74736,31.91352 17.34061,43.43552 17.34061,43.43552c0,0 -18.46447,-1.08378 -30.40589,-8.55514c-11.51262,-7.20306 -15.55069,-18.65751 -15.55069,-18.65751c0,0 4.28442,-2.04845 7.83182,-5.55104z" fill="#cbcb6a" stroke="none" stroke-width="0" stroke-linecap="butt"/><g data-paper-data="{&quot;index&quot;:null}" stroke="none" stroke-width="0" stroke-linecap="butt"><path d="M268.14747,139.93404c0,0 0.46421,-1.50995 1.0674,-3.6958c0.8269,-2.9965 2.35661,-7.12261 7.34339,-9.08611c6.26399,-2.46638 12.33564,0.40417 14.96482,3.16345c2.51013,2.63435 6.50579,8.83562 1.56394,17.28096c-2.71386,4.63785 -8.16594,6.05621 -11.87085,6.8434c-2.72597,0.5792 -4.27369,1.04292 -4.27369,1.04292l-8.79498,-15.54883z" fill="#000000"/><path d="M279.35184,148.78293c-3.81961,0.0518 -6.95803,-3.00262 -7.00983,-6.82223c-0.0518,-3.81961 3.00262,-6.95803 6.82223,-7.00983c3.81961,-0.0518 6.95803,3.00262 7.00983,6.82223c0.0518,3.81961 -3.00262,6.95803 -6.82223,7.00983z" fill="#cbcb6a"/></g><path d="M241.93707,210.62934c-47.23269,0.73181 -57.41119,-27.47669 -57.41119,-27.47669c0,0 7.27117,-2.21087 13.34781,-11.33836c11.40467,-17.1305 15.72723,-43.47492 44.44449,-43.69771c27.49489,-0.21329 33.73214,28.09882 44.92647,44.06732c5.06069,7.21895 11.96164,8.74943 11.96164,8.74943c0,0 -10.86941,28.9771 -57.26924,29.696z" data-paper-data="{&quot;index&quot;:null}" fill="none" stroke="#000000" stroke-width="3" stroke-linecap="butt"/><g data-paper-data="{&quot;index&quot;:null}" stroke="none" stroke-width="0" stroke-linecap="butt"><path d="M214.27885,140.66458l-8.3701,15.78162c0,0 -1.55971,-0.42158 -4.3004,-0.92664c-3.72491,-0.68645 -9.21344,-1.9564 -12.05206,-6.51897c-5.16905,-8.30823 -1.34304,-14.61558 1.09473,-17.31702c2.55337,-2.82955 8.54494,-5.86371 14.87353,-3.5681c5.03818,1.82755 6.67923,5.91065 7.58709,8.88362c0.66224,2.16867 1.16723,3.66548 1.16723,3.66548z" fill="#000000"/><path d="M196.30875,142.99182c-0.0518,-3.81961 3.00262,-6.95803 6.82223,-7.00983c3.81961,-0.0518 6.95803,3.00262 7.00983,6.82223c0.0518,3.81961 -3.00262,6.95803 -6.82223,7.00983c-3.81961,0.0518 -6.95803,-3.00262 -7.00983,-6.82223z" fill="#cbcb6a"/></g><path d="M247.55038,128.49441c0,0 0.558,10.26629 0.25652,15.45764c-0.39947,6.8786 -2.3723,11.91727 -2.3723,11.91727c0,0 -3.0224,-4.81635 -5.51672,-10.46289c-3.30345,-7.4782 -5.10892,-16.5308 -5.10892,-16.5308l10.30532,-0.91967z" data-paper-data="{&quot;index&quot;:null}" fill="#000000" stroke="none" stroke-width="0" stroke-linecap="butt"/><path d="M229.71349,146.31107c0,0 1.71133,-7.18458 11.83207,-7.19682c9.86997,-0.01194 15.6654,6.8239 15.6654,6.8239z" data-paper-data="{&quot;index&quot;:null}" fill="#000000" stroke="none" stroke-width="0" stroke-linecap="butt"/><path d="M225.91637,137.59392c0,0 2.64073,-8.41159 14.41732,-8.44629c11.48478,-0.03384 17.57974,8.01234 17.57974,8.01234z" data-paper-data="{&quot;index&quot;:null}" fill="#000000" stroke="none" stroke-width="0" stroke-linecap="butt"/><g data-paper-data="{&quot;index&quot;:null}" fill="#000000" stroke="none" stroke-width="0" stroke-linecap="butt"><path d="M292.25215,190.87782c0,0 -2.94251,0.42722 -10.48744,-1.45564c-5.15617,-1.28675 -7.21731,-4.3048 -7.21731,-4.3048c0,0 4.64789,-0.42285 9.24946,-2.21078c5.48288,-2.13036 9.15391,-5.03944 9.15391,-5.03944c0,0 5.05209,2.35298 4.9475,4.30081c-0.12472,2.32273 -5.64612,8.70986 -5.64612,8.70986z"/><path d="M290.6144,192.73637c0,0 -3.87731,1.55051 -3.26203,2.50895c-0.02776,0.01532 -0.05543,0.03079 -0.08302,0.04636c-1.58351,0.89433 -2.89736,2.20731 -3.79325,3.78664c-1.08152,1.16156 -2.00836,2.13103 -2.63367,2.43717c-0.744,0.36427 -2.29382,1.14411 -3.09477,1.57865c-1.30032,-0.75827 -3.49399,-1.98342 -5.65301,-4.01923c-3.82253,-3.60434 -3.54167,-6.72859 -3.54167,-6.72859c0,0 3.89981,1.43595 8.28399,1.75628c5.22386,0.3817 13.77744,-1.36625 13.77744,-1.36625z"/><path d="M267.91846,202.92649c1.79757,1.0984 4.04461,1.14615 5.08684,1.78114c-0.26203,0.04776 -2.61703,1.26656 -2.83648,1.35923c-2.62019,1.1065 -4.94291,1.84119 -7.11336,3.04255c-0.43641,-1.12059 -0.914,-2.4848 -1.41228,-4.13126c-1.37075,-4.52922 -0.00474,-7.48295 -0.00474,-7.48295c0,0 2.23283,2.95826 6.28001,5.43128z"/></g><g data-paper-data="{&quot;index&quot;:null}" fill="#000000" stroke="none" stroke-width="0" stroke-linecap="butt"><path d="M192.04404,191.98681c0,0 -5.69258,-6.23505 -5.88025,-8.55354c-0.15739,-1.94429 4.82904,-4.4334 4.82904,-4.4334c0,0 3.74858,2.80846 9.28721,4.78936c4.64835,1.66248 9.30602,1.95914 9.30602,1.95914c0,0 -1.97852,3.07284 -7.0979,4.49894c-7.4911,2.08679 -10.44411,1.73951 -10.44411,1.73951z"/><path d="M192.85327,193.56213c0,0 9.47616,1.75343 14.68774,1.23024c4.37389,-0.43911 8.23331,-1.98028 8.23331,-1.98028c0,0 0.36548,3.11546 -3.3579,6.82215c-2.10303,2.0936 -4.26267,3.37778 -5.54196,4.17105c-0.81245,-0.41267 -2.38282,-1.15018 -3.13643,-1.49415c-0.52437,-0.23931 -3.50223,0.22787 -4.37393,-0.64419c-0.1812,-0.18126 1.86661,-1.52589 1.67514,-1.72067c-0.93839,-1.55444 -4.02532,-1.93267 -5.63252,-2.78373c-0.02802,-0.01483 -0.81281,-0.51931 -0.84097,-0.53388c0.58907,-0.97478 -1.71247,-3.06654 -1.71247,-3.06654z"/><path d="M211.65885,205.28954c1.02462,-0.66302 3.26956,-0.7717 5.03668,-1.91844c3.97864,-2.58184 6.13042,-5.59957 6.13042,-5.59957c0,0 1.44563,2.91561 0.19819,7.48033c-0.45345,1.65935 -0.89387,3.03601 -1.29972,4.16802c-2.20222,-1.14205 -4.54402,-1.81349 -7.19324,-2.84853c-0.22187,-0.08669 -2.60907,-1.24118 -2.87231,-1.28181z"/></g><path d="M219.11727,191.56398c-2.60358,0.03531 -4.74848,-2.46266 -4.79073,-5.57938c-0.04228,-3.11671 2.03409,-5.67193 4.63768,-5.70724c2.60358,-0.03531 4.74848,2.46265 4.79073,5.57937c0.04228,3.11671 -2.03409,5.67194 -4.63767,5.70725z" data-paper-data="{&quot;index&quot;:null}" fill="#6e6e30" stroke="none" stroke-width="0" stroke-linecap="butt"/><g data-paper-data="{&quot;index&quot;:null}" fill="#000000" stroke="none" stroke-width="0" stroke-linecap="butt"><path d="M269.05955,154.34967c4.10064,-0.05561 7.52085,6.97694 7.63925,15.70764c0.1184,8.7307 -3.10985,15.8534 -7.21048,15.90901c-4.10064,0.05561 -7.52085,-6.97694 -7.63925,-15.70764c-0.1184,-8.7307 3.10985,-15.8534 7.21048,-15.90901z"/><path d="M274.15549,173.39375c0,0 0.87099,-0.02239 2.07979,-0.18658c1.62285,-0.22043 3.72166,-0.45014 3.87388,1.12184c0.13052,1.34801 -1.93956,2.49516 -3.61366,3.32357c-1.28531,0.63603 -2.267,1.1249 -2.267,1.1249c0,0 -3.65747,-0.59022 -3.67496,-1.88053c-0.01749,-1.29032 3.60195,-3.50319 3.60195,-3.50319z"/></g><g data-paper-data="{&quot;index&quot;:null}" fill="#000000" stroke="none" stroke-width="0" stroke-linecap="butt"><path d="M234.32327,171.03839c0.1184,8.7307 -3.10985,15.8534 -7.21048,15.90901c-4.10064,0.05561 -7.52085,-6.97694 -7.63925,-15.70764c-0.1184,-8.7307 3.10985,-15.8534 7.21048,-15.90901c4.10064,-0.05561 7.52085,6.97694 7.63925,15.70764z"/><path d="M225.80202,177.91024c0.01749,1.29031 -3.62262,1.97949 -3.62262,1.97949c0,0 -0.99459,-0.46208 -2.29668,-1.06301c-1.69596,-0.78271 -3.79638,-1.8733 -3.70245,-3.22434c0.10952,-1.57553 2.21379,-1.40283 3.84202,-1.22647c1.21283,0.13136 2.0841,0.13011 2.0841,0.13011c0,0 3.67815,2.11391 3.69564,3.40421z"/></g><path d="M270.83871,160.06052c1.60678,-0.0218 2.94722,2.75423 2.99396,6.20043c0.04674,3.44621 -1.21793,6.25756 -2.8247,6.27936c-1.60678,0.0218 -2.94722,-2.75424 -2.99396,-6.20044c-0.04674,-3.4462 1.21793,-6.25755 2.8247,-6.27935z" data-paper-data="{&quot;index&quot;:null}" fill="#ffffff" stroke="none" stroke-width="0" stroke-linecap="butt"/><path d="M228.89182,160.33913c1.60678,-0.0218 2.94722,2.75423 2.99396,6.20043c0.04674,3.4462 -1.21793,6.25756 -2.8247,6.27936c-1.60678,0.0218 -2.94722,-2.75424 -2.99396,-6.20044c-0.04674,-3.4462 1.21793,-6.25755 2.8247,-6.27935z" data-paper-data="{&quot;index&quot;:null}" fill="#ffffff" stroke="none" stroke-width="0" stroke-linecap="butt"/><path d="M248.35826,187.65181c-5.59026,0.07582 -10.19565,-5.28769 -10.2864,-11.97971c-0.09075,-6.69202 4.36748,-12.17845 9.95774,-12.25427c5.59026,-0.07582 10.19565,5.28769 10.2864,11.97971c0.09075,6.69202 -4.36748,12.17845 -9.95774,12.25427z" data-paper-data="{&quot;index&quot;:null}" fill="#6e6e30" stroke="none" stroke-width="0" stroke-linecap="butt"/><path d="M267.8064,179.84074c-0.88522,0.01201 -1.61449,-0.8373 -1.62886,-1.89698c-0.01437,-1.05968 0.69159,-1.92845 1.57681,-1.94045c0.88522,-0.01201 1.61449,0.83729 1.62886,1.89697c0.01437,1.05968 -0.69159,1.92846 -1.57681,1.94046z" data-paper-data="{&quot;index&quot;:null}" fill="#6e6e30" stroke="none" stroke-width="0" stroke-linecap="butt"/><path d="M225.29041,180.86887c-0.88522,0.01201 -1.61449,-0.8373 -1.62886,-1.89698c-0.01437,-1.05968 0.69159,-1.92845 1.57681,-1.94045c0.88522,-0.01201 1.61449,0.83729 1.62886,1.89697c0.01437,1.05968 -0.69159,1.92846 -1.57681,1.94046z" data-paper-data="{&quot;index&quot;:null}" fill="#6e6e30" stroke="none" stroke-width="0" stroke-linecap="butt"/><path d="M256.27705,178.89645c0,0 -1.62788,3.00861 -5.17006,2.58458c-2.47826,-0.29667 -3.1204,-3.91442 -3.1204,-3.91442c0,0 -0.2137,3.132 -2.76611,3.84661c-3.5992,1.00771 -4.92688,-2.46934 -4.92688,-2.46934" data-paper-data="{&quot;index&quot;:null}" fill="none" stroke="#000000" stroke-width="2" stroke-linecap="round"/><g data-paper-data="{&quot;index&quot;:null}" stroke="none" stroke-width="0" stroke-linecap="butt"><path d="M248.15191,166.47618c3.41719,-0.04635 6.00759,2.30286 6.03897,4.61703c0.03138,2.31417 -3.24515,6.87895 -6.02199,7.06656c-2.77764,0.18767 -6.03857,-4.5884 -6.06996,-6.90257c-0.03138,-2.31417 2.63577,-4.73466 6.05297,-4.78102z" fill="#000000"/><path d="M244.35028,170.38001c-0.013,-0.95838 0.85137,-1.93919 3.68776,-1.87031c2.90718,0.0706 4.00697,0.80738 4.01998,1.76579c0.013,0.95839 -1.70189,1.75873 -3.83034,1.78759c-2.12843,0.02886 -3.86439,-0.72466 -3.8774,-1.68306z" fill="#ffffff"/></g></g></g></g></svg>