<svg version="1.1" xmlns="http://www.w3.org/2000/svg" xmlns:xlink="http://www.w3.org/1999/xlink" width="378" height="460.00001" viewBox="0,0,378,460.00001"><defs><linearGradient x1="320" y1="-67.5" x2="320" y2="269.5" gradientUnits="userSpaceOnUse" id="color-1"><stop offset="0" stop-color="#ffffd1"/><stop offset="1" stop-color="#f1f19c"/></linearGradient></defs><g transform="translate(-131,83.00001)"><g data-paper-data="{&quot;isPaintingLayer&quot;:true}" stroke-miterlimit="10" stroke-dasharray="" stroke-dashoffset="0" style="mix-blend-mode: normal"><path d="M145.24891,375c-6.76488,0 -12.24891,-5.33739 -12.24891,-11.9214v-432.15721c0,-6.58401 5.48402,-11.9214 12.24891,-11.9214h349.50219c6.76488,0 12.2489,5.33739 12.2489,11.9214v432.15721c0,6.584 -5.48402,11.9214 -12.2489,11.9214z" fill="#535311" fill-rule="nonzero" stroke="#212108" stroke-width="4" stroke-linecap="butt" stroke-linejoin="miter"/><path d="M160.66812,361.5c-6.16798,0 -11.16812,-4.94148 -11.16812,-11.03711v-406.92577c0,-6.09563 5.00014,-11.03711 11.16812,-11.03711h318.66376c6.16798,0 11.16812,4.94149 11.16812,11.03712v406.92577c0,6.09563 -5.00014,11.03711 -11.16812,11.03711z" fill="url(#color-1)" fill-rule="nonzero" stroke="#212108" stroke-width="4.5" stroke-linecap="butt" stroke-linejoin="miter"/><path d="M439.9265,254.75058l-101.8037,-32.05321l-84.04908,65.67158l-0.97943,-106.64411l-88.4205,-59.68273l101.12036,-33.87046l29.45667,-102.54058l63.43118,85.72391l106.64423,-3.71076l-61.83648,86.86226z" fill-opacity="0.17647" fill="#212108" fill-rule="nonzero" stroke="none" stroke-width="2.57572" stroke-linecap="butt" stroke-linejoin="miter"/><text transform="translate(160.5,-35.68135) scale(0.61033,0.61033)" font-size="40" xml:space="preserve" fill="#212108" fill-rule="nonzero" stroke="none" stroke-width="1" stroke-linecap="butt" stroke-linejoin="miter" stroke-miterlimit="10" stroke-dasharray="" stroke-dashoffset="0" font-family="&quot;Allan-Regular&quot;, Sans Serif" font-weight="normal" text-anchor="start" style="mix-blend-mode: normal"><tspan x="0" dy="0">name: Zee Zwizzle</tspan><tspan x="0" dy="46.150000000000006px">age: somewhere in her 20s</tspan><tspan x="0" dy="46.150000000000006px">occupation: high rank dealer</tspan></text><g><path d="M432.53444,-56.08653h32.93116c6.43804,0 11.62097,5.18296 11.62097,11.62097v32.93116c0,6.43802 -5.18294,11.62098 -11.62097,11.62098h-32.93116c-6.43802,0 -11.62098,-5.18296 -11.62098,-11.62097v-32.93116c0,-6.43801 5.18296,-11.62097 11.62098,-11.62097z" fill="#a0a300" fill-rule="evenodd" stroke="#212108" stroke-width="2" stroke-linecap="round" stroke-linejoin="round"/><g fill="none" fill-rule="nonzero" stroke="none" stroke-width="1" stroke-linecap="butt" stroke-linejoin="miter" font-family="sans-serif" font-weight="normal" font-size="12" text-anchor="start"><g/><g data-paper-data="{&quot;index&quot;:null}"/></g></g><text transform="translate(160.5,47.79305) scale(0.4214,0.40736)" font-size="40" xml:space="preserve" fill="#212108" fill-rule="nonzero" stroke="none" stroke-width="1" stroke-linecap="butt" stroke-linejoin="miter" stroke-miterlimit="10" stroke-dasharray="" stroke-dashoffset="0" font-family="&quot;Allan-Regular&quot;, Sans Serif" font-weight="normal" text-anchor="start" style="mix-blend-mode: normal"><tspan x="0" dy="0">Description-</tspan><tspan x="0" dy="46.150000000000006px">To keep this brief, Zee Zwizzle is a modest tennis player </tspan><tspan x="0" dy="46.150000000000006px">who has won 4 major league tournaments, and when </tspan><tspan x="0" dy="46.150000000000006px">she’s not on the court she’s dealing mustanyl to get all </tspan><tspan x="0" dy="46.150000000000006px">the pro athletes geeked out. She’s not very talkative but </tspan><tspan x="0" dy="46.150000000000006px">that’s probably because she’s constantly chewing on tennis </tspan><tspan x="0" dy="46.150000000000006px">balls, which in turn has destroyed her teeth, a very bad </tspan><tspan x="0" dy="46.150000000000006px">habit indeed. Did that sound stupid? Well it should because </tspan><tspan x="0" dy="46.150000000000006px">there is no actual proof this woman even exists. There are </tspan><tspan x="0" dy="46.150000000000006px">no videos of her competing in tournaments, no government </tspan><tspan x="0" dy="46.150000000000006px">records under her name, no direct relatives, nobody in the </tspan><tspan x="0" dy="46.150000000000006px">history of the USA has ever had the last name Zwizzle. The </tspan><tspan x="0" dy="46.150000000000006px">only proof of her existence is this torn up polaroid in which </tspan><tspan x="0" dy="46.150000000000006px">she’s staring at a shelf of tennis balls, drooling. Is she a fake </tspan><tspan x="0" dy="46.150000000000006px">person made by the syndicate to throw us off our trail? More </tspan><tspan x="0" dy="46.150000000000006px">than likely, but it still doesn’t explain how so many tennis </tspan><tspan x="0" dy="46.150000000000006px">players are getting access to mustanyl.</tspan></text><path d="M160.16667,-30.16667v-1.66667h252.16667v1.66667z" fill="#212108" fill-rule="nonzero" stroke="none" stroke-width="0" stroke-linecap="butt" stroke-linejoin="miter"/><path d="M160.16667,-0.66667v-1.66667h252.16667v1.66667z" fill="#212108" fill-rule="nonzero" stroke="none" stroke-width="0" stroke-linecap="butt" stroke-linejoin="miter"/><path d="M160.16667,29.33333v-1.66667h252.16667v1.66667z" fill="#212108" fill-rule="nonzero" stroke="none" stroke-width="0" stroke-linecap="butt" stroke-linejoin="miter"/><g fill-rule="nonzero" stroke="none" stroke-width="0" stroke-linecap="butt" stroke-linejoin="miter"><path d="M427.30693,-26.45618c-0.12508,-1.93108 -0.26333,-3.83217 0.10657,-5.51719c0.5702,-2.59735 1.96511,-4.84251 3.50047,-7.14699c1.56521,-2.34928 3.14361,-4.88616 5.48797,-6.61311c1.51398,-1.11527 3.42645,-1.69627 5.29835,-2.29215c1.89347,-0.60273 3.74893,-1.21461 5.73125,-1.34301c3.63914,-0.23573 6.29743,0.76975 9.44976,2.16694c2.29322,1.01641 5.28358,2.08455 6.97545,3.79275c1.1677,1.179 1.56346,2.67927 2.32526,4.12955c0.92658,1.76401 2.14057,3.53543 2.72188,5.5959c0.40497,1.43539 1.3398,2.8912 1.4401,4.43942c0.17335,2.6762 -0.61287,5.65238 -1.29644,8.29656c-0.74386,2.87746 -1.46383,5.39303 -3.21731,7.50857c-1.74054,2.09993 -4.31789,2.96718 -6.67016,4.32001c-2.77069,1.59343 -5.53564,2.56672 -8.94064,2.78729c-3.65785,0.23694 -6.77101,-0.59456 -9.86472,-1.99806c-2.9668,-1.34593 -5.94749,-3.20497 -7.9172,-5.74479c-1.83334,-2.36395 -2.82006,-5.30582 -3.63697,-8.34919c-0.36374,-1.35511 -1.39936,-2.57879 -1.49354,-4.03254z" fill="#d9db56"/><path d="M440.19795,-47.54014c1.84236,2.33336 3.44493,4.7115 3.66224,7.87277c0.41135,5.44394 -3.06562,10.56614 -6.27139,14.57287c-2.04683,2.55946 -4.82502,4.63349 -7.95727,5.46421c-0.26059,-0.77409 -0.49472,-1.56555 -0.71483,-2.36564c1.83148,-1.26382 3.58982,-2.67164 5.01981,-4.27564c2.99172,-2.60377 5.80398,-7.80087 5.58065,-11.84235c-0.21378,-2.9112 -0.3884,-5.88323 -1.95095,-8.34382c0.82428,-0.43568 1.71877,-0.7749 2.63174,-1.0824z" fill="#000000"/><path d="M466.18199,-39.27937c0.31585,0.6013 0.66507,1.20345 1.01127,1.81763c-2.30736,1.58655 -3.58878,5.02449 -5.11718,7.0864c-1.80631,4.30725 -2.93966,7.10989 -1.59139,11.76739c0.96618,2.36739 1.87343,4.84016 2.99582,7.1619c-1.19637,0.75113 -2.51453,1.34008 -3.79077,2.0318c-1.34152,-3.67544 -2.68306,-7.35089 -4.02457,-11.02633c-1.70572,-4.67326 1.1381,-10.0424 4.09142,-13.539c1.62102,-1.92484 3.7639,-4.35121 6.24064,-5.66579c0.05945,0.12221 0.1208,0.24428 0.18474,0.36601z" fill="#000000"/></g><text transform="translate(377.58333,23.30894) scale(0.3257,0.3257)" font-size="40" xml:space="preserve" fill="#212108" fill-rule="nonzero" stroke="none" stroke-width="1" stroke-linecap="butt" stroke-linejoin="miter" stroke-miterlimit="10" stroke-dasharray="" stroke-dashoffset="0" font-family="&quot;Allan-Regular&quot;, Sans Serif" font-weight="normal" text-anchor="start" style="mix-blend-mode: normal"><tspan x="0" dy="0">(or red herring)</tspan></text></g></g></svg>