<svg version="1.1" xmlns="http://www.w3.org/2000/svg" xmlns:xlink="http://www.w3.org/1999/xlink" width="274.89717" height="315.5045" viewBox="0,0,274.89717,315.5045"><g transform="translate(-138.31593,-37.1323)"><g stroke-miterlimit="10"><path d="M252.07381,331.81449l2.16374,-279.82778h131.5249l-2.16374,279.82778z" fill-opacity="0.01" fill="#000000" stroke="none" stroke-width="2" stroke-linecap="butt"/><path d="M381.03357,106.93773c2.10211,7.4192 -8.89473,13.96246 -16.67739,13.96246c-7.78266,0 -21.33154,-12.97388 -21.33154,-20.68513c0,-7.71125 7.86049,-10.8597 15.64313,-10.8597c7.78266,0 19.52159,7.54403 22.36581,17.58236z" fill="#000000" stroke="#ecec68" stroke-width="0.5" stroke-linecap="butt"/><path d="M188.08237,231.60909v-26.89067c0,0 29.05842,-4.43003 51.29434,-14.66496c20.1151,-9.25876 31.97981,-24.23299 36.78469,-29.12005c1.07639,-1.09477 5.00409,-2.2394 5.00409,-2.2394l11.37682,46.28299c0,0 -16.98772,5.52801 -27.14183,8.15585c-18.6543,4.82762 -77.31811,18.47627 -77.31811,18.47627z" fill="#000000" stroke="#ecec68" stroke-width="1" stroke-linecap="butt"/><path d="M278.25378,159.90184c4.68802,-1.6626 31.98231,-11.39944 46.33702,-11.41283c23.24723,-2.56534 39.48479,12.38339 39.48479,12.38339c0,0 -0.6158,35.72989 -0.40303,58.29577c0.2128,22.56588 21.29025,105.70278 21.29025,105.70278c0,0 -13.86084,5.39289 -31.06582,11.27425c-22.52319,7.69936 -48.11611,15.90486 -50.54282,15.9916c-1.67282,0.05979 -6.9606,-110.67775 -11.96853,-144.60896c-3.74341,-25.36344 -21.05366,-44.81652 -13.13189,-47.62599z" fill="#000000" stroke="#ecec68" stroke-width="1" stroke-linecap="butt"/><path d="M362.70422,191.90556c0,0 -23.97358,-41.67659 -18.1987,-41.565c13.78674,0.26641 41.80461,-7.70672 41.80461,-7.70672c0,0 -20.82021,-22.02517 -19.44473,-22.07105c3.89514,-0.12988 16.18262,-14.19177 16.18262,-14.19177c0,0 22.38177,20.40422 29.09861,34.61535c4.44972,9.41451 -18.58641,22.18155 -24.74147,26.1967c-24.4101,15.92354 -24.70093,24.72249 -24.70093,24.72249z" fill="#000000" stroke="#ecec68" stroke-width="1" stroke-linecap="butt"/><path d="M360.00208,203.48303l-20.37567,-51.75888l14.989,1.87362c0,0 8.33347,5.67677 10.07708,10.07209c1.97479,4.97811 1.16467,18.26648 1.16467,18.26648c0,0 -2.50136,7.55623 -3.4443,11.02622c-1.00482,3.69774 -2.41078,10.52046 -2.41078,10.52046z" fill="#000000" stroke="none" stroke-width="0" stroke-linecap="butt"/><g fill="#000000" stroke-linecap="butt"><path d="M183.903,213.35361l2.10674,12.44493c0,0 -3.08931,3.14087 -7.46461,7.74095c-2.21991,2.33395 -6.01309,5.47275 -10.8425,6.04209c-4.8294,0.56934 -5.91433,-2.28945 -4.59414,-4.22226c1.32019,-1.9328 9.49288,-6.62336 9.49288,-6.62336c0,0 -28.4428,2.56121 -31.22758,1.28265c-0.96228,-0.4418 -3.92712,-4.48714 -1.59113,-5.89373c1.13187,-0.68153 20.3349,-3.60497 20.3349,-3.60497l10.23551,-1.78854z" stroke="#ecec68" stroke-width="1"/><path d="M180.02824,218.94121c0,0 -35.95788,-4.31123 -37.01729,-5.10734c-2.18651,-1.64305 -0.70849,-5.98344 0.29344,-6.3216c2.89949,-0.97858 36.23029,4.05986 36.23029,4.05986z" stroke="#ecec68" stroke-width="1"/><path d="M176.79962,221.84969c0,0 -35.19702,1.71509 -36.44693,1.27476c-2.57964,-0.9088 -1.3192,-5.58538 -0.4655,-6.2094c2.47053,-1.80588 34.45427,-1.60022 34.45427,-1.60022z" stroke="#ecec68" stroke-width="1"/><path d="M181.99351,214.51137c0,0 -10.66734,-2.12875 -20.59599,-5.25368c-7.30896,-2.30041 -15.43721,-4.5827 -15.82146,-4.99269c-1.87024,-1.99566 -0.64477,-5.77642 0.40046,-5.93664c3.02485,-0.46366 36.80222,8.83929 36.80222,8.83929z" stroke="#ecec68" stroke-width="1"/><path d="M182.96241,218.26433c-0.86289,5.28012 -2.13779,10.06234 -2.13779,10.06234c0,0 -24.7251,1.07674 -23.54707,-4.88c0.23466,-1.18654 3.36334,-14.62718 4.29416,-15.47679c3.74212,-3.41565 20.81756,0.3734 20.81756,0.3734c0,0 1.3306,5.2861 0.57315,9.92105z" stroke="none" stroke-width="0"/></g><path d="M355.04162,116.38335c0,0 8.27472,-2.82392 11.81487,-5.23071c3.96762,-2.6974 11.93625,-9.99638 11.93625,-9.99638l4.82369,5.47242c0,0 -5.49965,6.24056 -8.6944,8.59531c-3.8858,2.86406 -8.70527,6.51804 -8.70527,6.51804z" fill="#ecec68" stroke="#ecec68" stroke-width="1" stroke-linecap="butt"/><path d="M313.83302,155.24462l21.76766,-1.46752l22.71247,179.72487l-15.30761,5.87386z" fill="#ecec68" stroke="none" stroke-width="0" stroke-linecap="butt"/><path d="M324.51961,167.17854l-3.84499,-8.67746l9.84651,-0.29248l-1.91168,8.12894l8.76449,31.48859l-5.81139,9.86052l-7.79958,-9.12103z" fill="#000000" stroke="none" stroke-width="0" stroke-linecap="butt"/><path d="M323.52118,211.31344l-29.08856,-35.96215l7.98821,-8.79584l-10.74677,0.22298l8.55113,-13.80556" fill="none" stroke="#ecec68" stroke-width="1" stroke-linecap="round"/><path d="M348.2687,152.11688l10.54971,10.49095l-9.93128,2.7413l9.58526,7.10463l-16.55083,38.51945" fill="none" stroke="#ecec68" stroke-width="1" stroke-linecap="round"/><path d="M325.70065,162.98246l24.88351,173.68988" fill="none" stroke="#000000" stroke-width="1.5" stroke-linecap="round"/><g><path d="M342.402,130.30837l-0.99794,-10.98188l20.37467,-1.85147l0.99793,10.98188z" fill="#000000" stroke="none" stroke-width="0" stroke-linecap="butt"/><path d="M348.3358,143.28698c0,0 -4.06278,16.06108 -15.22436,18.4415c-11.16157,2.38039 -26.99947,-9.28037 -26.99947,-9.28037c0,0 0.69359,-5.99732 -0.62796,-13.75756c-2.92662,-17.18553 -17.04688,-70.82855 -17.04688,-70.82855l11.40488,14.08805l4.7285,-28.70286l7.32567,16.02567l7.7711,-19.44141l6.47522,14.74042l4.3124,-21.17094l10.32846,16.77474l3.25621,-16.64662l7.20286,14.67427l4.25558,-17.75937l2.98374,44.56514c0,0 7.5438,0.06349 8.59889,4.93789c1.00673,4.65098 -6.48011,6.64771 -6.48011,6.64771" fill="#000000" stroke="#ecec68" stroke-width="1" stroke-linecap="round"/><path d="M352.39612,135.27961c0,0 13.8104,4.66597 9.45348,7.14599c-2.25453,1.2833 -9.84471,2.05363 -18.3116,3.6359" fill="#000000" stroke="#ecec68" stroke-width="1" stroke-linecap="round"/><path d="M364.38659,119.88312c0,0 21.48134,12.44491 18.95893,15.09046c-2.177,2.28332 -16.72678,2.77303 -28.24199,3.97929c-19.12088,2.00295 -38.37384,3.48509 -38.37384,3.48509" fill="#000000" stroke="#ecec68" stroke-width="1" stroke-linecap="round"/><path d="M345.84857,104.16671c-0.63652,-7.00459 4.11937,-13.162 10.62257,-13.75293c6.50319,-0.59094 12.29108,4.60831 12.9276,11.61292c0.63651,7.0046 -4.11937,13.162 -10.62257,13.75293c-6.5032,0.59095 -12.29108,-4.60834 -12.9276,-11.61295z" fill="#ecec68" stroke="#000000" stroke-width="1.5" stroke-linecap="butt"/><path d="M356.70496,105.07738c-1.09859,0.09983 -2.07695,-0.78483 -2.18516,-1.97595c-0.10824,-1.19112 0.6946,-2.23762 1.79321,-2.33748c1.0986,-0.09983 2.07695,0.78486 2.18518,1.97595c0.10823,1.1911 -0.69462,2.23761 -1.79321,2.33745z" fill="#000000" stroke="none" stroke-width="0.5" stroke-linecap="butt"/><path d="M344.50316,112.60758c0,0 25.83612,-5.77934 26.86717,1.23881c1.09807,7.47431 -17.35002,8.62655 -17.35002,8.62655" fill="#000000" stroke="#ecec68" stroke-width="1" stroke-linecap="round"/><g stroke-linecap="butt"><path d="M323.3511,107.60718c-0.74536,-8.20246 4.82382,-15.41282 12.43912,-16.10484c7.6153,-0.69199 14.393,5.39639 15.13835,13.59886c0.74536,8.20244 -4.82383,15.41285 -12.43913,16.10487c-7.61531,0.69199 -14.39296,-5.39641 -15.13831,-13.59887z" fill="#ecec68" stroke="#000000" stroke-width="1.5"/><path d="M337.34263,105.94384c0.12299,1.35353 -0.78933,2.54279 -2.03772,2.65621c-1.2484,0.11346 -2.36016,-0.89186 -2.48317,-2.24542c-0.12299,-1.35354 0.78933,-2.54277 2.03774,-2.65621c1.24838,-0.11346 2.36016,0.89185 2.48314,2.24536z" fill="#000000" stroke="none" stroke-width="0.5"/></g><g stroke="#ecec68" stroke-width="1" stroke-linecap="round"><path d="M306.89678,135.74313c0,0 -12.5588,11.0024 -11.96244,-13.24886c0.10894,-4.42983 9.35501,1.93278 9.35501,1.93278" fill="#000000"/><path d="M299.6087,125.28883c0,0 1.73578,3.26117 2.22455,4.66188c0.52196,1.49573 0.81414,4.04608 0.81414,4.04608" fill="none"/><path d="M298.44664,129.51427c0,0 1.17926,0.00623 1.60087,0.15782c0.60108,0.21613 2.04492,1.14359 2.04492,1.14359" fill="none"/></g></g><path d="M179.92388,233.54833c0,0 2.47554,-8.38552 2.5563,-12.66558c0.09051,-4.79685 -1.26348,-15.51791 -1.26348,-15.51791l7.25354,-0.77569c0,0 -0.38487,7.65336 -0.30855,11.62144c0.09281,4.82635 -0.20857,15.26924 -0.20857,15.26924z" fill="#ecec68" stroke="#ecec68" stroke-width="1" stroke-linecap="butt"/><path d="M284.82289,205.66891l-10.53914,-36.69181c0,0 -0.60611,-9.33313 5.37496,-8.17594c5.0423,0.97557 17.655,23.78947 17.655,23.78947l1.56135,17.95556z" fill="#000000" stroke="none" stroke-width="NaN" stroke-linecap="butt"/></g></g></svg>