<svg version="1.1" xmlns="http://www.w3.org/2000/svg" xmlns:xlink="http://www.w3.org/1999/xlink" width="32.4367" height="55.58204" viewBox="0,0,32.4367,55.58204"><defs><linearGradient x1="491.65388" y1="96.53475" x2="491.65388" y2="118.62375" gradientTransform="translate(-984.95272,-245.77481) scale(2.17297,2.17302)" gradientUnits="userSpaceOnUse" id="color-1"><stop offset="0" stop-color="#ffffb6"/><stop offset="1" stop-color="#ffff70"/></linearGradient><linearGradient x1="467.17468" y1="62.64286" x2="467.17468" y2="93.57958" gradientUnits="userSpaceOnUse" id="color-2"><stop offset="0" stop-color="#c5c556"/><stop offset="1" stop-color="#878723"/></linearGradient></defs><g transform="translate(-450.95631,-61.89287)"><g stroke-miterlimit="10"><path d="M454.1,113.2v-46.4h26v46.4z" fill-opacity="0.01176" fill="#000000" stroke="none" stroke-width="0"/><g stroke="none" stroke-width="1" font-family="&quot;Allan-Regular&quot;, Sans Serif" font-weight="normal" font-size="40" text-anchor="start"><text transform="translate(452.61081,112.66016) scale(0.4602,0.46019)" font-size="40" xml:space="preserve" fill="#828216"><tspan x="0" dy="0">EXIT</tspan></text><text transform="translate(453.27524,113.10311) scale(0.4602,0.46019)" font-size="40" xml:space="preserve" fill="url(#color-1)"><tspan x="0" dy="0">EXIT</tspan></text></g><g><path d="M453.78028,93.57958c-1.14542,0 -2.07397,-0.92855 -2.07397,-2.07397v-26.78876c0,-1.14542 0.92855,-2.07398 2.07397,-2.07398h26.78876c1.14542,0 2.07397,0.92856 2.07397,2.07398v26.78877c0,1.14542 -0.92855,2.07397 -2.07397,2.07397z" fill="url(#color-2)" stroke="#343404" stroke-width="1.5"/><path d="M472.5821,88.95492l-17.18217,-22.29036h6.81094l17.18217,22.29036z" fill="#343404" stroke="none" stroke-width="NaN"/><path d="M455.39993,88.95492l17.18217,-22.29036h6.81094l-17.18217,22.29036z" fill="#343404" stroke="none" stroke-width="NaN"/></g></g></g></svg>