<svg version="1.1" xmlns="http://www.w3.org/2000/svg" xmlns:xlink="http://www.w3.org/1999/xlink" width="92.45266" height="89.70124" viewBox="0,0,92.45266,89.70124"><g transform="translate(-499.64735,-192.99935)"><g stroke-miterlimit="10"><path d="M500.64737,239.22568c0,-24.97781 20.24851,-45.22633 45.22632,-45.22633c24.97781,0 45.22632,20.24851 45.22632,45.22633c0,24.97781 -20.42048,42.47491 -45.39829,42.47491c-24.97781,0 -45.05437,-17.4971 -45.05437,-42.47491z" fill="#9da500" stroke="#000000" stroke-width="2" stroke-linecap="butt" stroke-linejoin="miter"/><path d="M548.39432,242.16751c-3.16159,13.1163 -14.71299,19.80668 -26.29983,17.01375c-11.58684,-2.79292 -18.82142,-14.0115 -15.65983,-27.12781c3.16159,-13.1163 15.52211,-23.16345 27.10895,-20.37052c11.58684,2.79292 18.0123,17.36828 14.85071,30.48458z" fill="#000000" stroke="none" stroke-width="0" stroke-linecap="butt" stroke-linejoin="miter"/><path d="M554.44489,242.56401c-2.99928,-9.6782 1.88399,-18.43338 10.43364,-21.08291c8.54965,-2.64954 17.52811,1.80988 20.52739,11.48809c2.99928,9.6782 -1.1164,19.19064 -9.66605,21.84018c-8.54965,2.64954 -18.29571,-2.56714 -21.29499,-12.24534z" fill="#000000" stroke="none" stroke-width="0" stroke-linecap="butt" stroke-linejoin="miter"/><path d="M559.77406,256.96654c0,0 4.57322,2.31189 6.65684,3.65677c2.11931,1.36791 5.95379,4.48282 5.95379,4.48282c0,0 -9.00426,1.30004 -12.76046,2.17527c-4.08781,0.9525 -10.85581,3.32755 -10.85581,3.32755" fill="none" stroke="#000000" stroke-width="1.5" stroke-linecap="round" stroke-linejoin="bevel"/></g></g></svg>