<svg version="1.1" xmlns="http://www.w3.org/2000/svg" xmlns:xlink="http://www.w3.org/1999/xlink" width="140.78631" height="256.0266" viewBox="0,0,140.78631,256.0266"><g transform="translate(-249.60684,-51.9867)"><g stroke-miterlimit="10"><path d="M346.41666,263.33334l-6.58333,-87.33334c0,0 17.06593,-28.09053 28.83333,-14.66666c6.86712,7.83378 -4.41667,102.5 -4.41667,102.5z" fill="#000000" stroke="#ecec68" stroke-width="1" stroke-linecap="butt"/><path d="M271.38686,308.0133v-256.0266h97.2263v256.0266z" fill-opacity="0.01" fill="#000000" stroke="none" stroke-width="2" stroke-linecap="butt"/><path d="M275.75001,263.83334c0,0 -11.28379,-94.66622 -4.41667,-102.5c11.7674,-13.42387 28.83333,14.66666 28.83333,14.66666l-6.58333,87.33334z" fill="#000000" stroke="#ecec68" stroke-width="1" stroke-linecap="butt"/><path d="M296.50005,305.83542l-9.5,-129.5h66l-9.5,129.5z" fill="#000000" stroke="#ecec68" stroke-width="1" stroke-linecap="butt"/><path d="M319.98717,222.16875l-19.98715,-45.5h40z" fill="#ecec68" stroke="none" stroke-width="0" stroke-linecap="butt"/><path d="M319.92859,222.44256l-5.14637,-12.6435l5.21201,-29.37555l5.22324,29.401z" fill="#000000" stroke="none" stroke-width="0" stroke-linecap="butt"/><path d="M319.99422,194.47352l-9.07749,-17.2881h18.16667z" fill="#000000" stroke="none" stroke-width="0" stroke-linecap="butt"/><path d="M330.95,196.0854l-10.7,26.3l-9.3,-22.1" fill="none" stroke="#ecec68" stroke-width="1" stroke-linecap="round"/><path d="M320.37504,305v-83.25" fill="none" stroke="#ecec68" stroke-width="1" stroke-linecap="round"/><path d="M282.25001,202.83334c0,0 0.27042,-24.50858 2.72208,-28.50388c1.91371,-3.11864 11.77792,-0.49612 11.77792,-0.49612c0,0 2.43248,1.22572 3.00032,2.25815c1.00364,1.8248 2.49968,7.74185 2.49968,7.74185l-5.16667,12z" fill="#000000" stroke="none" stroke-width="0" stroke-linecap="butt"/><g stroke="#ecec68" stroke-width="1" stroke-linecap="butt"><path d="M279.10569,280.97593c0,0 -25.95246,7.16208 -28.47032,6.46239c-0.87005,-0.24178 -0.75758,-6.63926 1.03049,-8.1419c0.86637,-0.72807 26.67524,-6.19614 26.67524,-6.19614z" fill="#000000"/><path d="M289.97159,263.23568l3.21417,5.76167c0,0 11.01184,10.0224 9.7241,11.85119c-0.567,0.80523 -2.73402,3.72339 -4.57666,4.414c-1.91606,0.71814 -8.95565,-7.83621 -8.95565,-7.83621c0,0 -27.6544,12.11471 -30.22642,11.63287c-0.88876,-0.1665 -1.36211,-6.54854 0.28145,-8.19807c0.79636,-0.79924 16.09833,-7.20214 16.09833,-7.20214l0.21954,-11.82585z" fill="#000000"/><path d="M292.94903,260.5021l0.31957,8.59412l-17.6284,-2.025c0,0 -3.57821,-4.85081 -3.20699,-6.99659c0.33396,-1.93042 20.51582,0.42747 20.51582,0.42747z" fill="#ecec68"/></g><path d="M342.91666,195.83334l-5.16667,-12c0,0 1.49604,-5.91705 2.49968,-7.74185c0.56784,-1.03243 3.00032,-2.25815 3.00032,-2.25815c0,0 9.86421,-2.62252 11.77792,0.49612c2.45166,3.9953 2.72208,28.50388 2.72208,28.50388z" fill="#000000" stroke="none" stroke-width="0" stroke-linecap="butt"/><g stroke="#ecec68" stroke-width="1" stroke-linecap="butt"><path d="M361.6589,273.10028c0,0 25.80887,5.46807 26.67524,6.19614c1.78807,1.50264 1.90054,7.90012 1.03049,8.1419c-2.51786,0.69969 -28.47032,-6.46239 -28.47032,-6.46239z" fill="#000000"/><path d="M364.24954,261.83314l0.21954,11.82585c0,0 15.30197,6.4029 16.09833,7.20214c1.64356,1.64953 1.17021,8.03157 0.28145,8.19807c-2.57202,0.48184 -30.22642,-11.63287 -30.22642,-11.63287c0,0 -7.03959,8.55435 -8.95565,7.83621c-1.84264,-0.69061 -4.00966,-3.60877 -4.57666,-4.414c-1.28774,-1.82879 9.7241,-11.85119 9.7241,-11.85119l3.21417,-5.76167z" fill="#000000"/><path d="M367.56679,260.07463c0.37122,2.14578 -3.20699,6.99659 -3.20699,6.99659l-17.6284,2.025l0.31957,-8.59412c0,0 20.18186,-2.35789 20.51582,-0.42747z" fill="#ecec68"/></g><g stroke="none" stroke-linecap="butt"><path d="M294.71043,157.59356c0,0 -10.14208,0.13027 -12.20419,-2.1107c-5.91516,-6.42819 -3.65949,-17.36936 -1.66094,-24.79466c1.23667,-4.59465 1.89844,-7.84309 1.89844,-7.84309c0,0 -2.10247,-3.99938 -2.13136,-5.98459c-0.04279,-2.94123 1.89947,-9.95145 1.89947,-9.95145c0,0 -3.1203,-0.6688 -2.69479,-2.93596c0.45329,-2.41517 1.83964,-1.36775 2.91909,-2.86836c0.82832,-1.15151 1.03699,-3.60891 1.03699,-3.60891c0,0 0.55132,-13.13424 -0.08924,-18.83916c-0.58145,-5.17849 -3.59399,-13.96422 -3.59399,-13.96422l6.37111,4.70449l2.50561,-6.65447l5.17646,4.71386l4.24545,-7.48308l2.84978,5.27804l6.86079,-6.60207l1.9363,7.23981l4.48973,-5.40567l4.5254,6.27552l4.99015,-5.31369l2.9419,5.49243l5.26955,-3.59918l1.8963,5.26885l6.08603,-5.76702l1.76588,4.70668l6.36722,-4.79956c0,0 0.89316,6.01205 0.50305,11.82978c-0.41915,6.2508 -5.33996,22.27197 -6.68217,39.02354c-0.28171,3.51592 -1.6111,18.06068 -1.6111,18.06068c0,0 5.48704,0.32336 5.80589,6.15193c0.35905,6.56358 -6.4758,6.68101 -6.4758,6.68101c0,0 -0.72659,9.99759 -0.56683,14.9716c0.17172,5.34673 1.43519,16.49873 1.43519,16.49873c0,0 -3.93311,3.32776 -10.34686,4.24752c-6.52624,0.9359 -15.56626,-0.53574 -19.24806,-0.51453c-4.20047,0.0242 -10.31213,-3.50311 -10.31213,-3.50311c0,0 -0.74927,-5.94207 -1.71368,-8.85504c-0.41511,-1.25382 -4.38819,-1.42404 -5.1606,-3.08455c-1.22993,-2.64408 0.71598,-6.6614 0.71598,-6.6614z" fill="#000000" stroke-width="0"/><path d="M337.9707,136.04667c-0.57903,0 -0.57903,-0.64086 -0.57903,-0.64086l0.06113,-0.79928c0.53214,-1.10039 0.50784,-1.79724 1.56901,-2.62581c3.95491,-3.08797 8.02042,2.14341 8.02042,6.33028c-0.02514,3.21823 -2.27895,6.52813 -5.29496,6.95913c-0.49307,0.07046 -0.95262,0.03399 -1.39607,-0.0505c0.05145,0.14132 0.05145,0.26891 0.05145,0.26891v0.68358c0,3.8894 -0.30882,7.71867 -0.30882,11.62079c0,5.70832 1.08086,11.05805 1.08086,16.74762c-0.01135,2.43952 -1.12322,2.70996 -2.89502,3.3519c-3.85137,1.39541 -7.12384,2.75755 -11.27202,2.75755c-5.7895,0 -11.58189,-0.34045 -17.34157,-0.34398c-2.12414,-0.38734 -4.15753,-1.31062 -5.95067,-2.47351c-1.09308,-0.70889 -2.48408,-0.48848 -3.40185,-1.68509c-1.20313,-1.56864 -0.94676,-4.58157 -1.36541,-6.48451c0.08191,-4.51422 -5.09129,-2.71042 -6.29104,-5.98524c-0.51851,-1.41532 0.19313,-4.29639 0.76337,-5.57322c0,0 1.28835,-1.28525 1.80625,-0.99866c0.51791,0.2866 -0.89912,1.99908 -0.89912,1.99908c-0.46966,1.02542 -0.91949,2.9394 -0.60058,4.08229c0.17791,0.63758 1.85987,1.10987 2.34894,1.38099c2.16,1.1974 3.97654,1.90046 4.02156,4.93814c0.36686,1.57277 0.09824,4.54119 1.10514,5.81986c0.74849,0.95053 2.16299,0.82108 3.08332,1.391c1.66594,1.03164 3.50621,1.94353 5.47561,2.31152c5.72651,-0.00355 11.4893,0.3396 17.24605,0.3396c3.18675,0 7.21459,-0.41254 10.06677,-2.14254c1.38432,-0.83967 2.95415,-0.54721 2.94219,-2.68521c0,-5.68508 -1.08086,-11.03676 -1.08086,-16.74762c0,-3.90127 0.30882,-7.73173 0.30882,-11.62079v-0.68358c0,0 0,-0.30783 0.19277,-0.4968c-0.68138,-0.1949 -1.35294,-0.40682 -2.08429,-0.40039c0,0 -0.57903,0 -0.57903,-0.64086c0,-0.64086 0.57903,-0.64086 0.57903,-0.64086c2.50695,0.01749 4.16121,1.48107 6.60983,-0.39172c0.59113,-0.45212 0.71245,-1.29788 1.10411,-1.90555c0.54423,-0.8444 0.82836,-1.57426 0.81716,-2.70138c0,-1.07506 0.01493,-2.83478 -0.77227,-3.66603c-1.47234,-1.55472 -4.76823,-3.89781 -6.31447,-0.8324c-0.20688,0.41015 -0.12618,0.94313 -0.30882,1.36715l0.06113,0.22608c0,0 0,0.64086 -0.57903,0.64086z" fill="#ecec68" stroke-width="0.5"/><path d="M342.91179,140.31902c-0.57903,0 -0.57903,-0.64086 -0.57903,-0.64086l0.06113,0.11571c-0.38892,-1.00363 -1.49355,-1.29339 -2.40189,-1.54471c0,0 -0.02906,-0.00804 -0.07232,-0.02777c-0.20172,0.47496 -0.42965,0.93356 -0.72478,1.34444c0,0 -0.36172,0.50042 -0.81387,0.10008c-0.45215,-0.40034 -0.09043,-0.90076 -0.09043,-0.90076c1.12881,-1.55058 1.34068,-3.54894 2.63741,-4.94237l0.76249,-0.23494c0,0 0.56174,-0.15543 0.70218,0.46628c0.14044,0.62171 -0.42131,0.77714 -0.42131,0.77714l-0.47278,0.10685c-0.50037,0.59134 -0.81607,1.33338 -1.11292,2.09921c1.27582,0.36253 2.3919,0.85475 3.04404,2.18334l0.06113,0.4575c0,0 0,0.64086 -0.57903,0.64086z" fill="#ecec68" stroke-width="0.5"/><path d="M332.62106,153.63629c-0.25895,0.57319 -0.77685,0.2866 -0.77685,0.2866l-0.61161,-0.58866c-0.3633,-1.60834 -1.12141,-3.79355 -1.84391,-5.23243c-0.36531,-0.72753 -0.41486,-1.37883 -1.14575,-1.28881c0,0 -0.57903,0 -0.57903,-0.64086c0,-0.64086 0.57903,-0.64086 0.57903,-0.64086c2.13749,0.12425 3.63825,5.38968 4.11315,7.49208l0.00603,-0.24687c0,0 0.51791,0.2866 0.25895,0.85979z" fill="#ecec68" stroke-width="0.5"/><path d="M282.07463,120.58077c0.57903,0 0.57903,0.64086 0.57903,0.64086l-0.06113,-0.11571c1.70391,3.95592 -0.2757,7.28388 -1.35693,10.90931c-0.83418,2.79704 -1.59375,5.80895 -2.13616,8.75146c0.02573,5.66396 -0.69519,11.28108 4.33469,14.58464c4.90818,2.77023 9.83941,0.94629 15.00786,0.94629c4.96884,0 9.99038,0.66788 14.92991,0.17308c1.51872,-0.15213 3.2337,-0.2131 4.63354,-0.98774c2.52165,-0.71239 4.82249,-1.92039 6.96514,-3.50761c1.61153,-1.19378 3.20606,-3.1497 5.27966,-3.19706c0,0 0.57903,0 0.57903,0.64086c0,0.64086 -0.57903,0.64086 -0.57903,0.64086c-1.69288,-0.05989 -3.3045,2.0007 -4.60252,2.95513c-2.21746,1.63049 -4.63381,2.96714 -7.24049,3.66994c-1.49036,0.82473 -3.32191,0.89951 -4.93981,1.06299c-4.9721,0.50238 -10.02447,-0.16871 -15.02543,-0.16871c-5.44356,0 -10.36961,1.72803 -15.56512,-1.10444c-5.46354,-3.66057 -4.95341,-9.5929 -4.92985,-15.83448c0.53662,-3.02196 1.31716,-6.15867 2.18729,-9.02152c0.95393,-3.13853 3.08898,-6.49356 1.42242,-9.93975l-0.06113,-0.4575c0,0 0,-0.64086 0.57903,-0.64086z" fill="#ecec68" stroke-width="0.5"/><path d="M315.61999,101.9106c0,-0.05684 0.00456,-0.10865 0.01286,-0.15586c-4.37874,0.42566 -8.63848,3.17952 -10.959,7.44728c-1.18249,3.29431 -2.05165,7.18936 -0.04874,10.44902c0.39682,0.64581 1.15188,0.65046 1.70168,1.03557c1.05968,0.74228 2.12785,1.93951 3.14881,2.78518c3.61157,3.99714 10.11963,4.33781 14.24368,0.66109c3.46846,-2.87961 4.13183,-7.57887 3.79303,-12.0764c-0.08498,-1.12809 0.07602,-2.84418 -0.41186,-3.89392c-0.52872,-1.13762 -1.47422,-2.26367 -2.12334,-3.34096c-1.90406,-3.40989 -4.89317,-3.67276 -8.10869,-2.31215l-0.66939,0.042c0,0 -0.57903,0 -0.57903,-0.64086zM317.39109,100.96049c3.38023,-1.11486 6.51272,-0.42186 8.55894,3.16592c0.6725,1.11681 1.67284,2.30213 2.20012,3.49479c0.54298,1.22817 0.41589,2.99744 0.51459,4.30899c0.37041,4.92169 -0.4501,10.07377 -4.23624,13.21592c-4.54661,4.00067 -11.70633,3.7269 -15.71166,-0.70606c-0.89733,-0.74686 -1.87877,-1.83815 -2.82033,-2.53601c-0.13943,0.24874 -0.42422,0.29378 -0.42422,0.29378c-1.87993,0.29451 -3.95771,0.60466 -5.86577,0.34342c-2.80123,-0.3835 -5.36143,-1.7129 -8.26734,-1.70413c-0.58964,0 -3.19116,-0.30649 -3.56297,0.27283c-0.2774,0.43224 -0.1152,1.05286 -0.18826,1.57683c-0.17453,1.25159 -1.03977,4.03701 -0.51755,5.2549c0.42725,0.99641 3.9554,2.37884 4.85904,2.56656c0.84893,0.23658 1.54579,0.53933 2.4254,0.6744l0.56444,0.19734c0,0 0.54932,0.20265 0.36621,0.81062c-0.18311,0.60796 -0.73242,0.40531 -0.73242,0.40531l-0.362,-0.14445c-0.91729,-0.1487 -1.63501,-0.45113 -2.51569,-0.69275c-1.35187,-0.31413 -4.96387,-1.77808 -5.64078,-3.24384c-0.70808,-1.53329 0.19166,-4.45657 0.4089,-6.0241c0.03881,-0.28008 0.18049,-1.86826 0.42937,-2.18283c0.86814,-1.09728 3.30904,-0.75254 4.4663,-0.75254c2.95078,0.00786 5.56533,1.31533 8.40884,1.71375c1.48828,0.20853 3.1086,0.03262 4.62711,-0.19455c-0.24563,-0.15159 -0.47721,-0.35218 -0.68999,-0.6749c-2.3376,-3.54546 -1.37147,-8.12959 -0.04874,-11.76721c2.74181,-5.07027 7.94711,-8.21721 13.18027,-8.21721c0,0 0.51989,0 0.57442,0.54522z" fill="#ecec68" stroke-width="0.5"/><path d="M315.13126,114.88005c-0.00744,-0.00796 -0.01478,-0.01604 -0.02202,-0.02423h-0.03919c0.02014,0.00884 0.04056,0.0169 0.06122,0.02423zM316.41213,113.3067c0.19119,0.13972 0.37211,0.30181 0.54264,0.47503c-0.0148,-0.1452 -0.06385,-0.28225 -0.15436,-0.40373c-0.04802,-0.06445 -0.20608,-0.08364 -0.38828,-0.07128zM315.94247,112.03284c0.18434,-0.03111 0.39026,-0.03147 0.61832,0.00592c2.31493,0.37961 1.32972,4.35072 -0.44542,4.6921c-3.24876,0.62478 -3.69304,-4.20828 -0.82881,-5.01743c0,0 0.46712,-0.12926 0.65592,0.31942z" fill="#ecec68" stroke-width="0.5"/><path d="M285.78045,124.42589c-0.2414,0 -0.38216,-0.11138 -0.46423,-0.24128c-0.8416,-0.20997 -1.44851,-0.82766 -2.19047,-1.41774c-0.67447,-0.53641 -1.46381,-0.70974 -1.98408,-1.51233c-1.73202,-2.6719 -0.90878,-7.33975 -0.24961,-10.25627c1.14224,-6.32095 5.58532,-12.80462 11.9912,-12.80462c4.95829,0 12.39719,3.03625 12.46853,9.69823c0,0 0,0.64086 -0.57903,0.64086c-0.57903,0 -0.57903,-0.64086 -0.57903,-0.64086c0.02297,-1.61215 -0.82893,-2.68045 -1.71131,-3.85247c-2.54843,-3.38492 -5.66813,-4.56406 -9.59915,-4.56406c-5.87367,0 -9.82454,6.06668 -10.86134,11.80411c-0.57192,2.53331 -1.4437,6.88014 0.05921,9.22565c0.41701,0.65081 1.16852,0.78708 1.72174,1.22198c0.55839,0.43896 1.30335,1.32923 1.97757,1.24619l0.57903,0.81175c0,0 0,0.64086 -0.57903,0.64086z" fill="#ecec68" stroke-width="0.5"/><path d="M288.71984,113.34153c0.23506,-0.16719 0.50669,-0.30053 0.77766,-0.4002c0.09106,-0.14879 0.22622,-0.27702 0.41141,-0.37357c-0.04546,-0.39832 -0.15391,-0.6554 -0.35547,-0.49503c-0.6465,0.51435 -0.87033,0.92933 -0.83361,1.26879zM288.0847,114.90325c-0.25784,-0.22486 -0.45491,-0.50485 -0.54613,-0.85901c-0.22951,-0.89095 0.79484,-2.89316 1.57171,-3.15566c1.16804,-0.39466 1.78977,0.42872 1.97027,1.51062c1.66076,0.27294 0.77714,3.01072 -0.51341,3.48197c-0.35461,-0.08889 -0.81365,-0.18664 -1.26872,-0.33901c-0.49944,-0.101 -1.02859,-0.22835 -1.04058,-0.24924c-0.07762,-0.13527 -0.13456,-0.26516 -0.17312,-0.38969z" fill="#ecec68" stroke-width="0.5"/><path d="M340.59565,132.11611c-0.57903,0 -0.57903,-0.64086 -0.57903,-0.64086v-0.34179c0,-2.49603 0.2122,-4.83248 0.77638,-7.25585c0.02113,-5.91641 1.06234,-11.88944 1.07849,-17.91842c0.75283,-5.04582 1.86825,-9.84929 2.62858,-14.9038c0.21866,-1.45362 0.76433,-2.79777 0.77392,-4.28611c1.04753,-3.55913 1.79692,-7.24905 2.78737,-10.81091c0.76065,-2.73543 0.13892,-6.75788 0.13892,-9.59372c0,-0.68358 0,-1.36715 0,-2.05073c0,-0.2319 -0.00814,-0.66911 -0.0007,-1.0268c-0.32117,0.30608 -1.05991,0.47222 -1.44577,0.7266c-1.29913,0.85646 -3.09607,4.70084 -4.83567,3.96835c-0.70549,-0.29706 -1.70197,-2.84268 -1.61683,-4.10101c-1.65544,0.8988 -3.02126,2.44641 -4.30919,3.87826c-0.50731,0.56401 -1.51296,1.87254 -2.33911,1.78811c-0.39225,-0.04008 -0.51208,-0.67169 -0.69515,-1.05772c-0.93592,-1.97342 0.19065,-5.76038 -2.21466,-3.14324c-1.25545,0.70681 -2.03235,1.91925 -3.50085,2.1655c-1.83553,0.30779 -3.22049,-4.00038 -3.22049,-5.63589c0,-0.41549 -0.19153,0.83445 -0.43702,1.14878c-0.43184,0.55292 -0.54276,0.59888 -1.05926,0.99894c-1.2381,0.95899 -2.26846,3.45154 -4.04065,3.11914c-0.58733,-0.11016 -0.82912,-0.95493 -1.30568,-1.35051c-0.7866,-1.14705 -1.47706,-2.36359 -2.24617,-3.52721c-0.26227,-0.3968 -0.53827,-1.38855 -0.89388,-1.09392c-1.20746,1.00047 -2.77068,6.96925 -4.91123,4.7663c-0.92214,-0.94902 -1.37922,-4.67791 -1.38287,-5.98147c-0.00017,-0.06219 -0.00091,-0.12992 -0.0011,-0.20087c-1.52779,1.85405 -3.14427,3.60728 -4.7498,5.38088c-2.31082,1.99639 -2.46498,0.63546 -3.67576,-1.57239c-0.01778,-0.03241 -0.83667,-2.25548 -0.88069,-2.40657c-0.06611,-0.22685 0.04516,-0.8427 -0.12795,-0.7009c-0.49822,0.40811 -0.25333,1.35891 -0.53054,1.97248c-0.7705,1.70542 -1.61038,4.012 -2.91888,5.29174c-0.42395,0.41463 -0.77965,1.1203 -1.34494,1.14587c-0.63925,0.0289 -0.64511,-1.22306 -0.97432,-1.83021c-0.53889,-0.99388 -1.2932,-1.67991 -1.92459,-2.61573c-0.76899,-0.65819 -1.62081,-1.80202 -1.64762,-1.4973c-0.06756,0.76771 -0.77418,1.58387 -0.94354,2.34394c-0.24157,1.08415 -0.19709,2.22989 -0.5486,3.2994c-0.18662,0.5678 -0.24302,1.31138 -0.70272,1.63725c-0.20952,0.14851 -1.46941,-0.54313 -1.74868,-0.72212c-1.19291,-0.76462 -1.9917,-2.05309 -3.14961,-2.85566c-0.43163,-0.29918 -0.89999,-0.47054 -1.32312,-0.71849c1.60677,2.8273 1.75435,5.9238 3.12073,8.88623c0.82827,1.87203 0.69076,4.02343 0.83173,6.05156c0.32379,4.65864 0.32071,9.13747 0.30831,13.7698c-0.32547,2.1883 -0.31219,5.6252 -2.07775,7.12066c-0.48601,0.41165 -1.4715,0.45239 -1.87716,1.04208c-0.85725,1.24618 0.14868,3.28774 1.37052,3.27702c0,0 0.57903,0 0.57903,0.64086c0,0.64086 -0.57903,0.64086 -0.57903,0.64086c-2.10597,-0.01469 -3.66814,-3.14105 -2.33529,-5.26769c0.55554,-0.88638 1.44957,-0.79679 2.13748,-1.35043c1.41838,-1.14152 1.36714,-4.49973 1.62806,-6.20906c-0.01428,-4.5631 0.01002,-8.97844 -0.30933,-13.57323c-0.12634,-1.81765 0.0602,-3.90369 -0.71237,-5.56922c-1.44082,-3.24323 -1.49618,-6.52429 -3.52606,-9.51974l-0.01165,-0.05789l-0.01369,0.00758l-0.30361,-0.67205c-0.04236,-0.08906 -0.06634,-0.19049 -0.06634,-0.29813c0,-0.35394 0.25925,-0.64086 0.57903,-0.64086c0.03619,0 0.0716,0.00368 0.10595,0.01071l0.9157,0.16891l-0.03083,0.20477c1.55918,0.34882 2.68026,1.37576 4.03366,2.70499c0.26438,0.25965 0.89336,0.84832 1.2893,1.09942c0.26832,0.17017 0.60916,0.96376 0.72187,0.64503c0.64938,-1.83645 0.46795,-3.94201 1.23746,-5.82264c0.21625,-0.52849 0.01492,-1.49293 0.52152,-1.64198c1.21386,-0.35712 2.53045,1.24605 3.35426,1.9689c0.69083,1.01517 1.50045,1.76514 2.09005,2.85288c0.19815,0.36557 0.29495,1.67052 0.26096,1.24587c-0.05879,-0.73436 0.45817,-0.95846 0.78155,-1.464c1.07841,-1.68584 1.73405,-3.66733 2.67786,-5.43382c0.2828,-0.52931 0.36269,-1.49014 0.91641,-1.54097c0.87911,-0.08069 2.40796,3.70707 2.78153,4.47127c0.23043,0.47139 -0.07284,1.83128 0.34569,1.5617c0.38109,-0.24547 0.58104,-0.74267 0.92962,-1.04151c1.70402,-1.88972 3.42578,-3.75002 5.03396,-5.74055l0.60689,-0.8396c0.10601,-0.14927 0.27063,-0.24513 0.45549,-0.24513c0.3198,0 0.57903,0.28692 0.57903,0.64086v0.68358h-0.0965c0.23939,1.46234 0.23323,2.91294 0.68442,4.41148c0.12362,0.41057 0.2664,0.81468 0.37078,1.23175c0.07888,0.31518 0.10567,1.14305 0.31814,0.91577c1.12779,-1.20637 1.98638,-4.73445 3.54651,-5.29621c1.63505,-0.58875 3.5049,3.79932 4.2716,4.94893c0.33933,0.28167 0.44809,0.91349 0.85604,1.042c0.48385,0.15242 1.08132,-0.98057 1.1953,-1.13258c0.79269,-1.05717 1.88107,-1.59374 2.66051,-2.61046c0.25947,-0.33846 1.02521,-1.69717 1.41589,-1.58553c1.81958,0.51996 1.26698,5.07285 2.64013,5.6857c1.00211,0.44725 2.47419,-1.53036 3.30007,-1.97854c0.85094,-0.96077 1.95348,-2.18139 2.97003,-0.7093c0.79904,1.15711 0.41906,2.18394 0.70986,3.46722c0.09265,0.40881 -0.111,1.4804 0.20429,1.24403c2.23102,-1.67249 3.48943,-4.55255 6.14469,-5.71406l0.40007,-0.44279c0.10478,-0.11597 0.24955,-0.1877 0.40944,-0.1877c0.3198,0 0.57903,0.28692 0.57903,0.64086v0.68358h-0.15406c0.1555,1.30953 0.33512,3.00259 1.03188,3.50938c0.1962,0.1427 1.56643,-1.60962 1.62436,-1.67369c0.77094,-0.85261 3.47563,-4.38839 4.93714,-3.41059c0.62886,0.42073 0.43554,1.938 0.43554,2.60025c0,0.68358 0,1.36715 0,2.05073c0,2.97533 0.59357,7.00799 -0.1699,9.8882c-0.9356,3.52958 -1.69022,7.23076 -2.77134,10.72173c0.01069,1.4776 -0.55328,2.81989 -0.77017,4.25859c-0.75822,5.02953 -1.85799,9.81659 -2.62133,14.83175c0.01891,6.04388 -1.10564,12.04226 -1.08323,17.96931c-0.52559,2.38781 -0.76771,4.64465 -0.76771,7.09925v0.34179c0,0 0,0.64086 -0.57903,0.64086z" fill="#ecec68" stroke-width="0.5"/></g><path d="M319.83333,223.42107l-22,-23.66667l3,-8.33333l-7,-1.33333l7,-13.33333" fill="none" stroke="#ecec68" stroke-width="1" stroke-linecap="round"/><path d="M339.83334,176.7544l7,13.33333l-7,1.33334l3,8.33334l-22,23.66666" fill="none" stroke="#ecec68" stroke-width="1" stroke-linecap="round"/></g></g></svg>