<svg version="1.1" xmlns="http://www.w3.org/2000/svg" xmlns:xlink="http://www.w3.org/1999/xlink" width="378" height="460.00001" viewBox="0,0,378,460.00001"><defs><linearGradient x1="320" y1="-67.5" x2="320" y2="269.5" gradientUnits="userSpaceOnUse" id="color-1"><stop offset="0" stop-color="#ffffd1"/><stop offset="1" stop-color="#f1f19c"/></linearGradient></defs><g transform="translate(-131,83.00001)"><g stroke-miterlimit="10"><path d="M145.24891,375c-6.76488,0 -12.24891,-5.33739 -12.24891,-11.9214v-432.15721c0,-6.58401 5.48402,-11.9214 12.24891,-11.9214h349.50219c6.76488,0 12.2489,5.33739 12.2489,11.9214v432.15721c0,6.584 -5.48402,11.9214 -12.2489,11.9214z" fill="#535311" fill-rule="nonzero" stroke="#212108" stroke-width="4" stroke-linecap="butt" stroke-linejoin="miter"/><path d="M160.66812,361.5c-6.16798,0 -11.16812,-4.94148 -11.16812,-11.03711v-406.92577c0,-6.09563 5.00014,-11.03711 11.16812,-11.03711h318.66376c6.16798,0 11.16812,4.94149 11.16812,11.03712v406.92577c0,6.09563 -5.00014,11.03711 -11.16812,11.03711z" fill="url(#color-1)" fill-rule="nonzero" stroke="#212108" stroke-width="4.5" stroke-linecap="butt" stroke-linejoin="miter"/><text transform="translate(160.5,-35.68135) scale(0.61033,0.61033)" font-size="40" xml:space="preserve" fill="#212108" fill-rule="nonzero" stroke="none" stroke-width="1" stroke-linecap="butt" stroke-linejoin="miter" font-family="&quot;Allan-Regular&quot;, Sans Serif" font-weight="normal" text-anchor="start"><tspan x="0" dy="0">name: Duck Jelly</tspan><tspan x="0" dy="46.150000000000006px">age: 2011 idk what that means</tspan><tspan x="0" dy="46.150000000000006px">occupation:</tspan></text><g><path d="M432.53444,-56.08653h32.93116c6.43804,0 11.62097,5.18296 11.62097,11.62097v32.93116c0,6.43802 -5.18294,11.62098 -11.62097,11.62098h-32.93116c-6.43802,0 -11.62098,-5.18296 -11.62098,-11.62097v-32.93116c0,-6.43801 5.18296,-11.62097 11.62098,-11.62097z" fill="#a0a300" fill-rule="evenodd" stroke="#212108" stroke-width="2" stroke-linecap="round" stroke-linejoin="round"/><g fill="#d9db56" fill-rule="nonzero" stroke="#000000" stroke-width="1.5" stroke-linecap="butt" stroke-linejoin="miter" font-family="&quot;Helvetica Neue&quot;, Helvetica, Arial, sans-serif" font-weight="400" font-size="16" text-anchor="start"><g/><g/></g></g><text transform="translate(160.5,59.81865) scale(0.50763,0.61033)" font-size="40" xml:space="preserve" fill="#212108" fill-rule="nonzero" stroke="none" stroke-width="1" stroke-linecap="butt" stroke-linejoin="miter" font-family="&quot;Allan-Regular&quot;, Sans Serif" font-weight="normal" text-anchor="start"><tspan x="0" dy="0">Description-</tspan><tspan x="0" dy="46.150000000000006px">Duck Jelly is the most irritable member of </tspan><tspan x="0" dy="46.150000000000006px">Musteezer, he has a hairpin trigger temper causing </tspan><tspan x="0" dy="46.150000000000006px">him to blow up at the other members, probably </tspan><tspan x="0" dy="46.150000000000006px">because he comes from the moon (I'm pretty sure </tspan><tspan x="0" dy="46.150000000000006px">it's the moon). He uses his rubber ducky pal, </tspan><tspan x="0" dy="46.150000000000006px">nicknamed “Quacks”, to relieve his stress and anger </tspan><tspan x="0" dy="46.150000000000006px">as well as use it as an instrument for Musteezer. He </tspan><tspan x="0" dy="46.150000000000006px">got into the mustanyl dealing life as a side hobby in </tspan><tspan x="0" dy="46.150000000000006px">between gigs but he decided to go full on when </tspan><tspan x="0" dy="46.150000000000006px">Musteezer got hired into the MCS.</tspan></text><path d="M160.16667,-30.16667v-1.66667h252.16667v1.66667z" fill="#212108" fill-rule="nonzero" stroke="none" stroke-width="0" stroke-linecap="butt" stroke-linejoin="miter"/><path d="M160.16667,-0.66667v-1.66667h252.16667v1.66667z" fill="#212108" fill-rule="nonzero" stroke="none" stroke-width="0" stroke-linecap="butt" stroke-linejoin="miter"/><path d="M160.16667,29.33333v-1.66667h252.16667v1.66667z" fill="#212108" fill-rule="nonzero" stroke="none" stroke-width="0" stroke-linecap="butt" stroke-linejoin="miter"/><text transform="translate(246.60285,19.25462) scale(0.38561,0.38561)" font-size="40" xml:space="preserve" fill="#212108" fill-rule="nonzero" stroke="none" stroke-width="1" stroke-linecap="butt" stroke-linejoin="miter" font-family="&quot;Allan-Regular&quot;, Sans Serif" font-weight="normal" text-anchor="start"><tspan x="0" dy="0">high rank dealer/Musteezer member</tspan></text><g fill-rule="nonzero" stroke="none" stroke-linecap="butt" stroke-linejoin="miter"><path d="M461.38529,-19.48382c0.62835,3.68044 -6.02107,8.66594 -13.51271,10.42595c-4.00032,0.9398 -16.89887,2.19646 -18.81967,-1.99716c-2.4958,-5.44898 7.58709,-17.41745 14.34901,-19.06157c10.30502,-2.50558 16.6685,2.93118 17.98337,10.63276z" fill="#d9db56" stroke-width="0"/><path d="M465.60689,-39.58856c1.09902,5.39415 -3.70392,16.95049 -12.28097,18.698c-8.57705,1.74751 -8.23365,-5.52313 -3.75659,-10.06177c3.08982,-3.13232 -2.74463,-12.8337 3.3931,-16.73789c7.38568,-4.69801 11.54543,2.70752 12.64446,8.10168z" fill="#d9db56" stroke-width="NaN"/><path d="M472.22263,-44.55331c0.40512,0.85176 -3.04964,3.02125 -7.71642,4.8457c-4.66678,1.82445 -7.76073,2.67257 -8.16584,1.82082c-0.0534,-0.11228 -0.91605,-1.01069 -0.59146,-1.45294c1.72849,-2.35502 1.56913,0.0715 2.54445,-0.37465c4.77511,-2.18434 13.64247,-5.44197 13.92929,-4.83893z" fill="#000000" stroke-width="0"/><path d="M472.05326,-46.65595c0.31839,0.67798 -7.37196,4.55042 -12.40457,6.60833c-0.63929,0.26141 -1.10739,2.09776 -2.38994,2.35672c-0.88778,0.17926 -1.80279,-0.97202 -1.83049,-1.15787c-0.31534,-2.11607 2.8795,-3.54095 7.47037,-5.69684c4.59087,-2.15589 8.68953,-3.10072 9.15462,-2.11034z" fill="#000000" stroke-width="0"/><path d="M448.85026,-24.21319c0.84072,3.20858 -3.59888,7.08657 -9.91614,8.66175c-6.31725,1.57517 -12.11995,0.25104 -12.96068,-2.95756c-0.84072,-3.20858 3.59888,-7.08657 9.91615,-8.66175c6.31725,-1.57517 12.11995,-0.25104 12.96068,2.95756z" fill="#000000" stroke-width="0"/><path d="M449.31968,-26.81414c1.18728,3.16611 -3.14238,7.7173 -9.67058,10.16537c-6.52821,2.44807 -12.78284,1.866 -13.97014,-1.30011c-1.18728,-3.16611 3.14238,-7.7173 9.67058,-10.16537c6.52821,-2.44807 12.78284,-1.866 13.97014,1.30011z" fill="#d9db56" stroke-width="0"/></g></g></g></svg>