<svg version="1.1" xmlns="http://www.w3.org/2000/svg" xmlns:xlink="http://www.w3.org/1999/xlink" width="36.79812" height="36.7981" viewBox="0,0,36.79812,36.7981"><g transform="translate(-302.91346,-162.9135)"><g stroke-miterlimit="10"><path d="M311.51759,163.9135h20.83988c4.07419,0 7.35411,3.303 7.35411,7.40583v20.98644c0,4.10283 -3.27992,7.40583 -7.35411,7.40583h-20.83988c-4.07418,0 -7.35411,-3.303 -7.35411,-7.40583v-20.98644c0,-4.10283 3.27993,-7.40583 7.35411,-7.40583z" fill-opacity="0.39216" fill="#000000" fill-rule="evenodd" stroke="none" stroke-width="0" stroke-linecap="round" stroke-linejoin="round"/><path d="M309.98312,162.9135h20.03379c3.9166,0 7.06966,3.15307 7.06966,7.06966v20.03379c0,3.91659 -3.15306,7.06966 -7.06966,7.06966h-20.03379c-3.91659,0 -7.06966,-3.15307 -7.06966,-7.06966v-20.03379c0,-3.91659 3.15307,-7.06966 7.06966,-7.06966z" fill="#a0a300" fill-rule="evenodd" stroke="none" stroke-width="0" stroke-linecap="round" stroke-linejoin="round"/><g fill-rule="nonzero" stroke-linecap="butt" stroke-linejoin="miter"><g stroke="none"><path d="M315.97763,174.89893c1.07222,-4.78768 5.82262,-7.79965 10.61031,-6.72743c4.78768,1.07222 7.79965,5.82261 6.72743,10.61029c-1.07222,4.78768 -5.82261,7.79966 -10.61029,6.72743c-4.78768,-1.07222 -7.79966,-5.82262 -6.72743,-10.61031z" fill="#d9db56" stroke-width="0"/><path d="M316.64459,175.31113l0.11209,-0.50052l15.89167,3.55902l-0.1121,0.50053z" fill="#000000" stroke-width="0"/><text transform="translate(322.10938,174.40947) rotate(12.62504) scale(0.13142,0.13142)" font-size="40" xml:space="preserve" fill="#000000" stroke-width="1" font-family="Sans Serif" font-weight="normal" text-anchor="start"><tspan x="0" dy="0">30</tspan></text></g><path d="M307.65272,187.49695c-2.34395,-4.31015 -0.75002,-9.70437 3.56015,-12.04832c4.31016,-2.34395 9.70438,-0.75002 12.04833,3.56014c2.34395,4.31015 0.75002,9.70437 -3.56015,12.04832c-4.31016,2.34395 -9.70437,0.75002 -12.04832,-3.56014z" fill="#eef15e" stroke="none" stroke-width="0"/><g><path d="M310.68485,185.5988c-1.07447,-1.94131 -2.10266,-3.86497 -2.07107,-4.28805c0.02525,-0.3382 1.95049,-1.43864 3.99517,-2.59684c2.02925,-1.14948 4.17643,-2.35906 4.62444,-2.09066c0.35313,0.21157 1.65159,2.48267 2.81378,4.6331c1.02125,1.88965 1.94924,3.6796 1.87372,3.98651c-0.10722,0.43572 -1.96198,1.55086 -4.03188,2.66801c-2.04734,1.10498 -4.3091,2.21551 -4.58773,2.0195c-0.27862,-0.19601 -1.47619,-2.27142 -2.61643,-4.33155z" fill="none" stroke="#000000" stroke-width="1"/><path d="M313.61837,187.16297l-2.77841,-5.10907l6.0596,-3.29533l2.77843,5.10907z" fill="#000000" stroke="none" stroke-width="0"/><path d="M311.40342,181.17957l4.45601,-2.42327l0.03007,5.36388z" fill="#eef15e" stroke="none" stroke-width="0"/><path d="M316.70502,185.89061l-1.86194,1.01255l-2.18629,-4.04967z" fill="#eef15e" stroke="none" stroke-width="0"/><path d="M316.58324,180.71821l2.21098,4.03625l-1.86193,1.01255z" fill="#eef15e" stroke="none" stroke-width="0"/></g></g></g></g></svg>