<svg version="1.1" xmlns="http://www.w3.org/2000/svg" xmlns:xlink="http://www.w3.org/1999/xlink" width="34.17311" height="34.17311" viewBox="0,0,34.17311,34.17311"><g transform="translate(-302.91346,-162.9135)"><g stroke-miterlimit="10"><path d="M309.98312,162.9135h20.03379c3.9166,0 7.06966,3.15307 7.06966,7.06966v20.03379c0,3.91659 -3.15306,7.06966 -7.06966,7.06966h-20.03379c-3.91659,0 -7.06966,-3.15307 -7.06966,-7.06966v-20.03379c0,-3.91659 3.15307,-7.06966 7.06966,-7.06966z" fill="#787878" fill-rule="evenodd" stroke="none" stroke-width="0" stroke-linecap="round" stroke-linejoin="round"/><g fill-rule="nonzero" stroke-linejoin="miter"><path d="M307.7496,189.95123v-19.66032h24.87633v19.66032z" fill="#c1c1c1" stroke="#8a8a8a" stroke-width="1.5" stroke-linecap="butt"/><path d="M307.72936,169.78937l11.44081,0.22103l-1.65782,2.6525l4.42083,2.3762l-2.76303,2.21042l1.5473,3.64719l-4.42083,-1.49203l-1.65782,2.48673l-2.09989,-2.6525l-1.93412,2.70776l-2.92041,-4.16701" fill="#8a8a8a" stroke="#8a8a8a" stroke-width="1" stroke-linecap="round"/><path d="M324.18143,189.71414c-0.2243,-0.44859 0.2243,-0.67288 0.2243,-0.67288l0.35403,-0.17701c1.86111,-0.91469 4.33291,-2.92613 5.90612,-2.07979c0.60207,-0.3184 1.25167,-0.61109 1.84874,-0.96991l0.2322,-0.13276c-0.04469,0.38423 -0.06766,0.77509 -0.06766,1.17133c0,0.00519 0,0.0104 0.00001,0.01558c-0.40873,0.21006 -0.86303,0.40045 -1.29947,0.60955c0.24612,0.38664 0.44573,0.91539 0.58666,1.61823c0,0 0.09836,0.49179 -0.39344,0.59015c-0.49179,0.09836 -0.59015,-0.39344 -0.59015,-0.39344c-0.11968,-0.60003 -0.30146,-1.01882 -0.53032,-1.29517c-0.66167,0.45854 -1.11766,1.0663 -1.01559,2.03648c0,0 0.00001,0.00008 0.00002,0.00025c-0.25414,-0.01928 -0.51092,-0.02912 -0.77002,-0.02912c-0.07914,0 -0.15806,0.00091 -0.23678,0.00274c-0.0618,-1.16003 0.37437,-1.89746 1.04139,-2.45749c-1.2688,0.02167 -3.00345,1.57184 -4.2631,2.21055l-0.35402,0.17701c0,0 -0.44859,0.2243 -0.67288,-0.2243z" fill="#8a8a8a" stroke="none" stroke-width="0.5" stroke-linecap="butt"/><path d="M314.60141,188.78008c0.79014,-0.949 1.47091,-1.05656 2.27395,-0.10103c0.24098,-0.97743 0.83843,-2.23858 1.80232,-1.82015c0.40036,0.1738 0.42982,1.31575 0.27271,2.01225c0.08642,0.09736 0.17205,0.21013 0.25699,0.33912l-0.02715,0.1024l0.04783,-0.00532l0.05819,0.5238c0.00255,0.02052 0.00388,0.04141 0.00388,0.06263c0,0.27699 0.32031,0.0929 0.04331,0.0929c-0.17942,0 -0.8817,0.31441 -0.97033,0.17276c-0.25387,0.00104 -0.51753,0.00775 -0.78682,0.01598c-0.07331,0.05981 -1.0619,-0.37485 -1.2072,-0.37485c-0.12896,0 0.66064,0.44359 0.58947,0.39431c-0.87504,0.026 -1.77517,0.03595 -2.5668,-0.10264c-0.77543,-0.13576 -1.32027,-0.87244 -2.0894,-0.93902c-0.55423,-0.04799 -1.09664,-0.02048 -1.63552,0.03353c0.03262,0.10373 0.06606,0.208 0.10088,0.3124l0.02574,0.3356c0,0 0.34054,-0.17952 -0.161,-0.17952c-0.50154,0 -0.84207,0.17952 -0.84207,0.17952l0.02574,-0.01841c-0.0556,-0.16686 -0.10325,-0.33845 -0.14816,-0.51045c-0.59274,0.075 -1.18745,0.14532 -1.79521,0.14532l-0.35765,-0.07399c0,0 -0.28224,0.08268 -0.1606,-0.40388c0.12164,-0.48657 0.40388,-0.56923 0.40388,-0.56923l0.11439,0.04402c0.51311,0 1.02054,-0.05366 1.5266,-0.11794c-0.24217,-0.7084 -0.63254,-1.25372 -1.64461,-1.23917c0,0 -0.50154,0 -0.50154,-0.50154c0,-0.50154 0.50154,-0.50154 0.50154,-0.50154c1.66124,0.01759 2.20122,0.94263 2.60255,2.11862c0.67904,-0.08127 1.36045,-0.13274 2.05453,-0.05046c0.84093,0.09968 1.35899,0.82582 2.15893,0.94912c0.01754,0.00271 0.03513,0.00533 0.05277,0.00791zM316.04312,189.49316c-0.19909,-0.2972 -0.35532,-0.33029 -0.53756,-0.01202c0.17738,0.00754 0.35693,0.01115 0.53756,0.01202z" fill="#8a8a8a" stroke="none" stroke-width="0.5" stroke-linecap="butt"/><path d="M328.59146,170.65448c0.04166,0.02901 0.08237,0.05922 0.12199,0.09076c0.07651,0.00391 0.48942,0.04607 0.48942,0.50114c0,0.06863 -0.0094,0.1279 -0.0256,0.17903c0.34812,0.33521 0.58972,0.27032 0.87401,-0.00921c-0.08412,-0.31098 -0.16548,-0.62212 -0.24339,-0.93325c0,0 -0.12166,-0.48656 0.36491,-0.6082c0.48657,-0.12164 0.6082,0.36492 0.6082,0.36492c0.00196,0.00785 0.00392,0.01572 0.00589,0.02358l0.14196,-0.22309c0.08823,-0.14363 0.24676,-0.2394 0.42765,-0.2394c0.27699,0 0.50154,0.22455 0.50154,0.50154v0.64905c-0.00196,1.58838 0.76244,3.09499 0.52594,4.54222l0.22917,0.05093l-0.11587,0.52139c-0.04602,0.22951 -0.24868,0.40238 -0.49174,0.40238c-0.21272,0 -0.39452,-0.13245 -0.46742,-0.31937l-0.29055,-0.69733l0.00667,-0.00278l-0.01542,-0.01971c-0.29417,-0.95444 -0.59166,-1.91709 -0.8709,-2.88305c-0.45185,0.30054 -0.99926,0.44319 -1.46265,0.27733c-0.48718,-0.17437 -0.95463,-1.3007 -1.21933,-1.72419l-0.29093,-0.46548c-0.05083,-0.07843 -0.08033,-0.17195 -0.08033,-0.27237c0,-0.27699 0.22455,-0.50154 0.50154,-0.50154c0.18246,0 0.34215,0.09742 0.42991,0.24308l0.29042,0.46467c0.01854,0.02966 0.03682,0.05864 0.05487,0.08694z" fill="#8a8a8a" stroke="none" stroke-width="0.5" stroke-linecap="butt"/><path d="M320.08603,170.18366c0.35464,-0.35463 0.70929,0 0.70929,0l0.17701,0.17701c0.47651,0.50459 0.85729,0.61621 1.35588,0.059c0,0 0.35464,-0.35463 0.70929,0c0.35464,0.35463 0,0.70929 0,0.70929c-0.96092,0.90051 -1.85061,0.83005 -2.77444,-0.059l-0.17701,-0.17701c0,0 -0.35464,-0.35463 0,-0.70929z" fill="#8a8a8a" stroke="none" stroke-width="0.5" stroke-linecap="butt"/></g></g></g></svg>