<svg version="1.1" xmlns="http://www.w3.org/2000/svg" xmlns:xlink="http://www.w3.org/1999/xlink" width="210.5853" height="180.21535" viewBox="0,0,210.5853,180.21535"><defs><radialGradient cx="272.41588" cy="151.99897" r="17.41585" gradientUnits="userSpaceOnUse" id="color-1"><stop offset="0" stop-color="#000000"/><stop offset="1" stop-color="#000000" stop-opacity="0"/></radialGradient><linearGradient x1="283.0363" y1="176.88977" x2="289.08198" y2="189.84319" gradientUnits="userSpaceOnUse" id="color-2"><stop offset="0" stop-color="#151515"/><stop offset="1" stop-color="#151515" stop-opacity="0"/></linearGradient></defs><g transform="translate(-214.70735,-90.85293)"><g stroke-miterlimit="10"><path d="M229.47417,271.06829v-161.13649h180.69788v161.13649z" fill-opacity="0.01" fill="#000000" stroke="none" stroke-width="0" stroke-linecap="butt"/><g><g><path d="M332.40919,161.84724c28.78164,10.61494 69.9382,22.89176 53.83765,50.52603c-17.20123,29.52345 -87.16258,19.00103 -110.31281,7.45083c-28.93597,-14.43684 -57.41588,-89.01355 -19.53646,-100.10875c54.64542,-16.00609 24.6452,23.18747 76.01162,42.13188z" fill="#191919" stroke="none" stroke-width="0" stroke-linecap="butt"/><path d="M289.82872,151.67478c0.12899,8.58844 -7.56243,15.69591 -17.17927,15.87494c-9.61684,0.17905 -17.51741,-6.63811 -17.6464,-15.22655c-0.12899,-8.58844 7.56243,-15.69591 17.17926,-15.87494c9.61684,-0.17905 17.51741,6.63811 17.6464,15.22656z" fill="url(#color-1)" stroke="none" stroke-width="0" stroke-linecap="butt"/><g stroke="none" stroke-width="0" stroke-linecap="butt"><path d="M288.35467,151.36873c0,4.43908 -4.83212,10.45793 -16.61344,11.67915c-11.36191,1.17774 -15.92473,-7.04781 -15.92473,-11.67915c0,-9.07041 7.28391,-16.42343 16.26907,-16.42343c8.98516,0 16.26908,7.35302 16.26908,16.42343z" fill="#ffffff"/><path d="M275.97516,150.38216c0,4.41965 -3.46633,8.00247 -7.74226,8.00247c-4.27593,0 -7.74225,-3.58282 -7.74225,-8.00247c0,-4.41965 3.46632,-8.00247 7.74225,-8.00247c4.27593,0 7.74226,3.58282 7.74226,8.00247z" fill="#000000"/><path d="M252.75152,153.17255l0.31737,-15.18282l24.894,-4.53943l11.51722,11.34601c0,0 -11.57494,3.67176 -17.60922,5.04793c-6.20389,1.41484 -19.11938,3.3283 -19.11938,3.3283z" fill="#191919"/></g><path d="M268.03747,186.13234l0.47736,-2.58473c0,0 9.41166,-9.65338 14.00021,-11.75714c5.04844,-2.31463 17.38118,0.02725 17.38118,0.02725l4.44569,3.31663c0,0 -14.8129,-0.00484 -20.03719,2.39042c-4.25742,1.95196 -16.26725,8.60758 -16.26725,8.60758z" fill="url(#color-2)" stroke="none" stroke-width="0" stroke-linecap="butt"/><g><path d="M268.18346,184.61119c-0.03715,-1.18558 7.01796,-11.50694 16.38477,-14.65433c9.36681,-3.14739 17.49827,2.07104 17.53544,3.25662c0.03715,1.18558 -7.58469,-1.32533 -16.95149,1.82207c-9.36681,3.14739 -16.93155,10.76122 -16.96871,9.57564z" fill="#ecec68" stroke="none" stroke-width="0" stroke-linecap="butt"/><path d="M269.81773,182.8423c0,0 9.56706,-8.60727 14.36687,-10.40966c5.01934,-1.88483 15.9103,-0.09593 15.9103,-0.09593" fill="none" stroke="#d9d95f" stroke-width="1" stroke-linecap="round"/></g><path d="M240.77891,136.35208l-4.9242,-29.14453l21.99547,19.41559c0,0 -4.9171,5.10778 -7.88655,6.80007c-2.69417,1.5354 -9.18472,2.92887 -9.18472,2.92887z" fill="#191919" stroke="none" stroke-width="0" stroke-linecap="butt"/><path d="M272.94681,121.11371l29.95938,-18.32181l-8.57877,31.08398c0,0 -8.76517,-2.6195 -12.48419,-4.83939c-3.37425,-2.01409 -8.89641,-7.92277 -8.89641,-7.92277z" fill="#191919" stroke="none" stroke-width="0" stroke-linecap="butt"/><path d="M253.38266,122.36712l11.67426,-31.51418l14.45146,30.27736c0,0 -8.91125,2.656 -13.45567,2.87113c-4.12311,0.1952 -12.67004,-1.63431 -12.67004,-1.63431z" fill="#191919" stroke="none" stroke-width="0" stroke-linecap="butt"/><path d="M240.15173,154.16377l-25.44438,-13.05086l27.74045,-5.56544c0,0 1.12688,6.69134 0.72748,9.92953c-0.36236,2.93799 -3.02356,8.68678 -3.02356,8.68678z" fill="#191919" stroke="none" stroke-width="0" stroke-linecap="butt"/><path d="M242.9706,170.60429l-23.2997,-2.07126l19.23117,-12.70216c0,0 2.93782,4.7122 3.64552,7.28194c0.64209,2.33152 0.423,7.49147 0.423,7.49147z" fill="#191919" stroke="none" stroke-width="0" stroke-linecap="butt"/><path d="M254.65742,191.76265l-31.02562,5.83471l20.2407,-23.52924c0,0 5.56964,5.04391 7.44562,8.12176c1.70206,2.79252 3.33929,9.57277 3.33929,9.57277z" fill="#191919" stroke="none" stroke-width="0" stroke-linecap="butt"/><path d="M271.65086,207.50328l-28.4282,15.58741l10.80618,-27.3291c0,0 7.49385,2.50166 10.5591,4.54403c2.78107,1.85306 7.06293,7.19765 7.06293,7.19765z" fill="#191919" stroke="none" stroke-width="0" stroke-linecap="butt"/><path d="M291.21898,220.99309l-24.18349,23.60493l1.42324,-30.89685c0,0 8.77448,0.54882 12.73349,1.8172c3.59198,1.1508 10.02675,5.47473 10.02675,5.47473z" fill="#191919" stroke="none" stroke-width="0" stroke-linecap="butt"/><path d="M314.57463,225.85786l-15.25119,29.39594l-9.28315,-31.23706c0,0 8.67788,-1.55253 12.94547,-1.23228c3.87197,0.29056 11.58886,3.0734 11.58886,3.0734z" fill="#191919" stroke="none" stroke-width="0" stroke-linecap="butt"/><path d="M343.28864,228.94562l-12.25329,30.4168l-13.78395,-30.87052c0,0 8.92572,-2.05468 13.45475,-1.97577c4.10915,0.07161 12.58249,2.42949 12.58249,2.42949z" fill="#191919" stroke="none" stroke-width="0" stroke-linecap="butt"/><path d="M364.25699,224.79179l-5.25196,31.23124l-15.46469,-27.26615c0,0 6.77727,-3.47819 10.38081,-4.1679c3.26947,-0.62576 10.33585,0.20281 10.33585,0.20281z" fill="#191919" stroke="none" stroke-width="0" stroke-linecap="butt"/><path d="M378.83086,215.06912l1.42258,31.57338l-20.81685,-23.43405c0,0 5.88724,-4.79208 9.26075,-6.20787c3.06077,-1.28454 10.13352,-1.93145 10.13352,-1.93145z" fill="#191919" stroke="none" stroke-width="0" stroke-linecap="butt"/><path d="M376.96043,183.30192l34.40847,-12.21931l-18.85702,30.52019c0,0 -7.28587,-4.77047 -9.99097,-7.9538c-2.45431,-2.88821 -5.56049,-10.34708 -5.56049,-10.34708z" fill="#191919" stroke="none" stroke-width="0" stroke-linecap="butt"/><path d="M384.29361,189.37856l40.99904,15.84353l-41.4597,12.95984c0,0 -2.81613,-10.0391 -2.73602,-15.04927c0.07269,-4.54569 3.19667,-13.75409 3.19667,-13.75409z" fill="#191919" stroke="none" stroke-width="0" stroke-linecap="butt"/><path d="M384.20615,195.65451l20.20917,38.74354l-39.7585,-17.42656c0,0 4.57953,-9.37936 7.98,-13.08733c3.08523,-3.36422 11.56933,-8.22966 11.56933,-8.22966z" fill="#191919" stroke="none" stroke-width="0" stroke-linecap="butt"/><path d="M286.43521,137.16082l28.37244,-17.33138l-9.93758,29.17358c0,0 -7.74087,-2.40683 -10.9475,-4.46671c-2.90935,-1.86891 -7.48736,-7.37549 -7.48736,-7.37549z" fill="#191919" stroke="none" stroke-width="0" stroke-linecap="butt"/><path d="M301.24552,149.91807l31.03019,-15.5632l-14.16753,31.02159c0,0 -7.44707,-3.65128 -10.38023,-6.34018c-2.66124,-2.43961 -6.48243,-9.11821 -6.48243,-9.11821z" fill="#191919" stroke="none" stroke-width="0" stroke-linecap="butt"/><path d="M320.13316,165.52955l31.4334,-21.92835l-8.81554,34.05471c0,0 -9.25366,-2.16289 -13.18789,-4.27221c-3.56951,-1.91376 -9.42998,-7.85415 -9.42998,-7.85415z" fill="#191919" stroke="none" stroke-width="0" stroke-linecap="butt"/><path d="M359.77626,181.98635l20.61708,-24.21221l-0.74851,31.29058c0,0 -7.62405,-0.43904 -11.08006,-1.67027c-3.13563,-1.1171 -8.7885,-5.4081 -8.7885,-5.4081z" fill="#191919" stroke="none" stroke-width="0" stroke-linecap="butt"/><path d="M344.57793,175.82772l18.89402,-19.58701l-0.68595,25.3132c0,0 -6.98688,-0.35517 -10.15405,-1.35121c-2.87357,-0.9037 -8.054,-4.375 -8.054,-4.375z" fill="#191919" stroke="none" stroke-width="0" stroke-linecap="butt"/></g><path d="M368.14221,196.65743l12.32537,-14.60413l-0.44748,18.8736c0,0 -4.55784,-0.26482 -6.62392,-1.00746c-1.87456,-0.6738 -5.25398,-3.26201 -5.25398,-3.26201z" fill="#191919" stroke="none" stroke-width="0" stroke-linecap="butt"/><path d="M370.09983,226.13358c2.37861,13.93235 -22.79282,32.80493 -51.15246,39.4675c-15.14322,3.55761 -63.97076,8.31468 -71.24196,-7.56022c-9.44788,-20.62716 28.72094,-65.93386 54.31827,-72.15765c39.00972,-9.4849 63.09873,11.09597 68.07615,40.25037z" fill="#d7d75f" stroke="none" stroke-width="0" stroke-linecap="butt"/><g stroke="none" stroke-linecap="butt"><path d="M386.08073,150.02695c4.16034,20.41961 -14.02123,64.16617 -46.48969,70.78134c-32.46846,6.61518 -31.1685,-20.90782 -14.22056,-38.08889c11.6965,-11.8574 -10.38982,-48.58206 12.84462,-63.36139c20.03906,-12.74676 33.55469,-1.95597 41.27716,12.6985c1.36872,2.59733 -5.4524,7.81604 -4.46208,10.54658c1.21789,3.35797 10.40061,4.23382 11.05055,7.42386z" fill="#d7d75f" stroke-width="NaN"/><path d="M411.12466,131.23289c1.53358,3.22434 -11.54443,11.43696 -29.21057,18.34343c-17.66613,6.90646 -29.37827,10.11705 -30.91185,6.89272c-0.20217,-0.42504 -3.46773,-3.82597 -2.23898,-5.50012c6.5432,-8.91496 5.93994,0.27065 9.632,-1.41826c18.07622,-8.26883 51.64361,-20.60062 52.7294,-18.31777z" fill="#89893c" stroke-width="0"/><path d="M410.48347,123.27334c1.20523,2.56648 -27.90659,17.22566 -46.95756,25.01585c-2.42003,0.98958 -4.19206,8.96631 -9.0471,9.94662c-3.36068,0.67857 -6.82448,-4.70484 -6.92932,-5.40836c-1.19373,-8.01038 10.90039,-13.4043 28.27912,-21.56545c17.37874,-8.16114 32.89424,-11.73779 34.65485,-7.98867z" fill="#9b9b44" stroke-width="0"/><path d="M360.6814,128.93766c1.20253,3.05566 1.44881,5.81947 0.55009,6.17315c-0.89872,0.35369 -2.60212,-1.8367 -3.80465,-4.89234c-1.20253,-3.05566 -1.44881,-5.81946 -0.55009,-6.17315c0.89872,-0.35369 2.60212,1.83669 3.80465,4.89234z" fill="#000000" stroke-width="0"/><path d="M355.49742,131.66807c1.20253,3.05566 1.44881,5.81947 0.55009,6.17315c-0.89872,0.35369 -2.60212,-1.8367 -3.80464,-4.89234c-1.20253,-3.05565 -1.44881,-5.81947 -0.55009,-6.17315c0.89872,-0.35369 2.60212,1.8367 3.80465,4.89234z" fill="#000000" stroke-width="0"/></g><path d="M322.64061,208.23055c3.24689,12.1461 -13.89894,26.82627 -38.29626,32.7891c-24.39732,5.96282 -46.8074,0.95028 -50.05429,-11.19582c-3.24689,-12.1461 13.89894,-26.82627 38.29627,-32.7891c24.39732,-5.96282 46.8074,-0.95028 50.05429,11.19582z" fill="#c2c255" stroke="none" stroke-width="0" stroke-linecap="butt"/><path d="M324.42539,198.38457c4.49449,11.9853 -11.89548,29.21386 -36.60803,38.48107c-24.71255,9.2672 -48.38952,7.06376 -52.88401,-4.92155c-4.49449,-11.9853 11.89548,-29.21386 36.60803,-38.48107c24.71255,-9.2672 48.38952,-7.06376 52.88402,4.92154z" fill="#d7d75f" stroke="none" stroke-width="0" stroke-linecap="butt"/><path d="M366.04919,212.51555c0,0 -5.5969,7.10175 -18.06001,4.43187c-13.13843,-2.81455 -17.13121,-13.38733 -17.13121,-13.38733c0,0 9.65131,8.1356 18.28934,8.1356c8.63803,0 16.90187,0.81987 16.90187,0.81987z" fill="#c2c255" stroke="none" stroke-width="0" stroke-linecap="butt"/><path d="M373.74613,202.60079c0,7.03734 -9.71216,12.96578 -21.93002,12.96578c-12.21786,0 -22.31476,-12.96578 -22.31476,-12.96578c0,0 10.28927,3.35322 22.50712,3.35322c12.21786,0 21.73765,-10.39056 21.73765,-3.35322z" fill="#191919" stroke="none" stroke-width="NaN" stroke-linecap="butt"/><path d="M270.65933,214.54019c4.87591,8.15699 11.59695,19.35056 11.59695,19.35056c0,0 -11.07946,-5.63226 -16.82322,-17.77924c-5.44852,-11.52263 -0.94964,-19.22558 -0.94964,-19.22558c0,0 1.74389,10.23989 6.1759,17.65426z" fill="#c2c255" stroke="none" stroke-width="0" stroke-linecap="butt"/><path d="M268.66965,213.71936c6.31455,12.88473 14.58892,21.22228 14.58892,21.22228c0,0 -16.65047,-0.92987 -22.96502,-13.81459c-6.31455,-12.88473 -6.10689,-27.57048 0.09803,-32.84512c6.20491,-5.27464 1.96352,12.55271 8.27807,25.43743z" fill="#191919" stroke="none" stroke-width="NaN" stroke-linecap="butt"/><path d="M341.01834,128.70344c-1.23595,2.59801 -3.63006,4.04182 -5.34739,3.22484c-1.71733,-0.81698 -2.10757,-3.58539 -0.87162,-6.1834c1.23595,-2.59801 3.63006,-4.04183 5.34739,-3.22484c1.71733,0.81698 2.10757,3.58539 0.87162,6.1834z" fill="#eded8c" stroke="none" stroke-width="0" stroke-linecap="butt"/><path d="M345.76694,120.95533c0,1.17032 -0.94873,2.11904 -2.11904,2.11904c-1.17032,0 -2.11904,-0.94873 -2.11904,-2.11904c0,-1.17032 0.94872,-2.11904 2.11904,-2.11904c1.17031,0 2.11904,0.94872 2.11904,2.11904z" fill="#eded8c" stroke="none" stroke-width="0" stroke-linecap="butt"/><path d="M321.37806,186.97043c0.33632,1.82222 -4.95329,0.7291 -11.37902,1.91507c-6.42573,1.18597 -11.55427,4.20192 -11.89059,2.37969c-0.33632,-1.82222 4.60012,-4.26083 11.02584,-5.4468c6.42573,-1.18597 11.90744,-0.67018 12.24376,1.15204z" fill="#eded8c" stroke="none" stroke-width="0" stroke-linecap="butt"/><path d="M295.61632,191.41344c0,1.07278 -0.86967,1.94245 -1.94245,1.94245c-1.07279,0 -1.94245,-0.86967 -1.94245,-1.94245c0,-1.07278 0.86967,-1.94245 1.94245,-1.94245c1.07278,0 1.94245,0.86966 1.94245,1.94245z" fill="#eded8c" stroke="none" stroke-width="0" stroke-linecap="butt"/></g></g></g></svg>