<svg version="1.1" xmlns="http://www.w3.org/2000/svg" xmlns:xlink="http://www.w3.org/1999/xlink" width="301.19544" height="279.82778" viewBox="0,0,301.19544,279.82778"><g transform="translate(-129.58928,-51.98671)"><g stroke-miterlimit="10"><path d="M252.07381,331.81449l2.16374,-279.82778h131.5249l-2.16374,279.82778z" fill-opacity="0.01" fill="#000000" stroke="none" stroke-width="2" stroke-linecap="butt"/><g fill="#000000" stroke-linecap="butt"><path d="M167.43168,184.78216l-11.90578,-3.70352c0,0 -22.40315,-6.43406 -23.64529,-7.4193c-2.56356,-2.03341 1.58733,-6.39142 2.80047,-6.76913c3.51083,-1.09306 36.96572,6.33173 36.96572,6.33173c0,0 -9.00431,-6.83972 -10.27803,-9.34302c-1.27371,-2.50333 0.45735,-5.73855 6.11709,-4.31785c5.65974,1.4207 9.69091,5.73979 11.97362,8.85896c4.49907,6.14769 7.69225,10.36096 7.69225,10.36096l-4.42219,14.4862z" stroke="#ecec68" stroke-width="1"/><path d="M177.25681,194.71502c0,0 -40.44139,0.8672 -43.7414,-0.74357c-1.14033,-0.55661 -2.2314,-5.94942 0.62355,-7.56833c1.38328,-0.7844 44.83919,-0.3819 44.83919,-0.3819z" stroke="#ecec68" stroke-width="1"/><path d="M171.65243,189.46183c0,0 -38.09463,-4.67689 -40.75683,-7.20617c-0.91992,-0.874 -1.70033,-6.63341 1.50948,-7.31801c1.55524,-0.33169 43.17834,7.12549 43.17834,7.12549z" stroke="#ecec68" stroke-width="1"/><path d="M180.43973,200.45589c0,0 -41.62908,5.87356 -45.1575,4.8563c-1.21925,-0.35152 -2.09586,-5.03946 0.43693,-7.12666c0.52037,-0.42879 10.54479,-1.89412 19.59696,-3.50708c12.29667,-2.19108 25.31915,-3.08296 25.31915,-3.08296z" stroke="#ecec68" stroke-width="1"/><path d="M182.36585,187.27829c0.18821,5.63247 -2.20875,11.71859 -2.20875,11.71859c0,0 -20.90408,1.8817 -24.83186,-2.75903c-0.97701,-1.15435 -2.63212,-17.63112 -2.72882,-19.0793c-0.48532,-7.27023 28.77365,-2.18413 28.77365,-2.18413c0,0 0.78136,5.88737 0.99575,12.30388z" stroke="none" stroke-width="0"/></g><g fill="#000000" stroke="#ecec68" stroke-width="1" stroke-linecap="butt"><path d="M412.43997,188.81649c0,0 6.58655,-27.96221 7.40043,-28.88749c1.67974,-1.90966 8.64704,-1.875 8.88889,-0.92188c0.69987,2.75821 -7.73436,30.83514 -7.73436,30.83514z"/><path d="M400.23777,185.71951l12.87944,0.05142c0,0 7.34622,-16.50106 8.23586,-17.34838c1.83609,-1.74874 8.7722,-1.0767 8.93164,-0.10507c0.4614,2.81183 -13.40627,32.61993 -13.40627,32.61993c0,0 9.13971,7.87365 8.31085,9.9419c-0.79708,1.989 -4.02711,4.27646 -4.91763,4.87393c-2.02251,1.35696 -12.66285,-10.87705 -12.66285,-10.87705l-6.19343,-3.64056z"/></g><path d="M367.23583,197.54562c0,0 -9.7084,-34.47757 2.66157,-30.39156c13.88557,4.58663 36.11506,18.07616 36.11506,18.07616c0,0 -3.78967,0.71992 -4.37918,5.96447c-0.41577,3.69908 0.54827,9.30152 0.54827,9.30152c0,0 -16.83116,-2.547 -23.16821,-3.08204c-4.98274,-0.42071 -11.77751,0.13149 -11.77751,0.13149z" fill="#000000" stroke="#ecec68" stroke-width="1" stroke-linecap="butt"/><path d="M185.86706,201.32028c0,0 3.09418,-8.87728 3.66635,-12.55542c0.81122,-5.21489 0.73922,-15.76598 0.73922,-15.76598c0,0 31.26064,3.35015 45.86376,2.57867c13.00921,-0.68729 37.2124,-7.92828 37.2124,-7.92828c0,0 16.95402,13.43428 18.66391,17.70902c0.44727,1.11817 3.67854,22.25563 3.67854,22.25563c0,0 -6.25935,-8.01882 -17.66561,-8.83123c-20.15622,-1.43564 -92.15856,2.53759 -92.15856,2.53759z" fill="#000000" stroke="#ecec68" stroke-width="1" stroke-linecap="butt"/><g><path d="M335.0262,151.03536c23.69369,0.17482 40.49141,18.54749 40.49141,18.54749c0,0 -6.13181,32.84086 -9.40142,53.6478c-3.26962,20.80694 -2.99229,64.086 -2.99229,64.086c0,0 -83.82088,4.27352 -88.13421,3.94719c-1.6857,-0.12752 20.26091,-51.38515 20.4791,-83.18324c0.16313,-23.76895 -22.8025,-39.9485 -22.8025,-39.9485c0,0 47.97192,-18.65132 62.35988,-17.09675z" fill="#000000" stroke="#ecec68" stroke-width="1" stroke-linecap="butt"/><path d="M326.03453,158.91527l22.04148,1.02443l-9.73862,127.93316l-22.77703,1.69852z" fill="#ecec68" stroke="none" stroke-width="0" stroke-linecap="butt"/><path d="M334.90241,171.0732l-2.51402,-8.41183l9.91305,0.80543l-3.17049,7.27827l3.9235,29.95845l-7.34591,8.44744l-6.40875,-9.25203z" fill="#000000" stroke="none" stroke-width="0" stroke-linecap="butt"/><path d="M327.08992,211.61351l-23.60129,-36.29716l9.36315,-7.22921l-10.80455,-0.96772l10.7005,-11.78183" fill="none" stroke="#ecec68" stroke-width="1" stroke-linecap="round"/><path d="M361.02775,159.79341l8.95344,10.81397l-10.37597,1.44076l8.50956,7.5898l-22.53199,33.67068" fill="none" stroke="#ecec68" stroke-width="1" stroke-linecap="round"/><path d="M329.28604,287.9087l7.4476,-120.57127" fill="none" stroke="#000000" stroke-width="1.5" stroke-linecap="round"/></g><g><path d="M298.43908,137.89411l-0.05385,-10.25831l19.03227,-0.09989l0.05385,10.25831z" fill="#000000" stroke="none" stroke-width="0" stroke-linecap="butt"/><path d="M297.6168,108.19523c0,0 -7.11078,-1.18232 -6.59271,-5.57888c0.54299,-4.60777 7.52303,-5.33836 7.52303,-5.33836l-1.20557,-41.53401l5.52225,16.06661l5.36326,-14.23013l4.4977,15.12517l8.07056,-16.45351l5.8787,19.22071l4.68355,-14.22657l8.92748,17.31114l5.35661,-15.4925l6.93473,26.15842l9.30661,-14.06148c0,0 -8.29872,50.93208 -9.47842,67.10686c-0.53274,7.30381 0.64364,12.79573 0.64364,12.79573c0,0 -13.62783,12.20852 -24.17566,10.99815c-10.54784,-1.21034 -15.74035,-15.72148 -15.74035,-15.72148" fill="#000000" stroke="#ecec68" stroke-width="1" stroke-linecap="round"/><path d="M317.82225,152.48315c-7.98141,-0.71125 -15.07868,-0.74864 -17.28074,-1.73626c-4.25547,-1.90857 8.11777,-7.45919 8.11777,-7.45919" fill="#000000" stroke="#ecec68" stroke-width="1" stroke-linecap="round"/><path d="M342.3246,146.74038c0,0 -17.96068,0.342 -35.84538,0.18997c-10.77074,-0.09154 -24.28777,0.75062 -26.50703,-1.16993c-2.57139,-2.22523 16.21258,-15.66242 16.21258,-15.66242" fill="#000000" stroke="#ecec68" stroke-width="1" stroke-linecap="round"/><path d="M311.9518,113.89336c0.03437,6.5431 -4.86233,11.87319 -10.93708,11.90509c-6.07472,0.03189 -11.02711,-5.24649 -11.06144,-11.78957c-0.03437,-6.5431 4.86239,-11.87317 10.9371,-11.90504c6.07474,-0.0319 11.02711,5.24649 11.06144,11.78957z" fill="#ecec68" stroke="#000000" stroke-width="1.5" stroke-linecap="butt"/><path d="M301.97962,115.70346c-1.0262,0.00535 -1.86286,-0.89221 -1.86871,-2.00484c-0.00585,-1.11263 0.82134,-2.019 1.84756,-2.02435c1.0262,-0.00535 1.86286,0.89224 1.86871,2.00487c0.00585,1.11266 -0.82134,2.019 -1.84754,2.02435z" fill="#000000" stroke="none" stroke-width="0.5" stroke-linecap="butt"/><path d="M306.01474,131.57311c0,0 -17.18593,0.57581 -16.8347,-6.44334c0.32981,-6.59079 24.7693,-3.53974 24.7693,-3.53974" fill="#000000" stroke="#ecec68" stroke-width="1" stroke-linecap="round"/><g stroke-linecap="butt"><path d="M333.09131,115.07587c0.04022,7.66202 -5.69383,13.9036 -12.80741,13.94094c-7.11355,0.03731 -12.91288,-6.14371 -12.95306,-13.80576c-0.04019,-7.66201 5.69389,-13.9036 12.80749,-13.94094c7.11356,-0.03731 12.91283,6.14368 12.95306,13.80573z" fill="#ecec68" stroke="#000000" stroke-width="1.5"/><path d="M319.98671,114.78151c-0.00664,-1.26435 0.93335,-2.29427 2.09948,-2.3004c1.16618,-0.00614 2.11688,1.01387 2.12352,2.27824c0.00664,1.26439 -0.93333,2.2943 -2.09948,2.30043c-1.16614,0.00614 -2.11691,-1.01387 -2.12352,-2.27824z" fill="#000000" stroke="none" stroke-width="0.5"/></g><g stroke="#ecec68" stroke-width="1" stroke-linecap="round"><path d="M352.24076,128.95402c0,0 7.99549,-6.71529 8.49085,-2.6229c2.71186,22.4041 -9.89766,13.334 -9.89766,13.334" fill="#000000"/><path d="M354.61342,137.66956c0,0 0.04344,-2.3877 0.39359,-3.81926c0.32789,-1.34063 1.64485,-4.51512 1.64485,-4.51512" fill="none"/><path d="M354.84412,134.67436c0,0 1.25441,-0.98743 1.79181,-1.24109c0.37691,-0.1779 1.46839,-0.28871 1.46839,-0.28871" fill="none"/></g></g><path d="M255.0972,196.28537v-22.02777l31.78292,-10.38452l12.90199,46.88769c0,0 -7.67616,-10.01144 -14.70063,-12.23991c-8.04606,-2.55253 -29.98428,-2.23549 -29.98428,-2.23549z" fill="#000000" stroke="none" stroke-width="0" stroke-linecap="butt"/><path d="M177.37064,201.32028c0,0 4.10376,-10.59274 4.94313,-15.96482c0.71347,-4.56621 -0.22288,-14.24469 -0.22288,-14.24469l8.18174,0.94405c0,0 0.38758,9.3166 -0.06876,14.03223c-0.48584,5.02041 -4.02209,15.5479 -4.02209,15.5479z" fill="#ecec68" stroke="none" stroke-width="0" stroke-linecap="butt"/><path d="M401.68461,201.52562c0,0 -0.71996,-7.7886 -0.24691,-10.57652c0.44433,-2.61869 3.59324,-6.72929 3.59324,-6.72929l4.39098,1.9123c0,0 -3.3241,4.22597 -3.60738,6.80151c-0.33328,3.03007 -0.8892,9.18892 -0.8892,9.18892z" fill="#ecec68" stroke="none" stroke-width="0" stroke-linecap="butt"/></g></g></svg>