<svg version="1.1" xmlns="http://www.w3.org/2000/svg" xmlns:xlink="http://www.w3.org/1999/xlink" width="117.87396" height="111.16009" viewBox="0,0,117.87396,111.16009"><g transform="translate(-177.73812,-118.29662)"><g data-paper-data="{&quot;isPaintingLayer&quot;:true}" fill-rule="nonzero" stroke-linejoin="miter" stroke-miterlimit="10" stroke-dasharray="" stroke-dashoffset="0" style="mix-blend-mode: normal"><g stroke-linecap="butt"><path d="M284.12582,196.87382c6.67635,3.34212 -0.85984,15.99816 -8.47833,19.6889c-12.15301,5.88747 -22.21313,0.01531 -22.21313,0.01531l4.69324,-5.78623c0,0 6.72395,2.3398 11.55042,-1.28325c5.95267,-4.46844 6.28277,-16.72206 14.4478,-12.63474z" fill="#ecec68" stroke="#000000" stroke-width="2"/><path d="M273.69139,203.40892l3.02243,-5.61299l9.79519,5.27446l-3.02243,5.61297z" fill="#000000" stroke="none" stroke-width="0"/><path d="M269.72412,209.73597l3.58691,-4.11946l6.29367,7.90842l-4.80666,3.40376z" fill="#000000" stroke="none" stroke-width="0"/><path d="M262.08812,211.5122l5.57723,-0.83397l0.60895,8.59318l-6.58656,-0.06573z" fill="#000000" stroke="none" stroke-width="0"/></g><g data-paper-data="{&quot;index&quot;:null}" stroke-linecap="butt"><path d="M259.7942,213.06319c-4.77866,-0.2732 -8.02847,-3.34641 -7.86036,-6.28711c0.1681,-2.94072 5.10025,-5.32941 9.87893,-5.05622c4.77868,0.27318 7.59426,3.10478 7.42615,6.04551c-0.16812,2.94073 -4.66606,5.571 -9.44472,5.29782z" fill="#ecec68" stroke="#000000" stroke-width="2"/><path d="M264.28902,212.51182l0.93681,-9.47276c0,0 4.27759,0.66273 4.32352,4.73212c0.03947,3.49574 -5.26035,4.74063 -5.26035,4.74063z" fill="#000000" stroke="none" stroke-width="0"/><path d="M257.04931,212.74831l1.38185,-10.98794l3.50127,0.18034l-0.91859,11.07513z" fill="#000000" stroke="none" stroke-width="0"/></g><g stroke-linecap="butt"><path d="M229.84928,208.48876c0.92626,2.79609 -1.41364,6.60802 -5.95728,8.11319c-4.54363,1.50518 -9.57043,0.13364 -10.4967,-2.66245c-0.92626,-2.79609 1.05711,-6.2619 5.60074,-7.76709c4.54363,-1.50518 9.92696,-0.47974 10.85323,2.31635z" fill="#ecec68" stroke="#000000" stroke-width="2"/><path d="M213.04504,213.83264c-1.01276,-3.94164 2.94583,-5.69282 2.94583,-5.69282l3.36543,8.90421c0,0 -5.44126,0.1746 -6.31124,-3.21139z" fill="#000000" stroke="none" stroke-width="0"/><path d="M222.64994,216.67992l-3.76407,-10.4563l3.33423,-1.08366l4.1888,10.25176z" fill="#000000" stroke="none" stroke-width="0"/></g><path d="M240.91497,226.18343c0,0.7405 -3.6377,1.8081 -9.04974,1.77241c-5.91985,-0.03904 -8.28349,-1.2374 -8.59956,-1.91835c-1.38426,-2.98226 0.39895,-5.24797 8.5651,-5.10799c4.02776,0.06904 7.27771,0.47006 8.5305,1.30635c1.39536,0.93146 0.5537,2.37617 0.5537,3.94758z" fill="#c5c556" stroke="#9b9b44" stroke-width="3" stroke-linecap="butt"/><path d="M241.6757,218.58039c-6.61425,0.86479 -14.53834,1.88455 -14.82312,0.89993c-1.07021,-3.69996 3.50887,-17.86484 3.50887,-17.86484l17.16979,-2.47547c0,0 7.24038,14.4303 7.70683,16.27373c0.46646,1.84343 -6.39183,2.22912 -13.56236,3.16666z" fill="#000000" stroke="#6e6e30" stroke-width="3" stroke-linecap="butt"/><g stroke="none" stroke-width="0" stroke-linecap="butt"><path d="M240.23671,205.9694c-46.16056,4.76054 -60.37289,-22.73175 -60.37289,-22.73175c0,0 6.67218,-2.33399 10.8458,-10.09959c9.23214,-17.17773 12.08543,-46.02796 39.41346,-49.06012c28.54297,-3.16694 36.70143,22.33349 49.95271,38.0791c5.32677,6.29487 13.73071,9.7776 13.73071,9.7776c0,0 -6.58067,29.18878 -53.5698,34.03478z" fill="#ecec68"/><path d="M292.68133,170.79595c0,0 -1.69724,11.59527 -12.27961,20.10631c-10.97654,8.82807 -30.14534,12.33841 -30.14534,12.33841c0,0 16.60223,-13.5756 12.0948,-45.17804c-2.57721,-18.06933 -19.426,-34.15689 -19.426,-34.15689c0,0 11.50666,4.00706 20.23087,13.51822c6.97258,7.60154 10.68089,17.72396 15.06397,21.94411c2.13866,2.05916 3.63665,4.97971 6.02926,6.83964c3.93586,3.05959 8.43205,4.58825 8.43205,4.58825z" fill="#cbcb6a"/></g><path d="M197.05269,185.47334c-0.32065,-3.05144 1.8931,-5.78506 4.94455,-6.10571c3.05144,-0.32065 5.78507,1.89308 6.10572,4.94452c0.32065,3.05144 -1.89309,5.78507 -4.94454,6.10572c-3.05144,0.32065 -5.78508,-1.89309 -6.10573,-4.94454z" fill="#6e6e30" stroke="none" stroke-width="0" stroke-linecap="butt"/><path d="M265.79696,178.36125c-0.32065,-3.05144 1.8931,-5.78506 4.94455,-6.10571c3.05144,-0.32065 5.78507,1.89308 6.10572,4.94452c0.32065,3.05144 -1.8931,5.78507 -4.94454,6.10572c-3.05144,0.32065 -5.78508,-1.89309 -6.10573,-4.94453z" fill="#6e6e30" stroke="none" stroke-width="0" stroke-linecap="butt"/><g stroke="none" stroke-width="0" stroke-linecap="butt"><path d="M205.86846,138.86028l-6.89906,16.4779c0,0 -1.5916,-0.27788 -4.36689,-0.53141c-3.77192,-0.34458 -9.35326,-1.10976 -12.59534,-5.39505c-5.90374,-7.8033 -2.66765,-14.43269 -0.48586,-17.34478c2.28526,-3.0502 7.97583,-6.61706 14.48706,-4.90696c5.18361,1.36143 7.18944,5.27824 8.3641,8.15625c0.85688,2.0994 1.496,3.54405 1.496,3.54405z" fill="#000000"/><path d="M188.18475,142.81335c-0.39921,-3.79905 2.3569,-7.20241 6.15595,-7.60163c3.79905,-0.39921 7.20242,2.3569 7.60164,6.15595c0.39921,3.79905 -2.3569,7.20241 -6.15595,7.60163c-3.79905,0.39921 -7.20241,-2.3569 -7.60163,-6.15595z" fill="#cbcb6a"/></g><path d="M240.2367,205.96941c-46.16056,4.76054 -60.37289,-22.73175 -60.37289,-22.73175c0,0 6.67217,-2.33399 10.84579,-10.09959c9.23214,-17.17773 12.08543,-46.02796 39.41346,-49.06012c28.54297,-3.16694 35.94356,22.48348 49.28969,38.14877c7.1111,8.34679 14.39373,9.70793 14.39373,9.70793c0,0 -6.58067,29.18879 -53.5698,34.03478z" fill="none" stroke="#000000" stroke-width="3" stroke-linecap="butt"/><g data-paper-data="{&quot;index&quot;:null}" stroke="none" stroke-width="0" stroke-linecap="butt"><path d="M259.44702,133.23011c0,0 0.32486,-1.54594 0.72661,-3.7776c0.55076,-3.05933 1.6986,-7.30753 6.48597,-9.71673c6.01353,-3.02625 12.32123,-0.72018 15.1906,1.78836c2.73948,2.39496 7.28294,8.20685 3.13023,17.06691c-2.28049,4.8656 -7.58087,6.77426 -11.19876,7.89538c-2.66194,0.82489 -4.16103,1.42755 -4.16103,1.42755l-10.1736,-14.68385z" fill="#000000"/><path d="M271.41023,141.02254c-3.79905,0.39921 -7.20241,-2.3569 -7.60163,-6.15595c-0.39921,-3.79905 2.35689,-7.20241 6.15594,-7.60163c3.79905,-0.39921 7.20241,2.3569 7.60163,6.15595c0.39921,3.79905 -2.35689,7.20242 -6.15594,7.60164z" fill="#cbcb6a"/></g><path d="M223.94669,124.6592l13.07926,-1.12302c0,0 0.68547,9.09218 -0.33862,17.20313c-0.77327,6.1243 -2.29018,11.60435 -2.29018,11.60435c0,0 -3.33285,-4.2629 -5.68499,-10.73917c-1.77518,-4.88772 -4.76547,-16.94528 -4.76547,-16.94528z" fill="#000000" stroke="none" stroke-width="0" stroke-linecap="butt"/><path d="M219.13416,144.64659c0,0 3.31097,-8.01803 13.11341,-9.17066c10.05149,-1.18192 14.236,6.29671 14.236,6.29671z" fill="#000000" stroke="none" stroke-width="0" stroke-linecap="butt"/><path d="M215.8906,135.30942c0,0 3.68233,-8.55979 15.0909,-9.88121c11.69843,-1.355 16.73388,6.53698 16.73388,6.53698z" fill="#000000" stroke="none" stroke-width="0" stroke-linecap="butt"/><g fill="#000000" stroke="none" stroke-width="0" stroke-linecap="butt"><path d="M187.94267,192.2922c0,0 -6.23643,-5.69108 -6.63431,-7.98286c-0.33368,-1.9219 4.40552,-4.8545 4.40552,-4.8545c0,0 3.98861,2.45565 9.68455,3.92424c4.78037,1.23254 9.4457,1.10405 9.4457,1.10405c0,0 -1.69065,3.24016 -6.659,5.12626c-7.27008,2.75988 -10.24244,2.68282 -10.24244,2.68282z"/><path d="M189.78825,193.94455c0,0 8.70006,0.72655 13.8424,-0.26882c4.31576,-0.83536 8.01892,-2.72139 8.01892,-2.72139c0,0 0.64751,3.06928 -2.72308,7.09945c-1.90376,2.27631 -3.93755,3.75172 -5.13933,4.65811c-0.84663,-0.33703 -2.47762,-0.92855 -3.25941,-1.20249c-0.65705,-0.23024 -1.69179,-1.08356 -2.90282,-2.10941c-1.07596,-1.46258 -2.53554,-2.6114 -4.21352,-3.31265c-0.02925,-0.01221 -0.05856,-0.02431 -0.08792,-0.03625c0.49792,-1.02434 -3.53525,-2.10656 -3.53525,-2.10656z"/><path d="M213.52796,201.38573c3.72713,-2.93322 5.59534,-6.13427 5.59534,-6.13427c0,0 1.70497,2.77193 0.87816,7.43125c-0.30055,1.69374 -0.61385,3.10476 -0.91501,4.26902c-2.29702,-0.93688 -4.6902,-1.39239 -7.42264,-2.18204c-0.22887,-0.06614 -2.71121,-0.99858 -2.97703,-1.01508c0.96003,-0.75352 3.18573,-1.06607 4.84116,-2.36886z"/></g><g data-paper-data="{&quot;index&quot;:null}" fill="#000000" stroke="none" stroke-width="0" stroke-linecap="butt"><path d="M277.00532,181.07539c-5.25189,-0.81214 -7.57914,-3.63009 -7.57914,-3.63009c0,0 4.59013,-0.84411 9.00987,-3.04341c5.26623,-2.62052 8.65729,-5.85164 8.65729,-5.85164c0,0 5.24527,1.88342 5.31839,3.8327c0.08719,2.32444 -4.83,9.18756 -4.83,9.18756c0,0 -2.89141,0.69325 -10.57641,-0.49512z"/><path d="M285.62529,186.47749c-0.02625,0.01779 -0.74605,0.61133 -0.77212,0.62937c-1.49556,1.03474 -4.51632,1.77453 -5.26475,3.42883c-0.16714,0.216 2.02499,1.30962 1.86645,1.511c-0.76272,0.96883 -3.77491,0.85622 -4.26737,1.15574c-0.70777,0.43048 -2.18017,1.34811 -2.93825,1.85375c-1.36395,-0.63678 -3.66002,-1.6572 -5.99537,-3.48805c-4.1347,-3.2415 -4.13935,-6.37832 -4.13935,-6.37832c0,0 4.01432,1.07507 8.40945,0.99505c5.23692,-0.09533 14.44001,-2.95455 14.44001,-2.95455c0,0 -2.03868,2.3487 -1.33871,3.24717z"/><path d="M269.6734,197.09458c-0.2566,0.0714 -2.49091,1.49948 -2.701,1.61174c-2.50861,1.34038 -4.75484,2.28343 -6.80692,3.67732c-0.5366,-1.07623 -1.13636,-2.39131 -1.78241,-3.98557c-1.77727,-4.38565 -0.68575,-7.45146 -0.68575,-7.45146c0,0 2.49279,2.74278 6.74826,4.83718c1.89008,0.93024 4.13215,0.77329 5.22784,1.31078z"/></g><g fill="#000000" stroke="none" stroke-width="0" stroke-linecap="butt"><path d="M219.35893,168.31519c0.89823,8.54786 -2.26965,15.8867 -7.07569,16.39172c-4.80603,0.50502 -9.43025,-6.01499 -10.32848,-14.56285c-0.89823,-8.54786 2.26966,-15.88669 7.07569,-16.39172c4.80603,-0.50502 9.43024,6.01499 10.32847,14.56285z"/><path d="M209.95948,175.98953c0.13275,1.26329 -4.07788,2.33899 -4.07788,2.33899c0,0 -1.20703,-0.34383 -2.78689,-0.79002c-2.05776,-0.58116 -4.61684,-1.41979 -4.62416,-2.75488c-0.00852,-1.55692 2.47523,-1.61874 4.40079,-1.62471c1.43429,-0.00443 2.45637,-0.10137 2.45637,-0.10137c0,0 4.49902,1.6687 4.63178,2.932z"/></g><g data-paper-data="{&quot;index&quot;:null}" fill="#000000" stroke="none" stroke-width="0" stroke-linecap="butt"><path d="M258.74361,148.93056c4.80602,-0.50502 9.43025,6.01498 10.32848,14.56284c0.89823,8.54786 -2.26966,15.8867 -7.07569,16.39172c-4.80602,0.50502 -9.43024,-6.01498 -10.32848,-14.56284c-0.89823,-8.54786 2.26966,-15.8867 7.07569,-16.39172z"/><path d="M266.37847,167.04436c0,0 1.0199,-0.11762 2.42379,-0.41144c1.88474,-0.39444 4.3271,-0.85026 4.64238,0.67442c0.27037,1.30746 -2.05846,2.65972 -3.95048,3.65593c-1.45261,0.76485 -2.56181,1.35208 -2.56181,1.35208c0,0 -4.34227,-0.17692 -4.47502,-1.44021c-0.13275,-1.26329 3.92112,-3.83076 3.92112,-3.83076z"/></g><path d="M211.67808,165.32663c0.35456,3.37403 -0.88464,6.26964 -2.76783,6.46753c-1.88317,0.19789 -3.69723,-2.37687 -4.05177,-5.75092c-0.35456,-3.37403 0.88464,-6.26963 2.76784,-6.46752c1.88317,-0.19789 3.69722,2.37687 4.05176,5.75091z" fill="#ffffff" stroke="none" stroke-width="0" stroke-linecap="butt"/><path d="M260.80612,159.87684c0.35456,3.37403 -0.88464,6.26965 -2.76784,6.46754c-1.88317,0.19789 -3.69722,-2.37688 -4.05176,-5.75092c-0.35456,-3.37403 0.88463,-6.26963 2.76783,-6.46752c1.88317,-0.19789 3.69723,2.37687 4.05177,5.75091z" fill="#ffffff" stroke="none" stroke-width="0" stroke-linecap="butt"/><path d="M224.10432,172.85493c-0.68849,-6.5519 4.06474,-12.42139 10.61663,-13.10987c6.5519,-0.68849 12.42139,4.06474 13.10987,10.61663c0.68849,6.5519 -4.06474,12.42139 -10.61663,13.10987c-6.5519,0.68849 -12.42138,-4.06474 -13.10987,-10.61662z" fill="#6e6e30" stroke="none" stroke-width="0" stroke-linecap="butt"/><path d="M211.44839,176.81034c-0.10903,-1.03751 0.64366,-1.96692 1.68114,-2.07594c1.03751,-0.10903 1.96693,0.64366 2.07596,1.68112c0.10903,1.03751 -0.64366,1.96693 -1.68113,2.07596c-1.03751,0.10903 -1.96693,-0.64367 -2.07596,-1.68114z" fill="#6e6e30" stroke="none" stroke-width="0" stroke-linecap="butt"/><path d="M261.33153,172.01538c-0.10902,-1.03751 0.64367,-1.96692 1.68115,-2.07594c1.03751,-0.10903 1.96693,0.64365 2.07595,1.68112c0.10902,1.03751 -0.64367,1.96693 -1.68113,2.07595c-1.03751,0.10903 -1.96693,-0.64367 -2.07596,-1.68113z" fill="#6e6e30" stroke="none" stroke-width="0" stroke-linecap="butt"/><path d="M237.17367,185.30728c-6.74975,0.72353 -7.35091,-7.41522 -7.35091,-7.41522c0,0 3.18964,-0.03086 3.98577,-0.49722c0.96436,-0.56491 2.66046,-2.8945 2.66046,-2.8945c0,0 2.29621,1.92394 3.23722,2.24953c0.78016,0.26992 3.31831,-0.35282 3.31831,-0.35282c0,0 1.4647,8.55774 -5.85085,8.91023z" fill="#c5c556" stroke="#000000" stroke-width="1.5" stroke-linecap="butt"/><path d="M245.61905,173.86201c0,0 -1.14101,3.57891 -5.4732,3.08514c-3.07223,-0.35016 -3.69429,-3.38162 -3.69429,-3.38162c0,0 -0.32195,3.6229 -3.18729,4.25087c-4.09544,0.89756 -6.35801,-1.8204 -6.35801,-1.8204" fill="none" stroke="#000000" stroke-width="2" stroke-linecap="round"/><g stroke="none" stroke-width="0" stroke-linecap="butt"><path d="M242.59322,166.59678c0.23809,2.2657 -3.01135,7.37773 -6.28461,7.57325c-3.2723,0.19547 -7.64927,-3.81832 -7.88736,-6.08403c-0.23809,-2.2657 2.51475,-4.91472 6.51977,-5.33559c4.00502,-0.42085 7.41412,1.58065 7.65221,3.84635z" fill="#000000"/><path d="M239.85406,166.04671c0.0986,0.93833 -1.84369,1.91148 -4.33826,2.17362c-2.49456,0.26214 -4.59674,-0.28602 -4.69534,-1.22434c-0.0986,-0.93833 1.10112,-1.80835 4.49532,-2.2739c3.31155,-0.45422 4.4397,0.38632 4.53828,1.32462z" fill="#ffffff"/></g><path d="M236.58095,175.56589l0.61584,5.86058" fill="none" stroke="#000000" stroke-width="1" stroke-linecap="round"/><path d="M254.26861,209.12426c3.38488,1.04361 5.04947,5.39057 3.71795,9.70921c-1.3315,4.31864 -5.15489,6.97358 -8.53977,5.92995c-3.38488,-1.04361 -5.04946,-5.39058 -3.71795,-9.70921c1.3315,-4.31864 5.15489,-6.97357 8.53977,-5.92995z" data-paper-data="{&quot;index&quot;:null}" fill="#c5c556" stroke="#9b9b44" stroke-width="3" stroke-linecap="butt"/></g></g></svg>