<svg version="1.1" xmlns="http://www.w3.org/2000/svg" xmlns:xlink="http://www.w3.org/1999/xlink" width="772.83091" height="463.43963" viewBox="0,0,772.83091,463.43963"><g transform="translate(101.68961,52.58014)"><g data-paper-data="{&quot;isPaintingLayer&quot;:true}" fill-rule="nonzero" stroke="none" stroke-width="0" stroke-linecap="butt" stroke-linejoin="miter" stroke-miterlimit="10" stroke-dasharray="" stroke-dashoffset="0" style="mix-blend-mode: normal"><path d="M-101.68961,410.85949v-462.57928l772.83091,-0.86035v463.43963zM-34.99977,60.29856c0.18998,1.0164 1.41056,1.59464 1.72069,2.58104c0.18001,0.57255 -0.42708,1.16964 -0.35416,1.76537c0.26909,2.19822 1.3509,4.22875 1.77489,6.40241c0.66237,3.39572 -0.54521,7.56764 0.13838,11.01986c0.24912,1.2581 1.25456,2.24656 1.72069,3.44138c0.09209,0.23605 -0.26751,7.52762 -0.26751,8.88697c0,9.85395 -0.2615,19.63154 0.90901,29.37679c0.54168,4.50984 -0.53426,9.23478 0,13.76553c0.36922,3.1311 1.33895,6.17189 1.7061,9.30323c0.52117,4.44498 0.48641,10.10808 0.01459,14.53639c-0.23656,2.22025 -0.85909,4.41364 -0.83409,6.64631c-0.59883,2.39532 -0.54008,4.90846 -0.80614,7.36312c-0.27703,2.55586 -1.47851,4.94871 -1.80115,7.49921c-0.64212,5.07604 -0.55385,11.80613 0.02626,16.83309c0.25836,2.23881 0.40557,4.50875 0.96586,6.69166c0.30514,1.18885 1.42724,2.10736 1.58214,3.32493c0.10724,0.84295 -0.75004,1.55867 -0.85356,2.40208c-0.18485,1.50596 -0.16573,3.04361 0,4.55179c0.38312,3.48637 2.26032,6.77522 2.6615,10.08025c0.2419,1.99285 -0.29057,4.03609 0,6.02242c0.25723,1.75839 0.81612,3.50586 0.73122,5.28094c0,7.49402 -0.69148,14.61592 -1.64577,22.00751c-0.27249,2.1106 -0.38147,4.27799 -0.07492,6.38391c0.01793,0.12318 0.42084,-0.19845 0.36285,-0.0883c-0.77899,1.47969 -2.08853,2.70369 -2.58104,4.30173c-0.64951,2.10747 0.06814,4.43323 -0.28793,6.60958c-0.96691,5.90988 -1.80744,13.10172 -0.80614,19.17023c0.4863,2.94726 1.87714,5.89266 2.50058,8.84736c-0.13789,9.39657 1.06567,15.72872 10.72338,20.69662c1.05148,0.54087 2.30035,-1.17049 3.44138,-0.86035c0.83821,0.22783 0.61046,1.87704 1.42354,2.18268c4.19241,1.57596 10.52045,0.7612 15.01133,0.7612c10.61093,0 21.22186,0 31.8328,0c5.47698,0 10.47577,-0.28828 15.84771,-0.93527c3.72328,-0.44843 7.92842,0.07492 11.68336,0.07492c6.3092,0 12.61841,0 18.92761,0c13.01514,0 26.56487,1.00688 39.54037,-0.03407c5.81759,-0.46671 11.36399,-0.82627 17.24246,-0.82627c24.66325,0 49.3265,0 73.98974,0c10.61093,0 21.22186,0 31.8328,0c5.96937,0 12.24721,0.42917 18.19229,-0.04867c10.54922,-0.8479 21.18982,-2.66205 31.5889,-4.38219c2.22595,-0.3682 4.81151,0.16208 7.12051,0c7.90963,3.36846 18.0868,1.84982 26.55185,1.84982c4.68615,0 9.08009,0.83422 13.76553,0.86035c5.4657,0.03047 10.50237,-0.06072 15.84771,-0.93527c4.4932,-0.73513 9.86394,0.10612 14.45759,0.05265c5.77836,0.78369 11.55618,1.57131 17.33507,2.35107c6.60679,0.89148 13.21416,1.77872 19.82196,2.66265c6.82823,0.91342 13.64292,1.93601 20.48614,2.72939c4.79813,0.55628 11.98893,0.07027 16.15337,0.02228c1.77839,-0.0205 3.5876,0.16388 5.33246,-0.18044c1.51515,-0.29899 2.80823,-1.3276 4.30173,-1.72069c1.64995,-0.43427 3.42407,0.34589 5.11672,0.13177c4.91207,-0.62137 15.85573,-3.24786 18.10483,-7.72028c1.76777,-3.51526 -0.1054,-7.88885 -0.64325,-11.78664c-0.01634,-0.11841 -0.06507,-0.2587 -0.13496,-0.40028c0.08159,-0.44741 0.10175,-0.93332 0.16234,-1.34749c0.31523,-2.15488 -0.28693,-4.38461 0.06941,-6.53308c0.41415,-2.49694 1.38063,-4.89192 1.6778,-7.40546c0.65118,-5.5078 0.77339,-11.06533 1.16008,-16.598l2.72096,-39.90735c0.46024,-6.76447 1.00221,-13.5239 1.37785,-20.2936c0.09852,-1.77556 -0.69897,-3.63277 -0.17464,-5.33201c0.45535,-1.47571 1.3708,-2.79752 1.72069,-4.30173c0.74298,-3.19413 0.70519,-6.52097 1.01562,-9.78564c0.18903,-1.98795 -0.37785,-4.01179 -0.10397,-5.98983c0.45022,-3.2515 1.34833,-6.53983 1.77489,-9.84379c0.88629,-6.86488 0.23352,-14.5908 0,-21.50865c2.47328,-8.83015 1.85866,-17.05433 0.91011,-26.02041c-0.51894,-4.90525 0.48563,-9.985 -0.02351,-14.90237c-0.33947,-3.27866 -1.8628,-6.32446 -2.71281,-9.50916c-0.66178,-2.4795 0.35418,-5.14112 0.13177,-7.69776c-0.12673,-1.4568 -0.68596,-2.84986 -0.86035,-4.30173c-0.49831,-4.14871 0.44772,-8.48592 -0.08046,-12.66129c-0.27097,-2.14207 -1.19447,-4.15369 -1.64023,-6.26632c0.06096,-5.2314 -1.06756,-11.53432 -0.08046,-16.34041c0.18245,-0.88834 0.72908,-1.6837 0.86035,-2.58104c0.40783,-2.7879 -0.42552,-5.87076 0,-8.60346c0.18931,-1.21577 1.2319,-1.49889 0.97015,-2.70115c-0.95257,-4.3752 -1.70609,-9.15831 -4.50113,-12.65653c-1.9563,-2.44847 -10.9034,-2.76539 -14.11854,-3.09285c-10.29004,-1.04804 -20.56862,-0.89442 -30.93691,-0.89442c-2.43432,0.04796 -4.82693,0.64413 -7.24425,0.93527c-6.21114,0.74807 -13.17413,-0.07492 -19.42647,-0.07492c-11.75806,0 -23.51612,0 -35.27418,0c-4.81028,0 -9.86874,0.42673 -14.66142,0.03407c-2.06396,-0.1691 -4.07723,-0.8958 -6.14811,-0.89312c-5.39523,0.00698 -10.62523,1.87999 -15.85166,2.6764c-2.94522,0.44879 -5.95792,-0.09666 -8.93714,-0.09666c-47.9083,0 -95.7773,1.72069 -143.67776,1.72069c-2.18882,0.05325 -4.34363,-0.55824 -6.52128,-0.78542c-2.41354,-0.25179 -4.87028,0.24692 -7.27979,-0.04085c-1.73212,-0.20687 -3.42366,-0.7156 -5.16208,-0.86035c-6.68143,-0.55631 -13.3555,-0.53135 -20.05976,-0.87912c-5.48987,-0.28477 -10.91179,-1.43465 -16.40144,-1.72358c-12.42252,-0.65382 -25.0483,-0.01241 -37.49301,-0.01241c-4.7725,0 -9.75541,0.46112 -14.50085,0.04867c-3.19855,-0.278 -6.37836,-0.87946 -9.58883,-0.90901c-7.98931,0 -16.2607,-0.64328 -24.21471,0.04867c-5.33883,0.46444 -10.68935,1.32872 -16.07009,1.69718c-6.02762,0.41276 -12.15599,-0.48836 -18.18318,0.00892c-3.72075,0.30698 -7.3457,1.43192 -11.06858,1.71178c-1.88642,0.14181 -3.80194,-0.21536 -5.67502,0.04977c-2.13745,0.30254 -4.24798,0.87121 -6.26509,1.64028c-0.60164,0.22939 -0.81299,1.12244 -1.43334,1.29491c-0.69569,0.19342 -1.4313,-0.40722 -2.14536,-0.29995c-1.42547,0.21414 -2.761,0.82959 -4.14149,1.24439c0,0 -0.17803,0.05934 -0.47718,0.18616l-4.964,-3.28036c0,0 -10,0 -10,10c0,2.90807 0.84568,4.97045 2.04519,6.43307c0.27886,3.37553 -0.05046,6.81981 0.10458,7.64927z" fill="#532e19"/><path d="M-37.43096,332.95944v-305.61709h529.27892v305.61709zM469.27865,319.45944c2.24903,0 4.07222,-2.11314 4.07222,-4.71983v-268.67743c0,-2.6067 -1.82319,-4.71984 -4.07222,-4.71984h-486.65595c-2.24902,0 -4.07222,2.11314 -4.07222,4.71984v268.67743c0,2.6067 1.8232,4.71983 4.07222,4.71983z" fill="#67717c"/><path d="M513.53394,347.70099v-81.27485h89.40234v81.27485z" fill="#0d120c"/><path d="M514.87092,228.92888v-220.18097h87.18576v220.18098z" fill="#c2c3be"/><path d="M595.40692,170.37404c0,20.09707 -16.37459,36.38896 -36.57368,36.38896c-20.19909,0 -36.57368,-16.29189 -36.57368,-36.38896c0,-20.09707 16.3746,-36.38897 36.57368,-36.38897c20.19909,0 36.57368,16.29189 36.57368,36.38897z" fill="#0f1410"/><path d="M595.77635,59.7294c0,20.19909 -16.6227,36.57368 -37.12783,36.57368c-20.50513,0 -37.12784,-16.37459 -37.12784,-36.57368c0,-20.19909 16.6227,-36.57368 37.12784,-36.57368c20.50513,0 37.12783,16.3746 37.12783,36.57368z" fill="#0f1410"/><path d="M591.3795,59.7294c0,18.05676 -14.39793,32.69465 -32.15867,32.69465c-17.76075,0 -32.15868,-14.63789 -32.15868,-32.69465c0,-18.05676 14.39793,-32.69466 32.15868,-32.69466c17.76075,0 32.15867,14.6379 32.15867,32.69466z" fill="#858b93"/><path d="M591.77318,169.45046c0,17.6487 -14.07255,31.95579 -31.43193,31.95579c-17.35938,0 -31.43194,-14.30709 -31.43194,-31.95579c0,-17.6487 14.07256,-31.95579 31.43194,-31.95579c17.35938,0 31.43193,14.30709 31.43193,31.95579z" fill="#858b93"/></g></g></svg>