<svg version="1.1" xmlns="http://www.w3.org/2000/svg" xmlns:xlink="http://www.w3.org/1999/xlink" width="34.17311" height="34.17311" viewBox="0,0,34.17311,34.17311"><defs><radialGradient cx="314.88543" cy="184.82641" r="0.92858" gradientUnits="userSpaceOnUse" id="color-1"><stop offset="0" stop-color="#baffb5"/><stop offset="1" stop-color="#52ff46"/></radialGradient><radialGradient cx="324.69793" cy="184.85766" r="0.92858" gradientUnits="userSpaceOnUse" id="color-2"><stop offset="0" stop-color="#baffb5"/><stop offset="1" stop-color="#52ff46"/></radialGradient></defs><g transform="translate(-302.91345,-162.91346)"><g stroke-miterlimit="10"><path d="M309.98312,162.91347h20.03378c3.9166,0 7.06966,3.15307 7.06966,7.06966v20.03379c0,3.91659 -3.15306,7.06966 -7.06966,7.06966h-20.03378c-3.91659,0 -7.06967,-3.15307 -7.06967,-7.06966v-20.03379c0,-3.91659 3.15308,-7.06966 7.06967,-7.06966z" fill="#000000" fill-rule="evenodd" stroke="none" stroke-width="4.43922" stroke-linecap="round" stroke-linejoin="round"/><path d="M326.97997,185.10758c0,0 -1.70218,0.76315 -2.76315,0.76315c-1.06097,0 -2.76316,-0.71052 -2.76316,-0.71052c0,0 1.70219,-1.60527 2.76316,-1.60527c1.06097,0 2.76315,1.55264 2.76315,1.55264z" fill="#ffffff" fill-rule="nonzero" stroke="none" stroke-width="0" stroke-linecap="butt" stroke-linejoin="miter"/><path d="M318.10591,185.07563c0,0 -1.70219,0.76316 -2.76316,0.76316c-1.06097,0 -2.76315,-0.71053 -2.76315,-0.71053c0,0 1.70218,-1.60526 2.76315,-1.60526c1.06097,0 2.76316,1.55263 2.76316,1.55263z" fill="#ffffff" fill-rule="nonzero" stroke="none" stroke-width="0" stroke-linecap="butt" stroke-linejoin="miter"/><path d="M320.99037,172.58663c0,0.7697 -0.68779,1.39368 -1.53621,1.39368c-0.84842,0 -1.53621,-0.62397 -1.53621,-1.39368c0,-0.7697 0.68779,-1.39368 1.53621,-1.39368c0.84842,0 1.53621,0.62397 1.53621,1.39368z" fill="#40f5ff" fill-rule="nonzero" stroke="#30bac1" stroke-width="0.5" stroke-linecap="butt" stroke-linejoin="miter"/><g fill-rule="nonzero" stroke-width="0.5" stroke-linecap="round" stroke-linejoin="miter"><path d="M311.00498,169.28237c0,0 0.4628,-0.10196 0.94318,0.39746c0.57713,0.6 1.37743,1.86531 1.81434,2.24684c0.77816,0.67953 2.25847,1.30308 2.25847,1.30308l-4.27811,3.50921c0,0 -0.89744,-0.89554 -1.36347,-2.07988c-1.3789,-3.50424 0.62559,-5.37671 0.62559,-5.37671z" fill="#ffe8e8" stroke="#ffcfcf"/><path d="M314.89203,173.7778l-2.63763,2.12897c0,0 -2.52789,-4.86537 -0.64903,-5.05362c0.10132,-0.01016 0.64955,0.99921 1.35151,1.64237c0.87869,0.8051 1.93515,1.28227 1.93515,1.28227z" fill="#ffcfcf" stroke="#f7f7f7"/></g><path d="M316.26193,184.75796c0,0.47339 -0.41573,0.85715 -0.92857,0.85715c-0.51283,0 -0.92858,-0.38376 -0.92858,-0.85715c0,-0.47339 0.41574,-0.85714 0.92858,-0.85714c0.51283,0 0.92857,0.38376 0.92857,0.85714z" fill="url(#color-1)" fill-rule="nonzero" stroke="none" stroke-width="0" stroke-linecap="butt" stroke-linejoin="miter"/><path d="M325.33336,184.68653c0,0.47339 -0.41574,0.85714 -0.92857,0.85714c-0.51283,0 -0.92857,-0.38376 -0.92857,-0.85714c0,-0.47339 0.41574,-0.85714 0.92857,-0.85714c0.51283,0 0.92857,0.38376 0.92857,0.85714z" fill="url(#color-2)" fill-rule="nonzero" stroke="none" stroke-width="0" stroke-linecap="butt" stroke-linejoin="miter"/><g fill-rule="nonzero" stroke-width="0.5" stroke-linecap="round" stroke-linejoin="miter"><path d="M328.58789,169.95841c0,0 1.28649,1.25591 -0.06354,4.77137c-0.45627,1.18814 -0.8549,1.89291 -0.8549,1.89291c0,0 -1.08233,-1.87138 -1.89965,-2.56002c-0.82826,-0.69785 -2.71602,-1.13735 -2.71602,-1.13735c0,0 1.29256,-0.21414 2.0651,-0.90004c0.43375,-0.38511 1.22361,-1.65696 1.79579,-2.26169c0.47625,-0.50334 0.93988,-0.40519 0.93988,-0.40519z" fill="#ffe8e8" stroke="#ffcfcf"/><path d="M324.77275,173.14908c0,0 0.42876,-0.11889 1.3008,-0.93119c0.69665,-0.64891 1.05204,-1.60729 1.15344,-1.59797c1.88035,0.17277 -0.08197,4.67243 -0.08197,4.67243c0,0 -0.77206,-0.98269 -1.20978,-1.33008c-0.4471,-0.35485 -1.1625,-0.8132 -1.1625,-0.8132z" fill="#ffcfcf" stroke="none"/></g><path d="M313.86371,181.10391c0,0 1.36775,-0.35302 5.91667,-0.35302c5.46531,0 5.48333,0.21968 5.48333,0.21968c0,0 0.84986,1.50355 5.53333,4.84989c0.64071,0.45779 -5.27593,-2.67932 -11.0531,-2.62511c-6.27557,0.05889 -12.44056,3.18961 -11.28024,2.51451c1.2466,-0.72529 5.4,-4.60596 5.4,-4.60596z" fill="#40f5ff" fill-rule="nonzero" stroke="#30bac1" stroke-width="0.5" stroke-linecap="round" stroke-linejoin="miter"/><path d="M313.7949,180.96644c0,0 -2.48127,-2.61167 -2.27692,-5.56043c0.20468,-2.95349 14.04766,-3.75965 16.11795,-0.49827c1.13317,1.78512 -2.28205,6.12819 -2.28205,6.12819c0,0 -3.63996,-0.28396 -5.34178,-0.30181c-2.10801,-0.02211 -6.2172,0.23232 -6.2172,0.23232z" fill="#40f5ff" fill-rule="nonzero" stroke="#30bac1" stroke-width="0.5" stroke-linecap="round" stroke-linejoin="miter"/><path d="M315.60418,184.77433c0,0.13807 -0.10494,0.25 -0.23437,0.25c-0.12944,0 -0.23437,-0.11193 -0.23437,-0.25c0,-0.13807 0.10494,-0.25 0.23438,-0.25c0.12944,0 0.23438,0.11193 0.23438,0.25z" fill="#000000" fill-rule="nonzero" stroke="none" stroke-width="0" stroke-linecap="butt" stroke-linejoin="miter"/><path d="M324.66668,184.6962c0,0.12944 -0.10494,0.23438 -0.23437,0.23438c-0.12944,0 -0.23437,-0.10494 -0.23437,-0.23437c0,-0.12944 0.10494,-0.23437 0.23438,-0.23437c0.12944,0 0.23438,0.10494 0.23438,0.23438z" fill="#000000" fill-rule="nonzero" stroke="none" stroke-width="0" stroke-linecap="butt" stroke-linejoin="miter"/><g fill-rule="nonzero" stroke-linejoin="miter"><path d="M328.67526,187.47586c0,0 -3.81473,2.2509 -8.61205,2.32954c-4.79733,0.07864 -8.76061,-2.04475 -8.76061,-2.04475c0,0 3.94586,1.49803 8.74319,1.41938c4.79733,-0.07864 8.62948,-1.70418 8.62948,-1.70418z" fill="#ffffff" stroke="none" stroke-width="0" stroke-linecap="butt"/><path d="M313.54168,187.96183v2.0625" fill="none" stroke="#000000" stroke-width="0.5" stroke-linecap="round"/><path d="M316.22918,188.46183v2.28125" fill="none" stroke="#000000" stroke-width="0.5" stroke-linecap="round"/><path d="M319.72918,190.89933v-2.625" fill="none" stroke="#000000" stroke-width="0.5" stroke-linecap="round"/><path d="M322.79168,188.49308l0.09375,1.75" fill="none" stroke="#000000" stroke-width="0.5" stroke-linecap="round"/><path d="M325.41668,188.05558l0.0625,1.4375" fill="none" stroke="#000000" stroke-width="0.5" stroke-linecap="round"/><path d="M327.19793,189.08683l-0.09375,-1.65625" fill="none" stroke="#000000" stroke-width="0.5" stroke-linecap="round"/></g></g></g></svg>