<svg version="1.1" xmlns="http://www.w3.org/2000/svg" xmlns:xlink="http://www.w3.org/1999/xlink" width="209.93099" height="313.80489" viewBox="0,0,209.93099,313.80489"><g transform="translate(-215.03451,-3.34133)"><g stroke-miterlimit="10"><path d="M254.23756,308.01331v-256.0266h131.5249v256.0266z" fill-opacity="0.01" fill="#000000" stroke="none" stroke-width="2" stroke-linecap="butt"/><path d="M215.53452,41.25v-36.5h208.93099v36.5z" fill="#000000" stroke="#ecec68" stroke-width="1" stroke-linecap="butt"/><text transform="translate(219.83594,31.60405) scale(0.5784,0.64035)" font-size="40" xml:space="preserve" fill="#ecec68" stroke="none" stroke-width="1" stroke-linecap="butt" font-family="Malgun Gothic" font-weight="normal" text-anchor="start"><tspan x="0" dy="0">DO THE BARTMAN</tspan></text><g><path d="M272.83333,141.83336c5.61203,-1.00451 38.29976,-6.92245 54.25985,-3.79201c26.46029,1.96059 40.90682,23.79201 40.90682,23.79201c0,0 -9.29712,43.53771 -14.5,71.16667c-5.20288,27.62896 -6.14928,70.7232 -6.14928,70.7232c0,0 -72.32887,13.64442 -77.12392,12.89306c-1.87395,-0.29363 3.11188,-71.11885 5.724,-113.69085c1.95255,-31.82241 -12.60064,-59.39466 -3.11748,-61.09208z" fill="#000000" stroke="#ecec68" stroke-width="1" stroke-linecap="butt"/><path d="M277.16666,175.41669l-10.5,45.66667l7.16667,20.83333l-2.83333,40c0,0 -36.757,-50.86566 -33,-64.99999c3.77398,-14.19821 15.83749,-58.08777 34.16667,-75.00001" fill="#000000" stroke="#ecec68" stroke-width="1" stroke-linecap="round"/><path d="M274.50708,285.37516l-7.13057,-9.23054l5.84896,-36.94182l6.74841,8.41255z" fill="#ecec68" stroke="none" stroke-width="0" stroke-linecap="butt"/><path d="M363.40784,156.75001c15.3082,14.1248 23.65258,52.9179 26.80453,64.77599c3.13777,11.80474 -41.01135,54.65225 -41.01135,54.65225l1.52418,-28.18885l14.85485,-25.79488l-5.34812,-26.29925" fill="#000000" stroke="#ecec68" stroke-width="1" stroke-linecap="round"/><path d="M313.50631,143.94044l24.55097,2.97812l-15.06806,160.90066l-18.432,3.82391z" fill="#ecec68" stroke="none" stroke-width="0" stroke-linecap="butt"/><path d="M322.50904,160.86998l-2.18246,-11.44935l11.016,1.80103l-4.0845,9.51694l2.15249,40.40989l-8.83685,10.77858l-6.47152,-12.85846z" fill="#000000" stroke="none" stroke-width="0" stroke-linecap="butt"/><g><path d="M342.38366,123.50491l0.67696,-10.01705l18.58463,1.25597l-0.67696,10.01705z" fill="#000000" stroke="none" stroke-width="0" stroke-linecap="butt"/><path d="M345.85841,136.02479c0,0 -0.00687,1.27314 0.60541,2.82021c0.68433,1.7291 2.58734,6.3373 2.58734,6.3373c0,0 -8.90008,8.46792 -21.73503,7.89775c-13.0478,-0.57962 -24.37105,-14.82427 -24.37105,-14.82427c0,0 5.11924,-5.33962 5.04343,-12.50642c-0.16788,-15.87134 -5.17407,-66.12686 -5.17407,-66.12686l8.23486,14.30169l8.36596,-25.12943l4.2894,15.45909l9.77402,-16.36614l3.70898,14.18158l6.91216,-18.41699l6.88188,16.56302l5.31396,-14.50051l4.3727,14.22642l6.37204,-15.35775l-3.70558,40.49705c0,0 6.77366,1.13847 7.02358,5.67237c0.23845,4.32609 -6.77931,5.04818 -6.77931,5.04818" fill="#000000" stroke="#ecec68" stroke-width="1" stroke-linecap="round"/><path d="M350.65694,129.40727c0,0 11.74832,6.17495 7.47543,7.78023c-2.21107,0.83067 -9.14596,0.43524 -16.9855,0.64418" fill="#000000" stroke="#ecec68" stroke-width="1" stroke-linecap="round"/><path d="M363.64484,117.28281c0,0 17.53032,14.26874 14.88314,16.28584c-2.28469,1.7409 -15.43685,0.09555 -25.9633,-0.47056c-17.47904,-0.94003 -35.0022,-2.36728 -35.0022,-2.36728" fill="#000000" stroke="#ecec68" stroke-width="1" stroke-linecap="round"/><path d="M349.22986,100.49453c0.43179,-6.3892 5.59055,-11.24368 11.5224,-10.8428c5.93185,0.40088 10.39054,5.90531 9.95875,12.29452c-0.43179,6.38921 -5.59055,11.24369 -11.52239,10.8428c-5.93187,-0.40088 -10.39054,-5.90533 -9.95875,-12.29454z" fill="#ecec68" stroke="#000000" stroke-width="1.5" stroke-linecap="butt"/><path d="M358.86051,102.86958c-1.00207,-0.06772 -1.75491,-1.00338 -1.68148,-2.08985c0.07342,-1.08647 0.94529,-1.91232 1.94738,-1.84461c1.00209,0.06772 1.75491,1.00339 1.68149,2.08985c-0.07342,1.08647 -0.9453,1.91232 -1.94738,1.8446z" fill="#000000" stroke="none" stroke-width="0.5" stroke-linecap="butt"/><path d="M346.81021,107.89101c0,0 24.05818,-1.49276 23.97918,4.96518c-0.08413,6.87769 -16.83629,5.26921 -16.83629,5.26921" fill="#000000" stroke="#ecec68" stroke-width="1" stroke-linecap="round"/><g stroke-linecap="butt"><path d="M328.50881,100.36293c0.50563,-7.48182 6.54657,-13.16648 13.49283,-12.69705c6.94626,0.46944 12.16744,6.9152 11.66181,14.39702c-0.50563,7.4818 -6.54659,13.16648 -13.49285,12.69705c-6.94626,-0.46944 -12.16741,-6.91521 -11.66178,-14.39702z" fill="#ecec68" stroke="#000000" stroke-width="1.5"/><path d="M341.32728,100.87308c-0.08344,1.23461 -1.0742,2.1731 -2.21292,2.09614c-1.13873,-0.07695 -1.99421,-1.14021 -1.91078,-2.37484c0.08344,-1.23463 1.0742,-2.1731 2.21293,-2.09615c1.13871,0.07695 1.99421,1.14019 1.91077,2.37481z" fill="#000000" stroke="none" stroke-width="0.5"/></g><g stroke="#ecec68" stroke-width="1" stroke-linecap="round"><path d="M309.6812,123.30182c0,0 -12.86902,8.09219 -8.85646,-13.62707c0.73296,-3.96733 8.13421,3.07883 8.13421,3.07883" fill="#000000"/><path d="M304.62699,112.85745c0,0 1.09319,3.18099 1.33188,4.51047c0.25489,1.41965 0.15201,3.7546 0.15201,3.7546" fill="none"/><path d="M302.97641,116.49004c0,0 1.05941,0.17465 1.41675,0.37138c0.50946,0.28049 1.67468,1.32134 1.67468,1.32134" fill="none"/></g></g><path d="M310.76059,214.59727l-23.66666,-50.33333l11,-9l-12,-2.08334l12.83333,-15" fill="none" stroke="#ecec68" stroke-width="1" stroke-linecap="round"/><path d="M352.53938,147.66632l9.19839,15.13579l-11.7005,1.17358l8.94256,10.78526l-27.68309,43.45414" fill="none" stroke="#ecec68" stroke-width="1" stroke-linecap="round"/><path d="M324.83333,156.00001l-11.2,154" fill="none" stroke="#000000" stroke-width="1.5" stroke-linecap="round"/><path d="M345.57651,251.61536l6.54841,-5.61255l-1.95104,29.34182l-4.33057,2.63054z" fill="#ecec68" stroke="none" stroke-width="0" stroke-linecap="butt"/></g></g></g></svg>