<svg version="1.1" xmlns="http://www.w3.org/2000/svg" xmlns:xlink="http://www.w3.org/1999/xlink" width="34.17311" height="34.17311" viewBox="0,0,34.17311,34.17311"><g transform="translate(-302.91346,-162.9135)"><g stroke-miterlimit="10"><path d="M309.98312,162.9135h20.03379c3.9166,0 7.06966,3.15307 7.06966,7.06966v20.03379c0,3.91659 -3.15306,7.06966 -7.06966,7.06966h-20.03379c-3.91659,0 -7.06966,-3.15307 -7.06966,-7.06966v-20.03379c0,-3.91659 3.15307,-7.06966 7.06966,-7.06966z" fill="#a0a300" fill-rule="evenodd" stroke="none" stroke-width="0" stroke-linecap="round" stroke-linejoin="round"/><g fill-rule="nonzero" stroke="#000000" stroke-linejoin="miter"><path d="M323.5192,171.9429l8.28597,-5.02866l-4.03109,8.70924z" fill="#d9db56" stroke-width="1" stroke-linecap="butt"/><path d="M321.79231,175.89581c-1.40555,-1.21585 -1.79053,-3.07366 -0.85985,-4.14956v0c0.93068,-1.0759 2.82457,-0.96243 4.23012,0.25341l2.22687,1.9263c1.40555,1.21585 1.79052,3.07366 0.85985,4.14956v0c-0.93068,1.0759 -2.82457,0.96243 -4.23012,-0.2534z" fill="#d9db56" stroke-width="1" stroke-linecap="butt"/><path d="M308.01496,188.36097c-1.7506,-1.51433 -1.79392,-4.33243 -0.09673,-6.29443l7.42646,-8.58523c1.69718,-1.96199 4.49216,-2.32492 6.24277,-0.8106l5.61309,4.85548c1.7506,1.51433 1.79392,4.33243 0.09674,6.29442l-7.42646,8.58523c-1.69718,1.96199 -4.49216,2.32492 -6.24277,0.8106z" fill="#d9db56" stroke-width="1" stroke-linecap="butt"/><path d="M310.62748,179.46843l4.04432,-4.67538l11.55638,9.99658l-4.04432,4.67538z" fill="#000000" stroke-width="0" stroke-linecap="butt"/><path d="M323.28851,173.34388l1.40523,-1.62449" fill="none" stroke-width="0.5" stroke-linecap="round"/><path d="M326.42285,173.03038l-1.40524,1.6245" fill="none" stroke-width="0.5" stroke-linecap="round"/><path d="M326.44605,176.27572l1.40523,-1.6245" fill="none" stroke-width="0.5" stroke-linecap="round"/></g></g></g></svg>