<svg version="1.1" xmlns="http://www.w3.org/2000/svg" xmlns:xlink="http://www.w3.org/1999/xlink" width="378" height="460.00001" viewBox="0,0,378,460.00001"><defs><linearGradient x1="320" y1="-67.5" x2="320" y2="269.5" gradientUnits="userSpaceOnUse" id="color-1"><stop offset="0" stop-color="#ffffd1"/><stop offset="1" stop-color="#f1f19c"/></linearGradient></defs><g transform="translate(-131,83.00001)"><g stroke-miterlimit="10"><path d="M145.24891,375c-6.76488,0 -12.24891,-5.33739 -12.24891,-11.9214v-432.15721c0,-6.58401 5.48402,-11.9214 12.24891,-11.9214h349.50219c6.76488,0 12.2489,5.33739 12.2489,11.9214v432.15721c0,6.584 -5.48402,11.9214 -12.2489,11.9214z" fill="#535311" fill-rule="nonzero" stroke="#212108" stroke-width="4" stroke-linecap="butt" stroke-linejoin="miter"/><path d="M160.66812,361.5c-6.16798,0 -11.16812,-4.94148 -11.16812,-11.03711v-406.92577c0,-6.09563 5.00014,-11.03711 11.16812,-11.03711h318.66376c6.16798,0 11.16812,4.94149 11.16812,11.03712v406.92577c0,6.09563 -5.00014,11.03711 -11.16812,11.03711z" fill="url(#color-1)" fill-rule="nonzero" stroke="#212108" stroke-width="4.5" stroke-linecap="butt" stroke-linejoin="miter"/><text transform="translate(160.5,-35.68135) scale(0.61033,0.61033)" font-size="40" xml:space="preserve" fill="#212108" fill-rule="nonzero" stroke="none" stroke-width="1" stroke-linecap="butt" stroke-linejoin="miter" font-family="&quot;Allan-Regular&quot;, Sans Serif" font-weight="normal" text-anchor="start"><tspan x="0" dy="0">name: Ashley Ketchupson</tspan><tspan x="0" dy="46.15px">age: 18</tspan><tspan x="0" dy="46.15px">occupation: lackey</tspan></text><g><path d="M432.53444,-56.08653h32.93116c6.43804,0 11.62097,5.18296 11.62097,11.62097v32.93116c0,6.43802 -5.18294,11.62098 -11.62097,11.62098h-32.93116c-6.43802,0 -11.62098,-5.18296 -11.62098,-11.62097v-32.93116c0,-6.43801 5.18296,-11.62097 11.62098,-11.62097z" fill="#a0a300" fill-rule="evenodd" stroke="#212108" stroke-width="2" stroke-linecap="round" stroke-linejoin="round"/><g fill="none" fill-rule="nonzero" stroke="none" stroke-width="1" stroke-linecap="butt" stroke-linejoin="miter" font-family="sans-serif" font-weight="normal" font-size="12" text-anchor="start"><g/><g/></g></g><text transform="translate(160.5,49.66571) scale(0.40368,0.40368)" font-size="40" xml:space="preserve" fill="#212108" fill-rule="nonzero" stroke="none" stroke-width="1" stroke-linecap="butt" stroke-linejoin="miter" font-family="&quot;Allan-Regular&quot;, Sans Serif" font-weight="normal" text-anchor="start"><tspan x="0" dy="0">Description-</tspan><tspan x="0" dy="46.15px">Ashley came from a long line of royalty, she was the 17th </tspan><tspan x="0" dy="46.15px">heir to the Ketchupson throne. One day she went rogue after </tspan><tspan x="0" dy="46.15px">a particularly nasty spat with her parents. As an act of rebellion, </tspan><tspan x="0" dy="46.15px">she dyed all of her clothes yellow and fled the country never to </tspan><tspan x="0" dy="46.15px">be heard from again. After several days living on the streets, </tspan><tspan x="0" dy="46.15px">she found her calling when she stumbled across a McMustard </tspan><tspan x="0" dy="46.15px">on her travels. She decided to go in and order a burger topped </tspan><tspan x="0" dy="46.15px">with the iconic syndicate drug "mustanyl", she instantly got </tspan><tspan x="0" dy="46.15px">hooked on the burgers and begged for more. Sensing an </tspan><tspan x="0" dy="46.15px">opportunity, she got hired by the MCS and gets paid in mustanyl </tspan><tspan x="0" dy="46.15px">burgers only, she's usually hopped on the drug 24/7 and it's </tspan><tspan x="0" dy="46.15px">gotten to the point where it's hard to tell weather she's under </tspan><tspan x="0" dy="46.15px">the influence or not. Ever since her parents found out she became </tspan><tspan x="0" dy="46.15px">a junkie they said, "We can't have an addict be queen! She's all </tspan><tspan x="0" dy="46.15px">yours." and ironically enough Ashely would later rob them of </tspan><tspan x="0" dy="46.15px">all their wealth, toppling the ketchup kingdom entirely.</tspan></text><path d="M160.16667,-30.16667v-1.66667h252.16667v1.66667z" fill="#212108" fill-rule="nonzero" stroke="none" stroke-width="0" stroke-linecap="butt" stroke-linejoin="miter"/><path d="M160.16667,-0.66667v-1.66667h252.16667v1.66667z" fill="#212108" fill-rule="nonzero" stroke="none" stroke-width="0" stroke-linecap="butt" stroke-linejoin="miter"/><path d="M160.16667,29.33333v-1.66667h252.16667v1.66667z" fill="#212108" fill-rule="nonzero" stroke="none" stroke-width="0" stroke-linecap="butt" stroke-linejoin="miter"/><g fill-rule="nonzero" stroke="#000000" stroke-linejoin="miter"><path d="M455.15343,-41.25586l12.90174,-7.82992l-6.27664,13.56079z" fill="#d9db56" stroke-width="1.5" stroke-linecap="butt"/><path d="M452.46457,-35.10095c-2.18852,-1.89315 -2.78796,-4.78587 -1.33884,-6.46111v0c1.44912,-1.67524 4.39802,-1.49856 6.58654,0.39457l3.46737,2.99936c2.18852,1.89315 2.78794,4.78587 1.33884,6.46111v0c-1.44912,1.67524 -4.39802,1.49856 -6.58654,-0.39456z" fill="#d9db56" stroke-width="1.5" stroke-linecap="butt"/><path d="M431.01243,-15.69197c-2.72579,-2.3579 -2.79324,-6.74585 -0.15061,-9.80079l11.56343,-13.3677c2.64261,-3.05493 6.99455,-3.62004 9.72036,-1.26215l8.73991,7.56026c2.72579,2.3579 2.79324,6.74585 0.15063,9.80078l-11.56343,13.3677c-2.64261,3.05493 -6.99455,3.62004 -9.72036,1.26215z" fill="#d9db56" stroke-width="1.5" stroke-linecap="butt"/><path d="M435.08028,-29.53817l6.29724,-7.27984l17.99395,15.56526l-6.29724,7.27984z" fill="#000000" stroke-width="1.5" stroke-linecap="butt"/><path d="M454.79424,-39.07445l2.18802,-2.52943" fill="none" stroke-width="1" stroke-linecap="round"/><path d="M457.48654,-37.03315l2.18804,-2.52944" fill="none" stroke-width="1" stroke-linecap="round"/><path d="M461.89873,-37.03885l-2.18802,2.52944" fill="none" stroke-width="1" stroke-linecap="round"/></g></g></g></svg>