<svg version="1.1" xmlns="http://www.w3.org/2000/svg" xmlns:xlink="http://www.w3.org/1999/xlink" width="286.2404" height="238.57006" viewBox="0,0,286.2404,238.57006"><defs><linearGradient x1="190.1971" y1="210.83963" x2="460.63865" y2="210.83963" gradientUnits="userSpaceOnUse" id="color-1"><stop offset="0" stop-color="#8a833c"/><stop offset="1" stop-color="#81782d"/></linearGradient><linearGradient x1="294.01516" y1="211.88245" x2="332.09917" y2="217.57827" gradientUnits="userSpaceOnUse" id="color-2"><stop offset="0" stop-color="#7f772e"/><stop offset="1" stop-color="#8b843d"/></linearGradient><linearGradient x1="255.55166" y1="269.98195" x2="304.36404" y2="269.98195" gradientUnits="userSpaceOnUse" id="color-3"><stop offset="0" stop-color="#7f772e"/><stop offset="1" stop-color="#8b843d"/></linearGradient><linearGradient x1="249.71803" y1="241.97897" x2="312.60814" y2="241.97897" gradientUnits="userSpaceOnUse" id="color-4"><stop offset="0" stop-color="#7f772e"/><stop offset="1" stop-color="#8b843d"/></linearGradient><radialGradient cx="296.47204" cy="252.82077" r="32.95034" gradientUnits="userSpaceOnUse" id="color-5"><stop offset="0" stop-color="#8b843d"/><stop offset="1" stop-color="#7f772e"/></radialGradient></defs><g transform="translate(-175.13511,-59.43742)"><g stroke-miterlimit="10"><path d="M246.91667,248.08336v-110.66667h154v110.66667z" fill-opacity="0.01" fill="#000000" stroke="none" stroke-width="0" stroke-linecap="butt"/><g stroke="#000000" stroke-width="1.5" stroke-linecap="round"><path d="M385.35145,131.43045c0,0 3.48381,2.11984 5.97995,1.10429c0.61606,-0.25063 6.38353,-5.68978 7.10887,-5.97816c1.66442,-0.66175 -1.59078,6.45026 0.38795,5.92727c1.04154,-0.27528 1.47983,0.71511 2.6619,0.41095c1.19418,-0.30728 -4.33195,4.85823 -3.00685,4.54621c0.37481,-0.08826 4.8438,0.68448 7.05682,2.54213c2.52195,2.11697 2.82418,5.35367 3.29982,5.23818c1.70452,-0.41386 2.75495,-2.9393 4.49928,-3.60903c0.83083,-0.31898 5.40407,1.93565 6.24667,1.6078c1.14259,-0.44458 1.92172,-2.51792 3.0023,-3.00212c3.51425,-1.57469 3.36048,3.79807 6.93807,3.7045c1.02643,-0.02685 0.85489,-2.94003 1.62886,-2.88584c1.28665,0.09008 -0.12749,5.09622 1.97686,4.35453c9.73528,-3.43126 6.36016,1.34239 7.92037,2.32375c1.26665,0.79673 6.16843,-1.56691 7.1666,0.15815c0.75309,1.3015 3.08577,8.88232 3.08857,13.57797c0.00135,2.25592 1.60916,5.08753 1.45095,7.77454c-0.12356,2.0985 0.37521,4.30276 0.15205,6.57773c-0.37523,3.82538 -6.61302,7.54787 -5.89171,11.58665c0.6947,3.88975 -1.17286,8.0487 -0.38559,11.22629c1.38516,5.5908 3.34976,9.31538 4.43606,12.90721c1.12971,3.73533 -5.85583,15.75432 -4.57807,18.20034c4.73057,9.05568 3.44428,15.9948 6.47893,23.07945c0.71265,1.66377 7.11862,3.03056 7.65541,4.78364c0.42856,1.39961 -9.74868,3.76363 -15.48958,3.57795c-5.2542,-0.16994 -3.13806,-6.12297 -7.95265,-4.97258c-5.69496,1.36075 -10.07588,11.71258 -9.68942,12.974c2.05634,6.71186 1.01956,12.58408 2.14633,15.66342c1.4961,4.08868 7.27506,6.05002 11.09753,6.91804c2.05104,0.46576 6.51188,1.3976 4.4222,1.66661c-5.42679,0.6986 -20.22739,1.30689 -27.25087,1.18948c-2.38869,-0.03993 -8.92476,1.01137 -11.7534,0.33483c-3.86223,-0.92374 -4.04147,-3.67371 -7.03334,-3.98068c-6.35454,-0.652 -9.91181,1.13619 -16.76937,0.65679c-4.81387,-0.33654 -9.47078,1.26988 -14.68507,1.32496c-2.84485,0.03005 -6.80969,-1.53527 -8.85241,-1.51114c-4.65618,0.05502 -9.86661,1.09843 -10.8055,1.19906c-5.30993,0.56915 -14.52285,0.49567 -23.81264,0.59596c-2.55262,0.02756 -8.57661,0.33671 -11.2553,0.27052c-3.34294,-0.08261 -6.03811,3.98006 -13.91931,-1.71442c-2.28589,-1.65165 -3.49757,-0.26005 -5.76442,0.3324c-1.75672,0.45912 -4.5541,0.05147 -6.39715,-0.17299c-5.46516,-0.66557 -9.0683,-1.21222 -13.62036,-1.99863c-3.02918,-0.52332 -6.85703,-1.33269 -10.55311,-1.69794c-4.26033,-0.421 -9.48279,-0.44669 -13.58977,-0.66636c-2.70594,-0.14473 -8.04692,-0.29525 -10.56869,-0.45169c-0.92713,-0.05752 -5.235,1.1748 -6.13027,1.11446c-1.17021,-0.07887 -8.42067,-2.7407 -9.52273,-2.82053c-1.66796,-0.12083 -2.91573,-4.43238 -4.41334,-4.54101c-3.59458,-0.26074 -5.32524,-0.48443 -7.7835,-0.6619c-1.80168,-0.13008 -3.2645,-0.87841 -4.33911,-0.94986c-2.15418,-0.14325 -5.95616,0.6793 -9.77007,0.86203c-2.97883,0.14272 -6.36225,-0.35663 -6.36225,-0.35663c0,0 -0.31661,-2.46092 2.46726,-3.38741c3.21385,-1.06959 -1.82394,-1.24114 3.46374,-2.9951c1.4121,-0.46841 2.30528,-4.52087 3.98803,-5.05088c1.07458,-0.33847 5.59481,1.27192 6.75468,0.95489c1.71964,-0.47004 4.16528,-4.83507 5.52859,-3.7081c2.96622,2.45202 7.19773,-3.82229 10.29171,-4.42597c7.03788,-1.37321 12.44275,-1.70209 13.95444,-4.66807c0.2597,-0.50955 -8.70845,-4.59879 -15.19914,-9.54037c-3.90191,-2.97065 -4.4732,-4.98174 -6.09769,-7.13829c-0.99094,-1.3155 -3.86648,-3.49588 -3.78788,-3.62336c0.57992,-0.94066 3.93624,-2.67401 6.28701,-4.52891c4.35719,-3.43811 8.56837,-7.29389 8.56837,-7.29389c0,0 -2.64748,-1.47214 -4.00965,-2.22959c-1.67906,-0.93365 1.35789,-1.88557 2.98473,-2.89931c1.88667,-1.17566 4.23004,-2.66743 5.52801,-3.6129c2.29852,-1.67427 5.71641,-4.90604 5.71641,-4.90604c0,0 -11.70799,-14.36643 -17.90348,-18.61696c-1.67648,-1.15017 -3.75893,0.07097 -3.73904,0.05185c0.82858,-0.79654 1.60887,-2.56488 3.11737,-4.53437c0.94713,-1.23657 2.5928,-2.748 3.43452,-3.53813c3.1295,-2.9377 8.32801,-6.34128 10.80542,-9.32946c1.78727,-2.15578 0.13137,-5.78598 1.82034,-7.67593c5.89889,-6.60091 -0.16557,4.89993 5.17194,1.2193c1.68111,-1.15926 0.53292,-6.88155 3.79703,-10.23237c3.62651,-3.72285 3.11095,4.06011 7.42584,1.34759c1.80216,-1.13291 1.50169,-6.27019 4.23792,-9.91844c1.46692,-1.95586 2.4681,-0.57092 4.38696,-1.61732c1.62439,-0.88582 4.29138,-4.33728 4.4751,-4.52059c2.79535,-2.78921 -0.42023,3.78814 2.43772,4.76349c1.20434,0.41101 2.12293,-3.82449 3.41226,-3.06545c1.25278,0.73752 -0.51764,3.2892 0.78007,4.37528c1.46902,1.22944 5.04767,1.00494 6.61351,2.48783c1.44333,1.36686 -1.55055,7.68953 -0.17598,9.2215c1.04892,1.169 2.14577,0.67163 3.26027,1.7297c1.15581,1.0973 0.97214,6.04428 2.13202,7.07454c2.15856,1.91732 0.34972,3.55369 2.39684,4.45217c2.13487,0.93698 4.14484,-1.31475 4.25019,-4.11255c0.1378,-3.65991 -1.77595,-8.25423 1.27304,-7.8674c3.09148,0.39222 5.60111,13.57689 5.60111,13.57689c0,0 0.18061,-10.10606 3.85104,-11.3554c1.6465,-0.56044 4.50151,-0.86723 6.50466,-1.53625c4.46831,-1.49236 -3.47059,-3.28642 2.1222,-4.93189c1.4063,-0.41375 2.88793,-9.59606 5.00366,-7.01642c0.65094,0.79366 -0.60865,3.14088 2.09749,3.75042c2.26509,0.51019 2.75241,-5.77905 5.92791,-5.78786c1.9943,-0.00552 2.75064,4.59082 5.03266,5.7955c3.19623,1.68727 7.75231,0.13598 8.53423,-0.0025c2.57389,-0.4558 5.16174,-1.82202 7.7154,-3.45468c4.88054,-3.12034 9.6362,-7.214 13.93093,-7.78576c1.90988,-0.25426 2.44534,1.76268 4.14212,3.28143c0.85329,0.76376 1.87338,-0.47503 2.86422,0.0516c1.49008,0.79198 2.91391,3.13309 3.60447,2.79003c2.94944,-1.46523 4.75955,-3.99624 6.85757,-5.56788c3.08702,-2.31251 0.65094,-0.98159 2.36643,-2.90404c1.52166,-1.70522 3.56498,-1.9835 5.33364,-3.88446c2.09541,-2.25215 3.80527,-6.00021 3.80527,-6.00021zM301.77288,179.9588c-2.45229,1.76844 12.60494,1.98591 12.60494,5.13742c0,4.21983 -13.80149,10.39172 -9.83954,11.71868c0.33087,0.11082 0.66958,0.20586 1.0151,0.28417c0.00392,0.00268 0.00752,0.00532 0.01078,0.00798c1.39574,1.13835 2.7623,1.61035 4.25743,2.89896c5.02819,4.33366 6.78145,10.46922 11.71568,14.73293c2.09731,1.81231 5.115,2.36483 7.64653,3.25098c1.23168,0.43114 1.8702,1.85727 2.54183,2.55954c0.66788,0.69833 -1.4126,-11.03768 0.48404,-12.51501c2.95515,-2.30179 10.23203,5.09273 11.53751,6.12778c1.33061,1.05498 3.08855,6.34054 4.05689,4.34158c3.84575,-7.93891 4.51436,4.5696 5.57235,2.55834c0.63151,-1.20052 -0.34839,-2.68256 -0.23499,-4.02044c0.04108,-0.48468 0.71471,-0.81925 0.68634,-1.30474c-0.08801,-1.50589 -0.38898,-3.03591 -1.02089,-4.41934c-0.32116,-0.70308 -1.59267,-5.91388 -4.94898,-11.2925c-2.32439,-3.72493 -6.53231,-7.1944 -8.47642,-10.68699c-2.42077,-4.34892 -2.45561,-7.73267 -3.26849,-8.19626c-2.35177,-1.34123 -10.84893,-0.19245 -14.09091,-1.47525c-5.66748,-2.24251 -6.44701,-6.60636 -10.35866,-6.62669c-4.74372,-0.02465 -3.76479,3.45555 -8.83243,6.16509c-0.39473,0.21105 -0.74446,0.46518 -1.05813,0.7538zM260.55343,178.40664c-2.05362,-0.488 -2.23956,1.62204 -3.72793,2.77779c-0.99314,0.7712 -2.51079,-0.76667 -3.61925,-0.01265c-0.96331,0.65528 -1.56773,3.56296 -1.87547,4.68509c-0.36727,1.33918 -3.84365,0.2382 -2.8494,2.12831c0.79324,1.50796 3.09407,3.69877 4.96505,3.93929c0.91277,0.11733 1.9652,0.41776 2.87953,0.21054c0.42221,-0.09569 0.95288,-0.69894 1.23687,-0.38693c1.02564,1.12684 2.54497,-0.25151 3.45411,1.38736c1.41326,2.54765 1.89524,0.16878 6.27558,-2.60693c1.56624,-0.9925 2.76765,4.50711 3.13681,2.75261c0.25363,-1.20539 -2.61332,-6.52905 -3.00735,-7.913c-1.43503,-5.04018 -3.62104,-4.38494 -6.62152,-6.97767z" fill="url(#color-1)"/><path d="M383.08592,241.56208c0,0 1.32234,-0.62059 2.19502,-0.48234c0.38063,0.0603 0.95411,0.35835 1.57339,0.40321c0.74834,0.05421 1.56357,-0.13395 2.18623,0.09908c0.60747,0.22735 1.03166,1.08682 1.03166,1.08682" fill="none"/><path d="M438.10309,177.78479c0,0 0.42421,-0.85947 1.03168,-1.08682c0.62266,-0.23302 1.43788,-0.04486 2.18623,-0.09908c0.61928,-0.04486 1.19276,-0.34292 1.57339,-0.40321c0.87268,-0.13824 2.19502,0.48234 2.19502,0.48234" fill="none"/><path d="M348.9549,188.78326c0,0 1.32234,-0.62058 2.19502,-0.48234c0.38063,0.06029 0.95411,0.35836 1.57339,0.40322c0.74834,0.05421 1.56357,-0.13396 2.18623,0.09907c0.60747,0.22735 1.03166,1.08682 1.03166,1.08682" fill="none"/><path d="M278.14576,204.4163c0,0 0.42421,-0.85948 1.03168,-1.08682c0.62266,-0.23302 1.43788,-0.04486 2.18623,-0.09908c0.61928,-0.04486 1.19276,-0.34292 1.57339,-0.40321c0.87268,-0.13824 2.19502,0.48234 2.19502,0.48234" fill="none"/><path d="M258.27844,166.99383c0,0 1.32234,-0.62058 2.19502,-0.48234c0.38063,0.06029 0.95411,0.35835 1.57339,0.40321c0.74834,0.05421 1.56357,-0.13395 2.18623,0.09908c0.60747,0.22735 1.03166,1.08681 1.03166,1.08681" fill="none"/><path d="M210.39313,272.55147c0,0 1.32235,-0.62059 2.19503,-0.48234c0.38064,0.06031 0.9541,0.35834 1.57338,0.40321c0.74835,0.05421 1.56357,-0.13395 2.18623,0.09908c0.60747,0.22735 1.03167,1.08682 1.03167,1.08682" fill="none"/></g><path d="" fill="#000000" stroke="none" stroke-width="1" stroke-linecap="butt"/><path d="" fill="#000000" stroke="#000000" stroke-width="0.3" stroke-linecap="butt"/><path d="" fill="#000000" stroke="#000000" stroke-width="0.3" stroke-linecap="butt"/><path d="" fill="#000000" stroke="#000000" stroke-width="0.3" stroke-linecap="butt"/><path d="" fill="#000000" stroke="#000000" stroke-width="0.3" stroke-linecap="butt"/><path d="" fill="#000000" stroke="#000000" stroke-width="0.3" stroke-linecap="butt"/><path d="" fill="#000000" stroke="#000000" stroke-width="0.3" stroke-linecap="butt"/><path d="" fill="#000000" stroke="#000000" stroke-width="0.3" stroke-linecap="butt"/><path d="" fill="#000000" stroke="#000000" stroke-width="0.3" stroke-linecap="butt"/><path d="" fill="#000000" stroke="#000000" stroke-width="0.3" stroke-linecap="butt"/><path d="" fill="#000000" stroke="#000000" stroke-width="0.3" stroke-linecap="butt"/><path d="" fill="#000000" stroke="#000000" stroke-width="0.3" stroke-linecap="butt"/><path d="" fill="#000000" stroke="#000000" stroke-width="0.3" stroke-linecap="butt"/><path d="" fill="#000000" stroke="#000000" stroke-width="0.3" stroke-linecap="butt"/><path d="" fill="#000000" stroke="#000000" stroke-width="0.3" stroke-linecap="butt"/><path d="" fill="#000000" stroke="#000000" stroke-width="0.3" stroke-linecap="butt"/><path d="" fill="#000000" stroke="#000000" stroke-width="0.3" stroke-linecap="butt"/><path d="" fill="#000000" stroke="#000000" stroke-width="0.3" stroke-linecap="butt"/><path d="" fill="#000000" stroke="#000000" stroke-width="0.3" stroke-linecap="butt"/><path d="" fill="#000000" stroke="#000000" stroke-width="0.3" stroke-linecap="butt"/><path d="" fill="#000000" stroke="#000000" stroke-width="0.3" stroke-linecap="butt"/><path d="" fill="#000000" stroke="#000000" stroke-width="0.3" stroke-linecap="butt"/><path d="" fill="#000000" stroke="#000000" stroke-width="0.3" stroke-linecap="butt"/><path d="" fill="#000000" stroke="#000000" stroke-width="0.3" stroke-linecap="butt"/><path d="M250.29404,230.24742c0,0 -11.61861,-12.89831 -17.86117,-19.18974c-5.94036,-5.98686 -21.41841,-16.2087 -21.41841,-16.2087l5.37156,-0.16464c0,0 11.5838,9.82509 17.29136,15.47814c5.70702,5.65251 17.79168,17.12135 17.79168,17.12135z" fill="#000000" stroke="none" stroke-width="0" stroke-linecap="butt"/><path d="M304.6166,187.50939l-27.05096,-114.30913l2.0517,-0.19631l27.05097,114.30914z" fill="#000000" stroke="#000000" stroke-width="0.5" stroke-linecap="butt"/><path d="M371.80109,74.1307c-7.97508,4.3349 -140.66893,76.46152 -140.66893,76.46152l-0.84485,-1.66044c0,0 133.51427,-72.97588 141.19421,-77.17356z" fill="#000000" stroke="#000000" stroke-width="0.5" stroke-linecap="butt"/><path d="M369.25517,88.76926l1.4868,-28.99916l1.17656,0.04477l-1.4868,28.99916z" fill="#000000" stroke="#000000" stroke-width="0.5" stroke-linecap="butt"/><path d="M366.74964,88.69579l1.48681,-28.99916l1.17657,0.04477l-1.4868,28.99916z" fill="#000000" stroke="#000000" stroke-width="0.5" stroke-linecap="butt"/><path d="M360.44954,99.31809l-0.08489,-3.21748c0,0 1.04874,-0.00036 1.18775,-0.87435c0.37322,-2.34673 0.26257,-7.60154 1.58953,-10.43754c2.06661,-4.41675 10.77823,-2.96183 12.49039,1.56437c0.7659,2.02472 -0.48871,6.1281 -0.2482,8.73102c0.20289,2.19564 1.72383,2.34188 1.72383,2.34188l-1.3416,1.92414c0,0 -1.33176,-1.73643 -1.16731,-4.67865c0.13605,-2.43395 0.43636,-5.78814 -0.82141,-7.80019c-1.09685,-1.75462 -2.20371,-3.18084 -4.63657,-3.18414c-1.91018,-0.00258 -3.20271,0.56361 -4.37363,1.99583c-2.18074,2.6674 -1.88596,8.25551 -2.43325,11.34904c-0.35027,1.97989 -1.88469,2.28612 -1.88469,2.28612z" fill="#000000" stroke="#000000" stroke-width="0.5" stroke-linecap="butt"/><path d="M363.49222,102.33028c0.24738,-4.10778 0.69642,-11.43874 0.8081,-13.293c0.12604,-2.09272 3.05345,-2.14927 5.41375,-1.96426c1.88747,0.14794 3.84269,0.75219 3.7419,2.42562c-0.11842,1.9665 -0.67826,11.26189 -0.89869,14.92185c-0.04664,0.77443 -0.03881,1.48176 -0.86947,1.73233c-1.10212,0.33245 -3.09972,0.87413 -4.16883,0.79033c-1.04384,-0.08183 -3.26524,-0.17044 -4.01839,-1.53178c-0.24151,-0.43652 -0.0084,-3.08108 -0.0084,-3.08108z" fill="#000000" stroke="#000000" stroke-width="0.5" stroke-linecap="butt"/><path d="M283.0417,240.22007c0,0 6.47711,-14.91918 8.73713,-23.15351c2.70802,-9.86667 6.4114,-30.85449 6.4114,-30.85449l8.71546,-2.71156l5.65528,-1.09712l10.13813,0.88036l8.35552,3.80863l5.2196,3.63006c0,0 -3.10919,18.93336 -3.53366,27.72029c-0.42846,8.86923 0.97475,25.25048 0.97475,25.25048z" fill="url(#color-2)" stroke="none" stroke-width="0" stroke-linecap="butt"/><path d="M289.3462,224.47233c0.97082,-2.66747 1.84452,-5.26297 2.43263,-7.40578c2.70802,-9.86667 6.4114,-30.85449 6.4114,-30.85449l8.71546,-2.71156l5.65528,-1.09712l10.13813,0.88036l8.35552,3.80863l5.2196,3.63006c0,0 -3.10919,18.93336 -3.53366,27.72029c-0.02154,0.44604 0.05035,3.17601 0.14069,6.28451" fill="none" stroke="#000000" stroke-width="1.5" stroke-linecap="butt"/><path d="M260.4995,296.88567l-5.11569,-35.47594c0,0 7.49386,-2.70662 11.10076,-4.42828c6.4949,-3.10016 24.76725,-11.78902 24.76725,-11.78902l13.11224,37.21304c0,0 -22.72708,10.86011 -30.59873,13.07036c-6.15594,1.72851 -13.26582,1.40985 -13.26582,1.40985z" fill="url(#color-3)" stroke="none" stroke-width="0" stroke-linecap="butt"/><path d="M249.71803,246.80216l21.51851,-33.91045c0,0 3.92264,1.94928 8.61789,4.88848c5.37952,3.36755 11.56871,7.64859 15.08998,9.66786c7.22263,4.14182 17.66373,9.06561 17.66373,9.06561l-14.82084,34.55256c0,0 -23.12902,-8.50491 -36.49659,-16.57814c-6.27449,-3.78942 -11.5727,-7.68593 -11.5727,-7.68593z" fill="url(#color-4)" stroke="none" stroke-width="0" stroke-linecap="butt"/><path d="M295.14283,284.97506c0,0 -1.52286,-5.92071 -1.57854,-12.84301c-0.06976,-8.67407 -0.10644,-16.85702 1.49861,-23.8846c1.37547,-6.0224 3.7961,-11.19634 10.24352,-15.10373c4.56589,-2.76711 10.40645,-2.72659 14.49073,-3.51495c0.78832,-0.15217 9.17941,2.97638 16.80955,6.08699c7.36813,3.0038 13.85366,6.55536 13.85366,6.55536l-25.63963,51.98985c0,0 -10.32304,-2.97786 -15.19155,-4.50117c-5.01952,-1.57055 -14.48636,-4.78474 -14.48636,-4.78474z" fill="url(#color-5)" stroke="none" stroke-width="0" stroke-linecap="butt"/><path d="M273.63268,237.23237c-4.25447,9.85233 -15.37374,15.80299 -21.41897,12.37723c-6.04524,-3.42576 -5.98619,-13.20191 -1.73171,-23.05423c4.25447,-9.85233 14.36657,-16.29692 20.41181,-12.87116c6.04524,3.42576 6.99336,13.69584 2.73887,23.54817z" fill="#e2e05f" stroke="#000000" stroke-width="1.5" stroke-linecap="butt"/><path d="M273.26209,253.95615l-19.80764,8.23219" fill="none" stroke="#000000" stroke-width="1.5" stroke-linecap="round"/><path d="M266.71549,296.59891c5.76795,0.68779 27.09591,-8.74223 31.36309,-10.59949c0.49703,-0.21632 25.80572,7.84759 25.80572,7.84759" fill="none" stroke="#000000" stroke-width="1.5" stroke-linecap="round"/><path d="M278.13007,279.39363c0,10.13873 -6.78884,17.86386 -16.19863,17.86386c-9.40978,0 -15.8629,-7.06656 -15.8629,-17.20529c0,-10.13873 2.92803,-18.68709 12.33781,-18.68709c9.40978,0 19.72372,7.88978 19.72372,18.02851z" fill="#e2e05f" stroke="#000000" stroke-width="1.5" stroke-linecap="butt"/><path d="M254.91474,251.09503l10.18359,5.92718" fill="none" stroke="#000000" stroke-width="1.5" stroke-linecap="round"/><path d="M303.81836,232.21585c0,0 -10.07791,-5.06529 -15.04197,-7.94387c-5.91123,-3.42783 -19.08985,-11.16579 -19.08985,-11.16579" fill="none" stroke="#000000" stroke-width="1.5" stroke-linecap="round"/><path d="M366.71486,267.37478c-0.52047,14.77501 -15.33174,28.35168 -30.51721,28.35168c-15.18546,0 -27.89857,-11.98001 -27.89857,-25.78324c0,-6.38427 2.70359,-14.40927 8.19504,-19.91719c6.38142,-6.40058 16.17463,-10.31143 24.33651,-10.31143c15.18546,0 26.48853,10.50548 25.88423,27.66018z" fill="#faefbe" stroke="#000000" stroke-width="1.5" stroke-linecap="butt"/><path d="M345.15937,239.44503c0,0 -7.6178,-2.9494 -9.43681,-3.77458" fill="none" stroke="#000000" stroke-width="1.5" stroke-linecap="round"/><g><path d="M214.14584,197.64921c0,0 -11.68374,-1.26631 -17.67047,-2.00316c-6.94255,-0.85448 -17.04924,-3.31264 -17.04924,-3.31264c0,0 1.13728,-0.46252 4.77069,-0.84748c2.76349,-0.29279 8.58947,-0.59943 11.97727,-0.92094c2.07331,-0.19676 2.43956,-1.04132 4.16104,-1.93765c2.16992,-1.12984 6.72925,-2.40946 12.34147,-2.93371c2.26257,-0.21134 4.10769,-0.13332 6.30221,0.08136c2.39028,0.23384 4.60595,0.50806 6.71495,1.21101c4.53151,1.51039 6.10546,3.87945 7.30054,5.27174c0.98621,1.14895 2.03905,1.56661 3.84093,2.12491c2.94427,0.91227 7.36146,2.28743 9.74191,3.06013c3.12981,1.01594 2.67817,1.467 2.67817,1.467c0,0 -9.43474,0.55208 -16.52114,0.09772c-6.11076,-0.39182 -17.63242,-1.24498 -17.63242,-1.24498z" fill="#eced68" stroke="none" stroke-width="0" stroke-linecap="round"/><path d="M214.14584,197.64921c0,0 -11.49903,-1.22086 -17.48577,-1.95771c-6.94255,-0.85448 -16.23881,-3.50741 -16.23881,-3.50741c0,0 0.88101,-0.1314 4.51441,-0.51636c1.61604,-0.17122 4.0267,-0.40934 6.42747,-0.64186c1.70463,-0.1651 4.81094,-0.46088 4.81094,-0.46088c0,0 -1.72774,2.28945 4.59185,3.75159c3.26661,0.75578 12.60077,2.00021 20.35599,3.09171c7.04821,0.99199 12.89049,1.43691 12.89049,1.43691l-18.91069,-1.08268z" fill="#8f8621" stroke="none" stroke-width="0" stroke-linecap="round"/><path d="M226.64884,194.47026c-0.08549,0.20784 -4.95076,0.45406 -10.03907,0.12018c-0.75514,-0.04955 -1.5152,-0.11189 -2.26527,-0.18901c-3.19588,-0.32861 -9.50901,-1.28281 -12.93425,-2.06364c-3.72857,-0.84997 -4.44097,-1.51661 -4.44097,-1.51661l5.44156,-2.79581c0,0 -1.49038,2.60201 3.06027,4.01716c5.72164,1.77928 21.28557,2.16553 21.17773,2.42772z" fill="#8f8621" stroke="none" stroke-width="0" stroke-linecap="butt"/><path d="M232.68241,193.7169c0,0 -0.72153,1.55676 -14.84817,0.79565c-11.27444,-0.60744 -19.18599,-2.93627 -19.18599,-2.93627" fill="none" stroke="#524d14" stroke-width="0.75" stroke-linecap="round"/><path d="M214.14584,197.64921c0,0 -11.81216,-1.06024 -17.38387,-1.93843c-6.05581,-0.95448 -17.61984,-3.57865 -17.61984,-3.57865c0,0 5.31986,-0.82136 8.36554,-1.08132c2.83656,-0.24211 9.32584,-0.42867 9.32584,-0.42867c0,0 8.36444,-6.3309 22.14529,-4.84715c8.17451,0.88013 11.64227,2.67098 14.81161,6.36329c0.98621,1.14895 3.04481,2.24437 3.04481,2.24437c0,0 6.62848,1.88344 8.98431,2.69812c2.08817,0.72213 4.44476,1.94589 4.44476,1.94589c0,0 -12.98158,0.07065 -19.24976,-0.1547c-5.28361,-0.18996 -15.91279,-1.10946 -15.91279,-1.10946z" fill="none" stroke="#000000" stroke-width="1.5" stroke-linecap="round"/></g><path d="M217.67532,185.34217c0,0 0.40764,-1.82588 0.4829,-2.82922c0.0991,-1.3211 0.06011,-4.40971 0.06011,-4.40971l2.16054,0.27176c0,0 -0.57025,2.65949 -0.9091,3.89802c-0.29669,1.08446 -0.59363,3.11208 -0.59363,3.11208z" fill="#000000" stroke="#000000" stroke-width="0.5" stroke-linecap="butt"/><path d="M241.81571,273.67762c-5.28412,-6.05706 -17.5621,-19.92652 -17.5621,-19.92652l1.35306,-15.11784l2.07156,0.38108l-1.45457,14.21117c0,0 12.27741,15.41248 16.81549,19.00147c2.20365,1.74279 -1.22344,1.45064 -1.22344,1.45064z" fill="#000000" stroke="none" stroke-width="0" stroke-linecap="butt"/><g><g><path d="M224.99155,249.6351c0,0 -9.05908,-1.24891 -13.70782,-2.0072c-5.39095,-0.87935 -13.33398,-3.79254 -13.33398,-3.79254c0,0 0.83591,-0.66627 3.59208,-1.32528c2.09629,-0.50122 6.54,-1.14011 9.11279,-1.70423c1.57454,-0.34525 1.78922,-1.49537 3.03914,-2.76782c1.57551,-1.60392 4.97165,-3.50221 9.2344,-4.42548c1.71853,-0.37222 3.1396,-0.339 4.83931,-0.13557c1.85135,0.22157 3.57195,0.50425 5.24435,1.3677c3.5934,1.85524 4.98601,4.9803 6.01156,6.80641c0.8463,1.50695 1.68642,2.02775 3.11196,2.70859c2.32933,1.1125 5.82446,2.79029 7.71048,3.73701c2.47973,1.24471 2.16873,1.86892 2.16873,1.86892c0,0 -7.19191,1.1093 -12.66181,0.77369c-4.71683,-0.2894 -13.61923,-0.98897 -13.61923,-0.98897z" fill="#eced68" stroke="none" stroke-width="0" stroke-linecap="round"/><path d="M224.99155,249.6351c0,0 -8.91385,-1.19497 -13.5626,-1.95325c-5.39095,-0.87935 -12.72777,-4.086 -12.72777,-4.086c0,0 0.66532,-0.21097 3.42148,-0.86997c1.22588,-0.2931 3.05586,-0.70708 4.8787,-1.11314c1.29429,-0.28832 3.65324,-0.80688 3.65324,-0.80688c0,0 -1.14556,3.14636 3.81526,4.86719c2.56426,0.8895 9.8198,2.2003 15.85253,3.36683c5.48273,1.06018 9.99784,1.43144 9.99784,1.43144l-14.58676,-0.72098z" fill="#8f8621" stroke="none" stroke-width="0" stroke-linecap="round"/><path d="M234.33061,244.8735c-0.04927,0.28285 -3.76099,0.80315 -7.6892,0.55191c-0.58297,-0.03728 -1.17071,-0.09157 -1.75196,-0.16614c-2.47656,-0.31772 -7.39264,-1.35564 -10.08051,-2.27265c-2.92591,-0.99823 -3.52444,-1.86712 -3.52444,-1.86712l3.95389,-3.97177c0,0 -0.93905,3.55752 2.66155,5.2839c4.52713,2.17061 16.49282,2.08504 16.43067,2.44186z" fill="#8f8621" stroke="none" stroke-width="0" stroke-linecap="butt"/><path d="M238.8985,243.62569c0,0 -0.43135,2.12181 -11.32421,1.64734c-8.69357,-0.37867 -14.94311,-3.20325 -14.94311,-3.20325" fill="none" stroke="#524d14" stroke-width="0.75" stroke-linecap="round"/><path d="M224.99155,249.6351c0,0 -9.1414,-0.96678 -13.48296,-1.93128c-4.71877,-1.04831 -13.79241,-4.12811 -13.79241,-4.12811c0,0 4.01527,-1.31151 6.33053,-1.77954c2.15629,-0.43589 7.11807,-0.93909 7.11807,-0.93909c0,0 5.91838,-8.83993 16.60268,-7.38008c6.33771,0.86594 9.13732,3.13973 11.85705,7.9825c0.8463,1.50695 2.51081,2.9002 2.51081,2.9002c0,0 5.2307,2.27543 7.10113,3.27957c1.65792,0.89005 3.56099,2.44433 3.56099,2.44433c0,0 -9.94958,0.5997 -14.77408,0.5403c-4.06669,-0.05007 -12.28987,-0.87355 -12.28987,-0.87355z" fill="none" stroke="#000000" stroke-width="1.5" stroke-linecap="round"/></g><path d="M226.99247,233.22913c0,0 0.40527,-1.07234 0.42134,-1.89694c0.02116,-1.08577 -0.19655,-3.64166 -0.19655,-3.64166l2.14847,0.36419c0,0 -0.40859,2.16179 -0.67121,3.16381c-0.22995,0.87737 -0.3626,2.40511 -0.3626,2.40511z" fill="#000000" stroke="#000000" stroke-width="1.5" stroke-linecap="butt"/></g><path d="M247.82643,221.85093c-0.2796,0.16221 -0.18953,0.3902 0.00215,0.59346c-0.01772,-0.05242 -0.01686,-0.11822 0.02955,-0.19561c0.12766,-0.21287 0.34468,-0.08765 0.34468,-0.08765c0.02172,0.01317 0.04302,0.0262 0.06385,0.03908c-0.01181,-0.18963 -0.24351,-0.46342 -0.44023,-0.34928zM242.96979,219.75123c-2.57005,-1.66147 -4.27358,-3.58017 -4.27358,-3.58017c0,0 10.05115,5.6193 10.07087,6.10248l-0.01791,0.25824c0.91174,0.72084 -2.86505,-0.89649 -5.77939,-2.78054zM248.24552,222.75707c-0.00086,-0.00273 -0.00166,-0.00547 -0.00243,-0.00824c-0.05265,-0.0298 -0.1144,-0.06404 -0.1862,-0.10303c0.06715,0.051 0.13493,0.0972 0.19666,0.13632c-0.00317,-0.0085 -0.00583,-0.01689 -0.00804,-0.02504z" fill="#888139" stroke="none" stroke-width="0.5" stroke-linecap="butt"/><path d="M247.82643,221.85093c-0.2796,0.16221 -0.18953,0.3902 0.00215,0.59346c-0.01772,-0.05242 -0.01686,-0.11822 0.02955,-0.19561c0.12766,-0.21287 0.34468,-0.08765 0.34468,-0.08765c0.02172,0.01317 0.04302,0.0262 0.06385,0.03908c-0.01181,-0.18963 -0.24351,-0.46342 -0.44023,-0.34928zM242.96979,219.75123c-2.57005,-1.66147 -4.27358,-3.58017 -4.27358,-3.58017c0,0 10.05115,5.6193 10.07087,6.10248l-0.01791,0.25824c0.91174,0.72084 -2.86505,-0.89649 -5.77939,-2.78054zM248.24552,222.75707c-0.00086,-0.00273 -0.00166,-0.00547 -0.00243,-0.00824c-0.05265,-0.0298 -0.1144,-0.06404 -0.1862,-0.10303c0.06715,0.051 0.13493,0.0972 0.19666,0.13632c-0.00317,-0.0085 -0.00583,-0.01689 -0.00804,-0.02504z" fill="#888139" stroke="none" stroke-width="0.5" stroke-linecap="butt"/><path d="M247.82643,221.85093c-0.2796,0.16221 -0.18953,0.3902 0.00215,0.59346c-0.01772,-0.05242 -0.01686,-0.11822 0.02955,-0.19561c0.12766,-0.21287 0.34468,-0.08765 0.34468,-0.08765c0.02172,0.01317 0.04302,0.0262 0.06385,0.03908c-0.01181,-0.18963 -0.24351,-0.46342 -0.44023,-0.34928zM242.96979,219.75123c-2.57005,-1.66147 -4.27358,-3.58017 -4.27358,-3.58017c0,0 10.05115,5.6193 10.07087,6.10248l-0.01791,0.25824c0.91174,0.72084 -2.86505,-0.89649 -5.77939,-2.78054zM248.24552,222.75707c-0.00086,-0.00273 -0.00166,-0.00547 -0.00243,-0.00824c-0.05265,-0.0298 -0.1144,-0.06404 -0.1862,-0.10303c0.06715,0.051 0.13493,0.0972 0.19666,0.13632c-0.00317,-0.0085 -0.00583,-0.01689 -0.00804,-0.02504z" fill="#888139" stroke="none" stroke-width="0.5" stroke-linecap="butt"/><path d="M247.17056,228.78283c-0.38827,-0.18972 -0.51037,-0.09213 -0.52159,0.07886c0.0307,-0.02018 0.0895,-0.0281 0.19845,-0.00318c0.29971,0.06855 0.37958,0.2485 0.37958,0.2485c0.00743,0.0181 0.01461,0.03584 0.02152,0.05323c0.15692,-0.03359 0.19522,-0.24392 -0.07796,-0.37741zM244.76378,224.84753c-0.78819,-2.15413 -0.58961,-3.68832 -0.58961,-3.68832c0,0 3.85742,8.31015 3.44851,8.38791l-0.24348,0.0201c0.16369,0.78129 -1.72165,-2.277 -2.61543,-4.71969zM246.73879,229.21677c0.00165,-0.001 0.00337,-0.00196 0.00514,-0.00289c-0.01989,-0.04358 -0.04384,-0.0946 -0.0724,-0.1538c0.0139,0.05727 0.03259,0.11438 0.05222,0.16603c0.00471,-0.0035 0.00978,-0.0066 0.01504,-0.00933z" fill="#888139" stroke="none" stroke-width="0.5" stroke-linecap="butt"/><path d="M227.40213,275.20363c0.21798,-0.15778 0.46961,-0.30355 0.75322,-0.43268c0.39415,-0.17945 1.46907,-0.19036 1.91352,0.2426c0.32199,0.31366 -0.09141,1.11446 0.61114,1.03041c1.05812,-0.12659 1.78434,-1.07569 3.04863,-1.49158c0.2071,-0.06812 1.75638,-0.00546 2.20131,-0.05222c0.92617,-0.09733 2.30594,-1.33544 4.11023,-1.59245c1.80429,-0.257 4.13376,0.37183 4.53098,0.36158" fill="none" stroke="#000000" stroke-width="1.5" stroke-linecap="butt"/><path d="M317.50453,163.35504c0,0 2.64164,-0.84407 4.38498,-0.65603c0.76038,0.08201 1.90602,0.48739 3.14314,0.54841c1.49495,0.07373 3.12351,-0.18218 4.36741,0.13475c1.21354,0.30921 2.06096,1.47818 2.06096,1.47818" fill="none" stroke="#000000" stroke-width="1.5" stroke-linecap="round"/><g stroke="none" stroke-linecap="butt"><path d="M350.07893,236.21617c0.24183,-1.24683 0.46244,-2.60131 0.61713,-3.98528c1.07997,-9.66226 1.45024,-23.61072 1.12809,-32.58376c-0.51621,-14.37837 -7.46514,-45.55653 -7.46514,-45.55653l5.5482,-0.88137c0,0 -0.36699,6.20747 0.40879,14.56646c0.93563,10.0814 3.05577,23.20869 3.2201,31.25254c0.20951,10.25642 -0.25036,27.89299 -0.5237,36.94724z" fill="#000000" stroke-width="0"/><path d="M348.38068,232.05868c0.05454,-0.21911 0.28847,-0.17812 0.28847,-0.17812c0.32731,0.08058 0.64058,0.36681 0.72872,0.68409c0.00538,0.01936 0.00835,0.04126 0.00932,0.06516c0.09921,0.17838 0.12418,0.39605 0.04987,0.65346c0.41259,-0.13292 0.99233,0.34909 0.92727,0.74234c-0.05786,0.34967 -1.22962,0.73972 -0.88711,0.62004c0.75153,-0.26261 1.0327,0.28321 1.00417,0.80956c0.25732,-0.08112 0.6072,-0.06915 0.64081,-0.47643c0.06378,-0.77279 0.16352,-2.90467 0.84076,-5.68378c0.90864,-3.72858 1.97617,-10.10514 1.97617,-10.10514c0,0 0.50897,11.69741 0.96148,12.74144c0.87839,2.02655 0.17933,3.44859 -1.64307,4.51038c-2.99335,1.97189 -5.46632,2.2865 -7.75337,-0.86067c-1.85114,-2.60001 1.1172,-3.80906 2.85651,-3.52235z" fill="#81782d" stroke-width="0.5"/><path d="M351.79427,208.10691c-0.27791,-0.16316 -0.44008,0.02141 -0.53204,0.28139c0.0387,-0.03987 0.09821,-0.07013 0.18966,-0.06682c0.25156,0.00911 0.24171,0.25404 0.24171,0.25404c-0.00156,0.02483 -0.00319,0.0492 -0.00491,0.07312c0.16475,-0.09945 0.3011,-0.42694 0.10557,-0.54174zM351.38393,202.95656c0.27717,-2.98474 1.19512,-5.34816 1.19512,-5.34816c0,0 -0.29491,11.25908 -0.71957,11.50358l-0.24041,0.1063c-0.21638,1.12075 -0.54943,-2.87714 -0.23513,-6.26172zM351.17853,208.89284c0.00204,-0.00203 0.00413,-0.00401 0.00625,-0.00596c0.00187,-0.05915 0.00342,-0.1282 0.00451,-0.20806c-0.01407,0.08157 -0.02351,0.16141 -0.02946,0.23271c0.00613,-0.00673 0.01242,-0.01295 0.0187,-0.01869z" fill="#81782d" stroke-width="0.5"/></g><path d="M342.38025,231.50529c0.31096,-0.071 0.63762,-0.10884 0.97455,-0.10884c0.46823,0 1.32017,0.58029 1.28382,1.35076c-0.02635,0.55817 -1.06162,1.30109 -0.43649,1.58706c0.94154,0.43072 2.35368,-0.31932 3.71375,-0.1256c0.22279,0.03173 1.38105,0.96316 1.77122,1.15213c0.81216,0.39335 2.99311,-0.34632 4.63516,0.33824c1.64205,0.68456 2.90867,2.73341 3.22901,2.9403" fill="none" stroke="#000000" stroke-width="1.5" stroke-linecap="butt"/><g stroke-linecap="round"><path d="M338.16252,167.70837c0,0 -17.35402,1.55276 -25.70613,2.00598c-9.68558,0.52557 -28.80061,0.9503 -28.80061,0.9503c0,0 7.65017,-3.35732 12.16421,-5.17843c3.43329,-1.38509 9.78708,-3.84091 14.02094,-5.46938c2.59109,-0.99661 4.13158,-1.75716 5.79418,-3.9464c2.09573,-2.75956 6.40129,-7.33107 13.42069,-10.01326c2.82987,-1.08132 4.5094,-1.61153 7.53402,-1.88064c3.29445,-0.29309 5.20262,-0.01634 8.44057,0.64773c6.95723,1.42687 11.78762,4.90756 14.28526,7.13052c2.06112,1.83444 3.72205,2.28995 6.46027,2.77878c4.47427,0.79875 11.19118,2.00916 14.83206,2.7202c4.787,0.93487 12.95294,2.7852 12.95294,2.7852c0,0 -18.84098,3.19182 -28.4486,4.50454c-8.28487,1.13198 -25.61912,2.88442 -25.61912,2.88442z" fill="#faefbe" stroke="none" stroke-width="0"/><path d="M338.16252,167.70837c0,0 -17.35402,1.55276 -25.70613,2.00598c-9.68558,0.52557 -28.80061,0.9503 -28.80061,0.9503c0,0 7.65017,-3.35732 12.16421,-5.17843c3.43329,-1.38509 9.78708,-3.84091 14.02094,-5.46938c2.59109,-0.99661 4.13158,-1.75716 5.79418,-3.9464c2.09573,-2.75956 6.40129,-7.33107 13.42069,-10.01326c2.82987,-1.08132 4.5094,-1.61153 7.53402,-1.88064c3.29445,-0.29309 5.20262,-0.01634 8.44057,0.64773c6.95723,1.42687 11.78762,4.90756 14.28526,7.13052c2.06112,1.83444 3.72205,2.28995 6.46027,2.77878c4.47427,0.79875 11.19118,2.00916 14.83206,2.7202c4.787,0.93487 12.95294,2.7852 12.95294,2.7852c0,0 -18.84098,3.19182 -28.4486,4.50454c-8.28487,1.13198 -25.61912,2.88442 -25.61912,2.88442z" fill="none" stroke="#000000" stroke-width="1.5"/></g><path d="M334.70608,144.13548c0,0 -0.19571,-2.16621 -0.46837,-3.30574c-0.35903,-1.50045 -1.49886,-4.9159 -1.49886,-4.9159l2.49498,-0.43624c0,0 0.31113,3.14717 0.37468,4.63784c0.05564,1.30522 0.53356,3.93174 0.53356,3.93174z" fill="#000000" stroke="#000000" stroke-width="1.5" stroke-linecap="butt"/><path d="M348.07412,147.53865c5.88756,1.83839 9.05226,4.71816 8.93934,5.09612c-0.11292,0.37797 -3.32611,-2.03869 -9.21368,-3.87709c-5.88756,-1.83839 -9.61719,-2.2796 -9.50428,-2.65757c0.11292,-0.37797 3.89103,-0.39985 9.77861,1.43853z" fill="#faefbe" stroke="none" stroke-width="0" stroke-linecap="butt"/><path d="M380.18827,158.90687c0,0 -8.44012,0.16296 -13.1379,-1.15795c-4.69778,-1.3209 -8.12111,-2.57221 -8.01162,-2.94683c0.10949,-0.37461 3.14495,0.44551 7.84273,1.76641c4.69778,1.3209 13.30679,2.33837 13.30679,2.33837z" fill="#faefbe" stroke="none" stroke-width="0" stroke-linecap="butt"/><path d="M390.33581,261.18694c1.02895,-0.78932 2.11471,-1.6737 3.17031,-2.62257c7.3697,-6.62467 36.64429,-29.34817 36.64429,-29.34817l-12.81452,-24.17843l3.69281,-0.62085l11.35112,25.42569c0,0 -33.30517,26.35812 -39.64913,33.0384z" fill="#000000" stroke="none" stroke-width="0" stroke-linecap="butt"/><g><g><path d="M418.62553,209.4304c0,0 -10.69367,4.32901 -16.26356,6.41856c-6.45915,2.42317 -17.1105,4.17592 -17.1105,4.17592c0,0 0.43865,-1.27759 2.9635,-3.76211c1.92034,-1.88967 6.28819,-5.41944 8.68084,-7.6813c1.46428,-1.38425 0.89038,-2.81243 1.3526,-5.03313c0.58263,-2.79921 2.93192,-7.08117 6.90419,-10.81596c1.60143,-1.50568 3.16482,-2.36757 5.14955,-3.21453c2.1618,-0.92252 4.22475,-1.69363 6.64275,-1.78168c5.19545,-0.18917 8.89632,2.44111 11.28843,3.84405c1.97402,1.15776 3.24973,1.21135 5.27213,1.07433c3.30462,-0.22387 8.26913,-0.55025 10.97704,-0.67992c3.56034,-0.17049 3.66106,0.72769 3.66106,0.72769c0,0 -7.0163,5.79732 -13.1797,8.88142c-5.31485,2.65949 -15.45346,7.50664 -15.45346,7.50664z" fill="#eced68" stroke="none" stroke-width="0" stroke-linecap="round"/><path d="M418.62553,209.4304c0,0 -10.49846,4.29774 -16.06835,6.3873c-6.45915,2.42317 -16.65931,3.46257 -16.65931,3.46257c0,0 0.57309,-0.65805 3.09794,-3.14256c1.12298,-1.10504 2.81592,-2.72818 4.50667,-4.33791c1.20048,-1.14297 3.39333,-3.21832 3.39333,-3.21832c0,0 0.96505,4.26028 7.54818,3.05481c3.40285,-0.62311 12.18532,-3.74134 19.54142,-6.24793c6.68545,-2.27806 11.83907,-4.71793 11.83907,-4.71793l-16.31411,8.41998z" fill="#8f8621" stroke="none" stroke-width="0" stroke-linecap="round"/><path d="M425.40744,198.17055c0.14497,0.34901 -3.51273,3.2823 -7.94615,5.48567c-0.65794,0.32699 -1.33299,0.63791 -2.01521,0.92191c-2.9068,1.21008 -8.96251,3.1546 -12.5186,3.82502c-3.87101,0.72978 -5.12905,0.13219 -5.12905,0.13219l1.49962,-6.96478c0,0 1.47719,4.59162 6.59009,4.25309c6.42857,-0.42565 19.33643,-8.09337 19.51929,-7.65311z" fill="#8f8621" stroke="none" stroke-width="0" stroke-linecap="butt"/><path d="M429.48282,193.87802c0,0 1.02056,2.65712 -11.11736,9.01669c-9.68724,5.07556 -18.44111,5.85627 -18.44111,5.85627" fill="none" stroke="#524d14" stroke-width="0.75" stroke-linecap="round"/><path d="M418.62553,209.4304c0,0 -10.58503,4.69813 -15.96662,6.36157c-5.84916,1.80799 -17.84266,4.08891 -17.84266,4.08891c0,0 3.4318,-4.01443 5.61273,-6.00535c2.0312,-1.85423 7.05565,-5.55934 7.05565,-5.55934c0,0 0.21459,-13.67796 12.81752,-18.79835c7.4758,-3.03731 12.1045,-2.2539 18.4483,1.46669c1.97402,1.15776 4.75501,1.67002 4.75501,1.67002c0,0 7.26458,-0.75307 9.99587,-0.80834c2.42097,-0.049 5.57347,0.49327 5.57347,0.49327c0,0 -10.36232,6.96968 -15.63257,9.95576c-4.44242,2.51703 -13.93183,6.79515 -13.93183,6.79515z" fill="none" stroke="#000000" stroke-width="1.5" stroke-linecap="round"/></g><path d="M409.28845,189.72977c0,0 -0.31283,-1.46138 -0.87371,-2.39811c-0.73852,-1.23342 -2.76692,-3.96757 -2.76692,-3.96757l2.58382,-0.95029c0,0 1.07327,2.68764 1.49137,3.97974c0.3661,1.13136 1.29376,2.93194 1.29376,2.93194z" fill="#000000" stroke="#000000" stroke-width="1.5" stroke-linecap="butt"/></g><g><path d="M341.80126,166.41741c0,0 -17.33098,1.78313 -25.67608,2.34724c-9.67744,0.65417 -28.78485,1.33278 -28.78485,1.33278c0,0 7.60312,-3.45863 12.09159,-5.33952c1.99637,-0.83657 4.98631,-2.05253 7.96718,-3.25496c2.11652,-0.85376 5.97697,-2.40016 5.97697,-2.40016c0,0 -0.67574,4.7888 8.60718,5.45855c4.79838,0.3462 17.87572,-0.35666 28.78084,-0.83412c9.91091,-0.43395 17.94357,-0.63234 17.94357,-0.63234l-25.57694,3.22446z" fill="#8f8621" stroke="none" stroke-width="0" stroke-linecap="round"/><path d="M355.96271,156.51674c0.03204,0.41177 -6.16467,2.43256 -13.05496,3.45259c-1.02257,0.15138 -2.06042,0.28073 -3.09544,0.37949c-7.78592,0.74298 -18.06053,0.14389 -21.61466,0.4099c-2.91975,0.21854 -2.22943,-0.80561 -1.49492,-2.1873c1.57619,-2.96494 7.49327,-7.88596 7.49327,-7.88596c0,0 -4.56512,7.00536 2.37024,8.15741c8.72001,1.44849 29.35603,-2.84559 29.39646,-2.32614z" fill="#8f8621" stroke="none" stroke-width="0" stroke-linecap="butt"/><path d="M355.49516,157.37557c0,0 -2.90177,1.17271 -8.65769,2.33943c-7.63524,1.54766 -12.10667,1.71446 -19.90104,1.53194" fill="none" stroke="#524d14" stroke-width="0.75" stroke-linecap="round"/></g><g stroke-linecap="butt"><path d="M352.75214,153.95401c0.10185,-2.66791 2.45664,-4.8442 5.41526,-4.85635c2.95862,-0.01214 5.1692,2.14308 5.18059,4.81285c0.01139,2.66976 -2.14081,4.9589 -5.3752,5.01083c-3.07649,0.0494 -5.32705,-2.18109 -5.22067,-4.96733z" fill="#ffffff" stroke="#000000" stroke-width="1.4"/><path d="M353.09734,155.57074c-0.00657,-1.53801 1.25928,-2.79003 2.82736,-2.79647c1.56807,-0.00644 2.84457,1.23516 2.85113,2.77317c0.00657,1.53801 -1.25928,2.79003 -2.82734,2.79647c-1.56807,0.00644 -2.84457,-1.23516 -2.85113,-2.77317z" fill="#000000" stroke="none" stroke-width="1.5"/></g><g stroke-linecap="butt"><path d="M311.11141,158.16982c0.02807,-2.66963 2.67106,-4.88742 5.66057,-4.85721c2.98952,0.03024 5.03228,2.29771 5.00422,4.96735c-0.02807,2.66963 -2.27368,4.80847 -5.2632,4.77825c-2.98952,-0.03024 -5.42966,-2.21875 -5.40159,-4.8884z" fill="#ffffff" stroke="#000000" stroke-width="1.4"/><path d="M316.40065,157.03859c0.01583,-1.50535 1.27283,-2.71307 2.80758,-2.69755c1.53476,0.01553 2.7661,1.24843 2.75028,2.75377c-0.01583,1.50535 -1.27283,2.71307 -2.80758,2.69755c-1.53476,-0.01553 -2.7661,-1.24843 -2.75028,-2.75377z" fill="#000000" stroke="none" stroke-width="1.5"/></g><g fill="#81782d" stroke="none" stroke-width="0.5" stroke-linecap="butt"><path d="M393.63641,257.8096c0.17289,-0.15099 0.34105,0.01395 0.34105,0.01395c0.22168,0.25002 0.31159,0.66256 0.19846,0.97476c-0.0069,0.01906 -0.01726,0.03886 -0.03046,0.05919c-0.02281,0.20333 -0.12958,0.39764 -0.34111,0.5693c0.41653,0.12088 0.61082,0.84483 0.32746,1.13419c-0.25195,0.25729 -1.44229,-0.07564 -1.09104,0.01698c0.77071,0.20322 0.68248,0.81285 0.3513,1.23294c0.25875,0.07687 0.53909,0.28269 0.80481,-0.0359c0.5042,-0.6045 1.83256,-2.31486 4.0136,-4.23805c2.92619,-2.58024 7.53106,-7.26527 7.53106,-7.26527c0,0 -6.4212,9.97585 -6.65999,11.09416c-0.46352,2.17074 -1.86903,2.95745 -3.98641,2.8167c-3.61108,-0.04235 -5.82587,-1.16634 -5.86397,-5.0542c-0.00002,-3.19047 3.14452,-2.53014 4.40522,-1.31875z"/><path d="M431.36339,219.62748c-0.32472,0.00906 -0.35852,0.25129 -0.29122,0.5202c0.01038,-0.05427 0.04364,-0.11143 0.12246,-0.15708c0.21681,-0.12558 0.34484,0.08709 0.34484,0.08709c0.0125,0.02184 0.02469,0.04336 0.03655,0.06453c0.08333,-0.17151 0.01584,-0.52111 -0.21263,-0.51474zM428.15169,215.483c-1.42778,-2.67464 -1.97044,-5.16258 -1.97044,-5.16258c0,0 6.01774,9.69165 5.79637,10.12371l-0.1432,0.2174c0.44159,1.06382 -2.06367,-2.14557 -3.68271,-5.17853zM431.2825,220.61932c0.00059,-0.00279 0.00125,-0.00558 0.00194,-0.00836c-0.03134,-0.05109 -0.06846,-0.11039 -0.112,-0.17861c0.03356,0.07653 0.07004,0.14915 0.10472,0.2127c0.00141,-0.00894 0.00324,-0.01754 0.00534,-0.02573z"/><path d="M415.23109,240.29235c-0.03419,-0.31685 -0.28303,-0.33126 -0.5512,-0.24476c0.05597,0.00599 0.11663,0.03409 0.1691,0.10767c0.14433,0.20237 -0.06199,0.34392 -0.06199,0.34392c-0.02125,0.01391 -0.04217,0.02748 -0.06278,0.04072c0.18076,0.06829 0.53093,-0.02461 0.50687,-0.24755zM419.19689,236.83263c2.60896,-1.60208 5.09625,-2.32421 5.09625,-2.32421c0,0 -9.38868,6.63067 -9.84493,6.44742l-0.23201,-0.12331c-1.04742,0.51371 2.02222,-2.18322 4.98069,-3.99991zM414.21663,240.28957c0.00288,0.00038 0.00577,0.00079 0.00865,0.00125c0.04952,-0.03459 0.10694,-0.07543 0.17293,-0.12327c-0.07522,0.0387 -0.14622,0.07997 -0.20815,0.11877c0.00921,0.00069 0.0181,0.00182 0.02658,0.00324z"/></g><path d="M391.6308,257.87341c0.37703,-0.09811 0.77308,-0.15039 1.18158,-0.15039c0.56771,0 1.60063,0.8019 1.55655,1.86661c-0.03194,0.77134 -1.28715,1.79795 -0.52922,2.19315c1.14156,0.5952 2.8537,-0.44126 4.50271,-0.17357c0.27012,0.04385 1.67445,1.33099 2.14748,1.59212c0.9847,0.54356 3.62897,-0.47856 5.61986,0.46743c1.99089,0.94599 3.52659,3.77727 3.91499,4.06317" fill="none" stroke="#000000" stroke-width="1.5" stroke-linecap="butt"/></g></g></svg>