<svg version="1.1" xmlns="http://www.w3.org/2000/svg" xmlns:xlink="http://www.w3.org/1999/xlink" width="36.79812" height="36.7981" viewBox="0,0,36.79812,36.7981"><g transform="translate(-302.91346,-162.9135)"><g stroke-linecap="round" stroke-miterlimit="10"><path d="M311.51759,163.9135h20.83988c4.07419,0 7.35411,3.303 7.35411,7.40583v20.98644c0,4.10283 -3.27992,7.40583 -7.35411,7.40583h-20.83988c-4.07418,0 -7.35411,-3.303 -7.35411,-7.40583v-20.98644c0,-4.10283 3.27993,-7.40583 7.35411,-7.40583z" fill-opacity="0.39216" fill="#000000" fill-rule="evenodd" stroke="none" stroke-width="0" stroke-linejoin="round"/><path d="M309.98312,162.9135h20.03379c3.9166,0 7.06966,3.15307 7.06966,7.06966v20.03379c0,3.91659 -3.15306,7.06966 -7.06966,7.06966h-20.03379c-3.91659,0 -7.06966,-3.15307 -7.06966,-7.06966v-20.03379c0,-3.91659 3.15307,-7.06966 7.06966,-7.06966z" fill="#a0a300" fill-rule="evenodd" stroke="none" stroke-width="0" stroke-linejoin="round"/><g fill-rule="nonzero" stroke="#000000" stroke-width="1" stroke-linejoin="miter"><path d="M315.44721,180.24467c0,0 1.01448,-3.36911 2.40528,-6.36034c1.05856,-2.27667 2.45769,-4.05361 3.29813,-5.13188c2.45174,-3.14557 7.94076,-3.09749 7.94076,-3.09749l0.01073,6.29162c0,0 -2.15693,0.03592 -3.35996,0.83122c-1.00944,0.66733 -2.44817,3.13571 -2.44817,3.13571l3.33306,-0.08611l-0.08103,6.14633l-5.60121,0.11152c0,0 -1.89378,5.60415 -4.52396,7.62195c-4.17128,3.20009 -7.52297,2.80415 -7.52297,2.80415l0.12923,-6.48829c0,0 2.52423,-0.05244 3.60367,-1.00092c1.07582,-0.94529 2.81642,-4.77746 2.81642,-4.77746z" fill="#000000"/><path d="M316.39905,181.15327c0,0 1.01448,-3.36911 2.40528,-6.36034c1.05856,-2.27667 2.45769,-4.05361 3.29813,-5.13188c2.45174,-3.14557 7.94076,-3.09749 7.94076,-3.09749l0.01073,6.29162c0,0 -2.15693,0.03592 -3.35996,0.83122c-1.00944,0.66733 -2.44817,3.13571 -2.44817,3.13571l3.33306,-0.08611l-0.08103,6.14633l-5.60121,0.11152c0,0 -1.89378,5.60415 -4.52396,7.62195c-4.17128,3.20008 -7.52297,2.80414 -7.52297,2.80414l0.12924,-6.48828c0,0 2.52422,-0.05244 3.60367,-1.00092c1.07581,-0.94528 2.81641,-4.77746 2.81641,-4.77746z" fill="#d9db56"/></g></g></g></svg>