<svg version="1.1" xmlns="http://www.w3.org/2000/svg" xmlns:xlink="http://www.w3.org/1999/xlink" width="159.50184" height="294.66479" viewBox="0,0,159.50184,294.66479"><defs><linearGradient x1="320.88113" y1="148.41386" x2="320.88113" y2="305.53022" gradientUnits="userSpaceOnUse" id="color-1"><stop offset="0" stop-color="#a7a74a"/><stop offset="1" stop-color="#6e6e30"/></linearGradient><linearGradient x1="291.90094" y1="151" x2="291.90094" y2="306.00001" gradientUnits="userSpaceOnUse" id="color-2"><stop offset="0" stop-color="#a7a74a"/><stop offset="1" stop-color="#6e6e30"/></linearGradient><linearGradient x1="348.56761" y1="151" x2="348.56761" y2="306.00001" gradientUnits="userSpaceOnUse" id="color-3"><stop offset="0" stop-color="#a7a74a"/><stop offset="1" stop-color="#6e6e30"/></linearGradient><linearGradient x1="338.75534" y1="36.59313" x2="328.01643" y2="71.11108" gradientUnits="userSpaceOnUse" id="color-4"><stop offset="0" stop-color="#ecec68"/><stop offset="1" stop-color="#292912"/></linearGradient></defs><g transform="translate(-236.79718,-13.65615)"><g stroke-miterlimit="10"><path d="M257.423,308.32095v-276.03657h125.154v276.03657z" fill-opacity="0.01" fill="#000000" stroke="none" stroke-width="2" stroke-linecap="butt"/><g><g stroke-linecap="butt"><path d="M281.03039,304.39159c0,0 -0.63536,-94.38387 -0.79335,-118.01201c-0.05451,-8.15261 8.18688,-36.76129 40.20201,-36.9211c31.60235,-0.15775 39.85672,29.48704 39.84884,36.89673c-0.07659,46.24274 0.65429,117.98648 0.65429,117.98648l-10.49667,0.09614l-0.15882,-114.84311c0,0 0.07549,-3.0993 -2.81625,-3.15415c-3.43441,-0.06514 -2.94538,3.11562 -2.94538,3.11562l0.20548,114.86995l-48.21366,0.07222l-0.30539,-115.23309c0,0 0.27949,-2.919 -2.8856,-2.93443c-3.11083,-0.01515 -2.81569,2.90899 -2.81569,2.90899l0.35311,115.0668z" fill="#ffffff" stroke="#000000" stroke-width="2"/><path d="M295.375,305.53022c0,0 -0.21428,-92.04506 -0.21428,-117.60165c0,-12.35964 0.21428,-27.50549 0.21428,-27.50549c0,0 1.252,-11.53727 25,-12c7.148,-0.13928 12.23499,1.3227 16.07232,2.77392c6.40936,2.42393 9.05701,5.50624 9.98197,6.08905c0.54627,0.3442 -0.38121,3.73318 -0.38121,3.73318l-0.35164,144.43956z" fill="url(#color-1)" stroke="none" stroke-width="0"/><path d="M278.375,306.00001l0.5,-112c0,0 -0.66791,-7.16557 1.14714,-14.15652c1.77174,-6.82413 6.00366,-13.44651 7.90597,-15.93509c2.17771,-2.84886 4.89186,-5.68 7.52774,-7.65308c4.82842,-3.61428 9.39422,-5.25531 9.91915,-5.25531c0.72964,0 -6.47917,31.6229 -6.41261,35.74455c0.03262,2.01985 -3.12651,1.24994 -5.32364,1.42651c-1.14261,0.09182 -2.02505,0.43961 -2.06313,1.56884c-0.17863,5.29703 -0.02204,5.54581 -0.02204,5.54581l0.57143,110.71428z" fill="url(#color-2)" stroke="none" stroke-width="0"/><path d="M348.34355,306.00001l0.57143,-110.71428c0,0 0.15659,-0.24878 -0.02204,-5.54581c-0.03808,-1.12923 -0.92053,-1.47702 -2.06314,-1.56884c-2.19714,-0.17657 -5.35627,0.59333 -5.32364,-1.42651c0.06657,-4.12165 -7.14225,-35.74455 -6.41261,-35.74455c0.52493,0 5.09074,1.64103 9.91915,5.25531c2.63588,1.97307 5.35003,4.80421 7.52774,7.65308c1.90231,2.48859 6.13423,9.11096 7.90597,15.93509c1.81505,6.99095 1.14714,14.15652 1.14714,14.15652l0.5,112z" fill="url(#color-3)" stroke="none" stroke-width="0"/></g><path d="M320.125,305.50001v-107h1.75v107z" fill="#44441e" stroke="none" stroke-width="0" stroke-linecap="butt"/><g stroke="none" stroke-linecap="butt"><path d="M301.34101,152.02915c0,0 8.5047,-3.64025 19.88119,-3.64025c9.59591,0 18.14159,3.64025 18.14159,3.64025l-18.39011,48.75336z" fill="#c5c556" stroke-width="NaN"/><path d="M289.47222,162.07997c0,0 5.22696,-5.92653 7.06513,-7.1191c1.80649,-1.17201 5.74551,-3.2257 5.74551,-3.2257l18.49548,48.87696l-20.6795,-27.59399l0.53565,-11.11972z" fill="#808038" stroke-width="0"/></g><path d="M316.9375,254.75001c0,1.44975 -0.86745,2.625 -1.9375,2.625c-1.07005,0 -1.9375,-1.17525 -1.9375,-2.625c0,-1.44975 0.86745,-2.625 1.9375,-2.625c1.07005,0 1.9375,1.17525 1.9375,2.625z" fill="#d7d75f" stroke="none" stroke-width="0" stroke-linecap="butt"/><path d="M316.9375,271.75001c0,1.44975 -0.86745,2.625 -1.9375,2.625c-1.07005,0 -1.9375,-1.17525 -1.9375,-2.625c0,-1.44975 0.86745,-2.625 1.9375,-2.625c1.07005,0 1.9375,1.17525 1.9375,2.625z" fill="#d7d75f" stroke="none" stroke-width="0" stroke-linecap="butt"/><path d="M316.9375,238.75001c0,1.44975 -0.86745,2.625 -1.9375,2.625c-1.07005,0 -1.9375,-1.17525 -1.9375,-2.625c0,-1.44975 0.86745,-2.625 1.9375,-2.625c1.07005,0 1.9375,1.17525 1.9375,2.625z" fill="#d7d75f" stroke="none" stroke-width="0" stroke-linecap="butt"/><path d="M341.11609,162.27344l0.53565,11.11972l-20.6795,27.59399l18.49548,-48.87696c0,0 3.93903,2.05369 5.74551,3.2257c1.83817,1.19257 6.56513,7.6191 6.56513,7.6191z" fill="#808038" stroke="none" stroke-width="0" stroke-linecap="butt"/><path d="M374.05014,114.04144l-15.74863,0.67157l-12.7444,-3.48896l-0.57839,-12.33903l13.77285,10.4038l13.16114,-0.7164l10.27588,-2.55389l2.69917,3.27756z" fill="#000000" stroke="none" stroke-width="0" stroke-linecap="butt"/><g stroke-linecap="butt"><g stroke="#1d1d0d" stroke-width="1.5"><path d="M247.50683,92.63966l13.4848,-44.36895c0,0 1.8824,-1.21939 2.51079,-1.03673c0.74317,0.21601 1.66192,2.24961 1.66192,2.24961l-13.6776,44.36896z" fill="#60602a"/><path d="M278.93548,68.89512c0,0 -9.87808,-9.66757 -18.41951,-12.08668c-8.54143,-2.41911 -20.06509,1.18702 -20.06509,1.18702c0,0 11.98658,-9.46417 22.61381,-6.45431c10.62723,3.00986 15.87079,17.35397 15.87079,17.35397z" fill="#cccccc"/></g><path d="M253.62476,55.20502l0.27373,-2.97316c0,0 0.72736,-0.37404 1.17354,-0.41977c0.73024,-0.07484 1.62701,-0.23519 1.62701,-0.23519l0.59899,3.88188c0,0 -1.22557,-0.10119 -1.88149,-0.15606c-0.63952,-0.05349 -1.79178,-0.09771 -1.79178,-0.09771z" fill="#f1f1f1" stroke="none" stroke-width="0"/><path d="M258.57103,55.62672l0.10594,-3.90882c0,0 0.50782,-0.23848 0.76687,-0.29072c0.42397,-0.0855 0.83171,0.19646 0.83171,0.19646l0.45373,4.62231c0,0 -0.62167,-0.27882 -1.00248,-0.34151c-0.3713,-0.06112 -1.15577,-0.27773 -1.15577,-0.27773z" fill="#f1f1f1" stroke="none" stroke-width="0"/></g><g fill="#000000" stroke="none" stroke-width="0" stroke-linecap="butt"><path d="M252.12847,88.29608l2.69916,-3.27756l10.27588,2.55389l13.16114,0.7164l13.77285,-10.4038l-0.57839,12.33903l-12.7444,3.48896l-15.74863,-0.67157z"/><path d="M256.37001,83.18694c0,3.46057 -2.8485,6.26591 -6.36231,6.26591c-3.5138,0 -6.36231,-2.80534 -6.36231,-6.26591c0,-3.46057 2.84851,-6.26591 6.36231,-6.26591c3.5138,0 6.36231,2.80535 6.36231,6.26591z"/><path d="M258.15777,84.44014c0,1.49071 -1.26339,2.69916 -2.82185,2.69916c-1.55847,0 -2.82185,-1.20846 -2.82185,-2.69916c0,-1.49071 1.26338,-2.69916 2.82185,-2.69916c1.55847,0 2.82185,1.20846 2.82185,2.69916z"/></g><g stroke="#1d1d0d" stroke-width="1.5" stroke-linecap="butt"><path d="M327.14957,33.62957l4.18184,-13.30958l23.00344,7.26407l-4.18184,13.30959z" fill="#d0d05b"/><path d="M325.01329,70.3915l6.74123,-22.20195l-2.73937,-14.62671l19.42256,6.44128l-11.32883,9.96202l-6.98409,22.75929z" fill="url(#color-4)"/><path d="M325.43734,19.96883l21.47231,-5.47458l15.01553,16.50415z" fill="#bfbf54"/><path d="M347.4042,40.14945l-17.51065,-5.72488c0,0 5.99476,-5.16831 10.8302,-3.58742c4.83544,1.58088 6.68045,9.31231 6.68045,9.31231z" fill="#ffff70"/></g><path d="M338.60119,152.06548c0,0 3.59059,-1.42804 16.40253,15.05706c1.34209,1.72686 2.73819,4.02034 4.05238,7.01862c1.41225,3.22199 2.69896,7.3198 2.79509,14.25765c0.6401,46.19719 0.16667,117.41667 0.16667,117.41667l-13.5,-0.08333l0.5,-115.91667c0,0 0.36764,-1.30884 -1.83333,-1.41667c-1.5348,-0.07519 -1.16667,1.41667 -1.16667,1.41667l-0.41667,115.91667l-50.3869,0.125l-0.14286,-115c0,0 0.74754,-3.11699 -2.31131,-2.57014c-1.18037,0.21102 -1.19762,2.813 -1.19762,2.813l0.25,114.875l-13.1875,-0.025l0.4,-119.175c0,0 2.54948,-13.7379 8.55935,-21.74366c6.14271,-8.18271 14.35315,-12.93134 14.35315,-12.93134l3.5125,8.6l15.8,38.9l3.3,-9.1l14.9,-37.8c0,0 3.67342,1.50566 5.4234,3.04624c2.0895,1.83947 6.2766,7.25376 6.2766,7.25376l-9.9,-0.4l0.1,10.9l-20.5,27l-20.5,-27.7l0.2,-10.8l-10.1,-0.1" fill="none" stroke="#1c1c0c" stroke-width="1.5" stroke-linecap="round"/><g><g fill="#000000" stroke-width="1.5" stroke-linecap="butt"><path d="M275.9269,103.8801c0,0 6.16329,-5.92187 6.29161,-6.78761c0.33654,-2.27063 -0.16776,-40.17317 35.96775,-41.57382c44.63633,-0.91362 39.01489,35.34872 41.53088,42.1903c3.44981,9.38084 4.48998,14.73349 4.48998,14.73349c0,0 -1.10048,0.61316 -2.41303,-0.4673c-1.2242,-1.00773 -3.80143,-3.14585 -3.80143,-3.14585c0,0 3.09111,10.3481 1.31092,20.69498c-1.5623,9.48098 -7.29782,17.22543 -7.29782,17.22543l-1.15522,-2.34735c0,0 -1.02266,2.19794 -2.16005,3.33274c-1.1374,1.13479 -3.43873,2.91273 -3.43873,2.91273l-0.09205,-3.70421c0,0 -7.0601,11.01795 -24.35066,10.87154c-16.30625,-0.25547 -26.07151,-10.6752 -26.07151,-10.6752l-0.1162,2.65484c0,0 -3.89477,-3.29276 -6.18145,-9.70754c-2.72545,-7.64567 -3.23946,-12.24324 -3.23946,-12.24324c0,0 -2.33908,1.89916 -5.71704,2.7744c-4.23278,1.09673 -6.94665,0.34526 -6.94665,0.34526c0,0 3.60795,-2.71717 5.58396,-4.76989c1.76007,-1.8284 2.64658,-3.37722 2.64658,-3.37722c0,0 -2.10758,1.0847 -4.23277,1.61795c-2.21739,0.5564 -4.03008,0.53093 -4.03008,0.53093c0,0 4.97492,-5.03728 7.03074,-10.87429c1.94102,-5.51108 2.09972,-10.95731 2.09972,-10.95731c0,0 -1.36165,0.66163 -3.33013,0.79513c-1.24776,0.08463 -2.37785,-0.0489 -2.37785,-0.0489z" stroke="none"/><path d="M292.71279,115.20172c-0.57709,-7.29323 0.335,-17.15448 0.335,-17.15448c0,0 3.41059,-0.04124 13.91429,-3.14424c8.0696,-2.38394 20.54731,-9.48722 20.54731,-9.48722c0,0 -2.16005,3.00503 -3.40781,4.46015c-1.32651,1.54696 -3.99292,4.56297 -3.99292,4.56297c0,0 7.838,-1.66761 14.67476,-4.72931c8.56837,-3.53575 10.59252,-6.05309 12.95042,-4.5927c2.7829,1.72362 1.03006,23.1827 0.71846,28.74062c-0.42163,5.66922 -2.53327,9.49969 -3.15031,12.52053c-0.61704,3.02084 -0.4096,6.13662 -2.20622,16.0397c-1.12121,6.18021 -4.16183,8.92466 -10.01942,14.66081c-5.85759,5.73616 -9.05378,9.25275 -13.01359,9.32173c-3.81077,0.06639 -8.93565,-5.1002 -13.93542,-10.38244c-5.32393,-5.62474 -8.87489,-8.47713 -9.71551,-15.13975c-0.75707,-6.00039 -0.77653,-9.90853 -1.12266,-15.24835c-0.25298,-3.90273 -2.26119,-6.44504 -2.57636,-10.42801z" stroke="#000000"/></g><path d="M294.20984,121.37738c0,0 -3.56385,-2.92338 -4.31816,-8.45061c-0.42079,-3.08327 2.15675,-2.28016 2.15675,-2.28016" fill="none" stroke="#000000" stroke-width="0.25" stroke-linecap="round"/><path d="M349.05818,110.64661c0,0 2.57754,-0.80312 2.15675,2.28016c-0.75431,5.52723 -4.31816,8.45061 -4.31816,8.45061" fill="none" stroke="#000000" stroke-width="0.25" stroke-linecap="round"/><g stroke="none" stroke-width="0" stroke-linecap="butt"><g fill="#c2c255"><path d="M326.46889,90.56134c0,8.55017 -7.14274,15.48145 -15.95376,15.48145c-8.81102,0 -15.95376,-6.93128 -15.95376,-15.48145c0,-8.55017 7.14274,-15.48144 15.95376,-15.48144c8.81102,0 15.95376,6.93128 15.95376,15.48144zM310.35769,98.88439c4.65466,0 8.42801,-3.77335 8.42801,-8.42801c0,-4.65466 -3.77335,-8.42801 -8.42801,-8.42801c-4.65466,0 -8.42801,3.77335 -8.42801,8.42801c0,4.65466 3.77335,8.42801 8.42801,8.42801z"/><g><path d="M305.58206,79.908v-12.28019h9.86614v12.28019z"/><path d="M305.58206,113.3899v-12.28019h9.86614v12.28019z"/></g><g><path d="M321.09572,85.58495l12.2801,-0.05022l0.04035,9.86606l-12.28009,0.05023z"/><path d="M287.6141,85.72189l12.28009,-0.05022l0.04036,9.86606l-12.2801,0.05022z"/></g><g><path d="M321.28148,95.12192l8.23105,9.11334l-7.32183,6.61298l-8.23105,-9.11334z"/><path d="M298.83956,70.27442l8.23105,9.11334l-7.32183,6.61298l-8.23105,-9.11334z"/></g><g><path d="M307.07061,101.7349l-8.23105,9.11334l-7.32183,-6.61298l8.23105,-9.11334z"/><path d="M329.51254,76.88741l-8.23105,9.11334l-7.32183,-6.61298l8.23105,-9.11334z"/></g></g><g fill="#ecec68"><path d="M324.596,90.50885c0,8.55017 -7.14274,15.48144 -15.95376,15.48144c-8.81102,0 -15.95375,-6.93128 -15.95375,-15.48144c0,-8.55017 7.14273,-15.48145 15.95376,-15.48145c8.81102,0 15.95376,6.93128 15.95376,15.48145zM316.91282,90.4039c0,-4.65466 -3.77335,-8.42801 -8.42801,-8.42801c-2.35402,0 -4.48264,0.96509 -6.01175,2.5212c-1.55612,1.52912 -2.52122,3.65774 -2.52122,6.01176c0,4.65466 3.77335,8.42801 8.42801,8.42801c2.35404,0 4.48266,-0.96511 6.01178,-2.52124c1.55611,-1.52912 2.5212,-3.65771 2.5212,-6.01173z"/><g><path d="M303.70917,79.85552v-12.2802h9.86614v12.2802z"/><path d="M303.70917,113.33743v-12.2802h9.86614v12.2802z"/></g><g><path d="M319.22283,85.53247l12.2801,-0.05022l0.04035,9.86606l-12.28009,0.05022z"/><path d="M285.7412,85.66941l12.28009,-0.05022l0.04036,9.86606l-12.2801,0.05022z"/></g><g><path d="M319.4086,95.06944l8.23105,9.11335l-7.32183,6.61298l-8.23105,-9.11334z"/><path d="M296.96666,70.22195l8.23105,9.11334l-7.32183,6.61299l-8.23105,-9.11335z"/></g><g><path d="M305.19772,101.68242l-8.23105,9.11334l-7.32183,-6.61298l8.23105,-9.11335z"/><path d="M327.63964,76.83491l-8.23105,9.11335l-7.32183,-6.61299l8.23105,-9.11334z"/></g></g></g><g stroke="none" stroke-width="0" stroke-linecap="butt"><g><path d="M328.07838,133.55951c0,6.05393 -5.0574,10.96161 -11.29603,10.96161c-6.23863,0 -11.29603,-4.90768 -11.29603,-10.96161c0,-6.05393 5.0574,-10.96161 11.29603,-10.96161c6.23863,0 11.29603,4.90768 11.29603,10.96161zM316.67087,139.45263c3.29573,0 5.96744,-2.67171 5.96744,-5.96744c0,-3.29573 -2.67172,-5.96744 -5.96744,-5.96744c-3.29573,0 -5.96743,2.67172 -5.96743,5.96744c0,3.29573 2.67171,5.96744 5.96743,5.96744z" fill="#68682e"/><g fill="#68682e"><path d="M313.28949,126.01643v-8.69497h6.98571v8.69497z"/><path d="M313.28949,149.72323v-8.69497h6.98571v8.69497z"/></g><g><path d="M324.27391,130.03598l8.6949,-0.03556l0.02857,6.98565l-8.6949,0.03556z" fill="#68682e"/><path d="M300.5673,130.13295l8.6949,-0.03556l0.02857,6.98564l-8.6949,0.03557z" fill="#c2c255"/></g><g fill="#68682e"><path d="M324.40544,136.7886l5.82798,6.45269l-5.18421,4.68231l-5.82798,-6.45269z"/><path d="M308.51547,119.19539l5.82798,6.45269l-5.1842,4.68232l-5.82798,-6.4527z"/></g><g fill="#68682e"><path d="M314.34344,141.47093l-5.82798,6.45269l-5.1842,-4.68231l5.82798,-6.45269z"/><path d="M330.23341,123.8777l-5.82798,6.4527l-5.18421,-4.68232l5.82798,-6.45269z"/></g></g><g fill="#b1b14e"><path d="M326.75228,133.52235c0,6.05393 -5.0574,10.96161 -11.29603,10.96161c-6.23863,0 -11.29603,-4.90768 -11.29603,-10.96161c0,-6.05393 5.0574,-10.96161 11.29603,-10.96161c6.23863,0 11.29603,4.90768 11.29603,10.96161zM321.31221,133.44803c0,-3.29573 -2.67171,-5.96744 -5.96743,-5.96744c-1.66676,0 -3.17393,0.68333 -4.25662,1.78513c-1.10181,1.08268 -1.78514,2.58986 -1.78514,4.25662c0,3.29573 2.67172,5.96744 5.96744,5.96744c1.66677,0 3.17394,-0.68335 4.25663,-1.78516c1.1018,-1.08268 1.78513,-2.58983 1.78513,-4.25659z"/><g><path d="M311.96339,125.97928v-8.69498h6.98571v8.69498z"/><path d="M311.96339,149.68607v-8.69498h6.98571v8.69498z"/></g><g><path d="M322.94782,129.99883l8.6949,-0.03556l0.02857,6.98565l-8.6949,0.03556z"/><path d="M299.2412,130.09579l8.6949,-0.03556l0.02857,6.98565l-8.6949,0.03556z"/></g><g><path d="M323.07934,136.75146l5.82798,6.45269l-5.18421,4.68231l-5.82798,-6.45268z"/><path d="M307.18938,119.15824l5.82798,6.45269l-5.18421,4.68231l-5.82798,-6.45268z"/></g><g><path d="M313.01736,141.43378l-5.82798,6.45268l-5.18421,-4.68231l5.82798,-6.45269z"/><path d="M328.90733,123.84055l-5.82798,6.45268l-5.1842,-4.68231l5.82798,-6.45269z"/></g></g></g><g stroke="none" stroke-width="0" stroke-linecap="butt"><g><path d="M352.47699,114.67901c0,4.94798 -4.1335,8.95911 -9.23244,8.95911c-5.09894,0 -9.23245,-4.01113 -9.23245,-8.95911c0,-4.94798 4.1335,-8.95911 9.23245,-8.95911c5.09894,0 9.23244,4.01113 9.23244,8.95911zM343.15344,119.49556c2.69365,0 4.8773,-2.18363 4.8773,-4.87729c0,-2.69366 -2.18364,-4.8773 -4.8773,-4.8773c-2.69365,0 -4.87729,2.18364 -4.87729,4.8773c0,2.69366 2.18364,4.87729 4.87729,4.87729z" fill="#363618"/><g fill="#363618"><path d="M340.38978,108.51392v-7.10655h5.70954v7.10655z"/><path d="M340.38978,127.8899v-7.10655h5.70954v7.10655z"/></g><g><path d="M349.36753,111.79917l7.1065,-0.02907l0.02335,5.7095l-7.10649,0.02907z" fill="#363618"/><path d="M329.99172,111.87842l7.10649,-0.02907l0.02335,5.70949l-7.10649,0.02907z" fill="#c2c255"/></g><g fill="#363618"><path d="M349.47504,117.31821l4.76331,5.27389l-4.23714,3.82694l-4.76331,-5.27389z"/><path d="M336.48789,102.93896l4.76331,5.2739l-4.23714,3.82693l-4.76331,-5.2739z"/></g><g fill="#363618"><path d="M341.2512,121.14515l-4.76331,5.27389l-4.23714,-3.82694l4.76331,-5.27389z"/><path d="M354.23834,106.7659l-4.76331,5.2739l-4.23714,-3.82693l4.76331,-5.2739z"/></g></g><g fill="#60602a"><path d="M351.39315,114.64863c0,4.94798 -4.1335,8.95912 -9.23244,8.95912c-5.09894,0 -9.23244,-4.01114 -9.23244,-8.95912c0,-4.94798 4.1335,-8.95911 9.23244,-8.95911c5.09894,0 9.23244,4.01113 9.23244,8.95911zM346.94689,114.58789c0,-2.69366 -2.18364,-4.87729 -4.87729,-4.87729c-1.36227,0 -2.59411,0.5585 -3.479,1.45902c-0.90053,0.8849 -1.45903,2.11673 -1.45903,3.47901c0,2.69366 2.18363,4.8773 4.87729,4.8773c1.36228,0 2.59412,-0.55851 3.47902,-1.45905c0.90051,-0.8849 1.45902,-2.11672 1.45902,-3.47899z"/><g><path d="M339.30593,108.48355v-7.10656h5.70954v7.10656z"/><path d="M339.30593,127.85954v-7.10656h5.70954v7.10656z"/></g><g><path d="M348.2837,111.7688l7.10649,-0.02906l0.02335,5.70948l-7.10649,0.02907z"/><path d="M328.90787,111.84805l7.10649,-0.02907l0.02335,5.70949l-7.1065,0.02907z"/></g><g><path d="M348.3912,117.28785l4.76331,5.27389l-4.23714,3.82694l-4.7633,-5.27389z"/><path d="M335.40405,102.9086l4.76331,5.27389l-4.23714,3.82694l-4.76331,-5.27389z"/></g><g><path d="M340.16736,121.11478l-4.76331,5.27389l-4.23714,-3.82694l4.76331,-5.27389z"/><path d="M353.1545,106.73553l-4.76331,5.27389l-4.23714,-3.82694l4.7633,-5.27389z"/></g></g></g><g stroke="none" stroke-width="0" stroke-linecap="butt"><path d="M312.76667,90.66668c0,3.16644 -1.29837,5.73334 -2.9,5.73334c-1.60163,0 -2.9,-2.5669 -2.9,-5.73334c0,-3.16644 1.29837,-5.73333 2.9,-5.73333c1.60163,0 2.9,2.56689 2.9,5.73333z" fill="#ffffff"/><path d="M311.46873,90.16668c0,2.44846 -0.73919,4.43333 -1.65104,4.43333c-0.91184,0 -1.65104,-1.98488 -1.65104,-4.43333c0,-2.44846 0.73919,-4.43333 1.65104,-4.43333c0.91184,0 1.65104,1.98487 1.65104,4.43333z" fill="#000000"/></g><g stroke="none" stroke-width="0" stroke-linecap="butt"><path d="M318.03333,133.11802c0,2.43852 -0.9999,4.41533 -2.23333,4.41533c-1.23343,0 -2.23334,-1.97681 -2.23334,-4.41533c0,-2.43852 0.9999,-4.41532 2.23334,-4.41532c1.23343,0 2.23333,1.9768 2.23333,4.41532z" fill="#ffffff"/><path d="M316.83378,133.33296c0,1.88559 -0.56927,3.41418 -1.27149,3.41418c-0.70222,0 -1.27148,-1.52858 -1.27148,-3.41417c0,-1.88559 0.56926,-3.41417 1.27148,-3.41417c0.70222,0 1.27149,1.52858 1.27149,3.41418z" fill="#000000"/></g><g stroke="none" stroke-width="0" stroke-linecap="butt"><path d="M343.76667,114.66285c0,1.76943 -0.72555,3.20383 -1.62054,3.20383c-0.895,0 -1.62054,-1.4344 -1.62054,-3.20383c0,-1.76943 0.72554,-3.20383 1.62054,-3.20383c0.895,0 1.62054,1.4344 1.62054,3.20383z" fill="#ffffff"/><path d="M343.37471,114.65011c0,1.36822 -0.41307,2.47738 -0.92262,2.47738c-0.50955,0 -0.92261,-1.10916 -0.92261,-2.47738c0,-1.36822 0.41307,-2.47738 0.92261,-2.47738c0.50955,0 0.92262,1.10916 0.92262,2.47738z" fill="#000000"/></g></g><g stroke-linecap="butt"><path d="M340.28215,73.42349l10.07672,-12.35715l35.79753,29.19132l-6.62365,-1.37128l-3.45308,13.72844l-4.85368,-3.95797l-0.80897,-2.44137l-2.40134,-0.1765l-0.90148,-2.43197l-2.46171,-0.31056l-0.79956,-2.34886l-2.66553,-0.47678l-0.994,-2.42256l-2.36919,-0.31997l-1.11472,-2.69069l-2.65613,-0.38426l-1.0128,-2.60759l-2.24847,-0.05184l-1.15627,-2.63973l-2.56362,-0.39367l-1.04101,-2.88511l-2.72983,-0.18985l-0.61455,-2.36767z" fill="#bababa" stroke="#1d1d0d" stroke-width="1.5"/><path d="M372.60451,106.35623l3.10564,-24.61704l19.53365,15.92883l-13.29712,16.30635zM376.38682,104.77421l5.55811,4.71528l8.61077,-11.29624l-10.82444,-8.89933z" fill="#b1b14e" stroke="#60602a" stroke-width="1.5"/><path d="M343.70847,75.34442l12.94956,-8.28193c0.52488,0.4356 5.27137,4.35929 5.39145,4.47534l-11.91153,7.46725l-2.63234,-0.26006l-1.34983,-2.93313z" fill="#f6f6f6" stroke="none" stroke-width="0"/><path d="M351.73438,81.54406l12.66613,-8.13022c0.25709,0.2698 2.95445,2.45727 3.00817,2.53193l-13.0093,8.24608l-1.01677,-2.51791z" fill="#f6f6f6" stroke="none" stroke-width="0"/></g><path d="M387.00853,97.92104c3.5138,0 6.36231,2.80535 6.36231,6.26591c0,3.46057 -2.8485,6.26591 -6.36231,6.26591c-3.5138,0 -6.36231,-2.80534 -6.36231,-6.26591c0,-3.46057 2.84851,-6.26591 6.36231,-6.26591z" fill="#000000" stroke="none" stroke-width="0" stroke-linecap="butt"/><path d="M381.34698,103.51875c1.55847,0 2.82185,1.20846 2.82185,2.69917c0,1.49071 -1.26339,2.69916 -2.82185,2.69916c-1.55847,0 -2.82185,-1.20845 -2.82185,-2.69916c0,-1.49071 1.26339,-2.69917 2.82185,-2.69917z" fill="#000000" stroke="none" stroke-width="0" stroke-linecap="butt"/></g></g></g></svg>