<svg version="1.1" xmlns="http://www.w3.org/2000/svg" xmlns:xlink="http://www.w3.org/1999/xlink" width="34.17311" height="34.17311" viewBox="0,0,34.17311,34.17311"><g transform="translate(-302.91346,-162.9135)"><g stroke-miterlimit="10"><path d="M309.98312,162.9135h20.03379c3.9166,0 7.06966,3.15307 7.06966,7.06966v20.03379c0,3.91659 -3.15306,7.06966 -7.06966,7.06966h-20.03379c-3.91659,0 -7.06966,-3.15307 -7.06966,-7.06966v-20.03379c0,-3.91659 3.15307,-7.06966 7.06966,-7.06966z" fill="#a0a300" fill-rule="evenodd" stroke="none" stroke-width="0" stroke-linecap="round" stroke-linejoin="round"/><g fill-rule="nonzero" stroke-width="0.5" stroke-linejoin="miter"><path d="M325.82367,171.2866c0,0.7697 -0.68779,1.39368 -1.53621,1.39368c-0.84842,0 -1.53621,-0.62397 -1.53621,-1.39368c0,-0.7697 0.68779,-1.39368 1.53621,-1.39368c0.84842,0 1.53621,0.62397 1.53621,1.39368z" fill="#d9db56" stroke="#000000" stroke-linecap="butt"/><g stroke-linecap="round"><g><path d="M313.52371,169.76624c0,0 0.44748,-0.15603 0.9836,0.28301c0.6441,0.52746 1.58856,1.68913 2.06756,2.01626c0.85313,0.58263 2.39685,1.02656 2.39685,1.02656l-3.83261,3.99098c0,0 -0.99714,-0.783 -1.6001,-1.90385c-1.78403,-3.31637 -0.0153,-5.41296 -0.0153,-5.41296z" fill="#d9db56" stroke="#000000"/><path d="M317.91562,173.76992l-2.36706,2.42624c0,0 -3.08608,-4.53191 -1.24271,-4.94125c0.09941,-0.02208 0.76327,0.91529 1.53643,1.47083c0.96782,0.69542 2.07334,1.04417 2.07334,1.04417z" fill="#e3e394" stroke="#e3e394"/></g><path d="M332.17026,185.35822c-0.37959,0.15621 -0.7381,0.17468 -1.19158,0.06697c-0.45348,-0.10771 0.17481,-0.40119 0.22555,-0.54707c0.05862,-0.16852 -0.52992,-0.5223 -0.8262,-0.63556c-0.29628,-0.11326 -1.69814,-0.26084 -2.89341,-0.54335c-1.06983,-0.25287 -2.07303,-0.52456 -3.33114,-1.0503c-1.25812,-0.52573 -4.01048,-2.08494 -5.55877,-2.66459c-1.54829,-0.57966 -1.71878,-0.4086 -2.79195,-0.30671c-1.07317,0.10189 -2.49958,1.37572 -1.91108,0.65822c0.22186,-0.27049 0.7923,-2.12977 1.04025,-3.327c0.23476,-1.13357 0.04899,-3.30945 0.18832,-3.51746c0.76611,-1.14383 4.49936,-2.78555 7.46501,-2.39349c8.51723,0.74758 9.97991,5.91562 9.97991,5.91562c0,0 -0.32137,2.66627 -0.25306,3.93675c0.06978,1.29802 0.35164,3.77051 0.35164,3.77051c0,0 -0.11388,0.48125 -0.49348,0.63746z" fill="#d9db56" stroke="#000000"/><g stroke="#000000"><path d="M306.72927,187.03586c-1.0774,-0.74437 -0.93739,-2.49212 -0.72514,-2.75556c0.66281,-0.8227 9.57192,-4.30943 9.57192,-4.30943c0,0 0.6153,-0.39184 2.66334,0.50092c0.39308,0.17135 0.71914,0.31399 1.155,0.54984c2.40508,1.30144 6.1002,2.74489 7.19236,3.05105c0.80725,0.22629 3.19335,0.43587 3.50435,0.91205c0.09113,0.13953 -1.61659,1.46176 -2.26789,2.18385c-0.61765,0.68479 -0.91957,1.4902 -1.63932,2.06223c-0.21517,0.17101 -1.83364,0.90491 -2.81547,0.99842c-0.98183,0.09351 -2.50359,0.00057 -3.65584,-0.57668c-1.15225,-0.57725 -5.5877,-4.08038 -7.55588,-5.04013c-1.94029,-0.94615 -3.91496,-0.45643 -3.91496,-0.45643c0,0 -1.60573,0.41863 -1.39775,1.52165c0.16691,0.88518 1.80735,1.50324 1.80735,1.50324c0,0 -1.38039,0.2292 -1.92204,-0.14503z" fill="#d9db56"/><path d="M307.79562,184.42095c2.2938,-0.93391 4.98345,0.78131 4.98345,0.78131l-3.7587,2.00605c0,0 -4.02033,-1.64914 -1.22475,-2.78736z" fill="#000000"/></g><g><path d="M333.36221,170.08298c0,0 1.76873,2.09658 -0.0153,5.41295c-0.60295,1.12085 -0.83991,1.93552 -0.83991,1.93552c0,0 -1.08447,-2.1593 -1.80808,-2.94583c-0.73329,-0.79705 -2.49965,-1.86868 -2.49965,-1.86868c0,0 1.25865,0.34793 2.11178,-0.2347c0.479,-0.32713 1.42345,-1.4888 2.06755,-2.01626c0.53612,-0.43903 0.9836,-0.283 0.9836,-0.283z" fill="#d9db56" stroke="#000000"/><path d="M329.8255,173.45317c0,0 0.44036,-0.06368 1.40818,-0.7591c0.77316,-0.55554 1.24697,-1.46124 1.34638,-1.43916c1.84337,0.40933 -0.67257,4.6245 -0.67257,4.6245c0,0 -0.6415,-1.07249 -1.03174,-1.47248c-0.3986,-0.40857 -1.05025,-0.95377 -1.05025,-0.95377z" fill="#e3e394" stroke="none"/></g></g></g></g></g></svg>