<svg version="1.1" xmlns="http://www.w3.org/2000/svg" xmlns:xlink="http://www.w3.org/1999/xlink" width="34.17311" height="34.17311" viewBox="0,0,34.17311,34.17311"><g transform="translate(-302.91346,-162.9135)"><g stroke="none" stroke-width="0" stroke-miterlimit="10"><path d="M309.98312,162.9135h20.03379c3.9166,0 7.06966,3.15307 7.06966,7.06966v20.03379c0,3.91659 -3.15306,7.06966 -7.06966,7.06966h-20.03379c-3.91659,0 -7.06966,-3.15307 -7.06966,-7.06966v-20.03379c0,-3.91659 3.15307,-7.06966 7.06966,-7.06966z" fill="#a0a300" fill-rule="evenodd" stroke-linecap="round" stroke-linejoin="round"/><g fill-rule="nonzero" stroke-linecap="butt" stroke-linejoin="miter"><path d="M306.75622,180.76346c-0.07722,-1.19217 -0.16257,-2.36583 0.06579,-3.40609c0.35202,-1.6035 1.21318,-2.98957 2.16105,-4.41226c0.9663,-1.45035 1.94074,-3.01652 3.38805,-4.08267c0.93467,-0.68852 2.11535,-1.04721 3.27099,-1.41508c1.16895,-0.3721 2.31444,-0.74985 3.53824,-0.82912c2.24666,-0.14553 3.88778,0.47521 5.8339,1.33778c1.41574,0.62749 3.26187,1.28692 4.30636,2.34149c0.72089,0.72787 0.96522,1.65407 1.43552,2.54942c0.57203,1.08903 1.3215,2.18263 1.68038,3.45468c0.25001,0.88615 0.82714,1.78491 0.88906,2.74072c0.10702,1.65218 -0.37836,3.48955 -0.80037,5.12196c-0.45923,1.77643 -0.90371,3.32944 -1.98624,4.63549c-1.07454,1.29641 -2.66569,1.83182 -4.11789,2.667c-1.71051,0.98372 -3.41748,1.58459 -5.51959,1.72076c-2.25821,0.14628 -4.18015,-0.36706 -6.09008,-1.23352c-1.83158,-0.83092 -3.67174,-1.97862 -4.88776,-3.5466c-1.13183,-1.45941 -1.74099,-3.2756 -2.24532,-5.15445c-0.22456,-0.83659 -0.86391,-1.59204 -0.92205,-2.48953z" fill="#d9db56"/><path d="M314.71461,167.74707c1.1374,1.44052 2.12676,2.90869 2.26092,4.86033c0.25395,3.36087 -1.89259,6.52311 -3.8717,8.9967c-1.26363,1.58011 -2.97877,2.86053 -4.9125,3.37338c-0.16088,-0.47789 -0.30542,-0.96651 -0.44131,-1.46045c1.13068,-0.78023 2.21621,-1.64936 3.09903,-2.63961c1.84697,-1.60746 3.58314,-4.81594 3.44527,-7.31099c-0.13198,-1.79726 -0.23978,-3.63207 -1.20444,-5.15114c0.50888,-0.26897 1.0611,-0.47839 1.62473,-0.66823z" fill="#000000"/><path d="M330.75612,172.84694c0.19499,0.37122 0.41059,0.74296 0.62432,1.12213c-1.42447,0.97947 -2.21557,3.10192 -3.15914,4.37486c-1.11514,2.65912 -1.81483,4.38936 -0.98246,7.26471c0.59648,1.46153 1.15658,2.98812 1.8495,4.42147c-0.73859,0.46372 -1.55237,0.82731 -2.34027,1.25435c-0.8282,-2.26907 -1.65641,-4.53814 -2.48461,-6.80721c-1.05304,-2.88508 0.70262,-6.19977 2.52588,-8.35843c1.00075,-1.18832 2.32368,-2.68626 3.85272,-3.49783c0.0367,0.07545 0.07458,0.15081 0.11405,0.22596z" fill="#000000"/></g></g></g></svg>