<svg version="1.1" xmlns="http://www.w3.org/2000/svg" xmlns:xlink="http://www.w3.org/1999/xlink" width="739" height="675.5" viewBox="0,0,739,675.5"><defs><linearGradient x1="312.5" y1="7.75" x2="312.5" y2="427.75" gradientUnits="userSpaceOnUse" id="color-1"><stop offset="0" stop-color="#0f0f00" stop-opacity="0.92549"/><stop offset="1" stop-color="#0f0f00" stop-opacity="0"/></linearGradient><linearGradient x1="320" y1="-112.5" x2="320" y2="68.5" gradientUnits="userSpaceOnUse" id="color-2"><stop offset="0" stop-color="#f0f06a"/><stop offset="1" stop-color="#68682e"/></linearGradient><linearGradient x1="321.00001" y1="56.09017" x2="321.00001" y2="303.90984" gradientUnits="userSpaceOnUse" id="color-3"><stop offset="0" stop-color="#1d1d00"/><stop offset="1" stop-color="#000000"/></linearGradient><linearGradient x1="163.0713" y1="66.68038" x2="163.0713" y2="120.76268" gradientTransform="translate(-79.34585,-91.51274) scale(0.4866,0.85345)" gradientUnits="userSpaceOnUse" id="color-4"><stop offset="0" stop-color="#ffffb6"/><stop offset="1" stop-color="#ffff70"/></linearGradient></defs><g transform="translate(57,114.75)"><g stroke-miterlimit="10"><path d="M-57,560.75v-573h739v573z" fill="url(#color-1)" stroke="none" stroke-width="0" stroke-linecap="butt"/><path d="M290.5,68.5v-181h59v181z" fill="url(#color-2)" stroke="#000000" stroke-width="4.5" stroke-linecap="butt"/><g stroke="none" stroke-linecap="butt"><path d="M123.5,326.5v-293h393v293z" fill="#68682e" stroke-width="NaN"/><path d="M241,93c0,28.02845 -24.62434,50.75 -55,50.75c-30.37566,0 -55,-22.72155 -55,-50.75c0,-28.02845 24.62434,-50.75 55,-50.75c30.37566,0 55,22.72155 55,50.75z" fill="#b3b34f" stroke-width="0"/><path d="M256,52.5c0,6.76549 -5.70837,12.25 -12.75,12.25c-7.04163,0 -12.75,-5.48451 -12.75,-12.25c0,-6.76549 5.70837,-12.25 12.75,-12.25c7.04163,0 12.75,5.48451 12.75,12.25z" fill="#b3b34f" stroke-width="0"/><path d="M417.5,114.25c0,26.23353 -21.93805,47.5 -49,47.5c-27.06195,0 -49,-21.26647 -49,-47.5c0,-26.23353 21.93805,-47.5 49,-47.5c27.06195,0 49,21.26647 49,47.5z" fill="#b3b34f" stroke-width="0"/><path d="M348.5,53.5c0,8.42234 -7.05152,15.25 -15.75,15.25c-8.69848,0 -15.75,-6.82766 -15.75,-15.25c0,-8.42234 7.05152,-15.25 15.75,-15.25c8.69848,0 15.75,6.82766 15.75,15.25z" fill="#b3b34f" stroke-width="0"/><path d="M311,91c0,13.94519 -11.52867,25.25 -25.75,25.25c-14.22133,0 -25.75,-11.30481 -25.75,-25.25c0,-13.94519 11.52867,-25.25 25.75,-25.25c14.22133,0 25.75,11.30481 25.75,25.25z" fill="#b3b34f" stroke-width="0"/><path d="M260,127.75c0,4.41828 -3.91751,8 -8.75,8c-4.83249,0 -8.75,-3.58172 -8.75,-8c0,-4.41828 3.91751,-8 8.75,-8c4.83249,0 8.75,3.58172 8.75,8z" fill="#b3b34f" stroke-width="0"/><path d="M236.5,141.5c0,3.17564 -2.79822,5.75 -6.25,5.75c-3.45178,0 -6.25,-2.57436 -6.25,-5.75c0,-3.17564 2.79822,-5.75 6.25,-5.75c3.45178,0 6.25,2.57436 6.25,5.75z" fill="#b3b34f" stroke-width="0"/><path d="M421,247.75c0,37.27922 -30.55657,67.5 -68.25,67.5c-37.69343,0 -68.25,-30.22078 -68.25,-67.5c0,-37.27922 30.55657,-67.5 68.25,-67.5c37.69343,0 68.25,30.22078 68.25,67.5z" fill="#b3b34f" stroke-width="0"/><path d="M488.5,178.5c0,22.22946 -18.35633,40.25 -41,40.25c-22.64367,0 -41,-18.02054 -41,-40.25c0,-22.22946 18.35633,-40.25 41,-40.25c22.64367,0 41,18.02054 41,40.25z" fill="#b3b34f" stroke-width="0"/><path d="M506.5,138.5c0,7.59392 -6.37994,13.75 -14.25,13.75c-7.87006,0 -14.25,-6.15608 -14.25,-13.75c0,-7.59392 6.37994,-13.75 14.25,-13.75c7.87006,0 14.25,6.15608 14.25,13.75z" fill="#b3b34f" stroke-width="0"/><path d="M508,257c0,16.15433 -14.7746,29.25 -33,29.25c-18.2254,0 -33,-13.09567 -33,-29.25c0,-16.15433 14.7746,-29.25 33,-29.25c18.2254,0 33,13.09567 33,29.25z" fill="#b3b34f" stroke-width="0"/><path d="M509.5,203.75c0,4.41828 -3.69365,8 -8.25,8c-4.55635,0 -8.25,-3.58172 -8.25,-8c0,-4.41828 3.69365,-8 8.25,-8c4.55635,0 8.25,3.58172 8.25,8z" fill="#b3b34f" stroke-width="0"/><path d="M489.5,326.25h-67l0.02084,-1.14833c0,0 4.37414,-31.40008 33.47916,-31.10167c30.99881,0.31782 33.5,32.25 33.5,32.25z" fill="#b3b34f" stroke-width="0"/><path d="M516.75,116c0,0 -49.2597,1.18892 -71.97462,-18.32197c-29.836,-25.62751 -27.27538,-63.92803 -27.27538,-63.92803l99.74029,-0.03642z" fill="#b3b34f" stroke-width="0"/><path d="M398,50c0,3.86599 -3.13401,7 -7,7c-3.86599,0 -7,-3.13401 -7,-7c0,-3.86599 3.13401,-7 7,-7c3.86599,0 7,3.13401 7,7z" fill="#b3b34f" stroke-width="0"/><path d="M244,207c0,27.06195 -22.60962,49 -50.5,49c-27.89038,0 -50.5,-21.93805 -50.5,-49c0,-27.06195 22.60962,-49 50.5,-49c27.89038,0 50.5,21.93805 50.5,49z" fill="#b3b34f" stroke-width="0"/><path d="M272,294c0,14.3594 -12.98374,26 -29,26c-16.01626,0 -29,-11.6406 -29,-26c0,-14.3594 12.98374,-26 29,-26c16.01626,0 29,11.6406 29,26z" fill="#b3b34f" stroke-width="0"/><path d="M205.30953,326.25h-75.30953l0.02342,-1.29075c0,0 4.91663,-35.29441 37.63134,-34.95899c34.84337,0.35724 37.65477,36.24974 37.65477,36.24974z" fill="#b3b34f" stroke-width="0"/><path d="M153.5,270.75c0,4.00406 -3.69365,7.25 -8.25,7.25c-4.55635,0 -8.25,-3.24594 -8.25,-7.25c0,-4.00406 3.69365,-7.25 8.25,-7.25c4.55635,0 8.25,3.24594 8.25,7.25z" fill="#b3b34f" stroke-width="0"/><path d="M198.5,273.75c0,6.2132 -5.48451,11.25 -12.25,11.25c-6.76549,0 -12.25,-5.0368 -12.25,-11.25c0,-6.2132 5.48451,-11.25 12.25,-11.25c6.76549,0 12.25,5.0368 12.25,11.25z" fill="#b3b34f" stroke-width="0"/><path d="M307,169.5c0,15.18783 -12.53603,27.5 -28,27.5c-15.46397,0 -28,-12.31217 -28,-27.5c0,-15.18783 12.53603,-27.5 28,-27.5c15.46397,0 28,12.31217 28,27.5z" fill="#b3b34f" stroke-width="0"/><path d="M270.5,218.25c0,4.28021 -3.58172,7.75 -8,7.75c-4.41828,0 -8,-3.46979 -8,-7.75c0,-4.28021 3.58172,-7.75 8,-7.75c4.41828,0 8,3.46979 8,7.75z" fill="#b3b34f" stroke-width="0"/><path d="M274.5,248.25c0,7.31777 -6.37994,13.25 -14.25,13.25c-7.87006,0 -14.25,-5.93223 -14.25,-13.25c0,-7.31777 6.37994,-13.25 14.25,-13.25c7.87006,0 14.25,5.93223 14.25,13.25z" fill="#b3b34f" stroke-width="0"/><path d="M155,150.5c0,6.62742 -5.8203,12 -13,12c-7.1797,0 -13,-5.37258 -13,-12c0,-6.62742 5.8203,-12 13,-12c7.1797,0 13,5.37258 13,12z" fill="#b3b34f" stroke-width="0"/><path d="M144.5,177.75c0,3.17564 -2.79822,5.75 -6.25,5.75c-3.45178,0 -6.25,-2.57436 -6.25,-5.75c0,-3.17564 2.79822,-5.75 6.25,-5.75c3.45178,0 6.25,2.57436 6.25,5.75z" fill="#b3b34f" stroke-width="0"/><path d="M333,164.5c0,4.41828 -3.46979,8 -7.75,8c-4.28021,0 -7.75,-3.58172 -7.75,-8c0,-4.41828 3.46979,-8 7.75,-8c4.28021,0 7.75,3.58172 7.75,8z" fill="#b3b34f" stroke-width="0"/><path d="M308.5,129.75c0,3.17564 -2.57436,5.75 -5.75,5.75c-3.17564,0 -5.75,-2.57436 -5.75,-5.75c0,-3.17564 2.57436,-5.75 5.75,-5.75c3.17564,0 5.75,2.57436 5.75,5.75z" fill="#b3b34f" stroke-width="0"/><path d="M451,118.25c0,5.10863 -4.58908,9.25 -10.25,9.25c-5.66092,0 -10.25,-4.14137 -10.25,-9.25c0,-5.10863 4.58908,-9.25 10.25,-9.25c5.66092,0 10.25,4.14137 10.25,9.25z" fill="#b3b34f" stroke-width="0"/><path d="M436.5,279.75c0,3.45178 -3.02208,6.25 -6.75,6.25c-3.72792,0 -6.75,-2.79822 -6.75,-6.25c0,-3.45178 3.02208,-6.25 6.75,-6.25c3.72792,0 6.75,2.79822 6.75,6.25z" fill="#b3b34f" stroke-width="0"/><path d="M509.5,301.5c0,4.41828 -3.80558,8 -8.5,8c-4.69442,0 -8.5,-3.58172 -8.5,-8c0,-4.41828 3.80558,-8 8.5,-8c4.69442,0 8.5,3.58172 8.5,8z" fill="#b3b34f" stroke-width="0"/></g><path d="M151.14607,303.90984v-247.81967h339.70787v247.81967z" fill="url(#color-3)" stroke="#000000" stroke-width="4.5" stroke-linecap="butt"/><path d="M123.5,326v-293h393v293z" fill="none" stroke="#000000" stroke-width="4.5" stroke-linecap="butt"/><path d="M197,45.5v-39h246v39z" fill="#929240" stroke="#000000" stroke-width="4.5" stroke-linecap="butt"/><text transform="translate(237.16667,37.5) scale(0.86114,0.86114)" font-size="40" xml:space="preserve" fill="#40401c" stroke="none" stroke-width="1" stroke-linecap="butt" font-family="&quot;ヒラギノ角ゴ Pro W3&quot;, &quot;Hiragino Kaku Gothic Pro&quot;, Osaka, &quot;メイリオ&quot;, Meiryo, &quot;ＭＳ Ｐゴシック&quot;, &quot;MS PGothic&quot;" font-weight="normal" text-anchor="start"><tspan x="0" dy="0">Mustard OS</tspan></text><text transform="translate(235.16667,36.83333) scale(0.86114,0.86114)" font-size="40" xml:space="preserve" fill="#797935" stroke="none" stroke-width="1" stroke-linecap="butt" font-family="&quot;ヒラギノ角ゴ Pro W3&quot;, &quot;Hiragino Kaku Gothic Pro&quot;, Osaka, &quot;メイリオ&quot;, Meiryo, &quot;ＭＳ Ｐゴシック&quot;, &quot;MS PGothic&quot;" font-weight="normal" text-anchor="start"><tspan x="0" dy="0">Mustard OS</tspan></text><text transform="translate(232.16667,37.5) scale(0.86114,0.86114)" font-size="40" xml:space="preserve" fill="#dfdf62" stroke="none" stroke-width="1" stroke-linecap="butt" font-family="&quot;ヒラギノ角ゴ Pro W3&quot;, &quot;Hiragino Kaku Gothic Pro&quot;, Osaka, &quot;メイリオ&quot;, Meiryo, &quot;ＭＳ Ｐゴシック&quot;, &quot;MS PGothic&quot;" font-weight="normal" text-anchor="start"><tspan x="0" dy="0">Mustard OS</tspan></text><g fill="#ffff70" stroke="none" stroke-width="0.5" stroke-linecap="butt"><path d="M211.46934,34.26701c-2.14146,-1.29001 -0.85145,-3.43148 -0.85145,-3.43148l0.02853,-0.00995c0.58919,-1.32104 1.68619,-4.06568 2.83694,-5.44555c-0.63103,-0.83999 -1.31732,-1.89608 -2.23029,-3.34373l5.55275,-0.31307c1.68708,0.53591 1.9525,-1.81714 2.86625,-3.33401c0,0 1.29001,-2.14146 3.43148,-0.85145c2.14146,1.29001 0.85145,3.43148 0.85145,3.43148c-0.40817,0.67758 -1.62471,2.76423 -2.58834,4.16194c0.13715,0.15598 0.25516,0.32946 0.3506,0.52175l3.13568,4.80749c-1.90523,-0.17485 -3.84751,-0.11182 -5.7157,-0.52456c-0.27931,-0.16826 -0.54279,-0.32767 -0.79211,-0.47998c-0.41553,-0.34994 -0.81473,-0.74987 -1.13588,-0.70987c-1.68582,-1.08728 -2.6212,-1.8955 -3.7259,-3.36599c0.23052,-0.27642 0.46319,-0.49807 0.69437,-0.64254c0.40802,-0.25498 1.06302,-0.48386 1.82469,-0.63279c1.45616,-1.13084 2.37674,-0.78235 3.51361,0.00944c0.74269,0.18106 1.4,0.50456 1.85063,1.01705c-0.049,0.07107 -0.09734,0.14035 -0.14489,0.20758c0.15852,0.10534 0.32337,0.21049 0.49549,0.31417c0.37131,0.7481 -0.76483,1.48498 -1.14725,2.22747l-1.43278,2.05546c-0.26017,-0.05748 -0.52941,-0.25874 -0.79211,-0.47998c-0.41523,-0.25365 -0.79124,-0.48759 -1.13588,-0.70987c-0.08883,0.01106 -0.17169,0.05579 -0.24728,0.14454c-0.93607,1.09918 -1.16237,2.64322 -1.74569,3.96389l-0.31547,0.56111c0,0 -1.29001,2.14146 -3.43148,0.85145z"/><path d="M219.33516,37.27601c-2.3683,0.80071 -3.16902,-1.56759 -3.16902,-1.56759l0.01085,-0.02821c-0.62745,-1.30329 -2.01321,-3.91407 -2.32269,-5.68395c-1.04883,-0.0612 -2.29827,-0.21989 -3.99304,-0.4586l3.34923,-4.44002c1.49917,-0.94123 -0.1251,-2.66432 -0.69227,-4.34186c0,0 -0.80071,-2.3683 1.56759,-3.16902c2.3683,-0.80071 3.16901,1.56759 3.16901,1.56759c0.25335,0.74936 1.05971,3.02616 1.50372,4.66477c0.20766,-0.00388 0.41631,0.01816 0.62475,0.06958l5.69521,0.7135c-1.3646,1.34103 -2.57158,2.86405 -4.09378,4.0231c-0.3089,0.10444 -0.60081,0.2025 -0.87816,0.29436c-0.53558,0.091 -1.09876,0.13722 -1.27576,0.40816c-1.91915,0.58398 -3.1404,0.77557 -4.97648,0.66842c-0.06199,-0.35454 -0.0808,-0.67534 -0.04166,-0.94513c0.06906,-0.47615 0.31764,-1.12394 0.69617,-1.80146c0.07794,-1.84204 0.93876,-2.31941 2.27767,-2.6754c0.6181,-0.4498 1.28973,-0.7424 1.97205,-0.75514c0.02257,0.08331 0.04422,0.16498 0.0648,0.24471c0.18283,-0.05291 0.3696,-0.11077 0.55995,-0.17513c0.81087,0.20004 0.63906,1.54328 0.9586,2.31492l0.64283,2.42168c-0.21199,0.16141 -0.53956,0.23684 -0.87816,0.29436c-0.4619,0.15299 -0.88341,0.28877 -1.27576,0.40816c-0.04896,0.07495 -0.06837,0.16708 -0.04948,0.28211c0.23398,1.42467 1.26612,2.59512 1.89708,3.89371l0.22437,0.60334c0,0 0.80071,2.3683 -1.56759,3.16902z"/></g><g fill="#ffff70" stroke="none" stroke-width="0.5" stroke-linecap="butt"><path d="M422.7056,33.41556l-0.31547,-0.5611c-0.58332,-1.32067 -0.80962,-2.86472 -1.74569,-3.96389c-0.07559,-0.08876 -0.15844,-0.13348 -0.24728,-0.14454c-0.34465,0.22228 -0.72065,0.45623 -1.13588,0.70988c-0.26271,0.22124 -0.53195,0.42249 -0.79212,0.47998l-1.43277,-2.05547c-0.38241,-0.74249 -1.51856,-1.47936 -1.14724,-2.22746c0.17212,-0.10368 0.33697,-0.20883 0.49549,-0.31417c-0.04755,-0.06723 -0.09589,-0.13652 -0.14488,-0.20759c0.45064,-0.51249 1.10794,-0.83599 1.85063,-1.01705c1.13688,-0.79179 2.05745,-1.14027 3.51361,-0.00943c0.76167,0.14893 1.41667,0.37781 1.82469,0.63279c0.23118,0.14447 0.46386,0.36612 0.69438,0.64254c-1.10469,1.47049 -2.04008,2.27871 -3.7259,3.36599c-0.32115,-0.04 -0.72035,0.35994 -1.13588,0.70988c-0.24933,0.1523 -0.5128,0.31172 -0.79212,0.47998c-1.8682,0.41274 -3.81046,0.3497 -5.7157,0.52456l3.13568,-4.80749c0.09545,-0.1923 0.21346,-0.36578 0.35061,-0.52176c-0.96363,-1.39771 -2.18016,-3.48435 -2.58833,-4.16194c0,0 -1.29002,-2.14147 0.85145,-3.43148c2.14146,-1.29001 3.43147,0.85146 3.43147,0.85146c0.91376,1.51686 1.17917,3.86992 2.86625,3.33401l5.55275,0.31307c-0.91297,1.44765 -1.59925,2.50374 -2.23028,3.34373c1.15075,1.37987 2.24775,4.12452 2.83694,5.44555l0.02853,0.00995c0,0 1.29001,2.14147 -0.85145,3.43148c-2.14146,1.29001 -3.43147,-0.85146 -3.43147,-0.85146z"/><path d="M416.70366,34.10699l0.22437,-0.60334c0.63096,-1.29859 1.66311,-2.46904 1.89708,-3.89371c0.0189,-0.11503 -0.00052,-0.20717 -0.04948,-0.28211c-0.39234,-0.11939 -0.81386,-0.25518 -1.27576,-0.40816c-0.3386,-0.05752 -0.66618,-0.13295 -0.87816,-0.29436l0.64283,-2.42168c0.31953,-0.77164 0.14773,-2.11488 0.9586,-2.31492c0.19036,0.06435 0.37713,0.12222 0.55995,0.17513c0.02058,-0.07973 0.04222,-0.16139 0.0648,-0.24471c0.68232,0.01275 1.35395,0.30534 1.97205,0.75514c1.33892,0.35599 2.19974,0.83336 2.27768,2.6754c0.37852,0.67752 0.6271,1.32531 0.69617,1.80146c0.03913,0.26978 0.02033,0.59059 -0.04166,0.94514c-1.83609,0.10715 -3.05733,-0.08445 -4.97649,-0.66842c-0.177,-0.27094 -0.74018,-0.31717 -1.27576,-0.40816c-0.27735,-0.09186 -0.56926,-0.18993 -0.87816,-0.29436c-1.5222,-1.15905 -2.72919,-2.68206 -4.09378,-4.0231l5.6952,-0.71351c0.20844,-0.05142 0.41709,-0.07346 0.62475,-0.06958c0.444,-1.63861 1.25036,-3.91541 1.50371,-4.66477c0,0 0.80071,-2.36831 3.16902,-1.5676c2.3683,0.80072 1.56759,3.16901 1.56759,3.16901c-0.56717,1.67754 -2.19145,3.40063 -0.69227,4.34186l3.34922,4.44002c-1.69477,0.23871 -2.94421,0.3974 -3.99304,0.45861c-0.30948,1.76989 -1.69524,4.38066 -2.32269,5.68395l0.01084,0.02821c0,0 -0.80072,2.3683 -3.16902,1.56759c-2.3683,-0.80071 -1.56759,-3.16901 -1.56759,-3.16901z"/></g><g stroke-linecap="butt"><path d="M147.33333,132.80831c0,24.10261 -10.81979,43.64164 -24.16667,43.64164c-13.34688,0 -24.16667,-19.53903 -24.16667,-43.64164c0,-24.10261 10.81979,-43.64164 24.16667,-43.64164c13.34688,0 24.16667,19.53903 24.16667,43.64164z" fill="#ffffff" stroke="#000000" stroke-width="4.5"/><path d="M142.90845,134.54057c0,17.38809 -6.47663,31.48393 -14.46597,31.48393c-7.98933,0 -14.46597,-14.09584 -14.46597,-31.48393c0,-17.38809 6.47663,-31.48393 14.46597,-31.48393c7.98933,0 14.46597,14.09584 14.46597,31.48393z" fill="#000000" stroke="none" stroke-width="0"/></g><g stroke-linecap="butt"><path d="M517.25,89.47533c13.34688,0 24.16667,19.53903 24.16667,43.64164c0,24.10261 -10.81979,43.64164 -24.16667,43.64164c-13.34688,0 -24.16667,-19.53903 -24.16667,-43.64164c0,-24.10261 10.81979,-43.64164 24.16667,-43.64164z" fill="#ffffff" stroke="#000000" stroke-width="4.5"/><path d="M511.97418,103.3653c7.98934,0 14.46597,14.09584 14.46597,31.48393c0,17.38809 -6.47663,31.48393 -14.46597,31.48393c-7.98933,0 -14.46597,-14.09584 -14.46597,-31.48393c0,-17.38809 6.47663,-31.48393 14.46597,-31.48393z" fill="#000000" stroke="none" stroke-width="0"/></g><path d="M349.78576,243.69163v-28.66667h116.33333v28.66667z" fill-opacity="0.01176" fill="#000000" stroke="none" stroke-width="NaN" stroke-linecap="butt"/><g><g fill="#ffffff" stroke="none" stroke-width="0"><path d="M405.53671,344.53018c-18.67474,-2.97649 -31.40069,-20.5283 -28.42419,-39.20305c2.97649,-18.67474 20.5283,-31.40067 39.20303,-28.42417c18.67474,2.97649 31.40069,20.5283 28.42417,39.20305c-2.97649,18.67474 -20.52829,31.40067 -39.20303,28.42417z" stroke-linecap="butt"/><g><path d="M433.88952,318.40908c0,0 1.23287,10.14047 -14.06468,11.37062c-13.12271,1.05528 -35.99684,-6.18565 -41.1531,-7.91355" stroke-linecap="round"/><path d="M440.06093,320.55198c0,0 -3.56609,5.82173 -7.98988,2.32559c-3.91544,-3.09441 -0.81512,-7.6494 -0.81512,-7.6494" stroke-linecap="round"/><path d="M408.9675,333.9336c0,0 -5.55541,0.25073 -7.98862,-0.09994c-2.12712,-0.30657 -5.81626,-1.8896 -5.81626,-1.8896" stroke-linecap="round"/><g stroke-linecap="butt"><path d="M421.80805,318.16966c-2.89487,-0.4614 -4.86758,-3.18221 -4.40618,-6.07707c0.4614,-2.89486 3.18221,-4.86758 6.07707,-4.40618c2.89487,0.4614 4.86758,3.18221 4.40618,6.07707c-0.4614,2.89488 -3.18221,4.86758 -6.07707,4.40618z"/><path d="M378.39095,310.9805c-2.89487,-0.46139 -4.86758,-3.18221 -4.40618,-6.07707c0.46139,-2.89487 3.18221,-4.86757 6.07707,-4.40618c2.89487,0.46139 4.86758,3.1822 4.40618,6.07706c-0.4614,2.89487 -3.18221,4.86758 -6.07707,4.40618z"/></g></g><path d="M436.55149,321.34199c-0.39733,-0.06333 -0.66809,-0.4368 -0.60477,-0.8341c0.06332,-0.39733 0.43677,-0.6681 0.83409,-0.60478c0.39733,0.06333 0.66809,0.4368 0.60477,0.8341c-0.06332,0.39733 -0.43677,0.6681 -0.83409,0.60478z" stroke-linecap="butt"/><path d="M435.58793,317.20476c-0.06332,0.39733 -0.4368,0.66808 -0.8341,0.60476c-0.39733,-0.06332 -0.66809,-0.43678 -0.60477,-0.8341c0.06332,-0.39733 0.43677,-0.6681 0.83409,-0.60478c0.39733,0.06332 0.6681,0.4368 0.60478,0.8341z" stroke-linecap="butt"/><path d="M433.18991,320.21601c-0.39734,-0.06332 -0.66809,-0.4368 -0.60477,-0.8341c0.06332,-0.39733 0.43677,-0.6681 0.83409,-0.60478c0.39733,0.06333 0.66809,0.4368 0.60477,0.8341c-0.06332,0.39733 -0.43677,0.6681 -0.83409,0.60478z" stroke-linecap="butt"/></g><g><path d="M440.10561,314.90606c-2.51097,15.75403 -17.31771,26.48966 -33.07174,23.97868c-15.75403,-2.51099 -26.48966,-17.31772 -23.97868,-33.07176c2.51099,-15.75402 17.31771,-26.48966 33.07176,-23.97868c15.75403,2.51098 26.48966,17.3177 23.97868,33.07174z" fill="#ffffff" stroke="#000000" stroke-width="1.5" stroke-linecap="butt"/><g stroke="#000000" stroke-width="1.5"><path d="M430.95234,316.84894c0,0 1.04005,8.55452 -11.86498,9.59227c-11.07032,0.89021 -30.36698,-5.21824 -34.7168,-6.67589" fill="none" stroke-linecap="round"/><path d="M436.15858,318.6567c0,0 -3.00835,4.91122 -6.74027,1.96187c-3.30308,-2.61045 -0.68763,-6.45304 -0.68763,-6.45304" fill="#ffffff" stroke-linecap="round"/><path d="M409.92811,329.94543c0,0 -4.68655,0.21154 -6.73922,-0.08429c-1.79443,-0.25862 -4.90659,-1.59406 -4.90659,-1.59406" fill="none" stroke-linecap="round"/><g fill="#000000" stroke-linecap="butt"><path d="M425.88704,312.92991c-0.38924,2.44212 -2.6845,4.1063 -5.12661,3.71706c-2.44212,-0.38924 -4.1063,-2.68451 -3.71706,-5.12662c0.38924,-2.44212 2.68451,-4.1063 5.12662,-3.71706c2.44213,0.38924 4.10631,2.6845 3.71707,5.12661z"/><path d="M388.43143,306.95997c-0.38924,2.44212 -2.68451,4.1063 -5.12662,3.71706c-2.44212,-0.38924 -4.1063,-2.6845 -3.71706,-5.12661c0.38924,-2.44212 2.68451,-4.1063 5.12662,-3.71706c2.44212,0.38924 4.1063,2.68451 3.71706,5.12662z"/></g></g><path d="M433.90164,318.81293c-0.05342,0.33519 -0.36844,0.56363 -0.70365,0.51019c-0.33518,-0.05342 -0.56361,-0.36847 -0.51018,-0.70366c0.05342,-0.33518 0.36846,-0.56361 0.70366,-0.51018c0.33518,0.05342 0.56361,0.36847 0.51018,0.70366z" fill="#000000" stroke="none" stroke-width="0.5" stroke-linecap="butt"/><path d="M432.38515,315.83294c-0.05342,0.33518 -0.36846,0.56363 -0.70366,0.51019c-0.33518,-0.05342 -0.56361,-0.36847 -0.51018,-0.70366c0.05342,-0.33518 0.36844,-0.56363 0.70365,-0.51019c0.33518,0.05342 0.56361,0.36847 0.51018,0.70366z" fill="#000000" stroke="none" stroke-width="0.5" stroke-linecap="butt"/><path d="M431.06583,317.86308c-0.05342,0.33519 -0.36844,0.56363 -0.70365,0.51019c-0.33518,-0.05342 -0.56363,-0.36847 -0.51019,-0.70366c0.05342,-0.33519 0.36846,-0.56363 0.70366,-0.51019c0.33518,0.05342 0.56361,0.36846 0.51018,0.70366z" fill="#000000" stroke="none" stroke-width="0.5" stroke-linecap="butt"/></g></g><g><g stroke="#ffffff" stroke-width="6" stroke-linecap="butt"><path d="M456.14124,321.73558l2.57955,-37.09928l68.63369,4.77216l-2.57954,37.0993z" fill="#003aff"/><path d="M461.90028,324.50142l2.90691,-41.80731l56.78829,3.94852l-2.90691,41.80733z" fill="#ffffff"/></g><path d="M456.14124,321.73558l2.57955,-37.09928l68.63369,4.77216l-2.57954,37.0993z" fill="#003aff" stroke="#000000" stroke-width="1.5" stroke-linecap="butt"/><path d="M461.92452,324.15302l2.90691,-41.80733l56.78828,3.94856l-2.90691,41.80733z" fill="#ffffff" stroke="#000000" stroke-width="1.5" stroke-linecap="butt"/><g stroke="#000000" stroke-width="1.5"><path d="M512.2658,304.84715c0,0 1.86092,8.74709 -11.38344,11.00532c-11.36143,1.93718 -31.86918,-2.60437 -36.49942,-3.71152" fill="#ffffff" stroke-linecap="round"/><path d="M516.28643,306.13135l-6.46844,-1.54572" fill="#003aff" stroke-linecap="round"/><path d="M491.7365,320.31615c0,0 -4.82498,0.64918 -6.97397,0.53195c-1.87864,-0.10247 -5.21831,-1.19702 -5.21831,-1.19702" fill="#003aff" stroke-linecap="round"/><g fill="#000000" stroke-linecap="butt"><path d="M506.66982,301.26141c-0.17801,2.56012 -2.3977,4.49122 -4.95783,4.31321c-2.56014,-0.17801 -4.49122,-2.39773 -4.31321,-4.95785c0.17801,-2.56012 2.3977,-4.49121 4.95783,-4.31321c2.56015,0.17801 4.49124,2.39772 4.31323,4.95785z"/><path d="M467.40425,298.53125c-0.17801,2.56014 -2.3977,4.49122 -4.95783,4.31321c-2.56014,-0.17801 -4.49123,-2.39773 -4.31322,-4.95785c0.17801,-2.56012 2.3977,-4.49122 4.95784,-4.31321c2.56014,0.17801 4.49122,2.3977 4.31321,4.95783z"/></g></g></g><g stroke-width="1.5"><g fill="#ffffff" stroke="#ffffff"><path d="M123.35701,309.23446c-4.73041,-17.44565 5.57733,-35.42286 23.02296,-40.15328c17.44565,-4.73041 35.42288,5.57733 40.15328,23.02296c4.7304,17.44564 -5.57731,35.42286 -23.02296,40.15328c-17.44565,4.73041 -35.42285,-5.57735 -40.15328,-23.02296z" stroke-linecap="butt"/><g><path d="M186.06328,308.16404c-4.72463,2.16722 -25.72721,11.37819 -38.30663,11.71144c-14.66424,0.38847 -14.52503,-9.37469 -14.52503,-9.37469" stroke-linecap="round"/><path d="M135.79791,309.70185l-6.60052,3.0266" stroke-linecap="round"/><path d="M171.4163,319.42135c0,0 -3.34499,1.88015 -5.33543,2.38812c-2.27685,0.58106 -7.58231,0.9084 -7.58231,0.9084" stroke-linecap="round"/><g stroke-linecap="butt"><path d="M144.68959,309.04305c-2.70432,0.73329 -5.49108,-0.86455 -6.22437,-3.56891c-0.7333,-2.70432 0.86455,-5.49108 3.56892,-6.22437c2.70432,-0.73329 5.49109,0.86456 6.22437,3.56892c0.73329,2.70432 -0.86456,5.49109 -3.56892,6.22437z"/><path d="M186.16697,297.79641c-2.70432,0.73329 -5.49109,-0.86455 -6.22436,-3.56891c-0.73329,-2.70432 0.86457,-5.49109 3.56893,-6.22437c2.70432,-0.73329 5.49109,0.86457 6.22437,3.56893c0.73329,2.70432 -0.86454,5.49108 -3.56891,6.22437z"/></g></g></g><g stroke="#000000"><path d="M162.55873,327.90999c-15.07632,4.08797 -30.61205,-4.81986 -34.70001,-19.89617c-4.08797,-15.07632 4.81986,-30.61207 19.89618,-34.70002c15.07632,-4.08798 30.61205,4.81986 34.70001,19.89618c4.08798,15.07632 -4.81986,30.61205 -19.89617,34.70001z" fill="#ff3ef1" stroke-linecap="butt"/><g><path d="M182.04879,307.08876c-4.08296,1.8729 -22.23314,9.83291 -33.10414,10.12091c-12.67266,0.33571 -12.55236,-8.10152 -12.55236,-8.10152" fill="none" stroke-linecap="round"/><path d="M132.90593,311.03328l5.70409,-2.61554" fill="none" stroke-linecap="round"/><path d="M169.39101,316.8172c0,0 -2.89071,1.62484 -4.61081,2.06379c-1.96763,0.50212 -6.55255,0.78503 -6.55255,0.78503" fill="none" stroke-linecap="round"/><g fill="#000000" stroke-linecap="butt"><path d="M140.9151,304.76421c-0.63369,-2.33705 0.74715,-4.74534 3.08421,-5.37903c2.33705,-0.63369 4.74534,0.74715 5.37903,3.08421c0.63368,2.33705 -0.74714,4.74534 -3.08421,5.37902c-2.33706,0.63369 -4.74533,-0.74714 -5.37905,-3.08421z"/><path d="M176.7594,295.04497c-0.63368,-2.33705 0.74714,-4.74534 3.08421,-5.37903c2.33705,-0.63369 4.74534,0.74715 5.37903,3.08421c0.63368,2.33706 -0.74714,4.74534 -3.08421,5.37903c-2.33705,0.63369 -4.74534,-0.74714 -5.37902,-3.08421z"/></g></g></g></g><g stroke="none" stroke-width="1" stroke-linecap="butt" font-family="&quot;Allan-Regular&quot;, Sans Serif" font-weight="normal" font-size="40" text-anchor="start"><text transform="translate(160.21291,105.56064) scale(2.05507,1.17172)" font-size="40" xml:space="preserve" fill="#828216"><tspan x="0" dy="0">WELCOME</tspan></text><text transform="translate(163.06128,107.22731) scale(2.05507,1.17172)" font-size="40" xml:space="preserve" fill="url(#color-4)"><tspan x="0" dy="0">WELCOME</tspan></text></g><g stroke-width="1.5"><g fill="#ffffff" stroke="#ffffff"><path d="M299.68338,299.73211c0,0 -5.0973,-3.09948 -5.94353,-4.51013c-0.38772,-0.64633 2.43174,-3.12478 4.18924,-5.62325c2.29443,-3.26176 4.16936,-8.01248 7.52807,-10.2822c5.49504,-3.71341 17.67922,-5.20423 17.67922,-5.20423c0,0 -0.68322,-5.17191 -0.80469,-6.04838c-0.11083,-0.79986 2.13399,-1.25634 2.93877,-1.06217c2.78169,0.67117 9.05486,1.60784 11.63462,3.53263c5.1103,3.81284 5.97765,8.29238 11.20706,9.76699c5.85235,1.6503 2.62011,-5.76415 6.23073,-1.39798c1.7229,2.08343 9.03547,8.55312 10.31249,15.11951c1.27703,6.56641 -0.95578,9.74275 -0.95578,9.74275c0,0 0.78144,5.29643 0.56151,8.67675c-1.17662,18.08467 -17.20018,31.97927 -35.78963,31.03446c-18.58948,-0.94481 -32.70538,-16.37125 -31.52876,-34.45594c0.32766,-5.03635 1.71666,-9.54621 3.95188,-13.41182z" stroke-linecap="round"/><path d="M300.63599,298.5375c1.93261,-3.45732 4.50055,-6.52176 7.5409,-9.0519" stroke-linecap="butt"/><g><path d="M353.25801,316.53011l7.55642,1.6264" stroke-linecap="round"/><path d="M332.28046,334.72044c0,0 -5.62346,0.83034 -8.13103,0.73941c-2.19211,-0.0795 -6.09564,-1.25541 -6.09564,-1.25541" stroke-linecap="round"/><g stroke-linecap="butt"><path d="M349.56172,312.82222c-0.1891,2.90648 -2.76432,5.13952 -5.7519,4.98769c-2.98761,-0.15185 -5.25624,-2.63111 -5.06713,-5.53757c0.18911,-2.90649 2.76433,-5.13952 5.75192,-4.98769c2.98759,0.15184 5.25623,2.6311 5.06712,5.53755z"/><path d="M303.95027,309.78738c-0.18911,2.90649 -1.63206,6.59182 -4.61964,6.43998c-2.98761,-0.15185 -6.05693,-4.14593 -5.86782,-7.05239c0.1891,-2.90648 3.07975,-6.19845 6.06734,-6.04663c2.98761,0.15182 4.60921,3.75254 4.4201,6.659z"/></g></g></g><g stroke="#000000"><path d="M303.67632,299.28314c0,0 -3.95457,-2.58609 -4.69605,-3.8498c-0.33972,-0.57902 1.99812,-1.71774 3.51174,-3.94015c1.97603,-2.90139 3.58069,-7.13434 6.48546,-9.14474c4.75241,-3.28918 16.8476,-7.52893 16.8476,-7.52893c0,0 -0.30114,-2.15002 -0.41083,-2.93323c-0.10011,-0.71474 0.4982,-1.15506 1.19782,-0.97777c2.41812,0.61278 7.37478,2.01938 9.62367,3.75058c4.45486,3.42938 8.39121,7.61841 12.93815,8.96047c5.08855,1.50194 2.69845,-5.10715 5.85409,-1.19096c1.50581,1.86869 4.37283,7.98814 5.41242,13.33856c1.14044,5.86951 -0.78252,8.69493 -0.78252,8.69493l-0.36668,-0.77885c0.74713,2.65584 1.07075,5.51196 0.89622,8.52927c-0.93379,16.14257 -14.77689,28.47178 -30.91949,27.53801c-16.1426,-0.93379 -28.47179,-14.7769 -27.53802,-30.9195c0.26004,-4.49549 1.44397,-8.51572 3.36571,-11.95661z" fill="#003aff" stroke-linecap="round"/><path d="M354.93873,295.2515c2.58783,3.61221 4.33634,7.85144 4.97971,12.41918" fill="#003aff" stroke-linecap="butt"/><path d="M304.32666,298.1044c1.66097,-3.07776 3.87542,-5.80162 6.50256,-8.04613" fill="#003aff" stroke-linecap="butt"/><g><path d="M352.57806,314.66153c0,0 1.98736,8.83492 -11.39655,11.27756c-11.48113,2.09536 -32.29969,-2.26148 -37.00107,-3.32794" fill="#003aff" stroke-linecap="round"/><path d="M356.66431,315.91447l-6.56782,-1.4889" fill="#003aff" stroke-linecap="round"/><path d="M331.97351,330.56656c0,0 -4.87784,0.71418 -7.05516,0.62081c-1.90342,-0.08163 -5.29788,-1.15055 -5.29788,-1.15055" fill="#003aff" stroke-linecap="round"/><g fill="#000000" stroke-linecap="butt"><path d="M341.90046,315.52254c-2.59435,-0.15006 -4.57581,-2.37488 -4.42575,-4.96921c0.15007,-2.59435 2.37487,-4.57581 4.9692,-4.42574c2.59435,0.15006 4.57582,2.37486 4.42575,4.96919c-0.15008,2.59435 -2.37487,4.57583 -4.96921,4.42576z"/><path d="M307.07928,308.79509c-0.15007,2.59436 -2.37488,4.57582 -4.96921,4.42575c-2.59435,-0.15007 -4.57581,-2.37487 -4.42575,-4.96921c0.15007,-2.59435 2.37488,-4.57581 4.96921,-4.42575c2.59435,0.15008 4.57582,2.37488 4.42575,4.96921z"/></g></g></g></g><g><g fill="#ffffff" stroke="#ffffff"><g stroke-linecap="round"><path d="M246.17302,342.70714c0,0 -4.74684,0.03296 -10.9254,0.14923c-3.71965,0.06999 -6.08281,0.19769 -8.97547,0.51614c-1.44129,0.15869 -5.81845,2.76871 -5.81845,2.76871c0,0 -2.96857,-1.63698 -5.23277,-1.37554c-2.27157,0.26232 -4.36543,0.30523 -5.71413,-0.61324c-4.49934,-3.06408 -4.23475,-9.78932 -4.60798,-16.41816c-0.04687,-0.83267 -0.61339,-2.44923 -1.58006,-3.30408c-1.0028,-0.88681 -2.40608,-0.99689 -2.40608,-0.99689c0,0 -0.32734,-1.58408 0.20799,-3.5404c0.51425,-1.87915 1.89862,-4.11493 1.58706,-4.9902c-1.56847,-4.40653 -4.19151,-7.5093 -4.19151,-7.5093c0,0 4.47328,0.0045 4.14258,-1.54039c-1.57848,-7.3741 2.25046,-16.80423 10.54608,-23.29649c9.17517,-7.18062 22.97911,-5.00333 22.97911,-5.00333c0,0 12.40883,-5.13918 22.51668,-1.30669c11.95501,4.53283 14.75088,14.09098 14.75088,14.09098l4.50639,-0.78645l-0.98261,2.1945c0,0 4.17092,3.11443 4.74763,10.60328c0.25274,3.28232 -1.71833,8.48997 -1.71833,8.48997l1.55089,5.5065c0,0 -1.69649,2.79428 -2.25899,5.04766c-0.97888,3.9214 -1.18797,9.12011 -1.71702,10.13574c-0.58319,1.1196 -3.83048,3.07756 -3.83048,3.07756c0,0 -4.3549,3.97852 -7.65183,5.01103c-8.79773,2.7552 -19.92417,3.08988 -19.92417,3.08988z" stroke-width="1.5"/><path d="M202.53755,332.79565l6.57483,-3.39553" stroke-width="5"/><path d="M270.59313,333.08203l2.96929,4.17539" stroke-width="5"/></g><path d="M218.49594,317.69246c-2.23945,-12.60753 6.16553,-24.64339 18.77308,-26.88285c12.60753,-2.23946 24.6434,6.16552 26.88286,18.77307c2.09972,11.82077 -5.69607,25.00189 -18.30359,27.24136c-12.60752,2.23946 -25.11284,-6.52404 -27.35231,-19.13157z" stroke-width="1.5" stroke-linecap="butt"/><path d="M217.76813,317.92519c0,0 -11.69469,-25.63743 20.20628,-33.67228c15.19532,-3.82722 22.98957,11.26849 26.00874,20.50543c1.2105,3.70343 1.36381,6.87976 1.36381,6.87976c0,0 -3.83267,-2.08319 -6.22435,-3.56771c-3.03074,-1.88121 -8.58391,0.65327 -8.58391,0.65327l-0.99349,-5.66242c0,0 -1.75475,3.16614 -2.07691,4.81752c-0.41848,2.14492 -0.2215,6.96303 -0.2215,6.96303l-5.17543,-5.35205c0,0 -0.32508,3.18652 -0.05573,4.77774c0.28674,1.69403 1.72725,5.09727 1.72725,5.09727c0,0 -4.11067,-1.98324 -5.84658,-3.64455c-2.1568,-2.06414 -6.10798,-7.79618 -6.10798,-7.79618c0,0 -5.22086,4.75902 -7.78034,6.58478c-1.94014,1.384 -6.23979,3.41634 -6.23979,3.41634z" stroke-width="1" stroke-linecap="round"/><path d="M261.35136,323.05458c-3.50263,1.29958 -19.05054,6.74923 -28.08766,6.00173c-10.53486,-0.87139 -9.91661,-8.41589 -9.91661,-8.41589" stroke-width="1.5" stroke-linecap="round"/><path d="M251.68902,330.34055c0,0 -2.72859,1.22861 -4.30991,1.48523c-1.80885,0.29352 -5.95265,0.18009 -5.95265,0.18009" stroke-width="1.5" stroke-linecap="round"/><g stroke-width="1.5" stroke-linecap="butt"><path d="M224.56511,317.66627c-0.38216,-2.15145 1.05213,-4.20538 3.20361,-4.58756c2.15145,-0.38216 4.20537,1.05214 4.58755,3.20362c0.38217,2.15145 -1.05213,4.20539 -3.20361,4.58756c-2.15145,0.38218 -4.20538,-1.05214 -4.58756,-3.20362z"/><path d="M257.56294,311.80493c-0.38216,-2.15145 1.05213,-4.2054 3.20362,-4.58757c2.15146,-0.38216 4.20538,1.05214 4.58756,3.20364c0.38218,2.15145 -1.05212,4.20538 -3.2036,4.58756c-2.15145,0.38218 -4.20539,-1.05213 -4.58757,-3.20361z"/></g></g><g stroke="#000000"><g stroke-width="1.5" stroke-linecap="round"><path d="M245.5216,339.23163c0,0 -4.23875,0.02943 -9.75593,0.13324c-3.32147,0.06248 -5.4317,0.17654 -8.01474,0.46089c-1.28701,0.14171 -5.19563,2.47232 -5.19563,2.47232c0,0 -2.65081,-1.46175 -4.67262,-1.22829c-2.02844,0.23425 -3.89819,0.27254 -5.10249,-0.54761c-4.01772,-2.73609 -3.78143,-8.74147 -4.11473,-14.66075c-0.04187,-0.74355 -0.54777,-2.18705 -1.41094,-2.95042c-0.89544,-0.79186 -2.14855,-0.89017 -2.14855,-0.89017c0,0 -0.2923,-1.41451 0.18572,-3.16143c0.45918,-1.67799 1.69536,-3.67447 1.41717,-4.45605c-1.40057,-3.93484 -3.74286,-6.70549 -3.74286,-6.70549c0,0 3.99444,0.00404 3.69917,-1.37549c-1.40951,-6.58476 2.00958,-15.00545 9.41721,-20.8028c8.19305,-6.41201 20.51941,-4.46778 20.51941,-4.46778c0,0 11.08056,-4.58909 20.10645,-1.16685c10.67532,4.04766 13.17195,12.58268 13.17195,12.58268l4.02402,-0.70226l-0.87746,1.95961c0,0 3.72446,2.78104 4.23943,9.46828c0.22571,2.93097 -1.53438,7.5812 -1.53438,7.5812l1.38488,4.91708c0,0 -1.51488,2.49519 -2.01718,4.50734c-0.87408,3.50167 -1.06082,8.14389 -1.53321,9.0508c-0.52077,0.99976 -3.42049,2.74815 -3.42049,2.74815c0,0 -3.88873,3.55265 -6.83274,4.47463c-7.85602,2.4603 -17.79145,2.75915 -17.79145,2.75915z" fill="#000000"/><path d="M209.63303,329.1657l-5.87106,3.03205" fill="none"/><path d="M272.49465,335.90245l-2.65146,-3.72845" fill="none"/><path d="M274.92209,308.50667l4.81383,-1.51814" fill="none"/><path d="M274.90657,317.12927l4.04699,0.38626" fill="none"/></g><path d="M220.80711,316.89453c-1.99973,-11.25804 5.50555,-22.00553 16.76359,-24.0053c11.258,-1.99973 22.00554,5.50556 24.00529,16.76359c1.87495,10.55547 -5.08635,22.32567 -16.34436,24.3254c-11.258,1.99973 -22.42476,-5.82569 -24.4245,-17.08369z" fill="#ffffff" stroke-width="1.5" stroke-linecap="butt"/><path d="M220.15721,317.10233c0,0 -10.44287,-22.89317 18.04339,-30.06795c13.56879,-3.41755 20.52874,10.06232 23.22473,18.31051c1.08092,3.30701 1.21783,6.14337 1.21783,6.14337c0,0 -3.42244,-1.86024 -5.55812,-3.18586c-2.70634,-1.67983 -7.66507,0.58334 -7.66507,0.58334l-0.88715,-5.05629c0,0 -1.56692,2.82722 -1.8546,4.30183c-0.37367,1.91532 -0.1978,6.2177 -0.1978,6.2177l-4.62144,-4.77916c0,0 -0.29029,2.84544 -0.04979,4.26632c0.25607,1.51269 1.54236,4.55165 1.54236,4.55165c0,0 -3.67067,-1.77096 -5.22077,-3.25443c-1.92595,-1.84319 -5.45417,-6.96167 -5.45417,-6.96167c0,0 -4.66199,4.24961 -6.94753,5.87994c-1.73247,1.23585 -5.57188,3.05067 -5.57188,3.05067z" fill="#000000" stroke-width="1" stroke-linecap="round"/><path d="M259.07522,321.68269c-3.12771,1.16048 -17.01137,6.0268 -25.08116,5.35929c-9.40719,-0.77811 -8.85511,-7.51505 -8.85511,-7.51505" fill="none" stroke-width="1.5" stroke-linecap="round"/><path d="M250.44714,328.18875c0,0 -2.43653,1.09711 -3.84858,1.32627c-1.61524,0.26212 -5.31549,0.16081 -5.31549,0.16081" fill="none" stroke-width="1.5" stroke-linecap="round"/><g fill="#000000" stroke-width="1.5" stroke-linecap="butt"><path d="M226.22663,316.87114c-0.34125,-1.92117 0.93952,-3.75523 2.86069,-4.0965c1.92117,-0.34125 3.75525,0.93951 4.09651,2.86069c0.34124,1.92117 -0.93955,3.75522 -2.8607,4.0965c-1.92117,0.34125 -3.75523,-0.93951 -4.09651,-2.86068z"/><path d="M255.69233,311.63721c-0.34125,-1.92117 0.93954,-3.75525 2.86069,-4.09651c1.92116,-0.34125 3.75521,0.93951 4.09649,2.86068c0.34125,1.92117 -0.93953,3.75523 -2.86069,4.0965c-1.92116,0.34125 -3.75523,-0.93955 -4.0965,-2.8607z"/></g></g></g></g></g></svg>