<svg version="1.1" xmlns="http://www.w3.org/2000/svg" xmlns:xlink="http://www.w3.org/1999/xlink" width="378" height="460.00001" viewBox="0,0,378,460.00001"><defs><linearGradient x1="320" y1="-67.5" x2="320" y2="269.5" gradientUnits="userSpaceOnUse" id="color-1"><stop offset="0" stop-color="#ffffd1"/><stop offset="1" stop-color="#f1f19c"/></linearGradient></defs><g transform="translate(-131,83.00001)"><g data-paper-data="{&quot;isPaintingLayer&quot;:true}" stroke-miterlimit="10" stroke-dasharray="" stroke-dashoffset="0" style="mix-blend-mode: normal"><path d="M145.24891,375c-6.76488,0 -12.24891,-5.33739 -12.24891,-11.9214v-432.15721c0,-6.58401 5.48402,-11.9214 12.24891,-11.9214h349.50219c6.76488,0 12.2489,5.33739 12.2489,11.9214v432.15721c0,6.584 -5.48402,11.9214 -12.2489,11.9214z" fill="#535311" fill-rule="nonzero" stroke="#212108" stroke-width="4" stroke-linecap="butt" stroke-linejoin="miter"/><path d="M160.66812,361.5c-6.16798,0 -11.16812,-4.94148 -11.16812,-11.03711v-406.92577c0,-6.09563 5.00014,-11.03711 11.16812,-11.03711h318.66376c6.16798,0 11.16812,4.94149 11.16812,11.03712v406.92577c0,6.09563 -5.00014,11.03711 -11.16812,11.03711z" fill="url(#color-1)" fill-rule="nonzero" stroke="#212108" stroke-width="4.5" stroke-linecap="butt" stroke-linejoin="miter"/><path d="M439.9265,254.75058l-101.8037,-32.05321l-84.04908,65.67158l-0.97943,-106.64411l-88.4205,-59.68273l101.12036,-33.87046l29.45667,-102.54058l63.43118,85.72391l106.64423,-3.71076l-61.83648,86.86226z" fill-opacity="0.17647" fill="#212108" fill-rule="nonzero" stroke="none" stroke-width="2.57572" stroke-linecap="butt" stroke-linejoin="miter"/><text transform="translate(160.5,-35.68135) scale(0.61033,0.61033)" font-size="40" xml:space="preserve" fill="#212108" fill-rule="nonzero" stroke="none" stroke-width="1" stroke-linecap="butt" stroke-linejoin="miter" stroke-miterlimit="10" stroke-dasharray="" stroke-dashoffset="0" font-family="&quot;Allan-Regular&quot;, Sans Serif" font-weight="normal" text-anchor="start" style="mix-blend-mode: normal"><tspan x="0" dy="0">name: Terrance and Phillip</tspan><tspan x="0" dy="46.150000000000006px">age: 54 &amp; 53</tspan><tspan x="0" dy="46.150000000000006px">occupation: propaganda managers</tspan></text><g><path d="M432.53444,-56.08653h32.93116c6.43804,0 11.62097,5.18296 11.62097,11.62097v32.93116c0,6.43802 -5.18294,11.62098 -11.62097,11.62098h-32.93116c-6.43802,0 -11.62098,-5.18296 -11.62098,-11.62097v-32.93116c0,-6.43801 5.18296,-11.62097 11.62098,-11.62097z" fill="#a0a300" fill-rule="evenodd" stroke="#212108" stroke-width="2" stroke-linecap="round" stroke-linejoin="round"/><g fill="none" fill-rule="nonzero" stroke="none" stroke-width="1" stroke-linecap="butt" stroke-linejoin="miter" font-family="sans-serif" font-weight="normal" font-size="12" text-anchor="start"><g/><g data-paper-data="{&quot;index&quot;:null}"/></g></g><text transform="translate(159.5,52.54263) scale(0.41292,0.4579)" font-size="40" xml:space="preserve" fill="#212108" fill-rule="nonzero" stroke="none" stroke-width="1" stroke-linecap="butt" stroke-linejoin="miter" stroke-miterlimit="10" stroke-dasharray="" stroke-dashoffset="0" font-family="&quot;Allan-Regular&quot;, Sans Serif" font-weight="normal" text-anchor="start" style="mix-blend-mode: normal"><tspan x="0" dy="0">Description-</tspan><tspan x="0" dy="46.150000000000006px">Known for their crude and vulgar humor, Terrance and Phillip </tspan><tspan x="0" dy="46.150000000000006px">are two washed-up comedians that got kicked off the air due to </tspan><tspan x="0" dy="46.150000000000006px">certain… allegations… (that definitely do NOT regard soliciting </tspan><tspan x="0" dy="46.150000000000006px">farting videos from fans). Nevertheless, their affinity for </tspan><tspan x="0" dy="46.150000000000006px">flatulence did not go unnoticed by the MCS, and they were </tspan><tspan x="0" dy="46.150000000000006px">recruited by them in their darkest hour. The move from Canada </tspan><tspan x="0" dy="46.150000000000006px">to Cincinnati was a bit of an ordeal for them, but they quickly </tspan><tspan x="0" dy="46.150000000000006px">established themselves as some of the most competent </tspan><tspan x="0" dy="46.150000000000006px">subordinates of the syndicate, much to the surprise of literally </tspan><tspan x="0" dy="46.150000000000006px">everybody. Nowadays, they’re the MCS’s ultimate trump card </tspan><tspan x="0" dy="46.150000000000006px">- if the jobbers can’t get the job done, it’s time for trial by fart. </tspan><tspan x="0" dy="46.150000000000006px">When these two schmucks synchronize their bowel movements </tspan><tspan x="0" dy="46.150000000000006px">and combine their gasses, the sheer stench they create will </tspan><tspan x="0" dy="46.150000000000006px">destroy the resolve of anyone in their way.</tspan></text><path d="M160.16667,-30.16667v-1.66667h252.16667v1.66667z" fill="#212108" fill-rule="nonzero" stroke="none" stroke-width="0" stroke-linecap="butt" stroke-linejoin="miter"/><path d="M160.16667,-0.66667v-1.66667h252.16667v1.66667z" fill="#212108" fill-rule="nonzero" stroke="none" stroke-width="0" stroke-linecap="butt" stroke-linejoin="miter"/><path d="M160.16667,29.33333v-1.66667h252.16667v1.66667z" fill="#212108" fill-rule="nonzero" stroke="none" stroke-width="0" stroke-linecap="butt" stroke-linejoin="miter"/><g fill-rule="nonzero" stroke="none" stroke-width="0" stroke-linecap="round" stroke-linejoin="miter"><path d="M459.83357,-18.68624l1.03215,4.3694c0,0 -7.95101,-1.64713 -10.01459,-1.82523c-1.04825,-0.09048 -1.5454,0.8275 -1.5454,0.8275l0.30964,10.94068h-2.16749l0.51607,-11.25034c0,0 -0.37187,-0.89907 -2.2858,-0.47999c-2.02868,0.44422 -9.48059,1.9938 -9.48059,1.9938l1.65142,-4.47261l-12.07605,-10.01176l2.89,-1.23857l-1.96107,-7.63785l7.22498,1.03214l1.54822,-3.30285c0,0 5.86527,6.6092 6.08963,5.57356c0.55285,-2.55195 -1.85785,-13.31462 -1.85785,-13.31462l4.54142,2.1675l4.4382,-8.60119l4.4382,8.25713l4.12856,-2.06429c0,0 -2.37559,10.90418 -1.54822,13.72747c0.33911,1.15718 6.19285,-5.8832 6.19285,-5.8832l1.75464,3.81893l6.91534,-1.54821l-2.16749,7.43142l2.89,1.75464z" fill="#000000"/><path d="M460.88768,-17.89568l1.03214,4.3694c0,0 -7.95099,-1.64714 -10.01457,-1.82524c-1.04825,-0.09047 -1.54541,0.8275 -1.54541,0.8275l0.30964,10.94069h-2.1675l0.51606,-11.25032c0,0 -0.37189,-0.89908 -2.28581,-0.47999c-2.0287,0.44422 -9.4806,1.9938 -9.4806,1.9938l1.65142,-4.4726l-12.07605,-10.01176l2.89,-1.23856l-1.96105,-7.63785l7.22498,1.03213l1.54822,-3.30285c0,0 5.86528,6.6092 6.08963,5.57356c0.55285,-2.55195 -1.85786,-13.31463 -1.85786,-13.31463l4.54142,2.16749l4.4382,-8.60117l4.4382,8.25713l4.12856,-2.06428c0,0 -2.37559,10.90418 -1.5482,13.72749c0.33911,1.15716 6.19284,-5.88321 6.19284,-5.88321l1.75465,3.81893l6.91535,-1.54821l-2.16751,7.43141l2.88999,1.75464z" fill="#d9db56"/></g></g></g></svg>