<svg version="1.1" xmlns="http://www.w3.org/2000/svg" xmlns:xlink="http://www.w3.org/1999/xlink" width="124.74711" height="288.23838" viewBox="0,0,124.74711,288.23838"><defs><linearGradient x1="318.99781" y1="90.01664" x2="318.99781" y2="129.45021" gradientUnits="userSpaceOnUse" id="color-1"><stop offset="0" stop-color="#adad36" stop-opacity="0.66275"/><stop offset="1" stop-color="#adad36" stop-opacity="0"/></linearGradient><linearGradient x1="382.56304" y1="17.97456" x2="332.79105" y2="70.42368" gradientUnits="userSpaceOnUse" id="color-2"><stop offset="0" stop-color="#7f7f38"/><stop offset="1" stop-color="#515124"/></linearGradient><linearGradient x1="318.36226" y1="55.00441" x2="318.36226" y2="148.34352" gradientUnits="userSpaceOnUse" id="color-3"><stop offset="0" stop-color="#7f7f38"/><stop offset="1" stop-color="#515124"/></linearGradient></defs><g transform="translate(-266.73267,-11.38728)"><g stroke-miterlimit="10"><path d="M285.95178,293.0008c0,0 -14.22759,-53.08331 7.5288,-68.55172c21.75639,-15.46841 42.3736,-13.23538 58.24915,4.95316c15.87555,18.18854 3.56627,63.59856 3.56627,63.59856z" fill="#494920" stroke="none" stroke-width="1.5" stroke-linecap="butt"/><path d="M319.23703,299.62566v-58.6454h1.78314v58.6454z" fill-opacity="0.76471" fill="#292912" stroke="none" stroke-width="1.5" stroke-linecap="butt"/><path d="M282.22848,250.32007c0,0 -0.67152,-10.37185 5.50373,-27.51462c2.28097,-6.33207 6.64073,-17.78871 7.58123,-22.41602c3.56142,-17.52221 6.72767,-47.54754 6.72767,-47.54754h34.47399c0,0 4.27397,29.98093 8.21129,46.68064c1.43717,6.09556 7.504,16.92355 9.98383,27.32269c2.98956,12.53674 4.78754,23.47484 4.78754,23.47484z" fill="#bcbc52" stroke="#777734" stroke-width="1.5" stroke-linecap="butt"/><path d="M268.93088,208.44867c8.22265,-11.90152 15.99792,-39.96951 23.6256,-49.86816c1.74389,-2.2631 11.95194,-8.5388 11.95194,-8.5388l-5.03169,23.56096c0,0 -2.26609,20.73373 -6.95245,29.26066c-3.84625,6.99834 8.20912,15.74962 8.20912,15.74962c0,0 -0.66536,7.89504 -7.32861,14.06799c-7.60434,7.04477 -9.04983,6.53716 -9.04983,6.53716c0,0 -22.73288,-20.19063 -15.42408,-30.76943z" fill="#bcbc52" stroke="#777734" stroke-width="1.5" stroke-linecap="butt"/><path d="M304.41863,250.32007l7.83071,-97.47817h15.34819l9.71008,97.47817z" fill="#777734" stroke="#777734" stroke-width="1.5" stroke-linecap="butt"/><path d="M337.65064,218.61295c0,0 13.05538,-9.35128 9.20912,-16.34962c-4.68636,-8.52693 -7.35245,-28.66066 -7.35245,-28.66066l-3.09836,-22.76096c0,0 7.60805,3.80903 9.35194,6.07213c7.62767,9.89865 16.26961,36.63331 24.49226,48.53483c7.3088,10.57881 -16.22407,33.76942 -16.22407,33.76942c0,0 -1.04549,0.50762 -8.64983,-6.53716c-7.60434,-7.04478 -7.72861,-14.06798 -7.72861,-14.06798z" fill="#bcbc52" stroke="#777734" stroke-width="1.5" stroke-linecap="butt"/><path d="M293.40085,174.2311l2.40749,-16.11427h12.38594l-2.90586,18.75597z" fill="#bcbc52" stroke="none" stroke-width="1.5" stroke-linecap="butt"/><path d="M333.6956,176.87279l-2.90586,-18.75597h15.58594l-0.79251,16.11427z" fill="#bcbc52" stroke="none" stroke-width="1.5" stroke-linecap="butt"/><path d="M300.50624,227.81348c0,0 -3.51221,5.45018 -6.46449,8.30617c-2.95228,2.85599 -6.8329,4.55753 -6.8329,4.55753" fill="none" stroke="#777734" stroke-width="1" stroke-linecap="round"/><path d="M350.77521,240.47718c0,0 -3.88062,-1.70154 -6.8329,-4.55753c-2.95228,-2.85599 -6.46449,-8.30617 -6.46449,-8.30617" fill="none" stroke="#777734" stroke-width="1" stroke-linecap="round"/><path d="M323.33902,164.18419c-0.63879,0.98778 -1.73256,1.83766 -2.12371,3.17654c-0.87759,3.00387 -0.70443,7.55472 0.50313,10.39297c0.38032,0.89391 0.93287,1.39074 1.30225,2.37221c1.19752,3.18185 2.38426,6.8773 2.51945,10.78116c0.19107,5.51698 -1.54007,9.8134 -3.00915,14.35746c-0.56445,1.74592 -0.81285,4.0136 -1.08644,5.98786c-0.09,0.64941 -0.4755,1.33808 -0.48951,2.02471c-0.02013,0.98668 0.11873,1.9982 0,2.96203c-0.26111,2.11969 -0.52992,2.66122 -0.14328,5.80544c0.72609,5.90473 4.17448,9.26427 4.15526,15.64376c-0.00752,2.49572 0.16148,4.18509 -0.22691,6.39233c-0.33465,1.90186 -1.59246,5.32179 -2.42763,7.33683c-0.78503,-0.03246 -1.59668,-0.04738 -2.37702,-0.03132c-0.41499,-0.12531 -0.84647,-0.19141 -1.28937,-0.19141c-0.36441,0 -0.72109,0.04474 -1.06721,0.13041c0.45151,-2.21413 1.14034,-4.29692 1.8564,-6.29191c0.29161,-0.81244 1.19195,-3.06727 1.23319,-3.81379c0.05021,-0.90864 0.08384,-3.66048 -0.14328,-4.93672c-0.40918,-2.29925 -1.72604,-4.29244 -2.35222,-6.41904c-0.50101,-1.70151 -1.17382,-3.30066 -1.43284,-5.16981c-0.41523,-2.9963 -0.10498,-6.01631 -0.08363,-8.99295c0.00798,-1.11296 -0.13385,-2.25262 0,-3.33917c0.42775,-3.47253 1.15615,-7.62033 2.08961,-10.78116c0.92422,-3.12956 2.6118,-6.24053 2.4955,-10.04432c-0.08315,-2.71965 -1.14165,-5.07154 -1.89177,-7.315c-0.2824,-0.84462 -0.99544,-1.47985 -1.32015,-2.4368c-1.34773,-3.97189 -1.67315,-8.01836 -1.67315,-12.63234c0,-4.4679 1.94815,-7.93059 3.80484,-10.25837c0.17717,-0.22212 0.39928,-0.6673 0.64883,-1.1217c0.043,-0.08382 0.08804,-0.16421 0.13496,-0.24091c0.43925,-0.76566 0.94868,-1.44887 1.4427,-1.00331c1.18701,0 2.14927,1.73596 2.14927,3.87736c0,1.09866 -0.25329,2.0906 -0.66028,2.79612c-0.1274,0.31394 -0.27177,0.63741 -0.4308,0.97212z" fill="#494920" stroke="none" stroke-width="1.5" stroke-linecap="butt"/><path d="M303.55359,168.55247l-3.70272,-13.37828l5.20873,-6.88415l7.80592,-0.3427l9.75238,4.10109z" fill="#bcbc52" stroke="#777734" stroke-width="1.5" stroke-linecap="butt"/><path d="M319.98534,152.6207l6.1359,-3.67337l11.13926,1.00937l3.33529,6.70997l-3.32927,11.8858z" fill="#bcbc52" stroke="#777734" stroke-width="1.5" stroke-linecap="butt"/><path d="M314.04318,110.00002h12.86319l2.08307,38.29023c0,0 -5.68873,6.0431 -8.76993,6.0431c-2.90085,0 -9.2089,-7.0431 -9.2089,-7.0431z" fill="#ecec68" stroke="#000000" stroke-width="1.5" stroke-linecap="butt"/><g><path d="M284.28067,105.61515c0,-20.76334 16.15889,-37.59536 36.09191,-37.59536c19.93301,0 36.0919,16.83202 36.0919,37.59536c0,8.20432 -3.04026,17.55362 -8.32957,23.8291c-8.09681,9.60641 -20.25744,12.82619 -27.52248,12.8069c-3.92297,-0.01042 -15.36902,-2.39236 -23.75455,-9.9398c-7.57128,-6.81456 -12.57719,-16.84429 -12.57719,-26.6962z" fill="#ecec68" stroke="#000000" stroke-width="1.5" stroke-linecap="butt"/><path d="M283.33508,128.65772l21.39765,-19.81264c0,0 18.99155,-29.26143 27.52337,-31.37615c5.18322,-1.28473 18.8382,19.88483 18.8382,19.88483l3.56627,32.09647c0,0 -15.31724,-4.2472 -30.12005,-4.31921c-21.53424,-0.10475 -41.20544,3.5267 -41.20544,3.5267z" fill="url(#color-1)" stroke="none" stroke-width="1.5" stroke-linecap="butt"/><path d="M323.07165,106.14678c0,0 -0.13177,4.00028 2.0099,7.95152c1.94743,3.59288 5.35337,7.10724 4.56498,8.26652c-1.08565,1.59636 -5.25999,1.08626 -5.25999,1.08626" fill="none" stroke="#000000" stroke-width="1.5" stroke-linecap="round"/><path d="M334.97965,72.68331l21.75201,-59.29119l6.73892,15.30292l18.91374,-10.90497l-6.05148,21.35122l13.12052,3.26833z" fill="url(#color-2)" stroke="#42421e" stroke-width="1.5" stroke-linecap="butt"/><path d="M354.40401,70.44189c-3.2542,4.14203 -7.61854,1.66511 -12.71642,-2.34007c-5.09788,-4.00518 -8.99884,-8.02193 -5.74463,-12.16395c3.2542,-4.14202 21.71525,10.362 18.46104,14.50403z" fill="#393900" stroke="none" stroke-width="1.5" stroke-linecap="butt"/><path d="M346.10001,102.64773c0,9.83067 -3.17878,17.8 -7.1,17.8c-3.92122,0 -7.1,-7.96933 -7.1,-17.8c0,-9.83067 3.17878,-17.8 7.1,-17.8c3.92122,0 7.1,7.96933 7.1,17.8z" fill="#000000" stroke="none" stroke-width="0" stroke-linecap="butt"/><path d="M303.50001,133.90377c0,0 -2.71335,-7.1061 3.86676,-9.05082c2.54976,-0.75357 11.34404,1.90733 14.88324,2.00082c3.44893,0.09111 12.58606,-2.25712 14.8829,-1.4748c5.87752,2.00192 2.1671,8.5248 2.1671,8.5248c0,0 -9.66125,-2.76422 -17.2,-2.8c-9.80151,-0.04652 -18.6,2.8 -18.6,2.8z" fill="#ffffff" stroke="#000000" stroke-width="1" stroke-linecap="butt"/><path d="M327.93751,135.55377c0,0 -3.46867,0.70158 -6.49688,0.68444c-2.55014,-0.01444 -6.12812,-0.80944 -6.12812,-0.80944" fill="none" stroke="#000000" stroke-width="0.75" stroke-linecap="round"/><path d="M345.06251,117.67877c0,0 -1.89395,4.97204 -6.38295,4.89734c-4.23726,-0.07051 -6.11705,-5.14734 -6.11705,-5.14734" fill="none" stroke-opacity="0.55686" stroke="#000000" stroke-width="0.5" stroke-linecap="round"/><path d="M303.31251,128.92877c0,0 12.80868,-0.21191 18.88257,-0.0668c6.13386,0.14654 17.99243,0.9418 17.99243,0.9418" fill="none" stroke="#000000" stroke-width="0.5" stroke-linecap="round"/><path d="M303.41418,145.31939c-2.28919,-1.55731 -4.70312,-4.75128 -4.70312,-4.75128l-1.16539,7.35172c0,0 -4.1097,-1.03713 -7.03964,-5.80746c-1.84075,-2.99699 -2.71143,-5.72057 -2.71143,-5.72057l-1.83715,6.38301c0,0 -16.39031,-10.27992 -15.61026,-39.5899c0.92828,-34.87959 15.30999,-35.39278 38.61667,-45.49914c22.63721,-9.81606 38.78175,10.47775 38.78175,10.47775c0,0 9.67537,5.30567 14.94978,18.63868c9.32597,23.57483 -2.41085,48.72064 -2.41085,48.72064l-3.8457,-3.92671c0,0 -1.43978,4.06125 -2.98536,6.33076c-1.54558,2.26951 -5.39007,5.57438 -5.39007,5.57438c0,0 4.20614,-24.70819 0.59161,-40.82159c-3.41923,-15.24276 -15.11673,-20.36884 -15.11673,-20.36884c0,0 -10.48598,11.78872 -15.0712,21.723c-14.41455,31.23035 -10.20141,43.38509 -10.20141,43.38509c0,0 -2.56234,-0.54224 -4.85154,-2.09955z" fill="url(#color-3)" stroke="#42421e" stroke-width="1.5" stroke-linecap="butt"/><path d="M349.30212,99.72402l-7.43512,4.31717" fill="none" stroke="#000000" stroke-width="1.5" stroke-linecap="round"/></g></g></g></svg>