<svg version="1.1" xmlns="http://www.w3.org/2000/svg" xmlns:xlink="http://www.w3.org/1999/xlink" width="97.2263" height="256.0266" viewBox="0,0,97.2263,256.0266"><g transform="translate(-271.38685,-51.9867)"><g stroke-miterlimit="10"><path d="M271.38685,308.0133v-256.0266h97.2263v256.0266z" fill-opacity="0.01" fill="#000000" stroke="none" stroke-width="2" stroke-linecap="butt"/><path d="M281.03043,304.39159c0,0 -0.63536,-94.38387 -0.79335,-118.01201c-0.05451,-8.15261 8.18688,-36.76129 40.20201,-36.9211c31.60235,-0.15775 39.85672,29.48704 39.84884,36.89673c-0.07659,46.24274 0.65429,117.98648 0.65429,117.98648l-10.49667,0.09614l-0.15882,-114.84311c0,0 0.07549,-3.0993 -2.81625,-3.15415c-3.43441,-0.06514 -2.94538,3.11562 -2.94538,3.11562l0.20548,114.86995l-48.21366,0.07222l-0.30539,-115.23309c0,0 0.27949,-2.919 -2.8856,-2.93443c-3.11083,-0.01515 -2.81569,2.90899 -2.81569,2.90899l0.35311,115.0668z" fill="#5a5a07" stroke="none" stroke-width="0" stroke-linecap="butt"/><path d="M335.62761,200.33377c-0.57113,0 -1.03411,-0.46299 -1.03411,-1.03411c0,-0.57113 0.46299,-1.03413 1.03411,-1.03413c0.57113,0 1.03411,0.463 1.03411,1.03413c0,0.57113 -0.46299,1.03411 -1.03411,1.03411z" fill="#5a5a07" stroke="none" stroke-width="0" stroke-linecap="butt"/><path d="M330.36771,204.56937c-4.4635,-0.31439 -6.55245,-1.79392 -6.16985,-2.58011c0.11788,-0.24224 2.84645,1.06355 6.97038,1.3048c6.40897,0.37493 8.51033,-0.63173 8.51033,-0.63173v1.34616c0,0 -2.4135,1.04672 -9.31086,0.56089z" fill="#5a5a07" stroke="none" stroke-width="0" stroke-linecap="butt"/><path d="M302.55497,199.29966c0,-0.57113 0.46299,-1.03413 1.03411,-1.03413c0.57113,0 1.03413,0.463 1.03413,1.03413c0,0.57113 -0.463,1.03411 -1.03413,1.03411c-0.57113,0 -1.03411,-0.46299 -1.03411,-1.03411z" fill="#5a5a07" stroke="none" stroke-width="0" stroke-linecap="butt"/><path d="M308.84897,204.56937c-6.89736,0.48585 -9.31086,-0.56089 -9.31086,-0.56089v-1.34616c0,0 2.10136,1.00666 8.51033,0.63173c4.12393,-0.24126 6.85251,-1.54704 6.97039,-1.3048c0.3826,0.78618 -1.70634,2.26571 -6.16985,2.58011z" fill="#5a5a07" stroke="none" stroke-width="0" stroke-linecap="butt"/><path d="M320.12942,261.12113c-0.81895,0 -1.48284,-0.66389 -1.48284,-1.48284c0,-0.81895 0.66389,-1.48284 1.48284,-1.48284c0.81895,0 1.48284,0.66389 1.48284,1.48284c0,0.81895 -0.66389,1.48284 -1.48284,1.48284z" fill="#5a5a07" stroke="none" stroke-width="0" stroke-linecap="butt"/><path d="M296.06615,304.40603v-119.20147c0,0 0.75721,-9.73105 0.75721,-14.63937c0,-4.498 -0.75721,-13.6872 -0.75721,-13.6872c0,0 2.67319,-2.35297 4.6557,-3.74807c1.98251,-1.3951 5.17197,-2.80371 5.17197,-2.80371c0,0 -0.6016,40.10902 14.55952,40.03867c15.43477,-0.07162 13.83154,-40.03867 13.83154,-40.03867c0,0 3.91276,1.51959 6.16585,2.94655c2.25309,1.42695 4.75379,3.60523 4.75379,3.60523c0,0 -0.75721,9.42463 -0.75721,14.19201c0,4.84193 0.75721,14.63937 0.75721,14.63937v118.69667z" fill="#5a5a07" stroke="none" stroke-width="0" stroke-linecap="butt"/><path d="M275.92695,103.88009c0,0 6.16329,-5.92187 6.29161,-6.78761c0.33654,-2.27063 -0.16776,-40.17317 35.96775,-41.57382c44.63633,-0.91362 39.01489,35.34872 41.53088,42.1903c3.44981,9.38084 6.15664,17.40016 6.15664,17.40016c0,0 -2.76715,-2.05351 -4.0797,-3.13397c-1.2242,-1.00773 -3.80143,-3.14585 -3.80143,-3.14585c0,0 3.09111,10.3481 1.31092,20.69498c-1.5623,9.48098 -7.29782,17.22543 -7.29782,17.22543l-1.15522,-2.34735c0,0 -1.02266,2.19794 -2.16005,3.33274c-1.1374,1.13479 -3.43873,2.91273 -3.43873,2.91273l-0.09205,-3.70421c0,0 -7.0601,11.01795 -24.35066,10.87154c-16.30625,-0.25547 -26.07151,-10.6752 -26.07151,-10.6752l-0.1162,2.65484c0,0 -3.89477,-3.29276 -6.18145,-9.70754c-2.72545,-7.64567 -3.23946,-12.24324 -3.23946,-12.24324c0,0 -2.33908,1.89916 -5.71704,2.7744c-4.23278,1.09673 -6.94665,0.34526 -6.94665,0.34526c0,0 3.60795,-2.71717 5.58396,-4.76989c1.76007,-1.8284 2.64658,-3.37722 2.64658,-3.37722c0,0 -2.10758,1.0847 -4.23277,1.61795c-2.21739,0.5564 -4.03008,0.53093 -4.03008,0.53093c0,0 4.97492,-5.03728 7.03074,-10.87429c1.94102,-5.51108 2.09972,-10.95731 2.09972,-10.95731c0,0 -1.36165,0.66163 -3.33013,0.79513c-1.24776,0.08463 -2.37785,-0.0489 -2.37785,-0.0489z" fill="#5a5a07" stroke="none" stroke-width="0" stroke-linecap="butt"/><path d="M292.71283,115.20171c-0.57709,-7.29323 0.335,-17.15448 0.335,-17.15448c0,0 3.41059,-0.04124 13.91429,-3.14424c8.0696,-2.38394 20.54731,-9.48722 20.54731,-9.48722c0,0 -2.16005,3.00503 -3.40781,4.46015c-1.32651,1.54696 -3.99292,4.56297 -3.99292,4.56297c0,0 7.838,-1.66761 14.67476,-4.72931c8.56837,-3.53575 10.59252,-6.05309 12.95042,-4.5927c2.7829,1.72362 1.03006,23.1827 0.71846,28.74062c-0.42163,5.66922 -2.53327,9.49969 -3.15031,12.52053c-0.61704,3.02084 -0.4096,6.13662 -2.20622,16.0397c-1.12121,6.18021 -4.16183,8.92466 -10.01942,14.66081c-5.85759,5.73616 -9.05378,9.25275 -13.01359,9.32173c-3.81077,0.06639 -8.93565,-5.1002 -13.93542,-10.38244c-5.32393,-5.62474 -8.87489,-8.47713 -9.71551,-15.13975c-0.75707,-6.00039 -0.77653,-9.90853 -1.12266,-15.24835c-0.25298,-3.90273 -2.26119,-6.44504 -2.57636,-10.42801z" fill="#5a5a07" stroke="none" stroke-width="0" stroke-linecap="butt"/><path d="M340.78283,100.08135c0,0 1.52429,0.31807 4.2558,1.11029c2.49492,0.72361 4.44935,1.74403 4.44935,1.74403l0.1951,1.17035c0,0 -7.24963,-3.12997 -15.1158,-2.4706c-6.2896,0.52724 -9.96319,2.8124 -9.96319,2.8124l0.04575,-4.17683c0,0 3.12748,-1.70421 7.86366,-1.85557c4.90428,-0.15672 8.09084,0.59125 8.09084,0.59125z" fill="#5a5a07" stroke="none" stroke-width="0" stroke-linecap="butt"/><path d="M328.01869,143.0689c0.5704,0.21186 3.08357,1.39942 6.02385,2.59586c2.9637,1.20597 7.21362,2.29294 7.19412,2.4605c-0.02476,0.21265 -10.43477,0.22694 -13.67937,0.63224c-2.71902,0.33964 -6.68867,0.70564 -6.68867,0.70564c0,0 -7.10401,-1.16169 -13.27235,-2.44521c-4.94371,-1.02869 -10.39929,-1.66108 -10.40995,-1.75461c-0.01439,-0.12613 3.86835,-0.71071 6.82417,-1.39467c1.14585,-0.49661 5.43971,-1.48513 5.43971,-1.48513c0,0 4.95585,-0.27766 7.60826,0.579c2.84203,0.91791 2.83546,2.44556 3.0831,2.46906c0,0 1.18436,-1.74932 2.36886,-2.10461c1.18451,-0.35528 5.08219,-0.41633 5.50828,-0.25808z" fill="#5a5a07" stroke="none" stroke-width="0" stroke-linecap="butt"/><path d="M309.37072,147.62249c5.09114,1.02674 11.91756,2.80736 11.91756,2.80736c0,0 5.78976,-1.55585 8.44678,-1.8344c2.05992,-0.21596 11.216,-0.70654 11.26026,-0.33377c0.04328,0.36447 -9.03119,12.90033 -21.14808,12.44714c-13.76954,-0.43578 -22.86459,-15.13559 -22.82675,-15.30472c0.03784,-0.16913 7.2591,1.19165 12.35024,2.2184z" fill="#5a5a07" stroke="none" stroke-width="0" stroke-linecap="butt"/><path d="M320.34497,144.62881c-1.03376,0 -3.5381,-3.26042 -3.7867,-5.3637c-0.22243,-1.88186 1.31512,-3.82799 3.7867,-3.82799c2.47159,0 4.2021,0.49077 4.02999,4.18853c-0.14607,3.13818 -1.55841,5.00317 -4.02999,5.00317z" fill="#5a5a07" stroke="none" stroke-width="0" stroke-linecap="butt"/><path d="M323.94708,114.53509c0,0 0.1026,3.96976 0.00576,7.12662c-0.19174,6.25113 -1.08147,27.7607 -1.08147,27.7607l-2.98167,0.00864c0,0 -0.80294,-4.17274 -1.12322,-9.49979c-0.43353,-7.21063 -0.4495,-16.29321 -0.76344,-19.63229c-0.29758,-3.16513 -0.89593,-5.71453 -0.89593,-5.71453" fill="#5a5a07" stroke="none" stroke-width="0" stroke-linecap="round"/><path d="M294.41247,125.32493c0,0 -4.93211,-3.51705 -6.16417,-8.97502c-1.29636,-5.74284 -1.46118,-9.7328 0.48013,-9.99193c1.94131,-0.25915 2.70321,2.37692 3.73262,8.35569c1.0294,5.97877 1.95143,10.61127 1.95143,10.61127z" fill="#5a5a07" stroke="none" stroke-width="0" stroke-linecap="butt"/><path d="M294.20988,121.37737c0,0 -3.56385,-2.92338 -4.31816,-8.45061c-0.42079,-3.08327 2.15675,-2.28016 2.15675,-2.28016" fill="#5a5a07" stroke="none" stroke-width="0" stroke-linecap="round"/><path d="M297.22328,114.72147c0.07093,-4.89188 4.83834,-8.93609 10.21137,-8.8582c5.37302,0.0779 9.02724,4.2484 8.95632,9.14029c-0.07093,4.89188 -4.12352,8.79439 -9.49655,8.7165c-5.37302,-0.0779 -9.74207,-4.1067 -9.67114,-8.99859z" fill="#5a5a07" stroke="none" stroke-width="0" stroke-linecap="butt"/><path d="M301.66093,114.83941c0.03999,-2.75843 2.30855,-4.96213 5.06696,-4.92214c2.75843,0.03999 4.96213,2.30855 4.92214,5.06696c-0.03999,2.75843 -2.30854,4.96213 -5.06696,4.92214c-2.75843,-0.03999 -4.96213,-2.30855 -4.92214,-5.06696z" fill="#5a5a07" stroke="none" stroke-width="0" stroke-linecap="butt"/><path d="M324.27957,114.7222c0.20353,-4.88817 4.45264,-8.85847 9.77048,-8.85847c5.31783,0 9.27453,3.96607 9.27453,8.85847c0,4.8924 -3.88585,9.07104 -9.69964,9.14188c-5.52997,0.06739 -9.55792,-4.03692 -9.34537,-9.14188z" fill="#5a5a07" stroke="none" stroke-width="0" stroke-linecap="butt"/><path d="M328.8823,114.80775c0,-2.81845 2.2848,-5.10325 5.10325,-5.10325c2.81845,0 5.10325,2.2848 5.10325,5.10325c0,2.81845 -2.28479,5.10325 -5.10325,5.10325c-2.81845,0 -5.10325,-2.2848 -5.10325,-5.10325z" fill="#5a5a07" stroke="none" stroke-width="0" stroke-linecap="butt"/><path d="M300.6847,103.76964c0,0 3.36963,-1.819 8.03244,-2.28178c5.16698,-0.51283 7.76823,-0.06628 7.76823,-0.06628l0.29508,4.13747c0,0 -3.83554,-0.68065 -8.01795,-0.52113c-5.59346,0.21333 -6.64488,1.43293 -10.89774,1.89119c-3.64408,0.39266 -6.73723,0.15884 -6.73723,0.15884l-0.02589,-1.23155c0,0 3.59517,0.07398 5.23371,-0.06836c1.35239,-0.11749 3.9757,-0.93808 3.9757,-0.93808z" fill="#5a5a07" stroke="none" stroke-width="0" stroke-linecap="butt"/><path d="M348.64563,114.71366c1.0294,-5.97877 1.7913,-8.61483 3.73262,-8.35569c1.94131,0.25914 1.77649,4.24909 0.48013,9.99193c-1.23206,5.45797 -6.16417,8.97502 -6.16417,8.97502c0,0 0.92203,-4.6325 1.95143,-10.61127z" fill="#5a5a07" stroke="none" stroke-width="0" stroke-linecap="butt"/><path d="M349.05819,110.6466c0,0 2.57754,-0.80312 2.15675,2.28016c-0.75431,5.52723 -4.31816,8.45061 -4.31816,8.45061" fill="#5a5a07" stroke="none" stroke-width="0" stroke-linecap="round"/><path d="M314.57183,131.19283l1,-16.5" fill="none" stroke="#5a5a07" stroke-width="1.5" stroke-linecap="round"/><path d="M322.77183,117.19283l-0.6,15" fill="none" stroke="#5a5a07" stroke-width="1.5" stroke-linecap="round"/><path d="M329.87183,114.69283l0.7,12.7" fill="none" stroke="#5a5a07" stroke-width="1.5" stroke-linecap="round"/><path d="M312.05663,96.89496c3.62799,1.55485 4.74367,6.32551 1.77694,9.25003c-1.7947,1.76916 -9.77916,3.1447 -12.20853,2.03657c-3.90096,-1.77939 -3.35774,-7.84825 -0.75366,-10.40929c2.5134,-2.47187 8.11068,-2.44273 10.98541,-0.90954z" fill="#8f8f0b" stroke="none" stroke-width="0.5" stroke-linecap="butt"/><path d="M345.08741,105.75307c-2.01538,9.06919 -17.03121,7.83766 -16.51558,-2.16025c0.40915,-7.93318 16.5,-3.76497 16.5,2.13688z" fill="#8f8f0b" stroke="none" stroke-width="0.5" stroke-linecap="butt"/><path d="M298.15571,113.87671c-0.88388,0.88388 -1.76777,0 -1.76777,0l-0.8,-0.8c-2.50547,-3.06656 -2.98363,2.64226 -2.86929,4.22706c0,0 0.08906,1.24682 -1.15776,1.33588c-1.24682,0.08906 -1.33588,-1.15776 -1.33588,-1.15776c-0.19795,-2.80145 0.58195,-9.32654 5.34764,-7.77305c0.75927,0.2475 1.18871,1.06674 1.78306,1.60011l0.8,0.8c0,0 0.88388,0.88388 0,1.76777z" fill="#8f8f0b" stroke="none" stroke-width="0.5" stroke-linecap="butt"/><path d="M351.17183,123.74283c-1.25,0 -1.25,-1.25 -1.25,-1.25v-0.3c0.00072,-0.13048 0.0018,-0.27306 0.00193,-0.42435c-1.75393,3.077 -4.49925,6.2056 -7.87571,7.58009c-2.56846,1.04556 -5.36992,1.20678 -7.99722,2.03543c-2.81594,0.88814 -5.44239,2.18762 -8.3577,2.7391c-2.98655,0.56495 -6.29351,0.06727 -9.31179,-0.08353c-2.3628,-0.22473 -4.82413,-0.20702 -7.06312,-1.08193c-7.53425,-2.94409 -11.92331,-10.04877 -15.36443,-16.90577c0,0 -0.55902,-1.11803 0.55902,-1.67705c1.11803,-0.55902 1.67705,0.55902 1.67705,0.55902c3.14132,6.30823 7.12715,12.94618 14.03557,15.69423c1.96845,0.78302 4.25621,0.71965 6.33688,0.91807c2.80003,0.14011 5.91734,0.64077 8.68821,0.11647c2.79516,-0.5289 5.33525,-1.81294 8.0423,-2.6609c6.2089,-1.94489 11.01539,-2.34777 14.46027,-8.46646c0.13391,-0.30623 0.30886,-1.17323 0.7445,-1.5906c-0.09072,0.04844 -0.18499,0.09946 -0.26581,0.14605c-0.24488,0.24825 -0.49304,0.50064 -0.71688,0.63174l-1.12168,1.21515c-0.2285,0.24912 -0.55671,0.40529 -0.9214,0.40529c-0.69036,0 -1.25,-0.55964 -1.25,-1.25c0,-0.32326 0.12271,-0.61787 0.32409,-0.83977l0.89679,-0.99644l0.01253,0.01128l0.01969,-0.02133l0.0108,-0.03541c0.03592,-0.03155 0.0728,-0.06362 0.11061,-0.09612l0.15698,-0.17006l0.02122,0.01959c0.18051,-0.14967 0.37778,-0.30486 0.58741,-0.45696c0.68679,-1.46355 3.06434,-2.07125 4.58241,-0.89748c1.37549,1.06354 1.47037,4.02067 1.47747,5.5827v0.3c0,0 0,1.25 -1.25,1.25z" fill="#8f8f0b" stroke="none" stroke-width="0.5" stroke-linecap="butt"/><path d="M333.99858,102.13587c0.66059,-0.27339 1.35516,-0.55659 1.42811,-0.56877c0.65438,-0.10923 1.33837,-0.12304 1.99029,0c2.90668,0.54858 3.53887,2.41938 2.97559,4.24243c-0.0646,0.70968 -0.36015,1.43725 -0.925,2.05515c-0.38579,0.42203 -0.75835,0.69387 -1.13348,0.86818c-1.87278,1.4893 -4.49461,1.80161 -6.15556,-1.23408c-0.29486,-0.53892 -0.40418,-1.0956 -0.44246,-1.66146c-0.3848,-0.82786 -0.38576,-1.6468 0.27383,-2.24206c0.08389,-0.63772 0.72072,-0.92986 0.77717,-0.95457l0.0505,-0.07833c0,0 0.50024,-0.56277 1.16101,-0.4265z" fill="#5a5a07" stroke="none" stroke-width="0.5" stroke-linecap="butt"/><path d="M308.5525,98.88832c0.34956,-0.08371 0.68576,-0.0817 0.977,0.0413c1.91439,0.80848 1.50408,2.87154 0.80565,4.12037c-0.63379,1.13325 -2.17177,2.0581 -3.69159,2.2578c-2.07138,0.47803 -4.39253,0.02278 -5.03917,-1.76825c-0.57517,-1.59308 -0.1105,-2.68528 0.82368,-3.41034c0.72626,-0.71261 1.92338,-1.10474 3.16452,-1.16855c0.43285,-0.20069 0.87323,-0.34403 1.28597,-0.4178c0.49445,0.07151 0.9889,0.14301 1.48335,0.21452z" fill="#5a5a07" stroke="none" stroke-width="0.5" stroke-linecap="butt"/></g></g></svg>