<svg version="1.1" xmlns="http://www.w3.org/2000/svg" xmlns:xlink="http://www.w3.org/1999/xlink" width="378" height="460.00001" viewBox="0,0,378,460.00001"><defs><linearGradient x1="320" y1="-67.5" x2="320" y2="269.5" gradientUnits="userSpaceOnUse" id="color-1"><stop offset="0" stop-color="#ffffd1"/><stop offset="1" stop-color="#f1f19c"/></linearGradient></defs><g transform="translate(-131,83.00001)"><g data-paper-data="{&quot;isPaintingLayer&quot;:true}" stroke-miterlimit="10" stroke-dasharray="" stroke-dashoffset="0" style="mix-blend-mode: normal"><path d="M145.24891,375c-6.76488,0 -12.24891,-5.33739 -12.24891,-11.9214v-432.15721c0,-6.58401 5.48402,-11.9214 12.24891,-11.9214h349.50219c6.76488,0 12.2489,5.33739 12.2489,11.9214v432.15721c0,6.584 -5.48402,11.9214 -12.2489,11.9214z" fill="#535311" fill-rule="nonzero" stroke="#212108" stroke-width="4" stroke-linecap="butt" stroke-linejoin="miter"/><path d="M160.66812,361.5c-6.16798,0 -11.16812,-4.94148 -11.16812,-11.03711v-406.92577c0,-6.09563 5.00014,-11.03711 11.16812,-11.03711h318.66376c6.16798,0 11.16812,4.94149 11.16812,11.03712v406.92577c0,6.09563 -5.00014,11.03711 -11.16812,11.03711z" fill="url(#color-1)" fill-rule="nonzero" stroke="#212108" stroke-width="4.5" stroke-linecap="butt" stroke-linejoin="miter"/><path d="M439.9265,254.75058l-101.8037,-32.05321l-84.04908,65.67158l-0.97943,-106.64411l-88.4205,-59.68273l101.12036,-33.87046l29.45667,-102.54058l63.43118,85.72391l106.64423,-3.71076l-61.83648,86.86226z" fill-opacity="0.17647" fill="#212108" fill-rule="nonzero" stroke="none" stroke-width="2.57572" stroke-linecap="butt" stroke-linejoin="miter"/><text transform="translate(160.5,-35.68135) scale(0.61033,0.61033)" font-size="40" xml:space="preserve" fill="#212108" fill-rule="nonzero" stroke="none" stroke-width="1" stroke-linecap="butt" stroke-linejoin="miter" stroke-miterlimit="10" stroke-dasharray="" stroke-dashoffset="0" font-family="&quot;Allan-Regular&quot;, Sans Serif" font-weight="normal" text-anchor="start" style="mix-blend-mode: normal"><tspan x="0" dy="0">name: Flash Monolith</tspan><tspan x="0" dy="46.150000000000006px">age: secret age</tspan><tspan x="0" dy="46.150000000000006px">occupation: object of mass destruction</tspan></text><g><path d="M432.53444,-56.08653h32.93116c6.43804,0 11.62097,5.18296 11.62097,11.62097v32.93116c0,6.43802 -5.18294,11.62098 -11.62097,11.62098h-32.93116c-6.43802,0 -11.62098,-5.18296 -11.62098,-11.62097v-32.93116c0,-6.43801 5.18296,-11.62097 11.62098,-11.62097z" fill="#a0a300" fill-rule="evenodd" stroke="#212108" stroke-width="2" stroke-linecap="round" stroke-linejoin="round"/><g fill="none" fill-rule="nonzero" stroke="none" stroke-width="1" stroke-linecap="butt" stroke-linejoin="miter" font-family="sans-serif" font-weight="normal" font-size="12" text-anchor="start"><g/><g data-paper-data="{&quot;index&quot;:null}"/></g></g><path d="M160.16667,-30.16667v-1.66667h252.16667v1.66667z" fill="#212108" fill-rule="nonzero" stroke="none" stroke-width="0" stroke-linecap="butt" stroke-linejoin="miter"/><path d="M160.16667,-0.66667v-1.66667h252.16667v1.66667z" fill="#212108" fill-rule="nonzero" stroke="none" stroke-width="0" stroke-linecap="butt" stroke-linejoin="miter"/><path d="M160.16667,29.33333v-1.66667h252.16667v1.66667z" fill="#212108" fill-rule="nonzero" stroke="none" stroke-width="0" stroke-linecap="butt" stroke-linejoin="miter"/><g fill-rule="nonzero" stroke="#000000" stroke-width="1.5" stroke-linecap="round" stroke-linejoin="miter"><path d="M441.80862,-27.03955c0,0 1.69005,-5.61271 4.00703,-10.5959c1.76349,-3.79278 4.09435,-6.75304 5.49446,-8.54936c4.08443,-5.24031 13.22877,-5.16021 13.22877,-5.16021l0.01788,10.48141c0,0 -3.5933,0.05984 -5.59747,1.38476c-1.68166,1.11173 -4.07849,5.22388 -4.07849,5.22388l5.55265,-0.14345l-0.13499,10.23937l-9.33124,0.18578c0,0 -3.15491,9.33613 -7.53661,12.69765c-6.94907,5.33113 -12.53276,4.67152 -12.53276,4.67152l0.21529,-10.80905c0,0 4.2052,-0.08736 6.00347,-1.66746c1.79224,-1.57479 4.69196,-7.95892 4.69196,-7.95892z" fill="#000000"/><path d="M443.39434,-25.52588c0,0 1.69005,-5.61271 4.00703,-10.5959c1.76349,-3.79278 4.09435,-6.75304 5.49446,-8.54936c4.08443,-5.24031 13.22877,-5.16021 13.22877,-5.16021l0.01788,10.48141c0,0 -3.5933,0.05984 -5.59747,1.38476c-1.68166,1.11173 -4.07849,5.22388 -4.07849,5.22388l5.55265,-0.14345l-0.13499,10.23937l-9.33124,0.18578c0,0 -3.15491,9.33613 -7.53661,12.69765c-6.94907,5.33112 -12.53276,4.67151 -12.53276,4.67151l0.21531,-10.80904c0,0 4.20518,-0.08736 6.00347,-1.66746c1.79223,-1.57477 4.69195,-7.95892 4.69195,-7.95892z" fill="#d9db56"/></g><text transform="translate(159.5,50.80667) scale(0.35306,0.3596)" font-size="40" xml:space="preserve" fill="#212108" fill-rule="nonzero" stroke="none" stroke-width="1" stroke-linecap="butt" stroke-linejoin="miter" stroke-miterlimit="10" stroke-dasharray="" stroke-dashoffset="0" font-family="&quot;Allan-Regular&quot;, Sans Serif" font-weight="normal" text-anchor="start" style="mix-blend-mode: normal"><tspan x="0" dy="0">Description-</tspan><tspan x="0" dy="46.150000000000006px">Archeologists discovered the remains of a hardened slab of what </tspan><tspan x="0" dy="46.150000000000006px">seems to be… mustard? After cleaning this mysterious rock, they </tspan><tspan x="0" dy="46.150000000000006px">discovered strange markings on it. Markings of a bygone era. The </tspan><tspan x="0" dy="46.150000000000006px">archeologists donated the obelisk to a museum right around the same </tspan><tspan x="0" dy="46.150000000000006px">time the MCS were conducting a raid for any valuables. When the </tspan><tspan x="0" dy="46.150000000000006px">museum closed up for the night, the 	MCS began their attack. During </tspan><tspan x="0" dy="46.150000000000006px">the raid, they stumbled across this yellow treasure. When they tried </tspan><tspan x="0" dy="46.150000000000006px">to move the obelisk it began to hum and vibrate until the curved F on </tspan><tspan x="0" dy="46.150000000000006px">its face lit up. Upon waking up, the slab turned down the resolution of </tspan><tspan x="0" dy="46.150000000000006px">everything within a 5 mile radius, which caused all the members in </tspan><tspan x="0" dy="46.150000000000006px">the raid to fall weak and dazed. Despite this, the team pushed </tspan><tspan x="0" dy="46.150000000000006px">through and was able to haul this thing back to headquarters. Due to </tspan><tspan x="0" dy="46.150000000000006px">its uncanny ability to make people fatigued and pixely, the MCS labeled </tspan><tspan x="0" dy="46.150000000000006px">the flash monolith as an Allstar as it's used as a great interrogation and </tspan><tspan x="0" dy="46.150000000000006px">defense tool. This was until December 31, 2020 when chunks of the flash </tspan><tspan x="0" dy="46.150000000000006px">monolith began to break away, not only that but its ability to mess with </tspan><tspan x="0" dy="46.150000000000006px">peoples cognitive function seemingly disappeared. The mosaic effect was </tspan><tspan x="0" dy="46.150000000000006px">still in tact so now employees just go 480p occasionally.</tspan></text></g></g></svg>