<svg version="1.1" xmlns="http://www.w3.org/2000/svg" xmlns:xlink="http://www.w3.org/1999/xlink" width="751.27475" height="424.06841" viewBox="0,0,751.27475,424.06841"><defs><linearGradient x1="318.60948" y1="-3.22152" x2="318.60948" y2="364.74051" gradientUnits="userSpaceOnUse" id="color-1"><stop offset="0" stop-color="#ffffff"/><stop offset="1" stop-color="#fdffd4"/></linearGradient><linearGradient x1="-54.16666" y1="25.54984" x2="694.16667" y2="25.54984" gradientUnits="userSpaceOnUse" id="color-2"><stop offset="0" stop-color="#a5a02c"/><stop offset="1" stop-color="#7d690f"/></linearGradient></defs><g transform="translate(54.16666,4.74051)"><g stroke-miterlimit="10"><path d="M-47.77957,-3.22152h732.7781v367.96203h-732.7781z" fill="url(#color-1)" fill-rule="evenodd" stroke="none" stroke-width="2.07968" stroke-linecap="round" stroke-linejoin="round"/><path d="M-54.16666,55.84018v-60.58069h748.33333v60.58069z" fill="url(#color-2)" fill-rule="nonzero" stroke="none" stroke-width="0" stroke-linecap="butt" stroke-linejoin="miter"/><path d="M696.97043,419.14145c-0.00002,0.02694 -0.02188,0.04879 -0.04884,0.04879c-0.02694,0 -0.04881,-0.02184 -0.04884,-0.04879c0.00002,-0.02694 0.02188,-0.04879 0.04884,-0.04879c0.02694,0 0.04881,0.02184 0.04884,0.04879z" fill="#ffffff" fill-rule="nonzero" stroke="#000000" stroke-width="0.27531" stroke-linecap="butt" stroke-linejoin="miter"/><text transform="translate(5.53532,39.86974) scale(1.12901,0.9749)" font-size="40" xml:space="preserve" fill="#ffffff" fill-rule="nonzero" stroke="none" stroke-width="1" stroke-linecap="butt" stroke-linejoin="miter" font-family="&quot;Allan-Bold&quot;, Sans Serif" font-weight="normal" text-anchor="start"><tspan x="0" dy="0">CREDITS: ThatK10Guy &amp; Lonrad</tspan></text><g fill-rule="nonzero" stroke-linejoin="miter"><g stroke="#ffffff" stroke-width="10"><path d="M21.08493,158.14481l-4.42366,-63.62178l117.7003,-8.18383l4.42369,63.62178z" fill="#003aff" stroke-linecap="butt"/><path d="M31.48093,160.87802l-4.98507,-71.69559l97.38653,-6.7714l4.98507,71.69559z" fill="#ffffff" stroke-linecap="butt"/><g><path d="M124.65152,133.50707c-7.94042,1.89868 -43.10929,9.68697 -62.59306,6.3649c-22.71282,-3.87265 -19.52152,-18.87308 -19.52152,-18.87308" fill="#ffffff" stroke-linecap="round"/><path d="M35.64192,123.20122l11.09276,-2.65079" fill="#003aff" stroke-linecap="round"/><path d="M98.65131,146.38623c0,0 -5.7272,1.87706 -8.94888,2.05278c-3.68529,0.20104 -11.95967,-0.91224 -11.95967,-0.91224" fill="#003aff" stroke-linecap="round"/><g fill="#000000" stroke-linecap="butt"><path d="M52.13345,114.84968c-0.30526,-4.39038 3.00637,-8.19696 7.39676,-8.50223c4.39038,-0.30526 8.19695,3.00637 8.5022,7.39675c0.30526,4.39038 -3.00637,8.19696 -7.39676,8.50223c-4.39038,0.30526 -8.19695,-3.00637 -8.5022,-7.39675z"/><path d="M119.47024,110.16769c-0.30526,-4.39038 3.00637,-8.19695 7.39676,-8.5022c4.39038,-0.30526 8.19695,3.00637 8.5022,7.39675c0.30526,4.39038 -3.00637,8.19696 -7.39676,8.50223c-4.39038,0.30526 -8.19695,-3.00637 -8.5022,-7.39676z"/></g></g></g><g stroke="#000000" stroke-width="2"><path d="M21.08493,158.14481l-4.42366,-63.62178l117.7003,-8.18383l4.42369,63.62178z" fill="#003aff" stroke-linecap="butt"/><path d="M31.48093,160.87802l-4.98507,-71.69559l97.38653,-6.7714l4.98507,71.69559z" fill="#ffffff" stroke-linecap="butt"/><g><path d="M124.65152,133.50707c-7.94042,1.89868 -43.10929,9.68697 -62.59306,6.3649c-22.71282,-3.87265 -19.52152,-18.87308 -19.52152,-18.87308" fill="#ffffff" stroke-linecap="round"/><path d="M35.64191,123.20122l11.09276,-2.65079" fill="#003aff" stroke-linecap="round"/><path d="M98.65131,146.38623c0,0 -5.7272,1.87706 -8.94888,2.05278c-3.68529,0.20104 -11.95967,-0.91224 -11.95967,-0.91224" fill="#003aff" stroke-linecap="round"/><g fill="#000000" stroke-linecap="butt"><path d="M52.13345,114.84969c-0.30526,-4.39038 3.00637,-8.19696 7.39676,-8.50223c4.39038,-0.30526 8.19695,3.00637 8.5022,7.39675c0.30526,4.39038 -3.00637,8.19696 -7.39676,8.50223c-4.39038,0.30526 -8.19695,-3.00637 -8.5022,-7.39675z"/><path d="M119.47024,110.16769c-0.30526,-4.39038 3.00637,-8.19695 7.39676,-8.5022c4.39038,-0.30526 8.19695,3.00637 8.5022,7.39675c0.30526,4.39038 -3.00637,8.19696 -7.39676,8.50223c-4.39038,0.30526 -8.19695,-3.00637 -8.5022,-7.39676z"/></g></g></g></g><text transform="translate(168.00001,101.5) scale(0.8467,0.8467)" font-size="40" xml:space="preserve" fill="#797621" fill-rule="nonzero" stroke="none" stroke-width="1" stroke-linecap="butt" stroke-linejoin="miter" font-family="&quot;Allan-Regular&quot;, Sans Serif" font-weight="normal" text-anchor="start"><tspan x="0" dy="0">-Vocal 5 &amp; Allstar 5 animations</tspan><tspan x="0" dy="46.150000000000006px">-Achievement Icons</tspan><tspan x="0" dy="46.150000000000006px">-Creator of Howard</tspan></text><g fill-rule="nonzero" stroke-linejoin="miter"><g stroke="#ffffff" stroke-width="10"><path d="M22.22682,272.0069c-2.63684,-29.55236 19.18255,-55.64686 48.73491,-58.28367c29.55236,-2.63684 55.64689,19.18255 58.28367,48.73491c2.63684,29.55236 -19.18255,55.64686 -48.73491,58.28367c-29.55236,2.63684 -55.64686,-19.18255 -58.28367,-48.73491z" fill="#ff3ef1" stroke-linecap="butt"/><g><path d="M123.87556,288.27813c-8.25773,2.14622 -44.84481,11.00311 -65.27046,7.9305c-23.81082,-3.58184 -20.78311,-19.32044 -20.78311,-19.32044" fill="none" stroke-linecap="round"/><path d="M42.19873,276.33371l-11.5361,2.99655" fill="none" stroke-linecap="round"/><path d="M96.97246,302.26674c0,0 -5.9457,2.07835 -9.3083,2.32786c-3.84649,0.28542 -12.51478,-0.70858 -12.51478,-0.70858" fill="none" stroke-linecap="round"/><g fill="#000000" stroke-linecap="butt"><path d="M47.72316,270.26693c-0.40874,-4.58105 2.97359,-8.62611 7.55465,-9.03485c4.58105,-0.40874 8.62611,2.97355 9.03485,7.55462c0.40874,4.58105 -2.97359,8.62612 -7.55465,9.03487c-4.58105,0.40874 -8.62611,-2.97359 -9.03485,-7.55465z"/><path d="M117.98459,263.99782c-0.40874,-4.58105 2.97359,-8.62611 7.55465,-9.03485c4.58105,-0.40874 8.62611,2.97355 9.03485,7.55462c0.40874,4.58105 -2.97359,8.62612 -7.55465,9.03487c-4.58105,0.40874 -8.62611,-2.97359 -9.03485,-7.55465z"/></g></g></g><g stroke="#000000" stroke-width="2"><path d="M22.22682,272.00691c-2.63684,-29.55236 19.18255,-55.64686 48.73491,-58.28367c29.55236,-2.63684 55.64689,19.18255 58.28367,48.73491c2.63684,29.55236 -19.18255,55.64686 -48.73491,58.28367c-29.55236,2.63684 -55.64686,-19.18255 -58.28367,-48.73491z" fill="#ff3ef1" stroke-linecap="butt"/><g><path d="M123.87556,288.27814c-8.25773,2.14622 -44.84481,11.00311 -65.27046,7.9305c-23.81082,-3.58184 -20.78311,-19.32044 -20.78311,-19.32044" fill="none" stroke-linecap="round"/><path d="M42.19873,276.33371l-11.5361,2.99655" fill="none" stroke-linecap="round"/><path d="M96.97246,302.26673c0,0 -5.9457,2.07835 -9.3083,2.32786c-3.84649,0.28542 -12.51478,-0.70858 -12.51478,-0.70858" fill="none" stroke-linecap="round"/><g fill="#000000" stroke-linecap="butt"><path d="M47.72316,270.26693c-0.40874,-4.58105 2.97359,-8.62611 7.55465,-9.03485c4.58105,-0.40874 8.62611,2.97355 9.03485,7.55462c0.40874,4.58105 -2.97359,8.62612 -7.55465,9.03487c-4.58105,0.40874 -8.62611,-2.97359 -9.03485,-7.55465z"/><path d="M117.98459,263.99784c-0.40874,-4.58105 2.97359,-8.62611 7.55465,-9.03485c4.58105,-0.40874 8.62611,2.97355 9.03485,7.55462c0.40874,4.58105 -2.97359,8.62612 -7.55465,9.03487c-4.58105,0.40874 -8.62611,-2.97359 -9.03485,-7.55465z"/></g></g></g></g><text transform="translate(159.00001,254.75) scale(0.8467,0.91171)" font-size="40" xml:space="preserve" fill="#797621" fill-rule="nonzero" stroke="none" stroke-width="1" stroke-linecap="butt" stroke-linejoin="miter" font-family="&quot;Allan-Regular&quot;, Sans Serif" font-weight="normal" text-anchor="start"><tspan x="0" dy="0">-Melody 1 design and sound</tspan><tspan x="0" dy="46.150000000000006px">-Melody 4 sound and animation</tspan><tspan x="0" dy="46.150000000000006px">-Guy Londog is based off of</tspan></text><text transform="translate(20.50001,194.25) scale(0.73835,0.73835)" font-size="40" xml:space="preserve" fill="#797621" fill-rule="nonzero" stroke="none" stroke-width="1" stroke-linecap="butt" stroke-linejoin="miter" font-family="&quot;Allan-Bold&quot;, Sans Serif" font-weight="normal" text-anchor="start"><tspan x="0" dy="0">ThatK10Guy</tspan></text><text transform="translate(40.50001,349.25) scale(0.73836,0.73836)" font-size="40" xml:space="preserve" fill="#797621" fill-rule="nonzero" stroke="none" stroke-width="1" stroke-linecap="butt" stroke-linejoin="miter" font-family="&quot;Allan-Bold&quot;, Sans Serif" font-weight="normal" text-anchor="start"><tspan x="0" dy="0">Lonrad</tspan></text><path d="M156.50001,206v-6h240v6z" fill="#797621" fill-rule="nonzero" stroke="none" stroke-width="0" stroke-linecap="butt" stroke-linejoin="miter"/></g></g></svg>