<svg version="1.1" xmlns="http://www.w3.org/2000/svg" xmlns:xlink="http://www.w3.org/1999/xlink" width="107.30412" height="291.21881" viewBox="0,0,107.30412,291.21881"><defs><linearGradient x1="321.11124" y1="19.83173" x2="321.11124" y2="55.3436" gradientUnits="userSpaceOnUse" id="color-1"><stop offset="0" stop-color="#c4c456"/><stop offset="1" stop-color="#e3e364"/></linearGradient></defs><g transform="translate(-265.95833,-15.49621)"><g stroke-miterlimit="10"><path d="M266.73756,302.2633v-280.5266h106.5249v280.5266z" fill-opacity="0.01" fill="#000000" stroke="none" stroke-width="2" stroke-linecap="butt"/><g fill="#000000" stroke="none" stroke-linecap="butt"><path d="M265.95833,181.29495c0,0 10.41445,-24.86419 13.25791,-37.49822c3.25617,-14.46773 7.49209,-49.25178 7.49209,-49.25178h71c0,0 0.89267,32.77204 2.14603,47.94664c1.03988,12.58999 12.35397,38.80336 12.35397,38.80336l-10,-3.75c0,0 -3.16382,3.75 -5.25,3.75c-2.82576,0 -6.93984,-4.25 -10.25,-4.25c-4.09179,0 -7.48318,4.25 -12,4.25c-5.33736,0 -15.25,-5 -15.25,-5c0,0 -9.32438,5 -13.25,5c-10.80715,0 -27,-3.75 -27,-3.75z" stroke-width="0"/><path d="M319.26959,57.3136c19.92135,-0.40775 34.29716,9.72048 38.01869,29.92056c2.65369,14.40397 -1.7242,39.95803 -10.91132,55.86946c-6.79712,11.77213 -17.13197,16.56874 -24.48459,16.50648c-7.00836,-0.1098 -17.14471,0.31773 -24.13464,-12.34242c-5.12375,-9.28013 -15.04981,-36.08865 -11.44252,-57.78808c2.92153,-17.57425 16.7844,-31.53923 32.95439,-32.166z" stroke-width="1.5"/></g><path d="M314.87403,55.3436l6.33781,-35.51185l6.13661,35.51185c0,0 -2.65748,0 -4.32581,0c-2.28975,0 -8.14861,0 -8.14861,0z" fill="url(#color-1)" stroke="#89893c" stroke-width="1.5" stroke-linecap="butt"/><g stroke="#89893c" stroke-width="1.4"><path d="M304.61282,58.96521v-6.53901h32.29265v6.53901z" fill="#c4c456" stroke-linecap="butt"/><g><path d="M299.9421,69.14018c0,0 -1.75934,-3.27314 -1.509,-5.54738c0.41941,-3.81009 1.509,-5.83481 1.509,-5.83481h43.15746c0,0 1.65464,2.64047 1.50901,5.73421c-0.16068,3.41322 -1.50901,5.64798 -1.50901,5.64798z" fill="#c4c456" stroke-linecap="butt"/><path d="M306.12182,68.62281c0,0 -1.006,-3.51661 -1.006,-5.33181c0,-1.69797 1.006,-5.23121 1.006,-5.23121" fill="none" stroke-linecap="round"/><path d="M337.60966,58.46221c0,0 0.76601,3.80151 0.74835,5.53243c-0.01562,1.53067 -0.84895,4.32638 -0.84895,4.32638" fill="none" stroke-linecap="round"/><path d="M316.88603,68.22041c0,0 -0.83321,-2.62747 -0.8488,-4.12415c-0.01768,-1.69724 0.7482,-5.53347 0.7482,-5.53347" fill="none" stroke-linecap="round"/><path d="M327.44905,58.6634c0,0 0.80481,3.58948 0.80481,5.23121c0,1.57469 -0.80481,4.42641 -0.80481,4.42641" fill="none" stroke-linecap="round"/></g></g><path d="M284.24264,302.58592c0,0 -0.63536,-94.38387 -0.79335,-118.01201c-0.05451,-8.15261 16.18688,-37.09463 37.53535,-36.9211c22.60235,2.50892 36.85672,29.48704 36.84884,36.89673c-0.07659,46.24274 0.65429,117.98648 0.65429,117.98648l-9.49667,0.09614l-0.15882,-114.84311c0,0 0.17933,-3.24109 -3.1504,-3.22124c-3.18676,0.019 -3.11122,3.34938 -3.11122,3.34938c0,0 -0.84961,42.51674 -0.40642,61.30647c0.45814,19.42366 2.1119,53.39682 2.1119,53.39682l-46.64223,0.07222c0,0 1.74966,-30.56451 1.90258,-50.78703c0.13066,-17.27918 -1.04131,-63.25557 -1.04131,-63.25557c0,0 -0.07959,-2.68144 -2.54269,-2.748c-2.60216,-0.07031 -2.6586,2.67494 -2.6586,2.67494l-0.21832,113.92395z" fill="#ffffff" stroke="#000000" stroke-width="2" stroke-linecap="butt"/><path d="M320.80226,147.73057c0.60016,0.0111 2.76894,-0.62236 7.72696,-0.88175c4.68475,-0.24509 9.73697,-0.09023 9.75506,0.07517c0.03322,0.30383 -5.7876,8.2526 -16.79597,9.22922c-9.65917,0.53565 -17.3634,-7.9067 -17.33435,-8.04769c0.01638,-0.07951 4.22352,-1.09435 9.06771,-0.87808c4.20358,0.18767 6.8781,0.49013 7.5806,0.50313z" fill="#ffffff" stroke="#000000" stroke-width="1.9" stroke-linecap="butt"/><path d="M349.45582,112.50409c-0.22105,2.71584 -2.32537,9.16354 -5.2032,17.95012c-2.72535,8.32106 -5.77714,18.99761 -8.68539,21.59993c-5.97922,5.35023 -10.67339,9.3933 -14.71542,9.45764c-3.8899,0.06192 -10.3142,-5.41112 -15.41779,-10.33798c-2.63312,-2.54196 -5.41162,-12.99728 -7.66459,-21.00854c-2.39691,-8.52306 -4.19242,-14.60141 -4.35826,-16.51641c-1.78743,-14.15826 0.59759,-27.61711 0.59759,-27.61711c0,0 3.56221,8.01934 11.72976,7.96482c4.49679,-0.03002 10.19517,-1.7135 15.75708,-1.68873c6.62291,0.02949 13.1289,1.71547 18.24395,0.88274c6.16529,-1.00371 9.33753,-7.50495 9.35789,-7.49343c0.07718,0.04368 1.67645,12.19441 0.35838,26.80697z" fill="#ffffff" stroke="#000000" stroke-width="1.5" stroke-linecap="butt"/><path d="M294.95799,123.51949c0,0 -4.93211,-3.51705 -6.16417,-8.97502c-1.29636,-5.74284 -1.46118,-9.7328 0.48013,-9.99193c1.94131,-0.25915 2.70321,2.37692 3.73262,8.35569c1.0294,5.97877 1.95143,10.61127 1.95143,10.61127z" fill="#ffffff" stroke="#000000" stroke-width="1" stroke-linecap="butt"/><path d="M294.75543,119.5719c0,0 -3.56385,-2.92338 -4.31816,-8.45061c-0.42079,-3.08327 2.15675,-2.28016 2.15675,-2.28016" fill="none" stroke="#000000" stroke-width="0.25" stroke-linecap="round"/><path d="M297.76881,112.91603c0.07093,-4.89188 4.83834,-8.93609 10.21137,-8.8582c5.37302,0.0779 9.02724,4.2484 8.95632,9.14029c-0.07093,4.89188 -3.99852,8.16939 -9.37155,8.0915c-5.37302,-0.0779 -9.86707,-3.4817 -9.79614,-8.37359z" fill="#ffffff" stroke="#000000" stroke-width="1.4" stroke-linecap="butt"/><path d="M302.58139,112.6644c0.03699,-2.55134 2.13524,-4.5896 4.68656,-4.55262c2.55134,0.03699 4.5896,2.13524 4.55262,4.68656c-0.03699,2.55134 -2.13523,4.5896 -4.68656,4.55262c-2.55134,-0.03699 -4.5896,-2.13524 -4.55262,-4.68656z" fill="#000000" stroke="none" stroke-width="1.5" stroke-linecap="butt"/><path d="M324.82509,112.91675c0.20353,-4.88817 4.45264,-8.85847 9.77048,-8.85847c5.31783,0 9.27453,3.96607 9.27453,8.85847c0,4.8924 -3.51085,9.07104 -9.32464,9.14188c-5.52997,0.06739 -9.93292,-4.03692 -9.72037,-9.14188z" fill="#ffffff" stroke="#000000" stroke-width="1.4" stroke-linecap="butt"/><path d="M329.42783,113.06478c0,-2.64586 2.14489,-4.79075 4.79075,-4.79075c2.64586,0 4.79075,2.14489 4.79075,4.79075c0,2.64586 -2.14488,4.79075 -4.79075,4.79075c-2.64586,0 -4.79075,-2.14489 -4.79075,-4.79075z" fill="#000000" stroke="none" stroke-width="1.5" stroke-linecap="butt"/><path d="M297.70036,112.38382c0,0 0.06357,-9.01512 10.60111,-8.8249c9.47101,0.16586 9.55554,9.40723 9.55554,9.40723z" fill="#ffffff" stroke="#000000" stroke-width="1.15" stroke-linecap="butt"/><path d="M324.44744,112.51472c0,0 -0.24686,-9.4582 11.19813,-9.1032c9.71427,0.33347 9.54677,9.65229 9.54677,9.65229z" fill="#ffffff" stroke="#000000" stroke-width="1.15" stroke-linecap="butt"/><path d="M349.19114,112.90822c1.0294,-5.97877 1.7913,-8.61483 3.73262,-8.35569c1.94131,0.25914 1.77649,4.24909 0.48013,9.99193c-1.23206,5.45797 -6.16417,8.97502 -6.16417,8.97502c0,0 0.92203,-4.6325 1.95143,-10.61127z" fill="#ffffff" stroke="#000000" stroke-width="1" stroke-linecap="butt"/><path d="M349.60358,108.84118c0,0 2.57754,-0.80312 2.15675,2.28016c-0.75431,5.52723 -4.31816,8.45061 -4.31816,8.45061" fill="none" stroke="#000000" stroke-width="0.25" stroke-linecap="round"/><path d="M342.39494,98.97589c0,0 1.52429,0.11807 4.2558,0.91029c2.49492,0.72361 4.44935,1.54403 4.44935,1.54403l0.0951,0.77035c0,0 -7.04963,-3.02997 -14.9158,-2.3706c-6.2896,0.52724 -10.06319,1.7124 -10.06319,1.7124l-0.15425,-2.27683c0,0 4.88348,-1.09175 8.06366,-1.35557c4.67807,-0.38808 8.09084,-0.10875 8.09084,-0.10875z" fill="#000000" stroke="none" stroke-width="1.5" stroke-linecap="butt"/><path d="M300.36356,103.27214c0,0 3.36963,-1.819 8.03244,-2.28178c5.16698,-0.51283 7.76823,-0.06628 7.76823,-0.06628l-0.10492,2.33747c0,0 -3.43554,0.11935 -7.61795,0.27887c-5.59346,0.21333 -6.64488,1.93293 -10.89774,2.39119c-3.64408,0.39266 -6.73723,0.25884 -6.73723,0.25884l-0.02589,-0.83155c0,0 3.59517,0.07398 5.23371,-0.06836c1.35239,-0.11749 3.9757,-0.93808 3.9757,-0.93808z" fill="#000000" stroke="none" stroke-width="1.5" stroke-linecap="butt"/><path d="M304.09366,147.84238c-0.01105,-0.10514 3.09674,-3.34774 7.70502,-4.36007c3.69309,-0.81129 9.12106,1.68769 9.31115,1.70728c0,0 4.02519,-2.33815 6.81985,-2.08783c6.63463,0.59429 10.24245,4.11043 10.22748,4.25011c0,0 -34.05531,0.56848 -34.0635,0.49051z" fill="#ffffff" stroke="#000000" stroke-width="1.4" stroke-linecap="butt"/><path d="M320.98053,137.15598c-2.15254,1.00319 -4.3,-1.63269 -4.3,-3.4c0,-1.76731 8.6,-1.76731 8.6,0c0,1.76731 -1.72518,2.2 -4.3,3.4z" fill="#ffffff" stroke="#000000" stroke-width="1.15" stroke-linecap="butt"/><path d="M324.60342,113.01522c0,0 -0.89243,4.56351 -1.12332,7.14292c-0.68821,7.68822 0.18421,10.68482 -0.35821,15.39961c-0.3785,3.28995 -1.6528,5.26151 -1.98401,5.17492c-0.43977,-0.11497 -1.92191,-1.55026 -2.24608,-4.69257c-0.63099,-6.11652 0.32291,-7.18153 -0.23118,-16.29923c-0.18891,-3.10851 -0.91607,-5.68519 -0.91607,-5.68519" fill="#ffffff" stroke="#000000" stroke-width="1.3" stroke-linecap="round"/><path d="M337.57589,146.6813c-0.17845,2.05731 -5.97643,9.33014 -17.14286,10.07143c-7.85972,0.34111 -16.3213,-8.4427 -16.14286,-9.21429c0.04979,-0.21528 5.33899,-0.30732 9.85925,0.04431c3.63845,0.28303 6.6781,0.7187 6.85504,0.7414c0.09613,0.01233 2.65767,-0.39855 5.93473,-1.01836c4.55571,-0.86164 10.65634,-0.85093 10.6367,-0.6245z" fill="#ffffff" stroke="#000000" stroke-width="1.9" stroke-linecap="butt"/><g fill="#000000" stroke="#000000" stroke-width="0.5" stroke-linecap="round"><path d="M302.05384,120.19748l-2.4595,2.99444l1.01939,-3.26041z"/><path d="M304.51587,121.36593l-1.95152,3.34773l0.48744,-3.38109z"/><path d="M307.69052,121.99767l-1.95153,3.34774l0.48744,-3.38109z"/></g><g fill="#000000" stroke="#000000" stroke-width="0.5" stroke-linecap="round"><path d="M341.24256,120.36009l1.01939,3.26041l-2.4595,-2.99444z"/><path d="M338.8045,121.76114l0.48744,3.3811l-1.95152,-3.34773z"/><path d="M335.62986,122.39289l0.48744,3.38109l-1.95153,-3.34774z"/></g><path d="M296.30823,302.80365c0,0 1.72644,-95.07751 1.72644,-116.82238c0,-8.22758 -7.85609,-17.96333 -7.85609,-17.96333c0,0 3.56988,-4.77173 5.24156,-6.98927c1.59042,-2.10974 6.08847,-5.79443 6.08847,-5.79443c0,0 2.33232,14.71146 6.50799,20.52043c3.05695,4.25267 14.25353,9.71565 14.25353,9.71565c0,0 10.61437,-6.55331 14.0775,-10.79951c4.19065,-5.13823 6.30256,-16.86716 6.30256,-16.86716c0,0 3.83417,3.08231 5.78815,5.51469c1.95398,2.43239 3.17066,5.63759 3.17066,5.63759c0,0 -3.26018,3.47305 -6.10724,8.13938c-2.00993,3.29426 -2.43401,7.94807 -2.43401,8.55263c0,21.91501 3.58648,117.32238 3.58648,117.32238c0,0 -18.03092,3.77317 -26.67841,3.74454c-8.09846,-0.02681 -23.66758,-3.91121 -23.66758,-3.91121z" fill="#c6c657" stroke="none" stroke-width="0" stroke-linecap="butt"/><path d="M322.15339,174.62413c0,0 1.5236,11.58462 0.92598,14.01034c-0.19365,0.78602 -4.07752,0.27537 -4.07752,0.27537c0,0 2.31863,-2.99137 2.92131,-5.43756c0.72411,-2.93903 0.23023,-8.84816 0.23023,-8.84816z" fill="#000000" stroke="none" stroke-width="0" stroke-linecap="butt"/><path d="M321.62174,212.97334c-8.48023,0 -22.56704,-7.47137 -26.71858,-16.19599c-3.82754,-8.04372 1.25659,-20.1061 2.01713,-22.63717c0.58317,-1.94078 13.08953,10.71563 24.23872,10.64622c11.43664,-0.0712 22.43927,-14.67613 23.41039,-11.98176c1.13818,3.15789 7.33882,14.75446 1.69741,25.13874c-3.5731,6.5771 -18.01634,15.02996 -24.64507,15.02996z" fill="#c6c657" stroke="none" stroke-width="0" stroke-linecap="butt"/><path d="M324.71805,200.68155c0,0 -1.09634,2.84844 -3.154,3.83316c-2.05766,0.98471 -3.7465,-3.31304 -3.7465,-3.31304c0,0 1.9758,2.91199 4.03346,1.92728c2.05766,-0.98471 2.86704,-2.4474 2.86704,-2.4474z" fill="#b7b751" stroke="none" stroke-width="0" stroke-linecap="butt"/><path d="M297.7595,217.2908l-0.00809,-17c0,0 11.13466,5.83828 23.89202,5.85714c10.31867,0.01525 22.09028,-4.57143 22.09028,-4.57143v15.85715c0,0 -11.15098,3.82715 -22.20591,3.28572c-18.42224,-0.90226 -23.7683,-3.42857 -23.7683,-3.42857z" fill="#ecec68" stroke="none" stroke-width="0" stroke-linecap="butt"/><text transform="translate(301.66659,215.8265) scale(0.24116,0.28022)" font-size="40" xml:space="preserve" fill="#b1b14e" stroke="none" stroke-width="1" stroke-linecap="butt" font-family="&quot;Microsoft YaHei&quot;, &quot;微软雅黑&quot;, STXihei, &quot;华文细黑&quot;" font-weight="normal" text-anchor="start"><tspan x="0" dy="0">mustard</tspan></text><path d="M338.7415,200.10291c7.54546,-2.35508 9.84989,-12.48521 9.84989,-12.48521c0,0 0.3469,12.3483 -7.19858,14.70338c-7.54548,2.35508 -14.54223,-1.13025 -14.54223,-1.13025c0,0 4.34544,1.26715 11.89092,-1.08793z" fill="#b7b751" stroke="none" stroke-width="0" stroke-linecap="butt"/><path d="M315.38844,201.74383c0,0 -6.99675,3.48531 -14.54221,1.13023c-7.54548,-2.35508 -7.19858,-14.70336 -7.19858,-14.70336c0,0 2.30443,10.13014 9.84989,12.48522c7.54548,2.35508 11.8909,1.08792 11.8909,1.08792z" fill="#b7b751" stroke="none" stroke-width="0" stroke-linecap="butt"/></g></g></svg>