<svg version="1.1" xmlns="http://www.w3.org/2000/svg" xmlns:xlink="http://www.w3.org/1999/xlink" width="106.57033" height="270.01102" viewBox="0,0,106.57033,270.01102"><g transform="translate(-266.71485,-44.99449)"><g stroke-miterlimit="10"><path d="M266.71485,315.00551v-270.01102h106.57033v270.01102z" fill-opacity="0.01" fill="#000000" stroke="none" stroke-width="2" stroke-linecap="butt"/><g stroke-linecap="butt"><path d="M281.54535,304.3916c0,0 -0.63536,-94.38387 -0.79335,-118.01201c-0.05451,-8.15261 8.18688,-36.76129 40.20201,-36.9211c31.60235,-0.15775 39.85672,29.48704 39.84884,36.89673c-0.07659,46.24274 0.65429,117.98648 0.65429,117.98648l-10.49667,0.09614l-0.15882,-114.84311c0,0 0.07549,-3.0993 -2.81625,-3.15415c-3.43441,-0.06514 -2.94538,3.11562 -2.94538,3.11562l0.20548,114.86995l-48.21366,0.07222l-0.30539,-115.23309c0,0 0.27949,-2.919 -2.8856,-2.93443c-3.11083,-0.01515 -2.81569,2.90899 -2.81569,2.90899l0.35311,115.0668z" fill="#ffffff" stroke="#000000" stroke-width="2"/><g stroke="none" stroke-width="0"><path d="M350.95838,200.50003c0,23.19596 -14.39796,41.5 -30,41.5c-15.60204,0 -30,-16.30404 -30,-39.5c0,-7.41029 -6.45918,-28.87234 -4.1936,-34.91628c4.82623,-12.87503 24.57585,-21.08372 35.1936,-21.08372c9.96237,0 28.31259,5.60558 33.0476,20.57681c2.68048,8.47516 -4.0476,25.03855 -4.0476,33.42319z" fill="#c5c556"/><path d="M355.20838,262.87503c0,18.87398 3.97533,35.92302 -8.49901,42.87678c-4.90976,2.73692 -46.86532,2.5852 -51.6354,0.03225c-13.04002,-6.97903 -7.11559,-23.42146 -7.11559,-42.40903c0,-17.34956 -0.28872,-53.9336 7.27162,-66.61211c3.90141,-6.54258 12.27752,4.83661 18.85338,4.23711c5.8013,-0.52889 11.80355,-0.69359 16.11319,0.7706c8.44678,2.86979 13.08773,-14.27525 16.83481,-6.28946c6.08912,12.97717 8.177,53.76094 8.177,67.39386z" fill="#c5c556"/><path d="M293.14588,181.87502v-8.375h7.23702l7.75395,5l7.10779,-5h18.48025l6.72009,-5.75l6.59086,5.75h3.36005v8.375l-3.49153,0.0341l-6.33179,-5.44195l-6.46222,5.44316l-19.24153,0.31166l-6.99043,5.15303l-7.28391,-5.36069z" fill="#acac4c"/><path d="M293.27088,202.30002v-8.375h7.34763l7.87246,5l7.21642,-5h18.76269l6.8228,-5.75l6.69159,5.75h3.4114v8.375l-3.5449,0.0341l-6.42856,-5.44195l-6.56099,5.44316l-19.53561,0.31166l-7.09727,5.15303l-7.39524,-5.36069z" fill="#acac4c"/><path d="M293.02088,223.42502v-8.375h7.44244l7.97404,5l7.30954,-5h19.00479l6.91083,-5.75l6.77794,5.75h3.45542v8.375l-3.59064,0.0341l-6.51151,-5.44195l-6.64564,5.44316l-19.78768,0.31166l-7.18885,5.15303l-7.49066,-5.36069z" fill="#acac4c"/><path d="M292.27088,245.15002v-8.375h7.77427l8.32957,5l7.63544,-5h19.85214l7.21896,-5.75l7.08014,5.75h3.60948v8.375l-3.75073,0.0341l-6.80183,-5.44195l-6.94195,5.44316l-20.66993,0.31166l-7.50937,5.15303l-7.82463,-5.36069z" fill="#acac4c"/><path d="M293.02088,267.25002v-8.375h7.77427l8.32957,5l7.63544,-5h19.85214l7.21895,-5.75l7.08014,5.75h3.60948v8.375l-3.75073,0.0341l-6.80183,-5.44194l-6.94195,5.44316l-20.66993,0.31166l-7.50937,5.15303l-7.82463,-5.36069z" fill="#acac4c"/><path d="M291.92089,287.97502v-8.375h7.77427l8.32957,5l7.63544,-5h19.85214l7.21895,-5.75l7.08014,5.75h3.60948v8.375l-3.75073,0.0341l-6.80183,-5.44195l-6.94194,5.44316l-20.66993,0.31166l-7.50937,5.15303l-7.82463,-5.3607z" fill="#acac4c"/></g><g fill="#84843a" stroke="none" stroke-width="0"><path d="M314.35868,160.77539c4.85831,3.87308 10.3172,7.58823 8.48107,9.89143c-1.83613,2.3032 -7.26304,1.03055 -12.12134,-2.84253c-4.85831,-3.87308 -10.19109,-16.53598 -10.19109,-16.53598c0,0 8.97305,5.614 13.83136,9.48708z"/><path d="M341.24323,152.2883c0,0 -5.33278,11.82958 -10.19108,15.70265c-4.85831,3.87308 -10.28522,5.14572 -12.12135,2.84252c-1.83613,-2.30319 3.62277,-6.01835 8.48108,-9.89142c4.85831,-3.87308 13.83135,-8.65375 13.83135,-8.65375z"/></g><g fill="#727232" stroke="none" stroke-width="0"><path d="M308.68755,206.25002v-42h3v42z"/><path d="M313.31255,209.81252c0,2.72691 -1.42709,4.9375 -3.1875,4.9375c-1.76041,0 -3.1875,-2.21059 -3.1875,-4.9375c0,-2.72691 1.42709,-4.9375 3.1875,-4.9375c1.76041,0 3.1875,2.21059 3.1875,4.9375z"/></g><g fill="#727232" stroke="none" stroke-width="0"><path d="M330.68755,206.62502v-42h3v42z"/><path d="M335.31255,210.18752c0,2.7269 -1.42709,4.9375 -3.1875,4.9375c-1.76041,0 -3.1875,-2.2106 -3.1875,-4.9375c0,-2.7269 1.42709,-4.9375 3.1875,-4.9375c1.76041,0 3.1875,2.2106 3.1875,4.9375z"/></g><path d="M294.45838,211.75002c0,21.83874 2.37314,71.68079 -0.94197,93.56073c-0.72934,4.81369 -13.16379,2.11974 -15.18303,1.93928c-7.90758,-0.70672 -2.63937,-68.85668 -3.125,-95.5c-0.75,-41.14774 20.375,-55.25 20.375,-55.25c0,0 -1.125,28.60226 -1.125,55.25z" fill="#707031" stroke="none" stroke-width="0"/><path d="M348.69123,157.14071c0,0 21.375,17.21155 20.625,56.85929c-0.50399,26.64298 4.78258,94.79328 -3.125,95.5c-2.01925,0.18047 -16.20369,3.37442 -16.93303,-1.43928c-3.31511,-21.87993 0.80803,-72.22198 0.80803,-94.06072c0,-26.64774 -1.375,-56.85929 -1.375,-56.85929z" fill="#707031" stroke="none" stroke-width="0"/><path d="M335.17503,163.05417c0,0.89333 -2.73462,3.2747 -5.80756,5.98886c-4.17502,3.68757 -8.97112,5.6778 -8.97112,5.6778c0,0 -3.95884,-2.47706 -7.42281,-5.18203c-3.0349,-2.36991 -5.63185,-4.93414 -5.63185,-5.90131c0,-2.07107 9.75059,4 12.62857,4c2.87798,0 15.20477,-6.6544 15.20477,-4.58333z" fill="#84843a" stroke="none" stroke-width="0"/></g><path d="M276.44189,103.88011c0,0 6.16329,-5.92187 6.29161,-6.78761c0.33654,-2.27063 -0.16776,-40.17317 35.96775,-41.57382c44.63633,-0.91362 39.01489,35.34872 41.53088,42.1903c3.44981,9.38084 6.15664,17.40016 6.15664,17.40016c0,0 -2.76715,-2.05351 -4.0797,-3.13397c-1.2242,-1.00773 -3.80143,-3.14585 -3.80143,-3.14585c0,0 3.09111,10.3481 1.31092,20.69498c-1.5623,9.48098 -7.29782,17.22543 -7.29782,17.22543l-1.15522,-2.34735c0,0 -1.02266,2.19794 -2.16005,3.33274c-1.1374,1.13479 -3.43873,2.91273 -3.43873,2.91273l-0.09205,-3.70421c0,0 -7.0601,11.01795 -24.35066,10.87154c-16.30625,-0.25547 -26.07151,-10.6752 -26.07151,-10.6752l-0.1162,2.65484c0,0 -3.89477,-3.29276 -6.18145,-9.70754c-2.72545,-7.64567 -3.23946,-12.24324 -3.23946,-12.24324c0,0 -2.33908,1.89916 -5.71704,2.7744c-4.23278,1.09673 -6.94665,0.34526 -6.94665,0.34526c0,0 3.60795,-2.71717 5.58396,-4.76989c1.76007,-1.8284 2.64658,-3.37722 2.64658,-3.37722c0,0 -2.10758,1.0847 -4.23277,1.61795c-2.21739,0.5564 -4.03008,0.53093 -4.03008,0.53093c0,0 4.97492,-5.03728 7.03074,-10.87429c1.94102,-5.51108 2.09972,-10.95731 2.09972,-10.95731c0,0 -1.36165,0.66163 -3.33013,0.79513c-1.24776,0.08463 -2.37785,-0.0489 -2.37785,-0.0489z" fill="#000000" stroke="none" stroke-width="1.5" stroke-linecap="butt"/><path d="M293.22776,115.20173c-0.57709,-7.29323 0.335,-17.15448 0.335,-17.15448c0,0 3.41059,-0.04124 13.91429,-3.14424c8.0696,-2.38394 20.54731,-9.48722 20.54731,-9.48722c0,0 -2.16005,3.00503 -3.40781,4.46015c-1.32651,1.54696 -3.99292,4.56297 -3.99292,4.56297c0,0 7.838,-1.66761 14.67476,-4.72931c8.56837,-3.53575 10.59252,-6.05309 12.95042,-4.5927c2.7829,1.72362 1.03006,23.1827 0.71846,28.74062c-0.42163,5.66922 -2.53327,9.49969 -3.15031,12.52053c-0.61704,3.02084 -0.4096,6.13662 -2.20622,16.0397c-1.12121,6.18021 -4.16183,8.92466 -10.01942,14.66081c-5.85759,5.73616 -9.05378,9.25275 -13.01359,9.32173c-3.81077,0.06639 -8.93565,-5.1002 -13.93542,-10.38244c-5.32393,-5.62474 -8.87489,-8.47713 -9.71551,-15.13975c-0.75707,-6.00039 -0.77653,-9.90853 -1.12266,-15.24835c-0.25298,-3.90273 -2.26119,-6.44504 -2.57636,-10.42801z" fill="#ffffff" stroke="#000000" stroke-width="1.5" stroke-linecap="butt"/><path d="M341.29778,100.08137c0,0 1.52429,0.31807 4.2558,1.11029c2.49492,0.72361 4.44935,1.74403 4.44935,1.74403l0.1951,1.17035c0,0 -7.24963,-3.12997 -15.1158,-2.4706c-6.2896,0.52724 -9.96319,2.8124 -9.96319,2.8124l0.04575,-4.17683c0,0 3.12748,-1.70421 7.86366,-1.85557c4.90428,-0.15672 8.09084,0.59125 8.09084,0.59125z" fill="#000000" stroke="none" stroke-width="1.5" stroke-linecap="butt"/><path d="M328.53362,143.06892c0.5704,0.21186 3.08357,1.39942 6.02385,2.59586c2.9637,1.20597 7.21362,2.29294 7.19412,2.4605c-0.02476,0.21265 -10.43477,0.22694 -13.67937,0.63224c-2.71902,0.33964 -6.68867,0.70564 -6.68867,0.70564c0,0 -7.10401,-1.16169 -13.27235,-2.44521c-4.94371,-1.02869 -10.39929,-1.66108 -10.40995,-1.75461c-0.01439,-0.12613 3.86835,-0.71071 6.82417,-1.39467c1.14585,-0.49661 5.43971,-1.48513 5.43971,-1.48513c0,0 4.95585,-0.27766 7.60826,0.579c2.84203,0.91791 2.83546,2.44556 3.0831,2.46906c0,0 1.18436,-1.74932 2.36886,-2.10461c1.18451,-0.35528 5.08219,-0.41633 5.50828,-0.25808z" fill="#ffffff" stroke="#000000" stroke-width="1.4" stroke-linecap="butt"/><path d="M320.85992,144.62883c-1.03376,0 -3.5381,-3.26042 -3.7867,-5.3637c-0.22243,-1.88186 1.31512,-3.82799 3.7867,-3.82799c2.47159,0 4.2021,0.49077 4.02999,4.18853c-0.14607,3.13818 -1.55841,5.00317 -4.02999,5.00317z" fill="#ffffff" stroke="#000000" stroke-width="1.15" stroke-linecap="butt"/><path d="M324.462,114.53511c0,0 0.1026,3.96976 0.00576,7.12662c-0.19174,6.25113 -1.08147,27.7607 -1.08147,27.7607l-2.98167,0.00864c0,0 -0.80294,-4.17274 -1.12322,-9.49979c-0.43353,-7.21063 -0.4495,-16.29321 -0.76344,-19.63229c-0.29758,-3.16513 -0.89593,-5.71453 -0.89593,-5.71453" fill="#ffffff" stroke="#000000" stroke-width="1.3" stroke-linecap="round"/><path d="M294.92742,125.32495c0,0 -4.93211,-3.51705 -6.16417,-8.97502c-1.29636,-5.74284 -1.46118,-9.7328 0.48013,-9.99193c1.94131,-0.25915 2.70321,2.37692 3.73262,8.35569c1.0294,5.97877 1.95143,10.61127 1.95143,10.61127z" fill="#ffffff" stroke="#000000" stroke-width="1" stroke-linecap="butt"/><path d="M294.72481,121.37739c0,0 -3.56385,-2.92338 -4.31816,-8.45061c-0.42079,-3.08327 2.15675,-2.28016 2.15675,-2.28016" fill="none" stroke="#000000" stroke-width="0.25" stroke-linecap="round"/><path d="M297.73823,114.72149c0.07093,-4.89188 4.83834,-8.93609 10.21137,-8.8582c5.37302,0.0779 9.02724,4.2484 8.95632,9.14029c-0.07093,4.89188 -4.12352,8.79439 -9.49655,8.7165c-5.37302,-0.0779 -9.74207,-4.1067 -9.67114,-8.99859z" fill="#ffffff" stroke="#000000" stroke-width="1.4" stroke-linecap="butt"/><path d="M302.17584,114.83943c0.03999,-2.75843 2.30855,-4.96213 5.06696,-4.92214c2.75843,0.03999 4.96213,2.30855 4.92214,5.06696c-0.03999,2.75843 -2.30854,4.96213 -5.06696,4.92214c-2.75843,-0.03999 -4.96213,-2.30855 -4.92214,-5.06696z" fill="#000000" stroke="none" stroke-width="1.5" stroke-linecap="butt"/><path d="M324.79447,114.72222c0.20353,-4.88817 4.45264,-8.85847 9.77048,-8.85847c5.31783,0 9.27453,3.96607 9.27453,8.85847c0,4.8924 -3.88585,9.07104 -9.69964,9.14188c-5.52997,0.06739 -9.55792,-4.03692 -9.34537,-9.14188z" fill="#ffffff" stroke="#000000" stroke-width="1.4" stroke-linecap="butt"/><path d="M329.39725,114.80777c0,-2.81845 2.2848,-5.10325 5.10325,-5.10325c2.81845,0 5.10325,2.2848 5.10325,5.10325c0,2.81845 -2.28479,5.10325 -5.10325,5.10325c-2.81845,0 -5.10325,-2.2848 -5.10325,-5.10325z" fill="#000000" stroke="none" stroke-width="1.5" stroke-linecap="butt"/><path d="M297.66979,114.18931c0,0 0.06357,-9.01512 10.60111,-8.8249c9.47101,0.16586 9.55554,9.40723 9.55554,9.40723z" fill="#ffffff" stroke="#000000" stroke-width="1.15" stroke-linecap="butt"/><path d="M324.41686,114.32021c0,0 -0.24686,-9.4582 11.19813,-9.1032c9.71427,0.33347 9.54677,9.65229 9.54677,9.65229z" fill="#ffffff" stroke="#000000" stroke-width="1.15" stroke-linecap="butt"/><path d="M301.19964,104.17765c0,0 3.36963,-1.819 8.03244,-2.28178c5.16698,-0.51283 7.76823,-0.06628 7.76823,-0.06628l0.29508,4.13747c0,0 -3.83554,-0.68065 -8.01795,-0.52113c-5.59346,0.21333 -6.64488,1.43293 -10.89774,1.89119c-3.64408,0.39266 -6.73723,0.15884 -6.73723,0.15884l-0.02589,-1.23155c0,0 3.59517,0.07398 5.23371,-0.06836c1.35239,-0.11749 3.9757,-0.93808 3.9757,-0.93808z" fill="#000000" stroke="none" stroke-width="1.5" stroke-linecap="butt"/><path d="M349.16056,114.71368c1.0294,-5.97877 1.7913,-8.61483 3.73262,-8.35569c1.94131,0.25914 1.77649,4.24909 0.48013,9.99193c-1.23206,5.45797 -6.16417,8.97502 -6.16417,8.97502c0,0 0.92203,-4.6325 1.95143,-10.61127z" fill="#ffffff" stroke="#000000" stroke-width="1" stroke-linecap="butt"/><path d="M349.57316,110.64662c0,0 2.57754,-0.80312 2.15675,2.28016c-0.75431,5.52723 -4.31816,8.45061 -4.31816,8.45061" fill="none" stroke="#000000" stroke-width="0.25" stroke-linecap="round"/><g><path d="M293.27173,89.69738c-2.11708,2.07371 -2.27187,-1.78791 -4.83834,-4.40806c-2.56647,-2.62015 -4.67976,-4.41466 -2.56268,-6.48838c2.11708,-2.07372 3.70323,1.42704 6.2697,4.04719c2.56647,2.62015 3.2484,4.77554 1.13132,6.84925z" fill="#caca59" stroke="none" stroke-width="0" stroke-linecap="butt"/><path d="M321.52776,80.2909c-2.27708,0.56992 -5.20415,-3.28758 -6.53777,-8.61597c-1.33363,-5.32838 -0.56878,-10.10991 1.7083,-10.67983c2.27708,-0.56993 5.20414,3.28757 6.53776,8.61596c1.33363,5.32839 0.56879,10.10991 -1.70829,10.67984z" fill="#caca59" stroke="none" stroke-width="0" stroke-linecap="butt"/><g fill="#caca59" stroke="none" stroke-width="0" stroke-linecap="butt"><path d="M335.25507,75.2725c2.184,-5.03987 2.95858,-9.52055 5.11238,-8.58721c2.1538,0.93334 -0.1739,4.93468 -2.35789,9.97456c-2.184,5.03987 -3.39728,9.20978 -5.55107,8.27645c-2.1538,-0.93333 0.61258,-4.62392 2.79658,-9.6638z"/><path d="M342.32361,80.70641c3.25311,-4.42577 7.42354,-6.88656 9.31489,-5.49634c1.89135,1.39022 0.78742,6.10502 -2.46569,10.53079c-3.25311,4.42577 -7.42354,6.88657 -9.3149,5.49635c-1.89135,-1.39022 -0.78741,-6.10502 2.4657,-10.53079z"/></g><g fill="#caca59" stroke="none" stroke-width="0" stroke-linecap="butt"><path d="M309.96164,83.74626c-2.1538,0.93333 -3.36707,-3.23658 -5.55107,-8.27645c-2.184,-5.03987 -4.51168,-9.04123 -2.35789,-9.97456c2.1538,-0.93334 2.92838,3.54734 5.11238,8.58722c2.184,5.03987 4.95038,8.73046 2.79659,9.6638z"/><path d="M302.39216,84.09685c-1.89136,1.39022 -6.06179,-1.07058 -9.3149,-5.49635c-3.25311,-4.42577 -4.35704,-9.14056 -2.46569,-10.53078c1.89136,-1.39022 6.06178,1.07058 9.3149,5.49635c3.25311,4.42577 4.35705,9.14056 2.4657,10.53078z"/></g><g fill="#caca59" stroke="none" stroke-width="0" stroke-linecap="butt"><path d="M297.86323,97.02958c-1.18492,2.0263 -4.62921,-0.6189 -9.37075,-3.39165c-4.74153,-2.77273 -8.98481,-4.62302 -7.79988,-6.64932c1.18492,-2.0263 4.4592,1.12894 9.20074,3.90167c4.74153,2.77273 9.15482,4.113 7.96989,6.1393z"/><path d="M291.96639,101.7885c-0.70311,2.23955 -5.5214,2.72129 -10.76193,1.076c-5.24053,-1.64529 -8.91886,-4.79456 -8.21574,-7.03411c0.70311,-2.23955 5.5214,-2.72129 10.76193,-1.076c5.24053,1.64529 8.91886,4.79456 8.21574,7.03411z"/></g><g fill="#caca59" stroke="none" stroke-width="0" stroke-linecap="butt"><path d="M353.32097,89.0202c4.74153,-2.77273 8.01581,-5.92798 9.20074,-3.90168c1.18493,2.0263 -3.05835,3.87658 -7.79988,6.64932c-4.74153,2.77273 -8.18582,5.41795 -9.37075,3.39166c-1.18493,-2.0263 3.22836,-3.36655 7.96989,-6.13929z"/><path d="M359.46362,92.88428c5.24054,-1.64529 10.05883,-1.16354 10.76194,1.07601c0.70312,2.23955 -2.9752,5.38882 -8.21574,7.0341c-5.24054,1.64529 -10.05883,1.16355 -10.76195,-1.076c-0.70312,-2.23955 2.9752,-5.38883 8.21575,-7.03411z"/></g><path d="M361.10651,116.81617c0,24.56869 -26.47125,44.82557 -40.51869,44.48555c-11.49394,-0.27821 -40.51869,-19.91687 -40.51869,-44.48555c0,-3.61886 0.39359,-7.13679 1.13632,-10.505c0.18246,-0.82746 1.10035,-4.13416 1.37824,-4.95717c0.62756,-1.85856 -5.47126,-6.59547 -4.08668,-10.49074c1.22026,-3.43297 7.94172,1.9306 8.89233,0.44221c0.33005,-0.51678 0.66987,-1.0255 1.01915,-1.52585c0.31095,-0.44544 -3.32957,-2.394 -1.70125,-3.86628c1.64225,-1.48488 3.43275,1.54357 3.83573,1.05492c0.34313,-0.41608 0.69334,-0.82501 1.05041,-1.22656c1.29575,-1.45711 -5.39484,-10.98826 -1.29188,-13.24898c3.38609,-1.86572 7.78048,7.29114 9.01945,6.45074c0.78879,-0.53504 -1.73081,-4.85695 0.08143,-6.51117c1.47219,-1.34382 4.13718,4.00051 5.06474,3.55841c1.26199,-0.6015 -3.36541,-10.70354 0.26942,-12.00783c3.74254,-1.34295 5.70294,9.73753 6.77324,9.46856c1.2624,-0.31724 -0.42535,-6.71554 2.78903,-7.12949c3.63671,-0.46832 4.51803,6.00866 6.28901,6.00866c0.70093,0 1.39773,0.01955 2.08993,0.05816c0.74794,0.04173 1.24996,-8.47025 3.71481,-8.30906c3.15627,0.20642 0.99991,8.85429 2.21547,9.12226c0.81143,0.17888 1.61408,0.38435 2.40719,0.61559c0.58896,0.17172 1.58392,-6.26493 4.19464,-5.3929c2.15948,0.72131 -0.55224,6.64684 0.36932,7.05c0.9967,0.43604 1.97392,0.91427 2.92984,1.43267c1.4379,0.77979 5.36485,-9.97125 8.94431,-7.80773c2.78093,1.68088 -2.2608,12.3295 -1.08171,13.39854c1.27604,1.15694 2.48646,2.39801 3.62421,3.71547c0.51824,0.6001 7.96516,-11.12275 10.32805,-8.14085c1.65157,2.08424 -7.36831,11.94911 -6.70022,12.97988c0.54674,0.84355 5.26577,-5.81323 6.87331,-3.9931c1.20794,1.3677 -4.57234,7.95869 -4.22692,8.66149c0.41176,0.83779 4.12581,-2.44209 5.29179,-0.47513c0.55485,0.93603 -3.58871,4.37115 -3.34074,5.05148c0.38967,1.0691 1.64526,5.49111 1.88054,6.62902c0.65765,3.18061 1.00489,6.49066 1.00489,9.88977z" fill="#ecec68" stroke="none" stroke-width="0" stroke-linecap="butt"/><g stroke="none" stroke-width="0" stroke-linecap="butt"><path d="M316.88606,105.91342c0,6.10981 -5.28594,11.0628 -11.80648,11.0628c-6.52054,0 -11.80649,-4.953 -11.80649,-11.0628c0,-6.10981 5.28594,-11.0628 11.80649,-11.0628c6.52054,0 11.80648,4.95298 11.80648,11.0628z" fill="#cccc5a"/><path d="M315.52601,105.09975c0,5.82137 -4.67702,10.54052 -10.44642,10.54052c-5.7694,0 -10.44642,-4.71915 -10.44642,-10.54052c0,-5.82137 4.67702,-10.54053 10.44642,-10.54053c5.7694,0 10.44642,4.71916 10.44642,10.54053z" fill="#ffffff"/><path d="M309.09452,105.68416c0,2.67009 -1.68881,4.83461 -3.77206,4.83461c-2.08325,0 -3.77206,-2.16453 -3.77206,-4.83461c0,-2.67008 1.68882,-4.83462 3.77206,-4.83462c2.08325,0 3.77206,2.16454 3.77206,4.83462z" fill="#000000"/></g><g stroke="none" stroke-width="0" stroke-linecap="butt"><path d="M350.25025,106.33844c0,6.10981 -5.28594,11.06281 -11.80648,11.06281c-6.52054,0 -11.80649,-4.953 -11.80649,-11.0628c0,-6.10981 5.28594,-11.0628 11.80649,-11.0628c6.52054,0 11.80648,4.95298 11.80648,11.0628z" fill="#cccc5a"/><path d="M348.89018,105.52477c0,5.82137 -4.67701,10.54053 -10.44642,10.54053c-5.7694,0 -10.44642,-4.71916 -10.44642,-10.54053c0,-5.82137 4.67702,-10.54052 10.44642,-10.54052c5.7694,0 10.44642,4.71915 10.44642,10.54052z" fill="#ffffff"/><path d="M342.4587,106.10918c0,2.67009 -1.68881,4.83461 -3.77206,4.83461c-2.08325,0 -3.77206,-2.16453 -3.77206,-4.83461c0,-2.67008 1.68881,-4.83461 3.77206,-4.83461c2.08325,0 3.77206,2.16453 3.77206,4.83461z" fill="#000000"/></g><path d="M331.93943,118.59417c0,0 -1.36815,13.30702 -10.51622,13.2947c-9.99749,-0.01346 -10.41608,-13.61346 -10.41608,-13.61346" fill="none" stroke="#cccc5a" stroke-width="1.5" stroke-linecap="round"/><path d="M313.02594,126.98834c0,0 -3.01384,1.35213 -4.82147,-0.01336c-1.71286,-1.29389 -1.45122,-4.1306 -1.45122,-4.1306" fill="none" stroke="#cccc5a" stroke-width="1.5" stroke-linecap="round"/><path d="M336.38734,122.63188c0,0 0.27049,2.8367 -1.50028,4.13059c-1.86873,1.36549 -4.98444,0.01336 -4.98444,0.01336" fill="none" stroke="#cccc5a" stroke-width="1.5" stroke-linecap="round"/><path d="M344.90257,134.79808c0,0 -5.35231,12.08052 -22.36674,12.37874c-17.6513,0.30939 -25.02312,-12.27249 -25.02312,-12.27249c0,0 16.71735,3.36174 24.86301,3.34348c7.61523,-0.01707 22.52685,-3.44973 22.52685,-3.44973z" fill="#ffffff" stroke="#cccc5a" stroke-width="1.5" stroke-linecap="butt"/><path d="M306.75692,143.35164l-0.10625,-6.69409" fill="none" stroke="#cccc5a" stroke-width="1.5" stroke-linecap="round"/><path d="M315.36359,146.53931v-8.28791" fill="none" stroke="#cccc5a" stroke-width="1.5" stroke-linecap="round"/><path d="M326.94542,138.03886l0.10626,8.0754" fill="none" stroke="#cccc5a" stroke-width="1.5" stroke-linecap="round"/><path d="M335.44585,143.67042l0.10626,-6.16281" fill="none" stroke="#cccc5a" stroke-width="1.5" stroke-linecap="round"/><path d="M365.45469,117.97516c-1.31204,7.69379 -4.86111,13.50698 -7.92705,12.98414c-3.06595,-0.52284 -4.48776,-7.18374 -3.17571,-14.87753c1.31204,-7.69379 8.53436,-16.54541 8.53436,-16.54541c0,0 3.88045,10.74502 2.5684,18.43881z" fill="#ecec68" stroke="none" stroke-width="0" stroke-linecap="butt"/><path d="M277.36539,97.1279c0,0 7.22233,8.85162 8.53438,16.54542c1.31204,7.69379 -0.10977,14.35469 -3.17571,14.87754c-3.06595,0.52284 -6.61501,-5.29036 -7.92706,-12.98415c-1.31204,-7.69379 2.5684,-18.43881 2.5684,-18.43881z" fill="#ecec68" stroke="none" stroke-width="0" stroke-linecap="butt"/><path d="M321.09765,161.02407c0,0 0.13119,1.32185 -8.75844,-1.98593c-1.5563,-0.18259 -8.08659,-4.31519 -13.82652,-8.89399c-3.41639,-2.72529 -6.94601,-6.23304 -9.51437,-9.6722c-4.50045,-6.02633 -6.92942,-11.71634 -6.92942,-11.71634c0,0 9.1974,15.66733 17.61571,20.85757c6.92667,4.74966 21.41305,11.41089 21.41305,11.41089z" fill="#cccc5a" stroke="none" stroke-width="0" stroke-linecap="butt"/><path d="M340.73279,150.33263c8.41832,-4.90391 17.61572,-19.70693 17.61572,-19.70693c0,0 -2.08895,5.84363 -6.5894,11.53751c-2.56836,3.24944 -6.2491,7.04064 -9.6655,9.61558c-2.77279,2.08987 -3.47544,2.77247 -5.05277,3.73993c-1.0389,0.63721 -2.06882,1.45131 -5.27527,2.89877c-1.00383,0.45316 -2.25099,0.93421 -3.7157,1.5474c-1.561,0.5488 -2.16265,0.52172 -2.50594,0.62513c-0.63106,0.19008 -0.49021,0.21438 -4.54479,0.78239c-1.07619,0.15077 -1.67937,-0.25841 -1.67937,-0.25841c0,0 14.48637,-6.29375 21.41305,-10.78138z" fill="#cccc5a" stroke="none" stroke-width="0" stroke-linecap="butt"/><path d="M282.59346,129.44188c0,0 2.85923,-8.21066 2.85923,-12.13243c0,-3.93465 -3.47745,-12.90518 -3.47745,-12.90518c0,0 4.40476,7.84276 4.40476,12.28697c0,4.44421 -3.78655,12.75064 -3.78655,12.75064z" fill="#cccc5a" stroke="none" stroke-width="0" stroke-linecap="butt"/><path d="M354.9279,117.41674c0.09066,-4.63536 4.65456,-12.72931 4.65456,-12.72931c0,0 -3.65976,9.28838 -3.74003,13.39225c-0.07999,4.09044 2.61122,12.71016 2.61122,12.71016c0,0 -3.6164,-8.73773 -3.52574,-13.37309z" fill="#cccc5a" stroke="none" stroke-width="0" stroke-linecap="butt"/><path d="M283.76867,126.76997c0,0 -0.34938,1.49367 -1.43801,2.34977c-0.47765,0.37563 -2.2888,-1.08092 -3.40798,-2.83414c-1.43152,-2.24255 -2.41851,-5.05549 -2.41851,-5.05549c0,0 3.03117,4.69965 4.78585,6.92701c0.8647,1.09763 2.47865,-1.38715 2.47865,-1.38715z" fill="#cccc5a" stroke="none" stroke-width="0" stroke-linecap="butt"/><path d="M359.72536,129.41028c2.26547,-1.81731 4.47067,-6.77316 4.47067,-6.77316c0,0 -0.75842,2.86643 -1.95918,5.18979c-0.93877,1.81641 -3.29872,3.37763 -3.76102,3.03093c-1.05361,-0.79015 -0.69356,-2.26052 -0.69356,-2.26052c0,0 1.20369,1.95986 1.94309,0.81296z" fill="#cccc5a" stroke="none" stroke-width="0" stroke-linecap="butt"/></g></g></g></svg>