<svg version="1.1" xmlns="http://www.w3.org/2000/svg" xmlns:xlink="http://www.w3.org/1999/xlink" width="36.7981" height="36.79811" viewBox="0,0,36.7981,36.79811"><g transform="translate(-302.91346,-162.9135)"><g stroke="none" stroke-width="0" stroke-miterlimit="10"><path d="M311.51757,163.91351h20.83988c4.07419,0 7.35411,3.303 7.35411,7.40583v20.98644c0,4.10283 -3.27992,7.40583 -7.35411,7.40583h-20.83988c-4.07418,0 -7.35411,-3.303 -7.35411,-7.40583v-20.98644c0,-4.10283 3.27993,-7.40583 7.35411,-7.40583z" fill-opacity="0.39216" fill="#000000" fill-rule="evenodd" stroke-linecap="round" stroke-linejoin="round"/><path d="M309.98312,162.9135h20.03379c3.9166,0 7.06966,3.15307 7.06966,7.06966v20.03379c0,3.91659 -3.15306,7.06966 -7.06966,7.06966h-20.03379c-3.91659,0 -7.06966,-3.15307 -7.06966,-7.06966v-20.03379c0,-3.91659 3.15307,-7.06966 7.06966,-7.06966z" fill="#a0a300" fill-rule="evenodd" stroke-linecap="round" stroke-linejoin="round"/><g fill-rule="nonzero" stroke-linecap="butt" stroke-linejoin="miter"><path d="M329.34308,177.28941c-1.10077,4.53666 -5.67083,7.322 -10.2075,6.22123c-4.53667,-1.10077 -7.322,-5.67084 -6.22123,-10.2075c1.10077,-4.53666 5.67084,-7.322 10.2075,-6.22123c4.53667,1.10077 7.322,5.67084 6.22122,10.2075z" fill="#d9db56"/><path d="M311.43226,193.9698l1.23841,-18.43425c0,0 2.52389,3.58661 6.09715,5.34645c3.6194,1.78257 7.77521,1.09605 7.77521,1.09605z" fill="#000000"/><path d="M319.7416,182.58577c-0.54869,2.26133 -1.31051,4.01758 -1.70157,3.92269c-0.39105,-0.09489 -0.26327,-2.00498 0.28542,-4.26631c0.54869,-2.26133 1.31051,-4.01758 1.70157,-3.92269c0.39105,0.09489 0.26327,2.00498 -0.28542,4.26631z" fill="#d9db56"/><path d="M321.92285,182.46307c-0.16915,0.6971 -0.49923,1.21539 -0.73727,1.15764c-0.23804,-0.05775 -0.29388,-0.66968 -0.12473,-1.36679c0.16915,-0.6971 0.49923,-1.21539 0.73727,-1.15764c0.23804,0.05775 0.29388,0.66968 0.12473,1.36679z" fill="#d9db56"/><path d="M316.0484,176.31094c-0.18977,0.78211 -1.37736,1.16531 -2.65255,0.8559c-1.27519,-0.30941 -2.15508,-1.19427 -1.96531,-1.97638c0.18977,-0.78211 1.37735,-1.16531 2.65254,-0.8559c1.27519,0.30941 2.15509,1.19427 1.96532,1.97638z" fill="#d9db56"/><path d="M328.51891,181.87945c-0.18977,0.78211 -1.37735,1.16532 -2.65254,0.85591c-1.27519,-0.30941 -2.1551,-1.19427 -1.96532,-1.97638c0.18977,-0.78211 1.37735,-1.16532 2.65254,-0.85591c1.27519,0.30941 2.15509,1.19427 1.96532,1.97639z" fill="#d9db56"/><path d="M319.74442,178.70726c-0.27229,1.12216 -1.97621,1.67197 -3.80583,1.22804c-1.82961,-0.44394 -3.09209,-1.71352 -2.81981,-2.83568c0.27229,-1.12216 1.97621,-1.67198 3.80582,-1.22804c1.82961,0.44394 3.0921,1.71352 2.81981,2.83568z" fill="#d9db56"/><path d="M325.47963,181.40278c-0.27229,1.12216 -1.9762,1.67197 -3.80582,1.22804c-1.82963,-0.44394 -3.0921,-1.71352 -2.81981,-2.83568c0.27229,-1.12216 1.97622,-1.67198 3.80583,-1.22804c1.82963,0.44394 3.09208,1.71353 2.81979,2.83569z" fill="#d9db56"/><path d="M325.59936,170.9965l5.06513,-3.48057l1.14823,1.67097l-5.06513,3.48057z" fill="#000000"/><path d="M326.76555,171.6462c-0.19695,0.81169 -0.92831,1.33096 -1.63355,1.15985c-0.70523,-0.17111 -1.11728,-0.96783 -0.92034,-1.77952c0.19695,-0.81169 0.92831,-1.33096 1.63355,-1.15985c0.70523,0.17111 1.11728,0.96783 0.92034,1.77952z" fill="#d9db56"/><path d="M327.95534,173.26151c-0.19695,0.81169 -0.9283,1.33096 -1.63354,1.15984c-0.70524,-0.17111 -1.11728,-0.96783 -0.92034,-1.77952c0.19695,-0.81169 0.92831,-1.33097 1.63355,-1.15985c0.70524,0.17111 1.11728,0.96784 0.92033,1.77953z" fill="#d9db56"/></g></g></g></svg>