<svg version="1.1" xmlns="http://www.w3.org/2000/svg" xmlns:xlink="http://www.w3.org/1999/xlink" width="37.16666" height="37.16666" viewBox="0,0,37.16666,37.16666"><defs><linearGradient x1="412.33333" y1="66.30952" x2="412.33333" y2="101.9762" gradientUnits="userSpaceOnUse" id="color-1"><stop offset="0" stop-color="#c5c556"/><stop offset="1" stop-color="#878723"/></linearGradient></defs><g transform="translate(-393.75,-65.55954)"><g stroke-miterlimit="10"><g><path d="M396.89106,101.9762c-1.32054,0 -2.39106,-1.07052 -2.39106,-2.39106v-30.88454c0,-1.32054 1.07052,-2.39106 2.39106,-2.39106h30.88454c1.32054,0 2.39106,1.07052 2.39106,2.39106v30.88454c0,1.32054 -1.07052,2.39106 -2.39106,2.39106z" fill="url(#color-1)" stroke="#343404" stroke-width="1.5"/><path d="M398.44293,98.30925v-21.77923h12.69214c-0.05361,0.75397 -0.16592,1.47158 -0.32063,2.2579l0.0088,0.02464h-0.01002v0.28571c0,0.13807 0.11193,0.25 0.25,0.25c0.10514,0 0.19511,-0.06489 0.23206,-0.15681l0.19469,-0.45428l-0.14544,-0.06233c0.00654,-0.03323 0.01299,-0.06636 0.01935,-0.0994c0.16896,-0.46126 0.33323,-0.88147 0.60328,-0.65697c0.83714,0.69596 1.27111,3.89213 2.04424,1.439c0.0867,0.30506 0.245,0.58513 0.36046,0.89242l0.01468,0.01511l-0.00522,0.00301l0.17708,0.30786c0.04255,0.07721 0.12472,0.12953 0.21911,0.12953c0.11897,0 0.21854,-0.08311 0.24381,-0.19444l0.11999,-0.48l-0.04781,-0.01196c0.3723,-1.0952 0.44165,-2.2987 0.44613,-3.489h10.61759v21.77923zM424.53709,90.71185c-0.01815,-1.81977 -0.28791,-5.60649 -2.00524,-6.65159c-0.07378,-0.07501 -0.16188,-0.15512 -0.2625,-0.23891c0.00642,-0.11071 -0.07822,-0.19536 -0.07822,-0.19536l-0.09091,-0.09091c-1.12528,-1.12528 -2.5597,-1.51563 -4.05532,-1.88954c-0.1753,0.00067 -0.35307,-0.00519 -0.53294,-0.01636c-0.17872,-0.02592 -0.35231,-0.04152 -0.51881,-0.04528c-1.36365,-0.14997 -2.82404,-0.52939 -4.23086,-0.63906c-1.22935,-0.21325 -2.47102,-0.2936 -3.87991,-0.02504c-2.45104,0.34984 -6.80824,1.00667 -7.81986,3.77312c-0.9126,1.35803 -1.87494,6.07282 -0.53843,7.50574c0.62827,2.86955 4.15409,3.23769 6.5229,3.84721c2.69119,0.59824 5.66058,0.27961 8.42192,0.27961c1.31059,0 4.19654,-0.3242 4.24033,-0.33564c1.44317,0.4108 2.83588,-0.88343 3.70222,-2.23045c0.70605,-0.75683 1.12564,-1.73192 1.12564,-3.04754z" fill="#343404" stroke="none" stroke-width="0"/><path d="M414.63557,79.58309c-0.08117,-0.17071 -0.16729,-0.31903 -0.27165,-0.46531l0.04182,-0.02788l-0.2752,-0.4128c-0.04451,-0.06892 -0.12201,-0.11455 -0.21017,-0.11455c-0.11302,0 -0.20853,0.075 -0.23946,0.17795l-0.08065,0.2473l0.00129,0.00042l-0.00268,0.00398c-0.50946,1.78256 -0.43281,-0.39423 -1.19714,-1.26387c-0.30856,-0.35107 -0.63822,-0.27402 -0.8893,-0.027c0.05662,-0.39003 0.09863,-0.77602 0.12504,-1.17132h3.21997c-0.13709,1.04888 -0.29581,2.17308 -0.22187,3.05307z" fill="#343404" stroke="none" stroke-width="0"/><path d="M399.20916,75.59496l4.57143,-6.85714l4.85714,6.85714h-2.00847l-2.78695,-4.21049l-2.9932,4.21049z" fill="#343404" stroke="none" stroke-width="0"/><path d="M423.99778,75.59497l-2.9932,-4.21049l-2.78695,4.21049h-2.00847l4.85715,-6.85715l4.57143,6.85715z" fill="#343404" stroke="none" stroke-width="0"/><path d="M403.09894,88.80804c-0.64334,0.15533 -2.5624,0.86314 -1.69004,1.50119c1.04098,0.76139 1.69004,-0.63282 1.69004,-1.35382c0,-0.04913 0,-0.09825 0,-0.14737zM403.03859,88.30033c0.0484,-0.16634 0.23893,-0.16634 0.23893,-0.16634l0.32142,0.25c0,0.19048 0,0.38096 0,0.57143c0,1.07113 -1.38795,2.96556 -2.59566,1.64617c-1.0829,-1.18304 1.072,-2.14132 2.03531,-2.30127z" fill="#343404" stroke="none" stroke-width="0.5"/><path d="M422.6769,89.37761c-3.48357,-0.62184 0.42518,2.64916 0.42384,0.25458c-0.05653,-0.00189 -0.11304,-0.00378 -0.16957,-0.00567l-0.18757,-0.13719c0,0 -0.04474,-0.04474 -0.0667,-0.11172zM423.17087,89.18188c0.09447,0.03225 0.18894,0.0645 0.28342,0.09676c1.27943,3.87064 -5.81892,-0.07683 -1.41168,-0.42952c0.47811,-0.03826 0.50724,-0.00711 0.92679,0.07543c0,0 0.22019,0.04404 0.20147,0.25733z" fill="#343404" stroke="none" stroke-width="0.5"/><path d="M409.17037,86.02684c0,0.20962 -0.17576,0.24348 -0.23254,0.24895c-0.35956,0.65108 -1.01514,1.23855 -1.71112,1.35734c-1.44428,0.00274 -2.71971,-1.63417 -1.48311,-2.92592c0.61892,-0.64652 1.6549,-0.57323 2.46249,-0.57323c0,0 0.22002,0 0.24725,0.20641c0.76598,0.20179 0.89801,0.85407 0.66721,1.52723c0.02929,0.03647 0.04982,0.08758 0.04982,0.15922zM408.63884,85.81883l0.00843,-0.00126c0.22096,-0.54398 0.09888,-1.04679 -0.7269,-1.04073h-0.07143c0,0 -0.01334,0 -0.03386,-0.00308c-0.67904,0.14708 0.02126,1.64995 0.82376,1.04507z" fill="#343404" stroke="none" stroke-width="0.5"/><path d="M419.19842,86.06269c0.00273,-0.00002 0.00529,-0.00006 0.00767,-0.00013zM419.10742,86.0582c0.01444,-0.01269 0.05131,-0.04201 0.10102,-0.0592c-0.02617,-0.14881 -0.08872,-0.28586 -0.17282,-0.38684c-0.09865,0.04772 -0.20809,0.00394 -0.20809,0.00394c-0.05275,-0.02128 -0.10449,-0.04024 -0.15519,-0.057c-0.03868,0.00504 -0.11921,0.00806 -0.18619,-0.03841c-0.01508,0.01031 -0.0254,0.01546 -0.0254,0.01546c-0.82572,0.30859 0.26779,0.4917 0.64667,0.52204zM418.69861,85.04421l0.24904,-0.05159c0.93022,0.42282 1.11199,1.74418 0.0131,2.32926c-3.28684,1.64342 -3.17971,-3.11025 -0.26214,-2.27766z" fill="#343404" stroke="none" stroke-width="0.5"/><path d="M412.39212,91.87319l-0.00746,-0.13207c0,0 0,-0.00644 0.00104,-0.01727c-0.18606,-0.04345 -0.3757,-0.11364 -0.56912,-0.22826c-0.06283,0.07973 -0.13361,0.14314 -0.21297,0.18343c-0.01977,0.01004 -0.06772,0.01216 -0.13726,0.00866c0.10879,0.78183 1.04298,0.59794 0.92577,0.18551zM413.38466,92.02684l-0.00187,0.31626c-0.11021,0.44086 -0.06955,0.89609 -0.07092,1.34955c-0.09596,0.6716 -1.38266,1.61329 -2.46057,1.70213c2.40989,0.47105 5.09837,-0.15598 5.74952,-2.6842c-0.00939,-2.35237 -0.31704,-4.39233 -2.95564,-4.50065c-0.08506,0.19127 -0.29664,0.12779 -0.29664,0.12779c-0.16766,-0.0503 -0.332,-0.09439 -0.49327,-0.13231h-0.14918c0,0 -0.10681,-0.00001 -0.18079,-0.06982c-2.00551,-0.3757 -3.53467,0.2471 -5.05892,1.76933c-1.99179,2.6646 -0.08796,4.42032 2.40337,5.23286c-0.08533,-0.07006 -0.16214,-0.15541 -0.22853,-0.25756c-0.4922,-0.75736 -0.16643,-2.49582 -0.04974,-3.38254c-0.38142,-0.00526 -0.64127,0.05091 -0.56396,0.24343l-0.08426,0.29335c0,0 -0.07905,0.23717 -0.31622,0.15812c-0.23717,-0.07905 -0.15812,-0.31623 -0.15812,-0.31623l0.0586,-0.13523c0.24257,-2.01382 3.23317,0.78749 3.21428,-1.78571c0,0 0,-0.01006 0.00202,-0.02614c-0.92963,-0.23504 -1.41049,-0.79529 0.17656,-0.79529c0,0 0.10687,0 0.18086,0.06988c0.38497,-0.00112 0.66669,0.01208 0.96893,0.16625l0.03344,-0.06687l0.28087,0.14043c0.08456,0.04009 0.14304,0.12623 0.14304,0.22603c0,0.11898 -0.08311,0.21854 -0.19444,0.2438l-0.28064,0.07016l-0.00046,-0.00183l-0.00533,0.0032c-0.26209,0.05163 -0.53997,0.05686 -0.80608,0.03077c-0.00906,0.26833 -0.06738,0.68363 -0.19432,1.038c1.18804,0.78104 2.30193,-0.26149 3.36785,1.33437l0.04019,0.03333c0,0 0.17678,0.17677 0,0.35355c-0.17678,0.17678 -0.35355,0 -0.35355,0l-0.10266,-0.10953c-0.5499,-0.82655 -1.12945,-0.85532 -1.74886,-0.86622c0.13544,0.0614 0.13544,0.22755 0.13544,0.22755zM410.05667,94.60202c0.29469,0.77735 2.65659,-0.24581 2.75649,-0.94522c0.00009,-0.46197 -0.03904,-0.92511 0.07337,-1.37479l-0.00114,-0.15524c-0.18566,0.8526 -1.837,0.82188 -1.92561,-0.49414c-0.26306,-0.03402 -0.57343,-0.07604 -0.86811,-0.10413c-0.11322,0.88162 -0.35416,2.23162 -0.03499,3.07351zM413.03034,91.79496c-0.0482,-0.00133 -0.09663,-0.0031 -0.14531,-0.00564c0.00968,0.05065 0.01517,0.09936 0.01679,0.14611c0.01785,-0.05148 0.05425,-0.11117 0.12852,-0.14047zM412.91166,87.70542c0.14285,0 0.36586,0 0.50871,0c3.16723,0 3.68624,2.36578 3.6767,5.06626c-0.77515,3.17835 -4.33885,3.77974 -7.23336,2.8888c-2.90418,-0.89944 -5.02297,-3.09463 -2.77506,-6.08315c1.72228,-1.72423 3.49783,-2.39987 5.82301,-1.87191z" fill="#343404" stroke="none" stroke-width="0.5"/><path d="M410.06101,91.489c0.29468,0.02809 0.62245,0.0614 0.88551,0.09542c0.08861,1.31602 1.79376,1.36569 1.97942,0.51309l0.00314,0.15824c-0.11242,0.44968 -0.06819,0.95424 -0.06827,1.41621c-0.0999,0.69942 -2.54399,1.74356 -2.83868,0.96621c-0.31916,-0.84189 -0.07434,-2.26754 0.03889,-3.14916z" fill="#343404" stroke="none" stroke-width="0.5"/><path d="M404.01958,83.72526c0,-0.25 0.25,-0.25 0.25,-0.25h0.05556c1.67532,0.00001 2.72803,-0.60387 3.90832,-1.45208l0.21485,-0.32227c0.04451,-0.06892 0.12201,-0.11455 0.21016,-0.11455c0.13807,0 0.25,0.11193 0.25,0.25c0,0.04199 -0.01035,0.08156 -0.02864,0.1163l-0.21997,0.43995l-0.01342,-0.00671l-0.00738,0.04108c-0.03127,0.03184 -0.06279,0.06314 -0.09455,0.09391c-0.13155,0.31853 -0.54501,0.58254 -1.06787,0.79416c-0.90965,0.50596 -1.94531,0.71575 -3.04039,0.71575c0,0 -0.09172,0 -0.16405,-0.05555h-0.00262c0,0 -0.25,0 -0.25,-0.25z" fill="#343404" stroke="none" stroke-width="0.5"/><path d="M417.71264,83.11345c0.02347,-0.04694 0.05187,-0.0791 0.08209,-0.10061c-0.00629,-0.06624 0.01314,-0.14597 0.10733,-0.21324c0.20344,-0.14531 0.34875,0.05812 0.34875,0.05812c0.47559,0.66586 1.16434,1.04746 1.96454,1.24289l0.46323,0.04211c0.12867,0.01023 0.2299,0.1179 0.2299,0.24921c0,0.13807 -0.11193,0.25 -0.25,0.25h-0.27778v-0.01181l-0.02463,0.01059c-0.06824,-0.01342 -0.13592,-0.02797 -0.20297,-0.04369l-0.0152,-0.00138l0.0002,-0.00216c-0.09893,-0.02348 -0.19651,-0.04953 -0.29255,-0.07827c-0.67931,-0.03928 -1.55151,-0.58738 -1.88706,-1.02884l-0.13403,-0.03751c0,0 -0.22361,-0.1118 -0.11181,-0.33541z" fill="#343404" stroke="none" stroke-width="0.5"/></g></g></g></svg>