<svg version="1.1" xmlns="http://www.w3.org/2000/svg" xmlns:xlink="http://www.w3.org/1999/xlink" width="122.34649" height="55.09059" viewBox="0,0,122.34649,55.09059"><defs><linearGradient x1="544.97443" y1="23.93215" x2="544.97443" y2="44.04086" gradientTransform="translate(-1485.23211,-93.12538) scale(3.04368,2.38703)" gradientUnits="userSpaceOnUse" id="color-1"><stop offset="0" stop-color="#ffffff"/><stop offset="1" stop-color="#fdff9d"/></linearGradient><linearGradient x1="540.09428" y1="44.11129" x2="540.09428" y2="61.15298" gradientTransform="translate(-1613.56553,-160.2476) scale(3.30874,2.81666)" gradientUnits="userSpaceOnUse" id="color-2"><stop offset="0" stop-color="#ffffff"/><stop offset="1" stop-color="#fdff9d"/></linearGradient><linearGradient x1="460.30267" y1="44.59863" x2="460.30267" y2="64.17412" gradientUnits="userSpaceOnUse" id="color-3"><stop offset="0" stop-color="#000000" stop-opacity="0"/><stop offset="1" stop-color="#000000" stop-opacity="0.54118"/></linearGradient><linearGradient x1="460.30269" y1="20.88186" x2="460.30269" y2="58.52142" gradientUnits="userSpaceOnUse" id="color-4"><stop offset="0" stop-color="#1c1c00"/><stop offset="1" stop-color="#1c1c00" stop-opacity="0"/></linearGradient><linearGradient x1="460.54846" y1="64.54277" x2="460.54846" y2="26.90321" gradientUnits="userSpaceOnUse" id="color-5"><stop offset="0" stop-color="#1c1c00"/><stop offset="1" stop-color="#1c1c00" stop-opacity="0"/></linearGradient><linearGradient x1="460.30267" y1="20.83986" x2="460.30267" y2="64.17412" gradientUnits="userSpaceOnUse" id="color-6"><stop offset="0" stop-color="#ffff94"/><stop offset="1" stop-color="#cccc48"/></linearGradient></defs><g transform="translate(-423.25624,-16.67579)"><g stroke-miterlimit="10"><text transform="translate(487.97301,39.01302) scale(0.32855,0.41893)" font-size="40" xml:space="preserve" fill="url(#color-1)" fill-rule="nonzero" stroke="none" stroke-width="1" stroke-linecap="butt" stroke-linejoin="miter" font-family="&quot;Allan-Bold&quot;, Sans Serif" font-weight="normal" text-anchor="start"><tspan x="0" dy="0">Sore Thumbs</tspan></text><path d="M423.25624,41.81434c0,-2.02211 1.63924,-3.66135 3.66135,-3.66135c2.02211,0 3.66135,1.63924 3.66135,3.66135c0,2.02211 -1.63924,3.66136 -3.66135,3.66136c-2.02211,0 -3.66135,-1.63925 -3.66135,-3.66136z" fill="#feffce" fill-rule="nonzero" stroke="none" stroke-width="0" stroke-linecap="butt" stroke-linejoin="miter"/><text transform="translate(487.66791,56.89271) scale(0.30223,0.35503)" font-size="40" xml:space="preserve" fill="url(#color-2)" fill-rule="nonzero" stroke="none" stroke-width="1" stroke-linecap="butt" stroke-linejoin="miter" font-family="&quot;Allan-Regular&quot;, Sans Serif" font-weight="normal" text-anchor="start"><tspan x="0" dy="0">???</tspan></text><g><path d="M447.24268,20.83986h26.12002c5.10646,0 9.21742,3.99836 9.21742,8.9649v25.40445c0,4.96655 -4.11097,8.96489 -9.21742,8.96489h-26.12002c-5.10645,0 -9.21742,-3.99834 -9.21742,-8.96489v-25.40445c0,-4.96655 4.11098,-8.9649 9.21743,-8.9649z" fill="#6e6e30" fill-rule="evenodd" stroke="none" stroke-width="4.43922" stroke-linecap="round" stroke-linejoin="round"/><path d="M482.58012,55.20922c0,4.96655 -4.11097,8.9649 -9.21742,8.9649h-26.12002c-5.10645,0 -9.21742,-3.99835 -9.21742,-8.9649v-10.61059c8.88121,0.04534 18.36341,0.13123 27.11866,0.13173c5.81207,0.00033 11.62414,-0.00625 17.43622,-0.01044z" fill="url(#color-3)" fill-rule="nonzero" stroke="none" stroke-width="4.43922" stroke-linecap="butt" stroke-linejoin="miter"/><path d="M447.07413,21.21458c0,0 -3.95963,3.70781 -4.09604,8.09548c-0.19541,6.2864 -0.35704,13.96843 -2.08069,14.14091c-1.63048,0.16315 -1.52495,-6.62113 -1.80971,-12.71206c-0.07558,-1.61665 -0.2053,-3.18203 -0.34631,-4.56079c0.69899,-0.54949 1.18871,-1.35321 1.32983,-2.27182c0.7053,-0.3159 1.28992,-0.85299 1.66564,-1.52302c0.84662,-0.12983 1.5957,-0.55573 2.13822,-1.16869z" fill="#ffff94" fill-rule="nonzero" stroke="none" stroke-width="0" stroke-linecap="butt" stroke-linejoin="miter"/><path d="M445.00316,40.40017c0,0 3.29818,12.54174 0.42005,12.73425c-2.92181,0.19543 -0.42005,-12.73425 -0.42005,-12.73425z" fill="#ffff94" fill-rule="nonzero" stroke="none" stroke-width="0" stroke-linecap="butt" stroke-linejoin="miter"/><path d="M442.31343,24.16752l16.68562,-0.2634c0,0 -2.74149,2.73672 -3.82729,5.81486c-1.11809,3.1696 -0.63206,6.68535 -4.2431,6.83004c-4.13447,0.08677 -3.91499,-4.08943 -5.05403,-7.51727c-0.90704,-2.72964 -3.56119,-4.86426 -3.56119,-4.86426z" fill="#ffff94" fill-rule="nonzero" stroke="none" stroke-width="0" stroke-linecap="butt" stroke-linejoin="miter"/><path d="M478.53868,28.2659c-1.60054,0.67543 -3.96761,-1.4885 -6.91857,-1.65333c-1.27215,-0.07106 -2.57984,1.83519 -4.10208,1.84567c-2.3762,0.01635 -2.77581,-1.70214 -5.64314,-1.68143c-3.83109,0.02767 -1.96621,-2.05769 -4.66479,-2.20763c-0.21049,-0.0117 -12.09038,3.36849 -12.29425,3.36232c-1.47131,-0.04446 -0.95386,1.59008 -0.86276,3.3116c0.09987,1.88741 -0.18234,3.86489 -1.03703,3.50194c-0.39917,-0.16951 -0.17724,-1.25056 -0.40584,-2.29199c-0.11612,-0.529 -0.66778,-0.99457 -0.82196,-1.43428c-0.68671,-1.95834 -1.49179,-4.46128 -2.0578,-6.04814c0.166,-0.32896 1.63072,-1.91736 2.00645,-2.58738c0.41466,-0.06359 1.71834,-0.91298 2.94815,-1.25171c1.2811,-0.35285 2.25207,-0.29764 3.64651,-0.3467c3.32319,-0.11694 7.98224,-0.00061 10.85946,-0.00061c3.21364,0 9.02796,-0.21076 12.82358,-0.08838c2.67982,0.08641 3.81462,0.3138 3.81462,0.3138c0.42746,0.29623 1.17854,0.70685 1.71326,0.79429c0.26197,0.1786 0.54884,0.32338 0.85433,0.42807c0.42647,0.61973 1.04278,1.09871 1.765,1.35298c0.14999,0.24363 0.32828,0.46798 0.53032,0.66843c0.16966,0.48567 0.44084,0.92368 0.78812,1.28864c0.05751,0.16501 0.12673,0.32452 0.20668,0.47754c-0.64612,0.81931 -1.64013,1.60989 -3.14822,2.24631z" fill="#ffff94" fill-rule="nonzero" stroke="none" stroke-width="0" stroke-linecap="butt" stroke-linejoin="miter"/><path d="M474.21514,28.90617c0,0 3.18427,9.36359 0.40555,9.50732c-2.82089,0.14591 -0.40555,-9.50732 -0.40555,-9.50732z" fill="#ffff94" fill-rule="nonzero" stroke="none" stroke-width="0" stroke-linecap="butt" stroke-linejoin="miter"/><path d="M482.58012,58.40011c-5.81207,-0.00419 -35.67365,0.07596 -44.55487,0.1213v-28.67466c0,-4.96655 4.11098,-8.9649 9.21743,-8.9649h26.12002c5.10645,0 9.21742,3.99835 9.21742,8.9649z" fill="url(#color-4)" fill-rule="nonzero" stroke="none" stroke-width="4.43922" stroke-linecap="butt" stroke-linejoin="miter"/><path d="M482.82589,55.57787c0,4.96655 -4.11096,8.9649 -9.2174,8.9649h-26.12002c-5.10645,0 -9.21742,-3.99836 -9.21742,-8.9649v-28.67466c8.8812,0.04534 38.7428,0.12548 44.55488,0.12131z" fill="url(#color-5)" fill-rule="nonzero" stroke="none" stroke-width="4.43922" stroke-linecap="butt" stroke-linejoin="miter"/><path d="M447.24268,20.83986h26.12002c5.10646,0 9.21742,3.99836 9.21742,8.9649v25.40445c0,4.96655 -4.11097,8.96489 -9.21742,8.96489h-26.12002c-5.10645,0 -9.21742,-3.99834 -9.21742,-8.96489v-25.40445c0,-4.96655 4.11098,-8.9649 9.21743,-8.9649z" fill="none" fill-rule="evenodd" stroke="url(#color-6)" stroke-width="2.5" stroke-linecap="round" stroke-linejoin="round"/><text transform="translate(453.53856,57.74932) rotate(-16.07718) scale(1.52321,0.97458) skewX(1.8204)" font-size="40" xml:space="preserve" fill="#e3e361" fill-rule="nonzero" stroke="none" stroke-width="1" stroke-linecap="butt" stroke-linejoin="miter" font-family="&quot;Allan-Bold&quot;, Sans Serif" font-weight="normal" text-anchor="start"><tspan x="0" dy="0">?</tspan></text></g></g></g></svg>