<svg version="1.1" xmlns="http://www.w3.org/2000/svg" xmlns:xlink="http://www.w3.org/1999/xlink" width="140.11964" height="256.0266" viewBox="0,0,140.11964,256.0266"><g transform="translate(-247.94018,-51.9867)"><g stroke-miterlimit="10"><path d="M271.38686,308.0133v-256.0266h97.2263v256.0266z" fill-opacity="0.01" fill="#000000" stroke="none" stroke-width="2" stroke-linecap="butt"/><path d="M275.88334,268.26667c0,0 -4.4174,-93.70946 2.55,-102.93333c10.75969,-14.24433 27.73333,7.16666 27.73333,7.16666l-5.58333,95.53334z" fill="#000000" stroke="#ecec68" stroke-width="1" stroke-linecap="butt"/><path d="M347.65475,243.35715l-1.82142,-71.19048c0,0 20.06593,-35.17386 31.83333,-21.74999c6.86712,7.83378 -18.16667,92.58333 -18.16667,92.58333z" fill="#000000" stroke="#ecec68" stroke-width="1" stroke-linecap="butt"/><path d="M319.83326,177.17292v-29.33333h12.33333v29.33333z" fill="#000000" stroke="#ecec68" stroke-width="1" stroke-linecap="butt"/><path d="M298.67103,119.9982c0,5.82033 -3.96141,10.53864 -8.84806,10.53864c-4.88665,0 -8.84806,-4.71831 -8.84806,-10.53864c0,-5.82033 3.96141,-10.53864 8.84806,-10.53864c4.88665,0 8.84806,4.71831 8.84806,10.53864z" fill="#000000" stroke="#ecec68" stroke-width="1" stroke-linecap="butt"/><path d="M362.1769,109.45956c4.88665,0 8.84806,4.71831 8.84806,10.53864c0,5.82033 -3.96141,10.53864 -8.84806,10.53864c-4.88665,0 -8.84806,-4.71831 -8.84806,-10.53864c0,-5.82033 3.96141,-10.53864 8.84806,-10.53864z" fill="#000000" stroke="#ecec68" stroke-width="1" stroke-linecap="butt"/><path d="M355.70196,147.34003c-1.28912,3.74196 -56.73027,3.87179 -58.68609,0.34367c-2.4753,-4.4652 0.54172,-86.86399 0.54172,-86.86399l8.00743,13.33003l6.75016,-16.04443l8.13126,15.62074l6.31876,-18.06147l6.03487,17.46248l6.66325,-13.8051l6.40122,15.32737l8.75398,-13.14226c0,0 2.92547,80.48608 1.08344,85.83296z" fill="#000000" stroke="#ecec68" stroke-width="1" stroke-linecap="butt"/><path d="M288.69995,127.49792v-14.8h73.8v14.8z" fill="#000000" stroke="none" stroke-width="0" stroke-linecap="butt"/><path d="M320.35708,167.07768v-22h11.28571v22z" fill="#000000" stroke="none" stroke-width="0" stroke-linecap="butt"/><path d="M288.49995,303.83542l4.5,-131h66l-23.5,131z" fill="#000000" stroke="#ecec68" stroke-width="1" stroke-linecap="butt"/><path d="M305.99998,173.16875h40l-19.98715,45.5z" fill="#ecec68" stroke="none" stroke-width="0" stroke-linecap="butt"/><path d="M320.78253,206.32451l5.22324,-29.401l5.21201,29.37555l-5.14637,12.6435z" fill="#000000" stroke="none" stroke-width="0" stroke-linecap="butt"/><path d="M316.91659,173.68542h18.16667l-9.07749,17.2881z" fill="#000000" stroke="none" stroke-width="0" stroke-linecap="butt"/><path d="M335.05,196.7854l-9.3,22.1l-10.7,-26.3" fill="none" stroke="#ecec68" stroke-width="1" stroke-linecap="round"/><path d="M311.62496,303l14,-84.75" fill="none" stroke="#ecec68" stroke-width="1" stroke-linecap="round"/><path d="M348.91666,192.33334l-5.16667,-12c0,0 1.49604,-5.91705 2.49968,-7.74185c0.56784,-1.03243 3.00032,-2.25815 3.00032,-2.25815c0,0 9.86421,-2.62252 11.77792,0.49612c2.45166,3.9953 2.72208,28.50388 2.72208,28.50388z" fill="#000000" stroke="none" stroke-width="0" stroke-linecap="butt"/><path d="M359.32556,253.26695c0,0 25.80887,5.46807 26.67524,6.19614c1.78807,1.50264 1.90054,7.90012 1.03049,8.1419c-2.51786,0.69969 -28.47032,-6.46239 -28.47032,-6.46239z" fill="#000000" stroke="#ecec68" stroke-width="1" stroke-linecap="butt"/><path d="M361.9162,241.99981l0.21954,11.82585c0,0 15.30197,6.4029 16.09833,7.20214c1.64356,1.64953 1.17021,8.03157 0.28145,8.19807c-2.57202,0.48184 -30.22642,-11.63287 -30.22642,-11.63287c0,0 -7.03959,8.55435 -8.95565,7.83621c-1.84264,-0.69061 -4.00966,-3.60877 -4.57666,-4.414c-1.28774,-1.82879 9.7241,-11.85119 9.7241,-11.85119l3.21417,-5.76167z" fill="#000000" stroke="#ecec68" stroke-width="1" stroke-linecap="butt"/><path d="M365.90012,238.57463c0.37122,2.14578 -3.20699,6.99659 -3.20699,6.99659l-16.77126,1.31071l0.74814,-7.87983c0,0 18.89615,-2.35789 19.23011,-0.42747z" fill="#ecec68" stroke="#ecec68" stroke-width="1" stroke-linecap="butt"/><path d="M288.25001,199.33334c0,0 0.27042,-24.50858 2.72208,-28.50388c1.91371,-3.11864 11.77792,-0.49612 11.77792,-0.49612c0,0 2.43248,1.22572 3.00032,2.25815c1.00364,1.8248 2.49968,7.74185 2.49968,7.74185l-5.16667,12z" fill="#000000" stroke="none" stroke-width="0" stroke-linecap="butt"/><g stroke="#ecec68" stroke-width="1" stroke-linecap="butt"><path d="M277.43902,285.1426c0,0 -25.95246,7.16208 -28.47032,6.46239c-0.87005,-0.24178 -0.75758,-6.63926 1.03049,-8.1419c0.86637,-0.72807 26.67524,-6.19614 26.67524,-6.19614z" fill="#000000"/><path d="M288.30493,267.40235l3.21417,5.76167c0,0 11.01184,10.0224 9.7241,11.85119c-0.567,0.80523 -2.73402,3.72339 -4.57666,4.414c-1.91606,0.71814 -8.95565,-7.83621 -8.95565,-7.83621c0,0 -27.6544,12.11471 -30.22642,11.63287c-0.88876,-0.1665 -1.36211,-6.54854 0.28145,-8.19807c0.79636,-0.79924 16.09833,-7.20214 16.09833,-7.20214l0.21954,-11.82585z" fill="#000000"/><path d="M291.28236,264.66877l0.31957,8.59412l-17.6284,-2.025c0,0 -3.57821,-4.85081 -3.20699,-6.99659c0.33396,-1.93042 20.51582,0.42747 20.51582,0.42747z" fill="#ecec68"/></g><path d="M345.5,174.08774l7,11.66666l-8,5.33333l4,5l-23,27.33334" fill="none" stroke="#ecec68" stroke-width="1" stroke-linecap="round"/><path d="M324.5,223.42106l-21,-28l4,-5l-5.66667,-3l4,-14.33333" fill="none" stroke="#ecec68" stroke-width="1" stroke-linecap="round"/></g></g></svg>