<svg version="1.1" xmlns="http://www.w3.org/2000/svg" xmlns:xlink="http://www.w3.org/1999/xlink" width="118.64681" height="107.30509" viewBox="0,0,118.64681,107.30509"><g transform="translate(-185.93119,-127.08581)"><g data-paper-data="{&quot;isPaintingLayer&quot;:true}" fill-rule="nonzero" stroke-linejoin="miter" stroke-miterlimit="10" stroke-dasharray="" stroke-dashoffset="0" style="mix-blend-mode: normal"><g data-paper-data="{&quot;index&quot;:null}" stroke-linecap="butt"><path d="M203.75124,210.34405c6.87139,-6.01316 10.27899,5.76176 17.16566,8.58578c5.58377,2.28974 11.501,-1.66911 11.501,-1.66911l6,4.41667c0,0 -8.25551,8.21796 -21.5,5.58333c-8.30273,-1.6516 -18.78523,-11.99986 -13.16667,-16.91667z" fill="#ecec68" stroke="#000000" stroke-width="2"/><path d="M207.34608,221.61132l-4.33946,-4.67008l8.14976,-7.57279l4.33946,4.67009z" fill="#000000" stroke="none" stroke-width="0"/><path d="M217.83217,227.40079l-5.50931,-2.08252l4.09743,-9.23928l4.50931,3.08252z" fill="#000000" stroke="none" stroke-width="0"/><path d="M231.09311,226.30025l-6.35739,1.72354l-1.57637,-8.46927l5.60739,-0.59853z" fill="#000000" stroke="none" stroke-width="0"/></g><path d="M237.49348,225.92948c8.16615,-0.13998 9.94936,2.12573 8.5651,5.10799c-0.31292,0.67415 -2.25852,2.13538 -8.35773,1.80566c-6.6718,-0.36067 -9.29157,-0.91172 -9.29157,-1.65972c0,-1.57638 -0.72955,-3.24678 0.67809,-4.17864c1.25539,-0.83106 4.39253,-1.0065 8.40611,-1.0753z" data-paper-data="{&quot;index&quot;:null}" fill="#c5c556" stroke="#9b9b44" stroke-width="3" stroke-linecap="butt"/><path d="M245.83019,224.51284c-6.67004,0.08177 -14.65905,0.16354 -14.8262,-0.84771c-0.62812,-3.80007 5.58333,-17.32891 5.58333,-17.32891l17.34171,-0.44122c0,0 5.49496,15.18096 5.74163,17.06643c0.24667,1.88547 -6.60945,1.46275 -13.84047,1.55141z" data-paper-data="{&quot;index&quot;:null}" fill="#000000" stroke="#6e6e30" stroke-width="3" stroke-linecap="butt"/><path d="M247.13191,227.09298c1.25279,-0.83629 4.50274,-1.23731 8.5305,-1.30635c8.16615,-0.13998 9.94936,2.12573 8.5651,5.10799c-0.31607,0.68095 -2.67971,1.87931 -8.59956,1.91835c-5.41204,0.03569 -9.04974,-1.03191 -9.04974,-1.77241c0,-1.57141 -0.84166,-3.01612 0.5537,-3.94758z" data-paper-data="{&quot;index&quot;:null}" fill="#c5c556" stroke="#9b9b44" stroke-width="3" stroke-linecap="butt"/><g data-paper-data="{&quot;index&quot;:null}" stroke-linecap="butt"><path d="M240.79633,210.52713c2.84198,-0.77418 6.52221,1.7678 7.78024,6.38598c1.25807,4.61819 -0.38249,9.56373 -3.22442,10.33792c-2.84198,0.77418 -6.19581,-1.39312 -7.4539,-6.0113c-1.25807,-4.61819 0.05609,-9.9384 2.89807,-10.71259z" fill="#ecec68" stroke="#000000" stroke-width="2"/><path d="M245.22658,227.59498c-3.9905,0.79879 -5.52574,-3.2484 -5.52574,-3.2484l9.07267,-2.88054c0,0 -0.11899,5.44276 -3.54695,6.12895z" fill="#000000" stroke="none" stroke-width="0"/><path d="M248.58748,218.15753l-10.644,3.19493l-0.90234,-3.38778l10.46265,-3.63005z" fill="#000000" stroke="none" stroke-width="0"/></g><g><path d="M244.3923,211.81317c-47.22913,-0.93334 -56.20724,-29.47601 -56.20724,-29.47601c0,0 8.08626,-4.16753 12.87276,-10.88238c11.90015,-16.79007 17.91624,-42.87915 46.6235,-42.08966c27.48533,0.75589 32.72085,29.27024 43.34542,45.62336c4.80312,7.39283 11.64584,9.16558 11.64584,9.16558c0,0 -11.88395,28.57601 -58.28028,27.65912z" fill="#ecec68" stroke="none" stroke-width="0" stroke-linecap="butt"/><path d="M280.75454,193.11151c-2.60321,-0.05648 -4.65873,-2.62849 -4.59112,-5.74476c0.0676,-3.11626 2.23273,-5.59671 4.83595,-5.54024c2.60321,0.05648 4.65873,2.62848 4.59112,5.74475c-0.0676,3.11626 -2.23273,5.59672 -4.83594,5.54025z" data-paper-data="{&quot;index&quot;:null}" fill="#6e6e30" stroke="none" stroke-width="0" stroke-linecap="butt"/><path d="M197.09171,175.83443c2.23017,-2.05192 3.48086,-5.08662 5.44141,-7.316c4.01807,-4.56902 6.87435,-14.96404 13.19266,-23.11752c7.90559,-10.20175 19.04041,-15.14907 19.04041,-15.14907c0,0 -15.45693,17.42911 -16.5271,35.64991c-1.87167,31.86736 15.79897,44.0197 15.79897,44.0197c0,0 -18.60145,-2.09133 -30.27212,-9.97893c-11.2516,-7.60435 -14.69681,-18.83653 -14.69681,-18.83653c0,0 4.35396,-1.89618 8.0226,-5.27157z" fill="#cbcb6a" stroke="none" stroke-width="0" stroke-linecap="butt"/><g data-paper-data="{&quot;index&quot;:null}" stroke="none" stroke-width="0" stroke-linecap="butt"><path d="M272.93523,142.08247c0,0 0.51715,-1.49265 1.19699,-3.65588c0.932,-2.96549 2.60618,-7.03513 7.65906,-8.82164c6.34703,-2.24408 12.31374,0.83868 14.84403,3.68891c2.41572,2.72118 6.19034,9.05943 0.9539,17.32535c-2.87564,4.53932 -8.37431,5.76465 -12.10467,6.42076c-2.74469,0.48276 -4.30779,0.89164 -4.30779,0.89164l-8.2415,-15.84915z" fill="#000000"/><path d="M283.82076,151.32076c-3.81906,-0.08285 -6.84788,-3.24599 -6.76502,-7.06505c0.08285,-3.81906 3.24599,-6.84788 7.06505,-6.76502c3.81906,0.08285 6.84788,3.24599 6.76502,7.06505c-0.08285,3.81906 -3.24599,6.84788 -7.06505,6.76502z" fill="#cbcb6a"/></g><path d="M244.24948,211.81006c-47.22913,-0.93334 -56.40711,-29.48305 -56.40711,-29.48305c0,0 7.34458,-1.95323 13.73913,-10.86088c12.00134,-16.71791 17.24972,-42.89361 45.95698,-42.10413c27.48533,0.75589 32.72085,29.27024 43.34542,45.62336c4.80312,7.39283 11.64584,9.16558 11.64584,9.16558c0,0 -11.88395,28.57601 -58.28028,27.65912z" data-paper-data="{&quot;index&quot;:null}" fill="none" stroke="#000000" stroke-width="3" stroke-linecap="butt"/><g data-paper-data="{&quot;index&quot;:null}" stroke="none" stroke-width="0" stroke-linecap="butt"><path d="M219.07433,140.91399l-8.92113,15.47681c0,0 -1.54389,-0.47628 -4.26507,-1.07762c-3.69839,-0.81731 -9.13877,-2.2799 -11.81481,-6.93968c-4.87302,-8.48525 -0.82709,-14.65384 1.70439,-17.26768c2.6515,-2.7378 8.74629,-5.5589 14.99004,-3.04166c4.97064,2.00398 6.46676,6.14239 7.26927,9.14551c0.58539,2.19066 1.03731,3.70435 1.03731,3.70435z" fill="#000000"/><path d="M201.03337,142.60642c0.08285,-3.81906 3.24599,-6.84788 7.06505,-6.76502c3.81906,0.08285 6.84788,3.24599 6.76502,7.06505c-0.08285,3.81906 -3.24599,6.84788 -7.06505,6.76502c-3.81906,-0.08285 -6.84788,-3.24599 -6.76502,-7.06505z" fill="#cbcb6a"/></g><path d="M252.75412,129.92401c0,0 0.19582,10.27958 -0.28843,15.45708c-0.64166,6.86025 -2.79085,11.82626 -2.79085,11.82626c0,0 -2.85078,-4.91988 -5.14453,-10.65082c-3.03783,-7.58998 -4.52312,-16.70059 -4.52312,-16.70059l10.33133,-0.55589z" data-paper-data="{&quot;index&quot;:null}" fill="#000000" stroke="none" stroke-width="0" stroke-linecap="butt"/><path d="M234.30037,147.10096c0,0 1.96348,-7.1198 12.07837,-6.77533c9.86426,0.33594 15.41516,7.37178 15.41516,7.37178z" data-paper-data="{&quot;index&quot;:null}" fill="#000000" stroke="none" stroke-width="0" stroke-linecap="butt"/><path d="M230.81284,138.25538c0,0 2.93555,-8.31329 14.70605,-7.93291c11.47883,0.37096 17.28642,8.62696 17.28642,8.62696z" data-paper-data="{&quot;index&quot;:null}" fill="#000000" stroke="none" stroke-width="0" stroke-linecap="butt"/><g data-paper-data="{&quot;index&quot;:null}" fill="#000000" stroke="none" stroke-width="0" stroke-linecap="butt"><path d="M295.22945,193.84417c0,0 -2.95574,0.32325 -10.42963,-1.82436c-5.10762,-1.46768 -7.06111,-4.5565 -7.06111,-4.5565c0,0 4.6599,-0.25878 9.32163,-1.88341c5.55456,-1.93579 9.32583,-4.71368 9.32583,-4.71368c0,0 4.96602,2.52957 4.79284,4.47251c-0.2065,2.31688 -5.94958,8.50545 -5.94958,8.50545z"/><path d="M293.52721,195.64383c0,0 -3.92955,1.4129 -3.34843,2.39242c-0.02828,0.01433 -0.05649,0.02882 -0.0846,0.0434c-1.61405,0.83796 -2.97336,2.10382 -3.92435,3.65059c-1.12179,1.12273 -2.08222,2.05893 -2.71794,2.34283c-0.75638,0.33783 -2.33272,1.06256 -3.14848,1.46859c-1.27279,-0.80363 -3.42191,-2.10533 -5.50785,-4.21597c-3.69312,-3.73682 -3.30232,-6.84924 -3.30232,-6.84924c0,0 3.84678,1.57251 8.21694,2.04715c5.20716,0.56558 13.81704,-0.87983 13.81704,-0.87983z"/><path d="M270.48621,205.0277c1.75773,1.16107 4.00171,1.28799 5.0209,1.95932c-0.26354,0.0385 -2.66004,1.17354 -2.88262,1.25841c-2.65757,1.01346 -5.00473,1.66584 -7.21618,2.78996c-0.39664,-1.13527 -0.82585,-2.51547 -1.26579,-4.17847c-1.21027,-4.57472 0.259,-7.47847 0.259,-7.47847c0,0 2.12717,3.03512 6.08468,5.64923z"/></g><g data-paper-data="{&quot;index&quot;:null}" fill="#000000" stroke="none" stroke-width="0" stroke-linecap="butt"><path d="M195.0445,191.42066c0,0 -5.4693,-6.43181 -5.57513,-8.75548c-0.08877,-1.94863 4.9823,-4.26045 4.9823,-4.26045c0,0 3.64727,2.93883 9.11263,5.11372c4.58687,1.82527 9.23119,2.28591 9.23119,2.28591c0,0 -2.08559,3.0012 -7.25205,4.24598c-7.55999,1.82147 -10.49893,1.37034 -10.49893,1.37034z"/><path d="M195.7977,193.02352c0,0 9.40847,2.08632 14.63525,1.74714c4.38665,-0.28468 8.29799,-1.68887 8.29799,-1.68887c0,0 0.25545,3.1264 -3.59626,6.69956c-2.1755,2.01819 -4.37907,3.22544 -5.68553,3.97314c-0.7974,-0.44105 -2.3408,-1.23345 -3.08182,-1.60376c-0.51561,-0.25764 -3.50809,0.10429 -4.34852,-0.79795c-0.1747,-0.18753 1.91924,-1.45915 1.73474,-1.66056c-0.88302,-1.58654 -3.95469,-2.07333 -5.53091,-2.98051c-0.02747,-0.01581 -0.79401,-0.54764 -0.82163,-0.56319c0.62306,-0.95342 -1.60333,-3.12499 -1.60333,-3.12499z"/><path d="M214.17827,205.40644c1.04735,-0.62649 3.29473,-0.65598 5.10117,-1.73973c4.06716,-2.44 6.32397,-5.38002 6.32397,-5.38002c0,0 1.34197,2.96475 -0.06558,7.48267c-0.51165,1.64235 -1.00031,3.00261 -1.44581,4.11962c-2.1606,-1.21896 -4.47728,-1.97252 -7.08838,-3.10028c-0.21868,-0.09445 -2.5637,-1.33237 -2.82534,-1.38224z"/></g><path d="M222.11581,191.95229c-2.60321,-0.05648 -4.65873,-2.62849 -4.59112,-5.74476c0.0676,-3.11626 2.23273,-5.59671 4.83595,-5.54024c2.60321,0.05648 4.65873,2.62848 4.59112,5.74475c-0.0676,3.11626 -2.23273,5.59672 -4.83594,5.54025z" data-paper-data="{&quot;index&quot;:null}" fill="#6e6e30" stroke="none" stroke-width="0" stroke-linecap="butt"/><g data-paper-data="{&quot;index&quot;:null}" fill="#000000" stroke="none" stroke-width="0" stroke-linecap="butt"><path d="M273.33867,156.5213c4.10005,0.08895 7.27028,7.23767 7.0809,15.96713c-0.18938,8.72945 -3.66666,15.73394 -7.7667,15.645c-4.10005,-0.08895 -7.27028,-7.23767 -7.0809,-15.96713c0.18938,-8.72945 3.66666,-15.73394 7.7667,-15.645z"/><path d="M277.76023,175.73314c0,0 0.87124,0.00832 2.08507,-0.11316c1.62961,-0.1631 3.73521,-0.31869 3.83194,1.25767c0.08294,1.35177 -2.0263,2.42525 -3.72856,3.19414c-1.30693,0.59033 -2.30525,1.0443 -2.30525,1.0443c0,0 -3.6344,-0.71876 -3.6064,-2.00889c0.028,-1.29014 3.72318,-3.37407 3.72318,-3.37407z"/></g><g data-paper-data="{&quot;index&quot;:null}" fill="#000000" stroke="none" stroke-width="0" stroke-linecap="butt"><path d="M238.03578,171.97537c-0.18938,8.72945 -3.66666,15.73394 -7.7667,15.645c-4.10005,-0.08895 -7.27028,-7.23767 -7.0809,-15.96713c0.18938,-8.72945 3.66666,-15.73394 7.7667,-15.645c4.10005,0.08895 7.27028,7.23767 7.0809,15.96713z"/><path d="M229.27763,178.54262c-0.028,1.29013 -3.69013,1.85058 -3.69013,1.85058c0,0 -0.97769,-0.49684 -2.25779,-1.14329c-1.66732,-0.84199 -3.728,-2.00593 -3.58651,-3.35283c0.16498,-1.57069 2.26186,-1.32393 3.88286,-1.0903c1.20745,0.17402 2.07822,0.20349 2.07822,0.20349c0,0 3.60136,2.24223 3.57337,3.53235z"/></g><path d="M274.91545,162.29129c1.60656,0.03485 2.84832,2.85639 2.77357,6.3021c-0.07475,3.44571 -1.43772,6.21074 -3.04427,6.1759c-1.60656,-0.03485 -2.84832,-2.8564 -2.77357,-6.30211c0.07475,-3.4457 1.43772,-6.21073 3.04427,-6.17589z" data-paper-data="{&quot;index&quot;:null}" fill="#ffffff" stroke="none" stroke-width="0" stroke-linecap="butt"/><path d="M232.9848,161.09133c1.60656,0.03485 2.84832,2.85639 2.77357,6.3021c-0.07475,3.4457 -1.43772,6.21074 -3.04427,6.1759c-1.60656,-0.03485 -2.84832,-2.8564 -2.77357,-6.30211c0.07475,-3.4457 1.43772,-6.21073 3.04427,-6.17589z" data-paper-data="{&quot;index&quot;:null}" fill="#ffffff" stroke="none" stroke-width="0" stroke-linecap="butt"/><path d="M251.47652,189.07313c-5.58946,-0.12126 -10.00295,-5.64375 -9.85779,-12.33481c0.14516,-6.69105 4.79399,-12.01695 10.38345,-11.8957c5.58946,0.12126 10.00295,5.64375 9.85779,12.33481c-0.14516,6.69105 -4.79399,12.01695 -10.38345,11.8957z" data-paper-data="{&quot;index&quot;:null}" fill="#6e6e30" stroke="none" stroke-width="0" stroke-linecap="butt"/><path d="M271.18787,181.95235c-0.88509,-0.0192 -1.58398,-0.89368 -1.56099,-1.95322c0.02299,-1.05953 0.75913,-1.90288 1.64422,-1.88366c0.88509,0.0192 1.58398,0.89367 1.56099,1.95321c-0.02299,1.05953 -0.75913,1.90289 -1.64422,1.88367z" data-paper-data="{&quot;index&quot;:null}" fill="#6e6e30" stroke="none" stroke-width="0" stroke-linecap="butt"/><path d="M228.66206,181.48139c-0.88509,-0.0192 -1.58398,-0.89368 -1.56099,-1.95322c0.02299,-1.05953 0.75913,-1.90288 1.64422,-1.88366c0.88509,0.0192 1.58398,0.89367 1.56099,1.95321c-0.02299,1.05953 -0.75913,1.90289 -1.64422,1.88367z" data-paper-data="{&quot;index&quot;:null}" fill="#6e6e30" stroke="none" stroke-width="0" stroke-linecap="butt"/><path d="M259.69897,180.6023c0,0 -1.73291,2.94937 -5.25794,2.40076c-2.46627,-0.38383 -2.9805,-4.02196 -2.9805,-4.02196c0,0 -0.32395,3.12252 -2.89996,3.74673c-3.63249,0.88023 -4.83679,-2.64145 -4.83679,-2.64145" data-paper-data="{&quot;index&quot;:null}" fill="none" stroke="#000000" stroke-width="2" stroke-linecap="round"/><g data-paper-data="{&quot;index&quot;:null}" stroke="none" stroke-width="0" stroke-linecap="butt"><path d="M252.01663,167.90339c3.4167,0.07411 5.9227,2.51317 5.87249,4.82701c-0.0502,2.31384 -3.48558,6.76031 -6.26731,6.84993c-2.78252,0.08966 -5.8731,-4.79837 -5.8229,-7.11221c0.0502,-2.31384 2.801,-4.63882 6.21771,-4.56472z" fill="#000000"/><path d="M248.07977,171.6708c0.02079,-0.95825 0.91919,-1.90798 3.75139,-1.73917c2.90289,0.17302 3.97602,0.9481 3.95525,1.90638c-0.02079,0.95826 -1.76283,1.69765 -3.89097,1.65148c-2.12812,-0.04618 -3.83645,-0.86041 -3.81567,-1.81867z" fill="#ffffff"/></g></g></g></g></svg>