<svg version="1.1" xmlns="http://www.w3.org/2000/svg" xmlns:xlink="http://www.w3.org/1999/xlink" width="34.17311" height="34.17311" viewBox="0,0,34.17311,34.17311"><g transform="translate(-302.91346,-162.9135)"><g stroke-miterlimit="10"><path d="M309.98312,162.9135h20.03379c3.9166,0 7.06966,3.15307 7.06966,7.06966v20.03379c0,3.91659 -3.15306,7.06966 -7.06966,7.06966h-20.03379c-3.91659,0 -7.06966,-3.15307 -7.06966,-7.06966v-20.03379c0,-3.91659 3.15307,-7.06966 7.06966,-7.06966z" fill="#787878" fill-rule="evenodd" stroke="none" stroke-width="0" stroke-linecap="round" stroke-linejoin="round"/><path d="M333.85922,182.03701c0,0 -5.79825,9.35044 -13.55768,9.35044c-3.27071,0 -5.67511,-1.69517 -8.08552,-3.65643c-3.30805,-2.69165 -6.07523,-5.88449 -6.07523,-5.88449c0,0 6.56299,-13.23397 14.32242,-13.23397c7.75944,0 13.39601,13.42445 13.39601,13.42445z" fill="#c1c1c1" fill-rule="nonzero" stroke="none" stroke-width="0" stroke-linecap="butt" stroke-linejoin="miter"/><path d="M324.57999,180.00001c0,3.48131 -2.05052,6.30346 -4.57996,6.30346c-2.52944,0 -4.57996,-2.82215 -4.57996,-6.30346c0,-3.48131 2.05052,-6.30347 4.57996,-6.30347c2.52944,0 4.57996,2.82216 4.57996,6.30347z" fill="none" fill-rule="nonzero" stroke="#8a8a8a" stroke-width="1" stroke-linecap="butt" stroke-linejoin="miter"/><path d="M321.48178,180c0,1.31366 -0.6634,2.3786 -1.48175,2.3786c-0.81835,0 -1.48176,-1.06494 -1.48176,-2.3786c0,-1.31366 0.66341,-2.3786 1.48176,-2.3786c0.81835,0 1.48175,1.06494 1.48175,2.3786z" fill="#8a8a8a" fill-rule="nonzero" stroke="#8a8a8a" stroke-width="1" stroke-linecap="butt" stroke-linejoin="miter"/><path d="M320.13711,191.26984c-5.74188,0.00892 -14.30801,-9.41414 -14.30801,-9.41414c0,0 6.76541,-12.96726 14.31614,-13.12437c6.90139,-0.1436 14.02572,13.0166 14.02572,13.0166c0,0 -7.41055,9.51286 -14.03385,9.52191z" fill="none" fill-rule="nonzero" stroke="#8a8a8a" stroke-width="1" stroke-linecap="round" stroke-linejoin="miter"/></g></g></svg>