<svg version="1.1" xmlns="http://www.w3.org/2000/svg" xmlns:xlink="http://www.w3.org/1999/xlink" width="772" height="495.66849" viewBox="0,0,772,495.66849"><g transform="translate(56,-212.33153)"><g fill="#535314" stroke="none" stroke-width="0" stroke-miterlimit="10"><path d="M-49.5,399.06416l38.1488,-69.61497l30.36269,-29.83831l21.33425,4.81865l17.56274,-18.55572l36.27773,3.75976l29.56339,-64.06865l36.5004,13.99925l29.52646,-13.00783l28.42276,33.73094l26.03575,18.52262l18.52719,-22.28895l21.53044,7.41434l25.06943,-11.06706l25.38182,9.10343l23.50752,-22.89206l38.37127,30.50082l10.34226,-4.50826l9.53828,7.52146l17.63396,-31.13985l37.02161,16.27319l38.35152,-45.39543l40.96766,76.10105l33.97215,-11.77237l18.64749,36.01518l25.98427,-7.09356l21.44919,19.55394l55.96898,73.92839z"/><path d="M-56,708.00002v-342h772v342z"/></g></g></svg>