<svg version="1.1" xmlns="http://www.w3.org/2000/svg" xmlns:xlink="http://www.w3.org/1999/xlink" width="139.33193" height="60.91547" viewBox="0,0,139.33193,60.91547"><defs><linearGradient x1="471.73382" y1="130.50042" x2="471.73382" y2="160.95572" gradientTransform="translate(-528.40454,-241.67862) scale(1.32401,1.57599)" gradientUnits="userSpaceOnUse" id="color-1"><stop offset="0" stop-color="#ffffb6"/><stop offset="1" stop-color="#ffff70"/></linearGradient><linearGradient x1="363.42863" y1="133.54958" x2="363.42863" y2="186.2816" gradientUnits="userSpaceOnUse" id="color-2"><stop offset="0" stop-color="#c5c556"/><stop offset="1" stop-color="#878723"/></linearGradient></defs><g transform="translate(-336.06263,-128.92089)"><g stroke-miterlimit="10"><g><path d="M344.05068,182.72055v-46.21653h131.34388v46.21653z" fill-opacity="0.01176" fill="#000000" stroke="none" stroke-width="NaN"/><g stroke="none" stroke-width="1" font-family="&quot;Allan-Regular&quot;, Sans Serif" font-weight="normal" font-size="40" text-anchor="start"><text transform="translate(397.51634,153.35147) scale(0.75528,0.63452)" font-size="40" xml:space="preserve" fill="#828216"><tspan x="0" dy="0">PHOTO </tspan><tspan x="0" dy="48px">ALBUM</tspan></text><text transform="translate(399.09338,153.34992) scale(0.75528,0.63452)" font-size="40" xml:space="preserve" fill="url(#color-1)"><tspan x="0" dy="0">PHOTO </tspan><tspan x="0" dy="48px">ALBUM</tspan></text></g><g><g fill="url(#color-2)" stroke="#343404" stroke-width="2"><g><path d="M340.59774,186.2816c-1.95239,0 -3.53511,-1.58272 -3.53511,-3.5351v-45.66181c0,-1.95238 1.58272,-3.53513 3.53511,-3.53513h45.6618c1.95239,0 3.53509,1.58274 3.53509,3.53513v45.66181c0,1.95238 -1.58271,3.5351 -3.53509,3.5351z"/></g></g><g stroke="none" stroke-width="0"><path d="M342.2422,176.79843v-29.78029h42.31857v29.78029z" fill="#343404"/><path d="M345.26494,148.56919l3.54395,-6.82465h11.69696l3.59321,6.51445z" fill="#343404"/><path d="M366.07363,154.20529v-3.19695h6.20855v3.19695z" fill="#a1a138"/><path d="M373.90948,154.27094v-3.19695h6.20857v3.19695z" fill="#a1a138"/><path d="M375.71114,148.39146v-3.84029h4.59189v3.84029z" fill="#343404"/></g><g stroke="none" stroke-width="0"><path d="M364.25129,162.16323c0,4.73184 -3.9909,8.56775 -8.91392,8.56775c-4.92301,0 -8.91391,-3.83592 -8.91391,-8.56775c0,-4.73184 3.99089,-8.56774 8.91391,-8.56774c4.92301,0 8.91392,3.83591 8.91392,8.56774z" fill="#a1a138"/><path d="M361.82501,162.30491c0,3.37011 -2.85791,6.10213 -6.38333,6.10213c-3.52542,0 -6.38334,-2.73202 -6.38334,-6.10213c0,-3.37011 2.85792,-6.10213 6.38334,-6.10213c3.52542,0 6.38333,2.732 6.38333,6.10213z" fill="#343404"/></g></g></g></g></g></svg>