<svg version="1.1" xmlns="http://www.w3.org/2000/svg" xmlns:xlink="http://www.w3.org/1999/xlink" width="748.33333" height="369.48102" viewBox="0,0,748.33333,369.48102"><defs><linearGradient x1="318.60949" y1="-3.22152" x2="318.60949" y2="364.74051" gradientUnits="userSpaceOnUse" id="color-1"><stop offset="0" stop-color="#ffffff"/><stop offset="1" stop-color="#fdffd4"/></linearGradient><linearGradient x1="-54.16664" y1="25.54984" x2="694.16672" y2="25.54984" gradientUnits="userSpaceOnUse" id="color-2"><stop offset="0" stop-color="#a5a02c"/><stop offset="1" stop-color="#7d690f"/></linearGradient></defs><g transform="translate(54.16664,4.74051)"><g stroke-miterlimit="10"><path d="M-47.77955,-3.22152h732.7781v367.96203h-732.7781z" fill="url(#color-1)" fill-rule="evenodd" stroke="none" stroke-width="2.07968" stroke-linecap="round" stroke-linejoin="round"/><path d="M-54.16664,55.84018v-60.58069h748.33333v60.58069z" fill="url(#color-2)" fill-rule="nonzero" stroke="none" stroke-width="0" stroke-linecap="butt" stroke-linejoin="miter"/><path d="M266.97047,353.14145c-0.00002,0.02694 -0.02188,0.04879 -0.04884,0.04879c-0.02694,0 -0.04881,-0.02184 -0.04884,-0.04879c0.00002,-0.02694 0.02188,-0.04879 0.04884,-0.04879c0.02694,0 0.04881,0.02184 0.04884,0.04879z" fill="#ffffff" fill-rule="nonzero" stroke="#000000" stroke-width="0.27531" stroke-linecap="butt" stroke-linejoin="miter"/><text transform="translate(7.03534,41.33269) scale(1.40445,1.15442)" font-size="40" xml:space="preserve" fill="#ffffff" fill-rule="nonzero" stroke="none" stroke-width="1" stroke-linecap="butt" stroke-linejoin="miter" font-family="&quot;Allan-Bold&quot;, Sans Serif" font-weight="normal" text-anchor="start"><tspan x="0" dy="0">CREDITS: Jreyb</tspan></text><path d="M195.37009,160.39992c-1,0 -1,-1 -1,-1v-1.70338c0.02795,-1.84931 -0.43863,-2.88758 -0.46292,-4.77754c0,0 0,-1 1,-1c1,0 1,1 1,1c-0.03004,1.8213 0.44012,2.87689 0.46292,4.77754v1.70338c0,0 0,1 -1,1z" fill="#ffffff" fill-rule="nonzero" stroke="none" stroke-width="0.5" stroke-linecap="butt" stroke-linejoin="miter"/><path d="M199.99932,159.01115c-1,0 -1,-1 -1,-1v-1.38686c-0.00724,-1.89469 0.07293,-2.92216 -0.82028,-4.64686c0,0 -0.44721,-0.89443 0.44721,-1.34164c0.89443,-0.44721 1.34164,0.44721 1.34164,0.44721c0.99449,2.04678 1.02287,3.31002 1.03142,5.53745v1.39068c0,0 0,1 -1,1z" fill="#ffffff" fill-rule="nonzero" stroke="none" stroke-width="0.5" stroke-linecap="butt" stroke-linejoin="miter"/><path d="M207.40608,157.62238c-1,0 -1,-1 -1,-1l0.01291,-1.22859c-0.62233,-1.81202 -0.62525,-4.15651 -2.03463,-5.47108c0,0 -0.70711,-0.70711 0,-1.41421c0.70711,-0.70711 1.41421,0 1.41421,0c1.72484,1.80612 1.83672,4.23172 2.5946,6.56493l0.01291,1.54895c0,0 0,1 -1,1z" fill="#ffffff" fill-rule="nonzero" stroke="none" stroke-width="0.5" stroke-linecap="butt" stroke-linejoin="miter"/><path d="M212.0196,156.12804c-0.89443,0.44721 -1.34164,-0.44721 -1.34164,-0.44721l-0.54174,-1.14331c-0.01699,-1.79035 -0.22553,-3.7958 -1.24757,-5.23013c0,0 -0.5547,-0.83205 0.27735,-1.38675c0.83205,-0.5547 1.38675,0.27735 1.38675,0.27735c1.12007,1.76256 1.55212,3.76868 1.52997,5.88002l0.3841,0.70839c0,0 0.44721,0.89443 -0.44721,1.34164z" fill="#ffffff" fill-rule="nonzero" stroke="none" stroke-width="0.5" stroke-linecap="butt" stroke-linejoin="miter"/><path d="M77.54307,243.50772c-1.27179,0 -1.27179,-1.27179 -1.27179,-1.27179c0,-1.96247 0,-5.69115 0,-7.65362c0,0 0,-1.27179 1.27179,-1.27179c1.27179,0 1.27179,1.27179 1.27179,1.27179c0,1.96247 0,3.92493 0,5.8874v1.76622c0,0 0,1.27179 -1.27179,1.27179z" fill="#ffffff" fill-rule="nonzero" stroke="none" stroke-width="0.5" stroke-linecap="butt" stroke-linejoin="miter"/><path d="M82.27296,240.42975c-1.13752,-0.56876 -0.56876,-1.70628 -0.56876,-1.70628l0.58874,-1.17748c1.61672,-3.08795 1.32558,-7.89371 1.63717,-11.32117c0,0 0.11515,-1.26656 1.38171,-1.15143c1.26656,0.11515 1.15143,1.38171 1.15143,1.38171c-0.3541,3.89508 -0.17567,8.6728 -1.89527,12.22841l-0.58874,1.17748c0,0 -0.56876,1.13752 -1.70628,0.56876z" fill="#ffffff" fill-rule="nonzero" stroke="none" stroke-width="0.5" stroke-linecap="butt" stroke-linejoin="miter"/><path d="M90.49534,239.97528c-1.27179,0 -1.27179,-1.27179 -1.27179,-1.27179c0,-3.53244 0,-8.8311 0,-12.36354c0,0 0,-1.27179 1.27179,-1.27179c1.27179,0 1.27179,1.27179 1.27179,1.27179c0,3.53244 0,7.06488 0,10.59732v1.76622c0,0 0,1.27179 -1.27179,1.27179z" fill="#ffffff" fill-rule="nonzero" stroke="none" stroke-width="0.5" stroke-linecap="butt" stroke-linejoin="miter"/><path d="M97.56022,237.03157c-1.27179,0 -1.27179,-1.27179 -1.27179,-1.27179l0.13426,-1.1575c1.72426,-3.39364 1.04321,-7.50963 1.04321,-11.20604c0,0 0,-1.27179 1.27179,-1.27179c1.27179,0 1.27179,1.27179 1.27179,1.27179c0,4.18604 0.59181,8.48626 -1.31175,12.34356l0.13426,0.01998c0,0 0,1.27179 -1.27179,1.27179z" fill="#ffffff" fill-rule="nonzero" stroke="none" stroke-width="0.5" stroke-linecap="butt" stroke-linejoin="miter"/><path d="M104.62507,227.023c-1.27179,0 -1.27179,-1.27179 -1.27179,-1.27179c0,-2.74746 0,-7.84987 0,-10.59732c0,0 0,-1.27179 1.27179,-1.27179c1.27179,0 1.27179,1.27179 1.27179,1.27179c0,2.74746 0,5.49491 0,8.24235v2.35496c0,0 0,1.27179 -1.27179,1.27179z" fill="#ffffff" fill-rule="nonzero" stroke="none" stroke-width="0.5" stroke-linecap="butt" stroke-linejoin="miter"/><path d="M129.35217,204.65088c-1.27179,0 -1.27179,-1.27179 -1.27179,-1.27179l0.04894,-0.23935c-0.88828,-3.109 -1.8028,-5.9269 -1.81516,-9.18049c0,0 0,-1.27179 1.27179,-1.27179c1.27179,0 1.27179,1.27179 1.27179,1.27179c-0.01298,2.99706 0.89828,5.61518 1.71728,8.48172l0.04894,0.93812c0,0 0,1.27179 -1.27179,1.27179z" fill="#ffffff" fill-rule="nonzero" stroke="none" stroke-width="0.5" stroke-linecap="butt" stroke-linejoin="miter"/><path d="M135.23957,201.70719c-1.27179,0 -1.27179,-1.27179 -1.27179,-1.27179l0.01642,-2.15124c-0.38479,-1.15436 -0.09605,-3.59871 -1.07962,-3.77612c0,0 -1.13752,-0.56876 -0.56876,-1.70628c0.56876,-1.13752 1.70628,-0.56876 1.70628,-0.56876c2.46979,1.54513 1.59075,3.0575 2.45282,5.64372l0.01642,2.55867c0,0 0,1.27179 -1.27179,1.27179z" fill="#ffffff" fill-rule="nonzero" stroke="none" stroke-width="0.5" stroke-linecap="butt" stroke-linejoin="miter"/><path d="M146.7362,196.62477c-0.89929,0.89929 -1.79857,0 -1.79857,0l-0.96124,-1.48803c0.00759,-1.28407 -0.23411,-2.56829 -0.55077,-3.81273c0,0 -0.30846,-1.23381 0.92537,-1.54227c1.23381,-0.30846 1.54227,0.92537 1.54227,0.92537c0.35634,1.44804 0.61932,2.9384 0.62671,4.42964l0.21624,-0.31055c0,0 0.89929,0.89929 0,1.79857z" fill="#ffffff" fill-rule="nonzero" stroke="none" stroke-width="0.5" stroke-linecap="butt" stroke-linejoin="miter"/><g fill-rule="nonzero" stroke-linejoin="miter"><g stroke="#ffffff" stroke-width="10"><g stroke-linecap="round"><path d="M125.37321,264.89066c0,0 -9.81058,-0.27087 -22.58529,-0.47188c-7.69066,-0.12102 -12.58268,-0.02588 -18.58244,0.4255c-2.98937,0.22498 -12.22006,5.30524 -12.22006,5.30524c0,0 -6.01692,-3.5944 -10.71394,-3.21587c-4.71239,0.37987 -9.04191,0.31895 -11.76304,-1.67517c-9.07798,-6.65248 -8.05095,-20.52964 -8.34878,-34.25315c-0.03739,-1.72387 -1.09255,-5.10454 -3.02885,-6.93994c-2.00867,-1.90398 -4.9004,-2.23164 -4.9004,-2.23164c0,0 -0.56321,-3.29646 0.68258,-7.30049c1.19671,-3.84603 4.21684,-8.36686 3.63562,-10.19771c-2.92613,-9.21703 -8.12445,-15.81539 -8.12445,-15.81539c0,0 9.24254,0.32878 8.66962,-2.88696c-2.7349,-15.34946 5.85011,-34.56103 23.45453,-47.38329c19.47103,-14.1818 47.83789,-8.69717 47.83789,-8.69717c0,0 26.00672,-9.7327 46.61838,-1.09203c24.37832,10.21977 29.47277,30.16896 29.47277,30.16896l9.36747,-1.30315l-2.18708,4.46423c0,0 8.39579,6.73293 9.05257,22.24803c0.28789,6.80013 -4.15677,17.41971 -4.15677,17.41971l2.81126,11.48857c0,0 -3.70491,5.65257 -5.02808,10.26841c-2.3026,8.03272 -3.10596,18.7596 -4.27159,20.82036c-1.28495,2.27172 -8.13457,6.08548 -8.13457,6.08548c0,0 -9.28241,7.90963 -16.16837,9.80759c-18.37512,5.0647 -41.38905,4.96162 -41.38905,4.96162z" fill="#000000"/><path d="M43.13429,238.72849l-13.82773,6.54646" fill="none"/><path d="M182.21626,250.50481l5.8372,8.83941" fill="none"/><path d="M195.86129,196.14621l11.26036,-3.12792" fill="none"/><path d="M204.4694,217.31457l-9.3336,-1.21742" fill="none"/></g><path d="M69.97175,211.22744c-3.72695,-26.21029 14.49941,-50.47912 40.7097,-54.20606c26.21029,-3.72695 50.47918,14.49938 54.20611,40.7097c3.49431,24.57464 -13.55497,51.25342 -39.76525,54.98035c-26.21026,3.72695 -51.42356,-15.27367 -55.15051,-41.48392z" fill="#ffffff" stroke-linecap="butt"/><path d="M68.45132,211.65633c0,0 -22.33329,-53.80849 44.15593,-68.13237c31.67065,-6.82285 46.69749,24.92533 52.27623,44.22673c2.23673,7.73867 2.32671,14.31276 2.32671,14.31276c0,0 -7.7706,-4.57816 -12.60636,-7.81636c-6.12794,-4.10346 -17.78316,0.73685 -17.78316,0.73685l-1.64845,-11.77094c0,0 -3.85182,6.41671 -4.63545,9.80584c-1.01785,4.40206 -0.95497,14.37155 -0.95497,14.37155l-10.31151,-11.42824c0,0 -0.89923,6.56095 -0.45636,9.86803c0.47152,3.52074 3.20489,10.65557 3.20489,10.65557c0,0 -8.35202,-4.39142 -11.82026,-7.94805c-4.30913,-4.41905 -12.06385,-16.54507 -12.06385,-16.54507c0,0 -11.12744,9.46052 -16.54639,13.05017c-4.1077,2.72112 -13.13699,6.6134 -13.13699,6.6134z" fill="#000000" stroke-linecap="round"/><path d="M158.13889,225.36739c-7.33014,2.43516 -39.84522,12.58515 -58.46482,10.39521c-21.70547,-2.5529 -19.88922,-18.09751 -19.88922,-18.09751" fill="none" stroke-linecap="round"/><path d="M137.65378,239.732c0,0 -5.7257,2.3438 -9.01142,2.7611c-3.75854,0.47738 -12.31262,-0.05298 -12.31262,-0.05298" fill="none" stroke-linecap="round"/><g fill="#000000" stroke-linecap="butt"><path d="M91.76433,218.5538c-4.47275,0.63601 -8.61425,-2.4743 -9.25024,-6.94708c-0.63601,-4.47275 2.4743,-8.61425 6.94704,-9.25024c4.47275,-0.63601 8.61425,2.4743 9.25024,6.94708c0.636,4.47275 -2.4743,8.61425 -6.94708,9.25024z"/><path d="M160.36471,208.79933c-4.47275,0.636 -8.61425,-2.47435 -9.25024,-6.9471c-0.636,-4.47277 2.47435,-8.61425 6.9471,-9.25026c4.47275,-0.63601 8.61425,2.47435 9.25024,6.9471c0.636,4.47275 -2.4743,8.61425 -6.94708,9.25024z"/></g></g><g stroke="#000000"><g stroke-linecap="round"><path d="M125.37319,264.89066c0,0 -9.81056,-0.27087 -22.58529,-0.47188c-7.69068,-0.12101 -12.58268,-0.02588 -18.58244,0.4255c-2.98937,0.22495 -12.22006,5.30524 -12.22006,5.30524c0,0 -6.0169,-3.5944 -10.71394,-3.21587c-4.71239,0.37987 -9.04194,0.31895 -11.76304,-1.67517c-9.07798,-6.65248 -8.05095,-20.52963 -8.34878,-34.25315c-0.03738,-1.72387 -1.09255,-5.10454 -3.02885,-6.93994c-2.00867,-1.90398 -4.9004,-2.23164 -4.9004,-2.23164c0,0 -0.5632,-3.29646 0.68258,-7.30049c1.19671,-3.84603 4.21684,-8.36687 3.63562,-10.1977c-2.92613,-9.21703 -8.12443,-15.81539 -8.12443,-15.81539c0,0 9.24254,0.3288 8.66962,-2.88696c-2.73488,-15.34946 5.85012,-34.56104 23.45453,-47.38329c19.471,-14.1818 47.83789,-8.69718 47.83789,-8.69718c0,0 26.00674,-9.7327 46.61838,-1.09203c24.37832,10.21977 29.47277,30.16896 29.47277,30.16896l9.36748,-1.30315l-2.18708,4.46423c0,0 8.39579,6.73293 9.05257,22.24803c0.28789,6.80013 -4.15679,17.41971 -4.15679,17.41971l2.81127,11.48857c0,0 -3.70491,5.65257 -5.02808,10.26841c-2.3026,8.03272 -3.10597,18.7596 -4.2716,20.82036c-1.28495,2.27174 -8.13457,6.08548 -8.13457,6.08548c0,0 -9.28241,7.90962 -16.16837,9.80759c-18.37512,5.0647 -41.38905,4.96162 -41.38905,4.96162z" fill="#000000" stroke-width="2"/><path d="M29.30655,245.27496l13.82771,-6.54646" fill="none" stroke-width="3"/><path d="M182.21625,250.5048l5.8372,8.83942" fill="none" stroke-width="3"/><path d="M207.12166,193.01828l-11.26036,3.12792" fill="none" stroke-width="3"/><path d="M195.13581,216.09716l9.3336,1.21742" fill="none" stroke-width="2"/></g><path d="M69.97175,211.22744c-3.72695,-26.21029 14.49941,-50.47912 40.7097,-54.20606c26.21029,-3.72695 50.47918,14.49936 54.20611,40.7097c3.49433,24.57465 -13.55497,51.25342 -39.76525,54.98035c-26.21026,3.72695 -51.42356,-15.27367 -55.15051,-41.4839z" fill="#ffffff" stroke-width="2" stroke-linecap="butt"/><path d="M68.4513,211.65632c0,0 -22.33329,-53.80849 44.15593,-68.13237c31.67065,-6.82285 46.69749,24.92533 52.27621,44.22673c2.23673,7.73867 2.32672,14.31276 2.32672,14.31276c0,0 -7.7706,-4.57816 -12.60636,-7.81636c-6.12797,-4.10346 -17.78316,0.73682 -17.78316,0.73682l-1.64847,-11.77094c0,0 -3.85182,6.41671 -4.63545,9.80581c-1.01786,4.40206 -0.95497,14.37154 -0.95497,14.37154l-10.31151,-11.42826c0,0 -0.89923,6.56095 -0.45638,9.86803c0.47152,3.52073 3.20489,10.65557 3.20489,10.65557c0,0 -8.35202,-4.39139 -11.82026,-7.94804c-4.30912,-4.41905 -12.06385,-16.54507 -12.06385,-16.54507c0,0 -11.12744,9.46052 -16.54639,13.05017c-4.10771,2.72112 -13.13699,6.6134 -13.13699,6.6134z" fill="#000000" stroke-width="2" stroke-linecap="round"/><path d="M158.13889,225.36739c-7.33014,2.43513 -39.84522,12.58515 -58.46482,10.39521c-21.70547,-2.55288 -19.88921,-18.09754 -19.88921,-18.09754" fill="none" stroke-width="2" stroke-linecap="round"/><path d="M137.65376,239.732c0,0 -5.7257,2.3438 -9.01143,2.7611c-3.75855,0.47739 -12.31261,-0.05297 -12.31261,-0.05297" fill="none" stroke-width="2" stroke-linecap="round"/><g fill="#000000" stroke-width="2" stroke-linecap="butt"><path d="M91.76433,218.55379c-4.47275,0.63601 -8.61425,-2.4743 -9.25024,-6.94708c-0.63601,-4.47275 2.4743,-8.61425 6.94704,-9.25024c4.47275,-0.63601 8.61425,2.4743 9.25024,6.94708c0.636,4.47275 -2.4743,8.61425 -6.94708,9.25024z"/><path d="M160.36468,208.79933c-4.47275,0.636 -8.61425,-2.47435 -9.25024,-6.9471c-0.636,-4.47277 2.47435,-8.61425 6.9471,-9.25026c4.47275,-0.63601 8.61425,2.47435 9.25024,6.9471c0.636,4.47275 -2.4743,8.61425 -6.94708,9.25024z"/></g></g></g><text transform="translate(138.50001,99.1636) scale(0.68209,0.95292)" font-size="40" xml:space="preserve" fill="#797621" fill-rule="nonzero" stroke="none" stroke-width="1" stroke-linecap="butt" stroke-linejoin="miter" font-family="&quot;Allan-Regular&quot;, Sans Serif" font-weight="normal" text-anchor="start"><tspan x="0" dy="0">!!Super composer for this mod!! (did almost all the sounds)</tspan></text><text transform="translate(310.33337,142.45352) scale(0.9601,0.85018)" font-size="40" xml:space="preserve" fill="#797621" fill-rule="nonzero" stroke="none" stroke-width="1" stroke-linecap="butt" stroke-linejoin="miter" font-family="&quot;Allan-Regular&quot;, Sans Serif" font-weight="normal" text-anchor="middle"><tspan x="0" dy="0">Designs:</tspan><tspan x="0" dy="46.15px">-Beat 4</tspan><tspan x="0" dy="46.15px">-Effects 2</tspan><tspan x="0" dy="46.15px">-Melody 5</tspan><tspan x="0" dy="46.15px">-Vocals 2,3,4</tspan><tspan x="0" dy="46.15px">-Allstar 5</tspan></text><text transform="translate(485.35081,141.45352) scale(0.9601,0.85018)" font-size="40" xml:space="preserve" fill="#797621" fill-rule="nonzero" stroke="none" stroke-width="1" stroke-linecap="butt" stroke-linejoin="miter" font-family="&quot;Allan-Regular&quot;, Sans Serif" font-weight="normal" text-anchor="middle"><tspan x="0" dy="0">Animations:</tspan><tspan x="0" dy="46.15px">-Beats 1,4,5</tspan><tspan x="0" dy="46.15px">-Effects 2,3,5</tspan><tspan x="0" dy="46.15px">-Melodies 2,5</tspan><tspan x="0" dy="46.15px">-Vocal 2</tspan><tspan x="0" dy="46.15px">-Allstar 3</tspan></text></g></g></svg>