<svg version="1.1" xmlns="http://www.w3.org/2000/svg" xmlns:xlink="http://www.w3.org/1999/xlink" width="189.02267" height="267.76027" viewBox="0,0,189.02267,267.76027"><defs><linearGradient x1="280.61027" y1="86.64661" x2="280.61027" y2="290.64661" gradientUnits="userSpaceOnUse" id="color-1"><stop offset="0" stop-color="#c5c556"/><stop offset="1" stop-color="#8f8f3f"/></linearGradient><linearGradient x1="359.61023" y1="86.64661" x2="359.61023" y2="290.64661" gradientUnits="userSpaceOnUse" id="color-2"><stop offset="0" stop-color="#c5c556"/><stop offset="1" stop-color="#8f8f3f"/></linearGradient><linearGradient x1="320.11022" y1="77.34726" x2="320.11022" y2="298.34726" gradientUnits="userSpaceOnUse" id="color-3"><stop offset="0" stop-color="#9b9b44"/><stop offset="1" stop-color="#797935"/></linearGradient></defs><g transform="translate(-225.48868,-45.2938)"><g stroke-miterlimit="10"><g fill="#535324" stroke="none" stroke-width="0" stroke-linecap="butt"><path d="M369.65829,294.54748c-1.5172,-11.52386 7.25539,-21.99046 19.59411,-23.37779c12.33873,-1.38733 23.57118,6.82996 25.08838,18.35383c1.5172,11.52387 -7.25539,21.99046 -19.59411,23.37779c-12.33874,1.38734 -23.57119,-6.82995 -25.08839,-18.35382z"/><path d="M376.55411,282.76259l-5.83809,-68.78837l13.78502,-1.2055l20.77104,68.22119z"/></g><g fill="#535324" stroke="none" stroke-width="0" stroke-linecap="butt"><path d="M234.72797,280.9899l20.77104,-68.22119l13.78502,1.2055l-5.83809,68.78837z"/><path d="M270.34175,294.54749c-1.5172,11.52387 -12.74965,19.74116 -25.08839,18.35382c-12.33872,-1.38733 -21.11131,-11.85392 -19.59411,-23.37779c1.5172,-11.52387 12.74965,-19.74116 25.08838,-18.35383c12.33872,1.38733 21.11131,11.85393 19.59411,23.37779z"/></g><path d="M302.86403,188.64661c0,56.33304 11.52428,102 -9.53098,102c-21.05525,0 -38.12391,-45.66696 -38.12391,-102c0,-56.33304 17.06865,-102 38.12391,-102c21.05525,0 9.53098,45.66696 9.53098,102z" fill="url(#color-1)" stroke="#6e6e30" stroke-width="2" stroke-linecap="butt"/><path d="M346.88745,86.64661c21.05525,0 38.12391,45.66696 38.12391,102c0,56.33305 -17.06866,102 -38.12391,102c-21.05525,0 -9.53098,-45.66695 -9.53098,-102c0,-56.33304 -11.52427,-102 9.53098,-102z" fill="url(#color-2)" stroke="#6e6e30" stroke-width="2" stroke-linecap="butt"/><g stroke="#6e6e30" stroke-width="2" stroke-linecap="butt"><path d="M340.82459,289.62054l17.29376,16.23858l-24.4088,-5.13913l-13.68942,9.62726l-13.71692,-9.25916l-24.20111,4.94564l17.88302,-16.5878z" fill="#797935"/><path d="M299.98515,86.84727l-17.88302,-31.66667l24.20111,9.4414l13.71692,-17.67605l13.68942,18.37877l24.40881,-9.81077l-17.29376,31z" fill="#9b9b44"/><path d="M361.77685,190.04262c0,90.53081 -18.00377,108.30464 -41.01562,108.30464c-23.01186,0 -42.31771,-17.77383 -42.31771,-108.30464c0,-90.53081 18.65481,-112.69536 41.66667,-112.69536c23.01187,0 41.66667,22.16456 41.66667,112.69536z" fill="url(#color-3)"/></g><path d="M328.67924,101.97964c-2.2291,1.91066 -6.04586,3.55461 -7.41082,6.14441c-3.06239,5.81042 -2.45814,14.61315 1.7557,20.10321c1.32716,1.72911 3.25531,2.69013 4.5443,4.58859c4.17879,6.15469 8.32002,13.30282 8.7918,20.8541c0.66672,10.67154 -5.37417,18.98214 -10.50062,27.77174c-1.96968,3.37714 -2.83647,7.76353 -3.79118,11.58237c-0.31404,1.25616 -1.65932,2.58826 -1.7082,3.9164c-0.07025,1.90854 0.4143,3.86514 0,5.72949c-0.91115,4.10014 -1.84919,5.1476 -0.5,11.22949c2.53372,11.42156 14.56712,17.91998 14.5,30.25987c-0.02625,4.82749 0.56352,8.09525 -0.7918,12.36475c-1.32301,4.16775 -6.78069,12.10442 -9.5443,15.58859c-2.12303,2.67658 -1.80488,7.50728 -2.16391,10.5573c-0.46491,3.94952 -1.93774,7.5 -7.5,7.5c-5.435,0 -7.10017,-3.55048 -7.5,-7.5c-0.92019,-9.08966 3.46804,-17.00063 8.1967,-24.3033c1.0176,-1.57151 4.15937,-5.93303 4.3033,-7.37704c0.1752,-1.75758 0.29255,-7.08049 -0.5,-9.54915c-1.42784,-4.44746 -6.02311,-8.30291 -8.2082,-12.4164c-1.74831,-3.29125 -4.09613,-6.38449 -5,-10c-1.44894,-5.79577 -0.36632,-11.6374 -0.2918,-17.39513c0.02786,-2.15282 -0.46705,-4.35726 0,-6.45898c1.49266,-6.71695 4.03445,-14.74007 7.2918,-20.8541c3.22512,-6.05354 9.11402,-12.07111 8.7082,-19.42881c-0.29015,-5.26063 -3.98385,-9.80991 -6.60144,-14.14946c-0.98547,-1.63375 -3.47368,-2.86249 -4.60676,-4.71352c-4.70298,-7.68288 -5.83853,-15.50997 -5.83853,-24.43484c0,-8.64229 6.7982,-15.34018 13.27724,-19.84285c0.61825,-0.42965 1.39332,-1.29076 2.26415,-2.16972c0.15007,-0.16214 0.30722,-0.31763 0.47095,-0.46599c1.53277,-1.48101 3.31048,-2.80256 5.03439,-1.9407c4.14213,0 7.5,3.35787 7.5,7.5c0,2.12515 -0.88388,4.04386 -2.30408,5.40856c-0.44458,0.60725 -0.94836,1.23296 -1.5033,1.88038z" fill="#ecec68" stroke="none" stroke-width="0.5" stroke-linecap="butt"/><path d="M307.14396,161.36524c-2.22623,6.82717 -9.19479,11.32538 -15.5647,10.04702c-6.36991,-1.27836 -9.72902,-7.84918 -7.50279,-14.67635c2.22623,-6.82717 9.19479,-11.32538 15.5647,-10.04702c6.36991,1.27836 9.72902,7.84918 7.50279,14.67635z" fill="#000000" stroke="none" stroke-width="0" stroke-linecap="butt"/><path d="M332.74064,135.53943c9.21754,-1.84983 19.30134,4.65926 22.5228,14.53848c3.22146,9.87921 -1.63933,19.38748 -10.85687,21.23733c-9.21754,1.84983 -19.30134,-4.65926 -22.5228,-14.53848c-3.22146,-9.87921 1.63933,-19.38748 10.85687,-21.23732z" fill="#000000" stroke="none" stroke-width="0" stroke-linecap="butt"/><path d="M295.0589,192.33258l5.01965,-1.87088c0,0 -24.64995,-2.58731 -0.76119,-5.25457c23.88876,-2.66726 26.52474,4.77279 26.52474,4.77279" fill="none" stroke="#6e6e30" stroke-width="2" stroke-linecap="round"/></g></g></svg>