<svg version="1.1" xmlns="http://www.w3.org/2000/svg" xmlns:xlink="http://www.w3.org/1999/xlink" width="193.28601" height="316.55875" viewBox="0,0,193.28601,316.55875"><defs><radialGradient cx="253.29524" cy="89.78222" r="34.30063" gradientUnits="userSpaceOnUse" id="color-1"><stop offset="0" stop-color="#0d0d00" stop-opacity="0"/><stop offset="1" stop-color="#0d0d00" stop-opacity="0.38824"/></radialGradient><radialGradient cx="398.92369" cy="100.82466" r="34.30063" gradientUnits="userSpaceOnUse" id="color-2"><stop offset="0" stop-color="#0d0d00" stop-opacity="0"/><stop offset="1" stop-color="#0d0d00" stop-opacity="0.38824"/></radialGradient></defs><g transform="translate(-226.32959,-18.35788)"><g stroke-miterlimit="10"><path d="M263.40898,324.61251v-293.22501h113.18203v293.22501z" fill-opacity="0.01" fill="#000000" stroke="none" stroke-width="0" stroke-linecap="butt"/><path d="M268.58907,105.64673c3.3469,-3.42436 3.98964,-5.59184 3.98964,-5.59184c0,0 -2.0532,0.22161 -5.95432,-0.81079c-3.98338,-1.05418 -6.3806,-4.00444 -6.3806,-4.00444c0,0 4.10606,-2.47654 6.36754,-4.61414c3.03449,-2.86827 4.80696,-6.46755 4.80696,-6.46755c0,0 -2.5108,0.95729 -4.61187,1.00431c-4.43047,0.09918 -6.23643,-2.05993 -6.23643,-2.05993c0,0 14.64994,-8.99331 18.83965,-26.74718c6.30654,-26.72397 41.64571,-24.34987 50.33968,-12.07534c11.82268,16.69177 14.16749,39.46296 4.28458,54.36444c-16.1545,24.35783 -19.82528,23.03311 -37.54172,24.87233c-25.02202,2.59762 -34.72421,-13.31438 -34.72421,-13.31438c0,0 3.52029,-1.17831 6.82108,-4.55549z" fill="#ecec68" stroke="#0d0d00" stroke-width="1.75" stroke-linecap="butt"/><g stroke-linecap="butt"><path d="M275.12237,155.75443l-11.32047,5.18224l-7.83606,-18.0639l19.39012,0.53427z" fill="#0d0d00" stroke="none" stroke-width="0"/><path d="M299.63012,144.33395c13.69908,9.21186 24.48034,29.10789 17.25666,39.85033c-7.22368,10.74245 -29.71684,8.26333 -43.4159,-0.94851c-13.69907,-9.21182 -13.41652,-21.66807 -6.19283,-32.41051c7.22368,-10.74243 18.653,-15.70309 32.35208,-6.49126z" fill="#ecec68" stroke="#0d0d00" stroke-width="1.75"/><path d="M283.14552,187.53884l-7.72942,-2.8038l25.75249,-38.16818l6.33625,4.74689z" fill-opacity="0.70196" fill="#0d0d00" stroke="none" stroke-width="0"/><path d="M286.22195,139.42437l8.67766,2.11743l-25.97771,38.24645l-4.72142,-6.59702z" fill-opacity="0.70196" fill="#0d0d00" stroke="none" stroke-width="0"/><path d="M299.00246,190.93381l-7.758,-0.04862l20.92575,-33.75073l4.3936,7.68363z" fill-opacity="0.70196" fill="#0d0d00" stroke="none" stroke-width="0"/></g><g><path d="M302.24846,120.4269c0,0 -41.78015,-1.68078 -51.72798,-2.40335c-4.26075,-0.30949 -12.72179,1.73898 -17.61998,4.54445c-4.61512,2.64333 -6.26857,6.68183 -6.26857,6.68183c0,0 4.70811,-16.41959 10.01476,-24.16111c5.30665,-7.74152 17.34725,-16.65719 17.34725,-16.65719c0,0 -3.15308,8.27078 10.15368,17.09389c13.30677,8.82311 38.10083,14.90151 38.10083,14.90151z" fill="url(#color-1)" stroke="none" stroke-width="0" stroke-linecap="round"/><path d="M298.57777,137.92002c-0.29224,0.23539 -19.67593,21.62169 -36.58732,21.54791c-14.6093,-0.06377 -6.95996,-13.72146 -6.95996,-13.72146c0,0 -29.01995,-2.63057 -27.92042,-14.49106c1.444,-15.57647 28.079,-13.16587 49.96723,-12.06691c13.09908,0.65769 35.44985,1.68907 35.44985,1.68907c0,0 -8.60783,12.74039 -13.94937,17.04242z" fill-opacity="0.4" fill="#f2d849" stroke="#0d0d00" stroke-width="1.5" stroke-linecap="butt"/></g><g><path d="M346.05923,124.08109c0,0 25.41185,-2.43526 39.85299,-9.24488c14.44113,-6.80962 12.51511,-15.44896 12.51511,-15.44896c0,0 10.62734,10.56054 14.76077,18.98706c4.13344,8.42652 6.42178,25.35379 6.42178,25.35379c0,0 -1.05311,-4.23489 -5.23826,-7.5168c-4.44187,-3.48323 -12.51853,-6.73173 -16.77933,-7.04059c-9.94794,-0.72112 -51.53305,-5.08964 -51.53305,-5.08964z" fill="url(#color-2)" stroke="none" stroke-width="0" stroke-linecap="round"/><path d="M347.16602,141.92085c-4.66452,-5.0281 -11.34288,-18.87771 -11.34288,-18.87771c0,0 22.26552,2.20613 35.32233,3.44641c21.81759,2.07248 48.52158,3.53236 47.70171,19.15413c-0.62425,11.89497 -29.71996,10.30846 -29.71996,10.30846c0,0 5.59748,14.61893 -8.86798,12.57292c-16.74489,-2.36844 -32.83803,-26.32907 -33.09323,-26.60418z" fill-opacity="0.4" fill="#f2d849" stroke="#0d0d00" stroke-width="1.5" stroke-linecap="butt"/></g><g stroke-linecap="butt"><path d="" fill="#0d0d00" stroke="none" stroke-width="0"/><path d="" fill="#ecec68" stroke="#0d0d00" stroke-width="1.75"/><path d="" fill-opacity="0.70196" fill="#0d0d00" stroke="none" stroke-width="0"/><path d="" fill-opacity="0.70196" fill="#0d0d00" stroke="none" stroke-width="0"/><path d="" fill-opacity="0.70196" fill="#0d0d00" stroke="none" stroke-width="0"/></g><path d="" fill="#ecec68" stroke="#0d0d00" stroke-width="1.75" stroke-linecap="butt"/><path d="" fill="#6e6e30" stroke="#0d0d00" stroke-width="1.35" stroke-linecap="butt"/><g stroke-linecap="butt"><path d="" fill="#ecec68" stroke="#0d0d00" stroke-width="1.75"/><path d="" fill="#ecec68" stroke="#0d0d00" stroke-width="1.75"/><path d="" fill="#ecec68" stroke="#0d0d00" stroke-width="1.75"/><path d="" fill="#ecec68" stroke="#0d0d00" stroke-width="1.75"/><path d="" fill="#ecec68" stroke="#0d0d00" stroke-width="1.75"/><path d="" fill="#ecec68" stroke="none" stroke-width="0"/><path d="" fill="#ecec68" stroke="none" stroke-width="0"/><path d="" fill-opacity="0.70196" fill="#0d0d00" stroke="none" stroke-width="0"/><path d="" fill-opacity="0.70196" fill="#0d0d00" stroke="none" stroke-width="0"/><path d="" fill-opacity="0.70196" fill="#0d0d00" stroke="none" stroke-width="0"/><path d="" fill="#9b9b44" stroke="#0d0d00" stroke-width="1.75"/></g><g stroke-linecap="butt"><path d="" fill="#ecec68" stroke="#0d0d00" stroke-width="1.75"/><path d="" fill="#ecec68" stroke="#0d0d00" stroke-width="1.75"/><path d="" fill="#ecec68" stroke="#0d0d00" stroke-width="1.75"/><path d="" fill="#ecec68" stroke="#0d0d00" stroke-width="1.75"/><path d="" fill="#ecec68" stroke="#0d0d00" stroke-width="1.75"/><path d="" fill="#ecec68" stroke="none" stroke-width="0"/><path d="" fill="#ecec68" stroke="none" stroke-width="0"/><path d="" fill-opacity="0.70196" fill="#0d0d00" stroke="none" stroke-width="0"/><path d="" fill-opacity="0.70196" fill="#0d0d00" stroke="none" stroke-width="0"/><path d="" fill-opacity="0.70196" fill="#0d0d00" stroke="none" stroke-width="0"/><path d="" fill="#9b9b44" stroke="#0d0d00" stroke-width="1.75"/></g><g stroke="#0d0d00" stroke-linecap="butt"><path d="" fill="#494920" stroke-width="1.75"/><path d="" fill="#080d00" stroke-width="1.5"/></g><g stroke="#0d0d00" stroke-linecap="butt"><path d="" fill="#494920" stroke-width="1.75"/><path d="" fill="#ffffd5" stroke-width="1.5"/><path d="" fill="#0d0d00" stroke-width="1.5"/><path d="" fill="#080d00" stroke-width="1.5"/></g><path d="" fill="#ffffd5" stroke="#0d0d00" stroke-width="1.5" stroke-linecap="butt"/><path d="" fill="#0d0d00" stroke="#0d0d00" stroke-width="1.5" stroke-linecap="butt"/><path d="" fill="#494920" stroke="none" stroke-width="0" stroke-linecap="butt"/><path d="" fill="none" stroke="#0d0d00" stroke-width="1.5" stroke-linecap="round"/><path d="" fill="#9b9b44" stroke="#0d0d00" stroke-width="1.75" stroke-linecap="butt"/><path d="" fill="#0d0d00" stroke="none" stroke-width="0" stroke-linecap="butt"/><path d="" fill="#ffffd5" stroke="#0d0d00" stroke-width="1.5" stroke-linecap="butt"/><path d="" fill="#9b9b44" stroke="#0d0d00" stroke-width="1.5" stroke-linecap="butt"/><path d="" fill="#9b9b44" stroke="#0d0d00" stroke-width="1.5" stroke-linecap="butt"/><path d="" fill="#9b9b44" stroke="none" stroke-width="0" stroke-linecap="butt"/><path d="" fill="#9b9b44" stroke="none" stroke-width="0" stroke-linecap="butt"/><path d="" fill="#9b9b44" stroke="none" stroke-width="0" stroke-linecap="butt"/><path d="" fill="none" stroke="#0d0d00" stroke-width="1" stroke-linecap="round"/><path d="" fill="#ffffd5" stroke="#0d0d00" stroke-width="1" stroke-linecap="butt"/><path d="" fill="#ffffd5" stroke="#0d0d00" stroke-width="1" stroke-linecap="butt"/><path d="" fill="#c1c155" stroke="#0d0d00" stroke-width="1.5" stroke-linecap="butt"/><path d="" fill="#c1c155" stroke="#0d0d00" stroke-width="1.5" stroke-linecap="butt"/><path d="" fill="#ecec68" stroke="#0d0d00" stroke-width="1.5" stroke-linecap="butt"/><path d="" fill="#0d0d00" stroke="none" stroke-width="NaN" stroke-linecap="butt"/><path d="" fill="#0d0d00" stroke="none" stroke-width="NaN" stroke-linecap="butt"/><path d="" fill="#ecec68" stroke="#0d0d00" stroke-width="1.75" stroke-linecap="butt"/><path d="" fill="#ecec68" stroke="#0d0d00" stroke-width="1.75" stroke-linecap="butt"/><path d="" fill="#ecec68" stroke="#0d0d00" stroke-width="1.75" stroke-linecap="butt"/><path d="" fill="#ecec68" stroke="#0d0d00" stroke-width="1.75" stroke-linecap="butt"/><path d="" fill="#ecec68" stroke="#0d0d00" stroke-width="1.75" stroke-linecap="butt"/><path d="" fill="#ecec68" stroke="none" stroke-width="0" stroke-linecap="butt"/><path d="" fill="#ecec68" stroke="none" stroke-width="0" stroke-linecap="butt"/><g stroke="#0d0d00" stroke-width="1" stroke-linecap="butt"><g fill="#c5c556"><path d=""/><path d=""/></g><g fill="#c5c556"><path d=""/><path d=""/></g><path d="" fill="#ffffd5"/></g><path d="" fill="none" stroke="#0d0d00" stroke-width="1" stroke-linecap="round"/><path d="" fill="#c4c44a" stroke="none" stroke-width="0" stroke-linecap="butt"/><g stroke-linecap="butt"><path d="" fill="#a5a549" stroke="none" stroke-width="0"/><path d="" fill="#0d0d00" stroke="none" stroke-width="0"/><path d="" fill="#0d0d00" stroke="#0d0d00" stroke-width="1"/><g fill="#0d0d00" stroke="none" stroke-width="0"><path d=""/><path d=""/><path d=""/></g><g stroke="none" stroke-width="0"><path d="" fill="#6e6e30"/><path d="" fill="#6e6e30"/><path d="" fill="#6e6e30"/><path d="" fill="#6e6e30"/><path d="" fill="#6e6e30"/><path d="" fill="#6e6e30"/><path d="" fill="#ffffff"/></g></g><g stroke-linecap="butt"><path d="" fill="#a5a549" stroke="none" stroke-width="0"/><path d="" fill="#0d0d00" stroke="none" stroke-width="0"/><path d="" fill="#0d0d00" stroke="#080d00" stroke-width="1"/><g fill="#0d0d00" stroke="none" stroke-width="0"><path d=""/><path d=""/><path d=""/></g><g stroke="none" stroke-width="0"><path d="" fill="#6e6e30"/><path d="" fill="#6e6e30"/><path d="" fill="#6e6e30"/><path d="" fill="#6e6e30"/><path d="" fill="#6e6e30"/><path d="" fill="#6e6e30"/><path d="" fill="#ffffff"/></g></g><path d="" fill="#ecec68" stroke="#0d0d00" stroke-width="1.75" stroke-linecap="round"/><g stroke-linecap="butt"><path d="M333.51374,204.04528c0,0 1.31216,-15.91693 2.90731,-33.59592c2.15542,-23.8885 -4.12268,-61.31792 19.87356,-47.00878c6.29303,3.75258 8.59753,16.25966 7.49809,27.46913c-1.09289,11.14263 -4.89426,21.45877 -4.89426,21.45877c0,0 -1.53143,11.35638 -2.69558,17.12092c-1.20661,5.97472 -5.09812,17.65983 -5.09812,17.65983z" fill="#ecec68" stroke="#0d0d00" stroke-width="1.75"/><path d="M343.31626,203.17893c4.85398,-0.40321 9.67639,3.9628 11.68679,9.1105c2.1904,5.60861 -0.48057,13.48928 -3.01337,15.52738c-3.47897,2.79944 -9.89702,-1.75819 -9.89702,-1.75819c0,0 -4.0646,-22.44042 1.22359,-22.87968z" fill="#ecec68" stroke="#0d0d00" stroke-width="1.75"/><path d="M351.89909,216.06753c0.00272,0.14898 -0.7706,15.59482 -7.15441,14.91436c-8.5199,-0.90815 -8.41302,-8.48824 -8.41302,-8.48824c0,0 4.32184,-16.55283 10.4964,-16.33305c5.66757,0.20173 5.07104,9.90694 5.07104,9.90694z" fill="#ecec68" stroke="#0d0d00" stroke-width="1.75"/><path d="M344.37657,203.58246c4.83866,0.84352 2.26993,10.04304 2.26993,10.04304c-0.0292,0.14256 -2.88039,13.40542 -8.69946,14.47179c-8.09599,1.48361 -6.06917,-10.12293 -6.06917,-10.12293c0,0 7.2272,-15.31087 12.49871,-14.39191z" fill="#ecec68" stroke="#0d0d00" stroke-width="1.75"/><path d="M346.15573,204.55538c1.58592,1.48483 -7.7813,3.79436 -10.58126,7.72593c-3.14472,3.69018 -0.11707,9.07529 -0.11707,9.07529c0,0 -14.00641,-1.31503 -6.10774,-14.81776c3.76259,-6.43211 14.1414,-4.47832 16.80606,-1.98349z" fill="#ecec68" stroke="#0d0d00" stroke-width="1.75"/><path d="M333.80539,207.09531l1.88111,-11.95339l16.91116,2.08253l-3.13243,14.65266z" fill="#ecec68" stroke="none" stroke-width="0"/><path d="M353.18018,222.34558c0,0 -1.98646,-1.83568 -5.26901,-2.21523c-2.61286,-0.30212 -6.0441,0.17615 -7.72398,-0.38402c-4.069,-1.35685 -10.14211,-6.81844 -10.14211,-6.81844l7.91857,-11.18113c0,0 7.10152,-1.14165 13.78822,6.9343c3.23978,3.91286 1.42831,13.66452 1.42831,13.66452z" fill="#ecec68" stroke="none" stroke-width="0"/><path d="M349.28255,156.25821c-7.6372,-0.9543 -12.64371,-4.39234 -12.64371,-4.39234l0.25975,-9.09623l26.47713,4.73264l-0.71052,7.79662c0,0 -2.59296,2.3075 -13.38264,0.95929z" fill-opacity="0.70196" fill="#0d0d00" stroke="none" stroke-width="0"/><path d="M346.79554,176.13064c-8.37437,-1.52105 -10.79421,-3.85858 -10.79421,-3.85858l0.43196,-9.06544c0,0 3.26374,3.4028 10.98075,4.80712c8.55615,1.55704 12.30158,-0.67245 12.30158,-0.67245l-1.11638,8.15733c0,0 -2.56396,2.31023 -11.8037,0.63201z" fill-opacity="0.70196" fill="#0d0d00" stroke="none" stroke-width="0"/><path d="M344.13254,199.30964c-7.66962,-1.39508 -9.96375,-3.10063 -9.96375,-3.10063l0.52883,-9.04812c0,0 3.05373,2.75575 10.12127,4.04398c7.83607,1.42831 10.97432,-0.27326 10.97432,-0.27326l-1.35672,8.08746c0,0 -1.84177,1.82982 -10.30394,0.29057z" fill-opacity="0.70196" fill="#0d0d00" stroke="none" stroke-width="0"/><path d="M349.57646,152.32593c-8.1309,-0.80767 -12.49066,-3.04001 -12.47541,-3.87787c0.21925,-12.06052 -1.78131,-23.28974 3.20407,-27.02625c2.82612,-2.11817 9.75884,-1.69662 15.98949,2.01876c5.18842,3.09391 9.71194,15.55204 7.439,27.53873c-0.03974,0.20958 -2.46294,2.50826 -14.15714,1.34663z" fill="#9b9b44" stroke="#0d0d00" stroke-width="1.75"/></g><g stroke-linecap="butt"><path d="M289.70133,203.27314c0,0 -2.20553,-12.11699 -2.55791,-18.20213c-0.33997,-5.87108 -0.25532,-17.32994 -0.25532,-17.32994c0,0 -2.30928,-10.74897 -1.82059,-21.93439c0.49162,-11.25252 4.5361,-23.3099 11.29525,-26.13796c25.77364,-10.78379 14.28222,25.38696 13.04882,49.34077c-0.9128,17.72731 -1.85737,33.6703 -1.85737,33.6703z" fill="#ecec68" stroke="#0d0d00" stroke-width="1.75"/><path d="M297.97168,200.44033c5.17347,1.1803 -2.01373,22.82372 -2.01373,22.82372c0,0 -6.99641,3.60746 -10.04603,0.34556c-2.22021,-2.37475 -3.75367,-10.55324 -0.79455,-15.79709c2.71594,-4.81292 8.10562,-8.45558 12.85431,-7.37219z" fill="#ecec68" stroke="#0d0d00" stroke-width="1.75"/><path d="M294.07464,202.89721c6.14389,0.65277 8.08931,17.64954 8.08931,17.64954c0,0 -0.96266,7.51948 -9.52551,7.2176c-6.41598,-0.22618 -5.00436,-15.62682 -4.98066,-15.77392c0,0 0.77745,-9.69239 6.41687,-9.09322z" fill="#ecec68" stroke="#0d0d00" stroke-width="1.75"/><path d="M296.86506,200.69035c5.34841,-0.16673 10.34525,16.01001 10.34525,16.01001c0,0 0.37053,11.77636 -7.43549,9.16637c-5.61066,-1.87598 -6.56386,-15.40832 -6.57268,-15.55357c0,0 -1.24633,-9.46975 3.66292,-9.62279z" fill="#ecec68" stroke="#0d0d00" stroke-width="1.75"/><path d="M294.96656,201.40276c2.98972,-2.09431 13.5403,-2.5656 16.35866,4.33265c5.91649,14.4813 -8.13545,13.80889 -8.13545,13.80889c0,0 3.75649,-4.90457 1.16334,-9.00118c-2.21781,-4.287 -11.16595,-7.89388 -9.38657,-9.14033z" fill="#ecec68" stroke="#0d0d00" stroke-width="1.75"/><path d="M290.65801,208.18488l-1.03574,-14.94789l17.03587,0.32204l0.17739,12.09921z" fill="#ecec68" stroke="none" stroke-width="0"/><path d="M285.50453,218.02519c0,0 -0.4188,-9.90963 3.34018,-13.32674c7.75832,-7.05275 14.62801,-4.92149 14.62801,-4.92149l6.26342,12.18569c0,0 -6.78233,4.551 -11.00196,5.32074c-1.74205,0.31778 -5.07162,-0.63936 -7.70098,-0.70857c-3.30329,-0.08694 -5.52866,1.45039 -5.52866,1.45039z" fill="#ecec68" stroke="none" stroke-width="0"/><path d="M285.56505,150.31096l0.39557,-7.81893l26.87988,-0.9532l-1.02504,9.042c0,0 -5.44115,2.698 -13.1366,2.56624c-10.872,-0.18615 -13.11381,-2.83612 -13.11381,-2.83612z" fill-opacity="0.70196" fill="#0d0d00" stroke="none" stroke-width="0"/><path d="M286.74311,170.88215l0.0446,-8.23325c0,0 3.39376,2.73517 12.08396,2.39975c7.8379,-0.30252 11.54872,-3.2113 11.54872,-3.2113l-0.85021,9.03581c0,0 -2.72518,1.97308 -11.23033,2.29851c-9.38405,0.35906 -11.59674,-2.28953 -11.59674,-2.28953z" fill-opacity="0.70196" fill="#0d0d00" stroke="none" stroke-width="0"/><path d="M287.54884,194.75451l-0.20319,-8.19795c0,0 2.86708,2.12696 10.82625,1.81747c7.17856,-0.27914 10.59024,-2.57692 10.59024,-2.57692l-0.75187,9.03232c0,0 -2.51163,1.36514 -10.30133,1.66519c-8.59465,0.33106 -10.1601,-1.7401 -10.1601,-1.7401z" fill-opacity="0.70196" fill="#0d0d00" stroke="none" stroke-width="0"/><path d="M285.1162,145.88381c-0.56062,-12.18739 5.67381,-23.88352 11.24655,-26.21517c5.7174,-2.39218 12.1301,-2.79588 14.69871,-1.2128c5.74151,3.5386 2.3836,15.71665 0.77819,28.67611c-0.10303,0.83164 -4.73391,2.42713 -12.89748,2.08062c-11.74119,-0.49837 -13.81616,-3.11568 -13.82597,-3.32876z" fill="#9b9b44" stroke="#0d0d00" stroke-width="1.75"/></g><g stroke="#0d0d00" stroke-linecap="butt"><path d="M343.2837,168.5262c1.57051,0.61318 8.28838,9.05799 8.28838,9.05799c0,0 11.70608,5.3101 12.42364,28.4523c0.59213,19.09689 -6.03411,34.31567 -6.03411,34.31567c0,0 -1.54311,18.66129 -4.4982,32.98192c-2.95508,14.32063 -9.77938,36.72745 -9.77938,36.72745l-23.53796,-0.71747l0.07992,-132.64153c0,0 14.92481,-11.3517 23.05772,-8.17632z" fill="#494920" stroke-width="1.75"/><path d="M319.85249,305.29258v-3.32279c0,0 27.48357,-0.6001 27.98562,0c0.93972,1.12327 -0.81595,3.43621 -3.17871,4.19494z" fill="#080d00" stroke-width="1.5"/></g><g stroke="#0d0d00" stroke-linecap="butt"><path d="M297.64475,168.2762c8.13291,-3.17538 23.05772,8.17632 23.05772,8.17632l0.07992,132.64153l-23.53796,0.71747c0,0 -6.8243,-22.40682 -9.77938,-36.72745c-2.95509,-14.32064 -4.4982,-32.98192 -4.4982,-32.98192c0,0 -6.62624,-15.21878 -6.03411,-34.31568c0.71756,-23.14219 12.42364,-28.4523 12.42364,-28.4523c0,0 6.71787,-8.44481 8.28838,-9.05799z" fill="#494920" stroke-width="1.75"/><path d="M320.54211,307.57133l0.15642,14.66283c0,0 -2.13105,3.33828 -9.57044,6.63437c-13.16886,5.83458 -24.81656,5.60696 -30.80438,4.24795c-3.1241,-0.83013 -6.25925,-6.65632 -2.7366,-11.22699c3.1823,-4.12908 10.60019,-4.84717 15.0485,-8.02239c3.86947,-2.76205 5.72916,-5.94676 5.72916,-5.94676z" fill="#ffffd5" stroke-width="1.5"/><path d="M298.36475,303.96629l22.55234,0.18266l-0.21858,14.13117c0,0 -19.29936,15.66566 -40.37482,10.88232c-3.12409,-0.83014 -5.56047,-4.33037 -2.03782,-8.90104c3.1823,-4.12908 9.90142,-7.17312 14.34973,-10.34834c3.86947,-2.76205 5.72916,-5.94677 5.72916,-5.94677z" fill="#0d0d00" stroke-width="1.5"/><path d="M293.59031,301.71979c0.50205,-0.6001 27.48562,0 27.48562,0v3.32279c0,0 -23.44233,1.32909 -24.80692,0.89088c0,0 -5.36842,-2.3404 -2.6787,-4.21367z" fill="#080d00" stroke-width="1.5"/></g><path d="M342.39706,308.17037c0,0 1.85969,3.18471 5.72916,5.94676c4.44831,3.17522 11.8662,3.89332 15.0485,8.02239c3.52265,4.57067 0.3875,10.39685 -2.7366,11.22699c-5.98782,1.35901 -17.63553,1.58663 -30.80439,-4.24795c-7.43939,-3.29608 -9.57043,-6.63436 -9.57043,-6.63436l0.15642,-14.66283z" fill="#ffffd5" stroke="#0d0d00" stroke-width="1.5" stroke-linecap="butt"/><path d="M342.39706,304.21629c0,0 1.85969,3.18472 5.72916,5.94677c4.44831,3.17523 11.16743,6.21927 14.34973,10.34834c3.52265,4.57066 1.08627,8.0709 -2.03782,8.90104c-21.07546,4.78335 -40.37482,-10.88232 -40.37482,-10.88232l-0.21858,-14.13117l22.55234,-0.18266z" fill="#0d0d00" stroke="#0d0d00" stroke-width="1.5" stroke-linecap="butt"/><path d="M303.78504,203.29674l-1,-20.1721h35.96121l-0.8,20.63442c0,0 -11.12869,1.61816 -17.03787,1.61816c-6.07339,0 -17.12334,-2.08048 -17.12334,-2.08048z" fill="#494920" stroke="none" stroke-width="0" stroke-linecap="butt"/><path d="M337.61106,203.09228c0,0 -7.8499,2.22242 -17.37731,2.30103c-8.35113,0.06889 -16.04309,-2.30103 -16.04309,-2.30103" fill="none" stroke="#0d0d00" stroke-width="1.5" stroke-linecap="round"/><path d="M325.40756,132.28116c0.08114,-0.15701 0.12417,-0.23872 0.12417,-0.23872v0.00001l18.70458,1.32491c0,0 1.03571,4.85299 3.04039,11.56694c2.08995,6.99954 5.98161,16.07475 7.42173,23.53949c1.16994,6.0643 -1.6252,8.57262 -1.6252,8.57262c0,0 -6.68744,9.47436 -30.89631,8.13574c-0.16922,-0.00691 -0.34082,-0.01695 -0.51481,-0.03016c-0.17359,-0.01143 -0.3444,-0.02564 -0.51243,-0.0426c-24.15637,-2.08708 -29.44163,-12.40966 -29.44163,-12.40966c0,0 -2.41367,-2.87728 -0.40058,-8.71612c2.47796,-7.18721 7.61,-15.62324 10.66573,-22.2583c2.93106,-6.36435 4.64051,-11.02288 4.64051,-11.02288l18.70457,1.3249v-0.00001c0,0 0.03107,0.08696 0.08928,0.25384z" fill="#9b9b44" stroke="#0d0d00" stroke-width="1.75" stroke-linecap="butt"/><path d="M290.78094,171.06385c0.76544,0.44947 5.56954,7.78594 27.37828,9.30999c0.79947,0.02411 3.0827,0.18164 3.34287,0.20082c0.26045,0.01319 2.54521,0.13982 3.34145,0.21496c21.82966,1.19039 28.14942,-4.78432 28.96465,-5.13548c1.49473,-0.64383 2.89409,6.28892 2.89409,6.28892c0,0 -11.935,10.3817 -35.18076,8.55624c-0.21177,-0.01663 -0.42289,-0.03656 -0.63318,-0.0597c-0.21157,-0.00311 -0.42355,-0.00949 -0.63579,-0.01924c-23.2928,-1.06934 -31.49762,-13.24592 -31.49762,-13.24592c0,0 0.62261,-6.9347 2.02601,-6.11059z" fill="#0d0d00" stroke="none" stroke-width="0" stroke-linecap="butt"/><path d="M313.53085,189.63381c-0.9615,-2.2225 -0.66423,-8.34618 0.19881,-10.13582c0.89105,-1.84769 13.87611,-1.14255 15.25585,0.24374c1.32815,1.33447 0.54249,9.78073 -0.74869,11.03945c-1.19737,1.16725 -13.98586,0.21165 -14.70603,-1.14736z" fill="#ffffd5" stroke="#0d0d00" stroke-width="1.5" stroke-linecap="butt"/><path d="M301.95804,124.04746c0.41271,-1.2215 17.47231,-12.1787 23.98301,-6.65513c9.0337,7.66406 7.60861,32.91435 1.24853,33.54442c-25.8748,5.16974 -30.88331,1.621 -33.48646,-2.73613c-2.95103,-4.9394 -0.91003,-9.73012 1.59628,-12.98466c2.50631,-3.25454 4.34058,-4.30765 6.65864,-11.1685z" fill="#9b9b44" stroke="#0d0d00" stroke-width="1.5" stroke-linecap="butt"/><path d="M354.35723,152.49687c-3.19133,3.94669 -8.65007,6.754 -33.5378,-2.0114c-6.20776,-1.52029 -4.05939,-26.71934 5.96443,-33.03349c7.22429,-4.5507 22.56904,8.70183 22.80545,9.9693c1.3278,7.11909 2.22277,7.05453 5.01787,11.99558c2.02254,3.57532 3.36787,8.6059 -0.24997,13.08002z" fill="#9b9b44" stroke="#0d0d00" stroke-width="1.5" stroke-linecap="butt"/><path d="M315.30215,166.05612l4.40969,-24.75028c0,0 3.54467,-22.91066 10.72163,-20.82901c4.67804,1.35685 14.14141,31.11143 14.14141,31.11143c0,0 -10.01495,0.50588 -8.91465,3.49651c0.58263,1.58362 4.0643,1.35242 5.19768,3.82726c1.52452,3.32895 2.16381,7.10255 2.16381,7.10255z" fill="#9b9b44" stroke="none" stroke-width="0" stroke-linecap="butt"/><path d="M303.02002,163.18113c0,0 1.16483,-3.64581 3.14337,-6.72662c1.47091,-2.29038 4.88524,-1.57072 5.68527,-3.05639c1.51085,-2.80567 -8.33278,-4.71819 -8.33278,-4.71819c0,0 13.56306,-28.12356 18.38565,-28.80745c7.39873,-1.0492 7.67856,22.13236 7.67856,22.13236l0.87687,25.12475z" fill="#9b9b44" stroke="none" stroke-width="0" stroke-linecap="butt"/><path d="M296.67861,127.39552c0,0 -1.44788,-10.07521 28.65425,-8.24601c34.72324,2.11001 30.67939,12.69943 30.67939,12.69943c0,0 -15.32421,-2.60628 -28.06581,-3.60758c-25.40489,-1.99647 -31.26782,-0.84583 -31.26782,-0.84583z" fill="#9b9b44" stroke="none" stroke-width="0" stroke-linecap="butt"/><path d="M325.59317,120.83206l-1.81232,25.58589" fill="none" stroke="#0d0d00" stroke-width="1" stroke-linecap="round"/><path d="M331.15317,132.38713c-0.08975,1.26708 -0.7184,1.5388 -1.6527,1.47262c-0.9343,-0.06618 -1.82045,-0.4452 -1.7307,-1.71228c0.08975,-1.26708 0.88963,-1.81311 1.82393,-1.74693c0.9343,0.06618 1.64922,0.71949 1.55947,1.98658z" fill="#ffffd5" stroke="#0d0d00" stroke-width="1" stroke-linecap="butt"/><path d="M329.26214,137.93881c0.93429,0.06618 1.81036,0.58769 1.72061,1.85478c-0.08975,1.26708 -0.86944,1.5281 -1.80374,1.46192c-0.9343,-0.06618 -1.66941,-0.4345 -1.57966,-1.70157c0.08975,-1.26708 0.72848,-1.6813 1.66278,-1.61512z" fill="#ffffd5" stroke="#0d0d00" stroke-width="1" stroke-linecap="butt"/><path d="M322.52796,117.67454l8.20122,-1.60853c0,0 11.60925,0.05633 14.57437,8.32976c2.14535,5.98602 -4.75119,12.34259 -4.75119,12.34259z" fill="#c1c155" stroke="#0d0d00" stroke-width="1.5" stroke-linecap="butt"/><path d="M308.56765,134.49308c0,0 -5.14821,-7.71098 -2.1805,-13.33483c4.10173,-7.77286 14.81955,-5.74645 14.81955,-5.74645l7.1286,3.2412z" fill="#c1c155" stroke="#0d0d00" stroke-width="1.5" stroke-linecap="butt"/><path d="M322.15759,94.28023l11.9601,0.84717l-0.22277,21.49049c0,0 -3.38073,4.68824 -7.77353,4.25742c-4.41046,-0.43254 -6.77254,-5.28777 -6.77254,-5.28777z" fill="#ecec68" stroke="#0d0d00" stroke-width="1.5" stroke-linecap="butt"/><g><path d="M342.5794,106.24597c-3.39934,-3.14216 -2.09325,-7.95247 1.85229,-9.89031c3.94553,-1.93783 8.5036,-0.53999 9.8899,4.32054c2.16237,7.58165 -6.06611,14.53856 -6.06611,14.53856c0,0 -1.67682,-5.27208 -5.67608,-8.96879z" fill="#ecec68" stroke="#0d0d00" stroke-width="1.75" stroke-linecap="butt"/><path d="M348.9286,102.67959c-3.36687,-1.54192 -3.65118,-5.42927 -1.20779,-7.79722c2.44339,-2.36794 3.53062,-7.48498 6.86055,-5.097c8.28929,5.94443 2.36956,18.74515 2.36956,18.74515c0,0 -4.06124,-4.03687 -8.0223,-5.85094z" fill="#ecec68" stroke="#0d0d00" stroke-width="1.75" stroke-linecap="butt"/><path d="M338.03977,23.91363c0,0 0.57658,3.76108 0.91129,14.14185c0.21281,6.6 -0.80705,15.77233 -0.80705,15.77233l-6.39618,-0.53416c0,0 1.97286,-9.05771 2.07136,-15.6086c0.17336,-11.52644 -2.0598,-15.91741 -0.92232,-18.21064c0.90847,-1.83147 8.1524,-0.94763 16.37433,-0.56077c8.11734,0.38195 17.2231,0.22424 16.70755,5.01523c-0.82165,7.63568 -27.93895,-0.01525 -27.93895,-0.01525z" fill="#0d0d00" stroke="none" stroke-width="NaN" stroke-linecap="butt"/><path d="M318.12922,59.31091c-5.7391,1.70445 -9.85677,17.72616 -14.78889,14.60005c-5.03173,-3.18922 -2.56337,-16.37158 10.45364,-23.43074c8.41952,-4.56593 21.91851,-6.40574 23.84693,-0.68358c1.92843,5.72216 -13.77257,7.80986 -19.51166,9.51431z" fill="#6e6e30" stroke="#0d0d00" stroke-width="1.35" stroke-linecap="butt"/><path d="M301.87197,84.39115c4.15714,-2.46237 3.67471,2.5223 6.30112,5.55518c2.62646,3.03287 1.89253,7.56977 -2.22096,9.03455c-4.83944,1.72331 -10.67656,6.20509 -10.67656,6.20509c0,0 -3.75207,-14.66517 6.59639,-20.7948z" fill="#ecec68" stroke="#0d0d00" stroke-width="1.75" stroke-linecap="butt"/><path d="M299.82352,96.07266c2.12847,-5.56669 7.62632,-6.73969 12.06146,-4.05748c4.43515,2.6822 5.47442,8.46692 1.15814,11.80802c-5.07802,3.93082 -7.93305,9.77943 -7.93305,9.77943c0,0 -3.37852,-2.58492 -4.91639,-7.28421c-1.8331,-5.6014 -0.37017,-10.24576 -0.37017,-10.24576z" fill="#ecec68" stroke="#0d0d00" stroke-width="1.75" stroke-linecap="butt"/><path d="M304.25494,30.54453c0,0 -15.65218,20.03938 -20.68756,14.69115c-4.01967,-4.26941 3.31428,-8.89151 10.83555,-13.97182c5.1858,-3.5028 10.30949,-7.17339 11.56305,-6.80924c3.56219,1.03479 2.52587,7.06312 5.68122,17.42106c1.79331,5.88679 5.93046,13.54846 5.93046,13.54846l-5.63384,2.14626c0,0 -3.3069,-8.01304 -4.83202,-14.02518c-2.39875,-9.45613 -2.85689,-13.00064 -2.85689,-13.00064z" fill="#0d0d00" stroke="none" stroke-width="NaN" stroke-linecap="butt"/><path d="M302.35578,97.21677c-1.88022,-5.1947 -2.07938,-11.04714 -1.45253,-16.90793c0.62647,-5.85702 1.59613,-11.89247 5.50408,-18.26765c7.51211,-12.2547 21.98402,-11.76904 23.10658,-11.71216c1.12255,0.05687 15.70858,0.72816 22.20286,13.55059c3.37862,6.67085 3.85615,12.765 4.00603,18.65355c0.14996,5.89229 1.90328,14.58585 -0.3916,19.61114c-2.90357,6.35817 -18.80027,10.84245 -21.66137,10.73766c-3.23048,-0.11832 -9.97946,-0.08753 -15.83074,-2.61011c-7.77053,-3.35001 -14.12626,-9.3058 -15.48331,-13.05509z" fill="#ecec68" stroke="#0d0d00" stroke-width="1.75" stroke-linecap="butt"/><path d="M344.20547,106.94649l7.14815,-16.55156c0,0 1.24596,0.58806 2.1951,1.37406c1.16813,0.96736 1.19677,-2.7714 1.71055,-2.13513c0.91837,1.13726 2.86222,7.87614 2.86222,7.87614c0,0 -0.26522,3.02052 -1.19498,4.66118c-0.23523,0.41509 -1.111,1.91116 -1.72053,2.45722c-0.83811,0.75085 -1.74149,1.59866 -2.53895,2.5217c-2.39731,2.77477 -4.76297,4.81502 -4.76297,4.81502z" fill="#ecec68" stroke="none" stroke-width="0" stroke-linecap="butt"/><path d="M306.60835,109.22217c0,0 -2.57729,-3.81066 -5.10777,-7.31663c-0.84177,-1.16626 -1.21364,-3.60073 -2.12081,-4.56893c-0.65978,-0.70415 -1.95825,-0.01128 -2.19185,-0.52303c-0.92329,-2.02283 0.53194,-5.75798 0.53194,-5.75798c0,0 -0.08249,-1.78929 1.11328,-3.03068c0.66902,-0.69454 1.921,-2.06642 3.39269,-3.08253c1.19576,-0.8256 2.71979,-1.38818 2.71979,-1.38818l6.31066,20.01902z" fill="#ecec68" stroke="none" stroke-width="0" stroke-linecap="butt"/><g stroke="#0d0d00" stroke-width="1" stroke-linecap="butt"><g fill="#c5c556"><path d="M307.01237,57.66387c0,0 1.18006,-3.69648 3.08438,-5.2325c1.90434,-1.53603 3.26205,-1.28981 3.81176,-0.32988c0.5497,0.95992 0.74884,2.54322 -1.1555,4.07921c-1.90432,1.53601 -5.74064,1.48316 -5.74064,1.48316z"/><path d="M301.5402,62.07771c-0.54972,-0.95991 -0.53451,-2.25143 1.36978,-3.78743c1.90432,-1.53602 5.52632,-1.77492 5.52632,-1.77492c0,0 -1.0917,3.67614 -2.99601,5.21215c-1.90435,1.53604 -3.35041,1.31016 -3.90013,0.35021z"/></g><g fill="#c5c556"><path d="M307.40464,56.53144c0,0 3.51017,-0.01189 4.3653,1.48136c0.85512,1.49323 -0.04443,2.93867 -1.26865,3.9261c-1.22421,0.98745 -2.73257,1.41098 -3.58768,-0.08223c-0.8551,-1.49323 0.49103,-5.32521 0.49103,-5.32521z"/><path d="M303.50199,56.20726c-0.85512,-1.49322 0.22119,-2.97938 1.44539,-3.96679c1.22421,-0.98745 2.81155,-1.51443 3.66668,-0.02121c0.85511,1.49322 -0.57005,5.42867 -0.57005,5.42867c0,0 -3.68693,0.05259 -4.54205,-1.44065z"/></g><path d="M308.8907,59.12645c-1.43461,1.15715 -3.1198,1.1833 -3.76401,0.05836c-0.64421,-1.12494 -0.00343,-2.97492 1.43117,-4.13207c1.43461,-1.15716 3.1198,-1.18329 3.764,-0.05835c0.64423,1.12495 0.00344,2.9749 -1.43117,4.13205z" fill="#ffffd5"/></g><path d="M355.01574,88.19379c-0.16348,1.34416 -2.50385,4.26089 -8.84892,4.041c-2.46076,-0.08526 -6.91631,-2.04113 -9.79581,-2.39136c-1.98744,-0.24173 -8.31022,1.15182 -10.09395,0.82913c-7.46424,-1.35032 -8.75999,-5.51163 -8.57688,-7.01729c0.21187,-1.74208 2.58454,-6.67722 11.96242,-5.72139c0.66416,0.06769 4.69443,3.41178 8.21268,3.96003c4.01964,0.62638 4.73196,-1.07665 6.97414,-0.27703c2.24219,0.79961 10.35932,4.98978 10.16627,6.57692z" fill="#c4c44a" stroke="none" stroke-width="0" stroke-linecap="butt"/><path d="M308.48132,87.13197c1.18538,-2.82587 6.19341,-3.41898 11.18577,-1.3248c4.99236,2.09421 8.0785,6.08266 6.89314,8.90852c-1.18538,2.82588 -6.54896,2.40081 -11.54131,0.30664c-4.99235,-2.09417 -7.723,-5.06451 -6.53758,-7.89036z" fill="#a5a549" stroke="none" stroke-width="0" stroke-linecap="butt"/><path d="M322.29765,60.70263c5.11165,-0.16688 7.24256,6.83806 7.24256,6.83806c0,0 -3.31223,-3.62774 -7.03872,-3.314c-3.98826,0.33578 -6.72543,4.71432 -6.72543,4.71432c0,0 1.87037,-8.08655 6.5216,-8.2384z" fill="#0d0d00" stroke="none" stroke-width="0" stroke-linecap="butt"/><path d="M310.59243,83.08832c-0.21536,-5.74266 5.87606,-14.28466 12.32702,-14.0229c6.45094,0.26173 11.1129,9.05537 10.2348,16.42194c-0.39726,4.0374 -6.38165,7.31272 -10.96845,6.8527c-7.81333,-0.78362 -11.39959,-4.08655 -11.5933,-9.25172z" fill="#0d0d00" stroke="#0d0d00" stroke-width="1" stroke-linecap="butt"/><g fill="#0d0d00" stroke="none" stroke-width="0" stroke-linecap="butt"><path d="M316.72477,71.81378l-4.62067,4.59519l-1.28421,-7.29199z"/><path d="M312.99814,75.97639l-2.35176,6.46511l-2.29777,-7.69245z"/><path d="M313.53585,73.24461l-2.90696,4.79447l-1.17274,-6.04893z"/></g><path d="M356.39994,95.50375c-2.53258,2.82708 -10.28936,1.46708 -11.04052,-0.53251c-0.75118,-1.99957 2.25361,-4.94634 5.78619,-6.27342c3.53256,-1.32708 7.53691,5.47887 5.25433,6.80593z" fill="#a5a549" stroke="none" stroke-width="0" stroke-linecap="butt"/><path d="M357.53732,85.24474c-0.57365,4.81453 -0.84296,7.57528 -8.20771,7.71413c-4.32346,0.08151 -9.00441,-3.3928 -9.06901,-7.1978c-0.26114,-6.95421 4.47672,-12.05672 10.52801,-11.81117c6.05132,0.24552 7.38654,5.94201 6.74876,11.29483z" fill="#0d0d00" stroke="#080d00" stroke-width="1" stroke-linecap="butt"/><g fill="#0d0d00" stroke="none" stroke-width="0" stroke-linecap="butt"><path d="M360.50852,76.36576l-4.03862,5.5284l-1.96154,-5.69753z"/><path d="M360.26357,82.04758l-5.04308,5.44756l0.68387,-6.32445z"/><path d="M360.469,79.30631l-3.43933,4.54216l-0.45802,-5.16424z"/></g><g stroke="none" stroke-width="0" stroke-linecap="butt"><path d="M324.62278,78.17316c-0.67175,-2.82471 1.05185,-5.47172 2.62806,-6.36785c0.17317,-0.09845 0.55486,0.13335 1.02598,0.59125c-0.00183,1.0213 -0.0132,2.04241 -0.04945,3.06263c-0.03074,0.86523 -0.0797,1.73002 -0.13693,2.59449c-1.15601,0.04882 -2.31065,0.10177 -3.46766,0.11948z" fill="#6e6e30"/><path d="M328.69305,78.02882c0.05597,-0.84911 0.10377,-1.69852 0.13397,-2.54833c0.02884,-0.81172 0.04202,-1.62401 0.04718,-2.43651c0.61818,0.73382 1.29496,1.72518 1.8341,2.80248c0.00428,0.68078 0.02324,1.39296 0.04119,2.12006c-0.6867,0.01148 -1.37193,0.03496 -2.05645,0.0623z" fill="#6e6e30"/><path d="M331.43759,77.66415c0.02924,0.09931 0.05782,0.19766 0.08572,0.295c-0.06007,0.00012 -0.12012,0.00035 -0.18017,0.00068c-0.00474,-0.21433 -0.00955,-0.42742 -0.01405,-0.63891c0.03858,0.11437 0.07481,0.22884 0.10849,0.34323z" fill="#6e6e30"/><path d="M328.35155,82.84611c0.08791,-1.405 0.20239,-2.81021 0.30059,-4.21615c0.70281,-0.02819 1.40637,-0.05245 2.1115,-0.06394c0.0341,1.54194 0.04482,3.12983 -0.1133,4.61084c-0.72348,0.04008 -1.5135,-0.02737 -2.29879,-0.33075z" fill="#6e6e30"/><path d="M331.96439,82.99618c-0.22399,0.04651 -0.46343,0.08979 -0.71473,0.12337c0.1451,-1.47374 0.13621,-3.03836 0.10615,-4.55998c0.11142,-0.00057 0.22287,-0.00077 0.33438,-0.00056c0.69341,2.57406 0.85544,4.31647 0.2742,4.43716z" fill="#6e6e30"/><path d="M324.92614,79.08953c-0.04559,-0.10658 -0.08744,-0.21315 -0.12567,-0.31963c1.08392,-0.02005 2.16586,-0.06919 3.24895,-0.115c-0.09153,1.30695 -0.19673,2.61327 -0.28127,3.9194c-1.04523,-0.57533 -2.05004,-1.63337 -2.84201,-3.48478z" fill="#6e6e30"/><path d="M330.84896,75.55989c0.04545,0.43532 -0.62903,0.99583 -1.44982,1.08519c-0.82075,0.08932 -1.79651,-0.50861 -1.84198,-0.94394c-0.04546,-0.43534 0.77944,-0.94789 1.49099,-0.97838c0.71153,-0.03055 1.75533,0.40181 1.80079,0.83714z" fill="#ffffff"/></g><g stroke="none" stroke-width="0" stroke-linecap="butt"><path d="M349.71272,81.00106c-0.21882,-2.89523 1.8999,-5.23797 3.59751,-5.87487c0.1865,-0.06997 0.52696,0.21902 0.92014,0.74535c-0.16255,1.00829 -0.33448,2.01488 -0.53084,3.01667c-0.16653,0.84961 -0.35098,1.69592 -0.54355,2.54061c-1.14929,-0.13373 -2.29787,-0.26316 -3.44325,-0.42776z" fill="#6e6e30"/><path d="M353.75495,81.49909c0.18891,-0.82972 0.3698,-1.66101 0.53337,-2.49548c0.15624,-0.79707 0.29708,-1.59716 0.43006,-2.39872c0.49498,0.82196 1.00731,1.90749 1.37018,3.05621c-0.10292,0.67297 -0.19628,1.37926 -0.29298,2.10012c-0.67995,-0.09675 -1.36034,-0.1814 -2.04063,-0.26214z" fill="#6e6e30"/><path d="M356.52269,81.57086c0.01324,0.10268 0.02599,0.2043 0.03823,0.30481c-0.05934,-0.00934 -0.11868,-0.01856 -0.17803,-0.02768c0.02905,-0.2124 0.05784,-0.42359 0.08668,-0.63316c0.0201,0.11902 0.03787,0.23776 0.05312,0.35603z" fill="#6e6e30"/><path d="M352.65958,86.20266c0.30794,-1.37365 0.64215,-2.74333 0.9604,-4.1163c0.69849,0.08278 1.3971,0.16955 2.09526,0.26917c-0.209,1.52809 -0.44832,3.09787 -0.83756,4.53554c-0.72077,-0.07429 -1.49033,-0.26523 -2.21809,-0.68842z" fill="#6e6e30"/><path d="M356.20378,86.91946c-0.22851,0.01067 -0.47179,0.01573 -0.72525,0.00935c0.37523,-1.43253 0.6127,-2.97906 0.8225,-4.48644c0.11012,0.01697 0.22022,0.03431 0.3303,0.05208c0.27965,2.65111 0.16543,4.39731 -0.42755,4.42502z" fill="#6e6e30"/><path d="M349.86808,81.95374c-0.02825,-0.11243 -0.05281,-0.22426 -0.0738,-0.33542c1.07357,0.15079 2.14976,0.27254 3.22657,0.39777c-0.29608,1.27626 -0.60557,2.54974 -0.89461,3.82629c-0.94165,-0.73266 -1.76743,-1.93566 -2.25815,-3.88863z" fill="#6e6e30"/><path d="M356.42001,79.61093c-0.02363,0.43705 -0.77792,0.88442 -1.60255,0.84349c-0.82459,-0.04096 -1.69407,-0.78502 -1.67046,-1.22207c0.02363,-0.43707 0.9189,-0.81341 1.62638,-0.73153c0.70746,0.08181 1.67022,0.67307 1.64659,1.11013z" fill="#ffffff"/></g><path d="M330.71529,50.4812c0,0 3.05185,-2.58936 6.46227,-4.29935c2.98927,-1.49883 7.30721,-2.41269 7.45244,-2.54149c0.40646,-0.36039 -0.00316,-1.73652 -0.84396,-2.8227c-0.85425,-1.10349 -2.14331,-1.91439 -2.14331,-1.91439c0,0 5.76754,-2.64356 13.14469,1.86815c6.40635,3.91798 7.19151,9.35201 7.19151,9.35201c0,0 1.47511,-1.75871 1.98689,-3.19228c1.08681,-3.04445 1.02584,-5.17385 1.02584,-5.17385c0,0 5.45406,0.63572 6.30214,11.46275c0.56124,7.16515 -1.86379,12.65397 -1.86379,12.65397c0,0 1.4923,-0.16143 2.40199,-0.54841c0.90967,-0.38696 2.70172,-1.62267 2.70172,-1.62267c0,0 0.73837,10.41046 -16.31927,13.74028c-12.16554,2.37484 -18.35729,-4.50884 -18.35729,-4.50884" fill="#ecec68" stroke="#0d0d00" stroke-width="1.75" stroke-linecap="round"/><g fill="none" stroke="#0d0d00" stroke-width="1" stroke-linecap="round"><path d="M305.65725,88.04726l-2.21239,3.07444"/><path d="M348.00317,101.49502c0,0 -2.87766,1.87199 -7.19925,1.3478c-3.74963,-0.45481 -6.55756,-1.45631 -10.91643,-2.29556c-6.10865,-1.17615 -9.24362,1.10732 -18.04217,-3.6923c-5.64248,-3.07798 -6.90295,-7.17299 -6.90295,-7.17299"/></g></g></g></g></svg>