<svg version="1.1" xmlns="http://www.w3.org/2000/svg" xmlns:xlink="http://www.w3.org/1999/xlink" width="108.45043" height="84.62364" viewBox="0,0,108.45043,84.62364"><g transform="translate(-374.58517,-192.82733)"><g stroke-miterlimit="10"><g fill="#ffffff" stroke="#ffffff" stroke-width="2"><path d="M407.57562,226.40204c0,-17.9905 14.7793,-32.57467 33.0105,-32.57467c18.2312,0 35.21939,17.00609 35.21939,34.99658c0,2.64431 -0.36702,5.1627 -1.05105,7.53507c2.35141,2.05481 3.62393,4.69499 3.50536,8.08623c-0.4355,12.45592 -24.06843,16.71117 -49.82254,16.71117c-16.05432,0 -22.10088,-12.42289 -18.13965,-21.78057c-1.75109,-3.97535 -2.722,-8.36271 -2.722,-12.97381z"/><path d="M440.58612,258.97668c-18.2312,0 -33.0105,-14.58418 -33.0105,-32.57468c0,-17.9905 14.7793,-32.57467 33.0105,-32.57467c18.2312,0 35.21939,17.00609 35.21939,34.99658c0,7.6021 -3.03339,14.16352 -7.91217,19.20636c7.33976,0.86993 13.80252,2.10645 13.80252,2.10645c0,0 -5.04703,13.92598 -19.26635,14.16816c-5.77198,0.09832 -10.16816,-2.67635 -12.74439,-6.3484c-2.94585,0.66982 -6.00451,1.02021 -9.09899,1.02021z"/><path d="M407.57562,226.40204c0,-17.9905 14.7793,-32.57467 33.0105,-32.57467c18.2312,0 35.21939,17.00609 35.21939,34.99658c0,11.46183 -6.89555,20.55798 -16.6149,25.65042c6.40545,3.30903 10.38495,7.69597 8.30951,12.51325c-5.05227,11.7268 -12.40136,10.35719 -21.23366,6.93608c-8.18029,-3.16856 -13.29014,-9.89415 -12.13096,-15.56861c-15.14299,-2.96015 -26.55989,-16.14092 -26.55989,-31.95304z"/><path d="M440.58612,258.97668c-4.09157,0 -8.00929,-0.73455 -11.62509,-2.07735c-3.69909,1.41489 -7.72091,2.19092 -11.92641,2.19092c-18.23119,0 -35.21938,-12.16226 -35.21938,-30.15276c0,-17.99049 16.98817,-34.99658 35.21938,-34.99658c4.09157,0 8.00929,0.73455 11.62509,2.07735c3.69909,-1.41489 7.72091,-2.19092 11.92641,-2.19092c18.2312,0 35.21939,17.00609 35.21939,34.99658c0,17.9905 -16.98818,30.15276 -35.21939,30.15276z"/><path d="M440.58612,258.97668c-0.26725,0 -0.53376,-0.00314 -0.79948,-0.00937c-2.84004,1.44077 -6.37443,2.30266 -10.60315,2.30266c-25.7541,0 -49.38703,-4.25524 -49.82254,-16.71116c-0.35813,-10.24273 11.97404,-13.63403 28.39428,-14.73837c-0.11874,-1.12347 -0.1796,-2.26393 -0.1796,-3.41842c0,-17.9905 14.7793,-32.57467 33.0105,-32.57467c18.2312,0 35.21939,17.00609 35.21939,34.99658c0,17.9905 -16.98818,30.15276 -35.21939,30.15276z"/><path d="M440.58612,258.97668c-18.2312,0 -33.0105,-14.58418 -33.0105,-32.57468c0,-17.9905 14.7793,-32.57467 33.0105,-32.57467c18.2312,0 35.21939,17.00609 35.21939,34.99658c0,17.9905 -16.98818,30.15276 -35.21939,30.15276zM410.53071,250.25035c0,6.62104 -5.78474,14.3309 -15.33945,14.16816c-14.21933,-0.24219 -19.26635,-14.16816 -19.26635,-14.16816c0,0 34.60581,-6.62104 34.60581,0z"/><path d="M440.58612,258.97668c-18.2312,0 -33.0105,-14.58418 -33.0105,-32.57468c0,-17.9905 14.7793,-32.57467 33.0105,-32.57467c18.2312,0 35.21939,17.00609 35.21939,34.99658c0,17.9905 -16.98818,30.15276 -35.21939,30.15276zM423.08697,257.1341c2.35253,5.91423 -2.90037,13.482 -11.73266,16.90311c-8.8323,3.42111 -16.18138,4.79072 -21.23367,-6.93608c-2.51909,-5.84703 3.88209,-11.0601 12.71439,-14.48121c8.8323,-3.42111 17.8994,-1.40004 20.25193,4.51417z"/></g><g fill="#000000" stroke="none" stroke-width="0"><path d="M407.57562,226.40204c0,-17.9905 14.7793,-32.57467 33.0105,-32.57467c18.2312,0 35.21939,17.00609 35.21939,34.99658c0,2.64431 -0.36702,5.1627 -1.05105,7.53507c2.35141,2.05481 3.62393,4.69499 3.50536,8.08623c-0.4355,12.45592 -24.06843,16.71117 -49.82254,16.71117c-16.05432,0 -22.10088,-12.42289 -18.13965,-21.78057c-1.75109,-3.97535 -2.722,-8.36271 -2.722,-12.97381z"/><path d="M440.58612,258.97668c-18.2312,0 -33.0105,-14.58418 -33.0105,-32.57468c0,-17.9905 14.7793,-32.57467 33.0105,-32.57467c18.2312,0 35.21939,17.00609 35.21939,34.99658c0,7.6021 -3.03339,14.16352 -7.91217,19.20636c7.33976,0.86993 13.80252,2.10645 13.80252,2.10645c0,0 -5.04703,13.92598 -19.26635,14.16816c-5.77198,0.09832 -10.16816,-2.67635 -12.74439,-6.3484c-2.94585,0.66982 -6.00451,1.02021 -9.09899,1.02021z"/><path d="M407.57562,226.40204c0,-17.9905 14.7793,-32.57467 33.0105,-32.57467c18.2312,0 35.21939,17.00609 35.21939,34.99658c0,11.46183 -6.89555,20.55798 -16.6149,25.65042c6.40545,3.30903 10.38495,7.69597 8.30951,12.51325c-5.05227,11.7268 -12.40136,10.35719 -21.23366,6.93608c-8.18029,-3.16856 -13.29014,-9.89415 -12.13096,-15.56861c-15.14299,-2.96015 -26.55989,-16.14092 -26.55989,-31.95304z"/><path d="M440.58612,258.97668c-4.09157,0 -8.00929,-0.73455 -11.62509,-2.07735c-3.69909,1.41489 -7.72091,2.19092 -11.92641,2.19092c-18.23119,0 -35.21938,-12.16226 -35.21938,-30.15276c0,-17.99049 16.98817,-34.99658 35.21938,-34.99658c4.09157,0 8.00929,0.73455 11.62509,2.07735c3.69909,-1.41489 7.72091,-2.19092 11.92641,-2.19092c18.2312,0 35.21939,17.00609 35.21939,34.99658c0,17.9905 -16.98818,30.15276 -35.21939,30.15276z"/><path d="M440.58612,258.97668c-0.26725,0 -0.53376,-0.00314 -0.79948,-0.00937c-2.84004,1.44077 -6.37443,2.30266 -10.60315,2.30266c-25.7541,0 -49.38703,-4.25524 -49.82254,-16.71116c-0.35813,-10.24273 11.97404,-13.63403 28.39428,-14.73837c-0.11874,-1.12347 -0.1796,-2.26393 -0.1796,-3.41842c0,-17.9905 14.7793,-32.57467 33.0105,-32.57467c18.2312,0 35.21939,17.00609 35.21939,34.99658c0,17.9905 -16.98818,30.15276 -35.21939,30.15276z"/><path d="M440.58612,258.97668c-18.2312,0 -33.0105,-14.58418 -33.0105,-32.57468c0,-17.9905 14.7793,-32.57467 33.0105,-32.57467c18.2312,0 35.21939,17.00609 35.21939,34.99658c0,17.9905 -16.98818,30.15276 -35.21939,30.15276zM410.53071,250.25035c0,6.62104 -5.78474,14.3309 -15.33945,14.16816c-14.21933,-0.24219 -19.26635,-14.16816 -19.26635,-14.16816c0,0 34.60581,-6.62104 34.60581,0z"/><path d="M440.58612,258.97668c-18.2312,0 -33.0105,-14.58418 -33.0105,-32.57468c0,-17.9905 14.7793,-32.57467 33.0105,-32.57467c18.2312,0 35.21939,17.00609 35.21939,34.99658c0,17.9905 -16.98818,30.15276 -35.21939,30.15276zM423.08697,257.1341c2.35253,5.91423 -2.90037,13.482 -11.73266,16.90311c-8.8323,3.42111 -16.18138,4.79072 -21.23367,-6.93608c-2.51909,-5.84703 3.88209,-11.0601 12.71439,-14.48121c8.8323,-3.42111 17.8994,-1.40004 20.25193,4.51417z"/></g><path d="M396.00767,242.73102c0,-18.00583 14.5966,-32.60243 32.60243,-32.60243c18.00583,0 32.60243,14.5966 32.60243,32.60243c0,18.00583 -16.8399,31.85466 -32.00423,31.55556c-18.00232,-0.35509 -33.20063,-13.54973 -33.20063,-31.55556z" fill="#d7de5d" stroke="#000000" stroke-width="2"/><path d="M458.79833,247.73036c0,1.64601 -7.18092,1.5717 -14.10305,1.5717c-6.92215,0 -13.58551,0.07431 -13.58551,-1.5717c0,-3.29203 6.1983,-5.96073 13.84429,-5.96073c7.64598,0 13.84428,2.66871 13.84428,5.96073z" fill="#6d7218" stroke="none" stroke-width="0"/><path d="M426.11044,247.73037c0,1.64601 -7.11442,1.5717 -13.97247,1.5717c-6.85804,0 -13.45972,0.07431 -13.45972,-1.5717c0,-3.29203 6.1409,-5.96073 13.71609,-5.96073c7.57519,0 13.7161,2.66871 13.7161,5.96073z" fill="#6d7218" stroke="none" stroke-width="0"/><g><path d="M399.29781,247.06805c0,-7.39231 5.99265,-13.38494 13.38494,-13.38494c7.39231,0 13.38494,5.99265 13.38494,13.38494c0,0.45771 -26.76989,0.46348 -26.76989,0z" fill="#ffffff" stroke="#000000" stroke-width="1.5"/><path d="M411.33679,242.55657c0,1.87645 -0.725,3.58356 -1.91016,4.85649c-3.97163,-0.52878 -8.66208,-0.17719 -9.99418,-0.10387c0.12268,-0.80402 0.16631,-1.58183 0.1142,-2.26485c-0.00543,-0.34122 -0.06165,-0.67011 -0.16143,-0.97943c-0.01966,-0.07116 -0.04095,-0.14027 -0.06394,-0.20716c0.18986,-0.35442 0.395,-0.70106 0.62759,-1.03459c1.41658,-2.03132 2.36037,-3.81458 4.02709,-5.389c0.63058,-0.59567 1.96265,-0.99057 2.58956,-1.60725c2.7786,0.97327 4.77129,3.61876 4.77129,6.72967z" fill="#000000" stroke="none" stroke-width="0"/></g><g><path d="M431.50143,247.06805c0,-7.39231 5.99265,-13.38494 13.38494,-13.38494c7.39231,0 13.38494,5.99265 13.38494,13.38494c0,0.45771 -26.76989,0.46348 -26.76989,0z" fill="#ffffff" stroke="#000000" stroke-width="1.5"/><path d="M443.54041,242.55657c0,1.87644 -0.725,3.58356 -1.91016,4.85649c-3.97163,-0.52878 -8.66209,-0.17719 -9.99419,-0.10387c0.12268,-0.80403 0.1663,-1.58183 0.11419,-2.26484c-0.00543,-0.34123 -0.06165,-0.67011 -0.16142,-0.97944c-0.01966,-0.07116 -0.04095,-0.14027 -0.06394,-0.20716c0.18986,-0.35442 0.395,-0.70106 0.62759,-1.03459c1.41658,-2.03133 2.36037,-3.81458 4.02709,-5.389c0.63058,-0.59567 1.96265,-0.99057 2.58956,-1.60725c2.77859,0.97327 4.77129,3.61875 4.77129,6.72967z" fill="#000000" stroke="none" stroke-width="0"/></g><g stroke="none" stroke-width="0"><path d="M408.36069,256.17494c0,-0.53227 40.49879,-0.50007 40.49879,0c0,8.25956 -9.06598,14.95525 -20.2494,14.95525c-11.18344,0 -20.24939,-6.69569 -20.24939,-14.95525z" fill="#000000"/><path d="M410.25064,257.16283c0,-0.38265 36.27561,-0.3595 36.27561,0c0,1.05679 -0.25723,2.07796 -0.7366,3.04273c-0.76773,0.03696 -34.46717,-0.06941 -34.81196,-0.01923c-0.47325,-0.9591 -0.72706,-1.97372 -0.72706,-3.02351z" fill="#ffffff"/></g><path d="M427.96203,209.75472c28.70606,-0.55485 33.54958,28.31525 33.54958,28.31525c0,0 -5.53452,-9.5454 -17.21624,-6.87866c-8.65286,1.97531 -13.70303,21.761 -13.70303,21.761l-1.82008,-13.07891l-2.77385,10.15177c0,0 -4.28616,-16.64347 -12.4006,-19.20616c-11.51644,-3.63711 -18.08869,6.20409 -18.08869,6.20409c0,0 8.43923,-26.80423 32.45288,-27.26839z" fill="#000000" stroke="none" stroke-width="0"/><path d="M388.88336,228.30293c-0.60194,-0.30097 -0.30097,-0.9029 -0.30097,-0.9029l0.04169,0.0489c0.08161,-1.8827 0.79314,-3.70196 0.78458,-5.58047c0,0 0,-0.67299 0.67299,-0.67299c0.67299,0 0.67299,0.67299 0.67299,0.67299c-0.00734,1.90712 -0.71157,3.73087 -0.78572,5.63596l-0.18264,0.49755c0,0 -0.30097,0.60194 -0.9029,0.30097z" fill="#ffffff" stroke="none" stroke-width="0.5"/><path d="M392.17594,229.27046c-0.55996,-0.37331 -0.18665,-0.93327 -0.18665,-0.93327l0.14584,-0.17601c0.53315,-1.5969 0.86441,-3.14458 0.86277,-4.83458c0,0 0,-0.67299 0.67299,-0.67299c0.67299,0 0.67299,0.67299 0.67299,0.67299c-0.00165,1.83621 -0.35411,3.52434 -0.93185,5.26021l-0.30282,0.49698c0,0 -0.37331,0.55996 -0.93327,0.18665z" fill="#ffffff" stroke="none" stroke-width="0.5"/><path d="M466.90269,229.34893c-0.63844,0.21281 -0.85127,-0.42563 -0.85127,-0.42563l-0.13754,-0.43867c-0.21352,-1.30613 -0.32971,-2.30948 -0.75977,-3.59925c0,0 -0.21281,-0.63844 0.42563,-0.85127c0.63844,-0.21281 0.85127,0.42563 0.85127,0.42563c0.44665,1.34039 0.57949,2.44794 0.81052,3.8036l0.08679,0.23432c0,0 0.21281,0.63844 -0.42563,0.85127z" fill="#ffffff" stroke="none" stroke-width="0.5"/><path d="M386.38357,226.4538c-0.43526,-0.10882 -0.32644,-0.54408 -0.32644,-0.54408l0.10214,-0.39466c-0.00188,-1.05426 0.43876,-1.75895 0.68302,-2.74595c0,0 0.10882,-0.43526 0.54408,-0.32644c0.43526,0.10882 0.32644,0.54408 0.32644,0.54408c-0.24319,0.9642 -0.66121,1.62175 -0.66295,2.63794l-0.12219,0.50266c0,0 -0.10882,0.43526 -0.54408,0.32644z" fill="#ffffff" stroke="none" stroke-width="0.5"/><path d="M396.33314,228.79961c-0.42563,-0.14187 -0.28376,-0.56752 -0.28376,-0.56752l0.12122,-0.36124c0.33703,-0.80589 0.41965,-1.97495 0.41657,-2.8618c0,0 0,-0.44866 0.44866,-0.44866c0.44866,0 0.44866,0.44866 0.44866,0.44866c-0.0031,1.01761 -0.11775,2.25569 -0.48075,3.19507l-0.10311,0.31174c0,0 -0.14187,0.42563 -0.56752,0.28376z" fill="#ffffff" stroke="none" stroke-width="0.5"/><path d="M464.10052,228.09267c0.06942,0.04046 0.36436,0.23851 0.18655,0.59415c-0.20065,0.40129 -0.60194,0.20065 -0.60194,0.20065l-0.47234,-0.51345c0.00273,-0.93694 -0.32411,-1.59719 -0.54742,-2.47097c0,0 -0.10882,-0.43526 0.32644,-0.54408c0.43526,-0.10882 0.54408,0.32644 0.54408,0.32644c0.20684,0.85073 0.50744,1.53554 0.56463,2.40726z" fill="#ffffff" stroke="none" stroke-width="0.5"/><path d="M469.49399,228.03751c-0.44866,0 -0.44866,-0.44866 -0.44866,-0.44866l0.01339,-0.11551c-0.22582,-0.90428 -0.44622,-1.79289 -0.67299,-2.69194c0,0 -0.10882,-0.43526 0.32644,-0.54408c0.43526,-0.10882 0.54408,0.32644 0.54408,0.32644c0.22222,0.89802 0.4471,1.78947 0.67299,2.69194l0.01339,0.33314c0,0 0,0.44866 -0.44866,0.44866z" fill="#ffffff" stroke="none" stroke-width="0.5"/></g></g></svg>