<svg version="1.1" xmlns="http://www.w3.org/2000/svg" xmlns:xlink="http://www.w3.org/1999/xlink" width="185.82416" height="259.38952" viewBox="0,0,185.82416,259.38952"><g transform="translate(-224.60713,-49.39114)"><g stroke-miterlimit="10"><path d="" fill="#c5c556" stroke="none" stroke-width="0" stroke-linecap="butt"/><g stroke="#000000"><path d="M323.22076,307.48066v-98.5h16v98.5z" fill="#ffffff" stroke-width="1.5" stroke-linecap="butt"/><path d="M328.72076,240.72659l-0.25,-7" fill="none" stroke-width="1" stroke-linecap="round"/><path d="M334.72076,244.47659v6.75" fill="none" stroke-width="1" stroke-linecap="round"/><path d="M329.22076,256.47659v-5" fill="none" stroke-width="1" stroke-linecap="round"/><path d="M332.97076,260.72659v6" fill="none" stroke-width="1" stroke-linecap="round"/><path d="M327.47076,269.72659l0.75,3" fill="none" stroke-width="1" stroke-linecap="round"/><path d="M332.72076,277.72659v6" fill="none" stroke-width="1" stroke-linecap="round"/><path d="M327.97076,286.72659v4.75" fill="none" stroke-width="1" stroke-linecap="round"/><path d="M332.22076,299.22659l-0.5,-3.75" fill="none" stroke-width="1" stroke-linecap="round"/><g><path d="M300.47076,308.03066v-98.5h16v98.5z" fill="#ffffff" stroke-width="1.5" stroke-linecap="butt"/><path d="M306.47076,231.77659v-7.25" fill="none" stroke-width="1" stroke-linecap="round"/><path d="M311.47076,243.52659l0.25,-6.25" fill="none" stroke-width="1" stroke-linecap="round"/><path d="M303.72076,242.52659v5.75" fill="none" stroke-width="1" stroke-linecap="round"/><path d="M308.72076,255.52659v-5" fill="none" stroke-width="1" stroke-linecap="round"/><path d="M304.47076,258.77659l-0.25,5" fill="none" stroke-width="1" stroke-linecap="round"/><path d="M311.47076,266.02659l0.75,-4.5" fill="none" stroke-width="1" stroke-linecap="round"/><path d="M307.22076,269.77659l-0.25,5" fill="none" stroke-width="1" stroke-linecap="round"/><path d="M312.97076,275.52659l-0.25,5.75" fill="none" stroke-width="1" stroke-linecap="round"/><path d="M304.72076,280.77659l1,3.5" fill="none" stroke-width="1" stroke-linecap="round"/><path d="M309.47076,284.52659l0.5,3.75" fill="none" stroke-width="1" stroke-linecap="round"/><path d="M305.97076,295.02659v5.5" fill="none" stroke-width="1" stroke-linecap="round"/><path d="M311.47076,297.77659l-0.25,4.25" fill="none" stroke-width="1" stroke-linecap="round"/></g></g><path d="M381.47076,198.78066c0,1.63198 -0.00343,3.25265 -0.02125,4.86066l-1.16254,0.96878l0.05729,0.06874c-0.0235,0.02051 -0.04692,0.04116 -0.07027,0.06193l-0.19902,0.06797c-0.32575,0.43057 -0.74424,0.81749 -1.12743,1.22103c-0.28119,0.27388 -0.56731,0.5382 -0.86801,0.77418l-0.10975,0.33204l-0.10419,-0.07577l-2.65038,3.64427c-0.3106,0.41659 -0.49445,0.93324 -0.49445,1.49283c0,1.24422 0.90893,2.27614 2.09901,2.46801c-0.05864,0.1621 -0.11683,0.32316 -0.17458,0.48339c-1.71448,2.18577 -3.47252,4.31908 -5.3048,6.4342l-3.3677,1.9244c-2.9683,0.28085 -5.89093,0.68094 -8.81659,1.6327c-1.59305,0.51824 -3.59534,0.60481 -4.65099,1.90506c-9.20877,0.05582 -18.41753,0.28881 -27.61948,0.31627c-0.39621,-0.52604 -0.99532,-0.89061 -1.68103,-0.97743l-4.6023,-0.65747c-3.49566,-1.27682 -7.60344,-0.71999 -11.18322,-0.31819l-0.17093,0.11169l-0.01851,-0.06786l-1.3151,0.35866c-5.99767,-0.07288 -12.00305,-0.01348 -17.98403,-0.11305c-0.4075,-0.00678 -0.81504,-0.0146 -1.22261,-0.02347c-3.91819,-3.20479 -7.90524,-6.65451 -12.28952,-9.00471c-2.08131,-1.11569 -6.25798,-3.346 -9.02309,-2.63381c-0.13153,0.03388 -0.26205,0.07051 -0.39165,0.10966l-0.0117,-0.05069l-1.36941,0.31602l-0.49904,-0.99807l-0.01941,0.0097l-0.01247,-0.07131c-1.6082,-2.81434 -2.823,-6.44564 -4.46209,-9.51231c-0.10359,-1.67275 -0.15874,-3.35928 -0.15874,-5.05806c0,-16.15022 7.13249,-30.69305 13.35997,-43.31258c10.969,-22.22787 26.48889,-37.43742 47.89003,-37.43742c21.39975,0 36.30834,15.20764 46.83565,37.43309c5.97778,12.62041 12.91435,27.16485 12.91435,43.31691z" fill="#c5c556" stroke="none" stroke-width="0" stroke-linecap="butt"/><path d="" fill="none" stroke="#000000" stroke-width="1" stroke-linecap="round"/><g stroke="none" stroke-width="0" stroke-linecap="butt"><g><path d="M300.02027,163.78276c5.13025,7.91214 4.41156,11.81771 1.58819,13.64839c-2.82337,1.83068 -6.68228,0.89324 -11.81253,-7.0189c-3.06996,-4.73466 -5.89952,-10.89397 -7.07207,-15.46976c1.96537,-1.35539 3.93101,-2.85028 6.05239,-3.93334c3.70033,2.93678 8.17235,8.0363 11.24402,12.77361z" fill="#a1a147"/><path d="M303.40048,156.93222c6.94162,6.17606 7.44502,10.32953 5.44529,13.12144c-1.99973,2.79191 -5.7453,3.16502 -12.68693,-3.01104c-6.94162,-6.17606 -10.46771,-11.389 -8.46799,-14.18091c1.99973,-2.79191 8.768,-2.10555 15.70962,4.07052z" fill="#a1a147"/><path d="M285.08642,153.29945c3.36488,-0.68651 6.9615,5.73167 9.76768,14.58917c2.80617,8.8575 0.93723,12.12485 -2.42764,12.81136c-3.36488,0.68651 -6.95146,-1.4678 -9.75763,-10.3253c-2.80617,-8.8575 -0.94728,-16.38872 2.4176,-17.07523z" fill="#a1a147"/><path d="M298.4889,165.06924c4.22825,6.52103 4.03206,9.48306 2.19375,10.67503c-1.83831,1.19197 -4.62261,0.16249 -8.85086,-6.35854c-2.26636,-3.49528 -6.24874,-9.45431 -8.85226,-14.6203c1.84196,-1.28044 3.69008,-2.66239 5.67228,-3.69219c3.61718,4.50954 7.56758,10.49585 9.83709,13.99601z" fill="#c5c556"/><path d="M302.70177,157.74732c5.72116,5.09019 6.13604,8.5134 4.48791,10.81444c-1.64813,2.30104 -4.73516,2.60855 -10.45632,-2.48164c-3.52374,-3.13512 -10.11791,-7.51413 -14.27845,-10.95309c2.01131,-1.37266 4.01547,-2.9177 6.17904,-4.0445c5.19937,1.49001 11.09097,4.01625 14.06782,6.66479z" fill="#c5c556"/><path d="M293.7265,167.17184c2.31279,7.30018 0.77245,9.99307 -2.00081,10.55888c-2.77326,0.56581 -5.72926,-1.20974 -8.04206,-8.50992c-1.11229,-3.51085 -2.85386,-8.8646 -2.27401,-13.98449c0.53895,-0.37603 1.93586,-2.90259 2.47964,-3.28261c1.6149,-1.12857 5.69378,-1.08178 7.46339,-1.84793c1.35783,5.20015 1.04814,12.88154 2.37385,17.06607z" fill="#c5c556"/></g><g fill="#a1a147"><path d="M294.94068,176.51862l-3.07086,-7.23414l4.58024,6.42139z"/><path d="M302.18633,171.362l-4.23477,-6.6543l5.55429,5.55993z"/></g></g><g stroke="none" stroke-width="0" stroke-linecap="butt"><g><path d="M351.39157,151.75915c2.12138,1.08306 4.08702,2.57795 6.05239,3.93334c-1.17255,4.57579 -4.0021,10.73511 -7.07207,15.46976c-5.13025,7.91214 -8.98915,8.84958 -11.81253,7.0189c-2.82337,-1.83068 -3.54207,-5.73625 1.58818,-13.64839c3.07168,-4.7373 7.54369,-9.83683 11.24402,-12.77361z" fill="#a1a147"/><path d="M352.47696,153.61171c1.99973,2.79191 -1.52636,8.00485 -8.46799,14.18091c-6.94162,6.17606 -10.6872,5.80295 -12.68693,3.01104c-1.99973,-2.79191 -1.49633,-6.94538 5.44529,-13.12144c6.94162,-6.17606 13.7099,-6.86243 15.70963,-4.07052z" fill="#a1a147"/><path d="M357.49899,171.12468c-2.80617,8.8575 -6.39276,11.01181 -9.75763,10.3253c-3.36488,-0.68651 -5.23382,-3.95387 -2.42764,-12.81136c2.80617,-8.8575 6.4028,-15.27568 9.76768,-14.58917c3.36487,0.68651 5.22377,8.21774 2.4176,17.07523z" fill="#a1a147"/><path d="M351.516,151.82323c1.9822,1.02981 3.83031,2.41175 5.67228,3.69219c-2.60352,5.16599 -6.58591,11.12501 -8.85226,14.6203c-4.22825,6.52103 -7.01255,7.55051 -8.85086,6.35854c-1.83831,-1.19197 -2.0345,-4.154 2.19375,-10.67503c2.26951,-3.50016 6.21992,-9.48647 9.83709,-13.99601z" fill="#c5c556"/><path d="M351.53386,151.83253c2.16357,1.1268 6.73916,3.8147 8.75047,5.18735c-4.16054,3.43896 -13.32613,6.67512 -16.84987,9.81024c-5.72116,5.09019 -8.80819,4.78268 -10.45632,2.48164c-1.64813,-2.30104 -1.23325,-5.72424 4.4879,-10.81444c2.97685,-2.64855 8.86845,-5.17478 14.06782,-6.66479z" fill="#c5c556"/><path d="M348.24373,149.85578c2.36548,1.02412 6.66066,4.06635 8.80018,5.5591c0.57984,5.11989 0.55256,10.90221 -0.55973,14.41306c-2.31279,7.30018 -5.2688,9.07573 -8.04206,8.50992c-2.77326,-0.56581 -4.31361,-3.2587 -2.00081,-10.55888c1.32572,-4.18453 0.44459,-12.72306 1.80242,-17.92321z" fill="#c5c556"/></g><g fill="#a1a147"><path d="M343.78276,176.42017l4.58024,-6.42139l-3.07086,7.23414z"/><path d="M336.72696,170.98192l5.55429,-5.55993l-4.23477,6.6543z"/></g></g><path d="M381.47076,198.78066c0,4.47134 -0.02574,8.8578 -0.30273,13.13144c-3.0692,1.85081 -6.10293,3.80092 -9.35836,5.36447c-13.74687,6.60247 -26.37637,9.8137 -41.55391,9.75409c-2.04025,-0.00801 -4.00496,-0.92791 -6.035,-1c-9.49596,-0.33722 -18.41728,-1.55535 -27.76701,-2.56462c-7.61897,-0.82244 -13.42435,-1.10918 -20.56606,-4.8205c-3.35739,-1.74473 -8.81412,-12.07892 -11.00897,-15.39686c-0.08126,-0.12283 -0.15511,-0.24898 -0.22313,-0.37784c-0.16782,-1.26846 -0.65264,-2.43689 -1.37226,-3.42309c-0.16532,-0.28262 -0.36223,-0.55562 -0.60551,-0.81343c-0.68594,-0.72691 -1.42055,-1.26031 -2.17864,-1.62427c0.49361,-15.44385 7.33252,-29.38532 13.33158,-41.54198c1.63286,-3.30887 3.36657,-6.46222 5.20551,-9.43302c-0.47273,4.73925 -0.09303,9.4996 -0.31332,14.30837c-0.18261,3.98628 -0.8116,8.03385 0.06323,12.00527c0.96866,4.39736 3.3103,8.05286 5.6547,11.76769c1.85011,2.93161 2.40225,6.16439 4.37051,9.05707c2.26856,3.33403 5.29028,6.02367 8.1268,8.84807c5.75996,4.11654 12.68144,7.21356 19.92734,7.25902c3.73216,0.02342 7.05922,-1.34862 10.66072,-1.6853c4.34438,-0.40612 7.95704,-0.71986 12.2597,-1.71265c4.74933,-1.09586 10.26811,-1.78212 14.32035,-4.80883c3.18867,-2.38169 4.42684,-6.82611 6.03125,-10.20358c0.63662,-1.34016 2.99709,-5.20581 3.64248,-6.28474c2.67518,-6.23169 5.66632,-12.79463 9.74999,-18.30632c4.28826,9.90673 7.94077,20.78087 7.94077,32.50152z" fill="#a1a147" stroke="none" stroke-width="0" stroke-linecap="butt"/><path d="M379.32937,224.48019c-5.85056,1.58549 -11.68462,3.24841 -17.69044,4.07259c-6.2635,0.85954 -12.85703,0.97979 -19.16816,0.97788c-18.12444,0 -36.29684,0.29725 -54.39003,-0.94392c-6.44216,-0.44193 -13.26455,-0.37832 -19.62637,-1.50886c-1.29705,-0.2305 -2.60618,-0.57188 -3.91676,-0.97027c-2.30876,-8.53464 -4.06683,-17.73551 -4.06683,-27.32695c0,-7.80452 1.66563,-15.23368 4.08984,-22.25182c0.42291,9.40375 1.87192,18.48299 6.82289,27.15883c1.56224,2.7376 2.76404,5.405 5.31979,7.41309c2.87096,2.25575 6.48038,3.73938 9.86299,4.97646c8.02346,3.96523 18.87756,3.8701 27.65449,3.8701c7.83002,0 15.80746,1.82393 23.59671,0.98609c7.98445,-0.85884 15.76645,-4.37359 22.85466,-7.91669c6.71186,-3.35593 12.28223,-7.80049 18.34899,-12.21176c0.81856,-0.59519 1.63677,-1.18527 2.44961,-1.77909c-0.00203,8.8968 -0.12247,17.45505 -2.14137,25.4543z" fill="#838339" stroke="none" stroke-width="0" stroke-linecap="butt"/><path d="M319.38535,229.59495v-91.2h1.02083v91.2z" fill-opacity="0.54118" fill="#2c2c13" stroke="none" stroke-width="0" stroke-linecap="butt"/><g stroke="none" stroke-linecap="butt"><g stroke-width="0"><path d="M266.31735,59.69478c17.80048,-10.97911 25.40419,-1.94813 27.36521,1.23128c2.3606,3.82726 6.21895,13.37974 -11.58153,24.35885c-9.34867,5.76616 -23.86444,12.16158 -35.96953,15.98365c-3.87512,-2.87613 -7.60664,-5.95105 -11.61623,-8.6318c-0.40067,-0.52669 -0.83327,-1.02005 -1.37107,-1.39343c-0.01561,-0.01084 -0.03127,-0.02156 -0.047,-0.03219l0.00872,-0.00846l-1.29741,-1.33588c-0.02533,-0.02644 -0.05143,-0.05211 -0.0783,-0.07695c8.60753,-10.17444 23.33447,-23.15457 34.58714,-30.09508z" fill="#c5c556"/><path d="" fill="#c5c556"/><path d="M238.60925,92.33414c3.19257,-0.81477 6.66451,-1.55306 9.6991,-2.79143c2.87472,-1.17313 5.57417,-2.77977 8.53344,-3.89239c3.98306,-2.45671 8.37464,-3.75764 12.53386,-5.93465c8.81237,-4.61257 16.93263,-10.54221 25.27872,-15.96354c1.75194,4.71805 1.69013,12.74759 -12.87728,21.73258c-9.24221,5.70047 -23.53447,12.01599 -35.555,15.85205c-0.0152,-0.01228 -0.0237,-0.01858 -0.0237,-0.01858c-3.64191,-2.69971 -7.15495,-5.57786 -10.8887,-8.14286c1.09744,-0.27854 2.19669,-0.5597 3.29955,-0.84116z" fill="#a1a147"/><path d="" fill="#a1a147"/><path d="M245.24067,98.16089c4.81852,-2.07692 9.59575,-4.23449 14.34976,-6.60424c1.4246,-0.71013 2.5739,-1.93539 4.05118,-2.52819c2.46016,-0.98718 5.0068,-1.30398 7.32966,-2.72075c2.97425,-0.66982 4.88505,-1.96549 7.53716,-3.28611c3.19399,-1.59045 6.21167,-2.92934 9.28258,-4.82344c1.6484,-1.01671 3.64784,-1.98458 5.44801,-3.0956c-1.97361,3.19354 -5.50496,6.70794 -11.46193,10.38214c-9.24221,5.70047 -23.53447,12.01599 -35.555,15.85205c-0.0152,-0.01228 -0.0237,-0.01858 -0.0237,-0.01858c-1.06772,-0.79149 -2.12437,-1.59832 -3.17874,-2.4081c0.74489,-0.18939 1.48543,-0.43214 2.22101,-0.7492z" fill="#838339"/><path d="" fill="#838339"/><path d="M224.81052,102.95834c-1.3535,-3.006 4.1943,-10.70216 12.29828,-19.08236c3.13412,5.75654 6.28734,11.50363 9.38943,17.27622c-11.10948,3.54102 -20.26828,4.95858 -21.68772,1.80613z" fill="#2b2b13"/></g><g stroke-width="0"><path d="M352.68289,83.80128c-17.97081,-10.69804 -14.26305,-20.30997 -11.96287,-24.17385c1.91082,-3.20983 9.37168,-12.35919 27.34249,-1.66115c10.99863,6.54749 25.34233,18.70425 34.19997,28.58106c-0.36191,0.57044 -0.61599,1.26427 -0.96322,1.83077c-1.07356,1.75151 -2.08937,3.55134 -3.08712,5.3629c-2.32827,2.34382 -4.90788,4.3855 -7.74095,5.64514c0,0 -0.14257,0.0645 -0.32467,0.19749c-12.3985,-3.57204 -27.70052,-9.97042 -37.4636,-15.7824z" fill="#c5c556"/><path d="M353.00992,83.99596c-14.70679,-8.75497 -14.89477,-16.78254 -13.21718,-21.52753c8.43026,5.28951 16.64269,11.09083 25.52644,15.56435c4.19291,2.11139 8.60438,3.34314 12.62556,5.73696c2.97639,1.06599 5.70076,2.63001 8.59356,3.75783c3.05366,1.19054 6.53678,1.87417 9.74176,2.63868c1.16071,0.27688 2.31746,0.55348 3.47224,0.82712c-0.52153,0.90967 -1.0332,1.82717 -1.5402,2.74769c-2.32827,2.34382 -4.90788,4.3855 -7.74095,5.64514c0,0 -0.19428,0.0879 -0.41893,0.27004c-12.32224,-3.59439 -27.38952,-9.91393 -37.04233,-15.66026z" fill="#a1a147"/><path d="M353.00992,83.99596c-6.01397,-3.58013 -9.60011,-7.03862 -11.62365,-10.20075c1.81742,1.08259 3.83181,2.01891 5.49599,3.00959c3.10029,1.84561 6.13864,3.13692 9.35722,4.67698c2.67253,1.27878 4.60347,2.54427 7.58787,3.16727c2.34483,1.38009 4.89615,1.65684 7.3715,2.60524c1.48641,0.56951 2.65484,1.77655 4.09041,2.4642c4.79066,2.29477 9.6012,4.377 14.45176,6.37795c1.47664,0.60914 2.96845,0.92254 4.47285,1.1062c-1.19427,0.86177 -2.44176,1.60511 -3.74272,2.18354c0,0 -0.19428,0.0879 -0.41893,0.27004c-12.32224,-3.59439 -27.38952,-9.91393 -37.04233,-15.66026z" fill="#838339"/><path d="M410.24404,100.57226c-1.36973,3.17436 -10.54967,1.90091 -21.71342,-1.4651c3.01102,-5.82063 6.07352,-11.61656 9.1168,-17.42164c8.23467,8.25181 13.90272,15.85986 12.59663,18.88674z" fill="#2b2b13"/></g><path d="M376.72152,95.95814c1.04179,19.99833 -6.42016,43.02753 -34.67785,47.77584c-10.64777,1.78922 -20.72185,0.3033 -20.72185,0.3033c0,0 -8.26019,4.44055 -20.7053,2.71323c-23.50487,-3.26234 -38.26442,-23.16519 -39.38256,-44.62937c-1.40543,-26.97888 23.30802,-50.22921 55.19904,-51.93108c31.89101,-1.70187 58.8831,18.78921 60.28854,45.76808z" fill="#c5c556" stroke-width="0"/><path d="M351.53072,97.1259c0.39729,5.21352 -16.56421,7.9463 -33.01393,9.00455c-15.26855,0.98227 -30.0848,0.67108 -30.45357,-4.1681c-0.44868,-5.8879 0.92771,-11.10784 8.40237,-14.15075c5.28718,-2.1524 15.27528,-2.88989 22.53626,-3.44321c9.9336,-0.75698 19.87456,-0.04869 25.84091,2.76426c4.56022,2.14999 6.35607,5.63833 6.68793,9.99326z" fill="#9b9b44" stroke-width="0"/><path d="M376.72152,95.95813c1.04179,19.99833 -6.42015,43.02754 -34.67785,47.77585c-10.64777,1.78922 -20.72184,0.3033 -20.72184,0.3033c0,0 -8.26019,4.44054 -20.70532,2.71322c-23.50487,-3.26234 -38.26442,-23.16519 -39.38256,-44.62937c-0.54906,-10.54001 2.88834,-20.51093 9.18278,-28.85022c-0.29824,2.7731 -0.4737,5.57173 -0.41227,8.53465c0.11131,5.36914 0.74509,11.70133 2.2872,16.95922c1.9882,6.77894 6.60563,12.12579 9.3888,18.45536c1.81507,4.12787 2.76745,9.3955 7.30098,11.46206c4.93833,2.25108 10.91403,3.12496 16.32368,2.59831c3.90603,-0.38027 7.56992,-2.26409 11.55414,-2.06364c2.79942,0.14084 5.86437,2.22701 8.74371,2.64228c2.57686,0.37164 6.15875,-0.13535 8.31468,-0.32882c11.9782,-1.07494 25.98134,-4.91671 29.381,-18.22915c1.69824,-6.65001 0.7721,-13.21283 1.93392,-19.87764c0.85329,-4.89499 4.04335,-11.41812 5.51575,-16.68735c0.02002,-0.07164 0.04018,-0.14323 0.06047,-0.21479c3.45584,5.85753 5.54763,12.42822 5.91274,19.43673z" fill="#a1a147" stroke-width="0"/><path d="M376.72152,95.95812c1.04179,19.99833 -6.42015,43.02754 -34.67785,47.77585c-10.64777,1.78922 -20.72184,0.30329 -20.72184,0.30329c0,0 -8.26019,4.44054 -20.70532,2.71322c-23.50487,-3.26234 -38.26442,-23.16519 -39.38256,-44.62937c-0.33032,-6.34095 0.7822,-12.47593 3.0916,-18.17358c0.54369,2.17693 1.05642,4.35693 1.42595,6.56581c0.3487,2.08435 -0.81794,4.39818 -0.70773,6.51845c0.16306,3.13715 0.31681,7.13138 0.94044,10.49946c0.72012,3.8892 3.46496,7.40269 5.47418,10.71011c7.0346,11.57983 13.64544,21.57637 28.47186,21.60449c7.25955,0.01376 14.25293,-1.76651 21.56151,-2.30994c1.26742,-0.09424 3.13004,0.8467 4.5179,0.86018c6.05338,0.05874 12.38668,-0.16747 18.25177,-1.60663c9.18865,-2.2547 18.09272,-12.4162 23.84081,-19.41767c1.92362,-2.34306 3.88024,-4.57932 4.83488,-7.50408c2.31091,-7.07992 1.88576,-14.73667 2.5384,-22.1009c0.67669,2.64843 1.09978,5.38476 1.24598,8.19128z" fill="#838339" stroke-width="0"/><path d="M308.63137,102.23426c0.73602,5.58017 -7.59307,14.43786 -19.50549,14.08571c-10.17173,-0.3007 -17.74416,-4.13502 -18.39437,-12.66752c-0.65021,-8.53249 8.21942,-14.48559 18.36616,-15.25881c10.14676,-0.77322 18.79752,8.25917 19.5337,13.84063z" fill="#9b9b44" stroke-width="0"/><path d="M349.58735,85.6478c9.71114,-0.74002 18.96529,3.60541 19.58758,11.7716c0.6223,8.16618 -5.98531,12.8917 -15.56432,14.65129c-11.21828,2.06072 -20.38232,-5.11091 -20.49529,-10.49659c-0.11299,-5.38691 6.7609,-15.18628 16.47203,-15.9263z" fill="#9b9b44" stroke-width="0"/><path d="M305.37767,101.96783c0.63325,4.80103 -6.53288,12.42192 -16.78196,12.11893c-8.75144,-0.25871 -15.26655,-3.55765 -15.82598,-10.89876c-0.55942,-7.3411 7.07174,-12.46298 15.80171,-13.12824c8.72995,-0.66526 16.17284,7.10596 16.80622,11.90807z" fill="#000000" stroke-width="0"/><path d="M349.95343,87.00823c8.72995,-0.66526 17.04912,3.24115 17.60853,10.58226c0.55942,7.3411 -5.38057,11.58917 -13.99178,13.17099c-10.08483,1.8525 -18.32298,-4.59453 -18.42452,-9.43606c-0.10157,-4.84264 6.0778,-13.65192 14.80776,-14.31718z" fill="#000000" stroke-width="0"/><path d="M348.31861,122.54375c0,0 -5.30568,12.11293 -25.78801,12.98589c-21.4108,0.91252 -29.42529,-9.68178 -29.42529,-9.68178c0,0 16.14036,3.46741 29.1857,2.47331c13.04534,-0.9941 26.02761,-5.77743 26.02761,-5.77743z" fill="#000000" stroke-width="0"/><path d="M352.28573,120.07342c0.20411,2.67851 -16.04305,7.18459 -31.07248,8.32989c-15.02941,1.1453 -30.55547,-1.48155 -30.75958,-4.16006c-0.20411,-2.67851 15.25275,-3.33033 30.28217,-4.47563c15.02941,-1.1453 31.34576,-2.37271 31.54987,0.3058z" fill="#a1a147" stroke-width="0"/><path d="M355.18878,117.86485c0.20411,2.67851 -18.9718,6.6851 -34.00123,7.83039c-15.02942,1.1453 -32.82215,-0.40548 -33.02626,-3.08399c-0.20411,-2.67851 17.51943,-4.40641 32.54886,-5.5517c15.02941,-1.1453 34.27451,-1.87321 34.47863,0.8053z" fill="#c5c556" stroke-width="0"/><path d="M286.82951,124.39897c0.32758,4.29884 -2.98723,8.05659 -7.40384,8.39315c-4.41662,0.33657 -8.26257,-2.8755 -8.59015,-7.17435c-0.32758,-4.29884 2.98723,-8.05659 7.40385,-8.39315c4.41662,-0.33657 8.26256,2.87549 8.59014,7.17435z" fill-opacity="0.54118" fill="#2c2c13" stroke-width="0"/><path d="M370.54273,119.70595c0.32758,4.29884 -2.98723,8.05658 -7.40384,8.39314c-4.41662,0.33657 -8.26256,-2.8755 -8.59014,-7.17434c-0.32758,-4.29884 2.98723,-8.05659 7.40384,-8.39315c4.41662,-0.33657 8.26256,2.8755 8.59014,7.17435z" fill-opacity="0.54118" fill="#2c2c13" stroke-width="0"/><path d="M319.3837,104.28158c-0.65328,-8.57279 -2.60579,-22.53528 -3.76544,-34.29619c-1.11178,-11.27552 -1.44563,-20.5395 -1.44563,-20.5395l0.71849,-0.05475c0,0 0.42693,9.42177 1.62805,20.82828c1.22708,11.65298 3.23559,25.38393 3.88313,33.88132c0.52617,6.90474 1.02803,16.33542 1.31831,24.34934c-0.1273,0.02871 -0.87549,0.05343 -0.92829,0.06222c-0.36161,-7.98104 -0.88065,-17.30217 -1.40863,-24.23071z" fill-opacity="0.54118" fill="#2c2c13" stroke-width="0"/><path d="M321.39994,144.28786c0,0 -0.26938,-3.60263 -0.48181,-8.71939c0.24322,0.04545 0.74869,0.07668 1.04189,0.04474c0.15875,5.07712 0.15842,8.61989 0.15842,8.61989z" fill-opacity="0.54118" fill="#2c2c13" stroke-width="0"/><path d="M329.28845,109.9018c0.19655,2.57931 -5.26701,6.3009 -8.18397,6.40503c-3.10688,0.1109 -8.86347,-2.51167 -9.06003,-5.09097c-0.19655,-2.57931 17.04744,-3.89337 17.244,-1.31406z" fill="#000000" stroke-width="0"/><path d="M273.35353,98.694c-0.00348,-0.50328 0.00937,-0.98549 0.09937,-1.40549c0.67967,-3.17215 4.32715,-4.77535 7.00796,-5.51441c1.61132,-0.79849 3.19599,-1.93545 4.94377,-2.41713c1.69502,-0.46715 3.47039,0.20423 5.1175,0.48551c2.43642,0.41606 5.1427,1.1243 7.28225,2.49117c1.08061,0.9424 2.52041,1.36895 3.5697,2.39154c1.29419,1.26127 1.77008,2.83626 2.84422,4.20547c0.61837,0.78825 1.39651,0.90849 1.70484,2.0102c0.62881,2.24672 -0.48735,4.18621 -1.41439,6.03697c-1.87573,2.20189 -4.41938,4.34448 -6.90494,5.79519c-2.59996,1.51747 -6.2351,1.40997 -9.14206,1.63149c-6.41384,0.48875 -12.32017,-2.26676 -15.96621,-7.44247c-0.54378,-1.28687 -1.15127,-2.97589 -0.96741,-4.41188c0.16156,-1.26178 1.13504,-2.02034 1.41574,-3.1973zM272.96653,103.57085c0.10071,0.92771 0.46484,1.91442 0.7888,2.69121c3.34499,4.68317 8.74809,7.15114 14.59693,6.70543c2.61513,-0.19929 6.2341,-0.01589 8.54534,-1.45077c2.27523,-1.41251 4.63875,-3.29419 6.41111,-5.33696c0.77114,-1.53952 1.6579,-2.96674 1.22408,-4.85965c-0.16396,-0.71545 -1.04012,-0.97747 -1.45386,-1.507c-0.63595,-0.8139 -0.9158,-1.97811 -1.52502,-2.79236c-1.22111,-1.63209 -3.1089,-2.26062 -4.60831,-3.52978c-1.95167,-1.24022 -4.45313,-1.85095 -6.66356,-2.22748c-1.39154,-0.23705 -3.05954,-0.92937 -4.4981,-0.51617c-1.69135,0.48583 -3.2355,1.60567 -4.80862,2.373c-0.84859,0.24131 -2.11219,0.23752 -2.83136,0.73118c-0.64365,0.44181 -0.9614,1.20385 -1.56245,1.68226c-0.73355,0.58388 -1.47429,0.9721 -1.71448,2.03278c-0.09364,0.41347 -0.14108,0.82971 -0.16999,1.24541c0.05089,0.17176 0.01587,0.339 -0.02554,0.45403c-0.06501,1.41559 -0.03135,2.8113 -0.99659,4.05729c0,0 -0.30434,0.35455 -0.70836,0.24758z" fill="#000000" stroke-width="0.5"/><path d="M337.22327,96.72108c-0.57117,1.63271 -0.8511,3.7707 -0.86797,5.14381c-0.00459,0.37346 -0.271,1.47409 -0.05698,1.82459c0.8456,1.38493 1.86694,2.54533 3.01256,3.72239c1.63477,1.10922 3.09469,1.22811 4.94475,1.45313c3.23508,0.39348 7.47556,2.06781 10.45814,-0.04567c3.39505,-0.7822 8.35047,-2.53833 10.56055,-5.36686c0.79548,-1.01806 0.54976,-2.78492 1.34327,-4.02988c1.05991,-3.43559 -0.71582,-5.72139 -2.87036,-8.0903c-0.56319,-0.61923 -1.21331,-1.61661 -1.9837,-1.98922c-0.98794,-0.47782 -1.83833,-0.45157 -2.89469,-0.70744c-5.01736,-0.60153 -11.11652,-1.77754 -15.48862,1.67062c-2.17001,1.53469 -5.24779,3.89341 -6.07503,6.28443zM336.84503,94.35262c1.38491,-2.0116 3.86175,-3.91536 5.67426,-5.20208c4.74916,-3.69127 11.15505,-2.60725 16.61257,-1.93187c1.15081,0.30012 2.20276,0.28315 3.29401,0.84445c0.94617,0.48667 1.69126,1.53093 2.39031,2.30257c2.56669,2.8332 4.37914,5.66729 3.1078,9.66548c-0.88972,1.39592 -0.56588,3.00733 -1.4923,4.28013c-0.64259,0.88283 -1.24512,1.07032 -2.10045,1.62219c-2.83636,1.83007 -5.6523,3.48819 -9.03346,4.20342c-1.48373,1.05138 -3.26693,1.0232 -5.0066,0.99779c-3.78338,-0.05526 -8.75778,-0.46186 -11.90799,-2.61992c-1.21876,-1.25763 -2.58824,-2.60935 -3.37057,-4.17419c-0.34994,-0.69995 -0.11042,-1.77177 -0.09809,-2.5083c0.02173,-1.29829 0.25032,-3.05613 0.68323,-4.64136c-0.16176,-0.33929 0.06309,-0.69208 0.06309,-0.69208l0.30628,-0.47209c0.2042,-0.5544 0.43789,-1.06056 0.70095,-1.4836c0,0 0.06259,-0.0982 0.17694,-0.19051z" fill="#000000" stroke-width="0.5"/><path d="M346.70832,123.87731c0.53887,-0.04106 0.57994,0.4978 0.57994,0.4978l-0.00139,0.49046c-0.31865,0.77444 -1.19985,1.22482 -1.52484,1.9966c-2.34903,2.12685 -4.68345,4.54623 -7.55051,6.07661c-1.33045,0.71017 -2.84372,0.40584 -4.26905,0.50847c-2.1105,-0.25736 -3.21381,0.99829 -5.12142,1.40058c-0.9374,0.19769 -1.94367,0.05611 -2.88663,0.2214c-1.76815,0.30991 -3.19934,1.13254 -5.1416,1.24716c-2.51731,-0.99181 -5.121,-0.21209 -7.7037,-0.56922c-2.21561,-0.30636 -4.47118,-0.96787 -6.6938,-1.35842c-2.27106,0.17307 -5.10936,-1.45697 -6.86741,-2.79052c-0.50119,-0.38018 -0.68804,-1.01575 -1.21209,-1.31714c-1.0753,-0.61845 -1.98533,-1.02347 -2.95384,-1.85483c0,0 -0.41009,-0.35201 -0.05808,-0.76209c0.35201,-0.41009 0.76208,-0.05808 0.76208,-0.05808c0.93094,0.7991 1.81013,1.12536 2.81337,1.75266c2.32635,1.45458 4.38946,4.19236 7.56612,3.95029c2.29002,0.37988 4.54197,1.02839 6.81131,1.37034c2.53628,0.38217 5.23918,-0.47757 7.7037,0.56922c1.80803,-0.18193 3.10789,-0.90982 4.78599,-1.24378c0.93204,-0.18549 1.92931,-0.0373 2.86138,-0.21662c1.98462,-0.38182 3.12767,-1.69363 5.35908,-1.42154c1.22356,-0.09943 2.61845,0.22813 3.75625,-0.39215c0.95487,-0.52055 1.45285,-1.10568 2.18493,-1.82166c0.9956,-0.97372 2.9002,-1.30154 3.81998,-2.42087c0.41724,-0.50777 0.59358,-1.02643 1.15385,-1.49731c0.35401,-0.89864 1.3024,-1.05012 1.37375,-1.6931l-0.04519,-0.08433c0,0 -0.04106,-0.53887 0.49781,-0.57995z" fill="#000000" stroke-width="0.5"/></g></g></g></svg>