<svg version="1.1" xmlns="http://www.w3.org/2000/svg" xmlns:xlink="http://www.w3.org/1999/xlink" width="364" height="127.1379" viewBox="0,0,364,127.1379"><defs><linearGradient x1="320" y1="128.5" x2="320" y2="232.00006" gradientUnits="userSpaceOnUse" id="color-1"><stop offset="0" stop-color="#68682e"/><stop offset="1" stop-color="#303015"/></linearGradient><linearGradient x1="205.00001" y1="184.68663" x2="205.00001" y2="224.5115" gradientUnits="userSpaceOnUse" id="color-2"><stop offset="0" stop-color="#000000" stop-opacity="0"/><stop offset="1" stop-color="#000000" stop-opacity="0.54118"/></linearGradient><linearGradient x1="205.00005" y1="136.43661" x2="205.00005" y2="213.0115" gradientUnits="userSpaceOnUse" id="color-3"><stop offset="0" stop-color="#1c1c00" stop-opacity="0.55294"/><stop offset="1" stop-color="#1c1c00" stop-opacity="0"/></linearGradient><linearGradient x1="205.50004" y1="225.2615" x2="205.50004" y2="148.68661" gradientUnits="userSpaceOnUse" id="color-4"><stop offset="0" stop-color="#1c1c00" stop-opacity="0.30196"/><stop offset="1" stop-color="#1c1c00" stop-opacity="0"/></linearGradient><linearGradient x1="205.00001" y1="136.35118" x2="205.00001" y2="224.5115" gradientUnits="userSpaceOnUse" id="color-5"><stop offset="0" stop-color="#ffff94"/><stop offset="1" stop-color="#cccc48"/></linearGradient><linearGradient x1="419.9245" y1="126.61652" x2="419.9245" y2="246.27779" gradientTransform="translate(-292.12215,-86.7888) scale(1.10862,0.40114)" gradientUnits="userSpaceOnUse" id="color-6"><stop offset="0" stop-color="#ffffff"/><stop offset="1" stop-color="#fdff9d"/></linearGradient></defs><g transform="translate(-128.25,-125.36495)"><g stroke-miterlimit="10"><path d="M130,232.00006v-103.5h360.5v103.5z" fill="url(#color-1)" fill-rule="nonzero" stroke="#252510" stroke-width="3.5" stroke-linecap="butt" stroke-linejoin="miter"/><path d="M178.43044,136.35118h53.13923c10.38871,0 18.75214,8.13434 18.75214,18.23841v51.68346c0,10.10407 -8.36346,18.23841 -18.75214,18.23841h-53.13923c-10.38868,0 -18.75217,-8.13434 -18.75217,-18.23841v-51.68346c0,-10.10407 8.36349,-18.23841 18.75217,-18.23841z" fill="#6e6e30" fill-rule="evenodd" stroke="none" stroke-width="4.43922" stroke-linecap="round" stroke-linejoin="round"/><path d="M250.32181,206.27308c0,10.10407 -8.36346,18.23841 -18.75214,18.23841h-53.13923c-10.38868,0 -18.75217,-8.13434 -18.75217,-18.23841v-21.58645c18.06815,0.09223 37.35897,0.267 55.17088,0.26802c11.82421,0.00067 23.64844,-0.01273 35.47267,-0.02123z" fill="url(#color-2)" fill-rule="nonzero" stroke="none" stroke-width="4.43922" stroke-linecap="butt" stroke-linejoin="miter"/><path d="M178.08754,137.11352c0,0 -8.05558,7.54324 -8.33307,16.46965c-0.39756,12.78921 -0.72638,28.41772 -4.23301,28.76861c-3.3171,0.33192 -3.1024,-13.4702 -3.68173,-25.86175c-0.15377,-3.28895 -0.41765,-6.47361 -0.70454,-9.27859c1.42204,-1.11792 2.41833,-2.75301 2.70544,-4.62186c1.43487,-0.64268 2.62425,-1.73534 3.38863,-3.09846c1.72237,-0.26413 3.24631,-1.1306 4.35002,-2.37761z" fill="#ffff94" fill-rule="nonzero" stroke="none" stroke-width="0" stroke-linecap="butt" stroke-linejoin="miter"/><path d="M173.87431,176.14517c0,0 6.70989,25.51523 0.85457,25.90687c-5.94419,0.39758 -0.85457,-25.90687 -0.85457,-25.90687z" fill="#ffff94" fill-rule="nonzero" stroke="none" stroke-width="0" stroke-linecap="butt" stroke-linejoin="miter"/><path d="M168.40225,143.12106l33.94565,-0.53584c0,0 -5.57733,5.56766 -7.78635,11.82991c-2.27466,6.44833 -1.28589,13.60084 -8.63226,13.89521c-8.41127,0.17652 -7.96475,-8.31966 -10.28204,-15.29332c-1.84531,-5.55325 -7.24499,-9.89597 -7.24499,-9.89597z" fill="#ffff94" fill-rule="nonzero" stroke="none" stroke-width="0" stroke-linecap="butt" stroke-linejoin="miter"/><path d="M242.09982,151.4589c-3.25619,1.37412 -8.07183,-3.02822 -14.07533,-3.36357c-2.58811,-0.14457 -5.24849,3.73357 -8.34538,3.75489c-4.83421,0.03328 -5.6472,-3.46288 -11.48056,-3.42075c-7.79407,0.05629 -4.00009,-4.18622 -9.49016,-4.49126c-0.42824,-0.02379 -24.597,6.85293 -25.01175,6.84039c-2.99325,-0.09046 -1.94054,3.2349 -1.75522,6.73721c0.20318,3.8398 -0.37096,7.86283 -2.10977,7.12443c-0.81208,-0.34486 -0.36059,-2.54418 -0.82566,-4.66289c-0.23623,-1.07622 -1.35855,-2.02338 -1.67223,-2.91793c-1.39706,-3.98409 -3.03493,-9.07612 -4.18643,-12.30446c0.33771,-0.66924 3.31758,-3.90073 4.08196,-5.26384c0.8436,-0.12937 3.49582,-1.8574 5.99779,-2.54651c2.6063,-0.71785 4.58168,-0.60551 7.41855,-0.70534c6.76077,-0.23791 16.23925,-0.00124 22.09277,-0.00124c6.53791,0 18.3667,-0.42877 26.08862,-0.1798c5.45191,0.17578 7.76055,0.63839 7.76055,0.63839c0.86962,0.60266 2.39767,1.43803 3.48551,1.61591c0.53296,0.36334 1.11657,0.65789 1.73805,0.87089c0.86764,1.2608 2.12147,2.23522 3.59075,2.75252c0.30513,0.49566 0.66788,0.95206 1.07891,1.35987c0.34515,0.98806 0.89686,1.87919 1.60337,2.62165c0.117,0.33569 0.25784,0.6602 0.42048,0.97152c-1.31449,1.66683 -3.33672,3.27518 -6.40482,4.56993z" fill="#ffff94" fill-rule="nonzero" stroke="none" stroke-width="0" stroke-linecap="butt" stroke-linejoin="miter"/><path d="M233.3039,152.76146c0,0 6.47815,19.04953 0.82506,19.34192c-5.7389,0.29684 -0.82506,-19.34192 -0.82506,-19.34192z" fill="#ffff94" fill-rule="nonzero" stroke="none" stroke-width="0" stroke-linecap="butt" stroke-linejoin="miter"/><path d="M250.19977,175.48801c0,0 -6.46264,-3.98442 -6.06614,-10.95027c0.34262,-6.01924 2.06458,-13.45753 3.5806,-19.03993c0.11797,0.1446 0.24138,0.28459 0.36991,0.41966c0.29857,0.85662 0.75235,1.6405 1.32767,2.31794c0.14332,0.75783 0.40384,1.47423 0.76201,2.12962z" fill="#ffff94" fill-rule="nonzero" stroke="none" stroke-width="0" stroke-linecap="butt" stroke-linejoin="miter"/><path d="M250.32182,212.76471c-11.82423,-0.0085 -72.5754,0.15456 -90.64355,0.24679v-58.33645c0,-10.10407 8.36349,-18.23841 18.75217,-18.23841h53.13923c10.38868,0 18.75214,8.13434 18.75214,18.23841z" fill="url(#color-3)" fill-rule="nonzero" stroke="none" stroke-width="4.43922" stroke-linecap="butt" stroke-linejoin="miter"/><path d="M250.82181,207.02308c0,10.10407 -8.36346,18.23841 -18.75214,18.23841h-53.13923c-10.38868,0 -18.75217,-8.13434 -18.75217,-18.23841v-58.33645c18.06815,0.09223 78.81932,0.25529 90.64355,0.24679z" fill="url(#color-4)" fill-rule="nonzero" stroke="none" stroke-width="4.43922" stroke-linecap="butt" stroke-linejoin="miter"/><path d="M178.43044,136.35118h53.13923c10.38871,0 18.75214,8.13434 18.75214,18.23841v51.68346c0,10.10407 -8.36346,18.23841 -18.75214,18.23841h-53.13923c-10.38868,0 -18.75217,-8.13434 -18.75217,-18.23841v-51.68346c0,-10.10407 8.36349,-18.23841 18.75217,-18.23841z" fill="none" fill-rule="evenodd" stroke="url(#color-5)" stroke-width="2.5" stroke-linecap="round" stroke-linejoin="round"/><text transform="translate(263.50002,216.3558) scale(0.90202,2.4929)" font-size="40" xml:space="preserve" fill="url(#color-6)" fill-rule="nonzero" stroke="none" stroke-width="1" stroke-linecap="butt" stroke-linejoin="miter" font-family="&quot;Allan-Bold&quot;, Sans Serif" font-weight="normal" text-anchor="start"><tspan x="0" dy="0">YOU DID IT WOW!</tspan></text><g fill-rule="nonzero" stroke="none" stroke-linecap="butt" stroke-linejoin="miter"><path d="M168.82894,183.86142c0,-17.06855 16.04788,-30.90535 35.84394,-30.90535c19.79606,0 35.84394,13.8368 35.84394,30.90535c0,17.06855 -16.04788,30.90535 -35.84394,30.90535c-19.79606,0 -35.84394,-13.8368 -35.84394,-30.90535z" fill="#fcff63" stroke-width="0"/><path d="M172.72886,173.97389c-0.14269,-6.3368 3.32371,-13.17065 7.80016,-17.02497c1.80662,-1.5577 4.54346,-2.81646 5.4899,-4.9248c0.42056,-0.93688 -0.28145,-2.17331 0.38867,-2.99512c2.58603,-3.17157 7.9881,1.70427 9.40339,4.39647c1.37424,-5.70559 8.09629,-11.0678 14.66387,-11.54164c3.93862,-0.28417 13.37424,-0.54408 11.65668,3.8451c-2.49038,1.50099 -4.14552,3.70043 -5.99974,5.74242c-0.15055,0.1658 -0.30025,0.38863 -0.45654,0.61172c0.63584,-0.3062 1.27032,-0.5783 1.30996,-0.58666c1.29072,-0.27227 4.33368,-0.1508 5.61021,-0.0313c1.42247,0.13316 7.3832,2.4727 7.2068,4.0772c-0.10171,0.92513 -2.34971,1.76566 -2.69549,2.85402c1.99859,3.70801 5.39175,4.80772 7.89695,7.97633c4.84137,6.12341 5.69171,12.01597 5.54046,19.29591c-5.27864,9.48298 -16.59042,16.30067 -29.32595,14.28484c-6.15229,-0.98559 -11.75336,-3.47362 -17.78991,-4.81525c-2.76687,-0.61493 -5.83374,-0.47808 -8.33812,-1.82687c-3.49785,-1.88384 -6.62754,-7.09473 -9.0562,-9.9382c-2.6021,-3.36612 -3.55864,-5.10331 -3.55864,-9.23307z" fill="#fcff63" stroke-width="0.5"/><path d="M222.13566,195.6938c1.06551,0 1.06551,0.91869 1.06551,0.91869l-0.01072,1.01206c-0.68077,3.99701 -3.20807,6.14932 -7.75167,6.94582c0,0 -1.0448,0.18018 -1.25378,-0.72068c-0.20897,-0.90086 0.83585,-1.08104 0.83585,-1.08104c3.65095,-0.61748 5.54355,-2.18337 6.06,-5.40394l-0.01072,-0.7522c0,0 0,-0.91869 1.06551,-0.91869z" fill="#1c1c00" stroke-width="0.5"/><path d="M226.22801,198.63387c-0.75483,0 -0.97492,-0.46106 -1.03909,-0.72993c-1.7227,-1.40418 -2.62532,-1.26709 -5.14625,-0.83164c0,0 -1.0448,0.18018 -1.25378,-0.72068c-0.20897,-0.90086 0.83585,-1.08104 0.83585,-1.08104c3.29933,-0.56804 4.93528,-0.50602 7.3567,1.57443l0.31207,0.87014c0,0 0,0.91869 -1.06551,0.91869z" fill="#1c1c00" stroke-width="0.5"/><path d="M222.3564,205.93524c0.95302,0.41085 0.4765,1.23256 0.4765,1.23256l-0.68277,1.09549c-0.96572,0.51515 -2.01939,0.95667 -3.13055,1.15877c0,0 -1.0448,0.18016 -1.25378,-0.7207c-0.20897,-0.90086 0.83585,-1.08104 0.83585,-1.08104c0.69004,-0.11041 1.37372,-0.30803 1.98489,-0.60546l0.34031,-0.66878c0,0 0.4765,-0.82171 1.42952,-0.41085z" fill="#1c1c00" stroke-width="0.5"/><path d="M186.54422,190.81635l0.1009,0.03758c1.78997,-1.14684 0.54808,-4.35232 -1.11065,-5.33183c-2.33172,-1.37694 -5.1943,0.1468 -6.82142,1.55899c0,0 -0.08809,0.07595 -0.23414,0.14994c0.24721,0.90646 0.79735,1.76116 1.72105,2.52519c0,0 0.02466,0.02126 0.06062,0.05996c1.61065,0.69795 3.51153,1.17445 5.63564,1.472c0.20012,-0.34312 0.64801,-0.47184 0.64801,-0.47184zM197.60418,174.47314c-1.21778,-0.77545 -2.73201,-0.9219 -4.2755,-0.86827c-0.2983,1.09209 -0.07636,2.12842 0.53756,2.89359c0.61614,0.23891 1.1385,0.43255 1.68055,0.58047c0.82924,0.11157 1.626,0.10112 2.50376,-0.13995c0.08405,-0.05144 0.18376,-0.09883 0.29729,-0.12951c0.04118,-0.05025 0.09861,-0.11214 0.17232,-0.17274c-0.25105,-0.72999 -0.55748,-1.45377 -0.91597,-2.1636zM191.02977,171.9339c1.75753,-0.16771 3.48072,-0.25426 5.07287,0.03846c-1.45142,-2.04318 -3.03308,-3.16597 -5.88641,-4.24238c-0.11636,-0.01052 -0.33388,-0.04414 -0.53455,-0.15181c-7.98296,-1.39599 -12.0687,4.17862 -14.56664,9.88408c-1.08952,4.26603 -0.53191,7.35957 1.24848,9.54966c-0.95746,-6.39278 8.2545,-13.9519 14.66624,-15.07804zM199.67866,173.60237l0.44628,1.26781c0,0 0.01116,0.05772 0.01094,0.14647c3.0557,7.39441 0.95845,15.57665 -8.30645,18.47266c-12.92682,0.13812 -21.87429,-4.55574 -18.75721,-16.55019c2.94501,-6.81154 8.19571,-13.06809 17.78466,-11.01432c0,0 0.26513,0.05715 0.49326,0.22933c3.75198,1.46433 5.7066,3.20862 7.63595,6.53314c0.12459,0.21589 0.24471,0.4331 0.36027,0.65143c0.11218,0.0837 0.22296,0.17153 0.33229,0.26366z" fill="#1c1c00" stroke-width="0.5"/><path d="M217.66421,187.20555l0.355,-0.19777c5.29669,-3.673 -5.60026,-9.74306 -6.74502,-3.61708c0,0 -0.03202,0.15189 -0.14203,0.31982c0.20845,0.66388 0.47824,1.32063 0.81086,1.96323c0,0 0.06938,0.13461 0.09007,0.31999c0.99429,0.49642 2.11425,0.90664 3.36168,1.21394c0.66826,0.13096 1.31321,0.23001 1.93512,0.29876c0.1453,-0.19222 0.33431,-0.30089 0.33431,-0.30089zM229.55585,173.84611l0.01812,-0.01254c-0.37905,-2.01173 -1.2578,-3.6882 -2.98403,-4.5922c-0.5629,2.03857 0.02625,4.68971 2.96589,4.60474zM220.41425,166.94283c4.58471,-0.78815 7.45535,0.22709 9.17748,2.22253c-1.607,-7.61008 -15.66409,-5.58818 -19.87638,-1.38615c-4.59675,5.28292 -4.97593,11.91178 -0.73537,16.07052c-2.0662,-7.29309 2.32309,-15.14669 11.43427,-16.90688zM231.35658,182.95571c0,0 -0.0828,0.57111 -0.64159,0.75275c-2.66747,4.36462 -7.93675,6.76762 -15.84433,5.2802c-11.92219,-2.93701 -13.9763,-14.12653 -6.81075,-22.36647c5.57188,-5.43725 21.47626,-6.96433 23.62813,2.31692c0.12286,0.22343 0.12286,0.44107 0.12286,0.44107l-0.03947,-0.0385c0.00419,0.02297 0.00832,0.04599 0.01236,0.06909c0.44749,1.08049 0.59644,2.04452 0.76232,3.18879c0.51267,3.58361 0.14952,6.94949 -1.09666,9.71543z" fill="#1c1c00" stroke-width="0.5"/></g></g></g></svg>