<svg version="1.1" xmlns="http://www.w3.org/2000/svg" xmlns:xlink="http://www.w3.org/1999/xlink" width="139.55591" height="56.09675" viewBox="0,0,139.55591,56.09675"><defs><linearGradient x1="370.49248" y1="202.64168" x2="370.49248" y2="256.73842" gradientUnits="userSpaceOnUse" id="color-1"><stop offset="0" stop-color="#c5c556"/><stop offset="1" stop-color="#878723"/></linearGradient><linearGradient x1="458.02247" y1="204.77067" x2="458.02247" y2="229.51883" gradientTransform="translate(-657.45127,-433.16719) scale(1.62048,1.93964)" gradientUnits="userSpaceOnUse" id="color-2"><stop offset="0" stop-color="#ffffb6"/><stop offset="1" stop-color="#ffff70"/></linearGradient></defs><g transform="translate(-342.4441,-201.64166)"><g stroke-miterlimit="10"><path d="M349.78576,243.69164v-28.66667h116.33333v28.66667z" fill-opacity="0.01176" fill="#000000" stroke="none" stroke-width="NaN"/><g><path d="M349.70321,254.3071v-49.07528h132.2968v49.07528z" fill-opacity="0.01176" fill="#000000" stroke="none" stroke-width="NaN"/><path d="M347.07071,256.73842c-2.00292,0 -3.62661,-1.62368 -3.62661,-3.62659v-46.84354c0,-2.00291 1.62368,-3.62662 3.62661,-3.62662h46.84353c2.00292,0 3.62658,1.62371 3.62658,3.62662v46.84354c0,2.00291 -1.62367,3.62659 -3.62658,3.62659z" fill="url(#color-1)" stroke="#343404" stroke-width="2"/><path d="M355.68247,227.39559c-0.24864,-0.03746 -0.78687,-0.11161 -1.55778,-0.18041c-1.48004,-0.13208 -3.67039,-0.42801 -4.94746,-2.11173c-2.3255,-3.066 -1.06425,-5.67852 -0.21199,-6.82686c0.89268,-1.20277 3.12052,-2.61215 5.67681,-1.94514c2.03506,0.53099 2.82674,2.07086 3.29106,3.2026c0.16994,0.41421 0.55614,0.92959 0.89881,1.34036c2.00661,-3.0428 4.81927,-5.38525 9.36581,-5.90256c4.96566,-0.56499 8.36439,1.09485 11.06479,3.65672c0.24786,-0.32665 0.62404,-0.89871 0.72537,-1.47385c0.21227,-1.20474 0.65729,-2.87802 2.53227,-3.83085c2.3552,-1.19687 4.83238,-0.2951 5.96106,0.68961c1.07757,0.94014 2.86702,3.22356 1.24897,6.71499c-0.88857,1.91736 -2.9654,2.67366 -4.38321,3.11837c-0.7514,0.23568 -1.26628,0.42542 -1.49551,0.51312c1.31522,1.93271 2.57935,3.88337 3.98831,5.55366c2.0973,2.47277 5.39823,3.83575 5.39823,3.83575c0,0 -2.54538,11.4956 -20.97191,13.44741v-0.00001c-18.1016,1.9174 -23.71061,-8.89084 -23.71061,-8.89084c0,0 2.61442,-0.925 4.24203,-3.98567c1.07864,-2.02836 1.9314,-4.4686 2.88498,-6.92462z" fill="#343404" stroke="none" stroke-width="0"/><g stroke="none" stroke-width="1" font-family="&quot;Allan-Regular&quot;, Sans Serif" font-weight="normal" font-size="40" text-anchor="start"><text transform="translate(404.42472,222.78547) scale(0.6171,0.51556)" font-size="40" xml:space="preserve" fill="#828216"><tspan x="0" dy="0">JOOPERS </tspan><tspan x="0" dy="48px">   MODE</tspan></text><text transform="translate(405.71318,223.32367) scale(0.6171,0.51556)" font-size="40" xml:space="preserve" fill="url(#color-2)"><tspan x="0" dy="0">JOOPERS </tspan><tspan x="0" dy="48px">   MODE</tspan></text></g></g></g></g></svg>