<svg version="1.1" xmlns="http://www.w3.org/2000/svg" xmlns:xlink="http://www.w3.org/1999/xlink" width="183.73006" height="287.10551" viewBox="0,0,183.73006,287.10551"><g transform="translate(-252.0738,-44.70898)"><g stroke-miterlimit="10"><path d="M252.07381,331.81449l2.16374,-279.82778h131.5249l-2.16374,279.82778z" fill-opacity="0.01" fill="#000000" stroke="none" stroke-width="2" stroke-linecap="butt"/><path d="M290.17928,173.86499c-1.4548,3.2073 -4.2598,5.31043 -6.26515,4.69745c-2.00537,-0.61299 -0.34278,-3.03065 1.11201,-6.23797c1.4548,-3.2073 1.51472,-5.60373 3.5201,-4.99076c2.00537,0.61299 3.08786,3.32396 1.63307,6.53128z" fill="#000000" stroke="#ecec68" stroke-width="1" stroke-linecap="butt"/><path d="M285.99781,180.69086c-0.28617,2.67832 -2.07132,8.88341 -4.42143,10.45601c-3.79728,2.54097 -8.76574,-0.88657 -8.99683,-5.00998c-0.00619,-0.1105 -2.63544,-4.74389 -4.20843,-9.39403c-1.54701,-4.5734 -2.04022,-9.15957 -1.80549,-9.88055c4.95996,-15.23581 8.15371,1.12337 11.62752,1.49453c4.98135,0.53225 8.4756,6.05437 7.80464,12.334z" fill="#000000" stroke="#ecec68" stroke-width="1" stroke-linecap="butt"/><path d="M278.06337,160.76985c-1.63159,-0.17433 -2.21331,4.49215 -3.27491,6.15921c-0.63313,0.99423 -2.42433,0.97895 -4.15743,0.58315c-2.01502,-0.46019 -3.95151,-1.43477 -3.89804,-1.93519c0.17656,-1.65253 2.91267,-9.87781 6.45175,-10.66772c3.66783,-0.81864 16.36497,2.50199 13.76799,5.70797c-1.51883,1.87499 -5.15332,0.55177 -8.88934,0.15259z" fill="#000000" stroke="#ecec68" stroke-width="1" stroke-linecap="butt"/><path d="M288.36,169.39271c-1.07368,1.40069 -7.23468,-3.64803 -10.9707,-4.04721c-3.73603,-0.39918 -6.8368,3.66463 -6.66022,2.01208c0.17656,-1.65253 1.42917,-8.28443 5.16518,-7.88523c3.73603,0.39918 14.61485,6.51148 12.46578,9.9204z" fill="#000000" stroke="#ecec68" stroke-width="1" stroke-linecap="butt"/><path d="M284.1382,172.66132c0,0 -1.98949,-3.17567 -5.72551,-3.57486c-3.73603,-0.39918 -6.80909,1.54914 -6.63252,-0.10341c0.17656,-1.65253 3.10005,-4.05696 6.83606,-3.65777c1.67001,0.17844 8.96335,2.12773 9.5066,4.922c0.40689,2.09281 -3.98464,2.41404 -3.98464,2.41404z" fill="#000000" stroke="#ecec68" stroke-width="1" stroke-linecap="butt"/><path d="M276.68633,171.32307c-0.45908,4.29659 -0.13659,11.03155 -2.73556,10.75387c-2.59898,-0.2777 -5.25402,-7.81396 -6.26339,-11.35955c-1.21937,-4.28327 -0.26768,-7.79896 2.33129,-7.52126c1.05757,0.113 0.47913,-0.42569 1.79675,0.87813c1.92043,1.90031 5.14317,4.7006 4.8709,7.24882z" fill="#000000" stroke="none" stroke-width="0" stroke-linecap="butt"/><path d="M271.39781,185.2651c0,0 1.47259,2.77476 5.26789,3.41274c2.84721,0.4786 4.84239,-1.10101 4.84239,-1.10101l-1.53853,9.56005c0,0 -3.55584,-0.15455 -5.3139,-1.39145c-1.73201,-1.21857 -4.89213,-5.97577 -4.89213,-5.97577z" fill="#ecec68" stroke="#ecec68" stroke-width="1" stroke-linecap="butt"/><path d="M269.84581,189.93164c0,0 2.38679,5.19076 4.43849,6.5859c2.40558,1.6358 9.10296,2.6223 9.10296,2.6223c0,0 -1.18088,39.60927 -14.52381,56.44796c-1.45078,1.83086 -4.81354,-8.65761 -6.22621,-28.41284c-0.64446,-9.01221 7.20857,-37.24331 7.20857,-37.24331z" fill="#000000" stroke="#ecec68" stroke-width="1" stroke-linecap="butt"/><path d="M281.76229,178.43646c0,0 7.17414,-16.54043 10.09705,-20.35294c2.56793,-3.34948 8.13878,-4.38279 8.13878,-4.38279l-14.26367,76.19328c0,0 -6.36188,33.03161 -9.12428,32.55503c-6.84638,-1.70258 -9.60688,-8.93751 -9.60688,-8.93751z" fill="#000000" stroke="#ecec68" stroke-width="1" stroke-linecap="butt"/><path d="M355.33294,208.16853c-5.25019,-17.71938 4.84947,-23.77384 4.84947,-23.77384c0,0 1.73736,-12.16971 3.91021,-17.77292c0.27713,-0.71465 1.25747,-3.41086 1.52012,-3.79513c6.97718,-10.2082 14.37221,6.99269 14.37221,6.99269c0,0 -1.20529,3.13186 1.29453,15.8718c0.782,3.98531 4.12186,17.1692 10.27161,29.59914c9.02199,18.23533 21.71386,36.63118 21.71386,36.63118c0,0 -20.18749,9.87019 -23.84157,13.52427c-2.92104,2.92104 -30.00804,-43.49915 -34.09041,-57.27718z" fill="#000000" stroke="#ecec68" stroke-width="1" stroke-linecap="butt"/><path d="M388.14084,266.11775l21.83811,-18.91135l6.38258,7.37036l-21.83811,18.91135z" fill="#ecec68" stroke="#ecec68" stroke-width="1" stroke-linecap="butt"/><path d="M264.74357,293.2905c0,0 17.22769,-35.9512 23.22746,-71.3783c3.9049,-23.05739 4.7903,-64.95763 4.7903,-64.95763c0,0 31.76714,-13.3735 50.92913,-8.26008c27.67152,7.3842 33.57735,16.48579 33.57735,16.48579c0,0 -3.64377,75.57298 -9.27731,100.59074c-5.12924,22.77826 -14.33918,58.54495 -14.33918,58.54495z" fill="#000000" stroke="#ecec68" stroke-width="1" stroke-linecap="round"/><path d="M419.24365,266.07208c0,7.87566 -7.03843,18.3591 -14.82848,18.3591c-7.79004,0 -6.87173,0.12557 -6.87173,-7.75008c0,-7.87566 6.31509,-25.35136 14.10513,-25.35136c7.79004,0 7.59507,6.8667 7.59507,14.74235z" fill="#000000" stroke="#ecec68" stroke-width="1" stroke-linecap="butt"/><path d="M399.63295,275.3427c5.91758,8.60554 10.49813,6.16617 7.13705,8.19117c-2.4889,3.80157 -7.05976,4.39217 -12.97735,-4.21337c-5.91758,-8.60554 -5.83227,-14.59911 -2.7644,-16.58488c3.04845,-1.97317 2.68711,4.00154 8.60469,12.60708z" fill="#000000" stroke="#ecec68" stroke-width="1" stroke-linecap="butt"/><path d="M418.07948,271.08756c-7.40386,-7.36589 -9.98779,-10.82365 -7.05806,-13.43409c2.94048,-2.62002 4.17805,1.08108 11.58189,8.44696c7.40386,7.36589 14.79984,16.06708 12.15106,18.58482c-4.37017,3.23293 -9.27101,-6.23182 -16.67487,-13.5977z" fill="#000000" stroke="#ecec68" stroke-width="1" stroke-linecap="butt"/><path d="M430.89288,250.5065c0,2.1972 -2.30573,4.52088 -8.17373,5.71439c-2.59798,0.52841 -5.76061,7.85328 -8.85746,7.6681c-1.07706,-0.06441 -3.65989,-8.24658 -4.13304,-8.29703c-0.45831,-0.04888 12.67745,-7.32783 16.02852,-7.32783c0.2366,0 5.13571,0.17795 5.13571,2.24236z" fill="#000000" stroke="#ecec68" stroke-width="1" stroke-linecap="butt"/><path d="M418.00135,259.14639c0,3.79517 0.67818,13.12864 -1.519,13.12864c-2.1972,0 -10.01828,-16.239 -10.01828,-16.239c0,0 4.09587,-3.50819 6.29307,-3.50819c2.1972,0 5.24421,2.82341 5.24421,6.61856z" fill="#000000" stroke="none" stroke-width="0" stroke-linecap="butt"/><path d="M364.65834,231.6544l4.39154,-70.58014c0,0 9.48406,2.2544 9.20205,8.86066c0.93472,4.57352 -0.05213,20.64372 -0.05213,20.64372l-2.93397,54.16585z" fill="#000000" stroke="#000000" stroke-width="0" stroke-linecap="butt"/><path d="M371.4218,240.90773c0,0 -7.93295,-14.58422 -11.37765,-24.57628c-3.44471,-9.99207 -5.95098,-25.68884 -5.95098,-25.68884" fill="none" stroke="#ecec68" stroke-width="1" stroke-linecap="round"/><path d="M271.63064,256.68758c-7.30515,-2.12292 -5.55841,-16.58786 -6.85361,-20.13211c-1.22081,-3.34062 4.81431,-16.13531 4.81431,-18.31258c0,-4.48724 0.22233,7.61909 3.58777,7.61909c3.36544,0 5.69145,-10.86172 5.69145,-6.37448c0,0 -4.00819,38.13924 -7.23992,37.20008z" fill="#06040a" stroke="none" stroke-width="0" stroke-linecap="butt"/><path d="M406.00486,272.665c5.50266,8.87661 10.15462,5.20446 6.70123,7.06773c-2.58151,4.70071 -7.22104,5.50508 -12.72368,-3.37153c-5.50266,-8.87661 -7.15819,-16.36464 -3.99956,-18.20261c4.99867,-2.13634 4.51935,5.6298 10.02199,14.50641z" fill="#000000" stroke="#ecec68" stroke-width="1" stroke-linecap="butt"/><path d="M408.92796,262.92574c5.50266,8.87661 10.39104,13.86951 6.93768,15.73279c-3.46605,1.87015 -7.45746,-3.15996 -12.96011,-12.03657c-5.50266,-8.87661 -4.85835,-11.23425 -1.69973,-13.07221c4.99867,-2.13634 2.21952,0.49939 7.72217,9.37599z" fill="#000000" stroke="#ecec68" stroke-width="1" stroke-linecap="butt"/><path d="M416.84804,272.25046c0,2.24721 -1.14848,4.06893 -2.5652,4.06893c-1.41672,0 -4.68812,-4.65229 -4.68812,-6.8995c0,-2.24721 1.14848,-7.96096 2.5652,-7.96096c1.41672,0 4.68812,8.54431 4.68812,10.79152z" fill="#000000" stroke="none" stroke-width="0" stroke-linecap="butt"/><path d="M288.56602,178.9554l0.53073,-13.53363c0,0 2.34694,-8.79576 5.43235,-8.6913c2.11356,0.07155 6.11104,8.42593 6.11104,8.42593v13.799z" fill="#000000" stroke="none" stroke-width="0" stroke-linecap="butt"/><path d="M285.53674,300.25108c0,0 9.10418,-40.68234 13.67787,-64.75438c4.23419,-22.28527 11.03366,-74.13955 11.03366,-74.13955l16.88966,5.58034c0,0 -4.40694,42.03876 -8.23281,64.35618c-4.44891,25.95208 -15.88946,75.49222 -15.88946,75.49222z" fill="#ecec68" stroke="none" stroke-width="0" stroke-linecap="butt"/><path d="M293.90587,302.51412l18.58607,-86.49511" fill="none" stroke="#000000" stroke-width="1.5" stroke-linecap="round"/><path d="M341.4398,142.52294l12.04993,16.7716l-8.80105,3.94028l6.77783,7.52442l-37.49342,46.18814" fill="none" stroke="#ecec68" stroke-width="1" stroke-linecap="round"/><path d="M305.23237,218.30731l-8.77573,-51.97706l6.60841,-3.82451l-8.07863,-0.11516l19.18292,-15.67049" fill="none" stroke="#ecec68" stroke-width="1" stroke-linecap="round"/><path d="M317.0411,221.49647l-8.1074,10.09858l-4.59149,-9.99782l8.44127,-42.97292l-0.99718,-13.59089l9.20594,3.53067l-4.06758,11.12562z" fill="#000000" stroke="none" stroke-width="0" stroke-linecap="butt"/><g><path d="M288.43279,136.18382l-0.05782,-11.01444l20.43507,-0.10725l0.05782,11.01442z" fill="#000000" stroke="none" stroke-width="0" stroke-linecap="butt"/><path d="M287.54993,104.29594c0,0 -7.6349,-1.26948 -7.07863,-5.99007c0.58299,-4.94739 8.07753,-5.73184 8.07753,-5.73184l-1.29443,-44.59535l5.92928,17.25083l5.75858,-15.27897l4.82922,16.24001l8.66542,-17.66626l6.31199,20.63742l5.02874,-15.27518l9.58551,18.58708l5.75144,-16.6344l7.44585,28.08647l9.99257,-15.0979c0,0 -8.91036,54.6861 -10.17705,72.0531c-0.57197,7.84217 0.69106,13.73886 0.69106,13.73886c0,0 -14.6323,13.10835 -25.95757,11.8088c-11.32528,-1.29955 -16.9005,-16.88026 -16.9005,-16.88026" fill="#000000" stroke="#ecec68" stroke-width="1" stroke-linecap="round"/><path d="M309.24461,151.84817c-8.56971,-0.76367 -16.1901,-0.80382 -18.55446,-1.86422c-4.5691,-2.04925 8.71609,-8.00898 8.71609,-8.00898" fill="#000000" stroke="#ecec68" stroke-width="1" stroke-linecap="round"/><path d="M335.55296,145.68211c0,0 -19.2845,0.3672 -38.48742,0.20397c-11.56462,-0.09831 -26.07794,0.80593 -28.46079,-1.25617c-2.76092,-2.38924 17.40754,-16.81685 17.40754,-16.81685" fill="#000000" stroke="#ecec68" stroke-width="1" stroke-linecap="round"/><path d="M302.94148,110.41405c0.03689,7.02539 -5.22071,12.74831 -11.74321,12.78256c-6.52245,0.03423 -11.83988,-5.63317 -11.87674,-12.65854c-0.03689,-7.02539 5.22075,-12.7483 11.74322,-12.78252c6.52247,-0.03424 11.83988,5.63317 11.87674,12.65854z" fill="#ecec68" stroke="#000000" stroke-width="1.5" stroke-linecap="butt"/><path d="M292.2343,112.35755c-1.10186,0.00578 -2.00018,-0.95797 -2.00645,-2.15262c-0.00627,-1.19462 0.88188,-2.16779 1.98373,-2.17356c1.10186,-0.00576 2.00018,0.95799 2.00645,2.15264c0.00628,1.19466 -0.88188,2.16781 -1.98371,2.17359z" fill="#000000" stroke="none" stroke-width="0.5" stroke-linecap="butt"/><path d="M296.56685,129.39691c0,0 -18.45266,0.61827 -18.07552,-6.91825c0.3541,-7.07657 26.59494,-3.80064 26.59494,-3.80064" fill="#000000" stroke="#ecec68" stroke-width="1" stroke-linecap="round"/><g stroke-linecap="butt"><path d="M325.63909,111.68374c0.04319,8.22678 -6.11352,14.92837 -13.75141,14.96849c-7.63787,0.04007 -13.86464,-6.59655 -13.9078,-14.82332c-0.04315,-8.22677 6.11359,-14.92837 13.75146,-14.96847c7.63789,-0.04007 13.86462,6.59654 13.9078,14.8233z" fill="#ecec68" stroke="#000000" stroke-width="1.5"/><path d="M311.56866,111.36771c-0.00713,-1.35755 1.00214,-2.46336 2.25424,-2.46995c1.25212,-0.00657 2.27291,1.08861 2.28006,2.44616c0.00713,1.35758 -1.00214,2.46343 -2.25424,2.47c-1.2521,0.00657 -2.27291,-1.08862 -2.28004,-2.44616z" fill="#000000" stroke="none" stroke-width="0.5"/></g><g stroke="#ecec68" stroke-width="1" stroke-linecap="round"><path d="M346.2,126.58478c0,0 8.58478,-7.21027 9.11665,-2.81621c2.91174,24.05543 -10.62717,14.31681 -10.62717,14.31681" fill="#000000"/><path d="M348.74754,135.94271c0,0 0.04665,-2.56368 0.4226,-4.10075c0.35205,-1.43944 1.76609,-4.8479 1.76609,-4.8479" fill="none"/><path d="M348.99524,132.72676c0,0 1.34687,-1.06019 1.92387,-1.33257c0.4047,-0.19104 1.57662,-0.30997 1.57662,-0.30997" fill="none"/></g></g></g></g></svg>