<svg version="1.1" xmlns="http://www.w3.org/2000/svg" xmlns:xlink="http://www.w3.org/1999/xlink" width="118.23228" height="108.08786" viewBox="0,0,118.23228,108.08786"><g transform="translate(-183.81992,-121.30305)"><g data-paper-data="{&quot;isPaintingLayer&quot;:true}" fill-rule="nonzero" stroke-linejoin="miter" stroke-miterlimit="10" stroke-dasharray="" stroke-dashoffset="0" style="mix-blend-mode: normal"><g stroke-linecap="butt"><path d="M286.3253,204.24798c6.28162,4.03541 -2.56196,15.81508 -10.53077,18.67185c-12.71182,4.55711 -22.08796,-2.35493 -22.08796,-2.35493l5.28385,-5.25242c0,0 6.4359,3.04391 11.62141,-0.04348c6.39548,-3.80777 8.03117,-15.95623 15.71346,-11.02101z" fill="#ecec68" stroke="#000000" stroke-width="2"/><path d="M275.25314,209.63242l3.60409,-5.25844l9.17649,6.2895l-3.60409,5.25843z" fill="#000000" stroke="none" stroke-width="0"/><path d="M270.63341,215.5l4.00598,-3.71321l5.41389,8.53482l-5.14239,2.87145z" fill="#000000" stroke="none" stroke-width="0"/><path d="M262.85147,216.45133l5.63438,-0.2341l-0.31144,8.60909l-6.54194,-0.76813z" fill="#000000" stroke="none" stroke-width="0"/></g><g data-paper-data="{&quot;index&quot;:null}" stroke-linecap="butt"><path d="M269.07607,215.43678c-1.15919,2.70783 -6.2839,3.64978 -10.68412,1.76608c-4.40022,-1.88369 -6.40968,-5.87969 -5.25049,-8.58751c1.15919,-2.70783 6.60992,-3.27478 11.01015,-1.39109c4.40023,1.88369 6.08365,5.50469 4.92446,8.21252z" fill="#ecec68" stroke="#000000" stroke-width="2"/><path d="M262.87406,218.02656l4.10572,-8.58803c0,0 3.79647,2.07938 2.4543,5.92135c-1.15295,3.30037 -6.56002,2.66667 -6.56002,2.66667z" fill="#000000" stroke="none" stroke-width="0"/><path d="M255.98629,215.78428l5.03998,-9.86119l3.23074,1.36152l-4.63406,10.10088z" fill="#000000" stroke="none" stroke-width="0"/></g><g stroke-linecap="butt"><path d="M229.70026,205.28859c1.294,2.64606 -0.51181,6.73813 -4.81165,8.84089c-4.29984,2.10277 -9.46547,1.41994 -10.75946,-1.22613c-1.294,-2.64606 0.20507,-6.34719 4.50491,-8.44995c4.29984,-2.10277 9.7722,-1.81088 11.0662,0.83518z" fill="#ecec68" stroke="#000000" stroke-width="2"/><path d="M213.7677,212.84459c-1.53382,-3.76957 2.15317,-6.03737 2.15317,-6.03737l4.53273,8.37051c0,0 -5.3683,0.90504 -6.6859,-2.33313z" fill="#000000" stroke="none" stroke-width="0"/><path d="M223.66834,214.37382l-5.13655,-9.85485l3.15812,-1.52238l5.5299,9.59504z" fill="#000000" stroke="none" stroke-width="0"/></g><path d="M250.09351,220.92949c8.16615,-0.13998 9.94936,2.12573 8.5651,5.10799c-0.31292,0.67415 -2.25852,2.13538 -8.35773,1.80566c-6.6718,-0.36067 -9.29157,-0.91172 -9.29157,-1.65972c0,-1.57638 -0.72955,-3.24678 0.67809,-4.17864c1.25539,-0.83106 4.39253,-1.0065 8.40611,-1.0753z" data-paper-data="{&quot;index&quot;:null}" fill="#c5c556" stroke="#9b9b44" stroke-width="3" stroke-linecap="butt"/><path d="M241.22714,219.38394c-6.66591,-0.24843 -14.64918,-0.56213 -14.76608,-1.58041c-0.43929,-3.8265 6.43409,-17.03136 6.43409,-17.03136l17.3423,0.41755c0,0 4.73693,15.4343 4.88999,17.32967c0.15306,1.89537 -6.67374,1.13386 -13.90029,0.86455z" fill="#000000" stroke="#6e6e30" stroke-width="3" stroke-linecap="butt"/><g stroke="none" stroke-width="0" stroke-linecap="butt"><path d="M241.80292,207.26372c-46.3325,-2.60006 -56.01779,-31.99414 -56.01779,-31.99414c0,0 6.95734,-1.24935 12.30663,-8.25712c11.83274,-15.50137 19.21305,-43.53724 46.67667,-42.20906c28.6846,1.38723 32.70726,27.85704 43.30146,45.50027c4.26413,7.05812 12.01147,11.82617 12.01147,11.82617c0,0 -11.11431,27.78061 -58.27845,25.13388z" fill="#ecec68"/><path d="M299.15042,180.82753c0,0 -4.48208,11.23293 -16.27735,17.96317c-12.23461,6.98092 -30.74505,7.36332 -30.74505,7.36332c0,0 18.54036,-10.77896 19.08787,-42.69653c0.31305,-18.24952 -13.7793,-36.79937 -13.7793,-36.79937c0,0 10.72808,5.77651 17.83822,16.54777c5.68258,8.60864 7.74327,19.19015 11.40372,24.0504c1.78606,2.37148 2.8033,5.49221 4.87163,7.70714c3.40243,3.64358 7.60025,5.86409 7.60025,5.86409z" fill="#cbcb6a"/></g><path d="M202.40405,180.1957c0.16599,-3.06375 2.78423,-5.41285 5.84798,-5.24686c3.06375,0.16599 5.41286,2.78422 5.24687,5.84797c-0.16599,3.06375 -2.78423,5.41286 -5.84798,5.24687c-3.06375,-0.16599 -5.41286,-2.78423 -5.24687,-5.84798z" fill="#6e6e30" stroke="none" stroke-width="0" stroke-linecap="butt"/><path d="M271.40794,184.04562c0.16599,-3.06375 2.78423,-5.41285 5.84798,-5.24686c3.06375,0.16599 5.41286,2.78422 5.24687,5.84797c-0.16599,3.06375 -2.78423,5.41286 -5.84798,5.24687c-3.06375,-0.16599 -5.41286,-2.78423 -5.24687,-5.84798z" fill="#6e6e30" stroke="none" stroke-width="0" stroke-linecap="butt"/><g stroke="none" stroke-width="0" stroke-linecap="butt"><path d="M218.48111,135.56362l-9.41834,15.17936c0,0 -1.52764,-0.52611 -4.22788,-1.21539c-3.66994,-0.93681 -9.06001,-2.5751 -11.58355,-7.31919c-4.59527,-8.63882 -0.35142,-14.67294 2.26349,-17.20331c2.73891,-2.65037 8.92199,-5.27234 15.0808,-2.55395c4.90304,2.16412 6.26415,6.34887 6.96885,9.37645c0.51405,2.20851 0.91664,3.73605 0.91664,3.73605z" fill="#000000"/><path d="M200.39477,136.67009c0.20667,-3.81438 3.46636,-6.739 7.28073,-6.53235c3.81438,0.20667 6.739,3.46636 6.53235,7.28073c-0.20667,3.81438 -3.46636,6.739 -7.28073,6.53235c-3.81438,-0.20667 -6.739,-3.46636 -6.53235,-7.28073z" fill="#cbcb6a"/></g><path d="M241.80291,207.26373c-46.3325,-2.60006 -56.01779,-31.99414 -56.01779,-31.99414c0,0 6.95734,-1.24935 12.30663,-8.25712c11.83274,-15.50137 19.21305,-43.53724 46.67667,-42.20906c28.6846,1.38723 31.9352,27.88528 42.63576,45.4642c5.70148,9.36641 12.67717,11.86224 12.67717,11.86224c0,0 -11.11431,27.78061 -58.27845,25.13388z" fill="none" stroke="#000000" stroke-width="3" stroke-linecap="butt"/><g data-paper-data="{&quot;index&quot;:null}" stroke="none" stroke-width="0" stroke-linecap="butt"><path d="M272.27578,138.47821c0,0 0.56527,-1.4751 1.31493,-3.61513c1.02768,-2.93371 2.83297,-6.94691 7.94112,-8.56862c6.41647,-2.03705 12.28006,1.23759 14.71658,4.16837c2.32621,2.79809 5.89328,9.25541 0.39153,17.34716c-3.02134,4.44368 -8.55686,5.49002 -12.30653,6.02483c-2.75891,0.3935 -4.33444,0.75147 -4.33444,0.75147l-7.72318,-16.10809z" fill="#000000"/><path d="M282.85598,148.06465c-3.81438,-0.20667 -6.739,-3.46636 -6.53235,-7.28073c0.20667,-3.81438 3.46636,-6.739 7.28073,-6.53235c3.81438,0.20667 6.739,3.46636 6.53235,7.28073c-0.20667,3.81438 -3.46636,6.739 -7.28073,6.53235z" fill="#cbcb6a"/></g><path d="M238.57784,124.40049l13.09226,0.9597c0,0 -0.76116,9.08615 -3.05518,16.93306c-1.73214,5.92491 -4.09669,11.09609 -4.09669,11.09609c0,0 -2.61668,-4.73636 -3.91494,-11.50313c-0.9798,-5.10695 -2.02545,-17.4857 -2.02545,-17.4857z" fill="#000000" stroke="none" stroke-width="0" stroke-linecap="butt"/><path d="M230.66471,143.37517c0,0 4.53742,-7.39345 14.39878,-6.98124c10.11191,0.42268 13.06095,8.46901 13.06095,8.46901z" fill="#000000" stroke="none" stroke-width="0" stroke-linecap="butt"/><path d="M228.93872,133.64254c0,0 4.9898,-7.86967 16.46375,-7.37009c11.76549,0.51227 15.48939,9.10132 15.48939,9.10132z" fill="#000000" stroke="none" stroke-width="0" stroke-linecap="butt"/><g fill="#000000" stroke="none" stroke-width="0" stroke-linecap="butt"><path d="M192.33023,185.48791c0,0 -5.25784,-6.6058 -5.28826,-8.93167c-0.02551,-1.95047 5.11784,-4.09663 5.11784,-4.09663c0,0 3.55003,3.05557 8.94201,5.40653c4.52527,1.97308 9.1522,2.58408 9.1522,2.58408c0,0 -2.18183,2.93199 -7.38594,4.00857c-7.61509,1.57533 -10.53784,1.02912 -10.53784,1.02912z"/><path d="M193.89124,187.41135c0,0 8.47566,2.0934 13.7107,1.92387c4.39356,-0.14227 8.3484,-1.41888 8.3484,-1.41888c0,0 0.15393,3.13305 -3.81164,6.57942c-2.23982,1.94657 -4.48137,3.08174 -5.81137,3.78665c-0.78266,-0.46668 -2.29958,-1.30872 -3.0282,-1.70286c-0.61236,-0.33125 -1.49914,-1.3375 -2.53266,-2.54197c-0.83111,-1.61436 -2.09062,-2.97954 -3.63656,-3.93736c-0.02695,-0.01669 -0.05397,-0.03326 -0.08108,-0.0497c0.65366,-0.93269 -3.15758,-2.63918 -3.15758,-2.63918z"/><path d="M216.15528,198.51351c4.14414,-2.30682 6.49511,-5.17212 6.49511,-5.17212c0,0 1.24511,3.0067 -0.3082,7.47661c-0.56465,1.62488 -1.09717,2.9686 -1.57866,4.07057c-2.11994,-1.28839 -4.41095,-2.11668 -6.98411,-3.32853c-0.21551,-0.1015 -2.51915,-1.4148 -2.77903,-1.47315c1.06712,-0.59221 3.31426,-0.54879 5.15489,-1.57338z"/></g><g data-paper-data="{&quot;index&quot;:null}" fill="#000000" stroke="none" stroke-width="0" stroke-linecap="butt"><path d="M282.04596,188.49829c-5.05734,-1.63254 -6.90961,-4.78311 -6.90961,-4.78311c0,0 4.66586,-0.10751 9.37781,-1.58011c5.61441,-1.75464 9.4738,-4.40877 9.4738,-4.40877c0,0 4.88137,2.68929 4.64528,4.6256c-0.28154,2.30897 -6.2223,8.30802 -6.2223,8.30802c0,0 -2.96466,0.22722 -10.36497,-2.16164z"/><path d="M289.70303,195.19573c-0.02873,0.01341 -0.83334,0.48565 -0.86194,0.49934c-1.64039,0.78518 -4.74012,1.03789 -5.74078,2.55301c-0.19921,0.18684 1.79238,1.61341 1.60398,1.78717c-0.90634,0.836 -3.86282,0.24842 -4.39646,0.46628c-0.76695,0.31311 -2.36595,0.98633 -3.19445,1.36571c-1.24605,-0.84449 -3.35184,-2.2152 -5.36823,-4.39237c-3.56999,-3.85465 -3.07847,-6.95272 -3.07847,-6.95272c0,0 3.79376,1.69643 8.14623,2.31256c5.18606,0.73414 14.72554,-0.63355 14.72554,-0.63355c0,0 -2.38449,1.99671 -1.83542,2.99457z"/><path d="M272.27275,203.15627c-0.26465,0.02992 -2.69671,1.08665 -2.92191,1.16427c-2.68903,0.92675 -5.05612,1.50266 -7.30285,2.55446c-0.35963,-1.14754 -0.74384,-2.54094 -1.12962,-4.21731c-1.06128,-4.61155 0.5014,-7.46614 0.5014,-7.46614c0,0 2.02762,3.10252 5.89828,5.84359c1.71916,1.21746 3.95784,1.41709 4.95473,2.12112z"/></g><path d="M231.11092,172.01457c0.35641,-6.57832 5.97812,-11.62217 12.55644,-11.26575c6.57832,0.35641 11.62217,5.97812 11.26575,12.55644c-0.35641,6.57832 -5.97812,11.62217 -12.55644,11.26575c-6.57832,-0.35641 -11.62217,-5.97812 -11.26575,-12.55644z" fill="#6e6e30" stroke="none" stroke-width="0" stroke-linecap="butt"/><path d="M242.04633,186.37722c-6.77923,-0.35311 -6.08562,-8.48451 -6.08562,-8.48451c0,0 3.15438,0.47399 4.01425,0.13942c1.04155,-0.40527 3.08476,-2.43729 3.08476,-2.43729c0,0 1.96302,2.2629 2.84069,2.73322c0.72764,0.38991 3.33236,0.17644 3.33236,0.17644c0,0 0.09278,8.68169 -7.18643,7.87273z" fill="#c5c556" stroke="#000000" stroke-width="1.5" stroke-linecap="butt"/><path d="M252.19558,176.4117c0,0 -1.69269,3.3534 -5.89226,2.18067c-2.97818,-0.83165 -3.11295,-3.92334 -3.11295,-3.92334c0,0 -0.89088,3.52638 -3.81947,3.69326c-4.18586,0.23853 -5.99008,-2.80307 -5.99008,-2.80307" fill="none" stroke="#000000" stroke-width="2" stroke-linecap="round"/><g stroke="none" stroke-width="0" stroke-linecap="butt"><path d="M250.35689,168.75935c-0.12325,2.27484 -4.14031,6.80861 -7.40329,6.48397c-3.26203,-0.32453 -6.94909,-4.98007 -6.82584,-7.2549c0.12325,-2.27484 3.2604,-4.45513 7.28157,-4.23727c4.02117,0.21787 7.0708,2.73336 6.94756,5.00821z" fill="#000000"/><path d="M247.7392,167.78297c-0.05104,0.94211 -2.12281,1.59583 -4.62743,1.46013c-2.50463,-0.1357 -4.49364,-1.00944 -4.4426,-1.95155c0.05104,-0.94211 1.37327,-1.61144 4.79837,-1.53431c3.34171,0.07524 4.32271,1.08363 4.27166,2.02573z" fill="#ffffff"/></g><path d="M242.68294,182.5489l0.31881,-5.88422" fill="none" stroke="#000000" stroke-width="1" stroke-linecap="round"/><path d="M235.36809,215.17066c2.22735,3.93223 1.5345,8.53516 -1.54752,10.28092c-3.08202,1.74576 -7.38612,-0.02673 -9.61346,-3.95896c-2.22735,-3.93223 -1.5345,-8.53516 1.54752,-10.28092c3.08202,-1.74576 7.38612,0.02673 9.61346,3.95896z" fill="#c5c556" stroke="#9b9b44" stroke-width="3" stroke-linecap="butt"/><g fill="#000000" stroke="none" stroke-width="0" stroke-linecap="butt"><path d="M214.06706,170.23963c-0.097,0.90482 -4.60514,1.25609 -4.60514,1.25609c0,0 -1.84521,-0.81297 -3.39761,-1.41808c-2.022,-0.78814 -3.90488,-1.88653 -3.66473,-2.818c0.28004,-1.08623 2.86225,-0.66669 4.85635,-0.31219c1.48534,0.26406 3.56629,0.90636 3.56629,0.90636c0,0 3.34184,1.48102 3.24484,2.38583z"/><path d="M209.02844,171.39014c-1.66712,-0.66322 -0.32204,-3.7811 -0.32204,-3.7811l19.32675,2.07191l-0.41454,3.86682c0,0 -17.28249,-1.63741 -18.59016,-2.15763z"/></g><g data-paper-data="{&quot;index&quot;:null}" fill="#000000" stroke="none" stroke-width="0" stroke-linecap="butt"><path d="M274.48346,174.67856c0,0 2.16981,-0.1866 3.67737,-0.12981c2.02392,0.07625 4.63639,0.21361 4.67981,1.33451c0.03724,0.96121 -2.03567,1.63552 -4.17879,1.97714c-1.64539,0.26229 -3.62099,0.66566 -3.62099,0.66566c0,0 -4.33123,-1.29889 -4.23423,-2.20371c0.097,-0.90482 3.67684,-1.6438 3.67684,-1.6438z"/><path d="M256.86179,176.68277l0.41454,-3.86682l19.32675,2.07191c0,0 0.65361,3.33215 -1.11621,3.62691c-1.38823,0.23121 -18.62507,-1.832 -18.62507,-1.832z"/></g></g></g></svg>