<svg version="1.1" xmlns="http://www.w3.org/2000/svg" xmlns:xlink="http://www.w3.org/1999/xlink" width="279.16658" height="251.93859" viewBox="0,0,279.16658,251.93859"><defs><linearGradient x1="192.1971" y1="209.58962" x2="458.13865" y2="209.58962" gradientUnits="userSpaceOnUse" id="color-1"><stop offset="0" stop-color="#8a833c"/><stop offset="1" stop-color="#81782d"/></linearGradient><linearGradient x1="294.19757" y1="210.83355" x2="332.01051" y2="216.59935" gradientUnits="userSpaceOnUse" id="color-2"><stop offset="0" stop-color="#7f772e"/><stop offset="1" stop-color="#8b843d"/></linearGradient><linearGradient x1="256.00783" y1="269.64682" x2="304.47279" y2="269.64682" gradientUnits="userSpaceOnUse" id="color-3"><stop offset="0" stop-color="#7f772e"/><stop offset="1" stop-color="#8b843d"/></linearGradient><linearGradient x1="250.21572" y1="241.29983" x2="312.65822" y2="241.29983" gradientUnits="userSpaceOnUse" id="color-4"><stop offset="0" stop-color="#7f772e"/><stop offset="1" stop-color="#8b843d"/></linearGradient><radialGradient cx="296.63696" cy="252.27483" r="32.71582" gradientUnits="userSpaceOnUse" id="color-5"><stop offset="0" stop-color="#8b843d"/><stop offset="1" stop-color="#7f772e"/></radialGradient></defs><g transform="translate(-179.70913,-45.84015)"><g stroke-miterlimit="10"><g stroke="#000000" stroke-width="1.5" stroke-linecap="round"><path d="M384.10418,129.00333c0,0 3.42585,2.15127 5.88046,1.12067c0.60581,-0.25435 6.27731,-5.77413 6.99058,-6.06679c1.63672,-0.67155 -1.56432,6.54588 0.3815,6.01513c1.0242,-0.27936 1.4552,0.7257 2.6176,0.41704c1.17431,-0.31184 -4.25986,4.93024 -2.95682,4.6136c0.36857,-0.08956 4.76319,0.69463 6.9394,2.57982c2.47998,2.14835 2.77719,5.43303 3.24491,5.31583c1.67615,-0.41998 2.70912,-2.98289 4.42442,-3.66253c0.817,-0.32371 5.31414,1.96437 6.14272,1.63164c1.12358,-0.45116 1.88974,-2.55525 2.95236,-3.04663c3.45578,-1.59804 3.30455,3.85437 6.82261,3.75941c1.00934,-0.02724 0.84067,-2.9836 1.60177,-2.92861c1.26523,0.09142 -0.12536,5.17177 1.94396,4.41908c9.57329,-3.48213 6.25434,1.36227 7.78859,2.35819c1.24556,0.80855 6.06579,-1.59014 7.04735,0.16049c0.74057,1.3208 3.03442,9.01398 3.03717,13.77925c0.00132,2.28936 1.58239,5.16295 1.42681,7.88979c-0.12151,2.12961 0.36897,4.36652 0.14952,6.67522c-0.36899,3.88209 -6.50297,7.65976 -5.79368,11.75841c0.68314,3.94741 -1.15334,8.16801 -0.37918,11.39271c1.36212,5.67369 3.29402,9.45346 4.36226,13.09855c1.11091,3.7907 -5.75841,15.98785 -4.50191,18.47012c4.65186,9.18992 3.38699,16.2319 6.37113,23.42156c0.7008,1.68843 7.00018,3.07549 7.52803,4.85456c0.42144,1.42035 -9.58646,3.81943 -15.23183,3.63099c-5.16677,-0.17246 -3.08586,-6.21374 -7.82033,-5.04629c-5.6002,1.38093 -9.90823,11.88621 -9.52819,13.16632c2.02211,6.81135 1.0026,12.77061 2.11062,15.8956c1.4712,4.14929 7.154,6.1397 10.91286,7.0206c2.01691,0.47266 6.40354,1.41831 4.34862,1.69131c-5.33649,0.70896 -19.89081,1.32626 -26.79742,1.20711c-2.34895,-0.04053 -8.77627,1.02636 -11.55783,0.3398c-3.79796,-0.93743 -3.97422,-3.72817 -6.91631,-4.03969c-6.24881,-0.66166 -9.74687,1.15303 -16.49033,0.66652c-4.73377,-0.34152 -9.31319,1.28871 -14.44072,1.34461c-2.7975,0.03049 -6.69639,-1.55804 -8.7051,-1.53355c-4.5787,0.05583 -9.70245,1.11471 -10.62572,1.21684c-5.22157,0.57759 -14.28119,0.50301 -23.41641,0.60479c-2.51015,0.02796 -8.4339,0.3417 -11.06802,0.27453c-3.28731,-0.08384 -5.93764,4.03906 -13.6877,-1.73984c-2.24786,-1.67613 -3.43939,-0.2639 -5.66852,0.33733c-1.72749,0.46592 -4.47829,0.05224 -6.29069,-0.17555c-5.37423,-0.67545 -8.91742,-1.23018 -13.39373,-2.02826c-2.97878,-0.53109 -6.74292,-1.35245 -10.37752,-1.72311c-4.18944,-0.42725 -9.32499,-0.4533 -13.36363,-0.67623c-2.66092,-0.14687 -7.91302,-0.29964 -10.39283,-0.45839c-0.91171,-0.05836 -5.1479,1.19222 -6.02827,1.13098c-1.15072,-0.08004 -8.28055,-2.78132 -9.36427,-2.86233c-1.6402,-0.12263 -2.86722,-4.49809 -4.33991,-4.60834c-3.53476,-0.2646 -5.23664,-0.49162 -7.65399,-0.67172c-1.7717,-0.132 -3.21019,-0.89144 -4.26692,-0.96395c-2.11832,-0.14537 -5.85706,0.68939 -9.60749,0.87483c-2.92926,0.14484 -6.25639,-0.36193 -6.25639,-0.36193c0,0 -0.31134,-2.49739 2.42621,-3.43761c3.16037,-1.08545 -1.79359,-1.25954 3.4061,-3.0395c1.3886,-0.47535 2.26693,-4.58789 3.92168,-5.12576c1.05669,-0.34348 5.5017,1.29078 6.64228,0.96904c1.69102,-0.47701 4.09599,-4.90674 5.4366,-3.76307c2.91686,2.48838 7.07797,-3.87894 10.12047,-4.49158c6.92076,-1.39356 12.23572,-1.72733 13.72225,-4.73728c0.25538,-0.51709 -8.56356,-4.66696 -14.94625,-9.68178c-3.83698,-3.0147 -4.39875,-5.05559 -5.99623,-7.2441c-0.97446,-1.335 -3.80214,-3.54771 -3.72485,-3.67708c0.57027,-0.95461 3.87074,-2.71365 6.18239,-4.59604c4.28469,-3.48908 8.4258,-7.40201 8.4258,-7.40201c0,0 -2.60343,-1.49398 -3.94294,-2.26264c-1.65113,-0.94748 1.33531,-1.91351 2.93507,-2.94228c1.85528,-1.19309 4.15965,-2.70697 5.43602,-3.66645c2.26027,-1.69909 5.62128,-4.97877 5.62128,-4.97877c0,0 -11.51317,-14.5794 -17.60557,-18.89292c-1.64858,-1.16723 -3.69639,0.07201 -3.67683,0.05262c0.81479,-0.80835 1.58211,-2.60289 3.06551,-4.60158c0.93137,-1.25491 2.54965,-2.78874 3.37736,-3.59056c3.07743,-2.98125 8.18944,-6.43529 10.62563,-9.46776c1.75754,-2.18773 0.12918,-5.87175 1.79004,-7.78972c5.80074,-6.69876 -0.16281,4.97257 5.08589,1.23738c1.65314,-1.17643 0.52405,-6.98357 3.73385,-10.38405c3.56617,-3.77804 3.05919,4.12029 7.30228,1.36756c1.77217,-1.14971 1.47669,-6.36313 4.16739,-10.06547c1.44251,-1.98485 2.42703,-0.57937 4.31396,-1.64129c1.59736,-0.89894 4.21999,-4.40158 4.40064,-4.5876c2.74884,-2.83055 -0.41325,3.8443 2.39715,4.8341c1.18428,0.4171 2.08761,-3.88117 3.35548,-3.11088c1.23194,0.74846 -0.50903,3.33795 0.76709,4.44013c1.44458,1.24767 4.96368,1.01984 6.50347,2.52471c1.41932,1.38713 -1.52474,7.8035 -0.17305,9.35817c1.03147,1.18634 2.11008,0.6816 3.20602,1.75536c1.13657,1.11356 0.95595,6.13386 2.09654,7.1794c2.12264,1.94574 0.3439,3.60637 2.35696,4.51817c2.09935,0.95087 4.07589,-1.33426 4.17948,-4.17353c0.13551,-3.71417 -1.7464,-8.37657 1.25186,-7.98402c3.04004,0.39803 5.50791,13.77814 5.50791,13.77814c0,0 0.17761,-10.25586 3.78696,-11.52373c1.6191,-0.56875 4.42662,-0.88007 6.39643,-1.55901c4.39396,-1.51449 -3.41284,-3.33514 2.08689,-5.005c1.3829,-0.41987 2.83988,-9.73829 4.9204,-7.12043c0.64011,0.80542 -0.59854,3.18743 2.06258,3.80601c2.2274,0.51776 2.70661,-5.86473 5.82928,-5.87366c1.96111,-0.0056 2.70488,4.65888 4.94892,5.88141c3.14305,1.71229 7.62332,0.13799 8.39223,-0.00254c2.53107,-0.46256 5.07585,-1.84903 7.58702,-3.5059c4.79933,-3.1666 9.47587,-7.32094 13.69914,-7.90117c1.8781,-0.25803 2.40464,1.7888 4.07319,3.33007c0.83909,0.77507 1.84221,-0.48206 2.81655,0.05237c1.46528,0.80372 2.86544,3.17954 3.5445,2.83139c2.90036,-1.48694 4.68034,-4.05547 6.74345,-5.65042c3.03565,-2.34679 0.64012,-0.99613 2.32706,-2.94708c1.49633,-1.7305 3.50565,-2.0129 5.24489,-3.94204c2.06054,-2.28554 3.74195,-6.08916 3.74195,-6.08916zM301.91632,178.25104c-2.41149,1.79466 12.3952,2.01534 12.3952,5.21357c0,4.2824 -13.57183,10.54577 -9.6758,11.89239c0.32536,0.11246 0.65844,0.20892 0.9982,0.28838c0.00386,0.00271 0.0074,0.00539 0.0106,0.00809c1.37251,1.15523 2.71633,1.63422 4.18659,2.94194c4.94452,4.39791 6.6686,10.62441 11.52074,14.95132c2.06242,1.83918 5.02989,2.3999 7.51931,3.29918c1.21118,0.43753 1.83908,1.88478 2.49954,2.59748c0.65677,0.70868 -1.38909,-11.20129 0.47598,-12.70052c2.90596,-2.33591 10.06179,5.16823 11.34554,6.21863c1.30847,1.07062 3.03715,6.43451 3.98938,4.40592c3.78177,-8.05659 4.43923,4.63733 5.47962,2.59626c0.621,-1.21831 -0.34258,-2.72232 -0.23108,-4.08003c0.0404,-0.49186 0.70282,-0.8314 0.67492,-1.32409c-0.08655,-1.52821 -0.3825,-3.08091 -1.0039,-4.48485c-0.31581,-0.71351 -1.56617,-6.00155 -4.86663,-11.4599c-2.28571,-3.78016 -6.42363,-7.30103 -8.33538,-10.84539c-2.38048,-4.41338 -2.41474,-7.8473 -3.2141,-8.31777c-2.31264,-1.36111 -10.66842,-0.1953 -13.85645,-1.49712c-5.57317,-2.27575 -6.33974,-6.70429 -10.1863,-6.72491c-4.66478,-0.02502 -3.70214,3.50677 -8.68546,6.25647c-0.38816,0.21418 -0.73206,0.47208 -1.0405,0.76498zM261.38273,176.67587c-2.01945,-0.49524 -2.20229,1.64609 -3.66589,2.81897c-0.97661,0.78263 -2.469,-0.77803 -3.55902,-0.01283c-0.94728,0.66499 -1.54167,3.61577 -1.84429,4.75454c-0.36116,1.35903 -3.77969,0.24173 -2.80198,2.15985c0.78002,1.5303 3.04258,3.7536 4.88243,3.99769c0.89758,0.11908 1.93251,0.42396 2.83162,0.21366c0.41519,-0.09711 0.93703,-0.70929 1.21629,-0.39266c1.00858,1.14354 2.50261,-0.25525 3.39662,1.40792c1.38975,2.58541 1.86372,0.17128 6.17117,-2.64557c1.54017,-1.00721 2.72159,4.57393 3.08462,2.79341c0.24941,-1.22326 -2.56984,-6.62584 -2.95731,-8.03031c-1.41116,-5.11488 -3.56079,-4.44994 -6.51135,-7.08111z" fill="url(#color-1)"/><path d="M381.87637,240.76747c0,0 1.30031,-0.6298 2.15847,-0.4895c0.3743,0.0612 0.93824,0.36368 1.54721,0.4092c0.73589,0.05501 1.53756,-0.13594 2.14986,0.10055c0.59737,0.23071 1.0145,1.10292 1.0145,1.10292" fill="none"/><path d="M435.97807,176.04479c0,0 0.41714,-0.87222 1.01451,-1.10292c0.6123,-0.23647 1.41396,-0.04552 2.14985,-0.10055c0.60897,-0.04551 1.17291,-0.34799 1.54721,-0.40918c0.85816,-0.1403 2.15849,0.48949 2.15849,0.48949" fill="none"/><path d="M348.31325,187.2063c0,0 1.30034,-0.62978 2.1585,-0.48949c0.3743,0.06119 0.93824,0.36368 1.54721,0.40919c0.73589,0.05501 1.53755,-0.13594 2.14985,0.10055c0.59737,0.23071 1.0145,1.10292 1.0145,1.10292" fill="none"/><path d="M278.68234,203.07109c0,0 0.41714,-0.87223 1.01451,-1.10294c0.6123,-0.23647 1.41396,-0.04552 2.14985,-0.10055c0.60897,-0.04551 1.17291,-0.34799 1.54722,-0.40919c0.85816,-0.1403 2.15848,0.4895 2.15848,0.4895" fill="none"/><path d="M259.14561,165.0939c0,0 1.30034,-0.62978 2.1585,-0.48949c0.3743,0.06119 0.93823,0.36366 1.54721,0.40918c0.73589,0.05501 1.53755,-0.13594 2.14986,0.10055c0.59737,0.23071 1.0145,1.10294 1.0145,1.10294" fill="none"/><path d="M212.05707,272.21624c0,0 1.30034,-0.6298 2.15851,-0.48949c0.3743,0.0612 0.93824,0.36367 1.54721,0.40919c0.73589,0.05502 1.53755,-0.13595 2.14985,0.10054c0.59736,0.23071 1.01448,1.10294 1.01448,1.10294" fill="none"/></g><path d="M246.91667,248.08334v-110.66667h154v110.66667z" fill-opacity="0.01" fill="#000000" stroke="none" stroke-width="0" stroke-linecap="butt"/><path d="" fill="#000000" stroke="none" stroke-width="1" stroke-linecap="butt"/><path d="" fill="#000000" stroke="#000000" stroke-width="0.3" stroke-linecap="butt"/><path d="" fill="#000000" stroke="#000000" stroke-width="0.3" stroke-linecap="butt"/><path d="" fill="#000000" stroke="#000000" stroke-width="0.3" stroke-linecap="butt"/><path d="M249.63841,230.48827c0,0 -9.28013,-14.7457 -14.37048,-22.03033c-4.84393,-6.93197 -18.34269,-19.62151 -18.34269,-19.62151l5.29044,0.69531c0,0 9.74754,11.66985 14.41783,18.23107c4.66984,6.56059 14.63994,19.95279 14.63994,19.95279z" fill="#000000" stroke="none" stroke-width="0" stroke-linecap="butt"/><path d="M390.28971,260.73327c1.01362,-0.80392 2.08321,-1.70466 3.12308,-2.67109c7.25991,-6.74722 36.09834,-29.89109 36.09834,-29.89109l-5.1236,-27.12572l2.6378,-1.63234l4.68201,29.39605c0,0 -32.80897,26.84573 -39.05842,33.64959z" fill="#000000" stroke="none" stroke-width="0" stroke-linecap="butt"/><g fill="#000000" stroke="#000000" stroke-width="0.5" stroke-linecap="butt"><path d="M315.24035,188.73104l-40.29995,-111.7448l1.99952,-0.43726l40.29996,111.74481z"/><path d="M364.73777,60.37932c-6.94712,5.82214 -122.53733,102.69429 -122.53733,102.69429l-1.13992,-1.49034c0,0 116.22801,-97.87202 122.91361,-103.50177z"/><path d="M365.04612,75.4142l-4.07755,-29.10954l1.15531,-0.17869l4.07755,29.10954z"/><path d="M362.58997,75.81646l-4.07754,-29.10954l1.15532,-0.1787l4.07755,29.10954z"/><path d="M358.47372,87.57103l-0.69593,-3.18233c0,0 1.02214,-0.19931 0.99106,-1.09449c-0.08348,-2.40364 -1.19279,-7.60636 -0.4399,-10.67728c1.17256,-4.78264 9.94103,-4.98896 12.47248,-0.81437c1.1324,1.86745 0.69156,6.18452 1.42205,8.72641c0.6162,2.14415 2.12653,2.001 2.12653,2.001l-0.94095,2.16725c0,0 -1.629,-1.47352 -2.02944,-4.42952c-0.33126,-2.44535 -0.67779,-5.83665 -2.2872,-7.59818c-1.4035,-1.53615 -2.75416,-2.74396 -5.12609,-2.28571c-1.86234,0.3598 -3.01426,1.16784 -3.8826,2.81371c-1.6172,3.0653 -0.26488,8.56441 -0.20876,11.74344c0.03592,2.03461 -1.4013,2.63013 -1.4013,2.63013z"/><path d="M362.01347,89.98818c-0.54175,-4.13039 -1.50123,-11.50313 -1.74576,-13.36761c-0.27598,-2.10424 2.56657,-2.7158 4.90242,-2.97963c1.8679,-0.211 3.88881,0.01876 4.1095,1.7014c0.25935,1.97733 1.48522,11.32389 1.96789,15.00399c0.10213,0.77869 0.24457,1.48035 -0.51731,1.88701c-1.01088,0.53956 -2.8547,1.45699 -3.91273,1.57649c-1.03303,0.11668 -3.2151,0.45 -4.20864,-0.76041c-0.31859,-0.38812 -0.59539,-3.06125 -0.59539,-3.06125z"/></g><path d="" fill="#000000" stroke="#000000" stroke-width="0.3" stroke-linecap="butt"/><path d="" fill="#000000" stroke="#000000" stroke-width="0.3" stroke-linecap="butt"/><path d="" fill="#000000" stroke="#000000" stroke-width="0.3" stroke-linecap="butt"/><path d="" fill="#000000" stroke="#000000" stroke-width="0.3" stroke-linecap="butt"/><path d="" fill="#000000" stroke="#000000" stroke-width="0.3" stroke-linecap="butt"/><path d="" fill="#000000" stroke="#000000" stroke-width="0.3" stroke-linecap="butt"/><path d="" fill="#000000" stroke="#000000" stroke-width="0.3" stroke-linecap="butt"/><path d="" fill="#000000" stroke="#000000" stroke-width="0.3" stroke-linecap="butt"/><path d="" fill="#000000" stroke="#000000" stroke-width="0.3" stroke-linecap="butt"/><path d="" fill="#000000" stroke="#000000" stroke-width="0.3" stroke-linecap="butt"/><path d="" fill="#000000" stroke="#000000" stroke-width="0.3" stroke-linecap="butt"/><path d="" fill="#000000" stroke="#000000" stroke-width="0.3" stroke-linecap="butt"/><path d="" fill="#000000" stroke="#000000" stroke-width="0.3" stroke-linecap="butt"/><path d="" fill="#000000" stroke="#000000" stroke-width="0.3" stroke-linecap="butt"/><path d="" fill="#000000" stroke="#000000" stroke-width="0.3" stroke-linecap="butt"/><path d="" fill="#000000" stroke="#000000" stroke-width="0.3" stroke-linecap="butt"/><path d="" fill="#000000" stroke="#000000" stroke-width="0.3" stroke-linecap="butt"/><path d="" fill="#000000" stroke="#000000" stroke-width="0.3" stroke-linecap="butt"/><path d="" fill="#000000" stroke="#000000" stroke-width="0.3" stroke-linecap="butt"/><path d="" fill="#000000" stroke="#000000" stroke-width="0.3" stroke-linecap="butt"/><g><path d="M420.18149,203.75205c0,0 -11.30196,1.63653 -17.14662,2.32598c-6.7778,0.79952 -17.38365,-0.09418 -17.38365,-0.09418c0,0 0.7436,-1.15195 3.7843,-2.98055c2.31269,-1.3908 7.37737,-3.79647 10.2353,-5.43804c1.74904,-1.00463 1.56514,-2.55437 2.57127,-4.63058c1.26823,-2.61709 4.59899,-6.26152 9.33855,-8.96677c1.91076,-1.09063 3.62136,-1.55572 5.73007,-1.90235c2.29683,-0.37756 4.46084,-0.63014 6.78964,-0.1217c5.00379,1.0925 7.86435,4.59754 9.78894,6.57001c1.58822,1.62773 2.7914,1.99465 4.75534,2.35742c3.20907,0.59278 8.02751,1.49311 10.64344,2.0319c3.4394,0.70838 3.30685,1.61894 3.30685,1.61894c0,0 -8.16807,3.98987 -14.83199,5.51401c-5.74646,1.31429 -16.65087,3.59845 -16.65087,3.59845z" fill="#eced68" stroke="none" stroke-width="0" stroke-linecap="round"/><path d="M420.18149,203.75205c0,0 -11.1078,1.65375 -16.95246,2.34321c-6.7778,0.79952 -16.77171,-0.68659 -16.77171,-0.68659c0,0 0.71413,-0.50787 3.75483,-2.33646c1.35242,-0.81331 3.38036,-1.99723 5.40279,-3.16847c1.436,-0.83163 4.05588,-2.33845 4.05588,-2.33845c0,0 -0.16388,4.43899 6.42223,4.87086c3.40439,0.22324 12.57518,-0.68976 20.22976,-1.35073c6.95672,-0.60071 12.49349,-1.7381 12.49349,-1.7381l-17.70427,4.28729z" fill="#8f8621" stroke="none" stroke-width="0" stroke-linecap="round"/><path d="M429.51639,194.31741c0.04944,0.37988 -4.18606,2.37216 -8.97567,3.45363c-0.7108,0.16049 -1.43383,0.30093 -2.15686,0.41305c-3.08064,0.47774 -9.35178,0.90455 -12.91438,0.69024c-3.87809,-0.2333 -4.92595,-1.13235 -4.92595,-1.13235l3.20318,-6.49935c0,0 0.24029,4.89184 5.20335,5.81671c6.24018,1.16287 20.50395,-3.22114 20.56631,-2.74194z" fill="#8f8621" stroke="none" stroke-width="0" stroke-linecap="butt"/><path d="M434.49625,191.08751c0,0 0.29713,2.87165 -12.89928,6.15514c-10.53201,2.62055 -19.08054,1.23537 -19.08054,1.23537" fill="none" stroke="#524d14" stroke-width="0.75" stroke-linecap="round"/><path d="M420.18149,203.75205c0,0 -11.29229,2.0273 -16.84889,2.34288c-6.03938,0.34301 -18.05987,-0.36023 -18.05987,-0.36023c0,0 4.29521,-3.11408 6.88223,-4.54058c2.40941,-1.32855 8.14502,-3.7455 8.14502,-3.7455c0,0 3.68619,-13.43611 17.01073,-15.38307c7.90384,-1.15489 12.11949,0.75722 17.22345,5.98816c1.58822,1.62773 4.11046,2.81757 4.11046,2.81757c0,0 7.12094,1.04579 9.74023,1.66369c2.32169,0.5477 5.19066,1.85858 5.19066,1.85858c0,0 -11.65805,4.3223 -17.44509,5.96963c-4.87804,1.38858 -15.01838,3.2714 -15.01838,3.2714z" fill="none" stroke="#000000" stroke-width="1.5" stroke-linecap="round"/></g><g><path d="M218.39672,193.42545c0,0 -11.60058,-1.28187 -17.5447,-2.02777c-6.89314,-0.86498 -16.92789,-3.35334 -16.92789,-3.35334c0,0 1.12919,-0.4682 4.73673,-0.85789c2.74382,-0.29639 8.52833,-0.60679 11.89202,-0.93225c2.05855,-0.19918 2.4222,-1.05411 4.13142,-1.96146c2.15448,-1.14372 6.68135,-2.43906 12.25363,-2.96975c2.24647,-0.21394 4.07845,-0.13496 6.25735,0.08236c2.37327,0.23671 4.57317,0.5143 6.66716,1.22589c4.49926,1.52895 6.062,3.92711 7.24858,5.33651c0.97919,1.16307 2.02454,1.58586 3.81359,2.15102c2.92331,0.92348 7.30906,2.31553 9.67257,3.09773c3.10753,1.02842 2.65911,1.48502 2.65911,1.48502c0,0 -9.36759,0.55886 -16.40355,0.09892c-6.06727,-0.39663 -17.50692,-1.26028 -17.50692,-1.26028z" fill="#eced68" stroke="none" stroke-width="0" stroke-linecap="round"/><path d="M218.39672,193.42545c0,0 -11.41719,-1.23586 -17.36131,-1.98176c-6.89314,-0.86498 -16.12323,-3.5505 -16.12323,-3.5505c0,0 0.87474,-0.13301 4.48228,-0.5227c1.60454,-0.17332 3.99804,-0.41437 6.38172,-0.64975c1.6925,-0.16713 4.7767,-0.46654 4.7767,-0.46654c0,0 -1.71544,2.31758 4.55917,3.79768c3.24336,0.76507 12.51108,2.02478 20.21111,3.12969c6.99804,1.00418 12.79874,1.45456 12.79874,1.45456l-18.77609,-1.09598z" fill="#8f8621" stroke="none" stroke-width="0" stroke-linecap="round"/><path d="M230.81072,190.20744c-0.08488,0.21039 -4.91552,0.45964 -9.96762,0.12166c-0.74977,-0.05016 -1.50442,-0.11326 -2.24915,-0.19133c-3.17313,-0.33265 -9.44133,-1.29857 -12.84219,-2.08899c-3.70203,-0.86041 -4.40936,-1.53524 -4.40936,-1.53524l5.40283,-2.83016c0,0 -1.47977,2.63398 3.03849,4.06651c5.68092,1.80114 21.13407,2.19214 21.027,2.45755z" fill="#8f8621" stroke="none" stroke-width="0" stroke-linecap="butt"/><path d="M236.80132,189.44482c0,0 -0.71639,1.57589 -14.74249,0.80543c-11.19419,-0.6149 -19.04943,-2.97234 -19.04943,-2.97234" fill="none" stroke="#524d14" stroke-width="0.75" stroke-linecap="round"/><path d="M218.39672,193.42545c0,0 -11.72809,-1.07327 -17.26014,-1.96224c-6.01271,-0.96621 -17.49443,-3.62262 -17.49443,-3.62262c0,0 5.282,-0.83145 8.306,-1.0946c2.81637,-0.24508 9.25946,-0.43394 9.25946,-0.43394c0,0 8.30491,-6.40868 21.98767,-4.9067c8.11633,0.89094 11.55941,2.70379 14.70619,6.44147c0.97919,1.16307 3.02314,2.27194 3.02314,2.27194c0,0 6.5813,1.90658 8.92036,2.73127c2.07331,0.731 4.41312,1.9698 4.41312,1.9698c0,0 -12.88918,0.07152 -19.11275,-0.1566c-5.246,-0.19229 -15.79953,-1.12309 -15.79953,-1.12309z" fill="none" stroke="#000000" stroke-width="1.5" stroke-linecap="round"/></g><path d="M221.90107,180.96721c0,0 0.40474,-1.84831 0.47946,-2.86398c0.09839,-1.33733 0.05968,-4.46389 0.05968,-4.46389l2.14516,0.2751c0,0 -0.56619,2.69216 -0.90263,3.94591c-0.29458,1.09778 -0.5894,3.15031 -0.5894,3.15031z" fill="#000000" stroke="#000000" stroke-width="0.5" stroke-linecap="butt"/><path d="M416.85363,182.01351c0,0 0.3276,-1.48425 0.21366,-2.58085c-0.15003,-1.44391 -0.83437,-4.80236 -0.83437,-4.80236l2.71855,0.15793c0,0 -0.15488,2.93036 -0.31732,4.29971c-0.14223,1.199 -0.05846,3.24625 -0.05846,3.24625z" fill="#000000" stroke="#000000" stroke-width="1.5" stroke-linecap="butt"/><path d="M242.36964,272.88793c-5.24651,-6.13148 -17.4371,-20.17133 -17.4371,-20.17133l1.34343,-15.30357l2.05682,0.38576l-1.44422,14.38576c0,0 12.19003,15.60183 16.69581,19.23492c2.18797,1.7642 -1.21473,1.46846 -1.21473,1.46846z" fill="#000000" stroke="none" stroke-width="0" stroke-linecap="butt"/><g><g><path d="M225.79248,247.96159c0,0 -8.8079,-2.21858 -13.31503,-3.47524c-5.22674,-1.45727 -12.75278,-5.23247 -12.75278,-5.23247c0,0 0.89731,-0.58187 3.68949,-0.95259c2.12368,-0.28196 6.57962,-0.45332 9.18051,-0.748c1.59173,-0.18036 1.92814,-1.31515 3.29975,-2.46317c1.72891,-1.44709 5.28698,-2.99721 9.59505,-3.47399c1.7368,-0.19222 3.13607,-0.00794 4.79201,0.37722c1.80366,0.41952 3.47163,0.88667 5.02917,1.93323c3.3466,2.24869 4.38318,5.54184 5.19798,7.48864c0.67238,1.60655 1.44538,2.2199 2.77898,3.05648c2.1791,1.36696 5.44789,3.42662 7.20731,4.57967c2.31327,1.51599 1.9387,2.11124 1.9387,2.11124c0,0 -7.21985,0.35311 -12.58337,-0.56528c-4.6251,-0.79195 -13.33777,-2.441 -13.33777,-2.441z" fill="#eced68" stroke="none" stroke-width="0" stroke-linecap="round"/><path d="M225.79248,247.96159c0,0 -8.67037,-2.14888 -13.17752,-3.40552c-5.22674,-1.45727 -12.12257,-5.46349 -12.12257,-5.46349c0,0 0.67963,-0.14172 3.47181,-0.51244c1.24189,-0.16488 3.09324,-0.3873 4.93668,-0.60251c1.30892,-0.1528 3.69377,-0.42433 3.69377,-0.42433c0,0 -1.47139,3.04517 3.23967,5.30373c2.43516,1.16745 9.45592,3.25689 15.28514,5.07133c5.29778,1.64902 9.71488,2.50195 9.71488,2.50195l-14.32192,-2.27397z" fill="#8f8621" stroke="none" stroke-width="0" stroke-linecap="round"/><path d="M235.52724,244.16041c-0.07925,0.27946 -3.79974,0.40915 -7.65045,-0.26068c-0.57147,-0.0994 -1.14581,-0.21642 -1.71154,-0.35318c-2.41045,-0.58265 -7.15125,-2.14912 -9.70546,-3.35738c-2.7804,-1.31527 -3.27724,-2.25333 -3.27724,-2.25333l4.33308,-3.57784c0,0 -1.31202,3.48092 2.05564,5.60068c4.23425,2.66522 16.05594,3.8492 15.95597,4.20173z" fill="#8f8621" stroke="none" stroke-width="0" stroke-linecap="butt"/><path d="M240.17167,243.38937c0,0 -0.65545,2.08978 -11.35745,0.45601c-8.54124,-1.3039 -14.40507,-4.81016 -14.40507,-4.81016" fill="none" stroke="#524d14" stroke-width="0.75" stroke-linecap="round"/><path d="M225.79248,247.96159c0,0 -8.9197,-1.94337 -13.10127,-3.37496c-4.54488,-1.55598 -13.16902,-5.61888 -13.16902,-5.61888c0,0 4.10577,-0.89381 6.44203,-1.11912c2.17584,-0.20984 7.12854,-0.18963 7.12854,-0.18963c0,0 6.79924,-8.26904 17.18871,-5.66564c6.16283,1.54427 8.68051,4.12997 10.84133,9.29283c0.67238,1.60655 2.16479,3.18552 2.16479,3.18552c0,0 4.91746,2.8454 6.65527,4.05459c1.54037,1.0718 3.25085,2.83816 3.25085,2.83816c0,0 -9.88705,-0.45251 -14.64334,-1.02439c-4.00919,-0.48206 -12.03793,-2.18372 -12.03793,-2.18372z" fill="none" stroke="#000000" stroke-width="1.5" stroke-linecap="round"/></g><path d="M229.54321,231.66162c0,0 0.51613,-1.03627 0.62123,-1.86452c0.13839,-1.09057 0.20007,-3.68614 0.20007,-3.68614l2.08154,0.5946c0,0 -0.6373,2.13244 -1.005,3.11308c-0.32195,0.85865 -0.61824,2.38222 -0.61824,2.38222z" fill="#000000" stroke="#000000" stroke-width="1.5" stroke-linecap="butt"/></g><g fill="#81782d" stroke="none" stroke-width="0.5" stroke-linecap="butt"><path d="M393.10975,257.32495c0.17166,-0.15284 0.33862,0.01412 0.33862,0.01412c0.2201,0.25309 0.30937,0.6707 0.19705,0.98674c-0.00685,0.01929 -0.01714,0.03934 -0.03024,0.05992c-0.02265,0.20583 -0.12866,0.40253 -0.33868,0.57629c0.41357,0.12237 0.60647,0.85521 0.32513,1.14812c-0.25016,0.26045 -1.43202,-0.07657 -1.08327,0.01719c0.76522,0.20572 0.67762,0.82284 0.3488,1.24809c0.25691,0.07781 0.53525,0.28616 0.79908,-0.03634c0.50061,-0.61193 1.81952,-2.3433 3.98503,-4.29012c2.90536,-2.61194 7.47746,-7.35453 7.47746,-7.35453c0,0 -6.3755,10.09841 -6.61259,11.23046c-0.46022,2.19741 -1.85573,2.99378 -3.95804,2.85131c-3.58538,-0.04287 -5.7844,-1.18067 -5.82223,-5.11629c-0.00002,-3.22967 3.12214,-2.56122 4.37387,-1.33495z"/><path d="M430.56822,218.67373c-0.32241,0.00917 -0.35597,0.25438 -0.28915,0.52659c0.01031,-0.05494 0.04333,-0.1128 0.12159,-0.15901c0.21527,-0.12712 0.34239,0.08816 0.34239,0.08816c0.01241,0.02211 0.02451,0.04389 0.03629,0.06532c0.08274,-0.17362 0.01573,-0.52751 -0.21112,-0.52106zM429.37937,213.97834c-1.41762,-2.7075 -1.95642,-5.22601 -1.95642,-5.22601c0,0 5.97491,9.81072 5.75511,10.24809l-0.14218,0.22007c0.43845,1.07689 -2.04898,-2.17193 -3.6565,-5.24215zM430.4879,219.67776c0.00059,-0.00282 0.00124,-0.00565 0.00193,-0.00846c-0.03112,-0.05172 -0.06797,-0.11175 -0.1112,-0.1808c0.03332,0.07747 0.06954,0.15098 0.10397,0.21531c0.0014,-0.00905 0.00322,-0.01776 0.0053,-0.02605z"/><path d="M414.55074,239.59249c-0.03395,-0.32074 -0.28102,-0.33533 -0.54728,-0.24777c0.05557,0.00606 0.1158,0.03451 0.1679,0.10899c0.1433,0.20486 -0.06155,0.34815 -0.06155,0.34815c-0.0211,0.01408 -0.04187,0.02782 -0.06233,0.04122c0.17947,0.06913 0.52715,-0.02491 0.50326,-0.25059zM418.48831,236.09026c2.59039,-1.62176 5.05998,-2.35276 5.05998,-2.35276c0,0 -9.32186,6.71213 -9.77486,6.52663l-0.23036,-0.12483c-1.03996,0.52002 2.00783,-2.21004 4.94524,-4.04905zM413.54349,239.58967c0.00286,0.00038 0.00573,0.0008 0.00859,0.00127c0.04917,-0.03501 0.10618,-0.07636 0.1717,-0.12478c-0.07468,0.03918 -0.14518,0.08095 -0.20667,0.12023c0.00914,0.0007 0.01797,0.00184 0.02639,0.00328z"/></g><path d="M248.33758,220.9245c-0.27761,0.1642 -0.18818,0.39499 0.00213,0.60075c-0.01759,-0.05306 -0.01674,-0.11967 0.02934,-0.19801c0.12675,-0.21549 0.34223,-0.08873 0.34223,-0.08873c0.02157,0.01333 0.04271,0.02652 0.0634,0.03956c-0.01173,-0.19196 -0.24178,-0.46911 -0.4371,-0.35357zM243.5155,218.799c-2.55176,-1.68188 -4.24316,-3.62415 -4.24316,-3.62415c0,0 9.97961,5.68834 9.99919,6.17745l-0.01778,0.26141c0.90525,0.7297 -2.84466,-0.9075 -5.73826,-2.8147zM248.75369,221.84177c-0.00085,-0.00276 -0.00165,-0.00554 -0.00241,-0.00834c-0.05228,-0.03017 -0.11359,-0.06483 -0.18487,-0.1043c0.06667,0.05163 0.13397,0.09839 0.19526,0.13799c-0.00315,-0.0086 -0.00579,-0.0171 -0.00798,-0.02535z" fill="#888139" stroke="none" stroke-width="0.5" stroke-linecap="butt"/><path d="M248.33758,220.9245c-0.27761,0.1642 -0.18818,0.39499 0.00213,0.60075c-0.01759,-0.05306 -0.01674,-0.11967 0.02934,-0.19801c0.12675,-0.21549 0.34223,-0.08873 0.34223,-0.08873c0.02157,0.01333 0.04271,0.02652 0.0634,0.03956c-0.01173,-0.19196 -0.24178,-0.46911 -0.4371,-0.35357zM243.5155,218.799c-2.55176,-1.68188 -4.24316,-3.62415 -4.24316,-3.62415c0,0 9.97961,5.68834 9.99919,6.17745l-0.01778,0.26141c0.90525,0.7297 -2.84466,-0.9075 -5.73826,-2.8147zM248.75369,221.84177c-0.00085,-0.00276 -0.00165,-0.00554 -0.00241,-0.00834c-0.05228,-0.03017 -0.11359,-0.06483 -0.18487,-0.1043c0.06667,0.05163 0.13397,0.09839 0.19526,0.13799c-0.00315,-0.0086 -0.00579,-0.0171 -0.00798,-0.02535z" fill="#888139" stroke="none" stroke-width="0.5" stroke-linecap="butt"/><path d="M248.33758,220.9245c-0.27761,0.1642 -0.18818,0.39499 0.00213,0.60075c-0.01759,-0.05306 -0.01674,-0.11967 0.02934,-0.19801c0.12675,-0.21549 0.34223,-0.08873 0.34223,-0.08873c0.02157,0.01333 0.04271,0.02652 0.0634,0.03956c-0.01173,-0.19196 -0.24178,-0.46911 -0.4371,-0.35357zM243.5155,218.799c-2.55176,-1.68188 -4.24316,-3.62415 -4.24316,-3.62415c0,0 9.97961,5.68834 9.99919,6.17745l-0.01778,0.26141c0.90525,0.7297 -2.84466,-0.9075 -5.73826,-2.8147zM248.75369,221.84177c-0.00085,-0.00276 -0.00165,-0.00554 -0.00241,-0.00834c-0.05228,-0.03017 -0.11359,-0.06483 -0.18487,-0.1043c0.06667,0.05163 0.13397,0.09839 0.19526,0.13799c-0.00315,-0.0086 -0.00579,-0.0171 -0.00798,-0.02535z" fill="#888139" stroke="none" stroke-width="0.5" stroke-linecap="butt"/><path d="M247.68635,227.94156c-0.38551,-0.19205 -0.50674,-0.09326 -0.51788,0.07983c0.03048,-0.02043 0.08886,-0.02845 0.19704,-0.00322c0.29758,0.06939 0.37688,0.25155 0.37688,0.25155c0.00738,0.01832 0.01451,0.03628 0.02137,0.05388c0.1558,-0.034 0.19383,-0.24692 -0.07741,-0.38205zM245.29673,223.95792c-0.78258,-2.18059 -0.58541,-3.73363 -0.58541,-3.73363c0,0 3.82996,8.41225 3.42397,8.49096l-0.24175,0.02035c0.16252,0.79089 -1.7094,-2.30497 -2.59681,-4.77767zM247.25769,228.38083c0.00164,-0.00101 0.00335,-0.00198 0.0051,-0.00293c-0.01975,-0.04412 -0.04353,-0.09576 -0.07188,-0.15569c0.0138,0.05797 0.03236,0.11579 0.05185,0.16807c0.00468,-0.00354 0.00971,-0.00668 0.01493,-0.00944z" fill="#888139" stroke="none" stroke-width="0.5" stroke-linecap="butt"/><path d="M391.11842,257.38954c0.37435,-0.09932 0.76758,-0.15224 1.17317,-0.15224c0.56367,0 1.58924,0.81175 1.54547,1.88954c-0.03171,0.78082 -1.27799,1.82004 -0.52545,2.22009c1.13343,0.60251 2.83339,-0.44668 4.47066,-0.1757c0.2682,0.04439 1.66253,1.34734 2.1322,1.61168c0.97769,0.55024 3.60314,-0.48444 5.57986,0.47317c1.97672,0.95761 3.50149,3.82368 3.88712,4.11309" fill="none" stroke="#000000" stroke-width="1.5" stroke-linecap="butt"/><path d="M228.05866,274.93267c0.21643,-0.15972 0.46627,-0.30728 0.74786,-0.438c0.39134,-0.18165 1.45861,-0.1927 1.8999,0.24558c0.3197,0.31751 -0.09076,1.12815 0.60679,1.04307c1.05059,-0.12815 1.77164,-1.08891 3.02693,-1.50991c0.20563,-0.06896 1.74388,-0.00553 2.18564,-0.05286c0.91958,-0.09853 2.28953,-1.35185 4.08098,-1.61201c1.79145,-0.26016 4.10434,0.3764 4.49873,0.36602" fill="none" stroke="#000000" stroke-width="1.5" stroke-linecap="butt"/><g stroke="none" stroke-linecap="butt"><path d="M348.17006,234.24732c0.54507,-1.16343 1.0967,-2.43766 1.59231,-3.75701c3.4601,-9.21113 7.31152,-22.8005 9.2501,-31.68026c3.10637,-14.22891 4.23431,-46.51574 4.23431,-46.51574l5.55812,0.4992c0,0 -1.90852,5.99797 -3.25684,14.38698c-1.62616,10.1176 -2.87608,23.51368 -4.73364,31.44333c-2.36853,10.1108 -7.23032,27.29537 -9.76209,36.10843z" fill="#000000" stroke-width="0"/><path d="M347.5782,229.75235c0.10737,-0.20149 0.32214,-0.1038 0.32214,-0.1038c0.29467,0.15948 0.52431,0.5172 0.52959,0.85004c0.00032,0.02031 -0.00231,0.04252 -0.00737,0.0662c0.05074,0.19933 0.02022,0.41896 -0.11577,0.65316c0.43021,-0.02896 0.86713,0.58628 0.706,0.95598c-0.14328,0.32873 -1.36823,0.42329 -1.00876,0.39009c0.78876,-0.07286 0.92247,0.53158 0.76313,1.04081c0.26787,-0.01632 0.60144,0.08142 0.73583,-0.30977c0.25501,-0.74226 0.88517,-2.80866 2.23305,-5.3679c1.80841,-3.4336 4.4332,-9.42523 4.4332,-9.42523c0,0 -2.44154,11.59769 -2.26784,12.73288c0.33718,2.20349 -0.69165,3.42639 -2.71083,4.01986c-3.37366,1.1983 -5.83145,0.89905 -7.24294,-2.74974c-1.12924,-3.00501 2.02921,-3.46127 3.63055,-2.75258z" fill="#81782d" stroke-width="0.5"/><path d="M356.86387,207.0999c-0.22646,-0.22832 -0.42872,-0.08717 -0.58232,0.14522c0.04722,-0.02959 0.11205,-0.04464 0.19919,-0.01892c0.23971,0.07076 0.16886,0.30856 0.16886,0.30856c-0.00772,0.02396 -0.0154,0.04747 -0.02305,0.07051c0.18341,-0.05704 0.39664,-0.34473 0.23731,-0.50539zM357.75973,201.94768c1.01456,-2.85925 2.48983,-4.95164 2.48983,-4.95164c0,0 -3.10502,10.97021 -3.5748,11.10564l-0.25791,0.04517c-0.48899,1.04603 0.19242,-2.95688 1.34288,-6.19917zM356.07458,207.71938c0.00247,-0.00148 0.00498,-0.00292 0.00751,-0.00431c0.01662,-0.05756 0.03542,-0.12489 0.05648,-0.20296c-0.03397,0.07654 -0.06306,0.15253 -0.08665,0.221c0.00759,-0.00509 0.01519,-0.00965 0.02268,-0.01373z" fill="#81782d" stroke-width="0.5"/></g><path d="M342.21842,230.69747c0.30875,-0.07187 0.63308,-0.11018 0.96761,-0.11018c0.4649,0 1.31077,0.58742 1.27468,1.36736c-0.02616,0.56503 -1.05406,1.31707 -0.43338,1.60656c0.93484,0.43601 2.33693,-0.32324 3.68732,-0.12714c0.2212,0.03212 1.37122,0.97499 1.75861,1.16628c0.80638,0.39818 2.97181,-0.35057 4.60217,0.3424c1.63036,0.69297 2.88797,2.76699 3.20603,2.97642" fill="none" stroke="#000000" stroke-width="1.5" stroke-linecap="butt"/><g><g><path d="M361.90867,157.19965c0,0 -16.98815,-3.28079 -25.08141,-5.14574c-9.38539,-2.1627 -27.7356,-7.02649 -27.7356,-7.02649c0,0 8.24115,-1.15271 13.05889,-1.67738c3.66428,-0.39906 10.4153,-1.03303 14.91162,-1.44773c2.75171,-0.25379 4.43498,-0.56808 6.63682,-2.23786c2.77544,-2.10478 8.16845,-5.36143 15.618,-6.03178c3.00329,-0.27025 4.75433,-0.32217 7.71476,0.25113c3.22452,0.62445 4.96652,1.42032 7.86776,2.95989c6.23375,3.30802 9.86103,8.026 11.61747,10.87703c1.44946,2.35274 2.90535,3.25417 5.3793,4.4854c4.04246,2.01182 10.10794,5.04302 13.38025,6.73951c4.30241,2.23052 11.56978,6.28397 11.56978,6.28397c0,0 -18.86763,-2.0975 -28.40021,-3.47327c-8.22016,-1.18636 -25.24566,-4.26754 -25.24566,-4.26754z" fill="#eced68" stroke="none" stroke-width="0" stroke-linecap="round"/><path d="M361.90867,157.19965c0,0 -16.98815,-3.28079 -25.08141,-5.14574c-9.38539,-2.1627 -27.7356,-7.02649 -27.7356,-7.02649c0,0 8.24115,-1.15271 13.05889,-1.67738c2.14281,-0.23335 5.34119,-0.54705 8.52697,-0.85026c2.26202,-0.21529 6.38464,-0.59747 6.38464,-0.59747c0,0 -2.05264,4.44256 6.56799,7.77345c4.45603,1.72174 17.08537,4.8197 27.58489,7.50827c9.5423,2.44345 17.23104,4.57231 17.23104,4.57231l-25.24566,-4.26754z" fill="#8f8621" stroke="none" stroke-width="0" stroke-linecap="round"/><path d="M378.27739,151.70303c-0.09087,0.40804 -6.57248,0.57462 -13.41812,-0.42842c-1.01594,-0.14886 -2.03991,-0.32347 -3.05219,-0.52688c-7.61479,-1.53015 -17.19824,-5.07915 -20.6527,-5.84847c-2.83788,-0.63201 -1.88043,-1.4244 -0.77568,-2.55029c2.37068,-2.41604 9.44107,-5.47218 9.44107,-5.47218c0,0 -6.40017,5.46543 -0.15159,8.58509c7.8565,3.92243 28.72384,5.72642 28.60921,6.24117z" fill="#8f8621" stroke="none" stroke-width="0" stroke-linecap="butt"/><path d="M377.83742,152.28196c0,0 -3.1019,0.29729 -8.91319,-0.23593c-7.70871,-0.70731 -12.0053,-1.83776 -19.35546,-4.26668" fill="none" stroke="#524d14" stroke-width="0.75" stroke-linecap="round"/><path d="M361.90867,157.19965c0,0 -16.98815,-3.28079 -25.08141,-5.14574c-9.38539,-2.1627 -27.7356,-7.02649 -27.7356,-7.02649c0,0 8.24115,-1.15271 13.05889,-1.67738c3.66428,-0.39906 10.4153,-1.03303 14.91162,-1.44773c2.75171,-0.25379 4.43498,-0.56808 6.63682,-2.23786c2.77544,-2.10478 8.16845,-5.36143 15.618,-6.03178c3.00329,-0.27025 4.75433,-0.32217 7.71476,0.25113c3.22452,0.62445 4.96652,1.42032 7.86776,2.95989c6.23375,3.30802 9.86103,8.026 11.61747,10.87703c1.44946,2.35274 2.90535,3.25417 5.3793,4.4854c4.04246,2.01182 10.10794,5.04302 13.38025,6.73951c4.30241,2.23052 11.56978,6.28397 11.56978,6.28397c0,0 -18.86763,-2.0975 -28.40021,-3.47327c-8.22016,-1.18636 -25.24566,-4.26754 -25.24566,-4.26754z" fill="none" stroke="#000000" stroke-width="1.5" stroke-linecap="round"/></g><path d="M365.24671,133.32385c0,0 0.42302,-2.16039 0.4837,-3.3437c0.07989,-1.55811 -0.04593,-5.19386 -0.04593,-5.19386l2.50233,0.26456c0,0 -0.58903,3.14611 -0.94797,4.61314c-0.31429,1.28452 -0.59771,3.9704 -0.59771,3.9704z" fill="#000000" stroke="#000000" stroke-width="1.5" stroke-linecap="butt"/><path d="M377.03844,140.32328c5.09776,3.41289 7.30553,7.08673 7.09146,7.42307c-0.21408,0.33635 -2.59844,-2.90056 -7.6962,-6.31345c-5.09776,-3.41289 -8.53066,-4.87149 -8.31659,-5.20785c0.21408,-0.33635 3.82355,0.68533 8.92132,4.09822z" fill="#faefbe" stroke="none" stroke-width="0" stroke-linecap="butt"/><path d="M404.46722,160.24268c0,0 -8.0955,-2.17148 -12.20416,-4.75274c-4.10866,-2.58125 -7.02144,-4.74301 -6.81158,-5.07706c0.20986,-0.33404 2.87406,1.30137 6.98273,3.88263c4.10866,2.58125 12.03301,5.94716 12.03301,5.94716z" fill="#faefbe" stroke="none" stroke-width="0" stroke-linecap="butt"/><g stroke-linecap="butt"><path d="M379.88655,147.90838c0.84802,-2.56609 3.70638,-4.0322 6.53154,-3.22727c2.82515,0.80494 4.32688,3.51085 3.58634,6.11002c-0.74054,2.59914 -3.43744,4.23092 -6.5368,3.38855c-2.94806,-0.80124 -4.46672,-3.59139 -3.58108,-6.27129z" fill="#ffffff" stroke="#000000" stroke-width="1.4"/><path d="M382.31886,148.65052c0.42661,-1.49733 1.98627,-2.36532 3.48362,-1.93871c1.49733,0.42661 2.36533,1.98628 1.93872,3.48363c-0.42661,1.49733 -1.98627,2.36532 -3.4836,1.93871c-1.49733,-0.42661 -2.36533,-1.98628 -1.93872,-3.48363z" fill="#000000" stroke="none" stroke-width="1.5"/></g><g stroke-linecap="butt"><path d="M338.98581,140.51262c0.77814,-2.58813 3.92304,-4.01504 6.76574,-3.16038c2.84269,0.85467 4.15277,3.62341 3.37463,6.21155c-0.77814,2.58813 -3.52183,4.04797 -6.36453,3.19331c-2.84269,-0.85467 -4.55398,-3.65634 -3.77585,-6.24448z" fill="#ffffff" stroke="#000000" stroke-width="1.4"/><path d="M341.3255,141.24698c0.43878,-1.45939 1.97753,-2.28675 3.43691,-1.84798c1.45939,0.43878 2.28676,1.97754 1.84799,3.43692c-0.43878,1.45939 -1.97753,2.28675 -3.43691,1.84798c-1.45939,-0.43878 -2.28676,-1.97754 -1.84799,-3.43692z" fill="#000000" stroke="none" stroke-width="1.5"/></g></g><path d="M283.30222,239.51932c0,0 6.43101,-15.10247 8.67494,-23.43797c2.68875,-9.98789 6.36577,-31.23356 6.36577,-31.23356l8.65343,-2.74487l5.61503,-1.1106l10.06597,0.89118l8.29605,3.85542l5.18245,3.67466c0,0 -3.08706,19.16597 -3.50851,28.06085c-0.42541,8.97819 0.96781,25.5607 0.96781,25.5607z" fill="url(#color-2)" stroke="none" stroke-width="0" stroke-linecap="butt"/><path d="M289.56183,223.57811c0.96391,-2.70024 1.83139,-5.32763 2.41532,-7.49676c2.68875,-9.98789 6.36577,-31.23356 6.36577,-31.23356l8.65343,-2.74487l5.61503,-1.1106l10.06597,0.89118l8.29605,3.85542l5.18245,3.67466c0,0 -3.08706,19.16597 -3.50851,28.06085c-0.02139,0.45152 0.04999,3.21503 0.13969,6.36172" fill="none" stroke="#000000" stroke-width="1.5" stroke-linecap="butt"/><path d="M260.92044,296.88109l-5.07928,-35.91179c0,0 7.44052,-2.73987 11.02175,-4.48268c6.44867,-3.13825 24.59097,-11.93386 24.59097,-11.93386l13.01891,37.67023c0,0 -22.56532,10.99353 -30.38094,13.23094c-6.11212,1.74975 -13.1714,1.42717 -13.1714,1.42717z" fill="url(#color-3)" stroke="none" stroke-width="0" stroke-linecap="butt"/><path d="M255.37543,250.52788l10.11111,6" fill="none" stroke="#000000" stroke-width="1.5" stroke-linecap="round"/><path d="M250.21572,246.18227l21.36535,-34.32706c0,0 3.89472,1.97323 8.55655,4.94854c5.34123,3.40892 11.48637,7.74256 14.98258,9.78664c7.17122,4.1927 17.53801,9.17699 17.53801,9.17699l-14.71535,34.97706c0,0 -22.9644,-8.6094 -36.23682,-16.78181c-6.22983,-3.83598 -11.49033,-7.78036 -11.49033,-7.78036z" fill="url(#color-4)" stroke="none" stroke-width="0" stroke-linecap="butt"/><path d="M303.931,231.41676c0,0 -10.00618,-5.12752 -14.93491,-8.04147c-5.86916,-3.46994 -18.95398,-11.30297 -18.95398,-11.30297" fill="none" stroke="#000000" stroke-width="1.5" stroke-linecap="round"/><path d="M273.96016,236.26618c-4.22419,9.97337 -15.26432,15.99714 -21.26652,12.52929c-6.00221,-3.46785 -5.94358,-13.3641 -1.71938,-23.33747c4.22419,-9.97337 14.26432,-16.49714 20.26653,-13.02929c6.00221,3.46785 6.94358,13.8641 2.71938,23.83747z" fill="#e2e05f" stroke="#000000" stroke-width="1.5" stroke-linecap="butt"/><path d="M278.42555,278.94541c0,10.26329 -6.74052,18.08333 -16.08334,18.08333c-9.34281,0 -15.75,-7.15338 -15.75,-17.41667c0,-10.26329 2.90719,-18.91667 12.25,-18.91667c9.34281,0 19.58334,7.98671 19.58334,18.25z" fill="#fae06b" stroke="#000000" stroke-width="1.5" stroke-linecap="butt"/><path d="M295.31721,284.82416c0,0 -1.51202,-5.99345 -1.5673,-13.00079c-0.06926,-8.78064 -0.10568,-17.06412 1.48794,-24.17804c1.36568,-6.09639 3.76908,-11.33389 10.17061,-15.28929c4.53339,-2.80111 10.33238,-2.76009 14.38759,-3.55813c0.78271,-0.15404 9.11408,3.01295 16.68991,6.16177c7.31569,3.0407 13.75506,6.6359 13.75506,6.6359l-25.45714,52.62858c0,0 -10.24957,-3.01445 -15.08342,-4.55647c-4.98379,-1.58985 -14.38325,-4.84352 -14.38325,-4.84352z" fill="url(#color-5)" stroke="none" stroke-width="0" stroke-linecap="butt"/><path d="M267.0922,296.59082c5.7269,0.69624 26.90305,-8.84963 31.13986,-10.72971c0.49349,-0.21898 25.62205,7.944 25.62205,7.944" fill="none" stroke="#000000" stroke-width="1.5" stroke-linecap="round"/><path d="M366.37981,267.00766c-0.51677,14.95653 -15.22262,28.7 -30.3,28.7c-15.07738,0 -27.7,-12.12719 -27.7,-26.1c0,-6.46271 2.68435,-14.5863 8.13671,-20.16189c6.336,-6.47922 16.05951,-10.43811 24.16329,-10.43811c15.07738,0 26.3,10.63455 25.7,28z" fill="#fae06b" stroke="#000000" stroke-width="1.5" stroke-linecap="butt"/><path d="M344.97775,238.73476c0,0 -7.56358,-2.98564 -9.36964,-3.82095" fill="none" stroke="#000000" stroke-width="1.5" stroke-linecap="round"/><path d="M253.92554,261.75748l19.66666,-8.33333" fill="none" stroke="#000000" stroke-width="1.5" stroke-linecap="round"/></g></g></svg>