<svg version="1.1" xmlns="http://www.w3.org/2000/svg" xmlns:xlink="http://www.w3.org/1999/xlink" width="89.99212" height="79.46106" viewBox="0,0,89.99212,79.46106"><g transform="translate(-166.58113,-199.39197)"><g stroke-miterlimit="10"><path d="M254.53944,242.63207c0,21.39028 -19.42174,35.22096 -42.95796,35.22096c-23.53623,0 -43.41375,-13.83068 -43.41375,-35.22096c0,-21.39028 19.87753,-42.2401 43.41375,-42.2401c23.53623,0 42.95796,20.8498 42.95796,42.2401z" fill="#faff9a" stroke="#000000" stroke-width="2" stroke-linecap="butt"/><path d="M181.3643,259.68622l4,-7c0,0 10.38737,3.03939 16.64208,3.98635c9.53011,1.44286 25.98292,1.26366 25.98292,1.26366l-13.75,9.5c0,0 -2.73072,0.42686 -6.28934,0.16992c-3.05866,-0.22084 -6.79426,-1.07746 -9.18108,-1.64014c-2.86227,-0.67476 -7.70319,-0.61539 -11.33364,-2.01448c-3.6432,-1.404 -6.07093,-4.2653 -6.07093,-4.2653z" fill="#ffffff" stroke="none" stroke-width="0" stroke-linecap="butt"/><path d="M191.7157,251.846c-12.76728,0 -24.48457,-4.13306 -24.48457,-12.56976c0,-8.4367 9.77437,-17.52705 23.9832,-17.05357c11.10911,0.37019 15.47002,4.54563 19.62954,8.58661c3.25051,-6.17777 9.93287,-10.71826 20.72616,-10.39788c18.31576,0.54365 24.68207,8.72607 24.34024,19.09985c-0.27785,8.43212 -11.48939,12.56976 -24.25667,12.56976c-8.60821,0 -16.11748,-1.82707 -20.09643,-5.6034c-4.03943,3.61712 -11.41379,5.36838 -19.84147,5.36838z" fill="#ffffff" stroke="none" stroke-width="0" stroke-linecap="butt"/><path d="M237.35934,256.91096c0,0 -8.66261,4.68068 -17.80321,8.73191c-7.68337,3.40538 -12.33732,2.21006 -20.7464,0.42894c-4.96526,-1.05169 -10.88946,-0.76173 -13.4284,-2.4857c-6.78365,-4.60617 -5.51633,-11.67253 -5.51633,-11.67253l5.92524,0.68369c0,0 6.66574,3.64496 26.32765,4.89936c16.94975,1.08137 32.9247,-1.8228 32.9247,-1.8228" fill="none" stroke="#000000" stroke-width="1" stroke-linecap="round"/><path d="M196.27116,237.00195c0,5.06839 -2.6332,9.1771 -5.88141,9.1771c-3.24822,0 -5.8814,-4.10872 -5.8814,-9.1771c0,-0.98662 0.09978,-1.93689 0.28446,-2.82754c0.39946,-0.06546 0.8684,-0.26124 1.21826,-0.2624c2.76126,-0.00919 5.52255,-0.0013 8.28383,0c0.51641,0.00025 1.16536,0.17666 1.71653,0.11527c0.23472,0.99107 0.25974,1.85634 0.25974,2.97468z" fill="#000000" stroke="none" stroke-width="0" stroke-linecap="butt"/><path d="M236.38045,236.09037c0,5.06839 -2.6332,9.1771 -5.88141,9.1771c-3.24822,0 -5.8814,-4.10872 -5.8814,-9.1771c0,-0.62108 0.03954,-1.22775 0.11491,-1.8142c1.72988,0.34901 5.25478,-0.00045 6.46562,0.20083c1.32913,0.22096 3.24538,0.16717 5.13917,0.08374c0.02847,0.3661 0.04312,1.15155 0.04312,1.52963z" fill="#000000" stroke="none" stroke-width="0" stroke-linecap="butt"/><path d="M210.874,268.12748c0,0 7.7858,-4.45171 10.62908,-6.29759c2.23094,-1.44833 5.04351,-3.87712 5.04351,-3.87712l10.79815,-1.06673l-14.37934,7.24426c0,0 -4.12024,1.91122 -6.2241,2.60671c-1.9073,0.63051 -5.86731,1.39047 -5.86731,1.39047z" fill="#000000" stroke="none" stroke-width="0" stroke-linecap="butt"/><path d="M221.9167,262.05915c0,0 -10.76998,2.50679 -26.73374,-0.95237c-9.8238,-2.12872 -16.80333,-7.45141 -16.80333,-7.45141" fill="none" stroke="#000000" stroke-width="0.8" stroke-linecap="round"/><path d="M182.96633,216.12484l3.25979,-3.3201c0,0 3.05279,-1.42912 7.17232,0.38826c3.70685,1.63532 4.29401,5.28611 7.78969,7.81716c3.49568,2.53105 5.3365,2.69483 5.3365,2.69483l-0.77451,2.6081c0,0 -4.25265,-1.46603 -6.66498,-2.98319c-2.41234,-1.51716 -3.72433,-4.67796 -7.07478,-6.1756c-3.35045,-1.49765 -9.04402,-1.02948 -9.04402,-1.02948z" fill="#000000" stroke="none" stroke-width="0" stroke-linecap="butt"/><path d="M168.29364,234.37174c2.89269,-6.69649 11.4656,-12.53079 22.92069,-12.14907c11.10911,0.37019 15.47002,4.54563 19.62954,8.58661c3.25051,-6.17777 9.93287,-10.71826 20.72616,-10.39788c15.02781,0.44606 22.0113,6.0345 23.84549,13.75647c0.24417,1.02798 -32.41422,0.22774 -57.92726,0.04478c-15.88633,-0.11393 -29.46145,0.77682 -29.19461,0.15909z" fill="#faff9a" stroke="none" stroke-width="0" stroke-linecap="butt"/><path d="M229.23648,215.44901c-3.49903,1.34269 -5.12101,4.42916 -7.53334,5.94632c-2.41234,1.51716 -6.66498,2.98319 -6.66498,2.98319l-0.77451,-2.6081c0,0 2.64331,0.0655 6.13899,-2.46555c3.49568,-2.53105 3.81571,-5.60863 7.21648,-8.21841c3.40078,-2.60978 5.56733,-1.59199 5.56733,-1.59199l5.32335,4.6958c0,0 -5.77428,-0.08394 -9.27331,1.25876z" fill="#000000" stroke="none" stroke-width="0" stroke-linecap="butt"/><path d="M255.19762,234.37631h-86.80039" fill="none" stroke="#000000" stroke-width="1" stroke-linecap="round"/><path d="M206.05718,271.31399c0,0 -4.15957,0.26612 -6.25423,-0.11473c-2.09467,-0.38085 -5.09534,-1.94882 -5.09534,-1.94882" fill="none" stroke="#000000" stroke-width="1" stroke-linecap="round"/><path d="M191.7157,251.846c-12.76728,0 -24.48457,-4.13306 -24.48457,-12.56976c0,-8.4367 9.77437,-17.52705 23.9832,-17.05357c11.10911,0.37019 15.47002,4.54563 19.62954,8.58661c3.25051,-6.17777 9.93287,-10.71826 20.72616,-10.39788c18.31576,0.54365 24.68207,8.72607 24.34024,19.09985c-0.27785,8.43212 -11.48939,12.56976 -24.25667,12.56976c-8.60821,0 -16.11748,-1.82707 -20.09643,-5.6034c-4.03943,3.61712 -11.41379,5.36838 -19.84147,5.36838z" fill="none" stroke="#000000" stroke-width="1.3" stroke-linecap="butt"/><g><path d="M172.20207,248.69467c0,0 1.74424,-3.07075 5.6886,-3.30436c1.89941,-0.11249 4.31294,-0.17252 6.81021,2.72925c1.86139,2.16288 2.08852,5.10689 1.53246,7.18588c-0.5916,1.6198 -1.76562,2.72875 -4.46399,3.4888c-0.21681,0.06106 -0.42754,0.11054 -0.63205,0.1497c-2.94789,0.56425 -4.71919,-0.44984 -4.71919,-0.44984" fill="#faff9a" stroke="#000000" stroke-width="1" stroke-linecap="round"/><path d="M178.25551,249.37833c0,-0.43266 0.35073,-0.78338 0.78338,-0.78338c0.43266,0 0.78338,0.35073 0.78338,0.78338c0,0.43266 -0.35073,0.78338 -0.78338,0.78338c-0.43266,0 -0.78338,-0.35073 -0.78338,-0.78338z" fill="#000000" stroke="none" stroke-width="0.5" stroke-linecap="butt"/><path d="M181.10418,253.70832c0,-0.43266 0.35073,-0.78338 0.78338,-0.78338c0.43266,0 0.78338,0.35073 0.78338,0.78338c0,0.43266 -0.35073,0.78338 -0.78338,0.78338c-0.43266,0 -0.78338,-0.35073 -0.78338,-0.78338z" fill="#000000" stroke="none" stroke-width="0.5" stroke-linecap="butt"/><path d="M175.86262,253.82228c0,-0.43266 0.35073,-0.78338 0.78338,-0.78338c0.43266,0 0.78338,0.35073 0.78338,0.78338c0,0.43266 -0.35073,0.78338 -0.78338,0.78338c-0.43266,0 -0.78338,-0.35073 -0.78338,-0.78338z" fill="#000000" stroke="none" stroke-width="0.5" stroke-linecap="butt"/></g></g></g></svg>