<svg version="1.1" xmlns="http://www.w3.org/2000/svg" xmlns:xlink="http://www.w3.org/1999/xlink" width="114.21817" height="303.52914" viewBox="0,0,114.21817,303.52914"><g transform="translate(-262.37283,-31.3875)"><g stroke-miterlimit="10"><path d="M263.40898,324.61251v-293.22501h113.18203v293.22501z" fill-opacity="0.01" fill="#000000" stroke="none" stroke-width="0" stroke-linecap="butt"/><path d="M275.00442,121.28106c0,0 -2.56556,1.42557 -3.69558,2.46428c-1.64102,1.50841 -5.20286,5.71507 -5.20286,5.71507c0,0 -1.19535,-3.2776 -0.46006,-9.30537c0.83017,-6.80558 4.76163,-12.51851 4.76163,-12.51851l-7.16484,7.88254c0,0 -0.45829,-4.21686 1.61707,-10.53773c2.46331,-7.50246 7.54217,-17.96909 7.76948,-27.86686c0.63044,-27.45079 38.11353,-32.78799 49.22628,-22.65114c11.11275,10.13685 6.95691,12.06833 9.16029,18.89714c3.29121,10.20029 3.86487,21.18535 -0.07627,31.14438c-10.75497,27.17724 -10.72754,29.30039 -27.67802,34.77178c-7.5702,2.44356 -12.27552,-3.25774 -16.53841,-2.6242c-9.21818,1.36999 -12.69141,6.62966 -12.69141,6.62966c0,0 -1.64407,-7.20849 -1.43796,-11.87037c0.20611,-4.66188 2.41066,-10.13067 2.41066,-10.13067z" fill="#ecec68" stroke="#0d0d00" stroke-width="1.75" stroke-linecap="butt"/><path d="M312.70587,132.38508c0.08762,0.36489 11.11655,27.03815 3.80987,42.28982c-6.31205,13.1755 -15.38009,0.41557 -15.38009,0.41557c0,0 -14.80113,25.09984 -25.04902,19.02857c-13.45866,-7.97346 0.12265,-31.01218 10.48646,-50.32264c6.20226,-11.5564 16.70302,-31.3138 16.70302,-31.3138c0,0 7.82867,13.23345 9.42975,19.90248z" fill-opacity="0.4" fill="#f2d849" stroke="#0d0d00" stroke-width="1.5" stroke-linecap="butt"/><path d="M327.43376,132.38508c1.60107,-6.66903 9.42975,-19.90248 9.42975,-19.90248c0,0 10.50075,19.7574 16.70301,31.3138c10.36381,19.31046 23.94512,42.34918 10.48646,50.32265c-10.24789,6.07127 -25.04903,-19.02858 -25.04903,-19.02858c0,0 -9.06804,12.75993 -15.38009,-0.41557c-7.30668,-15.25166 3.72227,-41.92493 3.80988,-42.28982z" fill-opacity="0.4" fill="#f2d849" stroke="#0d0d00" stroke-width="1.5" stroke-linecap="butt"/><g stroke-linecap="butt"><path d="M333.91472,203.33423c0,0 0.18426,-15.96987 0.52629,-33.71738c0.46217,-23.98109 -8.44486,-60.87338 16.50243,-48.29548c6.54244,3.29856 9.72488,15.61156 9.42021,26.8707c-0.30286,11.192 -3.36584,21.75094 -3.36584,21.75094c0,0 -0.72521,11.4362 -1.47915,17.26859c-0.78145,6.04504 -3.8376,17.97591 -3.8376,17.97591z" fill="#ecec68" stroke="#0d0d00" stroke-width="1.75"/><path d="M343.63155,201.77744c4.81336,-0.74516 9.9322,3.2692 12.30129,8.26199c2.58121,5.43983 0.47373,13.48952 -1.90873,15.70148c-3.27247,3.03826 -9.99651,-1.05451 -9.99651,-1.05451c0,0 -5.63999,-22.09715 -0.39605,-22.90896z" fill="#ecec68" stroke="#0d0d00" stroke-width="1.75"/><path d="M353.10358,214.0274c0.01324,0.14841 0.33319,15.6103 -6.08274,15.38259c-8.56278,-0.3039 -8.99174,-7.87259 -8.99174,-7.87259c0,0 3.14149,-16.81683 9.31614,-17.03387c5.66766,-0.19922 5.75835,9.52388 5.75835,9.52388z" fill="#ecec68" stroke="#0d0d00" stroke-width="1.75"/><path d="M344.71772,202.10504c4.88617,0.49953 2.97386,9.85755 2.97386,9.85755c-0.01906,0.14427 -1.92602,13.57544 -7.6552,15.0503c-7.97093,2.05193 -6.76925,-9.66881 -6.76925,-9.66881c0,0 6.12734,-15.78325 11.4506,-15.23905z" fill="#ecec68" stroke="#0d0d00" stroke-width="1.75"/><path d="M346.56117,202.94982c1.68687,1.36906 -7.49376,4.33468 -10.00893,8.45426c-2.87612,3.90315 0.52445,9.06088 0.52445,9.06088c0,0 -14.06432,-0.32211 -7.13944,-14.34918c3.29872,-6.68188 13.78964,-5.46631 16.62392,-3.16599z" fill="#ecec68" stroke="#0d0d00" stroke-width="1.75"/><path d="M334.42116,206.35603l1.03183,-12.05643l17.01604,0.88245l-2.0893,14.83736z" fill="#ecec68" stroke="none" stroke-width="0"/><path d="M354.82505,220.19924c0,0 -2.11119,-1.69073 -5.41236,-1.8374c-2.62768,-0.11675 -6.01655,0.60276 -7.73181,0.16268c-4.1547,-1.06596 -10.59852,-6.0848 -10.59852,-6.0848l7.10876,-11.71268c0,0 7.0031,-1.64056 14.24371,5.94275c3.50815,3.67417 2.39022,13.52945 2.39022,13.52945z" fill="#ecec68" stroke="none" stroke-width="0"/><path d="M346.26769,154.55238c-7.68554,-0.4123 -12.92245,-3.48801 -12.92245,-3.48801l-0.38361,-9.09184l26.74535,2.85004l-0.15787,7.82734c0,0 -2.42344,2.48494 -13.28141,1.90246z" fill-opacity="0.70196" fill="#0d0d00" stroke="none" stroke-width="0"/><path d="M345.191,174.55092c-8.46091,-0.92555 -11.03986,-3.08626 -11.03986,-3.08626l-0.20965,-9.0733c0,0 3.49602,3.16369 11.29296,4.01925c8.64478,0.9486 12.22332,-1.53995 12.22332,-1.53995l-0.53723,8.21582c0,0 -2.39432,2.48562 -11.72954,1.46443z" fill-opacity="0.70196" fill="#0d0d00" stroke="none" stroke-width="0"/><path d="M344.1724,197.86015c-7.74903,-0.84969 -10.15793,-2.38888 -10.15793,-2.38888l-0.1118,-9.06287c0,0 3.24081,2.5331 10.38171,3.31875c7.91741,0.87108 10.92759,-1.04798 10.92759,-1.04798l-0.78191,8.16311c0,0 -1.70788,1.95538 -10.25766,1.01788z" fill-opacity="0.70196" fill="#0d0d00" stroke="none" stroke-width="0"/><path d="M346.28303,150.60915c-8.16764,-0.23116 -12.67423,-2.14987 -12.71823,-2.98671c-0.63344,-12.04587 -3.42242,-23.10567 1.28649,-27.18509c2.6694,-2.31256 9.61458,-2.3819 16.09217,0.88396c5.39406,2.71958 10.78651,14.82697 9.36618,26.94429c-0.02483,0.21186 -2.27956,2.67601 -14.02661,2.34355z" fill="#9b9b44" stroke="#0d0d00" stroke-width="1.75"/></g><g stroke-linecap="butt"><path d="M290.15727,205.65963c0,0 -3.05616,-11.93087 -3.8376,-17.97591c-0.75395,-5.83239 -1.47915,-17.26859 -1.47915,-17.26859c0,0 -3.06299,-10.55894 -3.36584,-21.75094c-0.30467,-11.25914 2.87778,-23.57214 9.42022,-26.87071c24.94729,-12.5779 16.04027,24.31439 16.50243,48.29548c0.34203,17.7475 0.52629,33.71738 0.52629,33.71738z" fill="#ecec68" stroke="#0d0d00" stroke-width="1.75"/><path d="M298.2068,202.24955c5.24394,0.81181 -0.39606,22.90896 -0.39606,22.90896c0,0 -6.72404,4.09278 -9.99651,1.05451c-2.38245,-2.21195 -4.48993,-10.26164 -1.90872,-15.70147c2.36909,-4.99279 7.48792,-9.00716 12.30129,-8.262z" fill="#ecec68" stroke="#0d0d00" stroke-width="1.75"/><path d="M294.49307,204.97564c6.17465,0.21704 9.31614,17.03387 9.31614,17.03387c0,0 -0.42896,7.5687 -8.99174,7.8726c-6.41593,0.22771 -6.09598,-15.23418 -6.08274,-15.38259c0,0 0.09068,-9.72309 5.75834,-9.52388z" fill="#ecec68" stroke="#0d0d00" stroke-width="1.75"/><path d="M297.12057,202.57714c5.32326,-0.54421 11.4506,15.23904 11.4506,15.23904c0,0 1.20168,11.72075 -6.76925,9.66882c-5.72918,-1.47486 -7.63615,-14.90603 -7.65521,-15.0503c0,0 -1.91231,-9.35802 2.97386,-9.85755z" fill="#ecec68" stroke="#0d0d00" stroke-width="1.75"/><path d="M295.27718,203.42191c2.83427,-2.30032 13.32519,-3.51589 16.62391,3.16599c6.92489,14.02707 -7.13944,14.34919 -7.13944,14.34919c0,0 3.40057,-5.15773 0.52445,-9.06088c-2.51517,-4.11959 -11.69579,-7.08521 -10.00893,-8.45427z" fill="#ecec68" stroke="#0d0d00" stroke-width="1.75"/><path d="M291.4586,210.4915l-2.08931,-14.83735l17.01605,-0.88245l1.03183,12.05643z" fill="#ecec68" stroke="none" stroke-width="0"/><path d="M287.01329,220.67134c0,0 -1.11792,-9.85527 2.39022,-13.52944c7.24061,-7.5833 14.24371,-5.94275 14.24371,-5.94275l7.10876,11.71268c0,0 -6.44383,5.01884 -10.59852,6.0848c-1.71525,0.44008 -5.10412,-0.27943 -7.7318,-0.16268c-3.30117,0.14668 -5.41236,1.8374 -5.41236,1.8374z" fill="#ecec68" stroke="none" stroke-width="0"/><path d="M282.2892,153.12205l-0.15787,-7.82734l26.74535,-2.85004l-0.38361,9.09183c0,0 -5.23692,3.07571 -12.92245,3.488c-10.85798,0.58249 -13.28142,-1.90246 -13.28142,-1.90246z" fill-opacity="0.70196" fill="#0d0d00" stroke="none" stroke-width="0"/><path d="M284.91778,173.55861l-0.53724,-8.21582c0,0 3.57854,2.48855 12.22332,1.53995c7.79694,-0.85556 11.29296,-4.01926 11.29296,-4.01926l-0.20965,9.0733c0,0 -2.57896,2.16071 -11.03986,3.08626c-9.33522,1.0212 -11.72953,-1.46443 -11.72953,-1.46443z" fill-opacity="0.70196" fill="#0d0d00" stroke="none" stroke-width="0"/><path d="M287.40826,197.31438l-0.78191,-8.1631c0,0 3.01019,1.91907 10.9276,1.04799c7.1409,-0.78565 10.3817,-3.31875 10.3817,-3.31875l-0.1118,9.06287c0,0 -2.4089,1.53919 -10.15793,2.38888c-8.54978,0.9375 -10.25766,-1.01788 -10.25766,-1.01788z" fill-opacity="0.70196" fill="#0d0d00" stroke="none" stroke-width="0"/><path d="M281.52871,148.73764c-1.42033,-12.11732 3.97212,-24.22471 9.36618,-26.94429c5.53409,-2.79017 11.90224,-3.64596 14.57628,-2.24832c5.97719,3.12408 3.48812,15.50895 2.80238,28.54945c-0.04401,0.83684 -4.55059,2.75555 -12.71824,2.98671c-11.74706,0.33246 -14.00177,-2.13169 -14.02661,-2.34355z" fill="#9b9b44" stroke="#0d0d00" stroke-width="1.75"/></g><g stroke="#0d0d00" stroke-linecap="butt"><path d="M343.28371,168.52624c1.57051,0.61318 8.28838,9.05799 8.28838,9.05799c0,0 11.70608,5.3101 12.42364,28.4523c0.59213,19.09689 -6.03411,34.31567 -6.03411,34.31567c0,0 -1.54311,18.66129 -4.4982,32.98192c-2.95508,14.32063 -9.77938,36.72745 -9.77938,36.72745l-23.53796,-0.71747l0.07992,-132.64153c0,0 14.92481,-11.3517 23.05772,-8.17632z" fill="#494920" stroke-width="1.75"/><path d="M319.85249,305.29258v-3.32279c0,0 27.48357,-0.6001 27.98562,0c0.93972,1.12327 -0.81595,3.43621 -3.17871,4.19494z" fill="#080d00" stroke-width="1.5"/></g><g stroke="#0d0d00" stroke-linecap="butt"><path d="M297.64475,168.27624c8.13291,-3.17538 23.05772,8.17632 23.05772,8.17632l0.07992,132.64153l-23.53796,0.71747c0,0 -6.8243,-22.40682 -9.77938,-36.72745c-2.95509,-14.32064 -4.4982,-32.98192 -4.4982,-32.98192c0,0 -6.62624,-15.21878 -6.03411,-34.31568c0.71756,-23.14219 12.42364,-28.4523 12.42364,-28.4523c0,0 6.71787,-8.44481 8.28838,-9.05799z" fill="#494920" stroke-width="1.75"/><path d="M320.54212,307.57133l0.15642,14.66283c0,0 -2.13105,3.33828 -9.57044,6.63437c-13.16886,5.83458 -24.81656,5.60696 -30.80438,4.24795c-3.1241,-0.83013 -6.25925,-6.65632 -2.7366,-11.22699c3.1823,-4.12908 10.60019,-4.84717 15.0485,-8.02239c3.86947,-2.76205 5.72916,-5.94676 5.72916,-5.94676z" fill="#ffffd5" stroke-width="1.5"/><path d="M298.36476,303.9663l22.55234,0.18266l-0.21858,14.13117c0,0 -19.29936,15.66566 -40.37482,10.88232c-3.12409,-0.83014 -5.56047,-4.33037 -2.03782,-8.90104c3.1823,-4.12908 9.90142,-7.17312 14.34973,-10.34834c3.86947,-2.76205 5.72916,-5.94677 5.72916,-5.94677z" fill="#0d0d00" stroke-width="1.5"/><path d="M293.59031,301.71979c0.50205,-0.6001 27.48562,0 27.48562,0v3.32279c0,0 -23.44233,1.32909 -24.80692,0.89088c0,0 -5.36842,-2.3404 -2.6787,-4.21367z" fill="#080d00" stroke-width="1.5"/></g><path d="M342.39707,308.17037c0,0 1.85969,3.18471 5.72916,5.94676c4.44831,3.17522 11.8662,3.89332 15.0485,8.02239c3.52265,4.57067 0.3875,10.39685 -2.7366,11.22699c-5.98782,1.35901 -17.63553,1.58663 -30.80439,-4.24795c-7.43939,-3.29608 -9.57043,-6.63436 -9.57043,-6.63436l0.15642,-14.66283z" fill="#ffffd5" stroke="#0d0d00" stroke-width="1.5" stroke-linecap="butt"/><path d="M342.39707,304.2163c0,0 1.85969,3.18472 5.72916,5.94677c4.44831,3.17523 11.16743,6.21927 14.34973,10.34834c3.52265,4.57066 1.08627,8.0709 -2.03782,8.90104c-21.07546,4.78335 -40.37482,-10.88232 -40.37482,-10.88232l-0.21858,-14.13117l22.55234,-0.18266z" fill="#0d0d00" stroke="#0d0d00" stroke-width="1.5" stroke-linecap="butt"/><path d="M303.78505,203.29678l-1,-20.1721h35.96121l-0.8,20.63442c0,0 -11.12869,1.61816 -17.03787,1.61816c-6.07339,0 -17.12334,-2.08048 -17.12334,-2.08048z" fill="#494920" stroke="none" stroke-width="0" stroke-linecap="butt"/><path d="M337.61107,203.09232c0,0 -7.8499,2.22242 -17.37731,2.30103c-8.35113,0.06889 -16.04309,-2.30103 -16.04309,-2.30103" fill="none" stroke="#0d0d00" stroke-width="1.5" stroke-linecap="round"/><path d="M320.75826,132.32217c0.06985,-0.16235 0.107,-0.24689 0.107,-0.24689v0.00001h18.75144c0,0 1.37601,4.76768 3.85007,11.32321c2.57928,6.83438 7.10244,15.61194 9.06639,22.95627c1.5955,5.96648 -1.01543,8.66603 -1.01543,8.66603c0,0 -6.00131,9.92318 -30.24426,10.29841c-0.16929,0.00506 -0.34116,0.00717 -0.51565,0.00629c-0.17397,0.00087 -0.34535,-0.00124 -0.51416,-0.00628c-24.24346,-0.37507 -30.24486,-10.29841 -30.24486,-10.29841c0,0 -2.61094,-2.69955 -1.01543,-8.66603c1.96395,-7.34433 6.48711,-16.12189 9.06639,-22.95627c2.47406,-6.55554 3.85007,-11.32321 3.85007,-11.32321h18.75144v-0.00001c0,0 0.03714,0.08454 0.10699,0.24689z" fill="#9b9b44" stroke="#0d0d00" stroke-width="1.75" stroke-linecap="butt"/><path d="M289.41605,173.66525c0.79186,0.40108 6.00669,6.85483 27.86798,7.022c0.79943,-0.02557 3.08803,-0.01009 3.34889,-0.0071c0.26076,-0.003 2.54898,-0.01847 3.34835,0.0071c21.86145,-0.16714 27.07632,-6.62091 27.86818,-7.022c1.45187,-0.73539 4.78457,7.29166 4.78457,7.29166c0,0 -12.05131,10.00632 -35.36556,9.62753c-0.2124,-0.00345 -0.42435,-0.01024 -0.63567,-0.02027c-0.21135,0.01003 -0.42332,0.01682 -0.63576,0.02027c-23.31425,0.37879 -33.19451,-12.49495 -33.19451,-12.49495c0,0 1.16167,-5.15963 2.61353,-4.42424z" fill="#0d0d00" stroke="none" stroke-width="0" stroke-linecap="butt"/><path d="M313.15504,190.13471c-1.07703,-2.16887 -1.10216,-8.29971 -0.33441,-10.13225c0.79267,-1.89198 13.79684,-1.87059 15.24756,-0.55876c1.39648,1.26279 1.05602,9.73868 -0.16719,11.06355c-1.13434,1.22859 -13.95538,0.94675 -14.74601,-0.37252z" fill="#ffffd5" stroke="#0d0d00" stroke-width="1.5" stroke-linecap="butt"/><path d="M296.78557,126.50421c0.32537,-1.37663 16.56815,-14.76675 23.45285,-9.19479c9.55264,7.7312 9.91519,35.63417 3.61552,36.8235c-25.44486,7.70738 -30.69159,4.19191 -33.59609,-0.40084c-3.29266,-5.20651 -1.59525,-10.63856 0.67485,-14.41609c2.2701,-3.77752 4.02537,-5.07965 5.85287,-12.81179z" fill="#9b9b44" stroke="#0d0d00" stroke-width="1.5" stroke-linecap="butt"/><path d="M351.06393,154.00785c-2.9045,4.59275 -8.15123,8.10821 -33.59609,0.40084c-6.29967,-1.18933 -5.93713,-29.09231 3.61551,-36.8235c6.8847,-5.57197 23.12747,7.81816 23.45284,9.19478c1.82749,7.73214 2.71566,7.59131 5.85289,12.8118c2.2701,3.77751 3.96751,9.20956 0.67484,14.41609z" fill="#9b9b44" stroke="#0d0d00" stroke-width="1.5" stroke-linecap="butt"/><path d="M313.0645,171.97675l2.64991,-27.58533c0,0 1.91704,-25.49309 9.22314,-23.76145c4.76222,1.1287 16.30428,33.14046 16.30428,33.14046c0,0 -9.95417,1.33759 -8.64532,4.54346c0.69307,1.69759 4.1497,1.17168 5.45511,3.80728c1.75592,3.54516 2.66024,7.64876 2.66024,7.64876z" fill="#9b9b44" stroke="none" stroke-width="0" stroke-linecap="butt"/><path d="M300.60992,169.49407c0,0 0.90432,-4.1036 2.66024,-7.64876c1.30541,-2.63559 4.76205,-2.10968 5.45511,-3.80727c1.30884,-3.20587 -8.64532,-4.54346 -8.64532,-4.54346c0,0 11.54207,-32.01177 16.30428,-33.14047c7.3061,-1.73163 9.22315,23.76146 9.22315,23.76146l2.6499,27.58533z" fill="#9b9b44" stroke="none" stroke-width="0" stroke-linecap="butt"/><path d="M291.75588,130.60082c0,0 -2.15614,-10.97646 28,-11.30999c34.78554,-0.38473 31.5,11.58584 31.5,11.58584c0,0 -15.47005,-1.6739 -28.25056,-1.78262c-25.48246,-0.21679 -31.24944,1.50677 -31.24944,1.50677z" fill="#9b9b44" stroke="none" stroke-width="0" stroke-linecap="butt"/><path d="M320.13445,149.42505v-28.30255" fill="none" stroke="#0d0d00" stroke-width="1" stroke-linecap="round"/><path d="M326.497,133.40715c0,1.40161 -0.60788,1.74969 -1.54452,1.74969c-0.93664,0 -1.84736,-0.34808 -1.84736,-1.74969c0,-1.40161 0.7593,-2.06496 1.69594,-2.06496c0.93664,0 1.69594,0.66334 1.69594,2.06496z" fill="#ffffd5" stroke="#0d0d00" stroke-width="1" stroke-linecap="butt"/><path d="M325.00293,139.66503c0.93663,0 1.84736,0.50571 1.84736,1.90733c0,1.40161 -0.7593,1.7497 -1.69594,1.7497c-0.93664,0 -1.69594,-0.34808 -1.69594,-1.7497c0,-1.40161 0.60787,-1.90733 1.54451,-1.90733z" fill="#ffffd5" stroke="#0d0d00" stroke-width="1" stroke-linecap="butt"/><path d="M316.5688,118.37061l8.06707,-2.56619c0,0 11.58422,-0.89779 15.1265,8.55311c2.56293,6.83795 -3.86724,14.86086 -3.86724,14.86086z" fill="#c1c155" stroke="#0d0d00" stroke-width="1.5" stroke-linecap="butt"/><path d="M304.11671,139.21839c0,0 -5.68017,-8.61042 -3.11724,-15.44836c3.54228,-9.4509 14.3765,-7.96561 14.3765,-7.96561l7.33979,3.2071z" fill="#c1c155" stroke="#0d0d00" stroke-width="1.5" stroke-linecap="butt"/><path d="M314.83137,94.64589h11.99007l1.29622,21.45252c0,0 -3.04103,4.91539 -7.45329,4.79603c-4.43,-0.11983 -7.12923,-4.79603 -7.12923,-4.79603z" fill="#ecec68" stroke="#0d0d00" stroke-width="1.5" stroke-linecap="butt"/><path d="M310.66796,71.61163c-5.66528,1.93571 -10.70456,14.98092 -15.75939,12.05734c-5.15688,-2.98261 2.80266,-17.30892 11.53393,-22.05766c9.04715,-5.50583 18.09249,-4.90433 22.57264,-2.27935c1.85322,1.08583 2.23456,3.20863 2.60566,4.29473c1.26824,3.71174 -15.28757,6.04924 -20.95285,7.98497z" fill="#6e6e30" stroke="#0d0d00" stroke-width="1.35" stroke-linecap="butt"/><path d="M350.42614,58.01025c-3.76506,-5.61091 -5.81962,-11.63783 -5.81962,-11.63783c0,0 0.30384,0.7571 -2.36682,11.64413c-1.69796,6.92191 -5.42517,16.15899 -5.42517,16.15899l-6.4928,-2.4151c0,0 4.68435,-8.84086 6.69161,-15.62115c3.53186,-11.93006 2.99962,-16.15507 5.7698,-16.39343c3.85976,-0.33212 10.39304,10.61913 16.85037,19.10349c3.39097,4.45545 7.01135,7.4113 5.13735,10.64969c-3.02218,5.22249 -9.20341,-3.82687 -14.34473,-11.48877z" fill="#0d0d00" stroke="none" stroke-width="NaN" stroke-linecap="butt"/><path d="M281.4525,73.55064c-2.55665,-2.73179 0.30305,-6.42859 2.60075,-11.53449c4.37543,-9.72302 8.26805,-21.86636 12.10315,-22.4141c2.75248,-0.39311 3.18772,3.84299 9.32142,14.66786c3.486,6.15217 10.04512,13.70742 10.04512,13.70742l-5.78006,3.81841c0,0 -5.71611,-8.15731 -8.93276,-14.51726c-5.05928,-10.00316 -4.93419,-10.80931 -4.93419,-10.80931c0,0 -0.64104,6.33513 -3.04236,12.65114c-3.27908,8.62472 -7.25802,18.83582 -11.38107,14.43032z" fill="#0d0d00" stroke="none" stroke-width="NaN" stroke-linecap="butt"/><path d="M293.72738,99.09989c3.8818,-2.37905 3.49805,2.3243 6.01571,5.14449c2.51767,2.82021 1.89061,7.10522 -1.96423,8.54375c-4.53518,1.6924 -10.43489,5.16217 -10.43489,5.16217c0,0 -3.27967,-12.92821 6.38341,-18.85042z" fill="#ecec68" stroke="#0d0d00" stroke-width="1.75" stroke-linecap="butt"/><path d="M291.96332,110.13513c1.92634,-5.27506 7.08965,-6.45832 11.30648,-3.9942c4.21683,2.46413 5.27816,7.89963 1.2589,11.10889c-2.14109,1.70961 -8.12841,7.83874 -8.12841,7.83874c0,0 -7.07728,-6.59457 -4.43696,-14.95342z" fill="#ecec68" stroke="#0d0d00" stroke-width="1.75" stroke-linecap="butt"/><path d="M344.05299,112.4642c-3.87135,-1.39347 -4.54834,-5.67089 -2.06374,-8.52026c2.4846,-2.84937 2.04602,-7.54792 5.9553,-5.2143c9.73149,5.80911 6.60283,18.77469 6.60283,18.77469c0,0 -5.93979,-3.40073 -10.49439,-5.04013z" fill="#ecec68" stroke="#0d0d00" stroke-width="1.75" stroke-linecap="butt"/><path d="M337.35566,117.00436c-4.05642,-3.16215 -3.05855,-8.60967 1.12925,-11.12281c4.1878,-2.51314 9.36458,-1.39019 11.35231,3.86207c3.10053,8.19266 -4.26227,15.00414 -4.26227,15.00414c0,0 -3.44698,-4.02316 -8.21929,-7.7434z" fill="#ecec68" stroke="#0d0d00" stroke-width="1.75" stroke-linecap="butt"/><path d="M307.99557,122.24102c-5.69661,-2.5635 -10.49163,-5.42655 -13.13505,-11.89723c-2.08926,-5.11419 -1.85513,-10.80292 -1.46639,-16.6843c0.38849,-5.87761 1.11268,-11.94741 4.75897,-18.47579c7.00911,-12.54918 21.48881,-12.65062 22.61273,-12.63931c1.12394,0.01132 15.72518,0.09072 22.73396,12.63931c3.64629,6.52837 4.37048,12.59819 4.75897,18.47579c0.38873,5.88138 0.62286,11.5701 -1.46639,16.6843c-2.64342,6.47066 -7.43844,9.33373 -13.13504,11.89723c-5.39641,2.42841 -11.39515,3.3438 -13.0226,3.29799c-1.52032,-0.04279 -7.24284,-0.86962 -12.63917,-3.29799z" fill="#ecec68" stroke="#0d0d00" stroke-width="1.75" stroke-linecap="butt"/><path d="M339.04019,116.77448l6.01075,-18.84336c0,0 1.43428,0.535 2.55838,1.31679c1.38347,0.96219 2.55882,2.25893 3.18698,2.91553c1.12275,1.17356 1.03928,2.85932 1.03928,2.85932c0,0 1.35926,3.52426 0.48275,5.42737c-0.22176,0.48149 -1.44308,-0.17556 -2.06704,0.48582c-0.85796,0.90941 -1.21618,3.20216 -2.0131,4.29841c-2.3957,3.29551 -3.96781,6.77614 -3.96781,6.77614z" fill="#ecec68" stroke="none" stroke-width="0" stroke-linecap="butt"/><path d="M297.83794,122.35916c0,0 -1.77771,-3.48488 -4.21167,-6.75222c-0.80966,-1.08688 -1.1946,-3.37531 -2.06309,-4.27464c-0.63163,-0.65406 -1.8452,0.01721 -2.07256,-0.46166c-0.89864,-1.89278 0.41942,-5.43264 0.41942,-5.43264c0,0 -0.10313,-1.68467 1.00586,-2.87125c0.62048,-0.66387 1.7806,-1.97422 3.15275,-2.9525c1.11489,-0.79486 2.54282,-1.34655 2.54282,-1.34655l6.73011,18.77197z" fill="#ecec68" stroke="none" stroke-width="0" stroke-linecap="butt"/><g stroke="#0d0d00" stroke-width="1" stroke-linecap="butt"><g fill="#c5c556"><path d="M295.83556,78.17875c0,0 0.39132,-4.0642 2.04432,-5.86842c1.65301,-1.80422 3.14092,-1.65074 3.94174,-0.66518c0.80081,0.98556 1.37584,2.66886 -0.27716,4.47305c-1.653,1.8042 -5.7089,2.06056 -5.7089,2.06056z"/><path d="M291.08547,83.36329c-0.80082,-0.98555 -1.08267,-2.37313 0.57032,-4.17733c1.65299,-1.80421 5.41571,-2.35626 5.41571,-2.35626c0,0 -0.30287,4.03515 -1.95585,5.83936c-1.65303,1.80422 -3.22937,1.6798 -4.0302,0.69423z"/></g><g fill="#c5c556"><path d="M295.98783,76.93115c0,0 3.69719,-0.29923 4.94292,1.23387c1.24575,1.53309 0.63092,3.15807 -0.43172,4.31792c-1.06265,1.15985 -2.55486,1.7376 -3.80059,0.20451c-1.24573,-1.53309 -0.71059,-5.75629 -0.71059,-5.75629z"/><path d="M291.79943,76.90166c-1.24575,-1.53308 -0.45398,-3.21619 0.60865,-4.37602c1.06265,-1.15985 2.61426,-1.85508 3.86,-0.322c1.24574,1.53308 0.65117,5.8738 0.65117,5.8738c0,0 -3.87412,0.35735 -5.11986,-1.17576z"/></g><path d="M298.15276,79.59543c-1.24529,1.3592 -3.01555,1.52478 -3.95403,0.36983c-0.93847,-1.15495 -0.68974,-3.19308 0.55554,-4.55227c1.24528,-1.35921 3.01556,-1.52477 3.95402,-0.36982c0.9385,1.15496 0.68974,3.19306 -0.55554,4.55225z" fill="#ffffd5"/></g><path d="M339.4597,98.14559c0,1.35406 -2.42468,4.46772 -8.74988,5.01552c-2.45304,0.21245 -5.79628,-1.12835 -9.55929,-1.12685c-3.76301,0.0015 -7.98178,1.23955 -9.79138,1.13459c-7.57266,-0.43924 -9.48996,-3.50651 -9.48996,-5.02326c0,-1.75491 -0.72124,-6.30589 8.70343,-6.4893c0.66747,-0.01299 6.5458,2.23698 10.90196,2.43859c4.35616,0.20162 7.55429,-1.57321 8.78166,-1.52758c8.55851,0.31814 9.20346,3.93478 9.20346,5.57829z" fill="#c4c44a" stroke="none" stroke-width="0" stroke-linecap="butt"/><path d="M294.65648,104.8901c0.67719,-2.43194 4.70912,-3.43354 9.00552,-2.23715c4.29643,1.1964 7.23039,4.13771 6.55318,6.56964c-0.67719,2.43195 -5.10477,2.63807 -9.40119,1.44168c-4.29642,-1.19638 -6.83474,-3.34225 -6.15755,-5.77418z" fill="#a5a549" stroke="none" stroke-width="0" stroke-linecap="butt"/><path d="M347.74644,104.26511c0.67719,2.43193 -1.86113,4.57781 -6.15755,5.77419c-4.29642,1.19639 -8.724,0.99027 -9.40119,-1.44168c-0.6772,-2.43193 2.25676,-5.37325 6.55318,-6.56965c4.2964,-1.19639 8.32833,-0.19479 9.00552,2.23716z" fill="#a5a549" stroke="none" stroke-width="0" stroke-linecap="butt"/><path d="M308.90002,118.60002c0,0 3.88263,-6.38082 5.79466,-6.36475c1.12242,0.00943 4.30755,2.7413 5.80652,2.73061c2.71605,-0.01936 4.0059,-2.6501 6.58407,-1.48902c1.23911,0.55803 5.61475,5.32316 5.61475,5.32316" fill="none" stroke="#0d0d00" stroke-width="1" stroke-linecap="round"/><g fill="#0d0d00" stroke="none" stroke-width="0" stroke-linecap="butt"><path d="M296.08243,99.04266l4.03315,5.29059l-7.55165,0.32519z"/><path d="M299.79724,103.3706l6.22887,3.24419l-8.09241,1.29745z"/><path d="M297.10435,102.46129l4.46385,3.58281l-6.27868,0.37848z"/></g><path d="M315.74618,98.95936c0,3.1767 -1.31363,5.88269 -4.29799,7.2735c-1.7772,0.82824 -4.79227,1.02873 -6.69823,1.02873c-5.10655,0 -9.24623,-4.10879 -9.24623,-9.17723c0,-5.06844 4.13968,-9.17722 9.24623,-9.17722c5.10655,0 10.99622,4.98378 10.99622,10.05222z" fill="#0d0d00" stroke="#0d0d00" stroke-width="1" stroke-linecap="butt"/><g fill="#6e6e30" stroke="none" stroke-width="0" stroke-linecap="butt"><path d="M301.78263,95.50427c0.36656,0 0.72221,0.05357 1.06133,0.15427c-0.05439,1.47279 -0.08826,2.98686 0.18469,4.36155c0.01806,0.10847 0.03478,0.2174 0.05025,0.32675c-0.92837,-0.00202 -1.85676,-0.00231 -2.78515,-0.0019c0.00875,-1.5203 0.05466,-3.0448 0.08784,-4.56769c0.43841,-0.17681 0.90994,-0.27298 1.40104,-0.27298z"/><path d="M306.12282,100.07362c-0.75118,0.10474 -1.52411,0.16254 -2.24781,0.275c-0.05683,-0.00017 -0.11366,-0.00034 -0.17048,-0.00051c-0.01898,-0.13985 -0.03993,-0.27907 -0.06303,-0.41757c-0.26155,-1.29774 -0.21607,-2.70155 -0.16539,-4.08075c1.48484,0.6822 2.55327,2.30373 2.64672,4.22384z"/><path d="M297.43577,100.34715c0.00025,-1.89196 0.94618,-3.53047 2.32511,-4.32746c-0.033,1.44206 -0.07883,2.88414 -0.08797,4.32553c-0.74572,0.0005 -1.49143,0.00132 -2.23714,0.00192z"/><path d="M301.78263,105.19153c-0.55415,0 -1.08339,-0.12244 -1.56824,-0.34503c0.03528,-1.32722 0.07783,-2.65318 0.07789,-3.99934c0.94947,0.00035 1.89894,0.0001 2.8484,-0.00172c0.14162,1.32142 0.12107,2.695 0.07919,4.05829c-0.44862,0.18625 -0.93259,0.2878 -1.43724,0.2878z"/><path d="M303.91289,100.84396c0.7108,-0.10833 1.47108,-0.16668 2.21197,-0.26765c-0.07189,1.77617 -0.97778,3.30244 -2.27875,4.07533c0.03542,-1.27958 0.04543,-2.56495 -0.08254,-3.80729c0.04978,-0.00012 0.09954,-0.00025 0.14932,-0.00038z"/><path d="M297.45777,100.84533c0.73784,0.00051 1.47568,0.00118 2.21353,0.0016c-0.00005,1.25573 -0.03708,2.49368 -0.07069,3.73153c-1.1723,-0.75187 -1.99994,-2.12629 -2.14284,-3.73313z"/></g><path d="M306.544,98.63637c0,0.57162 -0.67965,1.03503 -1.51803,1.03503c-0.83839,0 -1.51804,-0.4634 -1.51804,-1.03503c0,-0.57162 0.67966,-1.03502 1.51804,-1.03502c0.83839,0 1.51803,0.4634 1.51803,1.03502z" fill="#ffffff" stroke="none" stroke-width="0" stroke-linecap="butt"/><g fill="#0d0d00" stroke="none" stroke-width="0" stroke-linecap="butt"><path d="M348.82221,106.8969l-7.4169,-1.45694l4.78278,-4.62403z"/><path d="M343.02425,109.30634l-7.80534,-2.49947l6.64585,-2.27076z"/><path d="M345.86235,108.23118l-6.15039,-1.31822l4.9518,-2.8709z"/></g><path d="M337.34979,89.01158c5.10655,0 9.24622,4.10878 9.24622,9.17722c0,5.06844 -4.13967,9.17722 -9.24622,9.17722c-1.97484,0 -4.29224,-0.63319 -5.93194,-1.70298c-2.60026,-1.69648 -4.06429,-4.4909 -4.06429,-7.59924c0,-5.06844 4.88968,-9.05222 9.99623,-9.05222z" fill="#0d0d00" stroke="#0d0d00" stroke-width="1" stroke-linecap="butt"/><g fill="#6e6e30" stroke="none" stroke-width="0" stroke-linecap="butt"><path d="M341.85616,95.8817c0.03318,1.52289 0.07909,3.04739 0.08784,4.56769c-0.9284,-0.00041 -1.85678,-0.00012 -2.78515,0.0019c0.01547,-0.10935 0.03219,-0.21828 0.05025,-0.32675c0.27295,-1.37469 0.23908,-2.88877 0.18469,-4.36155c0.33912,-0.1007 0.69477,-0.15427 1.06133,-0.15427c0.49111,0 0.96263,0.09617 1.40104,0.27298z"/><path d="M338.76164,95.95423c0.05068,1.3792 0.09616,2.78301 -0.16539,4.08075c-0.0231,0.1385 -0.04406,0.27772 -0.06304,0.41757c-0.05683,0.00016 -0.11366,0.00034 -0.17048,0.00051c-0.7237,-0.11246 -1.49663,-0.17026 -2.24781,-0.275c0.09344,-1.92011 1.16188,-3.54163 2.64672,-4.22383z"/><path d="M342.56483,100.44967c-0.00914,-1.44139 -0.05497,-2.88347 -0.08796,-4.32553c1.37893,0.79699 2.32485,2.4355 2.32511,4.32746c-0.74571,-0.0006 -1.49142,-0.00143 -2.23714,-0.00192z"/><path d="M339.01787,105.00818c-0.04188,-1.36329 -0.06242,-2.73687 0.0792,-4.05829c0.94946,0.00181 1.89893,0.00208 2.84841,0.00172c0.00005,1.34616 0.0426,2.67211 0.07788,3.99933c-0.48485,0.22259 -1.01409,0.34503 -1.56824,0.34503c-0.50465,0 -0.98863,-0.10154 -1.43725,-0.28779z"/><path d="M338.47417,100.9488c-0.12797,1.24234 -0.11796,2.52771 -0.08254,3.80729c-1.30097,-0.77289 -2.20686,-2.29915 -2.27875,-4.07533c0.74089,0.10097 1.50117,0.15932 2.21197,0.26765c0.04978,0.00013 0.09954,0.00027 0.14932,0.00039z"/><path d="M342.63713,104.6829c-0.03361,-1.23785 -0.07064,-2.4758 -0.07068,-3.73153c0.73784,-0.00042 1.47568,-0.00109 2.21353,-0.0016c-0.1429,1.60684 -0.97055,2.98125 -2.14285,3.73313z"/></g><path d="M343.69794,97.70579c0.83839,0 1.51803,0.4634 1.51803,1.03502c0,0.57162 -0.67965,1.03503 -1.51803,1.03503c-0.83839,0 -1.51804,-0.4634 -1.51804,-1.03503c0,-0.57162 0.67965,-1.03502 1.51804,-1.03502z" fill="#ffffff" stroke="none" stroke-width="0" stroke-linecap="butt"/><path d="M321.31188,62.67378c0,0 6.19702,-4.9532 10.9564,-5.62755c23.00311,-3.25927 24.26905,21.85225 24.26905,21.85225l-4.76339,-2.11249c0,0 1.90988,2.44906 4.22447,8.54738c2.33918,6.1631 1.62674,10.90633 1.62674,10.90633c0,0 -2.68147,-2.1647 -4.14105,-3.05134c-1.39849,-0.84953 -4.441,-2.16191 -4.441,-2.16191c0,0 1.63214,3.03484 1.93199,6.22783c0.26616,2.83419 -1.71908,5.41393 -1.71908,5.41393c0,0 -3.12201,-5.669 -7.55576,-6.32457c-11.41022,-1.6871 -18.1011,-10.50154 -18.1011,-10.50154" fill="#ecec68" stroke="#0d0d00" stroke-width="1.75" stroke-linecap="round"/><path d="M304.93688,109.71991c0,-0.25 0.25,-0.25 0.25,-0.25c0.875,0 1.875,0 2.75,0c2.14366,0.0668 3.85465,-1.95333 6,-2c0,0 0.25,0 0.25,0.25c0,0.25 -0.25,0.25 -0.25,0.25c-2.08082,-0.07227 -3.86624,1.95742 -6,2c-0.875,0 -1.75,0 -2.625,0h-0.125c0,0 -0.25,0 -0.25,-0.25z" fill="#0d0d00" stroke="#0d0d00" stroke-width="0.5" stroke-linecap="butt"/><path d="M337.89523,109.59491c0,0.25 -0.25,0.25 -0.25,0.25h-0.25c-0.78686,0 -1.45749,-0.25 -2.25,-0.25c-2.01802,-0.00005 -4.01558,-2.19477 -5.625,-2.125c0,0 -0.25,0 -0.25,-0.25c0,-0.25 0.25,-0.25 0.25,-0.25c1.84864,0.05223 3.47321,2.12505 5.625,2.125c0.79566,0 1.46977,0.25 2.25,0.25h0.25c0,0 0.25,0 0.25,0.25z" fill="#0d0d00" stroke="#0d0d00" stroke-width="0.5" stroke-linecap="butt"/><path d="M297.82419,86.28446c0,0 3.48554,0.18606 8.15972,-3.03967c2.35871,-1.62778 7.9137,-5.78465 7.9137,-5.78465c0,0 -0.94934,6.064 -6.17982,8.25246c-6.75045,2.82443 -9.8936,0.57186 -9.8936,0.57186z" fill="#0d0d00" stroke="none" stroke-width="0" stroke-linecap="butt"/></g></g></svg>