<svg version="1.1" xmlns="http://www.w3.org/2000/svg" xmlns:xlink="http://www.w3.org/1999/xlink" width="751" height="784.00001" viewBox="0,0,751,784.00001"><defs><linearGradient x1="305.5" y1="73" x2="305.5" y2="402" gradientUnits="userSpaceOnUse" id="color-1"><stop offset="0" stop-color="#c1c151"/><stop offset="1" stop-color="#abab36"/></linearGradient><linearGradient x1="598" y1="-28.49999" x2="598" y2="434.50001" gradientUnits="userSpaceOnUse" id="color-2"><stop offset="0" stop-color="#787812" stop-opacity="0.6549"/><stop offset="1" stop-color="#2e2e02" stop-opacity="0.83137"/></linearGradient><linearGradient x1="30" y1="-28.5" x2="30" y2="434.5" gradientUnits="userSpaceOnUse" id="color-3"><stop offset="0" stop-color="#787812" stop-opacity="0.6549"/><stop offset="1" stop-color="#2e2e02" stop-opacity="0.83137"/></linearGradient><linearGradient x1="78" y1="-28.5" x2="78" y2="434.5" gradientUnits="userSpaceOnUse" id="color-4"><stop offset="0" stop-color="#787812" stop-opacity="0.6549"/><stop offset="1" stop-color="#2e2e02" stop-opacity="0.83137"/></linearGradient><linearGradient x1="124" y1="-28.49999" x2="124" y2="434.50001" gradientUnits="userSpaceOnUse" id="color-5"><stop offset="0" stop-color="#787812" stop-opacity="0.6549"/><stop offset="1" stop-color="#2e2e02" stop-opacity="0.83137"/></linearGradient><linearGradient x1="172" y1="-28.5" x2="172" y2="434.5" gradientUnits="userSpaceOnUse" id="color-6"><stop offset="0" stop-color="#787812" stop-opacity="0.6549"/><stop offset="1" stop-color="#2e2e02" stop-opacity="0.83137"/></linearGradient><linearGradient x1="219" y1="-28.49999" x2="219" y2="434.50001" gradientUnits="userSpaceOnUse" id="color-7"><stop offset="0" stop-color="#787812" stop-opacity="0.6549"/><stop offset="1" stop-color="#2e2e02" stop-opacity="0.83137"/></linearGradient><linearGradient x1="267" y1="-28.49999" x2="267" y2="434.50001" gradientUnits="userSpaceOnUse" id="color-8"><stop offset="0" stop-color="#787812" stop-opacity="0.6549"/><stop offset="1" stop-color="#2e2e02" stop-opacity="0.83137"/></linearGradient><linearGradient x1="313" y1="-28.49999" x2="313" y2="434.50001" gradientUnits="userSpaceOnUse" id="color-9"><stop offset="0" stop-color="#787812" stop-opacity="0.6549"/><stop offset="1" stop-color="#2e2e02" stop-opacity="0.83137"/></linearGradient><linearGradient x1="361" y1="-28.5" x2="361" y2="434.5" gradientUnits="userSpaceOnUse" id="color-10"><stop offset="0" stop-color="#787812" stop-opacity="0.6549"/><stop offset="1" stop-color="#2e2e02" stop-opacity="0.83137"/></linearGradient><linearGradient x1="408" y1="-28.49999" x2="408" y2="434.50001" gradientUnits="userSpaceOnUse" id="color-11"><stop offset="0" stop-color="#787812" stop-opacity="0.6549"/><stop offset="1" stop-color="#2e2e02" stop-opacity="0.83137"/></linearGradient><linearGradient x1="456" y1="-28.49999" x2="456" y2="434.50001" gradientUnits="userSpaceOnUse" id="color-12"><stop offset="0" stop-color="#787812" stop-opacity="0.6549"/><stop offset="1" stop-color="#2e2e02" stop-opacity="0.83137"/></linearGradient><linearGradient x1="502" y1="-28.49999" x2="502" y2="434.50001" gradientUnits="userSpaceOnUse" id="color-13"><stop offset="0" stop-color="#787812" stop-opacity="0.6549"/><stop offset="1" stop-color="#2e2e02" stop-opacity="0.83137"/></linearGradient><linearGradient x1="550" y1="-28.5" x2="550" y2="434.5" gradientUnits="userSpaceOnUse" id="color-14"><stop offset="0" stop-color="#787812" stop-opacity="0.6549"/><stop offset="1" stop-color="#2e2e02" stop-opacity="0.83137"/></linearGradient><linearGradient x1="328" y1="257.5" x2="328" y2="274.5" gradientUnits="userSpaceOnUse" id="color-15"><stop offset="0" stop-color="#989867"/><stop offset="1" stop-color="#515137"/></linearGradient><linearGradient x1="-28.5" y1="340.5" x2="684.5" y2="340.5" gradientUnits="userSpaceOnUse" id="color-16"><stop offset="0" stop-color="#535311"/><stop offset="1" stop-color="#3e3e01"/></linearGradient><linearGradient x1="329" y1="414.5" x2="329" y2="313.5" gradientUnits="userSpaceOnUse" id="color-17"><stop offset="0" stop-color="#1f1f00"/><stop offset="1" stop-color="#1f1f00" stop-opacity="0"/></linearGradient><linearGradient x1="-50.5" y1="134.99999" x2="50.5" y2="135" gradientUnits="userSpaceOnUse" id="color-18"><stop offset="0" stop-color="#1f1f00"/><stop offset="1" stop-color="#1f1f00" stop-opacity="0"/></linearGradient><linearGradient x1="700.5" y1="250" x2="599.5" y2="250" gradientUnits="userSpaceOnUse" id="color-19"><stop offset="0" stop-color="#1f1f00"/><stop offset="1" stop-color="#1f1f00" stop-opacity="0"/></linearGradient><linearGradient x1="326.5" y1="240" x2="326.5" y2="259" gradientUnits="userSpaceOnUse" id="color-20"><stop offset="0" stop-color="#1f1f00" stop-opacity="0"/><stop offset="1" stop-color="#1f1f00"/></linearGradient><linearGradient x1="339.5" y1="274.5" x2="339.5" y2="268" gradientUnits="userSpaceOnUse" id="color-21"><stop offset="0" stop-color="#1f1f00" stop-opacity="0"/><stop offset="1" stop-color="#1f1f00"/></linearGradient></defs><g transform="translate(50.5,199.50001)"><g data-paper-data="{&quot;isPaintingLayer&quot;:true}" fill-rule="nonzero" stroke="none" stroke-linecap="butt" stroke-linejoin="miter" stroke-miterlimit="10" stroke-dasharray="" stroke-dashoffset="0" style="mix-blend-mode: normal"><path d="M-43,402l0,-423l697,-1v424z" fill="url(#color-1)" stroke-width="0"/><g><g fill="url(#color-2)" stroke-width="0"><path d="M588.5,434.50001v-463h19v463z"/></g><g fill="none" stroke-width="1" font-family="sans-serif" font-weight="normal" font-size="12" text-anchor="start"/></g><g stroke-width="0"><g><path d="M20.5,434.5v-463h19v463z" fill="url(#color-3)"/><path d="M68.5,434.5v-463h19v463z" fill="url(#color-4)"/></g><g><path d="M114.5,434.50001v-463h19v463z" fill="url(#color-5)"/><path d="M162.5,434.5v-463h19v463z" fill="url(#color-6)"/></g></g><g stroke-width="0"><g><path d="M209.5,434.50001v-463h19v463z" fill="url(#color-7)"/><path d="M257.5,434.50001v-463h19v463z" fill="url(#color-8)"/></g><g><path d="M303.5,434.50001v-463h19v463z" fill="url(#color-9)"/><path d="M351.5,434.5v-463h19v463z" fill="url(#color-10)"/></g></g><g stroke-width="0"><g><path d="M398.5,434.50001v-463h19v463z" fill="url(#color-11)"/><path d="M446.5,434.50001v-463h19v463z" fill="url(#color-12)"/></g><g><path d="M492.5,434.50001v-463h19v463z" fill="url(#color-13)"/><path d="M540.5,434.5v-463h19v463z" fill="url(#color-14)"/></g></g><path d="M-28.5,274.5v-17h713v17z" fill="url(#color-15)" stroke-width="0"/><path d="M-28.5,412.5v-144h713v144z" fill="url(#color-16)" stroke-width="0"/><path d="M663.5,313.5v101h-669v-101z" fill="url(#color-17)" stroke-width="0"/><path d="M50.5,469.49999h-101v-669h101z" fill="url(#color-18)" stroke-width="0"/><path d="M599.5,-84.5h101v669h-101z" fill="url(#color-19)" stroke-width="0"/><path d="M-11.5,259v-19h676v19z" fill="url(#color-20)" stroke-width="0"/><path d="M677.5,268v6.5h-676v-6.5z" data-paper-data="{&quot;index&quot;:null}" fill="url(#color-21)" stroke-width="0"/></g></g></svg>