<svg version="1.1" xmlns="http://www.w3.org/2000/svg" xmlns:xlink="http://www.w3.org/1999/xlink" width="160.16666" height="245.05438" viewBox="0,0,160.16666,245.05438"><defs><linearGradient x1="320.76014" y1="55" x2="320.76014" y2="279" gradientUnits="userSpaceOnUse" id="color-1"><stop offset="0" stop-color="#ffff72" stop-opacity="0"/><stop offset="1" stop-color="#ffff72"/></linearGradient><linearGradient x1="319.5" y1="216" x2="319.5" y2="231.8" gradientUnits="userSpaceOnUse" id="color-2"><stop offset="0" stop-color="#6e6e30"/><stop offset="1" stop-color="#6e6e30" stop-opacity="0"/></linearGradient><linearGradient x1="319.31818" y1="216.45455" x2="319.31818" y2="232.25455" gradientUnits="userSpaceOnUse" id="color-3"><stop offset="0" stop-color="#6e6e30"/><stop offset="1" stop-color="#6e6e30" stop-opacity="0"/></linearGradient><linearGradient x1="290.66539" y1="267.05822" x2="306.46511" y2="267.15085" gradientUnits="userSpaceOnUse" id="color-4"><stop offset="0" stop-color="#6e6e30"/><stop offset="1" stop-color="#6e6e30" stop-opacity="0"/></linearGradient><linearGradient x1="349.99602" y1="267.30822" x2="334.1963" y2="267.40085" gradientUnits="userSpaceOnUse" id="color-5"><stop offset="0" stop-color="#6e6e30"/><stop offset="1" stop-color="#6e6e30" stop-opacity="0"/></linearGradient><linearGradient x1="318.3407" y1="216.45455" x2="318.3407" y2="200.65455" gradientUnits="userSpaceOnUse" id="color-6"><stop offset="0" stop-color="#6e6e30"/><stop offset="1" stop-color="#6e6e30" stop-opacity="0"/></linearGradient><radialGradient cx="320.47837" cy="130.0383" r="11.3" gradientUnits="userSpaceOnUse" id="color-7"><stop offset="0" stop-color="#e3e364"/><stop offset="1" stop-color="#adad4c"/></radialGradient></defs><g transform="translate(-235.25,-51)"><g stroke-miterlimit="10"><path d="M292.72545,269c0,0 0.80366,-43.39805 -6.06374,-67.512c-10.87516,-38.18664 -51.41171,-150.488 -51.41171,-150.488l160.16666,0.66666c0,0 -36.05952,112.29768 -42.72877,149.1979c-3.26636,18.0724 -2.32104,68.38544 -2.32104,68.38544z" fill="url(#color-1)" stroke="none" stroke-width="0" stroke-linecap="butt"/><g><path d="M335.62756,187.33376c-0.57113,0 -1.03411,-0.46299 -1.03411,-1.03411c0,-0.57113 0.46299,-1.03413 1.03411,-1.03413c0.57113,0 1.03411,0.463 1.03411,1.03413c0,0.57113 -0.46299,1.03411 -1.03411,1.03411z" fill="#000000" stroke="none" stroke-width="1.5" stroke-linecap="butt"/><path d="M330.36768,191.56936c-4.4635,-0.31439 -6.55245,-1.79392 -6.16985,-2.58011c0.11788,-0.24224 2.84645,1.06355 6.97038,1.3048c6.40897,0.37493 8.51033,-0.63173 8.51033,-0.63173v1.34616c0,0 -2.4135,1.04672 -9.31086,0.56089z" fill="#000000" stroke="#000000" stroke-width="0" stroke-linecap="butt"/><path d="M302.55493,186.29965c0,-0.57113 0.46299,-1.03413 1.03411,-1.03413c0.57113,0 1.03413,0.463 1.03413,1.03413c0,0.57113 -0.463,1.03411 -1.03413,1.03411c-0.57113,0 -1.03411,-0.46299 -1.03411,-1.03411z" fill="#000000" stroke="none" stroke-width="1.5" stroke-linecap="butt"/><path d="M308.84892,191.56936c-6.89736,0.48585 -9.31086,-0.56089 -9.31086,-0.56089v-1.34616c0,0 2.10136,1.00666 8.51033,0.63173c4.12393,-0.24126 6.85251,-1.54704 6.97039,-1.3048c0.3826,0.78618 -1.70634,2.26571 -6.16985,2.58011z" fill="#000000" stroke="#000000" stroke-width="0" stroke-linecap="butt"/><path d="M320.12938,248.12113c-0.81895,0 -1.48284,-0.66389 -1.48284,-1.48284c0,-0.81895 0.66389,-1.48284 1.48284,-1.48284c0.81895,0 1.48284,0.66389 1.48284,1.48284c0,0.81895 -0.66389,1.48284 -1.48284,1.48284z" fill="#000000" stroke="none" stroke-width="1.5" stroke-linecap="butt"/><path d="M289.08923,295.02914c0,0 -1.35995,-66.85953 -1.35995,-83.59772c0,-6.68739 -12.37555,-15.39873 -12.37555,-15.39873l88.03466,-0.136c0,0 -11.55958,8.92935 -11.55958,15.67072c0,16.77919 -0.40798,83.73371 -0.40798,83.73371z" fill="#c2c255" stroke="#6e6e30" stroke-width="1.5" stroke-linecap="butt"/><path d="M264.11889,203.12087v-19.97271h110.06241v19.97271z" fill="#c2c255" stroke="#6e6e30" stroke-width="1.5" stroke-linecap="butt"/><path d="M293.16667,203.84849c0,0 2.44858,5.24474 2.65245,7.95251c0.84342,11.20225 1.40816,83.1384 1.40816,83.1384" fill="none" stroke="#6e6e30" stroke-width="1.5" stroke-linecap="round"/><path d="M342.16479,294.42527c0,0 -0.07459,-72.13397 0.61338,-83.34684c0.16629,-2.71033 2.54189,-7.98854 2.54189,-7.98854" fill="none" stroke="#6e6e30" stroke-width="1.5" stroke-linecap="round"/><path d="M303.5303,203.39394c0,0 2.44858,5.24474 2.65245,7.95252c0.84342,11.20225 1.58998,83.50203 1.58998,83.50203" fill="none" stroke="#6e6e30" stroke-width="1.5" stroke-linecap="round"/><path d="M331.16667,295.21212c0,0 -0.52617,-72.39069 0.31725,-83.59294c0.20387,-2.70777 2.65245,-7.95252 2.65245,-7.95252" fill="none" stroke="#6e6e30" stroke-width="1.5" stroke-linecap="round"/><path d="M318.75455,203.56364l1.45454,90.65455" fill="none" stroke="#6e6e30" stroke-width="1.5" stroke-linecap="round"/><path d="M271.9,203.2v-20.4h3v20.4z" fill="#6e6e30" stroke="none" stroke-width="0" stroke-linecap="butt"/><path d="M284.7,203.4v-20.4h3v20.4z" fill="#6e6e30" stroke="none" stroke-width="0" stroke-linecap="butt"/><path d="M299.7,203.4v-20.4h3v20.4z" fill="#6e6e30" stroke="none" stroke-width="0" stroke-linecap="butt"/><path d="M315.1,203.4v-20.4h3v20.4z" fill="#6e6e30" stroke="none" stroke-width="0" stroke-linecap="butt"/><path d="M330.5,203.4v-20.4h3v20.4z" fill="#6e6e30" stroke="none" stroke-width="0" stroke-linecap="butt"/><path d="M344.9,203v-20.4h3v20.4z" fill="#6e6e30" stroke="none" stroke-width="0" stroke-linecap="butt"/><path d="M360.7,203.4v-20.4h3v20.4z" fill="#6e6e30" stroke="none" stroke-width="0" stroke-linecap="butt"/><path d="M287.35455,218.8c0,0 0.54305,-6.31197 0.00089,-8.79166c-0.60289,-2.75744 -4.27361,-7.00834 -4.27361,-7.00834h73.83636c0,0 -3.74133,3.27577 -4.51411,5.67415c-0.90364,2.8045 -0.5768,10.12586 -0.5768,10.12586z" fill="url(#color-2)" stroke="none" stroke-width="0" stroke-linecap="butt"/><path d="M287.17273,219.25455c0,0 0.54305,-6.31197 0.00088,-8.79166c-0.60289,-2.75744 -4.27361,-7.00834 -4.27361,-7.00834h73.83636c0,0 -3.74132,3.27577 -4.5141,5.67415c-0.90364,2.8045 -0.5768,10.12586 -0.5768,10.12586z" fill="url(#color-3)" stroke="none" stroke-width="0" stroke-linecap="butt"/><path d="M309.27663,294.54576l-10.7915,0.19757l-9.28328,0.23244l-2.31707,-91.83509l21.01988,0.18346z" fill="url(#color-4)" stroke="none" stroke-width="0" stroke-linecap="butt"/><path d="M332.75675,203.57414l21.01988,-0.18346l-2.31707,91.83509l-9.28328,-0.23244l-10.7915,-0.19757z" fill="url(#color-5)" stroke="none" stroke-width="0" stroke-linecap="butt"/><path d="M374.64546,187.65455l-0.16369,15.8h-110.78177l0.10912,-16z" fill="url(#color-6)" stroke="none" stroke-width="0" stroke-linecap="butt"/></g><path d="M355.92837,118.70496c0,3.06867 -0.3781,6.05238 -1.09193,8.91037c-0.62302,2.4944 5.31209,3.25003 1.79192,10.1688c-2.43967,4.79509 -7.32374,2.19346 -9.21361,4.48985c-7.2348,8.79104 -18.42596,14.43098 -30.98639,14.43098c-2.45902,0 -4.86556,-0.21617 -7.20021,-0.62983c-3.95775,-0.70125 -6.69768,4.72728 -13.75886,2.6846c-8.70341,-2.51776 -4.59757,-10.79614 -7.5298,-13.73254c-6.81938,-6.82907 -11.01113,-16.10472 -11.01113,-26.32222c0,-8.05924 2.60791,-15.53249 7.05617,-21.68134c1.65461,-2.28717 -3.54817,-6.99934 3.48819,-12.47377c6.16296,-4.79491 8.35827,1.50004 11.93244,-0.14464c5.15482,-2.37202 10.92777,-3.70024 17.02319,-3.70024c21.81525,0 39.5,17.01318 39.5,38z" fill="#e3e364" stroke="none" stroke-width="NaN" stroke-linecap="butt"/><path d="M289.52837,128.5383c0,4.91533 -3.71603,8.9 -8.3,8.9c-4.58397,0 -8.3,-3.98467 -8.3,-8.9c0,-4.91533 3.71604,-8.9 8.3,-8.9c4.58397,0 8.3,3.98467 8.3,8.9z" fill="#e3e364" stroke="none" stroke-width="0" stroke-linecap="butt"/><path d="M284.92837,118.83829c0,3.75554 -2.46243,6.8 -5.5,6.8c-3.03757,0 -5.5,-3.04447 -5.5,-6.8c0,-3.75554 2.46243,-6.8 5.5,-6.8c3.03757,0 5.5,3.04446 5.5,6.8z" fill="#e3e364" stroke="none" stroke-width="0" stroke-linecap="butt"/><path d="M355.32837,97.1383c0,6.90356 -5.64121,12.5 -12.6,12.5c-6.95879,0 -12.6,-5.59644 -12.6,-12.5c0,-6.90356 5.64121,-12.5 12.6,-12.5c6.95879,0 12.6,5.59644 12.6,12.5z" fill="#e3e364" stroke="none" stroke-width="0" stroke-linecap="butt"/><path d="M356.92837,108.1383c0,3.25848 -1.83564,5.9 -4.1,5.9c-2.26436,0 -4.1,-2.64152 -4.1,-5.9c0,-3.25848 1.83563,-5.9 4.1,-5.9c2.26436,0 4.1,2.64152 4.1,5.9z" fill="#e3e364" stroke="none" stroke-width="0" stroke-linecap="butt"/><path d="M352.52837,142.6383c0,3.42416 -2.86538,6.2 -6.4,6.2c-3.53462,0 -6.4,-2.77584 -6.4,-6.2c0,-3.42416 2.86538,-6.2 6.4,-6.2c3.53462,0 6.4,2.77584 6.4,6.2z" fill="#e3e364" stroke="none" stroke-width="0" stroke-linecap="butt"/><path d="M310.92837,158.33829c0,4.91533 -0.9402,8.9 -2.1,8.9c-1.1598,0 -2.1,-3.98467 -2.1,-8.9c0,-4.91533 0.9402,-8.9 2.1,-8.9c1.1598,0 2.1,3.98466 2.1,8.9z" fill="#e3e364" stroke="none" stroke-width="0" stroke-linecap="butt"/><path d="M343.52837,148.33829c0,5.90945 -0.67158,10.7 -1.5,10.7c-0.82842,0 -1.5,-4.79056 -1.5,-10.7c0,-5.90945 0.67158,-10.7 1.5,-10.7c0.82842,0 1.5,4.79055 1.5,10.7z" fill="#e3e364" stroke="none" stroke-width="0" stroke-linecap="butt"/><path d="M282.32837,140.1383c0,7.45585 -0.58203,13.5 -1.3,13.5c-0.71797,0 -1.3,-6.04415 -1.3,-13.5c0,-7.45585 0.58203,-13.5 1.3,-13.5c0.71797,0 1.3,6.04415 1.3,13.5z" fill="#e3e364" stroke="none" stroke-width="0" stroke-linecap="butt"/><path d="M284.92837,137.4383c0.7732,0 1.4,2.77584 1.4,6.2c0,3.42416 -0.6268,6.2 -1.4,6.2c-0.7732,0 -1.4,-2.77584 -1.4,-6.2c0,-3.42416 0.6268,-6.2 1.4,-6.2z" fill="#e3e364" stroke="none" stroke-width="0" stroke-linecap="butt"/><path d="M281.12837,97.8383c0,1.32549 -1.07451,2.4 -2.4,2.4c-1.32548,0 -2.4,-1.07451 -2.4,-2.4c0,-1.32549 1.07452,-2.4 2.4,-2.4c1.32548,0 2.4,1.07452 2.4,2.4z" fill="#e3e364" stroke="none" stroke-width="0" stroke-linecap="butt"/><path d="M275.32837,109.5383c0,1.38071 -1.16406,2.5 -2.6,2.5c-1.43594,0 -2.6,-1.11929 -2.6,-2.5c0,-1.38071 1.16406,-2.5 2.6,-2.5c1.43594,0 2.6,1.11929 2.6,2.5z" fill="#e3e364" stroke="none" stroke-width="0" stroke-linecap="butt"/><path d="M366.12837,120.33829c0,1.71209 -1.34314,3.1 -3,3.1c-1.65686,0 -3,-1.38792 -3,-3.1c0,-1.71209 1.34314,-3.1 3,-3.1c1.65686,0 3,1.38791 3,3.1z" fill="#e3e364" stroke="none" stroke-width="0" stroke-linecap="butt"/><path d="M361.12837,146.0383c0,1.65686 -1.38791,3 -3.1,3c-1.71209,0 -3.1,-1.34314 -3.1,-3c0,-1.65686 1.38792,-3 3.1,-3c1.71209,0 3.1,1.34314 3.1,3z" fill="#e3e364" stroke="none" stroke-width="0" stroke-linecap="butt"/><path d="M364.52837,141.5383c0,0.60752 -0.44772,1.1 -1,1.1c-0.55228,0 -1,-0.49248 -1,-1.1c0,-0.60752 0.44772,-1.1 1,-1.1c0.55228,0 1,0.49248 1,1.1z" fill="#e3e364" stroke="none" stroke-width="0" stroke-linecap="butt"/><path d="M290.12837,159.2383c0,1.32548 -0.98497,2.4 -2.2,2.4c-1.21502,0 -2.2,-1.07452 -2.2,-2.4c0,-1.32548 0.98497,-2.4 2.2,-2.4c1.21502,0 2.2,1.07452 2.2,2.4z" fill="#e3e364" stroke="none" stroke-width="0" stroke-linecap="butt"/><path d="M310.52837,72.1383c0,3.14803 -2.46243,5.7 -5.5,5.7c-3.03757,0 -5.5,-2.55197 -5.5,-5.7c0,-3.14803 2.46243,-5.7 5.5,-5.7c3.03757,0 5.5,2.55197 5.5,5.7z" fill="#e3e364" stroke="none" stroke-width="0" stroke-linecap="butt"/><path d="M319.32837,74.4383c0,1.43594 -1.02975,2.6 -2.3,2.6c-1.27025,0 -2.3,-1.16406 -2.3,-2.6c0,-1.43594 1.02974,-2.6 2.3,-2.6c1.27025,0 2.3,1.16406 2.3,2.6z" fill="#e3e364" stroke="none" stroke-width="0" stroke-linecap="butt"/><path d="M350.32837,75.73829c0,3.58985 -2.5072,6.5 -5.6,6.5c-3.0928,0 -5.6,-2.91015 -5.6,-6.5c0,-3.58985 2.5072,-6.5 5.6,-6.5c3.0928,0 5.6,2.91015 5.6,6.5z" fill="#e3e364" stroke="none" stroke-width="0" stroke-linecap="butt"/><path d="M354.92837,80.73829c0,1.60162 -1.2536,2.9 -2.8,2.9c-1.5464,0 -2.8,-1.29838 -2.8,-2.9c0,-1.60162 1.2536,-2.9 2.8,-2.9c1.5464,0 2.8,1.29837 2.8,2.9z" fill="#e3e364" stroke="none" stroke-width="0" stroke-linecap="butt"/><path d="M345.22837,121.6383c0,0 -12.554,5.3 -27.3,5.3c-14.746,0 -26.1,-5.3 -26.1,-5.3c0,0 11.95399,-15.5 26.7,-15.5c14.746,0 26.7,15.5 26.7,15.5z" fill="#e3e3e3" stroke="#979742" stroke-width="1.5" stroke-linecap="butt"/><path d="M329.97837,116.7383c0,5.63331 -5.05918,10.2 -11.3,10.2c-6.24082,0 -11.3,-4.5667 -11.3,-10.2c0,-5.63331 5.05918,-10.2 11.3,-10.2c6.24082,0 11.3,4.56669 11.3,10.2z" fill="url(#color-7)" stroke="#979742" stroke-width="1.5" stroke-linecap="butt"/><path d="M322.37837,116.3883c0,2.8995 -1.70132,5.25 -3.8,5.25c-2.09868,0 -3.8,-2.3505 -3.8,-5.25c0,-2.8995 1.70132,-5.25 3.8,-5.25c2.09868,0 3.8,2.3505 3.8,5.25z" fill="#000000" stroke="none" stroke-width="0" stroke-linecap="butt"/></g></g></svg>