<svg version="1.1" xmlns="http://www.w3.org/2000/svg" xmlns:xlink="http://www.w3.org/1999/xlink" width="378" height="460.00001" viewBox="0,0,378,460.00001"><defs><linearGradient x1="320" y1="-67.5" x2="320" y2="269.5" gradientUnits="userSpaceOnUse" id="color-1"><stop offset="0" stop-color="#ffffd1"/><stop offset="1" stop-color="#f1f19c"/></linearGradient></defs><g transform="translate(-131,83.00001)"><g data-paper-data="{&quot;isPaintingLayer&quot;:true}" stroke-miterlimit="10" stroke-dasharray="" stroke-dashoffset="0" style="mix-blend-mode: normal"><path d="M145.24891,375c-6.76488,0 -12.24891,-5.33739 -12.24891,-11.9214v-432.15721c0,-6.58401 5.48402,-11.9214 12.24891,-11.9214h349.50219c6.76488,0 12.2489,5.33739 12.2489,11.9214v432.15721c0,6.584 -5.48402,11.9214 -12.2489,11.9214z" fill="#535311" fill-rule="nonzero" stroke="#212108" stroke-width="4" stroke-linecap="butt" stroke-linejoin="miter"/><path d="M160.66812,361.5c-6.16798,0 -11.16812,-4.94148 -11.16812,-11.03711v-406.92577c0,-6.09563 5.00014,-11.03711 11.16812,-11.03711h318.66376c6.16798,0 11.16812,4.94149 11.16812,11.03712v406.92577c0,6.09563 -5.00014,11.03711 -11.16812,11.03711z" fill="url(#color-1)" fill-rule="nonzero" stroke="#212108" stroke-width="4.5" stroke-linecap="butt" stroke-linejoin="miter"/><text transform="translate(160.5,-35.68135) scale(0.61033,0.61033)" font-size="40" xml:space="preserve" fill="#212108" fill-rule="nonzero" stroke="none" stroke-width="1" stroke-linecap="butt" stroke-linejoin="miter" stroke-miterlimit="10" stroke-dasharray="" stroke-dashoffset="0" font-family="&quot;Allan-Regular&quot;, Sans Serif" font-weight="normal" text-anchor="start" style="mix-blend-mode: normal"><tspan x="0" dy="0">name: Monster</tspan><tspan x="0" dy="46.150000000000006px">age: doesn't matter</tspan><tspan x="0" dy="46.150000000000006px">occupation: McMustard fry cook</tspan></text><g><path d="M432.53444,-56.08653h32.93116c6.43804,0 11.62097,5.18296 11.62097,11.62097v32.93116c0,6.43802 -5.18294,11.62098 -11.62097,11.62098h-32.93116c-6.43802,0 -11.62098,-5.18296 -11.62098,-11.62097v-32.93116c0,-6.43801 5.18296,-11.62097 11.62098,-11.62097z" fill="#a0a300" fill-rule="evenodd" stroke="#212108" stroke-width="2" stroke-linecap="round" stroke-linejoin="round"/><g fill="none" fill-rule="nonzero" stroke="none" stroke-width="1" stroke-linecap="butt" stroke-linejoin="miter" font-family="sans-serif" font-weight="normal" font-size="12" text-anchor="start"><g/><g data-paper-data="{&quot;index&quot;:null}"/></g></g><text transform="translate(160.5,55.85842) scale(0.5537,0.5537)" font-size="40" xml:space="preserve" fill="#212108" fill-rule="nonzero" stroke="none" stroke-width="1" stroke-linecap="butt" stroke-linejoin="miter" stroke-miterlimit="10" stroke-dasharray="" stroke-dashoffset="0" font-family="&quot;Allan-Regular&quot;, Sans Serif" font-weight="normal" text-anchor="start" style="mix-blend-mode: normal"><tspan x="0" dy="0">Description-</tspan><tspan x="0" dy="46.150000000000006px">While eating people alive is fun, it doesn’t</tspan><tspan x="0" dy="46.150000000000006px">pay the bills, and everyone has to start </tspan><tspan x="0" dy="46.150000000000006px">somewhere. Although Monster is a psychotic, </tspan><tspan x="0" dy="46.150000000000006px">violent, scary entity who’s more interested </tspan><tspan x="0" dy="46.150000000000006px">in chewing people’s teeth like sunflower seeds, </tspan><tspan x="0" dy="46.150000000000006px">McMustard’s standards are low and honestly </tspan><tspan x="0" dy="46.150000000000006px">he can grill like a stud. Every so once in a while </tspan><tspan x="0" dy="46.150000000000006px">a customer will report a finger in their soup, </tspan><tspan x="0" dy="46.150000000000006px">and a missing person’s report will be filed for </tspan><tspan x="0" dy="46.150000000000006px">an employee. Is it Monster? Maybe, but are ears </tspan><tspan x="0" dy="46.150000000000006px">good in burgers? Fuck no shits gross.</tspan></text><path d="M160.16667,-30.16667v-1.66667h252.16667v1.66667z" fill="#212108" fill-rule="nonzero" stroke="none" stroke-width="0" stroke-linecap="butt" stroke-linejoin="miter"/><path d="M160.16667,-0.66667v-1.66667h252.16667v1.66667z" fill="#212108" fill-rule="nonzero" stroke="none" stroke-width="0" stroke-linecap="butt" stroke-linejoin="miter"/><path d="M160.16667,29.33333v-1.66667h252.16667v1.66667z" fill="#212108" fill-rule="nonzero" stroke="none" stroke-width="0" stroke-linecap="butt" stroke-linejoin="miter"/><g fill-rule="nonzero" stroke-width="1.5" stroke-linejoin="miter"><path d="M432.04948,-20.29607c-0.03724,3.41387 -0.54603,6.17616 -1.13639,6.16972c-0.59036,-0.00643 -1.03877,-2.77917 -1.00153,-6.19305c0.03724,-3.41387 0.54603,-6.17616 1.1364,-6.16972c0.59036,0.00643 1.03876,2.77917 1.00152,6.19305z" fill="#000000" stroke="none" stroke-linecap="butt"/><path d="M469.97829,-30.87147c0.92255,-0.03619 1.75635,2.1247 1.86237,4.82644c0.10601,2.7018 -0.55594,4.92134 -1.47847,4.95754c-0.92255,0.03619 -1.75635,-2.1247 -1.86237,-4.82644c-0.10601,-2.7018 0.55592,-4.92134 1.47847,-4.95753z" data-paper-data="{&quot;index&quot;:null}" fill="#000000" stroke="none" stroke-linecap="butt"/><path d="M469.5957,-25.70999c-0.02952,2.70367 -0.80181,4.8873 -1.725,4.87724c-0.9232,-0.01006 -1.64771,-2.20998 -1.61821,-4.91369c0.02952,-2.70367 0.80181,-4.88728 1.72501,-4.87722c0.9232,0.01006 1.6477,2.20998 1.6182,4.91367z" fill="#000000" stroke="none" stroke-linecap="butt"/><path d="M464.90569,-29.95341c1.06732,-0.39676 2.24902,2.15151 2.63941,5.69172c0.39038,3.54022 -0.15838,6.7318 -1.22572,7.12856c-1.06732,0.39676 -2.24902,-2.15153 -2.6394,-5.69175c-0.39038,-3.54021 0.15838,-6.73177 1.2257,-7.12853z" data-paper-data="{&quot;index&quot;:null}" fill="#000000" stroke="none" stroke-linecap="butt"/><path d="M460.45832,-25.55663c0.73322,0.08121 1.02603,3.45732 0.654,7.54076c-0.37203,4.08344 -1.26801,7.3279 -2.00122,7.24669c-0.73322,-0.08121 -1.02603,-3.45731 -0.65398,-7.54075c0.37203,-4.08344 1.26801,-7.3279 2.00122,-7.24669z" data-paper-data="{&quot;index&quot;:null}" fill="#000000" stroke="none" stroke-linecap="butt"/><path d="M462.39784,-25.07213c1.12291,0.30263 1.97446,2.31014 1.90205,4.48386c-0.07243,2.17375 -1.04144,3.69054 -2.16436,3.38791c-1.12291,-0.30263 -1.97447,-2.31016 -1.90206,-4.48386c0.07243,-2.17375 1.04145,-3.69054 2.16437,-3.38791z" data-paper-data="{&quot;index&quot;:null}" fill="#000000" stroke="none" stroke-linecap="butt"/><path d="M463.80334,-24.86788c0.58994,-0.02314 1.17671,2.72364 1.31056,6.13509c0.13385,3.41147 -0.23589,6.19577 -0.82583,6.21891c-0.58994,0.02314 -1.17671,-2.72362 -1.31056,-6.13509c-0.13385,-3.41146 0.23589,-6.19578 0.82583,-6.21892z" data-paper-data="{&quot;index&quot;:null}" fill="#000000" stroke="none" stroke-linecap="butt"/><path d="M457.70608,-23.31502c0.71063,-0.02788 1.35289,1.63662 1.43455,3.71774c0.08166,2.08115 -0.42821,3.79085 -1.13884,3.81873c-0.71063,0.02787 -1.3529,-1.63664 -1.43456,-3.71776c-0.08166,-2.08115 0.42822,-3.79085 1.13885,-3.81871z" data-paper-data="{&quot;index&quot;:null}" fill="#000000" stroke="none" stroke-linecap="butt"/><path d="M455.55582,-18.09981c0.48746,4.07126 0.29034,7.45432 -0.44027,7.55623c-0.73062,0.10193 -1.71807,-3.11588 -2.20553,-7.18714c-0.48746,-4.07126 -0.29032,-7.45433 0.44029,-7.55624c0.73062,-0.10193 1.71805,3.11589 2.20551,7.18715z" fill="#000000" stroke="none" stroke-linecap="butt"/><path d="M453.73455,-18.341c0.13392,2.1708 -0.66048,4.20158 -1.77439,4.5359c-1.11389,0.33432 -2.12546,-1.15447 -2.25937,-3.3253c-0.13392,-2.1708 0.66046,-4.20159 1.77437,-4.53589c1.11389,-0.33432 2.12548,1.15447 2.25939,3.32529z" fill="#000000" stroke="none" stroke-linecap="butt"/><path d="M451.02765,-18.31076c-0.03724,3.41387 -0.54602,6.17616 -1.1364,6.16973c-0.59036,-0.00643 -1.03877,-2.77917 -1.00153,-6.19306c0.03724,-3.41387 0.54602,-6.17616 1.1364,-6.16972c0.59036,0.00643 1.03877,2.77917 1.00153,6.19305z" fill="#000000" stroke="none" stroke-linecap="butt"/><path d="M457.41138,-19.3392c-0.02272,2.0826 -0.61764,3.76463 -1.32877,3.75688c-0.71113,-0.00775 -1.2692,-1.70234 -1.24647,-3.78496c0.02272,-2.0826 0.61761,-3.76461 1.32874,-3.75686c0.71113,0.00775 1.26922,1.70233 1.24648,3.78495z" fill="#000000" stroke="none" stroke-linecap="butt"/><path d="M447.66084,-14.90354c0.4044,5.41211 0.23926,9.72918 -0.36889,9.64239c-0.60811,-0.08676 -1.42894,-4.54453 -1.83335,-9.95664c-0.4044,-5.41211 -0.23925,-9.72918 0.36889,-9.64238c0.60811,0.08676 1.42894,4.54453 1.83334,9.95664z" fill="#000000" stroke="none" stroke-linecap="butt"/><path d="M445.94839,-18.03634c0.13392,2.1708 -0.66049,4.20158 -1.77439,4.53589c-1.11389,0.33432 -2.12546,-1.15447 -2.25937,-3.32528c-0.13392,-2.1708 0.66048,-4.20159 1.77439,-4.53589c1.11389,-0.33432 2.12546,1.15447 2.25938,3.32528z" fill="#000000" stroke="none" stroke-linecap="butt"/><path d="M446.1616,-20.06314c-0.01846,1.69184 -0.50173,3.05825 -1.07943,3.05195c-0.5777,-0.0063 -1.03106,-1.38292 -1.01259,-3.07476c0.01846,-1.69184 0.50173,-3.05825 1.07945,-3.05195c0.5777,0.0063 1.03104,1.38291 1.01259,3.07476z" fill="#000000" stroke="none" stroke-linecap="butt"/><path d="M443.2415,-18.00611c-0.03724,3.41387 -0.54603,6.17618 -1.1364,6.16973c-0.59036,-0.00643 -1.03877,-2.77916 -1.00153,-6.19305c0.03724,-3.41387 0.54603,-6.17618 1.1364,-6.16972c0.59036,0.00643 1.03877,2.77916 1.00153,6.19305z" fill="#000000" stroke="none" stroke-linecap="butt"/><path d="M449.62522,-19.03455c-0.02272,2.0826 -0.61764,3.76462 -1.32877,3.75687c-0.71113,-0.00775 -1.26919,-1.70233 -1.24647,-3.78495c0.02272,-2.0826 0.61761,-3.76462 1.32874,-3.75686c0.71113,0.00775 1.26922,1.70232 1.24648,3.78495z" fill="#000000" stroke="none" stroke-linecap="butt"/><path d="M437.02387,-18.30104c-0.01846,1.69184 -0.50173,3.05826 -1.07945,3.05196c-0.5777,-0.00629 -1.03106,-1.38291 -1.01259,-3.07476c0.01846,-1.69184 0.50173,-3.05826 1.07945,-3.05196c0.5777,0.0063 1.03105,1.38291 1.01259,3.07476z" fill="#000000" stroke="none" stroke-linecap="butt"/><path d="M434.10377,-16.24401c-0.03724,3.41389 -0.54603,6.17618 -1.13639,6.16973c-0.59036,-0.00643 -1.03878,-2.77916 -1.00154,-6.19305c0.03724,-3.41389 0.54603,-6.17618 1.1364,-6.16972c0.59036,0.00643 1.03877,2.77916 1.00153,6.19305z" fill="#000000" stroke="none" stroke-linecap="butt"/><path d="M440.48748,-17.27245c-0.02272,2.0826 -0.61762,3.76461 -1.32876,3.75686c-0.71113,-0.00775 -1.26922,-1.70234 -1.24648,-3.78495c0.02272,-2.0826 0.61764,-3.76461 1.32877,-3.75686c0.71113,0.00775 1.2692,1.70234 1.24647,3.78495z" fill="#000000" stroke="none" stroke-linecap="butt"/><path d="M441.91552,-19.83088c-0.01848,1.69409 -2.27261,3.04302 -5.03476,3.0129c-2.76214,-0.03012 -4.98631,-1.4279 -4.96783,-3.12199c0.01848,-1.69409 2.27262,-3.04304 5.03475,-3.0129c2.76214,0.03012 4.9863,1.42792 4.96782,3.12203z" fill="#000000" stroke="none" stroke-linecap="butt"/><path d="M467.1237,-36.36973c1.74726,7.52866 -5.33438,15.60407 -15.81732,18.03698c-10.48293,2.43289 -20.39746,-1.69802 -22.14472,-9.22667c-1.74726,-7.52866 5.33438,-15.6041 15.81733,-18.037c10.48293,-2.43289 20.39746,1.69803 22.14473,9.22669z" fill="#d9db56" stroke="#000000" stroke-linecap="butt"/><path d="M439.57825,-29.62264c1.0158,4.45201 -1.40393,8.83345 -5.40462,9.78621c-4.00069,0.95276 -8.06736,-1.88392 -9.08316,-6.33595c-1.0158,-4.45201 1.40393,-8.83345 5.40463,-9.78621c4.00069,-0.95276 8.06734,1.88394 9.08316,6.33595z" fill="#d9db56" stroke="#000000" stroke-linecap="butt"/><path d="M436.73209,-20.38918c0,0 -3.95453,-11.83429 -4.57557,-14.64421c-0.25612,-1.15879 0.82082,-2.34436 0.82082,-2.34436l9.01695,-1.68389l3.68962,16.69396c0,0 -6.23429,2.09885 -7.58736,2.39791c-0.45738,0.10109 -1.36448,-0.41942 -1.36448,-0.41942z" fill="#d9db56" stroke="none" stroke-linecap="butt"/><path d="M462.27911,-43.18936c6.03618,-1.26554 9.14859,2.40819 10.0885,6.87697c0.93992,4.46879 -0.64854,8.04039 -6.68472,9.30593c-6.03618,1.26554 -11.69145,-1.3312 -12.63137,-5.79998c-0.93992,-4.46878 3.19141,-9.11738 9.22759,-10.38292z" data-paper-data="{&quot;index&quot;:null}" fill="#d9db56" stroke="#000000" stroke-linecap="butt"/><path d="M462.31473,-25.42536c-1.35307,0.29906 -9.6474,0.99927 -9.6474,0.99927l-4.94453,-16.31362l10.50756,-3.09482c0,0 3.02931,1.82297 3.28543,2.98176c0.62104,2.80991 1.8596,14.47201 1.8596,14.47201c0,0 -0.60325,0.85431 -1.06063,0.9554z" data-paper-data="{&quot;index&quot;:null}" fill="#d9db56" stroke="none" stroke-linecap="butt"/><path d="M436.43572,-27.01844c0,0 10.39281,2.47562 13.56905,1.73938c3.19221,-0.73993 11.40678,-7.56844 11.40678,-7.56844c0,0 0.3879,-1.46921 0.43619,-0.8318c0.04188,0.55286 0.52164,2.85738 0.54633,4.65973c0.03607,2.63268 -0.3926,4.89939 -0.3926,4.89939c0,0 -6.94641,4.52341 -10.25741,5.30694c-3.27911,0.77598 -10.99823,0.11188 -10.99823,0.11188c0,0 -2.07829,-3.83907 -2.72467,-5.21623c-0.0873,-0.18598 -1.31305,-1.71874 -1.44077,-1.97353c-0.5194,-1.03613 -0.14468,-1.12733 -0.14468,-1.12733z" fill="none" stroke="#000000" stroke-linecap="round"/><path d="M444.22517,-18.33738l-3.15448,-7.74853l0.48992,0.81868" fill="none" stroke="#000000" stroke-linecap="round"/><path d="M447.80376,-18.92232l-1.97823,-6.15456" fill="none" stroke="#000000" stroke-linecap="round"/><path d="M451.97157,-19.63748l-1.37874,-5.77207" fill="none" stroke="#000000" stroke-linecap="round"/><path d="M455.29718,-27.89123l0.43905,7.11273" fill="none" stroke="#000000" stroke-linecap="round"/><path d="M458.4417,-30.44017l0.81941,8.36761" fill="none" stroke="#000000" stroke-linecap="round"/><path d="M461.91783,-27.29458c0,0 -6.83068,4.01726 -10.66334,4.88174c-3.71801,0.83863 -11.99909,0.22999 -11.99909,0.22999" fill="none" stroke="#000000" stroke-linecap="round"/><path d="M461.26441,-37.70731c0.78514,3.55235 -1.79666,7.65835 -5.29477,8.43149c-1.46173,0.32306 -2.85382,0.41234 -4.62396,-1.11226c-1.47525,-1.27061 -2.29198,-2.45149 -2.74903,-4.51946c-0.78514,-3.55235 1.41418,-7.05884 4.91229,-7.83197c3.49811,-0.77314 6.97035,1.47985 7.75547,5.0322z" fill="none" stroke="#000000" stroke-linecap="butt"/><path d="M458.57939,-36.3414c0.44351,2.00666 -0.43244,3.90644 -1.9565,4.24328c-1.52406,0.33684 -3.11906,-1.01684 -3.56257,-3.02348c-0.44351,-2.00666 0.43246,-3.90644 1.9565,-4.24328c1.52406,-0.33684 3.11906,1.0168 3.56257,3.02348z" fill="#000000" stroke="#000000" stroke-linecap="butt"/><path d="M439.38987,-39.51598c3.49811,-0.77314 6.97037,1.47985 7.75549,5.03219c0.45705,2.06797 0.21409,3.48305 -0.58826,5.25704c-0.96272,2.12863 -2.26278,2.63435 -3.72451,2.95741c-3.49811,0.77314 -7.56986,-1.86233 -8.35498,-5.41467c-0.78514,-3.55236 1.41417,-7.05883 4.91228,-7.83196z" data-paper-data="{&quot;index&quot;:null}" fill="none" stroke="#000000" stroke-linecap="butt"/><path d="M439.44465,-35.8202c1.52406,-0.33684 3.11907,1.01684 3.56258,3.02348c0.44351,2.00666 -0.43245,3.90647 -1.9565,4.2433c-1.52406,0.33684 -3.11907,-1.01683 -3.56258,-3.0235c-0.44351,-2.00666 0.43244,-3.90644 1.9565,-4.24328z" data-paper-data="{&quot;index&quot;:null}" fill="#000000" stroke="#000000" stroke-linecap="butt"/><path d="M445.49697,-26.94833c-0.17426,0.19401 -1.73279,0.38321 -1.89647,0.40417c-0.02418,0.0031 -0.04834,0.00613 -0.07246,0.0091c-1.72584,0.66653 -3.75004,0.54855 -5.51871,-0.57001c-1.09141,-0.69978 -2.13315,-1.82627 -2.85186,-2.9385c-0.11201,-0.01868 -0.22341,-0.03927 -0.33416,-0.06177c0,0 -0.49275,-0.10025 -0.39252,-0.59299c0.09519,-0.46789 0.5443,-0.40113 0.58936,-0.39317c0.38117,-0.28711 0.68682,0.08997 0.68682,0.08997l0.01921,0.02454c3.65308,0.44646 7.93133,-1.21013 10.68743,-3.44515l0.51625,-0.41846c0.06029,-0.05101 0.13351,-0.0885 0.21598,-0.10674c0.27116,-0.05992 0.53959,0.11131 0.59951,0.38247c0.02596,0.11745 0.00855,0.23439 -0.04158,0.3341l-0.18914,0.38446c-0.02418,1.17336 0.03708,2.32375 -0.35318,3.48065c-0.25371,0.75208 -0.62863,1.4189 -1.09349,1.98821c-0.23402,0.73 -0.45608,1.3012 -0.57102,1.42914z" fill-opacity="0.27451" fill="#000000" stroke="none" stroke-linecap="butt"/><path d="M446.44327,-22.35141c0.00014,-0.00509 0.00034,-0.01015 0.00056,-0.01514c-0.89706,0.10292 -1.91851,0.17997 -2.76156,0.05967c-0.34677,0.0302 -0.73153,0.03401 -1.21847,0.04821l-0.01063,-0.00496l-0.00006,0.00493l-0.54279,-0.00718c-0.18306,0.00146 -0.35226,-0.09772 -0.44133,-0.25529c-0.81266,0.06208 -1.62515,0.14315 -2.44479,0.17514c0,0 -0.50249,0.01895 -0.52143,-0.48356c-0.01892,-0.5025 0.48356,-0.52142 0.48356,-0.52142c1.87372,-0.06784 3.70662,-0.38349 5.59108,-0.18764l0.62108,0.06497c0.0571,0.00463 0.11227,0.019 0.16342,0.04177c1.07792,-0.04057 2.16883,-0.04597 3.27178,-0.20604c4.1588,-0.60355 7.3362,-1.69596 10.94796,-3.84415c0.49978,-0.21876 0.89915,-0.50388 1.35114,-0.8094l0.04938,-0.00198l-0.00814,-0.01848l0.45979,-0.20255c0.03254,-0.01512 0.06721,-0.02693 0.10368,-0.03501c0.27116,-0.05992 0.53959,0.11133 0.59951,0.38249c0.04021,0.18198 -0.02369,0.36273 -0.15204,0.48005l-0.41919,0.3968l-0.07618,-0.08049c-2.76812,3.79555 -9.89819,4.62431 -14.02064,5.53543l-0.53685,0.00027c0,0 -0.50266,-0.01382 -0.48885,-0.51647z" fill-opacity="0.58039" fill="#000000" stroke="none" stroke-linecap="butt"/><path d="M460.75745,-24.44908c0.2917,-0.24016 0.57364,-0.48858 0.84461,-0.74537c0,0 0.36519,-0.34567 0.71087,0.01954c0.20051,0.21184 0.16183,0.4171 0.094,0.55213c0.01085,0.26253 -0.23088,0.42723 -0.23088,0.42723l-0.44758,0.30491c-0.12779,0.08703 -0.25597,0.17346 -0.38457,0.25926c-3.24062,2.64122 -7.57966,4.31428 -11.57718,5.2022c-1.36179,0.30098 -2.71606,0.34403 -4.06665,0.25568c-1.48886,0.00814 -2.9343,-0.16384 -4.25054,-0.56559l-0.02131,0.12962l-0.9808,-0.16128c-0.20186,-0.02841 -0.37437,-0.17882 -0.42096,-0.38958c-0.05993,-0.27116 0.11132,-0.53959 0.38248,-0.59951c0.03069,-0.0068 0.06135,-0.01059 0.09166,-0.01165l0.60143,-0.03154l0.00122,0.02356l0.05288,-0.02347c0.37937,0.06181 0.75888,0.1256 1.13858,0.18806c1.44014,-0.11949 3.32919,0.35121 4.57701,0.28756c3.11046,-0.15864 6.60824,-1.0775 9.32045,-2.56742c1.60517,-0.70845 3.11154,-1.5862 4.56527,-2.5543z" fill-opacity="0.58039" fill="#000000" stroke="none" stroke-linecap="butt"/><path d="M452.21481,-29.94202c-0.6615,-0.32036 -1.28252,-0.76706 -1.82957,-1.34216c-0.84149,-0.88466 -1.27074,-1.95374 -1.78719,-3.00762l-0.33357,-0.26893c-0.08746,-0.06929 -0.15253,-0.168 -0.17849,-0.28545c-0.05993,-0.27117 0.11133,-0.53958 0.3825,-0.59951c0.08247,-0.01822 0.16467,-0.01506 0.24085,0.00578l0.6445,0.16191c3.44134,0.86532 8.01928,0.56455 11.1439,-1.37991l0.00707,-0.03037c0,0 0.11828,-0.47076 0.58493,-0.37104c0.03753,-0.02618 0.41664,-0.27603 0.70016,0.10816c0.29859,0.40461 -0.10602,0.7032 -0.10602,0.7032c-0.09096,0.0671 -0.18333,0.13271 -0.277,0.19685c-0.183,1.31152 -0.65301,2.77211 -1.34782,3.86669c-1.13252,1.75976 -2.91843,2.71986 -4.76444,2.84274c-0.02313,0.00746 -0.04631,0.0149 -0.06955,0.02229c-0.15728,0.04997 -1.65037,0.53523 -1.89017,0.43273c-0.15815,-0.06759 -0.60026,-0.49198 -1.12013,-1.05536z" data-paper-data="{&quot;index&quot;:null}" fill-opacity="0.27451" fill="#000000" stroke="none" stroke-linecap="butt"/></g></g></g></svg>