<svg version="1.1" xmlns="http://www.w3.org/2000/svg" xmlns:xlink="http://www.w3.org/1999/xlink" width="77.15346" height="90.20255" viewBox="0,0,77.15346,90.20255"><g transform="translate(-275.94654,-141.4)"><g stroke-miterlimit="10"><path d="M286.9,174.5c0,-18.28063 14.81937,-33.1 33.1,-33.1c18.28063,0 33.1,14.81937 33.1,33.1c0,18.28063 -14.81937,33.1 -33.1,33.1c-18.28063,0 -33.1,-14.81937 -33.1,-33.1z" fill="#e3e361" stroke="none" stroke-width="0" stroke-linecap="butt"/><path d="M342.1125,183.0375c0,0 4.75187,7.35278 -1.625,12.5c-6.10777,4.93001 -20,2.125 -20,2.125" fill="none" stroke="#000000" stroke-width="1.5" stroke-linecap="round"/><path d="M339.425,185.35l4.0625,-4.0625" fill="none" stroke="#000000" stroke-width="1.5" stroke-linecap="round"/><path d="M320.41182,190.07116c0,0 -16.38074,5.83763 -27.42576,5.27857c-12.3682,-0.62603 -16.1809,-8.32461 -16.28952,-11.8469c-0.09436,-3.0596 -0.32408,-14.3908 7.32588,-19.13001c7.78953,-4.82567 20.16917,-5.35417 26.51941,-6.68891c3.29199,-0.69193 3.68391,-3.24586 3.68391,-3.24586" fill="#e3e361" stroke="#000000" stroke-width="1.5" stroke-linecap="round"/><path d="M330.15685,148.92785c0.85166,0 1.54207,1.46712 1.54207,3.2769c0,1.80978 -0.69041,3.2769 -1.54207,3.2769c-0.85166,0 -1.54207,-1.46712 -1.54207,-3.2769c0,-1.80978 0.69041,-3.2769 1.54207,-3.2769z" fill="#000000" stroke="none" stroke-width="0" stroke-linecap="butt"/><path d="M305.54337,148.70909c0.85166,0 1.54207,1.46712 1.54207,3.2769c0,1.80978 -0.69041,3.2769 -1.54207,3.2769c-0.85166,0 -1.54207,-1.46712 -1.54207,-3.2769c0,-1.80977 0.69041,-3.2769 1.54207,-3.2769z" fill="#000000" stroke="none" stroke-width="0" stroke-linecap="butt"/><g fill="#e3e361" stroke="none" stroke-width="0" stroke-linecap="butt"><path d="M313.00845,231.33585v-29.00664h6.43244v29.00664z"/><path d="M292.86158,231.57858c0,0 -4.18665,-4.69037 0,-9.4666c5.56334,-6.3468 26.57931,0 26.57931,0v9.4666z"/></g><g fill="#e3e361" stroke="none" stroke-width="0" stroke-linecap="butt"><path d="M321.12375,231.23844v-29.00664h6.43243v29.00664z"/><path d="M321.24512,231.60255v-9.46661c0,0 21.01596,-6.3468 26.57931,0c4.18665,4.77624 0,9.46661 0,9.46661z"/></g></g></g></svg>