<svg version="1.1" xmlns="http://www.w3.org/2000/svg" xmlns:xlink="http://www.w3.org/1999/xlink" width="748.33333" height="369.48102" viewBox="0,0,748.33333,369.48102"><defs><linearGradient x1="318.60948" y1="-3.22152" x2="318.60948" y2="364.74051" gradientUnits="userSpaceOnUse" id="color-1"><stop offset="0" stop-color="#ffffff"/><stop offset="1" stop-color="#fdffd4"/></linearGradient><linearGradient x1="-54.16666" y1="25.54984" x2="694.16667" y2="25.54984" gradientUnits="userSpaceOnUse" id="color-2"><stop offset="0" stop-color="#a5a02c"/><stop offset="1" stop-color="#7d690f"/></linearGradient></defs><g transform="translate(54.16666,4.74051)"><g stroke-miterlimit="10"><path d="M-47.77957,-3.22152h732.7781v367.96203h-732.7781z" fill="url(#color-1)" fill-rule="evenodd" stroke="none" stroke-width="2.07968" stroke-linecap="round" stroke-linejoin="round"/><path d="M-54.16666,55.84018v-60.58069h748.33333v60.58069z" fill="url(#color-2)" fill-rule="nonzero" stroke="none" stroke-width="0" stroke-linecap="butt" stroke-linejoin="miter"/><path d="M266.97043,353.14145c-0.00002,0.02694 -0.02188,0.04879 -0.04884,0.04879c-0.02694,0 -0.04881,-0.02184 -0.04884,-0.04879c0.00002,-0.02694 0.02188,-0.04879 0.04884,-0.04879c0.02694,0 0.04881,0.02184 0.04884,0.04879z" fill="#ffffff" fill-rule="nonzero" stroke="#000000" stroke-width="0.27531" stroke-linecap="butt" stroke-linejoin="miter"/><g fill-rule="nonzero" stroke-linejoin="miter"><g fill="#ffffff" stroke="#ffffff" stroke-width="10"><path d="M17.03444,208.13485c-5.31411,-29.08951 16.83373,-57.93719 45.92324,-63.25131c29.08951,-5.31411 57.93719,13.95969 63.25131,43.04919c5.31411,29.08951 -14.91769,56.97917 -44.0072,62.29328c-29.08951,5.31411 -59.85324,-13.00167 -65.16734,-42.09116z" stroke-linecap="butt"/><g><path d="M123.39864,213.84389c-7.9998,2.88371 -43.50345,15.01317 -64.05595,13.82783c-23.95869,-1.38181 -22.39017,-17.27837 -22.39017,-17.27837" stroke-linecap="round"/><path d="M40.95709,205.32737c0,0 5.00806,7.01125 -1.0036,11.98741c-6.79214,5.6222 -12.57314,-3.35293 -12.57314,-3.35293" stroke-linecap="round"/><path d="M97.97454,230.18261c0,0 -5.7113,2.60534 -9.02586,3.1599c-3.79151,0.63434 -12.48535,0.43892 -12.48535,0.43892" stroke-linecap="round"/><g stroke-linecap="butt"><path d="M46.175,202.91828c-0.82377,-4.50931 2.16394,-8.83263 6.67329,-9.6564c4.50931,-0.82377 8.83263,2.16394 9.6564,6.67328c0.82377,4.50931 -2.16394,8.83263 -6.67329,9.6564c-4.50931,0.82377 -8.83263,-2.16394 -9.6564,-6.67329z"/><path d="M115.33601,190.28386c-0.82377,-4.50931 2.16394,-8.83263 6.67329,-9.6564c4.50931,-0.82377 8.83263,2.16394 9.6564,6.67328c0.82377,4.50931 -2.16394,8.83263 -6.67328,9.6564c-4.50931,0.82377 -8.83263,-2.16394 -9.6564,-6.67329z"/></g></g><path d="M31.56936,214.15673c-0.11307,-0.61896 0.29703,-1.21233 0.91594,-1.3254c0.61896,-0.11307 1.21233,0.29704 1.3254,0.91594c0.11307,0.61896 -0.29704,1.21233 -0.91594,1.3254c-0.61896,0.11307 -1.21232,-0.29704 -1.32539,-0.91595z" stroke-linecap="butt"/><path d="M34.25471,208.5707c-0.11307,-0.61896 0.29703,-1.21232 0.91594,-1.32539c0.61896,-0.11307 1.21233,0.29704 1.3254,0.91594c0.11307,0.61896 -0.29704,1.21233 -0.91594,1.3254c-0.61896,0.11307 -1.21232,-0.29704 -1.32539,-0.91595z" stroke-linecap="butt"/><path d="M36.78478,212.27753c-0.11307,-0.61896 0.29703,-1.21233 0.91594,-1.3254c0.61896,-0.11307 1.21233,0.29704 1.3254,0.91594c0.11307,0.61896 -0.29704,1.21233 -0.91594,1.3254c-0.61896,0.11307 -1.21232,-0.29704 -1.32539,-0.91595z" stroke-linecap="butt"/></g><g stroke-width="2"><path d="M16.00176,208.19642c-5.09661,-29.1284 18.2171,-58.3103 47.34551,-63.40691c29.1284,-5.09661 58.78931,13.42701 63.88593,42.55542c5.09661,29.1284 -16.30106,57.8313 -45.42948,62.92791c-29.1284,5.09661 -60.70534,-12.94799 -65.80196,-42.07642z" fill="#ffffff" stroke="#000000" stroke-linecap="butt"/><g stroke="#000000"><path d="M123.27129,214.19952c-8.02112,2.82386 -43.61442,14.68769 -64.15747,13.34881c-23.9477,-1.56079 -22.26043,-17.44519 -22.26043,-17.44519" fill="none" stroke-linecap="round"/><path d="M40.89567,205.06724c0,0 4.95552,7.04848 -1.09313,11.97958c-6.83396,5.57128 -12.54775,-3.44677 -12.54775,-3.44677" fill="#ffffff" stroke-linecap="round"/><path d="M97.72582,230.3478c0,0 -5.73061,2.56259 -9.04922,3.09236c-3.79614,0.60599 -12.48829,0.34563 -12.48829,0.34563" fill="none" stroke-linecap="round"/><g fill="#000000" stroke-linecap="butt"><path d="M46.13143,202.69722c-0.79006,-4.51536 2.22987,-8.81622 6.74525,-9.60626c4.51536,-0.79006 8.81623,2.22986 9.60628,6.74525c0.79006,4.51536 -2.22987,8.81623 -6.74525,9.60628c-4.51536,0.79006 -8.81623,-2.22987 -9.60628,-6.74525z"/><path d="M115.38491,190.57991c-0.79006,-4.51536 2.22987,-8.81622 6.74525,-9.60626c4.51536,-0.79006 8.81622,2.22987 9.60626,6.74525c0.79006,4.51536 -2.22987,8.81623 -6.74525,9.60628c-4.51536,0.79006 -8.81623,-2.22987 -9.60628,-6.74525z"/></g></g><path d="M31.44224,213.82621c-0.10844,-0.61979 0.30607,-1.21007 0.92581,-1.3185c0.61979,-0.10844 1.21007,0.30608 1.3185,0.92581c0.10844,0.61979 -0.30608,1.21007 -0.92581,1.3185c-0.61979,0.10844 -1.21007,-0.30608 -1.3185,-0.92581z" fill="#000000" stroke="none" stroke-linecap="butt"/><path d="M34.16924,208.26038c-0.10844,-0.61979 0.30607,-1.21007 0.92581,-1.3185c0.61979,-0.10844 1.21007,0.30608 1.3185,0.92581c0.10844,0.61979 -0.30608,1.21007 -0.92581,1.3185c-0.61979,0.10844 -1.21007,-0.30608 -1.3185,-0.92581z" fill="#000000" stroke="none" stroke-linecap="butt"/><path d="M36.67153,211.98602c-0.10844,-0.61979 0.30607,-1.21007 0.92581,-1.3185c0.61979,-0.10844 1.21007,0.30608 1.3185,0.92581c0.10844,0.61979 -0.30608,1.21007 -0.92581,1.3185c-0.61979,0.10844 -1.21007,-0.30608 -1.3185,-0.92581z" fill="#000000" stroke="none" stroke-linecap="butt"/></g></g><text transform="translate(7.03534,41.33269) scale(1.40445,1.15442)" font-size="40" xml:space="preserve" fill="#ffffff" fill-rule="nonzero" stroke="none" stroke-width="1" stroke-linecap="butt" stroke-linejoin="miter" font-family="&quot;Allan-Bold&quot;, Sans Serif" font-weight="normal" text-anchor="start"><tspan x="0" dy="0">CREDITS: Strumbolly Boy</tspan></text><text transform="translate(159.50001,98.1636) scale(1.98681,1.05045)" font-size="40" xml:space="preserve" fill="#797621" fill-rule="nonzero" stroke="none" stroke-width="1" stroke-linecap="butt" stroke-linejoin="miter" font-family="&quot;Allan-Regular&quot;, Sans Serif" font-weight="normal" text-anchor="start"><tspan x="0" dy="0">That coder of value</tspan></text><text transform="translate(225.86417,143.6025) scale(0.92011,1.11451)" font-size="40" xml:space="preserve" fill="#797621" fill-rule="nonzero" stroke="none" stroke-width="1" stroke-linecap="butt" stroke-linejoin="miter" font-family="&quot;Allan-Regular&quot;, Sans Serif" font-weight="normal" text-anchor="middle"><tspan x="0" dy="0">Designs:</tspan><tspan x="0" dy="46.150000000000006px">-Melodies 2,3</tspan><tspan x="0" dy="46.150000000000006px">-Vocal 5</tspan><tspan x="0" dy="46.150000000000006px">-Allstars 1,2,6</tspan><tspan x="0" dy="46.150000000000006px">-Fentachu</tspan></text><text transform="translate(390.47398,135.57852) scale(0.92037,0.91157)" font-size="40" xml:space="preserve" fill="#797621" fill-rule="nonzero" stroke="none" stroke-width="1" stroke-linecap="butt" stroke-linejoin="miter" font-family="&quot;Allan-Regular&quot;, Sans Serif" font-weight="normal" text-anchor="middle"><tspan x="0" dy="0">Animations:</tspan><tspan x="0" dy="46.150000000000006px">-Beats 2,3</tspan><tspan x="0" dy="46.150000000000006px">-Effect 4</tspan><tspan x="0" dy="46.150000000000006px">-Melodies 1,3</tspan><tspan x="0" dy="46.150000000000006px">-Vocals 3,4</tspan><tspan x="0" dy="46.150000000000006px">-Allstars 1,6</tspan></text><text transform="translate(543.50001,121.875) scale(0.5,0.38082)" font-size="40" xml:space="preserve" fill="#797621" fill-rule="nonzero" stroke="none" stroke-width="1" stroke-linecap="butt" stroke-linejoin="miter" font-family="&quot;Allan-Regular&quot;, Sans Serif" font-weight="normal" text-anchor="middle"><tspan x="0" dy="0">-Programmed the new</tspan><tspan x="0" dy="46.150000000000006px">engine/ ported the mod</tspan><tspan x="0" dy="46.150000000000006px">to desktop</tspan><tspan x="0" dy="46.150000000000006px">-Made super intro</tspan><tspan x="0" dy="46.150000000000006px">-All allstar effects</tspan><tspan x="0" dy="46.150000000000006px">-Everything in the</tspan><tspan x="0" dy="46.150000000000006px">computer</tspan><tspan x="0" dy="46.150000000000006px">-The settings and</tspan><tspan x="0" dy="46.150000000000006px">achievements</tspan><tspan x="0" dy="46.150000000000006px">-Joopers mode</tspan><tspan x="0" dy="46.150000000000006px">-Made fem polo base </tspan><tspan x="0" dy="46.150000000000006px">used for Ashley</tspan><tspan x="0" dy="46.150000000000006px">-Creator of Bweswees</tspan><tspan x="0" dy="46.150000000000006px">Bizznip</tspan></text></g></g></svg>