<svg version="1.1" xmlns="http://www.w3.org/2000/svg" xmlns:xlink="http://www.w3.org/1999/xlink" width="666" height="416" viewBox="0,0,666,416"><defs><linearGradient x1="320" y1="-28" x2="320" y2="388" gradientUnits="userSpaceOnUse" id="color-1"><stop offset="0" stop-color="#212104" stop-opacity="0.6549"/><stop offset="1" stop-color="#212104"/></linearGradient><linearGradient x1="317.26639" y1="332.73598" x2="317.26639" y2="228.60085" gradientUnits="userSpaceOnUse" id="color-2"><stop offset="0" stop-color="#1f1f00" stop-opacity="0.48627"/><stop offset="1" stop-color="#1f1f00" stop-opacity="0"/></linearGradient><linearGradient x1="317.26639" y1="19.24585" x2="317.26639" y2="122.29624" gradientUnits="userSpaceOnUse" id="color-3"><stop offset="0" stop-color="#1f1f00" stop-opacity="0.64706"/><stop offset="1" stop-color="#1f1f00" stop-opacity="0"/></linearGradient><linearGradient x1="319.55435" y1="19.74826" x2="319.55435" y2="66.47383" gradientTransform="translate(-72.46182,-54.11662) scale(1.22094,0.98768)" gradientUnits="userSpaceOnUse" id="color-4"><stop offset="0" stop-color="#ffffff"/><stop offset="1" stop-color="#d9db56"/></linearGradient><linearGradient x1="319.51183" y1="146.13542" x2="319.51183" y2="268.76403" gradientTransform="translate(-335.67271,-199.59971) scale(1.05062,1.12908)" gradientUnits="userSpaceOnUse" id="color-5"><stop offset="0" stop-color="#ffffff"/><stop offset="1" stop-color="#d9db56"/></linearGradient></defs><g transform="translate(13,28)"><g stroke-miterlimit="10"><path d="M-13,388v-416h666v416z" fill="url(#color-1)" stroke="none" stroke-width="0"/><g><path d="M51.39857,336.00838c-2.8779,0 -5.21091,-2.333 -5.21091,-5.21091v-307.44362c0,-2.8779 2.333,-5.21091 5.21091,-5.21091h534.11813c2.8779,0 5.21091,2.333 5.21091,5.21091v307.44362c0,2.8779 -2.333,5.21091 -5.21091,5.21091z" fill="#9e9e46" stroke="#212108" stroke-width="7"/><path d="M586.82451,228.60085v104.13513h-539.11625v-104.13513z" fill="url(#color-2)" stroke="none" stroke-width="0"/><path d="M47.27239,64.80497v-48.81335h544.53996v48.81335z" fill="#212108" stroke="none" stroke-width="0"/><path d="M47.70826,122.29624v-103.05039h539.11625v103.05039z" fill="url(#color-3)" stroke="none" stroke-width="0"/><text transform="translate(59.34913,54.79145) scale(0.81904,1.01247)" font-size="40" xml:space="preserve" fill="url(#color-4)" stroke-opacity="0" stroke="#000000" stroke-width="0" font-family="&quot;Allan-Bold&quot;, Sans Serif" font-weight="normal" text-anchor="start"><tspan x="0" dy="0">LEMME RUN YOU THROUGH THIS REAL QUICK</tspan></text></g><path d="M74.5,189v-48h491v48z" fill="#202003" stroke="none" stroke-width="0"/><path d="M139,229v-70h362v70z" fill="#202003" stroke="none" stroke-width="0"/><g font-weight="normal"><g fill="none" stroke="none" stroke-width="1" font-family="sans-serif" font-size="12" text-anchor="start"/><text transform="translate(319.5,176.78147) scale(0.95182,0.88568)" font-size="40" xml:space="preserve" fill="url(#color-5)" stroke-opacity="0" stroke="#000000" stroke-width="0" font-family="&quot;Allan-Regular&quot;, Sans Serif" text-anchor="middle"><tspan x="0" dy="0">USE WASD OR ARROW KEYS TO CYCLE</tspan><tspan x="0" dy="46.150000000000006px">THROUGH THE REFRENCES</tspan></text></g></g></g></svg>