<svg version="1.1" xmlns="http://www.w3.org/2000/svg" xmlns:xlink="http://www.w3.org/1999/xlink" width="36.79811" height="36.79812" viewBox="0,0,36.79811,36.79812"><g transform="translate(-302.91346,-162.91348)"><g stroke-miterlimit="10"><path d="M311.51758,163.9135h20.83988c4.07419,0 7.35411,3.303 7.35411,7.40583v20.98644c0,4.10283 -3.27992,7.40583 -7.35411,7.40583h-20.83988c-4.07418,0 -7.35411,-3.303 -7.35411,-7.40583v-20.98644c0,-4.10283 3.27993,-7.40583 7.35411,-7.40583z" fill-opacity="0.39216" fill="#000000" fill-rule="evenodd" stroke="none" stroke-width="0" stroke-linecap="round" stroke-linejoin="round"/><path d="M309.98312,162.91348h20.03379c3.9166,0 7.06966,3.15307 7.06966,7.06966v20.03379c0,3.91659 -3.15306,7.06966 -7.06966,7.06966h-20.03379c-3.91659,0 -7.06966,-3.15307 -7.06966,-7.06966v-20.03379c0,-3.91659 3.15307,-7.06966 7.06966,-7.06966z" fill="#a0a300" fill-rule="evenodd" stroke="none" stroke-width="0" stroke-linecap="round" stroke-linejoin="round"/><g fill-rule="nonzero" stroke-linejoin="miter"><path d="M335.58565,177.62686c-4.16486,10.8126 -15.44018,18.1469 -15.44018,18.1469c0,0 -10.3041,-6.46896 -15.05461,-15.82161c-1.36355,-5.11987 -0.84575,-10.88578 3.41741,-12.27477c5.60893,-1.82747 10.86183,4.38973 10.86183,4.38973c0,0 4.28056,-7.33971 11.883,-4.45464c3.86427,1.46646 5.49682,5.73638 4.33254,10.01442z" fill="#868735" stroke="none" stroke-width="0" stroke-linecap="butt"/><g><path d="M331.50625,178.82701c0,1.08588 -0.40999,3.06663 -1.37999,4.39065c-1.12716,1.53852 -2.83801,2.35042 -2.83801,2.35042l1.0339,1.25011c0,0 -4.06336,2.16886 -8.32215,1.8928c-4.22437,-0.27383 -8.14514,-1.5549 -8.14514,-1.5549l0.94256,-1.46607c0,0 -1.54162,-1.25514 -2.07154,-1.86513c-1.26666,-1.45802 -2.23213,-3.21657 -2.23213,-4.87126c0,-5.17906 5.78088,-8.99766 11.50625,-8.99766c5.72537,0 11.50625,3.69199 11.50625,8.87105z" fill="#d9db56" stroke="none" stroke-width="0" stroke-linecap="butt"/><path d="M326.60599,187.39164c0,0 -1.47146,5.33584 -6.36793,5.36659c-4.68839,0.02944 -6.45312,-5.46881 -6.45312,-5.46881c0,0 4.34645,-0.81019 6.50555,-0.79298c2.11362,0.01685 6.3155,0.8952 6.3155,0.8952z" fill="#d9db56" stroke="none" stroke-width="0" stroke-linecap="butt"/><path d="M314.02532,187.73834c0,0 4.36547,-0.50742 6.49193,-0.55172c2.02218,-0.04213 5.96972,0.2921 5.96972,0.2921" fill="none" stroke="#000000" stroke-width="0.5" stroke-linecap="round"/><path d="M316.41381,186.38833l0.36346,2.23271" fill="none" stroke="#000000" stroke-width="0.5" stroke-linecap="round"/><path d="M320.30806,188.36143l-0.05192,-2.75195" fill="none" stroke="#000000" stroke-width="0.5" stroke-linecap="round"/><path d="M324.30618,186.3364l-0.83078,2.23271" fill="none" stroke="#000000" stroke-width="0.5" stroke-linecap="round"/><g fill="#000000" stroke="none" stroke-width="0" stroke-linecap="butt"><path d="M319.74449,179.6398c0,0 -1.69617,4.38357 -5.72936,2.87219c-4.32462,-1.6206 -2.57308,-5.86978 -2.57308,-5.86978z"/><path d="M329.15532,176.59029c0,0 1.75154,4.24918 -2.57308,5.86978c-4.03318,1.51138 -5.72936,-2.87219 -5.72936,-2.87219z"/></g></g><path d="M324.69178,169.98947c0,0 -2.35502,-0.95707 -4.97212,-0.95707c-2.6171,0 -4.50525,0.95707 -4.50525,0.95707l-1.54011,-4.97357c0,0 2.45859,2.02052 4.39233,2.50521c0.49971,0.12526 1.65303,-3.3908 1.65303,-3.3908c0,0 1.42486,3.44016 2.31456,3.51485c1.40613,0.11805 3.41967,-3.10826 3.41967,-3.10826l-0.76211,5.45258z" fill="#d9db56" stroke="none" stroke-width="NaN" stroke-linecap="butt"/></g></g></g></svg>