<svg version="1.1" xmlns="http://www.w3.org/2000/svg" xmlns:xlink="http://www.w3.org/1999/xlink" width="193.2093" height="161.15796" viewBox="0,0,193.2093,161.15796"><defs><linearGradient x1="188.61108" y1="315.67564" x2="188.6022" y2="339.6655" gradientUnits="userSpaceOnUse" id="color-1"><stop offset="0" stop-color="#c4c456"/><stop offset="1" stop-color="#bcbc53"/></linearGradient><linearGradient x1="189.31003" y1="279.0628" x2="189.30471" y2="293.45671" gradientUnits="userSpaceOnUse" id="color-2"><stop offset="0" stop-color="#9b9b44"/><stop offset="1" stop-color="#4f4f23"/></linearGradient></defs><g transform="translate(-29.17045,-186.73753)"><g stroke-miterlimit="10"><g stroke="none" stroke-linecap="butt"><path d="M215.76602,312.43557l-0.83176,1.10739c-5.24011,3.45788 -11.6444,0.5054 -8.15737,-6.20446c0.45776,-0.88085 0.78687,-1.90777 1.54955,-2.54318c2.19032,-1.82481 5.78066,-1.27942 8.14226,-2.97923c1.57988,-1.13717 2.20682,-3.78381 1.63897,-5.62615c-0.33377,-1.08291 -3.45176,-0.49662 -4.00388,-0.44645c0,0 -2.04922,0.17001 -2.21925,-1.87922c-0.17,-2.04922 1.87922,-2.21926 1.87922,-2.21926c1.69992,-0.13044 3.6483,-0.46903 5.28115,0.33968c5.11276,2.53221 3.75878,10.15549 -0.11363,13.12513c-2.21566,1.6991 -6.08563,1.27589 -7.96736,2.84094c-2.26683,1.88536 -1.43334,4.25216 1.19583,2.52066c0.2484,-0.3966 1.14465,-1.5672 2.68771,-0.79497c1.83885,0.92028 0.91857,2.75912 0.91857,2.75912z" fill="#dddd61" stroke-width="0.5"/><path d="M163.44706,308.97204c1.54364,-0.7711 2.43899,0.40019 2.6871,0.79696c2.62789,1.73342 3.46314,-0.63279 1.19769,-2.51982c-1.88059,-1.56644 -5.75084,-1.14605 -7.96525,-2.84681c-3.87022,-2.97249 -5.21854,-10.59677 -0.10393,-13.1252c1.63346,-0.8075 3.58159,-0.46748 5.28141,-0.33577c0,0 2.04912,0.17153 1.87758,2.22064c-0.17153,2.0491 -2.22064,1.87758 -2.22064,1.87758c-0.55207,-0.05057 -3.66962,-0.63917 -4.00421,0.44348c-0.56922,1.84191 0.05577,4.48904 1.63481,5.62734c2.36033,1.70157 5.95108,1.15883 8.14005,2.98526c0.76221,0.63597 1.09055,1.66314 1.54767,2.54433c3.48207,6.7124 -2.92442,9.66016 -8.16197,6.19839l-0.83094,-1.108c0,0 -0.9189,-1.83951 0.92061,-2.75843z" fill="#dddd61" stroke-width="0.5"/><path d="M184.23263,339.66389l0.00886,-23.98987l8.73916,0.00322l-0.00886,23.98986z" fill="url(#color-1)" stroke-width="0"/><path d="M183.21256,317.84416l-2.22585,-4.7988l14.56501,0.6908l-1.37237,4.11203z" fill="#dddd61" stroke-width="0"/><path d="M215.51426,289.20151c-0.00532,14.3849 -11.79712,26.27023 -26.05584,26.26498c-14.2587,-0.00525 -26.04157,-12.35629 -26.03625,-26.74117c0.00532,-14.3849 52.09739,-13.90869 52.0921,0.4762z" fill="#ecec68" stroke-width="0"/><path d="M214.06819,286.61161c-0.00115,3.12305 -13.07577,6.84943 -24.7635,6.8451c-11.68772,-0.00431 -24.7594,-4.25441 -24.75824,-7.37745c0.00115,-3.12305 12.90449,-7.02084 24.59222,-7.01652c11.68772,0.00431 24.93069,4.42584 24.92952,7.54889z" fill="url(#color-2)" stroke-width="0"/><path d="M179.60506,342.23252l0.00171,-4.62662l19.02055,0.00702l-0.00172,4.62663z" fill="#eeee69" stroke-width="0"/><path d="M175.31906,347.88569l0.00239,-6.51153l26.5602,0.00981l-0.0024,6.51153z" fill="#eeee69" stroke-width="0"/><path d="M166.63083,297.46268c-1.34033,-1.10101 -5.44362,-1.62681 -5.44362,-1.62681c0,0 3.72965,-1.83182 4.48957,-3.28791c0.75992,-1.45609 1.5428,-5.56216 1.5428,-5.56216c0,0 2.13911,3.47205 3.9326,5.04765c1.7935,1.5756 5.03114,1.72318 5.03114,1.72318c0,0 -3.74757,1.531 -4.82302,3.04346c-1.07545,1.51245 -2.0122,4.6484 -2.0122,4.6484c0,0 -1.37696,-2.88483 -2.7173,-3.98581z" fill="#ffffff" stroke-width="0"/><path d="M206.03913,311.85763c0,0 -0.63545,-2.13302 -1.36603,-3.1621c-0.73057,-1.02905 -3.2783,-2.07208 -3.2783,-2.07208c0,0 2.2018,-0.09873 3.42223,-1.16929c1.22043,-1.07056 2.67686,-3.4306 2.67686,-3.4306c0,0 0.53033,2.79265 1.04637,3.78323c0.51604,0.99057 3.05141,2.23814 3.05141,2.23814c0,0 -2.79062,0.35552 -3.70267,1.10355c-0.91205,0.74803 -1.84987,2.70911 -1.84987,2.70911z" fill="#ffffff" stroke-width="0"/></g><g fill="#e3e361" stroke="none" stroke-width="3" stroke-linecap="butt"><path d="M92.36907,346.60181c0,0 0,-10.97379 0,-16.93513c0,-2.66566 5,-6.25689 5,-11c0,-4.74311 -5,-10.19463 -5,-10.19463l12.41093,-4c0,0 7,8.37242 7,12.86129c0,4.48888 -7.33334,14.18131 -7.33334,16.66667c0,6.59001 0,12.60179 0,12.60179z"/><path d="M92.36907,347.05755v-17.77457c0,0 39.45975,-11.9168 49.90552,0c7.86089,8.96788 0,17.77457 0,17.77457z"/></g><g fill="#e3e361" stroke="none" stroke-width="3" stroke-linecap="butt"><path d="M77.13173,346.4189c0,0 0,-7.67269 0,-14.08555c0,-2.18696 -6.33333,-9.53352 -6.33333,-13.66667c0,-4.13315 5.33333,-11.71087 5.33333,-11.71087l13.07758,1.33333c0,0 -5,6.09779 -5,10.71087c0,4.61308 5,7.39252 5,10c0,6.05741 0,17.41888 0,17.41888z"/><path d="M39.07591,347.10256c0,0 -7.86089,-8.80667 0,-17.77458c10.44579,-11.9168 49.90552,0 49.90552,0v17.77458z"/></g><path d="M91.31927,311.03517c-34.32385,0 -62.14882,-27.82496 -62.14882,-62.14882c0,-34.32385 27.82496,-62.14882 62.14882,-62.14882c34.32385,0 62.14882,27.82496 62.14882,62.14882c0,34.32385 -27.82496,62.14882 -62.14882,62.14882z" fill="#e3e361" stroke="none" stroke-width="3" stroke-linecap="butt"/><path d="M90.40394,292.37645c0,0 -26.08416,5.26671 -37.55216,-3.98991c-11.97327,-9.66446 -3.05112,-23.4701 -3.05112,-23.4701" fill="none" stroke="#000000" stroke-width="3" stroke-linecap="round"/><path d="M47.21896,261.63061l7.62778,7.62778" fill="none" stroke="#000000" stroke-width="3" stroke-linecap="round"/><path d="M102.16107,211.2179c0,0 0.73588,4.79528 6.91694,6.09445c11.92326,2.50612 35.16737,3.49844 49.79305,12.55915c14.36363,8.89837 13.9323,30.17393 13.75513,35.91865c-0.20395,6.61348 -7.3627,21.06839 -30.58534,22.24383c-20.73822,1.0497 -51.49482,-9.91108 -51.49482,-9.91108" fill="#e3e361" stroke="#000000" stroke-width="3" stroke-linecap="round"/><path d="M75.1441,207.02463c0,3.39806 -1.29632,6.15274 -2.8954,6.15274c-1.59909,0 -2.8954,-2.75468 -2.8954,-6.15274c0,-3.39806 1.29632,-6.15274 2.8954,-6.15274c1.59909,0 2.8954,2.75468 2.8954,6.15274z" fill="#000000" stroke="none" stroke-width="3" stroke-linecap="butt"/><path d="M121.35856,206.61389c0,3.39806 -1.29632,6.15274 -2.8954,6.15274c-1.59909,0 -2.8954,-2.75468 -2.8954,-6.15274c0,-3.39806 1.29632,-6.15274 2.8954,-6.15274c1.59909,0 2.8954,2.75469 2.8954,6.15274z" fill="#000000" stroke="none" stroke-width="3" stroke-linecap="butt"/></g></g></svg>