<svg version="1.1" xmlns="http://www.w3.org/2000/svg" xmlns:xlink="http://www.w3.org/1999/xlink" width="378" height="460.00001" viewBox="0,0,378,460.00001"><defs><linearGradient x1="320" y1="-67.5" x2="320" y2="269.5" gradientUnits="userSpaceOnUse" id="color-1"><stop offset="0" stop-color="#ffffd1"/><stop offset="1" stop-color="#f1f19c"/></linearGradient></defs><g transform="translate(-131,83.00001)"><g data-paper-data="{&quot;isPaintingLayer&quot;:true}" stroke-miterlimit="10" stroke-dasharray="" stroke-dashoffset="0" style="mix-blend-mode: normal"><path d="M145.24891,375c-6.76488,0 -12.24891,-5.33739 -12.24891,-11.9214v-432.15721c0,-6.58401 5.48402,-11.9214 12.24891,-11.9214h349.50219c6.76488,0 12.2489,5.33739 12.2489,11.9214v432.15721c0,6.584 -5.48402,11.9214 -12.2489,11.9214z" fill="#535311" fill-rule="nonzero" stroke="#212108" stroke-width="4" stroke-linecap="butt" stroke-linejoin="miter"/><path d="M160.66812,361.5c-6.16798,0 -11.16812,-4.94148 -11.16812,-11.03711v-406.92577c0,-6.09563 5.00014,-11.03711 11.16812,-11.03711h318.66376c6.16798,0 11.16812,4.94149 11.16812,11.03712v406.92577c0,6.09563 -5.00014,11.03711 -11.16812,11.03711z" fill="url(#color-1)" fill-rule="nonzero" stroke="#212108" stroke-width="4.5" stroke-linecap="butt" stroke-linejoin="miter"/><text transform="translate(160.5,-35.68135) scale(0.61033,0.61033)" font-size="40" xml:space="preserve" fill="#212108" fill-rule="nonzero" stroke="none" stroke-width="1" stroke-linecap="butt" stroke-linejoin="miter" stroke-miterlimit="10" stroke-dasharray="" stroke-dashoffset="0" font-family="&quot;Allan-Regular&quot;, Sans Serif" font-weight="normal" text-anchor="start" style="mix-blend-mode: normal"><tspan x="0" dy="0">name: Rosita</tspan><tspan x="0" dy="46.150000000000006px">age: 17</tspan><tspan x="0" dy="46.150000000000006px">occupation:</tspan></text><g><path d="M432.53444,-56.08653h32.93116c6.43804,0 11.62097,5.18296 11.62097,11.62097v32.93116c0,6.43802 -5.18294,11.62098 -11.62097,11.62098h-32.93116c-6.43802,0 -11.62098,-5.18296 -11.62098,-11.62097v-32.93116c0,-6.43801 5.18296,-11.62097 11.62098,-11.62097z" fill="#a0a300" fill-rule="evenodd" stroke="#212108" stroke-width="2" stroke-linecap="round" stroke-linejoin="round"/><g fill="none" fill-rule="nonzero" stroke="none" stroke-width="1" stroke-linecap="butt" stroke-linejoin="miter" font-family="sans-serif" font-weight="normal" font-size="12" text-anchor="start"><g/><g data-paper-data="{&quot;index&quot;:null}"/></g></g><text transform="translate(158.5,47.80522) scale(0.38667,0.4077)" font-size="40" xml:space="preserve" fill="#212108" fill-rule="nonzero" stroke="none" stroke-width="1" stroke-linecap="butt" stroke-linejoin="miter" stroke-miterlimit="10" stroke-dasharray="" stroke-dashoffset="0" font-family="&quot;Allan-Regular&quot;, Sans Serif" font-weight="normal" text-anchor="start" style="mix-blend-mode: normal"><tspan x="0" dy="0">Description-</tspan><tspan x="0" dy="46.150000000000006px">Ever since she moved into Cincinnati, Rosita's perspective on </tspan><tspan x="0" dy="46.150000000000006px">life has changed ever so slightly. Originating from a small </tspan><tspan x="0" dy="46.150000000000006px">Mexican ice cream parlor by the name of La Rosita, she lived a </tspan><tspan x="0" dy="46.150000000000006px">simpler life serving elote corn and parfaits, but was later forced </tspan><tspan x="0" dy="46.150000000000006px">to move in result of joining Musteezer/the MCS. Still wanting to </tspan><tspan x="0" dy="46.150000000000006px">own a food establishment, the MCS simply tasked her with </tspan><tspan x="0" dy="46.150000000000006px">managing McMustard. Although Rosita thought she could at least </tspan><tspan x="0" dy="46.150000000000006px">live a life mildly similar to that of her home town, McMustard </tspan><tspan x="0" dy="46.150000000000006px">proved to be the complete opposite of what she hoped for. The food is </tspan><tspan x="0" dy="46.150000000000006px">grody and cheap, the employees have sketchy backgrounds, </tspan><tspan x="0" dy="46.150000000000006px">everything is infused with drugs, its very comparable to El </tspan><tspan x="0" dy="46.150000000000006px">Sombrero (aka Rosita's arch nemesis). If that wasn't enough, </tspan><tspan x="0" dy="46.150000000000006px">Rosita's size is another key factor for her homesickness, imagine </tspan><tspan x="0" dy="46.150000000000006px">being small in a small town, and now imagine being small in a big </tspan><tspan x="0" dy="46.150000000000006px">city. Even if Rosita can't live the life she used to live, she still making </tspan><tspan x="0" dy="46.150000000000006px">do, making friends, and making bank.</tspan></text><path d="M161.66667,-30.66667v-1.66667h252.16667v1.66667z" fill="#212108" fill-rule="nonzero" stroke="none" stroke-width="0" stroke-linecap="butt" stroke-linejoin="miter"/><path d="M160.16667,-0.66667v-1.66667h252.16667v1.66667z" fill="#212108" fill-rule="nonzero" stroke="none" stroke-width="0" stroke-linecap="butt" stroke-linejoin="miter"/><path d="M160.16667,29.33333v-1.66667h252.16667v1.66667z" fill="#212108" fill-rule="nonzero" stroke="none" stroke-width="0" stroke-linecap="butt" stroke-linejoin="miter"/><g fill-rule="nonzero" stroke="none" stroke-width="0" stroke-linecap="butt" stroke-linejoin="miter"><path d="M465.12264,-32.96025c-1.80394,7.75945 -9.55662,12.58734 -17.31607,10.7834c-7.75945,-1.80394 -12.58734,-9.55662 -10.7834,-17.31607c1.80394,-7.75945 9.55662,-12.58734 17.31607,-10.7834c7.75945,1.80394 12.58734,9.55662 10.7834,17.31607z" fill="#d9db56"/><path d="M434.83315,-4.20291l1.81081,-31.47662c0,0 4.36562,6.0788 10.49192,9.02319c6.2054,2.98241 13.28565,1.74275 13.28565,1.74275z" fill="#000000"/><path d="M448.82549,-23.765c-0.89919,3.86775 -2.17035,6.87713 -2.83921,6.72162c-0.66886,-0.15549 -0.48213,-3.41699 0.41706,-7.28474c0.89919,-3.86775 2.17035,-6.87713 2.83921,-6.72162c0.66886,0.15549 0.48213,3.41699 -0.41706,7.28474z" fill="#d9db56"/><path d="M452.54558,-24.01016c-0.2772,1.19231 -0.83195,2.08215 -1.23908,1.9875c-0.40713,-0.09465 -0.51246,-1.13794 -0.23526,-2.33026c0.2772,-1.19231 0.83195,-2.08215 1.23908,-1.9875c0.40713,0.09465 0.51246,1.13794 0.23526,2.33026z" fill="#d9db56"/><path d="M442.42046,-34.41181c-0.311,1.33771 -2.33121,2.01109 -4.51227,1.50403c-2.18106,-0.50706 -3.69704,-2.00255 -3.38606,-3.34026c0.311,-1.33771 2.33121,-2.01109 4.51227,-1.50403c2.18106,0.50706 3.69704,2.00255 3.38606,3.34026z" fill="#d9db56"/><path d="M463.79156,-25.11426c-0.311,1.33771 -2.33121,2.01109 -4.51227,1.50403c-2.18107,-0.50706 -3.69706,-2.00255 -3.38606,-3.34026c0.311,-1.33771 2.33121,-2.01111 4.51227,-1.50403c2.18107,0.50706 3.69704,2.00255 3.38606,3.34028z" fill="#d9db56"/><path d="M448.76667,-30.38335c-0.44621,1.91933 -3.34479,2.88548 -6.47414,2.15796c-3.12935,-0.72752 -5.30447,-2.87322 -4.85826,-4.79255c0.44621,-1.91933 3.34479,-2.88549 6.47414,-2.15798c3.12935,0.72752 5.30447,2.87324 4.85826,4.79257z" fill="#d9db56"/><path d="M458.5975,-25.87778c-0.44621,1.91933 -3.34477,2.88548 -6.47414,2.15796c-3.12937,-0.72752 -5.30447,-2.87322 -4.85826,-4.79255c0.44621,-1.91933 3.34479,-2.88549 6.47414,-2.15796c3.12937,0.72752 5.30445,2.87324 4.85824,4.79257z" fill="#d9db56"/><path d="M458.63107,-43.6371l8.58607,-6.02236l1.98676,2.83252l-8.58607,6.02236z" fill="#000000"/><path d="M460.63174,-42.54757c-0.32276,1.38829 -1.56224,2.28639 -2.76847,2.00597c-1.20621,-0.28042 -1.92241,-1.63319 -1.59967,-3.02148c0.32276,-1.38829 1.56224,-2.28639 2.76847,-2.00597c1.20621,0.28042 1.92241,1.63319 1.59967,3.02148z" fill="#d9db56"/><path d="M462.6885,-39.81072c-0.32276,1.38829 -1.56222,2.28639 -2.76845,2.00597c-1.20623,-0.28042 -1.92241,-1.63319 -1.59967,-3.02148c0.32276,-1.38829 1.56224,-2.28641 2.76847,-2.00597c1.20623,0.28042 1.92241,1.63319 1.59965,3.0215z" fill="#d9db56"/></g><text transform="translate(246.75,21.11386) scale(0.36012,0.36012)" font-size="40" xml:space="preserve" fill="#212108" fill-rule="nonzero" stroke="none" stroke-width="1" stroke-linecap="butt" stroke-linejoin="miter" stroke-miterlimit="10" stroke-dasharray="" stroke-dashoffset="0" font-family="&quot;Allan-Regular&quot;, Sans Serif" font-weight="normal" text-anchor="start" style="mix-blend-mode: normal"><tspan x="0" dy="0">Mc Mustard manager/Musteezer member</tspan></text></g></g></svg>