<svg version="1.1" xmlns="http://www.w3.org/2000/svg" xmlns:xlink="http://www.w3.org/1999/xlink" width="134.66126" height="269.70487" viewBox="0,0,134.66126,269.70487"><g transform="translate(-251.29513,-50.29513)"><g stroke-width="1.5" stroke-miterlimit="10"><path d="M314.50545,319.25v-195.95882h8.24061v195.95882z" fill="#5d5d37" stroke="#000000"/><g fill="#b9b55f" stroke="#000000"><path d="M318.62576,91.17593c-3.74191,0 -6.77533,-8.98359 -6.77533,-20.0654c0,-11.08181 3.03342,-20.0654 6.77533,-20.0654c3.74191,0 6.77533,8.98359 6.77533,20.0654c0,11.08181 -3.03342,20.0654 -6.77533,20.0654z"/><path d="M318.62577,184.2064c-3.74191,0 -6.77534,-8.98358 -6.77533,-20.0654c0,-11.08181 3.03342,-20.06539 6.77533,-20.06539c3.74191,0 6.77533,8.98358 6.77533,20.0654c0,11.08181 -3.03341,20.06539 -6.77533,20.06539z"/><path d="M292.17593,117.62576c0,3.74191 -8.98359,6.77533 -20.0654,6.77533c-11.08181,0 -20.0654,-3.03342 -20.0654,-6.77533c0,-3.74191 8.98359,-6.77533 20.0654,-6.77533c11.08181,0 20.0654,3.03342 20.0654,6.77533z"/><path d="M385.20639,117.62576c0,3.74191 -8.98359,6.77533 -20.0654,6.77533c-11.08181,0 -20.0654,-3.03342 -20.0654,-6.77533c0,-3.74191 8.98358,-6.77533 20.0654,-6.77533c11.08181,0 20.0654,3.03342 20.0654,6.77533z"/></g><g fill="#b9b55f" stroke="#000000"><path d="M299.92291,98.92291c-2.64593,2.64593 -11.14324,-1.56147 -18.97927,-9.3975c-7.83603,-7.83603 -12.04343,-16.33333 -9.3975,-18.97927c2.64593,-2.64593 11.14324,1.56148 18.97927,9.3975c7.83603,7.83603 12.04343,16.33333 9.3975,18.97926z"/><path d="M365.70538,164.70538c-2.64593,2.64593 -11.14324,-1.56147 -18.97926,-9.39749c-7.83603,-7.83603 -12.04342,-16.33333 -9.39749,-18.97926c2.64593,-2.64593 11.14323,1.56147 18.97926,9.3975c7.83603,7.83603 12.04343,16.33332 9.3975,18.97925z"/><path d="M299.92291,136.32862c2.64593,2.64593 -1.56147,11.14324 -9.3975,18.97926c-7.83603,7.83603 -16.33333,12.04343 -18.97926,9.3975c-2.64593,-2.64593 1.56147,-11.14324 9.3975,-18.97926c7.83603,-7.83603 16.33333,-12.04343 18.97926,-9.3975z"/><path d="M365.70538,70.54615c2.64593,2.64593 -1.56147,11.14324 -9.3975,18.97926c-7.83603,7.83603 -16.33333,12.04343 -18.97926,9.3975c-2.64593,-2.64593 1.56147,-11.14323 9.3975,-18.97926c7.83603,-7.83603 16.33333,-12.04343 18.97926,-9.3975z"/></g><g fill="#b9b55f" stroke="#000000"><path d="M329.79732,93.65098c-3.39176,-1.58046 -2.34695,-11.00462 2.33365,-21.04944c4.6806,-10.04483 11.22454,-16.90656 14.6163,-15.32609c3.39176,1.58046 2.34695,11.00462 -2.33365,21.04945c-4.6806,10.04483 -11.22454,16.90655 -14.6163,15.32608z"/><path d="M290.50426,177.97609c-3.39176,-1.58046 -2.34695,-11.00462 2.33365,-21.04945c4.6806,-10.04483 11.22454,-16.90655 14.6163,-15.32608c3.39176,1.58046 2.34695,11.00462 -2.33365,21.04945c-4.6806,10.04483 -11.22453,16.90655 -14.6163,15.32608z"/><path d="M294.65098,106.45421c-1.58046,3.39176 -11.00462,2.34695 -21.04945,-2.33365c-10.04483,-4.6806 -16.90655,-11.22454 -15.32609,-14.6163c1.58046,-3.39176 11.00462,-2.34695 21.04945,2.33365c10.04483,4.6806 16.90655,11.22454 15.32609,14.6163z"/><path d="M378.97608,145.74728c-1.58046,3.39176 -11.00462,2.34695 -21.04945,-2.33365c-10.04483,-4.6806 -16.90655,-11.22454 -15.32609,-14.6163c1.58046,-3.39176 11.00462,-2.34695 21.04945,2.33365c10.04483,4.6806 16.90655,11.22454 15.32609,14.6163z"/></g><g fill="#b9b55f" stroke="#000000"><path d="M309.57251,92.77356c-3.51589,1.28078 -9.44099,-6.1219 -13.23407,-16.53435c-3.79308,-10.41245 -4.01779,-19.89169 -0.50189,-21.17247c3.51589,-1.28078 9.44099,6.1219 13.23407,16.53435c3.79308,10.41245 4.01779,19.89169 0.50189,21.17247z"/><path d="M341.41498,180.18479c-3.51589,1.28078 -9.44099,-6.1219 -13.23407,-16.53435c-3.79308,-10.41245 -4.01779,-19.89168 -0.50189,-21.17246c3.51589,-1.28078 9.44099,6.1219 13.23407,16.53434c3.79308,10.41245 4.01779,19.89168 0.50189,21.17246z"/><path d="M293.77355,126.67901c1.28078,3.51589 -6.1219,9.44098 -16.53435,13.23407c-10.41245,3.79308 -19.89169,4.01779 -21.17246,0.5019c-1.28078,-3.51589 6.1219,-9.44098 16.53435,-13.23407c10.41245,-3.79308 19.89169,-4.01779 21.17246,-0.5019z"/><path d="M381.18479,94.83655c1.28078,3.51589 -6.1219,9.44098 -16.53435,13.23407c-10.41245,3.79308 -19.89169,4.01779 -21.17246,0.5019c-1.28078,-3.51589 6.1219,-9.44098 16.53435,-13.23407c10.41245,-3.79308 19.89169,-4.01779 21.17246,-0.5019z"/></g><g fill="#b9b55f" stroke="#000000"><path d="M304.01,95.58097c-3.11872,2.06772 -10.61114,-3.74349 -16.73478,-12.97971c-6.12364,-9.23622 -8.5596,-18.39987 -5.44089,-20.46759c3.11872,-2.06772 10.61114,3.7435 16.73478,12.97971c6.12364,9.23622 8.55961,18.39986 5.44089,20.46758z"/><path d="M355.41719,173.11786c-3.11872,2.06772 -10.61114,-3.74348 -16.73477,-12.9797c-6.12364,-9.23622 -8.5596,-18.39986 -5.44088,-20.46758c3.11872,-2.06772 10.61113,3.74349 16.73477,12.97971c6.12364,9.23622 8.55961,18.39985 5.44089,20.46758z"/><path d="M296.58097,132.24153c2.06772,3.11872 -3.74349,10.61114 -12.97971,16.73477c-9.23622,6.12364 -18.39986,8.55961 -20.46758,5.44089c-2.06772,-3.11872 3.74349,-10.61114 12.97971,-16.73477c9.23622,-6.12364 18.39986,-8.55961 20.46758,-5.44089z"/><path d="M374.11785,80.83435c2.06772,3.11872 -3.74349,10.61114 -12.9797,16.73477c-9.23622,6.12364 -18.39986,8.55961 -20.46758,5.44089c-2.06772,-3.11872 3.74348,-10.61114 12.97971,-16.73477c9.23622,-6.12364 18.39986,-8.5596 20.46758,-5.44088z"/></g><g fill="#b9b55f" stroke="#000000"><path d="M314.11966,91.5626c-3.68721,0.63749 -8.20676,-7.69799 -10.09471,-18.6178c-1.88795,-10.91982 -0.42935,-20.28886 3.25786,-20.92634c3.68721,-0.63749 8.20676,7.69799 10.09471,18.6178c1.88795,10.91982 0.42935,20.28885 -3.25786,20.92634z"/><path d="M329.96871,183.23306c-3.68721,0.63749 -8.20677,-7.69798 -10.0947,-18.61778c-1.88795,-10.91982 -0.42935,-20.28885 3.25786,-20.92633c3.68721,-0.63749 8.20676,7.69798 10.09471,18.61779c1.88795,10.91982 0.42936,20.28884 -3.25786,20.92633z"/><path d="M292.5626,122.13187c0.63749,3.68721 -7.69798,8.20676 -18.61779,10.0947c-10.91982,1.88795 -20.28885,0.42935 -20.92634,-3.25786c-0.63749,-3.68721 7.69798,-8.20676 18.61779,-10.0947c10.91982,-1.88795 20.28885,-0.42935 20.92634,3.25786z"/><path d="M384.23306,106.28281c0.63749,3.68721 -7.69798,8.20676 -18.61779,10.0947c-10.91982,1.88795 -20.28885,0.42935 -20.92634,-3.25786c-0.63749,-3.68721 7.69798,-8.20676 18.61779,-10.0947c10.91982,-1.88795 20.28885,-0.42935 20.92634,3.25786z"/></g><g fill="#b9b55f" stroke="#000000"><path d="M324.45489,91.82625c-3.6499,-0.82466 -4.6289,-10.25589 -2.18663,-21.06524c2.44226,-10.80934 7.38095,-18.90353 11.03086,-18.07888c3.6499,0.82466 4.62889,10.25589 2.18663,21.06523c-2.44226,10.80934 -7.38095,18.90353 -11.03085,18.07888z"/><path d="M303.95241,182.56938c-3.6499,-0.82466 -4.62891,-10.25588 -2.18664,-21.06523c2.44226,-10.80934 7.38095,-18.90353 11.03085,-18.07887c3.6499,0.82466 4.6289,10.25588 2.18664,21.06523c-2.44226,10.80934 -7.38094,18.90353 -11.03084,18.07887z"/><path d="M292.82625,111.79662c-0.82466,3.6499 -10.25588,4.6289 -21.06523,2.18663c-10.80934,-2.44226 -18.90353,-7.38095 -18.07888,-11.03085c0.82466,-3.6499 10.25589,-4.6289 21.06523,-2.18663c10.80934,2.44226 18.90353,7.38095 18.07887,11.03085z"/><path d="M383.56937,132.29912c-0.82466,3.6499 -10.25588,4.6289 -21.06523,2.18663c-10.80934,-2.44226 -18.90353,-7.38095 -18.07887,-11.03085c0.82466,-3.6499 10.25588,-4.6289 21.06523,-2.18663c10.80934,2.44226 18.90353,7.38095 18.07887,11.03086z"/></g><g fill="#b9b55f" stroke="#000000"><path d="M334.1205,96.18966c-3.03261,-2.19207 -0.22829,-11.2498 6.26362,-20.23098c6.49191,-8.98119 14.21306,-14.48485 17.24567,-12.29278c3.03261,2.19207 0.22828,11.24979 -6.26362,20.23098c-6.49191,8.98119 -14.21305,14.48485 -17.24566,12.29278z"/><path d="M279.62174,171.58562c-3.03261,-2.19207 -0.2283,-11.24979 6.26361,-20.23097c6.49191,-8.98119 14.21305,-14.48485 17.24566,-12.29278c3.03261,2.19207 0.2283,11.24979 -6.26361,20.23098c-6.49191,8.98119 -14.21305,14.48485 -17.24566,12.29278z"/><path d="M297.18966,102.13102c-2.19207,3.03261 -11.24979,0.22829 -20.23097,-6.26362c-8.98119,-6.49191 -14.48485,-14.21305 -12.29278,-17.24566c2.19207,-3.03261 11.24979,-0.22829 20.23097,6.26362c8.98119,6.49191 14.48485,14.21305 12.29278,17.24566z"/><path d="M372.58562,156.62979c-2.19207,3.03261 -11.24979,0.22829 -20.23097,-6.26362c-8.98119,-6.49191 -14.48485,-14.21305 -12.29278,-17.24566c2.19207,-3.03261 11.24978,-0.2283 20.23097,6.26362c8.98119,6.49191 14.48485,14.21305 12.29278,17.24566z"/></g><path d="M286.49978,117.62576c0,-17.74269 14.38329,-32.12598 32.12598,-32.12598c17.74269,0 32.12598,14.38329 32.12598,32.12598c0,17.74269 -14.38329,32.12598 -32.12598,32.12598c-17.74269,0 -32.12598,-14.38329 -32.12598,-32.12598z" fill="#858352" stroke="#000000"/><g><path d="M299.72969,106.80798c0.13885,-3.33477 3.03765,-6.04336 6.66554,-6.04336c3.6279,0 6.3272,2.7057 6.3272,6.04336c0,3.33765 -2.65097,6.18837 -6.61722,6.2367c-3.77261,0.04598 -6.52053,-2.75404 -6.37553,-6.2367z" fill="#ffffff" stroke="#000000"/><path d="M302.86975,106.86635c0,-1.92278 1.55871,-3.48149 3.48149,-3.48149c1.92278,0 3.48149,1.55871 3.48149,3.48149c0,1.92278 -1.55871,3.48149 -3.48149,3.48149c-1.92278,0 -3.48149,-1.55871 -3.48149,-3.48149z" fill="#000000" stroke="none"/><path d="M299.47203,106.53373c0,0 -0.15609,-6.4525 7.08055,-6.21032c6.14231,0.2275 6.03639,6.58491 6.03639,6.58491z" fill="#5c5a4a" stroke="#000000"/></g><g><path d="M324.79885,106.80798c0.13885,-3.33477 3.03765,-6.04336 6.66554,-6.04336c3.6279,0 6.3272,2.7057 6.3272,6.04336c0,3.33765 -2.65097,6.18837 -6.61722,6.2367c-3.77261,0.04598 -6.52053,-2.75404 -6.37553,-6.2367z" fill="#ffffff" stroke="#000000"/><path d="M327.9389,106.86635c0,-1.92278 1.55872,-3.48149 3.48149,-3.48149c1.92278,0 3.48149,1.55871 3.48149,3.48149c0,1.92278 -1.55871,3.48149 -3.48149,3.48149c-1.92278,0 -3.48149,-1.55872 -3.48149,-3.48149z" fill="#000000" stroke="none"/><path d="M324.54119,106.53373c0,0 -0.15609,-6.4525 7.08054,-6.21032c6.14231,0.2275 6.03639,6.5849 6.03639,6.5849z" fill="#5c5a4a" stroke="#000000"/></g><g fill="#5d5d37" stroke="#000000"><path d="M328.37044,126.15196c0.65404,0.22949 3.53572,1.5159 6.90713,2.81193c3.39827,1.30635 8.27136,2.4838 8.249,2.6653c-0.02839,0.23035 -11.96482,0.24583 -15.68518,0.68486c-3.11771,0.36791 -7.66943,0.76437 -7.66943,0.76437c0,0 -8.14567,-1.25838 -15.21848,-2.64874c-5.66861,-1.11431 -11.92414,-1.79934 -11.93636,-1.90066c-0.0165,-0.13663 4.43557,-0.76987 7.8248,-1.51076c1.31386,-0.53795 6.23733,-1.60875 6.23733,-1.60875c0,0 5.68253,-0.30077 8.72386,0.62719c3.25876,0.99431 3.25122,2.64912 3.53518,2.67457c0,0 1.35803,-1.89493 2.7162,-2.27979c1.3582,-0.38485 5.82739,-0.45099 6.31596,-0.27956z"/><path d="M306.98809,131.08458c5.83765,1.1122 13.66503,3.04103 13.66503,3.04103c0,0 6.63871,-1.68535 9.68534,-1.98709c2.36197,-0.23394 12.8606,-0.76535 12.91136,-0.36155c0.04963,0.39481 -10.35544,13.9741 -24.24903,13.48319c-15.78857,-0.47205 -26.21723,-16.39541 -26.17384,-16.57862c0.04339,-0.18321 8.3235,1.29084 14.16116,2.40305z"/></g></g></g></svg>