<svg version="1.1" xmlns="http://www.w3.org/2000/svg" xmlns:xlink="http://www.w3.org/1999/xlink" width="160.09487" height="247.11339" viewBox="0,0,160.09487,247.11339"><defs><linearGradient x1="321.90275" y1="134.03107" x2="321.90275" y2="289.07158" gradientUnits="userSpaceOnUse" id="color-1"><stop offset="0" stop-color="#000000"/><stop offset="1" stop-color="#ffffff"/></linearGradient></defs><g transform="translate(-237.98405,-43.76561)"><g stroke-miterlimit="10"><g fill="none" stroke="none" stroke-width="1" stroke-linecap="butt" font-family="sans-serif" font-weight="normal" font-size="12" text-anchor="start"><g/><g/></g><g fill="#000000" stroke="none" stroke-width="0.5" stroke-linecap="butt"><path d="M384.2198,243.15564c-0.64959,-0.76029 0.11071,-1.40987 0.11071,-1.40987l0.52013,-0.41884c2.81631,-1.57398 5.98542,-3.58111 7.81403,-6.29153c0.75497,-1.11904 0.35025,-5.43063 0.46282,-6.8786c-0.26213,-2.96771 -1.45331,-5.83239 -1.64432,-8.75702c-0.32436,-4.96621 1.32797,-9.81734 2.57086,-14.49728c0.40588,-1.52833 0.365,-2.93372 0.96239,-4.38917c1.82991,-4.15825 0.77679,-9.93432 0.40802,-14.2019c-0.35546,-4.11364 0.30897,-8.54981 0.65743,-12.68157c-0.28425,-1.45305 -0.54414,-2.86358 -0.89299,-4.26282c-0.1965,0.59987 -0.41774,1.17505 -0.66406,1.71639c-1.30003,2.85697 -2.723,5.48494 -2.95101,8.74647l-0.07828,0.99693c-0.04324,0.55058 -0.52463,0.96188 -1.07521,0.91864c-0.35153,-0.0276 -0.64627,-0.23382 -0.8022,-0.52261l-0.96816,-1.73231l0.0136,-0.0076c-0.02742,-0.04474 -0.05398,-0.09008 -0.07959,-0.13611c-1.97424,-3.54785 0.55145,-9.1086 2.08865,-12.20643c0.63113,-1.27188 1.78304,-4.08962 3.54598,-4.15746c0.17037,-1.34031 0.20024,-2.72879 0.02208,-4.18936c-0.31083,-3.58679 -0.55998,-7.12045 -0.77381,-10.65592c-0.43164,1.44509 -0.8412,2.89267 -1.46292,4.28729c-1.53081,3.43397 -4.1394,6.34966 -4.44163,10.19824l-0.1041,0.12989l0.0536,0.02267l-0.40161,0.9496c-0.15727,0.39753 -0.55984,0.66385 -1.00829,0.62864c-0.39798,-0.03126 -0.72317,-0.29143 -0.85655,-0.64119l-0.5521,-1.36136l0.37899,-0.15371c-0.62708,-1.94122 -0.26116,-3.74921 -0.1236,-6.26772c0.33399,-6.11504 0.76763,-12.21227 1.24706,-18.31743c0.25539,-3.2521 -0.13381,-7.63393 3.94941,-7.71449c2.59374,0.35914 3.6888,2.46634 4.26987,4.80223c0.08457,-1.87863 0.07165,-3.80926 -0.1687,-5.5848c-0.15073,-1.11349 -1.10927,-1.96653 -1.49048,-3.02354c-0.82472,-2.28669 -1.6038,-4.78088 -2.29962,-7.25198c-0.38184,0.25676 -0.74058,0.52538 -0.89679,0.93762c-0.4061,1.07171 -0.49138,2.54631 -0.95168,3.60323c-0.56528,1.29795 -1.46502,1.30936 -1.51568,2.72209l-0.46841,1.42138c0,0 -0.31775,0.94818 -1.26592,0.63044c-0.94817,-0.31775 -0.63043,-1.26592 -0.63043,-1.26592l0.40498,-1.18491c0.16414,-1.50419 1.1117,-1.81335 1.61254,-3.05072c0.42476,-1.04944 0.48304,-2.56374 0.95168,-3.60322c0.43302,-0.96047 1.52614,-1.45994 2.19622,-2.27304c-0.179,-0.67583 -0.3508,-1.34494 -0.5146,-2.00243c0,0 -0.24099,-0.97052 0.72955,-1.21151c0.29252,-0.07263 0.51876,-0.03522 0.69211,0.05252c0.01912,-0.45719 0.02731,-0.91456 0.06223,-1.3574c0.11383,-3.82963 -3.36028,-6.08839 -4.81268,-9.63217c-0.54912,-1.33983 -1.35081,-2.6814 -2.09936,-4.03164c0.16013,0.61757 0.31559,1.22128 0.44271,1.80102c0.402,1.83342 0.40301,3.94701 0.87567,5.71338c0.30142,1.12646 0.85825,2.24285 0.79332,3.40715c0,0 -0.07828,0.99693 -1.07522,0.91864c-0.99693,-0.07828 -0.91864,-1.07521 -0.91864,-1.07521c0.10569,-0.93642 -0.49001,-1.81994 -0.73081,-2.73102c-0.47542,-1.79878 -0.48954,-3.93285 -0.89555,-5.79394c-0.57366,-2.62953 -1.62116,-5.6691 -1.39041,-8.40708c0.03788,-0.44947 0.1138,-0.88665 0.21601,-1.31517c-0.84824,-3.51691 -1.50032,-7.16583 -1.92022,-10.62098c-0.49877,-1.99878 -0.31156,-4.79413 -1.08595,-6.58922c-1.33874,-3.10323 -2.72613,-6.26274 -4.23931,-9.27397c-1.45164,-2.88876 -3.74073,-4.86509 -4.35347,-7.98301c-0.37542,-0.32019 -0.75367,-0.6338 -1.13471,-0.93996c-0.57716,-0.89681 -1.27325,-1.71148 -1.88982,-2.58167c-0.35295,-0.49815 -0.12232,-1.91593 -0.6918,-1.69587c-0.23192,0.08962 -1.86063,3.29249 -2.20424,3.72943l0.18477,-0.20754c0,0 -0.07828,0.99693 -1.07522,0.91865c-0.99693,-0.07828 -0.91864,-1.07522 -0.91864,-1.07522l0.23696,-0.87216c0.79704,-1.01356 2.50406,-4.41797 3.79122,-4.4931c1.1702,-0.06829 3.50143,4.05579 4.05073,4.93664c0.18774,0.14357 0.37479,0.28958 0.56115,0.43787c0.67156,-0.00374 0.88201,0.5189 0.94487,0.7758c3.61892,3.06155 6.96192,6.90794 9.96247,10.39485c1.53548,1.78436 4.1967,2.58357 5.20477,4.75746c0.47224,1.01839 -0.40571,3.18265 -0.586,4.11464c-0.28195,1.45744 -0.23652,3.07416 -0.35278,4.55449c-0.19692,2.5076 -0.1823,5.29055 -0.9457,7.69247c-0.42361,1.33284 -1.08633,2.61211 -1.474,3.97563c0.2651,1.08082 0.54603,2.15033 0.8399,3.20108c0.70984,2.53825 2.71531,5.07418 3.71483,7.56795c1.60828,4.01263 5.09998,6.0052 4.9723,10.52908c-0.13495,1.72514 -0.08038,3.23396 -0.81666,4.71517c0.76426,2.81632 1.65204,5.71155 2.59505,8.33373c0.51545,1.43327 1.33693,1.84225 1.58456,3.39079c0.4159,2.60066 0.25474,5.62042 0.04737,8.26115c-0.16215,2.06481 -0.08475,4.04733 -0.7898,5.9087c0.33642,5.1181 0.29314,10.37635 0.75053,15.61372c0.19941,1.71274 0.20717,3.65081 0.01419,5.58851c0.03724,0.05706 0.07206,0.11508 0.10428,0.17383c0.39287,0.71651 -0.0867,1.67371 0.18473,2.44448c0.77339,2.19614 1.11916,4.42502 1.54553,6.72492c-0.30297,4.11733 -1.02049,8.53483 -0.66124,12.6262c0.40952,4.6638 1.31524,10.57908 -0.55918,15.14579c-0.5764,1.30981 -0.50342,2.72303 -0.87293,4.12908c-1.18423,4.50627 -2.79779,9.11031 -2.5043,13.89009c0.17963,2.9254 1.3904,5.85244 1.64624,8.83349c-0.1447,1.98492 0.29153,6.07709 -0.68062,7.79802c-1.75308,3.1034 -5.61454,5.44975 -8.62048,7.1297l-0.19669,0.19358c0,0 -0.76029,0.64958 -1.40987,-0.11071zM393.72065,142.02297c-0.3112,-1.00776 -0.59094,-2.03883 -0.60115,-3.08671c-0.01847,-1.89387 -0.71792,-7.14136 -3.13096,-7.04426c-1.94005,-0.65447 -1.69759,4.58626 -1.79897,5.8772c-0.47819,6.08936 -0.91078,12.17073 -1.2439,18.26993c-0.02533,0.46372 -0.01397,1.02201 -0.00345,1.61902c0.97654,-2.02554 2.28217,-3.92639 3.21638,-6.00435c1.24829,-2.77659 1.67679,-5.77378 3.04997,-8.55161c0.21634,-0.34362 0.38295,-0.7049 0.51211,-1.07922zM390.31581,175.72473c0.91078,-3.30603 2.38759,-6.40127 3.28245,-9.6922c-0.48981,0.83058 -1.07329,1.87319 -1.13504,1.99877c-0.62338,1.26762 -1.66235,2.74112 -1.96781,4.1462c-0.25555,1.17552 -0.23568,2.36494 -0.17959,3.54723zM382.90188,86.48c0.72572,-2.23315 0.67235,-4.89861 0.856,-7.23738c0.12156,-1.54793 0.08921,-3.22509 0.37791,-4.75019c0.05331,-0.28165 0.91038,-2.61671 0.65273,-3.144c-0.77198,-1.57983 -3.56828,-2.62146 -4.80287,-4.05307c-2.04616,-2.37269 -4.22499,-4.827 -6.52751,-7.1296c0.81115,1.1627 1.71149,2.30107 2.34175,3.5471c1.52696,3.01881 3.09467,6.29174 4.32081,9.45366c0.79157,2.04122 0.65092,4.76937 1.19331,6.96415c0.28601,2.42395 0.70242,4.91647 1.21566,7.39218c0.13188,-0.34552 0.25831,-0.6924 0.3722,-1.04286z"/><path d="M372.50657,128.84736c0.99693,0.07828 0.91865,1.07522 0.91865,1.07522l-0.05219,0.66462c-0.38182,4.86213 -0.55183,9.53119 -1.77582,14.10842c0.32447,1.1089 0.49669,2.19068 0.37266,3.21178c1.53651,2.63428 0.90018,6.11619 0.67083,9.0367l-0.02609,0.33231c0,0 -0.07828,0.99693 -1.07522,0.91865c-0.99693,-0.07828 -0.91864,-1.07522 -0.91864,-1.07522l0.02609,-0.33231c0.2228,-2.8372 0.76517,-5.85743 -0.63066,-8.4522c0.0024,-0.04995 0.00429,-0.09992 0.00565,-0.14986c-0.66819,0.95064 -1.37943,1.89567 -1.61526,2.90269c-0.85541,3.65249 0.77277,6.93008 0.85399,10.48334c0.08583,3.7555 -0.59481,7.67005 -0.88936,11.42095c-0.40799,5.18719 1.86679,10.54263 2.09869,15.75715c0.15662,3.52204 -1.04605,6.55623 -1.78122,9.83978c-0.43147,1.92708 -0.67792,3.37028 -1.94477,5.00358c-2.38748,1.96541 -1.85976,5.28865 -2.09055,8.22761c-0.08051,1.02528 -0.30847,2.05093 -0.57616,3.07656c-0.15901,1.9771 -0.40373,4.95981 0.36483,6.83129c0.56089,1.36581 1.3494,1.84554 2.2717,2.939c1.32607,1.57219 1.66823,4.02736 1.79489,6.01936c0.14496,2.27948 -1.88561,8.41863 -4.81781,4.76103c-0.44684,-0.5574 -0.45288,-1.35513 -0.67931,-2.03269c-0.79116,-3.89152 -1.90153,-7.84019 -2.1339,-11.73771c-0.13841,-2.32174 0.61928,-4.56869 1.19829,-6.83394c0.0055,-0.07245 0.01099,-0.14405 0.01644,-0.21477c0.1876,-2.15317 -0.41187,-4.45164 -0.47787,-6.62587c-0.2407,-7.92819 2.48156,-15.77849 5.18645,-23.03794c0,0 0.29773,-0.79905 1.08119,-0.6465c-0.72615,-3.83295 -1.80261,-7.68373 -1.50474,-11.48251c0.28833,-3.67166 0.95686,-7.50075 0.88516,-11.17615c-0.07253,-3.71775 -1.78521,-7.21968 -0.79898,-11.04548c0.46959,-1.82163 2.02334,-3.18257 2.75384,-4.91891c0.09411,-0.27751 0.18318,-0.55572 0.26755,-0.8346c-0.85617,-2.74162 -2.47422,-5.48218 -2.91699,-8.25339c-0.79997,-5.00685 1.57035,-10.74968 4.27849,-14.74083c0,0 0.5626,-0.82672 1.38933,-0.26414c0.82673,0.56259 0.26415,1.38932 0.26415,1.38932c-2.42022,3.54559 -4.73155,8.8897 -3.94735,13.36814c0.27448,1.56752 1.03107,3.26687 1.76677,4.98073c0.63837,-3.54825 0.76802,-7.19367 1.05985,-10.90991l0.05219,-0.66462c0,0 0.07828,-0.99693 1.07521,-0.91865zM368.27764,186.73327c-2.06819,5.5936 -4.1005,11.54808 -4.57692,17.58835c0.36031,-0.76057 0.87055,-1.47062 1.60049,-2.11384c1.43144,-1.78146 1.31107,-3.99829 1.93329,-6.0601c0.71778,-2.37848 1.36026,-4.7391 1.23732,-7.30986c-0.03348,-0.70012 -0.10178,-1.40178 -0.19417,-2.10453zM363.04705,223.33085c0.40307,3.18845 1.25785,6.39893 1.90175,9.58745c1.20925,4.33629 1.59313,-3.58869 1.18272,-5.31045c-0.39959,-1.67633 -2.09249,-2.7899 -3.08447,-4.277z"/></g><path d="M280.9166,129.05139c-0.76029,0.64959 -1.40987,-0.11071 -1.40987,-0.11071l-0.51645,-0.767c-0.12571,-0.51115 -0.25926,-1.01616 -0.39867,-1.51618c-0.26664,0.31742 -0.52794,0.64605 -0.78022,0.98986c-0.409,0.55738 -0.82029,1.21383 -1.25854,1.86584c3.85717,8.38257 4.59312,17.38971 3.87437,26.54232c-0.35138,4.12173 -2.76608,8.67571 -4.85421,12.70464c0.07362,0.41091 0.10754,0.83927 0.07666,1.29765c-0.28313,3.48246 -1.37996,6.69066 -2.54628,9.87905c-0.00929,0.81745 -0.02638,1.59271 -0.08081,2.28594c-0.36523,4.65082 1.39629,8.74413 1.61674,13.37878c0.08442,1.77477 -0.1664,3.58621 -0.08446,5.36684c0.11598,2.52018 0.34246,5.29672 -0.63862,7.68505c-1.01165,2.96401 -1.34111,6.1868 -3.10488,8.94414c-0.12594,0.19689 -0.25774,0.39454 -0.39445,0.59289c-0.01274,3.06796 -1.44345,6.26281 -3.41958,8.6083c-0.35556,0.42202 -0.73573,0.78981 -1.12333,1.13756c0.14695,1.85989 0.48066,4.51429 -0.32524,5.90911c-0.69418,1.20144 -1.75517,1.81409 -2.92043,2.21998c-0.12052,2.50962 -0.24611,5.01321 -0.44119,7.49732l-0.07828,0.99693c0,0 -0.07828,0.99693 -1.07521,0.91865c-0.99693,-0.07828 -0.91865,-1.07522 -0.91865,-1.07522l0.07828,-0.99693c0.17648,-2.24733 0.29613,-4.51139 0.4066,-6.78161c-0.07688,0.01887 -0.15357,0.03776 -0.23002,0.05681l-1.02303,0.25402c0,0 -0.97052,0.24099 -1.21151,-0.72955c-0.24099,-0.97052 0.72955,-1.21151 0.72955,-1.21151l0.02924,-0.00726c0.06517,-0.15445 0.14249,-0.25278 0.14249,-0.25278c0.94487,-1.09178 1.21866,-2.76219 1.87118,-4.19684c0.06673,-1.14815 0.14199,-2.29546 0.23192,-3.44059c0,0 0.07828,-0.99693 1.07522,-0.91864c0.44395,0.03487 0.67468,0.2519 0.79405,0.48195l-0.29077,-0.17649l-0.47956,0.04791c0.03961,-0.08846 0.08028,-0.17678 0.12197,-0.26496l-0.14569,-0.08842c0,0 0.05398,-0.68741 0.6431,-0.87578c0.31593,-0.56721 0.66819,-1.12929 1.04462,-1.68758c0.21005,-3.53469 0.74522,-7.1292 1.01766,-10.59857c0,0 0.07828,-0.99693 1.07522,-0.91864c0.99693,0.07828 0.91865,1.07521 0.91865,1.07521c-0.19004,2.42001 -0.51886,4.90974 -0.76809,7.39549c0.75366,-0.97538 1.51302,-1.94652 2.20975,-2.9209c-0.09242,-1.15461 -0.43965,-2.28827 -1.09843,-3.34781c-0.45871,-2.53475 -0.17703,-5.04441 -0.7928,-7.53584l0.00064,-0.64772c0,0 0.07828,-0.99693 1.07522,-0.91865c0.99693,0.07828 0.91864,1.07522 0.91864,1.07522l-0.05155,0.0169c0.58689,2.43097 0.34497,4.8454 0.71747,7.29457c0.31836,0.491 0.57283,1.00382 0.76888,1.53237c1.04858,-2.28878 1.37429,-4.81639 2.15178,-7.17084c0.91806,-2.09405 0.61182,-4.7154 0.50961,-6.9366c-0.08125,-1.76553 0.16357,-3.56075 0.08598,-5.31928c-0.15457,-3.5042 -1.1722,-6.68206 -1.53549,-10.03347c-0.18874,0.6231 -0.36381,1.25102 -0.52,1.88554c-0.98009,3.98173 -1.34935,8.37616 -3.58864,12.11286c-1.35736,2.89295 -1.233,6.87372 -1.48357,10.06461l-0.02609,0.33231c0,0 -0.07828,0.99693 -1.07522,0.91865c-0.99693,-0.07828 -0.91865,-1.07522 -0.91865,-1.07522l0.0261,-0.33231c0.27835,-3.54458 0.26588,-7.58703 1.70718,-10.83872c2.16719,-3.58072 2.46165,-7.84035 3.41586,-11.65611c0.63427,-2.53634 1.58321,-4.9679 2.48924,-7.41105c0.06746,-2.99997 0.05553,-6.41115 1.17931,-8.87182c0.38916,-0.85213 0.77988,-1.6993 1.16764,-2.54583c-0.32352,-1.188 -0.95063,-2.33118 -1.06679,-3.62475c-0.31965,-3.55968 0.2153,-7.17027 0.16726,-10.74821c-0.03501,-2.60767 -0.89933,-5.27475 -0.72616,-7.84613c0,0 0.07828,-0.99693 1.07521,-0.91864c0.99693,0.07828 0.91865,1.07521 0.91865,1.07521c-0.22981,2.44433 0.70382,5.14549 0.7319,7.64891c0.0397,3.5399 -0.46822,7.10571 -0.17364,10.62403c0.03639,0.4347 0.12008,0.84344 0.22793,1.23778c0.75573,-1.70165 1.48148,-3.41804 2.14108,-5.18384c0.5929,-1.58723 1.53843,-2.88037 1.65903,-4.60466c0.66511,-8.4696 0.07246,-16.78379 -3.2673,-24.58176c-0.73779,0.78029 -1.58065,1.34341 -2.60131,1.38445c0,0 -0.99693,-0.07828 -0.91865,-1.07521c0.07828,-0.99693 1.07522,-0.91865 1.07522,-0.91865c0.20098,0.11111 2.26203,-2.09966 2.71659,-2.67936c0.77595,-0.98958 1.71668,-2.00772 2.65518,-3.06864c-1.56321,-5.0966 -3.5229,-9.79747 -3.70418,-15.40928c0,0 -0.03228,-0.99948 0.96719,-1.03178c0.99947,-0.03228 1.03177,0.96719 1.03177,0.96719c0.16066,4.97386 1.76393,9.22314 3.21621,13.69179c1.48415,-1.86266 2.70563,-3.86728 2.87945,-6.08078l0.0261,-0.33231c0,0 0.07828,-0.99693 1.07522,-0.91864c0.99693,0.07828 0.91864,1.07521 0.91864,1.07521l-0.02609,0.33231c-0.27504,3.50232 -2.24811,5.48544 -4.31982,7.67447c0.27633,0.90518 0.53846,1.82393 0.77376,2.76373l0.09599,-0.05019c0,0 0.64958,0.76029 -0.11071,1.40987zM263.7666,232.93781c0.43298,-0.66254 0.39597,-2.05236 0.28084,-3.36695c-0.35039,0.35201 -0.68288,0.73481 -0.98265,1.1779c-0.06392,0.09448 -0.12471,0.18979 -0.18271,0.28582c-0.05406,0.95333 -0.10265,1.90707 -0.1493,2.86052c0.39905,-0.226 0.75423,-0.52944 1.03383,-0.95728zM267.72806,221.69214c-0.64622,0.81142 -1.28603,1.62847 -1.86187,2.44748c-0.01526,0.3072 -0.02764,0.61378 -0.03675,0.91961c0.79716,-1.03588 1.45196,-2.17879 1.89862,-3.36709zM263.00896,226.66021c0.14867,0.28654 0.12459,0.59326 0.12459,0.59326c-0.01339,0.17059 -0.02647,0.34124 -0.03924,0.51192c0.23424,-0.21092 0.47175,-0.41641 0.70867,-0.62325z" fill="#000000" stroke="none" stroke-width="0.5" stroke-linecap="butt"/><path d="M270.51672,86.39919c-0.99693,-0.07828 -0.91864,-1.07521 -0.91864,-1.07521l0.12811,-0.97586c0.51184,-1.16307 0.48142,-2.34328 0.85162,-3.54019c-1.57262,2.63572 -4.34214,4.34218 -5.91675,7.12043c-0.62303,1.09928 -0.07201,4.11826 -0.03278,5.25632c0.09094,2.63746 -0.02168,5.66182 0.64781,8.20067c0,0 0.24099,0.97052 -0.72954,1.21151c-0.97052,0.24099 -1.21152,-0.72954 -1.21152,-0.72954c-0.04624,-0.19508 -0.08899,-0.39194 -0.12853,-0.59033c-4.79592,7.20793 -8.53213,16.03393 -9.17575,24.70218c-2.67374,10.76489 -0.45114,21.80914 -1.21813,32.58663c-0.33448,4.25943 0.03408,9.64125 -1.79772,13.58344c-1.91987,4.13172 -6.26026,7.94847 -6.61659,12.60561c-0.47736,1.68694 -0.32386,3.35394 -0.73659,5.01938c-1.35384,5.46277 -3.89255,10.65934 -3.62955,16.48407c0.06021,1.33352 0.97849,2.16251 1.29487,3.43666c0.75412,1.18923 2.39942,3.38507 2.70899,4.73427c1.54896,6.75063 -0.27265,13.52382 -0.91583,20.38423c0.98068,2.2814 2.68094,4.3302 3.08862,6.7544l0.51588,0.89298c0,0 0.48786,0.87293 -0.38506,1.36078c-0.87293,0.48786 -1.36078,-0.38507 -1.36078,-0.38507l-0.65679,-1.20527c-0.42117,-2.50448 -2.23377,-4.68654 -3.17836,-7.11213c0.46781,-7.03814 2.0576,-13.35236 0.93864,-20.262c-0.16494,-1.01852 -2.00038,-3.43926 -2.5941,-4.37553c-0.38643,-1.55626 -1.32584,-2.4538 -1.45412,-4.13512c-0.45448,-5.95642 2.29771,-11.48316 3.68457,-17.04623c0.40183,-1.61184 0.24584,-3.25424 0.71091,-4.89774c0.39525,-4.91147 4.73413,-8.76429 6.76963,-13.09194c1.7275,-3.67285 1.30753,-8.9283 1.61919,-12.89701c0.83972,-10.83212 -1.45428,-21.92092 1.23819,-32.75495c0.75858,-9.19665 4.70904,-18.47693 9.86506,-26.05464c0,0 0.38059,-0.55926 0.97569,-0.44481c-0.19898,-1.96573 -0.20229,-4.00155 -0.26819,-5.91549c-0.05501,-1.59798 -0.57921,-4.5535 0.18987,-6.09442c1.73571,-3.47764 5.52573,-5.25728 6.75325,-8.92034c2.1838,-2.7771 3.83012,-7.83041 4.40174,-11.35346c0.42077,-2.59333 0.05805,-5.98294 1.47301,-8.22484c0.18964,-0.30047 0.41134,-0.56905 0.6587,-0.81027c0.27134,-1.48948 0.72424,-2.9228 1.5224,-4.2365c3.54858,-3.05982 7.90099,-5.6025 12.32475,-7.05096c1.53995,-0.50422 3.56628,-1.4473 4.63538,0.98154c0.48081,1.09234 -1.54424,2.15096 -2.03044,2.73074c-1.62756,1.94082 -2.75679,4.59511 -5.09521,5.88511c-1.15663,0.63805 -3.02107,0.7777 -4.30864,1.09742c-1.21155,0.28852 -3.88437,0.60445 -5.26042,1.59856c-0.31272,2.22338 -0.22513,4.60704 -0.38969,6.70257c-0.10422,1.32709 0.09615,3.35712 -0.40471,4.60557c-0.29425,0.73345 -1.00382,1.30363 -1.13117,2.08357c-0.54104,3.31326 -1.34582,6.40193 -3.48181,9.07244c-0.5337,1.24335 -0.39043,2.53159 -0.91792,3.81672l0.02372,0.35339c0,0 -0.07828,0.99693 -1.07522,0.91864zM278.4501,56.43202c1.40746,-0.53825 2.96994,-0.80457 4.22187,-1.12536c1.89417,-0.47034 4.46852,-0.6435 5.65458,-2.44216c0.2522,-0.38246 0.16408,-0.93496 0.43669,-1.30314c0.68279,-0.92217 1.52996,-1.71094 2.26861,-2.58903c0.31669,-0.37648 0.69878,-0.70549 1.11686,-0.9648c0.13878,-0.08609 0.64829,0.00468 0.48895,-0.03121c-1.13596,-0.25588 -2.40347,0.68504 -3.42007,1.02934c-3.51222,1.1895 -7.1798,3.45641 -10.06353,5.89106c-0.28741,0.48347 -0.51809,0.99797 -0.70397,1.53529zM271.04204,79.91979c0.47578,-0.66691 0.86723,-1.36273 1.20316,-2.07772c-0.29298,0.48666 -0.59782,0.93605 -0.91287,1.33669c-0.08571,0.25575 -0.18294,0.50238 -0.2903,0.74101z" fill="#000000" stroke="none" stroke-width="0.5" stroke-linecap="butt"/><path d="M343.67314,53.02401c29.03396,-21.73405 45.41687,38.29016 48.18454,84.15555c1.47145,24.38464 5.88415,110.87131 -12.24416,115.90882c-0.47343,0.13156 1.49008,-17.23856 1.49008,-17.23856c0,0 -6.28243,17.00853 -6.72554,16.94114c-18.92681,-2.87804 -5.74602,-113.63977 -5.70423,-114.17198c2.94553,-37.50892 -33.76736,-79.03245 -25.00069,-85.59496z" fill="#000000" stroke="none" stroke-width="0" stroke-linecap="butt"/><path d="M277.59116,130.96481c-0.04179,0.53221 -4.31195,111.99369 -23.456,111.88206c-0.4482,-0.0026 -3.99868,-17.7833 -3.99868,-17.7833c0,0 -0.77193,17.46371 -1.21904,17.25985c-17.11976,-7.80549 0.739,-92.54321 5.99873,-116.39927c9.8931,-44.87116 35.44466,-101.6023 60.73016,-75.60261c7.63485,7.85049 -35.10965,43.13432 -38.05519,80.64326z" fill="#000000" stroke="none" stroke-width="0" stroke-linecap="butt"/><path d="M356.71461,51.31652c4.05793,3.64046 5.44156,8.71618 3.09044,11.33692c-2.35113,2.62075 -17.04622,-10.56252 -14.69508,-13.18327c2.35114,-2.62075 7.5467,-1.7941 11.60464,1.84636z" fill="#dddd61" stroke="#959541" stroke-width="2" stroke-linecap="butt"/><path d="M315.30077,47.63081c1.91323,2.95562 -14.65955,13.68347 -16.57278,10.72785c-1.91322,-2.95562 0.24574,-7.75314 4.82219,-10.71554c4.57645,-2.96241 9.83737,-2.96793 11.75059,-0.01231z" fill="#dddd61" stroke="#959541" stroke-width="2" stroke-linecap="butt"/><path d="M280.31969,288.29141c0,0 1.38862,-93.71045 1.23063,-117.33859c-0.05451,-8.15261 8.18688,-36.76129 40.20201,-36.9211c31.60235,-0.15775 39.85672,29.48704 39.84884,36.89673c-0.00476,2.87381 -2.64736,3.5078 -3.15444,4.79788c-2.39102,6.08319 -6.84677,-1.55837 -6.84677,-1.55837c0,0 0.07549,-3.0993 -2.81625,-3.15415c-3.43441,-0.06514 -2.94538,3.11562 -2.94538,3.11562c0,0 -1.41774,6.62742 -1.40704,12.60501c0.03126,17.47439 1.61253,102.26494 1.61253,102.26494l-48.21366,0.07222c0,0 2.78885,-79.9626 2.73825,-99.05283c-0.02066,-7.79469 -2.04364,-17.89455 -2.04364,-17.89455c0,0 -0.72051,-1.20471 -3.8856,-1.22015c-3.11083,-0.01515 -2.81569,2.90899 -2.81569,2.90899l-1.91403,114.55551z" fill="url(#color-1)" stroke="#000000" stroke-width="2" stroke-linecap="butt"/><path d="M346.75877,141.01796c0,0 3.6988,-0.70081 9.5,6c1.53533,1.77343 4.54277,3.00216 6.36807,13.19134c-0.7683,1.42802 -1.44263,2.96655 -1.66764,4.25725c-0.27015,1.54961 0.32994,4.2574 -0.32478,5.61656c-0.59067,1.22619 -2.04865,1.06047 -3.05879,0.77042c-2.11617,3.43418 -0.23368,13.56961 -7.18851,10.96454c-1.06168,-0.39767 -1.82747,-0.9355 -2.73752,-1.60582c-0.53936,-0.18286 -1.99193,-1.06278 -2.5446,-1.05668c-1.53161,0.01691 -2.36153,1.37756 -3.37427,2.22857c-0.21436,0.18013 -0.42752,0.36735 -0.64018,0.55951c2.38823,-20.39233 5.66823,-40.92569 5.66823,-40.92569z" fill="#000000" stroke="none" stroke-width="0" stroke-linecap="butt"/><path d="M287.41235,81.67544c0.31668,-1.38034 6.94221,-17.78712 7.01482,-17.70873c0.74277,0.80194 9.80108,-18.32357 32.38929,-18.63844c38.76402,-0.54038 36.87651,39.71383 37.80841,43.029c2.70481,9.62213 2.17762,15.5649 0.9537,14.385c-1.14156,-1.10048 -3.54348,-3.4338 -3.54348,-3.4338c0,0 2.27149,10.55834 -0.31327,20.73409c-2.29975,9.32957 -8.62397,16.60123 -8.62397,16.60123l-0.96791,-2.43059c0,0 -1.19159,2.11113 -2.41434,3.1534c-1.22275,1.04226 -3.65621,2.63458 -3.65621,2.63458l0.19822,-3.70005c0,0 -7.901,10.43142 -25.12703,8.93181c-16.2362,-1.53127 -25.15576,-12.68351 -25.15576,-12.68351l-0.32369,2.6376c0,0 -3.62504,-3.58757 -5.4025,-10.16168c-2.11852,-7.83557 -2.27102,-12.45927 -2.27102,-12.45927l-4.02595,-5.35908c0,0 -3.05171,-3.13694 -0.54524,-8.79509c2.36651,-5.3422 2.9511,-10.7593 2.9511,-10.7593c0,0 -1.40926,0.553 -3.38216,0.53198c-1.24849,-0.0133 4.2414,-5.65669 4.43696,-6.50911z" fill="#000000" stroke="none" stroke-width="1.5" stroke-linecap="butt"/><path d="M280.60866,87.94965h0.00001c0,0.00001 -0.00002,0.00001 -0.00002,0.00001z" fill="#000000" stroke="none" stroke-width="1.5" stroke-linecap="butt"/><path d="M297.46566,106.82457c0,0 -3.32405,-3.19341 -3.64332,-8.76273c-0.17812,-3.10675 2.32864,-2.10431 2.32864,-2.10431" fill="none" stroke="#000000" stroke-width="0.25" stroke-linecap="round"/><path d="M352.25603,104.44297c1.49431,-5.87983 2.46023,-8.44816 4.37531,-8.03783c1.91507,0.41032 1.43838,4.37513 -0.30359,9.99885c-1.65557,5.34477 -6.84788,8.46489 -6.84788,8.46489c0,0 1.28187,-4.54609 2.77617,-10.42592z" fill="#ffffff" stroke="#000000" stroke-width="1" stroke-linecap="butt"/><path d="M280.57559,135.84865l3.25807,-70.59152l85.90855,3.96501l-3.25806,70.59153z" fill="#000000" stroke="#000000" stroke-width="1.4" stroke-linecap="butt"/><path d="M286.31775,131.66133l2.41587,-62.20768c0,0 32.54832,2.44009 33.9041,2.25544l0.03034,-0.00511c0,0 0.12638,-0.02125 0.24041,-0.10621l41.24504,1.90363l-2.84406,61.6211z" fill="#ffffff" stroke="#000000" stroke-width="1.4" stroke-linecap="butt"/><g fill="#000000" stroke="none" stroke-width="0" stroke-linecap="butt"><path d="M294.08638,95.17414c0,0 5.18046,-9.02766 13.0336,-8.41096c7.85314,0.6167 11.45549,9.71541 11.45549,9.71541c0,0 -6.77243,-5.3264 -11.76934,-5.7188c-4.66425,-0.36628 -12.71975,4.41436 -12.71975,4.41436z"/><path d="M295.28463,85.74739l5.49434,2.90607l-2.60431,1.65145z"/><path d="M293.55613,87.73484l5.49435,2.90609l-2.60432,1.65144z"/></g><g fill="#000000" stroke="none" stroke-width="0" stroke-linecap="butt"><path d="M344.18069,93.15374c-4.9969,-0.3924 -12.51774,3.81156 -12.51774,3.81156c0,0 4.97846,-8.42487 12.8316,-7.80817c7.85314,0.6167 11.56092,10.34234 11.56092,10.34234c0,0 -7.21052,-5.97946 -11.87477,-6.34574z"/><path d="M352.77735,94.0518l-2.31461,-2.03774l5.88063,-2.01281z"/><path d="M354.17443,96.28469l-2.3146,-2.03773l5.88062,-2.01282z"/></g><path d="M343.14595,109.14697c0,0 -7.00189,15.44878 -20.93532,14.05547c-14.06665,-1.40664 -17.88919,-16.79806 -17.88919,-16.79806c0,0 6.21946,4.22589 19.10261,4.75673c13.26314,0.5465 19.7219,-2.01414 19.7219,-2.01414z" fill="#ffffff" stroke="#000000" stroke-width="1.5" stroke-linecap="butt"/><path d="M278.01022,206.30483c0,0 -0.4038,-24.21026 3.0462,-42.95382c1.8716,-10.16823 8.57404,-18.97943 9.37298,-19.76523c4.32612,-4.25495 12.72367,-5.42381 12.72367,-5.42381l-3.73395,38.57361c0,0 -4.96003,-8.19201 -5.69463,-4.71646c-0.7346,3.47555 0,34.42857 0,34.42857z" fill="#dddd61" stroke="#6e6e30" stroke-width="2" stroke-linecap="butt"/><path d="M295.43879,289.73339l3.57143,-105.57142l2.85714,-45.71428c0,0 12.26204,5.14286 20.85715,5.14286c8.54748,0 20.42857,-4.71429 20.42857,-4.71429l1.71429,45.14286l5.42857,105.85714z" fill="#dddd61" stroke="#6e6e30" stroke-width="2" stroke-linecap="butt"/><path d="M301.94076,137.54387c0.40617,-1.58777 14.21,4.97525 21.9266,4.97525c7.68326,0 18.6621,-6.57725 19.31037,-4.84853c0.71445,1.90521 -4.82037,7.40446 -18.80439,8.01856c-16.13709,0.70865 -22.70235,-7.09073 -22.43258,-8.14527z" fill="#dddd61" stroke="#6e6e30" stroke-width="2" stroke-linecap="butt"/><path d="M314.81786,92.93941c-0.14117,2.38486 -2.33944,4.12748 -4.90999,3.89227c-2.57055,-0.23521 -4.53999,-2.35918 -4.39882,-4.74404c0.14117,-2.38486 2.33944,-4.12749 4.90999,-3.89228c2.57055,0.23521 4.53999,2.35919 4.39882,4.74405z" fill="#000000" stroke="none" stroke-width="0" stroke-linecap="butt"/><path d="M293.7245,168.9834l3.28572,-26.57143l4.2977,-2.99759l11.41659,9.56902l-12.14285,28.57143c0,0 0.08989,-2.52699 -1.77339,-4.07155c-1.74846,-1.44938 -5.08375,-4.49988 -5.08375,-4.49988z" fill="#dddd61" stroke="none" stroke-width="0" stroke-linecap="butt"/><path d="M341.4745,162.61435c0,6.44332 -8.5439,11.66667 -19.08334,11.66667c-10.53943,0 -19.08333,-5.22335 -19.08333,-11.66667c0,-6.44332 8.54389,-11.66666 19.08333,-11.66666c10.53943,0 19.08334,5.22334 19.08334,11.66666z" fill="#ffff6e" stroke="none" stroke-width="0" stroke-linecap="butt"/><path d="M365.58165,163.34054c0,12.11082 -6.52385,21.92857 -14.57143,21.92857c-8.04758,0 -10,-10.10347 -10,-22.21428c0,-11.92241 2.62305,-24.49555 2.85715,-24.5c8.04613,-0.15277 21.71429,12.67489 21.71429,24.78571z" fill="#ffffff" stroke="#000000" stroke-width="1.5" stroke-linecap="butt"/><path d="M354.58165,143.55483c0,0 -2.58364,6.56445 -4.65456,9.65865c-1.97184,2.94617 -8.63116,7.62706 -8.63116,7.62706" fill="none" stroke="#000000" stroke-width="1.5" stroke-linecap="round"/><path d="M349.86735,140.9834c0,0 -1.95281,4.46006 -3.30036,6.28043c-1.36647,1.84594 -4.84249,4.71957 -4.84249,4.71957" fill="none" stroke="#000000" stroke-width="1.5" stroke-linecap="round"/><path d="M358.58165,148.55483c0,0 -4.15507,9.70731 -6.22599,12.8015c-1.97184,2.94617 -10.63116,7.91278 -10.63116,7.91278" fill="none" stroke="#000000" stroke-width="1.5" stroke-linecap="round"/><path d="M362.58165,153.9834c0,0 -5.44078,12.27874 -7.5117,15.37293c-1.97184,2.94617 -11.91688,9.48421 -11.91688,9.48421" fill="none" stroke="#000000" stroke-width="1.5" stroke-linecap="round"/><path d="M365.43879,159.9834c0,0 -4.29793,11.27874 -6.36885,14.37293c-1.97184,2.94617 -11.63116,10.19849 -11.63116,10.19849" fill="none" stroke="#000000" stroke-width="1.5" stroke-linecap="round"/><path d="M305.39117,157.94768c0,1.25798 -1.39289,2.27778 -3.11111,2.27778c-1.71822,0 -3.11111,-1.0198 -3.11111,-2.27778c0,-1.25798 1.39289,-2.27778 3.11111,-2.27778c1.71822,0 3.11111,1.0198 3.11111,2.27778z" fill="#ffff6e" stroke="none" stroke-width="0" stroke-linecap="butt"/><path d="M318.50228,173.94768c0,1.07388 -1.09441,1.94445 -2.44445,1.94445c-1.35003,0 -2.44445,-0.87056 -2.44445,-1.94445c0,-1.07388 1.09441,-1.94445 2.44445,-1.94445c1.35003,0 2.44445,0.87056 2.44445,1.94445z" fill="#ffff6e" stroke="none" stroke-width="0" stroke-linecap="butt"/><path d="M303.05784,166.00324c0,0.55229 -0.44771,1 -1,1c-0.55229,0 -1,-0.44771 -1,-1c0,-0.55229 0.44771,-1 1,-1c0.55229,0 1,0.44771 1,1z" fill="#ffff6e" stroke="none" stroke-width="0" stroke-linecap="butt"/><path d="M309.50228,171.28102c0,1.25798 -1.11929,2.27777 -2.5,2.27777c-1.38071,0 -2.5,-1.01979 -2.5,-2.27777c0,-1.25798 1.11929,-2.27778 2.5,-2.27778c1.38071,0 2.5,1.0198 2.5,2.27778z" fill="#ffff6e" stroke="none" stroke-width="0" stroke-linecap="butt"/><path d="M315.28006,152.22546c0,2.14777 -1.98985,3.88888 -4.44445,3.88888c-2.4546,0 -4.44445,-1.74111 -4.44445,-3.88888c0,-2.14777 1.98985,-3.88889 4.44445,-3.88889c2.4546,0 4.44445,1.74112 4.44445,3.88889z" fill="#ffff6e" stroke="none" stroke-width="0" stroke-linecap="butt"/><path d="M304.94672,154.00323c0,0.55229 -0.44771,1 -1,1c-0.55229,0 -1,-0.44771 -1,-1c0,-0.55229 0.44771,-1 1,-1c0.55229,0 1,0.44771 1,1z" fill="#ffff6e" stroke="none" stroke-width="0" stroke-linecap="butt"/><path d="M336.50228,153.72546c0,1.933 -1.81574,3.5 -4.05556,3.5c-2.23982,0 -4.05555,-1.567 -4.05555,-3.5c0,-1.933 1.81573,-3.5 4.05555,-3.5c2.23982,0 4.05556,1.567 4.05556,3.5z" fill="#ffff6e" stroke="none" stroke-width="0" stroke-linecap="butt"/><path d="M336.83561,171.33657c0,2.4546 -2.61167,4.44445 -5.83333,4.44445c-3.22166,0 -5.83334,-1.98985 -5.83334,-4.44445c0,-2.4546 2.61167,-4.44445 5.83334,-4.44445c3.22166,0 5.83333,1.98985 5.83333,4.44445z" fill="#ffff6e" stroke="none" stroke-width="0" stroke-linecap="butt"/><path d="M326.7245,176.61435c0,0.82843 -0.6467,1.5 -1.44445,1.5c-0.79774,0 -1.44445,-0.67157 -1.44445,-1.5c0,-0.82843 0.6467,-1.5 1.44445,-1.5c0.79774,0 1.44445,0.67157 1.44445,1.5z" fill="#ffff6e" stroke="none" stroke-width="0" stroke-linecap="butt"/><path d="M330.05784,177.6699c0,0.42955 -0.39797,0.77778 -0.88889,0.77778c-0.49092,0 -0.88889,-0.34823 -0.88889,-0.77778c0,-0.42955 0.39797,-0.77777 0.88889,-0.77777c0.49092,0 0.88889,0.34822 0.88889,0.77777z" fill="#ffff6e" stroke="none" stroke-width="0" stroke-linecap="butt"/><path d="M340.05784,171.00324c0,0.61365 -0.44772,1.11111 -1,1.11111c-0.55228,0 -1,-0.49746 -1,-1.11111c0,-0.61365 0.44772,-1.11111 1,-1.11111c0.55228,0 1,0.49746 1,1.11111z" fill="#ffff6e" stroke="none" stroke-width="0" stroke-linecap="butt"/><path d="M340.83561,175.28102c0,0.95116 -0.82081,1.72222 -1.83333,1.72222c-1.01252,0 -1.83333,-0.77106 -1.83333,-1.72222c0,-0.95115 0.82081,-1.72223 1.83333,-1.72223c1.01252,0 1.83333,0.77107 1.83333,1.72223z" fill="#ffff6e" stroke="none" stroke-width="0" stroke-linecap="butt"/><path d="M340.16895,152.50323c0,0.70569 -0.54721,1.27778 -1.22222,1.27778c-0.67501,0 -1.22222,-0.57209 -1.22222,-1.27778c0,-0.70569 0.54721,-1.27777 1.22222,-1.27777c0.67501,0 1.22222,0.57208 1.22222,1.27777z" fill="#ffff6e" stroke="none" stroke-width="0" stroke-linecap="butt"/><path d="M329.05784,149.11434c0,0.36819 -0.42284,0.66667 -0.94445,0.66667c-0.5216,0 -0.94445,-0.29848 -0.94445,-0.66667c0,-0.36819 0.42284,-0.66666 0.94445,-0.66666c0.5216,0 0.94445,0.29847 0.94445,0.66666z" fill="#ffff6e" stroke="none" stroke-width="0" stroke-linecap="butt"/><path d="M317.83561,149.00323c0,0.36819 -0.29847,0.66666 -0.66666,0.66666c-0.36819,0 -0.66666,-0.29847 -0.66666,-0.66666c0,-0.36819 0.29847,-0.66666 0.66666,-0.66666c0.36819,0 0.66666,0.29847 0.66666,0.66666z" fill="#ffff6e" stroke="none" stroke-width="0" stroke-linecap="butt"/><path d="M306.50228,149.05879c0,0.76706 -0.7462,1.38889 -1.66667,1.38889c-0.92048,0 -1.66666,-0.62183 -1.66666,-1.38889c0,-0.76706 0.74619,-1.38889 1.66666,-1.38889c0.92048,0 1.66667,0.62183 1.66667,1.38889z" fill="#ffff6e" stroke="none" stroke-width="0" stroke-linecap="butt"/><path d="M308.05784,163.94768c-0.5,0 -0.5,-0.5 -0.5,-0.5c0,-0.22222 0,-1.11112 0,-1.33334c0,-2.05144 0.55555,-3.94932 0.55555,-6c0,-0.15548 -0.0917,-0.93482 -0.03119,-1.43333c-0.24202,0.51897 -0.64253,1.35034 -0.69464,1.44704c-0.59552,1.10528 -0.88313,2.23262 -1.54276,3.17142l0.15902,0.12722l-0.44156,0.55195c-0.09154,0.11646 -0.2337,0.19125 -0.39332,0.19125c-0.24578,0 -0.45013,-0.17732 -0.49211,-0.41102l-0.10258,-0.51288c-0.17576,-0.44731 -0.34775,-1.49311 -0.42744,-2.04334c0.20938,2.42447 -1.48039,5.61509 -1.47788,8.13392c0,0 0,0.5 -0.5,0.5c-0.5,0 -0.5,-0.5 -0.5,-0.5c0.00242,-2.58256 0.80672,-4.93714 1.34077,-7.41923c0.08359,-0.38851 -0.06467,-2.09787 0.5699,-2.17043c1.03092,-0.1179 1.43154,1.27441 1.70313,2.33065c0.31056,-1.27953 1.4124,-2.93433 1.91573,-3.68664c0.20924,-0.31275 0.89911,-1.25492 1.31812,-1.09391c0.7085,0.27224 0.59518,1.49518 0.5968,2.03957c0.0069,2.32018 -0.55555,4.47916 -0.55555,6.77777c0,0.22222 0,0.44445 0,0.66667v0.66666c0,0 0,0.5 -0.5,0.5z" fill="#b5b54e" stroke="none" stroke-width="0.5" stroke-linecap="butt"/><path d="M312.02892,158.62115c0.49319,0.0822 0.411,0.57539 0.411,0.57539l-0.1228,0.7192c-0.4091,1.03606 -0.46407,3.24481 -1.45276,3.85328c-1.81356,1.11612 -2.08429,-2.35071 -2.08429,-3.21024c0,0 0,-0.5 0.5,-0.5c0.5,0 0.5,0.5 0.5,0.5c0,4.02783 0.80405,0.9832 1.57405,-0.91251l0.09942,-0.61414c0,0 0.0822,-0.49319 0.57539,-0.41099z" fill="#b5b54e" stroke="none" stroke-width="0.5" stroke-linecap="butt"/><path d="M320.85583,159.64968c0.35356,0.35356 0,0.70711 0,0.70711l-0.22222,0.22222c-0.29277,0.28468 -0.57771,0.45679 -0.8718,0.63412c0.05725,1.42668 0.10594,2.85379 0.34477,4.26346l0.0068,0.19331c0,0 0,0.5 -0.5,0.5c-0.5,0 -0.5,-0.5 -0.5,-0.5l0.0068,-0.02891c-0.03173,-0.19324 -0.06003,-0.3868 -0.08539,-0.58064c-0.65421,1.42557 -3.36136,0.54889 -4.42141,0.55399h-0.11111c0,0 -0.5,0 -0.5,-0.5c0,-0.5 0.5,-0.5 0.5,-0.5h0.11111c1.18133,0.00475 2.3309,0.09647 3.5083,0.07593c0.31966,-0.00557 -0.62852,-0.13778 -0.92172,-0.26524c-0.84643,-0.36798 -2.09062,-0.78887 -2.80088,-1.38099c-1.46854,-1.22427 -0.83098,-3.85422 1.10319,-3.98525c0,0 0.5,0 0.5,0.5c0,0.5 -0.5,0.5 -0.5,0.5c-0.96333,-0.15319 -1.21656,1.66822 -0.48412,2.19993c0.56197,0.40795 3.21368,1.13687 3.93001,2.02801c-0.08037,-0.84844 -0.11736,-1.70091 -0.15233,-2.55354c-0.11605,-0.00412 -0.24546,-0.05469 -0.36023,-0.20772c-0.3,-0.4 0.1,-0.7 0.1,-0.7c0.07223,-0.05339 0.14393,-0.10209 0.21505,-0.14771c-0.04992,-1.05394 -0.12287,-2.10568 -0.29713,-3.14787c0,0 -0.08219,-0.49319 0.411,-0.57539c0.49319,-0.0822 0.57539,0.41099 0.57539,0.41099c0.14896,0.89652 0.22212,1.79972 0.2704,2.70501c0.07326,-0.05957 0.14536,-0.12497 0.21618,-0.19858l0.22223,-0.22223c0,0 0.35355,-0.35356 0.70711,0z" fill="#b5b54e" stroke="none" stroke-width="0.5" stroke-linecap="butt"/><path d="M330.28283,159.22408c0.2236,0.44721 -0.2236,0.67082 -0.2236,0.67082l-0.09228,0.01745c-1.43291,1.42348 -2.14325,2.88146 -3.13515,4.43455l0.06167,0.02467l-0.36706,0.91766c-0.07091,0.1899 -0.25394,0.32511 -0.46856,0.32511c-0.25024,0 -0.45753,-0.18383 -0.49423,-0.4238c-0.03482,0.24734 -0.28217,0.37101 -0.28217,0.37101l-0.87096,-0.07292c-0.24337,-0.39312 -0.78082,-1.01099 -1.08936,-1.59174c-1.27124,3.66858 -4.7842,-3.50107 0.057,-2.60617c0,0 0.49029,0.09806 0.39223,0.58835c-0.03412,0.17063 -0.11576,0.27 -0.20769,0.32704l0.25726,0.42876l-0.08405,0.05043c0.49679,0.59489 0.88701,1.23668 1.30997,1.92741c0.14651,-0.01078 0.33652,0.03264 0.45922,0.27802c0.02622,0.05243 0.04321,0.10178 0.05279,0.14807c0,-1.07866 0,-2.7641 0,-3.81335c0,0 0,-0.5 0.5,-0.5c0.5,0 0.5,0.5 0.5,0.5c0,0.33059 0,0.66118 0,0.99177c0.68675,-1.17757 1.91037,-2.21436 2.702,-3.01199l0.35217,-0.20478c0,0 0.44721,-0.2236 0.67082,0.22361zM322.55784,162.33657v0c0,-0.02849 0.00238,-0.05644 0.00696,-0.08364c-1.38209,0.30249 -0.43098,3.16184 -0.00696,0.60826z" fill="#b5b54e" stroke="none" stroke-width="0.5" stroke-linecap="butt"/><path d="M333.97793,165.05782c-0.49902,0.0312 -0.53024,-0.46782 -0.53024,-0.46782l0.00758,-0.14663c-0.0782,-0.23936 -0.16535,-0.53357 -0.25415,-0.86664c-0.22515,0.4178 -0.52775,0.75994 -0.93121,0.99042c-1.85536,1.05986 -3.0305,-2.89696 0.23237,-2.9528c0,0 0.06479,0 0.14773,0.02332c0.02312,-0.12516 0.04263,-0.25241 0.05898,-0.38143c-0.21133,-1.34395 -0.29469,-2.75975 -0.0195,-3.7412c-0.00568,-0.13515 -0.01053,-0.26884 -0.01409,-0.4007h-0.00645v-1c0,-0.27614 0.22386,-0.5 0.5,-0.5c0.27614,0 0.5,0.22386 0.5,0.5v0.55555c0,0.92148 0.16212,2.35439 0.14118,3.76745c0.07474,1.25584 0.18922,2.50375 0.59384,3.68979l0.04179,0.40044c0,0 0.03121,0.49903 -0.46782,0.53023zM332.38583,162.62325c-0.45415,0.06116 -1.68055,0.43143 -1.08555,1.02643c0.46419,0.46419 0.86218,-0.37664 1.08555,-1.02643z" fill="#b5b54e" stroke="none" stroke-width="0.5" stroke-linecap="butt"/><path d="M322.43701,171.57184c0.09806,0.49029 -0.39223,0.58835 -0.39223,0.58835l-0.56347,0.11263c-0.23091,0.03849 -0.43127,0.07762 -0.61104,0.11212c-0.00141,0.44487 -0.22926,1.0056 -0.50238,1.55444c-3.95958,4.84763 -8.55196,-6.91927 -1.42117,-6.9917c0,0 0.5,0 0.5,0.5c0,0.5 -0.5,0.5 -0.5,0.5c-5.24446,-0.07121 -1.85522,8.59755 0.57883,5.45275c0.11707,-0.23261 0.42821,-0.70317 0.45225,-0.90547c-0.08745,-0.00234 -0.17446,-0.01073 -0.26359,-0.02651c-0.0187,0.00988 -0.03855,0.02089 -0.05959,0.03309l-0.01037,-0.04692c-0.01025,-0.00224 -0.02054,-0.00457 -0.03087,-0.00701v0.05563h-0.07778l-0.02028,0.1014l-0.54647,-0.10929c-0.23369,-0.04197 -0.41102,-0.24633 -0.41102,-0.49211c0,-0.27614 0.22386,-0.5 0.5,-0.5h0.55556v0.00092c0.12203,-0.00163 0.23358,0.0031 0.33531,0.01371c0.3669,-0.17469 0.9168,-0.15607 1.35233,-0.22866l0.54764,-0.10959c0,0 0.49029,-0.09806 0.58835,0.39223z" fill="#b5b54e" stroke="none" stroke-width="0.5" stroke-linecap="butt"/><path d="M329.65923,174.32352c-0.09806,0.49029 -0.58835,0.39223 -0.58835,0.39223l-0.64884,-0.13946c-0.26411,-0.17324 -0.52821,-0.34648 -0.79232,-0.51971c-0.29034,-0.28938 -0.71523,-0.66229 -0.90367,-1.04351c-0.0041,-0.00829 -0.00833,-0.01721 -0.01267,-0.02671c-0.15063,0.34975 -0.4652,0.71831 -0.58888,0.87244c-0.73857,0.92039 -2.83127,1.02977 -3.51732,-0.19452c-1.10628,-1.97421 2.08557,-2.70976 3.22843,-2.71659c0,0 0.46936,0 0.49858,0.45476c1.00671,-0.18778 1.36967,1.31851 1.92953,1.88079c0.18034,0.12306 0.36068,0.24612 0.54101,0.36918l0.46227,0.08276c0,0 0.49029,0.09806 0.39223,0.58835zM325.90846,171.94072c-0.04393,0.00696 -0.07285,0.00696 -0.07285,0.00696c-0.38925,-0.00273 -2.9096,0.20682 -2.32713,1.28341c0.9084,1.679 1.93531,-0.30712 2.39998,-1.29036z" fill="#b5b54e" stroke="none" stroke-width="0.5" stroke-linecap="butt"/><path d="M333.3259,173.68296c0.09806,0.49029 -0.39223,0.58835 -0.39223,0.58835l-0.51114,0.10009c-2.94598,1.17388 -3.30914,-3.70731 -3.30914,-5.8126c0,0 0,-0.5 0.5,-0.5c0.5,0 0.5,0.5 0.5,0.5c0,1.50353 0.13209,5.61388 2.02419,4.85406l0.59997,-0.12213c0,0 0.49029,-0.09806 0.58835,0.39223z" fill="#b5b54e" stroke="none" stroke-width="0.5" stroke-linecap="butt"/><path d="M352.35149,95.26945c-0.12406,1.99914 -2.30916,3.44494 -4.88058,3.22927c-2.57142,-0.21567 -4.55542,-2.01111 -4.43137,-4.01024c0.12406,-1.99914 2.30915,-3.44493 4.88057,-3.22927c2.57142,0.21567 4.55543,2.01111 4.43138,4.01024z" fill="#000000" stroke="none" stroke-width="0" stroke-linecap="butt"/><path d="M338.83818,115.45615c0,0 -8.1758,2.95915 -15.91742,2.29692c-9.97707,-0.85345 -15.42515,-4.28773 -15.42515,-4.28773" fill="none" stroke="#000000" stroke-width="1.5" stroke-linecap="round"/></g></g></svg>