<svg version="1.1" xmlns="http://www.w3.org/2000/svg" xmlns:xlink="http://www.w3.org/1999/xlink" width="364" height="107" viewBox="0,0,364,107"><defs><linearGradient x1="320" y1="128.5" x2="320" y2="232.00006" gradientUnits="userSpaceOnUse" id="color-1"><stop offset="0" stop-color="#68682e"/><stop offset="1" stop-color="#303015"/></linearGradient><linearGradient x1="205.00001" y1="184.68665" x2="205.00001" y2="224.51151" gradientUnits="userSpaceOnUse" id="color-2"><stop offset="0" stop-color="#000000" stop-opacity="0"/><stop offset="1" stop-color="#000000" stop-opacity="0.54118"/></linearGradient><linearGradient x1="205.00005" y1="136.43661" x2="205.00005" y2="213.01151" gradientUnits="userSpaceOnUse" id="color-3"><stop offset="0" stop-color="#1c1c00" stop-opacity="0.55294"/><stop offset="1" stop-color="#1c1c00" stop-opacity="0"/></linearGradient><linearGradient x1="205.50004" y1="225.26151" x2="205.50004" y2="148.68661" gradientUnits="userSpaceOnUse" id="color-4"><stop offset="0" stop-color="#1c1c00" stop-opacity="0.30196"/><stop offset="1" stop-color="#1c1c00" stop-opacity="0"/></linearGradient><linearGradient x1="205.00001" y1="136.35118" x2="205.00001" y2="224.51151" gradientUnits="userSpaceOnUse" id="color-5"><stop offset="0" stop-color="#ffff94"/><stop offset="1" stop-color="#cccc48"/></linearGradient><linearGradient x1="520.65795" y1="134.42511" x2="520.65795" y2="180.00986" gradientTransform="translate(-414.25862,-177.54747) scale(1.12877,1.05304)" gradientUnits="userSpaceOnUse" id="color-6"><stop offset="0" stop-color="#ffffff"/><stop offset="1" stop-color="#fdff9d"/></linearGradient></defs><g transform="translate(-128.25,-126.75005)"><g stroke-miterlimit="10"><path d="M130,232.00006v-103.5h360.5v103.5z" fill="url(#color-1)" fill-rule="nonzero" stroke="#252510" stroke-width="3.5" stroke-linecap="butt" stroke-linejoin="miter"/><path d="M178.43044,136.35118h53.13923c10.38871,0 18.75214,8.13434 18.75214,18.23841v51.68346c0,10.10407 -8.36346,18.23841 -18.75214,18.23841h-53.13923c-10.38868,0 -18.75217,-8.13434 -18.75217,-18.23841v-51.68346c0,-10.10407 8.36349,-18.23841 18.75217,-18.23841z" fill="#6e6e30" fill-rule="evenodd" stroke="none" stroke-width="4.43922" stroke-linecap="round" stroke-linejoin="round"/><path d="M250.32181,206.27311c0,10.10407 -8.36346,18.23841 -18.75214,18.23841h-53.13923c-10.38868,0 -18.75217,-8.13434 -18.75217,-18.23841v-21.58645c18.06815,0.09223 37.35897,0.267 55.17088,0.26802c11.82421,0.00067 23.64844,-0.01273 35.47267,-0.02123z" fill="url(#color-2)" fill-rule="nonzero" stroke="none" stroke-width="4.43922" stroke-linecap="butt" stroke-linejoin="miter"/><path d="M178.08754,137.11353c0,0 -8.05558,7.54324 -8.33307,16.46965c-0.39756,12.78921 -0.72638,28.41772 -4.23301,28.76861c-3.3171,0.33192 -3.1024,-13.4702 -3.68173,-25.86175c-0.15377,-3.28895 -0.41765,-6.47361 -0.70454,-9.27859c1.42204,-1.11792 2.41833,-2.75301 2.70544,-4.62186c1.43487,-0.64268 2.62425,-1.73534 3.38863,-3.09846c1.72237,-0.26413 3.24631,-1.1306 4.35002,-2.37761z" fill="#ffff94" fill-rule="nonzero" stroke="none" stroke-width="0" stroke-linecap="butt" stroke-linejoin="miter"/><path d="M173.87431,176.14519c0,0 6.70989,25.51523 0.85457,25.90687c-5.94419,0.39758 -0.85457,-25.90687 -0.85457,-25.90687z" fill="#ffff94" fill-rule="nonzero" stroke="none" stroke-width="0" stroke-linecap="butt" stroke-linejoin="miter"/><path d="M168.40225,143.12106l33.94565,-0.53584c0,0 -5.57733,5.56766 -7.78635,11.82991c-2.27466,6.44833 -1.28589,13.60084 -8.63226,13.89521c-8.41127,0.17652 -7.96475,-8.31966 -10.28204,-15.29332c-1.84531,-5.55325 -7.24499,-9.89597 -7.24499,-9.89597z" fill="#ffff94" fill-rule="nonzero" stroke="none" stroke-width="0" stroke-linecap="butt" stroke-linejoin="miter"/><path d="M242.09982,151.4589c-3.25619,1.37412 -8.07183,-3.02822 -14.07533,-3.36357c-2.58811,-0.14457 -5.24849,3.73357 -8.34538,3.75489c-4.83421,0.03328 -5.6472,-3.46288 -11.48056,-3.42075c-7.79407,0.05629 -4.00009,-4.18622 -9.49016,-4.49126c-0.42824,-0.02379 -24.597,6.85293 -25.01175,6.84039c-2.99325,-0.09046 -1.94054,3.2349 -1.75522,6.73721c0.20318,3.8398 -0.37096,7.86283 -2.10977,7.12443c-0.81208,-0.34486 -0.36059,-2.54418 -0.82566,-4.66289c-0.23623,-1.07622 -1.35855,-2.02338 -1.67223,-2.91793c-1.39706,-3.98409 -3.03493,-9.07612 -4.18643,-12.30446c0.33771,-0.66924 3.31758,-3.90073 4.08196,-5.26384c0.8436,-0.12937 3.49582,-1.8574 5.99779,-2.54651c2.6063,-0.71785 4.58168,-0.60551 7.41855,-0.70534c6.76077,-0.23791 16.23925,-0.00124 22.09277,-0.00124c6.53791,0 18.3667,-0.42877 26.08862,-0.1798c5.45191,0.17578 7.76055,0.63839 7.76055,0.63839c0.86962,0.60266 2.39767,1.43803 3.48551,1.61591c0.53296,0.36334 1.11657,0.65789 1.73805,0.87089c0.86764,1.2608 2.12147,2.23522 3.59075,2.75252c0.30513,0.49566 0.66788,0.95206 1.07891,1.35987c0.34515,0.98806 0.89686,1.87919 1.60337,2.62165c0.117,0.33569 0.25784,0.6602 0.42048,0.97152c-1.31449,1.66683 -3.33672,3.27518 -6.40482,4.56993z" fill="#ffff94" fill-rule="nonzero" stroke="none" stroke-width="0" stroke-linecap="butt" stroke-linejoin="miter"/><path d="M233.3039,152.76146c0,0 6.47815,19.04953 0.82506,19.34192c-5.7389,0.29684 -0.82506,-19.34192 -0.82506,-19.34192z" fill="#ffff94" fill-rule="nonzero" stroke="none" stroke-width="0" stroke-linecap="butt" stroke-linejoin="miter"/><path d="M250.19977,175.48803c0,0 -6.46264,-3.98442 -6.06614,-10.95027c0.34262,-6.01924 2.06458,-13.45753 3.5806,-19.03993c0.11797,0.1446 0.24138,0.28459 0.36991,0.41966c0.29857,0.85662 0.75235,1.6405 1.32767,2.31794c0.14332,0.75783 0.40384,1.47423 0.76201,2.12962z" fill="#ffff94" fill-rule="nonzero" stroke="none" stroke-width="0" stroke-linecap="butt" stroke-linejoin="miter"/><path d="M250.32182,212.76473c-11.82423,-0.0085 -72.5754,0.15456 -90.64355,0.24679v-58.33645c0,-10.10407 8.36349,-18.23841 18.75217,-18.23841h53.13923c10.38868,0 18.75214,8.13434 18.75214,18.23841z" fill="url(#color-3)" fill-rule="nonzero" stroke="none" stroke-width="4.43922" stroke-linecap="butt" stroke-linejoin="miter"/><path d="M250.82181,207.02311c0,10.10407 -8.36346,18.23841 -18.75214,18.23841h-53.13923c-10.38868,0 -18.75217,-8.13434 -18.75217,-18.23841v-58.33645c18.06815,0.09223 78.81932,0.25529 90.64355,0.24679z" fill="url(#color-4)" fill-rule="nonzero" stroke="none" stroke-width="4.43922" stroke-linecap="butt" stroke-linejoin="miter"/><path d="M178.43044,136.35118h53.13923c10.38871,0 18.75214,8.13434 18.75214,18.23841v51.68346c0,10.10407 -8.36346,18.23841 -18.75214,18.23841h-53.13923c-10.38868,0 -18.75217,-8.13434 -18.75217,-18.23841v-51.68346c0,-10.10407 8.36349,-18.23841 18.75217,-18.23841z" fill="none" fill-rule="evenodd" stroke="url(#color-5)" stroke-width="2.5" stroke-linecap="round" stroke-linejoin="round"/><text transform="translate(367,168.60441) scale(0.88592,0.94963)" font-size="40" xml:space="preserve" fill="url(#color-6)" fill-rule="nonzero" stroke="none" stroke-width="1" stroke-linecap="butt" stroke-linejoin="miter" font-family="&quot;Allan-Bold&quot;, Sans Serif" font-weight="normal" text-anchor="middle"><tspan x="0" dy="0">Crimes against </tspan><tspan x="0" dy="48px">moshikind</tspan></text><g fill-rule="nonzero" stroke-linecap="butt" stroke-linejoin="miter"><g stroke="#1c1c00" stroke-width="4"><g fill="#ecec68"><path d="M209.33275,208.69368c-30.58565,5.03353 -41.16911,-12.72436 -41.16911,-12.72436c0,0 4.35463,-1.82495 6.82456,-7.17078c5.46355,-11.82507 6.20382,-31.17582 24.30255,-34.29834c18.90336,-3.26131 25.37019,13.41235 34.83972,23.3769c3.80517,3.9825 9.54877,5.9661 9.54877,5.9661c0,0 -3.21185,19.72663 -34.3465,24.8505z"/></g><g fill="#ecec68"><path d="M179.48811,176.80885c0,0 -1.07241,-0.12116 -2.93301,-0.17841c-2.5288,-0.07781 -6.28097,-0.36317 -8.61524,-3.08974c-4.25064,-4.96502 -2.36001,-9.51549 -1.02262,-11.54501c1.40083,-2.12578 5.05131,-4.73319 9.46152,-3.85527c3.511,0.69892 5.00615,3.22965 5.90529,5.10123c0.65589,1.36526 1.14021,2.30272 1.14021,2.30272z"/><path d="M171.79296,168.89239c-0.41921,-2.51691 1.28134,-4.89712 3.79825,-5.31634c2.51691,-0.41921 4.89714,1.28133 5.31635,3.79825c0.41921,2.51691 -1.28134,4.89714 -3.79825,5.31635c-2.51691,0.41921 -4.89712,-1.28134 -5.31634,-3.79827z"/></g><g fill="#ecec68"><path d="M218.92081,159.63216c0,0 0.15434,-1.04384 0.3323,-2.54799c0.24398,-2.06198 0.83818,-4.9407 3.93309,-6.73986c3.8876,-2.25997 8.18613,-0.9765 10.20034,0.58047c1.92301,1.48648 5.18646,5.17851 2.77456,11.25322c-1.32452,3.33599 -4.78165,4.82208 -7.14869,5.71533c-1.74163,0.65722 -2.71686,1.11944 -2.71686,1.11944z"/><path d="M227.21117,164.34586c-2.51691,0.41921 -4.89712,-1.28134 -5.31634,-3.79825c-0.41921,-2.51691 1.28134,-4.89714 3.79825,-5.31635c2.51691,-0.41921 4.89714,1.28134 5.31635,3.79825c0.41921,2.51691 -1.28133,4.89714 -3.79825,5.31635z"/></g><g fill="#1c1c00"><path d="M193.60551,184.6399c0.94322,5.66308 -0.87335,10.68384 -4.0574,11.21416c-3.18405,0.53032 -6.52989,-3.63061 -7.47311,-9.29368c-0.94322,-5.66308 0.87335,-10.68383 4.05741,-11.21415c3.18405,-0.53032 6.52989,3.63061 7.4731,9.29368z"/><path d="M187.64762,190.13535c0.13941,0.83695 -2.62471,1.72378 -2.62471,1.72378c0,0 -0.81862,-0.18063 -1.88998,-0.41449c-1.39542,-0.3046 -3.13544,-0.76066 -3.19412,-1.65053c-0.06841,-1.03773 1.58515,-1.17899 2.86876,-1.26054c0.95612,-0.06072 1.63368,-0.16655 1.63368,-0.16655c0,0 3.06694,0.93138 3.20633,1.76834z"/></g><g fill="#1c1c00"><path d="M219.08429,170.12872c3.18405,-0.53032 6.52991,3.63059 7.47313,9.29367c0.94322,5.66308 -0.87335,10.68383 -4.0574,11.21415c-3.18405,0.53032 -6.52989,-3.63059 -7.47311,-9.29367c-0.94322,-5.66308 0.87333,-10.68384 4.0574,-11.21416z"/><path d="M224.90449,181.89851c0,0 0.67527,-0.11954 1.59949,-0.37197c1.24075,-0.33891 2.85083,-0.74121 3.12247,0.26266c0.23293,0.86085 -1.26533,1.85626 -2.4867,2.5967c-0.93771,0.56847 -1.65361,1.00471 -1.65361,1.00471c0,0 -2.90232,0.05696 -3.04172,-0.77998c-0.13941,-0.83695 2.46009,-2.71208 2.46009,-2.71208z"/></g></g><g stroke="none" stroke-width="0"><g fill="#ecec68"><path d="M209.33275,208.69368c-30.58565,5.03353 -41.16912,-12.72436 -41.16912,-12.72436c0,0 4.35463,-1.82494 6.82457,-7.17077c5.46355,-11.82507 6.20381,-31.17583 24.30254,-34.29835c18.90336,-3.26131 25.37019,13.41235 34.83972,23.3769c3.80517,3.9825 9.54877,5.96609 9.54877,5.96609c0,0 -3.21185,19.72662 -34.3465,24.85049z"/></g><g fill="#ecec68"><path d="M184.62427,165.94431l-5.13616,10.86449c0,0 -1.07241,-0.12116 -2.93301,-0.17841c-2.5288,-0.07781 -6.28097,-0.36317 -8.61524,-3.08974c-4.25064,-4.96502 -2.36002,-9.51549 -1.02263,-11.54501c1.40083,-2.12578 5.05132,-4.73319 9.46152,-3.85527c3.511,0.69892 5.00615,3.22965 5.90529,5.10124c0.65589,1.36526 1.14022,2.30272 1.14022,2.30272z"/><path d="M171.79296,168.89239c-0.41921,-2.51691 1.28134,-4.89712 3.79825,-5.31634c2.51691,-0.41921 4.89714,1.28133 5.31635,3.79825c0.41921,2.51691 -1.28134,4.89714 -3.79825,5.31635c-2.51691,0.41921 -4.89712,-1.28134 -5.31634,-3.79827z"/></g><g fill="#ecec68"><path d="M218.32082,160.03215c0,0 0.75433,-1.44385 0.9323,-2.948c0.24398,-2.06198 0.83818,-4.9407 3.93309,-6.73986c3.8876,-2.25997 8.18614,-0.97649 10.20034,0.58048c1.92301,1.48648 5.18645,5.17851 2.77455,11.25321c-1.32452,3.33599 -4.78165,4.82208 -7.1487,5.71534c-1.74163,0.65722 -2.71686,1.11944 -2.71686,1.11944z"/><path d="M227.21117,164.34586c-2.51691,0.41921 -4.89712,-1.28134 -5.31634,-3.79825c-0.41921,-2.51691 1.28134,-4.89714 3.79825,-5.31635c2.51691,-0.41921 4.89714,1.28134 5.31635,3.79825c0.41921,2.51691 -1.28133,4.89714 -3.79825,5.31635z"/></g><path d="M194.90583,155.34757c0,0 3.05308,-0.75916 4.45573,-0.96541c1.48448,-0.21828 4.21958,-0.31021 4.21958,-0.31021c0,0 0.82331,6.03459 0.46721,11.48379c-0.26887,4.11451 -1.05952,7.82942 -1.05952,7.82942c0,0 -2.39388,-2.70803 -4.22305,-6.93131c-1.38049,-3.18736 -3.85997,-11.10625 -3.85997,-11.10625z" fill="#1c1c00"/><path d="M192.50226,168.86797c0,0 1.88459,-5.47936 8.3739,-6.64275c6.6542,-1.19295 9.74546,3.62486 9.74546,3.62486z" fill="#1c1c00"/><path d="M189.96349,162.7731c0,0 2.11037,-5.85554 9.66377,-7.19616c7.74529,-1.37466 11.42058,3.68444 11.42058,3.68444z" fill="#1c1c00"/><g fill="#1c1c00"><path d="M193.60552,184.6399c0.94322,5.66308 -0.87335,10.68383 -4.0574,11.21416c-3.18406,0.53033 -6.5299,-3.63061 -7.47312,-9.29368c-0.94322,-5.66308 0.87335,-10.68383 4.05741,-11.21415c3.18406,-0.53033 6.5299,3.63061 7.47311,9.29369z"/><path d="M187.64762,190.13535c0.13941,0.83695 -2.6247,1.72378 -2.6247,1.72378c0,0 -0.81862,-0.18062 -1.88998,-0.41449c-1.39542,-0.3046 -3.13545,-0.76066 -3.19412,-1.65053c-0.06841,-1.03773 1.58515,-1.17899 2.86876,-1.26054c0.95612,-0.06072 1.63368,-0.16655 1.63368,-0.16655c0,0 3.06694,0.93138 3.20632,1.76834z"/></g><g fill="#1c1c00"><path d="M219.0843,170.12872c3.18406,-0.53033 6.52991,3.63059 7.47313,9.29368c0.94322,5.66308 -0.87335,10.68382 -4.0574,11.21415c-3.18406,0.53033 -6.52989,-3.63059 -7.47311,-9.29368c-0.94322,-5.66308 0.87332,-10.68383 4.0574,-11.21416z"/><path d="M224.9045,181.89851c0,0 0.67527,-0.11954 1.59949,-0.37197c1.24076,-0.33891 2.85082,-0.74121 3.12246,0.26265c0.23293,0.86085 -1.26533,1.85626 -2.48671,2.5967c-0.93771,0.56848 -1.65361,1.00471 -1.65361,1.00471c0,0 -2.90232,0.05696 -3.04173,-0.77998c-0.13941,-0.83695 2.46009,-2.71208 2.46009,-2.71208z"/></g></g></g><g fill-rule="nonzero" stroke-width="1.3" stroke-linejoin="miter"><path d="M196.23779,190.29918c-0.72034,-4.92809 2.69073,-9.50702 7.61883,-10.22735c4.92809,-0.72034 9.50702,2.69072 10.22735,7.61882c0.72034,4.92809 -2.69072,9.50702 -7.61882,10.22735c-4.92809,0.72034 -9.50703,-2.69072 -10.22736,-7.61882z" fill="#1c1c00" stroke="none" stroke-linecap="butt"/><path d="M206.49065,199.3059c-5.07647,0.75284 -5.77934,-5.37659 -5.77934,-5.37659c0,0 2.40842,-0.1208 2.99555,-0.49741c0.71117,-0.45619 1.92117,-2.26775 1.92117,-2.26775c0,0 1.79331,1.38311 2.51406,1.6003c0.59757,0.18004 2.49578,-0.36793 2.49578,-0.36793c0,0 1.36798,6.41953 -4.14724,6.90939z" fill="#1c1c00" stroke="#ecec68" stroke-linecap="butt"/><path d="M212.52025,190.40228c0,0 -0.75251,2.73829 -4.04002,2.49773c-2.33139,-0.17059 -2.89393,-2.44147 -2.89393,-2.44147c0,0 -0.13246,2.74647 -2.27766,3.30841c-3.06615,0.80318 -4.85832,-1.18075 -4.85832,-1.18075" fill="none" stroke="#ecec68" stroke-linecap="round"/><g stroke="none" stroke-linecap="butt"><path d="M210.01254,185.00682c0.2491,1.70417 -2.04919,5.66499 -4.51576,5.91273c-2.46584,0.24767 -5.89477,-2.65046 -6.14387,-4.35464c-0.2491,-1.70417 1.74936,-3.78932 4.76178,-4.22964c3.01242,-0.44031 5.64875,0.96736 5.89785,2.67154z" fill="#ecec68"/><path d="M207.92664,184.67502c0.10317,0.70578 -1.33425,1.50025 -3.21058,1.7745c-1.87632,0.27425 -3.48099,-0.07557 -3.58416,-0.78134c-0.10317,-0.70578 0.77648,-1.39964 3.32615,-1.85505c2.48758,-0.44432 3.36544,0.15612 3.46859,0.86187z" fill="#1c1c00"/></g><path d="M206.38949,196.37372l-0.64432,-4.4081" fill="none" stroke="#ecec68" stroke-linecap="round"/></g></g></g></svg>