<svg version="1.1" xmlns="http://www.w3.org/2000/svg" xmlns:xlink="http://www.w3.org/1999/xlink" width="214.33334" height="54.69266" viewBox="0,0,214.33334,54.69266"><defs><linearGradient x1="302.88126" y1="134.94085" x2="302.88126" y2="186.09274" gradientTransform="translate(-401.75415,-278.1037) scale(1.7204,1.80447)" gradientUnits="userSpaceOnUse" id="color-1"><stop offset="0" stop-color="#ffffb6"/><stop offset="1" stop-color="#ffff70"/></linearGradient><linearGradient x1="193.25" y1="135.30954" x2="193.25" y2="186.47624" gradientUnits="userSpaceOnUse" id="color-2"><stop offset="0" stop-color="#c5c556"/><stop offset="1" stop-color="#878723"/></linearGradient></defs><g transform="translate(-166.66667,-132.78358)"><g stroke-miterlimit="10"><path d="M210.66667,182.83335v-45h170.33334v45z" fill-opacity="0.01176" fill="#000000" stroke="none" stroke-width="NaN"/><text transform="translate(234.92362,154.21947) scale(0.58126,0.55418)" font-size="40" xml:space="preserve" fill="#828216" stroke="none" stroke-width="1" font-family="&quot;Allan-Regular&quot;, Sans Serif" font-weight="normal" text-anchor="start"><tspan x="0" dy="0">ALLSTAR EFFECTS</tspan><tspan x="0" dy="46.15px">(DISABLED)</tspan></text><text transform="translate(233.52362,154.11951) scale(0.58126,0.55418)" font-size="40" xml:space="preserve" fill="url(#color-1)" stroke="none" stroke-width="1" font-family="&quot;Allan-Regular&quot;, Sans Serif" font-weight="normal" text-anchor="start"><tspan x="0" dy="0">ALLSTAR EFFECTS</tspan><tspan x="0" dy="46.15px">(DISABLED)</tspan></text><path d="M171.09684,186.47624c-1.89443,0 -3.43017,-1.53574 -3.43017,-3.43017v-44.30633c0,-1.89443 1.53574,-3.43017 3.43017,-3.43017h44.30633c1.89443,0 3.43017,1.53574 3.43017,3.43017v44.30633c0,1.89443 -1.53574,3.43017 -3.43017,3.43017z" fill="url(#color-2)" stroke="#343404" stroke-width="2"/><path d="M210.04889,175.96514l-14.18566,-3.96913l-11.30223,9.43252l-0.60903,-14.70657l-12.46231,-7.83994l13.79843,-5.12161l3.60768,-14.27577l9.13091,11.54321l14.69445,-0.9858l-8.14396,12.25693z" fill="#343404" stroke="none" stroke-width="2.57572"/></g></g></svg>