<svg version="1.1" xmlns="http://www.w3.org/2000/svg" xmlns:xlink="http://www.w3.org/1999/xlink" width="364" height="107" viewBox="0,0,364,107"><defs><linearGradient x1="320" y1="128.5" x2="320" y2="232.00007" gradientUnits="userSpaceOnUse" id="color-1"><stop offset="0" stop-color="#68682e"/><stop offset="1" stop-color="#303015"/></linearGradient><linearGradient x1="205.00001" y1="184.68664" x2="205.00001" y2="224.51151" gradientUnits="userSpaceOnUse" id="color-2"><stop offset="0" stop-color="#000000" stop-opacity="0"/><stop offset="1" stop-color="#000000" stop-opacity="0.54118"/></linearGradient><linearGradient x1="205.00005" y1="136.43662" x2="205.00005" y2="213.01151" gradientUnits="userSpaceOnUse" id="color-3"><stop offset="0" stop-color="#1c1c00" stop-opacity="0.55294"/><stop offset="1" stop-color="#1c1c00" stop-opacity="0"/></linearGradient><linearGradient x1="205.50004" y1="225.26151" x2="205.50004" y2="148.68662" gradientUnits="userSpaceOnUse" id="color-4"><stop offset="0" stop-color="#1c1c00" stop-opacity="0.30196"/><stop offset="1" stop-color="#1c1c00" stop-opacity="0"/></linearGradient><linearGradient x1="205.00001" y1="136.35118" x2="205.00001" y2="224.51151" gradientUnits="userSpaceOnUse" id="color-5"><stop offset="0" stop-color="#ffff94"/><stop offset="1" stop-color="#cccc48"/></linearGradient><linearGradient x1="414.18293" y1="156.18786" x2="414.18293" y2="204.12825" gradientTransform="translate(-300.12025,-192.38162) scale(1.14332,1.00124)" gradientUnits="userSpaceOnUse" id="color-6"><stop offset="0" stop-color="#ffffff"/><stop offset="1" stop-color="#fdff9d"/></linearGradient></defs><g transform="translate(-128.25,-126.75006)"><g stroke-miterlimit="10"><path d="M130,232.00007v-103.5h360.5v103.5z" fill="url(#color-1)" fill-rule="nonzero" stroke="#252510" stroke-width="3.5" stroke-linecap="butt" stroke-linejoin="miter"/><path d="M178.43044,136.35118h53.13923c10.38871,0 18.75214,8.13434 18.75214,18.23841v51.68346c0,10.10407 -8.36346,18.23841 -18.75214,18.23841h-53.13923c-10.38868,0 -18.75217,-8.13434 -18.75217,-18.23841v-51.68346c0,-10.10407 8.36349,-18.23841 18.75217,-18.23841z" fill="#6e6e30" fill-rule="evenodd" stroke="none" stroke-width="4.43922" stroke-linecap="round" stroke-linejoin="round"/><path d="M250.32181,206.27308c0,10.10407 -8.36346,18.23841 -18.75214,18.23841h-53.13923c-10.38868,0 -18.75217,-8.13434 -18.75217,-18.23841v-21.58645c18.06815,0.09223 37.35897,0.267 55.17088,0.26802c11.82421,0.00067 23.64844,-0.01273 35.47267,-0.02123z" fill="url(#color-2)" fill-rule="nonzero" stroke="none" stroke-width="4.43922" stroke-linecap="butt" stroke-linejoin="miter"/><path d="M178.08754,137.11352c0,0 -8.05558,7.54324 -8.33307,16.46965c-0.39756,12.78921 -0.72638,28.41772 -4.23301,28.76861c-3.3171,0.33192 -3.1024,-13.4702 -3.68173,-25.86175c-0.15377,-3.28895 -0.41765,-6.47361 -0.70454,-9.27859c1.42204,-1.11792 2.41833,-2.75301 2.70544,-4.62186c1.43487,-0.64268 2.62425,-1.73534 3.38863,-3.09846c1.72237,-0.26413 3.24631,-1.1306 4.35002,-2.37761z" fill="#ffff94" fill-rule="nonzero" stroke="none" stroke-width="0" stroke-linecap="butt" stroke-linejoin="miter"/><path d="M173.87431,176.14518c0,0 6.70989,25.51523 0.85457,25.90687c-5.94419,0.39758 -0.85457,-25.90687 -0.85457,-25.90687z" fill="#ffff94" fill-rule="nonzero" stroke="none" stroke-width="0" stroke-linecap="butt" stroke-linejoin="miter"/><path d="M168.40225,143.12106l33.94565,-0.53584c0,0 -5.57733,5.56766 -7.78635,11.82991c-2.27466,6.44833 -1.28589,13.60084 -8.63226,13.89521c-8.41127,0.17652 -7.96475,-8.31966 -10.28204,-15.29332c-1.84531,-5.55325 -7.24499,-9.89597 -7.24499,-9.89597z" fill="#ffff94" fill-rule="nonzero" stroke="none" stroke-width="0" stroke-linecap="butt" stroke-linejoin="miter"/><path d="M242.09982,151.45891c-3.25619,1.37412 -8.07183,-3.02822 -14.07533,-3.36357c-2.58811,-0.14457 -5.24849,3.73357 -8.34538,3.75489c-4.83421,0.03328 -5.6472,-3.46288 -11.48056,-3.42075c-7.79407,0.05629 -4.00009,-4.18622 -9.49016,-4.49126c-0.42824,-0.02379 -24.597,6.85293 -25.01175,6.84039c-2.99325,-0.09046 -1.94054,3.2349 -1.75522,6.73721c0.20318,3.8398 -0.37096,7.86283 -2.10977,7.12443c-0.81208,-0.34486 -0.36059,-2.54418 -0.82566,-4.66289c-0.23623,-1.07622 -1.35855,-2.02338 -1.67223,-2.91793c-1.39706,-3.98409 -3.03493,-9.07612 -4.18643,-12.30446c0.33771,-0.66924 3.31758,-3.90073 4.08196,-5.26384c0.8436,-0.12937 3.49582,-1.8574 5.99779,-2.54651c2.6063,-0.71785 4.58168,-0.60551 7.41855,-0.70534c6.76077,-0.23791 16.23925,-0.00124 22.09277,-0.00124c6.53791,0 18.3667,-0.42877 26.08862,-0.1798c5.45191,0.17578 7.76055,0.63839 7.76055,0.63839c0.86962,0.60266 2.39767,1.43803 3.48551,1.61591c0.53296,0.36334 1.11657,0.65789 1.73805,0.87089c0.86764,1.2608 2.12147,2.23522 3.59075,2.75252c0.30513,0.49566 0.66788,0.95206 1.07891,1.35987c0.34515,0.98806 0.89686,1.87919 1.60337,2.62165c0.117,0.33569 0.25784,0.6602 0.42048,0.97152c-1.31449,1.66683 -3.33672,3.27518 -6.40482,4.56993z" fill="#ffff94" fill-rule="nonzero" stroke="none" stroke-width="0" stroke-linecap="butt" stroke-linejoin="miter"/><path d="M233.3039,152.76146c0,0 6.47815,19.04953 0.82506,19.34192c-5.7389,0.29684 -0.82506,-19.34192 -0.82506,-19.34192z" fill="#ffff94" fill-rule="nonzero" stroke="none" stroke-width="0" stroke-linecap="butt" stroke-linejoin="miter"/><path d="M250.19977,175.48802c0,0 -6.46264,-3.98442 -6.06614,-10.95027c0.34262,-6.01924 2.06458,-13.45753 3.5806,-19.03993c0.11797,0.1446 0.24138,0.28459 0.36991,0.41966c0.29857,0.85662 0.75235,1.6405 1.32767,2.31794c0.14332,0.75783 0.40384,1.47423 0.76201,2.12962z" fill="#ffff94" fill-rule="nonzero" stroke="none" stroke-width="0" stroke-linecap="butt" stroke-linejoin="miter"/><path d="M250.32182,212.76472c-11.82423,-0.0085 -72.5754,0.15456 -90.64355,0.24679v-58.33645c0,-10.10407 8.36349,-18.23841 18.75217,-18.23841h53.13923c10.38868,0 18.75214,8.13434 18.75214,18.23841z" fill="url(#color-3)" fill-rule="nonzero" stroke="none" stroke-width="4.43922" stroke-linecap="butt" stroke-linejoin="miter"/><path d="M250.82181,207.02308c0,10.10407 -8.36346,18.23841 -18.75214,18.23841h-53.13923c-10.38868,0 -18.75217,-8.13434 -18.75217,-18.23841v-58.33645c18.06815,0.09223 78.81932,0.25529 90.64355,0.24679z" fill="url(#color-4)" fill-rule="nonzero" stroke="none" stroke-width="4.43922" stroke-linecap="butt" stroke-linejoin="miter"/><path d="M178.43044,136.35118h53.13923c10.38871,0 18.75214,8.13434 18.75214,18.23841v51.68346c0,10.10407 -8.36346,18.23841 -18.75214,18.23841h-53.13923c-10.38868,0 -18.75217,-8.13434 -18.75217,-18.23841v-51.68346c0,-10.10407 8.36349,-18.23841 18.75217,-18.23841z" fill="none" fill-rule="evenodd" stroke="url(#color-5)" stroke-width="2.5" stroke-linecap="round" stroke-linejoin="round"/><text transform="translate(262.50002,192.14372) scale(0.87465,0.99876)" font-size="40" xml:space="preserve" fill="url(#color-6)" fill-rule="nonzero" stroke="none" stroke-width="1" stroke-linecap="butt" stroke-linejoin="miter" font-family="&quot;Allan-Bold&quot;, Sans Serif" font-weight="normal" text-anchor="start"><tspan x="0" dy="0">So far So familiar</tspan></text><g fill-rule="nonzero" stroke-linejoin="miter"><path d="M172.90002,173.95806c0,0 4.41403,-4.24113 4.50593,-4.86116c0.24102,-1.62618 -0.12015,-28.77126 25.75942,-29.77438c31.96769,-0.65432 27.94172,25.31608 29.74363,30.21589c2.47069,6.71838 4.40927,12.46166 4.40927,12.46166c0,0 -1.98178,-1.47068 -2.9218,-2.24449c-0.87675,-0.72172 -2.72251,-2.253 -2.72251,-2.253c0,0 2.21379,7.41111 0.93886,14.82135c-1.11889,6.7901 -5.22656,12.33653 -5.22656,12.33653l-0.82735,-1.68113c0,0 -0.73241,1.57412 -1.54699,2.38685c-0.81458,0.81272 -2.46275,2.08604 -2.46275,2.08604l-0.06592,-2.65288c0,0 -5.05631,7.89085 -17.43948,7.78599c-11.67823,-0.18296 -18.67192,-7.64538 -18.67192,-7.64538l-0.08322,1.90135c0,0 -2.78936,-2.35821 -4.42704,-6.95236c-1.95192,-5.47568 -2.32004,-8.76838 -2.32004,-8.76838c0,0 -1.6752,1.36014 -4.09444,1.98697c-3.03144,0.78546 -4.97506,0.24727 -4.97506,0.24727c0,0 2.58395,-1.94599 3.99913,-3.4161c1.26053,-1.30947 1.89543,-2.4187 1.89543,-2.4187c0,0 -1.50941,0.77684 -3.03143,1.15875c-1.58805,0.39848 -2.88627,0.38024 -2.88627,0.38024c0,0 3.56294,-3.6076 5.03528,-7.78796c1.39012,-3.94693 1.50378,-7.84742 1.50378,-7.84742c0,0 -0.97519,0.47385 -2.38498,0.56946c-0.89362,0.06061 -1.70297,-0.03502 -1.70297,-0.03502z" fill="#1c1c00" stroke="none" stroke-width="1.25" stroke-linecap="butt"/><path d="M184.92175,182.06638c-0.4133,-5.22327 0.23992,-12.28571 0.23992,-12.28571c0,0 2.4426,-0.02954 9.96515,-2.25184c5.77929,-1.70733 14.71559,-6.79457 14.71559,-6.79457c0,0 -1.54699,2.15215 -2.44061,3.19427c-0.95002,1.1079 -2.85965,3.26791 -2.85965,3.26791c0,0 5.61343,-1.19431 10.50978,-3.38704c6.1365,-2.53224 7.58616,-4.33511 9.27484,-3.2892c1.99306,1.23442 0.73771,16.60301 0.51455,20.58349c-0.30196,4.06019 -1.81428,6.8035 -2.25619,8.96697c-0.44191,2.16347 -0.29335,4.39493 -1.58005,11.48733c-0.80299,4.42615 -2.98062,6.39167 -7.17572,10.49979c-4.19509,4.10813 -6.48415,6.62664 -9.32009,6.67605c-2.7292,0.04755 -6.39954,-3.65267 -9.98028,-7.43571c-3.8129,-4.02833 -6.35603,-6.07116 -6.95806,-10.8428c-0.5422,-4.29737 -0.55614,-7.0963 -0.80403,-10.92058c-0.18118,-2.79506 -1.61942,-4.61582 -1.84514,-7.46834z" fill="#fcff63" stroke="#1c1c00" stroke-width="1.25" stroke-linecap="butt"/><path d="M219.03026,170.99872c0,0 1.09167,0.2278 3.04792,0.79517c1.78681,0.51824 3.18654,1.24904 3.18654,1.24904l0.13973,0.83818c0,0 -5.19205,-2.24162 -10.82565,-1.7694c-4.50449,0.3776 -7.13545,2.01419 -7.13545,2.01419l0.03277,-2.99137c0,0 2.23984,-1.22052 5.6318,-1.32892c3.51235,-0.11224 5.79451,0.42344 5.79451,0.42344z" fill="#1c1c00" stroke="none" stroke-width="1.25" stroke-linecap="butt"/><path d="M210.20714,202.02432c0.40851,0.15173 2.20839,1.00224 4.31417,1.85911c2.12255,0.86369 5.16626,1.64216 5.15229,1.76216c-0.01773,0.1523 -7.47318,0.16253 -9.7969,0.4528c-1.94731,0.24324 -4.7903,0.50537 -4.7903,0.50537c0,0 -5.08776,-0.83198 -9.5054,-1.75121c-3.54059,-0.73673 -7.44777,-1.18963 -7.45541,-1.25662c-0.01031,-0.09033 2.77044,-0.509 4.88734,-0.99884c0.82064,-0.35566 3.89582,-1.06362 3.89582,-1.06362c0,0 3.54929,-0.19885 5.44889,0.41467c2.03541,0.65739 2.0307,1.75146 2.20806,1.76829c0,0 0.84822,-1.25283 1.69653,-1.50728c0.84832,-0.25444 3.63977,-0.29817 3.94493,-0.18483z" fill="#fcff63" stroke="#1c1c00" stroke-width="1.25" stroke-linecap="butt"/><path d="M196.85181,205.28551c3.64618,0.73533 8.53513,2.01058 8.53513,2.01058c0,0 4.14652,-1.11427 6.04942,-1.31376c1.47528,-0.15467 8.03269,-0.50601 8.06438,-0.23904c0.031,0.26103 -6.46797,9.23897 -15.14585,8.9144c-9.86148,-0.3121 -16.37518,-10.83982 -16.34808,-10.96095c0.0271,-0.12113 5.19883,0.85344 8.84501,1.58878z" fill="#fcff63" stroke="#1c1c00" stroke-width="1.25" stroke-linecap="butt"/><path d="M204.71136,203.14151c-0.74036,0 -2.53392,-2.33505 -2.71196,-3.84138c-0.1593,-1.34775 0.94186,-2.74153 2.71196,-2.74153c1.77011,0 3.00946,0.35148 2.8862,2.99975c-0.10461,2.2475 -1.1161,3.58318 -2.8862,3.58318z" fill="#fcff63" stroke="#1c1c00" stroke-width="1" stroke-linecap="butt"/><path d="M207.29113,181.58896c0,0 0.07348,2.84307 0.00413,5.10395c-0.13732,4.47694 -0.77453,19.88169 -0.77453,19.88169l-2.13542,0.00619c0,0 -0.57505,-2.98844 -0.80443,-6.80357c-0.31049,-5.16412 -0.32192,-11.66889 -0.54676,-14.06027c-0.21312,-2.26681 -0.64165,-4.09264 -0.64165,-4.09264" fill="#fcff63" stroke="#1c1c00" stroke-width="1.25" stroke-linecap="round"/><path d="M186.13899,189.31642c0,0 -3.53228,-2.51884 -4.41466,-6.42774c-0.92843,-4.11291 -1.04647,-6.97045 0.34386,-7.15603c1.39033,-0.1856 1.93599,1.7023 2.67323,5.98419c0.73724,4.28188 1.39758,7.59959 1.39758,7.59959z" fill="#fcff63" stroke="#1c1c00" stroke-width="1.25" stroke-linecap="butt"/><path d="M185.99391,186.48927c0,0 -2.55236,-2.09367 -3.09258,-6.05217c-0.30136,-2.20818 1.54462,-1.63301 1.54462,-1.63301" fill="none" stroke="#1c1c00" stroke-width="1" stroke-linecap="round"/><path d="M188.15205,181.72245c0.0508,-3.50347 3.46513,-6.39986 7.31319,-6.34407c3.84805,0.05579 6.46514,3.04262 6.41435,6.5461c-0.0508,3.50347 -2.95319,6.29837 -6.80125,6.24259c-3.84805,-0.05579 -6.97709,-2.94114 -6.92629,-6.44462z" fill="#fcff63" stroke="#1c1c00" stroke-width="1.25" stroke-linecap="butt"/><path d="M191.3302,181.80691c0.02864,-1.97554 1.65334,-3.55378 3.62886,-3.52514c1.97554,0.02864 3.55378,1.65334 3.52514,3.62886c-0.02864,1.97554 -1.65333,3.55378 -3.62886,3.52514c-1.97554,-0.02864 -3.55378,-1.65334 -3.52514,-3.62886z" fill="#1c1c00" stroke="none" stroke-width="1.25" stroke-linecap="butt"/><path d="M207.52924,181.72297c0.14576,-3.50081 3.1889,-6.34427 6.99743,-6.34427c3.80853,0 6.64224,2.84042 6.64224,6.34427c0,3.50384 -2.78297,6.49651 -6.9467,6.54724c-3.96046,0.04826 -6.8452,-2.89117 -6.69298,-6.54724z" fill="#fcff63" stroke="#1c1c00" stroke-width="1.25" stroke-linecap="butt"/><path d="M210.82564,181.78424c0,-2.01852 1.63633,-3.65485 3.65485,-3.65485c2.01852,0 3.65485,1.63633 3.65485,3.65485c0,2.01852 -1.63632,3.65485 -3.65485,3.65485c-2.01852,0 -3.65485,-1.63633 -3.65485,-3.65485z" fill="#1c1c00" stroke="none" stroke-width="1.25" stroke-linecap="butt"/><path d="M188.10303,181.3413c0,0 0.04553,-6.45646 7.59231,-6.32023c6.78296,0.11879 6.8435,6.73728 6.8435,6.73728z" fill="#fcff63" stroke="#1c1c00" stroke-width="1.25" stroke-linecap="butt"/><path d="M207.25878,181.43505c0,0 -0.1768,-6.77378 8.01989,-6.51954c6.95718,0.23882 6.83722,6.91279 6.83722,6.91279z" fill="#fcff63" stroke="#1c1c00" stroke-width="1.25" stroke-linecap="butt"/><path d="M190.69615,172.15281c0,0 2.41326,-1.30273 5.75268,-1.63417c3.70049,-0.36728 5.56346,-0.04747 5.56346,-0.04747l0.21133,2.96318c0,0 -2.74694,-0.48747 -5.7423,-0.37322c-4.00593,0.15278 -4.75894,1.02624 -7.80475,1.35443c-2.60982,0.28122 -4.82508,0.11376 -4.82508,0.11376l-0.01854,-0.88201c0,0 2.57479,0.05298 3.74828,-0.04896c0.96856,-0.08414 2.84732,-0.67184 2.84732,-0.67184z" fill="#1c1c00" stroke="none" stroke-width="1.25" stroke-linecap="butt"/><path d="M224.97974,181.71684c0.73724,-4.28188 1.28289,-6.16978 2.67323,-5.98419c1.39033,0.18559 1.27229,3.04312 0.34386,7.15603c-0.88238,3.90889 -4.41466,6.42774 -4.41466,6.42774c0,0 0.66034,-3.31771 1.39758,-7.59959z" fill="#fcff63" stroke="#1c1c00" stroke-width="1.25" stroke-linecap="butt"/><path d="M225.27524,178.8041c0,0 1.84599,-0.57518 1.54462,1.63301c-0.54022,3.9585 -3.09258,6.05217 -3.09258,6.05217" fill="none" stroke="#1c1c00" stroke-width="1" stroke-linecap="round"/></g></g></g></svg>