<svg version="1.1" xmlns="http://www.w3.org/2000/svg" xmlns:xlink="http://www.w3.org/1999/xlink" width="378" height="460.00001" viewBox="0,0,378,460.00001"><defs><linearGradient x1="320" y1="-67.5" x2="320" y2="269.5" gradientUnits="userSpaceOnUse" id="color-1"><stop offset="0" stop-color="#ffffd1"/><stop offset="1" stop-color="#f1f19c"/></linearGradient></defs><g transform="translate(-131,83.00001)"><g data-paper-data="{&quot;isPaintingLayer&quot;:true}" stroke-miterlimit="10" stroke-dasharray="" stroke-dashoffset="0" style="mix-blend-mode: normal"><path d="M145.24891,375c-6.76488,0 -12.24891,-5.33739 -12.24891,-11.9214v-432.15721c0,-6.58401 5.48402,-11.9214 12.24891,-11.9214h349.50219c6.76488,0 12.2489,5.33739 12.2489,11.9214v432.15721c0,6.584 -5.48402,11.9214 -12.2489,11.9214z" fill="#535311" fill-rule="nonzero" stroke="#212108" stroke-width="4" stroke-linecap="butt" stroke-linejoin="miter"/><path d="M160.66812,361.5c-6.16798,0 -11.16812,-4.94148 -11.16812,-11.03711v-406.92577c0,-6.09563 5.00014,-11.03711 11.16812,-11.03711h318.66376c6.16798,0 11.16812,4.94149 11.16812,11.03712v406.92577c0,6.09563 -5.00014,11.03711 -11.16812,11.03711z" fill="url(#color-1)" fill-rule="nonzero" stroke="#212108" stroke-width="4.5" stroke-linecap="butt" stroke-linejoin="miter"/><path d="M439.92649,254.75057l-101.8037,-32.05321l-84.04908,65.67158l-0.97943,-106.64411l-88.4205,-59.68273l101.12036,-33.87045l29.45667,-102.54058l63.43118,85.7239l106.64423,-3.71076l-61.83649,86.86226z" fill-opacity="0.17647" fill="#212108" fill-rule="nonzero" stroke="none" stroke-width="2.57572" stroke-linecap="butt" stroke-linejoin="miter"/><text transform="translate(160.5,-35.68135) scale(0.61033,0.61033)" font-size="40" xml:space="preserve" fill="#212108" fill-rule="nonzero" stroke="none" stroke-width="1" stroke-linecap="butt" stroke-linejoin="miter" stroke-miterlimit="10" stroke-dasharray="" stroke-dashoffset="0" font-family="&quot;Allan-Regular&quot;, Sans Serif" font-weight="normal" text-anchor="start" style="mix-blend-mode: normal"><tspan x="0" dy="0">name: Uncle Samsonite</tspan><tspan x="0" dy="46.150000000000006px">age: 1,000,000,000+</tspan><tspan x="0" dy="46.150000000000006px">occupation:</tspan></text><g><path d="M432.53444,-56.08653h32.93116c6.43804,0 11.62097,5.18296 11.62097,11.62097v32.93116c0,6.43802 -5.18294,11.62098 -11.62097,11.62098h-32.93116c-6.43802,0 -11.62098,-5.18296 -11.62098,-11.62097v-32.93116c0,-6.43801 5.18296,-11.62097 11.62098,-11.62097z" fill="#a0a300" fill-rule="evenodd" stroke="#212108" stroke-width="2" stroke-linecap="round" stroke-linejoin="round"/><g fill="none" fill-rule="nonzero" stroke="none" stroke-width="1" stroke-linecap="butt" stroke-linejoin="miter" font-family="sans-serif" font-weight="normal" font-size="12" text-anchor="start"><g/><g data-paper-data="{&quot;index&quot;:null}"/></g></g><text transform="translate(160.5,53.32425) scale(0.39524,0.42269)" font-size="40" xml:space="preserve" fill="#212108" fill-rule="nonzero" stroke="none" stroke-width="1" stroke-linecap="butt" stroke-linejoin="miter" stroke-miterlimit="10" stroke-dasharray="" stroke-dashoffset="0" font-family="&quot;Allan-Regular&quot;, Sans Serif" font-weight="normal" text-anchor="start" style="mix-blend-mode: normal"><tspan x="0" dy="0">Description-</tspan><tspan x="0" dy="46.150000000000006px">Known as ‘Smiling Sam’ in Britain, Uncle Samsonite is the </tspan><tspan x="0" dy="46.150000000000006px">most dangerous and volatile Allstar in the MCS’s arsenal. He </tspan><tspan x="0" dy="46.150000000000006px">was summoned to the MCS through a name brand soda </tspan><tspan x="0" dy="46.150000000000006px">summoning circle, and was recruited for VIP access to the </tspan><tspan x="0" dy="46.150000000000006px">syndicate's nightclubs and a child every 30 years. Despite </tspan><tspan x="0" dy="46.150000000000006px">officially working for the MCS, Uncle Samsonite works by his </tspan><tspan x="0" dy="46.150000000000006px">own terms because the last person to defy him was sent to his </tspan><tspan x="0" dy="46.150000000000006px">domain never to be heard from again. Uncle Samsonite works </tspan><tspan x="0" dy="46.150000000000006px">as a secondary hitman when Mustardman or Big Band can’t </tspan><tspan x="0" dy="46.150000000000006px">quite get the kill. He’s very good at his job… maybe a lil too good. </tspan><tspan x="0" dy="46.150000000000006px">Uncle Samsonite can get very carried away with his job to the </tspan><tspan x="0" dy="46.150000000000006px">point where he will send random people to his domain as collateral. </tspan><tspan x="0" dy="46.150000000000006px">Everyone's pretty chill when he's around besides one person, she </tspan><tspan x="0" dy="46.150000000000006px">met him as a child and knows what he's capable of, and let's just </tspan><tspan x="0" dy="46.150000000000006px">say she's still terrified of him even as an adult.</tspan></text><path d="M160.16667,-30.16667v-1.66667h252.16667v1.66667z" fill="#212108" fill-rule="nonzero" stroke="none" stroke-width="0" stroke-linecap="butt" stroke-linejoin="miter"/><path d="M160.16667,-0.66667v-1.66667h252.16667v1.66667z" fill="#212108" fill-rule="nonzero" stroke="none" stroke-width="0" stroke-linecap="butt" stroke-linejoin="miter"/><path d="M160.16667,29.33333v-1.66667h252.16667v1.66667z" fill="#212108" fill-rule="nonzero" stroke="none" stroke-width="0" stroke-linecap="butt" stroke-linejoin="miter"/><g fill-rule="nonzero" stroke-width="1" stroke-linejoin="miter"><path d="M457.98625,-42.77092c0,1.23854 -1.10674,2.2426 -2.47195,2.2426c-1.36521,0 -2.47195,-1.00404 -2.47195,-2.2426c0,-1.23854 1.10674,-2.2426 2.47195,-2.2426c1.36521,0 2.47195,1.00404 2.47195,2.2426z" fill="#d9db56" stroke="#000000" stroke-linecap="butt"/><g stroke-linecap="round"><g data-paper-data="{&quot;index&quot;:null}"><path d="M438.19413,-45.21736c0,0 0.72005,-0.25107 1.58273,0.4554c1.03643,0.84875 2.55618,2.71801 3.32695,3.2444c1.37279,0.93752 3.85682,1.65186 3.85682,1.65186l-6.16713,6.42196c0,0 -1.60452,-1.25994 -2.57475,-3.06352c-2.87072,-5.33644 -0.02462,-8.7101 -0.02462,-8.7101z" fill="#d9db56" stroke="#000000"/><path d="M445.26124,-38.77496l-3.80888,3.90411c0,0 -4.96587,-7.29239 -1.99967,-7.95106c0.15996,-0.03553 1.22819,1.47281 2.4723,2.36674c1.55734,1.11901 3.33625,1.68019 3.33625,1.68019z" fill="#e3e394" stroke="#e3e394"/></g><path d="M468.19866,-20.128c-0.61081,0.25136 -1.18769,0.28108 -1.91739,0.10776c-0.7297,-0.17332 0.28129,-0.64556 0.36294,-0.8803c0.09433,-0.27117 -0.8527,-0.84044 -1.32945,-1.02269c-0.47675,-0.18225 -2.73251,-0.41972 -4.65584,-0.87432c-1.72148,-0.4069 -3.33575,-0.84408 -5.3602,-1.69006c-2.02447,-0.84596 -6.45334,-3.35492 -8.94473,-4.28764c-2.49138,-0.93274 -2.76572,-0.65749 -4.49258,-0.49353c-1.72686,0.16395 -4.02212,2.2137 -3.07516,1.05915c0.357,-0.43525 1.27491,-3.42705 1.67389,-5.35354c0.37776,-1.82405 0.07883,-5.3253 0.30303,-5.66001c1.23276,-1.84056 7.24001,-4.48228 12.01209,-3.85141c13.70524,1.20295 16.05887,9.51894 16.05887,9.51894c0,0 -0.51712,4.29035 -0.4072,6.3347c0.11228,2.08867 0.56583,6.0672 0.56583,6.0672c0,0 -0.18325,0.77439 -0.79407,1.02575z" fill="#d9db56" stroke="#000000"/><g stroke="#000000"><path d="M427.26108,-17.42848c-1.73367,-1.19778 -1.50837,-4.01012 -1.16684,-4.43403c1.06654,-1.32382 15.40236,-6.93439 15.40236,-6.93439c0,0 0.99009,-0.63052 4.28563,0.80604c0.63251,0.27572 1.15718,0.50525 1.85853,0.88476c3.87006,2.09417 9.81595,4.41686 11.57337,4.9095c1.29896,0.36413 5.13848,0.70137 5.63892,1.4676c0.14664,0.22452 -2.60129,2.35215 -3.64931,3.51408c-0.99387,1.10191 -1.4797,2.39791 -2.63786,3.31837c-0.34623,0.27518 -2.95055,1.45611 -4.53043,1.60658c-1.57988,0.15047 -4.02858,0.00092 -5.88268,-0.92795c-1.85411,-0.92886 -8.99128,-6.56582 -12.15831,-8.11017c-3.12216,-1.52247 -6.29964,-0.73445 -6.29964,-0.73445c0,0 -2.58381,0.67363 -2.24915,2.44852c0.26858,1.42436 2.90824,2.41889 2.90824,2.41889c0,0 -2.22121,0.36881 -3.09279,-0.23337z" fill="#d9db56"/><path d="M428.97695,-21.63618c3.691,-1.50277 8.01897,1.25722 8.01897,1.25722l-6.0482,3.22797c0,0 -6.46919,-2.65366 -1.97077,-4.4852z" fill="#000000"/></g><g><path d="M470.11665,-44.70769c0,0 2.8461,3.37365 -0.02462,8.71008c-0.97022,1.80358 -1.35152,3.11448 -1.35152,3.11448c0,0 -1.74504,-3.47457 -2.90942,-4.74019c-1.17995,-1.28255 -4.02224,-3.00693 -4.02224,-3.00693c0,0 2.02532,0.55986 3.39811,-0.37766c0.77077,-0.52639 2.2905,-2.39566 3.32694,-3.2444c0.86268,-0.70645 1.58273,-0.45538 1.58273,-0.45538z" fill="#d9db56" stroke="#000000"/><path d="M464.42566,-39.28465c0,0 0.70859,-0.10247 2.26593,-1.22148c1.24411,-0.89393 2.00652,-2.35131 2.16649,-2.31578c2.9662,0.65866 -1.08225,7.44137 -1.08225,7.44137c0,0 -1.03225,-1.72576 -1.66019,-2.3694c-0.6414,-0.65744 -1.68998,-1.53473 -1.68998,-1.53473z" fill="#e3e394" stroke="none"/></g></g></g><text transform="translate(247.49453,20.47427) scale(0.38549,0.38549)" font-size="40" xml:space="preserve" fill="#212108" fill-rule="nonzero" stroke="none" stroke-width="1" stroke-linecap="butt" stroke-linejoin="miter" stroke-miterlimit="10" stroke-dasharray="" stroke-dashoffset="0" font-family="&quot;Allan-Regular&quot;, Sans Serif" font-weight="normal" text-anchor="start" style="mix-blend-mode: normal"><tspan x="0" dy="0">guy who just pops in some times for fun</tspan></text></g></g></svg>