<svg version="1.1" xmlns="http://www.w3.org/2000/svg" xmlns:xlink="http://www.w3.org/1999/xlink" width="145.00471" height="169.36502" viewBox="0,0,145.00471,169.36502"><g transform="translate(-29.17045,-177.73753)"><g stroke-width="3" stroke-miterlimit="10"><path d="M91.31927,302.03517c-34.32385,0 -62.14882,-27.82496 -62.14882,-62.14882c0,-34.32385 27.82496,-62.14882 62.14882,-62.14882c34.32385,0 62.14882,27.82496 62.14882,62.14882c0,34.32385 -27.82496,62.14882 -62.14882,62.14882z" fill="#e3e361" stroke="none" stroke-linecap="butt"/><path d="M90.40394,283.37644c0,0 -26.08416,5.26671 -37.55216,-3.98991c-11.97327,-9.66446 -3.05112,-23.4701 -3.05112,-23.4701" fill="none" stroke="#000000" stroke-linecap="round"/><path d="M47.21896,252.63062l7.62778,7.62778" fill="none" stroke="#000000" stroke-linecap="round"/><path d="M102.16107,202.21789c0,0 0.73588,4.79528 6.91694,6.09445c11.92326,2.50612 35.16737,3.49844 49.79305,12.55915c14.36363,8.89837 13.9323,30.17393 13.75513,35.91865c-0.20395,6.61348 -7.3627,21.06839 -30.58534,22.24383c-20.73822,1.0497 -51.49482,-9.91108 -51.49482,-9.91108" fill="#e3e361" stroke="#000000" stroke-linecap="round"/><path d="M75.1441,198.02462c0,3.39806 -1.29632,6.15274 -2.8954,6.15274c-1.59909,0 -2.8954,-2.75468 -2.8954,-6.15274c0,-3.39806 1.29632,-6.15274 2.8954,-6.15274c1.59909,0 2.8954,2.75468 2.8954,6.15274z" fill="#000000" stroke="none" stroke-linecap="butt"/><path d="M121.35856,197.61388c0,3.39806 -1.29632,6.15274 -2.8954,6.15274c-1.59909,0 -2.8954,-2.75468 -2.8954,-6.15274c0,-3.39806 1.29632,-6.15274 2.8954,-6.15274c1.59909,0 2.8954,2.75469 2.8954,6.15274z" fill="#000000" stroke="none" stroke-linecap="butt"/><g fill="#e3e361" stroke="none" stroke-linecap="butt"><path d="M92.36907,346.6018v-54.46309h12.0776v54.46309z"/><path d="M92.36907,347.05754v-17.77457c0,0 39.45975,-11.9168 49.90552,0c7.86089,8.96788 0,17.77457 0,17.77457z"/></g><g fill="#e3e361" stroke="none" stroke-linecap="butt"><path d="M77.13173,346.41889v-54.46309h12.07758v54.46309z"/><path d="M39.07591,347.10255c0,0 -7.86089,-8.80667 0,-17.77458c10.44579,-11.9168 49.90552,0 49.90552,0v17.77458z"/></g></g></g></svg>