<svg version="1.1" xmlns="http://www.w3.org/2000/svg" xmlns:xlink="http://www.w3.org/1999/xlink" width="34.17311" height="34.17311" viewBox="0,0,34.17311,34.17311"><g transform="translate(-302.91346,-162.91348)"><g stroke-miterlimit="10"><path d="M309.98312,162.91348h20.03379c3.9166,0 7.06966,3.15307 7.06966,7.06966v20.03379c0,3.91659 -3.15306,7.06966 -7.06966,7.06966h-20.03379c-3.91659,0 -7.06966,-3.15307 -7.06966,-7.06966v-20.03379c0,-3.91659 3.15307,-7.06966 7.06966,-7.06966z" fill="#787878" fill-rule="evenodd" stroke="none" stroke-width="0" stroke-linecap="round" stroke-linejoin="round"/><g fill-rule="nonzero" stroke-linejoin="miter"><path d="M333.38891,180.00003c0,7.11834 -5.99441,12.88889 -13.38889,12.88889c-7.39448,0 -13.38889,-5.77056 -13.38889,-12.88889c0,-7.11834 5.99441,-12.88889 13.38889,-12.88889c7.39448,0 13.38889,5.77056 13.38889,12.88889z" fill="#c1c1c1" stroke="none" stroke-width="0" stroke-linecap="butt"/><g fill="none" stroke="#8a8a8a" stroke-width="0.5"><path d="M329.41836,180.64515c0,0 -2.04371,5.74879 -6.51583,7.33318c-4.47212,1.58438 -9.67913,-1.59561 -9.67913,-1.59561z" stroke-linecap="butt"/><path d="M318.25528,184.77647l1.44101,3.25032" stroke-linecap="round"/><path d="M321.51352,183.46585l1.49253,4.09802" stroke-linecap="round"/><path d="M326.08234,185.41348l-1.17622,-3.20095" stroke-linecap="round"/></g><g><g stroke-linecap="butt"><path d="M314.84378,179.44813c0,0.6617 -0.53166,1.1981 -1.1875,1.1981c-0.65584,0 -1.1875,-0.53641 -1.1875,-1.1981c0,-0.6617 0.53166,-1.1981 1.1875,-1.1981c0.65584,0 1.1875,0.53641 1.1875,1.1981z" fill="#8a8a8a" stroke="none" stroke-width="0"/><path d="M317.46878,179.50004c0,2.14011 -1.73489,3.875 -3.875,3.875c-2.14011,0 -3.875,-1.73489 -3.875,-3.875c0,-2.14011 1.73489,-3.875 3.875,-3.875c2.14011,0 3.875,1.73489 3.875,3.875z" fill="none" stroke="#8a8a8a" stroke-width="1"/></g><g stroke-width="1" stroke-linecap="butt"><path d="M326.09378,175.88563c0,0.6617 -0.53166,1.1981 -1.1875,1.1981c-0.65584,0 -1.1875,-0.53641 -1.1875,-1.1981c0,-0.6617 0.53166,-1.1981 1.1875,-1.1981c0.65584,0 1.1875,0.53641 1.1875,1.1981z" fill="#8a8a8a" stroke="none"/><path d="M328.71878,175.93754c0,2.14011 -1.73489,3.875 -3.875,3.875c-2.14011,0 -3.875,-1.73489 -3.875,-3.875c0,-2.14011 1.73489,-3.875 3.875,-3.875c2.14011,0 3.875,1.73489 3.875,3.875z" fill="none" stroke="#8a8a8a"/></g><path d="M320.65628,177.25004l-2.875,1" fill="none" stroke="#8a8a8a" stroke-width="1" stroke-linecap="round"/></g></g></g></g></svg>