<svg version="1.1" xmlns="http://www.w3.org/2000/svg" xmlns:xlink="http://www.w3.org/1999/xlink" width="117.62556" height="111.8627" viewBox="0,0,117.62556,111.8627"><g transform="translate(-177.88215,-117.59401)"><g data-paper-data="{&quot;isPaintingLayer&quot;:true}" fill-rule="nonzero" stroke-linejoin="miter" stroke-miterlimit="10" stroke-dasharray="" stroke-dashoffset="0" style="mix-blend-mode: normal"><g stroke-linecap="butt"><path d="M283.08432,195.20269c6.83105,3.01334 -0.08047,16.02104 -7.51036,20.07808c-11.85217,6.47178 -22.18608,1.09604 -22.18608,1.09604l4.40616,-6.00771c0,0 6.82982,2.0099 11.47431,-1.84368c5.72821,-4.75277 5.46175,-17.00795 13.81597,-13.32271z" fill="#ecec68" stroke="#000000" stroke-width="2"/><path d="M272.9802,202.23772l2.74576,-5.75339l10.04021,4.79165l-2.74577,5.75338z" fill="#000000" stroke="none" stroke-width="0"/><path d="M269.32545,208.75029l3.38224,-4.2891l6.67097,7.59285l-4.63535,3.63359z" fill="#000000" stroke="none" stroke-width="0"/><path d="M261.78492,210.89594l5.53006,-1.10432l1.02631,8.55336l-6.58196,0.25482z" fill="#000000" stroke="none" stroke-width="0"/></g><g data-paper-data="{&quot;index&quot;:null}" stroke-linecap="butt"><path d="M260.94037,211.63354c-4.77898,0.26781 -8.35483,-2.41904 -8.51963,-5.35994c-0.16483,-2.9409 4.46626,-5.87092 9.24524,-6.13873c4.77898,-0.26782 7.8961,2.22796 8.06092,5.16887c0.16482,2.94091 -4.00757,6.06198 -8.78654,6.3298z" fill="#ecec68" stroke="#000000" stroke-width="2"/><path d="M265.34426,210.57846l-0.13816,-9.51797c0,0 4.32505,0.17578 4.82992,4.214c0.4337,3.46895 -4.69177,5.30397 -4.69177,5.30397z" fill="#000000" stroke="none" stroke-width="0"/><path d="M258.17748,211.63041l0.13306,-11.0737l3.49925,-0.21592l0.33709,11.10804z" fill="#000000" stroke="none" stroke-width="0"/></g><g stroke-linecap="butt"><path d="M230.29745,208.2099c0.68569,2.8646 -1.96921,6.46425 -6.62417,7.57849c-4.65496,1.11425 -9.54725,-0.67887 -10.23295,-3.54345c-0.68569,-2.8646 1.5846,-6.14961 6.23955,-7.26387c4.65496,-1.11425 9.93187,0.36426 10.61757,3.22886z" fill="#ecec68" stroke="#000000" stroke-width="2"/><path d="M213.10041,212.10874c-0.67468,-4.01336 3.41821,-5.42236 3.41821,-5.42236l2.59781,9.15765c0,0 -5.43645,-0.2877 -6.01601,-3.73529z" fill="#000000" stroke="none" stroke-width="0"/><path d="M222.42909,215.76069l-2.86332,-10.73797l3.41415,-0.79686l3.30388,10.5702z" fill="#000000" stroke="none" stroke-width="0"/></g><path d="M240.91498,226.18343c0,0.7405 -3.6377,1.8081 -9.04974,1.77241c-5.91985,-0.03904 -8.28349,-1.2374 -8.59956,-1.91835c-1.38426,-2.98226 0.39895,-5.24797 8.5651,-5.10799c4.02776,0.06904 7.27771,0.47006 8.5305,1.30635c1.39536,0.93146 0.5537,2.37617 0.5537,3.94758z" fill="#c5c556" stroke="#9b9b44" stroke-width="3" stroke-linecap="butt"/><path d="M241.67571,218.58039c-6.61425,0.86479 -14.53833,1.88455 -14.82312,0.89993c-1.07021,-3.69997 3.50886,-17.86484 3.50886,-17.86484l17.16979,-2.47547c0,0 7.24037,14.43029 7.70683,16.27373c0.46647,1.84343 -6.39184,2.22912 -13.56237,3.16665z" fill="#000000" stroke="#6e6e30" stroke-width="3" stroke-linecap="butt"/><g stroke="none" stroke-width="0" stroke-linecap="butt"><path d="M240.82685,205.88399c-46.0594,5.65613 -60.80297,-21.55496 -60.80297,-21.55496c0,0 6.6256,-2.46313 10.64762,-10.30833c8.89679,-17.35378 11.18924,-46.254 38.45323,-49.81631c28.47608,-3.72067 37.12823,21.6165 50.68282,37.10178c5.44801,6.19023 13.91801,9.50909 13.91801,9.50909c0,0 -6.01256,29.31108 -52.89871,35.06874z" fill="#ecec68"/><path d="M292.57847,169.69865c0,0 -2.27131,11.66876 -12.68639,20.38371c-10.80301,9.03957 -29.10044,12.87881 -29.10044,12.87881c0,0 16.33543,-13.89547 11.21511,-45.40441c-2.92764,-18.01588 -20.08569,-33.77317 -20.08569,-33.77317c0,0 11.58232,3.78283 20.4896,13.12276c7.1189,7.46469 11.02308,17.51318 15.4873,21.64741c2.17825,2.01723 3.73268,4.90815 6.16096,6.72127c3.99454,2.98257 8.51957,4.42362 8.51957,4.42362z" fill="#cbcb6a"/></g><path d="M197.25292,186.23048c-0.37985,-3.04463 1.78038,-5.82074 4.82504,-6.20059c3.04463,-0.37985 5.82075,1.78037 6.2006,4.82502c0.37985,3.04463 -1.78038,5.82074 -4.82503,6.20059c-3.04463,0.37985 -5.82075,-1.78038 -6.2006,-4.82502z" fill="#6e6e30" stroke="none" stroke-width="0" stroke-linecap="butt"/><path d="M265.8461,177.78465c-0.37985,-3.04463 1.78039,-5.82074 4.82504,-6.20059c3.04464,-0.37985 5.82075,1.78037 6.2006,4.82502c0.37985,3.04463 -1.78039,5.82075 -4.82503,6.2006c-3.04464,0.37985 -5.82074,-1.78038 -6.20059,-4.82503z" fill="#6e6e30" stroke="none" stroke-width="0" stroke-linecap="butt"/><g stroke="none" stroke-width="0" stroke-linecap="butt"><path d="M205.16175,139.455l-6.57775,16.60878c0,0 -1.5967,-0.24692 -4.3764,-0.44651c-3.7779,-0.27126 -9.37305,-0.9279 -12.69775,-5.14942c-6.05417,-7.68718 -2.94743,-14.37816 -0.82261,-17.33207c2.22559,-3.09401 7.84582,-6.77071 14.38903,-5.18739c5.20907,1.26049 7.29059,5.13761 8.52092,7.99227c0.89749,2.08237 1.56454,3.51433 1.56454,3.51433z" fill="#000000"/><path d="M187.55815,143.75075c-0.47292,-3.79058 2.21658,-7.24684 6.00716,-7.71975c3.79058,-0.47292 7.24684,2.21658 7.71975,6.00716c0.47292,3.79058 -2.21658,7.24684 -6.00716,7.71975c-3.79058,0.47292 -7.24684,-2.21658 -7.71975,-6.00716z" fill="#cbcb6a"/></g><path d="M240.82684,205.884c-46.0594,5.65613 -60.80298,-21.55497 -60.80298,-21.55497c0,0 6.6256,-2.46313 10.64761,-10.30833c8.89679,-17.35378 11.18924,-46.254 38.45323,-49.81631c28.47608,-3.72067 36.37343,21.78118 50.02128,37.18433c7.27186,8.20711 14.57955,9.42656 14.57955,9.42656c0,0 -6.01255,29.31108 -52.8987,35.06874z" fill="none" stroke="#000000" stroke-width="3" stroke-linecap="butt"/><g data-paper-data="{&quot;index&quot;:null}" stroke="none" stroke-width="0" stroke-linecap="butt"><path d="M258.62087,132.78534c0,0 0.29477,-1.55196 0.65311,-3.791c0.49124,-3.06945 1.55635,-7.33914 6.29604,-9.84086c5.95362,-3.14245 12.30493,-0.95934 15.22248,1.493c2.78546,2.34131 7.44094,8.06386 3.46109,17.0029c-2.18556,4.90898 -7.44788,6.92022 -11.0433,8.11139c-2.64542,0.87643 -4.13252,1.50808 -4.13252,1.50808l-10.45686,-14.4835z" fill="#000000"/><path d="M270.73316,140.34396c-3.79058,0.47292 -7.24683,-2.21658 -7.71975,-6.00716c-0.47292,-3.79058 2.21657,-7.24683 6.00715,-7.71975c3.79058,-0.47292 7.24684,2.21658 7.71976,6.00716c0.47292,3.79058 -2.21658,7.24684 -6.00716,7.71975z" fill="#cbcb6a"/></g><path d="M222.96078,124.9055l13.05498,-1.37682c0,0 0.86192,9.07715 -0.00445,17.20646c-0.65419,6.13816 -2.0644,11.64664 -2.0644,11.64664c0,0 -3.415,-4.19736 -5.89247,-10.62673c-1.86977,-4.85232 -5.09366,-16.84953 -5.09366,-16.84953z" fill="#000000" stroke="none" stroke-width="0" stroke-linecap="butt"/><path d="M218.53733,144.98258c0,0 3.15463,-8.08082 12.93284,-9.4236c10.02664,-1.3769 14.3556,6.01905 14.3556,6.01905z" fill="#000000" stroke="none" stroke-width="0" stroke-linecap="butt"/><path d="M215.11305,135.71016c0,0 3.5154,-8.62969 14.89615,-10.17242c11.66991,-1.58193 16.85768,6.21076 16.85768,6.21076z" fill="#000000" stroke="none" stroke-width="0" stroke-linecap="butt"/><g fill="#000000" stroke="none" stroke-width="0" stroke-linecap="butt"><path d="M188.27705,193.22497c0,0 -6.34577,-5.56889 -6.78809,-7.85251c-0.37094,-1.91504 4.31041,-4.93914 4.31041,-4.93914c0,0 4.03555,2.37772 9.75894,3.7354c4.8034,1.13947 9.46536,0.9204 9.46536,0.9204c0,0 -1.6274,3.27238 -6.55818,5.25462c-7.21511,2.90056 -10.18841,2.88122 -10.18841,2.88122z"/><path d="M190.15437,194.84116c0,0 8.71254,0.55744 13.83456,-0.53761c4.29873,-0.91902 7.96456,-2.87661 7.96456,-2.87661c0,0 0.707,3.05613 -2.58468,7.15099c-1.85919,2.31286 -3.86395,3.82748 -5.04791,4.75704c-0.85301,-0.32052 -2.49518,-0.88027 -3.28215,-1.13897c-0.6614,-0.21743 -1.71251,-1.0505 -2.94324,-2.05264c-1.10416,-1.44142 -2.58578,-2.56166 -4.27706,-3.23019c-0.02948,-0.01164 -0.05902,-0.02317 -0.08861,-0.03454c0.47793,-1.03382 -3.57549,-2.03751 -3.57549,-2.03751z"/><path d="M214.03412,201.8199c3.66946,-3.00505 5.47515,-6.24178 5.47515,-6.24178c0,0 1.75849,2.7383 1.02233,7.4128c-0.2676,1.69926 -0.55344,3.11609 -0.83192,4.28598c-2.31479,-0.8921 -4.71636,-1.30105 -7.46363,-2.03748c-0.2301,-0.06168 -2.73009,-0.94572 -2.99618,-0.95707c0.94521,-0.77203 3.16442,-1.12774 4.79425,-2.46245z"/></g><g data-paper-data="{&quot;index&quot;:null}" fill="#000000" stroke="none" stroke-width="0" stroke-linecap="butt"><path d="M277.10506,180.28059c-5.26667,-0.70999 -7.64821,-3.4822 -7.64821,-3.4822c0,0 4.57287,-0.9331 8.94907,-3.21782c5.21434,-2.7223 8.542,-6.01867 8.542,-6.01867c0,0 5.28087,1.7812 5.39182,3.72869c0.13232,2.32231 -4.65066,9.27963 -4.65066,9.27963c0,0 -2.8774,0.74927 -10.58403,-0.28962z"/><path d="M285.82831,185.51427c-0.02589,0.01829 -0.73404,0.62571 -0.75975,0.64425c-1.47517,1.06359 -4.48099,1.86189 -5.19715,3.53042c-0.16291,0.2192 2.05004,1.27005 1.89544,1.47447c-0.74376,0.98345 -3.75757,0.92937 -4.24412,1.23841c-0.69928,0.44414 -2.15358,1.3902 -2.90169,1.91047c-1.37606,-0.61017 -3.69151,-1.5858 -6.06198,-3.37096c-4.19687,-3.16059 -4.26245,-6.29672 -4.26245,-6.29672c0,0 4.03445,0.9969 8.42719,0.83153c5.23408,-0.19702 14.37991,-3.23443 14.37991,-3.23443c0,0 -1.99267,2.38784 -1.2754,3.27256z"/><path d="M270.08563,196.43916c-0.25516,0.07637 -2.46132,1.54757 -2.66919,1.66388c-2.4821,1.38885 -4.70959,2.37534 -6.73422,3.80883c-0.5574,-1.06561 -1.18258,-2.3688 -1.85947,-3.95021c-1.86211,-4.3503 -0.83033,-7.43673 -0.83033,-7.43673c0,0 2.54558,2.69385 6.84092,4.70521c1.90778,0.89336 4.14639,0.6929 5.25232,1.20901z"/></g><g fill="#000000" stroke="none" stroke-width="0" stroke-linecap="butt"><path d="M219.22173,168.64235c1.06408,8.52881 -1.9607,15.92777 -6.75601,16.52605c-4.79531,0.59827 -9.54528,-5.83071 -10.60935,-14.35952c-1.06408,-8.52881 1.9607,-15.92777 6.75601,-16.52604c4.79531,-0.59827 9.54528,5.83071 10.60935,14.35951z"/><path d="M209.97309,176.49779c0.15726,1.26048 -4.03169,2.41773 -4.03169,2.41773c0,0 -1.21347,-0.32032 -2.8017,-0.73576c-2.06867,-0.54109 -4.64354,-1.32985 -4.67679,-2.66455c-0.03877,-1.55645 2.44332,-1.66651 4.36841,-1.70988c1.43393,-0.03229 2.45394,-0.14907 2.45394,-0.14907c0,0 4.53058,1.58101 4.68785,2.84151z"/></g><g data-paper-data="{&quot;index&quot;:null}" fill="#000000" stroke="none" stroke-width="0" stroke-linecap="butt"><path d="M258.22252,148.49649c4.7953,-0.59827 9.54528,5.83071 10.60936,14.35952c1.06408,8.52881 -1.96069,15.92777 -6.75601,16.52604c-4.7953,0.59827 -9.54528,-5.83071 -10.60936,-14.35951c-1.06408,-8.52881 1.9607,-15.92777 6.75601,-16.52605z"/><path d="M266.20772,166.4586c0,0 1.01743,-0.13741 2.41535,-0.45844c1.87673,-0.43098 4.30977,-0.93414 4.6546,0.58414c0.29571,1.30196 -2.00643,2.69919 -3.87873,3.73197c-1.43748,0.79291 -2.53506,1.40158 -2.53506,1.40158c0,0 -4.34489,-0.09256 -4.50215,-1.35303c-0.15726,-1.26048 3.84598,-3.90618 3.84598,-3.90618z"/></g><path d="M211.48429,165.80353c0.42001,3.36651 -0.76272,6.28564 -2.64171,6.52007c-1.87898,0.23442 -3.74268,-2.30462 -4.16269,-5.67115c-0.42001,-3.36651 0.76271,-6.28563 2.6417,-6.52006c1.87898,-0.23442 3.74269,2.30462 4.1627,5.67114z" fill="#ffffff" stroke="none" stroke-width="0" stroke-linecap="butt"/><path d="M260.49722,159.40065c0.42001,3.36651 -0.76272,6.28564 -2.64171,6.52007c-1.87898,0.23442 -3.74269,-2.30463 -4.1627,-5.67115c-0.42001,-3.36651 0.76271,-6.28563 2.6417,-6.52006c1.87898,-0.23442 3.74269,2.30462 4.1627,5.67114z" fill="#ffffff" stroke="none" stroke-width="0" stroke-linecap="butt"/><path d="M224.05439,173.08908c-0.81562,-6.53729 3.82273,-12.49797 10.36003,-13.31358c6.5373,-0.81562 12.49797,3.82272 13.31358,10.36002c0.81562,6.5373 -3.82272,12.49797 -10.36002,13.31358c-6.53729,0.81562 -12.49798,-3.82272 -13.31359,-10.36002z" fill="#6e6e30" stroke="none" stroke-width="0" stroke-linecap="butt"/><path d="M211.47766,177.28953c-0.12915,-1.03519 0.60535,-1.97905 1.64051,-2.1082c1.03519,-0.12915 1.97906,0.60534 2.10821,1.64048c0.12915,1.03519 -0.60535,1.97906 -1.64049,2.10821c-1.03519,0.12915 -1.97906,-0.60535 -2.10821,-1.64049z" fill="#6e6e30" stroke="none" stroke-width="0" stroke-linecap="butt"/><path d="M261.25827,171.5267c-0.12915,-1.03519 0.60535,-1.97904 1.64051,-2.10819c1.03519,-0.12915 1.97906,0.60534 2.10821,1.64049c0.12915,1.03519 -0.60535,1.97905 -1.64049,2.1082c-1.03519,0.12915 -1.97906,-0.60535 -2.10821,-1.6405z" fill="#6e6e30" stroke="none" stroke-width="0" stroke-linecap="butt"/><path d="M237.36311,185.28526c-6.73442,0.85448 -7.49354,-7.27107 -7.49354,-7.27107c0,0 3.18843,-0.0928 3.97536,-0.57453c0.95319,-0.58352 2.60375,-2.94562 2.60375,-2.94562c0,0 2.33314,1.87899 3.28029,2.18624c0.78526,0.25472 3.31083,-0.41719 3.31083,-0.41719c0,0 1.63063,8.52769 -5.6767,9.02218z" fill="#c5c556" stroke="#000000" stroke-width="1.5" stroke-linecap="butt"/><path d="M245.58462,173.67813c0,0 -1.0713,3.60039 -5.41225,3.19085c-3.07845,-0.29042 -3.75927,-3.30924 -3.75927,-3.30924c0,0 -0.25153,3.62846 -3.10412,4.31197c-4.07724,0.97694 -6.39217,-1.69658 -6.39217,-1.69658" fill="none" stroke="#000000" stroke-width="2" stroke-linecap="round"/><g stroke="none" stroke-width="0" stroke-linecap="butt"><path d="M242.41825,166.47304c0.28205,2.26065 -2.8675,7.43482 -6.13635,7.69387c-3.26789,0.25898 -7.72198,-3.66905 -8.00403,-5.92971c-0.28205,-2.26065 2.41883,-4.96263 6.41492,-5.4612c3.99608,-0.49855 7.44342,1.43636 7.72547,3.69701z" fill="#000000"/><path d="M239.66894,165.97627c0.11682,0.93624 -1.80622,1.94694 -4.29523,2.25747c-2.489,0.31053 -4.60142,-0.19671 -4.71823,-1.13294c-0.11682,-0.93624 1.06579,-1.8294 4.45031,-2.36078c3.30211,-0.51845 4.44636,0.30004 4.56315,1.23624z" fill="#ffffff"/></g><path d="M237.31086,181.40473l-0.72954,-5.84751" fill="none" stroke="#000000" stroke-width="1" stroke-linecap="round"/><path d="M253.71822,207.42108c3.47283,0.69714 5.56705,4.85421 4.67759,9.28504c-0.88945,4.43084 -4.42578,7.45763 -7.89861,6.76047c-3.47283,-0.69714 -5.56706,-4.85421 -4.67759,-9.28504c0.88945,-4.43084 4.42578,-7.45763 7.89861,-6.76047z" data-paper-data="{&quot;index&quot;:null}" fill="#c5c556" stroke="#9b9b44" stroke-width="3" stroke-linecap="butt"/></g></g></svg>