<svg version="1.1" xmlns="http://www.w3.org/2000/svg" xmlns:xlink="http://www.w3.org/1999/xlink" width="56.83592" height="45.5" viewBox="0,0,56.83592,45.5"><g transform="translate(-573.70836,-3.75)"><g stroke="none" stroke-miterlimit="10"><path d="M606.02272,7.12921c1.37492,0.41049 2.21321,0.74767 3.77752,0.29441c2.56727,-0.74386 3.64554,-2.24153 6.65149,-1.76166c3.4539,0.55138 8.6753,6.20039 9.16251,9.65462c0.38972,2.76309 -0.76063,4.22668 -1.9279,6.37843c-0.26342,0.62312 -0.64853,1.20786 -0.79026,1.86937c-0.71613,3.34263 2.03318,3.47291 3.07095,6.50424c1.24007,3.62227 0.96168,5.19346 -0.98905,8.18904c-1.12112,1.72162 -4.28434,4.70617 -6.18594,5.20703c-2.00086,0.527 -3.94958,-1.25964 -5.97521,-1.68152c-1.59805,-0.33283 -3.03189,1.2208 -4.49033,1.95396c-3.4417,1.73015 -8.0013,3.09057 -11.6097,0.16193c-0.63194,-0.51289 -0.89231,-1.28536 -1.07519,-2.11628c-0.99346,0.10452 -1.97567,0.1754 -3.00676,0.21692c-0.31587,0.25442 -0.65577,0.46916 -1.03571,0.61645c-3.72644,1.44464 -4.93279,-0.55986 -7.53311,-2.53603c-0.49281,-1.30035 -1.45253,-2.51069 -1.47843,-3.90106c-0.02621,-1.40684 0.67222,-2.76261 1.33113,-4.00588c0.32228,-0.6081 0.83274,-1.08658 1.33854,-1.56633c-0.08559,-0.54094 -0.18728,-1.08132 -0.30036,-1.64539c-3.00395,-2.71996 -4.44601,-6.71152 -2.30371,-10.50634c1.57873,-2.79652 3.50295,-3.75534 6.46756,-4.63137c0.59693,-0.1764 1.22924,-0.32357 1.85484,-0.34042c0.20479,-5.92838 8.34735,-8.12568 13.05834,-7.30395c0.7267,0.12675 1.35647,0.54198 1.98873,0.94981z" fill="#3b3307" stroke-width="0.5"/><path d="M576.67914,30.48711c0,-1.29531 1.05006,-2.34536 2.34536,-2.34536c1.29531,0 2.34536,1.05006 2.34536,2.34536c0,1.29531 -1.05006,2.34536 -2.34536,2.34536c-1.29531,0 -2.34536,-1.05006 -2.34536,-2.34536z" fill="#3b3307" stroke-width="0.5"/><path d="M623.89904,24.85825c0,-1.29531 1.05006,-2.34536 2.34536,-2.34536c1.29531,0 2.34536,1.05006 2.34536,2.34536c0,1.29531 -1.05006,2.34536 -2.34536,2.34536c-1.29531,0 -2.34536,-1.05006 -2.34536,-2.34536z" fill="#3b3307" stroke-width="0.5"/><path d="M622.17914,45.49742c0,-1.29531 1.05006,-2.34536 2.34536,-2.34536c1.29531,0 2.34536,1.05006 2.34536,2.34536c0,1.29531 -1.05006,2.34536 -2.34536,2.34536c-1.29531,0 -2.34536,-1.05006 -2.34536,-2.34536z" fill="#3b3307" stroke-width="0.5"/><path d="M583.55888,11.56788c0,-1.29531 1.05006,-2.34536 2.34536,-2.34536c1.29531,0 2.34536,1.05006 2.34536,2.34536c0,1.29531 -1.05006,2.34536 -2.34536,2.34536c-1.29531,0 -2.34536,-1.05006 -2.34536,-2.34536z" fill="#3b3307" stroke-width="0.5"/><path d="M590.28223,46.90464c0,-1.29531 1.05006,-2.34536 2.34536,-2.34536c1.29531,0 2.34536,1.05006 2.34536,2.34536c0,1.29531 -1.05006,2.34536 -2.34536,2.34536c-1.29531,0 -2.34536,-1.05006 -2.34536,-2.34536z" fill="#3b3307" stroke-width="0.5"/><path d="M577.53912,19.93299c0,-0.64766 0.52502,-1.17268 1.17268,-1.17268c0.64766,0 1.17268,0.52502 1.17268,1.17268c0,0.64766 -0.52502,1.17268 -1.17268,1.17268c-0.64766,0 -1.17268,-0.52502 -1.17268,-1.17268z" fill="#3b3307" stroke-width="0.5"/><path d="M626.24441,13.13144c0,-0.64766 0.52502,-1.17268 1.17268,-1.17268c0.64766,0 1.17268,0.52502 1.17268,1.17268c0,0.64766 -0.52502,1.17268 -1.17268,1.17268c-0.64766,0 -1.17268,-0.52502 -1.17268,-1.17268z" fill="#3b3307" stroke-width="0.5"/><path d="M628.19892,36.11598c0,-0.64766 0.52502,-1.17268 1.17268,-1.17268c0.64766,0 1.17268,0.52502 1.17268,1.17268c0,0.64766 -0.52502,1.17268 -1.17268,1.17268c-0.64766,0 -1.17268,-0.52502 -1.17268,-1.17268z" fill="#3b3307" stroke-width="0.5"/><path d="M610.9214,47.061c0,-0.64766 0.52502,-1.17268 1.17268,-1.17268c0.64766,0 1.17268,0.52502 1.17268,1.17268c0,0.64766 -0.52502,1.17268 -1.17268,1.17268c-0.64766,0 -1.17268,-0.52502 -1.17268,-1.17268z" fill="#3b3307" stroke-width="0.5"/><path d="M579.49357,41.58849c0,-0.64766 0.52502,-1.17268 1.17268,-1.17268c0.64766,0 1.17268,0.52502 1.17268,1.17268c0,0.64766 -0.52502,1.17268 -1.17268,1.17268c-0.64766,0 -1.17268,-0.52502 -1.17268,-1.17268z" fill="#3b3307" stroke-width="0.5"/><path d="M606.69975,4.92268c0,-0.64766 0.52502,-1.17268 1.17268,-1.17268c0.64766,0 1.17268,0.52502 1.17268,1.17268c0,0.64766 -0.52502,1.17268 -1.17268,1.17268c-0.64766,0 -1.17268,-0.52502 -1.17268,-1.17268z" fill="#3b3307" stroke-width="0.5"/><path d="M578.24273,11.80241c0,-0.38859 0.31502,-0.70361 0.70361,-0.70361c0.38859,0 0.70361,0.31502 0.70361,0.70361c0,0.38859 -0.31502,0.70361 -0.70361,0.70361c-0.38859,0 -0.70361,-0.31502 -0.70361,-0.70361z" fill="#3b3307" stroke-width="0.5"/><path d="M592.86212,5.62629c0,-0.38859 0.31502,-0.70361 0.70361,-0.70361c0.38859,0 0.70361,0.31502 0.70361,0.70361c0,0.38859 -0.31502,0.70361 -0.70361,0.70361c-0.38859,0 -0.70361,-0.31502 -0.70361,-0.70361z" fill="#3b3307" stroke-width="0.5"/><path d="M573.70836,34.70876c0,-0.38859 0.31502,-0.70361 0.70361,-0.70361c0.38859,0 0.70361,0.31502 0.70361,0.70361c0,0.38859 -0.31502,0.70361 -0.70361,0.70361c-0.38859,0 -0.70361,-0.31502 -0.70361,-0.70361z" fill="#3b3307" stroke-width="0.5"/><path d="M584.41883,46.59193c0,-0.38859 0.31502,-0.70361 0.70361,-0.70361c0.38859,0 0.70361,0.31502 0.70361,0.70361c0,0.38859 -0.31502,0.70361 -0.70361,0.70361c-0.38859,0 -0.70361,-0.31502 -0.70361,-0.70361z" fill="#3b3307" stroke-width="0.5"/><path d="M601.30542,48.31186c0,-0.38859 0.31502,-0.70361 0.70361,-0.70361c0.38859,0 0.70361,0.31502 0.70361,0.70361c0,0.38859 -0.31502,0.70361 -0.70361,0.70361c-0.38859,0 -0.70361,-0.31502 -0.70361,-0.70361z" fill="#3b3307" stroke-width="0.5"/><path d="M628.58977,40.96306c0,-0.38859 0.31502,-0.70361 0.70361,-0.70361c0.38859,0 0.70361,0.31502 0.70361,0.70361c0,0.38859 -0.31502,0.70361 -0.70361,0.70361c-0.38859,0 -0.70361,-0.31502 -0.70361,-0.70361z" fill="#3b3307" stroke-width="0.5"/><path d="M627.18255,19.85481c0,-0.38859 0.31502,-0.70361 0.70361,-0.70361c0.38859,0 0.70361,0.31502 0.70361,0.70361c0,0.38859 -0.31502,0.70361 -0.70361,0.70361c-0.38859,0 -0.70361,-0.31502 -0.70361,-0.70361z" fill="#3b3307" stroke-width="0.5"/><path d="M621.08461,7.11168c0,-0.38859 0.31502,-0.70361 0.70361,-0.70361c0.38859,0 0.70361,0.31502 0.70361,0.70361c0,0.38859 -0.31502,0.70361 -0.70361,0.70361c-0.38859,0 -0.70361,-0.31502 -0.70361,-0.70361z" fill="#3b3307" stroke-width="0.5"/><g fill="#ffffff" stroke-width="0"><path d="M595.40295,33.30073c2.42758,-2.42756 14.01921,-14.01921 15.54281,-15.54281c0.76372,-0.76372 2.13543,-0.50754 2.52894,-0.1141c0.52881,0.52881 0.88934,1.72553 0.07506,2.5398c-1.56775,1.56775 -13.34466,13.34466 -15.72097,15.72096c-0.76797,0.768 -1.95814,0.19754 -2.38526,-0.2296c-0.41046,-0.41046 -0.75789,-1.65694 -0.0405,-2.37437z"/><path d="M611.10031,35.81557c-2.42758,-2.42757 -14.01919,-14.01919 -15.54281,-15.54281c-0.76372,-0.76372 -0.50753,-2.13547 -0.11409,-2.52894c0.52881,-0.52881 1.72552,-0.88937 2.53981,-0.07509c1.56775,1.56775 13.34465,13.34465 15.72102,15.72101c0.76797,0.768 0.19753,1.95814 -0.2296,2.38525c-0.41046,0.41046 -1.65694,0.7579 -2.37436,0.0405z"/></g></g></g></svg>