<svg version="1.1" xmlns="http://www.w3.org/2000/svg" xmlns:xlink="http://www.w3.org/1999/xlink" width="118.44559" height="104.09597" viewBox="0,0,118.44559,104.09597"><g transform="translate(-180.39102,-125.29493)"><g data-paper-data="{&quot;isPaintingLayer&quot;:true}" fill-rule="nonzero" stroke-linejoin="miter" stroke-miterlimit="10" stroke-dasharray="" stroke-dashoffset="0" style="mix-blend-mode: normal"><g stroke-linecap="butt"><path d="M288.37503,207.45833c5.61856,4.91681 -4.86394,15.26507 -13.16667,16.91667c-13.24449,2.63463 -21.5,-5.58333 -21.5,-5.58333l6,-4.41667c0,0 5.91723,3.95885 11.501,1.66911c6.88667,-2.82402 10.29427,-14.59894 17.16566,-8.58578z" fill="#ecec68" stroke="#000000" stroke-width="2"/><path d="M276.63042,211.15282l4.33946,-4.67009l8.14976,7.57279l-4.33946,4.67008z" fill="#000000" stroke="none" stroke-width="0"/><path d="M271.19666,216.27579l4.50931,-3.08252l4.09743,9.23928l-5.50931,2.08252z" fill="#000000" stroke="none" stroke-width="0"/><path d="M263.35949,216.07027l5.60739,0.59853l-1.57637,8.46927l-6.35739,-1.72354z" fill="#000000" stroke="none" stroke-width="0"/></g><g data-paper-data="{&quot;index&quot;:null}" stroke-linecap="butt"><path d="M262.85098,210.80795c3.79155,2.92137 4.51895,6.84775 2.72119,9.18102c-1.79776,2.33327 -6.99547,1.96764 -10.78703,-0.95373c-3.79155,-2.92137 -4.74117,-7.2922 -2.94341,-9.62546c1.79776,-2.33327 7.21769,-1.52319 11.00925,1.39818z" fill="#ecec68" stroke="#000000" stroke-width="2"/><path d="M258.92031,220.95052l6.11741,-7.29303c0,0 3.15807,2.96033 0.90032,6.34629c-1.93947,2.90865 -7.01773,0.94673 -7.01773,0.94673z" fill="#000000" stroke="none" stroke-width="0"/><path d="M252.8092,217.06163l7.33963,-8.29303l2.78921,2.12408l-7.0063,8.62636z" fill="#000000" stroke="none" stroke-width="0"/></g><g stroke-linecap="butt"><path d="M230.3287,208.34544c1.79776,2.33327 0.84814,6.7041 -2.94341,9.62546c-3.79155,2.92137 -8.98926,3.287 -10.78702,0.95373c-1.79776,-2.33327 -1.07036,-6.25965 2.72119,-9.18102c3.79155,-2.92137 9.21148,-3.73145 11.00924,-1.39818z" fill="#ecec68" stroke="#000000" stroke-width="2"/><path d="M216.23239,218.93945c-2.25775,-3.38597 0.90032,-6.34629 0.90032,-6.34629l6.11741,7.29303c0,0 -5.07826,1.96191 -7.01773,-0.94674z" fill="#000000" stroke="none" stroke-width="0"/><path d="M226.23869,218.4547l-7.0063,-8.62636l2.78921,-2.12407l7.33963,8.29303z" fill="#000000" stroke="none" stroke-width="0"/></g><path d="M250.09351,220.92948c8.16615,-0.13998 9.94936,2.12573 8.5651,5.10799c-0.31292,0.67415 -2.25852,2.13538 -8.35773,1.80566c-6.6718,-0.36067 -9.29157,-0.91172 -9.29157,-1.65972c0,-1.57638 -0.72955,-3.24678 0.67809,-4.17864c1.25539,-0.83106 4.39253,-1.0065 8.40611,-1.0753z" data-paper-data="{&quot;index&quot;:null}" fill="#c5c556" stroke="#9b9b44" stroke-width="3" stroke-linecap="butt"/><path d="M241.68736,219.36998c-6.67004,0.08177 -14.65905,0.16354 -14.8262,-0.84771c-0.62812,-3.80007 5.58333,-17.32891 5.58333,-17.32891l17.34171,-0.44122c0,0 5.49496,15.18096 5.74163,17.06643c0.24667,1.88547 -6.60945,1.46275 -13.84047,1.55141z" fill="#000000" stroke="#6e6e30" stroke-width="3" stroke-linecap="butt"/><g stroke="none" stroke-width="0" stroke-linecap="butt"><path d="M240.08338,209.29491c-46.40531,-0.08963 -57.66666,-28.91667 -57.66666,-28.91667c0,0 6.87956,-1.62391 11.84189,-8.91083c10.97677,-16.11883 16.82951,-44.51292 44.32477,-44.67249c28.71764,-0.16666 34.16645,26.04675 45.69964,43.09099c4.63973,6.81709 12.63369,11.15902 12.63369,11.15902c0,0 -9.59507,28.34122 -56.83334,28.24998z" fill="#ecec68"/><path d="M295.91668,179.79489c0,0 -3.28769,10.92447 -14.70157,18.28298c-11.83902,7.6326 -30.88177,9.55036 -30.88177,9.55036c0,0 17.93006,-11.76622 16.75,-43.66667c-0.67473,-18.23973 -15.74999,-36 -15.74999,-36c0,0 11.02489,5.18765 18.70734,15.55847c6.13999,8.2886 8.77013,18.74313 12.68816,23.39823c1.91175,2.27138 3.09632,5.3325 5.28146,7.4323c3.59457,3.45417 7.90637,5.44433 7.90637,5.44433z" fill="#cbcb6a"/></g><path d="M199.27781,184.39805c0,-3.06825 2.48731,-5.55555 5.55556,-5.55555c3.06825,0 5.55556,2.4873 5.55556,5.55555c0,3.06825 -2.48731,5.55556 -5.55556,5.55556c-3.06825,0 -5.55556,-2.48731 -5.55556,-5.55556z" fill="#6e6e30" stroke="none" stroke-width="0" stroke-linecap="butt"/><path d="M268.38892,184.50916c0,-3.06825 2.48731,-5.55555 5.55556,-5.55555c3.06825,0 5.55556,2.4873 5.55556,5.55555c0,3.06825 -2.48731,5.55556 -5.55556,5.55556c-3.06825,0 -5.55556,-2.48731 -5.55556,-5.55556z" fill="#6e6e30" stroke="none" stroke-width="0" stroke-linecap="butt"/><g stroke="none" stroke-width="0" stroke-linecap="butt"><path d="M212.9167,138.96154l-8.58333,15.66667c0,0 -1.55386,-0.44269 -4.28744,-0.98487c-3.71525,-0.73689 -9.18606,-2.08117 -11.96256,-6.6818c-5.05591,-8.37756 -1.14472,-14.63244 1.32946,-17.30058c2.59151,-2.79467 8.62368,-5.7473 14.92054,-3.36609c5.01294,1.89569 6.59846,6.00068 7.46592,8.98569c0.63278,2.17746 1.11742,3.68098 1.11742,3.68098z" fill="#000000"/><path d="M194.9167,141.04489c0,-3.81997 3.0967,-6.91667 6.91667,-6.91667c3.81997,0 6.91667,3.0967 6.91667,6.91667c0,3.81997 -3.0967,6.91667 -6.91667,6.91667c-3.81997,0 -6.91667,-3.0967 -6.91667,-6.91667z" fill="#cbcb6a"/></g><path d="M240.08337,209.29492c-46.40531,-0.08963 -57.66666,-28.91667 -57.66666,-28.91667c0,0 6.87956,-1.62391 11.84189,-8.91083c10.97677,-16.11883 16.82951,-44.51292 44.32477,-44.67249c28.71764,-0.16666 33.39705,26.11672 45.03297,43.09099c6.19986,9.04424 13.30036,11.15902 13.30036,11.15902c0,0 -9.59507,28.34122 -56.83334,28.24998z" fill="none" stroke="#000000" stroke-width="3" stroke-linecap="butt"/><g data-paper-data="{&quot;index&quot;:null}" stroke="none" stroke-width="0" stroke-linecap="butt"><path d="M266.79026,138.96154c0,0 0.48464,-1.50352 1.11742,-3.68098c0.86746,-2.98501 2.45298,-7.09 7.46592,-8.98569c6.29686,-2.38121 12.32903,0.57142 14.92054,3.36609c2.47418,2.66814 6.38537,8.92302 1.32946,17.30058c-2.7765,4.60063 -8.24731,5.94491 -11.96256,6.6818c-2.73358,0.54218 -4.28744,0.98487 -4.28744,0.98487l-8.58333,-15.66667z" fill="#000000"/><path d="M277.87361,147.96154c-3.81997,0 -6.91667,-3.0967 -6.91667,-6.91667c0,-3.81997 3.0967,-6.91667 6.91667,-6.91667c3.81997,0 6.91667,3.0967 6.91667,6.91667c0,3.81997 -3.0967,6.91667 -6.91667,6.91667z" fill="#cbcb6a"/></g><path d="M232.38006,126.72752l13.125,0.25c0,0 -0.26848,9.11403 -2.13462,17.07354c-1.40906,6.00995 -3.49038,11.30147 -3.49038,11.30147c0,0 -2.86909,-4.58786 -4.53153,-11.27449c-1.25466,-5.04646 -2.96847,-17.35051 -2.96847,-17.35051z" fill="#000000" stroke="none" stroke-width="0" stroke-linecap="butt"/><path d="M225.50506,146.10252c0,0 4.13078,-7.6281 14,-7.75c10.11997,-0.125 13.5,7.75 13.5,7.75z" fill="#000000" stroke="none" stroke-width="0" stroke-linecap="butt"/><path d="M223.25506,136.47752c0,0 4.55673,-8.12809 16.04091,-8.25c11.77597,-0.125 15.95909,8.25 15.95909,8.25z" fill="#000000" stroke="none" stroke-width="0" stroke-linecap="butt"/><g fill="#000000" stroke="none" stroke-width="0" stroke-linecap="butt"><path d="M189.50506,190.22751c0,0 -5.60752,-6.31167 -5.76372,-8.63249c-0.131,-1.94624 4.88872,-4.36751 4.88872,-4.36751c0,0 3.71014,2.85904 9.22141,4.91485c4.62539,1.72537 9.27859,2.08515 9.27859,2.08515c0,0 -2.02001,3.04573 -7.15826,4.40228c-7.51871,1.985 -10.46673,1.59772 -10.46673,1.59772z"/><path d="M191.16785,192.06368c0,0 8.5765,1.63179 13.7947,1.17929c4.37943,-0.37975 8.25941,-1.86845 8.25941,-1.86845c0,0 0.3232,3.12014 -3.4501,6.77599c-2.13123,2.06489 -4.30808,3.31967 -5.598,4.09551c-0.80677,-0.42365 -2.36701,-1.18239 -3.11589,-1.53654c-0.62939,-0.29764 -1.5693,-1.25443 -2.66647,-2.40123c-0.91723,-1.56703 -2.24875,-2.86208 -3.84425,-3.73485c-0.02781,-0.01521 -0.05569,-0.03029 -0.08365,-0.04524c0.60224,-0.96669 -3.29574,-2.46448 -3.29574,-2.46448z"/><path d="M213.99991,201.94508c4.01327,-2.52765 6.20578,-5.51593 6.20578,-5.51593c0,0 1.40595,2.93494 0.09674,7.48233c-0.47592,1.65305 -0.93496,3.02361 -1.35613,4.15002c-2.18654,-1.17181 -4.519,-1.87494 -7.15396,-2.94581c-0.22069,-0.08969 -2.592,-1.27644 -2.85465,-1.32064c1.03352,-0.64907 3.27971,-0.72729 5.06222,-1.84996z"/></g><g data-paper-data="{&quot;index&quot;:null}" fill="#000000" stroke="none" stroke-width="0" stroke-linecap="butt"><path d="M279.25226,188.37979c-5.13826,-1.35655 -7.15826,-4.40228 -7.15826,-4.40228c0,0 4.65321,-0.35978 9.27859,-2.08515c5.51126,-2.05581 9.22141,-4.91485 9.22141,-4.91485c0,0 5.01972,2.42127 4.88872,4.36751c-0.15621,2.32082 -5.76372,8.63249 -5.76372,8.63249c0,0 -2.94803,0.38728 -10.46674,-1.59772z"/><path d="M287.26045,194.65316c-0.02796,0.01495 -0.80585,0.53003 -0.83366,0.54524c-1.59551,0.87277 -4.67703,1.29282 -5.59425,2.85985c-0.18881,0.19735 1.87704,1.51408 1.69832,1.69778c-0.85979,0.88381 -3.84372,0.45704 -4.36479,0.70345c-0.74888,0.35415 -2.30912,1.11289 -3.11589,1.53654c-1.28992,-0.77584 -3.46678,-2.03062 -5.598,-4.09551c-3.7733,-3.65586 -3.45011,-6.77599 -3.45011,-6.77599c0,0 3.87998,1.4887 8.25941,1.86845c5.21819,0.45249 14.6697,-1.42929 14.6697,-1.42929c0,0 -2.27297,2.12278 -1.67073,3.08948z"/><path d="M270.28637,203.54503c-0.26265,0.0442 -2.63397,1.23095 -2.85465,1.32064c-2.63495,1.07087 -4.96742,1.774 -7.15395,2.94581c-0.42118,-1.12641 -0.88022,-2.49697 -1.35613,-4.15002c-1.30921,-4.54738 0.09674,-7.48233 0.09674,-7.48233c0,0 2.1925,2.98828 6.20578,5.51593c1.78251,1.12267 4.02871,1.20089 5.06223,1.84996z"/></g><path d="M227.50003,174.67583c0,-6.58797 5.3406,-11.92857 11.92857,-11.92857c6.58797,0 11.92857,5.3406 11.92857,11.92857c0,6.58797 -5.3406,11.92857 -11.92857,11.92857c-6.58797,0 -11.92857,-5.3406 -11.92857,-11.92857z" fill="#6e6e30" stroke="none" stroke-width="0" stroke-linecap="butt"/><path d="M239.19646,188.42583c-6.78841,0.01417 -6.53572,-8.14285 -6.53572,-8.14285c0,0 3.1754,0.30265 4.01591,-0.07796c1.0181,-0.46102 2.94838,-2.60061 2.94838,-2.60061c0,0 2.08257,2.15339 2.9844,2.57553c0.74767,0.34997 3.33702,-0.0041 3.33702,-0.0041c0,0 0.56233,8.66395 -6.74999,8.24999z" fill="#c5c556" stroke="#000000" stroke-width="1.5" stroke-linecap="butt"/><path d="M248.7917,177.92582c0,0 -1.50879,3.44007 -5.76566,2.49626c-3.01881,-0.66931 -3.32065,-3.74918 -3.32065,-3.74918c0,0 -0.6988,3.56941 -3.61407,3.89449c-4.16682,0.46464 -6.13295,-2.4749 -6.13295,-2.4749" fill="none" stroke="#000000" stroke-width="2" stroke-linecap="round"/><g stroke="none" stroke-width="0" stroke-linecap="butt"><path d="M246.5417,170.38416c0,2.27818 -3.76589,7.02263 -7.04166,6.875c-3.27481,-0.14758 -7.20834,-4.59682 -7.20834,-6.875c0,-2.27818 3.0146,-4.625 7.04167,-4.625c4.02707,0 7.20833,2.34682 7.20833,4.625z" fill="#000000"/><path d="M243.87503,169.55083c0,0.94349 -2.03337,1.70834 -4.54166,1.70834c-2.5083,0 -4.54167,-0.76485 -4.54167,-1.70834c0,-0.94349 1.28408,-1.68337 4.70834,-1.79166c3.34089,-0.10566 4.375,0.84818 4.375,1.79166z" fill="#ffffff"/></g><path d="M239.62502,178.67583v5.89285" fill="none" stroke="#000000" stroke-width="1" stroke-linecap="round"/><path d="M241.05198,225.50767c-0.06245,0.73786 -3.77722,1.49488 -9.16697,1.0029c-5.89547,-0.53814 -8.14962,-1.93157 -8.40714,-2.63675c-1.12783,-3.08838 0.8401,-5.19563 8.96536,-4.36746c4.00759,0.40847 7.21214,1.08214 8.38994,2.0211c1.31184,1.04582 0.35133,2.4144 0.21881,3.98021z" fill="#c5c556" stroke="#9b9b44" stroke-width="3" stroke-linecap="butt"/><g stroke="none" stroke-width="0" stroke-linecap="butt"><path d="M223.25503,173.09633c0,5.83351 -3.91751,10.5625 -8.75,10.5625c-4.83249,0 -8.75,-4.72899 -8.75,-10.5625c0,-5.83351 3.91751,-10.5625 8.75,-10.5625c4.83249,0 8.75,4.72899 8.75,10.5625z" fill="#000000"/><path d="M213.10503,176.60347c0,1.27025 -4.3,1.9 -4.3,1.9c0,0 -1.16448,-0.46809 -2.68907,-1.07695c-1.98577,-0.79303 -4.44318,-1.8945 -4.31093,-3.22305c0.15422,-1.54928 2.63085,-1.3512 4.54649,-1.15589c1.4269,0.14549 2.45351,0.15589 2.45351,0.15589c0,0 4.3,2.12974 4.3,3.4z" fill="#000000"/><path d="M264.44991,162.07668c4.83249,0 8.75,4.66503 8.75,10.41964c0,5.75461 -3.91751,10.41964 -8.75,10.41964c-4.83249,0 -8.75,-4.66503 -8.75,-10.41964c0,-5.75461 3.91751,-10.41964 8.75,-10.41964z" fill="#000000"/><path d="M270.14991,173.60347c0,0 1.02662,-0.0104 2.45352,-0.15589c1.91564,-0.19531 4.39226,-0.39339 4.54648,1.15589c0.13225,1.32855 -2.32515,2.43002 -4.31092,3.22305c-1.52459,0.60886 -2.68908,1.07695 -2.68908,1.07695c0,0 -4.3,-0.62975 -4.3,-1.9c0,-1.27025 4.3,-3.4 4.3,-3.4z" fill="#000000"/><path d="M216.35714,170.10714c0,2.16969 -1.66294,3.92857 -3.71428,3.92857c-2.05135,0 -3.71428,-1.75888 -3.71428,-3.92857c0,-2.16969 1.66294,-3.92857 3.71428,-3.92857c2.05135,0 3.71428,1.75888 3.71428,3.92857z" fill="#ffffff"/><path d="M214.5,177.5754c0,-1.04321 0.84569,-1.88888 1.88889,-1.88888c1.04321,0 1.88889,0.84568 1.88889,1.88888c0,1.04321 -0.84569,1.88889 -1.88889,1.88889c-1.04321,0 -1.88889,-0.84569 -1.88889,-1.88889z" fill="#6e6e30"/><path d="M264.61111,178.01984c0,-1.04321 0.84569,-1.88888 1.88889,-1.88888c1.04321,0 1.88889,0.84568 1.88889,1.88888c0,1.04321 -0.84569,1.88889 -1.88889,1.88889c-1.04321,0 -1.88889,-0.84569 -1.88889,-1.88889z" fill="#6e6e30"/><path d="M266.21429,169.67857c0,2.16969 -1.66294,3.92857 -3.71429,3.92857c-2.05134,0 -3.71428,-1.75888 -3.71428,-3.92857c0,-2.16969 1.66294,-3.92857 3.71428,-3.92857c2.05135,0 3.71429,1.75889 3.71429,3.92857z" fill="#ffffff"/></g></g></g></svg>