<svg version="1.1" xmlns="http://www.w3.org/2000/svg" xmlns:xlink="http://www.w3.org/1999/xlink" width="187.66271" height="308.11993" viewBox="0,0,187.66271,308.11993"><g transform="translate(-227.11007,-26.79671)"><g stroke-miterlimit="10"><path d="M263.40898,324.61251v-293.22501h113.18203v293.22501z" fill-opacity="0.01" fill="#000000" stroke="none" stroke-width="0" stroke-linecap="butt"/><path d="M343.75406,148.05865c-3.72096,-5.76143 -7.89399,-20.56001 -7.89399,-20.56001c0,0 21.54462,6.03739 34.18795,9.52519c21.12667,5.82803 47.17191,11.90091 43.65294,27.14323c-2.67946,11.60605 -31.05813,4.99332 -31.05813,4.99332c0,0 2.97503,15.36861 -10.91572,10.84281c-16.0796,-5.23899 -27.76948,-31.62929 -27.97305,-31.94452z" fill-opacity="0.4" fill="#f2d849" stroke="#0d0d00" stroke-width="1.5" stroke-linecap="butt"/><path d="M272.26043,118.57842c2.56444,-4.04371 2.74397,-6.29735 2.74397,-6.29735c0,0 -1.96269,0.64238 -5.99306,0.44098c-4.11537,-0.20565 -7.07204,-2.59496 -7.07204,-2.59496c0,0 3.50357,-3.27383 5.27287,-5.83376c2.37408,-3.43495 3.36203,-7.32345 3.36203,-7.32345c0,0 -2.25785,1.45692 -4.30355,1.93842c-4.3137,1.01533 -6.52796,-0.72255 -6.52796,-0.72255c0,0 12.46772,-11.83454 12.88655,-30.07126c0.63044,-27.45079 36.44686,-32.62132 47.55961,-22.48447c14.57823,13.298 17.33031,33.24853 10.75069,49.87485c-10.75497,27.17724 -10.72754,29.30039 -27.67802,34.77178c-23.94021,7.72758 -36.72982,-5.82787 -36.72982,-5.82787c0,0 3.1996,-1.88238 5.72871,-5.87037z" fill="#ecec68" stroke="#0d0d00" stroke-width="1.75" stroke-linecap="butt"/><path d="M298.12879,148.05866c-0.20357,0.31523 -11.89345,26.70553 -27.97305,31.94452c-13.89075,4.5258 -10.91572,-10.84281 -10.91572,-10.84281c0,0 -28.37867,6.61273 -31.05813,-4.99332c-3.51897,-15.24232 22.52627,-21.3152 43.65294,-27.14323c12.64333,-3.4878 34.18795,-9.52519 34.18795,-9.52519c0,0 -4.17303,14.79858 -7.89399,20.56001z" fill-opacity="0.4" fill="#f2d849" stroke="#0d0d00" stroke-width="1.5" stroke-linecap="butt"/><g stroke-linecap="butt"><path d="M353.29404,202.55718c0,0 -4.36793,-15.36204 -9.09046,-32.4731c-6.38128,-23.12111 -25.41851,-55.95341 2.07664,-50.99482c7.21062,1.3004 13.76541,12.19868 16.67737,23.07902c2.89459,10.81545 2.96301,21.80946 2.96301,21.80946c0,0 2.5592,11.16975 3.49615,16.97555c0.97111,6.01748 3.54762,19.47409 3.54762,19.47409z" fill="#ecec68" stroke="#0d0d00" stroke-width="1.75"/><path d="M376.30992,202.71946c4.02251,4.48039 4.29287,12.79698 2.63838,15.59545c-2.27257,3.84391 -9.88329,1.83381 -9.88329,1.83381c0,0 -11.69502,-19.57856 -6.89891,-21.84908c4.40231,-2.0841 10.45187,0.30763 14.14382,4.41982z" fill="#ecec68" stroke="#0d0d00" stroke-width="1.75"/><path d="M366.50203,199.85622c5.37664,-1.80383 8.23048,7.49145 8.23048,7.49145c0.05493,0.13851 4.76165,14.87007 -1.45381,16.47756c-8.29523,2.14539 -10.86029,-4.98831 -10.86029,-4.98831c0,0 -1.77397,-17.01551 4.08362,-18.98071z" fill="#ecec68" stroke="#0d0d00" stroke-width="1.75"/><path d="M363.30061,198.3046c4.8263,-0.91158 5.65607,8.60372 5.65607,8.60372c0.02279,0.14373 2.01678,13.56225 -3.05582,16.60649c-7.05745,4.23538 -9.24085,-7.34274 -9.24085,-7.34274c0,0 1.38255,-16.87436 6.64059,-17.86749z" fill="#ecec68" stroke="#0d0d00" stroke-width="1.75"/><path d="M365.30823,198.58988c2.00671,0.83243 -5.95041,6.28797 -7.18927,10.95298c-1.64648,4.56024 3.08123,8.53701 3.08123,8.53701c0,0 -13.5745,3.6935 -10.92762,-11.72424c1.26087,-7.34434 11.66396,-9.16444 15.03565,-7.76578z" fill="#ecec68" stroke="#0d0d00" stroke-width="1.75"/><path d="M354.63947,205.30993l-2.44174,-11.85158l17.52986,-4.41765l2.94292,15.42289z" fill="#ecec68" stroke="none" stroke-width="0"/><path d="M378.13912,212.77444c0,0 -2.50503,-1.02003 -5.71146,-0.22123c-2.55226,0.63583 -5.59626,2.28996 -7.36583,2.35619c-4.28626,0.16042 -11.89189,-2.81719 -11.89189,-2.81719l3.48176,-13.25136c0,0 6.2467,-3.5656 15.34593,1.6437c4.40866,2.52394 6.14148,12.28987 6.14148,12.28987z" fill="#ecec68" stroke="none" stroke-width="0"/><path d="M363.44529,146.67363c0,0 -1.6161,3.07184 -12.19092,5.60331c-7.4851,1.79183 -13.38076,0.33356 -13.38076,0.33356l-2.95502,-8.60676l26.4506,-4.87874l2.07609,7.54865z" fill-opacity="0.70196" fill="#0d0d00" stroke="none" stroke-width="0"/><path d="M366.74105,167.01325c0,0 -1.58799,3.06421 -10.82784,4.74177c-8.37447,1.52045 -11.46168,0.18297 -11.46168,0.18297l-2.78298,-8.6385c0,0 4.25177,2.03803 11.96981,0.63943c8.55731,-1.55068 11.27972,-4.95468 11.27972,-4.95468l1.82296,8.02902z" fill-opacity="0.70196" fill="#0d0d00" stroke="none" stroke-width="0"/><path d="M371.11377,190.49558c0,0 -1.08083,2.36055 -9.5439,3.89483c-7.67044,1.39059 -10.41775,0.60054 -10.41775,0.60054l-2.68622,-8.65635c0,0 3.82765,1.50613 10.89688,0.22721c7.83795,-1.418 10.17757,-4.11434 10.17757,-4.11434l1.5734,8.04811z" fill-opacity="0.70196" fill="#0d0d00" stroke="none" stroke-width="0"/><path d="M362.92673,142.25414c0.03649,0.21017 -1.42379,3.21407 -12.77977,6.23823c-7.89574,2.10268 -12.762,1.54574 -13.04233,0.75602c-4.36834,-12.30619 -10.27888,-23.4707 -5.43784,-28.16655c2.16575,-2.10081 8.51414,-3.09259 14.61343,-1.99263c5.94496,1.07215 14.55987,11.14441 16.6465,23.16493z" fill="#9b9b44" stroke="#0d0d00" stroke-width="1.75"/></g><g stroke-linecap="butt"><path d="M268.12523,200.42738c0,0 2.5765,-13.45661 3.54762,-19.47409c0.93695,-5.8058 3.49615,-16.97555 3.49615,-16.97555c0,0 0.06842,-10.99402 2.96301,-21.80947c2.91196,-10.88033 9.46674,-21.77862 16.67737,-23.07902c27.49515,-4.95859 8.45792,27.87371 2.07664,50.99482c-4.72253,17.11106 -9.09046,32.4731 -9.09046,32.4731z" fill="#ecec68" stroke="#0d0d00" stroke-width="1.75"/><path d="M278.9235,198.29964c4.79611,2.27052 -6.89891,21.84908 -6.89891,21.84908c0,0 -7.61072,2.01009 -9.88329,-1.83381c-1.65449,-2.79847 -1.38413,-11.11508 2.63838,-15.59546c3.69195,-4.11218 9.74151,-6.50391 14.14382,-4.41981z" fill="#ecec68" stroke="#0d0d00" stroke-width="1.75"/><path d="M274.58759,199.8562c5.85759,1.9652 4.08362,18.98071 4.08362,18.98071c0,0 -2.56505,7.1337 -10.86029,4.98832c-6.21546,-1.60749 -1.50874,-16.33906 -1.45381,-16.47757c0,0 2.85385,-9.29529 8.23048,-7.49145z" fill="#ecec68" stroke="#0d0d00" stroke-width="1.75"/><path d="M277.789,198.30458c5.25804,0.99314 6.64059,17.86749 6.64059,17.86749c0,0 -2.18339,11.57811 -9.24084,7.34273c-5.0726,-3.04424 -3.07861,-16.46277 -3.05582,-16.60649c0,0 0.82978,-9.5153 5.65608,-8.60372z" fill="#ecec68" stroke="#0d0d00" stroke-width="1.75"/><path d="M275.78139,198.58985c3.37169,-1.39867 13.77478,0.42144 15.03565,7.76577c2.64688,15.41775 -10.92763,11.72425 -10.92763,11.72425c0,0 4.72771,-3.97678 3.08123,-8.53701c-1.23886,-4.665 -9.19598,-10.12055 -7.18927,-10.95298z" fill="#ecec68" stroke="#0d0d00" stroke-width="1.75"/><path d="M268.4191,204.46358l2.94291,-15.42289l17.52986,4.41765l-2.44174,11.85159z" fill="#ecec68" stroke="none" stroke-width="0"/><path d="M262.95048,212.77443c0,0 1.73282,-9.76593 6.14148,-12.28987c9.09924,-5.2093 15.34593,-1.6437 15.34593,-1.6437l3.48176,13.25136c0,0 -7.60562,2.97761 -11.89188,2.81719c-1.76957,-0.06623 -4.81357,-1.72037 -7.36583,-2.3562c-3.20643,-0.7988 -5.71145,0.22123 -5.71145,0.22123z" fill="#ecec68" stroke="none" stroke-width="0"/><path d="M277.6443,146.67365l2.07609,-7.54865l26.4506,4.87875l-2.95502,8.60676c0,0 -5.89566,1.45827 -13.38076,-0.33357c-10.57482,-2.53146 -12.19092,-5.60331 -12.19092,-5.60331z" fill-opacity="0.70196" fill="#0d0d00" stroke="none" stroke-width="0"/><path d="M274.34855,167.01326l1.82296,-8.02902c0,0 2.72241,3.40401 11.27972,4.95469c7.71804,1.3986 11.96981,-0.63943 11.96981,-0.63943l-2.78299,8.6385c0,0 -3.08721,1.33748 -11.46168,-0.18297c-9.23985,-1.67756 -10.82784,-4.74176 -10.82784,-4.74176z" fill-opacity="0.70196" fill="#0d0d00" stroke="none" stroke-width="0"/><path d="M269.97586,190.49557l1.5734,-8.0481c0,0 2.33962,2.69634 10.17757,4.11434c7.06923,1.27892 10.89688,-0.22721 10.89688,-0.22721l-2.68621,8.65635c0,0 -2.74731,0.79005 -10.41776,-0.60054c-8.46307,-1.53428 -9.5439,-3.89483 -9.5439,-3.89483z" fill-opacity="0.70196" fill="#0d0d00" stroke="none" stroke-width="0"/><path d="M278.16289,142.25414c2.08663,-12.02052 10.70154,-22.09279 16.6465,-23.16493c6.09928,-1.09997 12.44767,-0.10818 14.61342,1.99263c4.84104,4.69585 -1.0695,15.86035 -5.43783,28.16655c-0.28033,0.78971 -5.14659,1.34666 -13.04233,-0.75602c-11.35598,-3.02416 -12.81625,-6.02805 -12.77977,-6.23822z" fill="#9b9b44" stroke="#0d0d00" stroke-width="1.75"/></g><g><g stroke="#0d0d00" stroke-linecap="butt"><path d="M343.28368,168.52618c1.57051,0.61318 8.28838,9.05799 8.28838,9.05799c0,0 11.70608,5.3101 12.42364,28.4523c0.59213,19.09689 -6.03411,34.31567 -6.03411,34.31567c0,0 -1.54311,18.66129 -4.4982,32.98192c-2.95508,14.32063 -9.77938,36.72745 -9.77938,36.72745l-23.53796,-0.71747l0.07992,-132.64153c0,0 14.92481,-11.3517 23.05772,-8.17632z" fill="#494920" stroke-width="1.75"/><path d="M319.85249,305.29258v-3.32279c0,0 27.48357,-0.6001 27.98562,0c0.93972,1.12327 -0.81595,3.43621 -3.17871,4.19494z" fill="#080d00" stroke-width="1.5"/></g><g stroke="#0d0d00" stroke-linecap="butt"><path d="M297.64475,168.27618c8.13291,-3.17538 23.05772,8.17632 23.05772,8.17632l0.07992,132.64153l-23.53796,0.71747c0,0 -6.8243,-22.40682 -9.77938,-36.72745c-2.95509,-14.32064 -4.4982,-32.98192 -4.4982,-32.98192c0,0 -6.62624,-15.21878 -6.03411,-34.31568c0.71756,-23.14219 12.42364,-28.4523 12.42364,-28.4523c0,0 6.71787,-8.44481 8.28838,-9.05799z" fill="#494920" stroke-width="1.75"/><path d="M320.54209,307.57133l0.15642,14.66283c0,0 -2.13105,3.33828 -9.57044,6.63437c-13.16886,5.83458 -24.81656,5.60696 -30.80438,4.24795c-3.1241,-0.83013 -6.25925,-6.65632 -2.7366,-11.22699c3.1823,-4.12908 10.60019,-4.84717 15.0485,-8.02239c3.86947,-2.76205 5.72916,-5.94676 5.72916,-5.94676z" fill="#ffffd5" stroke-width="1.5"/><path d="M298.36473,303.96627l22.55234,0.18266l-0.21858,14.13117c0,0 -19.29936,15.66566 -40.37482,10.88232c-3.12409,-0.83014 -5.56047,-4.33037 -2.03782,-8.90104c3.1823,-4.12908 9.90142,-7.17312 14.34973,-10.34834c3.86947,-2.76205 5.72916,-5.94677 5.72916,-5.94677z" fill="#0d0d00" stroke-width="1.5"/><path d="M293.59031,301.71979c0.50205,-0.6001 27.48562,0 27.48562,0v3.32279c0,0 -23.44233,1.32909 -24.80692,0.89088c0,0 -5.36842,-2.3404 -2.6787,-4.21367z" fill="#080d00" stroke-width="1.5"/></g><path d="M303.78502,203.29672l-1,-20.1721h35.96121l-0.8,20.63442c0,0 -11.12869,1.61816 -17.03787,1.61816c-6.07339,0 -17.12334,-2.08048 -17.12334,-2.08048z" fill="#494920" stroke="none" stroke-width="0" stroke-linecap="butt"/><path d="M337.61104,203.09226c0,0 -7.8499,2.22242 -17.37731,2.30103c-8.35113,0.06889 -16.04309,-2.30103 -16.04309,-2.30103" fill="none" stroke="#0d0d00" stroke-width="1.5" stroke-linecap="round"/><path d="M320.75823,132.32217c0.06985,-0.16235 0.107,-0.24689 0.107,-0.24689v0.00001h18.75144c0,0 1.37601,4.76768 3.85007,11.32321c2.57928,6.83438 6.2869,14.45655 8.25085,21.80088c1.5955,5.96648 -0.19989,9.82142 -0.19989,9.82142c0,0 -6.37023,6.78734 -30.61318,7.16257c-0.16929,0.00506 0.95007,1.85178 0.77558,1.8509c-0.17397,0.00087 -2.0055,-3.50601 -2.17431,-3.51105c-24.24346,-0.37507 -29.84034,-5.50241 -29.84034,-5.50241c0,0 -2.05756,-3.25945 -0.46205,-9.22593c1.96395,-7.34433 6.26706,-15.56199 8.84634,-22.39637c2.47406,-6.55554 3.85007,-11.32321 3.85007,-11.32321h18.75144v-0.00001c0,0 0.03714,0.08454 0.10699,0.24689z" fill="#9b9b44" stroke="#0d0d00" stroke-width="1.75" stroke-linecap="butt"/><path d="M289.41605,173.66519c0.79186,0.40108 6.00669,5.01022 27.86798,5.17739c0.79943,-0.02557 3.08803,-0.01009 3.34889,-0.0071c0.26076,-0.003 2.54898,-0.01847 3.34835,0.0071c21.86145,-0.16714 27.07632,-4.7763 27.86818,-5.17739c1.45187,-0.73539 4.78457,7.29166 4.78457,7.29166c0,0 -12.05131,8.16171 -35.36556,7.78292c-0.2124,-0.00345 -0.42435,0.17422 -0.63567,0.16419c-0.21135,0.01003 -0.42332,-0.16764 -0.63576,-0.16419c-23.31425,0.37879 -33.19451,-10.65034 -33.19451,-10.65034c0,0 1.16167,-5.15963 2.61353,-4.42424z" fill="#0d0d00" stroke="none" stroke-width="0" stroke-linecap="butt"/><path d="M313.15504,188.23992c-1.07703,-2.26279 -1.10216,-8.65912 -0.33441,-10.57102c0.79267,-1.97391 13.79684,-1.95159 15.24756,-0.58296c1.39648,1.31747 1.05602,10.16041 -0.16719,11.54265c-1.13434,1.28179 -13.95538,0.98775 -14.74601,-0.38865z" fill="#ffffd5" stroke="#0d0d00" stroke-width="1.5" stroke-linecap="butt"/></g><path d="M342.39705,308.17037c0,0 1.85969,3.18471 5.72916,5.94676c4.44831,3.17522 11.8662,3.89332 15.0485,8.02239c3.52265,4.57067 0.3875,10.39685 -2.7366,11.22699c-5.98782,1.35901 -17.63553,1.58663 -30.80439,-4.24795c-7.43939,-3.29608 -9.57043,-6.63436 -9.57043,-6.63436l0.15642,-14.66283z" fill="#ffffd5" stroke="#0d0d00" stroke-width="1.5" stroke-linecap="butt"/><path d="M342.39705,304.21628c0,0 1.85969,3.18472 5.72916,5.94677c4.44831,3.17523 11.16743,6.21927 14.34973,10.34834c3.52265,4.57066 1.08627,8.0709 -2.03782,8.90104c-21.07546,4.78335 -40.37482,-10.88232 -40.37482,-10.88232l-0.21858,-14.13117l22.55234,-0.18266z" fill="#0d0d00" stroke="#0d0d00" stroke-width="1.5" stroke-linecap="butt"/><path d="M296.78555,124.42539c0.32537,-1.20315 16.56815,-12.90595 23.45285,-8.03612c9.55264,6.75696 9.91519,31.14379 3.61552,32.18326c-25.44486,6.73614 -30.69159,3.66368 -33.59609,-0.35032c-3.29266,-4.55042 -1.59525,-9.29797 0.67485,-12.59947c2.2701,-3.3015 4.02537,-4.43954 5.85287,-11.19734z" fill="#9b9b44" stroke="#0d0d00" stroke-width="1.5" stroke-linecap="butt"/><path d="M351.06391,148.22215c-2.9045,4.014 -8.15123,7.08647 -33.59609,0.35032c-6.29967,-1.03947 -5.93713,-25.42629 3.61551,-32.18325c6.8847,-4.86983 23.12747,6.83297 23.45284,8.03612c1.82749,6.75779 2.71566,6.63471 5.85289,11.19734c2.2701,3.30149 3.96751,8.04904 0.67484,12.59947z" fill="#9b9b44" stroke="#0d0d00" stroke-width="1.5" stroke-linecap="butt"/><path d="M313.06448,163.92673l2.64991,-24.10921c0,0 1.91704,-22.28063 9.22314,-20.7672c4.76222,0.98647 16.30428,28.96433 16.30428,28.96433c0,0 -9.95417,1.16904 -8.64532,3.97092c0.69307,1.48367 4.1497,1.02403 5.45511,3.32751c1.75592,3.09843 2.66024,6.68492 2.66024,6.68492z" fill="#9b9b44" stroke="none" stroke-width="0" stroke-linecap="butt"/><path d="M300.60992,161.99799c0,0 0.90432,-3.58649 2.66024,-6.68492c1.30541,-2.30347 4.76205,-1.84384 5.45511,-3.32751c1.30884,-2.80188 -8.64532,-3.97092 -8.64532,-3.97092c0,0 11.54207,-27.97787 16.30428,-28.96434c7.3061,-1.51342 9.22315,20.76721 9.22315,20.76721l2.6499,24.10921z" fill="#9b9b44" stroke="none" stroke-width="0" stroke-linecap="butt"/><path d="M291.75588,128.00581c0,0 -2.15614,-9.59328 28,-9.88478c34.78554,-0.33625 31.5,10.12587 31.5,10.12587c0,0 -15.47005,-1.46297 -28.25056,-1.55799c-25.48246,-0.18947 -31.24944,1.31689 -31.24944,1.31689z" fill="#9b9b44" stroke="none" stroke-width="0" stroke-linecap="butt"/><path d="M320.13443,142.8579v-23.13606" fill="none" stroke="#0d0d00" stroke-width="1" stroke-linecap="round"/><path d="M326.49698,129.57695c0,1.14575 -0.60788,1.4303 -1.54452,1.4303c-0.93664,0 -1.84736,-0.28454 -1.84736,-1.4303c0,-1.14575 0.7593,-1.68801 1.69594,-1.68801c0.93664,0 1.69594,0.54225 1.69594,1.68801z" fill="#ffffd5" stroke="#0d0d00" stroke-width="1" stroke-linecap="butt"/><path d="M325.00293,134.69251c0.93663,0 1.84736,0.41339 1.84736,1.55915c0,1.14575 -0.7593,1.43029 -1.69594,1.43029c-0.93664,0 -1.69594,-0.28454 -1.69594,-1.43029c0,-1.14575 0.60787,-1.55915 1.54451,-1.55915z" fill="#ffffd5" stroke="#0d0d00" stroke-width="1" stroke-linecap="butt"/><path d="M316.85447,117.77263l8.06707,-1.9874c0,0 11.58422,-0.6953 15.1265,6.62402c2.56293,5.2957 -3.86724,11.50911 -3.86724,11.50911z" fill="#c1c155" stroke="#0d0d00" stroke-width="1.5" stroke-linecap="butt"/><path d="M304.11669,133.9184c0,0 -5.68017,-6.66841 -3.11724,-11.96411c3.54228,-7.31932 14.3765,-6.16902 14.3765,-6.16902l7.33979,2.48376z" fill="#c1c155" stroke="#0d0d00" stroke-width="1.5" stroke-linecap="butt"/><path d="M314.83137,94.64584h11.99007l1.29622,21.45252c0,0 -3.04103,4.91539 -7.45329,4.79603c-4.43,-0.11983 -7.12923,-4.79603 -7.12923,-4.79603z" fill="#ecec68" stroke="#0d0d00" stroke-width="1.5" stroke-linecap="butt"/><path d="M310.66796,62.61161c-5.66528,1.93571 -10.70456,14.98092 -15.75939,12.05734c-5.15688,-2.98261 3.13599,-17.47559 11.86726,-22.22433c6.95618,-3.78333 15.57674,-3.36302 16.84497,0.34871c1.26824,3.71174 -7.28757,7.88257 -12.95285,9.8183z" fill="#6e6e30" stroke="#0d0d00" stroke-width="1.35" stroke-linecap="butt"/><path d="M339.64846,32.41931c0,0 -0.24647,3.57752 -2.08233,13.19216c-1.16722,6.11292 -3.99914,14.33664 -3.99914,14.33664l-5.77123,-1.812c0,0 3.68453,-7.92155 5.12788,-13.925c2.53962,-10.56321 1.39288,-15.06205 2.9124,-16.93586c1.21358,-1.49651 7.69215,0.81209 15.17266,2.86567c7.38535,2.02745 15.79102,3.76276 14.32761,8.06182c-2.33231,6.85163 -25.68784,-5.78342 -25.68784,-5.78342z" fill="#0d0d00" stroke="none" stroke-width="NaN" stroke-linecap="butt"/><path d="M302.80447,32.41931c0,0 -23.35553,12.63504 -25.68784,5.78342c-1.46341,-4.29906 6.94226,-6.03438 14.32761,-8.06183c7.48052,-2.05358 13.95909,-4.3622 15.17266,-2.86566c1.51951,1.87383 0.37278,6.37266 2.9124,16.93587c1.44335,6.00345 5.12788,13.92499 5.12788,13.92499l-5.77123,1.81202c0,0 -2.83192,-8.22371 -3.99914,-14.33664c-1.83587,-9.61465 -2.08234,-13.19216 -2.08234,-13.19216z" fill="#0d0d00" stroke="none" stroke-width="NaN" stroke-linecap="butt"/><path d="M292.69347,90.66282c3.51948,-2.88817 3.78337,1.82342 6.66348,4.27231c2.88012,2.4489 2.84571,6.77942 -0.77584,8.73224c-4.26072,2.29746 -9.62975,6.54239 -9.62975,6.54239c0,0 -5.01903,-12.35735 3.74211,-19.54694z" fill="#ecec68" stroke="#0d0d00" stroke-width="1.75" stroke-linecap="butt"/><path d="M292.45707,101.83567c1.18589,-5.48915 6.13854,-7.36827 10.65306,-5.50476c4.51452,1.86351 6.31013,7.10249 2.76817,10.83187c-1.88683,1.98668 -6.9785,8.87792 -6.9785,8.87792c0,0 -7.91361,-5.56337 -6.44273,-14.20502z" fill="#ecec68" stroke="#0d0d00" stroke-width="1.75" stroke-linecap="butt"/><path d="M343.07179,103.55627c-3.62155,-1.95282 -3.65595,-6.28334 -0.77584,-8.73224c2.88012,-2.44889 3.144,-7.16048 6.66348,-4.27231c8.76114,7.18959 3.74211,19.54695 3.74211,19.54695c0,0 -5.36904,-4.24494 -9.62975,-6.5424z" fill="#ecec68" stroke="#0d0d00" stroke-width="1.75" stroke-linecap="butt"/><path d="M335.7746,107.16285c-3.54196,-3.72937 -1.74635,-8.96836 2.76817,-10.83187c4.51452,-1.86351 9.46719,0.01561 10.65307,5.50477c1.84978,8.5622 -6.44274,14.20501 -6.44274,14.20501c0,0 -2.81144,-4.49035 -6.9785,-8.87791z" fill="#ecec68" stroke="#0d0d00" stroke-width="1.75" stroke-linecap="butt"/><path d="M307.99557,113.241c-5.69661,-2.5635 -10.49163,-5.42655 -13.13505,-11.89723c-2.08926,-5.11419 -1.85513,-10.80292 -1.46639,-16.6843c0.38849,-5.87761 1.11268,-11.94741 4.75897,-18.47579c7.00911,-12.54918 21.48881,-12.65062 22.61273,-12.63931c1.12394,0.01132 15.72518,0.09072 22.73396,12.63931c3.64629,6.52837 4.37048,12.59819 4.75897,18.47579c0.38873,5.88138 0.62286,11.5701 -1.46639,16.6843c-2.64342,6.47066 -7.43844,9.33373 -13.13504,11.89723c-5.39641,2.42841 -11.39515,3.3438 -13.0226,3.29799c-1.52032,-0.04279 -7.24284,-0.86962 -12.63917,-3.29799z" fill="#ecec68" stroke="#0d0d00" stroke-width="1.75" stroke-linecap="butt"/><path d="M337.47459,107.18563l8.74186,-17.74207c0,0 1.33895,0.74202 2.33451,1.68205c1.22527,1.15694 2.19507,2.61381 2.71878,3.35639c0.93607,1.32725 0.60323,2.98194 0.60323,2.98194c0,0 0.82094,3.68701 -0.32842,5.43889c-0.29079,0.44323 -1.40102,-0.38788 -2.11626,0.17353c-0.98347,0.77194 -1.67813,2.9861 -2.62898,3.95188c-2.85844,2.90329 -4.92991,6.11192 -4.92991,6.11192z" fill="#ecec68" stroke="none" stroke-width="0" stroke-linecap="butt"/><path d="M299.95018,113.14015c0,0 -2.23815,-3.20863 -5.09658,-6.11192c-0.95086,-0.96578 -1.64553,-3.17994 -2.62898,-3.95188c-0.71524,-0.56141 -1.82546,0.26971 -2.11625,-0.17352c-1.14935,-1.7519 -0.32842,-5.4389 -0.32842,-5.4389c0,0 -0.33284,-1.65468 0.60323,-2.98194c0.52373,-0.74258 1.4935,-2.19944 2.71877,-3.35639c0.99555,-0.94003 2.33449,-1.68205 2.33449,-1.68205l8.74186,17.74207z" fill="#ecec68" stroke="none" stroke-width="0" stroke-linecap="butt"/><g stroke="#0d0d00" stroke-width="1" stroke-linecap="butt"><g fill="#c5c556"><path d="M303.59121,57.6549c0,0 2.1999,-3.43967 4.49334,-4.29272c2.29347,-0.85303 3.54807,-0.03856 3.81197,1.20361c0.26388,1.24217 0.00891,3.0026 -2.28453,3.85562c-2.29344,0.85303 -6.02078,-0.76652 -6.02078,-0.76652z"/><path d="M299.41157,56.64731c2.29345,-0.85304 5.8945,0.36971 5.8945,0.36971c0,0 -2.10792,3.45409 -4.40136,4.30714c-2.29348,0.85305 -3.64005,0.02414 -3.90395,-1.21805c-0.2639,-1.24219 0.11737,-2.60576 2.41081,-3.4588z"/></g><g fill="#c5c556"><path d="M304.29517,56.61364c0,0 3.42754,1.41797 3.83806,3.35026c0.41053,1.93229 -0.87709,3.09873 -2.35145,3.64712c-1.47436,0.54838 -3.06594,0.38287 -3.47645,-1.5494c-0.41051,-1.93228 1.98985,-5.44795 1.98985,-5.44795z"/><path d="M300.58008,54.67927c-0.41053,-1.93227 1.06108,-3.06988 2.53541,-3.61824c1.47436,-0.54838 3.17234,-0.4604 3.58286,1.47188c0.41052,1.93227 -2.09627,5.52549 -2.09627,5.52549c0,0 -3.61152,-1.44684 -4.02204,-3.37913z"/></g><path d="M305.00861,59.97166c-1.72776,0.64263 -3.37908,-0.01645 -3.68836,-1.47214c-0.30926,-1.45569 0.84068,-3.1567 2.56844,-3.79933c1.72777,-0.64265 3.37908,0.01646 3.68834,1.47214c0.30928,1.45569 -0.84067,3.15668 -2.56844,3.79931z" fill="#ffffd5"/></g><path d="M339.45969,89.08252c0,0.47517 -2.42468,1.56782 -8.74988,1.76005c-2.45304,0.07455 -6.65856,-0.39543 -9.55929,-0.39543c-2.0021,0 -7.98178,0.43498 -9.79138,0.39815c-7.57266,-0.15414 -9.48996,-1.23051 -9.48996,-1.76277c0,-0.61584 2.15376,-1.86195 11.57843,-1.92631c0.66747,-0.00456 7.34043,0.50483 8.02696,0.50483c1.30193,0 4.67929,-0.33275 5.90666,-0.31674c8.55851,0.11164 12.07846,1.16147 12.07846,1.73822z" fill="#c4c44a" stroke="none" stroke-width="0" stroke-linecap="butt"/><path d="M296.26759,88.72341c0.67719,-2.43194 4.70912,-3.43354 9.00552,-2.23715c4.29643,1.1964 7.23039,4.13771 6.55318,6.56964c-0.67719,2.43195 -5.10477,2.63807 -9.40119,1.44168c-4.29642,-1.19638 -6.83474,-3.34225 -6.15755,-5.77418z" fill="#a5a549" stroke="none" stroke-width="0" stroke-linecap="butt"/><path d="M308.19328,77.4837c6.92295,0.80439 8.98349,6.05735 8.98349,6.05735c0,0 -4.05,-3.1181 -9.11939,-3.57099c-5.42549,-0.48469 -9.63304,2.06607 -9.63304,2.06607c0,0 3.46958,-5.28437 9.76896,-4.55243z" fill="#0d0d00" stroke="none" stroke-width="0" stroke-linecap="butt"/><path d="M345.62143,88.72342c0.67719,2.43193 -1.86113,4.57781 -6.15755,5.77419c-4.29642,1.19639 -8.724,0.99027 -9.40119,-1.44168c-0.6772,-2.43193 2.25676,-5.37325 6.55318,-6.56965c4.2964,-1.19639 8.32833,-0.19479 9.00552,2.23716z" fill="#a5a549" stroke="none" stroke-width="0" stroke-linecap="butt"/><path d="M296.86816,87.70097c-0.22392,-2.5555 20.82502,-1.63755 20.5714,1.25505c-0.10669,1.65316 -4.57653,1.58809 -9.51489,1.44133c-5.19007,-0.15424 -10.86279,-0.48582 -11.05648,-2.69637z" fill="#0d0d00" stroke="#0d0d00" stroke-width="1" stroke-linecap="butt"/><g fill="#0d0d00" stroke="none" stroke-width="0" stroke-linecap="butt"><path d="M302.50082,85.79093l-3.89287,1.622l0.59609,-4.52351z"/><path d="M299.27178,87.3641l-1.08333,1.2509c-0.55139,-0.20622 -1.10021,-0.39726 -1.69644,-0.69071l0.00838,-2.32466z"/><path d="M300.15504,85.9l-2.82183,2.12541l0.42488,-3.77669z"/></g><path d="M344.90968,87.70103c-0.16178,1.84625 -3.91299,2.46311 -8.16874,2.87094c-5.68807,0.54509 -12.27746,0.32358 -12.40263,-1.61591c-0.26298,-2.99926 20.78808,-3.72792 20.5714,-1.25505z" fill="#0d0d00" stroke="#080d00" stroke-width="1" stroke-linecap="butt"/><path d="M317.46549,54.0795c0,0 2.71163,-2.94375 5.88686,-5.05868c2.78312,-1.85377 6.95657,-3.28975 7.08493,-3.43537c0.35924,-0.40747 -0.21588,-1.72306 -1.18342,-2.69804c-0.98301,-0.99052 -2.36171,-1.63738 -2.36171,-1.63738c0,0 5.40022,-3.33025 13.27454,0.24367c6.8381,3.1036 8.28309,8.4005 8.28309,8.4005c0,0 1.24854,-1.92618 1.58083,-3.41165c0.70563,-3.15466 0.38424,-5.26056 0.38424,-5.26056c0,0 5.49086,-0.03727 7.65901,10.6043c1.43484,7.04241 -0.29947,12.78699 -0.29947,12.78699c0,0 1.46128,-0.34304 2.31671,-0.83855c0.85541,-0.49549 2.48257,-1.94144 2.48257,-1.94144c0,0 0.22463,12.27246 -14.17296,16.34983c-13.64913,3.86541 -25.46746,-3.41444 -25.46746,-3.41444" fill="#ecec68" stroke="#0d0d00" stroke-width="1.75" stroke-linecap="round"/><path d="M343.95832,96.70932c0,0 0.35241,4.21503 -7.71835,4.39656c-6.96763,0.15672 -9.08803,-0.66017 -15.0044,-0.68366c-6.76718,-0.02687 -11.39306,1.08221 -17.40402,0.53646c-5.26407,-0.47793 -5.79208,-4.25111 -5.79208,-4.25111" fill="none" stroke="#0d0d00" stroke-width="1" stroke-linecap="round"/><g fill="#0d0d00" stroke="none" stroke-width="0" stroke-linecap="butt"><path d="M342.56657,82.88943l0.59608,4.52351l-3.89286,-1.62199z"/><path d="M345.27022,85.59963l0.00838,2.32466c-0.59623,0.29345 -1.14506,0.4845 -1.69644,0.69072l-1.08333,-1.2509z"/><path d="M344.01253,84.24872l0.42488,3.77669l-2.82183,-2.12542z"/></g></g></g></svg>