<svg version="1.1" xmlns="http://www.w3.org/2000/svg" xmlns:xlink="http://www.w3.org/1999/xlink" width="378" height="460.00001" viewBox="0,0,378,460.00001"><defs><linearGradient x1="320" y1="-67.5" x2="320" y2="269.5" gradientUnits="userSpaceOnUse" id="color-1"><stop offset="0" stop-color="#ffffd1"/><stop offset="1" stop-color="#f1f19c"/></linearGradient></defs><g transform="translate(-131,83.00001)"><g data-paper-data="{&quot;isPaintingLayer&quot;:true}" stroke-miterlimit="10" stroke-dasharray="" stroke-dashoffset="0" style="mix-blend-mode: normal"><path d="M145.24891,375c-6.76488,0 -12.24891,-5.33739 -12.24891,-11.9214v-432.15721c0,-6.58401 5.48402,-11.9214 12.24891,-11.9214h349.50219c6.76488,0 12.2489,5.33739 12.2489,11.9214v432.15721c0,6.584 -5.48402,11.9214 -12.2489,11.9214z" fill="#535311" fill-rule="nonzero" stroke="#212108" stroke-width="4" stroke-linecap="butt" stroke-linejoin="miter"/><path d="M160.66812,361.5c-6.16798,0 -11.16812,-4.94148 -11.16812,-11.03711v-406.92577c0,-6.09563 5.00014,-11.03711 11.16812,-11.03711h318.66376c6.16798,0 11.16812,4.94149 11.16812,11.03712v406.92577c0,6.09563 -5.00014,11.03711 -11.16812,11.03711z" fill="url(#color-1)" fill-rule="nonzero" stroke="#212108" stroke-width="4.5" stroke-linecap="butt" stroke-linejoin="miter"/><text transform="translate(160.5,-35.68135) scale(0.61033,0.61033)" font-size="40" xml:space="preserve" fill="#212108" fill-rule="nonzero" stroke="none" stroke-width="1" stroke-linecap="butt" stroke-linejoin="miter" stroke-miterlimit="10" stroke-dasharray="" stroke-dashoffset="0" font-family="&quot;Allan-Regular&quot;, Sans Serif" font-weight="normal" text-anchor="start" style="mix-blend-mode: normal"><tspan x="0" dy="0">name: Londog</tspan><tspan x="0" dy="46.150000000000006px">age: unknown</tspan><tspan x="0" dy="46.150000000000006px">occupation: McMustard mascot</tspan></text><g><path d="M432.53444,-56.08653h32.93116c6.43804,0 11.62097,5.18296 11.62097,11.62097v32.93116c0,6.43802 -5.18294,11.62098 -11.62097,11.62098h-32.93116c-6.43802,0 -11.62098,-5.18296 -11.62098,-11.62097v-32.93116c0,-6.43801 5.18296,-11.62097 11.62098,-11.62097z" fill="#a0a300" fill-rule="evenodd" stroke="#212108" stroke-width="2" stroke-linecap="round" stroke-linejoin="round"/><g fill="none" fill-rule="nonzero" stroke="none" stroke-width="1" stroke-linecap="butt" stroke-linejoin="miter" font-family="sans-serif" font-weight="normal" font-size="12" text-anchor="start"><g/><g data-paper-data="{&quot;index&quot;:null}"/></g></g><text transform="translate(160.5,48.66469) scale(0.44361,0.43254)" font-size="40" xml:space="preserve" fill="#212108" fill-rule="nonzero" stroke="none" stroke-width="1" stroke-linecap="butt" stroke-linejoin="miter" stroke-miterlimit="10" stroke-dasharray="" stroke-dashoffset="0" font-family="&quot;Allan-Regular&quot;, Sans Serif" font-weight="normal" text-anchor="start" style="mix-blend-mode: normal"><tspan x="0" dy="0">Description-</tspan><tspan x="0" dy="46.150000000000006px">Londog, whose real name literally nobody knows, was </tspan><tspan x="0" dy="46.150000000000006px">looking to make some quick and easy money, so after a </tspan><tspan x="0" dy="46.150000000000006px">swift search on Indeed, he found a job listing to work at </tspan><tspan x="0" dy="46.150000000000006px">McMustard. After walking in through the restaurant’s </tspan><tspan x="0" dy="46.150000000000006px">front doors, the one employee on duty promptly stuffed </tspan><tspan x="0" dy="46.150000000000006px">him in a hotdog costume and ordered him to dance outside </tspan><tspan x="0" dy="46.150000000000006px">the restaurant like a lunatic. Londog did not object to this, </tspan><tspan x="0" dy="46.150000000000006px">nor did he question how oddly understaffed the restaurant </tspan><tspan x="0" dy="46.150000000000006px">was, and got to dancing immediately. This is basically </tspan><tspan x="0" dy="46.150000000000006px">what he does all day now. How embarrassing. But hey, </tspan><tspan x="0" dy="46.150000000000006px">he loves it here, on breaks he gets to go out back and whip </tspan><tspan x="0" dy="46.150000000000006px">object show fans with a belt buckle! There might be </tspan><tspan x="0" dy="46.150000000000006px">something fishy going on behind the scenes, but he doesn’t </tspan><tspan x="0" dy="46.150000000000006px">care. Anything for the juicy paycheck! 3 dollars is 3 dollars </tspan><tspan x="0" dy="46.150000000000006px">just sayin.</tspan></text><path d="M160.16667,-30.16667v-1.66667h252.16667v1.66667z" fill="#212108" fill-rule="nonzero" stroke="none" stroke-width="0" stroke-linecap="butt" stroke-linejoin="miter"/><path d="M160.16667,-0.66667v-1.66667h252.16667v1.66667z" fill="#212108" fill-rule="nonzero" stroke="none" stroke-width="0" stroke-linecap="butt" stroke-linejoin="miter"/><path d="M160.16667,29.33333v-1.66667h252.16667v1.66667z" fill="#212108" fill-rule="nonzero" stroke="none" stroke-width="0" stroke-linecap="butt" stroke-linejoin="miter"/><g fill-rule="nonzero" stroke="none" stroke-width="0" stroke-linecap="butt" stroke-linejoin="miter"><path d="M473.27482,-14.15388c-3.70486,4.34314 -15.15191,0.66117 -25.56774,-8.2239c-10.41583,-8.88507 -15.85617,-19.60864 -12.15131,-23.95178c3.70486,-4.34314 9.41098,7.74297 20.26232,16.09057c10.59877,8.1533 21.16158,11.74196 17.45672,16.08511z" fill="#000000"/><path d="M451.62896,-28.86746c10.58435,9.18639 23.6681,10.93494 18.82253,16.51789c-4.84556,5.58295 -17.37274,0.83734 -27.95709,-8.34905c-10.58435,-9.18639 -16.13252,-20.06665 -11.28696,-25.6496c4.84556,-5.58295 9.83717,8.29437 20.42152,17.48076z" fill="#d9db56"/><path d="M447.85755,-24.57275c10.41583,8.88507 20.79569,12.29082 17.09083,16.63397c-3.70486,4.34314 -15.51781,1.39294 -25.93363,-7.49211c-10.41583,-8.88507 -15.49028,-20.34043 -11.78541,-24.68357c3.70486,-4.34314 10.21239,6.65664 20.62822,15.54173z" fill="#000000"/></g></g></g></svg>