<svg version="1.1" xmlns="http://www.w3.org/2000/svg" xmlns:xlink="http://www.w3.org/1999/xlink" width="378" height="460.00001" viewBox="0,0,378,460.00001"><defs><linearGradient x1="320" y1="-67.5" x2="320" y2="269.5" gradientUnits="userSpaceOnUse" id="color-1"><stop offset="0" stop-color="#ffffd1"/><stop offset="1" stop-color="#f1f19c"/></linearGradient></defs><g transform="translate(-131,83.00001)"><g stroke-miterlimit="10"><path d="M145.24891,375c-6.76488,0 -12.24891,-5.33739 -12.24891,-11.9214v-432.15721c0,-6.58401 5.48402,-11.9214 12.24891,-11.9214h349.50219c6.76488,0 12.2489,5.33739 12.2489,11.9214v432.15721c0,6.584 -5.48402,11.9214 -12.2489,11.9214z" fill="#535311" fill-rule="nonzero" stroke="#212108" stroke-width="4" stroke-linecap="butt" stroke-linejoin="miter"/><path d="M160.66812,361.5c-6.16798,0 -11.16812,-4.94148 -11.16812,-11.03711v-406.92577c0,-6.09563 5.00014,-11.03711 11.16812,-11.03711h318.66376c6.16798,0 11.16812,4.94149 11.16812,11.03712v406.92577c0,6.09563 -5.00014,11.03711 -11.16812,11.03711z" fill="url(#color-1)" fill-rule="nonzero" stroke="#212108" stroke-width="4.5" stroke-linecap="butt" stroke-linejoin="miter"/><text transform="translate(160.5,-35.68135) scale(0.61033,0.61033)" font-size="40" xml:space="preserve" fill="#212108" fill-rule="nonzero" stroke="none" stroke-width="1" stroke-linecap="butt" stroke-linejoin="miter" font-family="&quot;Allan-Regular&quot;, Sans Serif" font-weight="normal" text-anchor="start"><tspan x="0" dy="0">name: Betty Pear</tspan><tspan x="0" dy="46.150000000000006px">age: 33</tspan><tspan x="0" dy="46.150000000000006px">occupation: lackey</tspan></text><g><path d="M432.53444,-56.08653h32.93116c6.43804,0 11.62097,5.18296 11.62097,11.62097v32.93116c0,6.43802 -5.18294,11.62098 -11.62097,11.62098h-32.93116c-6.43802,0 -11.62098,-5.18296 -11.62098,-11.62097v-32.93116c0,-6.43801 5.18296,-11.62097 11.62098,-11.62097z" fill="#a0a300" fill-rule="evenodd" stroke="#212108" stroke-width="2" stroke-linecap="round" stroke-linejoin="round"/><g fill="none" fill-rule="nonzero" stroke="none" stroke-width="1" stroke-linecap="butt" stroke-linejoin="miter" font-family="sans-serif" font-weight="normal" font-size="12" text-anchor="start"><g/><g/></g></g><text transform="translate(161.5,53.00711) scale(0.51253,0.5291)" font-size="40" xml:space="preserve" fill="#212108" fill-rule="nonzero" stroke="none" stroke-width="1" stroke-linecap="butt" stroke-linejoin="miter" font-family="&quot;Allan-Regular&quot;, Sans Serif" font-weight="normal" text-anchor="start"><tspan x="0" dy="0">Description-</tspan><tspan x="0" dy="46.150000000000006px">Betty is an escort that ran into the MCS on a </tspan><tspan x="0" dy="46.150000000000006px">limb after she gave services to a one of their </tspan><tspan x="0" dy="46.150000000000006px">higher ups. She gave them such a chumky good </tspan><tspan x="0" dy="46.150000000000006px">time, a real 1000 ways to die if you know what I </tspan><tspan x="0" dy="46.150000000000006px">mean, that she ended up landing a job at the </tspan><tspan x="0" dy="46.150000000000006px">syndicate. Betty was assigned to the dirty work </tspan><tspan x="0" dy="46.150000000000006px">alongside her low rank brethren, but since she's </tspan><tspan x="0" dy="46.150000000000006px">uh... she loses her breath really fast. Betty is the </tspan><tspan x="0" dy="46.150000000000006px">least reliable person in the Beat Troupe, only able </tspan><tspan x="0" dy="46.150000000000006px">to drag one bag of money at a time. She's definitely </tspan><tspan x="0" dy="46.150000000000006px">not cut out for this, and should've just stayed the </tspan><tspan x="0" dy="46.150000000000006px">"Super Sucker".</tspan></text><path d="M160.16667,-30.16667v-1.66667h252.16667v1.66667z" fill="#212108" fill-rule="nonzero" stroke="none" stroke-width="0" stroke-linecap="butt" stroke-linejoin="miter"/><path d="M160.16667,-0.66667v-1.66667h252.16667v1.66667z" fill="#212108" fill-rule="nonzero" stroke="none" stroke-width="0" stroke-linecap="butt" stroke-linejoin="miter"/><path d="M160.16667,29.33333v-1.66667h252.16667v1.66667z" fill="#212108" fill-rule="nonzero" stroke="none" stroke-width="0" stroke-linecap="butt" stroke-linejoin="miter"/><g fill-rule="nonzero" stroke="none" stroke-width="0" stroke-linecap="butt" stroke-linejoin="miter"><path d="M451.57046,-40.74026l2.09106,-12.49476l2.42435,0.40572z" fill="#000000"/><g fill="#d9db56"><path d="M462.29448,-15.46765c-1.3608,8.13115 -9.51882,13.39549 -16.84357,12.16964c-7.32475,-1.22584 -13.15777,-8.97823 -11.79699,-17.10938c1.3608,-8.13115 10.25381,-16.42108 17.57856,-15.19525c7.32475,1.22584 12.42278,12.00383 11.062,20.13498z"/><path d="M459.09867,-31.03398c-1.01216,6.04796 -5.61876,10.31719 -10.28913,9.53557c-4.67037,-0.78161 -7.63594,-6.31808 -6.6238,-12.36604c1.01216,-6.04796 6.81615,-11.49271 10.51313,-10.87402c3.94032,0.65944 7.41195,7.6565 6.3998,13.70447z"/></g></g></g></g></svg>