<svg version="1.1" xmlns="http://www.w3.org/2000/svg" xmlns:xlink="http://www.w3.org/1999/xlink" width="364" height="107" viewBox="0,0,364,107"><defs><linearGradient x1="320" y1="128.5" x2="320" y2="232.00005" gradientUnits="userSpaceOnUse" id="color-1"><stop offset="0" stop-color="#68682e"/><stop offset="1" stop-color="#303015"/></linearGradient><linearGradient x1="205.00001" y1="184.68665" x2="205.00001" y2="224.51151" gradientUnits="userSpaceOnUse" id="color-2"><stop offset="0" stop-color="#000000" stop-opacity="0"/><stop offset="1" stop-color="#000000" stop-opacity="0.54118"/></linearGradient><linearGradient x1="205.00005" y1="136.43661" x2="205.00005" y2="213.01151" gradientUnits="userSpaceOnUse" id="color-3"><stop offset="0" stop-color="#1c1c00" stop-opacity="0.55294"/><stop offset="1" stop-color="#1c1c00" stop-opacity="0"/></linearGradient><linearGradient x1="205.50004" y1="225.26151" x2="205.50004" y2="148.68661" gradientUnits="userSpaceOnUse" id="color-4"><stop offset="0" stop-color="#1c1c00" stop-opacity="0.30196"/><stop offset="1" stop-color="#1c1c00" stop-opacity="0"/></linearGradient><linearGradient x1="467.15737" y1="146.61286" x2="467.15737" y2="214.22593" gradientTransform="translate(-227.32148,-140.0832) scale(0.85782,0.70992)" gradientUnits="userSpaceOnUse" id="color-5"><stop offset="0" stop-color="#ffffff"/><stop offset="1" stop-color="#fdff9d"/></linearGradient><linearGradient x1="178.26761" y1="159.90748" x2="221.17012" y2="166.8031" gradientUnits="userSpaceOnUse" id="color-6"><stop offset="0" stop-color="#ffffff"/><stop offset="1" stop-color="#ffffff" stop-opacity="0.24706"/></linearGradient><linearGradient x1="205.00001" y1="136.35118" x2="205.00001" y2="224.51151" gradientUnits="userSpaceOnUse" id="color-7"><stop offset="0" stop-color="#ffff94"/><stop offset="1" stop-color="#cccc48"/></linearGradient></defs><g transform="translate(-128.25,-126.75005)"><g stroke-miterlimit="10"><path d="M130,232.00005v-103.5h360.5v103.5z" fill="url(#color-1)" fill-rule="nonzero" stroke="#252510" stroke-width="3.5" stroke-linecap="butt" stroke-linejoin="miter"/><path d="M178.43044,136.35118h53.13923c10.38871,0 18.75214,8.13434 18.75214,18.23841v51.68346c0,10.10407 -8.36346,18.23841 -18.75214,18.23841h-53.13923c-10.38868,0 -18.75217,-8.13434 -18.75217,-18.23841v-51.68346c0,-10.10407 8.36349,-18.23841 18.75217,-18.23841z" fill="#6e6e30" fill-rule="evenodd" stroke="none" stroke-width="4.43922" stroke-linecap="round" stroke-linejoin="round"/><path d="M250.32181,206.27311c0,10.10407 -8.36346,18.23841 -18.75214,18.23841h-53.13923c-10.38868,0 -18.75217,-8.13434 -18.75217,-18.23841v-21.58645c18.06815,0.09223 37.35897,0.267 55.17088,0.26802c11.82421,0.00067 23.64844,-0.01273 35.47267,-0.02123z" fill="url(#color-2)" fill-rule="nonzero" stroke="none" stroke-width="4.43922" stroke-linecap="butt" stroke-linejoin="miter"/><path d="M178.08754,137.11353c0,0 -8.05558,7.54324 -8.33307,16.46965c-0.39756,12.78921 -0.72638,28.41772 -4.23301,28.76861c-3.3171,0.33192 -3.1024,-13.4702 -3.68173,-25.86175c-0.15377,-3.28895 -0.41765,-6.47361 -0.70454,-9.27859c1.42204,-1.11792 2.41833,-2.75301 2.70544,-4.62186c1.43487,-0.64268 2.62425,-1.73534 3.38863,-3.09846c1.72237,-0.26413 3.24631,-1.1306 4.35002,-2.37761z" fill="#ffff94" fill-rule="nonzero" stroke="none" stroke-width="0" stroke-linecap="butt" stroke-linejoin="miter"/><path d="M173.87431,176.14519c0,0 6.70989,25.51523 0.85457,25.90687c-5.94419,0.39758 -0.85457,-25.90687 -0.85457,-25.90687z" fill="#ffff94" fill-rule="nonzero" stroke="none" stroke-width="0" stroke-linecap="butt" stroke-linejoin="miter"/><path d="M168.40225,143.12106l33.94565,-0.53584c0,0 -5.57733,5.56766 -7.78635,11.82991c-2.27466,6.44833 -1.28589,13.60084 -8.63226,13.89521c-8.41127,0.17652 -7.96475,-8.31966 -10.28204,-15.29332c-1.84531,-5.55325 -7.24499,-9.89597 -7.24499,-9.89597z" fill="#ffff94" fill-rule="nonzero" stroke="none" stroke-width="0" stroke-linecap="butt" stroke-linejoin="miter"/><path d="M242.09982,151.4589c-3.25619,1.37412 -8.07183,-3.02822 -14.07533,-3.36357c-2.58811,-0.14457 -5.24849,3.73357 -8.34538,3.75489c-4.83421,0.03328 -5.6472,-3.46288 -11.48056,-3.42075c-7.79407,0.05629 -4.00009,-4.18622 -9.49016,-4.49126c-0.42824,-0.02379 -24.597,6.85293 -25.01175,6.84039c-2.99325,-0.09046 -1.94054,3.2349 -1.75522,6.73721c0.20318,3.8398 -0.37096,7.86283 -2.10977,7.12443c-0.81208,-0.34486 -0.36059,-2.54418 -0.82566,-4.66289c-0.23623,-1.07622 -1.35855,-2.02338 -1.67223,-2.91793c-1.39706,-3.98409 -3.03493,-9.07612 -4.18643,-12.30446c0.33771,-0.66924 3.31758,-3.90073 4.08196,-5.26384c0.8436,-0.12937 3.49582,-1.8574 5.99779,-2.54651c2.6063,-0.71785 4.58168,-0.60551 7.41855,-0.70534c6.76077,-0.23791 16.23925,-0.00124 22.09277,-0.00124c6.53791,0 18.3667,-0.42877 26.08862,-0.1798c5.45191,0.17578 7.76055,0.63839 7.76055,0.63839c0.86962,0.60266 2.39767,1.43803 3.48551,1.61591c0.53296,0.36334 1.11657,0.65789 1.73805,0.87089c0.86764,1.2608 2.12147,2.23522 3.59075,2.75252c0.30513,0.49566 0.66788,0.95206 1.07891,1.35987c0.34515,0.98806 0.89686,1.87919 1.60337,2.62165c0.117,0.33569 0.25784,0.6602 0.42048,0.97152c-1.31449,1.66683 -3.33672,3.27518 -6.40482,4.56993z" fill="#ffff94" fill-rule="nonzero" stroke="none" stroke-width="0" stroke-linecap="butt" stroke-linejoin="miter"/><path d="M233.3039,152.76146c0,0 6.47815,19.04953 0.82506,19.34192c-5.7389,0.29684 -0.82506,-19.34192 -0.82506,-19.34192z" fill="#ffff94" fill-rule="nonzero" stroke="none" stroke-width="0" stroke-linecap="butt" stroke-linejoin="miter"/><path d="M250.19977,175.48803c0,0 -6.46264,-3.98442 -6.06614,-10.95027c0.34262,-6.01924 2.06458,-13.45753 3.5806,-19.03993c0.11797,0.1446 0.24138,0.28459 0.36991,0.41966c0.29857,0.85662 0.75235,1.6405 1.32767,2.31794c0.14332,0.75783 0.40384,1.47423 0.76201,2.12962z" fill="#ffff94" fill-rule="nonzero" stroke="none" stroke-width="0" stroke-linecap="butt" stroke-linejoin="miter"/><path d="M250.32182,212.76473c-11.82423,-0.0085 -72.5754,0.15456 -90.64355,0.24679v-58.33645c0,-10.10407 8.36349,-18.23841 18.75217,-18.23841h53.13923c10.38868,0 18.75214,8.13434 18.75214,18.23841z" fill="url(#color-3)" fill-rule="nonzero" stroke="none" stroke-width="4.43922" stroke-linecap="butt" stroke-linejoin="miter"/><path d="M250.82181,207.02311c0,10.10407 -8.36346,18.23841 -18.75214,18.23841h-53.13923c-10.38868,0 -18.75217,-8.13434 -18.75217,-18.23841v-58.33645c18.06815,0.09223 78.81932,0.25529 90.64355,0.24679z" fill="url(#color-4)" fill-rule="nonzero" stroke="none" stroke-width="4.43922" stroke-linecap="butt" stroke-linejoin="miter"/><text transform="translate(265.00002,197.3212) scale(1.16575,1.4086)" font-size="40" xml:space="preserve" fill="url(#color-5)" fill-rule="nonzero" stroke="none" stroke-width="1" stroke-linecap="butt" stroke-linejoin="miter" font-family="&quot;Allan-Bold&quot;, Sans Serif" font-weight="normal" text-anchor="start"><tspan x="0" dy="0">Zwizzle who?</tspan></text><g fill-rule="nonzero" stroke-width="1.2" stroke-linejoin="miter"><g><g fill="none" stroke="#1c1c00" stroke-linecap="round"><path d="M193.02801,170.83626l46.44894,21.35536"/><path d="M189.86802,180.4907l40.73215,18.72703"/><path d="M190.87537,189.57157l32.87154,15.11302"/><path d="M202.30749,163.22928l40.91081,18.80917"/><path d="M213.28263,157.93395l29.47722,13.55246"/><path d="M201.98777,203.10679l29.6013,-42.69296"/><path d="M235.81832,164.84783l-27.6883,39.93392"/><path d="M214.34044,205.33901l25.47322,-36.73918"/><path d="M243.46153,173.53253l-23.0568,33.25405"/><path d="M197.5897,199.93572l28.49378,-41.09562"/><path d="M193.63978,195.43867l26.17801,-37.75569"/><path d="M211.493,160.01997l-21.44584,30.93063"/></g><path d="M202.0468,203.41632c1.94366,0.89361 9.17482,2.48999 15.66672,1.75911c8.59946,-0.96813 16.64211,-4.52326 16.64211,-4.52326c0,0 -27.81959,18.17246 -41.32151,22.08413c-0.50794,0.14715 -0.99755,0.62395 -1.49589,1.2823c-3.26068,-0.39163 -6.6535,-0.24633 -9.55762,0.28968c1.36303,-2.08048 3.06416,-4.01725 2.85003,-4.86159c-2.65344,-10.46322 1.86783,-38.40732 1.86783,-38.40732c0,0 10.00219,19.91901 15.34833,22.37696zM189.14936,220.65868c3.01075,1.38422 22.12888,-10.50856 22.12888,-10.50856c0,0 -6.6273,1.71851 -14.1846,-2.30839c-7.51347,-4.00353 -8.50393,-8.12287 -8.50393,-8.12287c0,0 -2.62975,19.47347 0.55962,20.93983z" fill="#ffffb0" stroke="#1c1c00" stroke-linecap="butt"/><path d="M191.4315,169.91075c9.34192,-13.47354 28.19282,-19.21091 42.10467,-12.81478c13.91185,6.39611 17.6165,22.50363 8.27459,35.97715c-9.34192,13.47354 -28.1928,19.21091 -42.10464,12.81478c-13.91184,-6.39611 -17.61651,-22.50361 -8.27461,-35.97715zM202.74812,201.91611c10.70141,4.9201 28.37546,-0.33235 35.56156,-10.69661c7.1861,-10.36426 3.5794,-25.40071 -7.12201,-30.32078c-10.70141,-4.9201 -28.27478,0.18713 -35.46086,10.5514c-7.18608,10.36426 -3.6801,25.54593 7.02131,30.46602z" fill="#ffffb0" stroke="#1c1c00" stroke-linecap="butt"/><path d="M188.51949,176.97533c0,0 1.11688,20.64711 13.82397,26.4308c10.17578,4.63154 29.07486,-1.53083 29.07486,-1.53083c0,0 -6.0712,4.21236 -8.13094,5.38759c-1.94286,1.10852 -5.69666,3.13382 -5.69666,3.13382c0,0 -0.62574,-0.64794 -3.05759,-0.94173c-1.58534,-0.19153 -3.79886,-0.11758 -5.92825,-0.35636c-4.1166,-0.46165 -8.42778,-1.35451 -10.84635,-2.42363c-2.94459,-1.3017 -7.05364,-5.98646 -9.67249,-8.54691c-2.00897,-1.96418 -2.35259,-1.91547 -2.35259,-1.91547c0,0 0.53844,-6.59363 0.94438,-9.80396c0.4222,-3.33877 1.84162,-9.43332 1.84162,-9.43332z" fill="#ffffb0" stroke="none" stroke-linecap="butt"/><g fill="#333315" stroke="#000000" stroke-linecap="butt"><path d=""/><path d=""/></g></g><path d="M191.96213,145.51584c7.73602,1.84229 19.10278,8.80101 25.2813,20.65028c4.56942,8.76332 0.84046,16.764 0.84046,16.764c0,0 -0.01999,-8.63574 -9.27358,-11.76873c-14.03063,-4.75035 -15.71905,1.62859 -22.5379,0.00472c-13.56772,-3.23106 -7.87799,-28.88133 5.68973,-25.65027z" fill="url(#color-6)" stroke="none" stroke-linecap="butt"/><g stroke="none" stroke-linecap="butt"><path d="M164.86197,161.00213c-0.30907,-1.45991 -0.62489,-2.89547 -0.52902,-4.22234c0.14784,-2.0453 0.964,-3.91305 1.88082,-5.84159c0.93464,-1.96605 1.85859,-4.07674 3.45668,-5.65404c1.03204,-1.01862 2.42733,-1.67358 3.78997,-2.33543c1.37838,-0.66943 2.72671,-1.34167 4.22535,-1.65895c2.75119,-0.58247 4.89117,-0.10919 7.45149,0.60836c1.86255,0.52201 4.26286,1.00638 5.74302,2.12286c1.02158,0.77061 1.4896,1.87178 2.2314,2.89432c0.90228,1.24373 2.02471,2.46134 2.69629,3.96952c0.46785,1.05064 1.34233,2.05825 1.59015,3.22871c0.42833,2.02321 0.15756,4.38152 -0.07162,6.47509c-0.24937,2.27829 -0.52053,4.27773 -1.62472,6.08622c-1.09602,1.79514 -2.96705,2.74211 -4.61257,4.03477c-1.93825,1.52257 -3.94068,2.57124 -6.51487,3.11622c-2.76534,0.5855 -5.23321,0.29529 -7.74949,-0.43357c-2.41307,-0.69897 -4.8935,-1.78801 -6.67768,-3.50841c-1.66065,-1.60129 -2.73913,-3.73727 -3.69925,-5.9695c-0.4275,-0.99393 -1.35323,-1.81325 -1.58593,-2.9123z" fill="#fcff63"/><path d="M172.3676,143.48545c1.66417,1.57693 3.15027,3.21458 3.66582,5.60311c0.91615,4.10915 -1.17073,8.40289 -3.17403,11.81535c-1.27892,2.17974 -3.16972,4.0699 -5.46827,5.05038c-0.28451,-0.56194 -0.55074,-1.14006 -0.80723,-1.72631c1.25793,-1.16712 2.44409,-2.43602 3.35799,-3.81835c1.99515,-2.31806 3.56645,-6.59544 2.94894,-9.65508c-0.48521,-2.19809 -0.94725,-4.44695 -2.41193,-6.15194c0.58086,-0.42368 1.226,-0.7815 1.88871,-1.11718z" fill="#1c1c00"/><path d="M193.11169,146.91536c0.30755,0.42396 0.6407,0.84485 0.97285,1.27527c-1.58541,1.46604 -2.18303,4.23156 -3.12134,5.97424c-0.90204,3.48699 -1.45693,5.75124 0.08724,9.15657c0.99924,1.69984 1.96518,3.48662 3.07859,5.13434c-0.82993,0.7056 -1.77078,1.30087 -2.66826,1.96996c-1.43042,-2.65659 -2.86081,-5.31317 -4.2912,-7.96975c-1.8187,-3.37779 -0.24234,-7.78995 1.62473,-10.78516c1.02417,-1.6483 2.39113,-3.73708 4.13588,-5.01433c0.05888,0.0867 0.11924,0.17308 0.18149,0.2589z" fill="#1c1c00"/></g></g><path d="M178.43044,136.35118h53.13923c10.38871,0 18.75214,8.13434 18.75214,18.23841v51.68346c0,10.10407 -8.36346,18.23841 -18.75214,18.23841h-53.13923c-10.38868,0 -18.75217,-8.13434 -18.75217,-18.23841v-51.68346c0,-10.10407 8.36349,-18.23841 18.75217,-18.23841z" fill="none" fill-rule="evenodd" stroke="url(#color-7)" stroke-width="2.5" stroke-linecap="round" stroke-linejoin="round"/></g></g></svg>