<svg version="1.1" xmlns="http://www.w3.org/2000/svg" xmlns:xlink="http://www.w3.org/1999/xlink" width="131.15373" height="45.83424" viewBox="0,0,131.15373,45.83424"><defs><linearGradient x1="150.12265" y1="63.53391" x2="150.12265" y2="83.64255" gradientTransform="translate(-247.49038,-187.65932) scale(2.80411,2.38703)" gradientUnits="userSpaceOnUse" id="color-1"><stop offset="0" stop-color="#ffffff"/><stop offset="1" stop-color="#fdff9d"/></linearGradient><linearGradient x1="140.37672" y1="83.21318" x2="140.37672" y2="100.25477" gradientTransform="translate(-291.01979,-270.38788) scale(3.30874,2.81666)" gradientUnits="userSpaceOnUse" id="color-2"><stop offset="0" stop-color="#ffffff"/><stop offset="1" stop-color="#fdff9d"/></linearGradient><linearGradient x1="60.58967" y1="83.62797" x2="60.58967" y2="103.20346" gradientUnits="userSpaceOnUse" id="color-3"><stop offset="0" stop-color="#000000" stop-opacity="0"/><stop offset="1" stop-color="#000000" stop-opacity="0.54118"/></linearGradient><linearGradient x1="60.30293" y1="59.70568" x2="60.30293" y2="97.50951" gradientUnits="userSpaceOnUse" id="color-4"><stop offset="0" stop-color="#1c1c00" stop-opacity="0.55294"/><stop offset="1" stop-color="#1c1c00" stop-opacity="0"/></linearGradient><linearGradient x1="60.58967" y1="83.87797" x2="60.58967" y2="103.45346" gradientUnits="userSpaceOnUse" id="color-5"><stop offset="0" stop-color="#000000" stop-opacity="0"/><stop offset="1" stop-color="#000000" stop-opacity="0.54118"/></linearGradient><linearGradient x1="60.58967" y1="59.8692" x2="60.58967" y2="103.20346" gradientUnits="userSpaceOnUse" id="color-6"><stop offset="0" stop-color="#ffff94"/><stop offset="1" stop-color="#cccc48"/></linearGradient></defs><g transform="translate(-23.54324,-58.6192)"><g stroke-miterlimit="10"><g><text transform="translate(88.26002,78.61612) scale(0.35662,0.41893)" font-size="40" xml:space="preserve" fill="url(#color-1)" fill-rule="nonzero" stroke="none" stroke-width="1" stroke-linecap="butt" stroke-linejoin="miter" font-family="&quot;Allan-Bold&quot;, Sans Serif" font-weight="normal" text-anchor="start"><tspan x="0" dy="0">The Boss</tspan></text><path d="M23.54324,80.91744c0,-2.02211 1.63924,-3.66135 3.66135,-3.66135c2.02211,0 3.66136,1.63924 3.66136,3.66135c0,2.02211 -1.63924,3.66136 -3.66136,3.66136c-2.02211,0 -3.66135,-1.63925 -3.66135,-3.66136z" fill="#feffce" fill-rule="nonzero" stroke="none" stroke-width="0" stroke-linecap="butt" stroke-linejoin="miter"/><text transform="translate(87.95491,95.99581) scale(0.30223,0.35503)" font-size="40" xml:space="preserve" fill="url(#color-2)" fill-rule="nonzero" stroke="none" stroke-width="1" stroke-linecap="butt" stroke-linejoin="miter" font-family="&quot;Allan-Regular&quot;, Sans Serif" font-weight="normal" text-anchor="start"><tspan x="0" dy="0">summon the boss</tspan></text><g><path d="M47.52967,59.8692h26.12002c5.10646,0 9.21741,3.99835 9.21741,8.96489v25.40446c0,4.96655 -4.11096,8.96489 -9.21741,8.96489h-26.12002c-5.10644,0 -9.21743,-3.99836 -9.21743,-8.96489v-25.40445c0,-4.96655 4.11099,-8.96489 9.21743,-8.96489z" fill="#6e6e30" fill-rule="evenodd" stroke="none" stroke-width="4.43922" stroke-linecap="round" stroke-linejoin="round"/><path d="M82.86712,94.23857c0,4.96655 -4.11097,8.96489 -9.21742,8.96489h-26.12002c-5.10644,0 -9.21742,-3.99835 -9.21742,-8.96489v-10.61059c8.88121,0.04533 18.3634,0.13124 27.11866,0.13175c5.81207,0.00033 11.62414,-0.00626 17.43622,-0.01044z" fill="url(#color-3)" fill-rule="nonzero" stroke="none" stroke-width="4.43922" stroke-linecap="butt" stroke-linejoin="miter"/><path d="M47.36113,60.24393c0,0 -3.95964,3.70779 -4.09603,8.09547c-0.19541,6.28641 -0.35704,13.96842 -2.08069,14.1409c-1.63048,0.16315 -1.52495,-6.62113 -1.80971,-12.71206c-0.07558,-1.61665 -0.20529,-3.18203 -0.34631,-4.56079c0.69899,-0.5495 1.1887,-1.35322 1.32983,-2.27183c0.70529,-0.3159 1.28992,-0.85299 1.66564,-1.52301c0.84661,-0.12983 1.59569,-0.55574 2.1382,-1.16868z" fill="#ffff94" fill-rule="nonzero" stroke="none" stroke-width="0" stroke-linecap="butt" stroke-linejoin="miter"/><path d="M45.29016,79.42951c0,0 3.29817,12.54174 0.42005,12.73425c-2.9218,0.19543 -0.42005,-12.73425 -0.42005,-12.73425z" fill="#ffff94" fill-rule="nonzero" stroke="none" stroke-width="0" stroke-linecap="butt" stroke-linejoin="miter"/><path d="M42.60042,63.19687l16.68562,-0.26339c0,0 -2.74147,2.73672 -3.82729,5.81487c-1.11809,3.16961 -0.63207,6.68534 -4.2431,6.83004c-4.13447,0.08676 -3.91499,-4.08944 -5.05403,-7.51727c-0.90704,-2.72964 -3.56119,-4.86426 -3.56119,-4.86426z" fill="#ffff94" fill-rule="nonzero" stroke="none" stroke-width="0" stroke-linecap="butt" stroke-linejoin="miter"/><path d="M78.82568,67.29525c-1.60054,0.67543 -3.96763,-1.48848 -6.91859,-1.65333c-1.27215,-0.07106 -2.57984,1.8352 -4.10209,1.84568c-2.37621,0.01636 -2.77581,-1.70215 -5.64315,-1.68143c-3.83109,0.02767 -1.9662,-2.05769 -4.66479,-2.20763c-0.2105,-0.0117 -12.09039,3.36848 -12.29426,3.36232c-1.47129,-0.04447 -0.95386,1.59008 -0.86276,3.3116c0.09987,1.88741 -0.18234,3.86489 -1.03703,3.50194c-0.39917,-0.16951 -0.17725,-1.25056 -0.40584,-2.29199c-0.11612,-0.529 -0.66779,-0.99457 -0.82196,-1.43428c-0.68671,-1.95834 -1.49179,-4.46127 -2.0578,-6.04812c0.166,-0.32895 1.63072,-1.91736 2.00645,-2.58738c0.41466,-0.06359 1.71834,-0.91299 2.94815,-1.25171c1.2811,-0.35286 2.25208,-0.29763 3.6465,-0.34671c3.32318,-0.11695 7.98224,-0.00061 10.85947,-0.00061c3.21364,0 9.02795,-0.21076 12.82358,-0.08838c2.67982,0.0864 3.81462,0.3138 3.81462,0.3138c0.42745,0.29623 1.17856,0.70685 1.71327,0.79429c0.26197,0.17859 0.54883,0.32338 0.85432,0.42807c0.42648,0.61973 1.04279,1.0987 1.76499,1.35297c0.14999,0.24363 0.32828,0.46797 0.53033,0.66842c0.16966,0.48567 0.44085,0.92369 0.78812,1.28864c0.05751,0.16501 0.12674,0.32452 0.20668,0.47754c-0.64613,0.81931 -1.64014,1.60988 -3.14822,2.2463z" fill="#ffff94" fill-rule="nonzero" stroke="none" stroke-width="0" stroke-linecap="butt" stroke-linejoin="miter"/><path d="M74.50214,67.93551c0,0 3.18427,9.3636 0.40555,9.50731c-2.8209,0.1459 -0.40555,-9.50731 -0.40555,-9.50731z" fill="#ffff94" fill-rule="nonzero" stroke="none" stroke-width="0" stroke-linecap="butt" stroke-linejoin="miter"/><path d="M82.80713,79.10649c0,0 -3.17665,-1.95851 -2.98175,-5.38249c0.16841,-2.9587 1.01483,-6.6149 1.76,-9.35887c0.05799,0.07107 0.11865,0.13989 0.18183,0.20628c0.14675,0.42106 0.3698,0.80636 0.6526,1.13935c0.07045,0.37251 0.1985,0.72464 0.37456,1.04679z" fill="#ffff94" fill-rule="nonzero" stroke="none" stroke-width="0" stroke-linecap="butt" stroke-linejoin="miter"/><path d="M82.67757,97.38766c-5.83743,-0.00419 -35.82934,0.0763 -44.7493,0.12184v-28.79979c0,-4.98822 4.12893,-9.00402 9.25766,-9.00402h26.234c5.12873,0 9.25764,4.0158 9.25764,9.00402z" fill="url(#color-4)" fill-rule="nonzero" stroke="none" stroke-width="4.43922" stroke-linecap="butt" stroke-linejoin="miter"/><path d="M82.86712,94.48857c0,4.96655 -4.11097,8.96489 -9.21742,8.96489h-26.12002c-5.10644,0 -9.21742,-3.99835 -9.21742,-8.96489v-10.61059c8.88121,0.04533 18.3634,0.13124 27.11866,0.13175c5.81207,0.00033 11.62414,-0.00626 17.43622,-0.01044z" fill="url(#color-5)" fill-rule="nonzero" stroke="none" stroke-width="4.43922" stroke-linecap="butt" stroke-linejoin="miter"/><path d="M47.52967,59.8692h26.12002c5.10646,0 9.21741,3.99835 9.21741,8.96489v25.40446c0,4.96655 -4.11096,8.96489 -9.21741,8.96489h-26.12002c-5.10644,0 -9.21743,-3.99836 -9.21743,-8.96489v-25.40445c0,-4.96655 4.11099,-8.96489 9.21743,-8.96489z" fill="none" fill-rule="evenodd" stroke="url(#color-6)" stroke-width="2.5" stroke-linecap="round" stroke-linejoin="round"/></g><g fill-rule="nonzero" stroke-width="2" stroke-linecap="butt" stroke-linejoin="miter"><g stroke="#1c1c00"><g fill="#ecec68"><path d="M62.66296,94.5148c-14.32191,2.35698 -19.27767,-5.95826 -19.27767,-5.95826c0,0 2.03908,-0.85454 3.19564,-3.35776c2.55834,-5.53716 2.90497,-14.59826 11.37981,-16.0604c8.85161,-1.52713 11.87974,6.28041 16.3139,10.94637c1.78179,1.86483 4.47127,2.79366 4.47127,2.79366c0,0 -1.50397,9.23711 -16.08295,11.63639z"/></g><g fill="#ecec68"><path d="M48.68804,79.58455c0,0 -0.50216,-0.05673 -1.3734,-0.08354c-1.18413,-0.03643 -2.9411,-0.17006 -4.03414,-1.44679c-1.99039,-2.3249 -1.10509,-4.45568 -0.47885,-5.40602c0.65595,-0.99541 2.36531,-2.21634 4.43041,-1.80525c1.64405,0.32727 2.34416,1.5123 2.76519,2.38868c0.30712,0.63929 0.53391,1.07826 0.53391,1.07826z"/><path d="M45.08474,75.87762c-0.1963,-1.17856 0.59999,-2.2931 1.77855,-2.48941c1.17856,-0.1963 2.29311,0.59999 2.48941,1.77855c0.1963,1.17856 -0.59999,2.29311 -1.77855,2.48941c-1.17856,0.1963 -2.2931,-0.59999 -2.48941,-1.77856z"/></g><g fill="#ecec68"><path d="M67.15263,71.54148c0,0 0.07227,-0.48878 0.1556,-1.19311c0.11425,-0.96553 0.39248,-2.31351 1.84169,-3.15598c1.82039,-1.05824 3.8332,-0.45725 4.77637,0.27181c0.90046,0.69605 2.42859,2.42487 1.2992,5.26939c-0.62021,1.5621 -2.23904,2.25797 -3.34742,2.67624c-0.81553,0.30775 -1.27219,0.52418 -1.27219,0.52418z"/><path d="M71.03464,73.74868c-1.17856,0.1963 -2.2931,-0.59999 -2.48941,-1.77855c-0.1963,-1.17856 0.59999,-2.29311 1.77855,-2.48941c1.17856,-0.1963 2.29311,0.59999 2.48941,1.77855c0.1963,1.17856 -0.59999,2.29311 -1.77855,2.48941z"/></g><g fill="#1c1c00"><path d="M55.29859,83.25148c0.44167,2.65177 -0.40895,5.00277 -1.8999,5.2511c-1.49095,0.24833 -3.05766,-1.70005 -3.49933,-4.35182c-0.44167,-2.65177 0.40895,-5.00277 1.89991,-5.25109c1.49095,-0.24833 3.05766,1.70005 3.49932,4.35182z"/><path d="M52.50878,85.82476c0.06528,0.39191 -1.22904,0.80717 -1.22904,0.80717c0,0 -0.38332,-0.08458 -0.88499,-0.19409c-0.65341,-0.14263 -1.46819,-0.35618 -1.49567,-0.77287c-0.03203,-0.48592 0.74226,-0.55207 1.34331,-0.59026c0.44771,-0.02843 0.76498,-0.07799 0.76498,-0.07799c0,0 1.43611,0.43612 1.50138,0.82804z"/></g><g fill="#1c1c00"><path d="M67.22918,76.45655c1.49095,-0.24833 3.05767,1.70004 3.49934,4.35181c0.44167,2.65177 -0.40895,5.00277 -1.8999,5.25109c-1.49095,0.24833 -3.05766,-1.70004 -3.49933,-4.35181c-0.44167,-2.65177 0.40894,-5.00277 1.8999,-5.2511z"/><path d="M69.95452,81.96781c0,0 0.3162,-0.05598 0.74897,-0.17418c0.58099,-0.1587 1.33492,-0.34708 1.46211,0.12299c0.10907,0.4031 -0.5925,0.8692 -1.16441,1.21592c-0.43909,0.26619 -0.77431,0.47046 -0.77431,0.47046c0,0 -1.35903,0.02667 -1.4243,-0.36523c-0.06528,-0.39191 1.15195,-1.26995 1.15195,-1.26995z"/></g></g><g stroke="none"><g fill="#ecec68"><path d="M62.66296,94.5148c-14.32191,2.35698 -19.27768,-5.95826 -19.27768,-5.95826c0,0 2.03908,-0.85454 3.19564,-3.35775c2.55834,-5.53716 2.90497,-14.59826 11.37981,-16.0604c8.85161,-1.52713 11.87974,6.28041 16.3139,10.94637c1.78179,1.86483 4.47127,2.79366 4.47127,2.79366c0,0 -1.50397,9.2371 -16.08295,11.63639z"/></g><g fill="#ecec68"><path d="M51.09307,74.49718l-2.40504,5.08736c0,0 -0.50216,-0.05673 -1.3734,-0.08354c-1.18413,-0.03643 -2.9411,-0.17006 -4.03414,-1.44679c-1.99039,-2.3249 -1.10509,-4.45568 -0.47885,-5.40602c0.65595,-0.99541 2.36531,-2.21634 4.43041,-1.80525c1.64405,0.32727 2.34416,1.5123 2.76519,2.38869c0.30712,0.63929 0.53391,1.07826 0.53391,1.07826z"/><path d="M45.08474,75.87762c-0.1963,-1.17856 0.59999,-2.2931 1.77855,-2.48941c1.17856,-0.1963 2.29311,0.59999 2.48941,1.77855c0.1963,1.17856 -0.59999,2.29311 -1.77855,2.48941c-1.17856,0.1963 -2.2931,-0.59999 -2.48941,-1.77856z"/></g><g fill="#ecec68"><path d="M66.87168,71.72877c0,0 0.35322,-0.67609 0.43655,-1.38042c0.11425,-0.96553 0.39248,-2.31351 1.84169,-3.15598c1.82039,-1.05824 3.83321,-0.45725 4.77637,0.27181c0.90046,0.69605 2.42859,2.42487 1.2992,5.26938c-0.62021,1.5621 -2.23904,2.25797 -3.34742,2.67624c-0.81553,0.30775 -1.27219,0.52418 -1.27219,0.52418z"/><path d="M71.03464,73.74868c-1.17856,0.1963 -2.2931,-0.59999 -2.48941,-1.77855c-0.1963,-1.17856 0.59999,-2.29311 1.77855,-2.48941c1.17856,-0.1963 2.29311,0.59999 2.48941,1.77855c0.1963,1.17856 -0.59999,2.29311 -1.77855,2.48941z"/></g><path d="M55.90747,69.53519c0,0 1.42962,-0.35548 2.08642,-0.45206c0.69512,-0.10221 1.97584,-0.14526 1.97584,-0.14526c0,0 0.38552,2.82573 0.21877,5.37735c-0.1259,1.92664 -0.49613,3.66617 -0.49613,3.66617c0,0 -1.12095,-1.26805 -1.97747,-3.24563c-0.64642,-1.4925 -1.80745,-5.20057 -1.80745,-5.20057z" fill="#1c1c00"/><path d="M54.78199,75.86618c0,0 0.88247,-2.56574 3.92113,-3.11051c3.11587,-0.55861 4.56337,1.69736 4.56337,1.69736z" fill="#1c1c00"/><path d="M53.5932,73.01224c0,0 0.98819,-2.74189 4.52512,-3.36964c3.62678,-0.64369 5.34775,1.72526 5.34775,1.72526z" fill="#1c1c00"/><g fill="#1c1c00"><path d="M55.2986,83.25148c0.44167,2.65177 -0.40895,5.00277 -1.8999,5.2511c-1.49095,0.24833 -3.05766,-1.70005 -3.49933,-4.35182c-0.44167,-2.65177 0.40895,-5.00277 1.89991,-5.25109c1.49095,-0.24833 3.05766,1.70005 3.49933,4.35182z"/><path d="M52.50878,85.82477c0.06528,0.39191 -1.22903,0.80717 -1.22903,0.80717c0,0 -0.38332,-0.08458 -0.88499,-0.19409c-0.65341,-0.14263 -1.46819,-0.35618 -1.49567,-0.77287c-0.03203,-0.48592 0.74226,-0.55207 1.34331,-0.59026c0.44771,-0.02843 0.76498,-0.07799 0.76498,-0.07799c0,0 1.43611,0.43612 1.50138,0.82804z"/></g><g fill="#1c1c00"><path d="M67.22918,76.45655c1.49095,-0.24833 3.05767,1.70004 3.49934,4.35182c0.44167,2.65177 -0.40895,5.00276 -1.8999,5.25109c-1.49095,0.24833 -3.05766,-1.70004 -3.49933,-4.35182c-0.44167,-2.65177 0.40894,-5.00277 1.8999,-5.2511z"/><path d="M69.95453,81.96781c0,0 0.3162,-0.05598 0.74897,-0.17418c0.58099,-0.1587 1.33491,-0.34708 1.46211,0.12299c0.10907,0.4031 -0.5925,0.8692 -1.16442,1.21592c-0.43909,0.26619 -0.77431,0.47046 -0.77431,0.47046c0,0 -1.35903,0.02667 -1.42431,-0.36523c-0.06528,-0.39191 1.15195,-1.26995 1.15195,-1.26995z"/></g></g></g></g></g></g></svg>