<svg version="1.1" xmlns="http://www.w3.org/2000/svg" xmlns:xlink="http://www.w3.org/1999/xlink" width="957.15003" height="667.75" viewBox="0,0,957.15003,667.75"><defs><linearGradient x1="335.00004" y1="-7.98162" x2="335.00004" y2="387.70512" gradientUnits="userSpaceOnUse" id="color-1"><stop offset="0" stop-color="#d0d05c"/><stop offset="1" stop-color="#0e0e06"/></linearGradient><linearGradient x1="29.63422" y1="1.882" x2="29.63422" y2="293.94883" gradientUnits="userSpaceOnUse" id="color-2"><stop offset="0" stop-color="#e3e361"/><stop offset="1" stop-color="#616134"/></linearGradient><linearGradient x1="70.33512" y1="-0.7682" x2="70.33512" y2="291.29863" gradientUnits="userSpaceOnUse" id="color-3"><stop offset="0" stop-color="#e3e361"/><stop offset="1" stop-color="#616134"/></linearGradient><linearGradient x1="111.98617" y1="2.63189" x2="111.98617" y2="294.69872" gradientUnits="userSpaceOnUse" id="color-4"><stop offset="0" stop-color="#e3e361"/><stop offset="1" stop-color="#616134"/></linearGradient><linearGradient x1="152.68705" y1="-0.0183" x2="152.68705" y2="292.04853" gradientUnits="userSpaceOnUse" id="color-5"><stop offset="0" stop-color="#e3e361"/><stop offset="1" stop-color="#616134"/></linearGradient><linearGradient x1="192.7382" y1="12.83215" x2="192.7382" y2="304.89898" gradientUnits="userSpaceOnUse" id="color-6"><stop offset="0" stop-color="#e3e361"/><stop offset="1" stop-color="#616134"/></linearGradient><linearGradient x1="233.43911" y1="10.18195" x2="233.43911" y2="302.24878" gradientUnits="userSpaceOnUse" id="color-7"><stop offset="0" stop-color="#e3e361"/><stop offset="1" stop-color="#616134"/></linearGradient><linearGradient x1="275.09013" y1="13.58204" x2="275.09013" y2="305.64887" gradientUnits="userSpaceOnUse" id="color-8"><stop offset="0" stop-color="#e3e361"/><stop offset="1" stop-color="#616134"/></linearGradient><linearGradient x1="315.79105" y1="10.93185" x2="315.79105" y2="302.99868" gradientUnits="userSpaceOnUse" id="color-9"><stop offset="0" stop-color="#e3e361"/><stop offset="1" stop-color="#616134"/></linearGradient><linearGradient x1="355.94228" y1="6.03197" x2="355.94228" y2="298.0988" gradientUnits="userSpaceOnUse" id="color-10"><stop offset="0" stop-color="#e3e361"/><stop offset="1" stop-color="#616134"/></linearGradient><linearGradient x1="396.64319" y1="3.38178" x2="396.64319" y2="295.44861" gradientUnits="userSpaceOnUse" id="color-11"><stop offset="0" stop-color="#e3e361"/><stop offset="1" stop-color="#616134"/></linearGradient><linearGradient x1="438.29422" y1="6.78187" x2="438.29422" y2="298.8487" gradientUnits="userSpaceOnUse" id="color-12"><stop offset="0" stop-color="#e3e361"/><stop offset="1" stop-color="#616134"/></linearGradient><linearGradient x1="478.99514" y1="4.13167" x2="478.99514" y2="296.1985" gradientUnits="userSpaceOnUse" id="color-13"><stop offset="0" stop-color="#e3e361"/><stop offset="1" stop-color="#616134"/></linearGradient><linearGradient x1="519.04621" y1="16.98212" x2="519.04621" y2="309.04895" gradientUnits="userSpaceOnUse" id="color-14"><stop offset="0" stop-color="#e3e361"/><stop offset="1" stop-color="#616134"/></linearGradient><linearGradient x1="559.74713" y1="14.33193" x2="559.74713" y2="306.39876" gradientUnits="userSpaceOnUse" id="color-15"><stop offset="0" stop-color="#e3e361"/><stop offset="1" stop-color="#616134"/></linearGradient><linearGradient x1="601.39816" y1="17.73202" x2="601.39816" y2="309.79885" gradientUnits="userSpaceOnUse" id="color-16"><stop offset="0" stop-color="#e3e361"/><stop offset="1" stop-color="#616134"/></linearGradient><linearGradient x1="642.09907" y1="15.08182" x2="642.09907" y2="307.14865" gradientUnits="userSpaceOnUse" id="color-17"><stop offset="0" stop-color="#e3e361"/><stop offset="1" stop-color="#616134"/></linearGradient><linearGradient x1="322.75004" y1="62.68087" x2="322.75004" y2="425.68087" gradientUnits="userSpaceOnUse" id="color-18"><stop offset="0" stop-color="#1a1a00" stop-opacity="0"/><stop offset="1" stop-color="#1a1a00"/></linearGradient><linearGradient x1="53.50005" y1="174.5" x2="-65.49998" y2="174.5" gradientUnits="userSpaceOnUse" id="color-19"><stop offset="0" stop-color="#1a1a00" stop-opacity="0"/><stop offset="1" stop-color="#1a1a00"/></linearGradient><linearGradient x1="592.50001" y1="189.5" x2="711.50008" y2="189.5" gradientUnits="userSpaceOnUse" id="color-20"><stop offset="0" stop-color="#1a1a00" stop-opacity="0"/><stop offset="1" stop-color="#1a1a00"/></linearGradient><linearGradient x1="331.75004" y1="120.93087" x2="331.75004" y2="-242.06913" gradientUnits="userSpaceOnUse" id="color-21"><stop offset="0" stop-color="#1a1a00" stop-opacity="0"/><stop offset="1" stop-color="#1a1a00"/></linearGradient><linearGradient x1="100.44942" y1="183.36254" x2="88.52309" y2="207.93405" gradientUnits="userSpaceOnUse" id="color-22"><stop offset="0" stop-color="#151515"/><stop offset="1" stop-color="#151515" stop-opacity="0"/></linearGradient><linearGradient x1="637.76171" y1="12.88323" x2="637.76171" y2="289.67461" gradientTransform="translate(-447.95301,-49.64904) scale(1.05728,1.16712)" gradientUnits="userSpaceOnUse" id="color-23"><stop offset="0" stop-color="#ffffff"/><stop offset="1" stop-color="#fff9b1"/></linearGradient></defs><g transform="translate(172.14996,242.06913)"><g stroke-miterlimit="10"><g stroke="none"><path d="M785.00008,-7.98162v395.68672h-900v-395.68672z" fill="url(#color-1)" stroke-width="NaN"/><g stroke-width="0"><g><g><g><g><path d="M21.69284,293.94883v-292.06683h15.88279v292.06683z" fill="url(#color-2)"/><path d="M37.57562,-91.64997v93.53198h-15.88279v-93.53198z" fill="#e3e361"/><path d="M37.57562,293.94883v92.6496h-15.88279v-92.6496z" fill="#616134"/></g><g><path d="M62.39373,291.29863v-292.06683h15.88279v292.06683z" fill="url(#color-3)"/><path d="M78.27652,-94.30017v93.53198h-15.88279v-93.53198z" fill="#e3e361"/><path d="M78.27652,291.29863v92.6496h-15.88279v-92.6496z" fill="#616134"/></g></g><g><g><path d="M104.04477,294.69872v-292.06683h15.88279v292.06683z" fill="url(#color-4)"/><path d="M119.92756,-90.90008v93.53198h-15.88279v-93.53198z" fill="#e3e361"/><path d="M119.92756,294.69872v92.6496h-15.88279v-92.6496z" fill="#616134"/></g><g><path d="M144.74567,292.04853v-292.06683h15.88279v292.06683z" fill="url(#color-5)"/><path d="M160.62846,-93.55027v93.53198h-15.88279v-93.53198z" fill="#e3e361"/><path d="M160.62846,292.04853v92.6496h-15.88279v-92.6496z" fill="#616134"/></g></g></g><g><g><g><path d="M184.79682,304.89898v-292.06683h15.88279v292.06683z" fill="url(#color-6)"/><path d="M200.67961,-80.69982v93.53198h-15.88279v-93.53198z" fill="#e3e361"/><path d="M200.67961,304.89898v92.6496h-15.88279v-92.6496z" fill="#616134"/></g><g><path d="M225.4977,302.24878v-292.06683h15.88279v292.06683z" fill="url(#color-7)"/><path d="M241.38049,-83.35002v93.53198h-15.88279v-93.53198z" fill="#e3e361"/><path d="M241.38049,302.24878v92.6496h-15.88279v-92.6496z" fill="#616134"/></g></g><g><g><path d="M267.14877,305.64887v-292.06683h15.88279v292.06683z" fill="url(#color-8)"/><path d="M283.03156,-79.94993v93.53198h-15.88279v-93.53198z" fill="#e3e361"/><path d="M283.03156,305.64887v92.6496h-15.88279v-92.6496z" fill="#616134"/></g><g><path d="M307.84961,302.99868v-292.06683h15.88279v292.06683z" fill="url(#color-9)"/><path d="M323.73242,-82.60013v93.53198h-15.88279v-93.53198z" fill="#e3e361"/><path d="M323.73242,302.99868v92.6496h-15.88279v-92.6496z" fill="#616134"/></g></g></g></g><g><g><g><g><path d="M348.0009,298.0988v-292.06683h15.88279v292.06683z" fill="url(#color-10)"/><path d="M363.8837,-87.5v93.53198h-15.88279v-93.53198z" fill="#e3e361"/><path d="M363.8837,298.0988v92.6496h-15.88279v-92.6496z" fill="#616134"/></g><g><path d="M388.70182,295.44861v-292.06683h15.88279v292.06683z" fill="url(#color-11)"/><path d="M404.58458,-90.15019v93.53198h-15.88279v-93.53198z" fill="#e3e361"/><path d="M404.58458,295.44861v92.6496h-15.88279v-92.6496z" fill="#616134"/></g></g><g><g><path d="M430.35285,298.8487v-292.06683h15.88279v292.06683z" fill="url(#color-12)"/><path d="M446.23565,-86.7501v93.53198h-15.88279v-93.53198z" fill="#e3e361"/><path d="M446.23565,298.8487v92.6496h-15.88279v-92.6496z" fill="#616134"/></g><g><path d="M471.05377,296.1985v-292.06683h15.88279v292.06683z" fill="url(#color-13)"/><path d="M486.93652,-89.4003v93.53198h-15.88279v-93.53198z" fill="#e3e361"/><path d="M486.93652,296.1985v92.6496h-15.88279v-92.6496z" fill="#616134"/></g></g></g><g><g><g><path d="M511.10486,309.04895v-292.06683h15.88279v292.06683z" fill="url(#color-14)"/><path d="M526.98763,-76.54985v93.53198h-15.88279v-93.53198z" fill="#e3e361"/><path d="M526.98763,309.04895v92.6496h-15.88279v-92.6496z" fill="#616134"/></g><g><path d="M551.80575,306.39876v-292.06683h15.88279v292.06683z" fill="url(#color-15)"/><path d="M567.68855,-79.20004v93.53198h-15.88279v-93.53198z" fill="#e3e361"/><path d="M567.68855,306.39876v92.6496h-15.88279v-92.6496z" fill="#616134"/></g></g><g><g><path d="M593.45683,309.79885v-292.06683h15.88279v292.06683z" fill="url(#color-16)"/><path d="M609.33961,-75.79995v93.53198h-15.88279v-93.53198z" fill="#e3e361"/><path d="M609.33961,309.79885v92.6496h-15.88279v-92.6496z" fill="#616134"/></g><g><path d="M634.15766,307.14865v-292.06683h15.88279v292.06683z" fill="url(#color-17)"/><path d="M650.04045,-78.45015v93.53198h-15.88279v-93.53198z" fill="#e3e361"/><path d="M650.04045,307.14865v92.6496h-15.88279v-92.6496z" fill="#616134"/></g></g></g></g></g><path d="M-17.74996,425.68087v-363h681v363z" fill="url(#color-18)" stroke-width="0"/><path d="M-65.49998,-40.5h119v430h-119z" fill="url(#color-19)" stroke-width="0"/><path d="M711.50008,404.5h-119v-430h119z" fill="url(#color-20)" stroke-width="0"/><path d="M672.25008,-242.06913v363h-681v-363z" fill="url(#color-21)" stroke-width="0"/></g><g stroke="none"><g><g><path d="M6.56097,153.19015c98.68426,-34.7007 42.50818,-110.4502 146.44167,-78.2838c72.04521,22.29731 15.46901,163.94661 -40.23162,190.68726c-44.5633,21.39387 -178.52797,39.4645 -210.53285,-17.43878c-29.95693,-53.2621 49.02802,-75.52114 104.32279,-94.96465z" fill="#191919" stroke-width="0"/><g fill="none" stroke-width="1" font-family="sans-serif" font-weight="normal" font-size="12" text-anchor="start"/><path d="M128.83577,201.45587c0,0 -22.75109,-13.0642 -30.82807,-16.91702c-9.91128,-4.72782 -38.21101,-5.14884 -38.21101,-5.14884l8.58969,-6.20719c0,0 23.62935,-4.11587 33.20701,0.4528c8.70518,4.15245 26.40547,22.86832 26.40547,22.86832l0.83691,4.95191z" fill="url(#color-22)" stroke-width="0"/><g fill="none" stroke-width="1" font-family="sans-serif" font-weight="normal" font-size="12" text-anchor="start"/><path d="M164.89631,101.28168c-5.62389,-3.31932 -14.8695,-13.2204 -14.8695,-13.2204l42.58563,-36.454l-10.25407,55.53671c0,0 -12.35953,-2.85071 -17.46206,-5.8623z" fill="#191919" stroke-width="0"/><path d="M121.34518,77.09713c0,0 -10.72155,11.12796 -17.22645,14.8778c-7.16956,4.13301 -23.99124,8.88289 -23.99124,8.88289l-15.48659,-59.63418l56.7043,35.87348z" fill="#191919" stroke-width="0"/><path d="M158.68545,80.06c0,0 -16.38179,3.24697 -24.2532,2.75428c-8.67573,-0.543 -25.62325,-5.87605 -25.62325,-5.87605l28.48852,-57.42421l21.38795,60.54598z" fill="#191919" stroke-width="0"/><path d="M183.03924,141.1909c0,0 -4.91717,-11.06018 -5.5241,-16.68365c-0.66898,-6.19806 1.67825,-18.94894 1.67825,-18.94894l52.83563,11.43837l-48.9898,24.1942z" fill="#191919" stroke-width="0"/><path d="M177.17633,172.51805c0,0 -0.26868,-9.86429 1.02573,-14.29994c1.42668,-4.88886 7.17617,-13.80604 7.17617,-13.80604l36.37162,24.82569l-44.57353,3.2803z" fill="#191919" stroke-width="0"/><path d="M154.23442,212.60101c0,0 3.32482,-12.90591 6.65767,-18.19149c3.67341,-5.82565 14.46054,-15.30011 14.46054,-15.30011l37.98581,45.53982l-59.10403,-12.04822z" fill="#191919" stroke-width="0"/><path d="M121.31173,242.17939c0,0 8.33561,-10.0863 13.70258,-13.54574c5.91539,-3.81285 20.30483,-8.37452 20.30483,-8.37452l19.85107,52.52529l-53.85845,-30.60501z" fill="#191919" stroke-width="0"/><path d="M83.53565,267.38292c0,0 12.41903,-8.07383 19.31483,-10.16807c7.60041,-2.3082 24.37972,-3.10184 24.37972,-3.10184l1.82161,59.06884l-45.51618,-45.79895z" fill="#191919" stroke-width="0"/><path d="M38.77405,275.99851c0,0 14.82371,-5.09239 22.22943,-5.53503c8.16241,-0.48787 24.69614,2.73025 24.69614,2.73025l-18.6425,59.40781l-28.28309,-56.60304z" fill="#191919" stroke-width="0"/><path d="M7.93616,276.78755c8.65486,-0.0192 25.64751,4.16546 25.64751,4.16546l-27.2305,58.57682l-22.52603,-58.46629c0,0 16.25654,-4.25853 24.10903,-4.27599z" fill="#191919" stroke-width="0"/><path d="M-56.11163,272.5187c0,0 13.52418,-1.3777 19.75222,-0.08724c6.86442,1.42234 19.71116,8.26417 19.71116,8.26417l-30.3368,51.64196l-9.12655,-59.81888z" fill="#191919" stroke-width="0"/><path d="M-83.67217,253.52055c0,0 13.49349,1.44135 19.30368,3.98433c6.40386,2.80282 17.51207,12.12893 17.51207,12.12893l-40.45064,44.16539l3.6349,-60.27866z" fill="#191919" stroke-width="0"/><path d="M-79.17602,192.88459c0,0 -6.15092,14.15972 -10.92369,19.60627c-5.26047,6.00308 -19.31848,14.90529 -19.31848,14.90529l-35.13926,-58.85562l65.38141,24.34407z" fill="#191919" stroke-width="0"/><path d="M-93.36232,204.28085c0,0 5.7008,17.68311 5.70763,26.36962c0.00752,9.57411 -5.66421,28.67171 -5.66421,28.67171l-78.83105,-25.96364l78.78761,-29.07771z" fill="#191919" stroke-width="0"/><path d="M-93.37754,216.27334c0,0 16.0673,9.54171 21.86382,16.05857c6.38879,7.18274 14.8654,25.23474 14.8654,25.23474l-76.46358,32.13807l39.73437,-73.43135z" fill="#191919" stroke-width="0"/><path d="M80.59129,121.23607c-6.186,3.8422 -21.04461,8.21553 -21.04461,8.21553l-18.13806,-56.02389l53.70127,33.93519c0,0 -8.90609,10.38718 -14.5186,13.87317z" fill="#191919" stroke-width="0"/><path d="M53.79538,148.53682c-5.68182,5.05186 -20.01527,11.81122 -20.01527,11.81122l-26.16557,-59.67732l58.83018,30.63433c0,0 -7.49426,12.64828 -12.64933,17.23178z" fill="#191919" stroke-width="0"/><path d="M29.907,160.58167c0,0 -11.3688,11.1787 -18.24382,14.7312c-7.57749,3.91551 -25.31916,7.77886 -25.31916,7.77886l-15.85265,-65.31654l59.41561,42.80648z" fill="#191919" stroke-width="0"/><path d="M-46.30799,190.87036c0,0 -10.92427,8.03363 -16.94724,10.07674c-6.63837,2.25184 -21.21663,2.86917 -21.21663,2.86917l-0.52113,-59.80144l38.68503,46.85554z" fill="#191919" stroke-width="0"/><path d="M-17.0932,179.54592c0,0 -9.99788,6.48134 -15.514,8.12437c-6.07971,1.81091 -19.43825,2.28651 -19.43825,2.28651l-0.57523,-48.38003l35.52752,37.96919z" fill="#191919" stroke-width="0"/></g><path d="M-62.71698,218.65601c0,0 -6.53146,4.84653 -10.13232,6.07936c-3.96876,1.35878 -12.68407,1.73232 -12.68407,1.73232l-0.30669,-36.07044l23.12305,28.25875z" fill="#191919" stroke-width="0"/><path d="M63.9134,199.99272c48.72214,12.63387 120.32651,100.29961 101.67748,139.43275c-14.35252,30.11731 -107.49787,19.61081 -136.3252,12.37425c-53.9867,-13.55239 -101.52777,-50.33902 -96.57883,-76.88726c10.35604,-55.55402 56.97517,-94.17344 131.22655,-74.91973z" fill="#d7d75f" stroke-width="0"/><g><path d="M-74.30617,115.18678c1.97128,-5.18785 -10.90867,-15.35616 -8.21833,-20.27853c15.1792,-27.77261 41.31384,-47.9955 79.22761,-23.06114c43.95941,28.91034 0.69744,98.43016 22.69884,121.4231c31.87947,33.31619 33.56356,85.9358 -28.27429,72.35461c-61.83786,-13.58118 -95.30251,-97.68575 -86.76119,-136.57595c1.33435,-6.07559 18.9031,-7.48216 21.32738,-13.86209z" fill="#d7d75f" stroke-width="NaN"/><path d="M-42.72747,128.94309c7.00451,3.33386 6.11881,-14.23249 18.36045,2.98932c2.29886,3.2341 -4.03867,9.63663 -4.43726,10.44278c-3.02351,6.11544 -25.30594,-0.3585 -58.85593,-14.06621c-33.55001,-13.70774 -58.29661,-29.77757 -55.2731,-35.89303c2.14067,-4.32977 65.91196,20.20474 100.20585,36.52714z" fill="#89893c" stroke-width="0"/><path d="M-141.47716,77.22805c3.4725,-7.11144 33.0105,0.1723 65.975,16.26871c32.96448,16.09642 55.91326,26.75264 53.4,42.02155c-0.22073,1.34101 -6.99458,11.52523 -13.39535,10.13123c-9.24693,-2.01388 -12.40065,-17.30464 -16.9953,-19.2655c-36.17002,-15.43628 -91.36147,-44.28779 -88.98437,-49.15597z" fill="#9b9b44" stroke-width="0"/><path d="M-39.08557,80.26002c1.7067,0.70181 1.15592,5.97483 -1.23024,11.77764c-2.38615,5.80277 -5.70406,9.93797 -7.41077,9.23615c-1.7067,-0.7018 -1.15592,-5.97482 1.23024,-11.77764c2.38616,-5.8028 5.70407,-9.93797 7.41077,-9.23616z" fill="#000000" stroke-width="0"/><path d="M-36.67183,94.86316c2.38615,-5.80277 5.70407,-9.93797 7.41077,-9.23616c1.7067,0.7018 1.15592,5.97484 -1.23024,11.77764c-2.38613,5.80278 -5.70405,9.93796 -7.41075,9.23615c-1.7067,-0.7018 -1.15592,-5.97482 1.23024,-11.77764z" fill="#000000" stroke-width="0"/></g><path d="M23.87625,242.08776c6.55589,-23.11044 49.51526,-32.03582 95.9524,-19.93537c46.43716,12.10046 78.76734,40.64451 72.21145,63.75495c-6.55588,23.11044 -49.51526,32.03582 -95.9524,19.93538c-46.43714,-12.10046 -78.76731,-40.64451 -72.21143,-63.75495z" fill="#c2c255" stroke-width="0"/><path d="M20.75243,223.22548c8.93474,-22.767 54.23286,-26.28887 101.17626,-7.86636c46.9434,18.42254 77.75551,51.81324 68.8208,74.58025c-8.93472,22.76702 -54.23285,26.28889 -101.17625,7.86638c-46.94339,-18.42254 -77.7555,-51.81324 -68.82078,-74.58025z" fill="#d7d75f" stroke-width="0"/><path d="M-59.17896,249.01328c0,0 15.81163,-1.3263 32.31433,-1.0754c16.5027,0.2509 35.17754,-15.01157 35.17754,-15.01157c0,0 -7.93519,20.083 -33.11751,25.07849c-23.88794,4.73872 -34.37436,-8.99153 -34.37436,-8.99153z" fill="#c2c255" stroke-width="0"/><path d="M-73.59574,229.84784c0.20441,-13.44463 18.08988,6.68274 41.43173,7.03763c23.34183,0.35488 43.09657,-5.75247 43.09657,-5.75247c0,0 -19.66643,24.47746 -43.00828,24.12257c-23.34185,-0.35489 -41.72443,-11.96309 -41.52002,-25.40771z" fill="#191919" stroke-width="NaN"/><path d="M123.00166,255.65203c8.68258,-14.03619 12.31167,-33.54854 12.31167,-33.54854c0,0 8.37123,14.84693 -2.3727,36.7023c-11.3261,23.0396 -32.65667,33.47804 -32.65667,33.47804c0,0 13.16548,-21.18975 22.71769,-36.63181z" fill="#c2c255" stroke-width="0"/><path d="M143.38056,205.78464c11.7011,10.25727 11.67127,38.31999 -0.76675,62.75246c-12.43801,24.43245 -44.27524,25.7253 -44.27524,25.7253c0,0 16.05011,-15.6883 28.48812,-40.12077c12.43801,-24.43245 4.85278,-58.61426 16.55387,-48.35699z" fill="#191919" stroke-width="NaN"/><path d="M-7.07904,77.83197c3.30464,-1.51095 7.83658,1.31697 10.12236,6.31629c2.28578,4.99932 1.45983,10.27695 -1.84481,11.78788c-3.30463,1.51093 -7.83658,-1.31697 -10.12236,-6.31629c-2.28578,-4.99932 -1.45983,-10.27695 1.84481,-11.78788z" fill="#eded8c" stroke-width="0"/><path d="M-13.66094,70.69258c2.23587,0.03399 4.0208,1.87404 3.98682,4.10991c-0.034,2.23584 -1.87405,4.0208 -4.10991,3.98681c-2.23584,-0.034 -4.0208,-1.87404 -3.98681,-4.10991c0.03399,-2.23587 1.87407,-4.0208 4.10991,-3.98681z" fill="#eded8c" stroke-width="0"/><path d="M26.90588,201.50763c0.69545,-3.47153 11.18308,-4.29771 23.42479,-1.8453c12.2417,2.4524 21.60178,7.25468 20.90632,10.72621c-0.69546,3.47154 -10.40577,-2.4393 -22.64749,-4.89171c-12.24171,-2.4524 -22.3791,-0.51767 -21.68364,-3.9892z" fill="#eded8c" stroke-width="0"/><path d="M79.76125,207.08958c2.04951,0.03116 3.68573,1.71789 3.65457,3.76741c-0.03116,2.04952 -1.71788,3.68573 -3.76741,3.65457c-2.04951,-0.03116 -3.68572,-1.71789 -3.65456,-3.76741c0.03116,-2.04953 1.71789,-3.68573 3.76741,-3.65457z" fill="#eded8c" stroke-width="0"/></g><path d="M168.97771,142.47985c-1.70576,15.84317 -10.9922,27.83564 -20.74184,26.78594c-9.74964,-1.0497 -16.27048,-14.74407 -14.56472,-30.58724c1.70576,-15.84316 10.9922,-27.83563 20.74184,-26.78593c9.74964,1.0497 16.27049,14.74407 14.56473,30.58723z" fill="#ffffff" stroke-width="0"/><path d="M108.76969,131.53305c-1.57455,14.62446 -10.75461,25.62897 -20.50425,24.57927c-9.74964,-1.0497 -16.37686,-13.75611 -14.80231,-28.38057c1.57455,-14.62446 10.75461,-25.62898 20.50425,-24.57928c9.74964,1.0497 16.37686,13.75612 14.80231,28.38058z" fill="#ffffff" stroke-width="0"/><path d="M99.88366,131.13439c-0.82008,7.61691 -5.43671,13.36615 -10.31153,12.84131c-4.87482,-0.52485 -8.16184,-7.12505 -7.34176,-14.74195c0.82008,-7.61691 5.43671,-13.36615 10.31153,-12.8413c4.87482,0.52485 8.16184,7.12505 7.34176,14.74195z" fill="#000000" stroke-width="0"/><path d="M160.09167,142.0812c-0.75447,7.00755 -5.5649,12.23623 -10.7444,11.67857c-5.1795,-0.55766 -8.76668,-6.69046 -8.01221,-13.69801c0.75447,-7.00755 5.5649,-12.23624 10.7444,-11.67858c5.1795,0.55766 8.76668,6.69047 8.01221,13.69802z" fill="#000000" stroke-width="0"/><path d="M158.70539,193.83152c-0.60413,-0.06504 -0.91513,-0.36623 -1.07389,-0.68419c-3.43931,-0.42556 -7.52416,-1.07218 -10.67839,-0.09466c-1.90665,0.59088 -3.41779,2.22243 -4.76298,3.51263c-1.53781,1.47495 -3.99955,2.10612 -5.31745,3.74094c-0.30865,0.38287 -0.57977,0.80079 -0.85628,1.21313c0.14613,0.25822 0.31173,0.49375 0.56203,0.63917c0.96692,0.56178 2.23373,0.13059 3.34517,0.25396c3.71328,0.41216 6.7726,-0.56045 10.38029,-1.07298c3.98531,-0.51212 7.97089,-3.38103 9.25227,-7.40121c0.03082,-0.09671 0.05328,-0.19529 0.06967,-0.29521c-0.21981,0.14484 -0.51763,0.23178 -0.92043,0.18841zM132.74534,202.90521c-0.43663,-0.542 -0.38224,-1.03112 -0.21964,-1.38399c-2.92428,-3.28761 -5.23816,-7.25553 -6.00087,-11.67099c-0.0825,-0.47761 0.35337,-0.96977 0.22356,-1.43675c-0.40011,-1.4394 -1.3844,-3.04122 -1.75584,-4.74624l0.02389,-0.66855c-0.15663,-0.03707 -0.3127,-0.07405 -0.46818,-0.11084c-4.50226,-1.06542 -8.82948,-1.77686 -12.81809,-4.30631c0,0 -1.16716,-0.74959 -0.41757,-1.91674c0.74959,-1.16716 1.91675,-0.41756 1.91675,-0.41756c3.66671,2.39016 7.79909,2.96051 11.96454,3.94252c3.76352,0.88726 7.81863,1.86581 11.76629,1.82032c5.54053,-0.06384 12.49203,-2.80461 17.54411,-5.01739c3.81487,-1.47117 7.37449,-3.28105 10.01412,-6.46868l1.28152,-1.5362c0,0 0.13243,-0.15874 0.35632,-0.30254c0.00005,-0.00044 0.00009,-0.00088 0.00014,-0.00131c0,0 0.14848,-1.37917 1.52765,-1.23067c1.37917,0.14849 1.23068,1.52766 1.23068,1.52766c-0.5043,4.68396 -0.40756,9.94268 -1.57276,14.51069c-0.83191,3.26138 -3.72317,5.85412 -4.91391,9.10804c-0.24778,0.67711 0.01269,1.4693 -0.21954,2.1519c-1.73297,5.09375 -6.3945,8.58283 -11.52378,9.33596c-4.20953,0.56683 -11.21036,2.83221 -15.43628,0.50574c-0.48505,-0.26703 -0.81182,-0.72584 -1.13315,-1.1946c-0.38726,0.10376 -0.90818,0.07978 -1.36997,-0.49345zM134.6824,198.60347c1.03797,-1.21097 2.60966,-1.83535 3.94255,-2.71128c2.74731,-1.80543 4.34308,-4.51687 7.73761,-5.55021c3.82926,-1.16568 8.74371,-0.24631 12.69917,0.17955l0.71327,1.26624c0.01101,-0.03725 0.02322,-0.07422 0.03675,-0.11088c0.96358,-2.61114 2.79524,-4.9918 4.26329,-7.16262c0.96428,-1.42589 0.77694,-3.71496 0.95284,-5.34868c0.20674,-1.92021 0.41348,-3.84042 0.62022,-5.76063c-2.81257,2.87565 -6.29532,4.68066 -10.08742,6.15299c-5.44613,2.37543 -12.65481,5.10689 -18.62423,5.22629c-3.00278,0.06007 -6.10318,-0.47637 -9.08583,-1.13194c0.42949,1.46314 1.17577,2.61811 1.55977,3.97998c0.16988,0.60249 -0.23935,1.2564 -0.1328,1.87324c0.64659,3.74328 2.59639,6.89372 4.96464,9.71394c0.13466,-0.21614 0.27698,-0.42562 0.44017,-0.61601z" fill="#d7d75f" stroke-width="0.5"/></g><text transform="translate(428.14665,44.53979) scale(0.94582,0.85681)" font-size="40" xml:space="preserve" fill="#312900" stroke-opacity="0" stroke="#000000" stroke-width="0" font-family="&quot;Allan-Bold&quot;, Sans Serif" font-weight="normal" text-anchor="middle"><tspan x="0" dy="0">Hey bro our radars sense you are </tspan><tspan x="0" dy="46.15px">playing this on a mobile device. </tspan><tspan x="0" dy="46.15px">We're still gonna let you play but </tspan><tspan x="0" dy="46.15px">this mod is not built for mobile </tspan><tspan x="0" dy="46.15px">devices just saying. </tspan><tspan x="0" dy="46.15px"> </tspan><tspan x="0" dy="46.15px">We're also never making a </tspan><tspan x="0" dy="46.15px">mobile port not sorry!</tspan></text><text transform="translate(423.68292,42.53979) scale(0.94582,0.85681)" font-size="40" xml:space="preserve" fill="url(#color-23)" stroke-opacity="0" stroke="#000000" stroke-width="0" font-family="&quot;Allan-Bold&quot;, Sans Serif" font-weight="normal" text-anchor="middle"><tspan x="0" dy="0">Hey bro our radars sense you are </tspan><tspan x="0" dy="46.15px">playing this on a mobile device. </tspan><tspan x="0" dy="46.15px">We're still gonna let you play but </tspan><tspan x="0" dy="46.15px">this mod is not built for mobile </tspan><tspan x="0" dy="46.15px">devices just saying. </tspan><tspan x="0" dy="46.15px"> </tspan><tspan x="0" dy="46.15px">We're also never making a </tspan><tspan x="0" dy="46.15px">mobile port not sorry!</tspan></text></g></g></svg>