<svg version="1.1" xmlns="http://www.w3.org/2000/svg" xmlns:xlink="http://www.w3.org/1999/xlink" width="239.09422" height="289.7428" viewBox="0,0,239.09422,289.7428"><g transform="translate(-189.21605,-42.07169)"><g stroke-miterlimit="10"><path d="M252.07381,331.81449l2.16374,-279.82778h131.5249l-2.16374,279.82778z" fill-opacity="0.01" fill="#000000" stroke="none" stroke-width="2" stroke-linecap="butt"/><g fill="#000000" stroke-linecap="butt"><path d="M215.6559,85.99235l-3.60244,-8.26828c0,0 -7.07152,-15.30554 -7.11956,-16.45134c-0.09913,-2.36475 4.24914,-2.15334 5.02954,-1.66787c2.25844,1.40492 14.01351,23.22849 14.01351,23.22849c0,0 -0.51377,-8.16302 0.25424,-10.04394c0.76801,-1.88092 3.35746,-2.46315 5.25602,1.30669c1.89856,3.76984 1.44051,8.01875 0.81251,10.74318c-1.23776,5.36969 -2.03411,9.10985 -2.03411,9.10985l-10.02058,4.42921z" stroke="#ecec68" stroke-width="1"/><path d="M214.86465,96.06728c0,0 -19.59758,-21.72698 -20.2763,-24.29502c-0.23454,-0.8874 2.20151,-4.03464 4.43763,-3.23739c1.08346,0.38629 21.41145,24.36374 21.41145,24.36374z" stroke="#ecec68" stroke-width="1"/><path d="M215.09012,90.51553c0,0 -15.45315,-23.06394 -15.3275,-25.71719c0.04342,-0.91683 2.82703,-4.06738 4.71954,-2.63409c0.91697,0.69447 16.51668,27.00452 16.51668,27.00452z" stroke="#ecec68" stroke-width="1"/><path d="M213.22724,100.52415c0,0 -22.89959,-20.00982 -24.01119,-22.42225c-0.38412,-0.83362 1.76749,-3.53018 4.10764,-3.13069c0.48078,0.08208 6.02295,4.87642 11.18623,9.06876c7.0139,5.69497 13.65985,12.40156 13.65985,12.40156z" stroke="#ecec68" stroke-width="1"/><path d="M221.35125,95.34741c-2.99415,2.76636 -7.45899,4.33215 -7.45899,4.33215c0,0 -10.91459,-10.55283 -10.23161,-14.89723c0.16989,-1.08063 8.40641,-9.77774 9.15341,-10.51544c3.75013,-3.70341 14.80132,14.71751 14.80132,14.71751c0,0 -2.8532,3.21157 -6.26412,6.363z" stroke="none" stroke-width="0"/></g><g fill="#000000" stroke="#ecec68" stroke-width="1" stroke-linecap="butt"><path d="M393.02158,282.96636c0,0 28.01245,-8.79752 29.25026,-8.56485c2.55469,0.48018 6.15872,6.62196 5.44718,7.33171c-2.05916,2.05396 -31.13628,9.28736 -31.13628,9.28736z"/><path d="M389.37827,270.62606l6.67341,11.34683c0,0 18.33528,-2.15108 19.54409,-1.81117c2.4948,0.70155 5.52238,7.1484 4.75156,7.79539c-2.23069,1.87232 -35.66373,5.23324 -35.66373,5.23324c0,0 -2.15254,12.14038 -4.40275,12.4908c-2.16397,0.33702 -5.8594,-1.30869 -6.84909,-1.77971c-2.24771,-1.06976 2.95445,-16.80367 2.95445,-16.80367l-0.03107,-7.34264z"/></g><path d="M235.73333,155.425c-4.47587,-3.48297 -24.83333,-56 -24.83333,-56l18.33333,-7.33333l23.53904,42.93249l40.96096,-2.59916l-5.14756,29.63163c0,0 -43.26634,0.82795 -52.85244,-6.63163z" fill="#000000" stroke="#ecec68" stroke-width="1" stroke-linecap="butt"/><path d="M366.875,167.16667c0,0 5.83392,5.4025 5.46482,8.47304c-1.48318,12.33848 -5.46806,28.78387 -3.36085,41.24578c5.32068,31.46614 26.26074,54.44269 26.26074,54.44269l-19.42661,13.31349c0,0 -26.73172,-40.57568 -28.6419,-53.64023c-0.98227,-6.71813 -2.5462,-18.08477 -2.5462,-18.08477" fill="#000000" stroke="#ecec68" stroke-width="1" stroke-linecap="round"/><path d="M249.14379,300.56034c0,0 18.92783,-87.35156 26.11963,-107.55554c7.58705,-21.31437 15.38661,-62.20023 15.38661,-62.20023c0,0 28.79625,-6.96601 44.01285,0.69052c14.21788,7.15401 34.58716,38.87615 34.58716,38.87615c0,0 -16.06944,32.8299 -20.77619,51.68395c-4.94787,19.8199 -11.83005,89.00515 -11.83005,89.00515z" fill="#000000" stroke="#ecec68" stroke-width="1" stroke-linecap="round"/><path d="M289.89376,305.85576c0,0 14.61419,-86.77601 21.925,-118.52579c7.3108,-31.74978 16.68124,-57.99664 16.68124,-57.99664c0,0 4.22148,0.33191 9.54503,3.22787c6.17799,3.36076 11.12163,11.4388 11.12163,11.4388c0,0 -10.68917,30.1705 -17.44291,56.80315c-6.75373,26.63265 -21.49667,107.05261 -21.49667,107.05261z" fill="#ecec68" stroke="none" stroke-width="0" stroke-linecap="butt"/><path d="M326.48618,204.88878l-8.70213,10.43777l-4.59583,-14.08737l13.69957,-38.82163l-0.66147,-10.80737l10.84481,1.73358l-5.80754,10.72717z" fill="#000000" stroke="none" stroke-width="0" stroke-linecap="butt"/><path d="M299.89376,305.85576c0,0 16.61525,-90.56597 22.67069,-115.5875c5.70094,-23.55672 16.26888,-54.93493 16.26888,-54.93493" fill="none" stroke="#000000" stroke-width="1" stroke-linecap="round"/><path d="M312.16667,201.66666l-15,-45.66666l12,-3l-10.33333,-7l16.33333,-7.66666" fill="none" stroke="#ecec68" stroke-width="1" stroke-linecap="round"/><path d="M346.24772,148.83454l12.71018,12.80651l-12.10809,3.02853l10.2416,6.93611l-29.76145,37.7452" fill="none" stroke="#ecec68" stroke-width="1" stroke-linecap="round"/><path d="M358.625,181.16667l5.25,-16.5l7.25,8.25l-7.75,29.5z" fill="#000000" stroke="none" stroke-width="0" stroke-linecap="butt"/><path d="M376.19892,284.71796l-4.7571,-6.63056l18.4926,-13.60535l5.5571,7.23055z" fill="#ecec68" stroke="none" stroke-width="0" stroke-linecap="butt"/><path d="M214.58795,108.10838l-3.90764,-8.71747l18.36507,-7.1493l4.57431,8.38414z" fill="#ecec68" stroke="none" stroke-width="0" stroke-linecap="butt"/><path d="M277.26667,161.2l3.66667,-26.66667l16,-1.33333l-5.66667,28.66667z" fill="#000000" stroke="none" stroke-width="0" stroke-linecap="butt"/><g><path d="M300.26215,125.51678l0.90859,-9.9987l18.55059,1.68572l-0.9086,9.9987z" fill="#000000" stroke="none" stroke-width="0" stroke-linecap="butt"/><path d="M302.24343,96.50711c0,0 -6.81655,-1.81798 -5.89996,-6.05257c0.96064,-4.43801 7.82906,-4.49582 7.82906,-4.49582l2.71661,-40.57538l3.87459,16.16944l6.55802,-13.36053l2.96468,15.1563l9.40378,-15.27294l3.92633,19.27557l5.89551,-13.42076l7.07539,17.70088l6.66983,-14.59095l4.30517,26.13319l10.38385,-12.8268c0,0 -12.85613,48.84055 -15.52074,64.48751c-1.20323,7.06548 -0.57173,12.52589 -0.57173,12.52589c0,0 -14.41997,10.61681 -24.58228,8.44952c-10.16231,-2.16729 -13.86137,-16.79048 -13.86137,-16.79048" fill="#000000" stroke="#ecec68" stroke-width="1" stroke-linecap="round"/><path d="M317.77844,141.54531c-7.70887,-1.44062 -14.61953,-2.14197 -16.67223,-3.31039c-3.96686,-2.258 8.60714,-6.50624 8.60714,-6.50624" fill="#000000" stroke="#ecec68" stroke-width="1" stroke-linecap="round"/><path d="M342.18668,138.24619c0,0 -17.52932,-1.34945 -34.93836,-3.17309c-10.48429,-1.09826 -23.73147,-1.54414 -25.71357,-3.62304c-2.29658,-2.40872 17.2616,-13.73947 17.2616,-13.73947" fill="#000000" stroke="#ecec68" stroke-width="1" stroke-linecap="round"/><path d="M315.67473,103.40119c-0.57952,6.37751 -5.84923,11.11133 -11.77023,10.57328c-5.92097,-0.53804 -10.25108,-6.14419 -9.67156,-12.52169c0.57952,-6.37751 5.84925,-11.1113 11.77023,-10.57326c5.92098,0.53804 10.25109,6.1442 9.67156,12.52169z" fill="#ecec68" stroke="#000000" stroke-width="1.5" stroke-linecap="butt"/><path d="M305.79027,104.23034c-1.00025,-0.0909 -1.73122,-1.04372 -1.63268,-2.12819c0.09855,-1.08446 0.9893,-1.88995 1.98955,-1.79905c1.00025,0.09091 1.73122,1.04373 1.63267,2.12821c-0.09854,1.08448 -0.98931,1.88995 -1.98954,1.79905z" fill="#000000" stroke="none" stroke-width="0.5" stroke-linecap="butt"/><path d="M308.23456,120.06857c0,0 -16.79648,-1.04909 -15.79672,-7.85425c0.93874,-6.38984 24.46184,-1.12791 24.46184,-1.12791" fill="#000000" stroke="#ecec68" stroke-width="1" stroke-linecap="round"/><g stroke-linecap="butt"><path d="M336.15805,106.53364c-0.67863,7.46811 -6.8495,13.01146 -13.78304,12.38141c-6.93353,-0.63007 -12.00414,-7.19495 -11.3255,-14.66305c0.67864,-7.46811 6.84954,-13.01144 13.78307,-12.38139c6.93354,0.63007 12.00412,7.19492 11.32549,14.66304z" fill="#ecec68" stroke="#000000" stroke-width="1.5"/><path d="M323.41916,105.0192c0.11199,-1.23235 1.12422,-2.14764 2.26084,-2.04435c1.13665,0.10329 1.96729,1.18605 1.85531,2.41841c-0.11199,1.23237 -1.12421,2.14768 -2.26085,2.04439c-1.13664,-0.10328 -1.96728,-1.18606 -1.8553,-2.41841z" fill="#000000" stroke="none" stroke-width="0.5"/></g><g stroke="#ecec68" stroke-width="1" stroke-linecap="round"><path d="M353.51328,121.84773c0,0 8.4183,-5.793 8.51749,-1.75975c0.54298,22.08013 -10.89148,12.06273 -10.89148,12.06273" fill="#000000"/><path d="M355.00822,130.5607c0,0 0.26602,-2.32203 0.74125,-3.68384c0.44503,-1.27532 2.02541,-4.24452 2.02541,-4.24452" fill="none"/><path d="M355.51354,127.66439c0,0 1.31457,-0.84441 1.86184,-1.0412c0.38387,-0.13801 1.45755,-0.14369 1.45755,-0.14369" fill="none"/></g></g></g></g></svg>