<svg version="1.1" xmlns="http://www.w3.org/2000/svg" xmlns:xlink="http://www.w3.org/1999/xlink" width="128.47079" height="256.0266" viewBox="0,0,128.47079,256.0266"><g transform="translate(-256.85858,-51.9867)"><g stroke-miterlimit="10"><path d="M261.23756,308.0133v-256.0266h117.5249v256.0266z" fill-opacity="0.01" fill="#000000" stroke="none" stroke-width="2" stroke-linecap="butt"/><g><path d="M381.3042,276.85289c0,6.92408 -5.61307,12.53715 -12.53715,12.53715c-6.92408,0 -12.53715,-5.61307 -12.53715,-12.53715c0,-6.92408 5.61308,-12.53715 12.53715,-12.53715c6.92408,0 12.53715,5.61307 12.53715,12.53715z" fill="#ffffff" stroke="#000000" stroke-width="1.5" stroke-linecap="butt"/><path d="M287.09984,276.14987c0,6.92408 -5.61307,12.53715 -12.53715,12.53715c-6.92408,0 -12.53715,-5.61307 -12.53715,-12.53715c0,-6.92408 5.61308,-12.53715 12.53715,-12.53715c6.92408,0 12.53715,5.61307 12.53715,12.53715z" fill="#ffffff" stroke="#000000" stroke-width="1.5" stroke-linecap="butt"/><path d="M349.83537,162.97839c11.70638,-2.32294 17.36579,7.54597 25.21189,47.08616c7.84608,39.54019 15.09819,65.03593 3.39179,67.35887c-2.45172,0.4865 -17.75901,3.49541 -20.12294,1.65727c-8.92325,-6.93856 -8.86526,-31.86041 -15.06812,-63.11951c-7.84608,-39.54019 -5.11902,-50.65985 6.58737,-52.98279z" fill="#c5c556" stroke="#8d8d3e" stroke-width="1.5" stroke-linecap="butt"/><path d="M298.3155,214.08646c-6.20285,31.2591 -6.14487,56.18095 -15.06812,63.11951c-2.36393,1.83815 -16.73385,-0.93643 -19.18558,-1.42293c-11.7064,-2.32294 -5.39165,-28.05302 2.45443,-67.59321c7.8461,-39.54019 13.5055,-49.40909 25.21189,-47.08616c11.7064,2.32294 14.43346,13.4426 6.58737,52.98279z" fill="#c5c556" stroke="#8d8d3e" stroke-width="1.5" stroke-linecap="butt"/><path d="M351.6017,201.80575c0,30.18768 -7.306,46.92643 -34.09636,46.92643c-26.79034,0 -27.7692,-15.68423 -27.7692,-45.8719c0,-30.18768 2.7364,-54.65962 29.52674,-54.65962c26.79036,0 32.33881,23.41742 32.33881,53.6051z" fill="#c5c556" stroke="none" stroke-width="1.5" stroke-linecap="butt"/><path d="M364.95903,259.10169c0,29.41114 -18.65687,42.21637 -46.02813,41.57568c-22.87638,-0.53547 -42.5521,-9.70398 -42.5521,-39.11512c0,-14.54963 1.07598,-35.60164 9.3496,-51.38577c8.45098,-16.12247 19.32285,-29.63702 33.00721,-29.63702c15.59108,0 27.95613,11.95605 37.43185,31.29319c6.98351,14.25126 8.79156,34.79015 8.79156,47.26904z" fill="#c5c556" stroke="none" stroke-width="1.5" stroke-linecap="butt"/><path d="M362.3032,276.43977c0,0 -2.08145,8.54947 -10.57893,15.8899c-7.07568,6.11223 -18.88736,11.24246 -34.98053,11.23522c-25.67017,-0.01156 -37.55287,-20.41269 -37.55287,-24.45358c0,-4.04089 17.07873,17.92587 38.72455,17.92587c21.64583,0 44.38776,-20.59741 44.38776,-20.59741z" fill="#979742" stroke="none" stroke-width="1.5" stroke-linecap="butt"/><path d="M365.56443,182.06267c0,18.50735 -20.42389,33.5105 -45.61803,33.5105c-25.19414,0 -45.61803,-15.00317 -45.61803,-33.5105c0,-18.50735 20.42389,-33.5105 45.61803,-33.5105c25.19414,0 45.61803,15.00317 45.61803,33.5105z" fill="#c5c556" stroke="none" stroke-width="1.5" stroke-linecap="butt"/><path d="M315.86061,200.41996c0,0 -10.82428,8.89672 -21.49894,7.2594c-10.67466,-1.63731 -16.06386,-12.25128 -16.06386,-12.25128c0,0 6.90324,7.97543 17.5779,9.61274c10.67466,1.63731 19.98488,-4.62086 19.98488,-4.62086z" fill="#b6b650" stroke="none" stroke-width="1.5" stroke-linecap="butt"/><path d="M345.7208,204.53165c10.51644,-2.45633 16.78353,-10.94078 16.78353,-10.94078c0,0 -4.5539,10.99826 -15.07034,13.45459c-10.51644,2.45633 -21.9951,-5.5784 -21.9951,-5.5784c0,0 9.76546,5.52092 20.28192,3.06459z" fill="#b6b650" stroke="none" stroke-width="1.5" stroke-linecap="butt"/><path d="M327.24996,203.69999c0,0 -2.76511,-1.39244 -6.56149,-1.39244c-3.79638,0 -7.1864,1.39244 -7.1864,1.39244c0,0 3.07756,-2.81207 6.87394,-2.81207c3.79638,0 6.87395,2.81207 6.87395,2.81207z" fill="#b6b650" stroke="none" stroke-width="1.5" stroke-linecap="butt"/><path d="M289.66626,206.74466c0,0 -13.87746,-4.95085 -15.51214,-23.06008c-1.63006,-18.05797 13.8249,-25.30754 13.8249,-25.30754" fill="none" stroke="#8d8d3e" stroke-width="1.5" stroke-linecap="round"/><path d="M352.50392,154.87932c0,5.35808 -14.37366,9.70164 -32.10447,9.70164c-17.73081,0 -32.10448,-4.34358 -32.10448,-9.70164c0,-5.35808 14.37367,-9.70164 32.10448,-9.70164c17.73081,0 32.10447,4.34358 32.10447,9.70164z" fill="#b0b04d" stroke="none" stroke-width="0" stroke-linecap="butt"/><path d="M349.13257,156.81438c1.02579,12.00307 -29.28423,25.48024 -29.28423,25.48024c0,0 -27.8358,-13.4876 -29.30026,-24.66341c-0.38338,-2.92583 10.72251,-8.79221 28.87143,-9.54268c20.96892,1.02416 29.57202,7.07549 29.71306,8.72584z" fill="#ffffff" stroke="none" stroke-width="1.5" stroke-linecap="butt"/><path d="M305.09914,168.66214c6.64734,5.08505 14.68207,13.59359 14.68207,13.59359c0,0 -9.61018,0.82311 -20.63839,-9.50781c-14.4471,-13.53361 -8.779,-15.7134 -7.6519,-17.18679c1.12709,-1.47338 6.96086,8.01595 13.60821,13.101z" fill="#b0b04d" stroke="none" stroke-width="1.5" stroke-linecap="butt"/><path d="M349.30728,155.43499c1.13243,1.5515 6.94923,3.94006 -8.32165,17.61339c-11.65706,10.43755 -21.58628,9.36158 -21.58628,9.36158c0,0 8.51577,-8.62078 15.51553,-13.72994c6.99978,-5.10914 13.25995,-14.79654 14.39239,-13.24504z" fill="#b0b04d" stroke="none" stroke-width="1.5" stroke-linecap="butt"/><path d="M319.45305,184.69612c0,0 -0.13223,-5.459 0.67053,-9.31551c0.66711,-3.20477 4.17225,-7.55014 4.17225,-7.55014c0,0 -2.9199,4.32095 -3.35555,7.65425c-0.51708,3.95622 0.09984,9.28725 0.09984,9.28725z" fill="#bfbfbf" stroke="none" stroke-width="1.5" stroke-linecap="butt"/><path d="M293.59936,157.62612c0.95769,2.87306 0.63918,5.5671 -0.7114,6.0173c-1.3506,0.4502 -3.22182,-1.51392 -4.1795,-4.38698c-0.95769,-2.87306 -0.63918,-5.5671 0.71141,-6.0173c1.3506,-0.4502 3.2218,1.51392 4.1795,4.38698z" fill="#b0b04d" stroke="none" stroke-width="0" stroke-linecap="butt"/><path d="M349.95347,163.42355c-2.68225,4.42783 -6.14885,7.23452 -7.74285,6.26891c-1.59401,-0.96561 -0.71185,-5.33786 1.9704,-9.76569c2.68225,-4.42783 6.14885,-7.2345 7.74285,-6.26889c1.59401,0.96561 0.71185,5.33784 -1.9704,9.76567z" fill="#b0b04d" stroke="none" stroke-width="0" stroke-linecap="butt"/><path d="M346.12989,166.50255c0,0.8298 -5.62199,6.75743 -11.67098,11.58753c-4.70642,3.75807 -8.96848,6.85169 -15.57901,6.36286c-11.52776,-0.85247 -23.27354,-15.06893 -23.27354,-16.54434c0,-1.47541 18.232,14.01349 23.21813,14.01349c4.98612,0 27.3054,-16.89493 27.3054,-15.41953z" fill="#b0b04d" stroke="none" stroke-width="1.5" stroke-linecap="butt"/><path d="M296.35624,160.08165l-0.09374,9.84225" fill="none" stroke="#8d8d3e" stroke-width="0.5" stroke-linecap="round"/><path d="M352.12897,158.67565c0,0 -4.6302,9.7909 -14.41763,16.87467c-11.11533,8.86418 -18.01493,8.90264 -18.01493,8.90264h0.18747c0,0 -6.80586,0.05527 -17.92119,-8.80891c-5.94425,-4.74038 -9.68231,-8.91272 -13.10532,-16.21852c-1.34456,-2.86973 -0.36768,-6.66173 1.40604,-7.59259c2.14984,-1.12826 6.80906,-6.28717 29.62881,-6.56218c37.02181,-0.44618 32.23675,13.31113 32.23675,13.31113z" fill="none" stroke="#8d8d3e" stroke-width="1.5" stroke-linecap="round"/><path d="M347.44219,154.83247c0,0 -4.95388,7.22649 -8.66264,10.83328c-4.99497,4.85766 -18.61445,16.16259 -18.61445,16.16259c0,0 -14.08815,-11.49241 -19.08312,-16.35007c-3.70876,-3.6068 -8.66264,-10.83328 -8.66264,-10.83328" fill="none" stroke="#8d8d3e" stroke-width="1.5" stroke-linecap="round"/><path d="M301.13676,165.51833l-0.09374,9.84225" fill="none" stroke="#8d8d3e" stroke-width="1.5" stroke-linecap="round"/><path d="M307.04211,171.14247l-0.18747,8.155" fill="none" stroke="#8d8d3e" stroke-width="1.5" stroke-linecap="round"/><path d="M344.25516,159.51924l0.09374,9.84225" fill="none" stroke="#8d8d3e" stroke-width="0.5" stroke-linecap="round"/><path d="M340.13081,173.95454l-0.09374,-9.84225" fill="none" stroke="#8d8d3e" stroke-width="1.5" stroke-linecap="round"/><path d="M334.3192,177.89144l-0.18748,-8.155" fill="none" stroke="#8d8d3e" stroke-width="1.5" stroke-linecap="round"/><path d="M313.88481,177.04782l-0.18748,5.43667" fill="none" stroke="#8d8d3e" stroke-width="1.5" stroke-linecap="round"/><path d="M319.97764,181.82834v2.15592" fill="none" stroke="#8d8d3e" stroke-width="1.5" stroke-linecap="round"/><path d="M328.32011,175.36057v5.90535" fill="none" stroke="#8d8d3e" stroke-width="1.5" stroke-linecap="round"/><path d="M292.41935,155.67608l0.09374,9.74852" fill="none" stroke="#8d8d3e" stroke-width="0.5" stroke-linecap="round"/><path d="M347.25471,165.23712l0.09374,-9.56104" fill="none" stroke="#8d8d3e" stroke-width="0.5" stroke-linecap="round"/><path d="M352.76382,159.2162c0,0 15.17749,7.81382 12.88352,25.79951c-2.3005,18.03675 -16.35086,21.91075 -16.35086,21.91075" fill="none" stroke="#8d8d3e" stroke-width="1.5" stroke-linecap="round"/><path d="M353.19728,205.55911c0,0 6.69322,13.81781 9.86967,31.29631c1.25134,6.88554 1.6491,19.78664 1.08374,28.18768c-0.59966,8.91076 -3.29832,13.91106 -3.29832,13.91106c0,0 -9.17621,25.41256 -40.90588,24.66436c-34.46245,-0.81265 -40.65014,-24.03946 -40.65014,-24.03946c0,0 -2.22999,-4.84407 -2.82965,-13.75484c-0.56537,-8.40103 -0.32384,-20.67724 0.92751,-27.56278c3.17644,-17.47851 9.55722,-32.07745 9.55722,-32.07745" fill="none" stroke="#8d8d3e" stroke-width="1.5" stroke-linecap="round"/><path d="M361.50254,277.36062c0,0 -20.63492,18.88092 -42.02588,19.13877c-24.33094,0.29328 -40.30531,-17.73273 -40.30531,-17.73273" fill="none" stroke="#8d8d3e" stroke-width="1.5" stroke-linecap="round"/><path d="M289.79474,293.9206l-0.78114,-7.03018" fill="none" stroke="#8d8d3e" stroke-width="1.5" stroke-linecap="round"/><path d="M302.13661,300.32586l0.15622,-6.24904" fill="none" stroke="#8d8d3e" stroke-width="1.5" stroke-linecap="round"/><path d="M319.94638,296.88889v5.78037" fill="none" stroke="#8d8d3e" stroke-width="1.5" stroke-linecap="round"/><path d="M336.03768,293.13946l0.15622,7.81131" fill="none" stroke="#8d8d3e" stroke-width="1.5" stroke-linecap="round"/><path d="M349.16067,287.20287l-0.31245,6.24904" fill="none" stroke="#8d8d3e" stroke-width="1.5" stroke-linecap="round"/><path d="M356.19086,286.2655l0.46867,-4.843" fill="none" stroke="#8d8d3e" stroke-width="1.5" stroke-linecap="round"/><path d="M319.91178,177.57386c0,0 -0.53621,-2.82777 -1.43323,-4.77048c-0.75577,-1.63682 -2.94119,-3.38222 -2.94119,-3.38222c0,0 2.48893,1.66436 3.34265,3.19839c1.02734,1.846 1.83214,4.66182 1.83214,4.66182z" fill="#bfbfbf" stroke="none" stroke-width="1.5" stroke-linecap="butt"/><path d="M293.35001,154.47029c0,0 17.60001,-7.63363 26.79972,-7.65036c9.13314,-0.0166 26.50027,7.65036 26.50027,7.65036" fill="none" stroke="#000000" stroke-width="1" stroke-linecap="round"/><path d="M348.50613,90.15682c0,19.08114 -12.59808,34.54946 -28.13863,34.54946c-15.54054,0 -28.13862,-15.46832 -28.13862,-34.54946c0,-19.08114 12.59808,-34.04946 28.13862,-34.04946c15.54054,0 28.13863,14.96832 28.13863,34.04947z" fill="#000000" stroke="none" stroke-width="1" stroke-linecap="butt"/><path d="M332.08483,67.41242c0.17105,5.95806 -5.23065,4.40722 -12.31601,4.40722c-7.08534,0 -13.34232,1.55084 -13.34232,-4.40722c0,-6.74506 6.08592,-5.35162 13.17128,-5.35162c7.08534,0 12.2754,-2.02047 12.48705,5.35162z" fill="#c5c556" stroke="#9b9b44" stroke-width="1" stroke-linecap="butt"/><path d="M333.81036,70.76753c19.09161,0 30.06949,16.43631 30.06949,35.73364c0,13.48326 -22.73701,34.88424 -22.73701,34.88424c0,0 -41.9009,-16.37964 -41.9009,-35.67697c0,-19.29733 15.47681,-34.94091 34.56842,-34.94091z" fill="#000000" stroke="none" stroke-width="1" stroke-linecap="butt"/><path d="M340.82734,104.95828c0,19.29733 -41.9009,35.67697 -41.9009,35.67697c0,0 -22.737,-21.40098 -22.737,-34.88424c0,-19.29733 10.97788,-35.73364 30.06949,-35.73364c19.09161,0 34.56842,15.64358 34.56842,34.94091z" fill="#000000" stroke="none" stroke-width="1" stroke-linecap="butt"/><path d="M292.00858,126.49522c0,0 -5.35997,-3.51705 -6.69892,-8.97502c-1.40882,-5.74284 -1.58794,-9.7328 0.52178,-9.99193c2.10972,-0.25915 2.93772,2.37692 4.05643,8.35569c1.11871,5.97877 2.12071,10.61127 2.12071,10.61127z" fill="#ffffff" stroke="#000000" stroke-width="1" stroke-linecap="butt"/><path d="M291.78842,122.54766c0,0 -3.87302,-2.92338 -4.69277,-8.45061c-0.45729,-3.08327 2.34385,-2.28016 2.34385,-2.28016" fill="none" stroke="#000000" stroke-width="0.5" stroke-linecap="round"/><path d="M350.94655,115.88396c1.1187,-5.97877 1.94669,-8.61483 4.05642,-8.35569c2.10973,0.25914 1.9306,4.24909 0.52178,9.99193c-1.33895,5.45797 -6.69891,8.97502 -6.69891,8.97502c0,0 1.00202,-4.6325 2.12072,-10.61127z" fill="#ffffff" stroke="#000000" stroke-width="1" stroke-linecap="butt"/><path d="M351.39489,111.8169c0,0 2.80115,-0.80312 2.34386,2.28016c-0.81975,5.52723 -4.69277,8.45061 -4.69277,8.45061" fill="none" stroke="#000000" stroke-width="0.5" stroke-linecap="round"/><path d="M350.52036,78.50916c0,5.95471 -13.93831,10.78195 -31.1321,10.78195c-17.19379,0 -31.1321,-4.82724 -31.1321,-10.78195c0,-5.95471 13.93831,-10.78195 31.1321,-10.78195c17.19379,0 31.1321,4.82724 31.1321,10.78195z" fill="#000000" stroke="none" stroke-width="1" stroke-linecap="butt"/><path d="M310.2826,68.19428c0,0 -3.28759,1.43749 -8.3257,2.27093c-5.03812,0.83343 -10.24433,3.13134 -10.24433,3.13134c0,0 5.71768,-3.49056 10.75579,-4.32399c5.03812,-0.83343 7.81424,-1.07827 7.81424,-1.07827z" fill="#f5f5f5" stroke="none" stroke-width="1" stroke-linecap="butt"/><path d="M337.66947,69.74897c5.0197,0.92275 10.6631,4.5142 10.6631,4.5142c0,0 -5.15707,-2.38993 -10.17676,-3.31268c-5.0197,-0.92275 -8.1977,-2.65363 -8.1977,-2.65363c0,0 2.69167,0.52936 7.71136,1.45211z" fill="#f5f5f5" stroke="none" stroke-width="1" stroke-linecap="butt"/><path d="M327.99432,68.32289c0,0 -3.82387,-0.19231 -8.02524,-0.19231c-4.20137,0 -8.02525,0.03847 -8.02525,0.03847c0,0 3.74027,-0.5 7.94164,-0.5c4.20137,0 8.10884,0.65385 8.10884,0.65385z" fill="#f5f5f5" stroke="none" stroke-width="1" stroke-linecap="butt"/><path d="M319.35701,69.65092l2.40123,-0.09229l-0.88348,26.29474z" fill="#151515" stroke="none" stroke-width="1" stroke-linecap="butt"/><path d="M290.37817,116.28312c-0.62715,-7.29323 0.36406,-17.15448 0.36406,-17.15448c0,0 1.87489,-5.05947 9.76167,-5.44531c7.59506,-0.53794 20.23194,1.83697 20.23194,1.83697c0,0 9.72882,-2.29358 18.27022,-2.77159c5.17594,-0.28966 10.44483,0.86619 11.33351,1.37266c3.02432,1.72362 0.95223,15.25962 0.61361,20.81754c-0.45821,5.66922 -2.75304,9.49969 -3.42361,12.52053c-0.67057,3.02084 -0.44514,6.13662 -2.39761,16.0397c-0.51834,2.62905 -4.62542,8.52796 -9.74875,13.09824c-6.92026,6.17324 -15.94907,10.8843 -15.94907,10.8843c0,0 -8.32986,-5.54389 -15.45996,-12.09618c-5.2949,-4.86581 -9.18674,-10.58674 -9.57605,-13.42601c-0.82275,-6.00039 -0.8439,-9.90853 -1.22006,-15.24835c-0.27492,-3.90273 -2.45736,-6.44504 -2.79987,-10.42801z" fill="#ffffff" stroke="#000000" stroke-width="1" stroke-linecap="butt"/><path d="M317.5476,116.21498c0,0 -5.05938,5.50905 -10.83784,5.50905c-5.77847,0 -10.08783,-5.50905 -10.08783,-5.50905c0,0 4.75938,-2.25371 10.53784,-2.25371c5.77847,0 10.38783,2.25371 10.38783,2.25371z" fill="#ffffff" stroke="#000000" stroke-width="1" stroke-linecap="butt"/><path d="M293.1256,117.77266c0,0 8.4588,-8.2038 15.11407,-7.76212c6.65526,0.44169 9.65295,5.88406 9.65295,5.88406c0,0 -6.74236,-2.0747 -10.25296,-2.02382c-4.5232,0.06557 -14.51406,3.90186 -14.51406,3.90186z" fill="#000000" stroke="none" stroke-width="0" stroke-linecap="butt"/><path d="M298.39564,118.68302l1.65006,0.90003l-3.0751,3.45011z" fill="#000000" stroke="none" stroke-width="0" stroke-linecap="butt"/><path d="M301.09252,120.3702l1.75975,0.66032l-2.56213,3.84642z" fill="#000000" stroke="none" stroke-width="0" stroke-linecap="butt"/><path d="M304.31116,121.61157l1.84725,0.3469l-1.86033,4.23069z" fill="#000000" stroke="none" stroke-width="0" stroke-linecap="butt"/><path d="M307.45951,121.43301l1.87072,-0.1819l-0.60699,4.58161z" fill="#000000" stroke="none" stroke-width="0" stroke-linecap="butt"/><path d="M334.65845,113.99461c5.77846,0 10.53784,2.25371 10.53784,2.25371c0,0 -4.30936,5.50906 -10.08783,5.50906c-5.77847,0 -10.83785,-5.50906 -10.83785,-5.50906c0,0 4.60937,-2.25371 10.38783,-2.25371z" fill="#ffffff" stroke="#000000" stroke-width="1" stroke-linecap="butt"/><path d="M348.69262,117.80599c0,0 -9.99086,-3.8363 -14.51406,-3.90186c-3.5106,-0.05088 -10.25296,2.02382 -10.25296,2.02382c0,0 2.99768,-5.44237 9.65295,-5.88406c6.65527,-0.44168 15.11407,7.76212 15.11407,7.76212z" fill="#000000" stroke="none" stroke-width="0" stroke-linecap="butt"/><path d="M344.84762,123.0665l-3.0751,-3.45012l1.65006,-0.90003z" fill="#000000" stroke="none" stroke-width="0" stroke-linecap="butt"/><path d="M341.52808,124.91028l-2.56214,-3.84642l1.75975,-0.66032z" fill="#000000" stroke="none" stroke-width="0" stroke-linecap="butt"/><path d="M337.52014,126.2225l-1.86033,-4.23069l1.84726,-0.3469z" fill="#000000" stroke="none" stroke-width="0" stroke-linecap="butt"/><path d="M333.09499,125.86607l-0.607,-4.58161l1.87073,0.1819z" fill="#000000" stroke="none" stroke-width="0" stroke-linecap="butt"/><g fill="#000000" stroke-width="0" stroke-linecap="butt"><path d="M314.87223,137.65658c0,0 4.08596,1.17007 6.08435,1.17007c1.80388,0 5.38232,-1.17007 5.38232,-1.17007c0,0 -2.82342,3.62722 -5.49932,3.62722c-2.67589,0 -5.96735,-3.62722 -5.96735,-3.62722z" stroke="#000000"/><path d="M314.92553,137.6288c0.34268,-2.59805 4.88806,-18.14816 4.88806,-18.14816c0,0 -1.09566,6.58606 -1.88084,9.72678c-0.45497,1.81991 -0.99805,4.69481 -1.26891,6.91826c-0.18497,1.51839 0.17046,2.85786 0.17046,2.85786c0,0 -2.00282,-0.6416 -1.90876,-1.35474z" stroke="none"/><path d="M324.33504,138.51551c0.102,-0.86879 0.1381,-3.3807 0.07522,-4.06827c-0.11501,-1.2576 -0.32963,-2.55088 -0.43034,-3.37167c-0.19201,-1.56486 -0.89266,-7.71601 -0.89266,-7.71601c0,0 3.03608,13.62449 3.15654,14.1507c0.12045,0.52622 -2.01173,1.88227 -1.90876,1.00525z" stroke="none"/></g><path d="M306.3186,105.37085c3.88628,-0.33794 9.433,3.30636 9.433,3.30636c0,0 -6.26078,-1.90925 -9.39932,-1.63634c-3.46978,0.30172 -10.5255,3.36893 -10.5255,3.36893c0,0 6.60554,-4.70102 10.49181,-5.03896z" fill="#000000" stroke="none" stroke-width="0" stroke-linecap="butt"/><path d="M337.75239,105.2812c3.885,0.35228 8.70263,4.91709 8.70263,4.91709c0,0 -5.82629,-2.98277 -8.9638,-3.26726c-3.46865,-0.31452 -10.95449,1.46117 -10.95449,1.46117c0,0 7.33066,-3.46328 11.21565,-3.111z" fill="#000000" stroke="none" stroke-width="0" stroke-linecap="butt"/><path d="M334.38237,149.0098c0,0 -7.30111,5.38975 -14.25734,5.61262c-6.33438,0.20294 -14.25734,-5.61262 -14.25734,-5.61262c0,0 6.36539,-0.20655 9.02162,0.04359c1.7437,0.16421 5.36474,1.31117 5.36474,1.31117c0,0 4.13838,-1.04196 6.36537,-1.2555c2.45935,-0.23583 7.76295,-0.09926 7.76295,-0.09926z" fill="#8d8d8d" stroke="none" stroke-width="0" stroke-linecap="butt"/><path d="M332.60636,149.006c0,0 -2.6511,-0.13736 -6.03606,0.28431c-1.99524,0.24855 -4.24546,1.15197 -6.35801,1.15197c-1.89187,0 -4.27199,-1.08453 -6.2145,-1.27601c-3.90647,-0.38508 -6.93852,-0.02365 -6.93852,-0.02365c0,0 3.67249,-2.85348 7.32662,-3.054c1.42803,-0.07836 5.85678,1.55123 5.85678,1.55123c0,0 4.54267,-1.65294 6.59759,-1.49399c2.06625,0.15982 5.7661,2.86015 5.7661,2.86015z" fill="#bababa" stroke="none" stroke-width="0" stroke-linecap="butt"/><path d="M328.91178,152.25712c0,0 -6.33591,2.32715 -8.58777,2.37486c-2.36959,0.05021 -9.23576,-2.55133 -9.23576,-2.55133" fill="none" stroke="#000000" stroke-width="0.5" stroke-linecap="round"/><path d="M333.38237,149.02183c0,0 -2.94051,-0.34318 -6.25021,0.05134c-2.32576,0.27723 -4.83384,1.33561 -6.63195,1.3316c-1.57753,-0.00351 -3.68048,-1.00964 -5.81317,-1.24377c-3.87689,-0.42561 -7.71644,-0.19799 -7.71644,-0.19799" fill="none" stroke="#000000" stroke-width="0.5" stroke-linecap="round"/><path d="M327.73532,146.37477c0,0 -1.57821,-0.27498 -3.1002,-0.01535c-1.5558,0.2654 -4.25274,1.07567 -4.25274,1.07567c0,0 -3.46729,-0.88916 -4.72863,-1.10213c-1.52725,-0.25787 -2.44786,0.04181 -2.44786,0.04181" fill="none" stroke="#000000" stroke-width="0.5" stroke-linecap="round"/><g stroke="none" stroke-linecap="butt"><path d="M311.35906,113.27685c0,0 -0.17567,6.52443 -4.51014,6.68273c-3.93727,0.14378 -4.43039,-6.20889 -4.43039,-6.20889z" fill="#000000" stroke-width="0"/><path d="M311.86382,116.55824c0,0.46601 -0.64536,0.84378 -1.44145,0.84378c-0.7961,0 -1.44145,-0.37777 -1.44145,-0.84378c0,-0.46601 0.64536,-0.84378 1.44145,-0.84378c0.7961,0 1.44145,0.37777 1.44145,0.84378z" fill="#ffffff" stroke-width="NaN"/></g><g stroke="none" stroke-linecap="butt"><path d="M339.39968,113.78402c0,0 -0.49312,6.35268 -4.43039,6.20889c-4.33446,-0.15829 -4.51013,-6.68272 -4.51013,-6.68272z" fill="#000000" stroke-width="0"/><path d="M331.39585,115.7478c0.7961,0 1.44145,0.37777 1.44145,0.84378c0,0.466 -0.64536,0.84378 -1.44145,0.84378c-0.79609,0 -1.44145,-0.37777 -1.44145,-0.84378c0,-0.466 0.64536,-0.84378 1.44145,-0.84378z" fill="#ffffff" stroke-width="NaN"/></g></g></g></g></svg>