<svg version="1.1" xmlns="http://www.w3.org/2000/svg" xmlns:xlink="http://www.w3.org/1999/xlink" width="153.38348" height="280.93407" viewBox="0,0,153.38348,280.93407"><g transform="translate(-246.13902,-50.88042)"><g stroke-miterlimit="10"><path d="M252.07381,331.81449l2.16374,-279.82778h131.5249l-2.16374,279.82778z" fill-opacity="0.01" fill="#000000" stroke="none" stroke-width="2" stroke-linecap="butt"/><path d="M359.18306,98.42449c0,0 -24.1675,-10.83067 -11.61624,-19.81693c4.53979,-2.92183 20.97186,9.50779 20.97186,9.50779" fill="#000000" stroke="#ecec68" stroke-width="1" stroke-linecap="round"/><path d="M339.00003,173.15369l-5.19315,-29.59816c0,0 28.83304,-3.23969 35.08312,-5.6429c3.01341,-1.15868 -10.48997,-35.15894 -10.48997,-35.15894l14.8,-5.2c0,0 29.6822,45.6602 25.4,53.4c-5.13803,9.28664 -59.6,22.2 -59.6,22.2z" fill="#000000" stroke="#ecec68" stroke-width="1" stroke-linecap="butt"/><path d="M359.37502,104.50369l-6.375,-7.45l16.175,-8.375l6.75,11.95z" fill="#ecec68" stroke="none" stroke-width="0" stroke-linecap="butt"/><path d="M293.06874,330.39657c0,0 -15.96638,-62.31546 -20.86938,-84.08901c-5.38505,-23.91429 -20.94934,-75.93635 -20.94934,-75.93635c0,0 22.13617,-19.31765 48.58716,-26.37615c18.31681,-4.88788 45.01285,-2.69052 45.01285,-2.69052c0,0 0.10667,41.03834 3.83934,63.07872c5.73514,33.86448 28.37938,103.01331 28.37938,103.01331z" fill="#000000" stroke="#ecec68" stroke-width="1" stroke-linecap="round"/><path d="" fill="none" stroke="#ecec68" stroke-width="1" stroke-linecap="round"/><path d="M308.77083,214.06251c0,1.5533 -1.51104,2.8125 -3.375,2.8125c-1.86396,0 -3.375,-1.2592 -3.375,-2.8125c0,-1.5533 1.51104,-2.8125 3.375,-2.8125c1.86396,0 3.375,1.2592 3.375,2.8125z" fill="#000000" stroke="none" stroke-width="0" stroke-linecap="butt"/><path d="M264.00032,240.73384l-2.5,-50.75l12.75,-0.25l7.25,48.5z" fill="#000000" stroke="none" stroke-width="0" stroke-linecap="butt"/><path d="M268.42533,236.28384l18.65714,-3.31429l8.27857,19.44286c0,0 -0.96646,0.65272 -10.93699,4.26206c-10.02696,3.62977 -19.36076,4.7794 -25.34872,1.80937c-9.07134,-4.49938 -11.86693,-26.99455 -12.43631,-48.25372c-0.43527,-16.25153 0.22261,-31.78077 1.61131,-37.99628c1.48248,-6.63527 23.5,-16.5 23.5,-16.5" fill="#000000" stroke="#ecec68" stroke-width="1" stroke-linecap="round"/><path d="M280.50032,233.48384c0,0 -2.61111,-11.33547 -3.55488,-18.26853c-1.17276,-8.61529 -2.94512,-29.48147 -2.94512,-29.48147" fill="none" stroke="#ecec68" stroke-width="1" stroke-linecap="round"/><g fill="#000000" stroke="#ecec68" stroke-width="1" stroke-linecap="round"><path d="M312.11016,216.48215c0,0 1.49259,3.10291 2.87759,6.35536c1.00948,2.3706 3.07118,3.82847 1.6783,6.54864c-2.53684,4.95423 -13.43089,16.596 -13.43089,16.596c0,0 -4.61605,0.73147 -9.80747,-5.32666c-1.81704,-2.1204 -1.44253,-8.04834 -1.44253,-8.04834c0,0 -0.4495,-10.27575 0.87295,-12.81809c0.63753,-1.22561 1.67117,-3.6212 2.64427,-5.68065c0.55075,-1.1656 0.82723,-2.22354 1.63262,-2.90074c1.88472,-1.58475 4.97517,-0.47552 4.97517,-0.47552"/><path d="M306.98516,211.10715c0,0 1.14004,-0.68493 2.525,0.05c1.5693,0.83276 2.23563,4.02653 2.89177,7.09281c0.6955,3.25022 1.33323,6.35719 1.33323,6.35719"/><path d="M299.11016,218.85715c0,0 0.86436,-3.55024 2.32102,-6.59098c1.23644,-2.58102 3.00445,-4.79495 3.92898,-4.15902c1.4639,1.00693 1.77594,5.76622 2.30833,9.63418c0.39433,2.86491 1.19167,5.24082 1.19167,5.24082l-1.375,3.25"/></g><path d="M294.96431,253.14654l-9,-20.28571l5.85714,-2.42857l13.28571,19.71429z" fill="#ecec68" stroke="none" stroke-width="0" stroke-linecap="butt"/><path d="M346.40207,315.85869c0,0 -23.02968,-77.70039 -27.28237,-102.50778c-3.6571,-21.33306 -7.86968,-61.51758 -7.86968,-61.51758l17.66666,0.5c0,0 4.97759,43.73292 9.02503,65.03524c4.37195,23.01026 28.12702,92.49011 28.12702,92.49011z" fill="#ecec68" stroke="none" stroke-width="0" stroke-linecap="butt"/><path d="M321.01281,164.02314l-3.88816,-10.6349l9.56087,-0.33101l-1.71417,9.94749l8.06895,41.07748l-4.38898,9.55684l-7.74981,-9.65317z" fill="#000000" stroke="none" stroke-width="0" stroke-linecap="butt"/><path d="M358.06873,311.77536l-32.81872,-113.02536" fill="none" stroke="#000000" stroke-width="1.5" stroke-linecap="round"/><path d="M321.61521,215.41699l-35.83967,-44.15088l10.19923,-9.89826l-12.13322,-1.06076l11.51844,-16.03184" fill="none" stroke="#ecec68" stroke-width="1" stroke-linecap="round"/><path d="M343.65001,171.75l-3.2,-28.2l12.2,-0.8l2.6,24.2z" fill="#000000" stroke="none" stroke-width="0" stroke-linecap="butt"/><path d="M326.60528,142.6165l18.33681,14.9793l-7.72231,0.11008l6.31693,3.65582l-8.38866,49.68446" fill="none" stroke="#ecec68" stroke-width="1" stroke-linecap="round"/><g><path d="M334.74282,131.64417l1.32721,-9.95179l18.46355,2.46238l-1.32721,9.95179z" fill="#000000" stroke="none" stroke-width="0" stroke-linecap="butt"/><path d="M334.72902,144.19692c0,0 -2.67524,10.71679 -15.4459,9.31281c-12.98245,-1.42725 -24.85499,-8.37838 -24.85499,-8.37838c0,0 5.45578,-6.16193 5.84638,-13.31848c0.86503,-15.84864 -0.86105,-66.32338 -0.86105,-66.32338l7.28698,14.80713l9.9831,-24.53192l3.27458,15.7054l10.81806,-15.69559l2.7785,14.39283l8.09568,-17.92828l5.78975,16.97565l6.24607,-14.12408l3.4379,14.48076l7.35768,-14.91066l-6.33237,40.17018c0,0 6.68524,1.57674 6.63967,6.11729c-0.0435,4.33244 -7.09337,4.59644 -7.09337,4.59644" fill="#000000" stroke="#ecec68" stroke-width="1" stroke-linecap="round"/><path d="M342.61458,138.07226c0,0 11.3217,6.92619 6.95343,8.25008c-2.26043,0.68506 -10.6549,-0.6607 -18.49143,-0.96222" fill="#000000" stroke="#ecec68" stroke-width="1" stroke-linecap="round"/><path d="M356.36375,126.81845c0,0 16.56489,15.37899 13.79209,17.2196c-2.39311,1.58858 -15.41036,-0.90894 -25.87768,-2.15867c-17.38085,-2.07518 -34.77404,-4.63943 -34.77404,-4.63943" fill="#000000" stroke="#ecec68" stroke-width="1" stroke-linecap="round"/><path d="M343.07151,109.12793c0.84654,-6.34757 6.31019,-10.85615 12.2034,-10.07021c5.8932,0.78594 9.98434,6.56878 9.1378,12.91637c-0.84654,6.34758 -6.31019,10.85616 -12.20339,10.07021c-5.89322,-0.78594 -9.98434,-6.5688 -9.1378,-12.91639z" fill="#ecec68" stroke="#000000" stroke-width="1.5" stroke-linecap="butt"/><path d="M352.52725,112.1245c-0.99554,-0.13277 -1.68591,-1.11542 -1.54196,-2.19482c0.14395,-1.07939 1.0677,-1.84677 2.06326,-1.71401c0.99556,0.13277 1.68591,1.11543 1.54197,2.19482c-0.14395,1.07939 -1.06771,1.84677 -2.06326,1.714z" fill="#000000" stroke="none" stroke-width="0.5" stroke-linecap="butt"/><path d="M340.17579,116.35133c0,0 24.10433,0.07557 23.60536,6.51469c-0.5314,6.85765 -17.14342,4.16272 -17.14342,4.16272" fill="#000000" stroke="#ecec68" stroke-width="1" stroke-linecap="round"/><g stroke-linecap="butt"><path d="M322.40292,107.64855c0.99131,-7.43307 7.38928,-12.71268 14.29029,-11.79234c6.901,0.92035 11.69178,7.69214 10.70047,15.12521c-0.99131,7.43305 -7.3893,12.71268 -14.29031,11.79234c-6.901,-0.92035 -11.69175,-7.69214 -10.70044,-15.12521z" fill="#ecec68" stroke="#000000" stroke-width="1.5"/><path d="M335.16105,108.99156c-0.16358,1.22657 -1.2133,2.09861 -2.3446,1.94773c-1.13131,-0.15087 -1.91581,-1.26753 -1.75223,-2.49412c0.16359,-1.22659 1.2133,-2.09861 2.34461,-1.94774c1.13129,0.15087 1.91581,1.26751 1.75222,2.49409z" fill="#000000" stroke="none" stroke-width="0.5"/></g><g stroke="#ecec68" stroke-width="1" stroke-linecap="round"><path d="M302.12287,129.31396c0,0 -13.36822,7.23782 -7.95115,-14.17438c0.98951,-3.91124 7.91668,3.6015 7.91668,3.6015" fill="#000000"/><path d="M297.75883,118.5629c0,0 0.88393,3.24537 1.03562,4.58756c0.16199,1.43323 -0.09258,3.75654 -0.09258,3.75654" fill="none"/><path d="M295.87543,122.08042c0,0 1.0458,0.2432 1.38959,0.46276c0.49013,0.31304 1.58517,1.42749 1.58517,1.42749" fill="none"/></g></g></g></g></svg>