<svg version="1.1" xmlns="http://www.w3.org/2000/svg" xmlns:xlink="http://www.w3.org/1999/xlink" width="118.31718" height="108.75381" viewBox="0,0,118.31718,108.75381"><g transform="translate(-182.37964,-125.35917)"><g data-paper-data="{&quot;isPaintingLayer&quot;:true}" fill-rule="nonzero" stroke-linejoin="miter" stroke-miterlimit="10" stroke-dasharray="" stroke-dashoffset="0" style="mix-blend-mode: normal"><g data-paper-data="{&quot;index&quot;:null}" stroke-linecap="butt"><path d="M199.35124,209.34405c6.87139,-6.01316 10.27899,5.76176 17.16566,8.58578c5.58377,2.28974 11.501,-1.66911 11.501,-1.66911l6,4.41667c0,0 -8.25551,8.21796 -21.5,5.58333c-8.30273,-1.6516 -18.78523,-11.99986 -13.16667,-16.91667z" fill="#ecec68" stroke="#000000" stroke-width="2"/><path d="M202.94608,220.61132l-4.33946,-4.67008l8.14976,-7.57279l4.33946,4.67009z" fill="#000000" stroke="none" stroke-width="0"/><path d="M213.43217,226.40079l-5.50931,-2.08252l4.09743,-9.23928l4.50931,3.08252z" fill="#000000" stroke="none" stroke-width="0"/><path d="M226.69311,225.30025l-6.35739,1.72354l-1.57637,-8.46927l5.60739,-0.59853z" fill="#000000" stroke="none" stroke-width="0"/></g><g data-paper-data="{&quot;index&quot;:null}" stroke-linecap="butt"><path d="M257.17753,223.92605c-2.77457,0.98887 -6.94718,-2.13189 -8.55409,-6.64055c-1.60691,-4.50867 -0.03963,-8.69789 2.73492,-9.68677c2.77457,-0.98887 6.89346,2.62588 8.50038,7.13456c1.60692,4.50868 0.09336,8.20389 -2.68121,9.19276z" fill="#ecec68" stroke="#000000" stroke-width="2"/><path d="M251.06384,221.13419l9.09128,-2.82125c0,0 1.05317,4.19855 -2.67797,5.82361c-3.20515,1.39598 -6.41331,-3.00237 -6.41331,-3.00237z" fill="#000000" stroke="none" stroke-width="0"/><path d="M248.03021,214.55648l10.66027,-3.00056l1.19563,3.29575l-10.5604,3.46126z" fill="#000000" stroke="none" stroke-width="0"/></g><path d="M245.0857,220.75605c8.01324,-1.5791 10.16835,0.33631 9.33219,3.51607c-0.18902,0.7188 -1.84617,2.50048 -7.90782,3.25244c-6.63072,0.82255 -9.30662,0.74254 -9.43864,0.00629c-0.27823,-1.55163 -1.29115,-3.06704 -0.07008,-4.23272c1.089,-1.03959 4.14593,-1.76597 8.08436,-2.54208z" data-paper-data="{&quot;index&quot;:null}" fill="#c5c556" stroke="#9b9b44" stroke-width="3" stroke-linecap="butt"/><path d="M245.20234,223.41255c-6.65763,0.41491 -14.63256,0.89572 -14.85003,-0.10591c-0.8172,-3.76394 4.71059,-17.58622 4.71059,-17.58622l17.29801,-1.30709c0,0 6.24656,14.88747 6.58712,16.75827c0.34056,1.8708 -6.52812,1.79114 -13.74568,2.24096z" data-paper-data="{&quot;index&quot;:null}" fill="#000000" stroke="#6e6e30" stroke-width="3" stroke-linecap="butt"/><path d="M235.33192,226.89299c1.25279,-0.83629 4.50274,-1.23731 8.5305,-1.30635c8.16615,-0.13998 9.94936,2.12573 8.5651,5.10799c-0.31607,0.68095 -2.67971,1.87931 -8.59956,1.91835c-5.41204,0.03569 -9.04974,-1.03191 -9.04974,-1.77241c0,-1.57141 -0.84166,-3.01612 0.5537,-3.94758z" data-paper-data="{&quot;index&quot;:null}" fill="#c5c556" stroke="#9b9b44" stroke-width="3" stroke-linecap="butt"/><g data-paper-data="{&quot;index&quot;:null}" stroke-linecap="butt"><path d="M234.45453,210.07055c2.93877,0.1995 5.58325,3.8068 5.25907,8.58226c-0.32416,4.77548 -3.49424,8.91075 -6.43299,8.71127c-2.93877,-0.1995 -5.3976,-3.34586 -5.07344,-8.12135c0.32416,-4.77548 3.30859,-9.37168 6.24735,-9.17217z" fill="#ecec68" stroke="#000000" stroke-width="2"/><path d="M233.04928,227.64793c-4.032,-0.55247 -4.15675,-4.87928 -4.15675,-4.87928l9.51568,0.25041c0,0 -1.89534,5.10348 -5.35895,4.62888z" fill="#000000" stroke="none" stroke-width="0"/><path d="M239.31624,219.83215l-11.1033,-0.46808l0.2572,-3.49646l11.07449,-0.00243z" fill="#000000" stroke="none" stroke-width="0"/></g><g><path d="M242.41852,210.81787c-47.19531,2.01619 -57.93735,-25.91048 -57.93735,-25.91048c0,0 7.81038,-4.66408 12.16846,-11.66459c10.82903,-17.50007 15.20508,-43.91376 43.90566,-44.91752c27.47892,-0.96103 34.4839,27.17097 46.10841,42.82909c5.25516,7.07864 12.19519,8.42086 12.19519,8.42086c0,0 -10.07726,29.26201 -56.44037,31.24264z" fill="#ecec68" stroke="none" stroke-width="0" stroke-linecap="butt"/><path d="M277.54264,189.88319c-2.60166,0.10611 -4.8137,-2.3326 -4.94071,-5.44702c-0.12703,-3.11441 1.87907,-5.72516 4.48074,-5.83127c2.60166,-0.10611 4.8137,2.33259 4.94071,5.44701c0.12703,3.11441 -1.87907,5.72517 -4.48073,5.83128z" data-paper-data="{&quot;index&quot;:null}" fill="#6e6e30" stroke="none" stroke-width="0" stroke-linecap="butt"/><path d="M192.96461,177.86145c2.09775,-2.18711 3.1566,-5.29395 4.97419,-7.64136c3.72508,-4.81089 5.927,-15.36392 11.7241,-23.89586c7.25345,-10.67528 18.05778,-16.3079 18.05778,-16.3079c0,0 -14.33899,18.35985 -14.26987,36.61192c0.12091,31.92204 18.51557,42.94782 18.51557,42.94782c0,0 -18.29844,-0.41367 -30.43865,-7.55748c-11.70427,-6.88727 -16.24107,-18.39516 -16.24107,-18.39516c0,0 4.22712,-2.16422 7.67794,-5.762z" fill="#cbcb6a" stroke="none" stroke-width="0" stroke-linecap="butt"/><g data-paper-data="{&quot;index&quot;:null}" stroke="none" stroke-width="0" stroke-linecap="butt"><path d="M266.5537,139.44166c0,0 0.42297,-1.52202 0.96649,-3.72346c0.74509,-3.01788 2.16201,-7.18407 7.09355,-9.28248c6.19459,-2.63584 12.34207,0.06851 15.04532,2.75526c2.58085,2.5651 6.7437,8.6554 2.03338,17.23203c-2.58671,4.70995 -7.9982,6.27607 -11.68033,7.16374c-2.70921,0.65313 -4.24374,1.15877 -4.24374,1.15877l-9.21463,-15.30387z" fill="#000000"/><path d="M277.9946,147.98254c-3.81679,0.15567 -7.03712,-2.81226 -7.19279,-6.62905c-0.15567,-3.81679 2.81226,-7.03712 6.62905,-7.19279c3.81679,-0.15567 7.03712,2.81226 7.19279,6.62905c0.15567,3.81679 -2.81226,7.03712 -6.62905,7.19279z" fill="#cbcb6a"/></g><path d="M242.27579,210.82369c-47.19531,2.01619 -57.93735,-25.91048 -57.93735,-25.91048c0,0 7.00842,-2.40238 12.83456,-11.69176c10.93453,-17.43435 14.53897,-43.88659 43.23954,-44.89036c27.47892,-0.96103 34.4839,27.17097 46.10841,42.82909c5.25516,7.07864 12.19519,8.42086 12.19519,8.42086c0,0 -10.07726,29.26201 -56.44037,31.24264z" data-paper-data="{&quot;index&quot;:null}" fill="none" stroke="#000000" stroke-width="3" stroke-linecap="butt"/><g data-paper-data="{&quot;index&quot;:null}" stroke="none" stroke-width="0" stroke-linecap="butt"><path d="M212.72488,141.63708l-7.93777,16.00343c0,0 -1.5706,-0.379 -4.32401,-0.80933c-3.7422,-0.58488 -9.26324,-1.70509 -12.22491,-6.18876c-5.39311,-8.16457 -1.74006,-14.57364 0.62333,-17.34039c2.47547,-2.89795 8.3823,-6.09395 14.77098,-3.97132c5.08602,1.68984 6.83752,5.7268 7.8259,8.67398c0.72098,2.14986 1.26649,3.63238 1.26649,3.63238z" fill="#000000"/><path d="M194.82472,144.45221c-0.15567,-3.81679 2.81226,-7.03712 6.62905,-7.19279c3.81679,-0.15567 7.03712,2.81226 7.19279,6.62905c0.15567,3.81679 -2.81226,7.03712 -6.62905,7.19279c-3.81679,0.15567 -7.03712,-2.81226 -7.19279,-6.62905z" fill="#cbcb6a"/></g><path d="M245.65309,128.56647c0,0 0.83702,10.24732 0.67685,15.44494c-0.21224,6.88692 -2.04729,11.97738 -2.04729,11.97738c0,0 -3.15228,-4.73236 -5.79925,-10.30897c-3.50562,-7.38559 -5.55664,-16.38573 -5.55664,-16.38573l10.27649,-1.19962z" data-paper-data="{&quot;index&quot;:null}" fill="#000000" stroke="none" stroke-width="0" stroke-linecap="butt"/><path d="M228.30738,146.86168c0,0 1.51529,-7.22847 11.63195,-7.51597c9.86599,-0.28038 15.8452,6.3953 15.8452,6.3953z" data-paper-data="{&quot;index&quot;:null}" fill="#000000" stroke="none" stroke-width="0" stroke-linecap="butt"/><path d="M224.27457,138.25102c0,0 2.41097,-8.4803 14.18226,-8.83529c11.47961,-0.34619 17.79116,7.53124 17.79116,7.53124z" data-paper-data="{&quot;index&quot;:null}" fill="#000000" stroke="none" stroke-width="0" stroke-linecap="butt"/><g data-paper-data="{&quot;index&quot;:null}" fill="#000000" stroke="none" stroke-width="0" stroke-linecap="butt"><path d="M292.03505,189.71099c0,0 -2.9298,0.50709 -10.52315,-1.16986c-5.18926,-1.14603 -7.33172,-4.10691 -7.33172,-4.10691c0,0 4.63467,-0.54911 9.18591,-2.46153c5.42291,-2.2787 9.01346,-5.28655 9.01346,-5.28655c0,0 5.11422,2.2147 5.06264,4.16466c-0.0615,2.32526 -5.40714,8.8602 -5.40714,8.8602z"/><path d="M290.44846,191.61339c0,0 -3.8337,1.65539 -3.19258,2.59674c-0.02733,0.01607 -0.05457,0.03229 -0.08173,0.0486c-1.5586,0.93707 -2.83625,2.2853 -3.68886,3.88841c-1.04953,1.19055 -1.94966,2.18487 -2.56641,2.5079c-0.73382,0.38437 -2.26185,1.20607 -3.05069,1.66224c-1.32046,-0.72262 -3.54664,-1.88766 -5.76024,-3.86399c-3.91915,-3.49904 -3.72337,-6.62977 -3.72337,-6.62977c0,0 3.93742,1.32935 8.32869,1.53032c5.23231,0.23948 13.73518,-1.74047 13.73518,-1.74047z"/><path d="M268.03806,202.41704c1.82678,1.0491 4.07429,1.03572 5.1334,1.64213c-0.26063,0.05487 -2.58161,1.33727 -2.79846,1.43587c-2.58913,1.17736 -4.891,1.97495 -7.02798,3.2349c-0.46673,-1.10831 -0.98124,-2.45902 -1.52412,-4.09132c-1.49343,-4.49026 -0.20826,-7.48005 -0.20826,-7.48005c0,0 2.31246,2.89644 6.42541,5.25846z"/></g><g data-paper-data="{&quot;index&quot;:null}" fill="#000000" stroke="none" stroke-width="0" stroke-linecap="butt"><path d="M191.89417,193.54506c0,0 -5.86006,-6.07791 -6.11072,-8.39044c-0.21021,-1.93929 4.70667,-4.5631 4.70667,-4.5631c0,0 3.82358,2.70547 9.41404,4.53499c4.69185,1.53544 9.35586,1.70531 9.35586,1.70531c0,0 -1.89421,3.12552 -6.97291,4.69033c-7.43157,2.28976 -10.39293,2.02293 -10.39293,2.02293z"/><path d="M192.74595,195.09779c0,0 9.52034,1.49505 14.71577,0.8303c4.36033,-0.55791 8.1764,-2.20348 8.1764,-2.20348c0,0 0.45008,3.10437 -3.17111,6.91096c-2.04531,2.15002 -4.16922,3.49247 -5.42646,4.32024c-0.82337,-0.39042 -2.41322,-1.08495 -3.17591,-1.40829c-0.53068,-0.22496 -3.49474,0.32304 -4.38983,-0.52499c-0.18606,-0.17626 1.82442,-1.57609 1.62772,-1.76559c-0.98032,-1.52834 -4.0764,-1.82247 -5.70615,-2.6295c-0.02841,-0.01406 -0.82663,-0.49701 -0.85518,-0.51081c0.56234,-0.99044 -1.79524,-3.01883 -1.79524,-3.01883z"/><path d="M211.86354,206.30938c1.00621,-0.69064 3.24736,-0.86034 4.98264,-2.05472c3.90695,-2.6891 5.97585,-5.76424 5.97585,-5.76424c0,0 1.52439,2.87521 0.40157,7.47217c-0.40815,1.67107 -0.81096,3.0592 -1.18588,4.20183c-2.23247,-1.08173 -4.59166,-1.68923 -7.26805,-2.65183c-0.22415,-0.08062 -2.64186,-1.16976 -2.90611,-1.20321z"/></g><path d="M218.94588,192.38604c-2.60166,0.10611 -4.8137,-2.3326 -4.94071,-5.44702c-0.12703,-3.11441 1.87907,-5.72516 4.48074,-5.83127c2.60166,-0.10611 4.8137,2.33259 4.94071,5.44701c0.12703,3.11441 -1.87907,5.72517 -4.48073,5.83128z" data-paper-data="{&quot;index&quot;:null}" fill="#6e6e30" stroke="none" stroke-width="0" stroke-linecap="butt"/><g data-paper-data="{&quot;index&quot;:null}" fill="#000000" stroke="none" stroke-width="0" stroke-linecap="butt"><path d="M267.85752,153.82716c4.09761,-0.16712 7.70783,6.7698 8.06365,15.49405c0.35582,8.72425 -2.67751,15.93212 -6.77511,16.09924c-4.09761,0.16712 -7.70783,-6.7698 -8.06365,-15.49405c-0.35582,-8.72425 2.67751,-15.93212 6.77511,-16.09924z"/><path d="M273.46954,172.72559c0,0 0.87006,-0.04607 2.07395,-0.24308c1.61625,-0.26449 3.70804,-0.5512 3.90296,1.01606c0.16714,1.34396 -1.87098,2.54699 -3.52193,3.42063c-1.26754,0.67075 -2.23557,1.18614 -2.23557,1.18614c0,0 -3.67217,-0.49052 -3.72475,-1.77988c-0.05258,-1.28937 3.50534,-3.59986 3.50534,-3.59986z"/></g><g data-paper-data="{&quot;index&quot;:null}" fill="#000000" stroke="none" stroke-width="0" stroke-linecap="butt"><path d="M233.588,171.45447c0.35582,8.72425 -2.67751,15.93212 -6.77511,16.09924c-4.09761,0.16712 -7.70783,-6.7698 -8.06365,-15.49405c-0.35582,-8.72425 2.67751,-15.93212 6.77511,-16.09924c4.09761,-0.16712 7.70783,6.7698 8.06365,15.49405z"/><path d="M225.2568,178.55554c0.05258,1.28936 -3.56744,2.07729 -3.56744,2.07729c0,0 -1.00679,-0.43486 -2.32474,-1.00015c-1.71662,-0.73629 -3.84593,-1.76935 -3.78878,-3.12245c0.06663,-1.57793 2.17482,-1.46252 3.80724,-1.33051c1.21595,0.09832 2.08687,0.07338 2.08687,0.07338c0,0 3.73428,2.01309 3.78686,3.30244z"/></g><path d="M269.79135,159.4875c1.60559,-0.06549 3.02104,2.67305 3.16149,6.11671c0.14045,3.44366 -1.04728,6.28837 -2.65287,6.35386c-1.60559,0.06549 -3.02104,-2.67306 -3.16149,-6.11672c-0.14045,-3.44365 1.04728,-6.28836 2.65287,-6.35385z" data-paper-data="{&quot;index&quot;:null}" fill="#ffffff" stroke="none" stroke-width="0" stroke-linecap="butt"/><path d="M227.86755,160.90689c1.60559,-0.06549 3.02104,2.67305 3.16149,6.11671c0.14045,3.44365 -1.04728,6.28837 -2.65287,6.35386c-1.60559,0.06549 -3.02104,-2.67306 -3.16149,-6.11672c-0.14045,-3.44365 1.04728,-6.28836 2.65287,-6.35385z" data-paper-data="{&quot;index&quot;:null}" fill="#ffffff" stroke="none" stroke-width="0" stroke-linecap="butt"/><path d="M248.06965,187.68001c-5.58613,0.22784 -10.33569,-5.00843 -10.60842,-11.69551c-0.27273,-6.68708 4.03463,-12.29273 9.62076,-12.52057c5.58613,-0.22784 10.33569,5.00843 10.60842,11.69551c0.27273,6.68708 -4.03463,12.29273 -9.62076,12.52057z" data-paper-data="{&quot;index&quot;:null}" fill="#6e6e30" stroke="none" stroke-width="0" stroke-linecap="butt"/><path d="M267.29815,179.34288c-0.88457,0.03608 -1.63667,-0.79308 -1.67985,-1.85198c-0.04319,-1.0589 0.63888,-1.94655 1.52345,-1.98262c0.88457,-0.03608 1.63667,0.79307 1.67985,1.85197c0.04319,1.0589 -0.63888,1.94656 -1.52345,1.98263z" data-paper-data="{&quot;index&quot;:null}" fill="#6e6e30" stroke="none" stroke-width="0" stroke-linecap="butt"/><path d="M224.82585,181.52699c-0.88457,0.03608 -1.63667,-0.79308 -1.67985,-1.85198c-0.04319,-1.0589 0.63888,-1.94655 1.52345,-1.98262c0.88457,-0.03608 1.63667,0.79307 1.67985,1.85197c0.04319,1.0589 -0.63888,1.94656 -1.52345,1.98263z" data-paper-data="{&quot;index&quot;:null}" fill="#6e6e30" stroke="none" stroke-width="0" stroke-linecap="butt"/><path d="M255.74738,178.71251c0,0 -1.54545,3.05177 -5.09785,2.72424c-2.48541,-0.22916 -3.22571,-3.8281 -3.22571,-3.8281c0,0 -0.12844,3.13665 -2.66047,3.92042c-3.57046,1.10523 -4.99222,-2.33442 -4.99222,-2.33442" data-paper-data="{&quot;index&quot;:null}" fill="none" stroke="#000000" stroke-width="2" stroke-linecap="round"/><g data-paper-data="{&quot;index&quot;:null}" stroke="none" stroke-width="0" stroke-linecap="butt"><path d="M247.28744,166.51783c3.41467,-0.13927 6.068,2.13861 6.16231,4.45107c0.09431,2.31246 -3.05685,6.96467 -5.82756,7.22773c-2.77151,0.26315 -6.16113,-4.42246 -6.25545,-6.73492c-0.09431,-2.31246 2.50602,-4.8046 5.92069,-4.94388z" fill="#000000"/><path d="M243.59339,170.52361c-0.03906,-0.95767 0.79831,-1.96163 3.63553,-1.96992c2.90802,-0.0085 4.02745,0.6981 4.06652,1.6558c0.03906,0.95768 -1.65343,1.80437 -3.7803,1.89111c-2.12686,0.08674 -3.88267,-0.61929 -3.92174,-1.57698z" fill="#ffffff"/></g></g></g></g></svg>