<svg version="1.1" xmlns="http://www.w3.org/2000/svg" xmlns:xlink="http://www.w3.org/1999/xlink" width="128.47078" height="256.0266" viewBox="0,0,128.47078,256.0266"><g transform="translate(-256.8586,-51.9867)"><g stroke-miterlimit="10"><path d="M261.23755,308.0133v-256.0266h117.5249v256.0266z" fill-opacity="0.01" fill="#000000" stroke="none" stroke-width="2" stroke-linecap="butt"/><path d="M381.30422,276.85289c0,6.92408 -5.61307,12.53715 -12.53715,12.53715c-6.92408,0 -12.53715,-5.61307 -12.53715,-12.53715c0,-6.92408 5.61308,-12.53715 12.53715,-12.53715c6.92408,0 12.53715,5.61307 12.53715,12.53715z" fill="#ffffff" stroke="#000000" stroke-width="1.5" stroke-linecap="butt"/><path d="M287.09988,276.14987c0,6.92408 -5.61307,12.53715 -12.53715,12.53715c-6.92408,0 -12.53715,-5.61307 -12.53715,-12.53715c0,-6.92408 5.61308,-12.53715 12.53715,-12.53715c6.92408,0 12.53715,5.61307 12.53715,12.53715z" fill="#ffffff" stroke="#000000" stroke-width="1.5" stroke-linecap="butt"/><path d="M349.83538,162.97839c11.70638,-2.32294 17.36579,7.54597 25.21189,47.08616c7.84608,39.54019 15.09819,65.03593 3.39179,67.35887c-2.45172,0.4865 -17.75901,3.49541 -20.12294,1.65727c-8.92325,-6.93856 -8.86526,-31.86041 -15.06812,-63.11951c-7.84608,-39.54019 -5.11902,-50.65985 6.58737,-52.98279z" fill="#c5c556" stroke="#8d8d3e" stroke-width="1.5" stroke-linecap="butt"/><path d="M298.31552,214.08646c-6.20285,31.2591 -6.14487,56.18095 -15.06812,63.11951c-2.36393,1.83815 -16.73385,-0.93643 -19.18558,-1.42293c-11.7064,-2.32294 -5.39165,-28.05302 2.45443,-67.59321c7.8461,-39.54019 13.5055,-49.40909 25.21189,-47.08616c11.7064,2.32294 14.43346,13.4426 6.58737,52.98279z" fill="#c5c556" stroke="#8d8d3e" stroke-width="1.5" stroke-linecap="butt"/><path d="M351.6017,201.80575c0,30.18768 -7.306,46.92643 -34.09636,46.92643c-26.79034,0 -27.7692,-15.68423 -27.7692,-45.8719c0,-30.18768 2.7364,-54.65962 29.52674,-54.65962c26.79036,0 32.33881,23.41742 32.33881,53.6051z" fill="#c5c556" stroke="none" stroke-width="1.5" stroke-linecap="butt"/><path d="M364.95903,259.10169c0,29.41114 -18.65687,42.21637 -46.02813,41.57568c-22.87638,-0.53547 -42.5521,-9.70398 -42.5521,-39.11512c0,-14.54963 1.07598,-35.60164 9.3496,-51.38577c8.45098,-16.12247 19.32285,-29.63702 33.00721,-29.63702c15.59108,0 27.95613,11.95605 37.43185,31.29319c6.98351,14.25126 8.79156,34.79015 8.79156,47.26904z" fill="#c5c556" stroke="none" stroke-width="1.5" stroke-linecap="butt"/><path d="M362.30323,276.43977c0,0 -2.08145,8.54947 -10.57893,15.8899c-7.07568,6.11223 -18.88736,11.24246 -34.98053,11.23522c-25.67017,-0.01156 -37.55287,-20.41269 -37.55287,-24.45358c0,-4.04089 17.07873,17.92587 38.72455,17.92587c21.64583,0 44.38776,-20.59741 44.38776,-20.59741z" fill="#979742" stroke="none" stroke-width="1.5" stroke-linecap="butt"/><path d="M365.56444,182.06267c0,18.50735 -20.42389,33.5105 -45.61803,33.5105c-25.19414,0 -45.61803,-15.00317 -45.61803,-33.5105c0,-18.50735 20.42389,-33.5105 45.61803,-33.5105c25.19414,0 45.61803,15.00317 45.61803,33.5105z" fill="#c5c556" stroke="none" stroke-width="1.5" stroke-linecap="butt"/><path d="M315.86065,200.41996c0,0 -10.82428,8.89672 -21.49894,7.2594c-10.67466,-1.63731 -16.06386,-12.25128 -16.06386,-12.25128c0,0 6.90324,7.97543 17.5779,9.61274c10.67466,1.63731 19.98488,-4.62086 19.98488,-4.62086z" fill="#b6b650" stroke="none" stroke-width="1.5" stroke-linecap="butt"/><path d="M345.72083,204.53165c10.51644,-2.45633 16.78353,-10.94078 16.78353,-10.94078c0,0 -4.5539,10.99826 -15.07034,13.45459c-10.51644,2.45633 -21.9951,-5.5784 -21.9951,-5.5784c0,0 9.76546,5.52092 20.28192,3.06459z" fill="#b6b650" stroke="none" stroke-width="1.5" stroke-linecap="butt"/><path d="M327.24998,203.69999c0,0 -2.76511,-1.39244 -6.56149,-1.39244c-3.79638,0 -7.1864,1.39244 -7.1864,1.39244c0,0 3.07756,-2.81207 6.87394,-2.81207c3.79638,0 6.87395,2.81207 6.87395,2.81207z" fill="#b6b650" stroke="none" stroke-width="1.5" stroke-linecap="butt"/><path d="M289.6663,206.74466c0,0 -13.87746,-4.95085 -15.51214,-23.06008c-1.63006,-18.05797 13.8249,-25.30754 13.8249,-25.30754" fill="none" stroke="#8d8d3e" stroke-width="1.5" stroke-linecap="round"/><path d="M352.50392,154.87932c0,5.35808 -14.37366,9.70164 -32.10447,9.70164c-17.73081,0 -32.10448,-4.34358 -32.10448,-9.70164c0,-5.35808 14.37367,-9.70164 32.10448,-9.70164c17.73081,0 32.10447,4.34358 32.10447,9.70164z" fill="#b0b04d" stroke="none" stroke-width="0" stroke-linecap="butt"/><path d="M349.13257,156.81438c1.02579,12.00307 -29.28423,25.48024 -29.28423,25.48024c0,0 -27.8358,-13.4876 -29.30026,-24.66341c-0.38338,-2.92583 10.72251,-8.79221 28.87143,-9.54268c20.96892,1.02416 29.57202,7.07549 29.71306,8.72584z" fill="#ffffff" stroke="none" stroke-width="1.5" stroke-linecap="butt"/><path d="M305.09918,168.66214c6.64734,5.08505 14.68207,13.59359 14.68207,13.59359c0,0 -9.61018,0.82311 -20.63839,-9.50781c-14.4471,-13.53361 -8.779,-15.7134 -7.6519,-17.18679c1.12709,-1.47338 6.96086,8.01595 13.60821,13.101z" fill="#b0b04d" stroke="none" stroke-width="1.5" stroke-linecap="butt"/><path d="M349.30728,155.43499c1.13243,1.5515 6.94923,3.94006 -8.32165,17.61339c-11.65706,10.43755 -21.58628,9.36158 -21.58628,9.36158c0,0 8.51577,-8.62078 15.51553,-13.72994c6.99978,-5.10914 13.25995,-14.79654 14.39239,-13.24504z" fill="#b0b04d" stroke="none" stroke-width="1.5" stroke-linecap="butt"/><path d="M319.45307,184.69612c0,0 -0.13223,-5.459 0.67053,-9.31551c0.66711,-3.20477 4.17225,-7.55014 4.17225,-7.55014c0,0 -2.9199,4.32095 -3.35555,7.65425c-0.51708,3.95622 0.09984,9.28725 0.09984,9.28725z" fill="#bfbfbf" stroke="none" stroke-width="1.5" stroke-linecap="butt"/><path d="M293.59938,157.62612c0.95769,2.87306 0.63918,5.5671 -0.7114,6.0173c-1.3506,0.4502 -3.22182,-1.51392 -4.1795,-4.38698c-0.95769,-2.87306 -0.63918,-5.5671 0.71141,-6.0173c1.3506,-0.4502 3.2218,1.51392 4.1795,4.38698z" fill="#b0b04d" stroke="none" stroke-width="0" stroke-linecap="butt"/><path d="M349.95349,163.42355c-2.68225,4.42783 -6.14885,7.23452 -7.74285,6.26891c-1.59401,-0.96561 -0.71185,-5.33786 1.9704,-9.76569c2.68225,-4.42783 6.14885,-7.2345 7.74285,-6.26889c1.59401,0.96561 0.71185,5.33784 -1.9704,9.76567z" fill="#b0b04d" stroke="none" stroke-width="0" stroke-linecap="butt"/><path d="M346.12989,166.50255c0,0.8298 -5.62199,6.75743 -11.67098,11.58753c-4.70642,3.75807 -8.96848,6.85169 -15.57901,6.36286c-11.52776,-0.85247 -23.27354,-15.06893 -23.27354,-16.54434c0,-1.47541 18.232,14.01349 23.21813,14.01349c4.98612,0 27.3054,-16.89493 27.3054,-15.41953z" fill="#b0b04d" stroke="none" stroke-width="1.5" stroke-linecap="butt"/><path d="M296.26253,169.9239l0.09374,-9.84225" fill="none" stroke="#8d8d3e" stroke-width="0.5" stroke-linecap="round"/><path d="M352.12899,158.67565c0,0 -4.6302,9.7909 -14.41763,16.87467c-11.11533,8.86418 -18.01493,8.90264 -18.01493,8.90264h0.18747c0,0 -6.80586,0.05527 -17.92119,-8.80891c-5.94425,-4.74038 -9.68231,-8.91272 -13.10532,-16.21852c-1.34456,-2.86973 -0.36768,-6.66173 1.40604,-7.59259c2.14984,-1.12826 6.80906,-6.28717 29.62881,-6.56218c37.02181,-0.44618 32.23675,13.31113 32.23675,13.31113z" fill="none" stroke="#8d8d3e" stroke-width="1.5" stroke-linecap="round"/><path d="M347.44221,154.83247c0,0 -4.95388,7.22649 -8.66264,10.83328c-4.99497,4.85766 -18.61445,16.16259 -18.61445,16.16259c0,0 -14.08815,-11.49241 -19.08312,-16.35007c-3.70876,-3.6068 -8.66264,-10.83328 -8.66264,-10.83328" fill="none" stroke="#8d8d3e" stroke-width="1.5" stroke-linecap="round"/><path d="M301.1368,165.51833l-0.09374,9.84225" fill="none" stroke="#8d8d3e" stroke-width="1.5" stroke-linecap="round"/><path d="M307.04215,171.14247l-0.18747,8.155" fill="none" stroke="#8d8d3e" stroke-width="1.5" stroke-linecap="round"/><path d="M344.25518,159.51924l0.09374,9.84225" fill="none" stroke="#8d8d3e" stroke-width="0.5" stroke-linecap="round"/><path d="M340.13085,173.95454l-0.09374,-9.84225" fill="none" stroke="#8d8d3e" stroke-width="1.5" stroke-linecap="round"/><path d="M334.13176,169.73644l0.18748,8.155" fill="none" stroke="#8d8d3e" stroke-width="1.5" stroke-linecap="round"/><path d="M313.88483,177.04782l-0.18748,5.43667" fill="none" stroke="#8d8d3e" stroke-width="1.5" stroke-linecap="round"/><path d="M319.97768,183.98426v-2.15592" fill="none" stroke="#8d8d3e" stroke-width="1.5" stroke-linecap="round"/><path d="M328.32015,181.26592v-5.90535" fill="none" stroke="#8d8d3e" stroke-width="1.5" stroke-linecap="round"/><path d="M292.51313,165.4246l-0.09374,-9.74852" fill="none" stroke="#8d8d3e" stroke-width="0.5" stroke-linecap="round"/><path d="M347.25471,165.23712l0.09374,-9.56104" fill="none" stroke="#8d8d3e" stroke-width="0.5" stroke-linecap="round"/><path d="M352.76383,159.2162c0,0 15.17749,7.81382 12.88352,25.79951c-2.3005,18.03675 -16.35086,21.91075 -16.35086,21.91075" fill="none" stroke="#8d8d3e" stroke-width="1.5" stroke-linecap="round"/><path d="M353.1973,205.55911c0,0 6.69322,13.81781 9.86967,31.29631c1.25134,6.88554 1.6491,19.78664 1.08374,28.18768c-0.59966,8.91076 -3.29832,13.91106 -3.29832,13.91106c0,0 -9.17621,25.41256 -40.90588,24.66436c-34.46245,-0.81265 -40.65014,-24.03946 -40.65014,-24.03946c0,0 -2.22999,-4.84407 -2.82965,-13.75484c-0.56537,-8.40103 -0.32384,-20.67724 0.92751,-27.56278c3.17644,-17.47851 9.55722,-32.07745 9.55722,-32.07745" fill="none" stroke="#8d8d3e" stroke-width="1.5" stroke-linecap="round"/><path d="M361.50255,277.36062c0,0 -20.63492,18.88092 -42.02588,19.13877c-24.33094,0.29328 -40.30531,-17.73273 -40.30531,-17.73273" fill="none" stroke="#8d8d3e" stroke-width="1.5" stroke-linecap="round"/><path d="M289.79478,293.9206l-0.78114,-7.03018" fill="none" stroke="#8d8d3e" stroke-width="1.5" stroke-linecap="round"/><path d="M302.13663,300.32586l0.15622,-6.24904" fill="none" stroke="#8d8d3e" stroke-width="1.5" stroke-linecap="round"/><path d="M319.94642,296.88889v5.78037" fill="none" stroke="#8d8d3e" stroke-width="1.5" stroke-linecap="round"/><path d="M336.1939,300.95077l-0.15622,-7.81131" fill="none" stroke="#8d8d3e" stroke-width="1.5" stroke-linecap="round"/><path d="M349.1607,287.20287l-0.31245,6.24904" fill="none" stroke="#8d8d3e" stroke-width="1.5" stroke-linecap="round"/><path d="M356.19086,286.2655l0.46867,-4.843" fill="none" stroke="#8d8d3e" stroke-width="1.5" stroke-linecap="round"/><path d="M319.9118,177.57386c0,0 -0.53621,-2.82777 -1.43323,-4.77048c-0.75577,-1.63682 -2.94119,-3.38222 -2.94119,-3.38222c0,0 2.48893,1.66436 3.34265,3.19839c1.02734,1.846 1.83214,4.66182 1.83214,4.66182z" fill="#bfbfbf" stroke="none" stroke-width="1.5" stroke-linecap="butt"/><path d="M293.35005,154.47029c0,0 17.60001,-7.63363 26.79972,-7.65036c9.13314,-0.0166 26.50027,7.65036 26.50027,7.65036" fill="none" stroke="#000000" stroke-width="1" stroke-linecap="round"/><path d="M347.11974,102.51826c0,19.42379 -12.09525,35.16988 -27.01553,35.16988c-14.92027,0 -27.01552,-15.74609 -27.01552,-35.16988c0,-19.42379 12.09525,-34.6609 27.01552,-34.6609c14.92027,0 27.01553,15.23711 27.01553,34.66091z" fill="#000000" stroke="none" stroke-width="1" stroke-linecap="butt"/><path d="M331.35391,79.36543c0.16422,6.06505 -5.02188,4.48636 -11.82444,4.48636c-6.80254,0 -12.80979,1.57869 -12.80979,-4.48636c0,-6.86618 5.84301,-5.44772 12.64557,-5.44772c6.80254,0 11.78545,-2.05675 11.98865,5.44772z" fill="#c5c556" stroke="#9b9b44" stroke-width="1" stroke-linecap="butt"/><path d="M333.01057,82.78079c18.3296,0 28.86932,16.73146 28.86932,36.37533c0,13.72539 -21.8295,35.51067 -21.8295,35.51067c0,0 -40.2285,-16.67378 -40.2285,-36.31764c0,-19.64386 14.85908,-35.56836 33.18869,-35.56836z" fill="#000000" stroke="none" stroke-width="1" stroke-linecap="butt"/><path d="M339.74744,117.58552c0,19.64386 -40.2285,36.31764 -40.2285,36.31764c0,0 -21.8295,-21.78529 -21.8295,-35.51067c0,-19.64386 10.53972,-36.37533 28.86932,-36.37533c18.3296,0 33.18869,15.9245 33.18869,35.56836z" fill="#000000" stroke="none" stroke-width="1" stroke-linecap="butt"/><path d="M286.44568,130.37302c-1.35259,-5.84597 -1.52456,-9.90758 0.50095,-10.17136c2.02551,-0.2638 2.82047,2.4196 3.89453,8.50574c1.07406,6.08613 3.42285,10.80182 3.42285,10.80182c0,0 -6.53282,-3.58022 -7.81833,-9.1362z" fill="#ffffff" stroke="#000000" stroke-width="1" stroke-linecap="butt"/><path d="M292.66585,135.49076c0,0 -3.71844,-2.97588 -4.50547,-8.60236c-0.43904,-3.13864 2.2503,-2.32111 2.2503,-2.32111" fill="none" stroke="#000000" stroke-width="0.5" stroke-linecap="round"/><path d="M349.46279,128.7074c1.07405,-6.08613 1.86899,-8.76953 3.89452,-8.50574c2.02552,0.26379 1.85354,4.32539 0.50095,10.17136c-1.28551,5.55598 -7.92501,9.24929 -7.92501,9.24929c0,0 2.4555,-4.82879 3.52955,-10.91493z" fill="#ffffff" stroke="#000000" stroke-width="1" stroke-linecap="butt"/><path d="M349.89322,124.5673c0,0 2.68935,-0.81754 2.25031,2.32111c-0.78703,5.62649 -4.50547,8.60236 -4.50547,8.60236" fill="none" stroke="#000000" stroke-width="0.5" stroke-linecap="round"/><path d="M349.0536,90.66144c0,6.06164 -13.38199,10.97557 -29.88952,10.97557c-16.50753,0 -29.88952,-4.91392 -29.88952,-10.97557c0,-6.06164 13.38199,-10.97557 29.88952,-10.97557c16.50753,0 29.88952,4.91392 29.88952,10.97557z" fill="#000000" stroke="none" stroke-width="1" stroke-linecap="butt"/><path d="M310.42187,80.16133c0,0 -3.15637,1.4633 -7.9934,2.31171c-4.83703,0.8484 -9.83545,3.18757 -9.83545,3.18757c0,0 5.48947,-3.55324 10.32649,-4.40164c4.83703,-0.8484 7.50235,-1.09763 7.50235,-1.09763z" fill="#f5f5f5" stroke="none" stroke-width="1" stroke-linecap="butt"/><path d="M336.71561,81.74394c4.81935,0.93932 10.2375,4.59526 10.2375,4.59526c0,0 -4.95124,-2.43285 -9.77057,-3.37217c-4.81935,-0.93932 -7.8705,-2.70128 -7.8705,-2.70128c0,0 2.58424,0.53887 7.40358,1.47819z" fill="#f5f5f5" stroke="none" stroke-width="1" stroke-linecap="butt"/><path d="M327.42664,80.29225c0,0 -3.67125,-0.19576 -7.70493,-0.19576c-4.03368,0 -7.70494,0.03916 -7.70494,0.03916c0,0 3.59098,-0.50898 7.62466,-0.50898c4.03368,0 7.78519,0.66559 7.78519,0.66559z" fill="#f5f5f5" stroke="none" stroke-width="1" stroke-linecap="butt"/><path d="M319.1341,81.64413l2.30539,-0.09395l-0.84822,26.76693z" fill="#151515" stroke="none" stroke-width="1" stroke-linecap="butt"/><path d="M291.41856,129.11372c-0.60212,-7.4242 0.34953,-17.46253 0.34953,-17.46253c0,0 1.80006,-5.15033 9.37205,-5.54309c7.29192,-0.5476 19.42442,1.86996 19.42442,1.86996c0,0 9.34051,-2.33477 17.541,-2.82136c4.96935,-0.29486 10.02794,0.88174 10.88115,1.39731c2.90361,1.75457 0.91422,15.53364 0.58912,21.19137c-0.27593,3.61975 -5.45519,15.30887 -9.61769,26.07545c-2.47384,6.39875 -3.09556,12.47164 -5.65086,16.3311c-6.85488,10.35342 -14.99247,11.07975 -14.99247,11.07975c0,0 -10.43395,-5.75701 -14.4162,-12.3134c-1.89708,-3.12337 -2.65689,-9.34024 -4.64721,-14.87135c-2.18764,-6.07948 -8.50397,-20.8787 -8.83281,-24.9332z" fill="#ffffff" stroke="#000000" stroke-width="1" stroke-linecap="butt"/><g><path d="M333.51771,165.39068c0,0 -9.65816,12.52772 -13.56123,12.52772c-3.04688,0 -13.56123,-12.52772 -13.56123,-12.52772c0,0 2.47407,-6.62513 8.38775,-9.09274c2.57172,-1.0731 4.94363,1.0425 4.94363,1.0425c0,0 2.22061,-2.04941 5.14503,-1.10944c4.59297,1.47627 8.64604,9.15969 8.64604,9.15969z" fill="#8d8d8d" stroke="none" stroke-width="0" stroke-linecap="butt"/><path d="M333.51771,165.39068c0,0 -9.65816,8.97028 -13.56123,8.97028c-3.04688,0 -13.56123,-8.97028 -13.56123,-8.97028c0,0 2.47407,-9.93724 8.38775,-12.40485c2.57172,-1.0731 4.94363,1.04251 4.94363,1.04251c0,0 2.22061,-2.04941 5.14503,-1.10945c4.59297,1.47627 8.64604,12.47179 8.64604,12.47179z" fill="#bababa" stroke="none" stroke-width="0" stroke-linecap="butt"/><path d="M325.12925,174.42785c0,0 -3.14366,3.36889 -5.06081,3.404c-1.71891,0.09828 -5.27349,-3.41122 -5.27349,-3.41122" fill="none" stroke="#000000" stroke-width="0.5" stroke-linecap="round"/><path d="M312.86233,153.86121c0,0 1.84244,-1.26326 3.7063,-1.07347c1.69599,0.15676 3.27489,1.11787 3.27489,1.11787c0,0 1.63678,-0.96439 3.22044,-1.15973c1.93564,-0.12976 3.5399,1.36067 3.5399,1.36067" fill="none" stroke="#000000" stroke-width="0.5" stroke-linecap="round"/><path d="M333.51771,165.39068c0,0 -9.65816,8.97028 -13.56123,8.97028c-3.04688,0 -13.56123,-8.97028 -13.56123,-8.97028c0,0 2.47407,-6.62513 8.38775,-9.09274c2.57172,-1.0731 4.94363,1.0425 4.94363,1.0425c0,0 2.22061,-2.04941 5.14503,-1.10944c4.59297,1.47627 8.64604,9.15969 8.64604,9.15969z" fill="#000000" stroke="none" stroke-width="0" stroke-linecap="butt"/><path d="M311.39876,159.04383c0,0 2.47693,-2.61276 4.88791,-2.75321c1.4774,-0.08606 3.42157,1.5265 3.42157,1.5265c0,0 1.72382,-1.6806 3.8739,-1.49346c3.03758,0.26439 4.89527,2.76105 4.89527,2.76105c0,0 -2.91454,1.8229 -8.81978,1.90072c-4.89173,0.06446 -8.25888,-1.94161 -8.25888,-1.94161z" fill="#ffffff" stroke="none" stroke-width="0" stroke-linecap="butt"/><path d="M309.5437,167.49136c0,0 3.75772,1.42962 10.31777,1.39027c6.81555,-0.04089 10.82855,-1.39027 10.82855,-1.39027c0,0 -4.01466,3.21451 -7.24391,5.08056c-1.37184,0.79273 -2.89495,1.34211 -3.43141,1.2983c-2.62867,-0.21465 -10.47101,-6.37887 -10.47101,-6.37887z" fill="#ffffff" stroke="none" stroke-width="0" stroke-linecap="butt"/></g><g fill="#000000" stroke-width="0" stroke-linecap="butt"><path d="M314.82832,150.871c0,0 3.92288,1.19108 5.8415,1.19108c1.73188,0 5.16749,-1.19108 5.16749,-1.19108c0,0 -2.71073,3.69236 -5.27982,3.69236c-2.56909,0 -5.72917,-3.69236 -5.72917,-3.69236z" stroke="#000000"/><path d="M314.87949,150.84272c0.329,-2.6447 4.69296,-18.47405 4.69296,-18.47405c0,0 -1.05193,6.70433 -1.80577,9.90145c-0.43681,1.85259 -0.95821,4.77912 -1.21826,7.04249c-0.17759,1.54566 0.16366,2.90918 0.16366,2.90918c0,0 -1.92288,-0.65312 -1.83258,-1.37907z" stroke="none"/><path d="M323.91342,151.74535c0.09793,-0.88439 0.13259,-3.44141 0.07222,-4.14133c-0.11042,-1.28018 -0.31647,-2.59669 -0.41316,-3.43222c-0.18435,-1.59296 -0.85703,-7.85457 -0.85703,-7.85457c0,0 2.9149,13.86915 3.03055,14.40481c0.11564,0.53567 -1.93144,1.91607 -1.83258,1.0233z" stroke="none"/></g><g stroke-linecap="butt"><path d="M294.96256,132.07041l2.82967,-1.72497c0,0 1.1884,-10.12939 9.10791,-10.02321c8.85542,-0.40766 10.20296,10.76272 10.20296,10.76272c0,0 -7.5397,-7.21189 -11.36238,-7.16485c-7.44137,0.45813 -7.16994,9.13321 -7.16994,9.13321z" fill="#000000" stroke="none" stroke-width="0"/><path d="M301.16096,136.4064l1.52331,1.34388l-4.00746,2.05498z" fill="#000000" stroke="none" stroke-width="0"/><path d="M303.20262,139.0892l1.69285,1.16683l-3.56044,2.57637z" fill="#000000" stroke="none" stroke-width="0"/><path d="M306.01939,140.37853l1.98251,0.49468l-2.29675,3.72239z" fill="#000000" stroke="none" stroke-width="0"/><path d="M308.82522,141.07749l1.9015,-0.82653l0.49677,4.26253z" fill="#000000" stroke="none" stroke-width="0"/><path d="M306.46657,118.18851c-3.39252,2.68315 -7.61934,0.27518 -7.61934,0.27518c0,0 4.54609,0.47488 6.98656,-1.45531c2.26478,-1.79121 3.84597,-6.89716 3.84597,-6.89716c0,0 0.1793,5.39415 -3.21322,8.07729z" fill="#000000" stroke="none" stroke-width="0"/><path d="M316.50976,131.38305c0,0 -4.04487,9.88234 -9.03447,9.88234c-4.9896,0 -9.03447,-8.88161 -9.03447,-8.88161c0,0 0.5447,-11.16072 9.1474,-10.88307c7.13357,0.23023 8.92154,9.88234 8.92154,9.88234z" fill="#ffffff" stroke="#000000" stroke-width="1"/><g stroke="none"><path d="M306.85488,134.25177c-1.9669,0.08303 -2.54931,-5.94089 -0.02804,-5.97767c2.70187,-0.03938 2.19337,5.88624 0.02804,5.97767z" fill="#000000" stroke-width="0"/><path d="M309.2239,132.28729c0,0.26915 -0.32241,0.48735 -0.72009,0.48735c-0.3977,0 -0.72009,-0.21819 -0.72009,-0.48735c0,-0.26915 0.32241,-0.48735 0.72009,-0.48735c0.3977,0 0.72009,0.21819 0.72009,0.48735z" fill="#ffffff" stroke-width="NaN"/></g></g><g stroke-linecap="butt"><path d="M342.29749,133.63499c0,0 0.27144,-8.67507 -7.16994,-9.13321c-3.82268,-0.04704 -11.36238,7.16485 -11.36238,7.16485c0,0 1.34754,-11.17038 10.20296,-10.76272c7.91951,-0.10617 9.10791,10.02322 9.10791,10.02322l2.82967,1.72497z" fill="#000000" stroke="none" stroke-width="0"/><path d="M342.19146,140.38695l-4.00746,-2.05498l1.52331,-1.34388z" fill="#000000" stroke="none" stroke-width="0"/><path d="M339.53323,143.41409l-3.56043,-2.57637l1.69285,-1.16683z" fill="#000000" stroke="none" stroke-width="0"/><path d="M335.16312,145.17728l-2.29676,-3.72238l1.98251,-0.49468z" fill="#000000" stroke="none" stroke-width="0"/><path d="M329.64479,145.09518l0.49677,-4.26253l1.9015,0.82653z" fill="#000000" stroke="none" stroke-width="0"/><path d="M334.40171,118.77021c-3.39251,-2.68314 -3.21322,-8.07729 -3.21322,-8.07729c0,0 1.58121,5.10595 3.84598,6.89716c2.44048,1.93019 6.98656,1.45531 6.98656,1.45531c0,0 -4.22681,2.40797 -7.61934,-0.27518z" fill="#000000" stroke="none" stroke-width="0"/><path d="M324.35849,131.96474c0,0 1.78797,-9.65211 8.92154,-9.88234c8.6027,-0.27764 9.1474,10.88307 9.1474,10.88307c0,0 -4.04487,8.88161 -9.03447,8.88161c-4.98959,0 -9.03447,-9.88234 -9.03447,-9.88234z" fill="#ffffff" stroke="#000000" stroke-width="1"/><g stroke="none"><path d="M334.04144,128.85579c2.52127,0.03677 1.93886,6.0607 -0.02804,5.97766c-2.16532,-0.09143 -2.67382,-6.01705 0.02804,-5.97766z" fill="#000000" stroke-width="0"/><path d="M332.36448,132.38163c0.3977,0 0.7201,0.2182 0.7201,0.48735c0,0.26916 -0.32241,0.48735 -0.7201,0.48735c-0.3977,0 -0.72009,-0.2182 -0.72009,-0.48735c0,-0.26916 0.3224,-0.48735 0.72009,-0.48735z" fill="#ffffff" stroke-width="NaN"/></g></g><path d="M296.67397,115.33892c0.36003,0 0.36003,0.38173 0.36003,0.38173l-0.01075,0.38343c-0.4242,1.79908 -2.58445,3.24798 -3.28786,0.63519c-0.31758,-1.17965 -0.12976,-3.41402 0.27266,-4.5051c0,0 0.13371,-0.35443 0.46799,-0.21266c0.33428,0.14177 0.20057,0.4962 0.20057,0.4962c-0.3462,0.89345 -0.53722,2.96125 -0.27597,3.9294c0.52562,1.9478 1.66099,0.58745 1.92404,-0.52819l-0.01075,-0.19826c0,0 0,-0.38173 0.36003,-0.38173z" fill="#000000" stroke="none" stroke-width="0.5" stroke-linecap="butt"/><path d="M297.28173,121.82733c0.16102,0.34143 -0.16102,0.51215 -0.16102,0.51215l-0.18074,0.07391c-1.79733,1.71682 -1.8437,-0.95183 -1.84901,-2.16042c0,0 0,-0.38173 0.36003,-0.38173c0.36003,0 0.36003,0.38173 0.36003,0.38173c-0.00116,0.31405 -0.34165,2.89079 0.61978,1.62057l0.36788,-0.21693c0,0 0.32202,-0.17072 0.48304,0.17072z" fill="#000000" stroke="none" stroke-width="0.5" stroke-linecap="butt"/></g></g></svg>