<svg version="1.1" xmlns="http://www.w3.org/2000/svg" xmlns:xlink="http://www.w3.org/1999/xlink" width="364" height="107" viewBox="0,0,364,107"><defs><linearGradient x1="320" y1="128.5" x2="320" y2="232.00007" gradientUnits="userSpaceOnUse" id="color-1"><stop offset="0" stop-color="#68682e"/><stop offset="1" stop-color="#303015"/></linearGradient><linearGradient x1="205.00001" y1="184.68669" x2="205.00001" y2="224.51155" gradientUnits="userSpaceOnUse" id="color-2"><stop offset="0" stop-color="#000000" stop-opacity="0"/><stop offset="1" stop-color="#000000" stop-opacity="0.54118"/></linearGradient><linearGradient x1="205.00005" y1="136.43664" x2="205.00005" y2="213.01155" gradientUnits="userSpaceOnUse" id="color-3"><stop offset="0" stop-color="#1c1c00" stop-opacity="0.55294"/><stop offset="1" stop-color="#1c1c00" stop-opacity="0"/></linearGradient><linearGradient x1="205.50004" y1="225.26155" x2="205.50004" y2="148.68664" gradientUnits="userSpaceOnUse" id="color-4"><stop offset="0" stop-color="#1c1c00" stop-opacity="0.30196"/><stop offset="1" stop-color="#1c1c00" stop-opacity="0"/></linearGradient><linearGradient x1="205.00001" y1="136.35121" x2="205.00001" y2="224.51155" gradientUnits="userSpaceOnUse" id="color-5"><stop offset="0" stop-color="#ffff94"/><stop offset="1" stop-color="#cccc48"/></linearGradient><linearGradient x1="528.45359" y1="140.09999" x2="528.45359" y2="224.26204" gradientTransform="translate(-175.09035,-115.9037) scale(0.65947,0.5703)" gradientUnits="userSpaceOnUse" id="color-6"><stop offset="0" stop-color="#ffffff"/><stop offset="1" stop-color="#fdff9d"/></linearGradient></defs><g transform="translate(-128.25,-126.75006)"><g stroke-miterlimit="10"><g><path d="M130,232.00007v-103.5h360.5v103.5z" fill="url(#color-1)" fill-rule="nonzero" stroke="#252510" stroke-width="3.5" stroke-linecap="butt" stroke-linejoin="miter"/><path d="M178.43044,136.35121h53.13923c10.38871,0 18.75214,8.13434 18.75214,18.23841v51.68346c0,10.10407 -8.36346,18.23841 -18.75214,18.23841h-53.13923c-10.38868,0 -18.75217,-8.13434 -18.75217,-18.23841v-51.68346c0,-10.10407 8.36349,-18.23841 18.75217,-18.23841z" fill="#6e6e30" fill-rule="evenodd" stroke="none" stroke-width="4.43922" stroke-linecap="round" stroke-linejoin="round"/><path d="M250.32181,206.27312c0,10.10407 -8.36346,18.23841 -18.75214,18.23841h-53.13923c-10.38868,0 -18.75217,-8.13434 -18.75217,-18.23841v-21.58645c18.06815,0.09223 37.35897,0.267 55.17088,0.26802c11.82421,0.00067 23.64844,-0.01273 35.47267,-0.02123z" fill="url(#color-2)" fill-rule="nonzero" stroke="none" stroke-width="4.43922" stroke-linecap="butt" stroke-linejoin="miter"/><path d="M178.08754,137.11356c0,0 -8.05558,7.54324 -8.33307,16.46965c-0.39756,12.78921 -0.72638,28.41772 -4.23301,28.76861c-3.3171,0.33192 -3.1024,-13.4702 -3.68173,-25.86175c-0.15377,-3.28895 -0.41765,-6.47361 -0.70454,-9.27859c1.42204,-1.11792 2.41833,-2.75301 2.70544,-4.62186c1.43487,-0.64268 2.62425,-1.73534 3.38863,-3.09846c1.72237,-0.26413 3.24631,-1.1306 4.35002,-2.37761z" fill="#ffff94" fill-rule="nonzero" stroke="none" stroke-width="0" stroke-linecap="butt" stroke-linejoin="miter"/><path d="M173.87431,176.14523c0,0 6.70989,25.51523 0.85457,25.90687c-5.94419,0.39758 -0.85457,-25.90687 -0.85457,-25.90687z" fill="#ffff94" fill-rule="nonzero" stroke="none" stroke-width="0" stroke-linecap="butt" stroke-linejoin="miter"/><path d="M168.40225,143.12109l33.94565,-0.53584c0,0 -5.57733,5.56766 -7.78635,11.82991c-2.27466,6.44833 -1.28589,13.60084 -8.63226,13.89521c-8.41127,0.17652 -7.96475,-8.31966 -10.28204,-15.29332c-1.84531,-5.55325 -7.24499,-9.89597 -7.24499,-9.89597z" fill="#ffff94" fill-rule="nonzero" stroke="none" stroke-width="0" stroke-linecap="butt" stroke-linejoin="miter"/><path d="M242.09982,151.45893c-3.25619,1.37412 -8.07183,-3.02822 -14.07533,-3.36357c-2.58811,-0.14457 -5.24849,3.73357 -8.34538,3.75489c-4.83421,0.03328 -5.6472,-3.46288 -11.48056,-3.42075c-7.79407,0.05629 -4.00009,-4.18622 -9.49016,-4.49126c-0.42824,-0.02379 -24.597,6.85293 -25.01175,6.84039c-2.99325,-0.09046 -1.94054,3.2349 -1.75522,6.73721c0.20318,3.8398 -0.37096,7.86283 -2.10977,7.12443c-0.81208,-0.34486 -0.36059,-2.54418 -0.82566,-4.66289c-0.23623,-1.07622 -1.35855,-2.02338 -1.67223,-2.91793c-1.39706,-3.98409 -3.03493,-9.07612 -4.18643,-12.30446c0.33771,-0.66924 3.31758,-3.90073 4.08196,-5.26384c0.8436,-0.12937 3.49582,-1.8574 5.99779,-2.54651c2.6063,-0.71785 4.58168,-0.60551 7.41855,-0.70534c6.76077,-0.23791 16.23925,-0.00124 22.09277,-0.00124c6.53791,0 18.3667,-0.42877 26.08862,-0.1798c5.45191,0.17578 7.76055,0.63839 7.76055,0.63839c0.86962,0.60266 2.39767,1.43803 3.48551,1.61591c0.53296,0.36334 1.11657,0.65789 1.73805,0.87089c0.86764,1.2608 2.12147,2.23522 3.59075,2.75252c0.30513,0.49566 0.66788,0.95206 1.07891,1.35987c0.34515,0.98806 0.89686,1.87919 1.60337,2.62165c0.117,0.33569 0.25784,0.6602 0.42048,0.97152c-1.31449,1.66683 -3.33672,3.27518 -6.40482,4.56993z" fill="#ffff94" fill-rule="nonzero" stroke="none" stroke-width="0" stroke-linecap="butt" stroke-linejoin="miter"/><path d="M233.3039,152.76149c0,0 6.47815,19.04953 0.82506,19.34192c-5.7389,0.29684 -0.82506,-19.34192 -0.82506,-19.34192z" fill="#ffff94" fill-rule="nonzero" stroke="none" stroke-width="0" stroke-linecap="butt" stroke-linejoin="miter"/><path d="M250.19977,175.48807c0,0 -6.46264,-3.98442 -6.06614,-10.95027c0.34262,-6.01924 2.06458,-13.45753 3.5806,-19.03993c0.11797,0.1446 0.24138,0.28459 0.36991,0.41966c0.29857,0.85662 0.75235,1.6405 1.32767,2.31794c0.14332,0.75783 0.40384,1.47423 0.76201,2.12962z" fill="#ffff94" fill-rule="nonzero" stroke="none" stroke-width="0" stroke-linecap="butt" stroke-linejoin="miter"/><path d="M250.32182,212.76477c-11.82423,-0.0085 -72.5754,0.15456 -90.64355,0.24679v-58.33645c0,-10.10407 8.36349,-18.23841 18.75217,-18.23841h53.13923c10.38868,0 18.75214,8.13434 18.75214,18.23841z" fill="url(#color-3)" fill-rule="nonzero" stroke="none" stroke-width="4.43922" stroke-linecap="butt" stroke-linejoin="miter"/><path d="M250.82181,207.02312c0,10.10407 -8.36346,18.23841 -18.75214,18.23841h-53.13923c-10.38868,0 -18.75217,-8.13434 -18.75217,-18.23841v-58.33645c18.06815,0.09223 78.81932,0.25529 90.64355,0.24679z" fill="url(#color-4)" fill-rule="nonzero" stroke="none" stroke-width="4.43922" stroke-linecap="butt" stroke-linejoin="miter"/><path d="M178.43044,136.35121h53.13923c10.38871,0 18.75214,8.13434 18.75214,18.23841v51.68346c0,10.10407 -8.36346,18.23841 -18.75214,18.23841h-53.13923c-10.38868,0 -18.75217,-8.13434 -18.75217,-18.23841v-51.68346c0,-10.10407 8.36349,-18.23841 18.75217,-18.23841z" fill="none" fill-rule="evenodd" stroke="url(#color-5)" stroke-width="2.5" stroke-linecap="round" stroke-linejoin="round"/><text transform="translate(265.5,203.23135) scale(1.51636,1.75345)" font-size="40" xml:space="preserve" fill="url(#color-6)" fill-rule="nonzero" stroke="none" stroke-width="1" stroke-linecap="butt" stroke-linejoin="miter" font-family="&quot;Allan-Bold&quot;, Sans Serif" font-weight="normal" text-anchor="start"><tspan x="0" dy="0">Kids Table</tspan></text><g fill-rule="nonzero" stroke-linejoin="miter"><path d="M237.25304,167.79566c0,2.0261 0.05937,7.19007 -0.35523,9.09968c-0.83592,3.85025 -2.00384,7.589 -4.29075,10.98302c-0.97117,1.4413 -5.98777,13.50398 -7.19233,14.57263c-5.73,5.08345 -12.0846,6.93978 -20.77937,6.93978c-6.06722,0 -13.60734,-0.93699 -18.95669,-6.44548c-3.34124,-3.44063 -5.14395,-11.19497 -7.30445,-13.82915c-2.36947,-2.88896 -4.41238,-5.93608 -4.61557,-10.33037c-0.14415,-3.1174 0.72587,-5.72481 0.72587,-8.52324c0,-1.47023 -0.65066,-6.0351 -0.42932,-7.44685c0.22135,-1.41177 1.74042,-4.48626 2.62428,-7.12256c0.7017,-2.09298 1.26006,-4.35393 2.37668,-5.83564c2.35718,-3.12789 6.46897,-4.70945 10.05482,-6.37466c5.16686,-2.3994 10.32098,-4.16309 16.64566,-4.16309c2.74435,0 5.40465,0.96842 7.93621,1.60933c3.92425,0.9935 7.78993,1.02044 10.92935,3.21576c2.30565,1.61228 5.41177,3.44483 7.10473,5.8091c2.17042,3.0311 2.63255,5.00894 3.78504,8.46508c0.81522,2.44472 1.74105,6.68758 1.74105,9.3767z" fill="#1c1c00" stroke="none" stroke-width="0" stroke-linecap="butt"/><path d="M180.74743,181.74897c-0.50638,-6.3996 0.29396,-15.05256 0.29396,-15.05256c0,0 2.99269,-0.03619 12.20938,-2.75898c7.08084,-2.09184 18.02967,-8.32477 18.02967,-8.32477c0,0 -1.89539,2.63684 -2.99026,3.91366c-1.16397,1.35741 -3.50366,4.00386 -3.50366,4.00386c0,0 6.87761,-1.46327 12.87667,-4.14983c7.51849,-3.10252 9.29463,-5.31142 11.36362,-4.02996c2.44191,1.51243 0.90385,20.34216 0.63043,25.21907c-0.36997,4.97457 -2.22288,8.33571 -2.7643,10.9864c-0.54143,2.65071 -0.35942,5.38471 -1.9359,14.07437c-0.25207,1.3895 -2.43803,5.70986 -6.69399,8.87066c-3.53025,2.62184 -8.75846,4.28943 -13.00583,4.24348c-4.60553,-0.04983 -9.76995,-1.69275 -13.46386,-4.35854c-4.82112,-3.47924 -7.57826,-8.34815 -7.80013,-10.10659c-0.66431,-5.26517 -0.68138,-8.69445 -0.9851,-13.37999c-0.22199,-3.42453 -1.98413,-5.65534 -2.26068,-9.15028z" fill="#fcff63" stroke="#1c1c00" stroke-width="1.5" stroke-linecap="butt"/><path d="M218.33801,167.42321c0,0 1.29336,0.44052 3.58722,1.42348c2.09518,0.89782 3.6878,1.99615 3.6878,1.99615l0.04436,1.04018c0,0 -2.05795,-2.51552 -8.97925,-2.78511c-5.53411,-0.21554 1.65986,-1.6747 1.65986,-1.6747z" fill="#1c1c00" stroke="none" stroke-width="1.5" stroke-linecap="butt"/><path d="M198.03081,206.02052c3.65462,0.73704 8.55491,2.01524 8.55491,2.01524c0,0 4.15612,-1.11685 6.06345,-1.3168c1.47869,-0.15502 8.0513,-0.50719 8.08308,-0.23959c0.03107,0.26163 -6.48296,9.26038 -15.18095,8.93506c-9.88433,-0.31283 -16.41313,-10.86494 -16.38596,-10.98635c0.02717,-0.12141 5.21088,0.85542 8.8655,1.59246z" fill="#fcff63" stroke="#1c1c00" stroke-width="1.9" stroke-linecap="butt"/><path d="M211.10113,202.71192c0.38688,0.14369 2.0915,0.94919 4.08581,1.7607c2.0102,0.81798 4.89282,1.55525 4.8796,1.6689c-0.01679,0.14423 -7.07763,0.15393 -9.27837,0.42883c-1.84424,0.23037 -4.53674,0.47862 -4.53674,0.47862c0,0 -4.81847,-0.78794 -9.0023,-1.65852c-3.35319,-0.69773 -7.05357,-1.12667 -7.0608,-1.19011c-0.00977,-0.08554 2.62381,-0.48205 4.62866,-0.94596c0.7772,-0.33685 3.68962,-1.00732 3.68962,-1.00732c0,0 3.36142,-0.18835 5.16048,0.39271c1.92768,0.6226 1.92324,1.65877 2.0912,1.6747c0,0 0.80331,-1.18653 1.60674,-1.42751c0.80342,-0.24098 3.4471,-0.28237 3.73612,-0.17504z" fill="#fcff63" stroke="#1c1c00" stroke-width="1.4" stroke-linecap="butt"/><path d="M204.81886,199.39781c-0.79154,0 -2.70908,-2.49648 -2.89943,-4.10693c-0.17031,-1.44092 1.00697,-2.93104 2.89943,-2.93104c1.89247,0 3.2175,0.37577 3.08571,3.2071c-0.11184,2.40287 -1.19326,3.83086 -3.08571,3.83086z" fill="#fcff63" stroke="#1c1c00" stroke-width="1.15" stroke-linecap="butt"/><path d="M206.57,180.66262c0,0 0.05686,2.19995 0.0032,3.9494c-0.10626,3.46421 -0.59932,15.38425 -0.59932,15.38425l-1.65237,0.00479c0,0 -0.44496,-2.31243 -0.62246,-5.26454c-0.24025,-3.99594 -0.24909,-9.02926 -0.42307,-10.87969c-0.16491,-1.75404 -0.49651,-3.16684 -0.49651,-3.16684" fill="#fcff63" stroke="#1c1c00" stroke-width="1.3" stroke-linecap="round"/><path d="M182.23881,190.63181c0,0 -4.32778,-3.08611 -5.40887,-7.87532c-1.13751,-5.03917 -1.28214,-8.54025 0.4213,-8.76763c1.70343,-0.22741 2.37199,2.08569 3.27526,7.33188c0.90328,5.24619 1.71232,9.31107 1.71232,9.31107z" fill="#fcff63" stroke="#1c1c00" stroke-width="1" stroke-linecap="butt"/><path d="M182.06105,187.16793c0,0 -3.12717,-2.56517 -3.78906,-7.41516c-0.36923,-2.70548 1.89248,-2.00078 1.89248,-2.00078" fill="none" stroke="#1c1c00" stroke-width="0.25" stroke-linecap="round"/><path d="M184.70521,181.32757c0.06223,-4.29248 4.2455,-7.84117 8.96018,-7.77282c4.71467,0.06836 7.92114,3.72786 7.85891,8.02035c-0.06223,4.29248 -3.61826,7.71683 -8.33294,7.64848c-4.71467,-0.06836 -8.54839,-3.60352 -8.48615,-7.89601z" fill="#fcff63" stroke="#1c1c00" stroke-width="1.4" stroke-linecap="butt"/><path d="M186.64388,182.03474c0.05475,-3.77721 3.16118,-6.79483 6.93837,-6.74008c3.77721,0.05475 6.79483,3.1612 6.74008,6.93839c-0.05475,3.77721 -3.16118,6.79483 -6.93838,6.74008c-3.77721,-0.05475 -6.79483,-3.1612 -6.74008,-6.93839z" fill="#1c1c00" stroke="none" stroke-width="1.5" stroke-linecap="butt"/><path d="M208.44632,181.32822c0.17859,-4.28923 3.90706,-7.77304 8.57332,-7.77304c4.66625,0 8.13814,3.48011 8.13814,7.77304c0,4.29293 -3.40973,7.95958 -8.51116,8.02173c-4.85239,0.05914 -8.3868,-3.54229 -8.20029,-8.02173z" fill="#fcff63" stroke="#1c1c00" stroke-width="1.4" stroke-linecap="butt"/><path d="M208.88747,182.43118c0,-3.97542 3.2227,-7.19812 7.19812,-7.19812c3.97542,0 7.19811,3.2227 7.19811,7.19812c0,3.97542 -3.22269,7.19812 -7.19811,7.19812c-3.97542,0 -7.19812,-3.2227 -7.19812,-7.19812z" fill="#1c1c00" stroke="none" stroke-width="1.5" stroke-linecap="butt"/><path d="M229.82684,181.32072c0.90328,-5.24619 1.5718,-7.55927 3.27526,-7.33189c1.70344,0.2274 1.55882,3.72846 0.42131,8.76764c-1.0811,4.7892 -5.40888,7.87533 -5.40888,7.87533c0,0 0.80905,-4.06488 1.71232,-9.31107z" fill="#fcff63" stroke="#1c1c00" stroke-width="1" stroke-linecap="butt"/><path d="M230.18887,177.75199c0,0 2.26172,-0.70471 1.89249,2.00078c-0.66188,4.84999 -3.78907,7.41516 -3.78907,7.41516" fill="none" stroke="#1c1c00" stroke-width="0.25" stroke-linecap="round"/><path d="M191.87381,179.53499c0,0.77884 -0.60332,1.41023 -1.34754,1.41023c-0.74422,0 -1.34754,-0.63139 -1.34754,-1.41023c0,-0.77884 0.60331,-1.41022 1.34754,-1.41022c0.74422,0 1.34754,0.63138 1.34754,1.41022z" fill="#fcff63" stroke="none" stroke-width="0" stroke-linecap="butt"/><path d="M197.26399,185.834c0,0.2423 -0.19643,0.43873 -0.43874,0.43873c-0.2423,0 -0.43873,-0.19643 -0.43873,-0.43873c0,-0.2423 0.19643,-0.43874 0.43873,-0.43874c0.2423,0 0.43874,0.19644 0.43874,0.43874z" fill="#fcff63" stroke="none" stroke-width="0" stroke-linecap="butt"/><path d="M221.08106,180.16175c0,0.77884 -0.60331,1.41022 -1.34754,1.41022c-0.74423,0 -1.34754,-0.63138 -1.34754,-1.41022c0,-0.77884 0.60331,-1.41022 1.34754,-1.41022c0.74423,0 1.34754,0.63138 1.34754,1.41022z" fill="#fcff63" stroke="none" stroke-width="0" stroke-linecap="butt"/><path d="M215.00144,186.77413c0,0.2423 -0.19643,0.43874 -0.43874,0.43874c-0.2423,0 -0.43874,-0.19643 -0.43874,-0.43874c0,-0.2423 0.19643,-0.43873 0.43874,-0.43873c0.2423,0 0.43874,0.19643 0.43874,0.43873z" fill="#fcff63" stroke="none" stroke-width="0" stroke-linecap="butt"/><path d="M196.07668,169.36553c-6.92653,-0.01274 -9.0853,2.4168 -9.0853,2.4168l0.08672,-1.0375c0,0 1.63607,-1.0325 3.76611,-1.84418c2.33201,-0.88865 3.64226,-1.27608 3.64226,-1.27608c0,0 7.1285,1.75117 1.59021,1.74096z" fill="#1c1c00" stroke="none" stroke-width="1.5" stroke-linecap="butt"/></g></g></g></g></svg>