<svg version="1.1" xmlns="http://www.w3.org/2000/svg" xmlns:xlink="http://www.w3.org/1999/xlink" width="551.53995" height="324.86544" viewBox="0,0,551.53995,324.86544"><defs><linearGradient x1="317.26639" y1="332.73598" x2="317.26639" y2="228.60085" gradientUnits="userSpaceOnUse" id="color-1"><stop offset="0" stop-color="#1f1f00" stop-opacity="0.48627"/><stop offset="1" stop-color="#1f1f00" stop-opacity="0"/></linearGradient><linearGradient x1="317.26639" y1="19.24585" x2="317.26639" y2="122.29624" gradientUnits="userSpaceOnUse" id="color-2"><stop offset="0" stop-color="#1f1f00" stop-opacity="0.64706"/><stop offset="1" stop-color="#1f1f00" stop-opacity="0"/></linearGradient><linearGradient x1="319.55476" y1="19.74834" x2="319.55476" y2="66.47409" gradientTransform="translate(-72.46182,-54.11662) scale(1.22094,0.98768)" gradientUnits="userSpaceOnUse" id="color-3"><stop offset="0" stop-color="#ffffff"/><stop offset="1" stop-color="#d9db56"/></linearGradient><linearGradient x1="320.00748" y1="189.23247" x2="320.00748" y2="231.95499" gradientTransform="translate(-121.84247,-248.60819) scale(1.12356,1.12356)" gradientUnits="userSpaceOnUse" id="color-4"><stop offset="0" stop-color="#ffffff"/><stop offset="1" stop-color="#d9db56"/></linearGradient><linearGradient x1="334.98778" y1="229.89352" x2="334.98778" y2="258.11668" gradientTransform="translate(-175.85178,-426.98716) scale(1.58711,1.70077)" gradientUnits="userSpaceOnUse" id="color-5"><stop offset="0" stop-color="#ffffff"/><stop offset="1" stop-color="#d9db56"/></linearGradient><linearGradient x1="320.50536" y1="260.48561" x2="320.50536" y2="323.51449" gradientTransform="translate(-641.7497,-631.12326) scale(2.00234,2.28467)" gradientUnits="userSpaceOnUse" id="color-6"><stop offset="0" stop-color="#ffffff"/><stop offset="1" stop-color="#d9db56"/></linearGradient></defs><g transform="translate(-42.68766,-14.64294)"><g stroke-miterlimit="10"><g><path d="M51.39857,336.00838c-2.8779,0 -5.21091,-2.333 -5.21091,-5.21091v-307.44362c0,-2.8779 2.333,-5.21091 5.21091,-5.21091h534.11813c2.8779,0 5.21091,2.333 5.21091,5.21091v307.44362c0,2.8779 -2.333,5.21091 -5.21091,5.21091z" fill="#9e9e46" stroke="#212108" stroke-width="7"/><path d="M586.82451,228.60085v104.13513h-539.11625v-104.13513z" fill="url(#color-1)" stroke="none" stroke-width="0"/><path d="M47.27239,64.80497v-48.81335h544.53996v48.81335z" fill="#212108" stroke="none" stroke-width="0"/><path d="M47.70826,122.29624v-103.05039h539.11625v103.05039z" fill="url(#color-2)" stroke="none" stroke-width="0"/><text transform="translate(59.34913,54.79145) scale(0.81904,1.01247)" font-size="40" xml:space="preserve" fill="url(#color-3)" stroke-opacity="0" stroke="#000000" stroke-width="0" font-family="&quot;Allan-Bold&quot;, Sans Serif" font-weight="normal" text-anchor="start"><tspan x="0" dy="0">LEMME RUN YOU THROUGH THIS REAL QUICK</tspan></text></g><path d="M99,229v-42h442v42z" fill="#212108" stroke="none" stroke-width="0"/><path d="M105.25,260.5v-42h429.5v42z" fill="#212108" stroke="none" stroke-width="0"/><text transform="translate(108.44345,221.26875) scale(0.89003,0.89003)" font-size="40" xml:space="preserve" fill="url(#color-4)" stroke="none" stroke-width="1" font-family="&quot;Allan-Bold&quot;, Sans Serif" font-weight="normal" text-anchor="start"><tspan x="0" dy="0">HEY DON'T FORGET THIS BUTTON!</tspan></text><path d="M196.5,282.20227v-28.40454h247v28.40454z" fill="#212108" stroke="none" stroke-width="0"/><path d="M200.25,301.70227v-28.40454h237v28.40454z" fill="#212108" stroke="none" stroke-width="0"/><path d="M270.25,323.20227v-28.40454h99.5v28.40454z" fill="#212108" stroke="none" stroke-width="0"/><text transform="translate(110.79981,251.05564) scale(0.63008,0.58797)" font-size="40" xml:space="preserve" fill="url(#color-5)" stroke="none" stroke-width="1" font-family="&quot;Allan-Regular&quot;, Sans Serif" font-weight="normal" text-anchor="start"><tspan x="0" dy="0">KINDA HARD TO SPOT BUT IT'S IN THE TOP MIDDLE</tspan></text><text transform="translate(320.5,276.24265) scale(0.49942,0.4377)" font-size="40" xml:space="preserve" fill="url(#color-6)" stroke="none" stroke-width="1" font-family="&quot;Allan-Regular&quot;, Sans Serif" font-weight="normal" text-anchor="middle"><tspan x="0" dy="0">FUN EXTRA STUFF AND ADDITIONAL </tspan><tspan x="0" dy="48px">CHARACTER INFORMATION CAN BE </tspan><tspan x="0" dy="48px">FOUND THERE</tspan></text><g stroke="none"><path d="M280.41802,154.5752c-4.34601,1.90396 -14.84168,1.18412 -18.97938,-0.50315c-4.78013,-3.66518 -11.85369,-6.21442 -17.93885,-4.31348c-4.82665,1.5078 -10.03201,3.14095 -15.3141,3.14095c-2.04868,-0.00847 -3.78877,-0.21612 -5.43619,-1.59268c-1.39149,-1.16268 -2.02112,-3.11607 -3.15625,-4.57945c-3.07924,-3.96961 -6.85918,-10.07366 -7.52828,-15.17369c-0.30301,-2.30972 -0.0086,-4.87746 -0.0086,-7.2078c0,-4.76836 0.20502,-10.15093 2.75784,-14.33656c1.70276,-2.79188 5.02631,-3.84453 6.91926,-6.27913c1.52993,-1.96773 2.5974,-6.66831 2.5974,-9.15096c1.0131,-3.16357 2.53157,-4.71837 4.9791,-6.59651c3.70064,-2.83976 6.22749,-6.97819 10.84968,-8.43389c9.36733,-2.95011 28.77353,6.0775 35.09943,4.85594c1.18383,-0.22859 2.72097,-3.62387 3.99196,-4.67772c2.24818,-1.86413 5.63608,-2.03413 8.43248,-2.03413c3.16919,0 6.84093,0.58586 9.57573,2.37365c4.118,2.692 7.43244,8.82825 12.15899,10.47915c1.61904,0.56551 8.94923,-1.37324 14.7466,-1.37515c5.79737,-0.0019 6.60799,0.46415 9.19752,1.36728c1.20072,0.41876 3.55361,-0.04296 4.8301,-0.04296c8.93928,0 11.85474,-7.00905 20.35183,-9.96204c22.36985,-7.77421 26.66701,12.85699 46.8429,15.59356c8.15644,1.10632 16.53962,-1.14805 24.44671,2.41765c1.71623,0.77393 3.3995,2.61093 4.97793,3.70557c3.5138,3.77832 6.81927,9.47522 5.03094,15.04464c-0.83342,2.59553 -3.61065,4.44458 -5.37713,6.70584c0.53378,1.29124 1.36032,2.43328 1.95282,3.86576c0.90341,2.1842 -1.35592,7.31211 -2.91578,12.00346c-1.43318,4.31034 0.95745,6.70527 -3.76506,9.46141c-3.51493,2.05137 -13.08831,1.46884 -15.59786,1.78764l-0.00004,0.00002c-3.70704,0.4709 -8.3731,2.25591 -11.80607,3.48612c-7.79111,2.67298 -18.19981,0.36004 -25.91207,-1.74472c-2.02246,-0.55193 -3.47204,-1.94083 -5.08958,-2.79075c-0.01777,-0.014 -0.03558,-0.02794 -0.05344,-0.04183c-3.74595,-2.91347 -9.29445,-0.71024 -13.22816,3.02294c-0.1244,0.07056 -0.24698,0.14393 -0.36768,0.22004c-0.48069,0.25244 -0.94515,0.53068 -1.38775,0.84306c-7.81349,5.51441 -16.87736,11.00794 -26.94174,8.46277c-6.75368,-1.74265 -11.50509,-4.99079 -17.41941,-8.51209c-1.50932,-0.89863 -2.65441,-2.25388 -3.98552,-3.36131c-0.04287,0.06182 -0.08524,0.12363 -0.12715,0.18545c-2.34303,-2.44159 -5.93074,-3.90588 -10.54728,-3.61903c-3.52476,0.219 -6.23638,2.14156 -9.54142,2.9991c-1.72764,0.44826 -2.99465,1.03469 -3.96319,1.77478c-0.71582,0.51281 -1.35487,1.12597 -1.89658,1.81892c-0.48116,0.25833 -0.96536,0.499 -1.45464,0.71335z" fill="#212104" stroke-width="0"/><path d="M268.14587,168.48364c-4.34601,1.90396 -14.84168,1.18412 -18.97938,-0.50315c-4.78014,-3.66518 -11.85369,-6.21441 -17.93885,-4.31347c-4.82665,1.5078 -10.03201,3.14095 -15.3141,3.14095c-2.04868,-0.00847 -3.78877,-0.21612 -5.43619,-1.59268c-1.39149,-1.16268 -2.02112,-3.11608 -3.15625,-4.57945c-3.07924,-3.96961 -6.85918,-10.07366 -7.52828,-15.17369c-0.30301,-2.30972 -0.0086,-4.87745 -0.0086,-7.2078c0,-4.76836 0.20502,-10.15093 2.75784,-14.33656c1.70276,-2.79188 5.02631,-3.84453 6.91926,-6.27913c1.52993,-1.96773 2.5974,-6.66831 2.5974,-9.15096c1.0131,-3.16357 2.53157,-4.71837 4.9791,-6.59651c3.70064,-2.83976 6.22749,-6.97819 10.84968,-8.43389c9.36733,-2.95011 28.77353,6.07749 35.09943,4.85594c1.18383,-0.22859 2.72097,-3.62387 3.99196,-4.67771c2.24818,-1.86413 5.63608,-2.03413 8.43248,-2.03413c3.16919,0 6.84093,0.58587 9.57573,2.37366c4.118,2.692 7.43244,8.82825 12.15899,10.47914c1.61904,0.56551 8.94923,-1.37324 14.7466,-1.37514c5.79737,-0.0019 6.60799,0.46414 9.19752,1.36727c1.20072,0.41876 3.55361,-0.04296 4.8301,-0.04296c8.93928,0 11.85474,-7.00905 20.35183,-9.96203c22.36985,-7.77421 26.66701,12.85699 46.8429,15.59356c8.15644,1.10632 16.53962,-1.14805 24.44671,2.41765c1.71623,0.77393 3.3995,2.61093 4.97793,3.70557c3.5138,3.77832 6.81927,9.47522 5.03094,15.04464c-0.83342,2.59554 -3.61065,4.44458 -5.37713,6.70584c0.53378,1.29124 1.36032,2.43328 1.95282,3.86576c0.90341,2.1842 -1.35592,7.31211 -2.91578,12.00346c-1.43318,4.31034 0.95745,6.70526 -3.76506,9.4614c-3.51493,2.05137 -13.08831,1.46884 -15.59786,1.78764l-0.00004,0.00002c-3.70704,0.4709 -8.3731,2.25591 -11.80607,3.48612c-7.79111,2.67298 -18.19981,0.36004 -25.91207,-1.74472c-2.02246,-0.55193 -3.47204,-1.94083 -5.08958,-2.79075c-0.01777,-0.014 -0.03558,-0.02795 -0.05344,-0.04184c-3.74595,-2.91347 -9.29444,-0.71023 -13.22816,3.02294c-0.1244,0.07056 -0.24699,0.14393 -0.36768,0.22004c-0.48069,0.25244 -0.94515,0.53068 -1.38775,0.84306c-7.81349,5.51441 -16.87736,11.00794 -26.94174,8.46277c-6.75368,-1.74265 -11.50509,-4.9908 -17.41941,-8.5121c-1.50932,-0.89863 -2.65441,-2.25387 -3.98552,-3.3613c-0.04287,0.06182 -0.08525,0.12363 -0.12715,0.18545c-2.34303,-2.44159 -5.93073,-3.90587 -10.54727,-3.61903c-3.52476,0.219 -6.23638,2.14156 -9.54142,2.9991c-1.72764,0.44826 -2.99465,1.03468 -3.96319,1.77478c-0.71582,0.51281 -1.35487,1.12597 -1.89658,1.81892c-0.48116,0.25833 -0.96536,0.499 -1.45464,0.71336z" fill="#212104" stroke-width="0"/><path d="M269.78216,153.75705c-4.34601,1.90396 -14.84168,1.18412 -18.97938,-0.50315c-4.78014,-3.66518 -11.85368,-6.21441 -17.93884,-4.31347c-4.82665,1.5078 -10.03201,3.14095 -15.3141,3.14095c-2.04868,-0.00847 -3.78876,-0.21612 -5.43619,-1.59268c-1.39149,-1.16268 -2.02112,-3.11607 -3.15626,-4.57945c-3.07924,-3.96961 -6.85918,-10.07366 -7.52828,-15.17369c-0.30301,-2.30972 -0.00859,-4.87745 -0.00859,-7.20779c0,-4.76836 0.20502,-10.15093 2.75784,-14.33656c1.70276,-2.79188 5.02631,-3.84453 6.91925,-6.27913c1.52993,-1.96773 2.59741,-6.66831 2.59741,-9.15096c1.0131,-3.16357 2.53156,-4.71837 4.9791,-6.59651c3.70064,-2.83976 6.22749,-6.97819 10.84967,-8.43389c9.36733,-2.95011 28.77354,6.07749 35.09943,4.85594c1.18383,-0.22859 2.72097,-3.62387 3.99195,-4.67771c2.24818,-1.86413 5.63608,-2.03413 8.43248,-2.03413c3.16919,0 6.84094,0.58586 9.57574,2.37365c4.118,2.692 7.43245,8.82825 12.15899,10.47915c1.61904,0.56551 8.94922,-1.37324 14.7466,-1.37515c5.79737,-0.0019 6.60799,0.46415 9.19752,1.36728c1.20072,0.41876 3.55361,-0.04296 4.8301,-0.04296c8.93928,0 11.85474,-7.00905 20.35183,-9.96203c22.36986,-7.77421 26.66702,12.85699 46.84291,15.59356c8.15644,1.10632 16.53961,-1.14805 24.4467,2.41765c1.71623,0.77393 3.3995,2.61093 4.97793,3.70556c3.5138,3.77832 6.81928,9.47522 5.03095,15.04464c-0.83342,2.59553 -3.61065,4.44458 -5.37714,6.70584c0.53378,1.29124 1.36032,2.43328 1.95282,3.86576c0.90341,2.1842 -1.35591,7.31211 -2.91578,12.00346c-1.43318,4.31034 0.95745,6.70526 -3.76506,9.4614c-3.51493,2.05137 -13.0883,1.46884 -15.59785,1.78764l-0.00005,0.00002c-3.70704,0.4709 -8.3731,2.25591 -11.80606,3.48612c-7.79111,2.67298 -18.19981,0.36004 -25.91208,-1.74472c-2.02246,-0.55193 -3.47204,-1.94083 -5.08958,-2.79075c-0.01777,-0.014 -0.03558,-0.02795 -0.05344,-0.04184c-3.74595,-2.91347 -9.29445,-0.71023 -13.22816,3.02294c-0.1244,0.07056 -0.24698,0.14393 -0.36768,0.22004c-0.48069,0.25244 -0.94515,0.53068 -1.38775,0.84306c-7.81349,5.51441 -16.87735,11.00794 -26.94174,8.46277c-6.75368,-1.74265 -11.50509,-4.9908 -17.41941,-8.5121c-1.50932,-0.89863 -2.65441,-2.25388 -3.98552,-3.3613c-0.04287,0.06182 -0.08524,0.12363 -0.12714,0.18545c-2.34303,-2.44159 -5.93074,-3.90588 -10.54728,-3.61904c-3.52476,0.219 -6.23638,2.14156 -9.54142,2.99911c-1.72764,0.44826 -2.99465,1.03468 -3.96319,1.77478c-0.71582,0.51281 -1.35487,1.12597 -1.89658,1.81892c-0.48116,0.25833 -0.96535,0.499 -1.45464,0.71336z" fill="#212104" stroke-width="0"/><path d="M279.59988,165.21106c-4.34601,1.90396 -14.84168,1.18412 -18.97938,-0.50315c-4.78014,-3.66518 -11.85369,-6.21442 -17.93885,-4.31348c-4.82665,1.5078 -10.032,3.14096 -15.31409,3.14096c-2.04868,-0.00847 -3.78877,-0.21612 -5.4362,-1.59268c-1.39149,-1.16268 -2.02112,-3.11608 -3.15625,-4.57945c-3.07924,-3.96961 -6.85918,-10.07366 -7.52828,-15.17369c-0.30301,-2.30972 -0.0086,-4.87745 -0.0086,-7.2078c0,-4.76836 0.20502,-10.15093 2.75784,-14.33656c1.70276,-2.79188 5.02631,-3.84453 6.91925,-6.27913c1.52993,-1.96773 2.5974,-6.66831 2.5974,-9.15096c1.0131,-3.16357 2.53157,-4.71837 4.9791,-6.59651c3.70064,-2.83976 6.22749,-6.97819 10.84967,-8.43389c9.36733,-2.95011 28.77354,6.07749 35.09944,4.85594c1.18383,-0.22859 2.72096,-3.62387 3.99195,-4.67771c2.24818,-1.86413 5.63608,-2.03413 8.43248,-2.03413c3.16919,0 6.84093,0.58587 9.57573,2.37366c4.118,2.692 7.43245,8.82825 12.15899,10.47914c1.61904,0.56551 8.94923,-1.37324 14.7466,-1.37514c5.79737,-0.0019 6.60799,0.46414 9.19752,1.36727c1.20072,0.41876 3.55361,-0.04296 4.8301,-0.04296c8.93928,0 11.85474,-7.00905 20.35183,-9.96203c22.36986,-7.77421 26.66702,12.85699 46.84291,15.59356c8.15644,1.10632 16.53962,-1.14805 24.44671,2.41765c1.71623,0.77393 3.39949,2.61094 4.97793,3.70557c3.5138,3.77832 6.81928,9.47522 5.03095,15.04464c-0.83342,2.59553 -3.61065,4.44458 -5.37714,6.70584c0.53378,1.29124 1.36032,2.43328 1.95282,3.86576c0.90341,2.1842 -1.35592,7.31211 -2.91578,12.00346c-1.43318,4.31034 0.95745,6.70527 -3.76506,9.46141c-3.51493,2.05137 -13.08831,1.46884 -15.59786,1.78764l-0.00004,0.00001c-3.70704,0.4709 -8.3731,2.25591 -11.80606,3.48612c-7.79111,2.67298 -18.19981,0.36004 -25.91208,-1.74471c-2.02246,-0.55193 -3.47204,-1.94083 -5.08958,-2.79075c-0.01777,-0.014 -0.03559,-0.02795 -0.05345,-0.04184c-3.74595,-2.91347 -9.29444,-0.71023 -13.22816,3.02294c-0.1244,0.07056 -0.24699,0.14392 -0.36768,0.22003c-0.48069,0.25244 -0.94515,0.53068 -1.38775,0.84306c-7.81349,5.51441 -16.87735,11.00794 -26.94174,8.46278c-6.75368,-1.74265 -11.50509,-4.9908 -17.41941,-8.5121c-1.50932,-0.89863 -2.65441,-2.25387 -3.98552,-3.3613c-0.04287,0.06182 -0.08524,0.12362 -0.12714,0.18544c-2.34303,-2.44159 -5.93074,-3.90587 -10.54728,-3.61903c-3.52476,0.219 -6.23638,2.14156 -9.54142,2.9991c-1.72764,0.44826 -2.99465,1.03469 -3.96319,1.77478c-0.71582,0.51281 -1.35487,1.12597 -1.89658,1.81891c-0.48116,0.25833 -0.96536,0.499 -1.45465,0.71335z" fill="#212104" stroke-width="0"/><path d="M274.69102,159.48406c-4.34601,1.90396 -14.84168,1.18412 -18.97938,-0.50315c-4.78014,-3.66518 -11.85368,-6.21442 -17.93885,-4.31348c-4.82665,1.5078 -10.03201,3.14095 -15.31409,3.14095c-2.04868,-0.00847 -3.78876,-0.21612 -5.43619,-1.59268c-1.39149,-1.16268 -2.02112,-3.11607 -3.15625,-4.57945c-3.07924,-3.96961 -6.85918,-10.07365 -7.52828,-15.17368c-0.30301,-2.30972 -0.0086,-4.87745 -0.0086,-7.2078c0,-4.76836 0.20502,-10.15093 2.75784,-14.33656c1.70276,-2.79188 5.02631,-3.84453 6.91925,-6.27913c1.52993,-1.96773 2.5974,-6.66831 2.5974,-9.15097c1.0131,-3.16357 2.53157,-4.71836 4.9791,-6.59651c3.70064,-2.83976 6.22749,-6.97819 10.84967,-8.43389c9.36733,-2.95011 28.77354,6.07749 35.09943,4.85594c1.18383,-0.22859 2.72097,-3.62386 3.99196,-4.67771c2.24818,-1.86413 5.63608,-2.03413 8.43248,-2.03413c3.16919,0 6.84094,0.58587 9.57574,2.37366c4.118,2.692 7.43245,8.82825 12.15899,10.47914c1.61904,0.56551 8.94922,-1.37324 14.74659,-1.37514c5.79737,-0.0019 6.608,0.46414 9.19753,1.36727c1.20072,0.41876 3.55361,-0.04296 4.8301,-0.04296c8.93928,0 11.85474,-7.00905 20.35183,-9.96203c22.36986,-7.77421 26.66702,12.85699 46.84291,15.59356c8.15644,1.10632 16.53962,-1.14804 24.44671,2.41766c1.71623,0.77393 3.39949,2.61093 4.97793,3.70557c3.5138,3.77832 6.81928,9.47522 5.03095,15.04464c-0.83342,2.59553 -3.61065,4.44459 -5.37714,6.70585c0.53378,1.29124 1.36032,2.43328 1.95281,3.86576c0.90341,2.1842 -1.35591,7.31211 -2.91578,12.00346c-1.43318,4.31034 0.95745,6.70527 -3.76506,9.46141c-3.51493,2.05137 -13.08831,1.46884 -15.59786,1.78764l-0.00004,0.00001c-3.70704,0.4709 -8.3731,2.25591 -11.80607,3.48612c-7.79111,2.67298 -18.19981,0.36004 -25.91207,-1.74471c-2.02246,-0.55193 -3.47204,-1.94084 -5.08958,-2.79076c-0.01777,-0.014 -0.03558,-0.02795 -0.05344,-0.04184c-3.74595,-2.91347 -9.29445,-0.71024 -13.22816,3.02294c-0.1244,0.07056 -0.24698,0.14393 -0.36768,0.22004c-0.48069,0.25244 -0.94515,0.53068 -1.38775,0.84306c-7.81349,5.51441 -16.87735,11.00794 -26.94174,8.46277c-6.75368,-1.74265 -11.50509,-4.9908 -17.41941,-8.5121c-1.50932,-0.89863 -2.65441,-2.25387 -3.98552,-3.3613c-0.04287,0.06182 -0.08524,0.12363 -0.12715,0.18545c-2.34303,-2.44159 -5.93074,-3.90587 -10.54728,-3.61903c-3.52476,0.219 -6.23638,2.14156 -9.54143,2.9991c-1.72764,0.44826 -2.99464,1.03469 -3.96319,1.77478c-0.71582,0.51281 -1.35487,1.12597 -1.89658,1.81891c-0.48116,0.25833 -0.96536,0.499 -1.45465,0.71336z" fill="#999915" stroke-width="0"/><g fill="#e3e376" stroke-width="0.5"><path d="M249.5042,140.60783c0.41608,-0.26862 1.63526,-0.88921 2.87107,0.07801c1.52322,1.19216 0.02525,2.41221 0.02525,2.41221l-1.75171,0.85108c-6.97028,0.5246 -14.00413,0.39751 -20.73915,-1.21653c-4.04144,-1.43765 -5.19275,-1.36124 -7.96583,-4.37219c-4.90832,-5.3294 -4.83556,-13.45836 -0.91273,-19.17305c1.86317,-2.71423 4.80105,-4.77756 7.54954,-6.88986c7.31225,-5.61971 14.3276,-10.39305 24.32895,-12.49421c0,0 2.0682,-0.43281 2.60363,1.21716c0.53545,1.64999 -1.53275,2.08279 -1.53275,2.08279c-9.2622,1.93036 -15.67835,6.45127 -22.44204,11.64868c-2.42624,1.8644 -5.11274,3.67912 -6.76427,6.0711c-1.97713,2.8636 -2.02574,5.78813 -2.15096,8.94414c-0.01984,0.50014 -0.26962,1.01845 -0.0982,1.49925c0.34644,0.97161 1.08725,1.82363 1.61079,2.74292c1.23764,2.17318 1.11429,2.92381 3.80652,4.34082c1.04484,0.54995 2.30171,0.7865 3.45255,1.17979c5.8457,1.40295 12.04927,1.4985 18.10927,1.07789z"/><path d="M267.43271,122.96887c-1.0217,0.12229 -1.98769,0.40228 -3.00294,1.05154c-4.08296,2.61112 -8.97049,7.39694 -6.01245,12.36787c0.78391,1.31734 1.8305,1.42986 3.38113,1.92019c3.09642,0.97912 8.42928,1.98204 10.50266,-0.86252c1.65414,-3.21083 3.57468,-6.93365 2.08688,-10.62754c-0.18435,-0.4577 -2.34385,-2.36035 -2.46135,-2.46141c-0.41892,-0.36029 -0.77065,-0.84666 -1.30394,-1.03037c-1.00637,-0.34667 -2.11101,-0.28968 -3.18998,-0.35781zM271.64624,119.41769c0.17084,0.04574 0.33956,0.09909 0.50571,0.16176c5.88972,2.22102 8.02278,8.98779 6.56121,14.35107c-0.23773,0.8724 -2.27999,4.68224 -2.7555,5.59158c-1.67269,2.06277 -1.72807,2.76009 -4.70779,3.55007c-1.17028,0.31026 -3.69812,-0.02102 -4.94743,-0.10863c-4.1042,-0.28789 -9.15129,-0.74805 -11.52143,-4.46801c-4.38247,-6.87832 1.2668,-14.11482 7.34485,-17.85481c0.97224,-0.59824 1.91701,-0.99352 2.87629,-1.2559c0.61957,-0.48714 1.44441,-0.49474 1.44441,-0.49474l0.84663,0.03115c0.0765,0.01376 0.15329,0.02637 0.23032,0.03801c0.81213,-0.06898 1.65655,-0.09125 2.55476,-0.10269c0,0 0.92921,-0.00859 1.568,0.56114z"/><path d="M310.54494,143.46616c-2.07589,0.47412 -2.58071,-1.47561 -2.58071,-1.47561l-0.40747,-1.65915c-0.76836,-7.44385 -1.23993,-14.68749 -3.3403,-21.88177c-0.15066,-0.19994 -0.27539,-0.78006 -0.452,-0.59982c-0.2541,0.25937 0.10415,0.71783 0.00367,1.05742c-0.72911,2.46428 -1.45398,4.26682 -3.22321,6.18998c-1.34958,1.46701 -2.28621,3.96706 -4.34147,4.14757c-1.61388,0.14175 -2.28764,-2.19339 -3.13563,-3.49085c-1.04462,-1.59831 -1.51023,-3.47651 -2.4086,-5.15139c-0.05786,-0.10788 -0.12527,-0.22521 -0.19913,-0.34965c-0.1479,1.20973 -0.37842,2.32946 -0.39943,2.6372c-0.43557,6.38279 -1.87038,12.69004 -2.55507,19.05761c0,0 -0.21489,1.99636 -2.34045,1.79454c-2.12556,-0.20183 -1.91069,-2.19817 -1.91069,-2.19817c0.78501,-7.28541 2.10216,-14.45893 2.67987,-21.75951c0.07986,-1.00911 0.44002,-6.32349 1.74386,-6.74766c4.4497,-1.44754 6.9388,5.46791 8.10748,7.95619c0.40666,0.86584 0.85763,1.73752 1.08999,2.65603c0.45663,-1.00492 1.19036,-1.95011 1.69376,-2.93429c0.56675,-1.10798 0.6858,-2.39636 1.31244,-3.47554c0.68202,-1.17458 1.17411,-2.93381 2.5684,-3.20797c1.72032,-0.3383 3.29337,1.15436 4.94005,1.73154c0.27875,0.68386 2.32734,5.523 2.60945,6.781c1.25427,5.59279 1.22186,11.70383 1.80985,17.40034l0.30643,1.09816c0,0 0.50481,1.94969 -1.57111,2.42381z"/><path d="M352.58341,118.68218c1.44056,0.14511 1.79941,1.10936 1.8812,1.715c3.27339,6.41352 1.80338,13.93931 -3.64177,19.12631c-4.1604,3.96318 -11.4138,5.91687 -14.46414,-0.24969c-1.12318,-2.27062 -1.82029,-4.34932 -2.24752,-6.77045c-0.48836,-2.76751 -0.14895,-5.04387 0.16517,-7.79486c0,0 0.22782,-1.99509 2.35204,-1.78113c2.12422,0.21396 1.89641,2.20906 1.89641,2.20906c-0.27166,2.3791 -0.63092,4.32304 -0.20056,6.69812c0.33233,1.83406 1.10426,7.3535 3.82875,7.59409c2.6744,0.23615 5.56339,-2.43685 6.86674,-4.29007c3.06087,-4.35226 4.04121,-8.67898 1.41928,-13.33314l-0.20761,-1.34211c0,0 0.22781,-1.9951 2.35203,-1.78114z"/><path d="M375.86179,114.82881c0.50203,1.95033 -1.57451,2.42186 -1.57451,2.42186l-2.24951,0.47608c-2.04856,0.10308 -4.10514,0.175 -6.15148,0.31242c0.03175,0.58688 0.06362,1.17351 0.09711,1.75963c0.43374,7.59114 0.76569,23.35928 0.76569,23.35928l-0.03785,0.00109c-0.00004,0.0438 -0.00009,0.0876 -0.00016,0.13143l-4.2728,-0.00839c0.02361,-7.79744 -0.27488,-15.45804 -0.72129,-23.26414c-0.02976,-0.52062 -0.05771,-1.04196 -0.08513,-1.56382c-1.47848,0.20132 -2.94473,0.47361 -4.39161,0.8545c0,0 -2.05885,0.5357 -2.62921,-1.398c-0.57036,-1.9337 1.48849,-2.46939 1.48849,-2.46939c1.7545,-0.45174 3.52606,-0.76462 5.30986,-0.99146c-0.23113,-3.60261 -0.59988,-7.19704 -1.54258,-10.69752c0,0 -0.51998,-1.94617 1.55217,-2.43456c2.07216,-0.48838 2.59215,1.45781 2.59215,1.45781c0.98125,3.69863 1.38536,7.47874 1.64164,11.27201c2.04372,-0.14074 4.09818,-0.22435 6.1562,-0.32811l1.47423,-0.36947c0,0 2.07657,-0.47152 2.5786,1.47881z"/><path d="M391.03259,143.11808c-0.9366,1.80344 -2.85674,0.92378 -2.85674,0.92378l0.33474,-0.00016c-4.91296,-0.38549 -8.88641,-1.73484 -13.0392,-4.20638c-1.98016,-2.4226 -2.70881,-2.41456 -2.45651,-5.67589c0.00797,-0.10283 0.01823,-0.204 0.03072,-0.30358c-0.44907,-0.33472 -0.83053,-0.89657 -0.67563,-1.82582c0.27886,-1.67267 1.82511,-1.71302 2.30145,-1.68478c0.78596,-0.95454 1.74723,-1.81596 2.65393,-2.78061c0.68721,-0.7311 1.13825,-1.68028 1.96522,-2.27008c2.9819,-2.12667 10.08084,-2.32549 13.11894,0.09786c3.99577,3.18724 1.81551,7.38858 -1.99772,9.40093c-3.86765,2.04106 -8.73671,0.99003 -13.07089,0.11301c0.04702,0.59786 0.33757,1.23549 0.97483,1.9343c3.33686,1.90172 6.64099,2.91515 10.53986,3.20111l1.19347,0.39326c0,0 1.92016,0.87967 0.98356,2.68307zM379.58953,131.18843c2.19506,0.37432 4.37314,0.64163 6.82011,0.45271c0.94036,-0.0726 4.30079,-0.7062 3.88093,-2.31486c-0.35683,-1.36719 -3.18124,-1.43142 -4.29842,-1.51488c-0.85091,-0.06356 -1.71849,-0.14405 -2.56071,-0.01373c-1.76063,0.2724 -1.78963,1.2049 -2.89443,2.4138c-0.30359,0.33219 -0.62714,0.65624 -0.94748,0.97696z"/><path d="M417.54263,121.07657c0.44188,1.96314 -1.64832,2.37816 -1.64832,2.37816l-1.28866,0.25473c-3.85431,0.63496 -8.46618,1.45039 -10.39799,4.91993c0,0 -0.21471,0.35889 -0.62274,0.66021c-0.54339,4.63358 -0.91955,9.28488 -1.15953,13.92593c0.47109,0.77811 0.13522,1.69285 0.13522,1.69285l-0.21724,0.01028c-0.00545,0.12184 -0.01078,0.24371 -0.01605,0.36554l-0.74482,-0.32959l-3.52445,0.16658c0.42869,-9.87785 1.44948,-19.81428 3.32748,-29.561c0,0 0.38129,-1.97432 2.4834,-1.61619c2.1021,0.3581 1.72081,2.33243 1.72081,2.33243c-0.41586,2.14819 -0.78844,4.30614 -1.1209,6.47091c2.69106,-1.65326 5.98397,-2.41939 9.39281,-2.98959l1.14891,-0.22925c0,0 2.09019,-0.41501 2.53208,1.54812z"/><g><path d="M322.67787,143.25309c-2.1363,0.01972 -2.1573,-1.98672 -2.1573,-1.98672l-0.02519,-2.40771c-0.05633,-5.38322 -0.04693,-10.78839 -0.99514,-16.12028c-1.02159,-5.74456 -3.06779,-11.42116 -4.6295,-17.05237c0,0 -0.5385,-1.94175 1.52892,-2.44749c2.06743,-0.50576 2.60591,1.43597 2.60591,1.43597c1.59174,5.73959 3.65988,11.52038 4.70411,17.37537c0.98943,5.54775 0.99965,11.16721 1.05828,16.76937l0.02519,2.40771c0,0 0.021,2.00642 -2.1153,2.02615z"/><path d="M321.47687,120.99064c-0.021,-2.00642 2.63644,-2.03095 2.63644,-2.03095l0.5329,0.00504c3.3686,-0.26414 7.82043,-0.9532 9.63682,-3.32887c1.05629,-1.38152 1.76452,-6.08186 -1.57235,-6.43956c-3.87773,-0.41566 -7.97654,1.82874 -10.99325,3.2673c0,0 -2.25223,1.07247 -3.66287,-0.62346c-1.41064,-1.69594 0.84159,-2.76841 0.84159,-2.76841c4.07504,-1.9378 9.80154,-4.75758 14.97823,-3.79497c6.95525,1.2933 8.06834,8.36917 5.0029,12.362c-2.78917,3.63294 -8.48052,4.84879 -13.66043,5.31402l-1.06155,0.01976c0,0 -2.65744,0.02453 -2.67844,-1.98191z"/></g></g></g><g fill="#212104" stroke="none" stroke-width="0"><path d="M187.4976,121.1299c0,0 -20.62178,10.7687 -36.36057,10.9731c-15.73879,0.2044 -20.55932,-4.4344 -20.63462,-10.2329c-0.07531,-5.7985 4.62313,-10.56093 20.36192,-10.76533c15.73879,-0.2044 36.63327,10.02513 36.63327,10.02513z"/><path d="M191.96228,145.11616c0,0 -12.43259,12.66624 -23.8066,16.51699c-11.37401,3.85074 -15.96365,1.61822 -17.38234,-2.57221c-1.41869,-4.19043 0.87078,-8.75192 12.24479,-12.60266c11.37401,-3.85074 28.94415,-1.34212 28.94415,-1.34212z"/><path d="M167.01813,97.47414c-11.37402,-3.85074 -13.66349,-8.41223 -12.24479,-12.60266c1.4187,-4.19043 6.00832,-6.42296 17.38234,-2.57221c11.37402,3.85074 23.80661,16.51699 23.80661,16.51699c0,0 -17.57014,2.50863 -28.94415,-1.34212z"/></g><g fill="#212104" stroke="none" stroke-width="0"><path d="M488.59948,111.10478c15.73879,0.2044 20.43722,4.96682 20.36191,10.76532c-0.0753,5.7985 -4.89583,10.4373 -20.63462,10.2329c-15.73879,-0.2044 -36.36057,-10.9731 -36.36057,-10.9731c0,0 20.89449,-10.22953 36.63328,-10.02513z"/><path d="M476.44567,146.45828c11.37401,3.85074 13.66349,8.41223 12.24479,12.60266c-1.4187,4.19043 -6.00833,6.42296 -17.38234,2.57221c-11.37402,-3.85074 -23.80661,-16.51699 -23.80661,-16.51699c0,0 17.57014,-2.50863 28.94416,1.34212z"/><path d="M443.50152,98.81625c0,0 12.43259,-12.66624 23.80661,-16.51698c11.37402,-3.85075 15.96364,-1.61822 17.38234,2.57221c1.4187,4.19043 -0.87078,8.75191 -12.24479,12.60266c-11.37401,3.85075 -28.94416,1.34211 -28.94416,1.34211z"/></g></g></g></svg>