<svg version="1.1" xmlns="http://www.w3.org/2000/svg" xmlns:xlink="http://www.w3.org/1999/xlink" width="190.08071" height="316.77807" viewBox="0,0,190.08071,316.77807"><g transform="translate(-225.46499,-18.13857)"><g stroke-miterlimit="10"><path d="M263.40898,324.61251v-293.22501h113.18203v293.22501z" fill-opacity="0.01" fill="#000000" stroke="none" stroke-width="0" stroke-linecap="butt"/><path d="M267.89166,106.15915c3.31035,-3.45971 3.93004,-5.63389 3.93004,-5.63389c0,0 -2.05073,0.2434 -5.96259,-0.74752c-3.99435,-1.01182 -6.42276,-3.93646 -6.42276,-3.93646c0,0 4.07953,-2.52 6.31818,-4.6815c3.00386,-2.90033 4.73801,-6.51823 4.73801,-6.51823c0,0 -2.50049,0.9839 -4.60095,1.05323c-4.42917,0.14622 -6.25795,-1.99359 -6.25795,-1.99359c0,0 14.55361,-9.14837 18.55456,-26.94573c6.0224,-26.78943 41.38479,-24.79073 50.20861,-12.60921c11.99926,16.56528 14.58575,39.31029 4.86163,54.31588c-15.89494,24.528 -19.57958,23.24233 -37.27549,25.26958c-24.99303,2.86318 -34.86364,-12.9449 -34.86364,-12.9449c0,0 3.50758,-1.21563 6.77232,-4.62767z" fill="#ecec68" stroke="#0d0d00" stroke-width="1.75" stroke-linecap="butt"/><g stroke-linecap="butt"><path d="M279.2101,149.38862l-11.89016,3.69226l-5.46207,-18.91756l19.16265,3.00913z" fill="#0d0d00" stroke="none" stroke-width="0"/><path d="M304.97694,141.19547c12.4088,10.88783 20.55763,31.99906 12.0197,41.7297c-8.53793,9.73065 -30.52949,4.39587 -42.93826,-6.49194c-12.4088,-10.88779 -10.5359,-23.20567 -1.99796,-32.93631c8.53793,-9.73063 20.50772,-13.18921 32.91652,-2.30141z" fill="#ecec68" stroke="#0d0d00" stroke-width="1.75"/><path d="M283.10341,181.93799l-7.30748,-3.76908l30.42134,-34.56215l5.6773,5.51809z" fill-opacity="0.70196" fill="#0d0d00" stroke="none" stroke-width="0"/><path d="M292.30656,134.6118l8.3357,3.20958l-30.65472,34.61099l-3.83917,-7.14656z" fill-opacity="0.70196" fill="#0d0d00" stroke="none" stroke-width="0"/><path d="M298.3961,187.33259l-7.68811,-1.04017l25.0694,-30.79812l3.3751,8.18233z" fill-opacity="0.70196" fill="#0d0d00" stroke="none" stroke-width="0"/></g><path d="M297.66745,142.49573c-0.2401,0.28839 -15.02663,25.07668 -31.6206,28.3387c-14.33509,2.81794 -9.52874,-12.07984 -9.52874,-12.07984c0,0 -28.96895,3.14282 -30.22949,-8.70165c-1.65551,-15.55542 24.93195,-18.44365 46.60719,-21.68187c12.97162,-1.93791 35.087,-5.33359 35.087,-5.33359c0,0 -5.92689,14.18747 -10.31536,19.45822z" fill-opacity="0.4" fill="#f2d849" stroke="#0d0d00" stroke-width="1.5" stroke-linecap="butt"/><path d="M345.53722,146.44524c-3.33365,-5.99385 -6.52355,-21.03502 -6.52355,-21.03502c0,0 21.10049,7.44244 33.48681,11.7549c20.69724,7.20601 46.28626,14.9801 41.7716,29.95775c-3.43759,11.40452 -31.31945,2.93814 -31.31945,2.93814c0,0 1.95696,15.5311 -11.60576,10.10078c-15.69988,-6.28605 -25.62732,-33.38858 -25.80969,-33.71652z" fill-opacity="0.4" fill="#f2d849" stroke="#0d0d00" stroke-width="1.5" stroke-linecap="butt"/><g stroke-linecap="butt"><path d="" fill="#0d0d00" stroke="none" stroke-width="0"/><path d="" fill="#ecec68" stroke="#0d0d00" stroke-width="1.75"/><path d="" fill-opacity="0.70196" fill="#0d0d00" stroke="none" stroke-width="0"/><path d="" fill-opacity="0.70196" fill="#0d0d00" stroke="none" stroke-width="0"/><path d="" fill-opacity="0.70196" fill="#0d0d00" stroke="none" stroke-width="0"/></g><path d="" fill="#ecec68" stroke="#0d0d00" stroke-width="1.75" stroke-linecap="butt"/><path d="" fill="#6e6e30" stroke="#0d0d00" stroke-width="1.35" stroke-linecap="butt"/><g stroke-linecap="butt"><path d="" fill="#ecec68" stroke="#0d0d00" stroke-width="1.75"/><path d="" fill="#ecec68" stroke="#0d0d00" stroke-width="1.75"/><path d="" fill="#ecec68" stroke="#0d0d00" stroke-width="1.75"/><path d="" fill="#ecec68" stroke="#0d0d00" stroke-width="1.75"/><path d="" fill="#ecec68" stroke="#0d0d00" stroke-width="1.75"/><path d="" fill="#ecec68" stroke="none" stroke-width="0"/><path d="" fill="#ecec68" stroke="none" stroke-width="0"/><path d="" fill-opacity="0.70196" fill="#0d0d00" stroke="none" stroke-width="0"/><path d="" fill-opacity="0.70196" fill="#0d0d00" stroke="none" stroke-width="0"/><path d="" fill-opacity="0.70196" fill="#0d0d00" stroke="none" stroke-width="0"/><path d="" fill="#9b9b44" stroke="#0d0d00" stroke-width="1.75"/></g><g stroke-linecap="butt"><path d="" fill="#ecec68" stroke="#0d0d00" stroke-width="1.75"/><path d="" fill="#ecec68" stroke="#0d0d00" stroke-width="1.75"/><path d="" fill="#ecec68" stroke="#0d0d00" stroke-width="1.75"/><path d="" fill="#ecec68" stroke="#0d0d00" stroke-width="1.75"/><path d="" fill="#ecec68" stroke="#0d0d00" stroke-width="1.75"/><path d="" fill="#ecec68" stroke="none" stroke-width="0"/><path d="" fill="#ecec68" stroke="none" stroke-width="0"/><path d="" fill-opacity="0.70196" fill="#0d0d00" stroke="none" stroke-width="0"/><path d="" fill-opacity="0.70196" fill="#0d0d00" stroke="none" stroke-width="0"/><path d="" fill-opacity="0.70196" fill="#0d0d00" stroke="none" stroke-width="0"/><path d="" fill="#9b9b44" stroke="#0d0d00" stroke-width="1.75"/></g><g stroke="#0d0d00" stroke-linecap="butt"><path d="" fill="#494920" stroke-width="1.75"/><path d="" fill="#080d00" stroke-width="1.5"/></g><g stroke="#0d0d00" stroke-linecap="butt"><path d="" fill="#494920" stroke-width="1.75"/><path d="" fill="#ffffd5" stroke-width="1.5"/><path d="" fill="#0d0d00" stroke-width="1.5"/><path d="" fill="#080d00" stroke-width="1.5"/></g><path d="" fill="#ffffd5" stroke="#0d0d00" stroke-width="1.5" stroke-linecap="butt"/><path d="" fill="#0d0d00" stroke="#0d0d00" stroke-width="1.5" stroke-linecap="butt"/><path d="" fill="#494920" stroke="none" stroke-width="0" stroke-linecap="butt"/><path d="" fill="none" stroke="#0d0d00" stroke-width="1.5" stroke-linecap="round"/><path d="" fill="#9b9b44" stroke="#0d0d00" stroke-width="1.75" stroke-linecap="butt"/><path d="" fill="#0d0d00" stroke="none" stroke-width="0" stroke-linecap="butt"/><path d="" fill="#ffffd5" stroke="#0d0d00" stroke-width="1.5" stroke-linecap="butt"/><path d="" fill="#9b9b44" stroke="#0d0d00" stroke-width="1.5" stroke-linecap="butt"/><path d="" fill="#9b9b44" stroke="#0d0d00" stroke-width="1.5" stroke-linecap="butt"/><path d="" fill="#9b9b44" stroke="none" stroke-width="0" stroke-linecap="butt"/><path d="" fill="#9b9b44" stroke="none" stroke-width="0" stroke-linecap="butt"/><path d="" fill="#9b9b44" stroke="none" stroke-width="0" stroke-linecap="butt"/><path d="" fill="none" stroke="#0d0d00" stroke-width="1" stroke-linecap="round"/><path d="" fill="#ffffd5" stroke="#0d0d00" stroke-width="1" stroke-linecap="butt"/><path d="" fill="#ffffd5" stroke="#0d0d00" stroke-width="1" stroke-linecap="butt"/><path d="" fill="#c1c155" stroke="#0d0d00" stroke-width="1.5" stroke-linecap="butt"/><path d="" fill="#c1c155" stroke="#0d0d00" stroke-width="1.5" stroke-linecap="butt"/><path d="" fill="#ecec68" stroke="#0d0d00" stroke-width="1.5" stroke-linecap="butt"/><path d="" fill="#0d0d00" stroke="none" stroke-width="NaN" stroke-linecap="butt"/><path d="" fill="#0d0d00" stroke="none" stroke-width="NaN" stroke-linecap="butt"/><path d="" fill="#ecec68" stroke="#0d0d00" stroke-width="1.75" stroke-linecap="butt"/><path d="" fill="#ecec68" stroke="#0d0d00" stroke-width="1.75" stroke-linecap="butt"/><path d="" fill="#ecec68" stroke="#0d0d00" stroke-width="1.75" stroke-linecap="butt"/><path d="" fill="#ecec68" stroke="#0d0d00" stroke-width="1.75" stroke-linecap="butt"/><path d="" fill="#ecec68" stroke="#0d0d00" stroke-width="1.75" stroke-linecap="butt"/><path d="" fill="#ecec68" stroke="none" stroke-width="0" stroke-linecap="butt"/><path d="" fill="#ecec68" stroke="none" stroke-width="0" stroke-linecap="butt"/><g stroke="#0d0d00" stroke-width="1" stroke-linecap="butt"><g fill="#c5c556"><path d=""/><path d=""/></g><g fill="#c5c556"><path d=""/><path d=""/></g><path d="" fill="#ffffd5"/></g><path d="" fill="none" stroke="#0d0d00" stroke-width="1" stroke-linecap="round"/><path d="" fill="#c4c44a" stroke="none" stroke-width="0" stroke-linecap="butt"/><g stroke-linecap="butt"><path d="" fill="#a5a549" stroke="none" stroke-width="0"/><path d="" fill="#0d0d00" stroke="none" stroke-width="0"/><path d="" fill="#0d0d00" stroke="#0d0d00" stroke-width="1"/><g fill="#0d0d00" stroke="none" stroke-width="0"><path d=""/><path d=""/><path d=""/></g><g stroke="none" stroke-width="0"><path d="" fill="#6e6e30"/><path d="" fill="#6e6e30"/><path d="" fill="#6e6e30"/><path d="" fill="#6e6e30"/><path d="" fill="#6e6e30"/><path d="" fill="#6e6e30"/><path d="" fill="#ffffff"/></g></g><g stroke-linecap="butt"><path d="" fill="#a5a549" stroke="none" stroke-width="0"/><path d="" fill="#0d0d00" stroke="none" stroke-width="0"/><path d="" fill="#0d0d00" stroke="#080d00" stroke-width="1"/><g fill="#0d0d00" stroke="none" stroke-width="0"><path d=""/><path d=""/><path d=""/></g><g stroke="none" stroke-width="0"><path d="" fill="#6e6e30"/><path d="" fill="#6e6e30"/><path d="" fill="#6e6e30"/><path d="" fill="#6e6e30"/><path d="" fill="#6e6e30"/><path d="" fill="#6e6e30"/><path d="" fill="#ffffff"/></g></g><path d="" fill="#ecec68" stroke="#0d0d00" stroke-width="1.75" stroke-linecap="round"/><g stroke-linecap="butt"><path d="M333.854,203.52943c0,0 1.14307,-15.92997 2.55039,-33.6249c1.90163,-23.91004 -4.77358,-61.27068 19.37326,-47.21717c6.33252,3.68554 8.76971,16.16745 7.78936,27.38796c-0.97451,11.15361 -4.66612,21.50953 -4.66612,21.50953c0,0 -1.41075,11.372 -2.51362,17.14858c-1.1431,5.9872 -4.9103,17.71297 -4.9103,17.71297z" fill="#ecec68" stroke="#0d0d00" stroke-width="1.75"/><path d="M343.64679,202.55903c4.84942,-0.45473 9.71793,3.85982 11.78287,8.98589c2.24983,5.58503 -0.3373,13.49362 -2.84832,15.5585c-3.44905,2.83623 -9.91513,-1.653 -9.91513,-1.653c0,0 -4.30266,-22.39599 0.98056,-22.89138z" fill="#ecec68" stroke="#0d0d00" stroke-width="1.75"/><path d="M352.366,215.35576c0.0043,0.14894 -0.60496,15.60212 -6.99563,14.98949c-8.52906,-0.81763 -8.50268,-8.39842 -8.50268,-8.39842c0,0 4.14582,-16.59779 10.32237,-16.44359c5.66939,0.14154 5.17596,9.85253 5.17596,9.85253z" fill="#ecec68" stroke="#0d0d00" stroke-width="1.75"/><path d="M344.71133,202.95128c4.84734,0.79209 2.37645,10.01837 2.37645,10.01837c-0.02768,0.14286 -2.73788,13.43525 -8.54529,14.56335c-8.07978,1.5695 -6.17632,-10.05791 -6.17632,-10.05791c0,0 7.06421,-15.38675 12.34518,-14.52382z" fill="#ecec68" stroke="#0d0d00" stroke-width="1.75"/><path d="M346.50072,203.90525c1.6016,1.46791 -7.74057,3.87678 -10.49862,7.83786c-3.10536,3.72337 -0.02069,9.07602 -0.02069,9.07602c0,0 -14.01958,-1.16622 -6.26474,-14.75207c3.69408,-6.4717 14.09305,-4.62823 16.78405,-2.16184z" fill="#ecec68" stroke="#0d0d00" stroke-width="1.75"/><path d="M334.17804,206.57619l1.75407,-11.97269l16.93232,1.90283l-2.97666,14.6851z" fill="#ecec68" stroke="none" stroke-width="0"/><path d="M353.71368,221.61986c0,0 -2.00584,-1.81448 -5.29224,-2.15915c-2.61592,-0.27436 -6.04189,0.24032 -7.72762,-0.30198c-4.08318,-1.31357 -10.21394,-6.71036 -10.21394,-6.71036l7.79939,-11.26459c0,0 7.089,-1.217 13.86108,6.78749c3.28115,3.87824 1.57333,13.64858 1.57333,13.64858z" fill="#ecec68" stroke="none" stroke-width="0"/><path d="M349.1145,155.5776c-7.6469,-0.87315 -12.68964,-4.25783 -12.68964,-4.25783l0.16314,-9.09848l26.52589,4.45121l-0.62769,7.80373c0,0 -2.56831,2.3349 -13.3717,1.10135z" fill-opacity="0.70196" fill="#0d0d00" stroke="none" stroke-width="0"/><path d="M346.83865,175.47532c-8.39005,-1.43204 -10.83458,-3.74374 -10.83458,-3.74374l0.33567,-9.06952c0,0 3.29969,3.36795 11.03118,4.69025c8.5722,1.4661 12.29375,-0.80304 12.29375,-0.80304l-1.0297,8.16872c0,0 -2.53928,2.33733 -11.79632,0.75732z" fill-opacity="0.70196" fill="#0d0d00" stroke="none" stroke-width="0"/><path d="M344.42194,198.68129c-7.684,-1.31356 -9.99611,-2.99465 -9.99611,-2.99465l0.43272,-9.05323c0,0 3.08282,2.72317 10.16364,3.93628c7.8508,1.34502 10.9708,-0.38978 10.9708,-0.38978l-1.27076,8.10141c0,0 -1.82224,1.84927 -10.30027,0.39997z" fill-opacity="0.70196" fill="#0d0d00" stroke="none" stroke-width="0"/><path d="M349.36663,151.64241c-8.13902,-0.72128 -12.52224,-2.9072 -12.51589,-3.74518c0.09117,-12.06217 -2.02852,-23.26951 2.9169,-27.05875c2.80347,-2.14806 9.74027,-1.80015 16.01003,1.84886c5.22098,3.03864 9.87654,15.44803 7.73101,27.45818c-0.03751,0.20999 -2.43617,2.53427 -14.14204,1.49689z" fill="#9b9b44" stroke="#0d0d00" stroke-width="1.75"/></g><g stroke-linecap="butt"><path d="M290.03941,203.55588c0,0 -2.33408,-12.09289 -2.75105,-18.17394c-0.4023,-5.86714 -0.43933,-17.32625 -0.43933,-17.32625c0,0 -2.42329,-10.72384 -2.05341,-21.91382c0.3721,-11.25711 4.28832,-23.35675 11.01706,-26.25643c25.65767,-11.05687 14.551,25.23387 13.57203,49.19942c-0.7245,17.736 -1.49972,33.68812 -1.49972,33.68812z" fill="#ecec68" stroke="#0d0d00" stroke-width="1.75"/><path d="M298.27922,200.63541c5.18571,1.1253 -1.77125,22.84382 -1.77125,22.84382c0,0 -6.95771,3.68155 -10.04179,0.45222c-2.2453,-2.35104 -3.86552,-10.51279 -0.96225,-15.78776c2.66468,-4.84149 8.01537,-8.54118 12.7753,-7.50827z" fill="#ecec68" stroke="#0d0d00" stroke-width="1.75"/><path d="M294.40849,203.13353c6.15048,0.58749 8.27627,17.56265 8.27627,17.56265c0,0 -0.88276,7.52928 -9.44833,7.31834c-6.41802,-0.15804 -5.17002,-15.5728 -5.14788,-15.72014c0,0 0.67448,-9.7001 6.31995,-9.16085z" fill="#ecec68" stroke="#0d0d00" stroke-width="1.75"/><path d="M297.17532,200.89717c5.34634,-0.22351 10.51468,15.89925 10.51468,15.89925c0,0 0.49556,11.77176 -7.33773,9.24481c-5.63026,-1.8163 -6.72711,-15.33775 -6.73747,-15.4829c0,0 -1.34682,-9.45598 3.56053,-9.66114z" fill="#ecec68" stroke="#0d0d00" stroke-width="1.75"/><path d="M295.2845,201.6297c2.96731,-2.12594 13.51229,-2.70924 16.40375,4.15869c6.06993,14.41766 -7.98836,13.8945 -7.98836,13.8945c0,0 3.7042,-4.94418 1.06769,-9.01303c-2.26321,-4.26321 -11.24914,-7.77486 -9.4831,-9.04014z" fill="#ecec68" stroke="#0d0d00" stroke-width="1.75"/><path d="M291.0482,208.45718l-1.19441,-14.93605l17.03833,0.14112l0.30586,12.09664z" fill="#ecec68" stroke="none" stroke-width="0"/><path d="M285.9995,218.35166c0,0 -0.52401,-9.90462 3.19848,-13.36146c7.68299,-7.13474 14.57492,-5.07655 14.57492,-5.07655l6.39247,12.11849c0,0 -6.73362,4.62276 -10.94484,5.43727c-1.73858,0.33626 -5.07812,-0.58547 -7.70807,-0.62675c-3.30403,-0.05186 -5.51295,1.50902 -5.51295,1.50902z" fill="#ecec68" stroke="none" stroke-width="0"/><path d="M285.34097,150.64061l0.31252,-7.82269l26.86824,-1.23858l-0.92897,9.05238c0,0 -5.41219,2.75563 -13.10861,2.70559c-10.87336,-0.07069 -13.14319,-2.69671 -13.14319,-2.69671z" fill-opacity="0.70196" fill="#0d0d00" stroke="none" stroke-width="0"/><path d="M286.73741,171.19813l-0.04283,-8.23326c0,0 3.42261,2.69898 12.10876,2.2713c7.83425,-0.38573 11.51397,-3.33375 11.51397,-3.33375l-0.75421,9.04433c0,0 -2.70407,2.00191 -11.20529,2.41763c-9.37971,0.45869 -11.6204,-2.16626 -11.6204,-2.16626z" fill-opacity="0.70196" fill="#0d0d00" stroke="none" stroke-width="0"/><path d="M287.79659,195.06059l-0.29023,-8.19533c0,0 2.8895,2.09639 10.84494,1.7024c7.17519,-0.35535 10.56228,-2.68923 10.56228,-2.68923l-0.65591,9.03979c0,0 -2.49699,1.39173 -10.28307,1.77449c-8.59065,0.42231 -10.17801,-1.63211 -10.17801,-1.63211z" fill-opacity="0.70196" fill="#0d0d00" stroke="none" stroke-width="0"/><path d="M284.84513,146.21848c-0.69001,-12.18075 5.41987,-23.94242 10.96754,-26.33312c5.69168,-2.45276 12.09973,-2.92453 14.685,-1.36882c5.77876,3.47743 2.55036,15.69045 1.08266,28.66623c-0.09419,0.83269 -4.70787,2.47726 -12.87466,2.21746c-11.74582,-0.37366 -13.84847,-2.96879 -13.86054,-3.18176z" fill="#9b9b44" stroke="#0d0d00" stroke-width="1.75"/></g><g stroke="#0d0d00" stroke-linecap="butt"><path d="M343.28371,168.52621c1.57051,0.61318 8.28838,9.05799 8.28838,9.05799c0,0 11.70608,5.3101 12.42364,28.4523c0.59213,19.09689 -6.03411,34.31567 -6.03411,34.31567c0,0 -1.54311,18.66129 -4.4982,32.98192c-2.95508,14.32063 -9.77938,36.72745 -9.77938,36.72745l-23.53796,-0.71747l0.07992,-132.64153c0,0 14.92481,-11.3517 23.05772,-8.17632z" fill="#494920" stroke-width="1.75"/><path d="M319.85249,305.29258v-3.32279c0,0 27.48357,-0.6001 27.98562,0c0.93972,1.12327 -0.81595,3.43621 -3.17871,4.19494z" fill="#080d00" stroke-width="1.5"/></g><g stroke="#0d0d00" stroke-linecap="butt"><path d="M297.64475,168.27621c8.13291,-3.17538 23.05772,8.17632 23.05772,8.17632l0.07992,132.64153l-23.53796,0.71747c0,0 -6.8243,-22.40682 -9.77938,-36.72745c-2.95509,-14.32064 -4.4982,-32.98192 -4.4982,-32.98192c0,0 -6.62624,-15.21878 -6.03411,-34.31568c0.71756,-23.14219 12.42364,-28.4523 12.42364,-28.4523c0,0 6.71787,-8.44481 8.28838,-9.05799z" fill="#494920" stroke-width="1.75"/><path d="M320.54212,307.57133l0.15642,14.66283c0,0 -2.13105,3.33828 -9.57044,6.63437c-13.16886,5.83458 -24.81656,5.60696 -30.80438,4.24795c-3.1241,-0.83013 -6.25925,-6.65632 -2.7366,-11.22699c3.1823,-4.12908 10.60019,-4.84717 15.0485,-8.02239c3.86947,-2.76205 5.72916,-5.94676 5.72916,-5.94676z" fill="#ffffd5" stroke-width="1.5"/><path d="M298.36476,303.9663l22.55234,0.18266l-0.21858,14.13117c0,0 -19.29936,15.66566 -40.37482,10.88232c-3.12409,-0.83014 -5.56047,-4.33037 -2.03782,-8.90104c3.1823,-4.12908 9.90142,-7.17312 14.34973,-10.34834c3.86947,-2.76205 5.72916,-5.94677 5.72916,-5.94677z" fill="#0d0d00" stroke-width="1.5"/><path d="M293.59031,301.71979c0.50205,-0.6001 27.48562,0 27.48562,0v3.32279c0,0 -23.44233,1.32909 -24.80692,0.89088c0,0 -5.36842,-2.3404 -2.6787,-4.21367z" fill="#080d00" stroke-width="1.5"/></g><path d="M342.39707,308.17037c0,0 1.85969,3.18471 5.72916,5.94676c4.44831,3.17522 11.8662,3.89332 15.0485,8.02239c3.52265,4.57067 0.3875,10.39685 -2.7366,11.22699c-5.98782,1.35901 -17.63553,1.58663 -30.80439,-4.24795c-7.43939,-3.29608 -9.57043,-6.63436 -9.57043,-6.63436l0.15642,-14.66283z" fill="#ffffd5" stroke="#0d0d00" stroke-width="1.5" stroke-linecap="butt"/><path d="M342.39707,304.2163c0,0 1.85969,3.18472 5.72916,5.94677c4.44831,3.17523 11.16743,6.21927 14.34973,10.34834c3.52265,4.57066 1.08627,8.0709 -2.03782,8.90104c-21.07546,4.78335 -40.37482,-10.88232 -40.37482,-10.88232l-0.21858,-14.13117l22.55234,-0.18266z" fill="#0d0d00" stroke="#0d0d00" stroke-width="1.5" stroke-linecap="butt"/><path d="M303.78505,203.29675l-1,-20.1721h35.96121l-0.8,20.63442c0,0 -11.12869,1.61816 -17.03787,1.61816c-6.07339,0 -17.12334,-2.08048 -17.12334,-2.08048z" fill="#494920" stroke="none" stroke-width="0" stroke-linecap="butt"/><path d="M337.61107,203.09229c0,0 -7.8499,2.22242 -17.37731,2.30103c-8.35113,0.06889 -16.04309,-2.30103 -16.04309,-2.30103" fill="none" stroke="#0d0d00" stroke-width="1.5" stroke-linecap="round"/><path d="M324.98976,132.18873c0.07947,-0.15786 0.12163,-0.24003 0.12163,-0.24003v0.00001l18.71759,1.12621c0,0 1.08719,4.84172 3.16305,11.534c2.16416,6.97695 6.15197,16.01033 7.67128,23.45935c1.23427,6.05153 -1.53408,8.58939 -1.53408,8.58939c0,0 -6.58646,9.54484 -30.80818,8.46337c-0.16928,-0.00511 -0.34098,-0.01333 -0.5151,-0.02469c-0.1737,-0.00959 -0.34465,-0.02198 -0.51285,-0.03716c-24.17717,-1.83045 -29.57175,-12.09632 -29.57175,-12.09632c0,0 -2.44409,-2.85149 -0.49311,-8.71137c2.4015,-7.21312 7.44367,-15.70317 10.42877,-22.3703c2.86331,-6.39512 4.5232,-11.07154 4.5232,-11.07154l18.71758,1.1262v-0.00001c0,0 0.03199,0.08663 0.09197,0.25288z" fill="#9b9b44" stroke="#0d0d00" stroke-width="1.75" stroke-linecap="butt"/><path d="M290.27693,171.33694c0.77017,0.44132 5.6519,7.72636 27.4756,9.01874c0.79968,0.01562 3.08446,0.14889 3.34481,0.16531c0.26058,0.01042 2.54655,0.11278 3.34354,0.17947c21.84107,0.95852 28.09703,-5.08297 28.90848,-5.44276c1.48781,-0.65967 2.96071,6.25783 2.96071,6.25783c0,0 -11.82408,10.50785 -35.08792,8.92934c-0.21193,-0.01438 -0.42325,-0.03207 -0.63378,-0.05297c-0.21159,-0.00086 -0.42363,-0.00499 -0.63596,-0.01249c-23.30284,-0.82194 -31.6365,-12.9107 -31.6365,-12.9107c0,0 0.54894,-6.94092 1.96101,-6.13176z" fill="#0d0d00" stroke="none" stroke-width="0" stroke-linecap="butt"/><path d="M313.72276,189.66428c-0.98505,-2.21216 -0.75282,-8.33866 0.09117,-10.13736c0.87138,-1.85705 13.86319,-1.28983 15.25758,0.08173c1.34225,1.32029 0.64632,9.77442 -0.63142,11.04678c-1.18491,1.1799 -13.98282,0.36015 -14.71738,-0.99113z" fill="#ffffd5" stroke="#0d0d00" stroke-width="1.5" stroke-linecap="butt"/><path d="M301.45415,124.20451c0.39972,-1.22581 17.342,-12.36355 23.91099,-6.90943c9.11457,7.5677 7.9577,32.8317 1.60467,33.52927c-25.81844,5.44421 -30.86436,1.94886 -33.51363,-2.38039c-3.00331,-4.90778 -1.0133,-9.71991 1.45831,-13.00088c2.47161,-3.28097 4.29459,-4.3535 6.53967,-11.23858z" fill="#9b9b44" stroke="#0d0d00" stroke-width="1.5" stroke-linecap="butt"/><path d="M354.15249,152.09589c-3.14924,3.98036 -8.57786,6.84547 -33.55727,-1.65515c-6.22355,-1.45428 -4.34289,-26.67473 5.61331,-33.09496c7.17556,-4.62716 22.66017,8.46168 22.91003,9.72657c1.40332,7.10459 2.29756,7.03053 5.14497,11.94162c2.06039,3.55364 3.45907,8.56965 -0.11106,13.08194z" fill="#9b9b44" stroke="#0d0d00" stroke-width="1.5" stroke-linecap="butt"/><path d="M315.2436,166.06911l4.14662,-24.79571c0,0 3.30118,-22.94701 10.49984,-20.94169c4.69218,1.3071 14.47098,30.95951 14.47098,30.95951c0,0 -10.00901,0.6122 -8.87702,3.59098c0.59941,1.57734 4.07843,1.30919 5.23803,3.77185c1.55978,3.31257 2.23911,7.07917 2.23911,7.07917z" fill="#9b9b44" stroke="none" stroke-width="0" stroke-linecap="butt"/><path d="M302.93162,163.3247c0,0 1.12605,-3.65797 3.07176,-6.75962c1.44651,-2.30587 4.86829,-1.62251 5.65249,-3.11659c1.48097,-2.82156 -8.38241,-4.62944 -8.38241,-4.62944c0,0 13.26365,-28.266 18.07871,-29.00106c7.38717,-1.12771 7.91315,22.04957 7.91315,22.04957l1.14362,25.11402z" fill="#9b9b44" stroke="none" stroke-width="0" stroke-linecap="butt"/><path d="M296.21056,127.60845c0,0 -1.55479,-10.05927 28.56507,-8.54982c34.74369,1.74117 30.81251,12.37293 30.81251,12.37293c0,0 -15.35102,-2.44341 -28.10254,-3.30935c-25.42466,-1.72658 -31.27504,-0.51375 -31.27504,-0.51375z" fill="#9b9b44" stroke="none" stroke-width="0" stroke-linecap="butt"/><path d="M323.51327,146.34201l1.54052,-25.60369" fill="none" stroke="#0d0d00" stroke-width="1" stroke-linecap="round"/><path d="M330.73618,132.23369c-0.07629,1.26796 -0.70202,1.54634 -1.63697,1.49009c-0.93495,-0.05626 -1.82507,-0.42584 -1.74878,-1.69381c0.07629,-1.26796 0.87033,-1.82245 1.80528,-1.7662c0.93495,0.05626 1.65677,0.70194 1.58048,1.96991z" fill="#ffffd5" stroke="#0d0d00" stroke-width="1" stroke-linecap="butt"/><path d="M328.90421,137.80514c0.93494,0.05626 1.8165,0.56843 1.74021,1.8364c-0.07629,1.26796 -0.85316,1.53725 -1.78811,1.48099c-0.93495,-0.05626 -1.67393,-0.41675 -1.59764,-1.6847c0.07629,-1.26796 0.71059,-1.68894 1.64554,-1.63269z" fill="#ffffd5" stroke="#0d0d00" stroke-width="1" stroke-linecap="butt"/><path d="M321.95524,117.61352l8.18368,-1.69553c0,0 11.60919,-0.06695 14.662,8.17453c2.20879,5.9629 -4.61986,12.39235 -4.61986,12.39235z" fill="#c1c155" stroke="#0d0d00" stroke-width="1.5" stroke-linecap="butt"/><path d="M308.17431,134.57936c0,0 -5.2298,-7.65588 -2.32198,-13.31092c4.01896,-7.81598 14.75769,-5.90349 14.75769,-5.90349l7.16262,3.16532z" fill="#c1c155" stroke="#0d0d00" stroke-width="1.5" stroke-linecap="butt"/><path d="M321.33646,94.22447l11.96842,0.72012l0.00545,21.49164c0,0 -3.33076,4.72388 -7.72788,4.33973c-4.4148,-0.38568 -6.82831,-5.21555 -6.82831,-5.21555z" fill="#ecec68" stroke="#0d0d00" stroke-width="1.5" stroke-linecap="butt"/><g><path d="M341.88418,105.97266c-3.43251,-3.10589 -2.17758,-7.92979 1.74716,-9.90942c3.92473,-1.97962 8.49739,-0.63026 9.93522,4.21528c2.24276,7.55826 -5.91138,14.60216 -5.91138,14.60216c0,0 -1.73271,-5.25398 -5.771,-8.90801z" fill="#ecec68" stroke="#0d0d00" stroke-width="1.75" stroke-linecap="butt"/><path d="M348.19515,102.33906c-3.38305,-1.50608 -3.70863,-5.39019 -1.29052,-7.78395c2.41811,-2.39375 3.45094,-7.52205 6.80604,-5.16956c8.35195,5.85607 2.56848,18.71893 2.56848,18.71893c0,0 -4.10388,-3.99352 -8.08398,-5.76542z" fill="#ecec68" stroke="#0d0d00" stroke-width="1.75" stroke-linecap="butt"/><path d="M336.47051,23.69317c0,0 0.61649,3.75475 1.06141,14.13138c0.28288,6.59737 -0.63952,15.78001 -0.63952,15.78001l-6.40149,-0.46621c0,0 1.87657,-9.07815 1.9055,-15.62972c0.05095,-11.52763 -2.22871,-15.89464 -1.11565,-18.19982c0.88897,-1.84101 8.14188,-1.03415 16.36745,-0.73462c8.12094,0.29573 17.22451,0.04134 16.75986,4.83753c-0.74052,7.64397 -27.93754,0.28143 -27.93754,0.28143z" fill="#0d0d00" stroke="none" stroke-width="NaN" stroke-linecap="butt"/><path d="M316.93698,59.29988c-5.72068,1.7653 -9.66798,17.82983 -14.63302,14.75627c-5.06531,-3.13561 -2.73707,-16.34344 10.20424,-23.54043c8.37056,-4.65508 21.84925,-6.63813 23.83833,-0.93677c1.98908,5.70136 -13.68886,7.95567 -19.40953,9.72097z" fill="#6e6e30" stroke="#0d0d00" stroke-width="1.35" stroke-linecap="butt"/><path d="M300.94696,84.55134c4.13076,-2.50638 3.70129,2.48314 6.35975,5.48796c2.65852,3.00481 1.97281,7.54925 -2.1249,9.05762c-4.82087,1.7746 -10.61007,6.31811 -10.61007,6.31811c0,0 -3.90759,-14.6245 6.3752,-20.86367z" fill="#ecec68" stroke="#0d0d00" stroke-width="1.75" stroke-linecap="butt"/><path d="M299.02268,96.25395c2.06924,-5.58898 7.55432,-6.82029 12.01769,-4.18533c4.46338,2.63495 5.56402,8.40831 1.28346,11.79506c-5.03599,3.98452 -7.82876,9.86312 -7.82876,9.86312c0,0 -3.40578,-2.5489 -4.99346,-7.23159c-1.89248,-5.58162 -0.47895,-10.24125 -0.47895,-10.24125z" fill="#ecec68" stroke="#0d0d00" stroke-width="1.75" stroke-linecap="butt"/><path d="M302.75801,30.68246c0,0 -15.4385,20.20446 -20.53039,14.91c-4.06478,-4.22648 3.21967,-8.9262 10.68657,-14.08609c5.14831,-3.55767 10.23274,-7.28246 11.49009,-6.93164c3.57298,0.99691 2.60073,7.0359 5.86589,17.35975c1.85572,5.86742 6.074,13.48472 6.074,13.48472l-5.61073,2.20596c0,0 -3.3918,-7.97747 -4.98068,-13.97308c-2.49903,-9.43012 -2.99478,-12.96957 -2.99478,-12.96957z" fill="#0d0d00" stroke="none" stroke-width="NaN" stroke-linecap="butt"/><path d="M301.56694,97.3711c-1.93528,-5.17444 -2.19657,-11.02444 -1.63199,-16.89155c0.56424,-5.86334 1.46975,-11.90875 5.30979,-18.32507c7.38155,-12.33378 21.85781,-12.00182 22.98091,-11.95687c1.12309,0.04495 15.71543,0.56131 22.3455,13.31406c3.44927,6.6346 3.99148,12.72333 4.20388,18.60996c0.21252,5.89037 2.05806,14.56482 -0.18333,19.61419c-2.83589,6.38864 -18.68407,11.04148 -21.54613,10.96707c-3.23155,-0.08401 -9.97983,0.01845 -15.85756,-2.44186c-7.80567,-3.26731 -14.22428,-9.15527 -15.62107,-12.88994z" fill="#ecec68" stroke="#0d0d00" stroke-width="1.75" stroke-linecap="butt"/><path d="M343.5176,106.65588l6.97199,-16.62653c0,0 1.25213,0.5748 2.20957,1.35067c1.17834,0.9549 1.16727,-2.78395 1.68778,-2.15317c0.93039,1.12744 2.94569,7.8453 2.94569,7.8453c0,0 -0.23313,3.02317 -1.14542,4.67361c-0.23081,0.41756 -1.09064,1.92285 -1.69434,2.47535c-0.83009,0.75971 -1.72442,1.61706 -2.51203,2.54852c-2.36771,2.80007 -4.71157,4.86533 -4.71157,4.86533z" fill="#ecec68" stroke="none" stroke-width="0" stroke-linecap="butt"/><path d="M305.94676,109.33067c0,0 -2.61761,-3.78308 -5.18518,-7.26198c-0.85411,-1.15726 -1.25181,-3.58764 -2.16921,-4.54615c-0.66722,-0.6971 -1.95826,0.00952 -2.19728,-0.49973c-0.94472,-2.01291 0.47077,-5.7633 0.47077,-5.7633c0,0 -0.10149,-1.78831 1.08103,-3.04233c0.66161,-0.70161 1.89895,-2.0867 3.35977,-3.11838c1.18693,-0.83825 2.7049,-1.41698 2.7049,-1.41698l6.52288,19.95088z" fill="#ecec68" stroke="none" stroke-width="0" stroke-linecap="butt"/><g stroke="#0d0d00" stroke-width="1" stroke-linecap="butt"><g fill="#c5c556"><path d="M305.80325,57.77099c0,0 1.14074,-3.7088 3.02864,-5.26496c1.88792,-1.55617 3.24817,-1.32438 3.80804,-0.37034c0.55986,0.95403 0.7758,2.53512 -1.11212,4.09125c-1.8879,1.55615 -5.72457,1.54404 -5.72457,1.54404z"/><path d="M300.37827,62.24269c-0.55988,-0.95402 -0.55839,-2.24563 1.32948,-3.80176c1.8879,-1.55616 5.50716,-1.8335 5.50716,-1.8335c0,0 -1.0526,3.68753 -2.94049,5.24367c-1.88793,1.55618 -3.33631,1.34566 -3.89619,0.39161z"/></g><g fill="#c5c556"><path d="M306.18349,56.63445c0,0 3.50985,-0.04916 4.38078,1.43492c0.87093,1.48407 -0.01322,2.93898 -1.22689,3.93935c-1.21366,1.00039 -2.71743,1.43992 -3.58835,-0.04413c-0.87091,-1.48407 0.43445,-5.33012 0.43445,-5.33012z"/><path d="M302.27762,56.35173c-0.87093,-1.48406 0.18954,-2.98156 1.40319,-3.98191c1.21366,-1.00039 2.79531,-1.5442 3.66625,-0.06014c0.87092,1.48406 -0.51237,5.43442 -0.51237,5.43442c0,0 -3.68616,0.09174 -4.55709,-1.39234z"/></g><path d="M307.69702,59.21354c-1.42224,1.17232 -3.10706,1.21636 -3.76318,0.09833c-0.65612,-1.11804 -0.03502,-2.97472 1.38721,-4.14703c1.42224,-1.17233 3.10706,-1.21635 3.76317,-0.09832c0.65614,1.11805 0.03503,2.9747 -1.38721,4.14701z" fill="#ffffd5"/></g><path d="M354.12812,87.78944c-0.1492,1.34582 -2.45846,4.28724 -8.80551,4.13474c-2.46153,-0.05912 -6.93759,-1.96757 -9.82065,-2.2872c-1.98989,-0.22061 -8.29752,1.24 -10.08458,0.93627c-7.47816,-1.27098 -8.81802,-5.4183 -8.65091,-6.92582c0.19336,-1.74423 2.51349,-6.70429 11.90099,-5.8481c0.66484,0.06063 4.73039,3.36174 8.25427,3.8726c4.02606,0.58366 4.72026,-1.12684 6.97081,-0.35107c2.25055,0.77576 10.41172,4.87949 10.23554,6.46859z" fill="#c4c44a" stroke="none" stroke-width="0" stroke-linecap="butt"/><path d="M307.58504,87.22183c1.15531,-2.8383 6.15675,-3.48455 11.17107,-1.44351c5.01432,2.04108 8.14264,5.99653 6.98735,8.83482c-1.15531,2.83831 -6.5231,2.47022 -11.5374,0.42918c-5.01431,-2.04104 -7.77634,-4.98221 -6.621,-7.82049z" fill="#a5a549" stroke="none" stroke-width="0" stroke-linecap="butt"/><path d="M321.11994,60.64726c5.10959,-0.22115 7.31476,6.76077 7.31476,6.76077c0,0 -3.35057,-3.59236 -7.07351,-3.23907c-3.98447,0.37811 -6.67499,4.78547 -6.67499,4.78547c0,0 1.78439,-8.10596 6.43375,-8.30719z" fill="#0d0d00" stroke="none" stroke-width="0" stroke-linecap="butt"/><path d="M309.6531,83.15599c-0.27633,-5.74005 5.72404,-14.34625 12.17742,-14.15301c6.45336,0.19321 11.20843,8.93685 10.40861,16.31233c-0.35436,4.04139 -6.30364,7.38007 -10.89506,6.96879c-7.82121,-0.70061 -11.44234,-3.96527 -11.69089,-9.12809z" fill="#0d0d00" stroke="#0d0d00" stroke-width="1" stroke-linecap="butt"/><g fill="#0d0d00" stroke="none" stroke-width="0" stroke-linecap="butt"><path d="M315.66537,71.81696l-4.57161,4.644l-1.36157,-7.27794z"/><path d="M311.98316,76.01891l-2.28297,6.48972l-2.37933,-7.66762z"/><path d="M312.49183,73.28158l-2.85588,4.82507l-1.23691,-6.03614z"/></g><path d="M355.58987,95.08429c-2.50242,2.85381 -10.2732,1.57626 -11.04555,-0.41524c-0.77237,-1.99148 2.20096,-4.96999 5.71925,-6.33451c3.51827,-1.36452 7.59466,5.39853 5.32631,6.74975z" fill="#a5a549" stroke="none" stroke-width="0" stroke-linecap="butt"/><path d="M356.61825,84.81378c-0.52249,4.82035 -0.76247,7.5838 -8.12533,7.80085c-4.32235,0.12742 -9.03993,-3.29699 -9.14493,-7.10109c-0.33497,-6.95104 4.34844,-12.10358 10.40199,-11.9223c6.05359,0.18125 7.44922,5.86324 6.86832,11.22253z" fill="#0d0d00" stroke="#080d00" stroke-width="1" stroke-linecap="butt"/><g fill="#0d0d00" stroke="none" stroke-width="0" stroke-linecap="butt"><path d="M359.49499,75.90375l-3.97969,5.57097l-2.02193,-5.67638z"/><path d="M359.31039,81.58785l-4.98495,5.5008l0.61667,-6.33136z"/><path d="M359.4867,78.84455l-3.3909,4.57843l-0.51283,-5.15909z"/></g><g stroke="none" stroke-width="0" stroke-linecap="butt"><path d="M323.63047,78.09212c-0.70171,-2.81742 0.99369,-5.48258 2.56029,-6.3954c0.17211,-0.10028 0.55624,0.12745 1.0322,0.58032c0.00902,1.02126 0.00849,2.04244 -0.01693,3.06298c-0.02155,0.86551 -0.06132,1.73077 -0.10937,2.5958c-1.15543,0.06109 -2.30944,0.1263 -3.4662,0.1563z" fill="#6e6e30"/><path d="M327.69898,77.90456c0.04695,-0.84966 0.08573,-1.69953 0.1069,-2.54961c0.02022,-0.81198 0.02477,-1.62436 0.0213,-2.43687c0.62594,0.72721 1.31321,1.71133 1.86376,2.78285c0.01151,0.6807 0.03803,1.39263 0.0637,2.1195c-0.68654,0.01877 -1.37148,0.04953 -2.05567,0.08413z" fill="#6e6e30"/><path d="M330.43949,77.51077c0.03029,0.09899 0.05992,0.19703 0.08885,0.29407c-0.06007,0.00076 -0.12011,0.00163 -0.18015,0.00259c-0.00702,-0.21427 -0.01409,-0.42729 -0.02083,-0.63872c0.03979,0.11395 0.07724,0.22803 0.11213,0.34206z" fill="#6e6e30"/><path d="M327.40864,82.72521c0.07299,-1.40585 0.17254,-2.8122 0.2558,-4.2191c0.70247,-0.03565 1.40573,-0.06738 2.1107,-0.08636c0.05047,1.54149 0.07805,3.12918 -0.06433,4.61178c-0.72301,0.04776 -1.51371,-0.0113 -2.30217,-0.30632z" fill="#6e6e30"/><path d="M331.02288,82.8369c-0.22348,0.04889 -0.46245,0.09471 -0.71338,0.13095c0.12944,-1.4752 0.10394,-3.03964 0.05772,-4.56085c0.11141,-0.00175 0.22285,-0.00314 0.33436,-0.00411c0.7207,2.56655 0.90123,4.30714 0.3213,4.434z" fill="#6e6e30"/><path d="M323.94354,79.00521c-0.04672,-0.10609 -0.0897,-0.21221 -0.12906,-0.31828c1.08365,-0.03156 2.165,-0.09219 3.24755,-0.14949c-0.07765,1.30785 -0.16897,2.61521 -0.23963,3.92217c-1.05128,-0.5642 -2.06727,-1.61151 -2.87885,-3.4544z" fill="#6e6e30"/><path d="M329.82855,75.41288c0.05007,0.43481 -0.61842,1.00245 -1.43821,1.10052c-0.81976,0.09803 -1.80181,-0.4895 -1.8519,-0.92433c-0.05008,-0.43483 0.76933,-0.95611 1.48052,-0.99416c0.71117,-0.0381 1.7595,0.38315 1.80958,0.81797z" fill="#ffffff"/></g><g stroke="none" stroke-width="0" stroke-linecap="butt"><path d="M348.74902,80.65343c-0.24955,-2.89274 1.84417,-5.25785 3.53492,-5.91274c0.18575,-0.07195 0.52926,0.21341 0.928,0.73554c-0.15183,1.00996 -0.31307,2.01832 -0.49878,3.02214c-0.1575,0.85133 -0.33295,1.69955 -0.51654,2.54624c-1.15065,-0.12152 -2.30053,-0.23874 -3.4476,-0.39117z" fill="#6e6e30"/><path d="M352.79631,81.10851c0.18009,-0.83168 0.35214,-1.66484 0.50684,-2.501c0.14777,-0.79868 0.2801,-1.60022 0.40456,-2.40315c0.50368,0.81666 1.02751,1.89669 1.40256,3.04149c-0.09577,0.67402 -0.18162,1.38127 -0.27066,2.10311c-0.68094,-0.08952 -1.36219,-0.16694 -2.0433,-0.24046z" fill="#6e6e30"/><path d="M355.56466,81.15088c0.01433,0.10253 0.02816,0.20401 0.04146,0.30439c-0.05944,-0.00871 -0.11887,-0.0173 -0.17831,-0.02579c0.02679,-0.2127 0.05334,-0.42418 0.07995,-0.63404c0.02136,0.1188 0.04039,0.23734 0.0569,0.35545z" fill="#6e6e30"/><path d="M351.75095,85.82344c0.29334,-1.37684 0.61298,-2.74999 0.91664,-4.12627c0.69933,0.07536 1.39882,0.1547 2.098,0.24691c-0.19276,1.53022 -0.4154,3.10246 -0.78935,4.54418c-0.72152,-0.06663 -1.49306,-0.24939 -2.22528,-0.66483z" fill="#6e6e30"/><path d="M355.30256,86.50257c-0.22838,0.0131 -0.4716,0.02074 -0.72511,0.01705c0.36,-1.43643 0.58103,-2.9854 0.77481,-4.49492c0.11029,0.0158 0.22057,0.03197 0.33083,0.04857c0.30779,2.64799 0.21212,4.39531 -0.38054,4.42931z" fill="#6e6e30"/><path d="M348.91449,81.60441c-0.02944,-0.11212 -0.05519,-0.22369 -0.07736,-0.33462c1.07511,0.13938 2.15253,0.2497 3.23061,0.36348c-0.28251,1.27933 -0.57846,2.55603 -0.85393,3.83557c-0.94938,-0.72262 -1.78788,-1.91678 -2.29932,-3.86443z" fill="#6e6e30"/><path d="M355.44117,79.19215c-0.01899,0.43728 -0.76848,0.89263 -1.5935,0.86046c-0.82498,-0.0322 -1.70231,-0.76699 -1.68334,-1.20426c0.01899,-0.4373 0.91021,-0.82312 1.61852,-0.74876c0.70829,0.07429 1.67727,0.6553 1.65829,1.09258z" fill="#ffffff"/></g><path d="M329.42858,50.33702c0,0 3.02418,-2.62162 6.41625,-4.36773c2.97319,-1.53049 7.28118,-2.49015 7.42503,-2.62048c0.40261,-0.36469 -0.0216,-1.73639 -0.87389,-2.81358c-0.86592,-1.09436 -2.16352,-1.89152 -2.16352,-1.89152c0,0 5.73914,-2.70466 13.16379,1.72846c6.44759,3.84973 7.29041,9.27512 7.29041,9.27512c0,0 1.45635,-1.77427 1.95288,-3.2132c1.05442,-3.05582 0.97084,-5.18445 0.97084,-5.18445c0,0 5.4605,0.57777 6.42351,11.39518c0.63729,7.15879 -1.72931,12.67305 -1.72931,12.67305c0,0 1.4905,-0.17727 2.39603,-0.57389c0.90551,-0.3966 2.68434,-1.65127 2.68434,-1.65127c0,0 0.84888,10.40203 -16.17244,13.9128c-12.13964,2.50389 -18.40413,-4.31365 -18.40413,-4.31365" fill="#ecec68" stroke="#0d0d00" stroke-width="1.75" stroke-linecap="round"/><g fill="none" stroke="#0d0d00" stroke-width="1" stroke-linecap="round"><path d="M302.59124,91.26481l2.17962,-3.09776"/><path d="M347.25719,101.16439c0,0 -2.85762,1.90244 -7.18453,1.42417c-3.75425,-0.41497 -6.57265,-1.38659 -10.94019,-2.17951c-6.1208,-1.11122 -9.23134,1.20541 -18.08036,-3.5005c-5.67485,-3.01789 -6.97873,-7.09928 -6.97873,-7.09928"/></g></g></g></g></svg>