<svg version="1.1" xmlns="http://www.w3.org/2000/svg" xmlns:xlink="http://www.w3.org/1999/xlink" width="117.87889" height="106.76063" viewBox="0,0,117.87889,106.76063"><g transform="translate(-183.00249,-122.69607)"><g data-paper-data="{&quot;isPaintingLayer&quot;:true}" fill-rule="nonzero" stroke-linejoin="miter" stroke-miterlimit="10" stroke-dasharray="" stroke-dashoffset="0" style="mix-blend-mode: normal"><g stroke-linecap="butt"><path d="M288.37502,207.45833c5.61856,4.91681 -4.86394,15.26507 -13.16667,16.91667c-13.24449,2.63463 -21.5,-5.58333 -21.5,-5.58333l6,-4.41667c0,0 5.91723,3.95885 11.501,1.66911c6.88667,-2.82402 10.29427,-14.59894 17.16566,-8.58578z" fill="#ecec68" stroke="#000000" stroke-width="2"/><path d="M276.63041,211.15282l4.33946,-4.67009l8.14976,7.57279l-4.33946,4.67008z" fill="#000000" stroke="none" stroke-width="0"/><path d="M271.19665,216.27579l4.50931,-3.08252l4.09743,9.23928l-5.50931,2.08252z" fill="#000000" stroke="none" stroke-width="0"/><path d="M263.35949,216.07027l5.60739,0.59853l-1.57637,8.46927l-6.35739,-1.72354z" fill="#000000" stroke="none" stroke-width="0"/></g><g data-paper-data="{&quot;index&quot;:null}" stroke-linecap="butt"><path d="M263.48255,210.65005c3.79155,2.92137 4.51895,6.84775 2.72119,9.18102c-1.79776,2.33327 -6.99547,1.96764 -10.78703,-0.95373c-3.79155,-2.92137 -4.74117,-7.2922 -2.94341,-9.62546c1.79776,-2.33327 7.21769,-1.52319 11.00925,1.39818z" fill="#ecec68" stroke="#000000" stroke-width="2"/><path d="M259.55188,220.79262l6.11741,-7.29303c0,0 3.15807,2.96033 0.90032,6.34629c-1.93947,2.90865 -7.01773,0.94673 -7.01773,0.94673z" fill="#000000" stroke="none" stroke-width="0"/><path d="M253.44077,216.90373l7.33963,-8.29303l2.78921,2.12408l-7.0063,8.62636z" fill="#000000" stroke="none" stroke-width="0"/></g><g stroke-linecap="butt"><path d="M230.1708,208.02965c1.79776,2.33327 0.84814,6.7041 -2.94341,9.62546c-3.79155,2.92137 -8.98926,3.287 -10.78702,0.95373c-1.79776,-2.33327 -1.07036,-6.25965 2.72119,-9.18102c3.79155,-2.92137 9.21148,-3.73145 11.00924,-1.39818z" fill="#ecec68" stroke="#000000" stroke-width="2"/><path d="M216.07449,218.62366c-2.25775,-3.38597 0.90032,-6.34629 0.90032,-6.34629l6.11741,7.29303c0,0 -5.07826,1.96191 -7.01773,-0.94674z" fill="#000000" stroke="none" stroke-width="0"/><path d="M226.08079,218.13891l-7.0063,-8.62636l2.78921,-2.12407l7.33963,8.29303z" fill="#000000" stroke="none" stroke-width="0"/></g><path d="M240.91496,226.18342c0,0.7405 -3.6377,1.8081 -9.04974,1.77241c-5.91985,-0.03904 -8.28349,-1.2374 -8.59956,-1.91835c-1.38426,-2.98226 0.39895,-5.24797 8.5651,-5.10799c4.02776,0.06904 7.27771,0.47006 8.5305,1.30635c1.39536,0.93146 0.5537,2.37617 0.5537,3.94758z" fill="#c5c556" stroke="#9b9b44" stroke-width="3" stroke-linecap="butt"/><path d="M250.0935,220.92948c8.16615,-0.13998 9.94936,2.12573 8.5651,5.10799c-0.31292,0.67415 -2.25852,2.13538 -8.35773,1.80566c-6.6718,-0.36067 -9.29157,-0.91172 -9.29157,-1.65972c0,-1.57638 -0.72955,-3.24678 0.67809,-4.17864c1.25539,-0.83106 4.39253,-1.0065 8.40611,-1.0753z" data-paper-data="{&quot;index&quot;:null}" fill="#c5c556" stroke="#9b9b44" stroke-width="3" stroke-linecap="butt"/><path d="M241.68735,219.36998c-6.67004,0.08177 -14.65905,0.16354 -14.8262,-0.84771c-0.62812,-3.80007 5.58333,-17.32891 5.58333,-17.32891l17.34171,-0.44122c0,0 5.49496,15.18096 5.74163,17.06643c0.24667,1.88547 -6.60945,1.46275 -13.84047,1.55141z" fill="#000000" stroke="#6e6e30" stroke-width="3" stroke-linecap="butt"/><g stroke="none" stroke-width="0" stroke-linecap="butt"><path d="M239.69382,209.98709c-46.20152,-4.34513 -54.77167,-34.08346 -54.77167,-34.08346c0,0 6.9995,-0.98614 12.60921,-7.78725c12.40879,-15.04421 20.84091,-42.78189 48.23493,-40.41916c28.6119,2.46777 31.63369,29.07042 41.55513,47.10055c3.99496,7.21388 11.55704,12.27063 11.55704,12.27063c0,0 -12.15382,27.34181 -59.18464,22.91868z" fill="#ecec68"/><path d="M297.9973,185.73192c0,0 -3.88649,10.81099 -15.92711,17.09172c-12.4891,6.51467 -32.01674,6.44384 -32.01674,6.44384c0,0 18.93359,-10.07225 20.68412,-41.94649c1.00089,-18.22475 -12.38201,-37.29273 -12.38201,-37.29273c0,0 10.50267,6.17689 17.20162,17.20857c5.35396,8.81678 7.01422,19.46846 10.48881,24.46327c1.69538,2.43714 2.59422,5.59399 4.57757,7.88535c3.26263,3.76927 7.37375,6.14648 7.37375,6.14648z" fill="#cbcb6a"/></g><path d="M201.34351,181.45284c0.28139,-3.05532 2.98633,-5.30402 6.04165,-5.02263c3.05532,0.28139 5.30403,2.98632 5.02263,6.04164c-0.28139,3.05532 -2.98633,5.30403 -6.04164,5.02264c-3.05532,-0.28139 -5.30403,-2.98633 -5.02264,-6.04165z" fill="#6e6e30" stroke="none" stroke-width="0" stroke-linecap="butt"/><path d="M270.15317,187.90172c0.28139,-3.05532 2.98633,-5.30402 6.04165,-5.02263c3.05532,0.28139 5.30404,2.98632 5.02265,6.04163c-0.28139,3.05532 -2.98634,5.30403 -6.04166,5.02264c-3.05532,-0.28139 -5.30403,-2.98633 -5.02264,-6.04165z" fill="#6e6e30" stroke="none" stroke-width="0" stroke-linecap="butt"/><g stroke="none" stroke-width="0" stroke-linecap="butt"><path d="M219.09194,137.45864l-9.98395,14.81346c0,0 -1.50672,-0.58333 -4.17905,-1.37392c-3.632,-1.07452 -8.95649,-2.91486 -11.29935,-7.75074c-4.26629,-8.80593 0.20204,-14.67575 2.91051,-17.10574c2.83689,-2.54522 9.11442,-4.93219 15.16637,-1.98354c4.81795,2.34744 6.02031,6.58055 6.61036,9.63252c0.43042,2.22631 0.77513,3.76794 0.77513,3.76794z" fill="#000000"/><path d="M200.97673,137.88242c0.35034,-3.80388 3.71799,-6.60352 7.52186,-6.25318c3.80388,0.35034 6.60351,3.71799 6.25319,7.52185c-0.35034,3.80388 -3.71799,6.60352 -7.52186,6.2532c-3.80388,-0.35034 -6.60351,-3.718 -6.25319,-7.52186z" fill="#cbcb6a"/></g><path d="M239.69381,209.9871c-46.20152,-4.34513 -54.77167,-34.08346 -54.77167,-34.08346c0,0 6.9995,-0.98614 12.60921,-7.78725c12.40879,-15.04421 20.84091,-42.78189 48.23493,-40.41916c28.61191,2.46777 30.86111,29.06952 40.89128,47.0394c5.34427,9.57471 12.2209,12.33178 12.2209,12.33178c0,0 -12.15382,27.34181 -59.18464,22.91869z" fill="none" stroke="#000000" stroke-width="3" stroke-linecap="butt"/><g data-paper-data="{&quot;index&quot;:null}" stroke="none" stroke-width="0" stroke-linecap="butt"><path d="M272.73849,142.39943c0,0 0.62049,-1.45274 1.4503,-3.56298c1.13755,-2.89288 3.09287,-6.83516 8.25855,-8.26313c6.4887,-1.79368 12.22466,1.69974 14.54895,4.72029c2.21905,2.88381 5.54011,9.47102 -0.26281,17.3496c-3.18673,4.32661 -8.75777,5.16349 -12.52494,5.55655c-2.77179,0.2892 -4.35969,0.58751 -4.35969,0.58751l-7.11036,-16.38782z" fill="#000000"/><path d="M282.94972,152.37797c-3.80387,-0.35034 -6.60352,-3.718 -6.25319,-7.52186c0.35033,-3.80388 3.71799,-6.60351 7.52186,-6.25317c3.80387,0.35034 6.60352,3.71799 6.25319,7.52185c-0.35033,3.80388 -3.71798,6.60352 -7.52186,6.25319z" fill="#cbcb6a"/></g><path d="M239.59528,127.06119l13.04675,1.45266c0,0 -1.1032,9.05101 -3.69144,16.80582c-1.95429,5.85539 -4.51215,10.93372 -4.51215,10.93372c0,0 -2.43624,-4.83165 -3.47844,-11.64256c-0.78656,-5.14025 -1.36474,-17.54962 -1.36474,-17.54962z" fill="#000000" stroke="none" stroke-width="0" stroke-linecap="butt"/><path d="M230.97235,145.72403c0,0 4.81296,-7.21712 14.65178,-6.43338c10.08878,0.80364 12.73233,8.95544 12.73233,8.95544z" fill="#000000" stroke="none" stroke-width="0" stroke-linecap="butt"/><path d="M229.61456,135.93324c0,0 5.28295,-7.67593 16.72991,-6.7441c11.73781,0.95552 15.13522,9.67884 15.13522,9.67884z" fill="#000000" stroke="none" stroke-width="0" stroke-linecap="butt"/><g fill="#000000" stroke="none" stroke-width="0" stroke-linecap="butt"><path d="M191.07734,186.36145c0,0 -5.00504,-6.79934 -4.94773,-9.1247c0.04805,-1.95004 5.26867,-3.90075 5.26867,-3.90075c0,0 3.4323,3.18726 8.73182,5.73983c4.44767,2.1423 9.04825,2.9273 9.04825,2.9273c0,0 -2.29083,2.84764 -7.53184,3.72723c-7.66906,1.28708 -10.56914,0.63107 -10.56914,0.63107z"/><path d="M192.56471,188.34239c0,0 8.3907,2.41147 13.62841,2.43944c4.3958,0.02349 8.39596,-1.1031 8.39596,-1.1031c0,0 0.03569,3.13662 -4.05699,6.43103c-2.31162,1.86075 -4.59439,2.91058 -5.95001,3.56486c-0.76452,-0.49586 -2.24859,-1.39449 -2.96185,-1.81583c-0.59943,-0.3541 -1.44764,-1.39306 -2.43501,-2.63566c-0.76964,-1.64453 -1.9768,-3.05624 -3.48552,-4.07167c-0.0263,-0.0177 -0.05267,-0.03527 -0.07916,-0.05273c0.68836,-0.90739 -3.05582,-2.75634 -3.05582,-2.75634z"/><path d="M214.39432,200.2761c4.22817,-2.14894 6.68551,-4.92354 6.68551,-4.92354c0,0 1.13087,3.05151 -0.58988,7.45967c-0.62552,1.60244 -1.20832,2.92512 -1.73102,4.00815c-2.06986,-1.3674 -4.328,-2.28147 -6.85364,-3.58948c-0.21153,-0.10954 -2.46401,-1.50878 -2.72151,-1.57689c1.0887,-0.55155 3.33259,-0.42344 5.21055,-1.3779z"/></g><g data-paper-data="{&quot;index&quot;:null}" fill="#000000" stroke="none" stroke-width="0" stroke-linecap="butt"><path d="M280.61575,192.75232c-4.99221,-1.82207 -6.72436,-5.04021 -6.72436,-5.04021c0,0 4.6666,0.06848 9.43072,-1.22541c5.67658,-1.5417 9.63329,-4.04844 9.63329,-4.04844c0,0 4.7765,2.87143 4.46757,4.79744c-0.36839,2.29672 -6.53111,8.06752 -6.53111,8.06752c0,0 -2.97112,0.11527 -10.27611,-2.55091z"/><path d="M288.01489,199.73371c-0.02922,0.01232 -0.85107,0.4539 -0.88016,0.46649c-1.66883,0.72276 -4.77589,0.85843 -5.83296,2.33474c-0.20611,0.1792 1.73028,1.67985 1.53547,1.84638c-0.93721,0.80123 -3.86944,0.10261 -4.41091,0.30019c-0.77821,0.28397 -2.40145,0.89642 -3.24367,1.24431c-1.21332,-0.89087 -3.26595,-2.34001 -5.19882,-4.59164c-3.4221,-3.9865 -2.81412,-7.06384 -2.81412,-7.06384c0,0 3.7271,1.83827 8.05324,2.61805c5.1547,0.92915 14.73896,-0.0779 14.73896,-0.0779c0,0 -2.45808,1.90538 -1.94702,2.92324z"/><path d="M270.29684,207.03139c-0.2656,0.01993 -2.73577,0.98422 -2.96373,1.05327c-2.72204,0.82471 -5.10919,1.31096 -7.39397,2.2773c-0.3161,-1.16029 -0.64752,-2.56718 -0.96982,-4.2569c-0.88664,-4.64828 0.78255,-7.44192 0.78255,-7.44192c0,0 1.9092,3.17676 5.67375,6.06182c1.67203,1.28143 3.90159,1.56532 4.87123,2.30643z"/></g><g fill="#000000" stroke="none" stroke-width="0" stroke-linecap="butt"><path d="M226.5709,168.98086c-0.78825,8.55871 -5.32825,15.13765 -10.14038,14.69444c-4.81212,-0.44319 -8.07412,-7.74068 -7.28587,-16.29939c0.78825,-8.55871 5.32826,-15.13765 10.14038,-14.69444c4.81212,0.44319 8.07412,7.74068 7.28587,16.29939z"/><path d="M215.8538,174.67196c-0.11649,1.2649 -4.45614,1.49765 -4.45614,1.49765c0,0 -1.11664,-0.57292 -2.57897,-1.31904c-1.90467,-0.97181 -4.2507,-2.29399 -3.99718,-3.60482c0.29565,-1.52861 2.74369,-1.10424 4.63334,-0.73406c1.40755,0.27574 2.42887,0.38026 2.42887,0.38026c0,0 4.08656,2.51513 3.97007,3.78002z"/></g><g data-paper-data="{&quot;index&quot;:null}" fill="#000000" stroke="none" stroke-width="0" stroke-linecap="butt"><path d="M268.98273,157.66028c4.81213,0.44319 8.07412,7.74067 7.28587,16.29938c-0.78825,8.55871 -5.32825,15.13765 -10.14037,14.69445c-4.81213,-0.44319 -8.07412,-7.74068 -7.28587,-16.29939c0.78825,-8.55871 5.32825,-15.13764 10.14037,-14.69444z"/><path d="M272.93341,176.91626c0,0 1.02324,0.0838 2.45748,0.06979c1.92547,-0.0188 4.40982,0.01108 4.4213,1.56798c0.00986,1.33507 -2.53821,2.20654 -4.58835,2.81412c-1.574,0.46649 -2.77652,0.8258 -2.77652,0.8258c0,0 -4.22413,-1.02144 -4.10762,-2.28635c0.11649,-1.26489 4.59369,-2.99131 4.59369,-2.99131z"/></g><path d="M219.62152,164.54996c-0.31113,3.37831 -2.09192,5.9762 -3.9775,5.80254c-1.88557,-0.17365 -3.1619,-3.0531 -2.85076,-6.43141c0.31113,-3.37831 2.09191,-5.97619 3.97749,-5.80251c1.88557,0.17365 3.1619,3.05309 2.85076,6.4314z" fill="#ffffff" stroke="none" stroke-width="0" stroke-linecap="butt"/><path d="M268.86798,168.79859c-0.31114,3.37831 -2.09191,5.9762 -3.97749,5.80253c-1.88558,-0.17365 -3.1619,-3.05311 -2.85076,-6.43142c0.31114,-3.37831 2.09192,-5.97618 3.9775,-5.80251c1.88558,0.17365 3.1619,3.05309 2.85075,6.43139z" fill="#ffffff" stroke="none" stroke-width="0" stroke-linecap="butt"/><path d="M230.33843,174.35988c0.6042,-6.5602 6.41207,-11.38851 12.97227,-10.78431c6.5602,0.6042 11.38851,6.41207 10.78431,12.97227c-0.6042,6.5602 -6.41207,11.38852 -12.97228,10.78431c-6.5602,-0.6042 -11.38851,-6.41208 -10.7843,-12.97228z" fill="#6e6e30" stroke="none" stroke-width="0" stroke-linecap="butt"/><path d="M217.15375,175.76773c0.09567,-1.03881 1.01535,-1.80335 2.05416,-1.70768c1.03881,0.09567 1.80337,1.01535 1.7077,2.05416c-0.09567,1.03881 -1.01537,1.80337 -2.05417,1.7077c-1.03881,-0.09567 -1.80337,-1.01537 -1.7077,-2.05417z" fill="#6e6e30" stroke="none" stroke-width="0" stroke-linecap="butt"/><path d="M267.01292,180.80604c0.09569,-1.03881 1.01535,-1.80336 2.05415,-1.70769c1.03881,0.09567 1.80337,1.01535 1.7077,2.05415c-0.09569,1.03881 -1.01537,1.80337 -2.05417,1.7077c-1.03881,-0.09567 -1.80337,-1.01537 -1.7077,-2.05417z" fill="#6e6e30" stroke="none" stroke-width="0" stroke-linecap="butt"/><path d="M251.24231,179.54885c0,0 -1.81793,3.28719 -5.97028,1.95696c-2.94471,-0.94334 -2.96281,-4.03791 -2.96281,-4.03791c0,0 -1.02322,3.49028 -3.95601,3.54663c-4.19187,0.08054 -5.88012,-3.02694 -5.88012,-3.02694" fill="none" stroke="#000000" stroke-width="2" stroke-linecap="round"/><g stroke="none" stroke-width="0" stroke-linecap="butt"><path d="M249.69345,171.83262c-0.20893,2.26857 -4.39407,6.64766 -7.64248,6.20023c-3.24748,-0.44729 -6.75639,-5.23853 -6.54746,-7.5071c0.20893,-2.26857 3.42607,-4.32905 7.43618,-3.95971c4.01011,0.36934 6.96271,2.99802 6.75378,5.2666z" fill="#000000"/><path d="M247.11444,170.75823c-0.08652,0.93952 -2.18149,1.51467 -4.67919,1.28462c-2.49774,-0.23004 -4.45239,-1.17816 -4.36585,-2.11766c0.08652,-0.93952 1.43305,-1.5585 4.85283,-1.35229c3.3365,0.20117 4.27877,1.24583 4.19225,2.18534z" fill="#ffffff"/></g></g></g></svg>