<svg version="1.1" xmlns="http://www.w3.org/2000/svg" xmlns:xlink="http://www.w3.org/1999/xlink" width="118.40431" height="105.58008" viewBox="0,0,118.40431,105.58008"><g transform="translate(-181.40771,-123.87662)"><g data-paper-data="{&quot;isPaintingLayer&quot;:true}" fill-rule="nonzero" stroke-linejoin="miter" stroke-miterlimit="10" stroke-dasharray="" stroke-dashoffset="0" style="mix-blend-mode: normal"><g stroke-linecap="butt"><path d="M288.375,207.45833c5.61856,4.91681 -4.86394,15.26507 -13.16667,16.91667c-13.24449,2.63463 -21.5,-5.58333 -21.5,-5.58333l6,-4.41667c0,0 5.91723,3.95885 11.501,1.66911c6.88667,-2.82402 10.29427,-14.59894 17.16566,-8.58578z" fill="#ecec68" stroke="#000000" stroke-width="2"/><path d="M276.63039,211.15282l4.33946,-4.67009l8.14976,7.57279l-4.33946,4.67008z" fill="#000000" stroke="none" stroke-width="0"/><path d="M271.19663,216.27579l4.50931,-3.08252l4.09743,9.23928l-5.50931,2.08252z" fill="#000000" stroke="none" stroke-width="0"/><path d="M263.35949,216.07027l5.60739,0.59853l-1.57637,8.46927l-6.35739,-1.72354z" fill="#000000" stroke="none" stroke-width="0"/></g><g data-paper-data="{&quot;index&quot;:null}" stroke-linecap="butt"><path d="M263.48253,210.65005c3.79155,2.92137 4.51895,6.84775 2.72119,9.18102c-1.79776,2.33327 -6.99547,1.96764 -10.78703,-0.95373c-3.79155,-2.92137 -4.74117,-7.2922 -2.94341,-9.62546c1.79776,-2.33327 7.21769,-1.52319 11.00925,1.39818z" fill="#ecec68" stroke="#000000" stroke-width="2"/><path d="M259.55186,220.79262l6.11741,-7.29303c0,0 3.15807,2.96033 0.90032,6.34629c-1.93947,2.90865 -7.01773,0.94673 -7.01773,0.94673z" fill="#000000" stroke="none" stroke-width="0"/><path d="M253.44075,216.90373l7.33963,-8.29303l2.78921,2.12408l-7.0063,8.62636z" fill="#000000" stroke="none" stroke-width="0"/></g><g stroke-linecap="butt"><path d="M230.17078,208.02965c1.79776,2.33327 0.84814,6.7041 -2.94341,9.62546c-3.79155,2.92137 -8.98926,3.287 -10.78702,0.95373c-1.79776,-2.33327 -1.07036,-6.25965 2.72119,-9.18102c3.79155,-2.92137 9.21148,-3.73145 11.00924,-1.39818z" fill="#ecec68" stroke="#000000" stroke-width="2"/><path d="M216.07447,218.62366c-2.25775,-3.38597 0.90032,-6.34629 0.90032,-6.34629l6.11741,7.29303c0,0 -5.07826,1.96191 -7.01773,-0.94674z" fill="#000000" stroke="none" stroke-width="0"/><path d="M226.08077,218.13891l-7.0063,-8.62636l2.78921,-2.12407l7.33963,8.29303z" fill="#000000" stroke="none" stroke-width="0"/></g><path d="M240.91494,226.18342c0,0.7405 -3.6377,1.8081 -9.04974,1.77241c-5.91985,-0.03904 -8.28349,-1.2374 -8.59956,-1.91835c-1.38426,-2.98226 0.39895,-5.24797 8.5651,-5.10799c4.02776,0.06904 7.27771,0.47006 8.5305,1.30635c1.39536,0.93146 0.5537,2.37617 0.5537,3.94758z" fill="#c5c556" stroke="#9b9b44" stroke-width="3" stroke-linecap="butt"/><path d="M250.09348,220.92948c8.16615,-0.13998 9.94936,2.12573 8.5651,5.10799c-0.31292,0.67415 -2.25852,2.13538 -8.35773,1.80566c-6.6718,-0.36067 -9.29157,-0.91172 -9.29157,-1.65972c0,-1.57638 -0.72955,-3.24678 0.67809,-4.17864c1.25539,-0.83106 4.39253,-1.0065 8.40611,-1.0753z" data-paper-data="{&quot;index&quot;:null}" fill="#c5c556" stroke="#9b9b44" stroke-width="3" stroke-linecap="butt"/><path d="M241.68733,219.36998c-6.67004,0.08177 -14.65905,0.16354 -14.8262,-0.84771c-0.62812,-3.80007 5.58333,-17.32891 5.58333,-17.32891l17.34171,-0.44122c0,0 5.49496,15.18096 5.74163,17.06643c0.24667,1.88547 -6.60945,1.46275 -13.84047,1.55141z" fill="#000000" stroke="#6e6e30" stroke-width="3" stroke-linecap="butt"/><g stroke="none" stroke-width="0" stroke-linecap="butt"><path d="M240.46029,208.58029c-46.39329,-1.05972 -57.04955,-30.11588 -57.04955,-30.11588c0,0 6.912,-1.47973 12.02559,-8.66132c11.31134,-15.88583 17.75639,-44.15137 45.24897,-43.73611c28.71485,0.43372 33.61448,26.75531 44.78883,44.03693c4.4962,6.9126 12.39764,11.42069 12.39764,11.42069c0,0 -10.18545,28.13443 -57.41149,27.05569z" fill="#ecec68"/><path d="M296.89811,180.25392c0,0 -3.31913,11.21568 -14.88435,18.33397c-11.99599,7.38343 -31.27088,8.54036 -31.27088,8.54036c0,0 18.17211,-11.38882 17.65919,-43.30697c-0.29328,-18.24985 -14.99396,-36.32138 -14.99396,-36.32138c0,0 10.91403,5.417 18.378,15.94615c5.96537,8.41514 8.37638,18.92237 12.19624,23.65836c1.86385,2.31085 2.98417,5.39607 5.12493,7.54109c3.52157,3.52856 7.79082,5.60842 7.79082,5.60842z" fill="#cbcb6a"/></g><path d="M200.18411,182.83583c0.06414,-3.06758 2.60291,-5.50234 5.67049,-5.4382c3.06758,0.06414 5.50235,2.6029 5.43821,5.67048c-0.06414,3.06758 -2.60291,5.50235 -5.67049,5.43821c-3.06758,-0.06414 -5.50235,-2.60291 -5.43821,-5.67049z" fill="#6e6e30" stroke="none" stroke-width="0" stroke-linecap="butt"/><path d="M269.27779,184.39169c0.06414,-3.06758 2.60291,-5.50234 5.67049,-5.4382c3.06758,0.06414 5.50234,2.6029 5.4382,5.67048c-0.06414,3.06758 -2.6029,5.50234 -5.67048,5.4382c-3.06758,-0.06414 -5.50235,-2.6029 -5.43821,-5.67048z" fill="#6e6e30" stroke="none" stroke-width="0" stroke-linecap="butt"/><g stroke="none" stroke-width="0" stroke-linecap="butt"><path d="M214.76987,137.69437l-8.90896,15.48381c0,0 -1.54426,-0.47508 -4.26592,-1.07429c-3.69904,-0.81439 -9.14055,-2.27275 -11.82026,-6.93042c-4.87967,-8.48143 -0.83857,-14.65317 1.69084,-17.269c2.64936,-2.73989 8.74194,-5.56577 14.98764,-3.05344c4.97222,2.00007 6.47158,6.13732 7.27644,9.13981c0.58712,2.19021 1.04022,3.70353 1.04022,3.70353z" fill="#000000"/><path d="M196.73026,139.40097c0.07986,-3.81913 3.24062,-6.85042 7.05975,-6.77057c3.81913,0.07986 6.85042,3.24062 6.77057,7.05975c-0.07986,3.81913 -3.24062,6.85042 -7.05975,6.77057c-3.81913,-0.07986 -6.85042,-3.24062 -6.77057,-7.05975z" fill="#cbcb6a"/></g><path d="M240.46028,208.5803c-46.39329,-1.05972 -57.04955,-30.11588 -57.04955,-30.11588c0,0 6.912,-1.47973 12.02558,-8.66132c11.31133,-15.88584 17.75639,-44.15137 45.24897,-43.73611c28.71485,0.43372 32.84378,26.80918 44.12231,44.02299c6.00943,9.17187 13.06417,11.43463 13.06417,11.43463c0,0 -10.18545,28.13443 -57.41149,27.05569z" fill="none" stroke="#000000" stroke-width="3" stroke-linecap="butt"/><g data-paper-data="{&quot;index&quot;:null}" stroke="none" stroke-width="0" stroke-linecap="butt"><path d="M268.63167,138.82061c0,0 0.51597,-1.49306 1.19413,-3.65681c0.92967,-2.96623 2.60066,-7.03718 7.65213,-8.82766c6.34526,-2.24905 12.31439,0.82904 14.84691,3.67727c2.41786,2.71928 6.19744,9.05455 0.9675,17.32459c-2.87207,4.54158 -8.36979,5.7712 -12.09963,6.43026c-2.74431,0.48492 -4.30709,0.89503 -4.30709,0.89503l-8.25394,-15.84268z" fill="#000000"/><path d="M279.52444,148.05033c-3.81914,-0.07986 -6.85042,-3.24061 -6.77057,-7.05975c0.07986,-3.81913 3.24062,-6.85042 7.05975,-6.77057c3.81914,0.07986 6.85042,3.24062 6.77057,7.05975c-0.07986,3.81913 -3.24062,6.85042 -7.05975,6.77056z" fill="#cbcb6a"/></g><path d="M234.48474,125.86991l13.11691,0.52432c0,0 -0.45896,9.10643 -2.49108,17.02518c-1.53439,5.97918 -3.72588,11.22604 -3.72588,11.22604c0,0 -2.77255,-4.64684 -4.29484,-11.36676c-1.14889,-5.07158 -2.60511,-17.40878 -2.60511,-17.40878z" fill="#000000" stroke="none" stroke-width="0" stroke-linecap="butt"/><path d="M227.2062,145.09695c0,0 4.28934,-7.54008 14.15895,-7.45564c10.12037,0.08659 13.33504,8.03053 13.33504,8.03053z" fill="#000000" stroke="none" stroke-width="0" stroke-linecap="butt"/><path d="M225.1579,135.42702c0,0 4.72565,-8.03106 16.20987,-7.91286c11.77601,0.12121 15.78314,8.58182 15.78314,8.58182z" fill="#000000" stroke="none" stroke-width="0" stroke-linecap="butt"/><g fill="#000000" stroke="none" stroke-width="0" stroke-linecap="butt"><path d="M190.29163,188.45971c0,0 -5.47434,-6.42751 -5.582,-8.75109c-0.09028,-1.94855 4.97895,-4.26435 4.97895,-4.26435c0,0 3.64956,2.93597 9.11665,5.10655c4.58831,1.82169 9.23297,2.27866 9.23297,2.27866c0,0 -2.08324,3.00284 -7.24873,4.25168c-7.55856,1.82738 -10.49784,1.37856 -10.49784,1.37856z"/><path d="M191.91567,190.33024c0,0 8.54051,1.81073 13.76703,1.46741c4.38641,-0.28812 8.29666,-1.69538 8.29666,-1.69538c0,0 0.2579,3.12622 -3.591,6.70239c-2.17393,2.01988 -4.37654,3.22888 -5.68239,3.97759c-0.79773,-0.44043 -2.34177,-1.23162 -3.08309,-1.60135c-0.62303,-0.31073 -1.54273,-1.28696 -2.61569,-2.45645c-0.88427,-1.58586 -2.18842,-2.90847 -3.76533,-3.8144c-0.02749,-0.01579 -0.05505,-0.03145 -0.08269,-0.04698c0.62231,-0.95389 -3.24349,-2.53284 -3.24349,-2.53284z"/><path d="M214.53617,200.68679c4.06524,-2.4432 6.31973,-5.38499 6.31973,-5.38499c0,0 1.34429,2.96369 -0.0597,7.48272c-0.51038,1.64274 -0.99796,3.00341 -1.44259,4.12077c-2.16156,-1.21726 -4.47882,-1.96901 -7.09081,-3.09473c-0.21876,-0.09429 -2.56474,-1.33034 -2.82641,-1.38002c1.04686,-0.62732 3.2942,-0.65857 5.09978,-1.74373z"/></g><g data-paper-data="{&quot;index&quot;:null}" fill="#000000" stroke="none" stroke-width="0" stroke-linecap="butt"><path d="M280.05784,188.48858c-5.10878,-1.46367 -7.06466,-4.55096 -7.06466,-4.55096c0,0 4.65972,-0.26243 9.32016,-1.89073c5.55304,-1.94015 9.32214,-4.721 9.32214,-4.721c0,0 4.968,2.52568 4.79634,4.46875c-0.2047,2.31705 -5.94292,8.51012 -5.94292,8.51012c0,0 -2.95548,0.32556 -10.43105,-1.81618z"/><path d="M287.93316,194.92799c-0.02826,0.01436 -0.81676,0.51307 -0.84488,0.52769c-1.61341,0.83922 -4.70303,1.19476 -5.65281,2.74228c-0.1929,0.19336 1.84498,1.55299 1.66246,1.73291c-0.87808,0.86565 -3.85244,0.37658 -4.37854,0.61205c-0.75612,0.33841 -2.33188,1.06438 -3.14733,1.47107c-1.27342,-0.80264 -3.42358,-2.10265 -5.51116,-4.21165c-3.69605,-3.73394 -3.3077,-6.84663 -3.3077,-6.84663c0,0 3.84801,1.56949 8.21855,2.04071c5.20759,0.56148 14.69637,-1.12231 14.69637,-1.12231c0,0 -2.31685,2.0748 -1.73495,3.05388z"/><path d="M270.77688,203.46307c-0.26351,0.0387 -2.65913,1.17562 -2.88164,1.26067c-2.65676,1.01555 -5.00342,1.66977 -7.21397,2.79561c-0.39754,-1.13497 -0.82783,-2.51482 -1.26908,-4.17746c-1.21386,-4.57376 0.25314,-7.47868 0.25314,-7.47868c0,0 2.12955,3.03347 6.08911,5.64446c1.75865,1.15969 4.00272,1.28484 5.02245,1.95538z"/></g><g fill="#000000" stroke="none" stroke-width="0" stroke-linecap="butt"><path d="M224.46412,168.60726c-0.17968,8.59305 -4.24199,15.4772 -9.07342,15.37618c-4.83143,-0.10102 -8.60243,-7.14897 -8.42275,-15.74202c0.17968,-8.59305 4.24199,-15.4772 9.07342,-15.37618c4.83143,0.10102 8.60243,7.14897 8.42275,15.74202z"/><path d="M214.17731,175.04362c-0.02656,1.26997 -4.33878,1.80969 -4.33878,1.80969c0,0 -1.15444,-0.49233 -2.66596,-1.13293c-1.96876,-0.83437 -4.4026,-1.98697 -4.24261,-3.31247c0.18658,-1.54572 2.65852,-1.29591 4.56966,-1.06059c1.42354,0.17529 2.44971,0.20714 2.44971,0.20714c0,0 4.25454,2.21917 4.22798,3.48915z"/></g><g data-paper-data="{&quot;index&quot;:null}" fill="#000000" stroke="none" stroke-width="0" stroke-linecap="butt"><path d="M265.96697,154.30925c4.83143,0.10102 8.60243,7.14897 8.42275,15.74202c-0.17968,8.59305 -4.24199,15.4772 -9.07343,15.37618c-4.83143,-0.10102 -8.60243,-7.14897 -8.42275,-15.74202c0.17968,-8.59305 4.24199,-15.4772 9.07343,-15.37618z"/><path d="M271.27244,173.2368c0,0 1.02661,0.01107 2.45624,-0.10456c1.91931,-0.15522 4.39952,-0.30148 4.52132,1.25069c0.10445,1.33103 -2.37544,2.38088 -4.37735,3.13222c-1.53699,0.57685 -2.711,1.0205 -2.711,1.0205c0,0 -4.28589,-0.7195 -4.25934,-1.98947c0.02655,-1.26997 4.37014,-3.30937 4.37014,-3.30937z"/></g><path d="M217.21817,164.68002c-0.07092,3.39187 -1.6631,6.10942 -3.55624,6.06984c-1.89314,-0.03958 -3.37033,-2.82132 -3.29941,-6.21319c0.07092,-3.39187 1.66311,-6.10942 3.55624,-6.06983c1.89314,0.03958 3.37033,2.82133 3.2994,6.21319z" fill="#ffffff" stroke="none" stroke-width="0" stroke-linecap="butt"/><path d="M266.64191,165.42768c-0.07092,3.39187 -1.66311,6.10943 -3.55624,6.06984c-1.89313,-0.03958 -3.37032,-2.82133 -3.2994,-6.21319c0.07092,-3.39187 1.6631,-6.10942 3.55624,-6.06983c1.89313,0.03958 3.37033,2.82132 3.2994,6.21318z" fill="#ffffff" stroke="none" stroke-width="0" stroke-linecap="butt"/><path d="M228.60341,173.70572c0.13772,-6.58653 5.5888,-11.81432 12.17533,-11.6766c6.58653,0.13772 11.81431,5.58881 11.67659,12.17534c-0.13772,6.58653 -5.5888,11.81431 -12.17533,11.67659c-6.58653,-0.13772 -11.81431,-5.5888 -11.67659,-12.17533z" fill="#6e6e30" stroke="none" stroke-width="0" stroke-linecap="butt"/><path d="M215.55166,176.0445c0.02181,-1.04298 0.885,-1.87079 1.92797,-1.84898c1.04298,0.02181 1.8708,0.88499 1.84899,1.92795c-0.02181,1.04298 -0.885,1.8708 -1.92797,1.84899c-1.04298,-0.02181 -1.8708,-0.885 -1.84899,-1.92797z" fill="#6e6e30" stroke="none" stroke-width="0" stroke-linecap="butt"/><path d="M265.64252,177.53642c0.02181,-1.04298 0.885,-1.87079 1.92797,-1.84898c1.04298,0.02181 1.8708,0.88499 1.84899,1.92795c-0.02181,1.04298 -0.885,1.8708 -1.92797,1.84899c-1.04298,-0.02181 -1.8708,-0.885 -1.84899,-1.92797z" fill="#6e6e30" stroke="none" stroke-width="0" stroke-linecap="butt"/><path d="M249.82248,177.40011c0,0 -1.58038,3.40778 -5.81659,2.37519c-3.00416,-0.73227 -3.24155,-3.81778 -3.24155,-3.81778c0,0 -0.77327,3.55402 -3.69469,3.81808c-4.17562,0.37743 -6.07987,-2.60257 -6.07987,-2.60257" fill="none" stroke="#000000" stroke-width="2" stroke-linecap="round"/><g stroke="none" stroke-width="0" stroke-linecap="butt"><path d="M247.73063,169.81306c-0.04763,2.27768 -3.91187,6.94238 -7.18384,6.7263c-3.27101,-0.21601 -7.11067,-4.74651 -7.06304,-7.02419c0.04763,-2.27768 3.11063,-4.56097 7.13682,-4.47679c4.02619,0.08418 7.15769,2.497 7.11007,4.77468z" fill="#000000"/><path d="M245.08197,168.92416c-0.01972,0.94329 -2.06864,1.66546 -4.57638,1.61302c-2.50775,-0.05244 -4.52469,-0.85962 -4.50496,-1.80291c0.01972,-0.94329 1.31899,-1.65616 4.74477,-1.69284c3.34237,-0.0358 4.35631,0.93945 4.33659,1.88273z" fill="#ffffff"/></g></g></g></svg>