<svg version="1.1" xmlns="http://www.w3.org/2000/svg" xmlns:xlink="http://www.w3.org/1999/xlink" width="128.4708" height="256.0266" viewBox="0,0,128.4708,256.0266"><g transform="translate(-256.85858,-52.32006)"><g stroke-miterlimit="10"><path d="M260.90423,308.34666v-256.0266h117.5249v256.0266z" fill-opacity="0.01" fill="#000000" stroke="none" stroke-width="2" stroke-linecap="butt"/><path d="M381.30421,276.85292c0,6.92408 -5.61307,12.53715 -12.53715,12.53715c-6.92408,0 -12.53715,-5.61307 -12.53715,-12.53715c0,-6.92408 5.61308,-12.53715 12.53715,-12.53715c6.92408,0 12.53715,5.61307 12.53715,12.53715z" fill="#ffffff" stroke="#000000" stroke-width="1.5" stroke-linecap="butt"/><path d="M287.09985,276.14991c0,6.92408 -5.61307,12.53715 -12.53715,12.53715c-6.92408,0 -12.53715,-5.61307 -12.53715,-12.53715c0,-6.92408 5.61308,-12.53715 12.53715,-12.53715c6.92408,0 12.53715,5.61307 12.53715,12.53715z" fill="#ffffff" stroke="#000000" stroke-width="1.5" stroke-linecap="butt"/><path d="M349.83538,162.97842c11.70638,-2.32294 17.36579,7.54597 25.21189,47.08616c7.84608,39.54019 15.09819,65.03593 3.39179,67.35887c-2.45172,0.4865 -17.75901,3.49541 -20.12294,1.65727c-8.92325,-6.93856 -8.86526,-31.86041 -15.06812,-63.11951c-7.84608,-39.54019 -5.11902,-50.65985 6.58737,-52.98279z" fill="#c5c556" stroke="#8d8d3e" stroke-width="1.5" stroke-linecap="butt"/><path d="M298.3155,214.0865c-6.20285,31.2591 -6.14487,56.18095 -15.06812,63.11951c-2.36393,1.83815 -16.73385,-0.93643 -19.18558,-1.42293c-11.7064,-2.32294 -5.39165,-28.05302 2.45443,-67.59321c7.8461,-39.54019 13.5055,-49.40909 25.21189,-47.08616c11.7064,2.32294 14.43346,13.4426 6.58737,52.98279z" fill="#c5c556" stroke="#8d8d3e" stroke-width="1.5" stroke-linecap="butt"/><path d="M351.6017,201.80579c0,30.18768 -7.306,46.92643 -34.09636,46.92643c-26.79034,0 -27.7692,-15.68423 -27.7692,-45.8719c0,-30.18768 2.7364,-54.65962 29.52674,-54.65962c26.79036,0 32.33881,23.41742 32.33881,53.6051z" fill="#c5c556" stroke="none" stroke-width="1.5" stroke-linecap="butt"/><path d="M364.95903,259.1017c0,29.41114 -18.65687,42.21637 -46.02813,41.57568c-22.87638,-0.53547 -42.5521,-9.70398 -42.5521,-39.11512c0,-14.54963 1.07598,-35.60164 9.3496,-51.38577c8.45098,-16.12247 19.32285,-29.63702 33.00721,-29.63702c15.59108,0 27.95613,11.95605 37.43185,31.29319c6.98351,14.25126 8.79156,34.79015 8.79156,47.26904z" fill="#c5c556" stroke="none" stroke-width="1.5" stroke-linecap="butt"/><path d="M362.30321,276.43978c0,0 -2.08145,8.54947 -10.57893,15.8899c-7.07568,6.11223 -18.88736,11.24246 -34.98053,11.23522c-25.67017,-0.01156 -37.55287,-20.41269 -37.55287,-24.45358c0,-4.04089 17.07873,17.92587 38.72455,17.92587c21.64583,0 44.38776,-20.59741 44.38776,-20.59741z" fill="#979742" stroke="none" stroke-width="1.5" stroke-linecap="butt"/><path d="M365.56444,182.06272c0,18.50735 -20.42389,33.5105 -45.61803,33.5105c-25.19414,0 -45.61803,-15.00317 -45.61803,-33.5105c0,-18.50735 20.42389,-33.5105 45.61803,-33.5105c25.19414,0 45.61803,15.00317 45.61803,33.5105z" fill="#c5c556" stroke="none" stroke-width="1.5" stroke-linecap="butt"/><path d="M315.86062,200.42c0,0 -10.82428,8.89672 -21.49894,7.2594c-10.67466,-1.63731 -16.06386,-12.25128 -16.06386,-12.25128c0,0 6.90324,7.97543 17.5779,9.61274c10.67466,1.63731 19.98488,-4.62086 19.98488,-4.62086z" fill="#b6b650" stroke="none" stroke-width="1.5" stroke-linecap="butt"/><path d="M345.72081,204.53169c10.51644,-2.45633 16.78353,-10.94078 16.78353,-10.94078c0,0 -4.5539,10.99826 -15.07034,13.45459c-10.51644,2.45633 -21.9951,-5.5784 -21.9951,-5.5784c0,0 9.76546,5.52092 20.28192,3.06459z" fill="#b6b650" stroke="none" stroke-width="1.5" stroke-linecap="butt"/><path d="M327.24996,203.70003c0,0 -2.76511,-1.39244 -6.56149,-1.39244c-3.79638,0 -7.1864,1.39244 -7.1864,1.39244c0,0 3.07756,-2.81207 6.87394,-2.81207c3.79638,0 6.87395,2.81207 6.87395,2.81207z" fill="#b6b650" stroke="none" stroke-width="1.5" stroke-linecap="butt"/><path d="M289.66627,206.74471c0,0 -13.87746,-4.95085 -15.51214,-23.06008c-1.63006,-18.05797 13.8249,-25.30754 13.8249,-25.30754" fill="none" stroke="#8d8d3e" stroke-width="1.5" stroke-linecap="round"/><path d="M352.50392,154.87936c0,5.35808 -14.37366,9.70164 -32.10447,9.70164c-17.73081,0 -32.10448,-4.34358 -32.10448,-9.70164c0,-5.35808 14.37367,-9.70164 32.10448,-9.70164c17.73081,0 32.10447,4.34358 32.10447,9.70164z" fill="#b0b04d" stroke="none" stroke-width="0" stroke-linecap="butt"/><path d="M349.13257,156.81438c1.02579,12.00307 -29.28423,25.48024 -29.28423,25.48024c0,0 -27.8358,-13.4876 -29.30026,-24.66341c-0.38338,-2.92583 10.72251,-8.79221 28.87143,-9.54268c20.96892,1.02416 29.57202,7.07549 29.71306,8.72584z" fill="#ffffff" stroke="none" stroke-width="1.5" stroke-linecap="butt"/><path d="M305.09915,168.66219c6.64734,5.08505 14.68207,13.59359 14.68207,13.59359c0,0 -9.61018,0.82311 -20.63839,-9.50781c-14.4471,-13.53361 -8.779,-15.7134 -7.6519,-17.18679c1.12709,-1.47338 6.96086,8.01595 13.60821,13.101z" fill="#b0b04d" stroke="none" stroke-width="1.5" stroke-linecap="butt"/><path d="M349.30728,155.43499c1.13243,1.5515 6.94923,3.94006 -8.32165,17.61339c-11.65706,10.43755 -21.58628,9.36158 -21.58628,9.36158c0,0 8.51577,-8.62078 15.51553,-13.72994c6.99978,-5.10914 13.25995,-14.79654 14.39239,-13.24504z" fill="#b0b04d" stroke="none" stroke-width="1.5" stroke-linecap="butt"/><path d="M319.45306,184.69616c0,0 -0.13223,-5.459 0.67053,-9.31551c0.66711,-3.20477 4.17225,-7.55014 4.17225,-7.55014c0,0 -2.9199,4.32095 -3.35555,7.65425c-0.51708,3.95622 0.09984,9.28725 0.09984,9.28725z" fill="#bfbfbf" stroke="none" stroke-width="1.5" stroke-linecap="butt"/><path d="M293.59936,157.62615c0.95769,2.87306 0.63918,5.5671 -0.7114,6.0173c-1.3506,0.4502 -3.22182,-1.51392 -4.1795,-4.38698c-0.95769,-2.87306 -0.63918,-5.5671 0.71141,-6.0173c1.3506,-0.4502 3.2218,1.51392 4.1795,4.38698z" fill="#b0b04d" stroke="none" stroke-width="0" stroke-linecap="butt"/><path d="M349.95348,163.42359c-2.68225,4.42783 -6.14885,7.23452 -7.74285,6.26891c-1.59401,-0.96561 -0.71185,-5.33786 1.9704,-9.76569c2.68225,-4.42783 6.14885,-7.2345 7.74285,-6.26889c1.59401,0.96561 0.71185,5.33784 -1.9704,9.76567z" fill="#b0b04d" stroke="none" stroke-width="0" stroke-linecap="butt"/><path d="M346.12989,166.50258c0,0.8298 -5.62199,6.75743 -11.67098,11.58753c-4.70642,3.75807 -8.96848,6.85169 -15.57901,6.36286c-11.52776,-0.85247 -23.27354,-15.06893 -23.27354,-16.54434c0,-1.47541 18.232,14.01349 23.21813,14.01349c4.98612,0 27.3054,-16.89493 27.3054,-15.41953z" fill="#b0b04d" stroke="none" stroke-width="1.5" stroke-linecap="butt"/><path d="M296.35625,160.08166l-0.09374,9.84225" fill="none" stroke="#8d8d3e" stroke-width="0.5" stroke-linecap="round"/><path d="M352.12898,158.67568c0,0 -4.6302,9.7909 -14.41763,16.87467c-11.11533,8.86418 -18.01493,8.90264 -18.01493,8.90264h0.18747c0,0 -6.80586,0.05527 -17.92119,-8.80891c-5.94425,-4.74038 -9.68231,-8.91272 -13.10532,-16.21852c-1.34456,-2.86973 -0.36768,-6.66173 1.40604,-7.59259c2.14984,-1.12826 6.80906,-6.28717 29.62881,-6.56218c37.02181,-0.44618 32.23675,13.31113 32.23675,13.31113z" fill="none" stroke="#8d8d3e" stroke-width="1.5" stroke-linecap="round"/><path d="M347.4422,154.83247c0,0 -4.95388,7.22649 -8.66264,10.83328c-4.99497,4.85766 -18.61445,16.16259 -18.61445,16.16259c0,0 -14.08815,-11.49241 -19.08312,-16.35007c-3.70876,-3.6068 -8.66264,-10.83328 -8.66264,-10.83328" fill="none" stroke="#8d8d3e" stroke-width="1.5" stroke-linecap="round"/><path d="M301.13677,165.51836l-0.09374,9.84225" fill="none" stroke="#8d8d3e" stroke-width="1.5" stroke-linecap="round"/><path d="M306.85465,179.29751l0.18747,-8.155" fill="none" stroke="#8d8d3e" stroke-width="1.5" stroke-linecap="round"/><path d="M344.3489,169.36153l-0.09374,-9.84225" fill="none" stroke="#8d8d3e" stroke-width="0.5" stroke-linecap="round"/><path d="M340.13082,173.95454l-0.09374,-9.84225" fill="none" stroke="#8d8d3e" stroke-width="1.5" stroke-linecap="round"/><path d="M334.13173,169.73648l0.18748,8.155" fill="none" stroke="#8d8d3e" stroke-width="1.5" stroke-linecap="round"/><path d="M313.88482,177.04786l-0.18748,5.43667" fill="none" stroke="#8d8d3e" stroke-width="1.5" stroke-linecap="round"/><path d="M319.97765,181.82839v2.15592" fill="none" stroke="#8d8d3e" stroke-width="1.5" stroke-linecap="round"/><path d="M328.32012,181.26597v-5.90535" fill="none" stroke="#8d8d3e" stroke-width="1.5" stroke-linecap="round"/><path d="M292.41936,155.67611l0.09374,9.74852" fill="none" stroke="#8d8d3e" stroke-width="0.5" stroke-linecap="round"/><path d="M347.34845,155.67612l-0.09374,9.56104" fill="none" stroke="#8d8d3e" stroke-width="0.5" stroke-linecap="round"/><path d="M352.76383,159.21623c0,0 15.17749,7.81382 12.88352,25.79951c-2.3005,18.03675 -16.35086,21.91075 -16.35086,21.91075" fill="none" stroke="#8d8d3e" stroke-width="1.5" stroke-linecap="round"/><path d="M353.19729,205.55915c0,0 6.69322,13.81781 9.86967,31.29631c1.25134,6.88554 1.6491,19.78664 1.08374,28.18768c-0.59966,8.91076 -3.29832,13.91106 -3.29832,13.91106c0,0 -9.17621,25.41256 -40.90588,24.66436c-34.46245,-0.81265 -40.65014,-24.03946 -40.65014,-24.03946c0,0 -2.22999,-4.84407 -2.82965,-13.75484c-0.56537,-8.40103 -0.32384,-20.67724 0.92751,-27.56278c3.17644,-17.47851 9.55722,-32.07745 9.55722,-32.07745" fill="none" stroke="#8d8d3e" stroke-width="1.5" stroke-linecap="round"/><path d="M361.50255,277.36064c0,0 -20.63492,18.88092 -42.02588,19.13877c-24.33094,0.29328 -40.30531,-17.73273 -40.30531,-17.73273" fill="none" stroke="#8d8d3e" stroke-width="1.5" stroke-linecap="round"/><path d="M289.01361,286.89045l0.78114,7.03018" fill="none" stroke="#8d8d3e" stroke-width="1.5" stroke-linecap="round"/><path d="M302.13662,300.3259l0.15622,-6.24904" fill="none" stroke="#8d8d3e" stroke-width="1.5" stroke-linecap="round"/><path d="M319.94639,302.66929v-5.78037" fill="none" stroke="#8d8d3e" stroke-width="1.5" stroke-linecap="round"/><path d="M336.1939,300.95079l-0.15622,-7.81131" fill="none" stroke="#8d8d3e" stroke-width="1.5" stroke-linecap="round"/><path d="M349.16068,287.20288l-0.31245,6.24904" fill="none" stroke="#8d8d3e" stroke-width="1.5" stroke-linecap="round"/><path d="M356.19086,286.26554l0.46867,-4.843" fill="none" stroke="#8d8d3e" stroke-width="1.5" stroke-linecap="round"/><path d="M319.91179,177.57391c0,0 -0.53621,-2.82777 -1.43323,-4.77048c-0.75577,-1.63682 -2.94119,-3.38222 -2.94119,-3.38222c0,0 2.48893,1.66436 3.34265,3.19839c1.02734,1.846 1.83214,4.66182 1.83214,4.66182z" fill="#bfbfbf" stroke="none" stroke-width="1.5" stroke-linecap="butt"/><path d="M293.35002,154.47033c0,0 17.60001,-7.63363 26.79972,-7.65036c9.13314,-0.0166 26.50027,7.65036 26.50027,7.65036" fill="none" stroke="#000000" stroke-width="1" stroke-linecap="round"/><path d="M348.50613,92.15686c0,19.08114 -12.59808,34.54946 -28.13863,34.54946c-15.54054,0 -28.13862,-15.46832 -28.13862,-34.54946c0,-19.08114 12.59808,-34.04946 28.13862,-34.04946c15.54054,0 28.13863,14.96832 28.13863,34.04947z" fill="#000000" stroke="none" stroke-width="1" stroke-linecap="butt"/><path d="M332.08484,69.41245c0.17105,5.95806 -5.23065,4.40722 -12.31601,4.40722c-7.08534,0 -13.34232,1.55084 -13.34232,-4.40722c0,-6.74506 6.08592,-5.35162 13.17128,-5.35162c7.08534,0 12.2754,-2.02047 12.48705,5.35162z" fill="#c5c556" stroke="#9b9b44" stroke-width="1" stroke-linecap="butt"/><path d="M333.81037,72.76753c19.09161,0 30.06949,16.43631 30.06949,35.73364c0,13.48326 -22.73701,34.88424 -22.73701,34.88424c0,0 -41.9009,-16.37964 -41.9009,-35.67697c0,-19.29733 15.47681,-34.94091 34.56842,-34.94091z" fill="#000000" stroke="none" stroke-width="1" stroke-linecap="butt"/><path d="M340.82734,106.95833c0,19.29733 -41.9009,35.67697 -41.9009,35.67697c0,0 -22.737,-21.40098 -22.737,-34.88424c0,-19.29733 10.97788,-35.73364 30.06949,-35.73364c19.09161,0 34.56842,15.64358 34.56842,34.94091z" fill="#000000" stroke="none" stroke-width="1" stroke-linecap="butt"/><path d="M292.00859,128.49525c0,0 -5.35997,-3.51705 -6.69892,-8.97502c-1.40882,-5.74284 -1.58794,-9.7328 0.52178,-9.99193c2.10972,-0.25915 2.93772,2.37692 4.05643,8.35569c1.11871,5.97877 2.12071,10.61127 2.12071,10.61127z" fill="#ffffff" stroke="#000000" stroke-width="1" stroke-linecap="butt"/><path d="M291.78843,124.5477c0,0 -3.87302,-2.92338 -4.69277,-8.45061c-0.45729,-3.08327 2.34385,-2.28016 2.34385,-2.28016" fill="none" stroke="#000000" stroke-width="0.5" stroke-linecap="round"/><path d="M350.94656,117.88401c1.1187,-5.97877 1.94669,-8.61483 4.05642,-8.35569c2.10973,0.25914 1.9306,4.24909 0.52178,9.99193c-1.33895,5.45797 -6.69891,8.97502 -6.69891,8.97502c0,0 1.00202,-4.6325 2.12072,-10.61127z" fill="#ffffff" stroke="#000000" stroke-width="1" stroke-linecap="butt"/><path d="M351.3949,113.81694c0,0 2.80115,-0.80312 2.34386,2.28016c-0.81975,5.52723 -4.69277,8.45061 -4.69277,8.45061" fill="none" stroke="#000000" stroke-width="0.5" stroke-linecap="round"/><path d="M350.52037,80.5092c0,5.95471 -13.93831,10.78195 -31.1321,10.78195c-17.19379,0 -31.1321,-4.82724 -31.1321,-10.78195c0,-5.95471 13.93831,-10.78195 31.1321,-10.78195c17.19379,0 31.1321,4.82724 31.1321,10.78195z" fill="#000000" stroke="none" stroke-width="1" stroke-linecap="butt"/><path d="M310.28261,70.19428c0,0 -3.28759,1.43749 -8.3257,2.27093c-5.03812,0.83343 -10.24433,3.13134 -10.24433,3.13134c0,0 5.71768,-3.49056 10.75579,-4.32399c5.03812,-0.83343 7.81424,-1.07827 7.81424,-1.07827z" fill="#f5f5f5" stroke="none" stroke-width="1" stroke-linecap="butt"/><path d="M337.66947,71.74899c5.0197,0.92275 10.6631,4.5142 10.6631,4.5142c0,0 -5.15707,-2.38993 -10.17676,-3.31268c-5.0197,-0.92275 -8.1977,-2.65363 -8.1977,-2.65363c0,0 2.69167,0.52936 7.71136,1.45211z" fill="#f5f5f5" stroke="none" stroke-width="1" stroke-linecap="butt"/><path d="M327.99433,70.32291c0,0 -3.82387,-0.19231 -8.02524,-0.19231c-4.20137,0 -8.02525,0.03847 -8.02525,0.03847c0,0 3.74027,-0.5 7.94164,-0.5c4.20137,0 8.10884,0.65385 8.10884,0.65385z" fill="#f5f5f5" stroke="none" stroke-width="1" stroke-linecap="butt"/><path d="M319.35702,71.65094l2.40123,-0.09229l-0.88348,26.29474z" fill="#151515" stroke="none" stroke-width="1" stroke-linecap="butt"/><path d="M290.37818,118.28316c-0.62715,-7.29323 0.36406,-17.15448 0.36406,-17.15448c0,0 1.87489,-5.05947 9.76167,-5.44531c7.59506,-0.53794 20.23194,1.83697 20.23194,1.83697c0,0 9.72882,-2.29358 18.27022,-2.77159c5.17594,-0.28966 10.44483,0.86619 11.33351,1.37266c3.02432,1.72362 0.95223,15.25962 0.61361,20.81754c-0.45821,5.66922 -2.75304,9.49969 -3.42361,12.52053c-0.67057,3.02084 -0.44514,6.13662 -2.39761,16.0397c-0.51834,2.62905 -3.12542,9.27796 -8.24875,13.84824c-6.92026,6.17324 -17.44907,10.1343 -17.44907,10.1343c0,0 -9.82986,-4.54389 -16.95996,-11.09618c-5.2949,-4.86581 -7.68674,-11.58674 -8.07605,-14.42601c-0.82275,-6.00039 -0.8439,-9.90853 -1.22006,-15.24835c-0.27492,-3.90273 -2.45736,-6.44504 -2.79987,-10.42801z" fill="#ffffff" stroke="#000000" stroke-width="1" stroke-linecap="butt"/><g fill="#000000" stroke-width="0" stroke-linecap="butt"><path d="M314.87224,139.65661c0,0 4.08596,1.17007 6.08435,1.17007c1.80388,0 5.38232,-1.17007 5.38232,-1.17007c0,0 -2.82342,3.62722 -5.49932,3.62722c-2.67589,0 -5.96735,-3.62722 -5.96735,-3.62722z" stroke="#000000"/><path d="M314.92554,139.62883c0.34268,-2.59805 4.88806,-18.14816 4.88806,-18.14816c0,0 -1.09566,6.58606 -1.88084,9.72678c-0.45497,1.81991 -0.99805,4.69481 -1.26891,6.91826c-0.18497,1.51839 0.17046,2.85786 0.17046,2.85786c0,0 -2.00282,-0.6416 -1.90876,-1.35474z" stroke="none"/><path d="M324.33504,140.51555c0.102,-0.86879 0.1381,-3.3807 0.07522,-4.06827c-0.11501,-1.2576 -0.32963,-2.55088 -0.43034,-3.37167c-0.19201,-1.56486 -0.89266,-7.71601 -0.89266,-7.71601c0,0 3.03608,13.62449 3.15654,14.1507c0.12045,0.52622 -2.01173,1.88227 -1.90876,1.00525z" stroke="none"/></g><g><path d="M337.11973,155.31302c0,0 -6.38449,0.62285 -15.78458,0.62285c-9.40009,0 -18.25619,-0.62285 -18.25619,-0.62285c0,0 0.23845,-4.60943 11.61934,-5.94565c2.55881,-0.40154 5.62575,0.85297 5.62575,0.85297c0,0 4.94452,-0.85156 6.91363,-0.52412c10.88892,1.81069 9.88206,5.61682 9.88206,5.61682z" fill="#8d8d8d" stroke="none" stroke-width="0" stroke-linecap="butt"/><path d="M337.11974,155.38628c0,0 -6.94622,-3.33406 -16.34631,-3.33406c-9.40009,0 -17.69446,3.33406 -17.69446,3.33406c0,0 0.05331,-7.65471 10.58725,-9.54558c3.11642,-0.53724 6.88252,0.86236 6.88252,0.86236c0,0 3.31149,-0.90582 6.25395,-0.7019c10.43519,0.72317 10.31706,9.38512 10.31706,9.38512z" fill="#bababa" stroke="none" stroke-width="0" stroke-linecap="butt"/><path d="M328.2673,155.86408c0,0 -4.781,0.24607 -7.84496,0.21574c-3.06396,-0.03033 -7.5704,-0.36834 -7.5704,-0.36834" fill="none" stroke="#000000" stroke-width="0.5" stroke-linecap="round"/><path d="M311.14099,146.60951c0,0 2.48792,-1.05903 5.00477,-0.89992c2.29018,0.13141 4.42222,0.93714 4.42222,0.93714c0,0 3.22133,-0.58865 5.3598,-0.75241c2.61379,-0.10879 4.66773,0.84758 4.66773,0.84758" fill="none" stroke="#000000" stroke-width="0.5" stroke-linecap="round"/><path d="M337.11972,155.31302c0,0 -7.17091,-2.0151 -16.571,-2.0151c-9.40009,0 -17.46976,2.0151 -17.46976,2.0151c0,0 0.23845,-6.22151 11.61933,-7.55774c2.55882,-0.40154 5.7381,0.70642 5.7381,0.70642c0,0 4.71983,-0.705 6.68893,-0.37757c10.88892,1.81069 9.99442,7.22889 9.99442,7.22889z" fill="#000000" stroke="none" stroke-width="0" stroke-linecap="butt"/><path d="M321.10454,152.27552c9.20334,-0.03428 15.31433,1.34933 15.31433,1.34933c0,0 0.3121,0.57159 0.38371,0.82146c0.06009,0.20967 0.01745,0.57838 0.01745,0.57838c0,0 -4.7738,-1.7325 -15.75575,-1.98467c-9.00701,-0.20682 -17.6135,1.90901 -17.6135,1.90901c0,0 0.21951,-0.86207 0.38498,-1.21676c0.12279,-0.2632 0.51859,-0.72001 0.51859,-0.72001c0,0 7.89185,-0.70376 16.75018,-0.73675z" fill="#ffffff" stroke="none" stroke-width="0" stroke-linecap="butt"/><path d="M315.81448,147.94269c1.995,-0.07215 4.71915,0.76384 4.71915,0.76384c0,0 2.77264,-0.63509 5.676,-0.47821c5.04099,0.44735 6.7586,1.99226 6.7586,1.99226l-24.14957,-0.67911c0,0 3.09756,-1.48103 6.99582,-1.59877z" fill="#ffffff" stroke="none" stroke-width="0" stroke-linecap="butt"/></g><g stroke-linecap="butt"><path d="M314.05118,109.57703c0,0 -2.70699,4.09308 -8.60122,5.24354c-9.42494,1.83959 -11.03814,-1.46257 -11.03814,-1.46257c0,0 2.53251,1.27774 10.25404,-0.14721c4.49381,-0.8293 9.38532,-3.63376 9.38532,-3.63376z" fill="#000000" stroke="none" stroke-width="0"/><g><path d="M316.07432,119.32292c0,0 -4.11368,5.44655 -9.82519,6.32363c-5.71152,0.87708 -10.80714,-3.91405 -10.80714,-3.91405z" fill="#ffffff" stroke="#000000" stroke-width="1"/><path d="M306.15986,117.18186c8.85647,-0.99747 11.48031,1.82939 11.48031,1.82939l-26.08886,3.71429c0,0 6.72783,-4.78035 14.60855,-5.54368z" fill="#000000" stroke="none" stroke-width="0"/><path d="M297.56976,123.90273l1.76755,0.63915l-2.5158,3.87689z" fill="#000000" stroke="none" stroke-width="0"/><path d="M300.49147,125.161l1.83959,0.38557l-1.94862,4.19074z" fill="#000000" stroke="none" stroke-width="0"/><path d="M303.86125,125.89945l1.8785,0.0625l-1.19662,4.46404z" fill="#000000" stroke="none" stroke-width="0"/><path d="M306.94602,125.24508l1.82144,-0.46374l0.09546,4.62066z" fill="#000000" stroke="none" stroke-width="0"/><path d="M310.53078,120.15247c0,0 -0.29732,2.51537 -4.55754,3.32974c-3.86983,0.73973 -6.1587,-2.13214 -6.1587,-2.13214z" fill="#000000" stroke="none" stroke-width="0"/><path d="M310.3814,121.89339c0.05676,0.36963 -0.53511,0.76722 -1.32197,0.88805c-0.78688,0.12084 -1.47076,-0.08085 -1.52752,-0.45048c-0.05676,-0.36963 0.53511,-0.76723 1.32197,-0.88806c0.78688,-0.12084 1.47076,0.08085 1.52752,0.45048z" fill="#ffffff" stroke="none" stroke-width="NaN"/></g></g><g stroke-linecap="butt"><path d="M337.02561,113.54412c7.72153,1.42495 10.25404,0.14721 10.25404,0.14721c0,0 -1.61321,3.30216 -11.03814,1.46256c-5.89423,-1.15046 -8.60122,-5.24353 -8.60122,-5.24353c0,0 4.8915,2.80446 9.38532,3.63376z" fill="#000000" stroke="none" stroke-width="0"/><g><path d="M346.24949,121.89916c0,0 -5.09562,4.79113 -10.80714,3.91405c-5.71151,-0.87708 -9.82519,-6.32363 -9.82519,-6.32363z" fill="#ffffff" stroke="#000000" stroke-width="1"/><path d="M350.14017,122.8922l-26.08886,-3.71429c0,0 2.62383,-2.82686 11.48031,-1.82939c7.88072,0.76333 14.60855,5.54368 14.60855,5.54368z" fill="#000000" stroke="none" stroke-width="0"/><path d="M344.86996,128.58542l-2.5158,-3.87689l1.76756,-0.63914z" fill="#000000" stroke="none" stroke-width="0"/><path d="M341.30904,129.90399l-1.94862,-4.19075l1.83959,-0.38557z" fill="#000000" stroke="none" stroke-width="0"/><path d="M337.14835,130.59266l-1.19662,-4.46404l1.8785,-0.0625z" fill="#000000" stroke="none" stroke-width="0"/><path d="M332.82857,129.56867l0.09546,-4.62066l1.82144,0.46374z" fill="#000000" stroke="none" stroke-width="0"/><path d="M341.87694,121.51675c0,0 -2.28888,2.87186 -6.15871,2.13214c-4.26022,-0.81437 -4.55754,-3.32975 -4.55754,-3.32975z" fill="#000000" stroke="none" stroke-width="0"/><path d="M332.83761,121.60958c0.78687,0.12083 1.37873,0.51843 1.32197,0.88805c-0.05676,0.36962 -0.74065,0.57131 -1.52752,0.45048c-0.78687,-0.12083 -1.37873,-0.51843 -1.32197,-0.88805c0.05676,-0.36962 0.74065,-0.57131 1.52752,-0.45048z" fill="#ffffff" stroke="none" stroke-width="NaN"/></g></g><path d="M296.93701,103.87751c0.375,0 0.375,0.375 0.375,0.375l-0.0112,0.37667c-0.44184,1.76734 -2.69189,3.19068 -3.42454,0.62398c-0.33078,-1.15884 -0.13515,-3.35379 0.28399,-4.42563c0,0 0.13927,-0.34818 0.48745,-0.20891c0.34818,0.13927 0.20891,0.48745 0.20891,0.48745c-0.36059,0.87769 -0.55955,2.90901 -0.28744,3.86008c0.54747,1.91344 1.73004,0.57709 2.00403,-0.51887l-0.0112,-0.19476c0,0 0,-0.375 0.375,-0.375z" fill="#000000" stroke="none" stroke-width="0.5" stroke-linecap="butt"/><path d="M299.84385,109.79909c0.16771,0.33541 -0.16771,0.50312 -0.16771,0.50312l-0.18825,0.07261c-1.87205,1.68653 -1.92035,-0.93504 -1.92588,-2.12231c0,0 0,-0.375 0.375,-0.375c0.375,0 0.375,0.375 0.375,0.375c-0.00121,0.30851 -0.35585,2.83979 0.64555,1.59198l0.38317,-0.2131c0,0 0.33541,-0.16771 0.50312,0.16771z" fill="#000000" stroke="none" stroke-width="0.5" stroke-linecap="butt"/></g></g></svg>