<svg version="1.1" xmlns="http://www.w3.org/2000/svg" xmlns:xlink="http://www.w3.org/1999/xlink" width="551.53995" height="324.86544" viewBox="0,0,551.53995,324.86544"><defs><linearGradient x1="317.26639" y1="332.73598" x2="317.26639" y2="228.60085" gradientUnits="userSpaceOnUse" id="color-1"><stop offset="0" stop-color="#1f1f00" stop-opacity="0.48627"/><stop offset="1" stop-color="#1f1f00" stop-opacity="0"/></linearGradient><linearGradient x1="317.26639" y1="19.24585" x2="317.26639" y2="122.29624" gradientUnits="userSpaceOnUse" id="color-2"><stop offset="0" stop-color="#1f1f00" stop-opacity="0.64706"/><stop offset="1" stop-color="#1f1f00" stop-opacity="0"/></linearGradient><linearGradient x1="319.55476" y1="19.74833" x2="319.55476" y2="66.47408" gradientTransform="translate(-72.46182,-54.11662) scale(1.22094,0.98768)" gradientUnits="userSpaceOnUse" id="color-3"><stop offset="0" stop-color="#ffffff"/><stop offset="1" stop-color="#d9db56"/></linearGradient><linearGradient x1="391.92664" y1="153.25878" x2="394.18341" y2="169.62639" gradientUnits="userSpaceOnUse" id="color-4"><stop offset="0" stop-color="#000000"/><stop offset="1" stop-color="#000000" stop-opacity="0"/></linearGradient><linearGradient x1="394.18341" y1="169.62639" x2="391.92664" y2="153.25878" gradientUnits="userSpaceOnUse" id="color-5"><stop offset="0" stop-color="#000000"/><stop offset="1" stop-color="#000000" stop-opacity="0"/></linearGradient><linearGradient x1="430.19895" y1="147.73467" x2="432.45574" y2="164.10228" gradientUnits="userSpaceOnUse" id="color-6"><stop offset="0" stop-color="#000000"/><stop offset="1" stop-color="#000000" stop-opacity="0"/></linearGradient><linearGradient x1="432.45574" y1="164.10228" x2="430.19895" y2="147.73466" gradientUnits="userSpaceOnUse" id="color-7"><stop offset="0" stop-color="#000000"/><stop offset="1" stop-color="#000000" stop-opacity="0"/></linearGradient><linearGradient x1="379.69667" y1="159.06718" x2="386.97119" y2="158.06415" gradientUnits="userSpaceOnUse" id="color-8"><stop offset="0" stop-color="#ffffff"/><stop offset="1" stop-color="#ffffff" stop-opacity="0"/></linearGradient><linearGradient x1="379.99361" y1="161.22076" x2="384.74499" y2="160.56563" gradientUnits="userSpaceOnUse" id="color-9"><stop offset="0" stop-color="#ffffff"/><stop offset="1" stop-color="#ffffff" stop-opacity="0"/></linearGradient><linearGradient x1="391.92664" y1="153.25878" x2="394.18341" y2="169.62639" gradientUnits="userSpaceOnUse" id="color-10"><stop offset="0" stop-color="#000000"/><stop offset="1" stop-color="#000000" stop-opacity="0"/></linearGradient><linearGradient x1="394.18341" y1="169.62639" x2="391.92664" y2="153.25878" gradientUnits="userSpaceOnUse" id="color-11"><stop offset="0" stop-color="#000000"/><stop offset="1" stop-color="#000000" stop-opacity="0"/></linearGradient><linearGradient x1="430.19895" y1="147.73467" x2="432.45574" y2="164.10228" gradientUnits="userSpaceOnUse" id="color-12"><stop offset="0" stop-color="#000000"/><stop offset="1" stop-color="#000000" stop-opacity="0"/></linearGradient><linearGradient x1="432.45574" y1="164.10228" x2="430.19895" y2="147.73466" gradientUnits="userSpaceOnUse" id="color-13"><stop offset="0" stop-color="#000000"/><stop offset="1" stop-color="#000000" stop-opacity="0"/></linearGradient><linearGradient x1="379.69667" y1="159.06718" x2="386.97119" y2="158.06415" gradientUnits="userSpaceOnUse" id="color-14"><stop offset="0" stop-color="#ffffff"/><stop offset="1" stop-color="#ffffff" stop-opacity="0"/></linearGradient><linearGradient x1="379.99361" y1="161.22076" x2="384.74499" y2="160.56563" gradientUnits="userSpaceOnUse" id="color-15"><stop offset="0" stop-color="#ffffff"/><stop offset="1" stop-color="#ffffff" stop-opacity="0"/></linearGradient><linearGradient x1="482.13981" y1="187.35834" x2="482.13981" y2="203.78323" gradientUnits="userSpaceOnUse" id="color-16"><stop offset="0" stop-color="#feffb6"/><stop offset="1" stop-color="#d9db56"/></linearGradient><linearGradient x1="483.61203" y1="172.01159" x2="483.61203" y2="181.93589" gradientUnits="userSpaceOnUse" id="color-17"><stop offset="0" stop-color="#feffb6"/><stop offset="1" stop-color="#d9db56"/></linearGradient><linearGradient x1="473.05851" y1="195.7435" x2="473.05851" y2="217.5246" gradientUnits="userSpaceOnUse" id="color-18"><stop offset="0" stop-color="#feffb6"/><stop offset="1" stop-color="#d9db56"/></linearGradient><linearGradient x1="319.68215" y1="229.22484" x2="319.68215" y2="326.3499" gradientTransform="translate(-448.00859,-361.3687) scale(1.4014,1.42552)" gradientUnits="userSpaceOnUse" id="color-19"><stop offset="0" stop-color="#ffffff"/><stop offset="1" stop-color="#d9db56"/></linearGradient><linearGradient x1="303.00079" y1="179.47595" x2="345.98621" y2="168.37015" gradientUnits="userSpaceOnUse" id="color-20"><stop offset="0" stop-color="#feffb6"/><stop offset="1" stop-color="#d9db56"/></linearGradient></defs><g transform="translate(-42.68766,-14.64294)"><g stroke-miterlimit="10"><g fill-rule="nonzero" stroke-linecap="butt" stroke-linejoin="miter"><path d="M51.39857,336.00838c-2.8779,0 -5.21091,-2.333 -5.21091,-5.21091v-307.44362c0,-2.8779 2.333,-5.21091 5.21091,-5.21091h534.11813c2.8779,0 5.21091,2.333 5.21091,5.21091v307.44362c0,2.8779 -2.333,5.21091 -5.21091,5.21091z" fill="#9e9e46" stroke="#212108" stroke-width="7"/><path d="M586.82451,228.60085v104.13513h-539.11625v-104.13513z" fill="url(#color-1)" stroke="none" stroke-width="0"/><path d="M47.27239,64.80497v-48.81335h544.53996v48.81335z" fill="#212108" stroke="none" stroke-width="0"/><path d="M47.70826,122.29624v-103.05039h539.11625v103.05039z" fill="url(#color-2)" stroke="none" stroke-width="0"/><text transform="translate(59.34913,54.79145) scale(0.81904,1.01247)" font-size="40" xml:space="preserve" fill="url(#color-3)" stroke-opacity="0" stroke="#000000" stroke-width="0" font-family="&quot;Allan-Bold&quot;, Sans Serif" font-weight="normal" text-anchor="start"><tspan x="0" dy="0">LEMME RUN YOU THROUGH THIS REAL QUICK</tspan></text></g><g fill-rule="nonzero" stroke="#212108" stroke-width="5.5" stroke-linejoin="miter"><path d="M183.77852,127.29304c0.76463,-2.6774 6.16582,-48.34024 49.84563,-44.29712c53.82602,5.97625 41.31779,48.69558 43.2592,57.32231c2.66197,11.82854 4.64621,21.90187 4.64621,21.90187c0,0 -3.00238,-2.90823 -4.40965,-4.41566c-1.31254,-1.40598 -4.07312,-4.38584 -4.07312,-4.38584c0,0 2.07727,12.93493 -1.70365,25.09629c-3.38166,11.15453 -11.50688,19.55918 -11.50688,19.55918l-1.01725,-3.0061c0,0 -1.57827,2.48121 -3.12601,3.66568c-1.54774,1.18446 -4.59721,2.95789 -4.59721,2.95789l0.47642,-4.46941c0,0 -10.23708,12.13152 -31.00811,9.21483c-19.56995,-2.89183 -29.66246,-16.97079 -29.66246,-16.97079l-0.56054,3.1744c0,0 -4.16208,-4.57733 -5.89534,-12.6544c-2.06584,-9.62695 -1.95529,-15.23761 -1.95529,-15.23761c0,0 -3.11409,1.91324 -7.31526,2.43043c-5.26432,0.64805 -8.40902,-0.68584 -8.40902,-0.68584c0,0 4.76972,-2.6959 7.47151,-4.85136c2.40653,-1.91992 3.71818,-3.64206 3.71818,-3.64206c0,0 -2.70657,0.97044 -5.3469,1.27488c-2.7549,0.31767 -4.93087,-0.00026 -4.93087,-0.00026c0,0 6.78144,-5.26949 10.17904,-11.96341c3.20785,-6.32014 4.26196,-12.84483 4.26196,-12.84483c0,0 -1.74243,0.57986 -4.13094,0.42839c-1.51403,-0.096 -2.85195,-0.4357 -2.85195,-0.4357c0,0 8.35081,-6.1449 8.64234,-7.16572z" fill="#5a5a07" stroke-linecap="butt"/><path d="M193.52894,150.7352c0.46197,-8.86256 3.12193,-20.57747 3.12193,-20.57747c0,0 4.10823,0.491 17.23217,-1.57592c10.08265,-1.58795 26.21466,-8.15285 26.21466,-8.15285c0,0 -3.07406,3.27157 -4.8053,4.82377c-1.84051,1.65018 -5.52529,4.85469 -5.52529,4.85469c0,0 9.69057,-0.76318 18.39797,-3.36163c10.86503,-2.8941 13.69837,-5.60072 16.30258,-3.47066c3.0736,2.51399 -2.43573,28.04359 -3.69143,34.67835c-1.40565,6.75116 -4.55232,11.02312 -5.77322,14.55828c-1.2209,3.53516 -1.46526,7.31518 -5.19561,18.9402c-2.32799,7.25482 -6.41975,10.07345 -14.37349,16.04351c-7.95373,5.97006 -12.35498,9.69262 -17.1281,9.14794c-4.59349,-0.52418 -9.93793,-7.55001 -15.11356,-14.69509c-5.51119,-7.60838 -9.3296,-11.60158 -9.28451,-19.74752c0.04062,-7.33627 0.63664,-12.03941 1.06676,-18.51615c0.31434,-4.73367 -1.69782,-8.10943 -1.44554,-12.94945z" fill="#5a5a07" stroke-linecap="butt"/><path d="M253.73622,140.17017c0,0 1.78274,0.62412 4.94219,2.00984c2.88579,1.26569 5.07452,2.80266 5.07452,2.80266l0.04913,1.43843c0,0 -8.22255,-4.91331 -17.78719,-5.36714c-7.64765,-0.36285 -12.42785,1.80309 -12.42785,1.80309l0.71706,-5.01596c0,0 4.03135,-1.55381 9.75124,-0.98515c5.92288,0.58886 9.63662,1.99348 9.63662,1.99348z" fill="#5a5a07" stroke-linecap="butt"/><path d="M231.57196,189.84533c0.6524,0.34519 3.4866,2.17175 6.83306,4.07667c3.37309,1.92009 8.31191,3.90095 8.2619,4.09936c-0.06349,0.25182 -12.58519,-1.38101 -16.5515,-1.40786c-3.32381,-0.02251 -8.15587,-0.21156 -8.15587,-0.21156c0,0 -8.35941,-2.52309 -15.57422,-5.0444c-5.78242,-2.02075 -12.24326,-3.64599 -12.24125,-3.76016c0.00269,-0.15398 4.76486,-0.24158 8.42804,-0.59562c1.45675,-0.41561 6.7774,-0.92386 6.7774,-0.92386c0,0 6.00409,0.45159 9.05817,1.90225c3.27244,1.55436 3.0224,3.39054 3.3165,3.45807c0,0 1.70163,-1.91607 3.18246,-2.15562c1.48085,-0.23951 6.17801,0.30485 6.66535,0.56271z" fill="#5a5a07" stroke-linecap="butt"/><path d="M208.4235,192.36589c5.96005,2.04175 13.88751,5.26519 13.88751,5.26519c0,0 7.20958,-0.95341 10.44915,-0.86727c2.51157,0.06678 13.60074,0.92806 13.59489,1.38338c-0.00572,0.44519 -12.90598,14.08291 -27.40632,11.61733c-16.49068,-2.70661 -25.09871,-21.82667 -25.02639,-22.0241c0.07231,-0.19739 8.54118,2.5837 14.5012,4.62546z" fill="#5a5a07" stroke-linecap="butt"/><path d="M222.09602,190.50503c-1.24323,-0.16385 -3.73826,-4.48189 -3.70385,-7.05077c0.0308,-2.29843 2.18838,-4.39522 5.16076,-4.00348c2.97242,0.39175 4.97582,1.25626 4.18274,5.67604c-0.67308,3.75093 -2.6672,5.76997 -5.63962,5.37822z" fill="#5a5a07" stroke-linecap="butt"/><path d="M231.19799,154.88422c0,0 -0.50581,4.79043 -1.12266,8.57163c-1.22142,7.48744 -5.70077,33.21458 -5.70077,33.21458l-3.58724,-0.46221c0,0 -0.30425,-5.14556 0.15494,-11.60282c0.62153,-8.74048 2.04195,-19.66604 2.19363,-23.73148c0.1438,-3.85366 -0.17171,-7.01449 -0.17171,-7.01449" fill="#5a5a07" stroke-linecap="round"/><path d="M193.96842,163.17913c0,0 -5.37409,-5.01148 -5.99068,-11.7707c-0.6488,-7.11201 -0.2146,-11.9366 2.16116,-11.94055c2.37575,-0.00396 2.87425,3.28704 3.16459,10.64047c0.29033,7.35343 0.66492,13.07079 0.66492,13.07079z" fill="#5a5a07" stroke-linecap="butt"/><path d="M194.35048,158.39954c0,0 -3.82264,-4.08063 -3.85374,-10.84743c-0.01736,-3.77474 2.95519,-2.40036 2.95519,-2.40036" fill="#5a5a07" stroke-linecap="round"/><path d="M199.02949,150.87255c0.86068,-5.8719 7.23514,-9.97996 13.68461,-9.03465c6.44942,0.94532 10.1831,6.54012 9.32242,12.41204c-0.86068,5.8719 -6.35305,9.92285 -12.80247,8.97754c-6.44942,-0.94532 -11.06523,-6.483 -10.20455,-12.35493z" fill="#5a5a07" stroke-linecap="butt"/><path d="M204.34769,151.71777c0.4853,-3.31104 3.56285,-5.60172 6.87388,-5.1164c3.31104,0.4853 5.60172,3.56286 5.11641,6.87389c-0.4853,3.31104 -3.56283,5.60172 -6.87387,5.1164c-3.31104,-0.4853 -5.60172,-3.56285 -5.11641,-6.87387z" fill="#5a5a07" stroke-linecap="butt"/><path d="M231.5682,155.16196c1.01955,-5.84641 6.75898,-9.94774 13.15442,-9.10485c6.3954,0.84289 10.52524,6.23977 9.74978,12.12356c-0.77546,5.88377 -6.11106,10.29323 -13.11414,9.45693c-6.66122,-0.79547 -10.85483,-6.36989 -9.79006,-12.4756z" fill="#5a5a07" stroke-linecap="butt"/><path d="M237.09007,155.99438c0.44675,-3.38957 3.55666,-5.7752 6.94622,-5.32845c3.38957,0.44675 5.7752,3.55666 5.32846,6.94622c-0.44675,3.38957 -3.55665,5.7752 -6.94622,5.32846c-3.38957,-0.44675 -5.7752,-3.55666 -5.32845,-6.94623z" fill="#5a5a07" stroke-linecap="butt"/><path d="M204.92823,138.25015c0,0 4.34076,-1.65349 10.02176,-1.47097c6.29529,0.20226 9.35283,1.15157 9.35283,1.15157l-0.30092,5.02264c0,0 -4.50488,-1.42652 -9.56006,-1.8976c-6.76071,-0.63002 -8.21847,0.67006 -13.40576,0.54709c-4.44474,-0.10537 -8.1276,-0.87684 -8.1276,-0.87684l0.16406,-1.48519c0,0 4.31196,0.65881 6.30508,0.74734c1.64506,0.07306 4.93,-0.498 4.93,-0.498z" fill="#5a5a07" stroke-linecap="butt"/><path d="M260.87302,159.01377c2.18564,-7.02711 3.51976,-10.07657 5.81338,-9.45721c2.29361,0.61936 1.46298,5.39168 -1.00633,12.09275c-2.34682,6.36866 -8.8358,9.81663 -8.8358,9.81663c0,0 1.84313,-5.42506 4.02877,-12.45218z" fill="#5a5a07" stroke-linecap="butt"/><path d="M262.01388,154.18799c0,0 3.22714,-0.5573 2.23236,3.08405c-1.78324,6.52768 -6.53262,9.47857 -6.53262,9.47857" fill="#5a5a07" stroke-linecap="round"/><g stroke-linecap="butt"><path d="M252.43955,151.92938c-0.48215,3.65827 -4.95071,6.08644 -9.98082,5.4235c-5.0301,-0.66295 -8.71695,-4.16597 -8.23481,-7.82426c0.48215,-3.65826 4.95071,-6.08644 9.98081,-5.4235c5.0301,0.66295 8.71695,4.16597 8.23481,7.82425z" fill="#8f8f0b"/><path d="M253.41958,154.59647c-0.31353,2.37894 -5.317,3.68149 -11.17553,2.90934c-5.85856,-0.77213 -10.35366,-3.32657 -10.04013,-5.70552c0.31353,-2.37894 5.31699,-3.68148 11.17553,-2.90934c5.85856,0.77213 10.35366,3.32657 10.04014,5.70551z" fill="#5a5a07"/></g><g stroke-linecap="butt"><path d="M222.08551,147.76742c-0.48215,3.65827 -4.95072,6.08644 -9.98083,5.42349c-5.0301,-0.66295 -8.71694,-4.16598 -8.23481,-7.82425c0.48215,-3.65826 4.95072,-6.08644 9.98082,-5.4235c5.0301,0.66295 8.71696,4.16597 8.23481,7.82426z" fill="#8f8f0b"/><path d="M223.06556,150.43448c-0.31352,2.37891 -5.31701,3.68148 -11.17554,2.90934c-5.85856,-0.77213 -10.35365,-3.32659 -10.04014,-5.70552c0.31352,-2.37891 5.317,-3.68148 11.17553,-2.90934c5.85856,0.77213 10.35366,3.32659 10.04015,5.70552z" fill="#5a5a07"/></g><path d="M222.78199,190.74798c-9.42569,-1.10761 -18.57121,-10.36128 -17.35077,-20.74735c1.22046,-10.38604 40.9945,-5.50083 39.77406,4.88521c-1.22046,10.38604 -12.99758,16.96974 -22.4233,15.86214z" fill="#ffffff" stroke-linecap="butt"/><path d="M212.87539,161.48394l1.0801,28.52885" fill="none" stroke-linecap="round"/><path d="M226.90169,162.40803l-4.04144,30.35701" fill="none" stroke-linecap="round"/><path d="M231.28982,193.47472l10.31267,-26.63488" fill="none" stroke-linecap="round"/></g><g fill-rule="nonzero" stroke-linejoin="miter"><path d="M175.13615,134.45881c0,0 8.35083,-6.14494 8.64236,-7.16578c0.76463,-2.6774 6.16583,-48.34024 49.84564,-44.29712c53.82602,5.97625 41.31778,48.69558 43.2592,57.32231c2.66197,11.82854 4.64621,21.90187 4.64621,21.90187c0,0 -3.00238,-2.90823 -4.40965,-4.41566c-1.31254,-1.40598 -4.07311,-4.38584 -4.07311,-4.38584c0,0 2.07727,12.93493 -1.70366,25.09629c-3.38166,11.15453 -11.50688,19.55918 -11.50688,19.55918l-1.01726,-3.0061c0,0 -1.57827,2.48121 -3.12601,3.66568c-1.54774,1.18446 -4.59721,2.95789 -4.59721,2.95789l0.47642,-4.46941c0,0 -10.23708,12.13152 -31.00811,9.21483c-19.56995,-2.89183 -29.66245,-16.97079 -29.66245,-16.97079l-0.56054,3.1744c0,0 -4.16208,-4.57733 -5.89534,-12.6544c-2.06584,-9.62695 -1.95529,-15.23761 -1.95529,-15.23761c0,0 -3.11409,1.91324 -7.31527,2.43043c-5.26432,0.64805 -8.40902,-0.68584 -8.40902,-0.68584c0,0 4.76972,-2.6959 7.47151,-4.85136c2.40653,-1.91992 3.71818,-3.64206 3.71818,-3.64206c0,0 -2.70657,0.97044 -5.3469,1.27488c-2.7549,0.31767 -4.93087,-0.00026 -4.93087,-0.00026c0,0 6.78144,-5.26949 10.17904,-11.96341c3.20785,-6.32014 4.26196,-12.84483 4.26196,-12.84483c0,0 -1.74242,0.57986 -4.13094,0.42839c-1.51403,-0.096 -2.85195,-0.4357 -2.85195,-0.4357z" fill="#5a5a07" stroke="none" stroke-width="0" stroke-linecap="butt"/><path d="M193.52894,150.7352c0.46197,-8.86256 3.12193,-20.57747 3.12193,-20.57747c0,0 4.10823,0.491 17.23217,-1.57592c10.08265,-1.58795 26.21466,-8.15285 26.21466,-8.15285c0,0 -3.07406,3.27157 -4.8053,4.82377c-1.84051,1.65018 -5.52529,4.85469 -5.52529,4.85469c0,0 9.69057,-0.76318 18.39797,-3.36163c10.86503,-2.8941 13.69837,-5.60072 16.30258,-3.47066c3.0736,2.51399 -2.43573,28.04359 -3.69143,34.67835c-1.40565,6.75116 -4.55232,11.02312 -5.77322,14.55828c-1.2209,3.53516 -1.46526,7.31518 -5.19561,18.9402c-2.32799,7.25482 -6.41975,10.07345 -14.37349,16.04351c-7.95373,5.97006 -12.35498,9.69262 -17.1281,9.14794c-4.59349,-0.52418 -9.93793,-7.55001 -15.11356,-14.69509c-5.51119,-7.60838 -9.3296,-11.60158 -9.28451,-19.74752c0.04062,-7.33627 0.63664,-12.03941 1.06676,-18.51615c0.31434,-4.73367 -1.69782,-8.10943 -1.44554,-12.94945z" fill="#5a5a07" stroke="none" stroke-width="0" stroke-linecap="butt"/><path d="M253.73622,140.17017c0,0 1.78274,0.62412 4.94219,2.00984c2.88579,1.26569 5.07452,2.80266 5.07452,2.80266l0.04913,1.43843c0,0 -8.22255,-4.91331 -17.78719,-5.36714c-7.64765,-0.36285 -12.42785,1.80309 -12.42785,1.80309l0.71706,-5.01596c0,0 4.03135,-1.55381 9.75124,-0.98515c5.92288,0.58886 9.63662,1.99348 9.63662,1.99348z" fill="#5a5a07" stroke="none" stroke-width="0" stroke-linecap="butt"/><path d="M231.57196,189.84533c0.6524,0.34519 3.4866,2.17175 6.83306,4.07667c3.37309,1.92009 8.31191,3.90095 8.2619,4.09936c-0.06349,0.25182 -12.58519,-1.38101 -16.5515,-1.40786c-3.32381,-0.02251 -8.15587,-0.21156 -8.15587,-0.21156c0,0 -8.35941,-2.52309 -15.57422,-5.0444c-5.78242,-2.02075 -12.24326,-3.64599 -12.24125,-3.76016c0.00269,-0.15398 4.76486,-0.24158 8.42804,-0.59562c1.45675,-0.41561 6.7774,-0.92386 6.7774,-0.92386c0,0 6.00409,0.45159 9.05817,1.90225c3.27244,1.55436 3.0224,3.39054 3.3165,3.45807c0,0 1.70163,-1.91607 3.18246,-2.15562c1.48085,-0.23951 6.17801,0.30485 6.66535,0.56271z" fill="#5a5a07" stroke="none" stroke-width="0" stroke-linecap="butt"/><path d="M208.4235,192.36589c5.96005,2.04175 13.88751,5.26519 13.88751,5.26519c0,0 7.20958,-0.95341 10.44915,-0.86727c2.51157,0.06678 13.60074,0.92806 13.59489,1.38338c-0.00572,0.44519 -12.90598,14.08291 -27.40632,11.61733c-16.49068,-2.70661 -25.09871,-21.82667 -25.02639,-22.0241c0.07231,-0.19739 8.54118,2.5837 14.5012,4.62546z" fill="#5a5a07" stroke="none" stroke-width="0" stroke-linecap="butt"/><path d="M222.09602,190.50503c-1.24323,-0.16385 -3.73826,-4.48189 -3.70385,-7.05077c0.0308,-2.29843 2.18838,-4.39522 5.16076,-4.00348c2.97242,0.39175 4.97582,1.25626 4.18274,5.67604c-0.67308,3.75093 -2.6672,5.76997 -5.63962,5.37822z" fill="#5a5a07" stroke="none" stroke-width="0" stroke-linecap="butt"/><path d="M231.19799,154.88422c0,0 -0.50581,4.79043 -1.12266,8.57163c-1.22142,7.48744 -5.70077,33.21458 -5.70077,33.21458l-3.58724,-0.46221c0,0 -0.30425,-5.14556 0.15494,-11.60282c0.62153,-8.74048 2.04195,-19.66604 2.19363,-23.73148c0.1438,-3.85366 -0.17171,-7.01449 -0.17171,-7.01449" fill="#5a5a07" stroke="none" stroke-width="0" stroke-linecap="round"/><path d="M193.96842,163.17913c0,0 -5.37409,-5.01148 -5.99068,-11.7707c-0.6488,-7.11201 -0.2146,-11.9366 2.16116,-11.94055c2.37575,-0.00396 2.87425,3.28704 3.16459,10.64047c0.29033,7.35343 0.66492,13.07079 0.66492,13.07079z" fill="#5a5a07" stroke="none" stroke-width="0" stroke-linecap="butt"/><path d="M194.35048,158.39954c0,0 -3.82264,-4.08063 -3.85374,-10.84743c-0.01736,-3.77474 2.95519,-2.40036 2.95519,-2.40036" fill="#5a5a07" stroke="none" stroke-width="0" stroke-linecap="round"/><path d="M199.02949,150.87255c0.86068,-5.8719 7.23514,-9.97996 13.68461,-9.03465c6.44942,0.94532 10.1831,6.54012 9.32242,12.41204c-0.86068,5.8719 -6.35305,9.92285 -12.80247,8.97754c-6.44942,-0.94532 -11.06523,-6.483 -10.20455,-12.35493z" fill="#5a5a07" stroke="none" stroke-width="0" stroke-linecap="butt"/><path d="M204.34769,151.71777c0.4853,-3.31104 3.56285,-5.60172 6.87388,-5.1164c3.31104,0.4853 5.60172,3.56286 5.11641,6.87389c-0.4853,3.31104 -3.56283,5.60172 -6.87387,5.1164c-3.31104,-0.4853 -5.60172,-3.56285 -5.11641,-6.87387z" fill="#5a5a07" stroke="none" stroke-width="0" stroke-linecap="butt"/><path d="M231.5682,155.16196c1.01955,-5.84641 6.75898,-9.94774 13.15442,-9.10485c6.3954,0.84289 10.52524,6.23977 9.74978,12.12356c-0.77546,5.88377 -6.11106,10.29323 -13.11414,9.45693c-6.66122,-0.79547 -10.85483,-6.36989 -9.79006,-12.4756z" fill="#5a5a07" stroke="none" stroke-width="0" stroke-linecap="butt"/><path d="M237.09007,155.99438c0.44675,-3.38957 3.55666,-5.7752 6.94622,-5.32845c3.38957,0.44675 5.7752,3.55666 5.32846,6.94622c-0.44675,3.38957 -3.55665,5.7752 -6.94622,5.32846c-3.38957,-0.44675 -5.7752,-3.55666 -5.32845,-6.94623z" fill="#5a5a07" stroke="none" stroke-width="0" stroke-linecap="butt"/><path d="M204.92823,138.25015c0,0 4.34076,-1.65349 10.02176,-1.47097c6.29529,0.20226 9.35283,1.15157 9.35283,1.15157l-0.30092,5.02264c0,0 -4.50488,-1.42652 -9.56006,-1.8976c-6.76071,-0.63002 -8.21847,0.67006 -13.40576,0.54709c-4.44474,-0.10537 -8.1276,-0.87684 -8.1276,-0.87684l0.16406,-1.48519c0,0 4.31196,0.65881 6.30508,0.74734c1.64506,0.07306 4.93,-0.498 4.93,-0.498z" fill="#5a5a07" stroke="none" stroke-width="0" stroke-linecap="butt"/><path d="M260.87302,159.01377c2.18564,-7.02711 3.51976,-10.07657 5.81338,-9.45721c2.29361,0.61936 1.46298,5.39168 -1.00633,12.09275c-2.34682,6.36866 -8.8358,9.81663 -8.8358,9.81663c0,0 1.84313,-5.42506 4.02877,-12.45218z" fill="#5a5a07" stroke="none" stroke-width="0" stroke-linecap="butt"/><path d="M262.01388,154.18799c0,0 3.22714,-0.5573 2.23236,3.08405c-1.78324,6.52768 -6.53262,9.47857 -6.53262,9.47857" fill="#5a5a07" stroke="none" stroke-width="0" stroke-linecap="round"/><g stroke="none" stroke-width="0" stroke-linecap="butt"><path d="M252.43955,151.92938c-0.48215,3.65827 -4.95071,6.08644 -9.98082,5.4235c-5.0301,-0.66295 -8.71695,-4.16597 -8.23481,-7.82426c0.48215,-3.65826 4.95071,-6.08644 9.98081,-5.4235c5.0301,0.66295 8.71695,4.16597 8.23481,7.82425z" fill="#8f8f0b"/><path d="M253.41958,154.59647c-0.31353,2.37894 -5.317,3.68149 -11.17553,2.90934c-5.85856,-0.77213 -10.35366,-3.32657 -10.04013,-5.70552c0.31353,-2.37894 5.31699,-3.68148 11.17553,-2.90934c5.85856,0.77213 10.35366,3.32657 10.04014,5.70551z" fill="#5a5a07"/></g><g stroke="none" stroke-width="0" stroke-linecap="butt"><path d="M222.08551,147.76742c-0.48215,3.65827 -4.95072,6.08644 -9.98083,5.42349c-5.0301,-0.66295 -8.71694,-4.16598 -8.23481,-7.82425c0.48215,-3.65826 4.95072,-6.08644 9.98082,-5.4235c5.0301,0.66295 8.71696,4.16597 8.23481,7.82426z" fill="#8f8f0b"/><path d="M223.06556,150.43448c-0.31352,2.37891 -5.31701,3.68148 -11.17554,2.90934c-5.85856,-0.77213 -10.35365,-3.32659 -10.04014,-5.70552c0.31352,-2.37891 5.317,-3.68148 11.17553,-2.90934c5.85856,0.77213 10.35366,3.32659 10.04015,5.70552z" fill="#5a5a07"/></g><path d="M222.78199,190.74798c-9.42569,-1.10761 -18.57121,-10.36128 -17.35077,-20.74735c1.22046,-10.38604 40.9945,-5.50083 39.77406,4.88521c-1.22046,10.38604 -12.99758,16.96974 -22.4233,15.86214z" fill="#ffffff" stroke="none" stroke-width="0" stroke-linecap="butt"/><path d="M212.87539,161.48394l1.0801,28.52885" fill="none" stroke="#5a5a07" stroke-width="2.5" stroke-linecap="round"/><path d="M226.90169,162.40803l-4.04144,30.35701" fill="none" stroke="#5a5a07" stroke-width="2.5" stroke-linecap="round"/><path d="M231.28982,193.47472l10.31267,-26.63488" fill="none" stroke="#5a5a07" stroke-width="2.5" stroke-linecap="round"/></g><g fill-rule="nonzero" stroke="#212108" stroke-width="4.5" stroke-linejoin="miter"><path d="M352.89346,148.10726c0,0 6.74532,-8.54291 6.75662,-9.65743c0.02959,-2.92308 -7.1996,-50.65197 38.14413,-58.7046c56.15281,-8.9169 55.36867,37.80832 59.73284,46.00179c5.98393,11.23448 10.79369,20.88056 10.79369,20.88056c0,0 -3.84814,-2.10932 -5.69196,-3.24408c-1.7197,-1.05838 -5.34296,-3.30745 -5.34296,-3.30745c0,0 5.69966,12.51714 5.25362,25.88008c-0.32176,12.23266 -6.21039,23.00046 -6.21039,23.00046l-1.86572,-2.7604c0,0 -0.90783,2.95073 -2.14534,4.58021c-1.2375,1.62948 -3.83152,4.27275 -3.83152,4.27275l-0.76045,-4.6571c0,0 -6.99027,15.12796 -28.82895,17.95088c-20.61588,2.51411 -34.74787,-8.93244 -34.74787,-8.93244l0.3152,3.36945c0,0 -5.48626,-3.47655 -9.48689,-11.17147c-4.76827,-9.17145 -6.21646,-14.88218 -6.21646,-14.88218c0,0 -2.62056,2.80277 -6.72984,4.49455c-5.14916,2.11986 -8.7036,1.64392 -8.7036,1.64392c0,0 4.07903,-4.05549 6.21484,-6.98885c1.90239,-2.61281 2.75137,-4.72095 2.75137,-4.72095c0,0 -2.47017,1.73502 -5.05847,2.77743c-2.70062,1.08764 -4.99188,1.37083 -4.99188,1.37083c0,0 5.39999,-7.22023 6.97823,-14.94162c1.49009,-7.29024 0.74294,-14.18866 0.74294,-14.18866c0,0 -1.60274,1.07156 -4.06287,1.58239c-1.55942,0.3238 -3.00833,0.35193 -3.00833,0.35193z" fill="#000000" stroke-linecap="butt"/><path d="M376.03933,159.4704c-1.99665,-9.10049 -2.56132,-21.69981 -2.56132,-21.69981c0,0 4.29553,-0.6453 17.00688,-6.38701c9.76569,-4.41119 24.27155,-15.54288 24.27155,-15.54288c0,0 -2.20234,4.16679 -3.52335,6.21956c-1.4044,2.18233 -4.24363,6.45104 -4.24363,6.45104c0,0 9.5981,-3.4672 17.69055,-8.51896c10.19455,-5.95101 12.31026,-9.47891 15.53895,-8.04666c3.81063,1.6904 5.33202,29.06738 5.90569,36.13327c0.45423,7.22544 -1.54345,12.42514 -1.79643,16.34347c-0.25297,3.91831 0.55069,7.813 0.00674,20.61892c-0.33947,7.99177 -3.69802,11.983 -10.08997,20.23845c-6.39197,8.25545 -9.81247,13.24784 -14.79604,14.02364c-4.796,0.74662 -12.16008,-4.87995 -19.38644,-10.67415c-7.69491,-6.16991 -12.67084,-9.15072 -14.89026,-17.40983c-1.99885,-7.43821 -2.70319,-12.3652 -4.06871,-19.04153c-0.99802,-4.87955 -3.97374,-7.73754 -5.06416,-12.70749z" fill="#ffffff" stroke-linecap="butt"/><path d="M433.43407,131.69026c0,0 1.9783,0.13612 5.56211,0.66043c3.27339,0.4789 5.91652,1.42628 5.91652,1.42628l0.4497,1.44253c0,0 -9.69034,-2.68761 -19.49934,-0.4875c-7.84305,1.7592 -12.08002,5.28109 -12.08002,5.28109l-0.66883,-5.27732c0,0 3.64907,-2.69398 9.59776,-3.70879c6.15982,-1.05079 10.30999,-0.66146 10.30999,-0.66146z" fill="#000000" stroke-linecap="butt"/><path d="M425.42745,188.48541c0.75645,0.16806 4.13356,1.2291 8.05104,2.22704c3.94868,1.00589 9.49932,1.63792 9.50385,1.8527c0.00574,0.27259 -13.12468,2.1014 -17.14745,3.17708c-3.37115,0.90143 -8.31549,2.05369 -8.31549,2.05369c0,0 -9.16427,-0.22982 -17.16929,-0.77613c-6.41575,-0.43782 -13.40835,-0.28665 -13.43805,-0.40279c-0.0401,-0.15661 4.75654,-1.56949 8.36656,-2.9465c1.35919,-0.82581 6.60424,-2.8198 6.60424,-2.8198c0,0 6.20384,-1.21235 9.69904,-0.59298c3.74507,0.66365 4.00252,2.59202 4.31902,2.57859c0,0 1.18987,-2.41288 2.62239,-3.06715c1.43255,-0.65425 6.33911,-1.40927 6.90418,-1.28375z" fill="#ffffff" stroke-linecap="butt"/><path d="M402.69383,197.47384c6.60141,0.40972 15.52314,1.46866 15.52314,1.46866c0,0 7.03354,-2.96992 10.33709,-3.78351c2.56117,-0.63076 14.02685,-2.84232 14.14753,-2.37974c0.11799,0.45228 -9.1495,17.84559 -24.51461,19.38153c-17.44701,1.84538 -31.47797,-15.11737 -31.45965,-15.3373c0.01831,-0.21997 9.36512,0.24066 15.96652,0.65037z" fill="#ffffff" stroke-linecap="butt"/><path d="M416.01787,191.78817c-1.30417,0.17981 -5.03069,-3.4978 -5.71016,-6.108c-0.60797,-2.3354 0.99326,-5.05804 4.11132,-5.48795c3.11808,-0.42992 5.3866,-0.11179 5.81267,4.58312c0.3616,3.98442 -1.09576,6.58291 -4.21382,7.01282z" fill="#ffffff" stroke-linecap="butt"/><path d="M415.3275,153.19635c0,0 0.81995,4.99029 1.24691,8.98972c0.84547,7.91957 3.46452,35.2101 3.46452,35.2101l-3.76009,0.52954c0,0 -1.73878,-5.12452 -3.06946,-11.78923c-1.80118,-9.02129 -3.4012,-20.47677 -4.37808,-24.63464c-0.92598,-3.94128 -2.12432,-7.05342 -2.12432,-7.05342" fill="#ffffff" stroke-linecap="round"/><path d="M379.94443,171.94589c0,0 -6.83395,-3.57908 -9.33768,-10.25036c-2.6344,-7.0195 -3.53636,-12.02441 -1.13234,-12.68901c2.40402,-0.66461 3.82374,2.52843 6.16238,9.89199c2.33864,7.36355 4.30765,13.04739 4.30765,13.04739z" fill="#ffffff" stroke-linecap="butt"/><path d="M379.00222,167.00102c0,0 -5.00456,-3.06812 -6.9176,-9.90989c-1.06718,-3.81656 2.32428,-3.25173 2.32428,-3.25173" fill="none" stroke-linecap="round"/><path d="M381.64605,158.07999c-0.76145,-6.18376 4.54949,-12.11508 11.34146,-12.95144c6.79197,-0.83635 12.12745,3.7894 12.88893,9.97316c0.76144,6.18376 -3.67237,11.81197 -10.46434,12.64833c-6.79199,0.83635 -13.00461,-3.48628 -13.76607,-9.67006z" fill="#ffffff" stroke-linecap="butt"/><path d="M387.26493,157.45684c-0.42937,-3.4869 2.04927,-6.66162 5.53613,-7.091c3.4869,-0.42936 6.66161,2.04927 7.09099,5.53613c0.42937,3.4869 -2.04925,6.66163 -5.53613,7.091c-3.4869,0.42936 -6.66161,-2.04925 -7.09098,-5.53613z" fill="#000000" stroke-linecap="butt"/><path d="M415.77949,153.37456c-0.5935,-6.20216 4.0764,-11.95007 10.7852,-12.87509c6.7088,-0.925 12.39033,3.39021 13.24135,9.56229c0.851,6.17209 -3.3244,12.11965 -10.64657,13.22031c-6.96471,1.04693 -12.76015,-3.43029 -13.38,-9.90753z" fill="#ffffff" stroke-linecap="butt"/><path d="M421.60104,152.68185c-0.49025,-3.55567 1.99474,-6.83552 5.55041,-7.32578c3.55566,-0.49027 6.83552,1.99475 7.32579,5.55041c0.49025,3.55567 -1.99473,6.83552 -5.55041,7.32578c-3.55566,0.49027 -6.83551,-1.99474 -7.32578,-5.55041z" fill="#000000" stroke-linecap="butt"/><path d="M381.46713,157.42049c0,0 -1.48795,-11.38425 11.83896,-12.97722c11.97717,-1.43821 13.69131,10.20573 13.69131,10.20573z" fill="#ffffff" stroke-linecap="butt"/><path d="M415.23313,152.9331c0,0 -1.95664,-11.88922 12.54373,-13.43217c12.31322,-1.26907 13.72286,10.51639 13.72286,10.51639z" fill="#ffffff" stroke-linecap="butt"/><path d="M383.80326,140.60498c0,0 3.93462,-2.88094 9.73656,-4.27582c6.4293,-1.54574 9.7886,-1.43487 9.7886,-1.43487l1.09196,5.16837c0,0 -4.95718,-0.1915 -10.20584,0.73726c-7.01943,1.24207 -8.13371,2.9636 -13.41926,4.28149c-4.52895,1.12926 -8.47185,1.3723 -8.47185,1.3723l-0.24689,-1.54919c0,0 4.54842,-0.53204 6.59078,-0.99662c1.68569,-0.38346 4.85244,-1.875 4.85244,-1.875z" fill="#000000" stroke-linecap="butt"/><path d="M446.51741,149.12543c0.25867,-7.7217 0.76134,-11.17977 3.25551,-11.19053c2.49417,-0.01077 2.98027,5.05149 2.34376,12.52196c-0.60494,7.09992 -6.21535,12.39483 -6.21535,12.39483c0,0 0.35741,-6.00459 0.61607,-13.72629z" fill="#ffffff" stroke-linecap="butt"/><path d="M446.33047,143.92277c0,0 3.11204,-1.46154 3.11751,2.50142c0.00983,7.10419 -3.97768,11.41215 -3.97768,11.41215" fill="none" stroke-linecap="round"/><g stroke-linecap="butt"><g><path d="M378.87257,171.73745l-2.25678,-16.36759l29.24545,-4.03239l3.87912,16.26746z" fill="url(#color-4)"/><path d="M405.86123,151.33747l3.63304,16.17786c0,0 -10.53283,1.80286 -15.6648,2.51047c-5.07461,0.69968 -14.95688,1.71165 -14.95688,1.71165l-2.25678,-16.3676z" fill="url(#color-5)"/></g><g><path d="M416.93225,166.36621l-0.66788,-16.71021l29.24541,-4.0324l-1.16712,16.96324z" fill="url(#color-6)"/><path d="M445.96854,145.56034l-1.49448,17.13193c0,0 -8.79946,1.83303 -13.33397,2.41726c-4.57485,0.5894 -13.9952,1.1038 -13.9952,1.1038c0,0 -1.65226,-12.64211 -1.95139,-14.93093c-0.08933,-0.68344 -0.17398,-1.33125 -0.17398,-1.33125z" fill="url(#color-7)"/></g><path d="M406.41052,154.47394l-0.5015,-3.63725l9.74847,-1.34412l0.50149,3.63725c0,0 -3.55052,-1.2401 -5.1656,-1.0174c-1.63421,0.22534 -4.58286,2.36154 -4.58286,2.36154z" fill="#000000"/></g><path d="M379.8469,160.1567l-0.30044,-2.17905l7.27448,-1.00302l0.30044,2.17908z" fill="url(#color-8)" stroke-linecap="butt"/><path d="M380.14382,162.31028l-0.30044,-2.17908l4.75135,-0.65511l0.30046,2.17908z" fill="url(#color-9)" stroke-linecap="butt"/></g><g stroke="none"><path d="M153.14583,180.75849l26.10285,6.48583c5.10312,1.26799 8.19055,6.39702 6.92257,11.5001l-6.48582,26.10285c-1.26796,5.10307 -6.39701,8.19057 -11.5001,6.92258l-26.10285,-6.48581c-5.10307,-1.26796 -8.19054,-6.39702 -6.92257,-11.50011l6.48582,-26.10284c1.26796,-5.10307 6.39703,-8.19054 11.50011,-6.9226z" fill-opacity="0.2902" fill="#000000" fill-rule="evenodd" stroke-width="4.43922" stroke-linecap="round" stroke-linejoin="round"/><g fill="none" fill-rule="nonzero" stroke-width="1" stroke-linecap="butt" stroke-linejoin="miter" font-family="sans-serif" font-weight="normal" font-size="12" text-anchor="start"><g/><g/></g></g><g><path d="M156.9204,177.54771l26.10285,6.48582c5.10308,1.26796 8.19056,6.39702 6.92261,11.50009l-6.48583,26.10286c-1.26796,5.10307 -6.39701,8.19054 -11.5001,6.92259l-26.10284,-6.48582c-5.10307,-1.26796 -8.19056,-6.39702 -6.9226,-11.50009l6.48583,-26.10284c1.26796,-5.10307 6.39702,-8.19056 11.5001,-6.9226z" fill="#a0a300" fill-rule="evenodd" stroke="#202003" stroke-width="1" stroke-linecap="round" stroke-linejoin="round"/><g fill="#d9db56" fill-rule="nonzero" stroke="#000000" stroke-linecap="butt" stroke-linejoin="miter"><g><path d="M144.23517,207.71254l0.3016,-9.94199l17.76423,0.53889l0.67145,10.04524z" stroke-width="1"/><path d="M162.301,198.30942l0.53438,9.96735c0,0 -6.433,0.01403 -9.55025,-0.08055c-3.08243,-0.0935 -9.04994,-0.48373 -9.04994,-0.48373l0.30159,-9.94199z" stroke-width="0.5"/></g><g><path d="M167.36571,208.34048l1.27912,-9.98604l17.76423,0.53888l-2.39374,9.95226z" stroke-width="1"/><path d="M186.6877,198.90175l-2.60495,10.01959c0,0 -8.05464,0.10187 -8.15735,0.09784c-2.77471,-0.10886 -8.41814,-0.74809 -8.41814,-0.74809c0,0 0.28688,-7.66994 0.33881,-9.05856c0.0155,-0.41465 0.0302,-0.80769 0.0302,-0.80769z" stroke-width="0.5"/></g><path d="M162.37959,198.01692l5.81312,-0.00023l-0.37842,2.28492c0,0 -1.71327,-0.5994 -2.6943,-0.62914c-0.56121,-0.01702 -2.66673,0.41583 -2.66673,0.41583z" stroke-width="0.5"/></g></g><g fill-rule="nonzero" stroke-linejoin="miter"><path d="M352.89346,148.10726c0,0 6.74532,-8.54291 6.75662,-9.65743c0.02959,-2.92308 -7.1996,-50.65197 38.14413,-58.7046c56.15281,-8.9169 55.36867,37.80832 59.73284,46.00179c5.98393,11.23448 10.79369,20.88056 10.79369,20.88056c0,0 -3.84814,-2.10932 -5.69196,-3.24408c-1.7197,-1.05838 -5.34296,-3.30745 -5.34296,-3.30745c0,0 5.69966,12.51714 5.25362,25.88008c-0.32176,12.23266 -6.21039,23.00046 -6.21039,23.00046l-1.86572,-2.7604c0,0 -0.90783,2.95073 -2.14534,4.58021c-1.2375,1.62948 -3.83152,4.27275 -3.83152,4.27275l-0.76045,-4.6571c0,0 -6.99027,15.12796 -28.82895,17.95088c-20.61588,2.51411 -34.74787,-8.93244 -34.74787,-8.93244l0.3152,3.36945c0,0 -5.48626,-3.47655 -9.48689,-11.17147c-4.76827,-9.17145 -6.21646,-14.88218 -6.21646,-14.88218c0,0 -2.62056,2.80277 -6.72984,4.49455c-5.14916,2.11986 -8.7036,1.64392 -8.7036,1.64392c0,0 4.07903,-4.05549 6.21484,-6.98885c1.90239,-2.61281 2.75137,-4.72095 2.75137,-4.72095c0,0 -2.47017,1.73502 -5.05847,2.77743c-2.70062,1.08764 -4.99188,1.37083 -4.99188,1.37083c0,0 5.39999,-7.22023 6.97823,-14.94162c1.49009,-7.29024 0.74294,-14.18866 0.74294,-14.18866c0,0 -1.60274,1.07156 -4.06287,1.58239c-1.55942,0.3238 -3.00833,0.35193 -3.00833,0.35193z" fill="#000000" stroke="none" stroke-width="1.5" stroke-linecap="butt"/><path d="M376.03933,159.4704c-1.99665,-9.10049 -2.56132,-21.69981 -2.56132,-21.69981c0,0 4.29553,-0.6453 17.00688,-6.38701c9.76569,-4.41119 24.27155,-15.54288 24.27155,-15.54288c0,0 -2.20234,4.16679 -3.52335,6.21956c-1.4044,2.18233 -4.24363,6.45104 -4.24363,6.45104c0,0 9.5981,-3.4672 17.69055,-8.51896c10.19455,-5.95101 12.31026,-9.47891 15.53895,-8.04666c3.81063,1.6904 5.33202,29.06738 5.90569,36.13327c0.45423,7.22544 -1.54345,12.42514 -1.79643,16.34347c-0.25297,3.91831 0.55069,7.813 0.00674,20.61892c-0.33947,7.99177 -3.69802,11.983 -10.08997,20.23845c-6.39197,8.25545 -9.81247,13.24784 -14.79604,14.02364c-4.796,0.74662 -12.16008,-4.87995 -19.38644,-10.67415c-7.69491,-6.16991 -12.67084,-9.15072 -14.89026,-17.40983c-1.99885,-7.43821 -2.70319,-12.3652 -4.06871,-19.04153c-0.99802,-4.87955 -3.97374,-7.73754 -5.06416,-12.70749z" fill="#ffffff" stroke="#000000" stroke-width="1.5" stroke-linecap="butt"/><path d="M433.43407,131.69026c0,0 1.9783,0.13612 5.56211,0.66043c3.27339,0.4789 5.91652,1.42628 5.91652,1.42628l0.4497,1.44253c0,0 -9.69034,-2.68761 -19.49934,-0.4875c-7.84305,1.7592 -12.08002,5.28109 -12.08002,5.28109l-0.66883,-5.27732c0,0 3.64907,-2.69398 9.59776,-3.70879c6.15982,-1.05079 10.30999,-0.66146 10.30999,-0.66146z" fill="#000000" stroke="none" stroke-width="1.5" stroke-linecap="butt"/><path d="M425.42745,188.48541c0.75645,0.16806 4.13356,1.2291 8.05104,2.22704c3.94868,1.00589 9.49932,1.63792 9.50385,1.8527c0.00574,0.27259 -13.12468,2.1014 -17.14745,3.17708c-3.37115,0.90143 -8.31549,2.05369 -8.31549,2.05369c0,0 -9.16427,-0.22982 -17.16929,-0.77613c-6.41575,-0.43782 -13.40835,-0.28665 -13.43805,-0.40279c-0.0401,-0.15661 4.75654,-1.56949 8.36656,-2.9465c1.35919,-0.82581 6.60424,-2.8198 6.60424,-2.8198c0,0 6.20384,-1.21235 9.69904,-0.59298c3.74507,0.66365 4.00252,2.59202 4.31902,2.57859c0,0 1.18987,-2.41288 2.62239,-3.06715c1.43255,-0.65425 6.33911,-1.40927 6.90418,-1.28375z" fill="#ffffff" stroke="#000000" stroke-width="1.4" stroke-linecap="butt"/><path d="M402.69383,197.47384c6.60141,0.40972 15.52314,1.46866 15.52314,1.46866c0,0 7.03354,-2.96992 10.33709,-3.78351c2.56117,-0.63076 14.02685,-2.84232 14.14753,-2.37974c0.11799,0.45228 -9.1495,17.84559 -24.51461,19.38153c-17.44701,1.84538 -31.47797,-15.11737 -31.45965,-15.3373c0.01831,-0.21997 9.36512,0.24066 15.96652,0.65037z" fill="#ffffff" stroke="#000000" stroke-width="1.9" stroke-linecap="butt"/><path d="M416.01787,191.78817c-1.30417,0.17981 -5.03069,-3.4978 -5.71016,-6.108c-0.60797,-2.3354 0.99326,-5.05804 4.11132,-5.48795c3.11808,-0.42992 5.3866,-0.11179 5.81267,4.58312c0.3616,3.98442 -1.09576,6.58291 -4.21382,7.01282z" fill="#ffffff" stroke="#000000" stroke-width="1.15" stroke-linecap="butt"/><path d="M415.3275,153.19635c0,0 0.81995,4.99029 1.24691,8.98972c0.84547,7.91957 3.46452,35.2101 3.46452,35.2101l-3.76009,0.52954c0,0 -1.73878,-5.12452 -3.06946,-11.78923c-1.80118,-9.02129 -3.4012,-20.47677 -4.37808,-24.63464c-0.92598,-3.94128 -2.12432,-7.05342 -2.12432,-7.05342" fill="#ffffff" stroke="#000000" stroke-width="1.3" stroke-linecap="round"/><path d="M379.94443,171.94589c0,0 -6.83395,-3.57908 -9.33768,-10.25036c-2.6344,-7.0195 -3.53636,-12.02441 -1.13234,-12.68901c2.40402,-0.66461 3.82374,2.52843 6.16238,9.89199c2.33864,7.36355 4.30765,13.04739 4.30765,13.04739z" fill="#ffffff" stroke="#000000" stroke-width="1" stroke-linecap="butt"/><path d="M379.00222,167.00102c0,0 -5.00456,-3.06812 -6.9176,-9.90989c-1.06718,-3.81656 2.32428,-3.25173 2.32428,-3.25173" fill="none" stroke="#000000" stroke-width="0.25" stroke-linecap="round"/><path d="M381.64605,158.07999c-0.76145,-6.18376 4.54949,-12.11508 11.34146,-12.95144c6.79197,-0.83635 12.12745,3.7894 12.88893,9.97316c0.76144,6.18376 -3.67237,11.81197 -10.46434,12.64833c-6.79199,0.83635 -13.00461,-3.48628 -13.76607,-9.67006z" fill="#ffffff" stroke="#000000" stroke-width="1.4" stroke-linecap="butt"/><path d="M387.26493,157.45684c-0.42937,-3.4869 2.04927,-6.66162 5.53613,-7.091c3.4869,-0.42936 6.66161,2.04927 7.09099,5.53613c0.42937,3.4869 -2.04925,6.66163 -5.53613,7.091c-3.4869,0.42936 -6.66161,-2.04925 -7.09098,-5.53613z" fill="#000000" stroke="none" stroke-width="1.5" stroke-linecap="butt"/><path d="M415.77949,153.37456c-0.5935,-6.20216 4.0764,-11.95007 10.7852,-12.87509c6.7088,-0.925 12.39033,3.39021 13.24135,9.56229c0.851,6.17209 -3.3244,12.11965 -10.64657,13.22031c-6.96471,1.04693 -12.76015,-3.43029 -13.38,-9.90753z" fill="#ffffff" stroke="#000000" stroke-width="1.4" stroke-linecap="butt"/><path d="M421.60104,152.68185c-0.49025,-3.55567 1.99474,-6.83552 5.55041,-7.32578c3.55566,-0.49027 6.83552,1.99475 7.32579,5.55041c0.49025,3.55567 -1.99473,6.83552 -5.55041,7.32578c-3.55566,0.49027 -6.83551,-1.99474 -7.32578,-5.55041z" fill="#000000" stroke="none" stroke-width="1.5" stroke-linecap="butt"/><path d="M381.46713,157.42049c0,0 -1.48795,-11.38425 11.83896,-12.97722c11.97717,-1.43821 13.69131,10.20573 13.69131,10.20573z" fill="#ffffff" stroke="#000000" stroke-width="1.15" stroke-linecap="butt"/><path d="M415.23313,152.9331c0,0 -1.95664,-11.88922 12.54373,-13.43217c12.31322,-1.26907 13.72286,10.51639 13.72286,10.51639z" fill="#ffffff" stroke="#000000" stroke-width="1.15" stroke-linecap="butt"/><path d="M383.80326,140.60498c0,0 3.93462,-2.88094 9.73656,-4.27582c6.4293,-1.54574 9.7886,-1.43487 9.7886,-1.43487l1.09196,5.16837c0,0 -4.95718,-0.1915 -10.20584,0.73726c-7.01943,1.24207 -8.13371,2.9636 -13.41926,4.28149c-4.52895,1.12926 -8.47185,1.3723 -8.47185,1.3723l-0.24689,-1.54919c0,0 4.54842,-0.53204 6.59078,-0.99662c1.68569,-0.38346 4.85244,-1.875 4.85244,-1.875z" fill="#000000" stroke="none" stroke-width="1.5" stroke-linecap="butt"/><path d="M446.51741,149.12543c0.25867,-7.7217 0.76134,-11.17977 3.25551,-11.19053c2.49417,-0.01077 2.98027,5.05149 2.34376,12.52196c-0.60494,7.09992 -6.21535,12.39483 -6.21535,12.39483c0,0 0.35741,-6.00459 0.61607,-13.72629z" fill="#ffffff" stroke="#000000" stroke-width="1" stroke-linecap="butt"/><path d="M446.33047,143.92277c0,0 3.11204,-1.46154 3.11751,2.50142c0.00983,7.10419 -3.97768,11.41215 -3.97768,11.41215" fill="none" stroke="#000000" stroke-width="0.25" stroke-linecap="round"/><g stroke-linecap="butt"><g stroke="#000000" stroke-width="1"><path d="M378.87257,171.73745l-2.25678,-16.36759l29.24545,-4.03239l3.87912,16.26746z" fill="url(#color-10)"/><path d="M405.86123,151.33747l3.63304,16.17786c0,0 -10.53283,1.80286 -15.6648,2.51047c-5.07461,0.69968 -14.95688,1.71165 -14.95688,1.71165l-2.25678,-16.3676z" fill="url(#color-11)"/></g><g stroke="#000000" stroke-width="1"><path d="M416.93225,166.36621l-0.66788,-16.71021l29.24541,-4.0324l-1.16712,16.96324z" fill="url(#color-12)"/><path d="M445.96854,145.56034l-1.49448,17.13193c0,0 -8.79946,1.83303 -13.33397,2.41726c-4.57485,0.5894 -13.9952,1.1038 -13.9952,1.1038c0,0 -1.65226,-12.64211 -1.95139,-14.93093c-0.08933,-0.68344 -0.17398,-1.33125 -0.17398,-1.33125z" fill="url(#color-13)"/></g><path d="M406.41052,154.47394l-0.5015,-3.63725l9.74847,-1.34412l0.50149,3.63725c0,0 -3.55052,-1.2401 -5.1656,-1.0174c-1.63421,0.22534 -4.58286,2.36154 -4.58286,2.36154z" fill="#000000" stroke="none" stroke-width="0"/></g><path d="M379.8469,160.1567l-0.30044,-2.17905l7.27448,-1.00302l0.30044,2.17908z" fill="url(#color-14)" stroke="none" stroke-width="0" stroke-linecap="butt"/><path d="M380.14382,162.31028l-0.30044,-2.17908l4.75135,-0.65511l0.30046,2.17908z" fill="url(#color-15)" stroke="none" stroke-width="0" stroke-linecap="butt"/></g><path d="M468.81687,187.35834l26.64589,6.00263l-4.75757,10.42226z" fill="url(#color-16)" fill-rule="nonzero" stroke="none" stroke-width="0" stroke-linecap="butt" stroke-linejoin="miter"/><path d="M471.78864,179.10492l22.68736,-7.09333l0.95942,9.9243z" fill="url(#color-17)" fill-rule="nonzero" stroke="none" stroke-width="0" stroke-linecap="butt" stroke-linejoin="miter"/><path d="M481.87934,211.74208l-8.12247,5.78252l-9.51921,-21.7811z" fill="url(#color-18)" fill-rule="nonzero" stroke="none" stroke-width="0" stroke-linecap="butt" stroke-linejoin="miter"/><g fill="#212108" fill-rule="nonzero" stroke="none" stroke-width="0" stroke-linecap="butt" stroke-linejoin="miter"><path d="M197.45451,260.01742v-32.89359h244.23616v32.89359z"/><path d="M208.04924,296.16493v-41.70438h223.60433v41.70438z"/><path d="M203.03067,322.59728v-32.89359h234.75667v32.89359z"/></g><text transform="translate(319.68549,253.50014) scale(0.71357,0.7015)" font-size="40" xml:space="preserve" fill="url(#color-19)" fill-rule="nonzero" stroke-opacity="0" stroke="#000000" stroke-width="0" stroke-linecap="butt" stroke-linejoin="miter" font-family="&quot;Allan-Regular&quot;, Sans Serif" font-weight="normal" text-anchor="middle"><tspan x="0" dy="0">DRAG ANY OF THE ICONS</tspan><tspan x="0" dy="46.150000000000006px">BELOW ONTO A BLANK</tspan><tspan x="0" dy="46.150000000000006px">TO BRING IN THE POLOS</tspan></text><path d="M323.41592,165.42381l-2.99897,-12.39164l25.65102,15.65446l-15.65446,25.65102l-2.99897,-12.39164l-45.25319,1.81569z" fill="url(#color-20)" fill-rule="nonzero" stroke="#212108" stroke-width="2" stroke-linecap="butt" stroke-linejoin="miter"/></g></g></svg>