<svg version="1.1" xmlns="http://www.w3.org/2000/svg" xmlns:xlink="http://www.w3.org/1999/xlink" width="180.66088" height="304.72758" viewBox="0,0,180.66088,304.72758"><g transform="translate(-234.59362,-30.18906)"><g stroke-miterlimit="10"><path d="M263.40898,324.61251v-293.22501h113.18203v293.22501z" fill-opacity="0.01" fill="#000000" stroke="none" stroke-width="0" stroke-linecap="butt"/><g stroke-linecap="butt"><path d="M354.75958,143.31211l19.16477,-4.94584l-3.50889,19.10632l-12.49292,-2.37873z" fill="#0d0d00" stroke="none" stroke-width="0"/><path d="M330.82881,149.75113c11.44309,-11.96211 23.99171,-9.82066 33.72833,-1.17563c9.73662,8.64503 12.97414,20.51994 1.53105,32.48203c-11.44307,11.96212 -33.23352,19.48165 -42.97013,10.83661c-9.73662,-8.64503 -3.73234,-30.18092 7.71074,-42.14306z" fill="#ecec68" stroke="#0d0d00" stroke-width="1.75"/><path d="M324.6507,158.24194l5.17741,-5.99882l34.68058,30.69625l-7.02468,4.45489z" fill-opacity="0.70196" fill="#0d0d00" stroke="none" stroke-width="0"/><path d="M372.92744,169.30992l-3.13167,7.40295l-34.92324,-30.71977l8.13101,-4.01382z" fill-opacity="0.70196" fill="#0d0d00" stroke="none" stroke-width="0"/><path d="M318.84294,173.25749l2.54762,-8.36952l28.82992,27.56573l-7.70704,1.82055z" fill-opacity="0.70196" fill="#0d0d00" stroke="none" stroke-width="0"/></g><path d="M370.77472,120.48994c2.7471,3.73615 5.74265,5.30382 5.74265,5.30382c0,0 -12.861,13.55514 -37.46973,6.31393c-17.42381,-5.12702 -12.04064,-6.06949 -23.479,-32.6795c-6.99769,-16.27931 -8.61653,-37.14853 6.07788,-50.47786c11.2013,-10.16072 46.63622,-5.60437 47.72455,21.43278c0.72302,17.96193 13.6651,29.42828 13.6651,29.42828c0,0 -2.23646,1.74678 -6.66452,0.81355c-2.09993,-0.44257 -4.4326,-1.84291 -4.4326,-1.84291c0,0 1.07322,3.81592 3.55672,7.16338c1.85084,2.49473 5.48687,5.66585 5.48687,5.66585c0,0 -2.9852,2.40019 -7.1907,2.66688c-4.11864,0.26118 -6.13628,-0.3412 -6.13628,-0.3412c0,0 0.37195,2.81683 3.11907,6.55299z" fill="#ecec68" stroke="#0d0d00" stroke-width="1.75" stroke-linecap="butt"/><path d="M330.0881,65.55784c-5.92041,-1.81761 -18.47329,-6.47618 -17.21492,-10.15339c1.25836,-3.67719 13.80436,-3.54325 21.09654,0.07436c9.153,4.54072 18.00774,18.68928 12.69529,21.70962c-5.20732,2.96055 -10.65651,-9.81301 -16.57692,-11.6306z" fill="#6e6e30" stroke="#0d0d00" stroke-width="1.35" stroke-linecap="butt"/><path d="M294.32175,142.76359c-0.38193,0.03665 -28.94442,7.23129 -43.38381,-1.94473c-12.47378,-7.92694 1.71711,-15.07072 1.71711,-15.07072c0,0 -23.37708,-17.81167 -15.80009,-27.00319c9.95095,-12.0713 31.40896,4.27342 49.53629,16.97767c10.84836,7.6029 29.40955,20.50069 29.40955,20.50069c0,0 -14.4984,5.87043 -21.47902,6.54028z" fill-opacity="0.4" fill="#f2d849" stroke="#0d0d00" stroke-width="1.5" stroke-linecap="butt"/><path d="M355.52633,142.76358c-6.98062,-0.66985 -21.47901,-6.54028 -21.47901,-6.54028c0,0 18.56118,-12.89779 29.40955,-20.50069c18.12734,-12.70424 39.58534,-29.04897 49.53628,-16.97767c7.57701,9.19153 -15.80009,27.0032 -15.80009,27.0032c0,0 14.19088,7.14377 1.7171,15.07072c-14.43938,9.17603 -43.00187,1.98139 -43.3838,1.94473z" fill-opacity="0.4" fill="#f2d849" stroke="#0d0d00" stroke-width="1.5" stroke-linecap="butt"/><g stroke-linecap="butt"><path d="M342.67239,204.34886c0,0 -2.49699,-15.56145 -5.13344,-32.87687c-3.56248,-23.39725 -18.74639,-57.86355 8.5355,-49.59318c7.15468,2.1689 12.43393,13.63891 14.01805,24.63787c1.57468,10.93336 0.25835,21.68944 0.25835,21.68944c0,0 1.1896,11.23796 1.40878,17.03026c0.22715,6.00349 -0.85179,18.09283 -0.85179,18.09283z" fill="#ecec68" stroke="#0d0d00" stroke-width="1.75"/><path d="M352.21395,201.29124c4.73092,-1.48933 10.56962,1.6019 13.79852,6.08153c3.518,4.88071 2.74413,13.04455 0.71212,15.57434c-2.79112,3.47481 -10.26244,0.5623 -10.26244,0.5623c0,0 -9.40233,-20.59561 -4.24821,-22.21817z" fill="#ecec68" stroke="#0d0d00" stroke-width="1.75"/><path d="M363.82804,211.70086c0.0383,0.14224 2.95863,15.12953 -3.55253,15.92722c-8.68988,1.0646 -10.39416,-6.22852 -10.39416,-6.22852c0,0 0.34422,-16.85493 6.53724,-18.04685c5.68452,-1.09406 7.40946,8.34815 7.40946,8.34815z" fill="#ecec68" stroke="#0d0d00" stroke-width="1.75"/><path d="M353.36481,201.43734c5.01348,-0.29032 4.6563,9.11499 4.6563,9.11499c0.00501,0.14335 0.3375,13.5093 -5.19478,15.85381c-7.697,3.26185 -8.4537,-8.32854 -8.4537,-8.32854c0,0 3.53021,-16.32398 8.99217,-16.64028z" fill="#ecec68" stroke="#0d0d00" stroke-width="1.75"/><path d="M355.36653,201.96612c1.93184,1.06358 -6.8321,5.40624 -8.67753,9.81243c-2.24595,4.25304 2.0513,8.72924 2.0513,8.72924c0,0 -14.24333,1.92079 -9.61346,-12.82183c2.20548,-7.02273 12.99377,-7.50693 16.23967,-5.71987z" fill="#ecec68" stroke="#0d0d00" stroke-width="1.75"/><path d="M343.69096,207.20739l-0.98445,-11.8899l17.3154,-1.84468l0.38477,14.76258z" fill="#ecec68" stroke="none" stroke-width="0"/><path d="M366.60166,217.43008c0,0 -2.41398,-1.30904 -5.7691,-0.92731c-2.67063,0.30385 -5.96872,1.54195 -7.77314,1.3864c-4.37068,-0.37679 -11.71487,-4.23449 -11.71487,-4.23449l5.2042,-12.52087c0,0 6.78968,-2.70802 15.36856,3.5173c4.15655,3.01621 4.68435,12.77895 4.68435,12.77895z" fill="#ecec68" stroke="none" stroke-width="0"/><path d="M346.93985,154.9418c-7.82305,0.81982 -13.62319,-1.33971 -13.62319,-1.33971l-1.91441,-8.78172l27.46167,-1.47649l1.15569,7.63789c0,0 -2.0275,2.80179 -13.07975,3.96002z" fill-opacity="0.70196" fill="#0d0d00" stroke="none" stroke-width="0"/><path d="M349.21328,174.56322c-8.69154,0.4438 -11.65638,-1.24802 -11.65638,-1.24802l-1.73579,-8.79132c0,0 4.05855,2.52165 12.06847,2.11523c8.88091,-0.4506 12.07316,-3.43938 12.07316,-3.43938l0.83823,8.07599c0,0 -1.998,2.79782 -11.58768,3.28749z" fill-opacity="0.70196" fill="#0d0d00" stroke="none" stroke-width="0"/><path d="M352.10151,197.39541c-7.9606,0.40451 -10.64946,-0.70985 -10.64946,-0.70985l-1.63533,-8.79672c0,0 3.69514,1.94889 11.03144,1.57869c8.13405,-0.41045 10.84857,-2.75508 10.84857,-2.75508l0.58253,8.06357c0,0 -1.39454,2.17309 -10.17775,2.61938z" fill-opacity="0.70196" fill="#0d0d00" stroke="none" stroke-width="0"/><path d="M346.29287,151.10424c-8.279,1.07258 -13.14795,-0.07768 -13.33293,-0.8846c-2.66273,-11.61511 -7.3345,-21.92876 -3.2691,-26.64437c2.3046,-2.67321 9.29982,-3.84387 16.38357,-1.69646c5.89884,1.78821 13.37318,12.70719 13.97591,24.71803c0.01055,0.20999 -1.85024,2.96477 -13.75746,4.50741z" fill="#9b9b44" stroke="#0d0d00" stroke-width="1.75"/></g><g stroke-linecap="butt"><path d="M281.67382,203.05728c0,0 -1.33619,-12.06357 -1.23692,-18.07056c0.09575,-5.79569 1.04575,-17.05654 1.04575,-17.05654c0,0 -1.5451,-10.72556 -0.20363,-21.69012c1.34951,-11.03033 6.38325,-22.61057 13.4901,-24.93187c27.09943,-8.85142 12.6531,25.93158 9.58974,49.3997c-2.26707,17.36786 -4.43206,32.97919 -4.43206,32.97919z" fill="#ecec68" stroke="#0d0d00" stroke-width="1.75"/><path d="M290.32232,200.83401c5.18749,1.51205 -3.77403,22.30396 -3.77403,22.30396c0,0 -7.40757,3.07149 -10.27205,-0.34292c-2.08542,-2.48579 -3.03298,-10.63127 0.38027,-15.58605c3.13275,-4.54761 8.90426,-7.7629 13.66581,-6.37499z" fill="#ecec68" stroke="#0d0d00" stroke-width="1.75"/><path d="M286.16252,202.98485c6.21697,1.05932 6.92008,17.90314 6.92008,17.90314c0,0 -1.54857,7.3279 -10.25911,6.44921c-6.52664,-0.65838 -3.92618,-15.70471 -3.89092,-15.84775c0,0 1.52344,-9.47695 7.22994,-8.5046z" fill="#ecec68" stroke="#0d0d00" stroke-width="1.75"/><path d="M289.1748,201.00464c5.46744,0.19951 9.34449,16.44442 9.34449,16.44442c0,0 -0.50967,11.60396 -8.27438,8.5073c-5.58094,-2.22577 -5.53319,-15.59585 -5.53123,-15.73927c0,0 -0.5574,-9.39557 4.4611,-9.21244z" fill="#ecec68" stroke="#0d0d00" stroke-width="1.75"/><path d="M287.18481,201.57609c3.20708,-1.85602 14.0032,-1.60242 16.35773,5.37161c4.9428,14.6404 -9.33817,13.02436 -9.33817,13.02436c0,0 4.20092,-4.56701 1.86492,-8.77112c-1.93884,-4.36579 -10.79324,-8.52023 -8.88451,-9.62485z" fill="#ecec68" stroke="#0d0d00" stroke-width="1.75"/><path d="M282.27934,207.95163l0.07028,-14.76749l17.35069,1.4743l-0.731,11.90828z" fill="#ecec68" stroke="none" stroke-width="0"/><path d="M276.28163,217.27665c0,0 0.31976,-9.77183 4.4111,-12.87617c8.44431,-6.40721 15.2901,-3.84488 15.2901,-3.84488l5.46966,12.40687c0,0 -7.26035,4.01376 -11.62198,4.48383c-1.80068,0.19407 -5.12437,-0.97329 -7.80087,-1.22c-3.36248,-0.30996 -5.74803,1.05036 -5.74803,1.05036z" fill="#ecec68" stroke="none" stroke-width="0"/><path d="M281.44696,150.70258l0.99276,-7.66087l27.48674,0.88941l-1.72693,8.82063c0,0 -5.75281,2.28298 -13.59151,1.63049c-11.07438,-0.92182 -13.16107,-3.67969 -13.16107,-3.67969z" fill-opacity="0.70196" fill="#0d0d00" stroke="none" stroke-width="0"/><path d="M281.09801,171.0087l0.66603,-8.09208c0,0 3.25518,2.91991 12.14362,3.18066c8.01671,0.23517 12.02064,-2.37262 12.02064,-2.37262l-1.54815,8.82645c0,0 -2.92814,1.7548 -11.62711,1.4968c-9.59789,-0.28466 -11.65502,-3.03917 -11.65502,-3.03917z" fill-opacity="0.70196" fill="#0d0d00" stroke="none" stroke-width="0"/><path d="M280.12054,194.53531l0.41064,-8.07422c0,0 2.76383,2.28611 10.90475,2.52267c7.34249,0.21336 10.99526,-1.81403 10.99526,-1.81403l-1.4476,8.8297c0,0 -2.66451,1.17156 -10.63188,0.93723c-8.79067,-0.25854 -10.2312,-2.40134 -10.2312,-2.40134z" fill-opacity="0.70196" fill="#0d0d00" stroke="none" stroke-width="0"/><path d="M281.32286,146.31921c0.34679,-12.02102 7.58685,-23.09725 13.44624,-25.01109c6.0115,-1.96352 12.58228,-1.92468 15.08269,-0.1936c5.58909,3.86939 1.24649,15.61494 -1.36764,28.24789c-0.16777,0.81068 -5.01107,2.06473 -13.31102,1.16926c-11.93734,-1.28788 -13.85634,-4.00228 -13.85029,-4.21245z" fill="#9b9b44" stroke="#0d0d00" stroke-width="1.75"/></g><g><g stroke="#0d0d00" stroke-linecap="butt"><path d="M343.70296,170.94252c1.60637,0.60424 8.47765,8.92585 8.47765,8.92585c0,0 11.9734,5.23264 12.70735,28.03724c0.60565,18.81831 -6.17191,33.81508 -6.17191,33.81508c0,0 -1.57835,18.38906 -4.60092,32.50079c-3.02256,14.11172 -10.0027,36.19168 -10.0027,36.19168l-24.07548,-0.707l0.08175,-130.70659c0,0 15.26564,-11.1861 23.58427,-8.05705z" fill="#494920" stroke-width="1.75"/><path d="M319.73668,305.7138v-3.27432c0,0 28.11119,-0.59135 28.6247,0c0.96118,1.10688 -0.83458,3.38608 -3.2513,4.13375z" fill="#080d00" stroke-width="1.5"/></g><g stroke="#0d0d00" stroke-linecap="butt"><path d="M297.0218,170.69617c8.31863,-3.12906 23.58427,8.05705 23.58427,8.05705l0.08175,130.70659l-24.07548,0.707c0,0 -6.98014,-22.07995 -10.0027,-36.19168c-3.02257,-14.11173 -4.60092,-32.50079 -4.60092,-32.50079c0,0 -6.77756,-14.99677 -6.17191,-33.81509c0.73395,-22.8046 12.70735,-28.03724 12.70735,-28.03724c0,0 6.87128,-8.32162 8.47765,-8.92585z" fill="#494920" stroke-width="1.75"/><path d="M320.44203,307.9593l0.15999,14.44893c0,0 -2.17971,3.28958 -9.78899,6.53759c-13.46959,5.74947 -25.38327,5.52517 -31.50783,4.18598c-3.19544,-0.81802 -6.40219,-6.55922 -2.79909,-11.06321c3.25497,-4.06885 10.84226,-4.77646 15.39215,-7.90536c3.95783,-2.72176 5.85999,-5.86001 5.85999,-5.86001z" fill="#ffffd5" stroke-width="1.5"/><path d="M297.75823,304.40684l23.06735,0.18l-0.22357,13.92503c0,0 -19.74008,15.43713 -41.29683,10.72357c-3.19543,-0.81803 -5.68745,-4.2672 -2.08436,-8.77119c3.25497,-4.06885 10.12753,-7.06848 14.67742,-10.19738c3.95783,-2.72176 5.85999,-5.86002 5.85999,-5.86002z" fill="#0d0d00" stroke-width="1.5"/><path d="M292.87477,302.19313c0.51351,-0.59135 28.11329,0 28.11329,0v3.27432c0,0 -23.97766,1.3097 -25.37341,0.87788c0,0 -5.49101,-2.30626 -2.73987,-4.1522z" fill="#080d00" stroke-width="1.5"/></g><path d="M342.79607,308.54961c0,0 1.90216,3.13825 5.85999,5.86001c4.54989,3.1289 12.13718,3.83653 15.39215,7.90536c3.60309,4.50399 0.39635,10.24518 -2.79909,11.06321c-6.12456,1.33919 -18.03826,1.56348 -31.50784,-4.18598c-7.60928,-3.248 -9.78898,-6.53758 -9.78898,-6.53758l0.15999,-14.44893z" fill="#ffffd5" stroke="#0d0d00" stroke-width="1.5" stroke-linecap="butt"/><path d="M342.79607,304.65319c0,0 1.90216,3.13826 5.85999,5.86002c4.54989,3.12891 11.42245,6.12854 14.67742,10.19738c3.60309,4.50398 1.11108,7.95316 -2.08436,8.77119c-21.55674,4.71357 -41.29683,-10.72357 -41.29683,-10.72357l-0.22357,-13.92503l23.06735,-0.18z" fill="#0d0d00" stroke="#0d0d00" stroke-width="1.5" stroke-linecap="butt"/><path d="M303.3023,205.20583l-1.02284,-19.87783h36.78243l-0.81827,20.33341c0,0 -11.38283,1.59455 -17.42695,1.59455c-6.21208,0 -17.51437,-2.05013 -17.51437,-2.05013z" fill="#494920" stroke="none" stroke-width="0" stroke-linecap="butt"/><path d="M337.90078,205.00436c0,0 -8.02916,2.19 -17.77414,2.26746c-8.54184,0.06789 -16.40945,-2.26746 -16.40945,-2.26746" fill="none" stroke="#0d0d00" stroke-width="1.5" stroke-linecap="round"/></g><path d="M320.6631,135.26664c0.07145,-0.15998 0.10944,-0.24329 0.10944,-0.24329v0.00001h19.17965c0,0 1.40743,4.69813 3.93799,11.15803c2.63818,6.73468 6.82628,14.53956 8.83507,21.77675c1.63194,5.87944 -0.60026,9.38425 -0.60026,9.38425c0,0 -6.13836,9.77842 -30.93492,10.14818c-0.17316,0.00499 -0.34895,0.00707 -0.52743,0.0062c-0.17794,0.00086 -0.35324,-0.00122 -0.5259,-0.00619c-24.79709,-0.3696 -30.93554,-10.14818 -30.93554,-10.14818c0,0 -2.08608,-3.36404 -0.45414,-9.24348c2.0088,-7.23719 6.05077,-15.18284 8.68895,-21.91752c2.53056,-6.45991 3.93799,-11.15803 3.93799,-11.15803h19.17965v-0.00001c0,0 0.03799,0.08331 0.10943,0.24329z" fill="#9b9b44" stroke="#0d0d00" stroke-width="1.75" stroke-linecap="butt"/><path d="M288.60519,176.00657c0.80994,0.39523 6.14386,5.641 28.50438,5.80573c0.81769,-0.0252 3.15855,-0.00994 3.42537,-0.007c0.26671,-0.00296 2.60719,-0.0182 3.42481,0.007c22.36068,-0.1647 27.69464,-5.41049 28.50458,-5.80573c1.48503,-0.72466 4.89383,7.18529 4.89383,7.18529c0,0 -12.32652,8.74652 -36.17317,8.37325c-0.21725,-0.0034 -0.43404,0.17168 -0.65019,0.16179c-0.21618,0.00988 -0.57911,-0.16519 -0.7964,-0.16179c-23.84666,0.37326 -33.80642,-11.19885 -33.80642,-11.19885c0,0 1.1882,-5.08436 2.67321,-4.3597z" fill="#0d0d00" stroke="none" stroke-width="0" stroke-linecap="butt"/><path d="M312.88629,191.1108c-1.10163,-2.1581 -1.12733,-8.25851 -0.34205,-10.08196c0.81077,-1.88259 14.11191,-1.86131 15.59576,-0.55599c1.42837,1.25652 1.08014,9.69035 -0.17101,11.00864c-1.16024,1.22249 -14.27407,0.94205 -15.08275,-0.37067z" fill="#ffffd5" stroke="#0d0d00" stroke-width="1.5" stroke-linecap="butt"/><path d="M296.14297,128.60117c0.3328,-1.20564 16.9465,-12.93253 23.98842,-8.05268c9.77079,6.77089 10.14161,31.20797 3.69808,32.24957c-26.02592,6.75002 -31.39247,3.67122 -34.3633,-0.35105c-3.36785,-4.5598 -1.63168,-9.31712 0.69026,-12.62542c2.32194,-3.30831 4.11729,-4.44869 5.98653,-11.22041z" fill="#9b9b44" stroke="#0d0d00" stroke-width="1.5" stroke-linecap="butt"/><path d="M351.66085,152.44696c-2.97083,4.02227 -8.33737,7.10108 -34.3633,0.35105c-6.44353,-1.0416 -6.07271,-25.47868 3.69807,-32.24957c7.04192,-4.87987 23.65561,6.84705 23.98841,8.05268c1.86922,6.77171 2.77768,6.64838 5.98655,11.22041c2.32194,3.3083 4.05811,8.06562 0.69025,12.62542z" fill="#9b9b44" stroke="#0d0d00" stroke-width="1.5" stroke-linecap="butt"/><path d="M312.79366,168.18389l2.71042,-24.15889c0,0 1.96082,-22.32652 9.43376,-20.80998c4.87097,0.98851 16.67661,29.024 16.67661,29.024c0,0 -10.18148,1.17144 -8.84275,3.9791c0.7089,1.48673 4.24446,1.02615 5.57968,3.33436c1.79602,3.10482 2.72099,6.69869 2.72099,6.69869z" fill="#9b9b44" stroke="none" stroke-width="0" stroke-linecap="butt"/><path d="M300.05467,166.25119c0,0 0.92497,-3.59388 2.72099,-6.69869c1.33522,-2.30822 4.8708,-1.84764 5.57968,-3.33436c1.33873,-2.80766 -8.84275,-3.9791 -8.84275,-3.9791c0,0 11.80565,-28.03551 16.67661,-29.02401c7.47294,-1.51654 9.43377,20.80999 9.43377,20.80999l2.71041,24.15889z" fill="#9b9b44" stroke="none" stroke-width="0" stroke-linecap="butt"/><path d="M290.99845,132.18898c0,0 -2.20538,-9.61304 28.63941,-9.90515c35.57991,-0.33693 32.21934,10.14673 32.21934,10.14673c0,0 -15.82333,-1.46598 -28.89569,-1.56119c-26.06438,-0.18986 -31.96306,1.3196 -31.96306,1.3196z" fill="#9b9b44" stroke="none" stroke-width="0" stroke-linecap="butt"/><path d="M320.02506,147.84669v-24.08654" fill="none" stroke="#0d0d00" stroke-width="1" stroke-linecap="round"/><path d="M326.53291,134.21487c0,1.19282 -0.62176,1.48906 -1.57979,1.48906c-0.95803,0 -1.88955,-0.29623 -1.88955,-1.48906c0,-1.19282 0.77664,-1.75736 1.73467,-1.75736c0.95803,0 1.73467,0.56452 1.73467,1.75736z" fill="#ffffd5" stroke="#0d0d00" stroke-width="1" stroke-linecap="butt"/><path d="M325.00474,139.5406c0.95802,0 1.88955,0.43038 1.88955,1.62321c0,1.19282 -0.77664,1.48906 -1.73467,1.48906c-0.95803,0 -1.73467,-0.29623 -1.73467,-1.48906c0,-1.19282 0.62175,-1.62321 1.57978,-1.62321z" fill="#ffffd5" stroke="#0d0d00" stroke-width="1" stroke-linecap="butt"/><path d="M316.67023,121.02484l8.25129,-2.05085c0,0 11.84876,-0.7175 15.47193,6.83549c2.62146,5.46476 -3.95555,11.87653 -3.95555,11.87653z" fill="#c1c155" stroke="#0d0d00" stroke-width="1.5" stroke-linecap="butt"/><path d="M303.64153,137.68605c0,0 -5.80988,-6.88129 -3.18843,-12.34605c3.62317,-7.55299 14.7048,-6.36597 14.7048,-6.36597l7.5074,2.56305z" fill="#c1c155" stroke="#0d0d00" stroke-width="1.5" stroke-linecap="butt"/><path d="M314.60089,98.13992h12.26388l1.32582,21.13958c0,0 -3.11048,4.84369 -7.62349,4.72607c-4.53116,-0.11808 -7.29203,-4.72607 -7.29203,-4.72607z" fill="#ecec68" stroke="#0d0d00" stroke-width="1.5" stroke-linecap="butt"/><path d="M342.16601,106.48005c-3.95076,-1.97543 -4.062,-6.48773 -0.98846,-9.08718c3.07352,-2.59943 3.27845,-7.51378 7.13478,-4.56194c9.59969,7.34809 4.38186,20.30844 4.38186,20.30844c0,0 -5.88014,-4.33527 -10.52818,-6.65932z" fill="#ecec68" stroke="#0d0d00" stroke-width="1.75" stroke-linecap="butt"/><path d="M348.75901,104.47038c1.73872,8.98132 -6.72624,14.90928 -6.72624,14.90928c0,0 -5.62536,-7.09759 -7.70028,-9.13686c-3.89503,-3.8281 -2.04228,-9.31727 2.80917,-11.33357c4.85146,-2.01632 10.24078,-0.13961 11.61735,5.56115z" fill="#ecec68" stroke="#0d0d00" stroke-width="1.75" stroke-linecap="butt"/><path d="M291.65359,93.74319c3.41916,-2.79142 3.75215,1.67236 6.62502,3.95137c2.87285,2.27901 2.90634,6.38591 -0.62783,8.29193c-4.15791,2.24238 -9.3764,6.34807 -9.3764,6.34807c0,0 -5.13218,-11.64262 3.37922,-18.59136z" fill="#ecec68" stroke="#0d0d00" stroke-width="1.75" stroke-linecap="butt"/><path d="M298.15686,117.71467c0,0 -8.24973,-5.22652 -6.56222,-13.3733c1.08184,-5.22283 5.92733,-7.07891 10.39976,-5.37947c4.47242,1.69943 6.32124,6.64037 2.89304,10.22978c-4.03323,4.22292 -6.73057,8.52299 -6.73057,8.52299z" fill="#ecec68" stroke="#0d0d00" stroke-width="1.75" stroke-linecap="butt"/><path d="M299.48616,36.26809c0,0 -23.68174,12.81276 -26.17772,6.09823c-1.56612,-4.21302 7.00239,-6.05366 14.52269,-8.16627c7.61719,-2.13981 14.20558,-4.51532 15.4709,-3.0597c1.5843,1.8226 0.48422,6.2731 3.2522,16.64139c1.57313,5.89267 5.46934,13.64031 5.46934,13.64031l-5.873,1.87519c0,0 -3.02911,-8.05866 -4.32162,-14.06348c-2.0329,-9.44461 -2.34279,-12.96568 -2.34279,-12.96568z" fill="#0d0d00" stroke="none" stroke-width="NaN" stroke-linecap="butt"/><path d="M337.16683,35.69449c0,0 -0.19425,3.52872 -1.91645,13.03051c-1.09495,6.04119 -3.85829,14.188 -3.85829,14.188l-5.93157,-1.69551c0,0 3.64019,-7.86237 5.0193,-13.79997c2.42661,-10.44734 1.18114,-14.86214 2.70487,-16.73206c1.21696,-1.49342 7.87994,0.68039 15.56352,2.5873c7.58581,1.88265 16.21041,3.46158 14.78323,7.72019c-2.27456,6.78714 -26.36463,-5.29844 -26.36463,-5.29844z" fill="#0d0d00" stroke="none" stroke-width="NaN" stroke-linecap="butt"/><path d="M333.16382,115.40808c-5.47963,2.47666 -11.31875,3.38041 -12.87289,3.44623c-1.66366,0.07047 -7.81342,-0.73806 -13.37162,-3.04675c-5.86739,-2.43711 -10.81756,-5.18342 -13.62556,-11.51773c-2.21933,-5.00645 -2.07181,-10.61512 -1.76929,-16.41603c0.30234,-5.79718 0.9449,-11.78899 4.5685,-18.27809c6.96517,-12.4731 21.8967,-12.77864 23.04598,-12.80728c1.14926,-0.02864 15.95941,-0.15411 23.33046,12.10135c3.83458,6.37558 4.6733,12.34481 5.16559,18.12991c0.49261,5.7888 0.82398,11.39021 -1.23009,16.46169c-2.59889,6.41664 -7.45654,9.31222 -13.24108,11.92669z" fill="#ecec68" stroke="#0d0d00" stroke-width="1.75" stroke-linecap="butt"/><path d="M298.98156,114.95095c0,0 -2.08876,-3.01153 -4.94735,-5.72173c-0.9509,-0.90155 -1.66905,-2.99071 -2.64905,-3.70796c-0.71271,-0.52164 -1.79254,0.28309 -2.08563,-0.13284c-1.15852,-1.64398 -0.40783,-5.15247 -0.40783,-5.15247c0,0 -0.35334,-1.56407 0.54736,-2.83665c0.50392,-0.71199 1.4358,-2.10799 2.62378,-3.22341c0.96527,-0.90629 2.27161,-1.62997 2.27161,-1.62997l8.88014,16.69284z" fill="#ecec68" stroke="none" stroke-width="0" stroke-linecap="butt"/><path d="M336.17173,110.2386l9.15273,-18.63313c0,0 1.461,0.75122 2.55394,1.71444c1.34513,1.18549 2.41902,2.68774 2.99822,3.45296c1.03521,1.36773 0.70348,3.09758 0.70348,3.09758c0,0 0.951,3.82875 -0.2623,5.67334c-0.30697,0.46668 -1.52208,-0.38116 -2.28615,0.21568c-1.05059,0.82064 -1.76417,3.13948 -2.77619,4.16158c-3.0423,3.07261 -5.40844,6.45321 -5.40844,6.45321z" fill="#ecec68" stroke="none" stroke-width="0" stroke-linecap="butt"/><path d="M308.96097,84.35346c1.25607,0.02106 5.2897,1.00265 6.61938,1.07261c0.70116,0.03689 8.36031,-1.29079 9.04128,-1.24214c9.61532,0.68693 12.13432,4.65834 12.03644,6.38507c-0.0846,1.49241 -2.35381,3.67037 -10.11238,3.69563c-1.85402,0.00603 -8.51909,-0.78626 -10.56386,-0.89385c-2.96255,-0.15587 -5.53056,1.64765 -8.02404,1.30678c-6.42946,-0.87891 -9.76698,-4.79628 -9.69145,-6.1286c0.09168,-1.61712 1.93594,-4.3424 10.69461,-4.19551z" fill="#c4c44a" stroke="none" stroke-width="0" stroke-linecap="butt"/><path d="M343.8859,93.09404c0.73187,2.38561 -1.82942,4.53943 -6.20407,5.7851c-4.37465,1.24568 -8.90611,1.11152 -9.63797,-1.27412c-0.73189,-2.38561 2.22117,-5.32933 6.59584,-6.57502c4.37463,-1.24568 8.5143,-0.32158 9.24617,2.06404z" fill="#a5a549" stroke="none" stroke-width="0" stroke-linecap="butt"/><path d="M333.65533,70.98704c5.11941,0.52677 6.56162,8.62474 6.56162,8.62474c0,0 -2.68325,-4.52469 -7.05715,-5.17842c-4.08683,-0.61081 -8.0194,2.68504 -8.0194,2.68504c0,0 2.88879,-6.71028 8.51495,-6.13135z" fill="#0d0d00" stroke="none" stroke-width="0" stroke-linecap="butt"/><path d="M320.56783,92.37839c-0.66732,-6.82739 3.73918,-12.72429 9.93299,-12.81858c6.19383,-0.09428 12.47274,7.27331 11.12727,13.82225c0,0 -5.03597,2.09676 -10.38915,2.29495c-5.10316,0.18893 -10.53193,-1.47335 -10.67111,-3.29862z" fill="#0d0d00" stroke="#0d0d00" stroke-width="1" stroke-linecap="butt"/><g fill="#0d0d00" stroke="none" stroke-width="0" stroke-linecap="butt"><path d="M342.87261,80.61729l-1.94565,6.48094l-3.87999,-4.61357z"/><path d="M344.62647,85.96062l-2.93928,6.74491l-1.55717,-6.08638z"/><path d="M343.86418,83.35319l-1.715,5.36566l-2.24832,-4.62698z"/></g><path d="M298.27152,91.76257c3.81549,0.96129 6.45068,3.42727 5.8859,5.50796c-0.56478,2.0807 -4.47663,2.31587 -8.29211,1.35459c-3.81549,-0.96128 -4.42988,-2.90348 -3.8651,-4.98415c0,0 2.45584,-2.83966 6.27131,-1.87838z" fill="#a5a549" stroke="none" stroke-width="0" stroke-linecap="butt"/><path d="M302.03171,81.10195c6.19379,-0.09428 10.66161,5.54434 10.21851,12.38863c-0.0415,0.95743 -5.33467,3.24094 -10.46688,3.23505c-5.18711,-0.00596 -10.21417,-2.31244 -10.32455,-3.44218c-0.02978,-0.30488 -0.05978,-6.16854 0.07971,-6.70954c0.88881,-3.44724 5.13957,-5.39046 10.49319,-5.47195z" fill="#0d0d00" stroke="#080d00" stroke-width="1" stroke-linecap="butt"/><g fill="#0d0d00" stroke="none" stroke-width="0" stroke-linecap="butt"><path d="M295.71904,83.3765l-3.74997,4.7123l-2.12562,-6.42825z"/><path d="M292.7523,87.58928l-1.38691,6.12447l-3.12626,-6.66642z"/><path d="M292.91098,85.057l-2.11852,4.68349l-1.86398,-5.31934z"/></g><g stroke="none" stroke-width="0" stroke-linecap="butt"><path d="M330.89991,82.58043c0.61932,-0.00943 1.20941,0.16352 1.75086,0.46388c0.02769,1.68838 0.05538,3.37679 0.08306,5.06517c-0.94231,0.01435 -1.88461,0.02869 -2.82691,0.04303c-0.02926,-1.78457 -0.05854,-3.56915 -0.0878,-5.35372c0.33737,-0.13517 0.69824,-0.21253 1.08078,-0.21836z" fill="#6e6e30"/><path d="M326.31398,88.2072c0.06081,-1.79185 1.01949,-4.13834 2.63091,-5.13752c0.02786,1.69871 0.05571,3.39746 0.08358,5.09619c-0.26353,0.00401 -0.52705,0.00802 -0.79057,0.01203c-0.6413,0.00977 -1.28258,0.01952 -1.92389,0.02929z" fill="#6e6e30"/><path d="M333.43655,88.09878c-0.02574,-1.57003 -0.0515,-3.14005 -0.07724,-4.71007c1.45574,1.09382 2.45485,3.08712 2.53578,4.67266c-0.81951,0.01248 -1.63903,0.02495 -2.45854,0.03743z" fill="#6e6e30"/><path d="M331.46564,93.18801c-0.49063,0.00747 -0.96207,-0.06287 -1.40499,-0.19715c-0.05078,-0.66993 -0.09637,-1.3422 -0.10746,-2.01853c-0.01146,-0.69878 -0.02292,-1.39755 -0.03438,-2.09633c0.94231,-0.01435 1.88461,-0.02869 2.82691,-0.04303c0.00984,0.60013 0.01968,1.20027 0.02953,1.80038c0.01247,0.76004 0.05941,1.52597 0.09955,2.28739c-0.42923,0.16463 -0.90045,0.25948 -1.40913,0.26722h-0.00001z" fill="#6e6e30"/><path d="M328.42548,88.89868c0.26353,-0.00401 0.52705,-0.00802 0.79057,-0.01203c0.01146,0.69877 0.02292,1.39756 0.03438,2.09634c0.00993,0.60528 0.04752,1.20774 0.09174,1.80823c-1.58122,-0.7034 -2.69644,-2.24184 -2.83734,-3.86329c0.65789,-0.01001 1.30513,-0.01987 1.92065,-0.02924z" fill="#6e6e30"/><path d="M335.893,88.78505c-0.10201,1.57163 -0.9454,3.12205 -2.33291,3.8947c-0.03539,-0.68461 -0.10185,-3.25742 -0.1117,-3.85752c0.81487,-0.01241 1.62974,-0.0248 2.44461,-0.03721z" fill="#6e6e30"/><path d="M333.23459,85.90359c0.01856,-0.39024 0.94712,-0.82655 1.5972,-0.83406c0.65008,-0.00753 1.42882,0.40908 1.41027,0.79935c-0.01857,0.39027 -0.87641,0.97087 -1.62913,0.93129c-0.75275,-0.03957 -1.39691,-0.50631 -1.37834,-0.89655z" fill="#ffffff"/></g><g stroke="none" stroke-width="0" stroke-linecap="butt"><path d="M305.2975,83.23343c0.38254,-0.00582 0.74575,0.06053 1.08739,0.18536c0.02926,1.78457 0.05854,3.56915 0.0878,5.35372c-0.94231,0.01435 -1.88461,0.02869 -2.82691,0.04303c-0.02769,-1.68838 -0.05538,-3.37679 -0.08306,-5.06517c0.53132,-0.3167 1.11545,-0.50751 1.73477,-0.51694z" fill="#6e6e30"/><path d="M310.06557,88.71783c-0.64131,0.00977 -1.2826,0.01952 -1.9239,0.02929c-0.26353,0.00401 -0.52705,0.00802 -0.79057,0.01203c-0.02786,-1.69871 -0.05571,-3.39746 -0.08358,-5.09619c1.64336,0.94963 2.67851,3.26574 2.79805,5.05487z" fill="#6e6e30"/><path d="M300.48454,88.86367c0.02891,-1.58721 0.96214,-3.60993 2.3813,-4.7475c0.02574,1.57003 0.0515,3.14005 0.07724,4.71007c-0.81951,0.01248 -1.63903,0.02495 -2.45854,0.03743z" fill="#6e6e30"/><path d="M305.0799,93.85287h-0.00001c-0.50868,0.00775 -0.98277,-0.07271 -1.41719,-0.2242c0.01516,-0.76227 0.03697,-1.52923 0.0245,-2.28928c-0.00984,-0.60013 -0.01968,-1.20027 -0.02953,-1.80038c0.94231,-0.01435 1.88461,-0.02869 2.82691,-0.04303c0.01146,0.69877 0.02292,1.39756 0.03438,2.09634c0.01109,0.67632 -0.01243,1.34964 -0.04122,2.02078c-0.43831,0.1477 -0.9072,0.23235 -1.39783,0.23982z" fill="#6e6e30"/><path d="M307.97789,89.47324c0.61551,-0.00937 1.26276,-0.01923 1.92065,-0.02924c-0.08766,1.62493 -1.15187,3.19656 -2.70924,3.94771c0.02451,-0.60154 0.04232,-1.20484 0.03239,-1.81012c-0.01146,-0.69877 -0.02292,-1.39756 -0.03438,-2.09634c0.26353,-0.00401 0.52705,-0.00802 0.79057,-0.01203z" fill="#6e6e30"/><path d="M300.51032,89.58693c0.81487,-0.01241 1.62974,-0.0248 2.44461,-0.03721c0.00984,0.60013 0.01968,1.20027 0.02953,1.80038c0.01124,0.68544 -0.00176,1.37327 -0.01468,2.05861c-1.41215,-0.73003 -2.30596,-2.25398 -2.45945,-3.82175z" fill="#6e6e30"/><path d="M310.09972,86.51903c0.03135,0.38948 -0.59718,0.87558 -1.34825,0.93805c-0.75105,0.06246 -1.6275,-0.49175 -1.65886,-0.88124c-0.03135,-0.3895 0.73333,-0.8296 1.38334,-0.84187c0.65,-0.01227 1.59241,0.39556 1.62375,0.78504z" fill="#ffffff"/></g><path d="M315.89895,77.5908c0,0 -11.96908,7.35674 -25.99061,3.76068c-14.79043,-3.79326 -14.759,-15.88868 -14.759,-15.88868c0,0 1.68748,1.39934 2.57032,1.87423c0.88286,0.4749 2.38287,0.79015 2.38287,0.79015c0,0 -1.86652,-5.63307 -0.51289,-12.59422c2.04543,-10.51877 7.66158,-10.56753 7.66158,-10.56753c0,0 -0.29466,2.07992 0.47797,5.17719c0.36384,1.45845 1.67186,3.33685 1.67186,3.33685c0,0 1.39221,-5.24148 8.33545,-8.40587c7.99539,-3.64393 13.57204,-0.44674 13.57204,-0.44674c0,0 -1.39956,0.65881 -2.38888,1.65006c-0.97376,0.9757 -1.54068,2.28089 -1.1667,2.67677c0.13362,0.14148 4.42506,1.49136 7.30133,3.27453c3.28151,2.03438 6.10228,4.89262 6.10228,4.89262" fill="#ecec68" stroke="#0d0d00" stroke-width="1.75" stroke-linecap="round"/><g><g fill="#0d0d00" stroke="#0d0d00" stroke-width="1" stroke-linecap="round"><path d="M310.33261,102.56469c5.53691,-0.62446 9.69909,-1.60134 11.98867,-1.87124c2.89372,-0.34109 7.00111,-0.02505 12.91502,-1.26742c3.00651,-0.63158 9.49419,-2.56074 9.49419,-2.56074c0,0 -4.69997,11.18874 -18.64157,13.05502c-15.03823,2.01308 -24.37268,-7.57179 -24.37268,-7.57179c0,0 5.41621,0.57709 8.61636,0.21617z"/></g><path d="M334.07087,106.46206c-0.11309,1.00846 -3.15789,2.30839 -7.47183,2.95553c-4.31394,0.64715 -7.96298,0.37314 -8.33515,-0.10148c-0.668,-0.85191 3.84307,-2.41117 8.15702,-3.05831c4.31394,-0.64715 7.75453,-0.72811 7.64998,0.20427z" fill="#9b9b44" stroke="none" stroke-width="0" stroke-linecap="butt"/><path d="M308.70205,105.72933l-4.87309,-2.64861c0,0 3.5717,0.38794 7.65248,0.03179c3.78315,-0.33017 7.96703,-1.3893 11.05305,-1.79164c2.83216,-0.36923 7.24671,-0.29961 11.07215,-0.93877c5.20502,-0.86968 9.55765,-2.42966 9.55765,-2.42966l-2.80677,3.0282c0,0 -8.37812,1.93275 -16.18238,3.10349c-6.8229,1.02352 -15.47311,1.64522 -15.47311,1.64522z" fill="#ffffff" stroke="none" stroke-width="0" stroke-linecap="butt"/></g></g></g></svg>