<svg version="1.1" xmlns="http://www.w3.org/2000/svg" xmlns:xlink="http://www.w3.org/1999/xlink" width="118.18548" height="310.11993" viewBox="0,0,118.18548,310.11993"><g transform="translate(-258.40553,-24.79671)"><g stroke-miterlimit="10"><path d="M263.40898,324.61251v-293.22501h113.18203v293.22501z" fill-opacity="0.01" fill="#000000" stroke="none" stroke-width="0" stroke-linecap="butt"/><path d="M272.26043,116.57842c2.56444,-4.04371 2.74397,-6.29735 2.74397,-6.29735c0,0 -1.96269,0.64238 -5.99306,0.44098c-4.11537,-0.20565 -7.07204,-2.59496 -7.07204,-2.59496c0,0 3.50357,-3.27383 5.27287,-5.83376c2.37408,-3.43495 3.36203,-7.32345 3.36203,-7.32345c0,0 -2.25785,1.45692 -4.30355,1.93842c-4.3137,1.01533 -6.52796,-0.72255 -6.52796,-0.72255c0,0 12.46772,-11.83454 12.88655,-30.07126c0.63044,-27.45079 36.44686,-32.62132 47.55961,-22.48447c14.57823,13.298 17.33031,33.24853 10.75069,49.87485c-10.75497,27.17724 -10.72754,29.30039 -27.67802,34.77178c-23.94021,7.72758 -36.72982,-5.82787 -36.72982,-5.82787c0,0 3.1996,-1.88238 5.72871,-5.87037z" fill="#ecec68" stroke="#0d0d00" stroke-width="1.75" stroke-linecap="butt"/><path d="M312.44597,140.97306c0.10307,0.36083 12.25717,26.54055 5.6062,42.08936c-5.7456,13.43219 -15.34847,1.06974 -15.34847,1.06974c0,0 -13.71951,25.70701 -24.2165,20.07737c-13.7858,-7.39346 -1.19729,-30.9893 8.33532,-50.72333c5.70482,-11.80989 15.35523,-31.99628 15.35523,-31.99628c0,0 8.38477,12.88829 10.26822,19.48313z" fill-opacity="0.4" fill="#f2d849" stroke="#0d0d00" stroke-width="1.5" stroke-linecap="butt"/><path d="M327.92259,140.79867c1.95127,-6.5751 10.46837,-19.37633 10.46837,-19.37633c0,0 9.44195,20.28473 15.02481,32.15276c9.32882,19.83118 21.67361,43.55544 7.81238,50.80651c-10.55442,5.52121 -24.00841,-20.32577 -24.00841,-20.32577c0,0 -9.7297,12.26288 -15.33664,-1.22779c-6.49046,-15.61649 5.9327,-41.66963 6.03947,-42.02938z" fill-opacity="0.4" fill="#f2d849" stroke="#0d0d00" stroke-width="1.5" stroke-linecap="butt"/><g stroke-linecap="butt"><path d="M333.91472,203.33422c0,0 0.18426,-15.96987 0.52629,-33.71738c0.46217,-23.98109 -8.44486,-60.87338 16.50243,-48.29548c6.54244,3.29856 9.72488,15.61156 9.42021,26.8707c-0.30286,11.192 -3.36584,21.75094 -3.36584,21.75094c0,0 -0.72521,11.4362 -1.47915,17.26859c-0.78145,6.04504 -3.8376,17.97591 -3.8376,17.97591z" fill="#ecec68" stroke="#0d0d00" stroke-width="1.75"/><path d="M343.63155,201.77743c4.81336,-0.74516 9.9322,3.2692 12.30129,8.26199c2.58121,5.43983 0.47373,13.48952 -1.90873,15.70148c-3.27247,3.03826 -9.99651,-1.05451 -9.99651,-1.05451c0,0 -5.63999,-22.09715 -0.39605,-22.90896z" fill="#ecec68" stroke="#0d0d00" stroke-width="1.75"/><path d="M353.10358,214.02739c0.01324,0.14841 0.33319,15.6103 -6.08274,15.38259c-8.56278,-0.3039 -8.99174,-7.87259 -8.99174,-7.87259c0,0 3.14149,-16.81683 9.31614,-17.03387c5.66766,-0.19922 5.75835,9.52388 5.75835,9.52388z" fill="#ecec68" stroke="#0d0d00" stroke-width="1.75"/><path d="M344.71772,202.10503c4.88617,0.49953 2.97386,9.85755 2.97386,9.85755c-0.01906,0.14427 -1.92602,13.57544 -7.6552,15.0503c-7.97093,2.05193 -6.76925,-9.66881 -6.76925,-9.66881c0,0 6.12734,-15.78325 11.4506,-15.23905z" fill="#ecec68" stroke="#0d0d00" stroke-width="1.75"/><path d="M346.56117,202.94981c1.68687,1.36906 -7.49376,4.33468 -10.00893,8.45426c-2.87612,3.90315 0.52445,9.06088 0.52445,9.06088c0,0 -14.06432,-0.32211 -7.13944,-14.34918c3.29872,-6.68188 13.78964,-5.46631 16.62392,-3.16599z" fill="#ecec68" stroke="#0d0d00" stroke-width="1.75"/><path d="M334.42116,206.35602l1.03183,-12.05643l17.01604,0.88245l-2.0893,14.83736z" fill="#ecec68" stroke="none" stroke-width="0"/><path d="M354.82505,220.19923c0,0 -2.11119,-1.69073 -5.41236,-1.8374c-2.62768,-0.11675 -6.01655,0.60276 -7.73181,0.16268c-4.1547,-1.06596 -10.59852,-6.0848 -10.59852,-6.0848l7.10876,-11.71268c0,0 7.0031,-1.64056 14.24371,5.94275c3.50815,3.67417 2.39022,13.52945 2.39022,13.52945z" fill="#ecec68" stroke="none" stroke-width="0"/><path d="M346.26769,154.55238c-7.68554,-0.4123 -12.92245,-3.48801 -12.92245,-3.48801l-0.38361,-9.09184l26.74535,2.85004l-0.15787,7.82734c0,0 -2.42344,2.48494 -13.28141,1.90246z" fill-opacity="0.70196" fill="#0d0d00" stroke="none" stroke-width="0"/><path d="M345.191,174.55091c-8.46091,-0.92555 -11.03986,-3.08626 -11.03986,-3.08626l-0.20965,-9.0733c0,0 3.49602,3.16369 11.29296,4.01925c8.64478,0.9486 12.22332,-1.53995 12.22332,-1.53995l-0.53723,8.21582c0,0 -2.39432,2.48562 -11.72954,1.46443z" fill-opacity="0.70196" fill="#0d0d00" stroke="none" stroke-width="0"/><path d="M344.1724,197.86014c-7.74903,-0.84969 -10.15793,-2.38888 -10.15793,-2.38888l-0.1118,-9.06287c0,0 3.24081,2.5331 10.38171,3.31875c7.91741,0.87108 10.92759,-1.04798 10.92759,-1.04798l-0.78191,8.16311c0,0 -1.70788,1.95538 -10.25766,1.01788z" fill-opacity="0.70196" fill="#0d0d00" stroke="none" stroke-width="0"/><path d="M346.28303,150.60915c-8.16764,-0.23116 -12.67423,-2.14987 -12.71823,-2.98671c-0.63344,-12.04587 -3.42242,-23.10567 1.28649,-27.18509c2.6694,-2.31256 9.61458,-2.3819 16.09217,0.88396c5.39406,2.71958 10.78651,14.82697 9.36618,26.94429c-0.02483,0.21186 -2.27956,2.67601 -14.02661,2.34355z" fill="#9b9b44" stroke="#0d0d00" stroke-width="1.75"/></g><g stroke-linecap="butt"><path d="M290.15727,205.65962c0,0 -3.05616,-11.93087 -3.8376,-17.97591c-0.75395,-5.83239 -1.47915,-17.26859 -1.47915,-17.26859c0,0 -3.06299,-10.55894 -3.36584,-21.75094c-0.30467,-11.25914 2.87778,-23.57214 9.42022,-26.87071c24.94729,-12.5779 16.04027,24.31439 16.50243,48.29548c0.34203,17.7475 0.52629,33.71738 0.52629,33.71738z" fill="#ecec68" stroke="#0d0d00" stroke-width="1.75"/><path d="M298.2068,202.24954c5.24394,0.81181 -0.39606,22.90896 -0.39606,22.90896c0,0 -6.72404,4.09278 -9.99651,1.05451c-2.38245,-2.21195 -4.48993,-10.26164 -1.90872,-15.70147c2.36909,-4.99279 7.48792,-9.00716 12.30129,-8.262z" fill="#ecec68" stroke="#0d0d00" stroke-width="1.75"/><path d="M294.49307,204.97563c6.17465,0.21704 9.31614,17.03387 9.31614,17.03387c0,0 -0.42896,7.5687 -8.99174,7.8726c-6.41593,0.22771 -6.09598,-15.23418 -6.08274,-15.38259c0,0 0.09068,-9.72309 5.75834,-9.52388z" fill="#ecec68" stroke="#0d0d00" stroke-width="1.75"/><path d="M297.12057,202.57713c5.32326,-0.54421 11.4506,15.23904 11.4506,15.23904c0,0 1.20168,11.72075 -6.76925,9.66882c-5.72918,-1.47486 -7.63615,-14.90603 -7.65521,-15.0503c0,0 -1.91231,-9.35802 2.97386,-9.85755z" fill="#ecec68" stroke="#0d0d00" stroke-width="1.75"/><path d="M295.27718,203.4219c2.83427,-2.30032 13.32519,-3.51589 16.62391,3.16599c6.92489,14.02707 -7.13944,14.34919 -7.13944,14.34919c0,0 3.40057,-5.15773 0.52445,-9.06088c-2.51517,-4.11959 -11.69579,-7.08521 -10.00893,-8.45427z" fill="#ecec68" stroke="#0d0d00" stroke-width="1.75"/><path d="M291.4586,210.49149l-2.08931,-14.83735l17.01605,-0.88245l1.03183,12.05643z" fill="#ecec68" stroke="none" stroke-width="0"/><path d="M287.01329,220.67133c0,0 -1.11792,-9.85527 2.39022,-13.52944c7.24061,-7.5833 14.24371,-5.94275 14.24371,-5.94275l7.10876,11.71268c0,0 -6.44383,5.01884 -10.59852,6.0848c-1.71525,0.44008 -5.10412,-0.27943 -7.7318,-0.16268c-3.30117,0.14668 -5.41236,1.8374 -5.41236,1.8374z" fill="#ecec68" stroke="none" stroke-width="0"/><path d="M282.2892,153.12205l-0.15787,-7.82734l26.74535,-2.85004l-0.38361,9.09183c0,0 -5.23692,3.07571 -12.92245,3.488c-10.85798,0.58249 -13.28142,-1.90246 -13.28142,-1.90246z" fill-opacity="0.70196" fill="#0d0d00" stroke="none" stroke-width="0"/><path d="M284.91778,173.5586l-0.53724,-8.21582c0,0 3.57854,2.48855 12.22332,1.53995c7.79694,-0.85556 11.29296,-4.01926 11.29296,-4.01926l-0.20965,9.0733c0,0 -2.57896,2.16071 -11.03986,3.08626c-9.33522,1.0212 -11.72953,-1.46443 -11.72953,-1.46443z" fill-opacity="0.70196" fill="#0d0d00" stroke="none" stroke-width="0"/><path d="M287.40826,197.31437l-0.78191,-8.1631c0,0 3.01019,1.91907 10.9276,1.04799c7.1409,-0.78565 10.3817,-3.31875 10.3817,-3.31875l-0.1118,9.06287c0,0 -2.4089,1.53919 -10.15793,2.38888c-8.54978,0.9375 -10.25766,-1.01788 -10.25766,-1.01788z" fill-opacity="0.70196" fill="#0d0d00" stroke="none" stroke-width="0"/><path d="M281.52871,148.73764c-1.42033,-12.11732 3.97212,-24.22471 9.36618,-26.94429c5.53409,-2.79017 11.90224,-3.64596 14.57628,-2.24832c5.97719,3.12408 3.48812,15.50895 2.80238,28.54945c-0.04401,0.83684 -4.55059,2.75555 -12.71824,2.98671c-11.74706,0.33246 -14.00177,-2.13169 -14.02661,-2.34355z" fill="#9b9b44" stroke="#0d0d00" stroke-width="1.75"/></g><g stroke="#0d0d00" stroke-linecap="butt"><path d="M343.28371,168.52623c1.57051,0.61318 8.28838,9.05799 8.28838,9.05799c0,0 11.70608,5.3101 12.42364,28.4523c0.59213,19.09689 -6.03411,34.31567 -6.03411,34.31567c0,0 -1.54311,18.66129 -4.4982,32.98192c-2.95508,14.32063 -9.77938,36.72745 -9.77938,36.72745l-23.53796,-0.71747l0.07992,-132.64153c0,0 14.92481,-11.3517 23.05772,-8.17632z" fill="#494920" stroke-width="1.75"/><path d="M319.85249,305.29258v-3.32279c0,0 27.48357,-0.6001 27.98562,0c0.93972,1.12327 -0.81595,3.43621 -3.17871,4.19494z" fill="#080d00" stroke-width="1.5"/></g><g stroke="#0d0d00" stroke-linecap="butt"><path d="M297.64475,168.27623c8.13291,-3.17538 23.05772,8.17632 23.05772,8.17632l0.07992,132.64153l-23.53796,0.71747c0,0 -6.8243,-22.40682 -9.77938,-36.72745c-2.95509,-14.32064 -4.4982,-32.98192 -4.4982,-32.98192c0,0 -6.62624,-15.21878 -6.03411,-34.31568c0.71756,-23.14219 12.42364,-28.4523 12.42364,-28.4523c0,0 6.71787,-8.44481 8.28838,-9.05799z" fill="#494920" stroke-width="1.75"/><path d="M320.54212,307.57133l0.15642,14.66283c0,0 -2.13105,3.33828 -9.57044,6.63437c-13.16886,5.83458 -24.81656,5.60696 -30.80438,4.24795c-3.1241,-0.83013 -6.25925,-6.65632 -2.7366,-11.22699c3.1823,-4.12908 10.60019,-4.84717 15.0485,-8.02239c3.86947,-2.76205 5.72916,-5.94676 5.72916,-5.94676z" fill="#ffffd5" stroke-width="1.5"/><path d="M298.36476,303.9663l22.55234,0.18266l-0.21858,14.13117c0,0 -19.29936,15.66566 -40.37482,10.88232c-3.12409,-0.83014 -5.56047,-4.33037 -2.03782,-8.90104c3.1823,-4.12908 9.90142,-7.17312 14.34973,-10.34834c3.86947,-2.76205 5.72916,-5.94677 5.72916,-5.94677z" fill="#0d0d00" stroke-width="1.5"/><path d="M293.59031,301.71979c0.50205,-0.6001 27.48562,0 27.48562,0v3.32279c0,0 -23.44233,1.32909 -24.80692,0.89088c0,0 -5.36842,-2.3404 -2.6787,-4.21367z" fill="#080d00" stroke-width="1.5"/></g><path d="M342.39707,308.17037c0,0 1.85969,3.18471 5.72916,5.94676c4.44831,3.17522 11.8662,3.89332 15.0485,8.02239c3.52265,4.57067 0.3875,10.39685 -2.7366,11.22699c-5.98782,1.35901 -17.63553,1.58663 -30.80439,-4.24795c-7.43939,-3.29608 -9.57043,-6.63436 -9.57043,-6.63436l0.15642,-14.66283z" fill="#ffffd5" stroke="#0d0d00" stroke-width="1.5" stroke-linecap="butt"/><path d="M342.39707,304.2163c0,0 1.85969,3.18472 5.72916,5.94677c4.44831,3.17523 11.16743,6.21927 14.34973,10.34834c3.52265,4.57066 1.08627,8.0709 -2.03782,8.90104c-21.07546,4.78335 -40.37482,-10.88232 -40.37482,-10.88232l-0.21858,-14.13117l22.55234,-0.18266z" fill="#0d0d00" stroke="#0d0d00" stroke-width="1.5" stroke-linecap="butt"/><path d="M303.78505,203.29677l-1,-20.1721h35.96121l-0.8,20.63442c0,0 -11.12869,1.61816 -17.03787,1.61816c-6.07339,0 -17.12334,-2.08048 -17.12334,-2.08048z" fill="#494920" stroke="none" stroke-width="0" stroke-linecap="butt"/><path d="M337.61107,203.09231c0,0 -7.8499,2.22242 -17.37731,2.30103c-8.35113,0.06889 -16.04309,-2.30103 -16.04309,-2.30103" fill="none" stroke="#0d0d00" stroke-width="1.5" stroke-linecap="round"/><path d="M320.75826,132.32217c0.06985,-0.16235 0.107,-0.24689 0.107,-0.24689v0.00001h18.75144c0,0 1.37601,4.76768 3.85007,11.32321c2.57928,6.83438 7.10244,15.61194 9.06639,22.95627c1.5955,5.96648 -1.01543,8.66603 -1.01543,8.66603c0,0 -6.00131,9.92318 -30.24426,10.29841c-0.16929,0.00506 -0.34116,0.00717 -0.51565,0.00629c-0.17397,0.00087 -0.34535,-0.00124 -0.51416,-0.00628c-24.24346,-0.37507 -30.24486,-10.29841 -30.24486,-10.29841c0,0 -2.61094,-2.69955 -1.01543,-8.66603c1.96395,-7.34433 6.48711,-16.12189 9.06639,-22.95627c2.47406,-6.55554 3.85007,-11.32321 3.85007,-11.32321h18.75144v-0.00001c0,0 0.03714,0.08454 0.10699,0.24689z" fill="#9b9b44" stroke="#0d0d00" stroke-width="1.75" stroke-linecap="butt"/><path d="M289.41605,173.66524c0.79186,0.40108 6.00669,6.85483 27.86798,7.022c0.79943,-0.02557 3.08803,-0.01009 3.34889,-0.0071c0.26076,-0.003 2.54898,-0.01847 3.34835,0.0071c21.86145,-0.16714 27.07632,-6.62091 27.86818,-7.022c1.45187,-0.73539 4.78457,7.29166 4.78457,7.29166c0,0 -12.05131,10.00632 -35.36556,9.62753c-0.2124,-0.00345 -0.42435,-0.01024 -0.63567,-0.02027c-0.21135,0.01003 -0.42332,0.01682 -0.63576,0.02027c-23.31425,0.37879 -33.19451,-12.49495 -33.19451,-12.49495c0,0 1.16167,-5.15963 2.61353,-4.42424z" fill="#0d0d00" stroke="none" stroke-width="0" stroke-linecap="butt"/><path d="M313.15504,190.1347c-1.07703,-2.16887 -1.10216,-8.29971 -0.33441,-10.13225c0.79267,-1.89198 13.79684,-1.87059 15.24756,-0.55876c1.39648,1.26279 1.05602,9.73868 -0.16719,11.06355c-1.13434,1.22859 -13.95538,0.94675 -14.74601,-0.37252z" fill="#ffffd5" stroke="#0d0d00" stroke-width="1.5" stroke-linecap="butt"/><path d="M296.78557,125.76594c0.32537,-1.24761 16.56815,-13.38279 23.45285,-8.33304c9.55264,7.00662 9.91519,32.29449 3.61552,33.37236c-25.44486,6.98503 -30.69159,3.79904 -33.59609,-0.36327c-3.29266,-4.71855 -1.59525,-9.6415 0.67485,-13.06499c2.2701,-3.42349 4.02537,-4.60358 5.85287,-11.61106z" fill="#9b9b44" stroke="#0d0d00" stroke-width="1.5" stroke-linecap="butt"/><path d="M351.06393,150.44189c-2.9045,4.16231 -8.15123,7.3483 -33.59609,0.36327c-6.29967,-1.07787 -5.93713,-26.36574 3.61551,-33.37236c6.8847,-5.04976 23.12747,7.08544 23.45284,8.33304c1.82749,7.00748 2.71566,6.87985 5.85289,11.61106c2.2701,3.42348 3.96751,8.34643 0.67484,13.06499z" fill="#9b9b44" stroke="#0d0d00" stroke-width="1.5" stroke-linecap="butt"/><path d="M313.0645,166.72672l2.64991,-25c0,0 1.91704,-23.10385 9.22314,-21.5345c4.76222,1.02292 16.30428,30.0345 16.30428,30.0345c0,0 -9.95417,1.21223 -8.64532,4.11764c0.69307,1.53849 4.1497,1.06187 5.45511,3.45045c1.75592,3.21291 2.66024,6.93191 2.66024,6.93191z" fill="#9b9b44" stroke="none" stroke-width="0" stroke-linecap="butt"/><path d="M300.60992,164.72672c0,0 0.90432,-3.719 2.66024,-6.93191c1.30541,-2.38858 4.76205,-1.91196 5.45511,-3.45045c1.30884,-2.90541 -8.64532,-4.11764 -8.64532,-4.11764c0,0 11.54207,-29.01159 16.30428,-30.03451c7.3061,-1.56934 9.22315,21.53451 9.22315,21.53451l2.6499,25z" fill="#9b9b44" stroke="none" stroke-width="0" stroke-linecap="butt"/><path d="M291.75588,129.4786c0,0 -2.15614,-9.94773 28,-10.25c34.78554,-0.34867 31.5,10.5 31.5,10.5c0,0 -15.47005,-1.51702 -28.25056,-1.61555c-25.48246,-0.19647 -31.24944,1.36555 -31.24944,1.36555z" fill="#9b9b44" stroke="none" stroke-width="0" stroke-linecap="butt"/><path d="M320.13445,120.88861v25.65" fill="none" stroke="#0d0d00" stroke-width="1" stroke-linecap="round"/><path d="M326.497,132.02194c0,1.27025 -0.60788,1.58571 -1.54452,1.58571c-0.93664,0 -1.84736,-0.31546 -1.84736,-1.58571c0,-1.27025 0.7593,-1.87143 1.69594,-1.87143c0.93664,0 1.69594,0.60117 1.69594,1.87143z" fill="#ffffd5" stroke="#0d0d00" stroke-width="1" stroke-linecap="butt"/><path d="M325.00293,137.69332c0.93663,0 1.84736,0.45831 1.84736,1.72857c0,1.27025 -0.7593,1.58571 -1.69594,1.58571c-0.93664,0 -1.69594,-0.31546 -1.69594,-1.58571c0,-1.27025 0.60787,-1.72857 1.54451,-1.72857z" fill="#ffffd5" stroke="#0d0d00" stroke-width="1" stroke-linecap="butt"/><path d="M316.5688,117.97574l8.06707,-2.18397c0,0 11.58422,-0.76407 15.1265,7.27918c2.56293,5.81948 -3.86724,12.64744 -3.86724,12.64744z" fill="#c1c155" stroke="#0d0d00" stroke-width="1.5" stroke-linecap="butt"/><path d="M304.11671,135.71839c0,0 -5.68017,-7.32796 -3.11724,-13.14744c3.54228,-8.04325 14.3765,-6.77918 14.3765,-6.77918l7.33979,2.72942z" fill="#c1c155" stroke="#0d0d00" stroke-width="1.5" stroke-linecap="butt"/><path d="M314.83137,94.64583h11.99007l1.29622,21.45252c0,0 -3.04103,4.91539 -7.45329,4.79603c-4.43,-0.11983 -7.12923,-4.79603 -7.12923,-4.79603z" fill="#ecec68" stroke="#0d0d00" stroke-width="1.5" stroke-linecap="butt"/><path d="M310.66796,60.61161c-5.66528,1.93571 -10.70456,14.98092 -15.75939,12.05734c-5.15688,-2.98261 3.13599,-17.47559 11.86726,-22.22433c6.95618,-3.78333 15.57674,-3.36302 16.84497,0.34871c1.26824,3.71174 -7.28757,7.88257 -12.95285,9.8183z" fill="#6e6e30" stroke="#0d0d00" stroke-width="1.35" stroke-linecap="butt"/><path d="M339.64846,30.41931c0,0 -0.24647,3.57752 -2.08233,13.19216c-1.16722,6.11292 -3.99914,14.33664 -3.99914,14.33664l-5.77123,-1.812c0,0 3.68453,-7.92155 5.12788,-13.925c2.53962,-10.56321 1.39288,-15.06205 2.9124,-16.93586c1.21358,-1.49651 7.69215,0.81209 15.17266,2.86567c7.38535,2.02745 15.79102,3.76276 14.32761,8.06182c-2.33231,6.85163 -25.68784,-5.78342 -25.68784,-5.78342z" fill="#0d0d00" stroke="none" stroke-width="NaN" stroke-linecap="butt"/><path d="M302.80447,30.41931c0,0 -23.35553,12.63504 -25.68784,5.78342c-1.46341,-4.29906 6.94226,-6.03438 14.32761,-8.06183c7.48052,-2.05358 13.95909,-4.3622 15.17266,-2.86566c1.51951,1.87383 0.37278,6.37266 2.9124,16.93587c1.44335,6.00345 5.12788,13.92499 5.12788,13.92499l-5.77123,1.81202c0,0 -2.83192,-8.22371 -3.99914,-14.33664c-1.83587,-9.61465 -2.08234,-13.19216 -2.08234,-13.19216z" fill="#0d0d00" stroke="none" stroke-width="NaN" stroke-linecap="butt"/><path d="M292.69347,88.66282c3.51948,-2.88817 3.78337,1.82342 6.66348,4.27231c2.88012,2.4489 2.84571,6.77942 -0.77584,8.73224c-4.26072,2.29746 -9.62975,6.54239 -9.62975,6.54239c0,0 -5.01903,-12.35735 3.74211,-19.54694z" fill="#ecec68" stroke="#0d0d00" stroke-width="1.75" stroke-linecap="butt"/><path d="M292.45707,99.83567c1.18589,-5.48915 6.13854,-7.36827 10.65306,-5.50476c4.51452,1.86351 6.31013,7.10249 2.76817,10.83187c-1.88683,1.98668 -6.9785,8.87792 -6.9785,8.87792c0,0 -7.91361,-5.56337 -6.44273,-14.20502z" fill="#ecec68" stroke="#0d0d00" stroke-width="1.75" stroke-linecap="butt"/><path d="M343.07179,101.66738c-3.62155,-1.95282 -3.65595,-6.28334 -0.77584,-8.73224c2.88012,-2.44889 3.144,-7.16048 6.66348,-4.27231c8.76114,7.18959 3.74211,19.54695 3.74211,19.54695c0,0 -5.36904,-4.24494 -9.62975,-6.5424z" fill="#ecec68" stroke="#0d0d00" stroke-width="1.75" stroke-linecap="butt"/><path d="M335.7746,105.16285c-3.54196,-3.72937 -1.74635,-8.96836 2.76817,-10.83187c4.51452,-1.86351 9.46719,0.01561 10.65307,5.50477c1.84978,8.5622 -6.44274,14.20501 -6.44274,14.20501c0,0 -2.81144,-4.49035 -6.9785,-8.87791z" fill="#ecec68" stroke="#0d0d00" stroke-width="1.75" stroke-linecap="butt"/><path d="M307.99557,111.241c-5.69661,-2.5635 -10.49163,-5.42655 -13.13505,-11.89723c-2.08926,-5.11419 -1.85513,-10.80292 -1.46639,-16.6843c0.38849,-5.87761 1.11268,-11.94741 4.75897,-18.47579c7.00911,-12.54918 21.48881,-12.65062 22.61273,-12.63931c1.12394,0.01132 15.72518,0.09072 22.73396,12.63931c3.64629,6.52837 4.37048,12.59819 4.75897,18.47579c0.38873,5.88138 0.62286,11.5701 -1.46639,16.6843c-2.64342,6.47066 -7.43844,9.33373 -13.13504,11.89723c-5.39641,2.42841 -11.39515,3.3438 -13.0226,3.29799c-1.52032,-0.04279 -7.24284,-0.86962 -12.63917,-3.29799z" fill="#ecec68" stroke="#0d0d00" stroke-width="1.75" stroke-linecap="butt"/><path d="M337.47459,105.18563l8.74186,-17.74207c0,0 1.33895,0.74202 2.33451,1.68205c1.22527,1.15694 2.19507,2.61381 2.71878,3.35639c0.93607,1.32725 0.60323,2.98194 0.60323,2.98194c0,0 0.82094,3.68701 -0.32842,5.43889c-0.29079,0.44323 -1.40102,-0.38788 -2.11626,0.17353c-0.98347,0.77194 -1.67813,2.9861 -2.62898,3.95188c-2.85844,2.90329 -4.92991,6.11192 -4.92991,6.11192z" fill="#ecec68" stroke="none" stroke-width="0" stroke-linecap="butt"/><path d="M299.95018,111.14015c0,0 -2.23815,-3.20863 -5.09658,-6.11192c-0.95086,-0.96578 -1.64553,-3.17994 -2.62898,-3.95188c-0.71524,-0.56141 -1.82546,0.26971 -2.11625,-0.17352c-1.14935,-1.7519 -0.32842,-5.4389 -0.32842,-5.4389c0,0 -0.33284,-1.65468 0.60323,-2.98194c0.52373,-0.74258 1.4935,-2.19944 2.71877,-3.35639c0.99555,-0.94003 2.33449,-1.68205 2.33449,-1.68205l8.74186,17.74207z" fill="#ecec68" stroke="none" stroke-width="0" stroke-linecap="butt"/><g stroke="#0d0d00" stroke-width="1" stroke-linecap="butt"><g fill="#c5c556"><path d="M303.59121,55.6549c0,0 2.1999,-3.43967 4.49334,-4.29272c2.29347,-0.85303 3.54807,-0.03856 3.81197,1.20361c0.26388,1.24217 0.00891,3.0026 -2.28453,3.85562c-2.29344,0.85303 -6.02078,-0.76652 -6.02078,-0.76652z"/><path d="M299.41157,54.64731c2.29345,-0.85304 5.8945,0.36971 5.8945,0.36971c0,0 -2.10792,3.45409 -4.40136,4.30714c-2.29348,0.85305 -3.64005,0.02414 -3.90395,-1.21805c-0.2639,-1.24219 0.11737,-2.60576 2.41081,-3.4588z"/></g><g fill="#c5c556"><path d="M304.29517,54.61364c0,0 3.42754,1.41797 3.83806,3.35026c0.41053,1.93229 -0.87709,3.09873 -2.35145,3.64712c-1.47436,0.54838 -3.06594,0.38287 -3.47645,-1.5494c-0.41051,-1.93228 1.98985,-5.44795 1.98985,-5.44795z"/><path d="M300.58008,52.67927c-0.41053,-1.93227 1.06108,-3.06988 2.53541,-3.61824c1.47436,-0.54838 3.17234,-0.4604 3.58286,1.47188c0.41052,1.93227 -2.09627,5.52549 -2.09627,5.52549c0,0 -3.61152,-1.44684 -4.02204,-3.37913z"/></g><path d="M305.00861,57.97166c-1.72776,0.64263 -3.37908,-0.01645 -3.68836,-1.47214c-0.30926,-1.45569 0.84068,-3.1567 2.56844,-3.79933c1.72777,-0.64265 3.37908,0.01646 3.68834,1.47214c0.30928,1.45569 -0.84067,3.15668 -2.56844,3.79931z" fill="#ffffd5"/></g><path d="M295.99113,86.64385c0.38861,-2.49437 4.27601,-3.95989 8.68272,-3.27333c4.40673,0.68657 7.66405,3.2652 7.27542,5.75956c-0.38861,2.49438 -4.76184,3.21605 -9.16856,2.52949c-4.40672,-0.68655 -7.17823,-2.52137 -6.78962,-5.01574z" fill="#a5a549" stroke="none" stroke-width="0" stroke-linecap="butt"/><path d="M345.62143,85.83453c0.67719,2.43193 -1.86113,4.57781 -6.15755,5.77419c-4.29642,1.19639 -8.724,0.99027 -9.40119,-1.44168c-0.6772,-2.43193 2.25676,-5.37325 6.55318,-6.56965c4.2964,-1.19639 8.32833,-0.19479 9.00552,2.23716z" fill="#a5a549" stroke="none" stroke-width="0" stroke-linecap="butt"/><path d="M339.45969,83.51983c0,1.21083 -2.42468,3.99512 -8.74988,4.48494c-2.45304,0.18998 -6.65856,-1.00765 -9.55929,-1.00765c-2.0021,0 -7.98178,1.1084 -9.79138,1.01455c-7.57266,-0.39277 -9.48996,-3.13557 -9.48996,-4.49186c0,-1.56927 2.15376,-4.7446 11.57843,-4.90861c0.66747,-0.01162 7.34043,1.28639 8.02696,1.28639c1.30193,0 4.67929,-0.84792 5.90666,-0.80711c8.55851,0.28449 12.07846,2.95966 12.07846,4.42933z" fill="#c4c44a" stroke="none" stroke-width="0" stroke-linecap="butt"/><path d="M297.03484,85.81818c-0.11085,-1.21802 1.44578,-12.1439 10.1423,-12.81485c9.91648,-0.76507 10.55716,12.61693 10.4291,14.02321c-0.02685,0.40061 -3.77958,2.43485 -10.99504,2.20162c-6.15908,-0.19908 -9.52842,-2.88346 -9.57633,-3.40996z" fill="#0d0d00" stroke="#0d0d00" stroke-width="1" stroke-linecap="butt"/><g fill="#0d0d00" stroke="none" stroke-width="0" stroke-linecap="butt"><path d="M302.15738,78.17467l-3.28898,4.42715l-2.32683,-5.29089z"/><path d="M299.58006,82.09265l-0.38594,2.09472c-0.7545,0.15665 -1.49606,0.32791 -2.35856,0.42128l-1.5297,-2.51413z"/><path d="M299.6006,79.90548l-1.75534,4.23383l-2.02427,-4.36732z"/></g><path d="M299.46237,73.99146c0,0 0.10908,-6.5882 6.11913,-8.49186c5.48712,-1.73802 8.75758,3.94669 8.75758,3.94669c0,0 -3.50691,-1.72866 -7.67735,-0.79129c-5.12497,1.15192 -7.19936,5.33645 -7.19936,5.33645z" fill="#0d0d00" stroke="none" stroke-width="0" stroke-linecap="butt"/><path d="M278.05556,62.44445z" fill="#ffffff" stroke="none" stroke-width="0" stroke-linecap="butt"/><path d="M345.00126,85.8182c-0.05295,0.58187 -5.30684,3.26085 -10.97226,3.48754c-5.26826,0.21081 -9.57483,-1.91691 -9.59911,-2.2792c-0.12806,-1.40628 0.51262,-14.78828 10.4291,-14.02321c8.69652,0.67095 10.25315,11.59683 10.1423,12.81485z" fill="#0d0d00" stroke="#0d0d00" stroke-width="1" stroke-linecap="butt"/><g fill="#0d0d00" stroke="none" stroke-width="0" stroke-linecap="butt"><path d="M345.49455,77.31094l-2.32683,5.29089l-3.28898,-4.42715z"/><path d="M346.73027,82.09453l-1.5297,2.51413c-0.8625,-0.09337 -1.60406,-0.26463 -2.35856,-0.42128l-0.38594,-2.09472z"/><path d="M346.21514,79.77199l-2.02427,4.36732l-1.75534,-4.23383z"/></g><g stroke="#0d0d00" stroke-width="1" stroke-linecap="round"><path d="M320.80557,105.88617c-17.68248,-0.35526 -22.71056,-10.88972 -22.71056,-10.88972c0,0 6.61477,1.46676 11.10974,1.74071c4.49497,0.27395 7.36869,-0.28245 11.91969,-0.33717c4.30388,-0.05175 6.83237,0.8551 11.25539,0.58412c4.42302,-0.27098 11.63403,-1.98647 11.63403,-1.98647c0,0 -5.2484,10.78456 -23.20829,10.88852z" fill="#ffffff"/><path d="M339.61112,99.84189c0,0 -4.82204,1.44681 -18.44444,1.44681c-13.88183,0 -18.88889,-1.44681 -18.88889,-1.44681" fill="none"/></g><g stroke="none" stroke-width="0" stroke-linecap="butt"><path d="M310.96807,75.91151c0.37405,0 0.72805,0.07856 1.06002,0.2207c0,1.95119 0,3.9024 0,5.8536c-0.92138,0 -1.84276,0 -2.76414,0c0,-1.84602 0,-3.69209 0,-5.53811c0.52448,-0.33733 1.09855,-0.5362 1.70412,-0.5362z" fill="#6e6e30"/><path d="M315.54124,81.98578c-0.62707,0 -1.25411,0 -1.88117,0c-0.25768,0 -0.51534,0 -0.77302,0c0,-1.85735 0,-3.7147 0,-5.57203c1.59126,1.06538 2.56604,3.61438 2.65421,5.57203z" fill="#6e6e30"/><path d="M306.17293,81.98578c0.0537,-1.73449 0.99842,-3.92999 2.40395,-5.14986c0,1.71662 0,3.43324 0,5.14986c-0.80131,0 -1.60264,0 -2.40395,0z" fill="#6e6e30"/><path d="M310.5851,87.51599h-0.00001c-0.49738,0 -0.95954,-0.09583 -1.38178,-0.26865c0.02704,-0.83298 0.06065,-1.67099 0.06065,-2.502c0,-0.65614 0,-1.31232 0,-1.96848c0.92138,0 1.84276,0 2.76414,0c0,0.76402 0,1.52805 0,2.29207c0,0.73947 -0.03379,1.47509 -0.07269,2.20823c-0.43083,0.15416 -0.89055,0.23889 -1.37029,0.23889z" fill="#6e6e30"/><path d="M313.48824,82.7768c0.60185,0 1.23472,0 1.878,0c-0.11174,1.77475 -1.17726,3.47497 -2.71171,4.27017c0.0336,-0.65714 0.06069,-1.31631 0.06069,-1.97811c0,-0.76402 0,-1.52807 0,-2.29208c0.25768,0 0.51534,0 0.77302,0z" fill="#6e6e30"/><path d="M306.18655,82.77676c0.79678,0 1.59355,0 2.39033,0c0,0.65614 -0.02373,3.46959 -0.04735,4.21852c-1.36874,-0.82149 -2.21806,-2.50222 -2.34297,-4.21847z" fill="#6e6e30"/><path d="M315.73911,79.58291c0.0244,0.42626 -0.59782,0.94717 -1.33303,1.00295c-0.73519,0.05578 -1.58308,-0.5646 -1.60749,-0.99089c-0.0244,-0.42629 0.73018,-0.89464 1.36579,-0.89723c0.63561,-0.00261 1.55032,0.45888 1.57472,0.88514z" fill="#ffffff"/></g><g stroke="none" stroke-width="0" stroke-linecap="butt"><path d="M337.16694,75.91353c0.60557,0 1.17965,0.19886 1.70412,0.5362c0,1.84602 0,3.69209 0,5.53811c-0.92138,0 -1.84276,0 -2.76414,0c0,-1.95119 0,-3.9024 0,-5.8536c0.33197,-0.14213 0.68596,-0.2207 1.06001,-0.2207z" fill="#6e6e30"/><path d="M335.24804,76.41585c0,1.85735 0,3.7147 0,5.57203c-0.25768,0 -0.51534,0 -0.77302,0c-0.62706,0 -1.25411,0 -1.88118,0c0.08817,-1.95768 1.06295,-4.50665 2.6542,-5.57203z" fill="#6e6e30"/><path d="M339.55815,81.98785c0,-1.71662 0,-3.43324 0,-5.14986c1.40553,1.21986 2.35025,3.41537 2.40395,5.14986c-0.80131,0 -1.60264,0 -2.40395,0z" fill="#6e6e30"/><path d="M337.54991,87.51811c-0.47973,0 -0.93946,-0.08473 -1.37029,-0.23889c-0.0389,-0.73314 -0.07269,-1.46876 -0.07269,-2.20822c0,-0.76402 0,-1.52807 0,-2.29208c0.92138,0 1.84276,0 2.76414,0c0,0.65614 0,1.31232 0,1.96848c0,0.83101 0.03361,1.66902 0.06065,2.502c-0.42224,0.17282 -0.8844,0.26865 -1.38178,0.26865h-0.00001z" fill="#6e6e30"/><path d="M334.64677,82.77888c0.25768,0 0.51534,0 0.77302,0c0,0.76402 0,1.52807 0,2.29208c0,0.6618 0.02709,1.32097 0.06069,1.97811c-1.53445,-0.79518 -2.59997,-2.49541 -2.71171,-4.27017c0.64328,0 1.27615,0 1.878,0z" fill="#6e6e30"/><path d="M341.94852,82.77896c-0.12491,1.71628 -0.97423,3.39698 -2.34297,4.21847c-0.02361,-0.74893 -0.04735,-1.50058 -0.04735,-2.25002c0,-0.65614 0,-1.31232 0,-1.96848c0.79678,0 1.59355,0 2.39033,0z" fill="#6e6e30"/><path d="M339.52519,79.58492c0.0244,-0.42626 0.93911,-0.88774 1.57472,-0.88514c0.63562,0.0026 1.39019,0.47095 1.36579,0.89723c-0.02441,0.42629 -0.8723,1.04667 -1.60749,0.99089c-0.73521,-0.05578 -1.35742,-0.57668 -1.33302,-1.00295z" fill="#ffffff"/></g><path d="M317.46549,52.0795c0,0 2.71163,-2.94375 5.88686,-5.05868c2.78312,-1.85377 6.95657,-3.28975 7.08493,-3.43537c0.35924,-0.40747 -0.21588,-1.72306 -1.18342,-2.69804c-0.98301,-0.99052 -2.36171,-1.63738 -2.36171,-1.63738c0,0 5.40022,-3.33025 13.27454,0.24367c6.8381,3.1036 8.28309,8.4005 8.28309,8.4005c0,0 1.24854,-1.92618 1.58083,-3.41165c0.70563,-3.15466 0.38424,-5.26056 0.38424,-5.26056c0,0 5.49086,-0.03727 7.65901,10.6043c1.43484,7.04241 -0.29947,12.78699 -0.29947,12.78699c0,0 1.46128,-0.34304 2.31671,-0.83855c0.85541,-0.49549 2.48257,-1.94144 2.48257,-1.94144c0,0 0.22463,12.27246 -14.17296,16.34983c-13.64913,3.86541 -25.46746,-3.41444 -25.46746,-3.41444" fill="#ecec68" stroke="#0d0d00" stroke-width="1.75" stroke-linecap="round"/></g></g></svg>