<svg version="1.1" xmlns="http://www.w3.org/2000/svg" xmlns:xlink="http://www.w3.org/1999/xlink" width="378" height="460.00001" viewBox="0,0,378,460.00001"><defs><linearGradient x1="320" y1="-67.5" x2="320" y2="269.5" gradientUnits="userSpaceOnUse" id="color-1"><stop offset="0" stop-color="#ffffd1"/><stop offset="1" stop-color="#f1f19c"/></linearGradient></defs><g transform="translate(-131,83.00001)"><g stroke-miterlimit="10"><path d="M145.24891,375c-6.76488,0 -12.24891,-5.33739 -12.24891,-11.9214v-432.15721c0,-6.58401 5.48402,-11.9214 12.24891,-11.9214h349.50219c6.76488,0 12.2489,5.33739 12.2489,11.9214v432.15721c0,6.584 -5.48402,11.9214 -12.2489,11.9214z" fill="#535311" fill-rule="nonzero" stroke="#212108" stroke-width="4" stroke-linecap="butt" stroke-linejoin="miter"/><path d="M160.66812,361.5c-6.16798,0 -11.16812,-4.94148 -11.16812,-11.03711v-406.92577c0,-6.09563 5.00014,-11.03711 11.16812,-11.03711h318.66376c6.16798,0 11.16812,4.94149 11.16812,11.03712v406.92577c0,6.09563 -5.00014,11.03711 -11.16812,11.03711z" fill="url(#color-1)" fill-rule="nonzero" stroke="#212108" stroke-width="4.5" stroke-linecap="butt" stroke-linejoin="miter"/><text transform="translate(160,-35.68135) scale(0.61033,0.61033)" font-size="40" xml:space="preserve" fill="#212108" fill-rule="nonzero" stroke="none" stroke-width="1" stroke-linecap="butt" stroke-linejoin="miter" font-family="&quot;Allan-Regular&quot;, Sans Serif" font-weight="normal" text-anchor="start"><tspan x="0" dy="0">name: Celine</tspan><tspan x="0" dy="46.150000000000006px">age: 23</tspan><tspan x="0" dy="46.150000000000006px">occupation: high rank dealer</tspan></text><g><path d="M432.53444,-56.08653h32.93116c6.43804,0 11.62097,5.18296 11.62097,11.62097v32.93116c0,6.43802 -5.18294,11.62098 -11.62097,11.62098h-32.93116c-6.43802,0 -11.62098,-5.18296 -11.62098,-11.62097v-32.93116c0,-6.43801 5.18296,-11.62097 11.62098,-11.62097z" fill="#a0a300" fill-rule="evenodd" stroke="#212108" stroke-width="2" stroke-linecap="round" stroke-linejoin="round"/><g fill="none" fill-rule="nonzero" stroke="none" stroke-width="1" stroke-linecap="butt" stroke-linejoin="miter" font-family="sans-serif" font-weight="normal" font-size="12" text-anchor="start"><g/><g/></g></g><text transform="translate(161.5,45.01481) scale(0.38464,0.41376)" font-size="40" xml:space="preserve" fill="#212108" fill-rule="nonzero" stroke="none" stroke-width="1" stroke-linecap="butt" stroke-linejoin="miter" font-family="&quot;Allan-Regular&quot;, Sans Serif" font-weight="normal" text-anchor="start"><tspan x="0" dy="0">Description-</tspan><tspan x="0" dy="46.150000000000006px">After Mustardman dismantled the super scary cult of doom, </tspan><tspan x="0" dy="46.150000000000006px">He managed to recover one of the cult members. That member </tspan><tspan x="0" dy="46.150000000000006px">was Celine! Mustardman found her sitting in a dark </tspan><tspan x="0" dy="46.150000000000006px">mold-covered room glaring at a tv playing endless loops of static. </tspan><tspan x="0" dy="46.150000000000006px">Upon recovery, Celine was pretty worse for wear as she had a </tspan><tspan x="0" dy="46.150000000000006px">missing arm and a smashed TV where her head was. Due to her </tspan><tspan x="0" dy="46.150000000000006px">obsessive TV watching habit, Celine didn’t have the best motor </tspan><tspan x="0" dy="46.150000000000006px">skills so walking her to the MCS building was a struggle but </tspan><tspan x="0" dy="46.150000000000006px">Mustardman offered to carry her to the MCS HQ. After a several </tspan><tspan x="0" dy="46.150000000000006px">hour long surgery performed by Dr. Ohno, Celine was in high spirits, </tspan><tspan x="0" dy="46.150000000000006px">her arm was bandaged up and Dr. Ohno fitted her with a brand </tspan><tspan x="0" dy="46.150000000000006px">new screen head. She was also given hair extensions inside the </tspan><tspan x="0" dy="46.150000000000006px">workings of the screen head. After recovery, Celine was inducted </tspan><tspan x="0" dy="46.150000000000006px">into the MCS doing all sorts of jobs. Despite being inducted to a life </tspan><tspan x="0" dy="46.150000000000006px">of crime, Celine couldn’t be happier and she enjoys every second </tspan><tspan x="0" dy="46.150000000000006px">working for the MCS.  </tspan></text><path d="M160.16667,-30.16667v-1.66667h252.16667v1.66667z" fill="#212108" fill-rule="nonzero" stroke="none" stroke-width="0" stroke-linecap="butt" stroke-linejoin="miter"/><path d="M160.16667,-0.66667v-1.66667h252.16667v1.66667z" fill="#212108" fill-rule="nonzero" stroke="none" stroke-width="0" stroke-linecap="butt" stroke-linejoin="miter"/><path d="M160.16667,29.33333v-1.66667h252.16667v1.66667z" fill="#212108" fill-rule="nonzero" stroke="none" stroke-width="0" stroke-linecap="butt" stroke-linejoin="miter"/><g fill-rule="nonzero" stroke-linejoin="miter"><path d="M427.7709,-10.66218v-33.95462h42.96298v33.95462z" fill="#d9db56" stroke="#000000" stroke-width="2" stroke-linecap="butt"/><path d="M427.73594,-45.48298l19.75901,0.38174l-2.86316,4.58103l7.63505,4.10385l-4.77192,3.81754l2.67229,6.29892l-7.63505,-2.57683l-2.86316,4.29473l-3.62664,-4.58104l-3.34034,4.67647l-5.04374,-7.19669" fill="#000000" stroke="#000000" stroke-width="1" stroke-linecap="round"/><path d="M456.14973,-11.07165c-0.38738,-0.77473 0.38737,-1.16211 0.38737,-1.16211l0.61143,-0.30571c3.21426,-1.57973 7.48321,-5.05361 10.20024,-3.59194c1.0398,-0.54989 2.16171,-1.05538 3.19289,-1.67509l0.40103,-0.22929c-0.07718,0.6636 -0.11685,1.33863 -0.11685,2.02297c0,0.00897 0,0.01795 0.00001,0.02691c-0.70589,0.36279 -1.49052,0.6916 -2.24428,1.05273c0.42506,0.66776 0.76982,1.58094 1.0132,2.79479c0,0 0.16987,0.84936 -0.6795,1.01924c-0.84936,0.16988 -1.01924,-0.6795 -1.01924,-0.6795c-0.20671,-1.0363 -0.52064,-1.75956 -0.91589,-2.23684c-1.14274,0.79192 -1.93027,1.84156 -1.754,3.51712c0,0 0.00001,0.00014 0.00004,0.00044c-0.43892,-0.0333 -0.8824,-0.05029 -1.32986,-0.05029c-0.13668,0 -0.27298,0.00158 -0.40893,0.00474c-0.10673,-2.00344 0.64656,-3.27704 1.79855,-4.24424c-2.19131,0.03743 -5.18714,2.71465 -7.36266,3.81777l-0.61142,0.3057c0,0 -0.77473,0.38738 -1.16211,-0.38738z" fill="#000000" stroke="none" stroke-width="0.5" stroke-linecap="butt"/><path d="M439.60441,-12.68483c1.36463,-1.63898 2.54035,-1.82473 3.92726,-0.17449c0.41619,-1.68808 1.44802,-3.86618 3.11273,-3.14351c0.69146,0.30016 0.74232,2.27239 0.47098,3.47529c0.14925,0.16816 0.29714,0.3629 0.44384,0.58567l-0.04689,0.17685l0.0826,-0.00919l0.10051,0.90463c0.00441,0.03543 0.00669,0.07152 0.00669,0.10817c0,0.47838 0.55318,0.16045 0.0748,0.16045c-0.30987,0 -1.52274,0.54301 -1.67582,0.29837c-0.43844,0.0018 -0.8938,0.01338 -1.3589,0.0276c-0.1266,0.10329 -1.83397,-0.6474 -2.08491,-0.6474c-0.22271,0 1.14097,0.76611 1.01805,0.68101c-1.51125,0.0449 -3.06584,0.06209 -4.43301,-0.17727c-1.33922,-0.23446 -2.28019,-1.50675 -3.60853,-1.62176c-0.95719,-0.08287 -1.89397,-0.03536 -2.82464,0.05791c0.05633,0.17916 0.11409,0.35922 0.17423,0.53953l0.04446,0.57961c0,0 0.58813,-0.31005 -0.27805,-0.31005c-0.86619,0 -1.45432,0.31005 -1.45432,0.31005l0.04446,-0.0318c-0.09602,-0.28818 -0.17832,-0.58453 -0.25589,-0.88158c-1.02371,0.12953 -2.0508,0.25098 -3.10045,0.25098l-0.61769,-0.12777c0,0 -0.48745,0.14279 -0.27737,-0.69754c0.21009,-0.84033 0.69754,-0.98311 0.69754,-0.98311l0.19755,0.07603c0.88617,0 1.76254,-0.09267 2.63654,-0.20368c-0.41824,-1.22344 -1.09244,-2.16525 -2.84035,-2.14013c0,0 -0.86619,0 -0.86619,-0.86619c0,-0.86619 0.86619,-0.86619 0.86619,-0.86619c2.86906,0.03038 3.80165,1.62797 4.49478,3.65899c1.17275,-0.14035 2.34957,-0.22925 3.5483,-0.08715c1.45234,0.17215 2.34706,1.42625 3.7286,1.6392c0.0303,0.00468 0.06068,0.00921 0.09114,0.01366zM442.09433,-11.45329c-0.34383,-0.51328 -0.61367,-0.57043 -0.92839,-0.02075c0.30635,0.01302 0.61645,0.01925 0.92839,0.02075z" fill="#000000" stroke="none" stroke-width="0.5" stroke-linecap="butt"/><path d="M463.76612,-43.98889c0.07195,0.0501 0.14225,0.10228 0.21069,0.15676c0.13214,0.00675 0.84526,0.07957 0.84526,0.86551c0,0.11854 -0.01623,0.22088 -0.04422,0.3092c0.60122,0.57893 1.01848,0.46685 1.50948,-0.0159c-0.14528,-0.53708 -0.28579,-1.07444 -0.42034,-1.61177c0,0 -0.2101,-0.84031 0.63023,-1.0504c0.84033,-0.21009 1.05041,0.63024 1.05041,0.63024c0.00339,0.01357 0.00677,0.02715 0.01017,0.04073l0.24517,-0.38529c0.15237,-0.24805 0.42616,-0.41346 0.73859,-0.41346c0.47838,0 0.86619,0.38781 0.86619,0.86619v1.12095c-0.00339,2.74323 1.31677,5.34525 0.90833,7.84469l0.39579,0.08796l-0.20011,0.90049c-0.07948,0.39638 -0.4295,0.69494 -0.84926,0.69494c-0.36739,0 -0.68136,-0.22876 -0.80727,-0.55158l-0.5018,-1.20433l0.01152,-0.0048l-0.02663,-0.03405c-0.50805,-1.64839 -1.02183,-3.31094 -1.50409,-4.97921c-0.78037,0.51905 -1.72579,0.76541 -2.52609,0.47896c-0.8414,-0.30115 -1.64872,-2.24639 -2.10587,-2.9778l-0.50245,-0.80392c-0.08779,-0.13545 -0.13875,-0.29698 -0.13875,-0.47041c0,-0.47838 0.38781,-0.86619 0.86619,-0.86619c0.31511,0 0.59091,0.16825 0.74249,0.41982l0.50157,0.80252c0.03201,0.05124 0.06359,0.10127 0.09476,0.15014z" fill="#000000" stroke="none" stroke-width="0.5" stroke-linecap="butt"/><path d="M449.07675,-44.80202c0.61249,-0.61248 1.22498,0 1.22498,0l0.30571,0.3057c0.82296,0.87146 1.4806,1.06422 2.34169,0.1019c0,0 0.61249,-0.61248 1.22498,0c0.61249,0.61248 0,1.22499 0,1.22499c-1.65957,1.55523 -3.19612,1.43355 -4.79164,-0.1019l-0.30571,-0.30571c0,0 -0.61249,-0.61248 0,-1.22498z" fill="#000000" stroke="none" stroke-width="0.5" stroke-linecap="butt"/></g><text transform="translate(421.00729,12.91956) scale(0.24695,0.24695)" font-size="40" xml:space="preserve" fill="#212108" fill-rule="nonzero" stroke="none" stroke-width="1" stroke-linecap="butt" stroke-linejoin="miter" font-family="&quot;Allan-Regular&quot;, Sans Serif" font-weight="normal" text-anchor="start"><tspan x="0" dy="0">psst not unlockable</tspan></text></g></g></svg>