<svg version="1.1" xmlns="http://www.w3.org/2000/svg" xmlns:xlink="http://www.w3.org/1999/xlink" width="140.78631" height="256.0266" viewBox="0,0,140.78631,256.0266"><g transform="translate(-249.60684,-51.98671)"><g stroke-miterlimit="10"><path d="M346.41666,263.33335l-6.58333,-87.33334c0,0 17.06593,-28.09053 28.83333,-14.66666c6.86712,7.83378 -4.41667,102.5 -4.41667,102.5z" fill="#000000" stroke="#ecec68" stroke-width="1" stroke-linecap="butt"/><path d="M271.38686,308.01331v-256.0266h97.2263v256.0266z" fill-opacity="0.01" fill="#000000" stroke="none" stroke-width="2" stroke-linecap="butt"/><path d="M275.75001,263.83335c0,0 -11.28379,-94.66622 -4.41667,-102.5c11.7674,-13.42387 28.83333,14.66666 28.83333,14.66666l-6.58333,87.33334z" fill="#000000" stroke="#ecec68" stroke-width="1" stroke-linecap="butt"/><path d="M313.83341,180.67293v-29.33333h12.33333v29.33333z" fill="#000000" stroke="#ecec68" stroke-width="1" stroke-linecap="butt"/><path d="M356.17703,112.95957c4.88665,0 8.84806,4.71831 8.84806,10.53864c0,5.82033 -3.96141,10.53864 -8.84806,10.53864c-4.88665,0 -8.84806,-4.71831 -8.84806,-10.53864c0,-5.82033 3.96141,-10.53864 8.84806,-10.53864z" fill="#000000" stroke="#ecec68" stroke-width="1" stroke-linecap="butt"/><path d="M292.67116,123.49821c0,5.82033 -3.96141,10.53864 -8.84806,10.53864c-4.88665,0 -8.84806,-4.71831 -8.84806,-10.53864c0,-5.82033 3.96141,-10.53864 8.84806,-10.53864c4.88665,0 8.84806,4.71831 8.84806,10.53864z" fill="#000000" stroke="#ecec68" stroke-width="1" stroke-linecap="butt"/><path d="M291.38148,65.00708l8.75398,13.14226l6.40122,-15.32737l6.66325,13.8051l6.03487,-17.46248l6.31876,18.06147l8.13126,-15.62074l6.75016,16.04443l8.00743,-13.33003c0,0 3.01702,82.39879 0.54172,86.86399c-1.95582,3.52812 -57.39697,3.39829 -58.68609,-0.34367c-1.84203,-5.34688 1.08344,-85.83296 1.08344,-85.83296z" fill="#000000" stroke="#ecec68" stroke-width="1" stroke-linecap="butt"/><path d="M283.50005,130.99793v-14.8h73.8v14.8z" fill="#000000" stroke="none" stroke-width="0" stroke-linecap="butt"/><path d="M314.35721,170.57769v-22h11.28571v22z" fill="#000000" stroke="none" stroke-width="0" stroke-linecap="butt"/><path d="M296.50005,305.83543l-9.5,-129.5h66l-9.5,129.5z" fill="#000000" stroke="#ecec68" stroke-width="1" stroke-linecap="butt"/><path d="M319.98717,222.16876l-19.98715,-45.5h40z" fill="#ecec68" stroke="none" stroke-width="0" stroke-linecap="butt"/><path d="M319.92859,222.44257l-5.14637,-12.6435l5.21201,-29.37555l5.22324,29.401z" fill="#000000" stroke="none" stroke-width="0" stroke-linecap="butt"/><path d="M319.99422,194.47353l-9.07749,-17.2881h18.16667z" fill="#000000" stroke="none" stroke-width="0" stroke-linecap="butt"/><path d="M330.95,196.08541l-10.7,26.3l-9.3,-22.1" fill="none" stroke="#ecec68" stroke-width="1" stroke-linecap="round"/><path d="M320.37504,221.75001v83.25" fill="none" stroke="#ecec68" stroke-width="1" stroke-linecap="round"/><path d="M282.25001,202.83335c0,0 0.27042,-24.50858 2.72208,-28.50388c1.91371,-3.11864 11.77792,-0.49612 11.77792,-0.49612c0,0 2.43248,1.22572 3.00032,2.25815c1.00364,1.8248 2.49968,7.74185 2.49968,7.74185l-5.16667,12z" fill="#000000" stroke="none" stroke-width="0" stroke-linecap="butt"/><g stroke="#ecec68" stroke-width="1" stroke-linecap="butt"><path d="M279.10569,280.97594c0,0 -25.95246,7.16208 -28.47032,6.46239c-0.87005,-0.24178 -0.75758,-6.63926 1.03049,-8.1419c0.86637,-0.72807 26.67524,-6.19614 26.67524,-6.19614z" fill="#000000"/><path d="M289.97159,263.23569l3.21417,5.76167c0,0 11.01184,10.0224 9.7241,11.85119c-0.567,0.80523 -2.73402,3.72339 -4.57666,4.414c-1.91606,0.71814 -8.95565,-7.83621 -8.95565,-7.83621c0,0 -27.6544,12.11471 -30.22642,11.63287c-0.88876,-0.1665 -1.36211,-6.54854 0.28145,-8.19807c0.79636,-0.79924 16.09833,-7.20214 16.09833,-7.20214l0.21954,-11.82585z" fill="#000000"/><path d="M292.94903,260.5021l0.31957,8.59412l-17.6284,-2.025c0,0 -3.57821,-4.85081 -3.20699,-6.99659c0.33396,-1.93042 20.51582,0.42747 20.51582,0.42747z" fill="#ecec68"/></g><path d="M342.91666,195.83335l-5.16667,-12c0,0 1.49604,-5.91705 2.49968,-7.74185c0.56784,-1.03243 3.00032,-2.25815 3.00032,-2.25815c0,0 9.86421,-2.62252 11.77792,0.49612c2.45166,3.9953 2.72208,28.50388 2.72208,28.50388z" fill="#000000" stroke="none" stroke-width="0" stroke-linecap="butt"/><g stroke="#ecec68" stroke-width="1" stroke-linecap="butt"><path d="M361.6589,273.10029c0,0 25.80887,5.46807 26.67524,6.19614c1.78807,1.50264 1.90054,7.90012 1.03049,8.1419c-2.51786,0.69969 -28.47032,-6.46239 -28.47032,-6.46239z" fill="#000000"/><path d="M364.24954,261.83315l0.21954,11.82585c0,0 15.30197,6.4029 16.09833,7.20214c1.64356,1.64953 1.17021,8.03157 0.28145,8.19807c-2.57202,0.48184 -30.22642,-11.63287 -30.22642,-11.63287c0,0 -7.03959,8.55435 -8.95565,7.83621c-1.84264,-0.69061 -4.00966,-3.60877 -4.57666,-4.414c-1.28774,-1.82879 9.7241,-11.85119 9.7241,-11.85119l3.21417,-5.76167z" fill="#000000"/><path d="M367.96679,260.07464c0.37122,2.14578 -3.20699,6.99659 -3.20699,6.99659l-17.6284,2.025l0.31957,-8.59412c0,0 20.18186,-2.35789 20.51582,-0.42747z" fill="#ecec68"/></g><path d="M294.58334,115.85418c0,-5.99459 4.85958,-10.85417 10.85417,-10.85417c5.99459,0 10.85417,4.85958 10.85417,10.85417c0,5.99459 -4.85958,10.85417 -10.85417,10.85417c-5.99459,0 -10.85417,-4.85958 -10.85417,-10.85417z" fill="#000000" stroke="#ecec68" stroke-width="1" stroke-linecap="butt"/><path d="M334.6736,126.70835c-5.9946,0 -10.85417,-4.85958 -10.85417,-10.85417c0,-5.9946 4.85958,-10.85417 10.85417,-10.85417c5.9946,0 10.85417,4.85957 10.85417,10.85417c0,5.9946 -4.85958,10.85417 -10.85417,10.85417z" fill="#000000" stroke="#ecec68" stroke-width="1" stroke-linecap="butt"/><path d="M311.45833,124.37501c0,-3.95804 3.81025,-7.16667 8.51042,-7.16667c4.70017,0 8.51042,3.20863 8.51042,7.16667c0,3.95804 -3.81025,7.16666 -8.51042,7.16666c-4.70017,0 -8.51042,-3.20863 -8.51042,-7.16666z" fill="#000000" stroke="#ecec68" stroke-width="1" stroke-linecap="butt"/><path d="M316.63492,121.08334v-7h6.73015v7z" fill="#000000" stroke="none" stroke-width="0" stroke-linecap="butt"/><path d="M319.83333,223.42107l-22,-23.66667l3,-8.33333l-7,-1.33333l7,-13.33333" fill="none" stroke="#ecec68" stroke-width="1" stroke-linecap="round"/><path d="M339.83334,176.7544l7,13.33333l-7,1.33334l3,8.33334l-22,23.66666" fill="none" stroke="#ecec68" stroke-width="1" stroke-linecap="round"/></g></g></svg>