<svg version="1.1" xmlns="http://www.w3.org/2000/svg" xmlns:xlink="http://www.w3.org/1999/xlink" width="36.7981" height="36.79811" viewBox="0,0,36.7981,36.79811"><g transform="translate(-302.91346,-162.9135)"><g stroke-miterlimit="10"><path d="M311.51757,163.91351h20.83988c4.07419,0 7.35411,3.303 7.35411,7.40583v20.98644c0,4.10283 -3.27992,7.40583 -7.35411,7.40583h-20.83988c-4.07418,0 -7.35411,-3.303 -7.35411,-7.40583v-20.98644c0,-4.10283 3.27993,-7.40583 7.35411,-7.40583z" fill-opacity="0.39216" fill="#000000" fill-rule="evenodd" stroke="none" stroke-width="0" stroke-linecap="round" stroke-linejoin="round"/><path d="M309.98312,162.9135h20.03379c3.9166,0 7.06966,3.15307 7.06966,7.06966v20.03379c0,3.91659 -3.15306,7.06966 -7.06966,7.06966h-20.03379c-3.91659,0 -7.06966,-3.15307 -7.06966,-7.06966v-20.03379c0,-3.91659 3.15307,-7.06966 7.06966,-7.06966z" fill="#a0a300" fill-rule="evenodd" stroke="none" stroke-width="0" stroke-linecap="round" stroke-linejoin="round"/><g fill-rule="nonzero" stroke-linejoin="miter"><path d="M333.3889,180.00001c0,7.11834 -5.99441,12.88889 -13.38889,12.88889c-7.39448,0 -13.38889,-5.77056 -13.38889,-12.88889c0,-7.11834 5.99441,-12.88889 13.38889,-12.88889c7.39448,0 13.38889,5.77056 13.38889,12.88889z" fill="#d9db56" stroke="none" stroke-width="0" stroke-linecap="butt"/><g fill="none" stroke="#000000" stroke-width="0.5"><path d="M329.41835,180.64513c0,0 -2.04371,5.74879 -6.51583,7.33318c-4.47212,1.58438 -9.67913,-1.59561 -9.67913,-1.59561z" stroke-linecap="butt"/><path d="M318.25527,184.77645l1.44101,3.25032" stroke-linecap="round"/><path d="M321.51351,183.46585l1.49253,4.09802" stroke-linecap="round"/><path d="M326.08234,185.41348l-1.17622,-3.20095" stroke-linecap="round"/></g><g><g stroke-linecap="butt"><path d="M314.84377,179.44813c0,0.6617 -0.53166,1.1981 -1.1875,1.1981c-0.65584,0 -1.1875,-0.53641 -1.1875,-1.1981c0,-0.6617 0.53166,-1.1981 1.1875,-1.1981c0.65584,0 1.1875,0.53641 1.1875,1.1981z" fill="#000000" stroke="none" stroke-width="0"/><path d="M317.46877,179.50002c0,2.14011 -1.73489,3.875 -3.875,3.875c-2.14011,0 -3.875,-1.73489 -3.875,-3.875c0,-2.14011 1.73489,-3.875 3.875,-3.875c2.14011,0 3.875,1.73489 3.875,3.875z" fill="none" stroke="#000000" stroke-width="1"/></g><g stroke-width="1" stroke-linecap="butt"><path d="M326.09377,175.88563c0,0.6617 -0.53166,1.1981 -1.1875,1.1981c-0.65584,0 -1.1875,-0.53641 -1.1875,-1.1981c0,-0.6617 0.53166,-1.1981 1.1875,-1.1981c0.65584,0 1.1875,0.53641 1.1875,1.1981z" fill="#000000" stroke="none"/><path d="M328.71877,175.93752c0,2.14011 -1.73489,3.875 -3.875,3.875c-2.14011,0 -3.875,-1.73489 -3.875,-3.875c0,-2.14011 1.73489,-3.875 3.875,-3.875c2.14011,0 3.875,1.73489 3.875,3.875z" fill="none" stroke="#000000"/></g><path d="M317.78127,178.25002l2.875,-1" fill="none" stroke="#000000" stroke-width="1" stroke-linecap="round"/></g></g></g></g></svg>