<svg version="1.1" xmlns="http://www.w3.org/2000/svg" xmlns:xlink="http://www.w3.org/1999/xlink" width="109.93564" height="253.34453" viewBox="0,0,109.93564,253.34453"><g transform="translate(-265.03218,-81.75832)"><g stroke-miterlimit="10"><path d="M374.96782,177.63938v132.6023h-109.93564v-132.6023z" fill="#c5c556" stroke="none" stroke-width="0" stroke-linecap="butt"/><path d="M265.03218,303.07502v-125.43564c0,0 27.0382,67.0565 53.96782,67.0565c26.92962,0 55.96782,-67.0565 55.96782,-67.0565v125.43564z" fill="#bcb953" stroke="none" stroke-width="0" stroke-linecap="butt"/><path d="M265.03218,335.10285v-155.11243c0,0 3.75042,122.57198 54.45142,121.93824c44.86977,-0.56084 55.48422,-124.2893 55.48422,-124.2893v157.46349z" fill="#b6b14b" stroke="none" stroke-width="0" stroke-linecap="butt"/><g><g stroke="#000000" stroke-linecap="butt"><path d="M318.05746,158.81841c-0.74334,6.86896 -1.53231,18.61793 -6.99147,17.92725c-5.02901,-0.63627 -2.67815,-12.17679 -1.9348,-19.04575c0.74334,-6.86895 2.65819,-8.17727 5.00414,-7.92339c2.34596,0.25387 4.66548,2.17294 3.92214,9.0419z" fill="#ffffff" stroke-width="1"/><path d="M311.06599,176.74565c-3.17861,-0.40215 -3.40901,-5.16048 -2.96053,-10.34207c1.75891,1.53955 4.06215,2.47253 6.58331,2.47253c0.71619,0 1.4148,-0.07529 2.08833,-0.21839c-0.92307,4.64107 -2.51842,8.49187 -5.71111,8.08793z" fill="#6e6e30" stroke-width="1"/><path d="M318.05746,158.81841c-0.74334,6.86896 -1.53231,18.61793 -6.99147,17.92725c-5.02901,-0.63627 -2.67815,-12.17679 -1.9348,-19.04575c0.74334,-6.86895 2.65819,-8.17727 5.00414,-7.92339c2.34596,0.25387 4.66548,2.17294 3.92214,9.0419z" fill="none" stroke-width="2"/></g><g stroke="#000000" stroke-linecap="butt"><path d="M325.13749,149.77651c2.34596,-0.25387 4.2608,1.05444 5.00414,7.92339c0.74334,6.86896 3.09421,18.40948 -1.9348,19.04575c-5.45916,0.69069 -6.24813,-11.05829 -6.99148,-17.92724c-0.74334,-6.86895 1.57619,-8.78802 3.92214,-9.0419z" fill="#ffffff" stroke-width="1"/><path d="M322.4957,168.65773c0.67354,0.14309 1.37214,0.21839 2.08833,0.21839c2.52116,0 4.82441,-0.93299 6.58332,-2.47253c0.44847,5.18159 0.21808,9.93992 -2.96053,10.34207c-3.1927,0.40394 -4.78805,-3.44685 -5.71112,-8.08793z" fill="#6e6e30" stroke-width="1"/><path d="M325.13749,149.77651c2.34596,-0.25387 4.2608,1.05444 5.00414,7.92339c0.74334,6.86896 3.09421,18.40948 -1.9348,19.04575c-5.45916,0.69069 -6.24813,-11.05829 -6.99148,-17.92724c-0.74334,-6.86895 1.57619,-8.78802 3.92214,-9.0419z" fill="none" stroke-width="2"/></g><g stroke="#000000" stroke-width="2" stroke-linecap="butt"><path d="M300.73282,159.60981c-2.49582,0.01159 -4.52848,-2.00228 -4.54007,-4.4981c-0.01159,-2.49582 2.00228,-4.52847 4.4981,-4.54006c2.49582,-0.01159 4.52848,2.00228 4.54007,4.4981c0.01159,2.49582 -2.00228,4.52848 -4.4981,4.54007z" fill="#ffffff"/><path d="M312.02006,134.32407c3.43759,2.10393 -4.10273,16.18854 -7.31443,18.84808c-1.80092,0.70962 -6.08582,-0.73481 -4.82099,-3.21247c2.84913,-5.58112 9.73885,-17.1024 12.13542,-15.63561z" fill="#6e6e30"/></g><g stroke="#000000" stroke-width="2" stroke-linecap="butt"><path d="M334.26038,154.86974c0.01159,-2.49582 2.04425,-4.50969 4.54007,-4.4981c2.49582,0.01159 4.50969,2.04424 4.4981,4.54006c-0.01159,2.49582 -2.04425,4.50969 -4.54007,4.4981c-2.49582,-0.01159 -4.50969,-2.04425 -4.4981,-4.54007z" fill="#ffffff"/><path d="M339.60666,149.7597c1.26483,2.47765 -3.02007,3.92209 -4.82099,3.21247c-3.2117,-2.65955 -10.75202,-16.74415 -7.31443,-18.84808c2.39657,-1.46678 9.28629,10.0545 12.13542,15.63561z" fill="#6e6e30"/></g><g stroke-linecap="butt"><path d="M308.92991,152.51636l2.91136,-18.47207h15.04204l3.39659,18.47207z" fill="#6e6e30" stroke="none" stroke-width="0"/><path d="M308.92991,152.51636l0.84337,-4.25249c0,0 7.29007,0.61484 10.75264,0.56939c3.0771,-0.04039 9.00317,-0.82871 9.00317,-0.82871l0.75081,4.51181z" fill="#ffffff" stroke="#000000" stroke-width="1"/><path d="M324.02805,135.04753c0,1.72589 -1.95875,3.125 -4.375,3.125c-2.41625,0 -4.375,-1.39911 -4.375,-3.125c0,-1.72589 1.95875,-3.125 4.375,-3.125c2.41625,0 4.375,1.39911 4.375,3.125z" fill="#ffffff" stroke="#000000" stroke-width="1"/><path d="M308.92991,152.51636l2.91136,-18.47207h15.04204l3.39659,18.47207z" fill="none" stroke="#000000" stroke-width="2"/></g><path d="M293.14181,140.26199c-0.32353,2.93018 -8.00606,3.10805 -7.68253,0.17786c0.1144,-1.03612 -1.16468,-18.19456 2.92808,-27.77181c2.94414,-6.88943 14.0727,-7.28398 14.0727,-7.28398c0,0 0.89101,0.49424 -1.25488,2.1321c-1.61158,1.23005 -4.21298,0.71696 -5.72523,6.49784c-2.90674,11.11157 -2.21529,25.13542 -2.33813,26.24798z" fill="#000000" stroke="none" stroke-width="0" stroke-linecap="butt"/><path d="M344.5201,114.01398c-1.51225,-5.78088 -4.11365,-5.2678 -5.72523,-6.49784c-2.14589,-1.63786 -1.25488,-2.1321 -1.25488,-2.1321c0,0 11.12855,0.39455 14.07269,7.28398c4.09276,9.57725 2.81368,26.73569 2.92808,27.77181c0.32353,2.93018 -7.359,2.75232 -7.68253,-0.17786c-0.12284,-1.11255 0.56861,-15.13641 -2.33813,-26.24798z" fill="#000000" stroke="none" stroke-width="0" stroke-linecap="butt"/><path d="M298.04579,134.42065c0,0 0.05417,-18.99652 0,-25.4947c-0.01271,-1.52513 13.3269,-5.90586 22.70252,-5.90586c8.60145,0 20.75379,2.01869 20.61093,5.90586c-0.20282,5.51873 0,25.4947 0,25.4947z" fill="#ffffff" stroke="#000000" stroke-width="2" stroke-linecap="butt"/><path d="M341.76867,109.19038c0,1.05854 -7.01934,-3.90792 -21.92549,-3.36904c-13.89615,0.50236 -22.11719,4.28473 -22.11719,3.22619c0,-0.42602 0.04759,-0.87457 0.04759,-0.87457c0,0 5.54091,-9.66694 22.14979,-9.55638c18.80607,0.1252 21.81072,9.18204 21.81072,9.18204c0,0 0.03458,1.02843 0.03458,1.39177z" fill="#000000" stroke="none" stroke-width="0" stroke-linecap="butt"/><g fill="#000000" stroke="#000000" stroke-width="1" stroke-linecap="butt"><path d="M298.67671,103.94858c1.08284,2.7361 1.40717,5.09245 0.72437,5.26306c-0.6828,0.17061 -2.11409,-1.90911 -3.19693,-4.64521c-1.08284,-2.7361 -1.40718,-5.09245 -0.72438,-5.26306c0.6828,-0.17061 2.11411,1.90912 3.19695,4.64521z"/><path d="M295.44193,105.816c2.33838,1.78627 3.83101,3.63819 3.33392,4.13638c-0.4971,0.49819 -2.79571,-0.54603 -5.13409,-2.33229c-2.33838,-1.78627 -3.83102,-3.63819 -3.33392,-4.13638c0.4971,-0.49819 2.79572,0.54603 5.13409,2.33229z"/></g><g fill="#000000" stroke="#000000" stroke-width="1" stroke-linecap="butt"><path d="M340.5442,103.94858c1.08284,-2.73609 2.51416,-4.81582 3.19695,-4.64521c0.6828,0.17061 0.35846,2.52696 -0.72438,5.26306c-1.08284,2.7361 -2.51413,4.81582 -3.19693,4.64521c-0.6828,-0.17061 -0.35847,-2.52696 0.72437,-5.26306z"/><path d="M348.9131,103.48371c0.4971,0.49819 -0.99554,2.35012 -3.33392,4.13638c-2.33838,1.78627 -4.63699,2.83049 -5.13409,2.33229c-0.49709,-0.49819 0.99554,-2.35012 3.33392,-4.13638c2.33837,-1.78627 4.63699,-2.83049 5.13409,-2.33229z"/></g><path d="M319.96535,116.66509c0,5.9236 -6.70627,10.72562 -14.97888,10.72562c-8.27261,0 -14.9789,-4.80202 -14.9789,-10.72562c0,-5.9236 6.70628,-10.72563 14.9789,-10.72563c8.27261,0 14.97888,4.80204 14.97888,10.72563z" fill="#ffffff" stroke="none" stroke-width="1" stroke-linecap="butt"/><path d="M304.98646,127.39069c-3.49108,0 -6.70324,-0.8552 -9.25013,-2.28896c-0.0378,-5.58832 -0.10183,-11.17644 -0.19094,-16.76404c2.57641,-1.4995 5.86217,-2.39825 9.44108,-2.39825c4.36494,0 8.29379,1.33688 11.03157,3.47002c0.06258,4.77245 0.14749,9.5448 0.15637,14.31753c0.00005,0.02328 0.00009,0.04656 0.00013,0.06984c-2.74344,2.20511 -6.73926,3.59386 -11.18806,3.59386z" fill="#ecec68" stroke="#000000" stroke-width="1" stroke-linecap="butt"/><path d="M304.98646,127.39069c-1.95004,0 -3.81306,-0.26682 -5.5217,-0.75226c-0.01754,-6.6258 -0.10055,-13.25144 -0.24475,-19.87538c1.77492,-0.53058 3.7229,-0.82361 5.76645,-0.82361c3.09339,0 5.96776,0.67144 8.3544,1.82189c-0.09968,5.96878 -0.17082,11.93818 -0.21206,17.90782c-2.34401,1.08905 -5.14002,1.72154 -8.14234,1.72154z" fill="#000000" stroke="#000000" stroke-width="1" stroke-linecap="butt"/><path d="M319.96535,116.66509c0,5.9236 -6.70627,10.72562 -14.97888,10.72562c-8.27261,0 -14.9789,-4.80202 -14.9789,-10.72562c0,-5.9236 6.70628,-10.72563 14.9789,-10.72563c8.27261,0 14.97888,4.80204 14.97888,10.72563z" fill="none" stroke="#000000" stroke-width="2" stroke-linecap="butt"/><path d="M334.94425,105.93945c8.27261,0 14.97889,4.80204 14.97889,10.72563c0,5.9236 -6.70628,10.72562 -14.97889,10.72562c-8.27261,0 -14.9789,-4.80202 -14.9789,-10.72562c0,-5.9236 6.70629,-10.72563 14.9789,-10.72563z" fill="#ffffff" stroke="none" stroke-width="1" stroke-linecap="butt"/><path d="M323.75619,123.79681c0.00005,-0.02328 0.00008,-0.04656 0.00013,-0.06984c0.00887,-4.77273 0.09379,-9.54507 0.15637,-14.31753c2.73777,-2.13314 6.66664,-3.47002 11.03158,-3.47002c3.57891,0 6.86466,0.89875 9.44108,2.39825c-0.08911,5.5876 -0.15315,11.17572 -0.19095,16.76404c-2.5469,1.43376 -5.75904,2.28896 -9.25013,2.28896c-4.4488,0 -8.44463,-1.38876 -11.18807,-3.59386z" fill="#ecec68" stroke="#000000" stroke-width="1" stroke-linecap="butt"/><path d="M326.80191,125.66915c-0.04124,-5.96964 -0.11238,-11.93903 -0.21206,-17.90782c2.38663,-1.15045 5.26102,-1.82189 8.35441,-1.82189c2.04355,0 3.99152,0.29303 5.76644,0.82361c-0.1442,6.62394 -0.22721,13.24958 -0.24475,19.87538c-1.70864,0.48544 -3.57164,0.75226 -5.52169,0.75226c-3.00232,0 -5.79834,-0.63249 -8.14235,-1.72154z" fill="#000000" stroke="#000000" stroke-width="1" stroke-linecap="butt"/><path d="M334.94425,105.93945c8.27261,0 14.97889,4.80204 14.97889,10.72563c0,5.9236 -6.70628,10.72562 -14.97889,10.72562c-8.27261,0 -14.9789,-4.80202 -14.9789,-10.72562c0,-5.9236 6.70629,-10.72563 14.9789,-10.72563z" fill="none" stroke="#000000" stroke-width="2" stroke-linecap="butt"/><path d="M323.8831,128.55125c0,0 -1.68485,2.68424 -4,2.8c-2.31515,0.11576 -4,-2.4 -4,-2.4" fill="none" stroke="#000000" stroke-width="2" stroke-linecap="round"/><g><path d="M303.96496,162.49476l5.1862,-11.31247c0,0 7.25606,0.62403 10.81202,0.60344c3.39501,-0.01966 10.06325,-0.7243 10.06325,-0.7243l6.4909,11.43333c0,0 -2.78871,-0.18939 -5.83425,-0.04101c-1.29091,0.06289 -2.68657,0.73337 -4.04384,0.61669c-2.65611,-0.22833 -4.89731,-0.90901 -6.88737,-0.90901c-2.34557,0 -4.93666,0.77535 -7.95551,1.07578c-1.36503,0.13585 -2.76646,-0.60262 -3.98325,-0.74492c-2.01391,-0.23552 -3.84817,0.00247 -3.84817,0.00247z" fill="#6e6e30" stroke="none" stroke-width="0" stroke-linecap="butt"/><path d="M303.96496,162.49476l1.16269,-2.53615c0,0 3.25889,1.31562 7.16898,1.22123c2.63941,-0.06372 5.58821,-0.97611 7.58285,-0.98246c2.55687,-0.00814 4.40606,0.76805 7.56511,0.83069c3.03693,0.06022 7.57891,-1.1646 7.57891,-1.1646l1.49383,2.63129c0,0 -2.78871,-0.18939 -5.83425,-0.04101c-1.29091,0.06289 -2.68657,0.73337 -4.04384,0.61669c-2.65611,-0.22833 -4.89731,-0.90901 -6.88737,-0.90901c-2.34557,0 -4.93666,0.77535 -7.95551,1.07578c-1.36503,0.13585 -2.76646,-0.60262 -3.98325,-0.74492c-2.01391,-0.23552 -3.84817,0.00247 -3.84817,0.00247z" fill="#ffffff" stroke="none" stroke-width="0" stroke-linecap="butt"/><path d="M331.00497,153.52772c0,0 -2.75788,-0.05432 -5.81624,0.19822c-2.1422,0.17688 -4.4318,0.68558 -6.02433,0.69388c-2.10199,0.01096 -5.09081,-0.47589 -7.48883,-0.69439c-1.83576,-0.16727 -3.42139,-0.07909 -3.42139,-0.07909" fill="none" stroke="#000000" stroke-width="1" stroke-linecap="round"/><g fill="none" stroke="#000000" stroke-width="1" stroke-linecap="round"><path d="M315.71545,161.9656l0.97853,-10.125"/><path d="M308.98808,161.9656l2.20169,-9.875"/></g><g fill="none" stroke="#000000" stroke-width="1" stroke-linecap="round"><path d="M322.9321,151.8406l0.97853,10.125"/><path d="M330.14876,161.9656l-2.20169,-9.875"/></g><path d="M303.96496,162.49476l5.1862,-11.31247c0,0 7.25606,0.62403 10.81202,0.60344c3.39501,-0.01966 10.06325,-0.7243 10.06325,-0.7243l6.4909,11.43333c0,0 -2.78871,-0.18939 -5.83425,-0.04101c-1.29091,0.06289 -2.68657,0.73337 -4.04384,0.61669c-2.65611,-0.22833 -4.89731,-0.90901 -6.88737,-0.90901c-2.34557,0 -4.93666,0.77535 -7.95551,1.07578c-1.36503,0.13585 -2.76646,-0.60262 -3.98325,-0.74492c-2.01391,-0.23552 -3.84817,0.00247 -3.84817,0.00247z" fill="none" stroke="#000000" stroke-width="2" stroke-linecap="butt"/></g></g><g stroke="none" stroke-linecap="butt"><path d="M324.85994,84.97261c0,1.7752 -2.52639,3.21429 -5.64286,3.21429c-3.11646,0 -5.64286,-1.43908 -5.64286,-3.21429c0,-1.7752 2.52639,-3.21429 5.64286,-3.21429c3.11646,0 5.64286,1.43908 5.64286,3.21429z" fill="#555523" stroke-width="0"/><path d="M324.32026,85.54404c0,1.4706 -2.28477,2.66275 -5.10317,2.66275c-2.81841,0 -5.10317,-1.19215 -5.10317,-2.66275c0,-1.4706 2.28477,-2.66275 5.10317,-2.66275c2.81841,0 5.10317,1.19215 5.10317,2.66275z" fill="#6e6e30" stroke-width="0"/><g stroke-width="0"><path d="M289.125,109.40319l9.5,-8.75h42l9,8.25c0,0 -19.49177,1.49029 -29.32689,1.57157c-10.30922,0.0852 -31.17311,-1.07157 -31.17311,-1.07157z" fill="#6e6e30"/><path d="M320.29811,109.97476c9.83512,-0.08128 29.32689,-1.07157 29.32689,-1.07157l-0.36666,5h-59.13334l-1,-4.5c0,0 20.86389,0.65677 31.17311,0.57157z" fill="#555523"/></g><path d="M298.625,100.65319c0,0 -0.9461,-6.94638 3.38148,-11.55914c2.92852,-3.1215 8.72379,-4.4516 17.1301,-4.60753c8.18648,-0.15186 14.44226,1.07331 17.59631,4.32744c4.49094,4.63342 3.89211,11.83923 3.89211,11.83923c0,0 -9.87608,2.86272 -21.06596,3.25c-14.44658,0.5 -20.93404,-3.25 -20.93404,-3.25z" fill="#afaf39" stroke-width="0"/><path d="M298.625,100.79605c0,0 -0.3876,-2.84582 0.46817,-6.10401c0.30771,-1.17154 0.77617,-2.3964 1.48121,-3.56145c0.3976,-0.65701 1.4321,-1.89368 1.4321,-1.89368c0,0 -0.2223,11.32432 18.48724,11.07104c15.74698,-0.21317 16.23917,-11.35113 16.23917,-11.35113c0,0 0.51429,0.55807 0.74581,0.84861c0.9775,1.22666 1.65761,2.57803 2.12939,3.90107c1.30252,3.65277 1.01691,7.08955 1.01691,7.08955c0,0 -9.87608,2.86272 -21.06596,3.25c-14.44658,0.5 -20.93404,-3.25 -20.93404,-3.25z" fill="#a29c35" stroke-width="0"/><path d="M327.88662,86.35683c0,-0.27614 0.22386,-0.5 0.5,-0.5c0.27614,0 0.5,0.22386 0.5,0.5c0,0.27614 -0.22386,0.5 -0.5,0.5c-0.27614,0 -0.5,-0.22386 -0.5,-0.5z" fill="#ffffff" stroke-width="0.5"/><path d="M330.88662,92.35683c0,-0.27614 0.22386,-0.5 0.5,-0.5c0.27614,0 0.5,0.22386 0.5,0.5c0,0.27614 -0.22386,0.5 -0.5,0.5c-0.27614,0 -0.5,-0.22386 -0.5,-0.5z" fill="#ffffff" stroke-width="0.5"/><path d="M323.60091,98.64255c0,-0.27614 0.22386,-0.5 0.5,-0.5c0.27614,0 0.5,0.22386 0.5,0.5c0,0.27614 -0.22386,0.5 -0.5,0.5c-0.27614,0 -0.5,-0.22386 -0.5,-0.5z" fill="#ffffff" stroke-width="0.5"/><path d="M309.88662,89.92826c0,-0.27614 0.22386,-0.5 0.5,-0.5c0.27614,0 0.5,0.22386 0.5,0.5c0,0.27614 -0.22386,0.5 -0.5,0.5c-0.27614,0 -0.5,-0.22386 -0.5,-0.5z" fill="#ffffff" stroke-width="0.5"/><path d="M313.60091,96.07112c0,-0.27614 0.22386,-0.5 0.5,-0.5c0.27614,0 0.5,0.22386 0.5,0.5c0,0.27614 -0.22386,0.5 -0.5,0.5c-0.27614,0 -0.5,-0.22386 -0.5,-0.5z" fill="#ffffff" stroke-width="0.5"/><path d="M319.3152,87.21398c0,-0.27614 0.22386,-0.5 0.5,-0.5c0.27614,0 0.5,0.22386 0.5,0.5c0,0.27614 -0.22386,0.5 -0.5,0.5c-0.27614,0 -0.5,-0.22386 -0.5,-0.5z" fill="#ffffff" stroke-width="0.5"/><path d="M326.3152,92.7854c0,-0.27614 0.22386,-0.5 0.5,-0.5c0.27614,0 0.5,0.22386 0.5,0.5c0,0.27614 -0.22386,0.5 -0.5,0.5c-0.27614,0 -0.5,-0.22386 -0.5,-0.5z" fill="#ffffff" stroke-width="0.5"/><path d="M306.74377,92.92826c0,-0.27614 0.22386,-0.5 0.5,-0.5c0.27614,0 0.5,0.22386 0.5,0.5c0,0.27614 -0.22386,0.5 -0.5,0.5c-0.27614,0 -0.5,-0.22386 -0.5,-0.5z" fill="#ffffff" stroke-width="0.5"/><path d="M329.42234,96.64255c0,-0.13807 0.11193,-0.25 0.25,-0.25c0.13807,0 0.25,0.11193 0.25,0.25c0,0.13807 -0.11193,0.25 -0.25,0.25c-0.13807,0 -0.25,-0.11193 -0.25,-0.25z" fill="#ffffff" stroke-width="0.5"/><path d="M333.13662,89.35683c0,-0.13807 0.11193,-0.25 0.25,-0.25c0.13807,0 0.25,0.11193 0.25,0.25c0,0.13807 -0.11193,0.25 -0.25,0.25c-0.13807,0 -0.25,-0.11193 -0.25,-0.25z" fill="#ffffff" stroke-width="0.5"/><path d="M324.5652,88.64255c0,-0.13807 0.11193,-0.25 0.25,-0.25c0.13807,0 0.25,0.11193 0.25,0.25c0,0.13807 -0.11193,0.25 -0.25,0.25c-0.13807,0 -0.25,-0.11193 -0.25,-0.25z" fill="#ffffff" stroke-width="0.5"/><path d="M320.27948,96.07112c0,-0.13807 0.11193,-0.25 0.25,-0.25c0.13807,0 0.25,0.11193 0.25,0.25c0,0.13807 -0.11193,0.25 -0.25,0.25c-0.13807,0 -0.25,-0.11193 -0.25,-0.25z" fill="#ffffff" stroke-width="0.5"/><path d="M314.27948,86.92826c0,-0.13807 0.11193,-0.25 0.25,-0.25c0.13807,0 0.25,0.11193 0.25,0.25c0,0.13807 -0.11193,0.25 -0.25,0.25c-0.13807,0 -0.25,-0.11193 -0.25,-0.25z" fill="#ffffff" stroke-width="0.5"/><path d="M315.5652,91.07112c0,-0.13807 0.11193,-0.25 0.25,-0.25c0.13807,0 0.25,0.11193 0.25,0.25c0,0.13807 -0.11193,0.25 -0.25,0.25c-0.13807,0 -0.25,-0.11193 -0.25,-0.25z" fill="#ffffff" stroke-width="0.5"/><path d="M310.27948,95.7854c0,-0.13807 0.11193,-0.25 0.25,-0.25c0.13807,0 0.25,0.11193 0.25,0.25c0,0.13807 -0.11193,0.25 -0.25,0.25c-0.13807,0 -0.25,-0.11193 -0.25,-0.25z" fill="#ffffff" stroke-width="0.5"/><path d="M305.5652,89.49969c0,-0.13807 0.11193,-0.25 0.25,-0.25c0.13807,0 0.25,0.11193 0.25,0.25c0,0.13807 -0.11193,0.25 -0.25,0.25c-0.13807,0 -0.25,-0.11193 -0.25,-0.25z" fill="#ffffff" stroke-width="0.5"/></g></g></g></svg>