<svg version="1.1" xmlns="http://www.w3.org/2000/svg" xmlns:xlink="http://www.w3.org/1999/xlink" width="34.17311" height="34.17311" viewBox="0,0,34.17311,34.17311"><g transform="translate(-302.91346,-162.91348)"><g stroke="none" stroke-miterlimit="10"><path d="M309.98312,162.91348h20.03379c3.9166,0 7.06966,3.15307 7.06966,7.06966v20.03379c0,3.91659 -3.15306,7.06966 -7.06966,7.06966h-20.03379c-3.91659,0 -7.06966,-3.15307 -7.06966,-7.06966v-20.03379c0,-3.91659 3.15307,-7.06966 7.06966,-7.06966z" fill="#a0a300" fill-rule="evenodd" stroke-width="0" stroke-linecap="round" stroke-linejoin="round"/><g fill-rule="nonzero" stroke-linecap="butt" stroke-linejoin="miter"><path d="M328.03722,185.88761c0.40349,2.36335 -3.86636,5.56473 -8.67703,6.6949c-2.56876,0.60348 -10.85141,1.41043 -12.08483,-1.28245c-1.60265,-3.499 4.87196,-11.18441 9.21405,-12.24016c6.61725,-1.60893 10.70348,1.88222 11.54781,6.8277z" fill="#d9db56" stroke-width="0"/><path d="M330.74807,172.97759c0.70572,3.46379 -2.37843,10.88456 -7.88608,12.0067c-5.50765,1.12214 -5.28714,-3.54661 -2.41225,-6.46105c1.98409,-2.01138 -1.76243,-8.24101 2.17884,-10.74804c4.74263,-3.01677 7.41376,1.7386 8.11949,5.2024z" fill="#d9db56" stroke-width="NaN"/><path d="M334.99629,169.78953c0.26014,0.54695 -1.95829,1.94006 -4.95501,3.11161c-2.99672,1.17155 -4.98346,1.71616 -5.2436,1.16922c-0.03429,-0.0721 -0.58823,-0.649 -0.3798,-0.93299c1.10993,-1.51225 1.0076,0.04591 1.63389,-0.24058c3.06628,-1.40265 8.76035,-3.4945 8.94453,-3.10726z" fill="#000000" stroke-width="0"/><path d="M334.88753,168.43935c0.20445,0.43536 -4.73382,2.922 -7.96545,4.24346c-0.41051,0.16786 -0.7111,1.34705 -1.53467,1.51334c-0.57008,0.11511 -1.15764,-0.62417 -1.17543,-0.74351c-0.20249,-1.35881 1.84904,-2.27378 4.79701,-3.65816c2.94797,-1.38438 5.57988,-1.99109 5.87853,-1.35513z" fill="#000000" stroke-width="0"/><path d="M319.988,182.8507c0.53986,2.06035 -2.31098,4.55056 -6.36753,5.56204c-4.05655,1.01148 -7.78268,0.1612 -8.32255,-1.89916c-0.53986,-2.06035 2.31098,-4.55056 6.36754,-5.56204c4.05655,-1.01148 7.78268,-0.1612 8.32255,1.89916z" fill="#000000" stroke-width="0"/><path d="M320.28943,181.18053c0.7624,2.03308 -2.01784,4.95557 -6.20985,6.52757c-4.19201,1.572 -8.20835,1.19823 -8.97076,-0.83485c-0.7624,-2.03308 2.01784,-4.95557 6.20985,-6.52757c4.19201,-1.572 8.20835,-1.19823 8.97076,0.83485z" fill="#d9db56" stroke-width="0"/></g></g></g></svg>