<svg version="1.1" xmlns="http://www.w3.org/2000/svg" xmlns:xlink="http://www.w3.org/1999/xlink" width="111.65022" height="54.92858" viewBox="0,0,111.65022,54.92858"><g transform="translate(-264.02614,-154.85872)"><g stroke="none" stroke-width="0.5" stroke-miterlimit="10"><path d="M339.20721,200.30805c-0.90383,-0.51648 -1.15339,-2.26094 -0.98931,-4.02387c-0.0378,-0.0656 -0.07472,-0.13151 -0.11064,-0.1976c-0.62924,0.11942 -1.25355,0.30705 -1.87468,0.60154c-2.71922,1.28922 -5.34221,3.74726 -8.51941,3.77683c-2.1532,-0.56572 -4.5503,-1.89644 -6.67503,-2.28384c-1.8171,-0.33131 -2.32433,1.01948 -3.90089,1.37377c-1.05066,0.2361 -2.30091,0.12753 -3.37481,0.18413c-3.15583,0.14655 -5.54439,-2.81594 -8.21351,-3.75156c-1.45567,-0.51027 -3.47327,0.09782 -5.08487,0.81195c-0.28398,0.3571 -0.50708,0.70261 -0.58927,1.02259c-0.03515,0.13688 -0.16778,1.13334 -0.3337,2.18773c0.11712,0.9774 0.08585,2.06913 -0.132,3.20937c-0.38943,2.03829 -3.58716,2.56421 -4.13944,0.35509c-0.22375,-0.89499 -0.08723,-2.08693 -0.15964,-2.97277c-0.00077,-0.00944 -0.00199,-0.01842 -0.00365,-0.02693c-0.14914,0.04135 -0.30627,0.06344 -0.46857,0.06344c-0.0893,0 -0.17704,-0.00669 -0.26274,-0.01959c-0.24727,0.12974 -0.50305,0.24235 -0.7706,0.33203c-3.91931,1.31376 -6.017,-1.85788 -8.48255,-3.96909c-4.75352,-3.0392 -10.2047,-0.08892 -14.55564,-3.82464c-0.96783,-2.22779 -0.46636,-4.57406 -1.61186,-6.7875c-0.62951,-1.21639 -1.66548,-0.94995 -2.59739,-1.70662c-0.77614,-0.63017 -0.50944,-3.0312 -0.33845,-3.85976c-0.16159,-2.64847 1.72354,-6.72324 4.37691,-9.606c2.08822,-2.26874 5.04056,-3.66374 5.19904,-3.96739c0.55853,-1.07016 -0.10799,-2.48519 1.23822,-3.44547c1.13801,-0.81176 3.27193,0.16717 4.28743,-0.53861c0.13655,-0.0949 0.91588,-2.31537 1.07095,-2.65125c0.7299,-3.42965 4.7862,-3.33774 7.52748,-2.32661c1.16969,0.43144 1.98776,1.40437 3.00282,1.95123c0.4386,-0.02335 0.87723,-0.04573 1.31614,-0.06258c1.22417,-0.46174 2.30144,-1.20433 3.49684,-1.66299c3.37623,-1.29543 6.96126,1.20163 9.32394,3.24112c4.88646,2.4613 9.66936,-0.91294 12.48393,-4.61518c2.61409,-1.89032 7.16006,-0.90407 9.71048,0.61119c1.48338,0.88131 3.10154,2.40197 4.86848,2.30885c1.30257,-0.05528 2.43669,-0.80053 3.72021,-1.02329c3.98827,-0.6922 9.50648,0.81177 11.92029,3.99188c4.90966,2.7376 8.90223,-3.41513 13.67772,1.46045c1.76023,1.79712 0.40889,3.06721 0.84171,4.44844c0.13428,0.42851 0.58241,0.75735 1.06247,1.05556c2.53985,0.36236 5.22133,1.52269 6.36359,3.81094c-0.03086,0.43611 -0.05334,0.88903 -0.06857,1.34145c-0.23428,0.44435 -0.49204,0.89277 -0.73513,1.34303c-0.36265,1.76728 -0.46577,3.59414 -0.70347,5.39163c0.05641,0.8603 -0.47645,2.22901 -2.00075,3.41684c-1.50306,1.17128 -3.99399,2.16417 -4.47702,2.67451c-0.20385,0.65121 -0.3513,1.30865 -0.45195,1.88501c0.18259,0.67124 -0.35752,1.87902 -1.20952,2.52714c-0.89087,0.6777 -2.1074,0.78093 -2.47619,0.7753v0.00001c-1.09468,0.1295 -2.22102,0.2625 -3.30928,0.31006c-2.34199,0.95961 -3.43802,3.66363 -6.00962,4.20567c-1.47272,0.31042 -4.89362,-1.2819 -6.57883,-1.77245c-0.49242,2.3943 -2.35505,5.52659 -4.27964,4.42682z" fill="#dcdc5e"/><g><g fill="#49491f"><path d="M287.2785,170.61167c-0.49329,0.6373 -1.03325,0.90357 -1.61434,1.02443c-1.01712,0.21156 -2.16025,-0.02235 -3.39964,0.50833c-3.8223,1.63662 -5.40654,5.84423 -5.81318,9.62152c-0.47789,4.43895 7.30026,6.12769 10.24274,6.25734c0.82743,0.03646 2.79422,-0.69869 3.47222,-0.27533c1.09161,0.68165 1.1222,2.20334 -0.29865,2.38178c-2.77379,0.34838 -5.39481,0.42116 -8.21303,-0.29281c-10.01228,-2.53657 -10.76176,-11.89595 -3.31695,-18.14241c1.82007,-1.5271 3.81708,-2.17737 6.19295,-2.32766c0.45095,-0.02853 2.01299,-0.41057 2.25816,0.14167z"/><path d="M300.97821,174.72878c0.94053,0.26764 1.46271,1.34915 0.81641,2.01491c-0.90028,0.92737 -3.30523,0.18984 -4.48231,0.93418c-0.40727,0.25754 -1.55906,1.06746 -1.77344,2.57123c-0.24825,1.74135 0.47955,4.23922 0.58712,5.10921c0.15239,1.2326 1.02159,4.0882 -0.90462,4.66124c-2.85557,0.84951 -2.28293,-5.01001 -2.37696,-5.71892c-0.07572,-0.5708 -0.13987,-1.19031 -0.20064,-1.76156c-0.06991,-0.6571 -0.12888,-1.37455 -0.20807,-2.03097c-0.20398,-1.69108 -0.27675,-1.98086 -0.68707,-3.7058c-0.20957,-0.88102 -0.49065,-1.78744 -0.58936,-2.6766c-0.01462,-0.10486 -0.01168,-0.21303 0.01083,-0.32235c0.13585,-0.66002 0.93332,-1.11252 1.78117,-1.0107c0.04354,0.00523 0.08635,0.01181 0.1284,0.0197c0.34054,0.04402 0.66469,0.19225 0.91413,0.47622c0.61027,0.69472 0.6082,2.12704 0.778,2.93861c1.70256,-1.20625 4.37447,-2.01968 6.2064,-1.49837z"/><path d="M302.00277,180.64154l0.45544,-1.51033l0.01072,-0.0177l0.00146,-0.02037l0.36936,-1.08924l-0.00418,-0.01507l0.01986,-0.03114l0.00417,-0.01229l0.1594,-0.24426l0.15673,-0.24583l0.00962,-0.0091l0.02019,-0.03094l0.01601,-0.00326l0.52848,-0.49933l0.17538,-0.09955l0.1556,-0.12609l0.88996,-0.42087l0.19395,-0.04056l0.18363,-0.07245l2.09217,-0.29674l0.09601,0.00895l0.09382,-0.0221l1.64646,0.00438l0.06663,0.01611l0.06824,-0.00887l1.77166,0.1861l0.1387,0.0491l0.1474,0.01371l1.07361,0.36563l0.13132,0.08368l0.14861,0.05122l0.75601,0.4857l0.08031,0.08528l0.06745,0.01308l0.1274,0.19383l0.16022,0.17012l-0.00526,0.06561l0.06386,0.09715l0.18559,0.54465l0.01405,0.19385l0.04786,0.18871l-0.00341,0.42322l-0.01783,0.06601l0.00901,0.0675l-0.06771,0.54398l-0.07921,0.19928l-0.05002,0.20762l-0.33236,0.62417l0.00128,0.00822l-0.01662,0.02058l-0.0381,0.07155l-0.17847,0.19656l-0.16639,0.20599l-0.06592,0.04987l-0.01782,0.01963l-0.0087,0.00044l-0.86327,0.65306l-0.06352,0.02753l-0.04832,0.04811l-1.39998,0.84275l-0.15701,0.04942l-0.14123,0.08228l-2.60267,0.77908l-0.19421,0.01101l-0.18905,0.04452l-2.59634,-0.0069l-0.11147,-0.02696l-0.11493,0.00685l-0.31914,-0.05633l0.00787,0.06408l0.22927,0.53585l0.25784,0.50072l0.21965,0.31883l0.29989,0.22483l1.62303,0.7552l0.67875,0.20168l1.35332,0.28496l1.25737,0.16722l1.35501,0.00361l0.30421,-0.03545l0.64391,-0.2027l0.0103,-0.00974c0,0 1.18886,-0.33122 1.79111,0.00476c0.60225,0.33599 0.32638,1.17657 0.32638,1.17657l-0.21926,0.3439l0.00004,0.00078l-0.00162,0.00169l-0.1193,0.18713l-0.12763,0.12058l-0.10865,0.06168l-0.08557,0.08889l-0.19095,0.12042l-0.15975,0.0539l-0.14342,0.08633l-0.95231,0.29978l-0.12585,0.0089l-0.11799,0.04316l-0.50709,0.05912l-0.07937,-0.0094l-0.07779,0.01833l-1.51981,-0.00404l-0.08436,-0.02041l-0.08666,0.00886l-1.3917,-0.18508l-0.04701,-0.01814l-0.05078,0.00136l-1.45406,-0.30619l-0.04874,-0.02322l-0.05448,-0.00293l-0.82129,-0.24403l-0.08271,-0.04815l-0.0949,-0.0191l-1.82963,-0.85134l-0.10292,-0.0827l-0.12294,-0.05237l-0.56652,-0.42474l-0.12436,-0.15333l-0.14959,-0.13115l-0.37557,-0.54515l-0.02635,-0.07203l-0.05162,-0.05816l-0.31176,-0.60545l-0.00934,-0.04158l-0.02634,-0.03423l-0.31079,-0.72636l-0.02434,-0.16224l-0.06077,-0.15311l-0.11887,-0.96771l0.01023,-0.07583l-0.01882,-0.07418l0.00924,-1.14875l0.009,-0.03332l-0.00651,-0.03376l0.07209,-1.08812l0.04209,-0.12644zM305.16649,181.4597l2.28616,0.00607l2.25738,-0.67572l1.20173,-0.7234l0.68338,-0.51697l0.15691,-0.29468l0.03276,-0.26316l0.00107,-0.13232l-0.25288,-0.16247l-0.78561,-0.26754l-1.55747,-0.1636l-1.4834,-0.00395l-1.79974,0.25527l-0.52583,0.24867l-0.20725,0.19582l-0.28728,0.84717l-0.38394,1.27323c0.1121,0.04914 0.66404,0.37758 0.66404,0.37758z"/><path d="M319.47693,180.59056c-0.32351,0.41213 -1.46367,1.56309 -0.85218,3.6584c0.71945,2.46531 2.6801,1.95654 3.01213,2.35278c1.13883,-0.05173 2.31017,-0.41989 2.69243,-1.11668c0.30084,-0.54837 0.99763,-2.73683 0.45099,-3.86087c-0.69539,-1.42993 -2.76411,-1.76985 -3.25982,-1.7103c-0.89557,0.10757 -1.80411,0.49733 -2.04355,0.67667zM324.14135,174.08796c-0.07957,-1.38468 -1.62991,-8.33244 0.20354,-8.91717c0.95543,-0.30471 2.14618,6.05008 2.21432,6.74858c0.23405,2.39901 0.47895,4.92636 1.22621,7.27893c0.59122,1.86129 0.35451,4.1985 1.37766,5.92c0.72041,1.21211 4.1199,1.77219 1.63911,3.34989c-0.83391,0.53034 -2.60677,-0.60754 -3.11702,-1.1697c-0.32982,-0.36337 -0.57548,-1.60776 -0.84265,-1.19755c-2.97594,4.56917 -12.22176,3.52847 -11.02897,-2.73304c0.01437,-0.07541 0.03013,-0.15267 0.04728,-0.23158c0.00477,-1.25373 0.4953,-2.56489 1.54449,-3.79107c0.04254,-0.04972 0.10654,-0.11853 0.18805,-0.20099c0.82906,-1.135 1.92638,-1.96257 3.2831,-1.89217c1.1846,-0.27777 2.61662,-0.07651 3.7963,0.48157c-0.22865,-1.25051 -0.4646,-2.48264 -0.53144,-3.64571z"/><path d="M337.11016,187.07455c-0.2589,1.34708 -1.62008,2.28886 -2.62582,0.6962c-0.3064,-0.48519 0.28974,-1.69561 0.17294,-2.29483c-0.44716,-2.29427 -0.84163,-4.66704 -1.14269,-6.9904c-0.02341,-0.15157 -0.01679,-0.31011 0.02443,-0.46831c0.04693,-0.18006 0.13377,-0.34078 0.24927,-0.47564c0.1658,-0.20801 0.37436,-0.33337 0.59755,-0.38902c0.21575,-0.06642 0.45257,-0.07851 0.68834,-0.02354c0.53333,0.12437 0.90269,0.55495 0.95443,1.04851c0.62353,2.57954 1.60839,6.1559 1.08156,8.89703z"/><path d="M334.71794,171.661c2.35573,0.37137 1.76075,3.60481 -0.44963,3.36074c-0.90034,-0.09941 -1.3683,-0.63355 -1.46403,-1.24749c-0.04528,-0.11436 -0.07296,-0.23735 -0.07975,-0.36617c-0.0212,-0.40227 0.16614,-0.76946 0.4715,-1.00557c0.32558,-0.40246 0.83771,-0.69791 1.51048,-0.73337z"/><path d="M347.20589,174.36751c0.80056,-0.13387 2.77967,-0.75566 3.44333,0.15632c1.67998,2.30855 -4.16798,2.42102 -4.9454,2.56616c-0.09938,0.01855 -0.19862,0.0381 -0.29768,0.05868c0.07883,1.02667 0.12249,2.05213 0.07006,3.08801c-0.10356,2.04581 0.39661,5.05033 -0.20822,7.02225c-0.37472,1.22169 -1.57558,1.37765 -2.42996,0.36327c-0.4345,-0.51587 -0.16119,-2.14645 -0.07193,-2.82878c0.26448,-2.02163 0.30865,-4.76291 0.18047,-6.77539c-0.75817,0.46922 -1.49075,1.09169 -2.29512,1.28478c-0.07414,0.01779 -0.15648,0.02554 -0.24374,0.02399c-0.16257,0.00708 -0.32912,-0.01583 -0.49121,-0.07245c-0.10812,-0.03776 -0.20752,-0.08816 -0.29702,-0.14883c-0.50365,-0.27453 -0.86117,-0.77932 -0.46144,-1.37175c0.00358,-0.01003 0.00732,-0.02005 0.01118,-0.03005c0.09952,-0.25671 0.28036,-0.46244 0.50424,-0.6002c0.79845,-0.80989 1.86877,-1.35605 3.02545,-1.74852c-0.07624,-0.54406 -0.68793,-3.45645 -0.63734,-5.12494c-0.04354,-0.211 -0.02857,-0.43604 0.05556,-0.65305c0.01143,-0.0295 0.02394,-0.05832 0.03747,-0.08645c0.27408,-0.57 0.96534,-0.85291 1.59038,-0.63459c0.59917,0.20928 0.93019,0.80678 0.79755,1.3868c0.50691,1.37658 0.53733,3.05789 0.64607,4.47674c0.70026,-0.13651 1.38541,-0.24629 2.01733,-0.35196z"/><path d="M361.39881,171.42329c1.1735,0.66399 1.189,2.39551 -0.41134,2.5727c-0.59081,0.06542 -0.88021,-0.6764 -1.40188,-0.76187c-0.20953,-0.03432 -2.10347,-0.39391 -3.06261,-0.41979c-1.14794,-0.03096 -1.84358,0.19968 -2.81188,0.35341c-0.26048,0.35733 0.07011,0.89828 0.18982,1.22675c1.56605,4.29702 11.01748,1.40846 9.27377,8.01902c-0.86112,3.2646 -4.80417,3.98888 -7.69719,4.42259c-0.57067,0.08556 -2.76868,0.40023 -3.29834,0.14112c-1.25407,-0.61349 -1.20017,-1.80154 -0.11649,-2.34329c2.02314,-1.01141 8.76238,0.70213 8.70606,-3.38709c-0.01839,-1.33512 -2.08984,-1.43081 -3.24541,-1.77686c-2.04525,-0.61246 -4.30091,-1.69489 -5.53677,-3.43589c-0.39155,-0.55159 -0.59502,-2.83006 0.10669,-4.0782c0.78275,-1.39233 3.24958,-1.57493 3.81562,-1.4928c0.26875,-0.20894 4.72944,0.52986 5.48996,0.96019z"/></g><g fill="#6d6d2f"><path d="M285.78602,171.17462c-0.49329,0.6373 -1.03325,0.90357 -1.61434,1.02443c-1.01712,0.21156 -2.16025,-0.02235 -3.39964,0.50833c-3.8223,1.63662 -5.40654,5.84423 -5.81318,9.62152c-0.47789,4.43895 7.30026,6.12769 10.24274,6.25734c0.82743,0.03646 2.79422,-0.69869 3.47222,-0.27533c1.09161,0.68165 1.12221,2.20334 -0.29865,2.38178c-2.77379,0.34838 -5.39481,0.42116 -8.21303,-0.29281c-10.01228,-2.53657 -10.76176,-11.89595 -3.31695,-18.14241c1.82007,-1.5271 3.81708,-2.17737 6.19295,-2.32766c0.45095,-0.02853 2.01299,-0.41057 2.25816,0.14167z"/><path d="M299.48573,175.29172c0.94053,0.26764 1.46271,1.34915 0.81641,2.01491c-0.90028,0.92737 -3.30523,0.18984 -4.48231,0.93419c-0.40727,0.25754 -1.55906,1.06746 -1.77344,2.57123c-0.24825,1.74135 0.47955,4.23922 0.58712,5.10921c0.15239,1.2326 1.02159,4.0882 -0.90462,4.66124c-2.85557,0.84951 -2.28293,-5.01001 -2.37696,-5.71892c-0.07572,-0.5708 -0.13987,-1.1903 -0.20064,-1.76156c-0.06991,-0.6571 -0.12888,-1.37455 -0.20807,-2.03097c-0.20398,-1.69108 -0.27675,-1.98086 -0.68707,-3.7058c-0.20957,-0.88102 -0.49065,-1.78744 -0.58936,-2.6766c-0.01462,-0.10486 -0.01168,-0.21303 0.01083,-0.32235c0.13585,-0.66002 0.93332,-1.11252 1.78117,-1.0107c0.04354,0.00523 0.08635,0.01181 0.1284,0.0197c0.34054,0.04402 0.66469,0.19225 0.91413,0.47622c0.61027,0.69472 0.6082,2.12704 0.77801,2.93861c1.70256,-1.20625 4.37447,-2.01968 6.2064,-1.49837z"/><path d="M300.51027,181.20449l0.45544,-1.51033l0.01072,-0.0177l0.00146,-0.02037l0.36936,-1.08924l-0.00418,-0.01508l0.01986,-0.03114l0.00417,-0.01229l0.1594,-0.24426l0.15673,-0.24583l0.00962,-0.0091l0.02019,-0.03094l0.01602,-0.00326l0.52848,-0.49933l0.17538,-0.09955l0.1556,-0.12609l0.88996,-0.42087l0.19395,-0.04056l0.18363,-0.07245l2.09217,-0.29674l0.09601,0.00895l0.09382,-0.0221l1.64646,0.00438l0.06663,0.01611l0.06824,-0.00887l1.77166,0.1861l0.1387,0.04911l0.1474,0.01371l1.07361,0.36563l0.13132,0.08368l0.14861,0.05122l0.75601,0.4857l0.08031,0.08527l0.06745,0.01308l0.1274,0.19383l0.16023,0.17013l-0.00526,0.06561l0.06386,0.09715l0.18559,0.54465l0.01405,0.19385l0.04786,0.18871l-0.00341,0.42322l-0.01783,0.06602l0.009,0.0675l-0.06771,0.54397l-0.07921,0.19928l-0.05002,0.20762l-0.33236,0.62417l0.00128,0.00822l-0.01662,0.02058l-0.0381,0.07155l-0.17847,0.19656l-0.16639,0.20599l-0.06592,0.04987l-0.01782,0.01963l-0.0087,0.00044l-0.86327,0.65306l-0.06352,0.02753l-0.04832,0.04811l-1.39997,0.84275l-0.15701,0.04942l-0.14123,0.08228l-2.60267,0.77908l-0.19421,0.01101l-0.18905,0.04452l-2.59634,-0.0069l-0.11147,-0.02696l-0.11493,0.00685l-0.31914,-0.05633l0.00787,0.06408l0.22927,0.53585l0.25783,0.50072l0.21965,0.31883l0.29989,0.22483l1.62303,0.7552l0.67875,0.20168l1.35332,0.28496l1.25737,0.16722l1.35501,0.00361l0.30422,-0.03545l0.6439,-0.2027l0.0103,-0.00974c0,0 1.18886,-0.33122 1.79111,0.00476c0.60225,0.33599 0.32638,1.17657 0.32638,1.17657l-0.21926,0.3439l0.00005,0.00079l-0.00162,0.00169l-0.1193,0.18713l-0.12763,0.12058l-0.10866,0.06167l-0.08557,0.08889l-0.19095,0.12042l-0.15975,0.0539l-0.14342,0.08633l-0.95231,0.29978l-0.12585,0.0089l-0.11799,0.04316l-0.50709,0.05912l-0.07937,-0.0094l-0.07779,0.01833l-1.51981,-0.00404l-0.08436,-0.02041l-0.08666,0.00886l-1.3917,-0.18508l-0.04701,-0.01813l-0.05078,0.00136l-1.45406,-0.30619l-0.04874,-0.02322l-0.05448,-0.00293l-0.82129,-0.24403l-0.08271,-0.04815l-0.0949,-0.0191l-1.82963,-0.85134l-0.10292,-0.0827l-0.12294,-0.05237l-0.56652,-0.42474l-0.12436,-0.15332l-0.14959,-0.13116l-0.37557,-0.54515l-0.02635,-0.07203l-0.05162,-0.05816l-0.31176,-0.60545l-0.00934,-0.04158l-0.02634,-0.03423l-0.31079,-0.72637l-0.02434,-0.16224l-0.06077,-0.15311l-0.11887,-0.96771l0.01023,-0.07583l-0.01882,-0.07418l0.00924,-1.14875l0.009,-0.03332l-0.00651,-0.03376l0.07209,-1.08812l0.04209,-0.12644zM303.67401,182.02264l2.28616,0.00607l2.25738,-0.67572l1.20173,-0.7234l0.68338,-0.51697l0.15691,-0.29468l0.03276,-0.26316l0.00107,-0.13233l-0.25288,-0.16246l-0.78561,-0.26754l-1.55747,-0.1636l-1.4834,-0.00395l-1.79974,0.25527l-0.52583,0.24867l-0.20725,0.19582l-0.28728,0.84717l-0.38394,1.27323c0.1121,0.04914 0.66404,0.37758 0.66404,0.37758z"/><path d="M317.98443,181.15351c-0.32351,0.41212 -1.46367,1.56309 -0.85218,3.6584c0.71946,2.46531 2.6801,1.95654 3.01213,2.35278c1.13883,-0.05173 2.31016,-0.41989 2.69243,-1.11668c0.30084,-0.54837 0.99763,-2.73683 0.45099,-3.86087c-0.69539,-1.42993 -2.76411,-1.76985 -3.25982,-1.7103c-0.89557,0.10757 -1.80412,0.49733 -2.04355,0.67667zM322.64886,174.6509c-0.07957,-1.38468 -1.62991,-8.33244 0.20354,-8.91717c0.95542,-0.30471 2.14618,6.05008 2.21432,6.74858c0.23405,2.39901 0.47895,4.92636 1.22621,7.27893c0.59122,1.86129 0.35451,4.1985 1.37766,5.92c0.72041,1.21211 4.1199,1.77219 1.63911,3.34989c-0.83391,0.53034 -2.60677,-0.60754 -3.11702,-1.1697c-0.32981,-0.36337 -0.57548,-1.60776 -0.84265,-1.19755c-2.97594,4.56917 -12.22176,3.52847 -11.02897,-2.73304c0.01437,-0.07541 0.03013,-0.15267 0.04728,-0.23158c0.00477,-1.25373 0.4953,-2.56489 1.54449,-3.79107c0.04254,-0.04972 0.10654,-0.11853 0.18805,-0.20099c0.82906,-1.135 1.92638,-1.96257 3.2831,-1.89217c1.1846,-0.27777 2.61662,-0.07651 3.7963,0.48157c-0.22865,-1.25051 -0.46461,-2.48264 -0.53144,-3.64571z"/><path d="M335.61767,187.63749c-0.25891,1.34708 -1.62008,2.28886 -2.62582,0.69621c-0.3064,-0.48519 0.28974,-1.69561 0.17294,-2.29483c-0.44717,-2.29427 -0.84163,-4.66704 -1.14269,-6.9904c-0.02342,-0.15157 -0.01679,-0.31011 0.02443,-0.46831c0.04693,-0.18006 0.13377,-0.34078 0.24927,-0.47564c0.1658,-0.20801 0.37436,-0.33337 0.59755,-0.38902c0.21575,-0.06642 0.45257,-0.07851 0.68834,-0.02354c0.53333,0.12437 0.90269,0.55495 0.95443,1.04851c0.62353,2.57954 1.60839,6.1559 1.08156,8.89703z"/><path d="M333.22544,172.22393c2.35573,0.37137 1.76075,3.60481 -0.44963,3.36074c-0.90034,-0.09941 -1.3683,-0.63355 -1.46403,-1.24749c-0.04528,-0.11436 -0.07296,-0.23735 -0.07975,-0.36617c-0.0212,-0.40227 0.16614,-0.76946 0.4715,-1.00557c0.32558,-0.40246 0.83771,-0.69791 1.51048,-0.73337z"/><path d="M345.7134,174.93046c0.80056,-0.13387 2.77968,-0.75565 3.44333,0.15632c1.67998,2.30855 -4.16798,2.42101 -4.9454,2.56616c-0.09938,0.01855 -0.19863,0.0381 -0.29768,0.05868c0.07883,1.02667 0.12249,2.05214 0.07006,3.08802c-0.10356,2.04581 0.39661,5.05033 -0.20822,7.02225c-0.37472,1.22169 -1.57558,1.37765 -2.42996,0.36328c-0.4345,-0.51587 -0.16119,-2.14645 -0.07193,-2.82879c0.26448,-2.02163 0.30865,-4.76291 0.18047,-6.77539c-0.75817,0.46922 -1.49075,1.09169 -2.29512,1.28478c-0.07414,0.01779 -0.15649,0.02554 -0.24374,0.02398c-0.16257,0.00708 -0.32912,-0.01583 -0.49121,-0.07245c-0.10812,-0.03776 -0.20752,-0.08816 -0.29702,-0.14883c-0.50365,-0.27453 -0.86117,-0.77932 -0.46144,-1.37175c0.00358,-0.01003 0.00732,-0.02005 0.01118,-0.03006c0.09952,-0.25671 0.28036,-0.46244 0.50424,-0.6002c0.79845,-0.80989 1.86878,-1.35605 3.02545,-1.74852c-0.07624,-0.54407 -0.68793,-3.45644 -0.63734,-5.12493c-0.04354,-0.211 -0.02856,-0.43604 0.05556,-0.65305c0.01143,-0.0295 0.02394,-0.05832 0.03747,-0.08646c0.27408,-0.57 0.96534,-0.85291 1.59038,-0.6346c0.59917,0.20928 0.9302,0.80678 0.79755,1.3868c0.5069,1.37658 0.53733,3.05789 0.64605,4.47674c0.70026,-0.13651 1.38541,-0.24629 2.01733,-0.35196z"/><path d="M359.90631,171.98623c1.1735,0.66399 1.189,2.39551 -0.41134,2.5727c-0.59081,0.06542 -0.88021,-0.6764 -1.40188,-0.76187c-0.20953,-0.03433 -2.10347,-0.39392 -3.06261,-0.41979c-1.14794,-0.03097 -1.84359,0.19969 -2.81188,0.35342c-0.26048,0.35733 0.07011,0.89828 0.18982,1.22675c1.56605,4.29702 11.01748,1.40846 9.27377,8.01902c-0.86112,3.2646 -4.80418,3.98888 -7.69719,4.42259c-0.57067,0.08556 -2.76868,0.40024 -3.29834,0.14112c-1.25407,-0.61349 -1.20018,-1.80154 -0.1165,-2.3433c2.02314,-1.01141 8.76238,0.70213 8.70606,-3.38709c-0.01839,-1.33512 -2.08984,-1.43081 -3.24542,-1.77687c-2.04525,-0.61246 -4.30091,-1.69489 -5.53677,-3.4359c-0.39155,-0.55159 -0.59502,-2.83006 0.10669,-4.0782c0.78275,-1.39233 3.24958,-1.57494 3.81562,-1.4928c0.26875,-0.20893 4.72943,0.52986 5.48996,0.96019z"/></g></g><path d="M302.0706,193.44842c0.99503,0.0995 0.89553,1.09455 0.89553,1.09455l-0.10739,1.06142c0.00185,1.74923 0.07538,3.0352 -0.27961,4.42735l0.26143,0.05229l-0.21859,1.09294c-0.08395,0.46739 -0.49266,0.82205 -0.98422,0.82205c-0.36378,0 -0.68219,-0.19425 -0.85717,-0.48468l-0.54638,-0.87421l0.0943,-0.05894l-0.20755,-0.19538c-0.04237,-1.51633 -0.13027,-2.80039 -0.45938,-4.28097c0,0 -0.21693,-0.97619 0.75925,-1.19312c0.19549,-0.04344 0.36053,-0.03903 0.49947,-0.0042l0.05575,-0.56356c0,0 0.09951,-0.99504 1.09454,-0.89553z" fill="#dcdc5e"/><path d="M276.49203,192.29081c0.11102,-0.27976 0.39896,-0.72634 1.08792,-0.61152c0.9864,0.1644 0.82199,1.15079 0.82199,1.15079l-0.10362,0.6127c-0.12041,1.068 0.41755,5.86601 -0.47926,6.44739c-3.52925,2.28791 -2.73684,-5.30265 -2.73684,-6.66894c0,0 0,-1 1,-1c0.16119,0 0.2964,0.02598 0.40982,0.06957z" fill="#dcdc5e"/><path d="M367.65962,190.93439c0,0 -0.25318,0.31649 -0.61996,0.29802c-0.18272,0.19808 -0.44448,0.32216 -0.73522,0.32216c-0.55228,0 -1,-0.44771 -1,-1v-1.22222c0,-1.69218 -0.00954,-3.36167 -0.10939,-5.05239c0,0 -0.05872,-0.99828 0.93955,-1.057c0.36989,-0.02176 0.61077,0.1016 0.76749,0.26552c0.11525,-0.39259 0.23034,-0.76593 0.33341,-1.11015l-0.04217,-0.37932c0,0 0,-1 1,-1c1,0 1,1 1,1l-0.04218,0.95401c-0.28505,0.94812 -0.53091,1.88703 -0.68552,2.84818c0.14021,1.80566 0.34938,3.62216 -0.80601,5.13317z" fill="#dcdc5e"/><path d="M279.86267,200.7387c0.11044,-0.09643 0.2691,-0.16569 0.49702,-0.16569c0.75,0 0.75,0.75 0.75,0.75l-0.05364,0.15002c0.51722,1.35089 0.47801,2.24435 -0.10654,3.11814l0.19616,0.1177l-0.42149,0.7025c-0.12955,0.22468 -0.37221,0.37591 -0.65019,0.37591c-0.41422,0 -0.75,-0.33578 -0.75,-0.75c0,-0.90476 0,-2.66667 0,-3.57143c0,0 0,-0.60152 0.5387,-0.72717z" fill="#dcdc5e"/><path d="M275.07397,209.7873c-0.75,0 -0.75,-0.75 -0.75,-0.75l0.00754,-0.24893c0.09755,-0.67339 0.1365,-1.35636 0.13532,-2.03679c0,0 0,-0.75 0.75,-0.75c0.75,0 0.75,0.75 0.75,0.75c-0.00119,0.75132 -0.04546,1.50497 -0.15039,2.24892l0.00753,0.0368c0,0 0,0.75 -0.75,0.75z" fill="#dcdc5e"/><path d="M321.07397,199.85872c0.75,0 0.75,0.75 0.75,0.75v0.42857c-0.00028,0.0873 -0.01479,0.17882 -0.04138,0.26944c0.0569,0.14863 0.11381,0.29724 0.17071,0.44587l-0.05478,0.14183h0.06832v0.85715c0,0.41422 -0.33578,0.75 -0.75,0.75c-0.37645,0 -0.68812,-0.27735 -0.74182,-0.63886l-0.14083,-0.84498l0.12915,-0.02152c-0.07619,-0.17917 -0.15238,-0.35834 -0.22857,-0.53751c0,0 -0.17069,-0.42673 0.08921,-0.74571v-0.10427c0,0 0,-0.75 0.75,-0.75z" fill="#dcdc5e"/><path d="M305.6142,202.0375c-0.04782,-0.19126 -0.02591,-0.43232 0.21515,-0.67339c0.53033,-0.53033 1.06066,0 1.06066,0l0.49784,0.70998l0.14103,0.98722c0.00616,0.0387 0.00936,0.0784 0.00936,0.11884c0,0.41422 -0.33578,0.75 -0.75,0.75c-0.3154,0 -0.58533,-0.19468 -0.69617,-0.47044l-0.42176,-0.98412c0,0 -0.08755,-0.20428 -0.05613,-0.43809z" fill="#dcdc5e"/><path d="M358.46683,199.03365v-0.14286c0.00254,-0.54357 0.2244,-1.0955 0.53819,-1.53937l0.6761,0.25365c0,0.38095 0,0.76191 0,1.14286c0,0 0,0.75 -0.75,0.75c-0.75,0 -0.75,-0.75 -0.75,-0.75c0,-0.38095 0,-0.76191 0,-1.14286l0.6761,-1.74635c0.50131,0.95236 1.1054,1.95583 1.10962,3.03206v0.14286c0,0 0,0.75 -0.75,0.75c-0.75,0 -0.75,-0.75 -0.75,-0.75z" fill="#dcdc5e"/><path d="M371.07397,196.64444c-0.75,0 -0.75,-0.75 -0.75,-0.75c0,-0.42857 0,-1.85714 0,-2.28571c0,0 0,-0.75 0.75,-0.75c0.75,0 0.75,0.75 0.75,0.75c0,0.42857 0,0.85714 0,1.28571v1c0,0 0,0.75 -0.75,0.75z" fill="#dcdc5e"/><path d="M367.50254,188.71587c0.75,0 0.75,0.75 0.75,0.75l-0.21967,0.9589c-0.19047,0.19047 -0.38095,0.38096 -0.57143,0.57143c0,0 -0.53033,0.53033 -1.06066,0c-0.53033,-0.53033 0,-1.06066 0,-1.06066c0.19047,-0.19047 0.38095,-0.38096 0.57142,-0.57143l-0.21967,0.10176c0,0 0,-0.75 0.75,-0.75z" fill="#dcdc5e"/><path d="M350.78858,158.1602c-0.38457,-1.31591 0.93134,-1.97387 0.93134,-1.97387l1.90633,-0.11392l1.54021,0.84012c0.56047,0.29169 0.94322,0.87782 0.94322,1.55334c0,0.92656 -0.72008,1.68493 -1.63117,1.74603l-1.84176,0.14167c0,0 -1.74484,0.13422 -1.87906,-1.61062c-0.01681,-0.21855 -0.00414,-0.41182 0.03088,-0.58274z" fill="#dcdc5e"/><path d="M367.46683,166.46587c0,-0.9665 0.7835,-1.75 1.75,-1.75c0.9665,0 1.75,0.7835 1.75,1.75c0,0.9665 -0.7835,1.75 -1.75,1.75c-0.9665,0 -1.75,-0.7835 -1.75,-1.75z" fill="#dcdc5e"/><path d="M311.21682,154.85872c0.9665,0 1.75,0.7835 1.75,1.75c0,0.52293 -0.22937,0.9923 -0.59299,1.31298c-0.27912,0.59579 -0.88416,1.00845 -1.58558,1.00845c-0.9665,0 -1.75,-0.7835 -1.75,-1.75c0,-0.52293 0.22937,-0.9923 0.59299,-1.31297c0.27912,-0.59579 0.88416,-1.00845 1.58558,-1.00845z" fill="#dcdc5e"/><path d="M309.60968,157.32301c0,-0.9665 0.7835,-1.75 1.75,-1.75c0.9665,0 1.75,0.7835 1.75,1.75c0,0.9665 -0.7835,1.75 -1.75,1.75c-0.9665,0 -1.75,-0.7835 -1.75,-1.75z" fill="#dcdc5e"/><path d="M332.66332,155.61589c0.27854,-0.69636 0.9749,-0.41781 0.9749,-0.41781l0.69807,0.27923c0.28484,0.10636 0.48768,0.38091 0.48768,0.70285c0,0.41421 -0.33579,0.75 -0.75,0.75c-0.04687,0 -0.09274,-0.0043 -0.13724,-0.01253l-0.84321,-0.14053l0.02833,-0.17001l-0.04072,-0.01629c0,0 -0.69636,-0.27854 -0.41781,-0.9749z" fill="#dcdc5e"/><path d="M303.75254,156.03729c0,-0.41421 0.33579,-0.75 0.75,-0.75c0.41421,0 0.75,0.33579 0.75,0.75c0,0.41421 -0.33579,0.75 -0.75,0.75c-0.41421,0 -0.75,-0.33579 -0.75,-0.75z" fill="#dcdc5e"/><path d="M363.18111,161.03729c0,-0.41421 0.33579,-0.75 0.75,-0.75c0.41421,0 0.75,0.33579 0.75,0.75c0,0.41421 -0.33579,0.75 -0.75,0.75c-0.41421,0 -0.75,-0.33579 -0.75,-0.75z" fill="#dcdc5e"/><path d="M276.47436,158.93123c0.10607,-0.74246 0.84853,-0.6364 0.84853,-0.6364l0.2259,0.03227l0.04806,-0.14418l0.48858,0.16286l0.02758,-0.0361c0,0 0.14607,0.03652 0.29095,0.14227l0.03363,0.01121c0.30647,0.09425 0.52924,0.3796 0.52924,0.71698c0,0.41421 -0.33579,0.75 -0.75,0.75c-0.04044,0 -0.08013,-0.0032 -0.11884,-0.00936l-0.98723,-0.14103c0,0 -0.74246,-0.10607 -0.6364,-0.84853z" fill="#dcdc5e"/><path d="M268.81465,162.28394c0.38673,-0.60491 1.18487,-0.90189 2.06327,-0.46737c1.02844,0.50873 0.81869,1.57048 0.16145,2.28507c-0.08831,0.18937 -0.24538,0.28907 -0.3863,0.34157c-0.75367,0.5372 -1.7868,0.61448 -2.41488,-0.54748c-0.54561,-1.00938 -0.06954,-1.43274 0.57646,-1.61179z" fill="#dcdc5e"/><path d="M267.46682,169.46586c0,-0.41421 0.33579,-0.75 0.75,-0.75c0.41421,0 0.75,0.33579 0.75,0.75c0,0.41421 -0.33579,0.75 -0.75,0.75c-0.41421,0 -0.75,-0.33579 -0.75,-0.75z" fill="#dcdc5e"/><path d="M268.60968,197.75158c0,-0.41421 0.33579,-0.75 0.75,-0.75c0.41421,0 0.75,0.33579 0.75,0.75c0,0.41421 -0.33579,0.75 -0.75,0.75c-0.41421,0 -0.75,-0.33579 -0.75,-0.75z" fill="#dcdc5e"/><path d="M264.47888,190.05086c0.19191,-1.2866 1.08011,-2.57351 2.486,-0.88513c0.79876,0.95925 0.32931,1.62949 -0.43341,2.00076c-0.01063,0.04748 -0.02601,0.09725 -0.04685,0.14935c-0.27854,0.69636 -0.9749,0.41781 -0.9749,0.41781l-0.47852,-0.22376c-0.20103,0.00086 -0.38092,-0.01973 -0.52148,-0.06195c0,0 -0.69636,-0.27854 -0.41781,-0.9749c0.09508,-0.2377 0.23885,-0.36181 0.38698,-0.42218z" fill="#dcdc5e"/><path d="M374.91959,182.37538l0.61112,0.27014c-0.02516,0.54751 0.38811,1.35014 -0.07548,1.64253c-2.2324,1.40799 -2.1419,-0.03166 -1.94097,-1.01286c-0.10903,-0.1111 -0.1903,-0.27671 -0.1903,-0.5236c0,-0.75 0.75,-0.75 0.75,-0.75l0.29977,0.13251c0.08047,0.00573 0.16851,0.0256 0.26448,0.06399c0.12106,0.04842 0.21265,0.10947 0.28137,0.1773z" fill="#dcdc5e"/></g></g></svg>