<svg version="1.1" xmlns="http://www.w3.org/2000/svg" xmlns:xlink="http://www.w3.org/1999/xlink" width="118.30749" height="105.66894" viewBox="0,0,118.30749,105.66894"><g transform="translate(-181.93178,-123.78776)"><g data-paper-data="{&quot;isPaintingLayer&quot;:true}" fill-rule="nonzero" stroke-linejoin="miter" stroke-miterlimit="10" stroke-dasharray="" stroke-dashoffset="0" style="mix-blend-mode: normal"><g stroke-linecap="butt"><path d="M288.375,207.45833c5.61856,4.91681 -4.86394,15.26507 -13.16667,16.91667c-13.24449,2.63463 -21.5,-5.58333 -21.5,-5.58333l6,-4.41667c0,0 5.91723,3.95885 11.501,1.66911c6.88667,-2.82402 10.29427,-14.59894 17.16566,-8.58578z" fill="#ecec68" stroke="#000000" stroke-width="2"/><path d="M276.63039,211.15282l4.33946,-4.67009l8.14976,7.57279l-4.33946,4.67008z" fill="#000000" stroke="none" stroke-width="0"/><path d="M271.19663,216.27579l4.50931,-3.08252l4.09743,9.23928l-5.50931,2.08252z" fill="#000000" stroke="none" stroke-width="0"/><path d="M263.35949,216.07027l5.60739,0.59853l-1.57637,8.46927l-6.35739,-1.72354z" fill="#000000" stroke="none" stroke-width="0"/></g><g data-paper-data="{&quot;index&quot;:null}" stroke-linecap="butt"><path d="M263.48253,210.65005c3.79155,2.92137 4.51895,6.84775 2.72119,9.18102c-1.79776,2.33327 -6.99547,1.96764 -10.78703,-0.95373c-3.79155,-2.92137 -4.74117,-7.2922 -2.94341,-9.62546c1.79776,-2.33327 7.21769,-1.52319 11.00925,1.39818z" fill="#ecec68" stroke="#000000" stroke-width="2"/><path d="M259.55186,220.79262l6.11741,-7.29303c0,0 3.15807,2.96033 0.90032,6.34629c-1.93947,2.90865 -7.01773,0.94673 -7.01773,0.94673z" fill="#000000" stroke="none" stroke-width="0"/><path d="M253.44075,216.90373l7.33963,-8.29303l2.78921,2.12408l-7.0063,8.62636z" fill="#000000" stroke="none" stroke-width="0"/></g><g stroke-linecap="butt"><path d="M230.17078,208.02965c1.79776,2.33327 0.84814,6.7041 -2.94341,9.62546c-3.79155,2.92137 -8.98926,3.287 -10.78702,0.95373c-1.79776,-2.33327 -1.07036,-6.25965 2.72119,-9.18102c3.79155,-2.92137 9.21148,-3.73145 11.00924,-1.39818z" fill="#ecec68" stroke="#000000" stroke-width="2"/><path d="M216.07447,218.62366c-2.25775,-3.38597 0.90032,-6.34629 0.90032,-6.34629l6.11741,7.29303c0,0 -5.07826,1.96191 -7.01773,-0.94674z" fill="#000000" stroke="none" stroke-width="0"/><path d="M226.08077,218.13891l-7.0063,-8.62636l2.78921,-2.12407l7.33963,8.29303z" fill="#000000" stroke="none" stroke-width="0"/></g><path d="M240.91494,226.18342c0,0.7405 -3.6377,1.8081 -9.04974,1.77241c-5.91985,-0.03904 -8.28349,-1.2374 -8.59956,-1.91835c-1.38426,-2.98226 0.39895,-5.24797 8.5651,-5.10799c4.02776,0.06904 7.27771,0.47006 8.5305,1.30635c1.39536,0.93146 0.5537,2.37617 0.5537,3.94758z" fill="#c5c556" stroke="#9b9b44" stroke-width="3" stroke-linecap="butt"/><path d="M250.09348,220.92948c8.16615,-0.13998 9.94936,2.12573 8.5651,5.10799c-0.31292,0.67415 -2.25852,2.13538 -8.35773,1.80566c-6.6718,-0.36067 -9.29157,-0.91172 -9.29157,-1.65972c0,-1.57638 -0.72955,-3.24678 0.67809,-4.17864c1.25539,-0.83106 4.39253,-1.0065 8.40611,-1.0753z" data-paper-data="{&quot;index&quot;:null}" fill="#c5c556" stroke="#9b9b44" stroke-width="3" stroke-linecap="butt"/><path d="M241.68733,219.36998c-6.67004,0.08177 -14.65905,0.16354 -14.8262,-0.84771c-0.62812,-3.80007 5.58333,-17.32891 5.58333,-17.32891l17.34171,-0.44122c0,0 5.49496,15.18096 5.74163,17.06643c0.24667,1.88547 -6.60945,1.46275 -13.84047,1.55141z" fill="#000000" stroke="#6e6e30" stroke-width="3" stroke-linecap="butt"/><g stroke="none" stroke-width="0" stroke-linecap="butt"><path d="M240.29728,209.31654c-46.35965,-2.06001 -56.38678,-31.33923 -56.38678,-31.33923c0,0 6.94231,-1.33033 12.20958,-8.39997c11.65131,-15.6382 18.70444,-43.75816 46.18168,-42.75008c28.69882,1.0529 33.02964,27.47404 43.82869,44.99263c4.34607,7.00795 12.14846,11.68541 12.14846,11.68541c0,0 -10.78985,27.90823 -57.98164,25.81124z" fill="#ecec68"/><path d="M297.33287,182.21392c0,0 -2.95548,11.4984 -14.67151,18.36562c-12.15244,7.12301 -32.05258,7.50706 -32.05258,7.50706c0,0 18.41351,-10.99426 18.58908,-42.91605c0.10037,-18.25193 -14.20715,-36.63631 -14.20715,-36.63631c0,0 10.79467,5.65111 18.02983,16.33879c5.78249,8.54184 7.96635,19.09861 11.68318,23.91588c1.81358,2.35051 2.8671,5.45917 4.9611,7.64987c3.44465,3.60369 7.66807,5.77514 7.66807,5.77514z" fill="#cbcb6a"/></g><path d="M200.58568,182.70945c0.13028,-3.06548 2.72097,-5.44493 5.78645,-5.31465c3.06548,0.13028 5.44494,2.72096 5.31466,5.78645c-0.13028,3.06548 -2.72097,5.44493 -5.78645,5.31465c-3.06548,-0.13028 -5.44494,-2.72097 -5.31466,-5.78645z" fill="#6e6e30" stroke="none" stroke-width="0" stroke-linecap="butt"/><path d="M269.62974,185.75506c0.13028,-3.06548 2.72096,-5.44492 5.78645,-5.31464c3.06549,0.13028 5.44494,2.72096 5.31466,5.78644c-0.13028,3.06548 -2.72097,5.44493 -5.78645,5.31465c-3.06549,-0.13028 -5.44493,-2.72097 -5.31465,-5.78645z" fill="#6e6e30" stroke="none" stroke-width="0" stroke-linecap="butt"/><g stroke="none" stroke-width="0" stroke-linecap="butt"><path d="M216.1416,137.89305l-9.24083,15.28808c0,0 -1.53366,-0.50827 -4.24175,-1.16603c-3.68061,-0.89398 -9.08941,-2.46935 -11.66805,-7.18373c-4.69562,-8.58469 -0.52237,-14.66785 2.06287,-17.22853c2.70784,-2.68211 8.85995,-5.37593 15.05002,-2.7295c4.92792,2.10684 6.33771,6.27545 7.07763,9.2946c0.53975,2.20236 0.9601,3.72511 0.9601,3.72511z" fill="#000000"/><path d="M198.06937,139.21021c0.16221,-3.81653 3.38761,-6.77894 7.20413,-6.61674c3.81653,0.16221 6.77893,3.38761 6.61673,7.20413c-0.16221,3.81653 -3.38761,6.77894 -7.20413,6.61674c-3.81653,-0.16221 -6.77893,-3.38761 -6.61673,-7.20413z" fill="#cbcb6a"/></g><path d="M240.29727,209.31655c-46.35965,-2.06001 -56.38678,-31.33923 -56.38678,-31.33923c0,0 6.94231,-1.33032 12.20958,-8.39996c11.65131,-15.6382 18.70444,-43.75816 46.18168,-42.75008c28.69882,1.0529 32.25796,27.51127 43.16262,44.96432c5.81023,9.29934 12.81453,11.71372 12.81453,11.71372c0,0 -10.78984,27.90823 -57.98163,25.81124z" fill="none" stroke="#000000" stroke-width="3" stroke-linecap="butt"/><g data-paper-data="{&quot;index&quot;:null}" stroke="none" stroke-width="0" stroke-linecap="butt"><path d="M269.96657,140.18063c0,0 0.54806,-1.48159 1.27272,-3.63022c0.99343,-2.94548 2.75182,-6.97945 7.84074,-8.66057c6.39229,-2.11168 12.29364,1.09443 14.76415,3.99662c2.35865,2.77079 6.00073,9.18611 0.59365,17.34142c-2.96935,4.47859 -8.49231,5.58935 -12.2355,6.16782c-2.75414,0.42562 -4.32539,0.80193 -4.32539,0.80193l-7.91035,-16.017z" fill="#000000"/><path d="M280.65776,149.64314c-3.81653,-0.16221 -6.77893,-3.3876 -6.61673,-7.20412c0.1622,-3.81653 3.38761,-6.77894 7.20413,-6.61673c3.81653,0.16221 6.77893,3.38761 6.61673,7.20413c-0.1622,3.81653 -3.3876,6.77893 -7.20412,6.61673z" fill="#cbcb6a"/></g><path d="M236.10688,126.49652l13.10255,0.80709c0,0 -0.65524,9.09442 -2.85768,16.9675c-1.66298,5.9447 -3.96712,11.14307 -3.96712,11.14307c0,0 -2.67168,-4.70555 -4.0487,-11.45674c-1.03924,-5.09519 -2.22906,-17.4609 -2.22906,-17.4609z" fill="#000000" stroke="none" stroke-width="0" stroke-linecap="butt"/><path d="M228.41539,145.56212c0,0 4.45095,-7.44582 14.31646,-7.14854c10.11615,0.30483 13.15874,8.31626 13.15874,8.31626z" fill="#000000" stroke="none" stroke-width="0" stroke-linecap="butt"/><path d="M226.57611,135.85026c0,0 4.89775,-7.92726 16.37675,-7.56142c11.77066,0.37515 15.59439,8.92021 15.59439,8.92021z" fill="#000000" stroke="none" stroke-width="0" stroke-linecap="butt"/><g fill="#000000" stroke="none" stroke-width="0" stroke-linecap="butt"><path d="M190.57422,188.11868c0,0 -5.33446,-6.54409 -5.39197,-8.86944c-0.04824,-1.95004 5.06977,-4.15599 5.06977,-4.15599c0,0 3.5854,3.014 9.0044,5.30197c4.54796,1.92022 9.18167,2.47726 9.18167,2.47726c0,0 -2.14751,2.95721 -7.33873,4.09435c-7.59621,1.66395 -10.52513,1.15184 -10.52513,1.15184z"/><path d="M192.15754,190.0238c0,0 8.49948,1.9945 13.73219,1.76397c4.3916,-0.19344 8.3313,-1.51605 8.3313,-1.51605c0,0 0.19042,3.13105 -3.73471,6.62338c-2.21698,1.97253 -4.44515,3.13374 -5.76685,3.85411c-0.78806,-0.45752 -2.31467,-1.28183 -3.04784,-1.66746c-0.61619,-0.32409 -1.51461,-1.31993 -2.56211,-2.51229c-0.84986,-1.60456 -2.12519,-2.95497 -3.68219,-3.89471c-0.02714,-0.01638 -0.05434,-0.03263 -0.08165,-0.04876c0.64274,-0.94025 -3.18813,-2.6022 -3.18813,-2.6022z"/><path d="M214.54942,200.86578c4.11697,-2.35496 6.4344,-5.24744 6.4344,-5.24744c0,0 1.28007,2.992 -0.22106,7.47969c-0.54568,1.63135 -1.0625,2.98118 -1.53113,4.08869c-2.13482,-1.2636 -4.43532,-2.06513 -7.02242,-3.24693c-0.21669,-0.09897 -2.53546,-1.38536 -2.796,-1.44066c1.06015,-0.60459 3.30764,-0.58738 5.13621,-1.63334z"/></g><g data-paper-data="{&quot;index&quot;:null}" fill="#000000" stroke="none" stroke-width="0" stroke-linecap="butt"><path d="M280.31892,190.08347c-5.07603,-1.57351 -6.96488,-4.70226 -6.96488,-4.70226c0,0 4.66429,-0.16188 9.35876,-1.68928c5.59358,-1.81994 9.42179,-4.51886 9.42179,-4.51886c0,0 4.91239,2.63223 4.69886,4.57115c-0.25462,2.31209 -6.12507,8.37996 -6.12507,8.37996c0,0 -2.96182,0.26175 -10.38945,-2.04072z"/><path d="M288.05354,196.69124c-0.02857,0.01375 -0.82762,0.49533 -0.85606,0.50934c-1.63113,0.80423 -4.72771,1.09306 -5.71064,2.61973c-0.19702,0.18915 1.81106,1.59242 1.6247,1.76836c-0.89655,0.8465 -3.85965,0.29342 -4.39072,0.51748c-0.76324,0.32203 -2.3543,1.01383 -3.17833,1.40285c-1.25581,-0.82991 -3.37742,-2.176 -5.41904,-4.32951c-3.61466,-3.81278 -3.15927,-6.91637 -3.15927,-6.91637c0,0 3.81327,1.65212 8.17262,2.21748c5.19427,0.67366 14.71715,-0.8051 14.71715,-0.8051c0,0 -2.36106,2.02435 -1.80041,3.01575z"/><path d="M270.71718,204.85433c-0.2643,0.03301 -2.68386,1.118 -2.90814,1.19823c-2.67804,0.95801 -5.03827,1.56148 -7.27258,2.63938c-0.37297,-1.14328 -0.7734,-2.5321 -1.17869,-4.20386c-1.11494,-4.59887 0.41436,-7.47147 0.41436,-7.47147c0,0 2.06364,3.07869 5.96597,5.77447c1.73323,1.19735 3.97408,1.37088 4.97911,2.06324z"/></g><g fill="#000000" stroke="none" stroke-width="0" stroke-linecap="butt"><path d="M225.1669,169.00781c-0.36496,8.58718 -4.57479,15.38212 -9.40292,15.17692c-4.82813,-0.2052 -8.44625,-7.33283 -8.08129,-15.92001c0.36496,-8.58718 4.57479,-15.38211 9.40292,-15.17692c4.82813,0.2052 8.44625,7.33283 8.08129,15.92001z"/><path d="M214.74368,175.22083c-0.05393,1.2691 -4.3768,1.7157 -4.3768,1.7157c0,0 -1.14356,-0.51711 -2.64092,-1.19016c-1.95031,-0.87663 -4.35872,-2.08146 -4.17018,-3.4032c0.21986,-1.54134 2.68586,-1.23827 4.59148,-0.96179c1.41944,0.20595 2.44467,0.25993 2.44467,0.25993c0,0 4.2057,2.31041 4.15175,3.57952z"/></g><g data-paper-data="{&quot;index&quot;:null}" fill="#000000" stroke="none" stroke-width="0" stroke-linecap="butt"><path d="M266.96845,155.60821c4.82813,0.2052 8.44625,7.33283 8.08129,15.92c-0.36496,8.58718 -4.57479,15.38212 -9.40292,15.17693c-4.82813,-0.2052 -8.44625,-7.33283 -8.08129,-15.92001c0.36496,-8.58718 4.57479,-15.38211 9.40292,-15.17692z"/><path d="M271.86449,174.64578c0,0 1.02614,0.03319 2.45793,-0.05157c1.9222,-0.11379 4.405,-0.20652 4.49329,1.3479c0.07572,1.33297 -2.42624,2.32909 -4.44389,3.03709c-1.54908,0.54358 -2.73239,0.96179 -2.73239,0.96179c0,0 -4.26939,-0.81176 -4.21544,-2.08087c0.05394,-1.2691 4.44049,-3.21435 4.44049,-3.21435z"/></g><path d="M218.00734,164.92523c-0.14406,3.38955 -1.79448,6.07214 -3.68632,5.99173c-1.89184,-0.0804 -3.3087,-2.89336 -3.16464,-6.2829c0.14406,-3.38955 1.79447,-6.07213 3.68632,-5.99172c1.89184,0.0804 3.30871,2.89335 3.16464,6.28289z" fill="#ffffff" stroke="none" stroke-width="0" stroke-linecap="butt"/><path d="M267.40346,166.73861c-0.14405,3.38955 -1.79448,6.07214 -3.68632,5.99173c-1.89184,-0.0804 -3.3087,-2.89336 -3.16463,-6.2829c0.14405,-3.38955 1.79447,-6.07213 3.68631,-5.99172c1.89184,0.0804 3.30871,2.89335 3.16464,6.28289z" fill="#ffffff" stroke="none" stroke-width="0" stroke-linecap="butt"/><path d="M229.19527,174.19437c0.27973,-6.58203 5.84229,-11.69104 12.42432,-11.41129c6.58203,0.27973 11.69104,5.84229 11.4113,12.42432c-0.27973,6.58203 -5.8423,11.69104 -12.42433,11.41129c-6.58203,-0.27973 -11.69104,-5.84229 -11.41129,-12.42432z" fill="#6e6e30" stroke="none" stroke-width="0" stroke-linecap="butt"/><path d="M216.09613,176.25111c0.0443,-1.04226 0.92513,-1.85127 1.96739,-1.80697c1.04226,0.0443 1.85128,0.92512 1.80698,1.96738c-0.0443,1.04226 -0.92513,1.85128 -1.96738,1.80698c-1.04226,-0.0443 -1.85128,-0.92513 -1.80698,-1.96739z" fill="#6e6e30" stroke="none" stroke-width="0" stroke-linecap="butt"/><path d="M266.14317,178.82298c0.0443,-1.04226 0.92513,-1.85127 1.96739,-1.80697c1.04226,0.0443 1.85128,0.92512 1.80698,1.96738c-0.0443,1.04226 -0.92513,1.85128 -1.96738,1.80698c-1.04226,-0.0443 -1.85129,-0.92513 -1.80698,-1.96739z" fill="#6e6e30" stroke="none" stroke-width="0" stroke-linecap="butt"/><path d="M250.32974,178.34552c0,0 -1.6535,3.37291 -5.86645,2.24919c-2.98767,-0.79689 -3.15846,-3.88681 -3.15846,-3.88681c0,0 -0.84974,3.53652 -3.77618,3.73752c-4.18279,0.28729 -6.02232,-2.73309 -6.02232,-2.73309" fill="none" stroke="#000000" stroke-width="2" stroke-linecap="round"/><g stroke="none" stroke-width="0" stroke-linecap="butt"><path d="M248.402,170.71512c-0.09674,2.27613 -4.06069,6.85639 -7.32723,6.56979c-3.26559,-0.28651 -7.00665,-4.89875 -6.90991,-7.17488c0.09674,-2.27613 3.20827,-4.49283 7.23171,-4.32183c4.02344,0.171 7.10217,2.65079 7.00544,4.92691z" fill="#000000"/><path d="M245.77312,169.76931c-0.04006,0.94263 -2.10407,1.62045 -4.6101,1.51395c-2.50603,-0.10651 -4.5051,-0.95701 -4.46503,-1.89965c0.04006,-0.94263 1.3544,-1.62733 4.78018,-1.59012c3.34237,0.03629 4.33504,1.03319 4.29497,1.97582z" fill="#ffffff"/></g></g></g></svg>