<svg version="1.1" xmlns="http://www.w3.org/2000/svg" xmlns:xlink="http://www.w3.org/1999/xlink" width="118.0373" height="106.47455" viewBox="0,0,118.0373,106.47455"><g transform="translate(-182.3617,-122.98215)"><g data-paper-data="{&quot;isPaintingLayer&quot;:true}" fill-rule="nonzero" stroke-linejoin="miter" stroke-miterlimit="10" stroke-dasharray="" stroke-dashoffset="0" style="mix-blend-mode: normal"><g stroke-linecap="butt"><path d="M288.37501,207.45833c5.61856,4.91681 -4.86394,15.26507 -13.16667,16.91667c-13.24449,2.63463 -21.5,-5.58333 -21.5,-5.58333l6,-4.41667c0,0 5.91723,3.95885 11.501,1.66911c6.88667,-2.82402 10.29427,-14.59894 17.16566,-8.58578z" fill="#ecec68" stroke="#000000" stroke-width="2"/><path d="M276.6304,211.15282l4.33946,-4.67009l8.14976,7.57279l-4.33946,4.67008z" fill="#000000" stroke="none" stroke-width="0"/><path d="M271.19664,216.27579l4.50931,-3.08252l4.09743,9.23928l-5.50931,2.08252z" fill="#000000" stroke="none" stroke-width="0"/><path d="M263.35949,216.07027l5.60739,0.59853l-1.57637,8.46927l-6.35739,-1.72354z" fill="#000000" stroke="none" stroke-width="0"/></g><g data-paper-data="{&quot;index&quot;:null}" stroke-linecap="butt"><path d="M263.48254,210.65005c3.79155,2.92137 4.51895,6.84775 2.72119,9.18102c-1.79776,2.33327 -6.99547,1.96764 -10.78703,-0.95373c-3.79155,-2.92137 -4.74117,-7.2922 -2.94341,-9.62546c1.79776,-2.33327 7.21769,-1.52319 11.00925,1.39818z" fill="#ecec68" stroke="#000000" stroke-width="2"/><path d="M259.55187,220.79262l6.11741,-7.29303c0,0 3.15807,2.96033 0.90032,6.34629c-1.93947,2.90865 -7.01773,0.94673 -7.01773,0.94673z" fill="#000000" stroke="none" stroke-width="0"/><path d="M253.44076,216.90373l7.33963,-8.29303l2.78921,2.12408l-7.0063,8.62636z" fill="#000000" stroke="none" stroke-width="0"/></g><g stroke-linecap="butt"><path d="M230.17079,208.02965c1.79776,2.33327 0.84814,6.7041 -2.94341,9.62546c-3.79155,2.92137 -8.98926,3.287 -10.78702,0.95373c-1.79776,-2.33327 -1.07036,-6.25965 2.72119,-9.18102c3.79155,-2.92137 9.21148,-3.73145 11.00924,-1.39818z" fill="#ecec68" stroke="#000000" stroke-width="2"/><path d="M216.07448,218.62366c-2.25775,-3.38597 0.90032,-6.34629 0.90032,-6.34629l6.11741,7.29303c0,0 -5.07826,1.96191 -7.01773,-0.94674z" fill="#000000" stroke="none" stroke-width="0"/><path d="M226.08078,218.13891l-7.0063,-8.62636l2.78921,-2.12407l7.33963,8.29303z" fill="#000000" stroke="none" stroke-width="0"/></g><path d="M240.91495,226.18342c0,0.7405 -3.6377,1.8081 -9.04974,1.77241c-5.91985,-0.03904 -8.28349,-1.2374 -8.59956,-1.91835c-1.38426,-2.98226 0.39895,-5.24797 8.5651,-5.10799c4.02776,0.06904 7.27771,0.47006 8.5305,1.30635c1.39536,0.93146 0.5537,2.37617 0.5537,3.94758z" fill="#c5c556" stroke="#9b9b44" stroke-width="3" stroke-linecap="butt"/><path d="M250.09349,220.92948c8.16615,-0.13998 9.94936,2.12573 8.5651,5.10799c-0.31292,0.67415 -2.25852,2.13538 -8.35773,1.80566c-6.6718,-0.36067 -9.29157,-0.91172 -9.29157,-1.65972c0,-1.57638 -0.72955,-3.24678 0.67809,-4.17864c1.25539,-0.83106 4.39253,-1.0065 8.40611,-1.0753z" data-paper-data="{&quot;index&quot;:null}" fill="#c5c556" stroke="#9b9b44" stroke-width="3" stroke-linecap="butt"/><path d="M241.68734,219.36998c-6.67004,0.08177 -14.65905,0.16354 -14.8262,-0.84771c-0.62812,-3.80007 5.58333,-17.32891 5.58333,-17.32891l17.34171,-0.44122c0,0 5.49496,15.18096 5.74163,17.06643c0.24667,1.88547 -6.60945,1.46275 -13.84047,1.55141z" fill="#000000" stroke="#6e6e30" stroke-width="3" stroke-linecap="butt"/><g stroke="none" stroke-width="0" stroke-linecap="butt"><path d="M239.5686,209.76452c-46.26066,-3.66231 -55.26907,-33.27083 -55.26907,-33.27083c0,0 6.98417,-1.0894 12.49282,-7.97262c12.18525,-15.22583 20.2068,-43.08502 47.63272,-41.12713c28.64523,2.04493 32.05957,28.60005 42.24622,46.48169c4.10107,7.15409 11.73701,12.09861 11.73701,12.09861c0,0 -11.74869,27.51833 -58.83971,23.79028z" fill="#ecec68"/><path d="M297.5075,184.65091c0,0 -3.12911,10.49972 -15.07566,16.95759c-12.39153,6.69841 -32.51537,7.28348 -32.51537,7.28348c0,0 18.78277,-10.35078 20.06236,-42.2474c0.73162,-18.23754 -12.93144,-37.10579 -12.93144,-37.10579c0,0 10.59275,6.0211 17.4539,16.95264c5.48359,8.73674 7.30098,19.36274 10.84896,24.30569c1.73119,2.41183 2.67656,5.55506 4.69353,7.81688c3.31794,3.72068 7.46372,6.03691 7.46372,6.03691z" fill="#cbcb6a"/></g><path d="M200.80106,181.79977c0.23623,-3.05914 2.90767,-5.34755 5.96681,-5.11131c3.05914,0.23623 5.34756,2.90766 5.11132,5.9668c-0.23623,3.05914 -2.90767,5.34756 -5.96681,5.11132c-3.05914,-0.23623 -5.34756,-2.90767 -5.11132,-5.96681z" fill="#6e6e30" stroke="none" stroke-width="0" stroke-linecap="butt"/><path d="M269.69846,187.23171c0.23624,-3.05914 2.90767,-5.34755 5.96681,-5.11131c3.05914,0.23623 5.34757,2.90766 5.11133,5.9668c-0.23624,3.05914 -2.90768,5.34756 -5.96682,5.11132c-3.05914,-0.23623 -5.34756,-2.90767 -5.11132,-5.96681z" fill="#6e6e30" stroke="none" stroke-width="0" stroke-linecap="butt"/><g stroke="none" stroke-width="0" stroke-linecap="butt"><path d="M217.89781,137.54825l-9.76409,14.95929c0,0 -1.51517,-0.56101 -4.19888,-1.31205c-3.64748,-1.02076 -8.99856,-2.78227 -11.41259,-7.58302c-4.39588,-8.74196 -0.01472,-14.67713 2.65756,-17.14686c2.79899,-2.58684 9.04058,-5.06626 15.13542,-2.20731c4.85209,2.27603 6.11684,6.49091 6.7519,9.53384c0.46325,2.21971 0.83069,3.75609 0.83069,3.75609z" fill="#000000"/><path d="M199.79083,138.23952c0.29412,-3.80864 3.62006,-6.65771 7.42869,-6.36359c3.80864,0.29412 6.6577,3.62006 6.36359,7.42868c-0.29412,3.80864 -3.62005,6.65771 -7.42868,6.3636c-3.80864,-0.29412 -6.65771,-3.62006 -6.3636,-7.42869z" fill="#cbcb6a"/></g><path d="M239.56859,209.76453c-46.26066,-3.66231 -55.26907,-33.27083 -55.26907,-33.27083c0,0 6.98417,-1.0894 12.49282,-7.97262c12.18525,-15.22583 20.2068,-43.08502 47.63272,-41.12713c28.64523,2.04493 31.28707,28.61057 41.58154,46.43035c5.4851,9.49474 12.4017,12.14995 12.4017,12.14995c0,0 -11.74869,27.51833 -58.83971,23.79028z" fill="none" stroke="#000000" stroke-width="3" stroke-linecap="butt"/><g data-paper-data="{&quot;index&quot;:null}" stroke="none" stroke-width="0" stroke-linecap="butt"><path d="M271.61147,141.6962c0,0 0.59897,-1.46175 1.39752,-3.58402c1.0947,-2.90936 2.99159,-6.88009 8.13561,-8.38419c6.4615,-1.88931 12.24843,1.519 14.61708,4.5049c2.2614,2.85072 5.67939,9.38817 -0.00654,17.35159c-3.12248,4.3732 -8.68056,5.29227 -12.44151,5.74092c-2.76722,0.3301 -4.35054,0.65184 -4.35054,0.65184l-7.35161,-16.28102z" fill="#000000"/><path d="M281.96896,151.52284c-3.80863,-0.29412 -6.65771,-3.62006 -6.36359,-7.42869c0.29412,-3.80864 3.62006,-6.6577 7.42869,-6.36358c3.80863,0.29412 6.65771,3.62006 6.36359,7.42868c-0.29412,3.80864 -3.62005,6.65771 -7.42868,6.36359z" fill="#cbcb6a"/></g><path d="M238.24535,126.84912l13.06679,1.25981c0,0 -0.96941,9.06631 -3.44284,16.85851c-1.8676,5.88362 -4.35018,10.99917 -4.35018,10.99917c0,0 -2.50733,-4.79514 -3.65,-11.58992c-0.86239,-5.12808 -1.62378,-17.52755 -1.62378,-17.52755z" fill="#000000" stroke="none" stroke-width="0" stroke-linecap="butt"/><path d="M229.89899,145.63727c0,0 4.70584,-7.28741 14.55516,-6.64907c10.09955,0.65455 12.86321,8.76642 12.86321,8.76642z" fill="#000000" stroke="none" stroke-width="0" stroke-linecap="butt"/><path d="M228.39675,135.8676c0,0 5.16901,-7.75312 16.62849,-6.99045c11.75064,0.78206 15.27652,9.45426 15.27652,9.45426z" fill="#000000" stroke="none" stroke-width="0" stroke-linecap="butt"/><g fill="#000000" stroke="none" stroke-width="0" stroke-linecap="butt"><path d="M190.6085,186.85947c0,0 -5.10492,-6.72468 -5.08196,-9.05063c0.01924,-1.95054 5.21049,-3.97814 5.21049,-3.97814c0,0 3.47899,3.13622 8.81563,5.61025c4.47882,2.07638 9.0905,2.79335 9.0905,2.79335c0,0 -2.24852,2.88116 -7.47597,3.83806c-7.64921,1.40021 -10.55867,0.7871 -10.55867,0.7871z"/><path d="M192.12497,188.81822c0,0 8.4254,2.28729 13.66295,2.2379c4.39567,-0.04143 8.37875,-1.22698 8.37875,-1.22698c0,0 0.08201,3.13575 -3.96157,6.49024c-2.28389,1.89468 -4.5509,2.97811 -5.89671,3.65234c-0.77176,-0.48451 -2.26894,-1.36112 -2.98834,-1.77188c-0.6046,-0.34521 -1.46806,-1.37153 -2.47367,-2.59941c-0.79385,-1.63299 -2.02173,-3.02672 -3.54528,-4.01975c-0.02656,-0.01731 -0.05319,-0.03449 -0.07993,-0.05155c0.67488,-0.91745 -3.0962,-2.71091 -3.0962,-2.71091z"/><path d="M214.12844,200.42823c4.19597,-2.21115 6.61206,-5.02174 6.61206,-5.02174c0,0 1.17581,3.03447 -0.47964,7.46757c-0.60178,1.6115 -1.16498,2.94265 -1.67163,4.03328c-2.08983,-1.33668 -4.36123,-2.2173 -6.90591,-3.48787c-0.21313,-0.10641 -2.48602,-1.47222 -2.7445,-1.53652c1.08043,-0.56757 3.32597,-0.47261 5.18963,-1.45471z"/></g><g data-paper-data="{&quot;index&quot;:null}" fill="#000000" stroke="none" stroke-width="0" stroke-linecap="butt"><path d="M280.23154,191.92726c-5.01857,-1.74814 -6.79807,-4.94035 -6.79807,-4.94035c0,0 4.6671,-0.00045 9.41159,-1.36456c5.65319,-1.62537 9.57245,-4.19027 9.57245,-4.19027c0,0 4.81839,2.80058 4.53794,4.73094c-0.33443,2.30191 -6.41125,8.16309 -6.41125,8.16309c0,0 -2.96909,0.15914 -10.31266,-2.39886z"/><path d="M287.73297,198.79861c-0.02903,0.01275 -0.84427,0.46641 -0.87317,0.47943c-1.65797,0.74733 -4.76269,0.92887 -5.79784,2.42064c-0.20344,0.18223 1.7549,1.65411 1.56257,1.8235c-0.92528,0.81499 -3.8675,0.15974 -4.406,0.3653c-0.77393,0.29543 -2.38795,0.93179 -3.22494,1.29208c-1.22635,-0.87286 -3.30015,-2.29152 -5.26606,-4.51436c-3.48061,-3.93553 -2.91814,-7.02151 -2.91814,-7.02151c0,0 3.75384,1.78302 8.09103,2.49883c5.16786,0.85292 14.7362,-0.29557 14.7362,-0.29557c0,0 -2.42967,1.94148 -1.90364,2.95168z"/><path d="M270.12463,206.35717c-0.26527,0.02385 -2.72093,1.02451 -2.94785,1.09692c-2.70957,0.86482 -5.08927,1.38627 -7.35953,2.38625c-0.3332,-1.1555 -0.68536,-2.55734 -1.03258,-4.24211c-0.9552,-4.63468 0.67255,-7.45267 0.67255,-7.45267c0,0 1.95591,3.14822 5.76266,5.97737c1.69078,1.25659 3.92428,1.50752 4.90476,2.23423z"/></g><g fill="#000000" stroke="none" stroke-width="0" stroke-linecap="butt"><path d="M225.8415,168.95657c-0.66176,8.56942 -5.1041,15.21469 -9.92225,14.8426c-4.81814,-0.37207 -8.18756,-7.62059 -7.5258,-16.19001c0.66176,-8.56942 5.10411,-15.21469 9.92225,-14.8426c4.81814,0.37207 8.18756,7.62059 7.5258,16.19001z"/><path d="M215.20962,174.80533c-0.09779,1.26648 -4.43353,1.56329 -4.43353,1.56329c0,0 -1.12498,-0.55636 -2.59817,-1.2808c-1.91882,-0.94358 -4.28412,-2.23097 -4.04998,-3.5454c0.27304,-1.53281 2.72708,-1.14463 4.62199,-0.8024c1.41147,0.25492 2.43422,0.34434 2.43422,0.34434c0,0 4.12326,2.4545 4.02546,3.72098z"/></g><g data-paper-data="{&quot;index&quot;:null}" fill="#000000" stroke="none" stroke-width="0" stroke-linecap="butt"><path d="M268.08151,157.01085c4.81815,0.37207 8.18756,7.62058 7.5258,16.19c-0.66176,8.56942 -5.1041,15.21469 -9.92224,14.84261c-4.81815,-0.37207 -8.18756,-7.62059 -7.5258,-16.19001c0.66176,-8.56942 5.1041,-15.21468 9.92224,-14.8426z"/><path d="M272.31615,176.20638c0,0 1.02437,0.06868 2.45824,0.03349c1.92498,-0.04724 4.40951,-0.05405 4.44398,1.50251c0.02957,1.33478 -2.50535,2.24378 -4.54629,2.88157c-1.56694,0.48968 -2.76402,0.86672 -2.76402,0.86672c0,0 -4.23876,-0.95895 -4.14094,-2.22544c0.0978,-1.26648 4.54901,-3.05883 4.54901,-3.05883z"/></g><path d="M218.82744,164.62879c-0.2612,3.38254 -2.00343,6.00645 -3.89137,5.86065c-1.88793,-0.14579 -3.20664,-3.00607 -2.94543,-6.38861c0.2612,-3.38254 2.00342,-6.00643 3.89136,-5.86062c1.88793,0.14579 3.20665,3.00606 2.94544,6.38859z" fill="#ffffff" stroke="none" stroke-width="0" stroke-linecap="butt"/><path d="M268.13127,168.14964c-0.26121,3.38254 -2.00342,6.00644 -3.89136,5.86064c-1.88794,-0.14579 -3.20664,-3.00608 -2.94543,-6.38861c0.26121,-3.38254 2.00342,-6.00643 3.89136,-5.86062c1.88794,0.14579 3.20664,3.00606 2.94543,6.38859z" fill="#ffffff" stroke="none" stroke-width="0" stroke-linecap="butt"/><path d="M229.68806,174.27936c0.50724,-6.56841 6.24317,-11.48197 12.81158,-10.97472c6.56841,0.50724 11.48197,6.24318 10.97472,12.81159c-0.50724,6.56841 -6.24317,11.48197 -12.81159,10.97472c-6.56841,-0.50724 -11.48197,-6.24318 -10.97472,-12.81159z" fill="#6e6e30" stroke="none" stroke-width="0" stroke-linecap="butt"/><path d="M216.52561,175.88178c0.08032,-1.04011 0.98861,-1.81815 2.02871,-1.73783c1.04011,0.08032 1.81817,0.98861 1.73785,2.02871c-0.08032,1.04011 -0.98862,1.81817 -2.02872,1.73785c-1.04011,-0.08032 -1.81817,-0.98862 -1.73785,-2.02872z" fill="#6e6e30" stroke="none" stroke-width="0" stroke-linecap="butt"/><path d="M266.45375,180.18318c0.08033,-1.04011 0.98861,-1.81816 2.02871,-1.73784c1.04011,0.08032 1.81817,0.98861 1.73785,2.02871c-0.08033,1.04011 -0.98862,1.81817 -2.02872,1.73785c-1.04011,-0.08032 -1.81817,-0.98862 -1.73785,-2.02872z" fill="#6e6e30" stroke="none" stroke-width="0" stroke-linecap="butt"/><path d="M250.6663,179.15904c0,0 -1.76918,3.31368 -5.94073,2.04492c-2.95832,-0.89975 -3.02212,-3.99372 -3.02212,-3.99372c0,0 -0.97156,3.50501 -3.9032,3.60467c-4.19022,0.14244 -5.92419,-2.93976 -5.92419,-2.93976" fill="none" stroke="#000000" stroke-width="2" stroke-linecap="round"/><g stroke="none" stroke-width="0" stroke-linecap="butt"><path d="M249.00364,171.46653c-0.17541,2.27141 -4.29541,6.71183 -7.55008,6.31242c-3.25373,-0.39928 -6.83302,-5.13818 -6.65761,-7.40959c0.17541,-2.27141 3.36176,-4.37917 7.37688,-4.0691c4.01512,0.31007 7.00623,2.89486 6.83083,5.16628z" fill="#000000"/><path d="M246.40905,170.43034c-0.07264,0.94069 -2.15888,1.54672 -4.65971,1.35359c-2.50086,-0.19313 -4.4693,-1.11227 -4.39665,-2.05295c0.07264,-0.94069 1.40987,-1.5795 4.83232,-1.42382c3.3391,0.15187 4.29671,1.1825 4.22407,2.12319z" fill="#ffffff"/></g></g></g></svg>