<svg version="1.1" xmlns="http://www.w3.org/2000/svg" xmlns:xlink="http://www.w3.org/1999/xlink" width="120.54938" height="310.29761" viewBox="0,0,120.54938,310.29761"><g transform="translate(-259.49198,-24.61903)"><g stroke-miterlimit="10"><path d="M263.40898,324.61251v-293.22501h113.18203v293.22501z" fill-opacity="0.01" fill="#000000" stroke="none" stroke-width="0" stroke-linecap="butt"/><g stroke-linecap="butt"><path d="M291.63983,147.80411l-12.43543,0.60739l-0.56701,-19.68215l17.80491,7.69721z" fill="#0d0d00" stroke="none" stroke-width="0"/><path d="M318.63614,146.30216c9.2982,13.64062 11.91935,36.11767 1.22275,43.40905c-10.69659,7.29141 -30.66034,-3.36396 -39.95853,-17.00456c-9.29821,-13.64058 -4.40984,-25.10104 6.28676,-32.39242c10.69659,-7.29139 23.15079,-7.65262 32.449,5.98798z" fill="#ecec68" stroke="#0d0d00" stroke-width="1.75"/><path d="M287.28496,180.29495l-6.13533,-5.47384l38.08566,-25.87437l4.12017,6.76057z" fill-opacity="0.70196" fill="#0d0d00" stroke="none" stroke-width="0"/><path d="M308.01024,136.76418l7.27067,5.18872l-38.32384,25.8634l-1.93373,-7.87865z" fill-opacity="0.70196" fill="#0d0d00" stroke="none" stroke-width="0"/><path d="M300.74701,189.33611l-7.1851,-2.92634l31.96356,-23.56542l1.22581,8.76581z" fill-opacity="0.70196" fill="#0d0d00" stroke="none" stroke-width="0"/></g><path d="M344.41255,101.64171c-3.62593,-1.83305 -3.77303,-6.10691 -0.99399,-8.59951c2.77905,-2.4926 2.91644,-7.1504 6.46605,-4.39139c8.83615,6.86811 4.20461,19.19744 4.20461,19.19744c0,0 -5.41081,-4.05 -9.67666,-6.20656z" fill="#ecec68" stroke="#0d0d00" stroke-width="1.75" stroke-linecap="butt"/><path d="M337.30065,105.2828c-3.59378,-3.58881 -1.95816,-8.80724 2.44953,-10.76469c4.4077,-1.95745 9.34568,-0.23194 10.65969,5.15556c2.04965,8.4036 -5.98865,14.1904 -5.98865,14.1904c0,0 -2.89255,-4.35908 -7.12058,-8.58126z" fill="#ecec68" stroke="#0d0d00" stroke-width="1.75" stroke-linecap="butt"/><path d="M270.08355,110.55075c-4.11517,-0.2097 -7.06948,-2.60192 -7.06948,-2.60192c0,0 3.50679,-3.27038 5.27862,-5.82857c2.37746,-3.43261 3.36924,-7.32014 3.36924,-7.32014c0,0 -2.25929,1.4547 -4.30546,1.93418c-4.31469,1.01109 -6.52726,-0.72898 -6.52726,-0.72898c0,0 12.47937,-11.82226 12.91615,-30.05855c0.65747,-27.45016 36.47897,-32.58542 47.58172,-22.43764c14.56512,13.31235 17.29756,33.26557 10.70158,49.8854c-10.78172,27.16665 -10.75639,29.28981 -27.71224,34.74452c-23.94782,7.70401 -36.72406,-5.86402 -36.72406,-5.86402c0,0 2.90478,-1.63409 5.5341,-5.46493c2.62932,-3.83083 2.95058,-6.69444 2.95058,-6.69444c0,0 -1.96331,0.64044 -5.99349,0.43507z" fill="#ecec68" stroke="#0d0d00" stroke-width="1.75" stroke-linecap="butt"/><path d="M321.94714,139.02737c-0.64147,-6.82847 2.4874,-21.88245 2.4874,-21.88245c0,0 16.32542,15.30037 25.93138,24.23032c16.0513,14.92173 36.35284,32.33099 26.19557,44.22812c-7.7341,9.05889 -29.85641,-9.90633 -29.85641,-9.90633c0,0 -4.45476,15.00667 -14.68817,4.58012c-11.84595,-12.06956 -10.0347,-40.87616 -10.06979,-41.24977z" fill-opacity="0.4" fill="#f2d849" stroke="#0d0d00" stroke-width="1.5" stroke-linecap="butt"/><g stroke-linecap="butt"><path d="M334.35583,203.48694c0,0 0.37155,-15.96661 0.92171,-33.70889c0.7434,-23.97402 -7.73032,-60.96824 17.06773,-48.09861c6.5033,3.37507 9.54111,15.72455 9.10441,26.97934c-0.43411,11.18768 -3.62072,21.70997 -3.62072,21.70997c0,0 -0.85929,11.42691 -1.68158,17.25005c-0.8523,6.03546 -4.04817,17.92966 -4.04817,17.92966z" fill="#ecec68" stroke="#0d0d00" stroke-width="1.75"/><path d="M344.09023,202.04422c4.82177,-0.68865 9.89317,3.38547 12.20354,8.4057c2.51723,5.46973 0.31548,13.49415 -2.09276,15.67801c-3.30788,2.99967 -9.98345,-1.17168 -9.98345,-1.17168c0,0 -5.38043,-22.16178 -0.12733,-22.91203z" fill="#ecec68" stroke="#0d0d00" stroke-width="1.75"/><path d="M353.41794,214.40443c0.0115,0.14856 0.15008,15.61313 -6.26274,15.31019c-8.55863,-0.40431 -8.89879,-7.97751 -8.89879,-7.97751c0,0 3.33851,-16.77883 9.51528,-16.92343c5.66961,-0.13273 5.64625,9.59076 5.64625,9.59076z" fill="#ecec68" stroke="#0d0d00" stroke-width="1.75"/><path d="M345.17249,202.38453c4.87998,0.5568 2.85804,9.89175 2.85804,9.89175c-0.02075,0.14404 -2.08511,13.55192 -7.83119,14.95948c-7.99445,1.9583 -6.65538,-9.74754 -6.65538,-9.74754c0,0 6.31203,-15.7103 11.62855,-15.1037z" fill="#ecec68" stroke="#0d0d00" stroke-width="1.75"/><path d="M347.0059,203.25088c1.6707,1.38875 -7.54408,4.24649 -10.1074,8.33629c-2.9217,3.86915 0.41814,9.06641 0.41814,9.06641c0,0 -14.05957,-0.48704 -6.97065,-14.43193c3.37686,-6.64273 13.8528,-5.3042 16.65991,-2.9708z" fill="#ecec68" stroke="#0d0d00" stroke-width="1.75"/><path d="M334.82679,206.51447l1.17316,-12.0435l17.00452,1.08196l-2.26318,14.81183z" fill="#ecec68" stroke="none" stroke-width="0"/><path d="M355.0669,220.59603c0,0 -2.09121,-1.71538 -5.39044,-1.90075c-2.62613,-0.14756 -6.02321,0.53215 -7.73319,0.07199c-4.14191,-1.11462 -10.52642,-6.20869 -10.52642,-6.20869l7.24564,-11.6285c0,0 7.02186,-1.55831 14.17303,6.1094c3.46482,3.71506 2.23137,13.55655 2.23137,13.55655z" fill="#ecec68" stroke="none" stroke-width="0"/><path d="M347.28008,154.85337c-7.68018,-0.50241 -12.88065,-3.63933 -12.88065,-3.63933l-0.27695,-9.09571l26.71008,3.16353l-0.24966,7.82495c0,0 -2.45242,2.45635 -13.30281,1.74656z" fill-opacity="0.70196" fill="#0d0d00" stroke="none" stroke-width="0"/><path d="M345.96891,174.83786c-8.44947,-1.02472 -11.0029,-3.21553 -11.0029,-3.21553l-0.10322,-9.07513c0,0 3.45867,3.20448 11.24504,4.15142c8.63306,1.04993 12.24054,-1.39648 12.24054,-1.39648l-0.63355,8.20895c0,0 -2.42331,2.45737 -11.74591,1.32676z" fill-opacity="0.70196" fill="#0d0d00" stroke="none" stroke-width="0"/><path d="M344.67699,198.13354c-7.73853,-0.94052 -10.12921,-2.50785 -10.12921,-2.50785l-0.0055,-9.06356c0,0 3.21088,2.57094 10.34207,3.44028c7.90665,0.96388 10.93913,-0.91974 10.93913,-0.91974l-0.8776,8.15338c0,0 -1.7307,1.93521 -10.26889,0.8975z" fill-opacity="0.70196" fill="#0d0d00" stroke="none" stroke-width="0"/><path d="M347.34167,150.9106c-8.16437,-0.32694 -12.64814,-2.29837 -12.68233,-3.13567c-0.49212,-12.05247 -3.15119,-23.14422 1.60525,-27.16813c2.69634,-2.28109 9.64186,-2.26897 16.0807,1.07264c5.36179,2.78266 10.61187,14.95246 9.04952,27.05229c-0.02731,0.21155 -2.31079,2.64909 -14.05313,2.17888z" fill="#9b9b44" stroke="#0d0d00" stroke-width="1.75"/></g><path d="M319.25545,137.91052c-0.03308,0.3738 1.93301,29.17025 -9.84789,41.30331c-10.17721,10.48142 -14.71258,-4.50109 -14.71258,-4.50109c0,0 -22.02004,19.08387 -29.80272,10.06669c-10.22108,-11.84235 9.98658,-29.3605 25.95744,-44.3683c9.55781,-8.98146 25.80075,-24.36937 25.80075,-24.36937c0,0 3.20975,15.03695 2.605,21.86877z" fill-opacity="0.4" fill="#f2d849" stroke="#0d0d00" stroke-width="1.5" stroke-linecap="butt"/><g stroke-linecap="butt"><path d="M290.5741,205.29896c0,0 -2.91602,-11.96589 -3.6265,-18.01968c-0.68549,-5.84083 -1.27651,-17.28475 -1.27651,-17.28475c0,0 -2.93894,-10.59414 -3.1105,-21.78892c-0.17259,-11.26194 3.15405,-23.53677 9.73473,-26.75838c25.0931,-12.28444 15.75399,24.50085 15.93486,48.48571c0.13385,17.75029 0.1308,33.72123 0.1308,33.72123z" fill="#ecec68" stroke="#0d0d00" stroke-width="1.75"/><path d="M298.66308,201.98353c5.23406,0.87326 -0.66472,22.90274 -0.66472,22.90274c0,0 -6.77158,4.01363 -10.00819,0.93719c-2.35634,-2.23974 -4.36927,-10.31359 -1.72443,-15.72278c2.42749,-4.96466 7.59305,-8.91872 12.39735,-8.11715z" fill="#ecec68" stroke="#0d0d00" stroke-width="1.75"/><path d="M294.91764,204.66587c6.17168,0.28945 9.11572,17.14196 9.11572,17.14196c0,0 -0.5177,7.56315 -9.08346,7.7666c-6.41816,0.15244 -5.91688,-15.30463 -5.90191,-15.45287c0,0 0.20471,-9.72136 5.86965,-9.45569z" fill="#ecec68" stroke="#0d0d00" stroke-width="1.75"/><path d="M297.57308,202.29835c5.32928,-0.48174 11.27108,15.37229 11.27108,15.37229c0,0 1.06413,11.73404 -6.88219,9.58876c-5.71149,-1.54195 -7.4608,-14.99457 -7.47816,-15.13905c0,0 -1.80242,-9.37981 3.08927,-9.82199z" fill="#ecec68" stroke="#0d0d00" stroke-width="1.75"/><path d="M295.7199,203.12144c2.86105,-2.26692 13.36551,-3.35936 16.58563,3.36075c6.7599,14.10732 -7.30725,14.26447 -7.30725,14.26447c0,0 3.46083,-5.11749 0.63069,-9.05411c-2.46668,-4.14881 -11.61189,-7.2219 -9.90908,-8.57108z" fill="#ecec68" stroke="#0d0d00" stroke-width="1.75"/><path d="M291.81867,210.14576l-1.91514,-14.86083l17.02523,-0.68281l0.89035,12.0677z" fill="#ecec68" stroke="none" stroke-width="0"/><path d="M287.25427,220.27276c0,0 -1.00225,-9.8677 2.54874,-13.50048c7.32905,-7.49786 14.31243,-5.77528 14.31243,-5.77528l6.9709,11.79525c0,0 -6.50225,4.94292 -10.66916,5.96008c-1.72029,0.41993 -5.10049,-0.33928 -7.72936,-0.25335c-3.30266,0.10795 -5.43354,1.77379 -5.43354,1.77379z" fill="#ecec68" stroke="none" stroke-width="0"/><path d="M283.32278,152.67273l-0.06606,-7.82865l26.77694,-2.53616l-0.49022,9.08671c0,0 -5.27263,3.01408 -12.96247,3.3362c-10.86406,0.4551 -13.25819,-2.0581 -13.25819,-2.0581z" fill-opacity="0.70196" fill="#0d0d00" stroke="none" stroke-width="0"/><path d="M285.71149,173.1387l-0.44084,-8.22156c0,0 3.54911,2.53035 12.20442,1.68321c7.80644,-0.76405 11.33932,-3.88653 11.33932,-3.88653l-0.31605,9.07022c0,0 -2.60412,2.13031 -11.0753,2.95657c-9.34656,0.91164 -11.71155,-1.6019 -11.71155,-1.6019z" fill-opacity="0.70196" fill="#0d0d00" stroke="none" stroke-width="0"/><path d="M287.92318,196.92204l-0.68611,-8.17171c0,0 2.98747,1.95424 10.91456,1.17608c7.14962,-0.70184 10.41991,-3.19676 10.41991,-3.19676l-0.21809,9.06094c0,0 -2.42679,1.51083 -10.18525,2.26958c-8.56019,0.83716 -10.24502,-1.13812 -10.24502,-1.13812z" fill-opacity="0.70196" fill="#0d0d00" stroke="none" stroke-width="0"/><path d="M282.61375,148.27973c-1.27811,-12.13315 4.25597,-24.17646 9.68156,-26.83258c5.56643,-2.72507 11.94418,-3.50611 14.60165,-2.07721c5.94014,3.19397 3.30598,15.54879 2.46734,28.58035c-0.05382,0.83627 -4.5826,2.70199 -12.7524,2.83734c-11.75015,0.19466 -13.97581,-2.29576 -13.99816,-2.5079z" fill="#9b9b44" stroke="#0d0d00" stroke-width="1.75"/></g><g stroke="#0d0d00" stroke-linecap="butt"><path d="M343.28369,168.52619c1.57051,0.61318 9.68838,9.05799 9.68838,9.05799c0,0 10.30608,5.3101 11.02364,28.4523c0.59213,19.09689 -6.03411,34.31567 -6.03411,34.31567c0,0 -1.54311,18.66129 -4.4982,32.98192c-2.95508,14.32063 -9.77938,36.72745 -9.77938,36.72745l-23.53796,-0.71747l0.07992,-132.64153c0,0 14.92481,-11.3517 23.05772,-8.17632z" fill="#494920" stroke-width="1.75"/><path d="M319.85249,305.29258v-3.32279c0,0 27.48357,-0.6001 27.98562,0c0.93972,1.12327 -0.81595,3.43621 -3.17871,4.19494z" fill="#080d00" stroke-width="1.5"/></g><g stroke="#0d0d00" stroke-linecap="butt"><path d="M297.64475,168.27619c8.13291,-3.17538 23.05772,8.17632 23.05772,8.17632l0.07992,132.64153l-23.53796,0.71747c0,0 -6.8243,-22.40682 -9.77938,-36.72745c-2.95509,-14.32064 -4.4982,-32.98192 -4.4982,-32.98192c0,0 -6.62624,-15.21878 -6.03411,-34.31568c0.71756,-23.14219 12.62364,-29.4523 12.62364,-29.4523c0,0 6.51787,-7.44481 8.08838,-8.05799z" fill="#494920" stroke-width="1.75"/><path d="M320.5421,307.57133l0.15642,14.66283c0,0 -2.13105,3.33828 -9.57044,6.63437c-13.16886,5.83458 -24.81656,5.60696 -30.80438,4.24795c-3.1241,-0.83013 -6.25925,-6.65632 -2.7366,-11.22699c3.1823,-4.12908 10.60019,-4.84717 15.0485,-8.02239c3.86947,-2.76205 5.72916,-5.94676 5.72916,-5.94676z" fill="#ffffd5" stroke-width="1.5"/><path d="M298.36474,303.96628l22.55234,0.18266l-0.21858,14.13117c0,0 -19.29936,15.66566 -40.37482,10.88232c-3.12409,-0.83014 -5.56047,-4.33037 -2.03782,-8.90104c3.1823,-4.12908 9.90142,-7.17312 14.34973,-10.34834c3.86947,-2.76205 5.72916,-5.94677 5.72916,-5.94677z" fill="#0d0d00" stroke-width="1.5"/><path d="M293.59031,301.71979c0.50205,-0.6001 27.48562,0 27.48562,0v3.32279c0,0 -23.44233,1.32909 -24.80692,0.89088c0,0 -5.36842,-2.3404 -2.6787,-4.21367z" fill="#080d00" stroke-width="1.5"/></g><path d="M342.39705,308.17037c0,0 1.85969,3.18471 5.72916,5.94676c4.44831,3.17522 11.8662,3.89332 15.0485,8.02239c3.52265,4.57067 0.3875,10.39685 -2.7366,11.22699c-5.98782,1.35901 -17.63553,1.58663 -30.80439,-4.24795c-7.43939,-3.29608 -9.57043,-6.63436 -9.57043,-6.63436l0.15642,-14.66283z" fill="#ffffd5" stroke="#0d0d00" stroke-width="1.5" stroke-linecap="butt"/><path d="M342.39705,304.21628c0,0 1.85969,3.18472 5.72916,5.94677c4.44831,3.17523 11.16743,6.21927 14.34973,10.34834c3.52265,4.57066 1.08627,8.0709 -2.03782,8.90104c-21.07546,4.78335 -40.37482,-10.88232 -40.37482,-10.88232l-0.21858,-14.13117l22.55234,-0.18266z" fill="#0d0d00" stroke="#0d0d00" stroke-width="1.5" stroke-linecap="butt"/><path d="M303.78503,203.29673l-1,-20.1721h35.96121l-0.8,20.63442c0,0 -11.12869,1.61816 -17.03787,1.61816c-6.07339,0 -17.12334,-2.08048 -17.12334,-2.08048z" fill="#494920" stroke="none" stroke-width="0" stroke-linecap="butt"/><path d="M337.61105,203.09227c0,0 -7.8499,2.22242 -17.37731,2.30103c-8.35113,0.06889 -16.04309,-2.30103 -16.04309,-2.30103" fill="none" stroke="#0d0d00" stroke-width="1.5" stroke-linecap="round"/><path d="M322.03312,132.32549c0.07175,-0.16152 0.10989,-0.24562 0.10989,-0.24562v0.00001l18.75015,0.21993c0,0 1.32,4.78349 3.717,11.36759c2.49894,6.86416 6.91884,15.69417 8.79652,23.06103c1.52541,5.98478 -1.117,8.65352 -1.117,8.65352c0,0 -6.11728,9.85211 -30.36297,9.94298c-0.16934,0.00307 -0.34122,0.00317 -0.51569,0.00024c-0.17397,-0.00117 -0.34531,-0.00529 -0.51405,-0.01231c-24.23739,-0.65939 -30.12199,-10.65243 -30.12199,-10.65243c0,0 -2.5791,-2.72999 -0.91372,-8.67734c2.04995,-7.32079 6.67575,-16.0447 9.33501,-22.84835c2.55078,-6.52607 3.98261,-11.27728 3.98261,-11.27728l18.75015,0.21993v-0.00001c0,0 0.03615,0.08497 0.10409,0.24813z" fill="#9b9b44" stroke="#0d0d00" stroke-width="1.75" stroke-linecap="butt"/><path d="M290.20819,173.29809c0.7871,0.41034 5.92588,6.92481 27.7837,7.34837c0.79967,-0.01619 3.08794,0.02613 3.34874,0.03218c0.26078,0.00006 2.54902,0.01143 3.34804,0.04637c21.86191,0.08928 27.15211,-6.30289 27.94862,-6.69466c1.4604,-0.71831 4.69872,7.34727 4.69872,7.34727c0,0 -12.16784,9.86429 -35.47605,9.21208c-0.21234,-0.00594 -0.4242,-0.01522 -0.63539,-0.02772c-0.21145,0.00755 -0.42349,0.01185 -0.63595,0.01281c-23.31709,0.10532 -33.04568,-12.88342 -33.04568,-12.88342c0,0 1.22211,-5.14565 2.66524,-4.39328z" fill="#0d0d00" stroke="none" stroke-width="0" stroke-linecap="butt"/><path d="M313.75239,190.04484c-1.05152,-2.18135 -1.00474,-8.31207 -0.21555,-10.13548c0.81481,-1.88255 13.81783,-1.70864 15.25306,-0.37989c1.38157,1.27908 0.94173,9.7504 -0.29694,11.06083c-1.14867,1.2152 -13.96552,0.78301 -14.74063,-0.54544z" fill="#ffffd5" stroke="#0d0d00" stroke-width="1.5" stroke-linecap="butt"/><path d="M321.68795,117.43112c9.4698,7.11818 9.53574,32.40856 3.22386,33.41247c-25.52503,6.68612 -30.73404,3.43881 -33.58952,-0.75728c-3.23709,-4.75684 -1.48206,-9.65955 0.82804,-13.05618c2.3101,-3.39663 4.07909,-4.55605 5.98865,-11.54162c0,0 16.72397,-13.18754 23.54897,-8.05739z" fill="#9b9b44" stroke="#0d0d00" stroke-width="1.5" stroke-linecap="butt"/><path d="M352.1242,150.79942c-2.95312,4.12796 -8.23685,7.25219 -33.59804,-0.03079c-6.28659,-1.15168 -5.62749,-26.43356 4.00667,-33.32766c6.94345,-4.96866 23.04278,7.35621 23.35349,8.60754c1.74518,7.02843 2.63478,6.91123 5.71631,11.67891c2.22979,3.44987 3.86935,8.39239 0.52156,13.07201z" fill="#9b9b44" stroke="#0d0d00" stroke-width="1.5" stroke-linecap="butt"/><path d="M313.93638,166.63745l2.94294,-24.9672c0,0 2.18788,-23.07978 9.47508,-21.42484c4.7499,1.0787 15.9509,30.22366 15.9509,30.22366c0,0 -9.9677,1.0954 -8.69302,4.01596c0.67498,1.54651 4.13696,1.11047 5.41427,3.51419c1.71812,3.23328 2.57876,6.96263 2.57876,6.96263z" fill="#9b9b44" stroke="none" stroke-width="0" stroke-linecap="butt"/><path d="M301.50614,164.4915c0,0 0.94788,-3.70814 2.74136,-6.90023c1.33333,-2.37311 4.78415,-1.85598 5.4952,-3.38623c1.34283,-2.88986 -8.59643,-4.21875 -8.59643,-4.21875c0,0 11.88154,-28.87422 16.65542,-29.84122c7.324,-1.48354 8.96995,21.6412 8.96995,21.6412l2.3565,25.02936z" fill="#9b9b44" stroke="none" stroke-width="0" stroke-linecap="butt"/><path d="M293.06612,129.14197c0,0 -2.03932,-9.97233 28.11829,-9.92089c34.78724,0.05934 31.37468,10.86873 31.37468,10.86873c0,0 -15.45119,-1.69836 -28.22967,-1.94678c-25.4784,-0.49533 -31.26331,0.99894 -31.26331,0.99894z" fill="#9b9b44" stroke="none" stroke-width="0" stroke-linecap="butt"/><path d="M321.24263,146.53361l0.30084,-25.64824" fill="none" stroke="#0d0d00" stroke-width="1" stroke-linecap="round"/><path d="M327.77499,132.09257c-0.0149,1.27016 -0.62644,1.57847 -1.56301,1.56749c-0.93658,-0.01099 -1.84353,-0.33711 -1.82863,-1.60727c0.0149,-1.27016 0.7812,-1.8624 1.71777,-1.85141c0.93658,0.01099 1.68877,0.62102 1.67387,1.89119z" fill="#ffffd5" stroke="#0d0d00" stroke-width="1" stroke-linecap="butt"/><path d="M326.21453,137.74606c0.93657,0.01099 1.84186,0.47995 1.82696,1.75012c-0.0149,1.27016 -0.77785,1.5767 -1.71442,1.56571c-0.93658,-0.01099 -1.69212,-0.33533 -1.67723,-1.60549c0.0149,-1.27016 0.6281,-1.72132 1.56468,-1.71034z" fill="#ffffd5" stroke="#0d0d00" stroke-width="1" stroke-linecap="butt"/><path d="M318.29791,117.93423l8.09213,-2.0892c0,0 11.59238,-0.62815 15.04008,7.45609c2.4945,5.84914 -4.01531,12.60121 -4.01531,12.60121z" fill="#c1c155" stroke="#0d0d00" stroke-width="1.5" stroke-linecap="butt"/><path d="M305.35289,135.52631c0,0 -5.59383,-7.39408 -2.96282,-13.1831c3.63637,-8.00115 14.45502,-6.6101 14.45502,-6.6101l7.30727,2.81532z" fill="#c1c155" stroke="#0d0d00" stroke-width="1.5" stroke-linecap="butt"/><path d="M316.54856,94.58225l11.98925,0.14063l1.04452,21.46625c0,0 -3.09847,4.87938 -7.50903,4.70828c-4.42829,-0.17178 -7.07249,-4.87932 -7.07249,-4.87932z" fill="#ecec68" stroke="#0d0d00" stroke-width="1.5" stroke-linecap="butt"/><path d="M311.61802,60.48782c-5.68759,1.86913 -10.87953,14.85434 -15.89972,11.87167c-5.12154,-3.04289 3.34074,-17.43761 12.1271,-22.08361c7.00007,-3.70148 19.3294,-3.1801 20.55401,0.54625c1.22462,3.72636 -11.09381,7.79655 -16.7814,9.66571z" fill="#6e6e30" stroke="#0d0d00" stroke-width="1.35" stroke-linecap="butt"/><path d="M294.26318,88.07254c3.62071,-3.17465 4.06239,1.79688 7.19155,4.28615c3.12916,2.48928 3.24234,7.06828 -0.51857,9.25769c-4.42468,2.5758 -9.95371,7.24857 -9.95371,7.24857c0,0 -5.73241,-12.88967 3.28073,-20.79241z" fill="#ecec68" stroke="#0d0d00" stroke-width="1.75" stroke-linecap="butt"/><path d="M294.39914,99.89157c1.06404,-5.84356 6.23461,-8.00104 11.07129,-6.18702c4.83668,1.81402 6.91576,7.29015 3.30034,11.35482c-1.92597,2.16529 -7.07039,9.62591 -7.07039,9.62591c0,0 -8.55765,-5.60775 -7.30122,-14.79369z" fill="#ecec68" stroke="#0d0d00" stroke-width="1.75" stroke-linecap="butt"/><path d="M341.61726,30.64531c0,0 -0.28842,3.57439 -2.23691,13.16683c-1.23884,6.09881 -4.16701,14.28875 -4.16701,14.28875l-5.74958,-1.87956c0,0 3.77719,-7.87778 5.29085,-13.86389c2.66334,-10.5327 1.56944,-15.04467 3.11083,-16.90054c1.23105,-1.48218 7.6821,0.90225 15.13801,3.04342c7.36106,2.11394 15.7458,3.94772 14.23206,8.22931c-2.41251,6.8238 -25.61824,-6.08431 -25.61824,-6.08431z" fill="#0d0d00" stroke="none" stroke-width="NaN" stroke-linecap="butt"/><path d="M304.94245,30.21514c0,0 -23.50213,12.36024 -25.75391,5.48174c-1.41289,-4.31594 7.01257,-5.95254 14.42118,-7.89323c7.50409,-1.9657 14.00928,-4.19818 15.20523,-2.68751c1.49743,1.89152 0.29801,6.37659 2.71357,16.96885c1.37284,6.01997 4.9642,13.98418 4.9642,13.98418l-5.79209,1.7442c0,0 -2.73527,-8.25636 -3.83072,-14.38257c-1.72298,-9.63552 -1.92746,-13.21568 -1.92746,-13.21568z" fill="#0d0d00" stroke="none" stroke-width="NaN" stroke-linecap="butt"/><path d="M296.52398,99.0456c-2.02913,-5.13834 -1.7283,-10.82394 -1.27061,-16.70035c0.4574,-5.87265 1.25273,-11.93354 4.97534,-18.4187c7.15581,-12.46611 21.63571,-12.39772 22.75942,-12.37322c1.12373,0.0245 15.72303,0.27515 22.58415,12.90508c3.56947,6.57069 4.22242,12.64858 4.54195,18.53034c0.31972,5.88553 0.48712,11.57661 -1.66197,16.66595c-2.71913,6.43921 -6.34748,9.25992 -12.07376,11.75643c-5.42452,2.36495 -11.03361,3.21461 -12.66041,3.14972c-1.51971,-0.06062 -8.03209,-0.96389 -13.39956,-3.45539c-5.36748,-2.49149 -11.2272,-5.55861 -13.79454,-12.05985z" fill="#ecec68" stroke="#0d0d00" stroke-width="1.75" stroke-linecap="butt"/><path d="M338.97935,105.26088l8.16576,-17.74198c0,0 1.34109,0.69749 2.34839,1.59939c1.23973,1.11003 2.23509,2.52279 2.77146,3.24213c0.95869,1.28569 0.67336,2.92777 0.67336,2.92777c0,0 0.90669,3.61809 -0.18209,5.37743c-0.27547,0.44511 -1.39312,-0.34628 -2.08448,0.22658c-0.95063,0.78769 -1.5785,2.99148 -2.49187,3.96966c-2.74577,2.94059 -4.70674,6.16202 -4.70674,6.16202z" fill="#ecec68" stroke="none" stroke-width="0" stroke-linecap="butt"/><path d="M302.71056,111.58282c0,0 -2.47677,-3.31456 -5.5987,-6.28493c-1.03852,-0.9881 -1.84932,-3.30469 -2.91559,-4.08675c-0.77547,-0.56877 -1.92038,0.34816 -2.24309,-0.11035c-1.27548,-1.81225 -0.53502,-5.73815 -0.53502,-5.73815c0,0 -0.40899,-1.73767 0.5347,-3.17306c0.52799,-0.80307 1.50283,-2.37662 2.75811,-3.64195c1.01994,-1.02809 2.40972,-1.85873 2.40972,-1.85873l10.02038,18.44789z" fill="#ecec68" stroke="none" stroke-width="0" stroke-linecap="butt"/><g stroke="#0d0d00" stroke-width="1" stroke-linecap="butt"><g fill="#c5c556"><path d="M305.4332,55.45821c0,0 2.24009,-3.41363 4.54339,-4.23972c2.30331,-0.82608 3.54828,0.00306 3.79759,1.24824c0.24929,1.24518 -0.02631,3.00251 -2.32959,3.82857c-2.30329,0.82607 -6.01139,-0.83708 -6.01139,-0.83708z"/><path d="M298.81444,57.832c-0.24931,-1.24518 0.14789,-2.60423 2.45118,-3.43032c2.30329,-0.82608 5.88976,0.43883 5.88976,0.43883c0,0 -2.14829,3.42914 -4.45157,4.25523c-2.30333,0.82608 -3.64008,-0.01855 -3.8894,-1.26375z"/></g><g fill="#c5c556"><path d="M306.14927,54.42528c0,0 3.41068,1.45807 3.7985,3.39504c0.38784,1.93697 -0.91337,3.08824 -2.39406,3.61929c-1.4807,0.53105 -3.07022,0.34689 -3.45804,-1.59007c-0.38782,-1.93696 2.05361,-5.42425 2.05361,-5.42425z"/><path d="M302.45714,52.44748c-0.38784,-1.93696 1.09701,-3.05721 2.57768,-3.58825c1.4807,-0.53105 3.17752,-0.42316 3.56535,1.51379c0.38783,1.93695 -2.16094,5.50053 -2.16094,5.50053c0,0 -3.59431,-1.4891 -3.98213,-3.42607z"/></g><path d="M306.82329,57.79145c-1.73519,0.62233 -3.37866,-0.05608 -3.67084,-1.51529c-0.29217,-1.45921 0.87765,-3.14662 2.61282,-3.76894c1.73519,-0.62234 3.37866,0.05609 3.67082,1.5153c0.29219,1.45923 -0.87764,3.1466 -2.61281,3.76892z" fill="#ffffd5"/></g><path d="M342.17702,99.45751c0,0 -0.29431,4.7269 -6.7885,4.53253c-5.60655,-0.1678 -6.79181,-1.55452 -11.53013,-1.97595c-5.4197,-0.48203 -10.08289,0.98774 -14.82253,-0.37018c-4.15072,-1.1892 -4.26014,-5.14252 -4.26014,-5.14252" fill="none" stroke="#0d0d00" stroke-width="1" stroke-linecap="round"/><path d="M342.59638,87.38696c-0.01588,1.35397 -2.47691,4.43897 -8.8081,4.91255c-2.45536,0.18366 -6.64489,-1.20487 -9.54542,-1.23889c-2.00196,-0.02348 -7.99577,1.14585 -9.80401,1.01967c-7.56699,-0.52803 -9.44818,-3.61757 -9.43039,-5.13422c0.02058,-1.75479 2.21584,-5.28026 11.64202,-5.35312c0.66758,-0.00516 7.32305,1.52458 8.00954,1.53264c1.30184,0.01527 4.69009,-0.89326 5.91684,-0.83324c8.55419,0.4185 12.03881,3.45122 12.01953,5.09461z" fill="#c4c44a" stroke="none" stroke-width="0" stroke-linecap="butt"/><path d="M299.25811,90.12336c0.70567,-2.42383 4.74907,-3.37807 9.03114,-2.13137c4.2821,1.24671 7.18136,4.22223 6.47568,6.64605c-0.70567,2.42384 -5.13536,2.57802 -9.41745,1.33132c-4.28209,-1.24669 -6.79507,-3.42218 -6.0894,-5.846z" fill="#a5a549" stroke="none" stroke-width="0" stroke-linecap="butt"/><path d="M310.90605,65.71286c5.11076,-0.19209 7.27621,6.80222 7.27621,6.80222c0,0 -3.33009,-3.61134 -7.05499,-3.27921c-3.98656,0.35548 -6.70209,4.74746 -6.70209,4.74746c0,0 1.83045,-8.09569 6.48087,-8.27048z" fill="#0d0d00" stroke="none" stroke-width="0" stroke-linecap="butt"/><path d="M300.02537,85.38939c-0.35719,-5.37884 4.73353,-11.39225 10.78941,-11.32121c6.05585,0.07103 10.38829,6.03766 9.76408,12.96871c-0.26336,3.79644 -5.11948,7.02139 -9.43278,6.71405c-7.34741,-0.52355 -10.79941,-3.52359 -11.12069,-8.36154z" fill="#0d0d00" stroke="#0d0d00" stroke-width="1" stroke-linecap="butt"/><g fill="#0d0d00" stroke="none" stroke-width="0" stroke-linecap="butt"><path d="M306.24415,76.36119l-4.12006,4.39711l-1.42458,-6.69659z"/><path d="M302.93615,80.32939l-1.96239,6.05108l-2.37426,-7.0336z"/><path d="M303.34396,77.78743l-2.52992,4.52535l-1.28101,-5.55152z"/></g><path d="M348.71965,90.70353c0.64862,2.43971 -1.91469,4.55567 -6.22485,5.70157c-4.31016,1.14592 -8.73501,0.88788 -9.38363,-1.55184c-0.64863,-2.43971 2.31963,-5.34641 6.62978,-6.49234c4.31014,-1.14592 8.33004,-0.0971 8.97866,2.34263z" fill="#a5a549" stroke="none" stroke-width="0" stroke-linecap="butt"/><path d="M348.06357,85.95292c-0.43467,4.82907 -3.95608,7.74732 -11.31375,8.09838c-4.31931,0.20608 -9.09845,-3.13188 -9.2727,-6.93345c-0.46147,-6.94379 3.88327,-12.68362 9.93912,-12.61259c6.05588,0.07103 11.13061,6.07865 10.64736,11.44764z" fill="#0d0d00" stroke="#080d00" stroke-width="1" stroke-linecap="butt"/><g fill="#0d0d00" stroke="none" stroke-width="0" stroke-linecap="butt"><path d="M347.65533,74.61249l-1.58126,6.66133l-4.01578,-4.49254z"/><path d="M349.63085,79.94543l-2.53859,6.97598l-1.8199,-6.09544z"/><path d="M348.75818,77.33867l-1.41088,5.51994l-2.42308,-4.58344z"/></g><g stroke="none" stroke-width="0" stroke-linecap="butt"><path d="M314.44516,76.13258c0.37402,0.00439 0.72709,0.08586 1.0574,0.22966c-0.02253,1.92046 -0.04505,3.84093 -0.06758,5.76139c-0.92132,-0.01081 -1.84263,-0.02161 -2.76395,-0.03242c0.02131,-1.81695 0.04262,-3.63393 0.06394,-5.45088c0.52834,-0.32587 1.10466,-0.51487 1.71019,-0.50777z" fill="#6e6e30"/><path d="M318.94788,82.16484c-0.62703,-0.00735 -1.25402,-0.01471 -1.88104,-0.02206c-0.25766,-0.00302 -0.5153,-0.00604 -0.77297,-0.00907c0.02144,-1.82809 0.04288,-3.65619 0.06433,-5.48426c1.57885,1.06726 2.52414,3.58754 2.5897,5.51539z" fill="#6e6e30"/><path d="M309.58019,82.05496c0.07372,-1.70654 1.04372,-3.85637 2.46324,-5.04055c-0.01982,1.68958 -0.03964,3.37916 -0.05945,5.06874c-0.80125,-0.0094 -1.60253,-0.0188 -2.40378,-0.0282z" fill="#6e6e30"/><path d="M313.92823,87.54977h-0.00001c-0.49735,-0.00583 -0.95837,-0.10558 -1.37858,-0.28063c0.03665,-0.81955 0.07994,-1.64396 0.08953,-2.46188c0.00757,-0.64581 0.01515,-1.29165 0.02273,-1.93748c0.92132,0.01081 1.84263,0.02161 2.76395,0.03242c-0.00882,0.75199 -0.01764,1.50398 -0.02646,2.25596c-0.00854,0.72782 -0.05082,1.45145 -0.09818,2.1726c-0.43258,0.14668 -0.89325,0.22468 -1.37295,0.21905z" fill="#6e6e30"/><path d="M316.8859,82.9193c0.60181,0.00706 1.23464,0.01448 1.87787,0.02203c-0.13222,1.74548 -1.2173,3.40643 -2.76082,4.1711c0.04118,-0.64639 0.07588,-1.29486 0.08352,-1.94623c0.00882,-0.75199 0.01764,-1.504 0.02646,-2.25597c0.25766,0.00302 0.5153,0.00604 0.77297,0.00907z" fill="#6e6e30"/><path d="M309.58469,82.83364c0.79673,0.00935 1.59344,0.01869 2.39017,0.02804c-0.00757,0.64581 -0.06378,3.41466 -0.09605,4.15151c-1.35916,-0.82461 -2.18902,-2.48882 -2.29411,-4.1795z" fill="#6e6e30"/><path d="M319.17345,79.80211c0.01948,0.41983 -0.60871,0.92523 -1.34452,0.97152c-0.73578,0.04628 -1.57645,-0.57427 -1.59594,-0.99414c-0.01948,-0.41986 0.74046,-0.87199 1.37605,-0.86708c0.6356,0.00489 1.54492,0.46983 1.56439,0.88967z" fill="#ffffff"/></g><g stroke="none" stroke-width="0" stroke-linecap="butt"><path d="M339.52016,77.00616c0.60553,0.0071 1.17727,0.20956 1.69781,0.54774c-0.02131,1.81695 -0.04262,3.63393 -0.06394,5.45088c-0.92132,-0.01081 -1.84263,-0.02161 -2.76395,-0.03242c0.02253,-1.92046 0.04505,-3.84093 0.06758,-5.76139c0.33359,-0.136 0.68846,-0.20918 1.06249,-0.20479z" fill="#6e6e30"/><path d="M337.59556,77.47804c-0.02144,1.82809 -0.04288,3.65619 -0.06433,5.48426c-0.25766,-0.00302 -0.5153,-0.00604 -0.77297,-0.00907c-0.62702,-0.00735 -1.25402,-0.01471 -1.88105,-0.02206c0.11076,-1.9258 1.1149,-4.4232 2.71834,-5.45313z" fill="#6e6e30"/><path d="M341.84108,83.01284c0.01982,-1.68958 0.03964,-3.37916 0.05945,-5.06874c1.39135,1.21713 2.31066,3.38913 2.34433,5.09694c-0.80125,-0.0094 -1.60253,-0.0188 -2.40378,-0.0282z" fill="#6e6e30"/><path d="M339.76909,88.43239c-0.4797,-0.00563 -0.93842,-0.09441 -1.36744,-0.2512c-0.03043,-0.72205 -0.05573,-1.44647 -0.04719,-2.17429c0.00882,-0.75199 0.01764,-1.504 0.02646,-2.25597c0.92132,0.01081 1.84263,0.02161 2.76395,0.03242c-0.00757,0.64581 -0.01515,1.29165 -0.02273,1.93748c-0.00959,0.81792 0.01434,1.64312 0.03176,2.4633c-0.42421,0.16515 -0.88744,0.25405 -1.38479,0.24822h-0.00001z" fill="#6e6e30"/><path d="M336.92088,83.73375c0.25766,0.00302 0.5153,0.00604 0.77297,0.00907c-0.00882,0.75199 -0.01764,1.504 -0.02646,2.25597c-0.00764,0.65138 0.01184,1.30048 0.03785,1.94766c-1.52516,-0.80065 -2.57098,-2.4866 -2.66223,-4.23471c0.64324,0.00754 1.27606,0.01497 1.87787,0.02203z" fill="#6e6e30"/><path d="M344.22212,83.81948c-0.14472,1.68778 -1.01338,3.33204 -2.39151,4.12454c-0.01496,-0.73741 -0.03002,-1.47749 -0.02137,-2.21513c0.00757,-0.64581 0.01515,-1.29165 0.02273,-1.93748c0.79673,0.00935 1.59344,0.01869 2.39017,0.02804z" fill="#6e6e30"/><path d="M341.83585,80.64736c0.02932,-0.41925 0.94929,-0.86275 1.58483,-0.85273c0.63555,0.01001 1.38466,0.47983 1.35534,0.89912c-0.02933,0.41928 -0.88432,1.01995 -1.61882,0.95643c-0.73452,-0.06353 -1.35067,-0.58352 -1.32135,-1.00279z" fill="#ffffff"/></g><path d="M320.68167,52.06143c0,0 2.74597,-2.91174 5.94579,-4.98929c2.80467,-1.821 6.99468,-3.20793 7.12473,-3.35204c0.36399,-0.40323 -0.19566,-1.72547 -1.15169,-2.71173c-0.97132,-1.00198 -2.34234,-1.66497 -2.34234,-1.66497c0,0 5.43891,-3.26668 13.27077,0.39935c6.80123,3.18359 8.18399,8.49707 8.18399,8.49707c0,0 1.27105,-1.9114 1.62074,-3.39287c0.74258,-3.14617 0.44591,-5.25569 0.44591,-5.25569c0,0 5.49092,0.02713 7.53411,10.6934c1.35214,7.05875 -0.44942,12.7826 -0.44942,12.7826c0,0 1.4652,-0.32588 2.32639,-0.81132c0.86116,-0.48542 2.50517,-1.91219 2.50517,-1.91219c0,0 0.08068,12.27425 -14.36375,16.18248c-13.69353,3.70506 -25.42566,-3.7129 -25.42566,-3.7129" fill="#ecec68" stroke="#0d0d00" stroke-width="1.75" stroke-linecap="round"/></g></g></svg>