<svg version="1.1" xmlns="http://www.w3.org/2000/svg" xmlns:xlink="http://www.w3.org/1999/xlink" width="139.55591" height="56.21286" viewBox="0,0,139.55591,56.21286"><defs><linearGradient x1="370.49248" y1="202.64168" x2="370.49248" y2="256.73841" gradientUnits="userSpaceOnUse" id="color-1"><stop offset="0" stop-color="#c5c556"/><stop offset="1" stop-color="#878723"/></linearGradient><linearGradient x1="525.93195" y1="205.36747" x2="525.93195" y2="257.20009" gradientTransform="translate(-322.15812,-226.17796) scale(0.77372,0.92611)" gradientUnits="userSpaceOnUse" id="color-2"><stop offset="0" stop-color="#ffffb6"/><stop offset="1" stop-color="#ffff70"/></linearGradient></defs><g transform="translate(-342.4441,-201.52556)"><g stroke-miterlimit="10"><g><path d="M349.70321,254.30709v-49.07528h132.2968v49.07528z" fill-opacity="0.01176" fill="#000000" stroke="none" stroke-width="NaN"/><path d="M347.07071,256.73841c-2.00292,0 -3.62661,-1.62368 -3.62661,-3.62659v-46.84354c0,-2.00291 1.62368,-3.62662 3.62661,-3.62662h46.84353c2.00292,0 3.62658,1.62371 3.62658,3.62662v46.84354c0,2.00291 -1.62367,3.62659 -3.62658,3.62659z" fill="url(#color-1)" stroke="#343404" stroke-width="2"/><g stroke="none" stroke-width="1" font-family="&quot;Allan-Regular&quot;, Sans Serif" font-weight="normal" font-size="40" text-anchor="start"><text transform="translate(414.67472,243.09747) scale(1.29245,1.07979)" font-size="40" xml:space="preserve" fill="#828216"><tspan x="0" dy="0">???</tspan></text><text transform="translate(416.37326,244.2247) scale(1.29245,1.07979)" font-size="40" xml:space="preserve" fill="url(#color-2)"><tspan x="0" dy="0">???</tspan></text></g><g fill="#343404" stroke="none" stroke-width="0"><path d="M358.57626,226.21898c0,0 -1.0263,-19.79694 11.39056,-19.76657c11.54875,0.02825 11.58362,19.23234 11.58362,19.23234l-4.24733,0.42739c0,0 1.35853,-16.08621 -7.33533,-15.65335c-9.7709,0.48648 -7.24072,15.7602 -7.24072,15.7602z"/><path d="M358.03336,250.95833c-1.65227,0 -2.9917,-1.33943 -2.9917,-2.9917v-23.37264c0,-1.65227 1.33943,-2.9917 2.9917,-2.9917h23.37264c1.65227,0 2.9917,1.33943 2.9917,2.9917v23.37264c0,1.65227 -1.33943,2.9917 -2.9917,2.9917zM375.15985,244.35557l-2.97598,-7.45002c1.37443,-0.81411 2.29596,-2.3121 2.29596,-4.02533c0,-2.58201 -2.09313,-4.67515 -4.67514,-4.67515c-2.58201,0 -4.67515,2.09313 -4.67515,4.67515c0,1.71019 0.91827,3.20591 2.28865,4.021l-3.13868,7.45435z"/></g></g></g></g></svg>