<svg version="1.1" xmlns="http://www.w3.org/2000/svg" xmlns:xlink="http://www.w3.org/1999/xlink" width="36.79812" height="36.7981" viewBox="0,0,36.79812,36.7981"><g transform="translate(-302.91346,-162.9135)"><g stroke="none" stroke-miterlimit="10"><path d="M311.51759,163.9135h20.83988c4.07419,0 7.35411,3.303 7.35411,7.40583v20.98644c0,4.10283 -3.27992,7.40583 -7.35411,7.40583h-20.83988c-4.07418,0 -7.35411,-3.303 -7.35411,-7.40583v-20.98644c0,-4.10283 3.27993,-7.40583 7.35411,-7.40583z" fill-opacity="0.39216" fill="#000000" fill-rule="evenodd" stroke-width="0" stroke-linecap="round" stroke-linejoin="round"/><path d="M309.98312,162.9135h20.03379c3.9166,0 7.06966,3.15307 7.06966,7.06966v20.03379c0,3.91659 -3.15306,7.06966 -7.06966,7.06966h-20.03379c-3.91659,0 -7.06966,-3.15307 -7.06966,-7.06966v-20.03379c0,-3.91659 3.15307,-7.06966 7.06966,-7.06966z" fill="#a0a300" fill-rule="evenodd" stroke-width="0" stroke-linecap="round" stroke-linejoin="round"/><g fill="#000000" fill-rule="nonzero" stroke-width="0.5" stroke-linecap="butt" stroke-linejoin="miter"><path d="M330.49352,173.46522c0.06602,-0.52137 0.26822,-1.10128 0.16538,-1.63291c-0.11441,-0.59146 -0.4054,-1.15954 -0.54417,-1.74008c-0.06636,0.14369 -0.17769,0.28815 -0.39602,0.51684c-0.27117,0.28404 -0.48533,0.83992 -0.87474,0.78916c-0.36536,-0.04763 -0.3712,-0.63778 -0.52663,-0.97184c-0.1808,-0.3886 -0.2502,-0.81988 -0.37438,-1.2301c-0.18232,-0.60227 -0.41761,-1.16746 -0.43485,-1.79418c-0.19512,0.23326 -0.45502,0.4302 -0.56515,0.7127c-0.09719,0.2493 -0.21229,0.49126 -0.339,0.72759l0.04135,0.01654l-0.29418,0.73546c-0.05683,0.15219 -0.20352,0.26057 -0.37553,0.26057c-0.16228,0 -0.30202,-0.09646 -0.36503,-0.23517l-0.3291,-0.68491l0.00374,-0.0018l-0.01119,-0.01465c-0.09145,-0.24555 -0.20263,-0.48463 -0.27436,-0.73665c-0.04288,-0.15066 0.05952,-0.37358 -0.06765,-0.46503c-0.10129,-0.07284 0.01945,0.27824 -0.06695,0.36824c-0.27158,0.28289 -0.55909,0.6865 -0.95119,0.69229c-0.2691,0.00397 -0.3216,-0.43408 -0.44807,-0.67164c-0.10065,-0.18905 -0.23672,-0.38086 -0.27629,-0.58847c-0.18985,0.0936 -0.37979,0.17295 -0.57057,0.11768c-0.26081,-0.07556 -0.29844,-0.45432 -0.4301,-0.6918c-0.11977,-0.21601 -0.20418,-0.39598 -0.25515,-0.5812c-0.0373,0.11792 -0.08185,0.2323 -0.14748,0.33641c-0.21444,0.34019 -0.38844,0.90946 -0.79058,0.91129c-0.38526,0.00175 -0.49506,-0.59137 -0.71963,-0.90442c-0.42191,-0.58814 -0.77824,-1.23369 -1.19819,-1.82643c-0.10122,-0.14287 -0.2377,-0.26317 -0.31524,-0.42015c-0.07371,-0.14923 0.03544,-0.46741 -0.13035,-0.48199c-0.15564,-0.01368 0.0002,0.31639 -0.04195,0.46684c-0.06493,0.23182 -0.18368,0.44507 -0.27579,0.6675c-0.40299,0.9731 -0.63127,1.98554 -0.93419,2.98058l0.05856,0.01139l-0.15158,0.77955c-0.03284,0.18827 -0.19708,0.3314 -0.39475,0.3314c-0.12266,0 -0.23244,-0.05511 -0.30595,-0.14192l-0.31888,-0.37203l0.00861,-0.00738l-0.03192,-0.02257c-0.31634,-0.55115 -0.72467,-1.02602 -1.05882,-1.56922c-0.14263,-0.23186 -0.2919,-0.46151 -0.40535,-0.70896c-0.04275,-0.09325 0.03694,-0.26394 -0.05824,-0.30219c-0.09344,-0.03754 -0.16421,0.11698 -0.24122,0.18187c-0.14205,0.11971 -0.3046,0.22239 -0.41541,0.37148c-0.3472,0.4672 -0.01876,1.08291 -0.80266,1.39141c-0.24679,0.09712 -0.44805,-0.28946 -0.64069,-0.47173c-0.30303,-0.28673 -0.31779,-0.46016 -0.42553,-0.79139c0.00147,0.01259 0.00132,0.02376 -0.00128,0.03216c-0.04926,0.15911 -0.10118,0.33611 -0.22717,0.44506c-0.27668,0.23924 -0.57726,0.60555 -0.94076,0.56485c-0.08003,-0.00896 -0.25482,-0.26642 -0.40433,-0.54921c-0.11848,1.00924 -0.0981,1.97456 -0.14276,3.01286c-0.01659,0.38576 -0.07942,0.77517 -0.02904,1.15798c0,0 0.0497,0.39763 -0.34793,0.44733c-0.11731,0.01466 -0.20434,-0.00961 -0.26875,-0.05112c-0.10279,0.05422 -0.2084,0.05422 -0.2084,0.05422h-0.05343c-0.72615,-0.0011 -1.60423,0.07085 -1.80062,0.92023c-0.14077,0.6088 0.26469,1.9933 0.99917,1.91156c0,0 0.14487,0 0.2604,0.08711c0.39306,-0.56663 1.14654,-1.00544 1.71602,-1.31997c0.31008,-0.17126 0.62288,-0.30902 0.93819,-0.41733c-0.13275,-0.37535 -0.10794,-0.83177 -0.10955,-1.20832c0,0 0,-0.40072 0.40072,-0.40072c0.40072,0 0.40072,0.40072 0.40072,0.40072c-0.00117,0.23083 -0.02973,0.827 0.09635,1.01174c0.12405,0.18177 0.36652,0.2438 0.54591,0.37127c0.03759,0.02671 0.11118,0.08123 0.20357,0.14988c0.03669,-0.0053 0.07298,-0.01185 0.10882,-0.0196c0.04272,0.01343 0.07542,0.03432 0.09466,0.06587c0.01893,0.03104 0.0339,0.06577 0.04614,0.10316c-0.01513,0.0007 -0.03026,0.00145 -0.04539,0.00226c0.261,0.19346 0.56376,0.41541 0.67776,0.48235c0.4211,0.24726 0.9068,0.36374 1.35058,0.5675c0.63678,0.29238 1.20191,0.66465 1.89909,0.8286c0.59803,0.14063 1.21807,-0.00379 1.80855,0.10512c0.28249,0.0521 0.53917,0.20214 0.81807,0.27093l0.09137,-0.05761c0,0 0.39294,-0.07859 0.47153,0.31435c0.07859,0.39294 -0.31435,0.47153 -0.31435,0.47153l-0.44293,0.04925c-0.26753,-0.06765 -0.51382,-0.21143 -0.78483,-0.26337c-0.58808,-0.11271 -1.22157,0.03337 -1.82469,-0.1086c-0.75222,-0.17708 -1.3675,-0.56538 -2.05473,-0.88116c-0.70559,-0.32422 -1.34687,-0.53791 -1.99103,-1.00096c-0.08466,-0.06086 -0.47978,-0.35169 -0.81804,-0.60747c-0.39742,0.10424 -0.79068,0.25811 -1.17928,0.47233c-0.48845,0.26926 -1.19653,0.6532 -1.49648,1.15501c-0.35112,0.58743 -0.46011,1.42099 -0.54039,2.08261c-0.10072,0.8301 -0.14872,1.61552 -0.10504,2.43686c0.06473,0.04575 0.30118,0.24062 0.1219,0.53942c-0.00627,0.01045 -0.01266,0.02039 -0.01917,0.02984c0.05335,0.14096 0.1052,0.28284 0.19674,0.40047c0.32466,0.4172 0.73034,0.5095 1.19285,0.7067c0.65308,0.27846 1.14783,0.4835 1.83411,0.662c0.77452,0.20145 1.54895,0.4023 2.32474,0.59881c0.52405,0.13274 1.21466,0.29474 1.75417,0.11271c0.21051,-0.07103 0.34466,-0.1389 0.44457,-0.21687c0.07181,-0.1304 0.15313,-0.25703 0.2082,-0.3948c0.17736,-0.44366 0.35934,-0.92266 0.71385,-1.24298c0.15514,-0.14017 0.37855,-0.17766 0.56783,-0.2665c0,0 0.00714,-0.00317 0.01987,-0.00763c0.0785,-0.11298 0.15194,-0.22956 0.21798,-0.35135c0.46313,-0.85408 0.5939,-1.92369 0.59452,-2.87732c-0.03557,-0.17418 -0.0609,-0.39517 -0.0911,-0.62808c0.25901,-0.05448 0.52153,-0.12552 0.7723,-0.21707c0.04017,0.27892 0.0727,0.54677 0.11632,0.76596c-0.00113,1.12324 -0.14577,2.32961 -0.68736,3.33825c-0.33625,0.62623 -0.84183,1.12383 -1.27409,1.67868c-0.15883,0.20387 -0.2637,0.36194 -0.35561,0.49183c-0.28469,0.77797 -0.50797,1.73958 0.21482,2.3679c0.39206,0.34082 0.74648,0.37976 1.21068,0.56197c1.39311,0.54681 3.36313,0.46883 4.54092,-0.55559c0.37406,-0.41376 0.71108,-0.85857 0.99395,-1.34258c0.04218,-0.07217 0.21035,-0.49607 0.15078,-0.60756c-0.05819,-0.10892 -0.21672,-0.12509 -0.30238,-0.21404c-0.10975,-0.11397 -0.18385,-0.25757 -0.27577,-0.38635l-0.28425,-0.10703c0,0 -0.31603,-0.13544 -0.23716,-0.44814c-0.38754,-0.32484 -0.75214,-0.67138 -0.93949,-1.16231c-0.2427,-0.63595 -0.18838,-1.03709 -0.18825,-1.69652c0.00022,-1.06526 0.1739,-2.22047 0.95808,-3.03483c0.7915,-0.82198 1.9992,-1.17752 3.06058,-1.46425c1.22394,-0.33065 2.66471,-0.72871 3.7448,0.13056c0,0 0.30784,0.25654 0.05131,0.56438c-0.25654,0.30785 -0.56438,0.05131 -0.56438,0.05131c-0.76683,-0.68764 -2.14727,-0.20926 -3.02261,0.02744c-0.9095,0.24593 -2.00117,0.53343 -2.68495,1.23865c-0.64265,0.66281 -0.74156,1.62795 -0.74137,2.48674c0.00013,0.54598 -0.05665,0.88565 0.13233,1.40241c0.1937,0.52965 0.72347,0.83234 1.12023,1.19536c1.02377,0.39604 2.00517,0.68712 3.10199,0.68817c0.44104,0.00042 0.9677,0.06832 1.38435,-0.15779c0.64453,-0.34979 0.87361,-1.12103 1.08303,-1.75324c0.0246,-0.07425 0.05008,-0.15077 0.07597,-0.22922c-0.00353,-0.02389 -0.00542,-0.04955 -0.00542,-0.0771c0,-0.15107 0.05695,-0.24519 0.12792,-0.30383c0.3352,-1.0813 0.61029,-2.40092 -0.22427,-3.25978c-0.27353,-0.2815 -0.83589,-0.35921 -1.18964,-0.47922l-0.49036,-0.04656c0,0 -0.39874,-0.03987 -0.35886,-0.43861c0.03987,-0.39874 0.43861,-0.35886 0.43861,-0.35886l0.57824,0.0603c0.50702,0.16649 1.12361,0.28037 1.53813,0.64896c0.11867,-0.12353 0.30153,-0.12353 0.30153,-0.12353c0.31386,0.0013 0.95989,0.04701 1.21798,-0.15498c0.19753,-0.15459 0.02388,-0.50111 0.0384,-0.75152c0.00673,-0.11599 0.06782,-0.22819 0.05697,-0.34387c-0.04311,-0.45987 -0.77223,-0.58007 -1.12453,-0.62046l-0.45597,0.00077c0,0 -0.40072,0 -0.40072,-0.40072c0,-0.21047 0.11054,-0.3104 0.21551,-0.35784zM309.6794,170.24244c0.05563,-1.29216 0.02208,-2.47959 0.25072,-3.76351l0.01041,-0.0185l-0.00525,-0.0015l0.21129,-0.7395c0.04497,-0.17213 0.20152,-0.29916 0.38774,-0.29916c0.18026,0 0.33272,0.11903 0.38308,0.28277l0.2108,0.63239c0.07821,0.14247 0.13329,0.30146 0.15374,0.46269c0.01029,0.08109 -0.12722,0.2895 -0.06506,0.23643c0.31371,-0.2678 0.25444,-1.3671 1.01041,-1.18516c0.3612,0.08693 0.50596,0.54455 0.74512,0.82885c0.04883,0.05805 0.10355,0.11433 0.15286,0.17367c0.11312,-0.81037 1.12826,-1.73298 1.8771,-1.51317c0.26016,0.07637 0.32907,0.43171 0.47605,0.65955c0.40163,0.62254 0.84271,1.24658 1.2292,1.88385c-0.00844,-0.51082 0.16991,-0.97901 0.32502,-1.52307c0.20801,-0.72963 0.43242,-1.60562 0.8336,-2.2594c0.20251,-0.33001 0.3201,-0.89171 0.70607,-0.92234c0.38346,-0.03043 0.56836,0.51964 0.83139,0.80033c0.54577,0.58243 1.2729,1.58156 1.56646,2.32694c0.06179,0.15689 -0.10354,0.42603 0.0461,0.50375c0.13546,0.07036 0.00899,-0.30763 0.04673,-0.45554c0.06247,-0.24481 0.16789,-0.4766 0.25188,-0.71489l0.16511,-0.47421c0.05191,-0.16115 0.20309,-0.27775 0.3815,-0.27775c0.16279,0 0.30291,0.09707 0.36563,0.23648l0.34074,0.71555l-0.02071,0.00986c0.07932,0.12754 0.15174,0.25888 0.21377,0.39576c0.10092,0.22269 0.08123,0.64759 0.21593,0.56471l0.2321,-0.4642c0.06425,-0.13554 0.20233,-0.22928 0.3623,-0.22928c0.22131,0 0.40072,0.17941 0.40072,0.40072v0.74554c0.05357,0.14851 0.15223,0.28224 0.20667,0.42914c0.02366,-0.04937 0.05214,-0.09584 0.0871,-0.13742c0.20652,-0.24561 0.40823,-0.69741 0.72311,-0.63554c0.47499,0.09334 0.80753,1.0851 0.98002,1.56999c0.09694,-0.70972 0.51018,-1.43677 1.12906,-1.78516c0.2276,-0.12813 0.55195,-0.32394 0.76444,-0.17206c0.29949,0.21406 0.29604,0.67463 0.42243,1.02037c0.0011,0.003 0.40336,1.34134 0.42526,1.41371c0.12394,0.40941 0.35357,0.80039 0.37364,1.22768c0.00087,0.01851 -0.00006,0.04163 -0.00236,0.06754c0.09823,-0.18165 0.24613,-0.35336 0.32257,-0.54266c0.09325,-0.2309 0.09199,-0.48946 0.13799,-0.73418l0.022,-0.02966l-0.0104,-0.0041l0.2134,-0.54117c0.05633,-0.15316 0.20351,-0.26241 0.37622,-0.26241c0.18622,0 0.34277,0.12703 0.38774,0.29916l0.21774,0.7621l-0.00141,0.0004c0.00145,0.00347 0.00289,0.00694 0.00433,0.01041c0.25901,0.626 0.33248,1.38991 0.52261,2.04259c0.04148,0.14241 0.14313,0.26539 0.16983,0.41129c0.11326,0.61888 -0.06613,1.22855 -0.14752,1.83385c0.78617,0.11918 1.56223,0.40918 1.75428,1.28699c0.03658,0.16719 -0.0416,0.34006 -0.04989,0.51101c-0.02119,0.43691 0.09258,0.9167 -0.28218,1.27882c-0.34175,0.33022 -1.05001,0.37163 -1.5604,0.37798c0.4591,0.89274 0.33569,1.99597 0.07643,3.00024c0.31002,-0.09808 0.60478,-0.24277 0.94359,-0.31419c0.2323,-0.04897 0.48554,-0.19151 0.70501,-0.10101c0.34206,0.14105 0.81381,0.8489 1.02148,1.18822c0.36602,0.59806 0.73248,1.3957 0.52703,2.12425c-0.15547,0.5513 -0.4523,0.7589 -0.75232,1.19609c-0.45479,0.66272 -0.91844,1.29266 -1.61295,1.68698l0.47032,0.12958c0.24492,0.20578 0.61164,0.2925 0.77299,0.56872c0.42036,0.71963 -0.06965,1.60855 -0.58261,2.10293c-0.73361,0.70705 -1.72753,0.61474 -2.64257,0.85555c-0.08627,0.0227 -0.1717,0.04476 -0.25655,0.06627c0.11636,0.55131 0.20989,1.21214 -0.1136,1.65819c-0.11603,0.15998 -0.3278,0.22129 -0.49807,0.32162c-0.39323,0.23172 -1.00519,0.58718 -1.45245,0.72304c-0.327,0.09933 -0.75299,-0.02809 -1.00502,0.20272c-0.58926,0.53964 -0.73039,1.4485 -0.81256,2.18813l0.00245,0.32976c0,0 0,0.40072 -0.40072,0.40072c-0.40072,0 -0.40072,-0.40072 -0.40072,-0.40072l0.00245,-0.41826c0.10332,-0.92968 0.33539,-2.08626 1.11092,-2.72743c0.38928,-0.32183 0.79508,-0.20029 1.23903,-0.33158c0.42885,-0.12682 0.9311,-0.46514 1.3259,-0.66614c0.08063,-0.04105 0.19264,-0.03581 0.24995,-0.10582c0.14196,-0.17343 0.06847,-0.62949 -0.01447,-0.99025c-0.29007,0.06594 -0.58277,0.12875 -0.88897,0.19238c-0.43218,0.05379 -0.87838,-0.00208 -1.30314,0.0941c-0.32435,0.07345 -0.62544,0.24518 -0.95525,0.28788c-1.27813,0.16548 -2.5717,0.24578 -3.85114,0.37712c-0.8439,0.08663 -1.70476,0.04031 -2.55216,0.04031c-1.79881,0 -3.59762,0 -5.39643,0c-0.9958,-0.00029 -1.94471,-0.08611 -2.90882,-0.23961c-0.0301,0.04815 -0.05533,0.09831 -0.06936,0.15312c-0.36039,1.40803 1.87277,0.9323 2.43373,1.67642c0.55069,0.73049 0.80125,1.89858 1.03791,2.76603l0.0621,0.36014c0,0 0.06588,0.39527 -0.32939,0.46115c-0.39527,0.06588 -0.46115,-0.32939 -0.46115,-0.32939l-0.04476,-0.28102c-0.21966,-0.8057 -0.44124,-1.75273 -0.88557,-2.47011c-0.144,-0.2325 -0.89746,-0.27838 -0.94779,-0.28875c-1.1212,-0.23118 -1.86974,-0.82747 -1.6409,-2.0955c0.00603,-0.0334 0.01514,-0.06574 0.02663,-0.09725c-0.67913,-0.12988 -1.54688,-0.20209 -2.16748,-0.51173c-0.22772,-0.11362 -0.40047,-0.31416 -0.60186,-0.46975c-0.81885,-0.63261 -1.59244,-1.64628 -1.00002,-2.72405c0.18512,-0.33678 0.58219,-0.43132 0.87844,-0.60754c0.28049,-0.16685 0.52782,-0.38566 0.76309,-0.61603c-0.38764,-0.1346 -0.78093,-0.29735 -1.08096,-0.55018c-0.37116,-0.31277 -0.40681,-0.58629 -0.66737,-0.9987c-0.35832,-0.56712 -0.75374,-1.05348 -0.90891,-1.73228c-0.1317,-0.57617 -0.16217,-1.51736 0.17423,-2.03329c0.11221,-0.17209 0.33042,-0.24455 0.50196,-0.3576c0.58545,-0.38586 0.80498,-0.67596 1.53163,-0.48698c0.02416,0.00628 0.18148,0.09624 0.37363,0.2092c-0.01107,-0.67985 0.03269,-1.34763 0.11926,-2.04933c0.07071,-0.57312 0.1679,-1.22645 0.37747,-1.80773c-0.16764,0.00678 -0.34297,0.04277 -0.48952,-0.03043c-0.45426,-0.22692 -0.67914,-0.67439 -0.89568,-1.09158c-0.42823,-0.82502 -0.53676,-2.06301 0.23935,-2.77555c0.53185,-0.48829 1.36741,-0.53614 2.03857,-0.53706h0.05343c0,0 0.00331,0 0.00932,0.0003c0.00401,-0.28029 0.03203,-0.56177 0.04408,-0.84172zM329.25771,188.72465c0.08259,-0.0177 0.1515,-0.01426 0.20883,0.0022c0.13635,-0.03365 0.27403,-0.06847 0.41446,-0.10479c0.63991,-0.16555 1.35196,-0.13464 1.96474,-0.40393c0.36399,-0.15996 0.75864,-0.70459 0.7819,-1.08129c0.00531,-0.08598 0.06193,-0.18769 0.01235,-0.25813c-0.05513,-0.07832 -0.18688,-0.05306 -0.26763,-0.10456c-0.12715,-0.0811 -0.23237,-0.19231 -0.34856,-0.28846l-0.12992,0.034c0,0 -0.39527,-0.06588 -0.32939,-0.46115c0.01214,-0.07285 0.03547,-0.13003 0.06545,-0.17485c-0.05997,-0.00298 -0.39149,-0.03594 -0.39149,-0.40043c0,-0.32575 0.2648,-0.3867 0.36389,-0.3981c0.62168,-0.29074 1.0359,-0.92737 1.41603,-1.48474c0.17312,-0.25384 0.54445,-0.62411 0.63686,-0.94111c0.14683,-0.50371 -0.18976,-1.10749 -0.43471,-1.50899c-0.00979,-0.01606 -0.53732,-0.81892 -0.58142,-0.84212c-0.08271,-0.04351 -0.16862,0.08153 -0.25673,0.11271c-0.14838,0.05251 -0.30279,0.08664 -0.45159,0.13794c-0.31088,0.10718 -0.62948,0.21733 -0.95415,0.27039c-0.02127,0.06488 -0.04254,0.1288 -0.06367,0.19165c-0.28335,0.84295 -0.61488,1.74289 -1.46027,2.20352c-0.59251,0.32284 -1.13416,0.25468 -1.76733,0.25522c-0.75812,0.00065 -1.47076,-0.12357 -2.17185,-0.32713c0.31388,0.99376 -0.75964,2.12859 -1.34177,2.7778c-1.44396,1.22474 -3.67561,1.40022 -5.39705,0.72673c-0.58758,-0.22988 -0.95418,-0.26044 -1.46081,-0.72035c-0.59125,-0.53672 -0.79575,-1.42859 -0.72976,-2.24299c-0.92418,0.30303 -2.02969,-0.08784 -2.91433,-0.31425c-1.20733,-0.309 -2.35745,-0.61154 -3.50093,-1.10619c-0.62366,-0.26978 -1.06777,-0.37739 -1.51061,-0.95293c-0.19449,-0.25277 -0.27417,-0.57594 -0.41126,-0.86391c-0.00482,-0.04748 -0.00936,-0.09479 -0.01363,-0.14195c-0.20328,-0.14439 -0.40618,-0.28912 -0.63776,-0.37575c-0.35943,-0.13445 -0.62932,0.22645 -0.88091,0.38658c-0.09319,0.05932 -0.22969,0.06633 -0.2913,0.15802c-0.19827,0.29507 -0.10984,1.07433 -0.03949,1.38623c0.13071,0.57941 0.49599,0.99063 0.80085,1.47351c0.09699,0.15363 0.301,0.64846 0.50809,0.81792c0.35581,0.29117 0.8845,0.42617 1.31191,0.56811l-0.01986,-0.02056c0,0 0.37583,0 0.39955,0.36397c0.0512,0.20613 -0.1162,0.37354 -0.1162,0.37354c-0.42304,0.42282 -0.84274,0.86977 -1.35898,1.18198c-0.00677,0.0041 -0.55242,0.2443 -0.6176,0.3542c-0.3817,0.64362 0.38167,1.31608 0.8166,1.65721c0.15871,0.12448 0.28642,0.29473 0.46674,0.38513c0.55881,0.28016 1.37192,0.32838 1.98163,0.44646c1.19614,0.23164 2.33841,0.36716 3.55752,0.36679c1.79881,0 3.59762,0 5.39643,0c0.81889,0 1.65317,0.04909 2.46845,-0.03593c0.78818,-0.08219 1.56662,-0.16459 2.35929,-0.22588c0.59722,-0.04617 1.31868,-0.02156 1.89291,-0.20118c0.16055,-0.05022 0.28942,-0.18494 0.45376,-0.22089c0.44287,-0.09688 0.90617,-0.04822 1.35598,-0.10471c0.35157,-0.07298 0.68181,-0.14548 1.01131,-0.22269c0.04684,-0.04499 0.11286,-0.08202 0.20545,-0.10186z"/><path d="M326.26946,179.1785c0,-0.22131 0.17941,-0.40072 0.40072,-0.40072c0.22131,0 0.40072,0.17941 0.40072,0.40072c0,0.22131 -0.17941,0.40072 -0.40072,0.40072c-0.22131,0 -0.40072,-0.17941 -0.40072,-0.40072z"/><path d="M313.44624,178.32363c0,-0.22131 0.17941,-0.40072 0.40072,-0.40072c0.22131,0 0.40072,0.17941 0.40072,0.40072c0,0.22131 -0.17941,0.40072 -0.40072,0.40072c-0.22131,0 -0.40072,-0.17941 -0.40072,-0.40072z"/><path d="M308.3626,183.38388c-0.35842,0.17921 -0.53763,-0.17921 -0.53763,-0.17921l-0.08377,-0.18888c-0.07385,-0.29628 -0.16182,-0.58917 -0.25855,-0.87878c0,0 -0.12672,-0.38016 0.25344,-0.50688c0.38016,-0.12672 0.50688,0.25344 0.50688,0.25344c0.10287,0.30918 0.19652,0.62177 0.27575,0.93784l0.02309,0.02484c0,0 0.17921,0.35842 -0.17921,0.53763z"/><path d="M331.01793,184.16467c-0.39118,-0.08693 -0.30425,-0.47811 -0.30425,-0.47811l0.12428,-0.53844c0.13416,-0.23573 0.24237,-0.49037 0.30559,-0.75414c0,0 0.09719,-0.38876 0.48595,-0.29157c0.38876,0.09719 0.29157,0.48595 0.29157,0.48595c-0.07602,0.29458 -0.18417,0.58488 -0.33557,0.84876l-0.08944,0.4233c0,0 -0.08693,0.39118 -0.47811,0.30425z"/></g></g></g></svg>