<svg version="1.1" xmlns="http://www.w3.org/2000/svg" xmlns:xlink="http://www.w3.org/1999/xlink" width="688" height="486" viewBox="0,0,688,486"><defs><linearGradient x1="313.5" y1="-60.13205" x2="313.5" y2="425.86796" gradientUnits="userSpaceOnUse" id="color-1"><stop offset="0" stop-color="#291e00" stop-opacity="0.80784"/><stop offset="1" stop-color="#291e00"/></linearGradient><linearGradient x1="320" y1="143.78218" x2="320" y2="332.14773" gradientUnits="userSpaceOnUse" id="color-2"><stop offset="0" stop-color="#ededa3"/><stop offset="1" stop-color="#e5d575"/></linearGradient><linearGradient x1="320" y1="27.8523" x2="320" y2="106.89538" gradientUnits="userSpaceOnUse" id="color-3"><stop offset="0" stop-color="#ededa3"/><stop offset="1" stop-color="#e5d575"/></linearGradient></defs><g transform="translate(30.5,60.13205)"><g data-paper-data="{&quot;isPaintingLayer&quot;:true}" fill-rule="nonzero" stroke-linecap="butt" stroke-linejoin="miter" stroke-miterlimit="10" stroke-dasharray="" stroke-dashoffset="0" style="mix-blend-mode: normal"><path d="M-30.5,425.86796v-486h688v486z" fill="url(#color-1)" stroke="none" stroke-width="0"/><path d="M474.51521,146.99273c2.36406,2.7604 1.68442,179.27683 0,182.71026c-2.05682,4.19251 -305.52916,2.17405 -308.77549,0c-1.97666,-1.32375 -2.74867,-180.40219 0,-182.71026c3.11891,-2.61897 303.91332,-5.67737 308.77549,0z" fill="url(#color-2)" stroke="#4a4600" stroke-width="6"/><text transform="translate(320,182.63498) scale(0.92217,0.92217)" font-size="40" xml:space="preserve" fill="#4b4b00" fill-rule="nonzero" stroke="none" stroke-width="1" stroke-linecap="butt" stroke-linejoin="miter" stroke-miterlimit="10" stroke-dasharray="" stroke-dashoffset="0" font-family="Malgun Gothic" font-weight="normal" text-anchor="middle" style="mix-blend-mode: normal"><tspan x="0" dy="0">CLICK ON THEIR </tspan><tspan x="0" dy="48px">NAMES TO </tspan><tspan x="0" dy="48px">READ THEIR </tspan><tspan x="0" dy="48px">BIOGRAPHIES</tspan></text><path d="M564.01548,31.06286c2.36406,2.7604 1.68442,69.95435 0,73.38778c-2.05682,4.19251 -484.5297,2.17405 -487.77603,0c-1.97666,-1.32375 -2.74867,-71.07971 0,-73.38778c3.11891,-2.61897 482.91386,-5.67737 487.77603,0z" fill="url(#color-3)" stroke="#4a4600" stroke-width="6"/><text transform="translate(320,61.06977) scale(0.57825,0.60067)" font-size="40" xml:space="preserve" fill="#4b4b00" fill-rule="nonzero" stroke="none" stroke-width="1" stroke-linecap="butt" stroke-linejoin="miter" stroke-miterlimit="10" stroke-dasharray="" stroke-dashoffset="0" font-family="Malgun Gothic" font-weight="normal" text-anchor="middle" style="mix-blend-mode: normal"><tspan x="0" dy="0">USE THE ARROW KEYS OR WASD TO CYCLE</tspan><tspan x="0" dy="46.150000000000006px">THROUGH THE POLOS</tspan></text></g></g></svg>