<svg version="1.1" xmlns="http://www.w3.org/2000/svg" xmlns:xlink="http://www.w3.org/1999/xlink" width="117.91478" height="110.62443" viewBox="0,0,117.91478,110.62443"><g transform="translate(-184.21465,-118.76649)"><g data-paper-data="{&quot;isPaintingLayer&quot;:true}" fill-rule="nonzero" stroke-linejoin="miter" stroke-miterlimit="10" stroke-dasharray="" stroke-dashoffset="0" style="mix-blend-mode: normal"><g stroke-linecap="butt"><path d="M284.09104,200.51114c6.27772,4.04147 -2.57724,15.8126 -10.54881,18.66167c-12.71622,4.54483 -22.08568,-2.37628 -22.08568,-2.37628l5.28892,-5.24731c0,0 6.43296,3.05013 11.62144,-0.03225c6.39916,-3.80159 8.04658,-15.94846 15.7241,-11.00583z" fill="#ecec68" stroke="#000000" stroke-width="2"/><path d="M273.01368,205.88488l3.60916,-5.25496l9.17041,6.29837l-3.60916,5.25494z" fill="#000000" stroke="none" stroke-width="0"/><path d="M268.38829,211.74799l4.00957,-3.70934l5.40564,8.54005l-5.14516,2.86648z" fill="#000000" stroke="none" stroke-width="0"/><path d="M260.60544,212.69181l5.6346,-0.22866l-0.31975,8.60878l-6.54119,-0.77445z" fill="#000000" stroke="none" stroke-width="0"/></g><g data-paper-data="{&quot;index&quot;:null}" stroke-linecap="butt"><path d="M270.46378,212.20927c-0.7832,2.83948 -5.73393,4.46434 -10.3481,3.19162c-4.61416,-1.27271 -7.14445,-4.96101 -6.36124,-7.80048c0.7832,-2.83948 6.10757,-4.13676 10.72174,-2.86406c4.61417,1.27271 6.7708,4.63342 5.98759,7.4729z" fill="#ecec68" stroke="#000000" stroke-width="2"/><path d="M264.66794,215.61226l2.90932,-9.06351c0,0 4.04233,1.54808 3.23086,5.53601c-0.69706,3.42577 -6.14019,3.52748 -6.14019,3.52748z" fill="#000000" stroke="none" stroke-width="0"/><path d="M257.54061,214.31991l3.66323,-10.45108l3.38491,0.91312l-3.22868,10.6338z" fill="#000000" stroke="none" stroke-width="0"/></g><g stroke-linecap="butt"><path d="M229.77468,204.20603c0.73135,2.85327 -1.86569,6.49489 -6.50227,7.68336c-4.63657,1.18848 -9.5569,-0.52626 -10.28825,-3.37955c-0.73135,-2.85327 1.48614,-6.17415 6.1227,-7.36262c4.63657,-1.18848 9.93645,0.20553 10.6678,3.0588z" fill="#ecec68" stroke="#000000" stroke-width="2"/><path d="M212.64211,208.37911c-0.73871,-4.00207 3.33114,-5.47626 3.33114,-5.47626l2.74378,9.11498c0,0 -5.44035,-0.2008 -6.07492,-3.6387z" fill="#000000" stroke="none" stroke-width="0"/><path d="M222.02796,211.88156l-3.0345,-10.69084l3.40098,-0.85131l3.47232,10.51606z" fill="#000000" stroke="none" stroke-width="0"/></g><path d="M250.09352,220.92949c8.16615,-0.13998 9.94936,2.12573 8.5651,5.10799c-0.31292,0.67415 -2.25852,2.13538 -8.35773,1.80566c-6.6718,-0.36067 -9.29157,-0.91172 -9.29157,-1.65972c0,-1.57638 -0.72955,-3.24678 0.67809,-4.17864c1.25539,-0.83106 4.39253,-1.0065 8.40611,-1.0753z" data-paper-data="{&quot;index&quot;:null}" fill="#c5c556" stroke="#9b9b44" stroke-width="3" stroke-linecap="butt"/><path d="M241.77572,219.19821c-6.61889,-0.82849 -14.54444,-1.83682 -14.57215,-2.86141c-0.1041,-3.85023 7.89407,-16.40574 7.89407,-16.40574l17.2399,1.92753c0,0 3.37363,15.78844 3.36091,17.68993c-0.01272,1.9015 -6.74716,0.54785 -13.92274,-0.3503z" fill="#000000" stroke="#6e6e30" stroke-width="3" stroke-linecap="butt"/><g stroke="none" stroke-width="0" stroke-linecap="butt"><path d="M241.01684,205.95046c-46.21497,-4.19973 -54.87863,-33.91096 -54.87863,-33.91096c0,0 6.99635,-1.00816 12.58464,-7.82688c12.36138,-15.08318 20.70618,-42.84725 48.1075,-40.57074c28.61953,2.37772 31.72501,28.97074 41.70314,46.96955c4.01766,7.20128 11.5956,12.23421 11.5956,12.23421c0,0 -12.06775,27.37992 -59.11224,23.10482z" fill="#ecec68"/><path d="M299.2437,181.51195c0,0 -4.25306,10.83009 -16.27387,17.14868c-12.46855,6.55393 -31.5957,6.53763 -31.5957,6.53763c0,0 18.90179,-10.13178 20.55202,-42.01136c0.94355,-18.2278 -12.49932,-37.25358 -12.49932,-37.25358c0,0 10.52204,6.1438 17.25568,17.15436c5.38167,8.79988 7.07545,19.44629 10.56575,24.43014c1.70303,2.43178 2.61182,5.58581 4.60236,7.8709c3.27448,3.75898 7.39305,6.12325 7.39305,6.12325z" fill="#cbcb6a"/></g><path d="M202.57696,177.53702c0.27177,-3.05618 2.96963,-5.3134 6.02581,-5.04163c3.05618,0.27177 5.3134,2.96963 5.04164,6.02581c-0.27177,3.05618 -2.96963,5.3134 -6.02581,5.04163c-3.05618,-0.27177 -5.3134,-2.96963 -5.04164,-6.02581z" fill="#6e6e30" stroke="none" stroke-width="0" stroke-linecap="butt"/><path d="M271.40657,183.76935c0.27177,-3.05618 2.96963,-5.31339 6.02581,-5.04163c3.05618,0.27177 5.3134,2.96962 5.04164,6.0258c-0.27177,3.05618 -2.96963,5.3134 -6.02581,5.04164c-3.05618,-0.27177 -5.31341,-2.96963 -5.04164,-6.02581z" fill="#6e6e30" stroke="none" stroke-width="0" stroke-linecap="butt"/><g stroke="none" stroke-width="0" stroke-linecap="butt"><path d="M220.18686,133.48721l-9.9373,14.8448c0,0 -1.50854,-0.57859 -4.18336,-1.36077c-3.63537,-1.06308 -8.9656,-2.88667 -11.32368,-7.71514c-4.29397,-8.79247 0.15588,-14.67632 2.85666,-17.11481c2.82887,-2.55414 9.09886,-4.96086 15.16004,-2.03124c4.82532,2.33227 6.041,6.56157 6.64065,9.61169c0.43742,2.22495 0.78698,3.7655 0.78698,3.7655z" fill="#000000"/><path d="M202.07308,133.96797c0.33837,-3.80496 3.69718,-6.61518 7.50213,-6.27683c3.80496,0.33837 6.61519,3.69719 6.27683,7.50214c-0.33837,3.80496 -3.69719,6.61518 -7.50214,6.27683c-3.80496,-0.33837 -6.61518,-3.69719 -6.27683,-7.50214z" fill="#cbcb6a"/></g><path d="M241.01683,205.95047c-46.21497,-4.19973 -54.87863,-33.91096 -54.87863,-33.91096c0,0 6.99635,-1.00816 12.58463,-7.82689c12.36138,-15.08318 20.70618,-42.84725 48.1075,-40.57074c28.61953,2.37772 30.95243,28.97227 41.03909,46.9105c5.37438,9.55785 12.25965,12.29327 12.25965,12.29327c0,0 -12.06775,27.37992 -59.11225,23.10482z" fill="none" stroke="#000000" stroke-width="3" stroke-linecap="butt"/><g data-paper-data="{&quot;index&quot;:null}" stroke="none" stroke-width="0" stroke-linecap="butt"><path d="M273.84866,138.25915c0,0 0.61591,-1.45468 1.43908,-3.56753c1.12845,-2.89643 3.07136,-6.84486 8.2325,-8.28906c6.48303,-1.81409 12.22994,1.66124 14.56373,4.67447c2.22812,2.8768 5.5699,9.45355 -0.20821,17.35033c-3.17311,4.33661 -8.74147,5.19102 -12.50738,5.59593c-2.77087,0.29792 -4.35782,0.60123 -4.35782,0.60123l-7.16189,-16.36537z" fill="#000000"/><path d="M284.09125,148.20552c-3.80496,-0.33837 -6.61518,-3.69718 -6.27683,-7.50213c0.33837,-3.80496 3.69718,-6.61519 7.50214,-6.27683c3.80496,0.33837 6.61518,3.69719 6.27683,7.50214c-0.33837,3.80496 -3.69718,6.61518 -7.50214,6.27683z" fill="#cbcb6a"/></g><path d="M240.65737,123.02528l13.05127,1.41159c0,0 -1.0747,9.05442 -3.63854,16.81736c-1.93587,5.86151 -4.47772,10.94789 -4.47772,10.94789c0,0 -2.45143,-4.82396 -3.51506,-11.63156c-0.80273,-5.13777 -1.41994,-17.54525 -1.41994,-17.54525z" fill="#000000" stroke="none" stroke-width="0" stroke-linecap="butt"/><path d="M232.09321,141.71515c0,0 4.79022,-7.23223 14.63145,-6.47946c10.09126,0.77188 12.76046,8.91532 12.76046,8.91532z" fill="#000000" stroke="none" stroke-width="0" stroke-linecap="butt"/><path d="M230.70461,131.92868c0,0 5.25879,-7.69253 16.70862,-6.79672c11.74076,0.91857 15.1656,9.63118 15.1656,9.63118z" fill="#000000" stroke="none" stroke-width="0" stroke-linecap="butt"/><g fill="#000000" stroke="none" stroke-width="0" stroke-linecap="butt"><path d="M192.32626,182.47793c0,0 -5.02641,-6.78356 -4.97644,-9.10909c0.04191,-1.95019 5.25636,-3.91732 5.25636,-3.91732c0,0 3.44232,3.17643 8.74982,5.71233c4.45438,2.1283 9.05742,2.89883 9.05742,2.89883c0,0 -2.28185,2.85483 -7.52006,3.75092c-7.66499,1.31122 -10.56711,0.66432 -10.56711,0.66432z"/><path d="M193.81986,184.45416c0,0 8.39826,2.38505 13.63603,2.39655c4.39586,0.00966 8.39245,-1.12952 8.39245,-1.12952c0,0 0.04557,3.1365 -4.03674,6.44377c-2.30576,1.86801 -4.58519,2.92502 -5.93876,3.58355c-0.76606,-0.49345 -2.25298,-1.38741 -2.96754,-1.80649c-0.60054,-0.35222 -1.45202,-1.38851 -2.4433,-2.62797c-0.77482,-1.64211 -1.9864,-3.05002 -3.49832,-4.06069c-0.02636,-0.01761 -0.05279,-0.0351 -0.07932,-0.05247c0.68551,-0.90955 -3.06449,-2.74673 -3.06449,-2.74673z"/><path d="M215.68692,196.31912c4.22138,-2.16223 6.66997,-4.94457 6.66997,-4.94457c0,0 1.14045,3.04794 -0.5664,7.46149c-0.62046,1.6044 -1.1991,2.92891 -1.71839,4.01358c-2.07415,-1.36088 -4.33516,-2.26785 -6.8649,-3.5679c-0.21187,-0.10888 -2.46875,-1.50101 -2.72646,-1.56832c1.08695,-0.55498 3.33124,-0.43392 5.20619,-1.39428z"/></g><g data-paper-data="{&quot;index&quot;:null}" fill="#000000" stroke="none" stroke-width="0" stroke-linecap="butt"><path d="M281.88436,188.58701c-4.9979,-1.80634 -6.74018,-5.01904 -6.74018,-5.01904c0,0 4.66679,0.0538 9.42681,-1.25508c5.6717,-1.55956 9.6205,-4.07873 9.6205,-4.07873c0,0 4.78552,2.85638 4.48266,4.78338c-0.36117,2.29786 -6.50571,8.08802 -6.50571,8.08802c0,0 -2.97074,0.12464 -10.28407,-2.51855z"/><path d="M289.3054,195.54506c-0.02918,0.01241 -0.84963,0.45657 -0.87869,0.46926c-1.66654,0.72801 -4.77315,0.87345 -5.82558,2.35308c-0.20555,0.17985 1.73555,1.67439 1.54125,1.84154c-0.93469,0.80417 -3.86909,0.11477 -4.40994,0.31406c-0.77731,0.28642 -2.39862,0.90398 -3.23974,1.25449c-1.21612,-0.88705 -3.27328,-2.32971 -5.21323,-4.57527c-3.43464,-3.97572 -2.83635,-7.05495 -2.83635,-7.05495c0,0 3.73286,1.82652 8.06144,2.5927c5.1576,0.91293 14.73863,-0.12426 14.73863,-0.12426c0,0 -2.45207,1.91311 -1.93781,2.92935z"/><path d="M271.61041,202.89848c-0.26553,0.02075 -2.73265,0.99281 -2.9604,1.0626c-2.71945,0.83327 -5.10503,1.32703 -7.38677,2.30056c-0.31976,-1.15929 -0.65558,-2.56513 -0.9832,-4.25384c-0.90127,-4.64547 0.75912,-7.44436 0.75912,-7.44436c0,0 1.91919,3.17075 5.69281,6.04395c1.67606,1.27614 3.9065,1.55302 4.87847,2.29108z"/></g><g fill="#000000" stroke="none" stroke-width="0" stroke-linecap="butt"><path d="M227.76496,164.98573c-0.76132,8.56114 -5.28059,15.15433 -10.09408,14.72628c-4.81349,-0.42806 -8.09844,-7.71524 -7.33713,-16.27638c0.76132,-8.56114 5.28059,-15.15433 10.09408,-14.72628c4.81349,0.42806 8.09844,7.71524 7.33713,16.27638z"/><path d="M217.06582,170.71053c-0.11251,1.26526 -4.45139,1.51166 -4.45139,1.51166c0,0 -1.11845,-0.5694 -2.58312,-1.31091c-1.90772,-0.96581 -4.2579,-2.28062 -4.00849,-3.59223c0.29084,-1.52953 2.7402,-1.11286 4.63101,-0.74863c1.4084,0.27131 2.43005,0.3726 2.43005,0.3726c0,0 4.09445,2.50225 3.98194,3.76752z"/></g><g data-paper-data="{&quot;index&quot;:null}" fill="#000000" stroke="none" stroke-width="0" stroke-linecap="butt"><path d="M270.14094,153.53174c4.81349,0.42806 8.09843,7.71524 7.33713,16.27638c-0.76132,8.56114 -5.2806,15.15433 -10.09409,14.72628c-4.81349,-0.42806 -8.09843,-7.71524 -7.33713,-16.27638c0.76132,-8.56114 5.2806,-15.15433 10.09409,-14.72628z"/><path d="M274.15221,172.77519c0,0 1.02351,0.08058 2.45769,0.06205c1.92541,-0.02486 4.40984,-0.00279 4.42623,1.55406c0.01405,1.33504 -2.53126,2.21451 -4.57946,2.82853c-1.57254,0.47143 -2.77391,0.83452 -2.77391,0.83452c0,0 -4.22731,-1.00816 -4.1148,-2.27341c0.11251,-1.26526 4.58426,-3.00575 4.58426,-3.00575z"/></g><path d="M220.80167,160.57671c-0.3005,3.37928 -2.0731,5.98274 -3.95921,5.81503c-1.88611,-0.16772 -3.17148,-3.04314 -2.87097,-6.4224c0.3005,-3.37928 2.0731,-5.98273 3.95921,-5.81502c1.88611,0.16772 3.17148,3.04314 2.87097,6.42239z" fill="#ffffff" stroke="none" stroke-width="0" stroke-linecap="butt"/><path d="M270.06124,164.67036c-0.3005,3.37928 -2.0731,5.98274 -3.95921,5.81503c-1.88611,-0.16772 -3.17149,-3.04314 -2.87097,-6.4224c0.3005,-3.37928 2.0731,-5.98273 3.95921,-5.81502c1.88611,0.16772 3.17149,3.04313 2.87097,6.42239z" fill="#ffffff" stroke="none" stroke-width="0" stroke-linecap="butt"/><path d="M231.5494,170.35287c0.58354,-6.56207 6.37621,-11.40864 12.93827,-10.82508c6.56207,0.58354 11.40863,6.37621 10.82507,12.93827c-0.58354,6.56207 -6.37621,11.40863 -12.93827,10.82508c-6.56207,-0.58354 -11.40863,-6.3762 -10.82507,-12.93827z" fill="#6e6e30" stroke="none" stroke-width="0" stroke-linecap="butt"/><path d="M218.36921,171.8022c0.09241,-1.03912 1.00967,-1.80656 2.04877,-1.71415c1.03912,0.09241 1.80657,1.00966 1.71416,2.04876c-0.09241,1.03912 -1.00967,1.80657 -2.04877,1.71416c-1.03912,-0.09241 -1.80657,-1.00967 -1.71416,-2.04877z" fill="#6e6e30" stroke="none" stroke-width="0" stroke-linecap="butt"/><path d="M268.24399,176.68359c0.0924,-1.03912 1.00968,-1.80656 2.04877,-1.71415c1.03911,0.09241 1.80656,1.00967 1.71416,2.04876c-0.0924,1.03912 -1.00968,1.80656 -2.04877,1.71416c-1.03911,-0.09241 -1.80656,-1.00967 -1.71416,-2.04877z" fill="#6e6e30" stroke="none" stroke-width="0" stroke-linecap="butt"/><path d="M241.98193,185.08485c-6.76298,-0.58719 -5.78876,-8.68975 -5.78876,-8.68975c0,0 3.13611,0.58273 4.00703,0.27806c1.05493,-0.36903 3.16715,-2.32923 3.16715,-2.32923c0,0 1.88365,2.32939 2.74453,2.82976c0.71373,0.41483 3.32428,0.29151 3.32428,0.29151c0,0 -0.20731,8.67971 -7.45421,7.61968z" fill="#c5c556" stroke="#000000" stroke-width="1.5" stroke-linecap="butt"/><path d="M252.46951,175.47604c0,0 -1.80757,3.2929 -5.9641,1.97574c-2.94765,-0.93408 -2.9755,-4.02858 -2.9755,-4.02858c0,0 -1.01222,3.49348 -3.94483,3.55905c-4.19161,0.09373 -5.88963,-3.0084 -5.88963,-3.0084" fill="none" stroke="#000000" stroke-width="2" stroke-linecap="round"/><g stroke="none" stroke-width="0" stroke-linecap="butt"><path d="M250.89638,167.76471c-0.2018,2.26923 -4.37314,6.66146 -7.62295,6.22424c-3.24886,-0.43707 -6.77283,-5.21724 -6.57104,-7.48646c0.2018,-2.26923 3.41242,-4.33979 7.42365,-3.9831c4.01124,0.35671 6.97212,2.97609 6.77033,5.24532z" fill="#000000"/><path d="M248.314,166.69844c-0.08357,0.93979 -2.17669,1.52151 -4.67513,1.29934c-2.49845,-0.22218 -4.45607,-1.16413 -4.3725,-2.10392c0.08357,-0.93979 1.42814,-1.56302 4.84852,-1.36757c3.33711,0.19068 4.28268,1.23237 4.1991,2.17214z" fill="#ffffff"/></g><path d="M242.75046,181.28082l0.52197,-5.86969" fill="none" stroke="#000000" stroke-width="1" stroke-linecap="round"/><path d="M236.53652,214.65342c1.58519,4.23211 0.18124,8.67011 -3.13582,9.91255c-3.31706,1.24245 -7.29111,-1.18116 -8.87629,-5.41326c-1.58519,-4.23211 -0.18124,-8.67011 3.13582,-9.91255c3.31706,-1.24245 7.29111,1.18116 8.87629,5.41326z" fill="#c5c556" stroke="#9b9b44" stroke-width="3" stroke-linecap="butt"/></g></g></svg>