<svg version="1.1" xmlns="http://www.w3.org/2000/svg" xmlns:xlink="http://www.w3.org/1999/xlink" width="378" height="460.00001" viewBox="0,0,378,460.00001"><defs><linearGradient x1="320" y1="-67.5" x2="320" y2="269.5" gradientUnits="userSpaceOnUse" id="color-1"><stop offset="0" stop-color="#ffffd1"/><stop offset="1" stop-color="#f1f19c"/></linearGradient></defs><g transform="translate(-131,83.00001)"><g data-paper-data="{&quot;isPaintingLayer&quot;:true}" stroke-miterlimit="10" stroke-dasharray="" stroke-dashoffset="0" style="mix-blend-mode: normal"><path d="M145.24891,375c-6.76488,0 -12.24891,-5.33739 -12.24891,-11.9214v-432.15721c0,-6.58401 5.48402,-11.9214 12.24891,-11.9214h349.50219c6.76488,0 12.2489,5.33739 12.2489,11.9214v432.15721c0,6.584 -5.48402,11.9214 -12.2489,11.9214z" fill="#535311" fill-rule="nonzero" stroke="#212108" stroke-width="4" stroke-linecap="butt" stroke-linejoin="miter"/><path d="M160.66812,361.5c-6.16798,0 -11.16812,-4.94148 -11.16812,-11.03711v-406.92577c0,-6.09563 5.00014,-11.03711 11.16812,-11.03711h318.66376c6.16798,0 11.16812,4.94149 11.16812,11.03712v406.92577c0,6.09563 -5.00014,11.03711 -11.16812,11.03711z" fill="url(#color-1)" fill-rule="nonzero" stroke="#212108" stroke-width="4.5" stroke-linecap="butt" stroke-linejoin="miter"/><text transform="translate(160.5,-35.68135) scale(0.61033,0.61033)" font-size="40" xml:space="preserve" fill="#212108" fill-rule="nonzero" stroke="none" stroke-width="1" stroke-linecap="butt" stroke-linejoin="miter" stroke-miterlimit="10" stroke-dasharray="" stroke-dashoffset="0" font-family="&quot;Allan-Regular&quot;, Sans Serif" font-weight="normal" text-anchor="start" style="mix-blend-mode: normal"><tspan x="0" dy="0">name: Elliot E. Ohno</tspan><tspan x="0" dy="46.150000000000006px">age: 16</tspan><tspan x="0" dy="46.150000000000006px">occupation: head doctor</tspan></text><g><path d="M432.53444,-56.08653h32.93116c6.43804,0 11.62097,5.18296 11.62097,11.62097v32.93116c0,6.43802 -5.18294,11.62098 -11.62097,11.62098h-32.93116c-6.43802,0 -11.62098,-5.18296 -11.62098,-11.62097v-32.93116c0,-6.43801 5.18296,-11.62097 11.62098,-11.62097z" fill="#a0a300" fill-rule="evenodd" stroke="#212108" stroke-width="2" stroke-linecap="round" stroke-linejoin="round"/><g fill="none" fill-rule="nonzero" stroke="none" stroke-width="1" stroke-linecap="butt" stroke-linejoin="miter" font-family="sans-serif" font-weight="normal" font-size="12" text-anchor="start"><g/><g data-paper-data="{&quot;index&quot;:null}"/></g></g><text transform="translate(160.5,51.31336) scale(0.4211,0.42238)" font-size="40" xml:space="preserve" fill="#212108" fill-rule="nonzero" stroke="none" stroke-width="1" stroke-linecap="butt" stroke-linejoin="miter" stroke-miterlimit="10" stroke-dasharray="" stroke-dashoffset="0" font-family="&quot;Allan-Regular&quot;, Sans Serif" font-weight="normal" text-anchor="start" style="mix-blend-mode: normal"><tspan x="0" dy="0">Description-</tspan><tspan x="0" dy="46.150000000000006px">This whiz kid is way too smart for his own  good, and </tspan><tspan x="0" dy="46.150000000000006px">not in a nice way. The information he has up there in </tspan><tspan x="0" dy="46.150000000000006px">his noggin are facts nobody should ever know regardless </tspan><tspan x="0" dy="46.150000000000006px">of their importance in the world. The school systems, </tspan><tspan x="0" dy="46.150000000000006px">government, and his parents were so scared of him they </tspan><tspan x="0" dy="46.150000000000006px">basically gave him up to the MCS. But instead of something</tspan><tspan x="0" dy="46.150000000000006px">terrible unfolding after his arrival, Elliot got a pretty sweet </tspan><tspan x="0" dy="46.150000000000006px">gig as the syndicate’s head doctor (medical and experimental). </tspan><tspan x="0" dy="46.150000000000006px">Responsible for almost all the body modifications and weird </tspan><tspan x="0" dy="46.150000000000006px">goopy lab experiments, subsiding any fear of him being a </tspan><tspan x="0" dy="46.150000000000006px">sociopath. That’s what I would be saying if only he wasn't </tspan><tspan x="0" dy="46.150000000000006px">really scary around rats, like he fucking yoinks them from </tspan><tspan x="0" dy="46.150000000000006px">holes in the wall and squeezes them until their eyes almost</tspan><tspan x="0" dy="46.150000000000006px">pop out but then lets them sink back in. Nobody likes a baby </tspan><tspan x="0" dy="46.150000000000006px">Einstein.</tspan><tspan x="0" dy="46.150000000000006px"> </tspan></text><path d="M160.16667,-30.16667v-1.66667h252.16667v1.66667z" fill="#212108" fill-rule="nonzero" stroke="none" stroke-width="0" stroke-linecap="butt" stroke-linejoin="miter"/><path d="M160.16667,-0.66667v-1.66667h252.16667v1.66667z" fill="#212108" fill-rule="nonzero" stroke="none" stroke-width="0" stroke-linecap="butt" stroke-linejoin="miter"/><path d="M160.16667,29.33333v-1.66667h252.16667v1.66667z" fill="#212108" fill-rule="nonzero" stroke="none" stroke-width="0" stroke-linecap="butt" stroke-linejoin="miter"/><g fill-rule="nonzero" stroke-width="1.15" stroke-linejoin="miter"><path d="M471.58717,-28c0,12.0889 -10.18016,21.88889 -22.73802,21.88889c-12.55787,0 -22.73802,-9.80001 -22.73802,-21.88889c0,-12.0889 10.18016,-21.88889 22.73802,-21.88889c12.55787,0 22.73802,9.80001 22.73802,21.88889z" fill="#d9db56" stroke="none" stroke-linecap="butt"/><g fill="none" stroke="#000000"><path d="M464.84408,-26.90441c0,0 -3.47078,9.76303 -11.06568,12.45376c-7.59489,2.69072 -16.43784,-2.70979 -16.43784,-2.70979z" stroke-linecap="butt"/><path d="M445.88608,-19.88828l2.44723,5.51994" stroke-linecap="round"/><path d="M451.41948,-22.11405l2.53473,6.95957" stroke-linecap="round"/><path d="M459.17863,-18.80644l-1.99755,-5.4361" stroke-linecap="round"/></g><g><g stroke-linecap="butt"><path d="M440.09242,-28.93725c0,1.12375 -0.90291,2.03471 -2.0167,2.03471c-1.11379,0 -2.0167,-0.91097 -2.0167,-2.03471c0,-1.12375 0.90291,-2.03471 2.0167,-2.03471c1.11379,0 2.0167,0.91097 2.0167,2.03471z" fill="#000000" stroke="none"/><path d="M444.55039,-28.84912c0,3.63449 -2.94632,6.58082 -6.58082,6.58082c-3.63449,0 -6.58082,-2.94632 -6.58082,-6.58082c0,-3.63449 2.94632,-6.58082 6.58082,-6.58082c3.63449,0 6.58082,2.94632 6.58082,6.58082z" fill="none" stroke="#000000"/></g><g stroke-linecap="butt"><path d="M459.19802,-34.98735c0,1.12375 -0.90291,2.03471 -2.0167,2.03471c-1.11379,0 -2.0167,-0.91097 -2.0167,-2.03471c0,-1.12375 0.90291,-2.03471 2.0167,-2.03471c1.11379,0 2.0167,0.91097 2.0167,2.03471z" fill="#000000" stroke="none"/><path d="M463.656,-34.89923c0,3.63449 -2.94632,6.58082 -6.58082,6.58082c-3.63449,0 -6.58082,-2.94632 -6.58082,-6.58082c0,-3.63449 2.94632,-6.58082 6.58082,-6.58082c3.63449,0 6.58082,2.94632 6.58082,6.58082z" fill="none" stroke="#000000"/></g><path d="M445.08111,-30.97197l4.88254,-1.69828" fill="none" stroke="#000000" stroke-linecap="round"/></g></g></g></g></svg>