<svg version="1.1" xmlns="http://www.w3.org/2000/svg" xmlns:xlink="http://www.w3.org/1999/xlink" width="378" height="460.00001" viewBox="0,0,378,460.00001"><defs><linearGradient x1="320" y1="-67.5" x2="320" y2="269.5" gradientUnits="userSpaceOnUse" id="color-1"><stop offset="0" stop-color="#ffffd1"/><stop offset="1" stop-color="#f1f19c"/></linearGradient></defs><g transform="translate(-131,83.00001)"><g data-paper-data="{&quot;isPaintingLayer&quot;:true}" stroke-miterlimit="10" stroke-dasharray="" stroke-dashoffset="0" style="mix-blend-mode: normal"><path d="M145.24891,375c-6.76488,0 -12.24891,-5.33739 -12.24891,-11.9214v-432.15721c0,-6.58401 5.48402,-11.9214 12.24891,-11.9214h349.50219c6.76488,0 12.2489,5.33739 12.2489,11.9214v432.15721c0,6.584 -5.48402,11.9214 -12.2489,11.9214z" fill="#535311" fill-rule="nonzero" stroke="#212108" stroke-width="4" stroke-linecap="butt" stroke-linejoin="miter"/><path d="M160.66812,361.5c-6.16798,0 -11.16812,-4.94148 -11.16812,-11.03711v-406.92577c0,-6.09563 5.00014,-11.03711 11.16812,-11.03711h318.66376c6.16798,0 11.16812,4.94149 11.16812,11.03712v406.92577c0,6.09563 -5.00014,11.03711 -11.16812,11.03711z" fill="url(#color-1)" fill-rule="nonzero" stroke="#212108" stroke-width="4.5" stroke-linecap="butt" stroke-linejoin="miter"/><text transform="translate(161,-35.68135) scale(0.61033,0.61033)" font-size="40" xml:space="preserve" fill="#212108" fill-rule="nonzero" stroke="none" stroke-width="1" stroke-linecap="butt" stroke-linejoin="miter" stroke-miterlimit="10" stroke-dasharray="" stroke-dashoffset="0" font-family="&quot;Allan-Regular&quot;, Sans Serif" font-weight="normal" text-anchor="start" style="mix-blend-mode: normal"><tspan x="0" dy="0">name: Matty ‘Stampeedy’</tspan><tspan x="0" dy="46.150000000000006px">age: 23</tspan><tspan x="0" dy="46.150000000000006px">occupation: ex employee</tspan></text><g><path d="M432.53444,-56.08653h32.93116c6.43804,0 11.62097,5.18296 11.62097,11.62097v32.93116c0,6.43802 -5.18294,11.62098 -11.62097,11.62098h-32.93116c-6.43802,0 -11.62098,-5.18296 -11.62098,-11.62097v-32.93116c0,-6.43801 5.18296,-11.62097 11.62098,-11.62097z" fill="#a0a300" fill-rule="evenodd" stroke="#212108" stroke-width="2" stroke-linecap="round" stroke-linejoin="round"/><g fill="none" fill-rule="nonzero" stroke="none" stroke-width="1" stroke-linecap="butt" stroke-linejoin="miter" font-family="sans-serif" font-weight="normal" font-size="12" text-anchor="start"><g/><g data-paper-data="{&quot;index&quot;:null}"/></g></g><text transform="translate(160.5,50.57617) scale(0.42591,0.42997)" font-size="40" xml:space="preserve" fill="#212108" fill-rule="nonzero" stroke="none" stroke-width="1" stroke-linecap="butt" stroke-linejoin="miter" stroke-miterlimit="10" stroke-dasharray="" stroke-dashoffset="0" font-family="&quot;Allan-Regular&quot;, Sans Serif" font-weight="normal" text-anchor="start" style="mix-blend-mode: normal"><tspan x="0" dy="0">Description-</tspan><tspan x="0" dy="46.150000000000006px">Matty was never good with money which always </tspan><tspan x="0" dy="46.150000000000006px">caused him to take up… let's just say not so favorable </tspan><tspan x="0" dy="46.150000000000006px">jobs to get by. Matty ended up double crossing the MCS, </tspan><tspan x="0" dy="46.150000000000006px">pocketing the money. But worst of all he gave The Boss </tspan><tspan x="0" dy="46.150000000000006px">the stink eye, which was the straw that broke the camel’s </tspan><tspan x="0" dy="46.150000000000006px">back. The boss summoned Mustardman to whisk Matty </tspan><tspan x="0" dy="46.150000000000006px">away to the stampede room and at that point there was </tspan><tspan x="0" dy="46.150000000000006px">no going back for Matty. He’s spent the past 10 years tied </tspan><tspan x="0" dy="46.150000000000006px">to a chair in front of a projector playing ‘add round stampede </tspan><tspan x="0" dy="46.150000000000006px">videos’ on repeat. A constant loop of CGI zoo animals, </tspan><tspan x="0" dy="46.150000000000006px">CGI dinosaurs, Cartoonmania characters, BFDI characters, </tspan><tspan x="0" dy="46.150000000000006px">Buzz on Maggie characters, and Splaat. Matty hasn’t quite </tspan><tspan x="0" dy="46.150000000000006px">been the same since, having paranoid delusions of various </tspan><tspan x="0" dy="46.150000000000006px">different characters and animals running across his line </tspan><tspan x="0" dy="46.150000000000006px">of sight.</tspan></text><path d="M160.16667,-30.16667v-1.66667h252.16667v1.66667z" fill="#212108" fill-rule="nonzero" stroke="none" stroke-width="0" stroke-linecap="butt" stroke-linejoin="miter"/><path d="M160.16667,-0.66667v-1.66667h252.16667v1.66667z" fill="#212108" fill-rule="nonzero" stroke="none" stroke-width="0" stroke-linecap="butt" stroke-linejoin="miter"/><path d="M160.16667,29.33333v-1.66667h252.16667v1.66667z" fill="#212108" fill-rule="nonzero" stroke="none" stroke-width="0" stroke-linecap="butt" stroke-linejoin="miter"/><g fill-rule="nonzero" stroke-width="1.5" stroke-linejoin="miter"><g><path d="M440.86312,-10.16852c-1.59847,1.86505 -3.36447,5.35198 -3.36447,5.35198l-2.6463,0.16734l-1.13919,-1.69502c0,0 2.05815,-4.87804 1.95977,-7.51141c-0.20129,-5.38829 -2.69144,-6.88513 -4.51732,-10.2213c-1.59618,-2.91652 -1.77405,-4.07228 -1.43397,-6.54136c0.58121,-4.21979 3.84167,-9.35287 3.84167,-9.35287c0,0 3.82369,-5.1123 7.5516,-6.05061c5.00438,-1.25962 6.02355,-1.03104 6.02355,-1.03104c0,0 1.26434,0.0147 1.95531,0.17007c0.75304,0.16934 2.39277,0.8077 2.39277,0.8077c0,0 2.37532,-1.15083 3.87854,-0.686c3.2407,1.00208 4.76931,4.649 4.76931,4.649c0,0 1.90334,-1.78441 3.12768,-1.3547c3.76902,1.3228 4.7503,3.45983 4.7503,3.45983c0,0 2.31006,4.24348 2.29921,9.76573c-0.0219,11.16223 -5.00787,12.50682 -5.00787,12.50682l4.58098,4.24042l-6.8162,-1.87691c0,0 -0.24649,0.9067 -0.23279,1.44278c0.01343,0.5252 0.56784,2.41821 0.56784,2.41821c0,0 -3.13942,-1.52771 -4.5712,-2.20045c-1.53249,-0.72006 -4.68039,-2.41034 -4.68039,-2.41034c0,0 -2.35519,1.25629 -3.30132,2.11941c-0.89677,0.81808 -2.2353,2.93145 -2.2353,2.93145l2.13838,1.0719c0,0 -5.65137,-1.42683 -6.78048,-1.28783c-1.52723,0.18803 -2.44445,0.34051 -3.11013,1.1172z" fill="#d9db56" stroke="#000000" stroke-linecap="round"/><path d="M448.24001,-47.25506c0.03695,-0.01872 0.07555,-0.03756 0.11561,-0.05644l-0.12983,-0.08689c-0.26459,0.0394 -0.53944,-0.01251 -0.80401,-0.08255c-0.04098,0.09687 -0.06865,0.1942 -0.04335,0.24451c0.07945,0.15799 0.3065,0.16476 0.48404,0.21505c0.1267,-0.07345 0.24204,-0.16504 0.37754,-0.23367zM448.86149,-47.62724c0,0 0.05131,0.02319 0.08674,0.07221c0.45911,-0.16638 0.98737,-0.3139 1.46836,-0.39381c0.04823,-0.66449 0.30068,-1.27114 0.58203,-1.91432c0.09315,-0.21296 0.19148,-0.44648 0.31426,-0.66398c-0.03125,-0.01448 -0.06213,-0.0284 -0.09266,-0.04174c-0.12234,0.03986 -0.24424,0.08141 -0.36569,0.12004c-0.00335,0.05456 -0.0095,0.11027 -0.0175,0.16633c-0.12785,0.89586 -0.60281,1.66884 -1.32801,2.18785c-0.11735,0.08324 -0.45938,0.3582 -0.6238,0.31575c-0.03497,0.04045 -0.07181,0.07852 -0.10945,0.11341c0.02858,0.01273 0.05715,0.0255 0.08573,0.03824zM453.21903,-46.65506c-0.43959,0.58996 -1.20149,0.43239 -1.8465,0.34761c-0.4678,-0.06147 -0.91504,-0.12664 -1.33747,-0.23423c-0.21669,0.04745 -0.43432,0.06954 -0.6365,0.06844c-0.52261,-0.00638 -1.00545,0.02714 -1.49899,-0.12067c-0.05972,0.02518 -0.12774,0.04663 -0.21064,0.06312c-0.23621,0.04696 -0.48554,-0.11312 -0.67797,-0.19943c-0.46871,-0.2102 -0.89207,-0.46231 -1.40594,-0.51179c-0.3433,-0.01634 -0.67798,-0.07962 -1.01096,-0.1491c-0.5321,0.64918 -1.37878,1.19148 -2.21148,1.10222c-0.04543,-0.00487 -0.7756,-0.25704 -0.82214,-0.27296c-0.00272,-0.00215 -0.00546,-0.00431 -0.00819,-0.00646c-0.0541,0.10467 -0.11706,0.17399 -0.18786,0.17374c-0.19917,-0.00071 -0.34741,-0.20717 -0.4802,-0.35564c-0.05566,-0.06224 -0.10727,-0.13864 -0.15527,-0.22418c-0.06462,0.12182 -0.13459,0.21652 -0.2127,0.29165c0.02078,0.11414 -0.01581,0.23755 -0.14086,0.36489c-0.05302,0.05402 -0.11405,0.08255 -0.17867,0.09205c-0.09195,0.29858 -0.21302,0.57859 -0.30113,0.76746c-0.1001,0.21456 -0.16931,0.47516 -0.49403,0.46817c-0.18371,-0.00394 -0.36105,-0.09785 -0.52128,-0.22833c-0.04076,0.02483 -0.08167,0.04798 -0.12266,0.06927c-0.24375,0.12667 -0.57504,0.18324 -0.81064,0.06188c-0.21619,0.06034 -0.42672,0.13765 -0.55722,0.28218c-0.13964,0.15466 -0.28837,0.31774 -0.43829,0.48292c-0.27406,0.50071 -0.56122,0.9823 -0.95328,1.43711c-0.05173,0.14313 -0.10096,0.27915 -0.15148,0.38833c-0.13181,0.14526 -0.25062,0.30213 -0.36641,0.46048l-0.03847,0.01074l0.00797,0.01273l-0.19873,0.12407c-0.05447,0.03513 -0.1251,0.04274 -0.18853,0.01405c-0.09937,-0.04494 -0.14351,-0.16192 -0.09858,-0.26131l0.10849,-0.23991l0.05899,0.02667c0.07607,-0.18529 0.17932,-0.34588 0.29836,-0.49929c-0.02726,0.00763 -0.05583,0.01323 -0.08546,0.01705c-0.05513,0.12114 -0.08441,0.27411 -0.20283,0.31735c-0.07938,0.02897 -0.15794,0.02205 -0.23174,-0.00719c-0.04881,0.11991 -0.11967,0.2324 -0.20492,0.32305c0.25028,0.44111 0.52897,1.26368 -0.00108,1.49094c-0.15517,0.06651 -0.33323,-0.00824 -0.49473,-0.13411c-0.12834,0.3437 -0.43775,0.64221 -0.78612,0.74545c-0.02985,0.03638 -0.06119,0.07095 -0.09408,0.1032c0.01258,0.20313 -0.01541,0.39593 -0.16197,0.42459c-0.21311,0.04169 -0.38257,-0.05441 -0.51324,-0.21348c-0.11047,-0.04683 -0.25801,-0.12119 -0.3437,-0.16471c0.19063,0.27154 0.40682,0.53515 0.52681,0.8516c0,0 0.06969,0.18476 -0.11507,0.25446c-0.18476,0.06969 -0.25446,-0.11507 -0.25446,-0.11507c-0.23303,-0.62126 -0.89175,-1.09096 -0.91898,-1.77604c-0.01869,-0.47039 0.25388,-1.48484 0.8735,-1.10611c0.16298,-0.60944 0.4826,-1.19064 0.96354,-1.28478c-0.11539,-0.52133 -0.19007,-1.04205 0.03516,-1.55003c0.30687,-0.32713 0.59068,-0.43611 0.91595,-0.46449c-0.00254,-0.03078 -0.00328,-0.06176 -0.00189,-0.09297c0.00181,-0.04099 0.00671,-0.08552 0.01444,-0.13284c-0.01708,-0.12571 0.06604,-0.32459 0.13494,-0.47379c0.0629,-0.16487 0.1422,-0.33504 0.23141,-0.49332c0.17507,-0.35278 0.38569,-0.70543 0.66329,-0.96884c0.04255,-0.04039 0.59221,-0.42632 0.65311,-0.47543c0.10817,-0.08725 0.18938,-0.21079 0.31148,-0.27715c0.50137,-0.27245 0.93518,-0.12917 1.4409,-0.02672c0.01693,0.00343 0.03386,0.00683 0.05079,0.0102c0.10064,-0.48624 0.35025,-0.93824 0.77435,-1.28541c0.35228,-0.12843 0.84304,-0.08008 1.33336,0.08794c-0.03962,-0.44954 -0.09716,-0.99329 -0.00419,-1.43013c0.01711,-0.08042 0.21825,-0.4804 0.27063,-0.49459c0.53364,-0.14468 1.4503,0.45711 1.81516,0.75749c0.09258,0.07622 0.19109,0.15608 0.29234,0.23954c0.1194,-0.2184 0.23448,-0.41877 0.30661,-0.57802c0.08532,-0.18842 0.22493,-0.52664 0.37227,-0.64064c0.10247,-0.07928 0.25165,-0.06169 0.37747,-0.09254c0.17693,0.07516 0.32446,0.16966 0.44624,0.27966c0.06032,-0.16919 0.1368,-0.33051 0.25894,-0.46743c0.4334,-0.4859 1.39884,-0.2804 1.91716,0.17719c0.0841,-0.23846 0.21641,-0.4851 0.43325,-0.52728c0.36489,-0.071 0.74372,0.222 0.97076,0.49319c0.7124,0.11974 1.46097,0.47731 2.01129,0.76899c0.2562,-0.23416 0.56682,-0.4186 0.89975,-0.38673c0.0209,-0.00558 0.0414,-0.00983 0.06137,-0.01257c0.23959,-0.03289 0.58646,0.03411 0.9206,0.17184c0.17805,-0.05412 0.36647,-0.10497 0.55461,-0.14078c0.65399,-0.4447 1.4351,-0.18013 1.53346,0.56572c0.29571,-0.15755 0.63949,-0.15244 1.01881,0.16323c0.17198,0.14311 0.27822,0.32679 0.33393,0.53462c0.04952,0.02528 0.0841,0.06902 0.09914,0.11891c0.00556,-0.00245 0.01116,-0.0049 0.01678,-0.00731c0.37906,-0.16246 1.24584,-0.01509 1.45827,0.40602c0.01287,0.0255 0.02391,0.05238 0.03335,0.08038c0.04879,-0.00577 0.09741,-0.01015 0.14583,-0.01304c0.38059,-0.02276 0.96542,0.04686 1.27421,0.2884c0.14877,0.11635 0.23244,0.30313 0.25791,0.50611c0.14441,-0.0577 0.29361,-0.06364 0.43366,0.02687c0.07189,0.04647 0.06235,0.19515 0.03129,0.34453c0.4437,-0.00499 0.8931,0.15872 1.03714,0.55388c0.03993,0.10952 0.05439,0.2209 0.05047,0.33269c0.49909,-0.10022 1.31744,-0.04422 1.45434,0.4921c0.116,0.45441 -0.06743,0.97685 -0.27678,1.4465c0.26501,0.13643 0.49818,0.35272 0.5895,0.56565c0.14948,0.34859 -0.04658,0.88548 -0.24756,1.17171c-0.02828,0.04027 -0.5,0.50516 -0.60044,0.51938c-0.3163,0.0448 -0.47726,-0.31118 -0.59706,-0.50201c-0.35253,-0.56158 -0.62349,-1.20143 -0.58964,-1.84325c-0.36902,0.1163 -0.82008,0.08038 -1.02674,-0.1542c-0.06393,-0.07257 -0.11955,-0.16753 -0.16734,-0.27725c-0.04434,-0.02046 -0.0895,-0.04133 -0.13572,-0.06241c-0.12051,-0.05495 -0.49927,-0.17961 -0.60103,-0.37189c-0.05559,0.06535 -0.14969,0.08899 -0.23176,0.05189c-0.07724,-0.03492 -0.12111,-0.11338 -0.11571,-0.19325l0.01153,-0.26102l0.07025,0.00309c-0.00353,-0.16215 0.01525,-0.32348 0.05874,-0.47869c-0.69895,0.18121 -1.43588,0.21923 -2.13859,-0.01153c-0.20247,-0.06648 -0.37416,-0.15397 -0.51671,-0.25728c-0.21387,0.26345 -0.4823,0.4961 -0.70286,0.33815c-0.00541,-0.00387 -0.01064,-0.00778 -0.01568,-0.01175l-0.00117,0.00147c-0.05442,0.07191 -0.15312,0.09932 -0.23876,0.0606c-0.06668,-0.03015 -0.10849,-0.09276 -0.1152,-0.16071l-0.00698,-0.06c-0.01106,0.2013 -0.07786,0.40851 -0.21064,0.58669zM448.79231,-47.06515c-0.13582,0.05038 -0.26557,0.10604 -0.38585,0.16827c-0.00274,0.0014 -0.00545,0.00284 -0.00815,0.00424c0.24215,0.02929 0.48656,0.02637 0.73707,0.02454c-0.11701,-0.05867 -0.23141,-0.124 -0.34309,-0.19706zM436.75735,-44.69061c0.06389,-0.12626 0.12522,-0.254 0.185,-0.38257c0.00981,-0.02109 0.02029,-0.0435 0.03144,-0.06702c-0.02031,0.0162 -0.04081,0.03249 -0.06146,0.04889c-0.06594,0.41025 -0.49467,0.87085 -0.9609,0.96259c0.01571,0.21219 0.00512,0.43146 -0.03753,0.62814c0.24426,-0.42349 0.5225,-0.81226 0.84347,-1.19006zM449.30134,-47.2257c0.19313,0.11527 0.38786,0.23136 0.59479,0.28481c0.00485,0.00125 0.00972,0.00252 0.01461,0.00377c-0.00264,-0.03227 0.00264,-0.06565 0.01695,-0.09724c0.0044,-0.00969 0.00945,-0.01887 0.01514,-0.0275l0.18554,-0.29168l0.00279,0.00178l0.00379,-0.01148c0.01838,-0.02254 0.03685,-0.0451 0.0554,-0.06766c-0.28576,0.05973 -0.59166,0.12456 -0.88901,0.20521zM452.0073,-46.62135c0.48989,-0.00238 0.88252,-0.00191 1.0528,-0.54698c0.03048,-0.09755 -0.00942,-0.28267 -0.08552,-0.42251c-0.10589,0.11155 -0.22383,0.21028 -0.35953,0.29549l0.04519,0.07788l-0.33932,0.19692c-0.05363,0.03201 -0.12155,0.03814 -0.18278,0.01045c-0.09738,-0.04404 -0.14172,-0.15728 -0.10115,-0.25532c0.00093,-0.02481 0.00658,-0.04986 0.01745,-0.07387l0.03976,-0.08794c-0.03756,-0.00222 -0.07434,-0.00633 -0.11055,-0.01186c-0.02701,0.00343 -0.05402,0.00634 -0.08104,0.00874c-0.14818,0.01316 -0.30775,-0.00223 -0.45661,-0.04382c-0.0164,0.01263 -0.03293,0.02515 -0.04955,0.03749c-0.02775,0.05677 -0.0612,0.11233 -0.10179,0.1664c-0.15972,0.21277 -0.3771,0.37945 -0.62131,0.50416c0.45165,0.08595 0.92378,0.14676 1.33395,0.14477zM439.06854,-46.07166c-0.12342,0.02153 -0.24974,0.03046 -0.37917,0.04027c0.03364,0.05285 0.06936,0.10633 0.10702,0.1588c0.09205,-0.06496 0.18076,-0.13256 0.27215,-0.19907zM438.32384,-45.60426c0.04769,-0.01957 0.09327,-0.04054 0.13716,-0.06266c-0.03776,-0.0492 -0.07254,-0.09657 -0.10394,-0.14023c-0.02741,-0.03812 -0.05393,-0.07685 -0.07954,-0.11615c-0.07338,0.10105 -0.12982,0.18771 -0.19476,0.25735c-0.01118,0.04757 -0.01125,0.09895 0.00184,0.14492c0.08255,-0.02518 0.16303,-0.05195 0.23924,-0.08322zM453.68705,-48.26484c-0.14116,0.11772 -0.28903,0.22785 -0.44181,0.32718c-0.00675,0.01032 -0.01353,0.02056 -0.02038,0.03075c0.08661,0.09966 0.1483,0.22841 0.1806,0.37074c0.02136,-0.15202 0.2106,-0.56978 0.28158,-0.72867zM446.9881,-47.60349c-0.13112,-0.0365 -0.26893,-0.07615 -0.40445,-0.12461c-0.13902,0.07758 -0.28867,0.14456 -0.4436,0.19921c0.2882,0.08921 0.55843,0.2174 0.84042,0.34928c-0.03817,-0.13935 -0.03185,-0.28285 0.00761,-0.42388zM457.73753,-47.32205c-0.00154,0.00058 -0.00306,0.00115 -0.0046,0.00171c-0.00037,0.0022 -0.00074,0.0044 -0.00112,0.00658c0.00191,-0.00277 0.00382,-0.00555 0.00573,-0.0083zM441.00046,-48.01092c0.00748,0.01373 0.01498,0.02713 0.02256,0.04003c0.03898,-0.02415 0.07847,-0.0482 0.11854,-0.07221c-0.00233,-0.00352 -0.0047,-0.00704 -0.00707,-0.01057c-0.00078,-0.00118 -0.00157,-0.00233 -0.00238,-0.0035c-0.04441,0.01453 -0.08835,0.02993 -0.13164,0.04624zM441.74844,-46.90917c0.45404,0.14754 0.89111,0.32168 1.37508,0.15185c0.31744,-0.1114 0.71242,-0.38086 1.04536,-0.72273c-0.14228,-0.02877 -0.28478,-0.05551 -0.42804,-0.07698c-0.01497,0.13056 -0.03225,0.25828 -0.04512,0.37761c-0.16819,0.00797 -0.35162,0.0943 -0.50457,0.02388c-0.02809,-0.01294 -0.05256,-0.03037 -0.07445,-0.05102c-0.20697,0.00134 -0.40692,-0.14707 -0.58465,-0.35446c-0.2548,0.03169 -0.50913,0.07374 -0.75804,0.10428c-0.00807,0.10817 -0.03756,0.30347 -0.08576,0.49736c0.01914,0.01679 0.03919,0.03354 0.06017,0.05023zM445.16831,-49.26168c0.00157,0.00193 0.00313,0.00387 0.00465,0.00582c-0.00237,-0.07511 -0.00103,-0.15165 0.00374,-0.22895c-0.29268,-0.02078 -0.59004,-0.03523 -0.88451,-0.02826c-0.01808,0.14727 -0.04488,0.29516 -0.0781,0.4413c0.25014,-0.36489 0.59459,-0.6311 0.95424,-0.18992zM444.87451,-47.79235c0.01091,0.00218 0.02045,0.00413 0.02841,0.00582c0.09146,0.02199 0.18999,0.03345 0.29271,0.0355c-0.14015,-0.11546 -0.00154,-0.445 0.22643,-0.68104c-0.07499,-0.09909 -0.13154,-0.21417 -0.17174,-0.34034c-0.05204,0.3496 -0.24669,0.75669 -0.3758,0.98007zM446.13055,-47.94414c-0.03362,-0.02195 -0.06619,-0.04515 -0.0975,-0.06976c-0.07742,0.07358 -0.15699,0.13276 -0.23553,0.16953c-0.02403,0.01125 -0.0473,0.02171 -0.06983,0.03144c0.13697,-0.03262 0.27315,-0.0771 0.40286,-0.1312zM447.03257,-48.05381c-0.01454,0.0139 -0.02939,0.02763 -0.04456,0.04121c0.04012,0.01099 0.07903,0.02138 0.1161,0.03142c0.01882,0.00516 0.03783,0.01057 0.05698,0.01613c0.18128,-0.26843 0.4588,-0.50254 0.73618,-0.64632c-0.02046,-0.01542 -0.0404,-0.03322 -0.05973,-0.05351c-0.14105,-0.14823 0.1321,-0.46948 0.29129,-0.63924c-0.07984,0.01333 -0.16009,0.02882 -0.23758,0.03129c-0.16427,0.00524 -0.31558,0.02133 -0.45733,0.04806c0.13886,0.41123 -0.05835,0.84284 -0.40134,1.17095zM450.98037,-48.47867c0.00627,-0.01015 0.01289,-0.01999 0.0198,-0.0296l-0.00169,-0.00122l0.19346,-0.2698c0.05314,-0.07727 0.15552,-0.10783 0.24397,-0.06783c0.01047,0.00474 0.02033,0.01028 0.02955,0.01651c0.08963,-0.13518 0.17573,-0.27695 0.26078,-0.42775c0.05814,-0.22271 0.18275,-0.43383 0.18996,-0.66388c0.0048,-0.15336 -0.13572,-0.30572 -0.28649,-0.41962c-0.35661,0.55258 -0.46613,1.26248 -0.66953,1.89712c0.00641,-0.01121 0.01314,-0.02253 0.02019,-0.03391zM452.21919,-47.89122c0.00151,-0.00054 0.00298,-0.00107 0.00448,-0.00159c-0.00321,-0.00125 -0.00641,-0.0026 -0.00959,-0.00404c-0.07183,-0.03247 -0.1148,-0.10262 -0.11613,-0.17653l-0.00144,-0.0368c-0.07282,0.08804 -0.14823,0.17298 -0.22654,0.25439c0.02454,0.00697 0.04903,0.01407 0.07338,0.02124c0.11749,-0.01395 0.21957,-0.03673 0.27585,-0.05667zM454.31592,-49.53019l-0.02899,-0.02078l0.093,-0.12968c-0.03048,-0.17419 -0.10379,-0.32488 -0.23454,-0.4357c-0.29858,-0.2531 -0.56077,-0.1932 -0.77787,-0.00078c-0.01884,0.1357 -0.04828,0.27206 -0.08527,0.40783c0.21717,-0.05479 0.42916,-0.04759 0.55941,0.14262c0.1391,0.20313 0.01131,0.49452 -0.11065,0.72622c0.22121,-0.21191 0.41906,-0.44451 0.58492,-0.68972zM454.85389,-47.70821c0.18488,0.10876 0.38005,0.18579 0.58152,0.23628l0.10085,-0.22302l0.07015,0.03173c0.06449,-0.14231 0.14962,-0.28306 0.25023,-0.41223c0.08755,-0.23656 0.16574,-0.49628 0.17174,-0.73491c-0.3502,0.11175 -0.68708,0.28424 -0.95979,0.45627c-0.06239,0.18473 -0.17913,0.38289 -0.21356,0.45348c-0.02092,0.03029 -0.05178,0.07861 -0.09043,0.13738c0.03004,0.01943 0.05997,0.03776 0.0893,0.05503zM457.73582,-46.41401c-0.02554,0.09305 0.10357,0.1083 0.2312,0.12589c-0.03837,-0.17649 -0.06437,-0.36217 -0.0791,-0.53975c-0.06076,0.13722 -0.11394,0.27482 -0.15209,0.41385zM458.62007,-46.02529c0.01432,-0.01789 0.03,-0.03122 0.04624,-0.04103l0.04299,-0.23665l0.0645,0.0117c0.0358,-0.30638 0.1411,-0.60323 0.38732,-0.78673c0.02902,-0.11619 0.0367,-0.22667 0.00771,-0.32209c-0.08082,-0.26608 -0.41404,-0.35997 -0.73156,-0.34321l-0.09843,0.15474c-0.08163,0.42674 -0.08576,1.02926 0.07007,1.46583c0.07091,0.03382 0.14094,0.0668 0.21116,0.09743zM459.21021,-45.90956c0.02963,0.0137 0.05664,0.02511 0.08138,0.03502c0.03983,-0.02085 0.07876,-0.04094 0.11627,-0.05863c0.01711,-0.04925 0.03643,-0.09838 0.05804,-0.14735l0.08136,-0.17993c0.04494,-0.09937 0.16193,-0.14351 0.26131,-0.09858c0.08845,0.04 0.13313,0.13707 0.11022,0.22801l-0.05589,0.24171l-0.00413,-0.00096c0.05493,0.05649 0.07279,0.14297 0.03834,0.21911l-0.08136,0.17993l-0.07512,-0.03398c-0.0139,0.02552 -0.02818,0.0473 -0.04314,0.06567c-0.02261,0.21223 0.00228,0.42278 0.05657,0.63122c0.00362,-0.03692 0.00665,-0.0713 0.00835,-0.10186c0.03558,-0.08199 0.1887,-0.46227 0.26016,-0.4873c0.08696,-0.03048 0.1838,-0.03868 0.28459,-0.02911c0.11186,-0.22221 0.22248,-0.44113 0.28032,-0.64399c0.03695,-0.12961 0.16266,-0.53029 0.02802,-0.67859c-0.07558,-0.08326 -0.21583,-0.07088 -0.32799,-0.07889c-0.23229,-0.01659 -0.47161,-0.05244 -0.69862,-0.00054c-0.04157,0.0095 -0.07984,0.02665 -0.11553,0.04969c-0.09433,0.25754 -0.23705,0.50722 -0.33837,0.73131l-0.04658,0.10298zM447.61139,-47.83394c0.25491,0.063 0.5168,0.09083 0.75717,-0.01715c0.0413,-0.01855 0.20352,-0.18099 0.30364,-0.32841c0.00166,-0.02396 0.00428,-0.04774 0.00756,-0.07096c-0.04088,0.0473 -0.08194,0.09313 -0.12295,0.13729l-0.01366,0.00536l0.00313,0.00384l-0.16802,0.13655c-0.05637,0.04783 -0.13739,0.06188 -0.20923,0.02939c-0.08946,-0.04045 -0.13416,-0.1393 -0.10939,-0.23114l0.03244,-0.12983c-0.19657,0.11517 -0.36572,0.28859 -0.48067,0.46506zM446.54146,-48.16377c0.0805,-0.05466 0.15376,-0.11326 0.21742,-0.1748c0.12843,-0.1242 0.24565,-0.27291 0.30041,-0.43019c-0.02577,0.032 -0.05136,0.06169 -0.07658,0.08884c-0.07223,0.07781 -0.13347,0.1336 -0.19087,0.17502c-0.01055,0.01023 -0.02111,0.02038 -0.03169,0.03044c-0.11368,0.05977 -0.24624,0.14852 -0.38671,0.22185c0.05285,0.03316 0.10945,0.06254 0.168,0.08886zM444.50438,-47.88271c0.26371,-0.37687 0.41795,-0.79317 0.33026,-1.16762c-0.02248,-0.09601 -0.70834,0.72258 -0.68673,0.91152c0.01334,0.11669 0.18023,0.19946 0.35647,0.2561zM439.49184,-46.92932c-0.30837,-0.00238 -0.58936,0.28197 -0.80946,0.44867c-0.04475,0.03294 -0.08634,0.06658 -0.12522,0.10117c0.34108,-0.01564 0.66532,-0.04 0.93471,-0.35459c-0.01162,-0.06254 -0.01037,-0.12848 -0.00003,-0.19525zM433.10695,-41.34402c0.04512,-0.05189 0.13391,-0.15808 0.23308,-0.26636c-0.08672,-0.00507 -0.17538,0.0011 -0.25923,0.01615c-0.05654,0.11788 -0.11404,0.2502 -0.1585,0.38202c0.02166,0.04433 0.04247,0.08921 0.06264,0.13431c0.00183,-0.00516 0.00391,-0.01028 0.00619,-0.01534l0.10171,-0.22491l0.00994,0.0045zM433.38192,-40.80281c0.02359,-0.04776 0.0436,-0.09713 0.06254,-0.14695l-0.16621,0.10375c-0.0543,0.03501 -0.12464,0.04269 -0.18793,0.01432c0.04676,0.11172 0.0921,0.21986 0.13964,0.31784c0.04898,-0.08228 0.0978,-0.1793 0.15195,-0.28896zM435.09008,-44.07974c0.04064,0.05539 0.04191,0.12305 0.04191,0.12305l0.00213,0.15376c-0.01387,0.18881 -0.04534,0.37961 -0.0929,0.5688c0.02758,0.0043 0.05479,0.0078 0.08146,0.01028c0.04285,-0.03271 0.10663,-0.05408 0.19324,-0.01492c0.00545,0.00247 0.01067,0.00502 0.01564,0.00766c0.12577,-0.03019 0.1376,-0.29302 0.15397,-0.37105c0.03278,-0.15625 0.06215,-0.33795 0.06378,-0.51896c-0.1277,0.00056 -0.25843,0.002 -0.35466,-0.05983c-0.0356,0.033 -0.07046,0.06673 -0.10455,0.10122zM434.15039,-41.59867c0.02836,0.04407 0.05258,0.09207 0.07198,0.14414c0.01762,0.0473 0.03034,0.0954 0.03847,0.14389c0.09193,0.11756 0.20056,0.21272 0.3035,0.23372c0.10282,0.02099 -0.01837,-0.20962 -0.01414,-0.31448c0.00996,-0.24754 -0.02763,-0.38957 -0.12188,-0.54106c-0.08612,0.1174 -0.17896,0.22916 -0.27795,0.33379zM457.15023,-47.66949c0.00744,-0.01647 0.01686,-0.03141 0.02785,-0.04468l0.13115,-0.16565c0.01612,-0.02007 0.03426,-0.0426 0.05425,-0.06692c-0.04434,-0.40355 -0.82953,-0.23942 -1.10811,-0.09483c-0.06741,0.2195 -0.16002,0.4239 -0.26833,0.64511c0.38285,0.01329 0.77462,-0.04652 1.15059,-0.14756c-0.00935,-0.04062 -0.00594,-0.08453 0.01257,-0.12545zM452.91877,-48.24642c0.12588,-0.17414 0.24688,-0.35026 0.33531,-0.53628c0.0888,-0.18681 0.28722,-0.3584 0.25995,-0.56344c-0.01537,-0.11563 -0.22336,0.06765 -0.33333,0.10651c-0.02043,0.00722 -0.04093,0.01427 -0.06149,0.02122c-0.09645,0.25153 -0.20666,0.49561 -0.30978,0.72385c-0.06203,0.13291 -0.12407,0.26581 -0.1861,0.39872c0.03376,-0.00781 0.06668,-0.01307 0.09875,-0.01595c0.03661,-0.0192 0.07301,-0.03895 0.10918,-0.05931c0.0288,-0.02538 0.05799,-0.05052 0.08749,-0.07534zM432.94061,-42.1752c0.12973,-0.18128 0.24419,-0.34458 0.36685,-0.4895c-0.15684,0.09263 -0.28037,0.279 -0.37443,0.5033c0.00254,-0.0046 0.00504,-0.0092 0.00758,-0.01378zM434.05125,-42.07716c-0.04037,-0.04044 -0.07142,-0.09163 -0.09501,-0.14811c0.01035,0.07494 0.02136,0.14972 0.03376,0.22418c0.02106,-0.02488 0.04155,-0.05021 0.06127,-0.07607zM433.30149,-42.00207c0.10403,0.0024 0.20773,0.01564 0.3066,0.04079c-0.01333,-0.10797 -0.02456,-0.21673 -0.04228,-0.32525c-0.00352,-0.02151 -0.0072,-0.04306 -0.01104,-0.0646c-0.0955,0.12393 -0.18038,0.24653 -0.25327,0.34906zM435.13735,-44.67335c-0.02385,0.02719 -0.04734,0.05464 -0.07049,0.08223c0.0297,-0.02506 0.0595,-0.04954 0.08931,-0.0734c-0.00627,-0.00294 -0.01255,-0.00589 -0.01882,-0.00883zM434.50006,-42.96297c-0.00036,-0.00085 -0.00071,-0.00167 -0.00105,-0.0025c-0.0365,-0.00967 -0.07204,-0.01896 -0.10638,-0.0275c-0.03168,0.07791 -0.06087,0.15486 -0.08114,0.21745c0.03854,0.03283 0.06682,0.06098 0.09046,0.08962c0.03917,-0.08121 0.07648,-0.16423 0.11109,-0.24827c-0.00475,-0.00993 -0.00908,-0.01955 -0.01299,-0.02878zM433.89792,-43.33815c0.01366,-0.03022 0.03401,-0.05534 0.05848,-0.07438l0.16824,-0.13675l0.03188,0.03922c0.06871,-0.12577 0.14795,-0.24823 0.23484,-0.36608c-0.00969,-0.00269 -0.01928,-0.00616 -0.02872,-0.01042c-0.09937,-0.04494 -0.14351,-0.16193 -0.09858,-0.26131c0.00386,-0.00852 0.00824,-0.01666 0.01311,-0.02435l0.12373,-0.20223l0.00203,0.00123l0.00254,-0.00837c0.04142,-0.05616 0.08348,-0.11226 0.12632,-0.16802c-0.03134,-0.07122 -0.06418,-0.14287 -0.09391,-0.21524c-0.24671,0.00707 -0.47233,0.07167 -0.6883,0.31067c-0.1966,0.42074 -0.04013,0.89211 0.06166,1.31849c0.0026,0.01091 0.00516,0.02182 0.00766,0.03274c0.02944,-0.01693 0.0599,-0.0333 0.09149,-0.04915c-0.03377,-0.05412 -0.04074,-0.12358 -0.01248,-0.18608zM432.15437,-41.57496c-0.18015,0.10161 -0.21749,0.85388 -0.16587,1.02414c0.03563,0.11754 0.08696,0.22794 0.14752,0.3344c-0.17893,-0.44494 -0.17345,-0.94107 0.11737,-1.3192c-0.02752,-0.04069 -0.05885,-0.06198 -0.09902,-0.03934zM435.93822,-45.73393c0.02516,-0.00098 0.0504,-0.00293 0.07566,-0.00529c-0.1427,-0.08116 -0.18038,-0.1872 -0.2111,-0.48052c0.0643,-0.15048 0.10638,-0.3548 0.16739,-0.54298c-0.18079,0.03968 -0.38507,0.06602 -0.52293,0.13913c-0.12566,0.06663 -0.26144,0.24663 -0.38082,0.46158c-0.00051,0.00101 -0.00103,0.00201 -0.00156,0.00303c-0.02077,0.04057 -0.04182,0.08016 -0.06256,0.11879c-0.09131,0.18285 -0.16858,0.37923 -0.21752,0.54712c-0.00149,0.13229 0.06941,0.24724 0.26834,0.3471c0.25774,-0.2496 0.54741,-0.45941 0.8851,-0.58798zM437.20707,-46.47379c0.14492,-0.14127 0.35317,-0.25486 0.51248,-0.33403c-0.00649,-0.05341 -0.01564,-0.1049 -0.02755,-0.15346c-0.13152,-0.0204 -0.31221,0.01984 -0.44046,-0.00906c-0.08187,-0.01845 -0.1551,-0.03039 -0.22094,-0.03629c-0.14901,0.04607 -0.29332,0.07756 -0.43824,0.10595c-0.17223,0.14622 -0.24023,0.42476 -0.40196,0.75662c-0.00702,0.0238 0.07443,0.08086 0.2001,0.14656c0.26034,-0.18987 0.54068,-0.35011 0.81656,-0.47629zM441.85493,-48.96102c0.00974,-0.28446 0.14341,-0.61385 0.30157,-0.92886c-0.55253,-0.4823 -1.20405,-0.86697 -1.77812,-0.94332c-0.13864,-0.01845 -0.05288,0.27614 -0.05488,0.41598c-0.0055,0.38438 -0.01859,0.75666 0.01196,1.14017c0.02286,0.06919 0.04624,0.13797 0.07005,0.20644c0.31108,0.15576 0.6031,0.35488 0.83728,0.58142c0.10842,-0.03004 0.21808,-0.05613 0.32789,-0.07893c0.07986,-0.13922 0.18111,-0.27473 0.28426,-0.39293zM439.38618,-45.38481c0.09083,0.02006 0.1126,-0.15028 0.14932,-0.23575c0.03984,-0.09276 0.08613,-0.19259 0.13247,-0.29615c-0.14538,0.16993 -0.29949,0.32576 -0.45855,0.4594c0.05701,0.03398 0.11602,0.05907 0.17676,0.07248zM437.06472,-45.94467c-0.07901,0.04296 -0.15666,0.08875 -0.23271,0.13729c0.08904,0.03139 0.17864,0.05872 0.26244,0.07844c0.01651,-0.0148 0.03291,-0.02987 0.0492,-0.04531c-0.03322,-0.05442 -0.06009,-0.11238 -0.07893,-0.1704zM436.25462,-45.35738c-0.10144,0.0957 -0.19775,0.19692 -0.28813,0.30315c-0.05361,0.063 -0.09437,0.13667 -0.13164,0.21314c0.04465,0.00211 0.08955,-0.00069 0.13464,-0.00971c0.19117,-0.03831 0.38573,-0.29987 0.50895,-0.39936c0.01634,-0.01319 0.03266,-0.02616 0.04894,-0.03893c-0.00678,-0.00999 -0.01487,-0.01935 -0.02434,-0.02804c-0.03568,-0.03274 -0.14291,-0.04074 -0.24844,-0.04025zM437.4719,-46.16263c-0.00147,0.00369 -0.00284,0.00744 -0.00413,0.0113c0.00364,-0.00479 0.00726,-0.00961 0.01093,-0.01448c-0.00227,0.00105 -0.00453,0.00211 -0.0068,0.00318zM446.30938,-49.35316c-0.0102,0.04216 -0.02153,0.08412 -0.03393,0.12615c0.00551,0.02134 0.01104,0.04267 0.01654,0.06399c0.00409,-0.00276 0.0082,-0.00551 0.01229,-0.00827c0.03699,-0.04362 0.07692,-0.0871 0.05659,-0.13229c-0.00842,-0.0187 -0.0263,-0.03513 -0.0515,-0.0496zM451.99382,-50.76306c-0.03741,0.03205 -0.07304,0.06523 -0.10705,0.09948c0.24228,0.19494 0.41191,0.43219 0.42107,0.6903c0.00211,0.05951 -0.1274,0.53966 -0.18777,0.76134c0.11121,-0.06372 0.22542,-0.12224 0.34277,-0.17477c0.09954,-0.23317 0.23288,-0.48788 0.3953,-0.70937c0.07546,-0.16288 0.11843,-0.32748 0.04982,-0.44091c-0.1726,-0.28534 -0.58411,-0.27741 -0.91416,-0.22606zM452.05007,-48.70681c-0.14522,0.101 -0.28497,0.21059 -0.41989,0.32659c-0.02457,0.03357 -0.04947,0.0668 -0.0747,0.09975c-0.00514,0.06112 -0.00947,0.12212 -0.01427,0.1828c0.1907,-0.19281 0.35654,-0.39327 0.50886,-0.60912zM450.88516,-47.5467c0.00666,-0.00406 0.01333,-0.00815 0.01999,-0.01231c0.00318,-0.00507 0.00636,-0.01018 0.00949,-0.01531c-0.00978,0.00922 -0.0196,0.01842 -0.02949,0.02762zM456.38865,-48.90098c-0.00222,0.13159 -0.0174,0.26352 -0.03271,0.37868c0.37891,-0.21837 0.8239,-0.23142 1.21748,0.18838c0.01216,0.01299 0.02366,0.02652 0.03455,0.04059c0.05486,-0.1495 0.06744,-0.29193 -0.10027,-0.41438c-0.31717,-0.23154 -0.71546,-0.26559 -1.11903,-0.19325zM460.02804,-44.12251c0.00561,0.01167 0.01125,0.02336 0.01693,0.03501c0.05476,0.11265 0.12053,0.21967 0.1847,0.32725c0.06423,0.10768 0.10069,0.39386 0.20066,0.31816c0.25155,-0.19048 0.71482,-0.78871 0.54384,-1.14721c-0.05728,-0.12011 -0.21815,-0.26542 -0.38962,-0.36504c-0.03311,0.07032 -0.06501,0.13841 -0.09459,0.20379c-0.04309,0.09528 -0.22026,0.49356 -0.24825,0.51252c-0.0836,0.05662 -0.15419,0.09405 -0.21367,0.11551zM449.13117,-50.48561c-0.40976,-0.13824 -0.90293,-0.39802 -1.39667,-0.56596c0.02566,0.09132 0.03979,0.1897 0.04407,0.29281c0.07057,0.37734 0.00022,0.75375 -0.15483,1.10785c0.08231,-0.00841 0.16728,-0.01399 0.2552,-0.01668c0.15608,-0.00479 0.39855,-0.02858 0.60993,0.00545c0.04952,-0.04226 0.10046,-0.08295 0.15261,-0.12217c0.115,-0.20156 0.24977,-0.39904 0.40413,-0.59577c0.02706,-0.03448 0.05561,-0.06983 0.08556,-0.10553zM446.72737,-49.45074c0.00521,0.0113 0.00937,0.02273 0.01255,0.03433c0.01383,-0.00631 0.02774,-0.0125 0.04169,-0.01859c-0.02178,-0.01404 -0.04336,-0.0263 -0.06471,-0.0369c0.00365,0.00692 0.00715,0.01397 0.01047,0.02116zM447.41112,-50.53285c-0.02388,-0.20898 -0.09034,-0.43251 -0.19745,-0.62471c-0.01086,-0.01143 -0.022,-0.02256 -0.03345,-0.03337c-0.30878,-0.04375 -0.60497,-0.01691 -0.86686,0.13653c0.11248,0.34407 0.06154,0.78696 0.06295,1.12427c0,0.00561 -0.00002,0.01123 -0.00005,0.01681c0.23152,-0.05091 0.49259,0.00996 0.7461,0.23787c0.13753,-0.30447 0.25028,-0.62918 0.28877,-0.85739zM443.69032,-50.81256c-0.09012,-0.11679 -0.20724,-0.21801 -0.35634,-0.29856c-0.25146,0.04641 -0.41997,0.65537 -0.51377,0.86275c-0.04559,0.10085 -0.10817,0.21411 -0.1757,0.3335c0.03553,0.03127 0.07096,0.06296 0.10621,0.09508c0.09156,0.02681 0.18492,0.06709 0.27512,0.11361c0.13371,-0.044 0.2698,-0.07933 0.40776,-0.10732c0.05442,-0.31406 0.13305,-0.62402 0.23306,-0.92541c0.0081,-0.0244 0.01595,-0.04899 0.02366,-0.07369zM444.09614,-50.87836c0.16087,0.28409 0.22368,0.62035 0.22202,0.97337c0.30162,-0.00661 0.6066,0.00692 0.91002,0.02814c0.09672,-0.4881 0.30893,-0.9618 0.56677,-1.25649c0.00348,-0.0082 0.00704,-0.01634 0.01064,-0.0244c-0.36058,-0.41206 -1.28957,-0.65831 -1.54907,-0.11064c-0.05857,0.12358 -0.11196,0.25454 -0.16038,0.39004zM450.42311,-50.27212c-0.26991,0.11431 -0.55845,0.22738 -0.83469,0.35547c-0.04886,0.21874 -0.12867,0.43599 -0.22919,0.6458c-0.05324,0.20739 -0.10015,0.41055 -0.15275,0.58514c-0.02314,0.07681 -0.04713,0.15339 -0.07042,0.23017c0.00837,0.03952 0.01125,0.08016 0.00935,0.12136c0.06558,-0.04651 0.13088,-0.0796 0.13475,-0.08234c0.56736,-0.40039 0.88654,-0.89693 1.0684,-1.56858c0.01302,-0.04805 0.04784,-0.16024 0.07455,-0.28698zM442.22517,-48.00268c-0.02243,-0.03841 -0.04409,-0.07685 -0.06493,-0.11498c-0.08133,0.00379 -0.20573,0.06279 -0.3158,0.12342c0.08375,0.0378 0.30776,0.04433 0.38071,-0.00844zM443.9109,-49.49067c-0.04712,0.0046 -0.09408,0.00994 -0.14086,0.01608c-0.01142,0.10174 -0.01257,0.20807 -0.00983,0.31634c0.02175,0.0251 0.04297,0.0506 0.06398,0.07646c0.03531,-0.13469 0.06518,-0.27196 0.08672,-0.40888zM446.59456,-48.86934c0.01192,-0.00776 0.02368,-0.01568 0.03509,-0.02388c0.01632,-0.01622 0.03259,-0.0325 0.04879,-0.04889c-0.02435,0.01419 -0.04857,0.0288 -0.0727,0.04387c-0.00357,0.0095 -0.00729,0.01914 -0.01116,0.0289zM448.87169,-49.43327c0.02826,0.0666 0.03009,0.14566 0.01147,0.2289c0.01199,-0.02031 0.02383,-0.04076 0.0355,-0.06129c0.03073,-0.11451 0.06379,-0.2295 0.09983,-0.34237c-0.02924,0.01913 -0.05799,0.03864 -0.08618,0.05858c-0.02106,0.03891 -0.04128,0.07771 -0.06061,0.11617zM454.59943,-48.52799c0.01522,-0.01197 0.03058,-0.02385 0.04602,-0.03563c-0.00972,-0.00337 -0.02013,-0.00617 -0.03107,-0.00842c-0.0049,0.01471 -0.00988,0.02939 -0.01495,0.04404zM454.97879,-48.79153c0.30328,-0.1853 0.63379,-0.33114 0.96708,-0.41904c-0.2185,-0.40315 -0.80496,-0.25711 -1.17677,-0.04123c-0.01142,0.10685 -0.03014,0.21546 -0.05478,0.32437c0.09943,0.02604 0.19072,0.06954 0.26447,0.1359zM443.83264,-49.87465c0.03815,-0.00411 0.07643,-0.00778 0.11476,-0.01104c0.00266,-0.13484 -0.00605,-0.26643 -0.02909,-0.39178c-0.03267,0.13462 -0.06117,0.2697 -0.08568,0.40283zM449.97525,-50.50364c0.15385,-0.06755 0.30721,-0.13388 0.4573,-0.20161c-0.00331,-0.00835 -0.00698,-0.01634 -0.01108,-0.0239c-0.15329,0.02569 -0.30056,0.09606 -0.44622,0.2255zM440.30845,-48.09046c-0.07062,-0.21619 -0.14113,-0.43239 -0.21138,-0.64871c-0.42466,-0.23355 -0.92437,-0.41862 -1.29057,-0.27188c-0.32552,0.26586 -0.51487,0.62611 -0.59185,1.01501c0.5506,0.09959 1.10329,0.18585 1.64371,0.32613c0.12904,-0.16142 0.2826,-0.29711 0.45304,-0.41152c-0.00098,-0.00303 -0.00198,-0.00604 -0.00294,-0.00903zM437.78319,-47.50623c-0.00091,-0.05635 -0.0001,-0.1126 0.00254,-0.16866c-0.0286,-0.00565 -0.05718,-0.01136 -0.08574,-0.01718c-0.40088,-0.08157 -0.76413,-0.23876 -1.16584,-0.01348c-0.26545,0.14886 -0.52422,0.35143 -0.7571,0.58402c0.0956,-0.02056 0.18723,-0.04225 0.26366,-0.07106c0.0911,-0.02035 0.18996,-0.04952 0.29319,-0.08295c0.12195,-0.07692 0.25141,-0.11612 0.38473,-0.13064c0.27668,-0.09386 0.55564,-0.1793 0.78181,-0.18067c0.11035,-0.00066 0.20413,0.0285 0.28277,0.08062zM438.17425,-47.60221c-0.00242,0.18946 0.01852,0.38047 0.06031,0.56603c0.35485,-0.13895 0.72605,-0.25118 1.09584,-0.35234c-0.38282,-0.08135 -0.76998,-0.14451 -1.15615,-0.2137zM441.34729,-47.39118c0.00015,-0.00485 0.00025,-0.00967 0.00032,-0.01451c-0.0026,0.00036 -0.00521,0.00073 -0.00785,0.0011c0.00249,0.00448 0.00501,0.00893 0.00753,0.01341zM442.61832,-48.9687c0.11673,0.35569 0.28691,0.66185 0.46953,0.96914c0.07396,-0.00156 0.14768,-0.00108 0.22107,0.00193c0.00137,-0.21679 0.00453,-0.44455 -0.07152,-0.58996c-0.10311,-0.19716 -0.24522,-0.40692 -0.41531,-0.61614c-0.08312,0.0403 -0.16462,0.08541 -0.24426,0.13579c0.01498,0.03256 0.02938,0.06536 0.04049,0.09922zM442.5005,-49.4782c0.0078,-0.0043 0.01561,-0.00857 0.02342,-0.01279c-0.01011,-0.00059 -0.01777,0.00418 -0.02342,0.01279z" fill="#000000" stroke="none" stroke-linecap="butt"/></g><path d="M460.28855,-41.99835c0,0 1.96843,6.04623 2.11372,9.80567c0.15476,4.00457 0.12352,10.79698 -3.91767,11.05241c-1.2181,0.07698 -7.01275,-1.54903 -9.09349,-9.8203c-2.40283,-9.55166 1.99047,-14.53292 1.99047,-14.53292c0,0 1.8697,-1.82933 3.40538,-1.42243c4.75967,1.26116 5.50158,4.91758 5.50158,4.91758z" fill="none" stroke="#000000" stroke-linecap="round"/><path d="M468.71906,-21.48906c0,0 -1.85462,1.40562 -3.42105,1.61584c-2.65393,0.35617 -3.7573,-2.38107 -3.7573,-2.38107" fill="none" stroke="#000000" stroke-linecap="round"/><path d="M450.50353,-14.00841c-0.91737,0.79845 -2.45149,2.8462 -2.45149,2.8462c0,0 -5.7109,-3.3832 -7.14764,-6.20278c-1.37961,-2.70749 -1.30834,-10.39208 -1.30834,-10.39208c0,0 5.03026,5.53339 7.51581,7.57377c2.20102,1.80682 6.64796,4.05321 6.64796,4.05321c0,0 -2.27534,1.26789 -3.2563,2.12169z" fill="none" stroke="#000000" stroke-linecap="round"/><path d="M444.56394,-14.6503l2.85389,-4.22799" fill="none" stroke="#000000" stroke-linecap="round"/><path d="M441.39295,-18.87829l2.0083,-4.01659" fill="none" stroke="#000000" stroke-linecap="round"/><path d="M460.83536,-31.7188c0.31974,4.74692 -0.6723,8.67934 -2.21577,8.78331c-1.54349,0.10397 -3.05391,-3.65988 -3.37365,-8.4068c-0.31974,-4.74692 0.6723,-8.67934 2.21577,-8.78331c1.54349,-0.10397 3.05391,3.6599 3.37365,8.4068z" fill="#000000" stroke="#000000" stroke-linecap="butt"/><path d="M457.84601,-17.08069l6.85814,2.11256" fill="none" stroke="#000000" stroke-linecap="round"/><path d="M469.54504,-30.28128c0.31974,4.74692 -0.6723,8.67934 -2.21577,8.78331c-1.54349,0.10397 -3.05391,-3.65988 -3.37365,-8.4068c-0.31974,-4.74692 0.6723,-8.67934 2.21577,-8.78331c1.54349,-0.10397 3.05391,3.6599 3.37365,8.4068z" fill="#000000" stroke="none" stroke-linecap="butt"/><g fill="none" stroke="#000000" stroke-linecap="round"><path d="M435.71085,-31.29147c0,0 -2.20248,-0.06536 -2.14253,-4.02632c0.0233,-1.53885 1.53885,-4.9057 1.53885,-4.9057c0,0 1.08294,-1.88198 1.85157,-2.6337c2.25032,-2.2008 4.14193,-0.24663 4.14193,-0.24663c0,0 1.07234,1.01056 1.45101,1.55801c0.31453,0.45475 0.66452,1.50051 0.66452,1.50051"/><path d="M437.72738,-40.37128c0,0 0.76839,-1.36897 1.30489,-1.17222c1.97134,0.72292 1.33139,2.51713 1.33139,2.51713c0,0 -0.06149,1.49355 -0.81653,2.99272c-0.53088,1.05412 -1.31462,2.84759 -1.31462,2.84759c0,0 -0.74315,0.57019 -1.42326,-0.00095c-0.24472,-0.2055 0.98705,-1.77675 0.98705,-1.77675"/></g><path d="M436.95233,-27.97059c0,0 1.35071,-1.46209 2.08771,-1.78775c0.56114,-0.24795 1.95235,0.00259 1.95235,0.00259" fill="none" stroke="#000000" stroke-linecap="round"/></g></g></g></svg>