<svg version="1.1" xmlns="http://www.w3.org/2000/svg" xmlns:xlink="http://www.w3.org/1999/xlink" width="111.25299" height="273.63564" viewBox="0,0,111.25299,273.63564"><defs><linearGradient x1="318.9978" y1="106.68328" x2="318.9978" y2="146.11686" gradientUnits="userSpaceOnUse" id="color-1"><stop offset="0" stop-color="#adad36" stop-opacity="0.66275"/><stop offset="1" stop-color="#adad36" stop-opacity="0"/></linearGradient><linearGradient x1="341.71172" y1="27.79541" x2="341.71172" y2="88.04639" gradientUnits="userSpaceOnUse" id="color-2"><stop offset="0" stop-color="#7f7f38"/><stop offset="1" stop-color="#515124"/></linearGradient><linearGradient x1="318.02894" y1="71.67105" x2="318.02894" y2="165.01017" gradientUnits="userSpaceOnUse" id="color-3"><stop offset="0" stop-color="#7f7f38"/><stop offset="1" stop-color="#515124"/></linearGradient></defs><g transform="translate(-263.86552,-25.99002)"><g stroke-miterlimit="10"><path d="M285.95178,293.00079c0,0 -14.22759,-53.08331 7.5288,-68.55172c21.75639,-15.46841 42.3736,-13.23538 58.24915,4.95316c15.87555,18.18854 3.56627,63.59856 3.56627,63.59856z" fill="#494920" stroke="none" stroke-width="1.5" stroke-linecap="butt"/><path d="M319.23702,299.62565v-58.6454h1.78314v58.6454z" fill-opacity="0.76471" fill="#292912" stroke="none" stroke-width="1.5" stroke-linecap="butt"/><path d="M282.22848,250.32006c0,0 -0.67152,-10.37185 5.50373,-27.51462c2.28097,-6.33207 6.64073,-17.78871 7.58123,-22.41602c3.56142,-17.52221 6.72767,-47.54754 6.72767,-47.54754h34.47399c0,0 4.27397,29.98093 8.21129,46.68064c1.43717,6.09556 7.504,16.92355 9.98383,27.32269c2.98956,12.53674 4.78754,23.47484 4.78754,23.47484z" fill="#bcbc52" stroke="#777734" stroke-width="1.5" stroke-linecap="butt"/><path d="M284.15495,235.41808c0,0 -25.53287,-20.59062 -18.22407,-31.16942c8.22265,-11.90152 17.33125,-36.43618 24.95893,-46.33483c1.74389,-2.2631 12.28527,-2.5388 12.28527,-2.5388l-3.69836,18.22763c0,0 -5.06609,18.93373 -9.75245,27.46066c-3.84625,6.99834 10.80912,13.74962 10.80912,13.74962c0,0 -0.66536,7.89504 -7.32861,14.06799c-7.60434,7.04477 -9.04983,6.53716 -9.04983,6.53716z" fill="#bcbc52" stroke="#777734" stroke-width="1.5" stroke-linecap="butt"/><path d="M304.41862,250.32006l7.83071,-97.47817h15.34819l9.71008,97.47817z" fill="#777734" stroke="#777734" stroke-width="1.5" stroke-linecap="butt"/><path d="M345.77924,228.88093c-6.66325,-6.17294 -7.32861,-14.06799 -7.32861,-14.06799c0,0 14.65538,-6.75128 10.80912,-13.74962c-4.68636,-8.52693 -9.75245,-27.46066 -9.75245,-27.46066l-3.69836,-18.22763c0,0 10.54138,0.2757 12.28527,2.5388c7.62767,9.89865 16.73628,34.43331 24.95893,46.33483c7.3088,10.57881 -18.22407,31.16942 -18.22407,31.16942c0,0 -1.44549,0.50762 -9.04983,-6.53716z" fill="#bcbc52" stroke="#777734" stroke-width="1.5" stroke-linecap="butt"/><path d="M293.40085,174.23109l-0.79251,-16.11427h15.58594l-2.90586,18.75597z" fill="#bcbc52" stroke="none" stroke-width="1.5" stroke-linecap="butt"/><path d="M333.69559,176.87278l-2.90586,-18.75597h15.58594l-0.79251,16.11427z" fill="#bcbc52" stroke="none" stroke-width="1.5" stroke-linecap="butt"/><path d="M301.10623,224.61347c0,0 -3.51221,5.45018 -6.46449,8.30617c-2.95228,2.85599 -6.8329,4.55753 -6.8329,4.55753" fill="none" stroke="#777734" stroke-width="1" stroke-linecap="round"/><path d="M351.1752,237.47717c0,0 -3.88062,-1.70154 -6.8329,-4.55753c-2.95228,-2.85599 -6.46449,-8.30617 -6.46449,-8.30617" fill="none" stroke="#777734" stroke-width="1" stroke-linecap="round"/><path d="M323.33901,164.18418c-0.63879,0.98778 -1.73256,1.83766 -2.12371,3.17654c-0.87759,3.00387 -0.70443,7.55472 0.50313,10.39297c0.38032,0.89391 0.93287,1.39074 1.30225,2.37221c1.19752,3.18185 2.38426,6.8773 2.51945,10.78116c0.19107,5.51698 -1.54007,9.8134 -3.00915,14.35746c-0.56445,1.74592 -0.81285,4.0136 -1.08644,5.98786c-0.09,0.64941 -0.4755,1.33808 -0.48951,2.02471c-0.02013,0.98668 0.11873,1.9982 0,2.96203c-0.26111,2.11969 -0.52992,2.66122 -0.14328,5.80544c0.72609,5.90473 4.17448,9.26427 4.15526,15.64376c-0.00752,2.49572 0.16148,4.18509 -0.22691,6.39233c-0.33465,1.90186 -1.59246,5.32179 -2.42763,7.33683c-0.78503,-0.03246 -1.59668,-0.04738 -2.37702,-0.03132c-0.41499,-0.12531 -0.84647,-0.19141 -1.28937,-0.19141c-0.36441,0 -0.72109,0.04474 -1.06721,0.13041c0.45151,-2.21413 1.14034,-4.29692 1.8564,-6.29191c0.29161,-0.81244 1.19195,-3.06727 1.23319,-3.81379c0.05021,-0.90864 0.08384,-3.66048 -0.14328,-4.93672c-0.40918,-2.29925 -1.72604,-4.29244 -2.35222,-6.41904c-0.50101,-1.70151 -1.17382,-3.30066 -1.43284,-5.16981c-0.41523,-2.9963 -0.10498,-6.01631 -0.08363,-8.99295c0.00798,-1.11296 -0.13385,-2.25262 0,-3.33917c0.42775,-3.47253 1.15615,-7.62033 2.08961,-10.78116c0.92422,-3.12956 2.6118,-6.24053 2.4955,-10.04432c-0.08315,-2.71965 -1.14165,-5.07154 -1.89177,-7.315c-0.2824,-0.84462 -0.99544,-1.47985 -1.32015,-2.4368c-1.34773,-3.97189 -1.67315,-8.01836 -1.67315,-12.63234c0,-4.4679 1.94815,-7.93059 3.80484,-10.25837c0.17717,-0.22212 0.39928,-0.6673 0.64883,-1.1217c0.043,-0.08382 0.08804,-0.16421 0.13496,-0.24091c0.43925,-0.76566 0.94868,-1.44887 1.4427,-1.00331c1.18701,0 2.14927,1.73596 2.14927,3.87736c0,1.09866 -0.25329,2.0906 -0.66028,2.79612c-0.1274,0.31394 -0.27177,0.63741 -0.4308,0.97212z" fill="#494920" stroke="none" stroke-width="1.5" stroke-linecap="butt"/><path d="M303.38692,171.55245l-4.16065,-21.59577l13.47259,0.99063l12.08571,6.93442z" fill="#bcbc52" stroke="#777734" stroke-width="1.5" stroke-linecap="butt"/><path d="M317.652,157.28736l10.30257,-6.34004l13.47259,-0.99063l-4.16065,21.59577z" fill="#bcbc52" stroke="#777734" stroke-width="1.5" stroke-linecap="butt"/><path d="M284.28067,122.28179c0,-20.76334 16.15889,-37.59536 36.09191,-37.59536c19.93301,0 36.0919,16.83202 36.0919,37.59536c0,8.20432 -3.04026,17.55362 -8.32957,23.8291c-8.09681,9.60641 -20.25744,12.82619 -27.52248,12.8069c-3.92297,-0.01042 -15.36902,-2.39236 -23.75455,-9.9398c-7.57128,-6.81456 -12.57719,-16.84429 -12.57719,-26.6962z" fill="#ecec68" stroke="#000000" stroke-width="1.5" stroke-linecap="butt"/><path d="M283.33507,145.32436l21.39765,-19.81264c0,0 18.99155,-29.26143 27.52337,-31.37615c5.18322,-1.28473 18.8382,19.88483 18.8382,19.88483l3.56627,32.09647c0,0 -15.31724,-4.2472 -30.12005,-4.31921c-21.53424,-0.10475 -41.20544,3.5267 -41.20544,3.5267z" fill="url(#color-1)" stroke="none" stroke-width="1.5" stroke-linecap="butt"/><path d="M339.55449,111.74701c5.76621,2.34612 9.35247,10.46686 8.01014,18.13819c-1.34233,7.67132 -7.10494,11.98826 -12.87115,9.64213c-5.76621,-2.34612 -9.35247,-10.46686 -8.01014,-18.13819c1.34233,-7.67132 7.10494,-11.98826 12.87114,-9.64214z" fill="#000000" stroke="none" stroke-width="1.5" stroke-linecap="butt"/><path d="M315.41074,151.99184c0,0 10.39804,-3.52835 14.79502,-1.96087c1.67177,0.59597 -2.81224,3.188 -2.81224,3.188" fill="none" stroke="#000000" stroke-width="1.5" stroke-linecap="round"/><path d="M322.27164,126.61342c0,0 -0.13177,4.00028 2.0099,7.95152c1.94743,3.59288 5.35337,7.10724 4.56498,8.26652c-1.08565,1.59636 -5.25999,1.08626 -5.25999,1.08626" fill="none" stroke="#000000" stroke-width="1.5" stroke-linecap="round"/><path d="M359.95054,65.64926c-4.70612,11.96168 -15.10219,22.39713 -15.10219,22.39713c0,0 -3.00253,-14.79595 -9.09124,-25.52593c-4.80078,-8.46031 -15.89294,-21.909 -15.89294,-21.909l17.39086,4.84239l4.20056,-17.65844l11.68671,16.81437l10.34329,-6.76378c0,0 0.89254,16.54957 -3.53503,27.80327z" fill="url(#color-2)" stroke="#42421e" stroke-width="1.5" stroke-linecap="butt"/><path d="M354.404,87.10853c-3.2542,4.14203 -7.61854,1.66511 -12.71642,-2.34007c-5.09788,-4.00518 -8.99884,-8.02193 -5.74463,-12.16395c3.2542,-4.14202 21.71525,10.362 18.46104,14.50403z" fill="#393900" stroke="none" stroke-width="1.5" stroke-linecap="butt"/><path d="M303.08086,161.98603c-2.28919,-1.55731 -4.70312,-4.75128 -4.70312,-4.75128l-1.16539,7.35172c0,0 -4.1097,-1.03713 -7.03964,-5.80746c-1.84075,-2.99699 -2.71143,-5.72057 -2.71143,-5.72057l-1.83715,6.38301c0,0 -16.39031,-10.27992 -15.61026,-39.5899c0.92828,-34.87959 15.30999,-35.39278 38.61667,-45.49914c22.63721,-9.81606 38.78175,10.47775 38.78175,10.47775c0,0 9.67537,5.30567 14.94978,18.63868c9.32597,23.57483 -2.41085,48.72064 -2.41085,48.72064l-3.8457,-3.92671c0,0 -1.43978,4.06125 -2.98536,6.33076c-1.54558,2.26951 -5.39007,5.57438 -5.39007,5.57438c0,0 4.20614,-24.70819 0.59161,-40.82159c-3.41923,-15.24276 -15.11673,-20.36884 -15.11673,-20.36884c0,0 -10.48598,11.78872 -15.0712,21.723c-14.41455,31.23035 -10.20141,43.38509 -10.20141,43.38509c0,0 -2.56234,-0.54224 -4.85154,-2.09955z" fill="url(#color-3)" stroke="#42421e" stroke-width="1.5" stroke-linecap="butt"/><path d="M343.53366,122.54116l7.43512,-4.31717" fill="none" stroke="#000000" stroke-width="1.5" stroke-linecap="round"/></g></g></svg>