<svg version="1.1" xmlns="http://www.w3.org/2000/svg" xmlns:xlink="http://www.w3.org/1999/xlink" width="156.4773" height="45.83424" viewBox="0,0,156.4773,45.83424"><defs><linearGradient x1="262.33967" y1="267.50297" x2="262.33967" y2="287.07846" gradientUnits="userSpaceOnUse" id="color-1"><stop offset="0" stop-color="#000000" stop-opacity="0"/><stop offset="1" stop-color="#000000" stop-opacity="0.54118"/></linearGradient><linearGradient x1="262.05293" y1="243.58068" x2="262.05293" y2="281.38451" gradientUnits="userSpaceOnUse" id="color-2"><stop offset="0" stop-color="#1c1c00" stop-opacity="0.55294"/><stop offset="1" stop-color="#1c1c00" stop-opacity="0"/></linearGradient><linearGradient x1="262.33967" y1="267.75297" x2="262.33967" y2="287.32846" gradientUnits="userSpaceOnUse" id="color-3"><stop offset="0" stop-color="#000000" stop-opacity="0"/><stop offset="1" stop-color="#000000" stop-opacity="0.54118"/></linearGradient><linearGradient x1="262.33967" y1="243.7442" x2="262.33967" y2="287.07846" gradientUnits="userSpaceOnUse" id="color-4"><stop offset="0" stop-color="#ffff94"/><stop offset="1" stop-color="#cccc48"/></linearGradient><linearGradient x1="351.84161" y1="247.4785" x2="351.84161" y2="267.58731" gradientTransform="translate(-813.11488,-626.75659) scale(2.80411,2.38703)" gradientUnits="userSpaceOnUse" id="color-5"><stop offset="0" stop-color="#ffffff"/><stop offset="1" stop-color="#fdff9d"/></linearGradient><linearGradient x1="342.09099" y1="267.15827" x2="342.09099" y2="284.20056" gradientTransform="translate(-958.43533,-788.49378) scale(3.30874,2.81658)" gradientUnits="userSpaceOnUse" id="color-6"><stop offset="0" stop-color="#ffffff"/><stop offset="1" stop-color="#fdff9d"/></linearGradient></defs><g transform="translate(-225.25624,-242.4942)"><g stroke-miterlimit="10"><g><path d="M249.27967,243.7442h26.12002c5.10646,0 9.21741,3.99835 9.21741,8.96489v25.40446c0,4.96655 -4.11096,8.96489 -9.21741,8.96489h-26.12002c-5.10644,0 -9.21743,-3.99836 -9.21743,-8.96489v-25.40445c0,-4.96655 4.11099,-8.96489 9.21743,-8.96489z" fill="#6e6e30" fill-rule="evenodd" stroke="none" stroke-width="4.43922" stroke-linecap="round" stroke-linejoin="round"/><path d="M284.61712,278.11357c0,4.96655 -4.11097,8.96489 -9.21742,8.96489h-26.12002c-5.10644,0 -9.21742,-3.99835 -9.21742,-8.96489v-10.61059c8.88121,0.04533 18.3634,0.13124 27.11866,0.13175c5.81207,0.00033 11.62414,-0.00626 17.43622,-0.01044z" fill="url(#color-1)" fill-rule="nonzero" stroke="none" stroke-width="4.43922" stroke-linecap="butt" stroke-linejoin="miter"/><path d="M249.11113,244.11893c0,0 -3.95964,3.70779 -4.09603,8.09547c-0.19541,6.28641 -0.35704,13.96842 -2.08069,14.1409c-1.63048,0.16315 -1.52495,-6.62113 -1.80971,-12.71206c-0.07558,-1.61665 -0.20529,-3.18203 -0.34631,-4.56079c0.69899,-0.5495 1.1887,-1.35322 1.32983,-2.27183c0.70529,-0.3159 1.28992,-0.85299 1.66564,-1.52301c0.84661,-0.12983 1.59569,-0.55574 2.1382,-1.16868z" fill="#ffff94" fill-rule="nonzero" stroke="none" stroke-width="0" stroke-linecap="butt" stroke-linejoin="miter"/><path d="M247.04016,263.30451c0,0 3.29817,12.54174 0.42005,12.73425c-2.9218,0.19543 -0.42005,-12.73425 -0.42005,-12.73425z" fill="#ffff94" fill-rule="nonzero" stroke="none" stroke-width="0" stroke-linecap="butt" stroke-linejoin="miter"/><path d="M244.35042,247.07187l16.68562,-0.26339c0,0 -2.74147,2.73672 -3.82729,5.81487c-1.11809,3.16961 -0.63207,6.68534 -4.2431,6.83004c-4.13447,0.08676 -3.91499,-4.08944 -5.05403,-7.51727c-0.90704,-2.72964 -3.56119,-4.86426 -3.56119,-4.86426z" fill="#ffff94" fill-rule="nonzero" stroke="none" stroke-width="0" stroke-linecap="butt" stroke-linejoin="miter"/><path d="M280.57568,251.17025c-1.60054,0.67543 -3.96763,-1.48848 -6.91859,-1.65333c-1.27215,-0.07106 -2.57984,1.8352 -4.10209,1.84568c-2.37621,0.01636 -2.77581,-1.70215 -5.64315,-1.68143c-3.83109,0.02767 -1.9662,-2.05769 -4.66479,-2.20763c-0.2105,-0.0117 -12.09039,3.36848 -12.29426,3.36232c-1.47129,-0.04447 -0.95386,1.59008 -0.86276,3.3116c0.09987,1.88741 -0.18234,3.86489 -1.03703,3.50194c-0.39917,-0.16951 -0.17725,-1.25056 -0.40584,-2.29199c-0.11612,-0.529 -0.66779,-0.99457 -0.82196,-1.43428c-0.68671,-1.95834 -1.49179,-4.46127 -2.0578,-6.04812c0.166,-0.32895 1.63072,-1.91736 2.00645,-2.58738c0.41466,-0.06359 1.71834,-0.91299 2.94815,-1.25171c1.2811,-0.35286 2.25208,-0.29763 3.6465,-0.34671c3.32318,-0.11695 7.98224,-0.00061 10.85947,-0.00061c3.21364,0 9.02795,-0.21076 12.82358,-0.08838c2.67982,0.0864 3.81462,0.3138 3.81462,0.3138c0.42745,0.29623 1.17856,0.70685 1.71327,0.79429c0.26197,0.17859 0.54883,0.32338 0.85432,0.42807c0.42648,0.61973 1.04279,1.0987 1.76499,1.35297c0.14999,0.24363 0.32828,0.46797 0.53033,0.66842c0.16966,0.48567 0.44085,0.92369 0.78812,1.28864c0.05751,0.16501 0.12674,0.32452 0.20668,0.47754c-0.64613,0.81931 -1.64014,1.60988 -3.14822,2.2463z" fill="#ffff94" fill-rule="nonzero" stroke="none" stroke-width="0" stroke-linecap="butt" stroke-linejoin="miter"/><path d="M276.25214,251.81051c0,0 3.18427,9.3636 0.40555,9.50731c-2.8209,0.1459 -0.40555,-9.50731 -0.40555,-9.50731z" fill="#ffff94" fill-rule="nonzero" stroke="none" stroke-width="0" stroke-linecap="butt" stroke-linejoin="miter"/><path d="M284.55713,262.98149c0,0 -3.17665,-1.95851 -2.98175,-5.38249c0.16841,-2.9587 1.01483,-6.6149 1.76,-9.35887c0.05799,0.07107 0.11865,0.13989 0.18183,0.20628c0.14675,0.42106 0.3698,0.80636 0.6526,1.13935c0.07045,0.37251 0.1985,0.72464 0.37456,1.04679z" fill="#ffff94" fill-rule="nonzero" stroke="none" stroke-width="0" stroke-linecap="butt" stroke-linejoin="miter"/><path d="M284.42757,281.26266c-5.83743,-0.00419 -35.82934,0.0763 -44.7493,0.12184v-28.79979c0,-4.98822 4.12893,-9.00402 9.25766,-9.00402h26.234c5.12873,0 9.25764,4.0158 9.25764,9.00402z" fill="url(#color-2)" fill-rule="nonzero" stroke="none" stroke-width="4.43922" stroke-linecap="butt" stroke-linejoin="miter"/><path d="M284.61712,278.36357c0,4.96655 -4.11097,8.96489 -9.21742,8.96489h-26.12002c-5.10644,0 -9.21742,-3.99835 -9.21742,-8.96489v-10.61059c8.88121,0.04533 18.3634,0.13124 27.11866,0.13175c5.81207,0.00033 11.62414,-0.00626 17.43622,-0.01044z" fill="url(#color-3)" fill-rule="nonzero" stroke="none" stroke-width="4.43922" stroke-linecap="butt" stroke-linejoin="miter"/><path d="M249.27967,243.7442h26.12002c5.10646,0 9.21741,3.99835 9.21741,8.96489v25.40446c0,4.96655 -4.11096,8.96489 -9.21741,8.96489h-26.12002c-5.10644,0 -9.21743,-3.99836 -9.21743,-8.96489v-25.40445c0,-4.96655 4.11099,-8.96489 9.21743,-8.96489z" fill="none" fill-rule="evenodd" stroke="url(#color-4)" stroke-width="2.5" stroke-linecap="round" stroke-linejoin="round"/></g><text transform="translate(289.97303,262.56714) scale(0.35662,0.41893)" font-size="40" xml:space="preserve" fill="url(#color-5)" fill-rule="nonzero" stroke="none" stroke-width="1" stroke-linecap="butt" stroke-linejoin="miter" font-family="&quot;Allan-Bold&quot;, Sans Serif" font-weight="normal" text-anchor="start"><tspan x="0" dy="0">So far So familiar</tspan></text><path d="M225.25624,264.86846c0,-2.02211 1.63925,-3.66135 3.66136,-3.66135c2.02211,0 3.66135,1.63924 3.66135,3.66135c0,2.02211 -1.63924,3.66135 -3.66135,3.66135c-2.02211,0 -3.66136,-1.63924 -3.66136,-3.66135z" fill="#feffce" fill-rule="nonzero" stroke="none" stroke-width="0" stroke-linecap="butt" stroke-linejoin="miter"/><text transform="translate(289.66791,279.94683) scale(0.30223,0.35504)" font-size="40" xml:space="preserve" fill="url(#color-6)" fill-rule="nonzero" stroke="none" stroke-width="1" stroke-linecap="butt" stroke-linejoin="miter" font-family="&quot;Allan-Regular&quot;, Sans Serif" font-weight="normal" text-anchor="start"><tspan x="0" dy="0">place all traditional polos</tspan></text><g fill-rule="nonzero" stroke-linejoin="miter"><path d="M247.13725,262.66703c0,0 2.05424,-1.97377 2.09701,-2.26233c0.11217,-0.7568 -0.05592,-13.3898 11.98812,-13.85664c14.87738,-0.30451 13.00374,11.7818 13.84233,14.06211c1.14983,3.12665 2.05202,5.79951 2.05202,5.79951c0,0 -0.9223,-0.68444 -1.35977,-1.04456c-0.40803,-0.33588 -1.26702,-1.04852 -1.26702,-1.04852c0,0 1.03027,3.44904 0.43693,6.89768c-0.52072,3.16003 -2.43238,5.74127 -2.43238,5.74127l-0.38504,-0.78238c0,0 -0.34085,0.73258 -0.71995,1.11081c-0.3791,0.37823 -1.14613,0.97082 -1.14613,0.97082l-0.03068,-1.23462c0,0 -2.35315,3.67231 -8.11612,3.62351c-5.43491,-0.08515 -8.68969,-3.55807 -8.68969,-3.55807l-0.03873,0.88487c0,0 -1.29813,-1.09748 -2.06029,-3.23554c-0.9084,-2.54832 -1.07972,-4.0807 -1.07972,-4.0807c0,0 -0.77962,0.63299 -1.9055,0.92471c-1.4108,0.36554 -2.31533,0.11508 -2.31533,0.11508c0,0 1.20254,-0.90564 1.86115,-1.58981c0.58664,-0.60941 0.88211,-1.12563 0.88211,-1.12563c0,0 -0.70246,0.36153 -1.41079,0.53927c-0.73906,0.18545 -1.34324,0.17696 -1.34324,0.17696c0,0 1.65815,-1.67893 2.34336,-3.62442c0.64695,-1.83685 0.69984,-3.65209 0.69984,-3.65209c0,0 -0.45384,0.22052 -1.10994,0.26502c-0.41588,0.02821 -0.79254,-0.0163 -0.79254,-0.0163z" fill="#1c1c00" stroke="none" stroke-width="0.65" stroke-linecap="butt"/><path d="M252.73201,266.44054c-0.19234,-2.43085 0.11166,-5.71762 0.11166,-5.71762c0,0 1.13676,-0.01375 4.63766,-1.04798c2.68961,-0.79457 6.84846,-3.16211 6.84846,-3.16211c0,0 -0.71995,1.00158 -1.13583,1.48657c-0.44213,0.5156 -1.33085,1.52085 -1.33085,1.52085c0,0 2.61242,-0.55582 4.89112,-1.57629c2.85585,-1.17847 3.53051,-2.01751 4.3164,-1.53075c0.92755,0.57448 0.34332,7.72684 0.23947,9.57931c-0.14053,1.88956 -0.84434,3.16627 -1.05,4.17312c-0.20566,1.00685 -0.13652,2.04535 -0.73534,5.34606c-0.3737,2.05988 -1.38714,2.97461 -3.33949,4.88648c-1.95234,1.91187 -3.01765,3.08396 -4.33746,3.10695c-1.27014,0.02213 -2.97827,-1.69991 -4.6447,-3.46049c-1.77448,-1.87474 -2.95802,-2.82544 -3.2382,-5.04611c-0.25233,-1.99994 -0.25882,-3.30253 -0.37419,-5.08231c-0.08432,-1.30079 -0.75366,-2.14815 -0.85871,-3.47568z" fill="#fcff63" stroke="#1c1c00" stroke-width="0.65" stroke-linecap="butt"/><path d="M268.6057,261.28979c0,0 0.50805,0.10602 1.41847,0.37006c0.83156,0.24118 1.48298,0.58129 1.48298,0.58129l0.06503,0.39008c0,0 -2.41632,-1.04322 -5.03813,-0.82346c-2.09634,0.17573 -3.32075,0.93738 -3.32075,0.93738l0.01525,-1.39215c0,0 1.04239,-0.56802 2.62097,-0.61846c1.63461,-0.05224 2.6967,0.19706 2.6967,0.19706z" fill="#1c1c00" stroke="none" stroke-width="0.65" stroke-linecap="butt"/><path d="M264.49953,275.72873c0.19012,0.07061 1.02776,0.46643 2.00776,0.86521c0.98781,0.40195 2.40432,0.76424 2.39781,0.82009c-0.00825,0.07088 -3.47793,0.07564 -4.55936,0.21073c-0.90625,0.1132 -2.22935,0.23519 -2.22935,0.23519c0,0 -2.36778,-0.38719 -4.4237,-0.81499c-1.64775,-0.34287 -3.4661,-0.55364 -3.46966,-0.58482c-0.0048,-0.04204 1.28933,-0.23688 2.27451,-0.46485c0.38192,-0.16552 1.81307,-0.495 1.81307,-0.495c0,0 1.6518,-0.09254 2.53585,0.19298c0.94726,0.30594 0.94506,0.81511 1.0276,0.82294c0,0 0.39475,-0.58305 0.78954,-0.70147c0.3948,-0.11841 1.69391,-0.13876 1.83592,-0.08602z" fill="#fcff63" stroke="#1c1c00" stroke-width="0.65" stroke-linecap="butt"/><path d="M258.28412,277.24645c1.69689,0.34221 3.97215,0.9357 3.97215,0.9357c0,0 1.92974,-0.51857 2.81533,-0.61141c0.68658,-0.07198 3.73832,-0.23549 3.75307,-0.11125c0.01443,0.12148 -3.01012,4.29971 -7.0487,4.14865c-4.58941,-0.14525 -7.62081,-5.04472 -7.6082,-5.10109c0.01261,-0.05637 2.41947,0.39718 4.11636,0.7394z" fill="#fcff63" stroke="#1c1c00" stroke-width="0.65" stroke-linecap="butt"/><path d="M261.94186,276.24865c-0.34455,0 -1.17926,-1.0867 -1.26211,-1.78773c-0.07414,-0.62723 0.43833,-1.27587 1.26211,-1.27587c0.82379,0 1.40057,0.16357 1.3432,1.39605c-0.04868,1.04596 -0.51942,1.66757 -1.3432,1.66757z" fill="#fcff63" stroke="#1c1c00" stroke-width="0.65" stroke-linecap="butt"/><path d="M263.14245,266.21835c0,0 0.0342,1.32313 0.00192,2.37532c-0.06391,2.08351 -0.36046,9.2527 -0.36046,9.2527l-0.9938,0.00288c0,0 -0.26762,-1.39078 -0.37437,-3.1663c-0.1445,-2.40332 -0.14982,-5.43056 -0.25446,-6.54348c-0.09918,-1.05495 -0.29862,-1.90467 -0.29862,-1.90467" fill="#fcff63" stroke="#1c1c00" stroke-width="0.65" stroke-linecap="round"/><path d="M253.2985,269.81463c0,0 -1.64388,-1.17224 -2.05453,-2.99139c-0.43208,-1.9141 -0.48701,-3.24396 0.16003,-3.33033c0.64704,-0.08638 0.90099,0.79223 1.24409,2.78497c0.3431,1.99274 0.65042,3.53676 0.65042,3.53676z" fill="#fcff63" stroke="#1c1c00" stroke-width="0.65" stroke-linecap="butt"/><path d="M253.23098,268.4989c0,0 -1.18784,-0.97437 -1.43925,-2.81661c-0.14025,-1.02766 0.71885,-0.75998 0.71885,-0.75998" fill="none" stroke="#1c1c00" stroke-width="0.5" stroke-linecap="round"/><path d="M254.23536,266.28048c0.02364,-1.63047 1.61263,-2.97842 3.40347,-2.95245c1.79084,0.02596 3.0088,1.416 2.98516,3.04648c-0.02364,1.63047 -1.37438,2.93119 -3.16522,2.90523c-1.79084,-0.02596 -3.24705,-1.36877 -3.22341,-2.99925z" fill="#fcff63" stroke="#1c1c00" stroke-width="0.65" stroke-linecap="butt"/><path d="M255.71443,266.31979c0.01333,-0.91939 0.76944,-1.65389 1.68883,-1.64056c0.91939,0.01333 1.65389,0.76944 1.64056,1.68883c-0.01333,0.91939 -0.76944,1.65389 -1.68883,1.64056c-0.91939,-0.01333 -1.65389,-0.76944 -1.64056,-1.68883z" fill="#1c1c00" stroke="none" stroke-width="0.65" stroke-linecap="butt"/><path d="M263.25327,266.28072c0.06783,-1.62923 1.48408,-2.95255 3.25652,-2.95255c1.77244,0 3.09122,1.3219 3.09122,2.95255c0,1.63064 -1.29516,3.0234 -3.23291,3.04701c-1.84315,0.02246 -3.18567,-1.34552 -3.11483,-3.04701z" fill="#fcff63" stroke="#1c1c00" stroke-width="0.65" stroke-linecap="butt"/><path d="M264.78737,266.30923c0,-0.93939 0.76153,-1.70092 1.70092,-1.70092c0.93939,0 1.70092,0.76153 1.70092,1.70092c0,0.93939 -0.76152,1.70092 -1.70092,1.70092c-0.93939,0 -1.70092,-0.76153 -1.70092,-1.70092z" fill="#1c1c00" stroke="none" stroke-width="0.65" stroke-linecap="butt"/><path d="M254.21254,266.1031c0,0 0.02119,-3.00476 3.53337,-2.94136c3.15671,0.05528 3.18488,3.13545 3.18488,3.13545z" fill="#fcff63" stroke="#1c1c00" stroke-width="0.65" stroke-linecap="butt"/><path d="M263.1274,266.14673c0,0 -0.08228,-3.15244 3.73236,-3.03412c3.23779,0.11114 3.18196,3.21713 3.18196,3.21713z" fill="#fcff63" stroke="#1c1c00" stroke-width="0.65" stroke-linecap="butt"/><path d="M255.41935,261.82688c0,0 1.1231,-0.60627 2.67723,-0.76052c1.72216,-0.17093 2.58917,-0.02209 2.58917,-0.02209l0.09835,1.37903c0,0 -1.27839,-0.22686 -2.6724,-0.17369c-1.86431,0.0711 -2.21475,0.4776 -3.63224,0.63034c-1.21458,0.13088 -2.24553,0.05294 -2.24553,0.05294l-0.00863,-0.41048c0,0 1.19828,0.02466 1.7444,-0.02279c0.45076,-0.03916 1.32511,-0.31267 1.32511,-0.31267z" fill="#1c1c00" stroke="none" stroke-width="0.65" stroke-linecap="butt"/><path d="M271.37452,266.27787c0.3431,-1.99274 0.59704,-2.87134 1.24409,-2.78497c0.64704,0.08637 0.59211,1.41623 0.16003,3.33033c-0.41065,1.81915 -2.05453,2.99139 -2.05453,2.99139c0,0 0.30731,-1.54402 0.65042,-3.53676z" fill="#fcff63" stroke="#1c1c00" stroke-width="0.65" stroke-linecap="butt"/><path d="M271.51204,264.92231c0,0 0.8591,-0.26768 0.71885,0.75998c-0.25141,1.84224 -1.43925,2.81661 -1.43925,2.81661" fill="none" stroke="#1c1c00" stroke-width="0.5" stroke-linecap="round"/></g></g></g></svg>