<svg version="1.1" xmlns="http://www.w3.org/2000/svg" xmlns:xlink="http://www.w3.org/1999/xlink" width="159.43254" height="248.73447" viewBox="0,0,159.43254,248.73447"><defs><linearGradient x1="321.90275" y1="134.03107" x2="321.90275" y2="289.07158" gradientUnits="userSpaceOnUse" id="color-1"><stop offset="0" stop-color="#000000"/><stop offset="1" stop-color="#ffffff"/></linearGradient></defs><g transform="translate(-240.09529,-42.14454)"><g stroke-miterlimit="10"><g fill="none" stroke="none" stroke-width="1" stroke-linecap="butt" font-family="sans-serif" font-weight="normal" font-size="12" text-anchor="start"><g/><g/></g><g fill="#000000" stroke="none" stroke-width="0.5" stroke-linecap="butt"><path d="M387.89569,237.72977c-0.68264,-0.73076 0.04813,-1.41339 0.04813,-1.41339l0.50106,-0.44148c2.7438,-1.69723 5.82085,-3.84282 7.52756,-6.63161c0.70464,-1.1514 0.10926,-5.44082 0.15756,-6.89235c-0.39338,-2.95318 -1.71033,-5.76226 -2.03075,-8.67555c-0.5441,-4.94696 0.89164,-9.86654 1.92593,-14.59696c0.33776,-1.54481 0.23464,-2.94701 0.76695,-4.4275c1.64385,-4.23525 0.33582,-9.95898 -0.2217,-14.20603c-0.5374,-4.09385 -0.07019,-8.5551 0.09484,-12.69825c-0.34836,-1.43903 -0.6705,-2.83666 -1.08101,-4.21906c-0.16973,0.60799 -0.36526,1.19241 -0.58735,1.74413c-1.17215,2.91177 -2.47728,5.60021 -2.56054,8.86864l-0.03403,0.99942c-0.0188,0.55196 -0.48149,0.98418 -1.03345,0.96538c-0.35241,-0.012 -0.656,-0.20495 -0.82457,-0.48655l-1.04397,-1.68771l0.01325,-0.0082c-0.02938,-0.04348 -0.05792,-0.0876 -0.08554,-0.13245c-2.12951,-3.45688 0.14729,-9.12409 1.54571,-12.28699c0.57415,-1.2986 1.60007,-4.16461 3.35827,-4.31051c0.11081,-1.34654 0.07912,-2.73498 -0.16358,-4.18622c-0.46946,-3.56949 -0.87495,-7.08864 -1.24524,-10.61116c-0.36718,1.4628 -0.71219,2.9271 -1.2715,4.3479c-1.37714,3.49843 -3.85397,6.52685 -3.98536,10.38504l-0.09824,0.13438l0.05455,0.02027l-0.35914,0.96646c-0.1395,0.40411 -0.52987,0.68801 -0.97944,0.6727c-0.39897,-0.01359 -0.73537,-0.2591 -0.88412,-0.6026l-0.61188,-1.33556l0.37181,-0.17035c-0.71248,-1.91153 -0.42704,-3.73395 -0.40121,-6.25609c0.06269,-6.12383 0.22572,-12.23429 0.43415,-18.3547c0.11103,-3.26022 -0.47195,-7.6205 3.60368,-7.88192c2.60711,0.24385 3.79447,2.30046 4.47847,4.60831c0.00124,-1.88053 -0.09722,-3.80869 -0.41601,-5.57184c-0.19992,-1.10572 -1.19532,-1.91544 -1.623,-2.95452c-0.92524,-2.2479 -1.81408,-4.70512 -2.61871,-7.14296c-0.37009,0.27343 -0.71657,0.55768 -0.85436,0.97644c-0.35821,1.08865 -0.37806,2.56558 -0.79108,3.64186c-0.50721,1.32172 -1.40556,1.37299 -1.39357,2.78658l-0.40497,1.44074c0,0 -0.27542,0.96133 -1.23674,0.68592c-0.96132,-0.27542 -0.68591,-1.23674 -0.68591,-1.23674l0.35208,-1.20169c0.09732,-1.50999 1.03025,-1.86083 1.47577,-3.11918c0.37784,-1.06723 0.36896,-2.58263 0.79108,-3.64185c0.39003,-0.97871 1.45995,-1.52613 2.09334,-2.36813c-0.20877,-0.66723 -0.41005,-1.32807 -0.60283,-1.97766c0,0 -0.28376,-0.95889 0.67515,-1.24265c0.28901,-0.08552 0.51669,-0.05817 0.69376,0.0218c-0.00116,-0.45759 -0.01324,-0.91487 0.00202,-1.35882c-0.05598,-3.83091 -3.62677,-5.93351 -5.23477,-9.40945c-0.60795,-1.31418 -1.4683,-2.61891 -2.27595,-3.93465c0.18734,0.60987 0.3694,1.2061 0.52208,1.77963c0.48285,1.81381 0.57751,3.92527 1.12798,5.66897c0.35104,1.112 0.95679,2.20262 0.94352,3.36865c0,0 -0.03403,0.99942 -1.03346,0.96538c-0.99942,-0.03403 -0.96538,-1.03345 -0.96538,-1.03345c0.06409,-0.94018 -0.57017,-1.79644 -0.85111,-2.69595c-0.55466,-1.77595 -0.66333,-3.90729 -1.15141,-5.74857c-0.68962,-2.60153 -1.87078,-5.59169 -1.76158,-8.33721c0.01793,-0.45071 0.0744,-0.89082 0.15752,-1.32345c-1.00325,-3.47587 -1.81638,-7.09231 -2.38897,-10.52546c-0.58685,-1.97472 -0.52369,-4.77562 -1.37687,-6.53463c-1.47494,-3.04086 -3.00097,-6.13579 -4.6461,-9.07701c-1.57822,-2.8216 -3.95264,-4.69455 -4.70294,-7.78226c-0.38924,-0.30324 -0.78101,-0.59978 -1.17525,-0.88876c-0.61633,-0.87035 -1.34784,-1.65338 -2.00236,-2.49539c-0.37468,-0.48202 -0.2071,-1.90863 -0.76627,-1.66355c-0.22772,0.09981 -1.71291,3.3717 -2.03682,3.82344l0.17539,-0.21552c0,0 -0.03403,0.99942 -1.03346,0.96539c-0.99942,-0.03403 -0.96538,-1.03346 -0.96538,-1.03346l0.19808,-0.8818c0.75134,-1.04788 2.30583,-4.52459 3.5884,-4.65668c1.16602,-0.12008 3.67771,3.89665 4.2655,4.75229c0.19392,0.13511 0.38725,0.27269 0.58,0.41257c0.67073,-0.03349 0.90414,0.47931 0.97832,0.73317c3.75103,2.89818 7.26119,6.59266 10.4133,9.94318c1.61304,1.71457 4.30706,2.39507 5.41047,4.52215c0.5169,0.99646 -0.26428,3.1975 -0.4031,4.13657c-0.21709,1.4685 -0.10007,3.08162 -0.15061,4.56565c-0.08561,2.51386 0.05231,5.29343 -0.6039,7.72682c-0.36413,1.3503 -0.96951,2.65768 -1.29638,4.03704c0.31273,1.06801 0.64078,2.12402 0.98092,3.16072c0.82162,2.5043 2.93749,4.94887 4.04653,7.3959c1.78451,3.93742 5.36107,5.77331 5.43398,10.2984c-0.05837,1.72943 0.063,3.23435 -0.60692,4.74673c0.88831,2.77969 1.90351,5.63273 2.96179,8.21055c0.57845,1.40902 1.41725,1.7812 1.73326,3.31724c0.53073,2.57968 0.50354,5.60361 0.41339,8.25094c-0.07049,2.06997 0.09468,4.04711 -0.5272,5.93789c0.56288,5.09817 0.75265,10.35317 1.44167,15.56513c0.27511,1.70222 0.36874,3.63804 0.26181,5.58239c0.03973,0.05535 0.07709,0.11177 0.11188,0.16904c0.42423,0.6984 -0.01245,1.67591 0.29287,2.43389c0.86995,2.15971 1.31414,4.37108 1.84201,6.64983c-0.12022,4.12671 -0.64129,8.57167 -0.1011,12.6431c0.61578,4.64107 1.78273,10.51041 0.11251,15.15569c-0.51779,1.33406 -0.38226,2.74266 -0.6891,4.16371c-0.98338,4.55432 -2.39134,9.22534 -1.88634,13.98742c0.30908,2.91457 1.64837,5.78508 2.03605,8.75186c-0.0566,1.98938 0.56053,6.0582 -0.3344,7.82052c-1.61384,3.17803 -5.36753,5.69319 -8.29608,7.50469l-0.18792,0.20211c0,0 -0.73076,0.68263 -1.41339,-0.04813zM392.9058,136.27543c-0.35555,-0.99298 -0.6807,-2.01064 -0.73734,-3.05704c-0.10237,-1.89119 -1.03366,-7.10253 -3.44003,-6.8986c-1.96715,-0.56786 -1.4927,4.65698 -1.53677,5.95114c-0.20789,6.10457 -0.37057,12.19913 -0.4331,18.3071c-0.00476,0.46439 0.03133,1.02163 0.0683,1.61758c0.88582,-2.06682 2.10594,-4.02366 2.94715,-6.14098c1.12403,-2.82918 1.41929,-5.84241 2.66803,-8.67836c0.2009,-0.35287 0.35134,-0.72118 0.46378,-1.10085zM390.9977,170.09497c0.76339,-3.34314 2.10159,-6.50078 2.84974,-9.82813c-0.45252,0.85147 -0.98923,1.91891 -1.04536,2.0471c-0.5666,1.294 -1.53925,2.81209 -1.78215,4.22933c-0.20321,1.18569 -0.13065,2.37306 -0.02223,3.5517zM379.63642,81.26643c0.62605,-2.26311 0.45462,-4.92359 0.53446,-7.2682c0.05285,-1.5518 -0.05379,-3.22588 0.16705,-4.76227c0.04078,-0.28374 0.79353,-2.65448 0.51277,-3.16984c-0.84123,-1.54407 -3.68094,-2.46077 -4.97775,-3.83626c-2.14929,-2.27969 -4.43473,-4.63504 -6.83703,-6.83335c0.86187,1.12561 1.81177,2.22297 2.49663,3.43985c1.65923,2.94818 3.37043,6.14843 4.73548,9.25291c0.88124,2.00414 0.86162,4.73584 1.50073,6.90443c0.39314,2.4089 0.91959,4.88051 1.54203,7.33105c0.11644,-0.35102 0.22737,-0.70317 0.32562,-1.05833z"/><path d="M371.12871,124.05281c0.99942,0.03403 0.96539,1.03346 0.96539,1.03346l-0.02269,0.66628c-0.16599,4.87427 -0.12894,9.54628 -1.1489,14.17325c0.37329,1.09343 0.59328,2.16652 0.51461,3.19211c1.65173,2.56361 1.17032,6.07029 1.07061,8.9981l-0.01134,0.33314c0,0 -0.03403,0.99942 -1.03346,0.96539c-0.99942,-0.03403 -0.96538,-1.03346 -0.96538,-1.03346l0.01134,-0.33314c0.09686,-2.84429 0.50486,-5.88558 -1.00458,-8.41595c0.00018,-0.05001 -0.00014,-0.10001 -0.001,-0.14996c-0.62541,0.97932 -1.29407,1.95493 -1.48505,2.97141c-0.69272,3.68681 1.0791,6.88903 1.31769,10.4352c0.25216,3.74801 -0.25435,7.68887 -0.3824,11.44914c-0.17773,5.20017 2.33212,10.44955 2.79486,15.64867c0.31254,3.51164 -0.7545,6.59614 -1.34345,9.90904c-0.34565,1.94431 -0.52791,3.39701 -1.72114,5.08484c-2.29804,2.06927 -1.62358,5.36587 -1.72391,8.31216c-0.035,1.02784 -0.21729,2.06258 -0.43926,3.09907c-0.07124,1.9822 -0.18355,4.97283 0.66718,6.80841c0.62086,1.33961 1.42985,1.78393 2.3997,2.83545c1.39443,1.51188 1.84505,3.94948 2.05986,5.93391c0.24583,2.27082 -1.51071,8.49392 -4.60211,4.96984c-0.4711,-0.53705 -0.51248,-1.33373 -0.76872,-2.00059c-0.96282,-3.85264 -2.24708,-7.74823 -2.65193,-11.63162c-0.24116,-2.31333 0.41622,-4.59164 0.89429,-6.88033c0.00228,-0.07262 0.0046,-0.1444 0.00691,-0.21529c0.092,-2.15937 -0.60873,-4.42902 -0.77101,-6.59819c-0.59178,-7.90974 1.77994,-15.87295 4.16049,-23.24513c0,0 0.26203,-0.81146 1.05148,-0.69377c-0.89528,-3.79701 -2.14132,-7.59631 -2.01208,-11.40455c0.12535,-3.68083 0.62355,-7.53578 0.38905,-11.2044c-0.2372,-3.71088 -2.10338,-7.13348 -1.28764,-10.99923c0.38841,-1.84065 1.88033,-3.2691 2.53317,-5.03611c0.08172,-0.28141 0.15837,-0.56329 0.2303,-0.84564c-0.97682,-2.70099 -2.71472,-5.36716 -3.27985,-8.11602c-1.02105,-4.96648 1.09247,-10.80871 3.62109,-14.91594c0,0 0.52541,-0.85084 1.37626,-0.32544c0.85085,0.5254 0.32545,1.37625 0.32545,1.37625c-2.26073,3.64935 -4.33298,9.09063 -3.3511,13.52992c0.34367,1.55382 1.17482,3.21797 1.98574,4.89755c0.48051,-3.57305 0.4485,-7.22064 0.57537,-10.94616l0.02269,-0.66628c0,0 0.03403,-0.99942 1.03345,-0.96539zM369.46899,182.06925c-1.81829,5.67975 -3.58475,11.71844 -3.79305,17.77389c0.32625,-0.77579 0.80453,-1.50775 1.50525,-2.18268c1.35109,-1.84314 1.13261,-4.05246 1.66285,-6.13982c0.61168,-2.40795 1.14892,-4.79472 0.91219,-7.35751c-0.06447,-0.69795 -0.1638,-1.39589 -0.28724,-2.09386zM365.86525,218.86266c0.54396,3.16746 1.54017,6.33691 2.32472,9.49376c1.40021,4.27845 1.43254,-3.65576 0.94624,-5.35764c-0.47348,-1.65698 -2.21406,-2.69444 -3.27096,-4.13612z"/></g><path d="M279.63775,128.31519c-0.73076,0.68264 -1.41339,-0.04813 -1.41339,-0.04813l-0.54993,-0.74336c-0.14824,-0.50508 -0.30403,-1.00367 -0.46546,-1.49702c-0.25231,0.32892 -0.49879,0.66881 -0.73559,1.02346c-0.3839,0.57496 -0.7657,1.24899 -1.17462,1.91978c4.22483,8.20342 5.35918,17.1691 5.04671,26.34457c-0.16839,4.13325 -2.37892,8.78976 -4.28647,12.90726c0.09176,0.40724 0.14462,0.83368 0.13409,1.29298c-0.12854,3.49159 -1.08213,6.74524 -2.10602,9.98218c0.02694,0.81706 0.04422,1.59231 0.02056,2.28728c-0.15878,4.66244 1.78239,8.67367 2.20799,13.294c0.16298,1.76929 -0.00732,3.59006 0.15344,5.36531c0.22754,2.51257 0.57683,5.27634 -0.29745,7.7058c-0.87931,3.00593 -1.06564,6.24015 -2.7055,9.07294c-0.11709,0.20228 -0.24,0.40557 -0.36779,0.60979c0.12322,3.06551 -1.16451,6.32062 -3.03477,8.75137c-0.33651,0.43736 -0.70001,0.82164 -1.07182,1.18622c0.22922,1.85155 0.68023,4.48856 -0.06308,5.91772c-0.64026,1.23102 -1.67306,1.89008 -2.81919,2.34721c-0.00919,2.5125 -0.02372,5.01919 -0.10853,7.50951l-0.03403,0.99942c0,0 -0.03403,0.99942 -1.03345,0.96539c-0.99942,-0.03403 -0.96539,-1.03346 -0.96539,-1.03346l0.03403,-0.99942c0.07672,-2.25294 0.09593,-4.52008 0.10569,-6.79297c-0.07597,0.02226 -0.15175,0.04453 -0.22728,0.06695l-1.01077,0.2991c0,0 -0.95889,0.28376 -1.24265,-0.67515c-0.28376,-0.95889 0.67515,-1.24265 0.67515,-1.24265l0.02889,-0.00855c0.05826,-0.15719 0.13115,-0.25885 0.13115,-0.25885c0.89556,-1.13258 1.09506,-2.81348 1.68337,-4.27563c0.01579,-1.14998 0.04013,-2.2995 0.07923,-3.44749c0,0 0.03403,-0.99942 1.03346,-0.96538c0.44506,0.01516 0.68518,0.22176 0.81463,0.44629l-0.2983,-0.16343l-0.47697,0.06911c0.03565,-0.09013 0.07237,-0.18016 0.11011,-0.2701l-0.14947,-0.08188c0,0 0.02347,-0.68913 0.60366,-0.90342c0.29049,-0.58065 0.61749,-1.15779 0.96881,-1.73221c0.05321,-3.54053 0.42858,-7.15522 0.54702,-10.63325c0,0 0.03403,-0.99942 1.03346,-0.96538c0.99942,0.03403 0.96539,1.03345 0.96539,1.03345c-0.08262,2.42605 -0.30079,4.92791 -0.43963,7.42226c0.7097,-1.00782 1.42528,-2.01165 2.07815,-3.01595c-0.14349,-1.14938 -0.54062,-2.26654 -1.2457,-3.29585c-0.57058,-2.51193 -0.40038,-5.03161 -1.12595,-7.49331l-0.02806,-0.64711c0,0 0.03403,-0.99942 1.03346,-0.96539c0.99942,0.03403 0.96538,1.03346 0.96538,1.03346l-0.05075,0.01917c0.69404,2.40258 0.55934,4.82535 1.04,7.25561c0.3398,0.47641 0.61675,0.97745 0.83603,1.49679c0.94613,-2.333 1.15952,-4.87256 1.83191,-7.25915c0.82437,-2.13267 0.40227,-4.73788 0.20173,-6.95237c-0.1594,-1.7602 0.00562,-3.5645 -0.14981,-5.31787c-0.3097,-3.49391 -1.46714,-6.62355 -1.97859,-9.95557c-0.16094,0.63085 -0.30802,1.26591 -0.43594,1.90673c-0.80269,4.02125 -0.97686,8.42773 -3.04837,12.25998c-1.22783,2.95026 -0.9272,6.92161 -1.03613,10.12046l-0.01134,0.33314c0,0 -0.03403,0.99942 -1.03346,0.96539c-0.99942,-0.03403 -0.96539,-1.03346 -0.96539,-1.03346l0.01135,-0.33314c0.12101,-3.55343 -0.07058,-7.59136 1.22522,-10.90372c2.00639,-3.67324 2.11181,-7.94173 2.896,-11.79602c0.52126,-2.56195 1.36152,-5.03318 2.1584,-7.51407c-0.06554,-3.00001 -0.22862,-6.40731 0.78502,-8.91536c0.35102,-0.86854 0.70381,-1.73219 1.05368,-2.59507c-0.37585,-1.1725 -1.053,-2.28677 -1.22636,-3.57392c-0.47707,-3.54202 -0.10264,-7.17277 -0.30918,-10.74506c-0.15053,-2.60356 -1.13218,-5.22972 -1.07313,-7.80625c0,0 0.03403,-0.99942 1.03345,-0.96538c0.99942,0.03403 0.96539,1.03345 0.96539,1.03345c-0.12127,2.45211 0.93114,5.10925 1.07012,7.60896c0.19652,3.53466 -0.15289,7.11948 0.2973,10.62129c0.05562,0.43266 0.15734,0.83729 0.28255,1.22646c0.67958,-1.73347 1.32856,-3.48033 1.90927,-5.27362c0.52198,-1.61194 1.40928,-2.94571 1.45336,-4.67365c0.28915,-8.49075 -0.67134,-16.77051 -4.35336,-24.41283c-0.70249,0.81222 -1.51957,1.41213 -2.53741,1.49836c0,0 -0.99942,-0.03403 -0.96539,-1.03345c0.03403,-0.99942 1.03346,-0.96539 1.03346,-0.96539c0.20571,0.10209 2.16677,-2.19783 2.59519,-2.79711c0.73134,-1.02299 1.62603,-2.08182 2.51659,-3.18328c-1.78752,-5.02232 -3.95359,-9.63174 -4.38336,-15.23c0,0 -0.07654,-0.99707 0.92052,-1.07362c0.99706,-0.07654 1.07361,0.92052 1.07361,0.92052c0.3809,4.96186 2.17089,9.13592 3.81976,13.53582c1.40015,-1.9266 2.5316,-3.98337 2.60717,-6.2024l0.01135,-0.33314c0,0 0.03403,-0.99942 1.03346,-0.96538c0.99942,0.03403 0.96538,1.03345 0.96538,1.03345l-0.01134,0.33314c-0.11957,3.51107 -2.00283,5.57967 -3.9755,7.85835c0.31617,0.89205 0.61875,1.79828 0.89547,2.72673l0.09367,-0.05439c0,0 0.68263,0.73076 -0.04813,1.41339zM267.10803,232.85952c0.4032,-0.68108 0.30464,-2.06789 0.13137,-3.37609c-0.33445,0.36719 -0.64965,0.76435 -0.92949,1.22029c-0.05967,0.09722 -0.11618,0.19513 -0.16987,0.29364c-0.01176,0.95479 -0.01804,1.90975 -0.0224,2.86433c0.38864,-0.24346 0.73003,-0.56234 0.9904,-1.00215zM270.56728,221.44935c-0.60963,0.83926 -1.21261,1.68386 -1.75159,2.52758c-0.00163,0.30757 -0.00042,0.6144 0.00404,0.92033c0.75047,-1.07019 1.35399,-2.24099 1.74755,-3.44791zM266.07296,226.62166c0.16122,0.27967 0.15076,0.58716 0.15076,0.58716c-0.00582,0.17102 -0.01132,0.34208 -0.01652,0.51316c0.22466,-0.22109 0.45283,-0.43691 0.68036,-0.65404z" fill="#000000" stroke="none" stroke-width="0.5" stroke-linecap="butt"/><path d="M267.35807,86.16572c-0.99942,-0.03403 -0.96538,-1.03345 -0.96538,-1.03345l0.08474,-0.98058c0.4598,-1.18461 0.37711,-2.36231 0.69391,-3.57445c-1.45428,2.70282 -4.14546,4.53032 -5.59542,7.37562c-0.57371,1.12581 0.11055,4.11741 0.20017,5.25261c0.20772,2.63084 0.22923,5.65722 1.01056,8.16391c0,0 0.28376,0.95889 -0.67514,1.24265c-0.95889,0.28376 -1.24266,-0.67514 -1.24266,-0.67514c-0.05484,-0.19284 -0.10627,-0.38761 -0.15456,-0.58405c-4.47181,7.41337 -7.81325,16.39626 -8.07213,25.08451c-2.1941,10.8728 0.51571,21.80771 0.22705,32.6086c-0.14541,4.27007 0.46127,9.63027 -1.19404,13.64976c-1.7349,4.21274 -5.9019,8.21807 -6.05151,12.88642c-0.40214,1.70644 -0.17492,3.365 -0.51345,5.04709c-1.11044,5.5174 -3.41639,10.82136 -2.89554,16.62871c0.11924,1.32954 1.07335,2.11703 1.44588,3.37591c0.80608,1.15465 2.54706,3.27542 2.91611,4.60958c1.84657,6.67536 0.32689,13.52262 -0.01166,20.40479c1.08081,2.2357 2.87019,4.20715 3.38489,6.6109l0.55494,0.86924c0,0 0.52606,0.85045 -0.32438,1.37651c-0.85045,0.52606 -1.37651,-0.32439 -1.37651,-0.32439l-0.70955,-1.17498c-0.53174,-2.48336 -2.43925,-4.58295 -3.49039,-6.9643c0.15548,-7.05196 1.46391,-13.43042 0.03987,-20.28369c-0.20991,-1.01021 -2.15082,-3.34724 -2.78544,-4.25628c-0.45501,-1.53761 -1.43327,-2.39264 -1.63593,-4.06662c-0.71798,-5.93043 1.78661,-11.5737 2.9256,-17.19276c0.33001,-1.62806 0.1014,-3.26194 0.49318,-4.92443c0.17722,-4.92416 4.34112,-8.96546 6.18285,-13.37906c1.56305,-3.74579 0.91061,-8.97747 1.04611,-12.95609c0.3589,-10.85869 -2.42422,-21.83495 -0.21447,-32.77764c0.35031,-9.22123 3.88566,-18.66745 8.70083,-26.46619c0,0 0.35543,-0.57558 0.95502,-0.48761c-0.28589,-1.95498 -0.37941,-3.98866 -0.53005,-5.8978c-0.12577,-1.59397 -0.78042,-4.52336 -0.08037,-6.09685c1.5799,-3.55114 5.28734,-5.49697 6.35134,-9.21083c2.0586,-2.87114 3.47938,-7.99244 3.89432,-11.53736c0.30544,-2.60943 -0.20712,-5.97964 1.1071,-8.28203c0.17614,-0.30858 0.38572,-0.58672 0.62215,-0.83866c0.20507,-1.50004 0.59401,-2.95202 1.33318,-4.2998c3.40951,-3.21406 7.64497,-5.94711 12.0002,-7.59017c1.51609,-0.57196 3.49864,-1.60391 4.67432,0.77517c0.52874,1.06996 -1.44741,2.21728 -1.90744,2.81803c-1.53996,2.01103 -2.55046,4.71276 -4.82942,6.10511c-1.12722,0.68868 -2.98364,0.91081 -4.25578,1.28727c-1.19758,0.34192 -3.85377,0.77598 -5.18442,1.83009c-0.21389,2.23505 -0.02076,4.61249 -0.0923,6.71325c-0.04531,1.3304 0.24482,3.34956 -0.20023,4.61898c-0.26146,0.74577 -0.94507,1.34683 -1.03773,2.13165c-0.39369,3.33398 -1.06081,6.45528 -3.07637,9.21781c-0.47808,1.26578 -0.27787,2.5464 -0.74789,3.85365l0.03936,0.35199c0,0 -0.03403,0.99942 -1.03346,0.96538zM273.95575,55.87645c1.38223,-0.60009 2.93137,-0.93538 4.16786,-1.31133c1.87147,-0.55381 4.43562,-0.84088 5.54081,-2.69033c0.235,-0.39326 0.12249,-0.94131 0.37852,-1.32121c0.64126,-0.95152 1.45264,-1.77706 2.15166,-2.68701c0.2997,-0.39014 0.66683,-0.73576 1.07301,-1.01334c0.13483,-0.09216 0.64786,-0.02405 0.48709,-0.05285c-1.14618,-0.20529 -2.37075,0.79087 -3.3711,1.17988c-3.45606,1.34397 -7.01959,3.77117 -9.7926,6.33121c-0.2657,0.49573 -0.47336,1.01995 -0.63525,1.56498zM267.59576,79.66941c0.44576,-0.68734 0.80599,-1.39982 1.10991,-2.12899c-0.27113,0.49916 -0.55575,0.96162 -0.85274,1.37583c-0.07429,0.2593 -0.1605,0.50999 -0.25718,0.75315z" fill="#000000" stroke="none" stroke-width="0.5" stroke-linecap="butt"/><path d="M338.96371,49.58161c28.04236,-22.99926 47.06898,36.24003 51.86632,81.93773c2.55054,24.29548 10.79132,110.50167 -7.09596,116.33753c-0.46714,0.15241 0.72474,-17.28766 0.72474,-17.28766c0,0 -5.52257,17.27021 -5.96824,17.22252c-19.03575,-2.03653 -10.776,-113.27353 -10.75783,-113.80707c1.28054,-37.6026 -37.23629,-77.45851 -28.76903,-84.40305z" fill="#000000" stroke="none" stroke-width="0" stroke-linecap="butt"/><path d="M276.40036,130.37409c-0.01817,0.53354 0.65497,112.07475 -18.47522,112.81155c-0.44788,0.01726 -4.78277,-17.58864 -4.78277,-17.58864c0,0 0.00268,17.48076 -0.45302,17.29691c-17.44882,-7.03921 -3.36252,-92.48505 0.83493,-116.55075c7.89504,-45.26547 30.90763,-103.07313 57.32039,-78.21943c7.97522,7.50446 -33.16379,44.64774 -34.44433,82.25035z" fill="#000000" stroke="none" stroke-width="0" stroke-linecap="butt"/><path d="M351.91671,47.2979c4.21526,3.45707 5.82245,8.46649 3.58977,11.18884c-2.23269,2.72236 -17.49752,-9.79679 -15.26482,-12.51915c2.2327,-2.72236 7.45979,-2.12675 11.67506,1.33032z" fill="#dddd61" stroke="#959541" stroke-width="2" stroke-linecap="butt"/><path d="M310.38022,45.45095c2.04232,2.86794 -14.03881,14.31963 -16.08113,11.45169c-2.04231,-2.86794 -0.09806,-7.75641 4.34262,-10.9187c4.44068,-3.16229 9.69619,-3.40093 11.7385,-0.53299z" fill="#dddd61" stroke="#959541" stroke-width="2" stroke-linecap="butt"/><path d="M280.31969,288.29141c0,0 1.38862,-93.71045 1.23063,-117.33859c-0.05451,-8.15261 8.18688,-36.76129 40.20201,-36.9211c31.60235,-0.15775 39.85672,29.48704 39.84884,36.89673c-0.00476,2.87381 -2.64736,3.5078 -3.15444,4.79788c-2.39102,6.08319 -6.84677,-1.55837 -6.84677,-1.55837c0,0 0.07549,-3.0993 -2.81625,-3.15415c-3.43441,-0.06514 -2.94538,3.11562 -2.94538,3.11562c0,0 -1.41774,6.62742 -1.40704,12.60501c0.03126,17.47439 1.61253,102.26494 1.61253,102.26494l-48.21366,0.07222c0,0 2.78885,-79.9626 2.73825,-99.05283c-0.02066,-7.79469 -2.04364,-17.89455 -2.04364,-17.89455c0,0 -0.72051,-1.20471 -3.8856,-1.22015c-3.11083,-0.01515 -2.81569,2.90899 -2.81569,2.90899l-1.91403,114.55551z" fill="url(#color-1)" stroke="#000000" stroke-width="2" stroke-linecap="butt"/><path d="M346.75877,141.01796c0,0 3.6988,-0.70081 9.5,6c1.53533,1.77343 4.54277,3.00216 6.36807,13.19134c-0.7683,1.42802 -1.44263,2.96655 -1.66764,4.25725c-0.27015,1.54961 0.32994,4.2574 -0.32478,5.61656c-0.59067,1.22619 -2.04865,1.06047 -3.05879,0.77042c-2.11617,3.43418 -0.23368,13.56961 -7.18851,10.96454c-1.06168,-0.39767 -1.82747,-0.9355 -2.73752,-1.60582c-0.53936,-0.18286 -1.99193,-1.06278 -2.5446,-1.05668c-1.53161,0.01691 -2.36153,1.37756 -3.37427,2.22857c-0.21436,0.18013 -0.42752,0.36735 -0.64018,0.55951c2.38823,-20.39233 5.66823,-40.92569 5.66823,-40.92569z" fill="#000000" stroke="none" stroke-width="0" stroke-linecap="butt"/><path d="M284.02779,80.69793c0.2552,-1.39302 6.14721,-18.07727 6.22322,-18.00218c0.77758,0.76824 8.9795,-18.73988 31.53157,-20.05537c38.702,-2.25757 38.60009,38.04074 39.67798,41.31136c3.12853,9.49282 2.8652,15.45312 1.59019,14.32861c-1.1892,-1.04881 -3.69216,-3.27341 -3.69216,-3.27341c0,0 2.73712,10.44731 0.60581,20.72761c-1.88408,9.42231 -7.87986,16.96707 -7.87986,16.96707l-1.07466,-2.38531c0,0 -1.09687,2.16186 -2.27223,3.25729c-1.17536,1.09542 -3.53587,2.79401 -3.53587,2.79401l0.03407,-3.7052c0,0 -7.431,10.77128 -24.70656,10.03647c-16.28811,-0.8103 -25.69308,-11.55635 -25.69308,-11.55635l-0.20649,2.64935c0,0 -3.78045,-3.42341 -5.84748,-9.9123c-2.46365,-7.734 -2.82089,-12.3464 -2.82089,-12.3464l-4.25947,-5.17542c0,0 -3.18772,-2.99863 -0.93443,-8.76229c2.12746,-5.44182 2.47143,-10.8795 2.47143,-10.8795c0,0 -1.38337,0.6149 -3.35526,0.68133c-1.24785,0.04204 3.98657,-5.83908 4.14417,-6.69933z" fill="#000000" stroke="none" stroke-width="1.5" stroke-linecap="butt"/><path d="M277.50881,87.26747h0.00001c0,0.00001 -0.00002,0.00001 -0.00002,0.00001z" fill="#000000" stroke="none" stroke-width="1.5" stroke-linecap="butt"/><path d="M295.18564,105.37688c0,0 -3.46229,-3.04298 -4.02804,-8.59268c-0.31561,-3.09581 2.23311,-2.20543 2.23311,-2.20543" fill="none" stroke="#000000" stroke-width="0.25" stroke-linecap="round"/><path d="M349.81665,100.56974c1.23229,-5.94027 2.08346,-8.54888 4.01484,-8.22381c1.93137,0.32506 1.63084,4.30709 0.13978,10.00248c-1.41711,5.41288 -6.46606,8.76002 -6.46606,8.76002c0,0 1.07916,-4.59843 2.31145,-10.5387z" fill="#ffffff" stroke="#000000" stroke-width="1" stroke-linecap="butt"/><path d="M279.59828,135.12088l0.12681,-70.66655l85.99986,0.15432l-0.1268,70.66656z" fill="#000000" stroke="#000000" stroke-width="1.4" stroke-linecap="butt"/><path d="M285.14925,130.68323l-0.34306,-62.25363c0,0 32.62447,0.99541 33.97074,0.75086l0.03008,-0.00645c0,0 0.12531,-0.02683 0.23547,-0.11676l41.28888,0.0741l-0.1107,61.6866z" fill="#ffffff" stroke="#000000" stroke-width="1.4" stroke-linecap="butt"/><g fill="#000000" stroke="none" stroke-width="0" stroke-linecap="butt"><path d="M291.29342,93.88763c0,0 4.77534,-9.24835 12.64809,-8.98025c7.87275,0.2681 11.87475,9.19825 11.87475,9.19825c0,0 -7.0018,-5.02107 -12.01119,-5.19166c-4.6759,-0.15924 -12.51165,4.97366 -12.51165,4.97366z"/><path d="M292.07277,84.41705l5.61772,2.65975l-2.52857,1.76523z"/><path d="M290.43404,86.47914l5.61773,2.65977l-2.52858,1.76522z"/></g><g fill="#000000" stroke="none" stroke-width="0" stroke-linecap="butt"><path d="M341.249,89.64943c-5.00938,-0.17059 -12.33655,4.3625 -12.33655,4.3625c0,0 4.60025,-8.6372 12.473,-8.3691c7.87275,0.2681 12.00786,9.81989 12.00786,9.81989c0,0 -7.4684,-5.65407 -12.1443,-5.81331z"/><path d="M349.87701,90.16567l-2.40263,-1.93317l5.78566,-2.27142z"/><path d="M351.37166,92.33446l-2.40262,-1.93316l5.78565,-2.27143z"/></g><path d="M340.92397,105.6728c0,0 -6.31044,15.74387 -20.29193,14.96935c-14.11516,-0.78193 -18.61598,-15.98885 -18.61598,-15.98885c0,0 6.40061,3.94614 19.29463,3.90558c13.27433,-0.04176 19.61328,-2.88608 19.61328,-2.88608z" fill="#ffffff" stroke="#000000" stroke-width="1.5" stroke-linecap="butt"/><path d="M278.01022,206.30483c0,0 -0.4038,-24.21026 3.0462,-42.95382c1.8716,-10.16823 8.57404,-18.97943 9.37298,-19.76523c4.32612,-4.25495 12.72367,-5.42381 12.72367,-5.42381l-3.73395,38.57361c0,0 -4.96003,-8.19201 -5.69463,-4.71646c-0.7346,3.47555 0,34.42857 0,34.42857z" fill="#dddd61" stroke="#6e6e30" stroke-width="2" stroke-linecap="butt"/><path d="M295.43879,289.73339l3.57143,-105.57142l2.85714,-45.71428c0,0 12.26204,5.14286 20.85715,5.14286c8.54748,0 20.42857,-4.71429 20.42857,-4.71429l1.71429,45.14286l5.42857,105.85714z" fill="#dddd61" stroke="#6e6e30" stroke-width="2" stroke-linecap="butt"/><path d="M301.94076,137.54387c0.40617,-1.58777 14.21,4.97525 21.9266,4.97525c7.68326,0 18.6621,-6.57725 19.31037,-4.84853c0.71445,1.90521 -4.82037,7.40446 -18.80439,8.01856c-16.13709,0.70865 -22.70235,-7.09073 -22.43258,-8.14527z" fill="#dddd61" stroke="#6e6e30" stroke-width="2" stroke-linecap="butt"/><path d="M311.90551,90.73644c-0.03535,2.38877 -2.15424,4.22709 -4.73269,4.10602c-2.57845,-0.12107 -4.64007,-2.15569 -4.60472,-4.54446c0.03535,-2.38877 2.15424,-4.2271 4.73269,-4.10603c2.57845,0.12107 4.64007,2.1557 4.60472,4.54447z" fill="#000000" stroke="none" stroke-width="0" stroke-linecap="butt"/><path d="M293.7245,168.9834l3.28572,-26.57143l4.2977,-2.99759l11.41659,9.56902l-12.14285,28.57143c0,0 0.08989,-2.52699 -1.77339,-4.07155c-1.74846,-1.44938 -5.08375,-4.49988 -5.08375,-4.49988z" fill="#dddd61" stroke="none" stroke-width="0" stroke-linecap="butt"/><path d="M341.4745,162.61435c0,6.44332 -8.5439,11.66667 -19.08334,11.66667c-10.53943,0 -19.08333,-5.22335 -19.08333,-11.66667c0,-6.44332 8.54389,-11.66666 19.08333,-11.66666c10.53943,0 19.08334,5.22334 19.08334,11.66666z" fill="#ffff6e" stroke="none" stroke-width="0" stroke-linecap="butt"/><path d="M365.58165,163.34054c0,12.11082 -6.52385,21.92857 -14.57143,21.92857c-8.04758,0 -10,-10.10347 -10,-22.21428c0,-11.92241 2.62305,-24.49555 2.85715,-24.5c8.04613,-0.15277 21.71429,12.67489 21.71429,24.78571z" fill="#ffffff" stroke="#000000" stroke-width="1.5" stroke-linecap="butt"/><path d="M354.58165,143.55483c0,0 -2.58364,6.56445 -4.65456,9.65865c-1.97184,2.94617 -8.63116,7.62706 -8.63116,7.62706" fill="none" stroke="#000000" stroke-width="1.5" stroke-linecap="round"/><path d="M349.86735,140.9834c0,0 -1.95281,4.46006 -3.30036,6.28043c-1.36647,1.84594 -4.84249,4.71957 -4.84249,4.71957" fill="none" stroke="#000000" stroke-width="1.5" stroke-linecap="round"/><path d="M358.58165,148.55483c0,0 -4.15507,9.70731 -6.22599,12.8015c-1.97184,2.94617 -10.63116,7.91278 -10.63116,7.91278" fill="none" stroke="#000000" stroke-width="1.5" stroke-linecap="round"/><path d="M362.58165,153.9834c0,0 -5.44078,12.27874 -7.5117,15.37293c-1.97184,2.94617 -11.91688,9.48421 -11.91688,9.48421" fill="none" stroke="#000000" stroke-width="1.5" stroke-linecap="round"/><path d="M365.43879,159.9834c0,0 -4.29793,11.27874 -6.36885,14.37293c-1.97184,2.94617 -11.63116,10.19849 -11.63116,10.19849" fill="none" stroke="#000000" stroke-width="1.5" stroke-linecap="round"/><path d="M305.39117,157.94768c0,1.25798 -1.39289,2.27778 -3.11111,2.27778c-1.71822,0 -3.11111,-1.0198 -3.11111,-2.27778c0,-1.25798 1.39289,-2.27778 3.11111,-2.27778c1.71822,0 3.11111,1.0198 3.11111,2.27778z" fill="#ffff6e" stroke="none" stroke-width="0" stroke-linecap="butt"/><path d="M318.50228,173.94768c0,1.07388 -1.09441,1.94445 -2.44445,1.94445c-1.35003,0 -2.44445,-0.87056 -2.44445,-1.94445c0,-1.07388 1.09441,-1.94445 2.44445,-1.94445c1.35003,0 2.44445,0.87056 2.44445,1.94445z" fill="#ffff6e" stroke="none" stroke-width="0" stroke-linecap="butt"/><path d="M303.05784,166.00324c0,0.55229 -0.44771,1 -1,1c-0.55229,0 -1,-0.44771 -1,-1c0,-0.55229 0.44771,-1 1,-1c0.55229,0 1,0.44771 1,1z" fill="#ffff6e" stroke="none" stroke-width="0" stroke-linecap="butt"/><path d="M309.50228,171.28102c0,1.25798 -1.11929,2.27777 -2.5,2.27777c-1.38071,0 -2.5,-1.01979 -2.5,-2.27777c0,-1.25798 1.11929,-2.27778 2.5,-2.27778c1.38071,0 2.5,1.0198 2.5,2.27778z" fill="#ffff6e" stroke="none" stroke-width="0" stroke-linecap="butt"/><path d="M315.28006,152.22546c0,2.14777 -1.98985,3.88888 -4.44445,3.88888c-2.4546,0 -4.44445,-1.74111 -4.44445,-3.88888c0,-2.14777 1.98985,-3.88889 4.44445,-3.88889c2.4546,0 4.44445,1.74112 4.44445,3.88889z" fill="#ffff6e" stroke="none" stroke-width="0" stroke-linecap="butt"/><path d="M304.94672,154.00323c0,0.55229 -0.44771,1 -1,1c-0.55229,0 -1,-0.44771 -1,-1c0,-0.55229 0.44771,-1 1,-1c0.55229,0 1,0.44771 1,1z" fill="#ffff6e" stroke="none" stroke-width="0" stroke-linecap="butt"/><path d="M336.50228,153.72546c0,1.933 -1.81574,3.5 -4.05556,3.5c-2.23982,0 -4.05555,-1.567 -4.05555,-3.5c0,-1.933 1.81573,-3.5 4.05555,-3.5c2.23982,0 4.05556,1.567 4.05556,3.5z" fill="#ffff6e" stroke="none" stroke-width="0" stroke-linecap="butt"/><path d="M336.83561,171.33657c0,2.4546 -2.61167,4.44445 -5.83333,4.44445c-3.22166,0 -5.83334,-1.98985 -5.83334,-4.44445c0,-2.4546 2.61167,-4.44445 5.83334,-4.44445c3.22166,0 5.83333,1.98985 5.83333,4.44445z" fill="#ffff6e" stroke="none" stroke-width="0" stroke-linecap="butt"/><path d="M326.7245,176.61435c0,0.82843 -0.6467,1.5 -1.44445,1.5c-0.79774,0 -1.44445,-0.67157 -1.44445,-1.5c0,-0.82843 0.6467,-1.5 1.44445,-1.5c0.79774,0 1.44445,0.67157 1.44445,1.5z" fill="#ffff6e" stroke="none" stroke-width="0" stroke-linecap="butt"/><path d="M330.05784,177.6699c0,0.42955 -0.39797,0.77778 -0.88889,0.77778c-0.49092,0 -0.88889,-0.34823 -0.88889,-0.77778c0,-0.42955 0.39797,-0.77777 0.88889,-0.77777c0.49092,0 0.88889,0.34822 0.88889,0.77777z" fill="#ffff6e" stroke="none" stroke-width="0" stroke-linecap="butt"/><path d="M340.05784,171.00324c0,0.61365 -0.44772,1.11111 -1,1.11111c-0.55228,0 -1,-0.49746 -1,-1.11111c0,-0.61365 0.44772,-1.11111 1,-1.11111c0.55228,0 1,0.49746 1,1.11111z" fill="#ffff6e" stroke="none" stroke-width="0" stroke-linecap="butt"/><path d="M340.83561,175.28102c0,0.95116 -0.82081,1.72222 -1.83333,1.72222c-1.01252,0 -1.83333,-0.77106 -1.83333,-1.72222c0,-0.95115 0.82081,-1.72223 1.83333,-1.72223c1.01252,0 1.83333,0.77107 1.83333,1.72223z" fill="#ffff6e" stroke="none" stroke-width="0" stroke-linecap="butt"/><path d="M340.16895,152.50323c0,0.70569 -0.54721,1.27778 -1.22222,1.27778c-0.67501,0 -1.22222,-0.57209 -1.22222,-1.27778c0,-0.70569 0.54721,-1.27777 1.22222,-1.27777c0.67501,0 1.22222,0.57208 1.22222,1.27777z" fill="#ffff6e" stroke="none" stroke-width="0" stroke-linecap="butt"/><path d="M329.05784,149.11434c0,0.36819 -0.42284,0.66667 -0.94445,0.66667c-0.5216,0 -0.94445,-0.29848 -0.94445,-0.66667c0,-0.36819 0.42284,-0.66666 0.94445,-0.66666c0.5216,0 0.94445,0.29847 0.94445,0.66666z" fill="#ffff6e" stroke="none" stroke-width="0" stroke-linecap="butt"/><path d="M317.83561,149.00323c0,0.36819 -0.29847,0.66666 -0.66666,0.66666c-0.36819,0 -0.66666,-0.29847 -0.66666,-0.66666c0,-0.36819 0.29847,-0.66666 0.66666,-0.66666c0.36819,0 0.66666,0.29847 0.66666,0.66666z" fill="#ffff6e" stroke="none" stroke-width="0" stroke-linecap="butt"/><path d="M306.50228,149.05879c0,0.76706 -0.7462,1.38889 -1.66667,1.38889c-0.92048,0 -1.66666,-0.62183 -1.66666,-1.38889c0,-0.76706 0.74619,-1.38889 1.66666,-1.38889c0.92048,0 1.66667,0.62183 1.66667,1.38889z" fill="#ffff6e" stroke="none" stroke-width="0" stroke-linecap="butt"/><path d="M308.05784,163.94768c-0.5,0 -0.5,-0.5 -0.5,-0.5c0,-0.22222 0,-1.11112 0,-1.33334c0,-2.05144 0.55555,-3.94932 0.55555,-6c0,-0.15548 -0.0917,-0.93482 -0.03119,-1.43333c-0.24202,0.51897 -0.64253,1.35034 -0.69464,1.44704c-0.59552,1.10528 -0.88313,2.23262 -1.54276,3.17142l0.15902,0.12722l-0.44156,0.55195c-0.09154,0.11646 -0.2337,0.19125 -0.39332,0.19125c-0.24578,0 -0.45013,-0.17732 -0.49211,-0.41102l-0.10258,-0.51288c-0.17576,-0.44731 -0.34775,-1.49311 -0.42744,-2.04334c0.20938,2.42447 -1.48039,5.61509 -1.47788,8.13392c0,0 0,0.5 -0.5,0.5c-0.5,0 -0.5,-0.5 -0.5,-0.5c0.00242,-2.58256 0.80672,-4.93714 1.34077,-7.41923c0.08359,-0.38851 -0.06467,-2.09787 0.5699,-2.17043c1.03092,-0.1179 1.43154,1.27441 1.70313,2.33065c0.31056,-1.27953 1.4124,-2.93433 1.91573,-3.68664c0.20924,-0.31275 0.89911,-1.25492 1.31812,-1.09391c0.7085,0.27224 0.59518,1.49518 0.5968,2.03957c0.0069,2.32018 -0.55555,4.47916 -0.55555,6.77777c0,0.22222 0,0.44445 0,0.66667v0.66666c0,0 0,0.5 -0.5,0.5z" fill="#b5b54e" stroke="none" stroke-width="0.5" stroke-linecap="butt"/><path d="M312.02892,158.62115c0.49319,0.0822 0.411,0.57539 0.411,0.57539l-0.1228,0.7192c-0.4091,1.03606 -0.46407,3.24481 -1.45276,3.85328c-1.81356,1.11612 -2.08429,-2.35071 -2.08429,-3.21024c0,0 0,-0.5 0.5,-0.5c0.5,0 0.5,0.5 0.5,0.5c0,4.02783 0.80405,0.9832 1.57405,-0.91251l0.09942,-0.61414c0,0 0.0822,-0.49319 0.57539,-0.41099z" fill="#b5b54e" stroke="none" stroke-width="0.5" stroke-linecap="butt"/><path d="M320.85583,159.64968c0.35356,0.35356 0,0.70711 0,0.70711l-0.22222,0.22222c-0.29277,0.28468 -0.57771,0.45679 -0.8718,0.63412c0.05725,1.42668 0.10594,2.85379 0.34477,4.26346l0.0068,0.19331c0,0 0,0.5 -0.5,0.5c-0.5,0 -0.5,-0.5 -0.5,-0.5l0.0068,-0.02891c-0.03173,-0.19324 -0.06003,-0.3868 -0.08539,-0.58064c-0.65421,1.42557 -3.36136,0.54889 -4.42141,0.55399h-0.11111c0,0 -0.5,0 -0.5,-0.5c0,-0.5 0.5,-0.5 0.5,-0.5h0.11111c1.18133,0.00475 2.3309,0.09647 3.5083,0.07593c0.31966,-0.00557 -0.62852,-0.13778 -0.92172,-0.26524c-0.84643,-0.36798 -2.09062,-0.78887 -2.80088,-1.38099c-1.46854,-1.22427 -0.83098,-3.85422 1.10319,-3.98525c0,0 0.5,0 0.5,0.5c0,0.5 -0.5,0.5 -0.5,0.5c-0.96333,-0.15319 -1.21656,1.66822 -0.48412,2.19993c0.56197,0.40795 3.21368,1.13687 3.93001,2.02801c-0.08037,-0.84844 -0.11736,-1.70091 -0.15233,-2.55354c-0.11605,-0.00412 -0.24546,-0.05469 -0.36023,-0.20772c-0.3,-0.4 0.1,-0.7 0.1,-0.7c0.07223,-0.05339 0.14393,-0.10209 0.21505,-0.14771c-0.04992,-1.05394 -0.12287,-2.10568 -0.29713,-3.14787c0,0 -0.08219,-0.49319 0.411,-0.57539c0.49319,-0.0822 0.57539,0.41099 0.57539,0.41099c0.14896,0.89652 0.22212,1.79972 0.2704,2.70501c0.07326,-0.05957 0.14536,-0.12497 0.21618,-0.19858l0.22223,-0.22223c0,0 0.35355,-0.35356 0.70711,0z" fill="#b5b54e" stroke="none" stroke-width="0.5" stroke-linecap="butt"/><path d="M330.28283,159.22408c0.2236,0.44721 -0.2236,0.67082 -0.2236,0.67082l-0.09228,0.01745c-1.43291,1.42348 -2.14325,2.88146 -3.13515,4.43455l0.06167,0.02467l-0.36706,0.91766c-0.07091,0.1899 -0.25394,0.32511 -0.46856,0.32511c-0.25024,0 -0.45753,-0.18383 -0.49423,-0.4238c-0.03482,0.24734 -0.28217,0.37101 -0.28217,0.37101l-0.87096,-0.07292c-0.24337,-0.39312 -0.78082,-1.01099 -1.08936,-1.59174c-1.27124,3.66858 -4.7842,-3.50107 0.057,-2.60617c0,0 0.49029,0.09806 0.39223,0.58835c-0.03412,0.17063 -0.11576,0.27 -0.20769,0.32704l0.25726,0.42876l-0.08405,0.05043c0.49679,0.59489 0.88701,1.23668 1.30997,1.92741c0.14651,-0.01078 0.33652,0.03264 0.45922,0.27802c0.02622,0.05243 0.04321,0.10178 0.05279,0.14807c0,-1.07866 0,-2.7641 0,-3.81335c0,0 0,-0.5 0.5,-0.5c0.5,0 0.5,0.5 0.5,0.5c0,0.33059 0,0.66118 0,0.99177c0.68675,-1.17757 1.91037,-2.21436 2.702,-3.01199l0.35217,-0.20478c0,0 0.44721,-0.2236 0.67082,0.22361zM322.55784,162.33657v0c0,-0.02849 0.00238,-0.05644 0.00696,-0.08364c-1.38209,0.30249 -0.43098,3.16184 -0.00696,0.60826z" fill="#b5b54e" stroke="none" stroke-width="0.5" stroke-linecap="butt"/><path d="M333.97793,165.05782c-0.49902,0.0312 -0.53024,-0.46782 -0.53024,-0.46782l0.00758,-0.14663c-0.0782,-0.23936 -0.16535,-0.53357 -0.25415,-0.86664c-0.22515,0.4178 -0.52775,0.75994 -0.93121,0.99042c-1.85536,1.05986 -3.0305,-2.89696 0.23237,-2.9528c0,0 0.06479,0 0.14773,0.02332c0.02312,-0.12516 0.04263,-0.25241 0.05898,-0.38143c-0.21133,-1.34395 -0.29469,-2.75975 -0.0195,-3.7412c-0.00568,-0.13515 -0.01053,-0.26884 -0.01409,-0.4007h-0.00645v-1c0,-0.27614 0.22386,-0.5 0.5,-0.5c0.27614,0 0.5,0.22386 0.5,0.5v0.55555c0,0.92148 0.16212,2.35439 0.14118,3.76745c0.07474,1.25584 0.18922,2.50375 0.59384,3.68979l0.04179,0.40044c0,0 0.03121,0.49903 -0.46782,0.53023zM332.38583,162.62325c-0.45415,0.06116 -1.68055,0.43143 -1.08555,1.02643c0.46419,0.46419 0.86218,-0.37664 1.08555,-1.02643z" fill="#b5b54e" stroke="none" stroke-width="0.5" stroke-linecap="butt"/><path d="M322.43701,171.57184c0.09806,0.49029 -0.39223,0.58835 -0.39223,0.58835l-0.56347,0.11263c-0.23091,0.03849 -0.43127,0.07762 -0.61104,0.11212c-0.00141,0.44487 -0.22926,1.0056 -0.50238,1.55444c-3.95958,4.84763 -8.55196,-6.91927 -1.42117,-6.9917c0,0 0.5,0 0.5,0.5c0,0.5 -0.5,0.5 -0.5,0.5c-5.24446,-0.07121 -1.85522,8.59755 0.57883,5.45275c0.11707,-0.23261 0.42821,-0.70317 0.45225,-0.90547c-0.08745,-0.00234 -0.17446,-0.01073 -0.26359,-0.02651c-0.0187,0.00988 -0.03855,0.02089 -0.05959,0.03309l-0.01037,-0.04692c-0.01025,-0.00224 -0.02054,-0.00457 -0.03087,-0.00701v0.05563h-0.07778l-0.02028,0.1014l-0.54647,-0.10929c-0.23369,-0.04197 -0.41102,-0.24633 -0.41102,-0.49211c0,-0.27614 0.22386,-0.5 0.5,-0.5h0.55556v0.00092c0.12203,-0.00163 0.23358,0.0031 0.33531,0.01371c0.3669,-0.17469 0.9168,-0.15607 1.35233,-0.22866l0.54764,-0.10959c0,0 0.49029,-0.09806 0.58835,0.39223z" fill="#b5b54e" stroke="none" stroke-width="0.5" stroke-linecap="butt"/><path d="M329.65923,174.32352c-0.09806,0.49029 -0.58835,0.39223 -0.58835,0.39223l-0.64884,-0.13946c-0.26411,-0.17324 -0.52821,-0.34648 -0.79232,-0.51971c-0.29034,-0.28938 -0.71523,-0.66229 -0.90367,-1.04351c-0.0041,-0.00829 -0.00833,-0.01721 -0.01267,-0.02671c-0.15063,0.34975 -0.4652,0.71831 -0.58888,0.87244c-0.73857,0.92039 -2.83127,1.02977 -3.51732,-0.19452c-1.10628,-1.97421 2.08557,-2.70976 3.22843,-2.71659c0,0 0.46936,0 0.49858,0.45476c1.00671,-0.18778 1.36967,1.31851 1.92953,1.88079c0.18034,0.12306 0.36068,0.24612 0.54101,0.36918l0.46227,0.08276c0,0 0.49029,0.09806 0.39223,0.58835zM325.90846,171.94072c-0.04393,0.00696 -0.07285,0.00696 -0.07285,0.00696c-0.38925,-0.00273 -2.9096,0.20682 -2.32713,1.28341c0.9084,1.679 1.93531,-0.30712 2.39998,-1.29036z" fill="#b5b54e" stroke="none" stroke-width="0.5" stroke-linecap="butt"/><path d="M333.3259,173.68296c0.09806,0.49029 -0.39223,0.58835 -0.39223,0.58835l-0.51114,0.10009c-2.94598,1.17388 -3.30914,-3.70731 -3.30914,-5.8126c0,0 0,-0.5 0.5,-0.5c0.5,0 0.5,0.5 0.5,0.5c0,1.50353 0.13209,5.61388 2.02419,4.85406l0.59997,-0.12213c0,0 0.49029,-0.09806 0.58835,0.39223z" fill="#b5b54e" stroke="none" stroke-width="0.5" stroke-linecap="butt"/><path d="M349.50552,91.401c-0.03535,2.00267 -2.15424,3.54388 -4.73269,3.44237c-2.57845,-0.10151 -4.64006,-1.80727 -4.60472,-3.80994c0.03535,-2.00267 2.15423,-3.54387 4.73268,-3.44237c2.57845,0.10151 4.64007,1.80727 4.60473,3.80994z" fill="#000000" stroke="none" stroke-width="0" stroke-linecap="butt"/><path d="M336.9,112.16667c0,0 -8.03664,3.31853 -15.8,3c-10.00509,-0.41051 -15.6,-3.6 -15.6,-3.6" fill="none" stroke="#000000" stroke-width="1.5" stroke-linecap="round"/></g></g></svg>