<svg version="1.1" xmlns="http://www.w3.org/2000/svg" xmlns:xlink="http://www.w3.org/1999/xlink" width="551.53995" height="324.86544" viewBox="0,0,551.53995,324.86544"><defs><linearGradient x1="317.26639" y1="332.73598" x2="317.26639" y2="228.60085" gradientUnits="userSpaceOnUse" id="color-1"><stop offset="0" stop-color="#1f1f00" stop-opacity="0.48627"/><stop offset="1" stop-color="#1f1f00" stop-opacity="0"/></linearGradient><linearGradient x1="317.26639" y1="19.24585" x2="317.26639" y2="122.29624" gradientUnits="userSpaceOnUse" id="color-2"><stop offset="0" stop-color="#1f1f00" stop-opacity="0.64706"/><stop offset="1" stop-color="#1f1f00" stop-opacity="0"/></linearGradient><linearGradient x1="319.55351" y1="19.74811" x2="319.55351" y2="66.47335" gradientTransform="translate(-72.46182,-54.11662) scale(1.22094,0.98768)" gradientUnits="userSpaceOnUse" id="color-3"><stop offset="0" stop-color="#ffffff"/><stop offset="1" stop-color="#d9db56"/></linearGradient><linearGradient x1="386.45356" y1="84.54158" x2="386.45356" y2="122.7872" gradientTransform="translate(-280.83116,-136.62741) scale(1.54871,1.20665)" gradientUnits="userSpaceOnUse" id="color-4"><stop offset="0" stop-color="#ffffff"/><stop offset="1" stop-color="#d9db56"/></linearGradient><linearGradient x1="322.13085" y1="136.93548" x2="322.13085" y2="215.06448" gradientUnits="userSpaceOnUse" id="color-5"><stop offset="0" stop-color="#9b9b44"/><stop offset="1" stop-color="#6e6e30"/></linearGradient><linearGradient x1="405.77316" y1="245.29251" x2="405.77316" y2="276.873" gradientTransform="translate(-241.28626,-393.06438) scale(1.37752,1.46126)" gradientUnits="userSpaceOnUse" id="color-6"><stop offset="0" stop-color="#ffffff"/><stop offset="1" stop-color="#d9db56"/></linearGradient><linearGradient x1="546.09752" y1="244.96119" x2="546.09752" y2="277.21412" gradientTransform="translate(-546.64722,-385.11618) scale(1.5828,1.4308)" gradientUnits="userSpaceOnUse" id="color-7"><stop offset="0" stop-color="#ffffff"/><stop offset="1" stop-color="#d9db56"/></linearGradient><linearGradient x1="507.64146" y1="281.33495" x2="507.64146" y2="313.46145" gradientTransform="translate(-324.42405,-438.74571) scale(1.26491,1.43645)" gradientUnits="userSpaceOnUse" id="color-8"><stop offset="0" stop-color="#ffffff"/><stop offset="1" stop-color="#d9db56"/></linearGradient></defs><g transform="translate(-42.68766,-14.64294)"><g stroke-miterlimit="10"><g stroke-linecap="butt"><path d="M51.39857,336.00838c-2.8779,0 -5.21091,-2.333 -5.21091,-5.21091v-307.44362c0,-2.8779 2.333,-5.21091 5.21091,-5.21091h534.11813c2.8779,0 5.21091,2.333 5.21091,5.21091v307.44362c0,2.8779 -2.333,5.21091 -5.21091,5.21091z" fill="#9e9e46" stroke="#212108" stroke-width="7"/><path d="M586.82451,228.60085v104.13513h-539.11625v-104.13513z" fill="url(#color-1)" stroke="none" stroke-width="0"/><path d="M47.27239,64.80497v-48.81335h544.53996v48.81335z" fill="#212108" stroke="none" stroke-width="0"/><path d="M47.70826,122.29624v-103.05039h539.11625v103.05039z" fill="url(#color-2)" stroke="none" stroke-width="0"/><text transform="translate(59.34913,54.79145) scale(0.81904,1.01247)" font-size="40" xml:space="preserve" fill="url(#color-3)" stroke-opacity="0" stroke="#000000" stroke-width="0" font-family="&quot;Allan-Bold&quot;, Sans Serif" font-weight="normal" text-anchor="start"><tspan x="0" dy="0">LEMME RUN YOU THROUGH THIS REAL QUICK</tspan></text></g><path d="M178.76682,121.19405v-40.36753h282.46637v40.36753z" fill="#212108" stroke="none" stroke-width="0" stroke-linecap="butt"/><text transform="translate(181.33268,113.2286) scale(0.6457,0.82874)" font-size="40" xml:space="preserve" fill="url(#color-4)" stroke-opacity="0" stroke="#000000" stroke-width="0" stroke-linecap="butt" font-family="&quot;Allan-Regular&quot;, Sans Serif" font-weight="normal" text-anchor="start"><tspan x="0" dy="0">THESE ARE YOU MUTE BUTTONS</tspan></text><path d="M229.42128,215.06448c-7.12141,0 -12.89446,-5.38145 -12.89446,-12.01982v-54.0893c0,-6.63838 5.77302,-12.01984 12.89446,-12.01984h181.15745c7.12141,0 12.89445,5.38147 12.89445,12.01984v54.0893c0,6.63839 -5.77304,12.01982 -12.89445,12.01982z" fill="url(#color-5)" stroke="#181806" stroke-width="4.5" stroke-linecap="butt"/><g fill="#ebec85" stroke="#ecee87" stroke-width="2.5" stroke-linecap="butt"><path d="M240.44262,167.31119c0,0 9.9309,-10.59742 12.70434,-13.04102c1.09779,-0.96725 2.29851,-0.78951 2.29851,1.28952c0,9.98714 0,39.43713 0,44.87598c0,1.68961 -1.20631,1.9518 -2.28614,0.84704c-2.62438,-2.68517 -13.15713,-13.47009 -13.15713,-13.47009c0,0 -7.51324,0 -9.73728,0c-1.11877,0 -2.75339,-1.37892 -2.75339,-2.79415c0,-3.97441 0,-11.41908 0,-14.0007c0,-1.59249 1.56752,-3.47534 2.73182,-3.47534z"/><path d="M264.67403,173.57134c-1.29229,-1.2923 -0.85875,-3.61326 -0.19309,-4.27903c0.89472,-0.89472 2.91971,-1.50484 4.29749,-0.12703c2.65276,2.65276 12.71595,12.71594 16.73685,16.73684c1.29946,1.29946 0.3342,3.31334 -0.38851,4.03601c-0.69457,0.69457 -2.80364,1.28232 -4.0176,0.06846c0,0 -13.85718,-13.8573 -16.43516,-16.43525z"/><path d="M264.86893,189.93808c-0.72271,-0.72271 -1.68788,-2.73655 -0.38852,-4.03604c4.02096,-4.02096 14.08413,-14.08415 16.73684,-16.73684c1.37779,-1.37785 3.40276,-0.76774 4.29753,0.12706c0.66577,0.66577 1.09922,2.98676 -0.19302,4.27905c-2.57799,2.57799 -12.32776,12.32781 -16.43529,16.43529c-1.21393,1.21393 -3.323,0.62597 -4.0176,-0.06846z"/></g><g fill="#ebec85" stroke="#ecee87" stroke-width="2.5" stroke-linecap="butt"><path d="M303.5731,197.05394c-1.64467,-4.41476 -3.26159,-11.41163 -4.2206,-13.98577c-0.72902,-1.95686 0.97006,-4.92797 2.27546,-5.4051c1.10044,-0.40223 4.01174,-1.26835 4.01174,-1.26835c0,0 -3.23877,-11.7399 1.33061,-18.23676c1.8401,-2.61622 4.57468,-5.41481 7.38324,-6.76218c5.45642,-2.61775 11.74095,-1.92968 11.74095,-1.92968l0.3572,5.0493c0,0 -5.96215,-0.65899 -10.21966,1.98305c-2.45932,1.52617 -4.93255,4.3941 -5.47663,7.74292c-0.82925,5.10408 0.32246,11.11007 0.32246,11.11007l5.79559,21.54326c0,0 -3.93759,1.3518 -7.5792,2.31429c-3.34296,0.88351 -4.8481,0.18788 -5.72098,-2.15524z"/><path d="M346.84104,197.05394c-0.87299,2.34314 -2.37806,3.0388 -5.72098,2.15521c-3.64171,-0.96245 -7.57933,-2.3143 -7.57933,-2.3143l6.33339,-21.54315c0,0 0.61396,-6.00606 -0.21531,-11.11016c-0.54411,-3.34882 -3.01725,-6.21678 -5.47657,-7.74295c-4.25758,-2.64208 -10.03678,-1.98305 -10.03678,-1.98305l0.17424,-5.04933c0,0 6.28458,-0.68807 11.74093,1.92969c2.80852,1.34749 5.5431,4.14592 7.38326,6.7622c4.56943,6.49675 1.33067,18.23665 1.33067,18.23665c0,0 2.91134,0.86606 4.01171,1.2683c1.3053,0.47713 3.00451,3.44822 2.27539,5.4051c-0.95903,2.57422 -2.57595,9.57097 -4.22061,13.98577z"/></g><g fill="#ebec85" stroke="#ecee87" stroke-width="2.5" stroke-linecap="butt"><path d="M403.51704,154.57732c1.85971,-1.8597 5.1999,-1.23587 6.1581,-0.27783c1.28769,1.28769 2.16559,4.20175 0.18277,6.18457c-3.81756,3.81754 -32.49491,32.49492 -38.28134,38.28134c-1.87005,1.87013 -4.76815,0.48099 -5.80823,-0.5591c-0.99948,-0.99948 -1.84551,-4.03471 -0.09864,-5.78167c0,0 34.13731,-34.13727 37.84733,-37.8473z"/><path d="M366.04585,160.70109c-1.85971,-1.8597 -1.23586,-5.19998 -0.2778,-6.15811c1.28769,-1.28769 4.20173,-2.16565 6.18453,-0.18284c3.81754,3.81754 32.49492,32.49491 38.28148,38.28146c1.87005,1.87013 0.48099,4.76817 -0.5591,5.8082c-0.99949,0.99948 -4.03474,1.8455 -5.78172,0.09862c0,0 -34.13729,-34.13724 -37.84738,-37.84731z"/></g><g fill="#383819" stroke="none" stroke-width="0" stroke-linecap="butt"><path d="M230.24326,167.54241c2.06342,0 10.19936,-0.23122 10.19936,-0.23122c0,0 9.9309,-10.59742 12.70434,-13.04102c1.09779,-0.96725 2.29851,-0.78951 2.29851,1.28952c0,9.98714 0,39.43713 0,44.87598c0,1.68961 -1.20631,1.9518 -2.28614,0.84704c-2.62438,-2.68517 -13.15713,-13.47009 -13.15713,-13.47009c0,0 -7.51324,0 -9.73728,0c-1.11877,0 -2.75339,-1.37892 -2.75339,-2.79415c0,-3.97441 0,-11.41908 0,-14.0007c0,-1.59249 1.56752,-3.47534 2.73182,-3.47534z"/><path d="M281.10933,190.00663c-4.10757,-4.10759 -13.8573,-13.85733 -16.43527,-16.43527c-1.29229,-1.2923 -0.85876,-3.61326 -0.19309,-4.27903c0.89472,-0.89472 2.91971,-1.50484 4.29749,-0.12703c2.65276,2.65276 12.71595,12.71594 16.73685,16.73684c1.29946,1.29946 0.33421,3.31334 -0.38851,4.03601c-0.69457,0.69457 -2.80364,1.28232 -4.0176,0.06846z"/><path d="M264.86893,189.93808c-0.72271,-0.72271 -1.68788,-2.73655 -0.38852,-4.03604c4.02096,-4.02096 14.08413,-14.08415 16.73684,-16.73684c1.37779,-1.37785 3.40276,-0.76774 4.29753,0.12706c0.66577,0.66577 1.09922,2.98676 -0.19302,4.27905c-2.57799,2.57799 -12.32776,12.32781 -16.43529,16.43529c-1.21393,1.21393 -3.323,0.62597 -4.0176,-0.06846z"/></g><g fill="#383819" stroke="none" stroke-width="0" stroke-linecap="butt"><path d="M303.5731,197.05394c-1.64467,-4.41476 -3.26159,-11.41163 -4.2206,-13.98577c-0.72902,-1.95686 0.97006,-4.92797 2.27546,-5.4051c1.10044,-0.40223 4.01174,-1.26835 4.01174,-1.26835c0,0 -3.23877,-11.7399 1.33061,-18.23676c1.8401,-2.61622 4.57468,-5.41481 7.38324,-6.76218c5.45642,-2.61775 11.74095,-1.92968 11.74095,-1.92968l0.3572,5.0493c0,0 -5.96215,-0.65899 -10.21966,1.98305c-2.45932,1.52617 -4.93255,4.3941 -5.47663,7.74292c-0.82925,5.10408 0.32246,11.11007 0.32246,11.11007l5.79559,21.54326c0,0 -3.93759,1.3518 -7.5792,2.31429c-3.34296,0.88351 -4.8481,0.18788 -5.72098,-2.15524z"/><path d="M346.84104,197.05394c-0.87299,2.34314 -2.37806,3.0388 -5.72098,2.15521c-3.64171,-0.96245 -7.57933,-2.3143 -7.57933,-2.3143l6.33339,-21.54315c0,0 0.61396,-6.00606 -0.21531,-11.11016c-0.54411,-3.34882 -3.01725,-6.21678 -5.47657,-7.74295c-4.25758,-2.64208 -10.03678,-1.98305 -10.03678,-1.98305l0.17424,-5.04933c0,0 6.28458,-0.68807 11.74093,1.92969c2.80852,1.34749 5.5431,4.14592 7.38326,6.7622c4.56943,6.49675 1.33067,18.23665 1.33067,18.23665c0,0 2.91134,0.86606 4.01171,1.2683c1.3053,0.47713 3.00451,3.44822 2.27539,5.4051c-0.95903,2.57422 -2.57595,9.57097 -4.22061,13.98577z"/></g><g fill="#383819" stroke="none" stroke-width="0" stroke-linecap="butt"><path d="M365.66955,192.42484c5.91129,-5.91126 34.13747,-34.13748 37.8475,-37.84751c1.85971,-1.8597 5.19991,-1.23587 6.15811,-0.27783c1.28769,1.28769 2.16559,4.20175 0.18277,6.18456c-3.81756,3.81754 -32.49492,32.49492 -38.28134,38.28135c-1.87005,1.87013 -4.76816,0.481 -5.80824,-0.5591c-0.99948,-0.99948 -1.84551,-4.03471 -0.09864,-5.78167z"/><path d="M403.89338,198.54858c-5.91129,-5.91126 -34.13743,-34.13742 -37.84752,-37.8475c-1.85971,-1.8597 -1.23586,-5.19998 -0.2778,-6.15811c1.28769,-1.28769 4.20173,-2.16565 6.18453,-0.18284c3.81754,3.81754 32.49492,32.49491 38.28148,38.28146c1.87005,1.87013 0.48099,4.76817 -0.5591,5.8082c-0.99949,0.99948 -4.03474,1.8455 -5.78172,0.09862z"/></g><path d="M339.2849,274.17323v-31.25161h139.43021v31.25161z" fill="#212108" stroke="none" stroke-width="0" stroke-linecap="butt"/><path d="M170.82919,274.19714v-30.56317h131.01632v30.56317z" fill="#212108" stroke="none" stroke-width="0" stroke-linecap="butt"/><text transform="translate(175.15935,268.98968) scale(0.72594,0.68434)" font-size="40" xml:space="preserve" fill="url(#color-6)" stroke-opacity="0" stroke="#000000" stroke-width="0" stroke-linecap="butt" font-family="&quot;Allan-Regular&quot;, Sans Serif" font-weight="normal" text-anchor="start"><tspan x="0" dy="0">MUTES POLO</tspan></text><text transform="translate(345.36625,269.16155) scale(0.63179,0.69891)" font-size="40" xml:space="preserve" fill="url(#color-7)" stroke-opacity="0" stroke="#000000" stroke-width="0" stroke-linecap="butt" font-family="&quot;Allan-Regular&quot;, Sans Serif" font-weight="normal" text-anchor="start"><tspan x="0" dy="0">REMOVES POLO</tspan></text><path d="M250.88589,309.59012v-30.03902h138.22822v30.03902z" fill="#212108" stroke="none" stroke-width="0" stroke-linecap="butt"/><text transform="translate(256.47992,305.43721) scale(0.79057,0.69616)" font-size="40" xml:space="preserve" fill="url(#color-8)" stroke-opacity="0" stroke="#000000" stroke-width="0" stroke-linecap="butt" font-family="&quot;Allan-Regular&quot;, Sans Serif" font-weight="normal" text-anchor="start"><tspan x="0" dy="0">SOLOS POLO</tspan></text><path d="M194.84335,164.50735l12.56797,14.09232l-12.56797,14.09231z" fill="#383819" stroke="none" stroke-width="0" stroke-linecap="butt"/><path d="M442.98813,194.29461l-12.56797,-14.49296l12.56797,-14.49296z" fill="#383819" stroke="none" stroke-width="0" stroke-linecap="butt"/><path d="M225.32368,236.72386c-1.44239,0.99401 -2.52417,-0.33135 -2.52417,-0.33135l-0.96713,-1.2364c-2.7408,-1.46017 -5.03046,-3.46424 -7.7357,-4.96518c-4.77735,-2.65061 -10.79217,-3.64213 -15.88005,-5.81778c-4.31611,-1.84564 -6.62065,-5.22779 -9.82595,-8.17307c-1.56932,-2.15525 -3.11436,-4.32322 -3.93988,-6.83695c-3.4015,-10.35791 -1.7532,-29.84624 12.1925,-32.65378c0,0 1.76797,-0.32491 2.12155,1.29964c0.35359,1.62455 -1.41437,1.94945 -1.41437,1.94945c-4.1613,0.6573 -7.73516,5.02335 -9.07173,8.50189c-1.01466,2.64071 -0.81211,5.36844 -1.10738,8.08144c-0.70824,6.50723 -0.00067,12.00815 4.00793,17.55769c2.82056,2.59175 4.78547,5.68537 8.60447,7.28959c5.21785,2.19182 11.2633,3.27151 16.17287,5.9633c2.89403,1.58673 5.41495,3.71408 8.29077,5.34326l1.43685,1.70888c0,0 1.08178,1.32538 -0.36059,2.31939z" fill="#383819" stroke="none" stroke-width="0.5" stroke-linecap="butt"/><path d="M431.33512,234.4126c-1.74913,-0.37097 -1.31186,-1.85479 -1.31186,-1.85479l0.38186,-1.28856c0.33607,-1.42288 0.32416,-2.91518 0.87021,-4.29041c1.84015,-4.6342 7.34265,-8.20231 11.87801,-10.93451c2.40211,-1.4471 5.79538,-2.04597 8.0364,-3.4125c0.22147,-0.13505 2.4386,-2.66767 2.77931,-3.05328c2.60399,-2.8635 2.44405,-5.8126 2.44405,-9.2789c0,-9.36704 -6.32466,-19.01036 -18.12586,-20.58394c0,0 -1.77845,-0.25146 -1.48203,-1.76012c0.29642,-1.50869 2.07484,-1.25723 2.07484,-1.25723c13.51334,1.998 21.13899,12.62941 21.13899,23.6013c0,4.20457 -0.1365,7.61504 -3.16523,11.11429c-0.84332,0.95328 -2.79022,3.22117 -3.63127,3.74446c-0.76905,0.47849 -1.8289,0.47662 -2.69438,0.81651c-4.49122,1.76373 -10.25914,4.9683 -13.31632,8.36542c-2.19187,2.43558 -2.59233,4.64603 -3.27081,7.52886l-0.41948,1.43054c0,0 -0.43729,1.48382 -2.18644,1.11287z" fill="#383819" stroke="none" stroke-width="0.5" stroke-linecap="butt"/><path d="M307.82787,234.41559l12.95766,-13.21756l12.95765,13.21756z" fill="#383819" stroke="none" stroke-width="0" stroke-linecap="butt"/><path d="M320.67003,269.73773v-39.61373" fill="none" stroke="#383819" stroke-width="4" stroke-linecap="round"/><text transform="translate(396.21292,290.17983) scale(0.34171,0.35528)" font-size="40" xml:space="preserve" fill="#212108" stroke="none" stroke-width="1" stroke-linecap="butt" font-family="&quot;Allan-Bold&quot;, Sans Serif" font-weight="normal" text-anchor="start"><tspan x="0" dy="0">or left click the polos</tspan></text><text transform="translate(146.16667,289.3235) scale(0.32915,0.34331)" font-size="40" xml:space="preserve" fill="#212108" stroke="none" stroke-width="1" stroke-linecap="butt" font-family="&quot;Allan-Bold&quot;, Sans Serif" font-weight="normal" text-anchor="start"><tspan x="0" dy="0">or right click the polos</tspan></text><text transform="translate(238.50201,324.52652) scale(0.37721,0.37721)" font-size="40" xml:space="preserve" fill="#212108" stroke="none" stroke-width="1" stroke-linecap="butt" font-family="&quot;Allan-Bold&quot;, Sans Serif" font-weight="normal" text-anchor="start"><tspan x="0" dy="0">press space to unmute everybody</tspan></text></g></g></svg>