<svg version="1.1" xmlns="http://www.w3.org/2000/svg" xmlns:xlink="http://www.w3.org/1999/xlink" width="748.33333" height="369.48102" viewBox="0,0,748.33333,369.48102"><defs><linearGradient x1="318.60948" y1="-3.22152" x2="318.60948" y2="364.74051" gradientUnits="userSpaceOnUse" id="color-1"><stop offset="0" stop-color="#ffffff"/><stop offset="1" stop-color="#fdffd4"/></linearGradient><linearGradient x1="-54.16665" y1="25.54984" x2="694.16669" y2="25.54984" gradientUnits="userSpaceOnUse" id="color-2"><stop offset="0" stop-color="#a5a02c"/><stop offset="1" stop-color="#7d690f"/></linearGradient></defs><g transform="translate(54.16665,4.74051)"><g stroke-miterlimit="10"><path d="M-47.77956,-3.22152h732.7781v367.96203h-732.7781z" fill="url(#color-1)" fill-rule="evenodd" stroke="none" stroke-width="2.07968" stroke-linecap="round" stroke-linejoin="round"/><path d="M-54.16665,55.84018v-60.58069h748.33333v60.58069z" fill="url(#color-2)" fill-rule="nonzero" stroke="none" stroke-width="0" stroke-linecap="butt" stroke-linejoin="miter"/><path d="M266.97047,353.14145c-0.00002,0.02694 -0.02188,0.04879 -0.04884,0.04879c-0.02694,0 -0.04881,-0.02184 -0.04884,-0.04879c0.00002,-0.02694 0.02188,-0.04879 0.04884,-0.04879c0.02694,0 0.04881,0.02184 0.04884,0.04879z" fill="#ffffff" fill-rule="nonzero" stroke="#000000" stroke-width="0.27531" stroke-linecap="butt" stroke-linejoin="miter"/><text transform="translate(5.03533,40.58269) scale(1.07898,0.96692)" font-size="40" xml:space="preserve" fill="#ffffff" fill-rule="nonzero" stroke="none" stroke-width="1" stroke-linecap="butt" stroke-linejoin="miter" font-family="&quot;Allan-Bold&quot;, Sans Serif" font-weight="normal" text-anchor="start"><tspan x="0" dy="0">SUPER LEGAL CREDITS:</tspan></text><text transform="translate(382.5208,67.7716) scale(0.46803,0.2604)" font-size="40" xml:space="preserve" fill="#797621" fill-rule="nonzero" stroke="none" stroke-width="1" stroke-linecap="butt" stroke-linejoin="miter" font-family="&quot;Allan-Bold&quot;, Sans Serif" font-weight="normal" text-anchor="middle"><tspan x="0" dy="0">So Far So Good- Incredibox</tspan><tspan x="0" dy="48px">Baggerhead- Colorbox</tspan><tspan x="0" dy="48px">The Crafter/Phisigma - Nostalgic Memories in a Fading Universe</tspan><tspan x="0" dy="48px">BigBlueBubble-My Singing Monsters</tspan><tspan x="0" dy="48px">Jacknjellify-Battle for Dream Island</tspan><tspan x="0" dy="48px">Infinite Dreams Inc.-Jelly Band</tspan><tspan x="0" dy="48px">Autumn Games-Skullgirls</tspan><tspan x="0" dy="48px">Evriholder-Mustard Monster</tspan><tspan x="0" dy="48px">La Rosita</tspan><tspan x="0" dy="48px">Funkin' Crew Inc-Friday Night Funkin'</tspan><tspan x="0" dy="48px">Matthew Littlemore-Cartoonmania</tspan><tspan x="0" dy="48px">Matheus Heitor Studios-cartoonmania stampede</tspan><tspan x="0" dy="48px">JakeBowenTV-Uncle Samsonite</tspan><tspan x="0" dy="48px">Genuwine-Pony</tspan><tspan x="0" dy="48px">21st Century Fox-The Simpsons/Do The Bartman (offical version)</tspan><tspan x="0" dy="48px">cacko dethshit-Do The Bartman (meet your lord version)</tspan><tspan x="0" dy="48px">Google- Webdriver Torso</tspan><tspan x="0" dy="48px">Rick Astley- Never Gonna Give You Up</tspan><tspan x="0" dy="48px">Adobe-Adobe Flash Player</tspan><tspan x="0" dy="48px">Comedy Central-South Park</tspan><tspan x="0" dy="48px">Mind Candy-Moshi Monsters</tspan><tspan x="0" dy="48px">Nintendo/Game Freak-Pokemon</tspan><tspan x="0" dy="48px">TUBA Entertainment- Larva</tspan><tspan x="0" dy="48px">Brands to A Great American Brand, LLC-  A&amp;W</tspan></text><g fill-rule="nonzero" stroke-linejoin="miter"><g fill="#ffffff" stroke="none" stroke-width="0"><path d="M20.75091,161.20729c-4.65365,-39.24412 23.72798,-74.81937 63.39215,-79.45958c39.66415,-4.64019 75.59083,23.41184 80.24449,62.65593c4.65365,39.24412 -23.72798,74.81937 -63.39215,79.45958c-39.66415,4.64019 -75.59085,-23.41183 -80.24449,-62.65593z" stroke-linecap="butt"/><path d="M31.84143,159.90984c-3.93501,-33.18385 20.06378,-63.26542 53.60283,-67.18907c33.53905,-3.92365 63.91775,19.79647 67.85277,52.98034c3.93501,33.18385 -20.06378,63.26542 -53.60283,67.18907c-33.53905,3.92365 -63.91776,-19.79646 -67.85277,-52.98031z" stroke-linecap="butt"/><path d="M53.78134,157.34315c-2.51337,-21.1951 12.81508,-40.4087 34.23705,-42.9148c21.42197,-2.50609 40.82536,12.64437 43.33872,33.83943c2.51337,21.1951 -12.81508,40.4087 -34.23705,42.9148c-21.42197,2.50609 -40.82536,-12.64433 -43.33872,-33.83943z" stroke-linecap="butt"/><path d="M68.24722,155.65082c-1.57603,-13.29041 8.03572,-25.33832 21.4684,-26.9098c13.43267,-1.57147 25.59962,7.92865 27.17562,21.21908c1.57603,13.29041 -8.03572,25.33833 -21.4684,26.9098c-13.43267,1.57147 -25.59962,-7.92867 -27.17562,-21.21908z" stroke-linecap="butt"/><path d="M97.77831,160.99846l-0.73673,-17.27964l47.05417,-2.0062l0.73673,17.27964z" stroke-linecap="butt"/><path d="M69.29586,102.50577l20.62747,9.13849l22.2903,-12.65135l-21.47622,24.1463z" stroke-linecap="butt"/><path d="M29.64937,89.17989l8.01491,-24.77562l60.17812,57.58335l-23.516,4.72558z" stroke-linecap="butt"/><path d="M104.16616,123.69971l-13.83543,0.34945l46.79905,-65.62696l13.71907,27.3315z" stroke-linecap="butt"/><path d="M76.66153,209.98503c0,0 3.67777,4.89179 0.95336,10.85098c-3.6633,8.01284 -13.29185,15.64571 -17.61307,14.67256c-5.36964,-1.20925 -9.05269,-9.23999 -7.72543,-17.6351c1.33713,-8.45755 3.825,-17.40866 3.825,-17.40866" stroke-linecap="round"/><path d="M131.09301,196.68708c0,0 3.82008,8.68215 5.87225,16.9952c2.03699,8.25166 -2.10785,16.61616 -7.35507,18.27807c-4.2227,1.33742 -11.59387,-6.15108 -15.9259,-13.82301c-3.22176,-5.70568 -5.1139,-8.93233 -5.1139,-8.93233" stroke-linecap="round"/><path d="M129.09219,225.79744c-0.97019,0.04137 -1.00848,-0.8567 -1.00848,-0.8567l0.02869,-0.00793c-1.64188,-5.31822 -1.26515,-11.04031 -5.3614,-15.64423c-4.59003,-5.19592 -9.40801,-7.68059 -16.02856,-9.81355c-2.96914,-0.95658 -4.67567,-2.1978 -7.91166,-1.62871c-7.71561,0.34577 -21.92386,0.65032 -26.73131,7.1296c-5.8992,5.96206 -10.55062,14.82599 -10.20159,23.0125c0,0 0.03829,0.89805 -0.9319,0.93942c-0.97019,0.04137 -1.00848,-0.8567 -1.00848,-0.8567c-0.36561,-8.57507 4.41654,-17.96725 10.62595,-24.20953c5.15595,-6.94898 19.72621,-7.46767 28.03341,-7.80101c9.05207,-1.59192 20.28742,6.00179 25.66049,12.08413c4.27659,4.87122 3.90512,10.70984 5.71891,16.2722l0.04784,0.44108c0,0 0.03829,0.89805 -0.9319,0.93942z" stroke-linecap="butt"/><path d="M101.69203,204.34965c0.04093,0.95998 -0.92927,1.00135 -0.92927,1.00135l-0.53816,0.00428c-4.44475,1.07714 -8.51623,0.85309 -13.02402,1.05482c0,0 -0.97019,0.04137 -1.01112,-0.91861c-0.04093,-0.95998 0.92927,-1.00135 0.92927,-1.00135c4.3752,-0.17829 8.33891,0.04426 12.64507,-1.00132l0.91712,-0.05777c0,0 0.97019,-0.04137 1.01112,0.91861z" stroke-linecap="butt"/></g><g><path d="M28.19752,159.38941c-4.18451,-35.52814 21.22451,-67.72159 56.75265,-71.90612c35.52814,-4.18451 67.72159,21.22453 71.90612,56.75265c4.18451,35.52814 -21.22451,67.72159 -56.75265,71.90612c-35.52814,4.18451 -67.72162,-21.22451 -71.90612,-56.75265z" fill="#000000" stroke="#000000" stroke-width="1.5" stroke-linecap="butt"/><path d="M38.13155,158.21936c-3.53831,-30.04172 17.94691,-57.26373 47.98863,-60.80206c30.04172,-3.53833 57.26371,17.94693 60.80204,47.98865c3.53831,30.04172 -17.94691,57.26373 -47.98863,60.80206c-30.04172,3.53833 -57.26373,-17.94691 -60.80204,-47.98864z" fill="#ffffff" stroke="#000000" stroke-width="1.5" stroke-linecap="butt"/><path d="M57.78366,155.90473c-2.25999,-19.18817 11.463,-36.57531 30.65117,-38.8353c19.18817,-2.25999 36.57532,11.46303 38.8353,30.65117c2.25999,19.18817 -11.463,36.57531 -30.65117,38.8353c-19.18817,2.25999 -36.57531,-11.463 -38.8353,-30.65117z" fill="#000000" stroke="#000000" stroke-width="1.5" stroke-linecap="butt"/><path d="M70.74109,154.3786c-1.41714,-12.03196 7.18789,-22.93461 19.21987,-24.35175c12.03196,-1.41714 22.93462,7.18791 24.35175,19.21987c1.41714,12.03196 -7.18789,22.93461 -19.21987,24.35175c-12.03196,1.41714 -22.93462,-7.18791 -24.35175,-19.21987z" fill="#ffffff" stroke="none" stroke-width="0" stroke-linecap="butt"/><path d="M97.19637,159.23159l-0.66695,-15.64291l42.14897,-1.79706l0.66695,15.64291z" fill="#ffffff" stroke="none" stroke-width="0" stroke-linecap="butt"/><path d="M71.65888,106.26876l18.48121,8.28109l19.96189,-11.44376l-19.228,21.85004z" fill="#ffffff" stroke="none" stroke-width="0" stroke-linecap="butt"/><path d="M35.2849,86.34404l4.41346,-13.9006l51.89801,53.28998l-12.37471,0.74526z" fill="#000000" stroke="none" stroke-width="0" stroke-linecap="butt"/><path d="M102.90329,125.46899l-12.39324,0.31074l47.17378,-57.514l5.58063,13.47449z" fill="#000000" stroke="none" stroke-width="0" stroke-linecap="butt"/><path d="M78.30042,203.56876c0,0 -1.96037,3.07765 -4.39841,8.47118c-3.27822,7.25224 -6.64333,15.5103 -10.51454,14.6276c-4.81046,-1.09686 -6.55597,-8.43467 -5.37045,-16.03392c1.19434,-7.65575 4.52429,-14.22865 4.52429,-14.22865" fill="#ffffff" stroke="#000000" stroke-width="1.5" stroke-linecap="round"/><path d="M125.06676,193.73916c0,0 3.87733,6.26558 5.71897,13.79192c1.82802,7.47076 0.71344,14.93051 -3.9862,16.43285c-3.78203,1.209 -7.83782,-6.73267 -11.72145,-13.67954c-2.88827,-5.16644 -5.10348,-8.06605 -5.10348,-8.06605" fill="#ffffff" stroke="#000000" stroke-width="1.5" stroke-linecap="round"/><path d="M125.27272,217.90441c-0.86905,0.03705 -0.90371,-0.77594 -0.90371,-0.77594l0.0257,-0.00718c-1.4729,-4.81505 -1.13776,-9.9949 -4.80893,-14.16432c-4.11373,-4.70553 -8.43054,-6.95676 -14.36189,-8.89034c-2.66006,-0.86716 -4.18921,-1.99149 -7.0877,-1.47762c-6.91128,0.30988 -19.63851,0.57983 -23.94226,6.44333c-5.28191,5.39485 -9.44494,13.41714 -9.12895,20.82824c0,0 0.03467,0.813 -0.83439,0.85005c-0.86905,0.03705 -0.90371,-0.77594 -0.90371,-0.77594c-0.33097,-7.76285 3.94892,-16.2633 9.5086,-21.91169c4.61573,-6.28856 17.66714,-6.75222 25.10836,-7.0506c8.10794,-1.43745 18.17531,5.44144 22.99083,10.94972c3.83282,4.41147 3.50244,9.69681 5.12944,14.73294l0.04302,0.39931c0,0 0.03467,0.813 -0.83439,0.85005z" fill="#000000" stroke="none" stroke-width="0.5" stroke-linecap="butt"/><path d="M100.71974,198.4774c0.03705,0.86905 -0.832,0.90611 -0.832,0.90611l-0.48207,0.00364c-3.98104,0.97329 -7.62825,0.76882 -11.66611,0.94962c0,0 -0.86905,0.03705 -0.90611,-0.832c-0.03705,-0.86905 0.832,-0.90611 0.832,-0.90611c3.91912,-0.15963 7.46978,0.04344 11.32668,-0.90133l0.82151,-0.05194c0,0 0.86905,-0.03705 0.90611,0.832z" fill="#000000" stroke="none" stroke-width="0.5" stroke-linecap="butt"/></g></g><text transform="translate(89.75186,269.60021) scale(0.78084,0.78084)" font-size="40" xml:space="preserve" fill="#797621" fill-rule="nonzero" stroke="none" stroke-width="1" stroke-linecap="butt" stroke-linejoin="miter" font-family="&quot;Allan-Bold&quot;, Sans Serif" font-weight="normal" text-anchor="middle"><tspan x="0" dy="0">READ IT</tspan><tspan x="0" dy="46.150000000000006px">AND WEEP</tspan><tspan x="0" dy="46.150000000000006px">CHUD</tspan></text></g></g></svg>