<svg version="1.1" xmlns="http://www.w3.org/2000/svg" xmlns:xlink="http://www.w3.org/1999/xlink" width="378" height="460.00001" viewBox="0,0,378,460.00001"><defs><linearGradient x1="320" y1="-67.5" x2="320" y2="269.5" gradientUnits="userSpaceOnUse" id="color-1"><stop offset="0" stop-color="#ffffd1"/><stop offset="1" stop-color="#f1f19c"/></linearGradient></defs><g transform="translate(-131,83.00001)"><g stroke-miterlimit="10"><path d="M145.24891,375c-6.76488,0 -12.24891,-5.33739 -12.24891,-11.9214v-432.15721c0,-6.58401 5.48402,-11.9214 12.24891,-11.9214h349.50219c6.76488,0 12.2489,5.33739 12.2489,11.9214v432.15721c0,6.584 -5.48402,11.9214 -12.2489,11.9214z" fill="#535311" fill-rule="nonzero" stroke="#212108" stroke-width="4" stroke-linecap="butt" stroke-linejoin="miter"/><path d="M160.66812,361.5c-6.16798,0 -11.16812,-4.94148 -11.16812,-11.03711v-406.92577c0,-6.09563 5.00014,-11.03711 11.16812,-11.03711h318.66376c6.16798,0 11.16812,4.94149 11.16812,11.03712v406.92577c0,6.09563 -5.00014,11.03711 -11.16812,11.03711z" fill="url(#color-1)" fill-rule="nonzero" stroke="#212108" stroke-width="4.5" stroke-linecap="butt" stroke-linejoin="miter"/><text transform="translate(160.5,-35.68135) scale(0.61033,0.61033)" font-size="40" xml:space="preserve" fill="#212108" fill-rule="nonzero" stroke="none" stroke-width="1" stroke-linecap="butt" stroke-linejoin="miter" font-family="&quot;Allan-Regular&quot;, Sans Serif" font-weight="normal" text-anchor="start"><tspan x="0" dy="0">name: Basic Ass Kick Drum Guy</tspan><tspan x="0" dy="46.150000000000006px">age: 25</tspan><tspan x="0" dy="46.150000000000006px">occupation: lackey</tspan></text><path d="M432.53444,-56.08653h32.93116c6.43804,0 11.62097,5.18296 11.62097,11.62097v32.93116c0,6.43802 -5.18294,11.62098 -11.62097,11.62098h-32.93116c-6.43802,0 -11.62098,-5.18296 -11.62098,-11.62097v-32.93116c0,-6.43801 5.18296,-11.62097 11.62098,-11.62097z" fill="#a0a300" fill-rule="evenodd" stroke="#212108" stroke-width="2" stroke-linecap="round" stroke-linejoin="round"/><g fill="#d9db56" fill-rule="nonzero" stroke="#000000" stroke-linecap="butt" stroke-linejoin="miter"><g stroke-width="1.5"><path d="M425.25217,-18.52957l-1.13951,-11.81346l21.10814,-2.03606l2.30684,11.78918z"/></g><g stroke-width="1.5"><path d="M452.72565,-21.26793l0.01093,-12.01274l21.10814,-2.03606l-1.33536,12.14049z"/></g><path d="M445.2698,-32.73714l6.88081,-0.8753l-0.10401,2.76158c0,0 -2.11817,-0.45161 -3.28387,-0.33918c-0.66683,0.06432 -3.09394,0.89362 -3.09394,0.89362z" stroke-width="1.2"/></g><text transform="translate(160.5,45.67051) scale(0.49829,0.4327)" font-size="40" xml:space="preserve" fill="#212108" fill-rule="nonzero" stroke="none" stroke-width="1" stroke-linecap="butt" stroke-linejoin="miter" font-family="&quot;Allan-Regular&quot;, Sans Serif" font-weight="normal" text-anchor="start"><tspan x="0" dy="0">Description-</tspan><tspan x="0" dy="46.150000000000006px">Barry Smith, or his syndicate nickname, </tspan><tspan x="0" dy="46.150000000000006px">"Basic Ass Kick Drum Guy" (BAKDG for short) </tspan><tspan x="0" dy="46.150000000000006px">is a highschool dropout, attempting to pursue a </tspan><tspan x="0" dy="46.150000000000006px">career of being a world class beatboxer, only to </tspan><tspan x="0" dy="46.150000000000006px">fail miserably and join the syndicate as a last </tspan><tspan x="0" dy="46.150000000000006px">ditch effort. He has little to no redeeming qualities </tspan><tspan x="0" dy="46.150000000000006px">about him , other than he can do a mildly okay </tspan><tspan x="0" dy="46.150000000000006px">impression of a kick drum. He has the IQ of that </tspan><tspan x="0" dy="46.150000000000006px">of a chickpea, he doesn't clean his fingernails and </tspan><tspan x="0" dy="46.150000000000006px">can't ride a tricycle for shit. Since nobody at the </tspan><tspan x="0" dy="46.150000000000006px">syndicate really likes him, all of the MCS’s unpaid </tspan><tspan x="0" dy="46.150000000000006px">taxes are siphoned off to him which has put Barry </tspan><tspan x="0" dy="46.150000000000006px">trillions of dollars in debt. But since he blends in </tspan><tspan x="0" dy="46.150000000000006px">with the crowd, so well the IRS has never actually </tspan><tspan x="0" dy="46.150000000000006px">found him (maybe because of his basic ass face).</tspan></text><path d="M160.16667,-30.16667v-1.66667h252.16667v1.66667z" fill="#212108" fill-rule="nonzero" stroke="none" stroke-width="0" stroke-linecap="butt" stroke-linejoin="miter"/><path d="M160.16667,-0.66667v-1.66667h252.16667v1.66667z" fill="#212108" fill-rule="nonzero" stroke="none" stroke-width="0" stroke-linecap="butt" stroke-linejoin="miter"/><path d="M160.16667,29.33333v-1.66667h252.16667v1.66667z" fill="#212108" fill-rule="nonzero" stroke="none" stroke-width="0" stroke-linecap="butt" stroke-linejoin="miter"/></g></g></svg>