<svg version="1.1" xmlns="http://www.w3.org/2000/svg" xmlns:xlink="http://www.w3.org/1999/xlink" width="111.2263" height="266.31765" viewBox="0,0,111.2263,266.31765"><g transform="translate(-264.38685,-46.84121)"><g stroke-miterlimit="10"><path d="M264.38685,308.01333v-256.0266h111.2263v256.0266z" fill-opacity="0.01" fill="#000000" stroke="none" stroke-width="2" stroke-linecap="butt"/><g><path d="M280.34922,311.45998c0,0 -0.63536,-94.38387 -0.79335,-118.01201c-0.05451,-8.15261 8.18688,-36.76129 40.20201,-36.9211c31.60235,-0.15775 39.85672,29.48704 39.84884,36.89673c-0.07659,46.24274 0.65429,117.98648 0.65429,117.98648l-10.49667,0.09614l-0.15882,-114.84311c0,0 0.07549,-3.0993 -2.81625,-3.15415c-3.43441,-0.06514 -2.94538,3.11562 -2.94538,3.11562l0.20548,114.86995l-48.21366,0.07222l-0.30539,-115.23309c0,0 0.27949,-2.919 -2.8856,-2.93443c-3.11083,-0.01515 -2.81569,2.90899 -2.81569,2.90899l0.35311,115.0668z" fill="#000000" stroke="#000000" stroke-width="2" stroke-linecap="butt"/><path d="M273.16674,297.15887c0,0 1.90563,-13.5077 2.55755,-31.6749c1.2714,-35.43052 2.97955,-88.58325 4.94245,-93.8251c2.90186,-7.74927 29.5,-15.5 29.5,-15.5c0,0 -1.26514,18.69208 -1.46513,32.79148c-0.16977,11.96854 0.70233,36.38022 0.61424,58.99236c-0.10043,25.7774 4.35089,64.71616 4.35089,64.71616l-19.57506,-0.57727l-3.1022,-11.95236z" fill="#c5c556" stroke="none" stroke-width="0" stroke-linecap="butt"/><path d="M273.33337,297.15887c0,0 1.90563,-13.5077 2.55755,-31.6749c0.23695,-6.60323 0.48907,-13.82202 0.75519,-21.23151c1.32349,0.82334 2.98871,2.85977 4.75188,3.42736c2.23615,0.71985 4.62986,-0.1116 6.68383,0.14115c1.01085,0.12439 3.58489,-65.97822 3.58489,-65.97822c0,0 -0.95209,66.78309 1.50916,75.11182c3.11685,10.54727 16.81315,11.67753 16.81315,11.67753c0,0 0.91744,12.86249 1.55188,20.48597c0.64676,7.77148 2.29247,23.54079 2.29247,23.54079l-19.57506,-0.57727l-3.1022,-11.95236z" fill="#91913f" stroke="none" stroke-width="0" stroke-linecap="butt"/><g stroke="none" stroke-width="0" stroke-linecap="butt"><path d="M349.01059,300.62924l-3.1022,11.95236l-19.57506,0.57727c0,0 4.45132,-38.93876 4.35089,-64.71616c-0.08809,-22.61214 0.78401,-47.02382 0.61424,-58.99236c-0.19999,-14.0994 -1.46513,-32.79148 -1.46513,-32.79148c0,0 26.59814,7.75073 29.5,15.5c1.9629,5.24185 3.67105,58.39458 4.94245,93.8251c0.65192,18.1672 2.55755,31.6749 2.55755,31.6749z" fill="#c5c556"/><path d="M348.84387,300.62924l-3.1022,11.95236l-19.57506,0.57727c0,0 1.64571,-15.76931 2.29247,-23.54079c0.63444,-7.62348 1.46855,-20.65264 1.46855,-20.65264c0,0 13.77963,-0.96359 16.89648,-11.51086c2.46124,-8.32873 1.50916,-71.36182 1.50916,-71.36182c0,0 2.57404,62.35261 3.58489,62.22822c2.05397,-0.25275 4.44768,0.5787 6.68383,-0.14115c1.76317,-0.56759 3.67839,-2.60402 5.00188,-3.42736c0.26612,7.40949 0.51824,14.62828 0.75519,21.23151c0.65192,18.1672 2.30755,31.6749 2.30755,31.6749z" fill="#91913f"/></g><g fill="#ffffff" stroke="#000000" stroke-width="3" stroke-linecap="butt"><path d="M313.47512,219.48091c0,0 15.64791,-3.99714 20.84156,-11.75869c5.19365,-7.76155 -1.83572,-16.64421 -1.83572,-16.64421l2.84226,-2.04918c0,0 5.76376,11.33456 0.7456,19.87486c-3.93219,6.69213 -16.25144,13.52803 -16.25144,13.52803z"/><path d="M340.34369,185.70054c0.30482,1.36198 -4.33937,3.50725 -4.33937,3.50725c0,0 1.62939,4.84876 0.43026,5.55936c-1.19911,0.71053 -4.6731,-3.04061 -4.6731,-3.04061c0,0 -4.11012,3.04395 -5.15582,2.12554c-1.04693,-0.92088 1.44837,-5.38346 1.44837,-5.38346c0,0 -4.168,-2.9662 -3.61442,-4.24759c0.55116,-1.28029 5.56753,-0.28426 5.56753,-0.28426c0,0 1.53402,-4.88183 2.92165,-4.75207c1.39063,0.12672 1.9954,5.20457 1.9954,5.20457c0,0 5.1135,-0.04722 5.41949,1.31126z"/><path d="M295.56165,222.29785c0,-8.43155 6.83512,-15.26667 15.26667,-15.26667c8.43155,0 15.26667,6.83512 15.26667,15.26667c0,8.43155 -6.83512,15.26667 -15.26667,15.26667c-8.43155,0 -15.26667,-6.83512 -15.26667,-15.26667z"/></g><g stroke-linecap="butt"><path d="M313.47512,219.48091c0,0 15.64791,-3.99714 20.84156,-11.75869c5.19365,-7.76155 -1.83572,-16.64421 -1.83572,-16.64421l2.84226,-2.04918c0,0 5.76376,11.33456 0.7456,19.87486c-3.93219,6.69213 -16.25144,13.52803 -16.25144,13.52803z" fill="#ffffff" stroke="none" stroke-width="0"/><path d="M340.34369,185.70054c0.30482,1.36198 -4.33937,3.50725 -4.33937,3.50725c0,0 1.62939,4.84876 0.43026,5.55936c-1.19911,0.71053 -4.6731,-3.04061 -4.6731,-3.04061c0,0 -4.11012,3.04395 -5.15582,2.12554c-1.04693,-0.92088 1.44837,-5.38346 1.44837,-5.38346c0,0 -4.168,-2.9662 -3.61442,-4.24759c0.55116,-1.28029 5.56753,-0.28426 5.56753,-0.28426c0,0 1.53402,-4.88183 2.92165,-4.75207c1.39063,0.12672 1.9954,5.20457 1.9954,5.20457c0,0 5.1135,-0.04722 5.41949,1.31126z" fill="#ffffff" stroke="none" stroke-width="2.57572"/><path d="M295.56165,222.29785c0,-8.43155 6.83512,-15.26667 15.26667,-15.26667c8.43155,0 15.26667,6.83512 15.26667,15.26667c0,8.43155 -6.83512,15.26667 -15.26667,15.26667c-8.43155,0 -15.26667,-6.83512 -15.26667,-15.26667z" fill="#ffffff" stroke="none" stroke-width="1"/><g fill="#000000" stroke="#000000" stroke-width="1"><path d="M299.8623,222.44527c0,-6.28793 5.09738,-11.38531 11.38531,-11.38531c6.28793,0 11.38531,5.09738 11.38531,11.38531c0,6.28793 -5.09738,11.38531 -11.38531,11.38531c-6.28793,0 -11.38531,-5.09738 -11.38531,-11.38531zM314.12523,229.82697c4.56048,0 8.25748,-3.697 8.25748,-8.25748c0,-4.56048 -3.697,-8.25748 -8.25748,-8.25748c-4.56048,0 -8.25748,3.697 -8.25748,8.25748c0,4.56048 3.697,8.25748 8.25748,8.25748z"/><path d="M311.1225,221.31927c0,-2.07295 1.68045,-3.7534 3.7534,-3.7534c2.07295,0 3.7534,1.68045 3.7534,3.7534c0,2.07295 -1.68045,3.7534 -3.7534,3.7534c-2.07295,0 -3.7534,-1.68045 -3.7534,-3.7534z"/></g></g><path d="M358.11724,117.71554c0.083,2.44045 1.64094,7.41044 2.05653,10.54277c1.1445,8.62624 4.12634,18.20035 4.12634,18.20035c0,0 -16.95407,-17.41097 -13.93347,-27.09261c0.8734,-2.79944 7.6676,-4.09096 7.7506,-1.65051z" fill="#000000" stroke="none" stroke-width="0" stroke-linecap="butt"/><path d="M354.73233,127.33678c0.07139,2.19666 1.41134,6.67019 1.76878,9.48962c0.98437,7.76453 3.54898,16.38226 3.54898,16.38226c0,0 -14.58187,-15.67173 -11.98391,-24.38624c0.75119,-2.5198 6.59476,-3.6823 6.66614,-1.48564z" fill="#000000" stroke="none" stroke-width="0" stroke-linecap="butt"/><g fill="#000000" stroke="none" stroke-width="0" stroke-linecap="butt"><path d="M351.23886,98.23775c0.44299,-2.68383 5.05481,-4.10176 5.25092,-1.78583c0.19611,2.31594 1.5533,6.99328 2.01814,9.95709c1.28014,8.16218 3.88126,17.17307 3.88126,17.17307c0,0 -12.68241,-16.06248 -11.15034,-25.34432z"/><path d="M348.8712,87.67661c0.1262,-3.40405 5.58314,-6.18592 6.18638,-3.37843c0.60323,2.8075 3.00498,8.26172 4.04031,11.8066c2.85123,9.76233 7.46155,20.27295 7.46155,20.27295c0,0 -18.12473,-16.92841 -17.68826,-28.70111z"/></g><path d="M290.44896,119.36606c3.0206,9.68164 -13.93347,27.09261 -13.93347,27.09261c0,0 2.98184,-9.57411 4.12634,-18.20035c0.41559,-3.13233 1.97353,-8.10232 2.05653,-10.54277c0.083,-2.44045 6.8772,-1.14893 7.7506,1.65051z" fill="#000000" stroke="none" stroke-width="0" stroke-linecap="butt"/><path d="M286.08328,127.33678c0.07138,-2.19666 5.91495,-1.03416 6.66614,1.48564c2.59796,8.71451 -11.98391,24.38624 -11.98391,24.38624c0,0 2.56461,-8.61773 3.54898,-16.38226c0.35744,-2.81943 1.69739,-7.29296 1.76878,-9.48962z" fill="#000000" stroke="none" stroke-width="0" stroke-linecap="butt"/><g fill="#000000" stroke="none" stroke-width="0" stroke-linecap="butt"><path d="M289.57675,98.23775c1.53207,9.28185 -11.15034,25.34432 -11.15034,25.34432c0,0 2.60112,-9.0109 3.88126,-17.17307c0.46484,-2.96381 1.82203,-7.64115 2.01814,-9.95709c0.19612,-2.31593 4.80793,-0.898 5.25092,1.78583z"/><path d="M291.94441,87.67661c0.43647,11.7727 -17.68826,28.70111 -17.68826,28.70111c0,0 4.61032,-10.51062 7.46155,-20.27295c1.03533,-3.54487 3.43708,-8.99909 4.04031,-11.8066c0.60324,-2.80749 6.06018,-0.02563 6.18638,3.37843z"/></g><path d="M317.51459,63.38315c44.64134,-0.62217 41.42884,43.81893 41.28088,51.10697c-0.48401,23.84158 -14.21538,44.0222 -14.21538,44.0222l-0.09205,-3.70421c0,0 -7.0601,11.01795 -24.35066,10.87154c-16.30625,-0.25547 -26.07151,-10.6752 -26.07151,-10.6752l-0.1162,2.65484c0,0 -3.89477,-3.29276 -6.18145,-9.70754c0,0 -8.04985,-3.23123 -7.92536,-28.88132c0.00403,-0.83097 -3.9646,-55.10699 37.67173,-55.68728z" fill="#000000" stroke="none" stroke-width="1.5" stroke-linecap="butt"/><path d="M292.04111,123.0662c-0.57709,-7.29323 0.335,-17.15448 0.335,-17.15448c0,0 3.41059,-0.04124 13.91429,-3.14424c8.0696,-2.38394 20.54731,-9.48722 20.54731,-9.48722c0,0 -2.16005,3.00503 -3.40781,4.46015c-1.32651,1.54696 -3.99292,4.56297 -3.99292,4.56297c0,0 7.838,-1.66761 14.67476,-4.72931c8.56837,-3.53575 10.59252,-6.05309 12.95042,-4.5927c2.7829,1.72362 1.03006,23.1827 0.71846,28.74062c-0.42163,5.66922 -2.53327,9.49969 -3.15031,12.52053c-0.61704,3.02084 -0.4096,6.13662 -2.20622,16.0397c-1.12121,6.18021 -4.16183,8.92466 -10.01942,14.66081c-5.85759,5.73616 -9.05378,9.25275 -13.01359,9.32173c-3.81077,0.06639 -8.93565,-5.1002 -13.93542,-10.38244c-5.32393,-5.62474 -8.87489,-8.47713 -9.71551,-15.13975c-0.75707,-6.00039 -0.77653,-9.90853 -1.12266,-15.24835c-0.25298,-3.90273 -2.26119,-6.44504 -2.57636,-10.42801z" fill="#ffffff" stroke="#000000" stroke-width="1.5" stroke-linecap="butt"/><path d="M339.61107,109.94584c0,0 1.52429,0.31807 4.2558,1.11029c2.49492,0.72361 4.44935,1.74403 4.44935,1.74403l0.1951,1.17035c0,0 -7.24963,-3.12997 -15.1158,-2.4706c-6.2896,0.52724 -9.96319,2.8124 -9.96319,2.8124l0.04575,-4.17683c0,0 3.12748,-1.70421 7.86366,-1.85557c4.90428,-0.15672 8.09084,0.59125 8.09084,0.59125z" fill="#000000" stroke="none" stroke-width="1.5" stroke-linecap="butt"/><path d="M319.67327,152.49327c-1.03376,0 -3.5381,-3.26042 -3.7867,-5.3637c-0.22243,-1.88186 1.31512,-3.82799 3.7867,-3.82799c2.47159,0 4.2021,0.49077 4.02999,4.18853c-0.14607,3.13818 -1.55841,5.00317 -4.02999,5.00317z" fill="#ffffff" stroke="#000000" stroke-width="1.15" stroke-linecap="butt"/><path d="M293.74077,133.18938c0,0 -4.93211,-3.51705 -6.16417,-8.97502c-1.29636,-5.74284 -1.46118,-9.7328 0.48013,-9.99193c1.94131,-0.25915 2.70321,2.37692 3.73262,8.35569c1.0294,5.97877 1.95143,10.61127 1.95143,10.61127z" fill="#ffffff" stroke="#000000" stroke-width="1" stroke-linecap="butt"/><path d="M293.53816,129.24183c0,0 -3.56385,-2.92338 -4.31816,-8.45061c-0.42079,-3.08327 2.15675,-2.28016 2.15675,-2.28016" fill="none" stroke="#000000" stroke-width="0.25" stroke-linecap="round"/><path d="M300.51299,112.04212c0,0 3.36963,-1.819 8.03244,-2.28178c5.16698,-0.51283 7.76823,-0.06628 7.76823,-0.06628l0.29508,4.13747c0,0 -3.83554,-0.68065 -8.01795,-0.52113c-5.59346,0.21333 -6.64488,1.43293 -10.89774,1.89119c-3.64408,0.39266 -6.73723,0.15884 -6.73723,0.15884l-0.02589,-1.23155c0,0 3.59517,0.07398 5.23371,-0.06836c1.35239,-0.11749 3.9757,-0.93808 3.9757,-0.93808z" fill="#000000" stroke="none" stroke-width="1.5" stroke-linecap="butt"/><path d="M347.97389,122.57817c1.0294,-5.97877 1.7913,-8.61483 3.73262,-8.35569c1.94131,0.25914 1.77649,4.24909 0.48013,9.99193c-1.23206,5.45797 -6.16417,8.97502 -6.16417,8.97502c0,0 0.92203,-4.6325 1.95143,-10.61127z" fill="#ffffff" stroke="#000000" stroke-width="1" stroke-linecap="butt"/><path d="M348.38642,118.51111c0,0 2.57754,-0.80312 2.15675,2.28016c-0.75431,5.52723 -4.31816,8.45061 -4.31816,8.45061" fill="none" stroke="#000000" stroke-width="0.25" stroke-linecap="round"/><path d="M335.3832,160.37113c0.04043,3.11799 -6.49863,5.73084 -14.60541,5.83596c-8.10678,0.10512 -14.71139,-2.33729 -14.75182,-5.45529c-0.04043,-3.11799 6.49863,-5.73084 14.60541,-5.83596c8.10678,-0.10512 14.71139,2.33729 14.75182,5.45529z" fill="#ffffff" stroke="none" stroke-width="NaN" stroke-linecap="butt"/><g stroke="#000000"><path d="M320.95533,153.69642c0.24688,0.01505 0.59397,-1.13203 2.32503,-1.6561c1.67296,-0.50647 4.05775,-1.1124 5.52668,-0.99955c1.62342,0.40396 10.84529,2.97577 10.84529,2.97577c0,0 -4.52378,1.88234 -8.81698,2.67185c-4.29319,0.78951 -7.71365,1.10345 -10.31876,1.03548c-3.30266,-0.08617 -8.76095,-0.72831 -12.25096,-1.45678c-3.49001,-0.72846 -8.98199,-3.97201 -8.98199,-3.97201c0,0 6.96343,-1.05559 9.6108,-1.72609c2.2262,-0.56383 6.34713,0.63219 8.98265,1.25983c2.82393,0.67252 2.83273,1.85261 3.07822,1.86757z" fill="#ffffff" stroke-width="1.4" stroke-linecap="butt"/><path d="M298.3336,152.9842c0,0 4.9448,1.80384 7.58016,3.23684c3.91519,2.12892 4.77326,3.7929 9.10765,6.15451c2.46063,1.34068 8.40476,1.47686 10.61743,-0.10854c3.41319,-2.44557 4.47059,-3.15777 8.33464,-5.12941c3.71758,-1.89689 6.90379,-2.65331 6.90379,-2.65331c0,0 -4.57997,17.29387 -21.05537,17.13819c-16.47539,-0.15567 -21.4883,-18.63828 -21.4883,-18.63828z" fill="#ffffff" stroke-width="1.9" stroke-linecap="butt"/><path d="M334.80014,155.87374c0,0 -8.26988,5.13297 -14.51513,4.68855c-7.21965,-0.51376 -13.62721,-4.4665 -13.62721,-4.4665" fill="none" stroke-width="0.5" stroke-linecap="round"/></g><path d="M323.27535,122.3996c0,0 0.1026,3.96976 0.00576,7.12662c-0.19174,6.25113 -1.08147,27.7607 -1.08147,27.7607l-2.98167,0.00864c0,0 -0.80294,-4.17274 -1.12322,-9.49979c-0.43353,-7.21063 -0.4495,-16.29321 -0.76344,-19.63229c-0.29758,-3.16513 -0.89593,-5.71453 -0.89593,-5.71453" fill="#ffffff" stroke="#000000" stroke-width="1.3" stroke-linecap="round"/><g stroke="none" stroke-width="0" stroke-linecap="butt"><path d="M316.46463,125.28073v-5.17158c0,0 2.65697,-0.4497 3.85907,-0.4497c1.05432,0 3.56222,0.4497 3.56222,0.4497v5.17158c0,0 -2.56014,-0.4497 -3.67226,-0.4497c-1.16157,0 -3.74903,0.4497 -3.74903,0.4497z" fill="#000000"/><g><path d="M287.64443,130.93628l8.69177,-23.44042l22.69033,8.41363l-8.69177,23.44041z" fill="#000000"/><path d="M297.55302,139.83092l-10.42888,-22.72089l21.99382,-10.09515l10.42888,22.72088z" fill="#000000"/><path d="M290.49734,129.5702l7.11145,-19.17853l18.56481,6.88388l-7.11144,19.17853z" fill="#c5c556"/><path d="M298.60438,136.8476l-8.53272,-18.58982l17.99493,-8.25967l8.53272,18.58982z" fill="#c5c556"/></g><g><path d="M329.73622,139.3499l-8.69177,-23.44041l22.69033,-8.41363l8.69176,23.44042z" fill="#000000"/><path d="M320.52414,129.73575l10.42888,-22.72088l21.99382,10.09515l-10.42888,22.72089z" fill="#000000"/><path d="M331.00878,136.45407l-7.11144,-19.17853l18.56481,-6.88388l7.11145,19.17853z" fill="#c5c556"/><path d="M323.47168,128.58793l8.53272,-18.58982l17.99493,8.25967l-8.53272,18.58982z" fill="#c5c556"/></g><path d="M305.47404,113.29583l2.17671,-2.30973l2.52727,4.85158l5.17168,1.39632l-1.67672,2.64306l-4.96544,-2.37809z" fill="#ffff85"/><path d="M339.45374,113.18294l2.45376,-2.01296l1.88723,5.13452l4.95112,2.04511l-2.00041,2.40739l-4.62122,-2.99252z" fill="#ffff85"/></g><path d="M320.3367,69.78816c-8.8623,-2.57187 -15.95164,-22.94694 -15.95164,-22.94694c0,0 6.40465,6.74276 12.78476,11.73299c2.31672,1.81203 5.63745,5.31932 7.53762,6.5617c1.90017,1.24238 -1.80822,5.3959 -4.37074,4.65224z" fill="#000000" stroke="none" stroke-width="0" stroke-linecap="butt"/><path d="M315.4898,67.87126c-6.10852,-0.42533 -13.56361,-12.64598 -13.56361,-12.64598c0,0 5.09941,3.47509 9.93716,5.81697c1.75666,0.85038 4.40222,2.65946 5.80884,3.19879c1.40662,0.53932 -0.41612,3.75321 -2.18239,3.63022z" fill="#000000" stroke="none" stroke-width="0" stroke-linecap="butt"/></g></g></g></svg>