<svg version="1.1" xmlns="http://www.w3.org/2000/svg" xmlns:xlink="http://www.w3.org/1999/xlink" width="210.5853" height="196.30461" viewBox="0,0,210.5853,196.30461"><defs><radialGradient cx="272.41588" cy="151.99893" r="17.41585" gradientUnits="userSpaceOnUse" id="color-1"><stop offset="0" stop-color="#000000"/><stop offset="1" stop-color="#000000" stop-opacity="0"/></radialGradient><linearGradient x1="283.0363" y1="176.88973" x2="289.08198" y2="189.84316" gradientUnits="userSpaceOnUse" id="color-2"><stop offset="0" stop-color="#151515"/><stop offset="1" stop-color="#151515" stop-opacity="0"/></linearGradient></defs><g transform="translate(-214.70735,-75.61805)"><g stroke-miterlimit="10"><path d="M229.47417,271.06829v-161.13649h180.69788v161.13649z" fill-opacity="0.01" fill="#000000" stroke="none" stroke-width="0" stroke-linecap="butt"/><g stroke="none" stroke-width="0" stroke-linecap="butt"><path d="M394.89359,95.30301c2.52176,2.67911 2.47881,6.81562 -6.46596,15.23506c-8.94477,8.41944 -23.56065,18.08082 -26.08242,15.40171c-2.52176,-2.67911 8.00553,-16.68419 16.9503,-25.10363c8.94477,-8.41944 13.07631,-8.21225 15.59808,-5.53314z" fill="#ffffff"/><path d="M394.80662,95.21061c0.93665,0.9951 0.99537,2.46124 0.13114,3.27471c-0.86423,0.81347 -2.32414,0.66623 -3.26079,-0.32886c-0.93665,-0.9951 -0.99537,-2.46124 -0.13114,-3.27471c0.86423,-0.81347 2.32414,-0.66623 3.26079,0.32886z" fill="#000000"/></g><g><path d="M332.40919,161.84724c28.78164,10.61494 69.9382,22.89176 53.83765,50.52603c-17.20123,29.52345 -87.16258,19.00103 -110.31281,7.45083c-28.93597,-14.43684 -57.41588,-89.01355 -19.53646,-100.10875c54.64542,-16.00609 24.6452,23.18747 76.01162,42.13188z" fill="#191919" stroke="none" stroke-width="0" stroke-linecap="butt"/><path d="M289.82872,151.67475c0.12899,8.58844 -7.56243,15.69591 -17.17927,15.87494c-9.61684,0.17905 -17.51741,-6.63811 -17.6464,-15.22655c-0.12899,-8.58844 7.56243,-15.69591 17.17926,-15.87494c9.61684,-0.17905 17.51741,6.63811 17.6464,15.22656z" fill="url(#color-1)" stroke="none" stroke-width="0" stroke-linecap="butt"/><g stroke="none" stroke-width="0" stroke-linecap="butt"><path d="M288.35467,151.3687c0,4.43908 -4.83212,10.45793 -16.61344,11.67915c-11.36191,1.17774 -15.92473,-7.04781 -15.92473,-11.67915c0,-9.07041 7.28391,-16.42343 16.26907,-16.42343c8.98516,0 16.26908,7.35302 16.26908,16.42343z" fill="#ffffff"/><path d="M275.97516,150.38212c0,4.41965 -3.46633,8.00247 -7.74226,8.00247c-4.27593,0 -7.74225,-3.58282 -7.74225,-8.00247c0,-4.41965 3.46632,-8.00247 7.74225,-8.00247c4.27593,0 7.74226,3.58282 7.74226,8.00247z" fill="#000000"/><path d="M252.41819,149.67255l0.31737,-15.18282l24.894,-4.53943l11.51722,11.34601l-14.94255,10.7146l-21.78605,-2.33837z" fill="#191919"/></g><path d="M268.03747,186.13231l0.47736,-2.58473c0,0 9.41166,-9.65338 14.00021,-11.75714c5.04844,-2.31463 17.38118,0.02725 17.38118,0.02725l4.44569,3.31663c0,0 -14.8129,-0.00484 -20.03719,2.39042c-4.25742,1.95196 -16.26725,8.60758 -16.26725,8.60758z" fill="url(#color-2)" stroke="none" stroke-width="0" stroke-linecap="butt"/><g><path d="M268.18346,184.61115c-0.03715,-1.18558 5.01796,-14.84027 14.38477,-17.98766c9.36681,-3.14739 19.49827,5.40437 19.53544,6.58995c0.03715,1.18558 -8.75136,-5.992 -18.11816,-2.8446c-9.36681,3.14739 -15.76488,15.42789 -15.80204,14.24231z" fill="#ecec68" stroke="none" stroke-width="0" stroke-linecap="butt"/><path d="M269.81773,182.84226c0,0 6.23373,-11.4406 13.2002,-14.40966c8.35267,-2.71816 17.07697,3.90407 17.07697,3.90407" fill="none" stroke="#d9d95f" stroke-width="1" stroke-linecap="round"/></g><path d="M240.77891,136.35207l-4.9242,-29.14453l21.99547,19.41559c0,0 -4.9171,5.10778 -7.88655,6.80007c-2.69417,1.5354 -9.18472,2.92887 -9.18472,2.92887z" fill="#191919" stroke="none" stroke-width="0" stroke-linecap="butt"/><path d="M272.94681,121.11366l29.95938,-18.32181l-8.57877,31.08398c0,0 -8.76517,-2.6195 -12.48419,-4.83939c-3.37425,-2.01409 -8.89641,-7.92277 -8.89641,-7.92277z" fill="#191919" stroke="none" stroke-width="0" stroke-linecap="butt"/><path d="M253.38266,122.36708l11.67426,-31.51418l14.45146,30.27736c0,0 -8.91125,2.656 -13.45567,2.87113c-4.12311,0.1952 -12.67004,-1.63431 -12.67004,-1.63431z" fill="#191919" stroke="none" stroke-width="0" stroke-linecap="butt"/><path d="M240.15173,154.16377l-25.44438,-13.05086l27.74045,-5.56544c0,0 1.12688,6.69134 0.72748,9.92953c-0.36236,2.93799 -3.02356,8.68678 -3.02356,8.68678z" fill="#191919" stroke="none" stroke-width="0" stroke-linecap="butt"/><path d="M242.9706,170.60424l-23.2997,-2.07126l19.23117,-12.70216c0,0 2.93782,4.7122 3.64552,7.28194c0.64209,2.33152 0.423,7.49147 0.423,7.49147z" fill="#191919" stroke="none" stroke-width="0" stroke-linecap="butt"/><path d="M254.65742,191.7626l-31.02562,5.83471l20.2407,-23.52924c0,0 5.56964,5.04391 7.44562,8.12176c1.70206,2.79252 3.33929,9.57277 3.33929,9.57277z" fill="#191919" stroke="none" stroke-width="0" stroke-linecap="butt"/><path d="M271.65086,207.50323l-28.4282,15.58741l10.80618,-27.3291c0,0 7.49385,2.50166 10.5591,4.54403c2.78107,1.85306 7.06293,7.19765 7.06293,7.19765z" fill="#191919" stroke="none" stroke-width="0" stroke-linecap="butt"/><path d="M291.21898,220.99304l-24.18349,23.60493l1.42324,-30.89685c0,0 8.77448,0.54882 12.73349,1.8172c3.59198,1.1508 10.02675,5.47473 10.02675,5.47473z" fill="#191919" stroke="none" stroke-width="0" stroke-linecap="butt"/><path d="M314.57463,225.85782l-15.25119,29.39594l-9.28315,-31.23706c0,0 8.67788,-1.55253 12.94547,-1.23228c3.87197,0.29056 11.58886,3.0734 11.58886,3.0734z" fill="#191919" stroke="none" stroke-width="0" stroke-linecap="butt"/><path d="M343.28864,228.94558l-12.25329,30.4168l-13.78395,-30.87052c0,0 8.92572,-2.05468 13.45475,-1.97577c4.10915,0.07161 12.58249,2.42949 12.58249,2.42949z" fill="#191919" stroke="none" stroke-width="0" stroke-linecap="butt"/><path d="M364.25699,224.79174l-5.25196,31.23124l-15.46469,-27.26615c0,0 6.77727,-3.47819 10.38081,-4.1679c3.26947,-0.62576 10.33585,0.20281 10.33585,0.20281z" fill="#191919" stroke="none" stroke-width="0" stroke-linecap="butt"/><path d="M378.83086,215.06909l1.42258,31.57338l-20.81685,-23.43405c0,0 5.88724,-4.79208 9.26075,-6.20787c3.06077,-1.28454 10.13352,-1.93145 10.13352,-1.93145z" fill="#191919" stroke="none" stroke-width="0" stroke-linecap="butt"/><path d="M376.96043,183.30188l34.40847,-12.21931l-18.85702,30.52019c0,0 -7.28587,-4.77047 -9.99097,-7.9538c-2.45431,-2.88821 -5.56049,-10.34708 -5.56049,-10.34708z" fill="#191919" stroke="none" stroke-width="0" stroke-linecap="butt"/><path d="M384.29361,189.37852l40.99904,15.84353l-41.4597,12.95984c0,0 -2.81613,-10.0391 -2.73602,-15.04927c0.07269,-4.54569 3.19667,-13.75409 3.19667,-13.75409z" fill="#191919" stroke="none" stroke-width="0" stroke-linecap="butt"/><path d="M384.20615,195.65446l20.20917,38.74354l-39.7585,-17.42656c0,0 4.57953,-9.37936 7.98,-13.08733c3.08523,-3.36422 11.56933,-8.22966 11.56933,-8.22966z" fill="#191919" stroke="none" stroke-width="0" stroke-linecap="butt"/><path d="M286.43521,137.16082l28.37244,-17.33138l-9.93758,29.17358c0,0 -7.74087,-2.40683 -10.9475,-4.46671c-2.90935,-1.86891 -7.48736,-7.37549 -7.48736,-7.37549z" fill="#191919" stroke="none" stroke-width="0" stroke-linecap="butt"/><path d="M301.24552,149.91807l31.03019,-15.5632l-14.16753,31.02159c0,0 -7.44707,-3.65128 -10.38023,-6.34018c-2.66124,-2.43961 -6.48243,-9.11821 -6.48243,-9.11821z" fill="#191919" stroke="none" stroke-width="0" stroke-linecap="butt"/><path d="M320.13316,165.52953l31.4334,-21.92835l-8.81554,34.05471c0,0 -9.25366,-2.16289 -13.18789,-4.27221c-3.56951,-1.91376 -9.42998,-7.85415 -9.42998,-7.85415z" fill="#191919" stroke="none" stroke-width="0" stroke-linecap="butt"/><path d="M359.77626,181.9863l20.61708,-24.21221l-0.74851,31.29058c0,0 -7.62405,-0.43904 -11.08006,-1.67027c-3.13563,-1.1171 -8.7885,-5.4081 -8.7885,-5.4081z" fill="#191919" stroke="none" stroke-width="0" stroke-linecap="butt"/><path d="M344.57793,175.82769l18.89402,-19.58701l-0.68595,25.3132c0,0 -6.98688,-0.35517 -10.15405,-1.35121c-2.87357,-0.9037 -8.054,-4.375 -8.054,-4.375z" fill="#191919" stroke="none" stroke-width="0" stroke-linecap="butt"/></g><path d="M368.14221,196.65738l12.32537,-14.60413l-0.44748,18.8736c0,0 -4.55784,-0.26482 -6.62392,-1.00746c-1.87456,-0.6738 -5.25398,-3.26201 -5.25398,-3.26201z" fill="#191919" stroke="none" stroke-width="0" stroke-linecap="butt"/><path d="M375.7602,226.84109c0.20024,24.5046 -28.09942,35.45823 -56.45906,42.1208c-15.14322,3.55761 -69.10047,6.89959 -76.37167,-8.97531c-9.44788,-20.62716 31.19735,-73.3631 56.79468,-79.58689c32.5714,-7.91947 66.90857,31.16635 66.90857,31.16635c0,0 9.03447,3.89275 9.12748,15.27505z" fill="#d7d75f" stroke="none" stroke-width="0" stroke-linecap="butt"/><path d="M386.08073,150.02691c1.26891,6.22802 10.8001,16.00373 3.69123,33.8077c-6.38118,15.98149 -20.58333,17.91773 -20.58333,17.91773c0,0 -17.48668,16.58842 -29.59759,19.05591c-32.46846,6.61518 -14.92811,-37.02757 -14.92811,-37.02757c0,0 -7.55388,-12.21962 -8.15643,-23.67475c-1.10114,-20.93407 7.04573,-31.42098 21.70859,-40.74796c10.99426,-6.9934 20.10018,-6.90182 27.35577,-2.9743c8.36882,4.53012 -2.916,22.11485 0.58783,31.86589c1.18345,3.2935 19.28468,-1.35086 19.92203,1.77736z" fill="#d7d75f" stroke="none" stroke-width="NaN" stroke-linecap="butt"/><path d="M414.13326,170.34455c-3.96542,2.50823 -8.4185,-8.29643 -23.43487,-11.77747c-23.40217,-5.425 -38.78169,-0.17545 -39.69614,-2.09808c-0.20217,-0.42504 -3.46773,-3.82597 -2.23898,-5.50012c6.5432,-8.91496 9.37833,-2.09324 13.07039,-3.78215c18.07622,-8.26883 61.98043,17.03445 52.29961,23.15783z" fill="#89893c" stroke="none" stroke-width="0" stroke-linecap="butt"/><path d="M363.52591,148.07423c-2.42003,0.98958 -4.19206,8.96631 -9.0471,9.94662c-3.36068,0.67857 -6.82448,-4.70484 -6.92932,-5.40836c-0.60892,-4.08607 11.12662,-20.68839 10.65294,-38.39028c-0.72431,-27.06821 -11.65532,-36.49144 -4.88223,-38.44173c13.68289,-3.93994 27.96191,65.033 10.20571,72.29374z" fill="#9b9b44" stroke="none" stroke-width="0" stroke-linecap="butt"/><path d="M320.87174,210.35314c3.24689,12.1461 -16.19847,26.11872 -40.59579,32.08155c-24.39732,5.96282 -44.50787,1.65783 -47.75476,-10.48827c-3.24689,-12.1461 13.89894,-26.82627 38.29627,-32.7891c24.39732,-5.96282 46.8074,-0.95028 50.05429,11.19582z" fill="#c2c255" stroke="none" stroke-width="0" stroke-linecap="butt"/><path d="M324.42539,198.38454c4.49449,11.9853 -11.89548,29.21386 -36.60803,38.48107c-24.71255,9.2672 -52.98857,9.00951 -57.48306,-2.9758c-1.82195,-4.85853 -2.54205,-19.43745 8.01921,-28.98744c6.06068,-5.48036 17.50452,-3.73812 17.50452,-3.73812l8.24962,-4.62773c0,0 5.28138,-6.22204 9.55637,-9.08766c18.76444,-12.57823 46.26688,-1.04961 50.76138,10.93569z" fill="#d7d75f" stroke="none" stroke-width="0" stroke-linecap="butt"/><path d="M366.04919,212.5155c0,0 -5.5969,7.10175 -18.06001,4.43187c-13.13843,-2.81455 -13.77036,-19.22459 -13.77036,-19.22459c0,0 6.29046,13.97286 14.92849,13.97286c8.63803,0 16.90187,0.81987 16.90187,0.81987z" fill="#c2c255" stroke="none" stroke-width="0" stroke-linecap="butt"/><path d="M378.99613,205.10074c0,7.03734 -15.80559,12.32857 -27.60982,9.17638c-22.53303,-6.01719 -16.94227,-22.63626 -16.94227,-22.63626c0,0 2.55289,12.379 18.63893,14.31309c12.13049,1.4585 20.91315,-9.64056 20.91315,-2.60322z" fill="#191919" stroke="none" stroke-width="NaN" stroke-linecap="butt"/><path d="M262.87632,214.54016c4.87591,8.15699 26.27854,12.09821 26.27854,12.09821c0,0 -23.63841,4.45028 -31.50481,-10.52689c-5.44852,-11.52263 -0.94964,-19.22558 -0.94964,-19.22558c0,0 1.74389,10.23989 6.1759,17.65426z" fill="#c2c255" stroke="none" stroke-width="0" stroke-linecap="butt"/><path d="M272.75274,212.00011c12.4176,11.90464 23.8296,11.7667 23.8296,11.7667c0,0 -16.95116,9.07127 -31.561,-3.28452c-13.75041,-11.62895 -10.83468,-26.92578 -4.62976,-32.20042c6.20491,-5.27464 -0.46184,11.42493 12.36116,23.71823z" fill="#191919" stroke="none" stroke-width="NaN" stroke-linecap="butt"/><path d="M341.01834,128.7034c-1.23595,2.59801 -3.63006,4.04182 -5.34739,3.22484c-1.71733,-0.81698 -2.10757,-3.58539 -0.87162,-6.1834c1.23595,-2.59801 3.63006,-4.04183 5.34739,-3.22484c1.71733,0.81698 2.10757,3.58539 0.87162,6.1834z" fill="#eded8c" stroke="none" stroke-width="0" stroke-linecap="butt"/><path d="M345.76694,120.95529c0,1.17032 -0.94873,2.11904 -2.11904,2.11904c-1.17032,0 -2.11904,-0.94873 -2.11904,-2.11904c0,-1.17032 0.94872,-2.11904 2.11904,-2.11904c1.17031,0 2.11904,0.94872 2.11904,2.11904z" fill="#eded8c" stroke="none" stroke-width="0" stroke-linecap="butt"/><path d="M316.11941,182.58202c0.33632,1.82222 -4.95329,0.7291 -11.37902,1.91507c-6.42573,1.18597 -11.55427,4.20192 -11.89059,2.37969c-0.33632,-1.82222 4.60012,-4.26083 11.02584,-5.4468c6.42573,-1.18597 11.90744,-0.67018 12.24376,1.15204z" fill="#eded8c" stroke="none" stroke-width="0" stroke-linecap="butt"/><path d="M288.49368,186.44012c0,1.07278 -0.86967,1.94245 -1.94245,1.94245c-1.07279,0 -1.94245,-0.86967 -1.94245,-1.94245c0,-1.07278 0.86967,-1.94245 1.94245,-1.94245c1.07278,0 1.94245,0.86966 1.94245,1.94245z" fill="#eded8c" stroke="none" stroke-width="0" stroke-linecap="butt"/><g stroke="none" stroke-width="0" stroke-linecap="butt"><path d="M377.97385,100.94771c2.52177,2.67911 2.47881,6.81562 -6.46596,15.23506c-8.94477,8.41944 -23.56065,18.08082 -26.08242,15.40171c-2.52177,-2.67912 8.00553,-16.68419 16.9503,-25.10363c8.94477,-8.41944 13.07631,-8.21225 15.59808,-5.53314z" fill="#ffffff"/><path d="M377.88688,100.85531c0.93665,0.9951 0.99537,2.46124 0.13114,3.27471c-0.86423,0.81347 -2.32414,0.66623 -3.26079,-0.32887c-0.93665,-0.9951 -0.99537,-2.46124 -0.13114,-3.27471c0.86423,-0.81347 2.32414,-0.66623 3.26079,0.32887z" fill="#000000"/></g></g></g></svg>