<svg version="1.1" xmlns="http://www.w3.org/2000/svg" xmlns:xlink="http://www.w3.org/1999/xlink" width="296.93117" height="231.69054" viewBox="0,0,296.93117,231.69054"><defs><linearGradient x1="186.6971" y1="213.83962" x2="463.63865" y2="213.83962" gradientUnits="userSpaceOnUse" id="color-1"><stop offset="0" stop-color="#8a833c"/><stop offset="1" stop-color="#81782d"/></linearGradient><linearGradient x1="294.08153" y1="212.23205" x2="332.14426" y2="217.90455" gradientUnits="userSpaceOnUse" id="color-2"><stop offset="0" stop-color="#7f772e"/><stop offset="1" stop-color="#8b843d"/></linearGradient><linearGradient x1="255.63951" y1="270.09361" x2="304.42463" y2="270.09361" gradientUnits="userSpaceOnUse" id="color-3"><stop offset="0" stop-color="#7f772e"/><stop offset="1" stop-color="#8b843d"/></linearGradient><linearGradient x1="249.80913" y1="242.20533" x2="312.66413" y2="242.20533" gradientUnits="userSpaceOnUse" id="color-4"><stop offset="0" stop-color="#7f772e"/><stop offset="1" stop-color="#8b843d"/></linearGradient><radialGradient cx="296.53704" cy="253.00273" r="32.93194" gradientUnits="userSpaceOnUse" id="color-5"><stop offset="0" stop-color="#8b843d"/><stop offset="1" stop-color="#7f772e"/></radialGradient></defs><g transform="translate(-167.44401,-66.31691)"><g stroke-miterlimit="10"><path d="M246.91667,248.08334c0,0 0,-17.74289 0,-36.66667c0,-6.17731 -5.33333,-12.14712 -5.33333,-18c0,-7.29273 5.33333,-14.21976 5.33333,-19c0,-14.43589 0,-37 0,-37h154v110.66667z" fill-opacity="0.01" fill="#000000" stroke="none" stroke-width="0" stroke-linecap="butt"/><g stroke="#000000" stroke-width="1.5" stroke-linecap="round"><path d="M386.54194,137.2555c0,0 3.56754,2.04442 6.12367,1.06501c0.63086,-0.24171 6.53695,-5.48736 7.27973,-5.76549c1.70443,-0.6382 -1.62901,6.22079 0.39728,5.7164c1.06657,-0.26549 1.51538,0.68967 2.72586,0.39633c1.22288,-0.29635 -4.43606,4.6854 -3.07911,4.38448c0.38382,-0.08512 4.96021,0.66013 7.22643,2.45169c2.58256,2.04166 2.89205,5.16321 3.37912,5.05184c1.74548,-0.39912 2.82118,-2.83474 4.60743,-3.48064c0.8508,-0.30764 5.53395,1.8668 6.3968,1.5506c1.17006,-0.42876 1.96791,-2.42834 3.07447,-2.89531c3.59872,-1.51867 3.44124,3.66295 7.10481,3.57271c1.05109,-0.02589 0.87545,-2.83543 1.66802,-2.78317c1.31757,0.08687 -0.13055,4.91492 2.02437,4.19961c9.96927,-3.30919 6.51304,1.29462 8.11074,2.24107c1.29709,0.76839 6.31668,-1.51117 7.33884,0.15252c0.7712,1.2552 3.15993,8.56632 3.1628,13.09492c0.00138,2.17566 1.64784,4.90653 1.48583,7.49795c-0.12653,2.02384 0.38422,4.14968 0.15571,6.34372c-0.38425,3.68929 -6.77195,7.27935 -6.03332,11.17445c0.71139,3.75136 -1.20104,7.76236 -0.39486,10.82691c1.41845,5.39191 3.43026,8.98397 4.54268,12.44802c1.15686,3.60244 -5.99658,15.19385 -4.6881,17.55285c4.84427,8.73352 3.52708,15.42578 6.63465,22.25838c0.72978,1.60458 7.28971,2.92275 7.8394,4.61346c0.43887,1.34981 -9.98298,3.62974 -15.86186,3.45066c-5.38049,-0.1639 -3.21349,-5.90514 -8.1438,-4.79567c-5.83184,1.31235 -10.31805,11.2959 -9.9223,12.51244c2.10576,6.47308 1.04406,12.13638 2.19792,15.10617c1.53206,3.94323 7.4499,5.83479 11.36425,6.67193c2.10033,0.44918 6.66839,1.34787 4.52848,1.60731c-5.55723,0.67375 -20.71354,1.2604 -27.90583,1.14717c-2.44611,-0.03851 -9.13927,0.97539 -12.03589,0.32292c-3.95505,-0.89088 -4.1386,-3.54302 -7.20238,-3.83907c-6.50728,-0.6288 -10.15004,1.09577 -17.17241,0.63342c-4.92957,-0.32457 -9.69842,1.22472 -15.03803,1.27783c-2.91321,0.02898 -6.97336,-1.48067 -9.06516,-1.45739c-4.76809,0.05306 -10.10377,1.05936 -11.06522,1.15641c-5.43755,0.5489 -14.8719,0.47803 -24.38497,0.57475c-2.61398,0.02658 -8.78274,0.32473 -11.52582,0.2609c-3.42329,-0.07967 -6.18323,3.83847 -14.25385,-1.65343c-2.34084,-1.59289 -3.58165,-0.25079 -5.90298,0.32058c-1.79894,0.44279 -4.66353,0.04964 -6.55089,-0.16683c-5.59652,-0.6419 -9.28627,-1.16909 -13.94773,-1.92753c-3.10199,-0.50471 -7.02182,-1.28528 -10.80675,-1.63754c-4.36273,-0.40602 -9.71071,-0.43079 -13.9164,-0.64264c-2.77097,-0.13958 -8.24032,-0.28476 -10.8227,-0.43563c-0.94941,-0.05547 -5.36082,1.13301 -6.2776,1.07481c-1.19833,-0.07607 -8.62307,-2.64319 -9.75161,-2.72018c-1.70804,-0.11653 -2.98582,-4.2747 -4.51942,-4.37947c-3.68097,-0.25146 -5.45323,-0.4672 -7.97057,-0.63835c-1.84499,-0.12545 -3.34297,-0.84717 -4.44341,-0.91607c-2.20595,-0.13815 -6.09932,0.65514 -10.00489,0.83137c-3.05042,0.13765 -6.51517,-0.34395 -6.51517,-0.34395c0,0 -0.32421,-2.37336 2.52657,-3.26689c3.2911,-1.03154 -1.86778,-1.19698 3.54699,-2.88855c1.44604,-0.45175 2.36069,-4.36005 4.08389,-4.8712c1.1004,-0.32642 5.72928,1.22668 6.91703,0.92092c1.76097,-0.45331 4.2654,-4.66306 5.66146,-3.57618c3.03752,2.36479 7.37073,-3.6863 10.53907,-4.26852c7.20703,-1.32436 12.74181,-1.64155 14.28984,-4.502c0.26594,-0.49142 -8.91776,-4.43518 -15.56445,-9.20095c-3.99569,-2.86497 -4.58071,-4.80451 -6.24425,-6.88433c-1.01476,-1.2687 -3.95941,-3.37152 -3.87892,-3.49447c0.59386,-0.9072 4.03084,-2.57888 6.43812,-4.36778c4.46192,-3.3158 8.77431,-7.0344 8.77431,-7.0344c0,0 -2.71111,-1.41977 -4.10602,-2.15027c-1.71941,-0.90043 1.39053,-1.81849 3.05647,-2.79617c1.93202,-1.13384 4.33172,-2.57254 5.66088,-3.48436c2.35376,-1.61471 5.85379,-4.7315 5.85379,-4.7315c0,0 -11.98939,-13.85533 -18.33378,-17.95463c-1.71677,-1.10925 -3.84928,0.06844 -3.82891,0.05c0.8485,-0.7682 1.64755,-2.47364 3.19231,-4.37306c0.9699,-1.19259 2.65512,-2.65024 3.51706,-3.41225c3.20471,-2.83319 8.52817,-6.11569 11.06512,-8.99756c1.83023,-2.07908 0.13453,-5.58013 1.86408,-7.40285c6.04067,-6.36607 -0.16955,4.72561 5.29624,1.17592c1.72152,-1.11801 0.54574,-6.63674 3.88829,-9.86834c3.71367,-3.59041 3.18572,3.91566 7.60432,1.29964c1.84547,-1.09261 1.53778,-6.04712 4.33978,-9.56559c1.50218,-1.88627 2.52743,-0.5506 4.49241,-1.55978c1.66343,-0.85431 4.39453,-4.18299 4.58265,-4.35977c2.86253,-2.68998 -0.43034,3.65338 2.4963,4.59403c1.23327,0.39639 2.17397,-3.68843 3.49428,-2.9564c1.28289,0.71129 -0.53009,3.17218 0.79882,4.21963c1.50432,1.18571 5.16899,0.9692 6.77247,2.39933c1.47803,1.31823 -1.58782,7.41596 -0.18021,8.89342c1.07413,1.12742 2.19735,0.64775 3.33863,1.66818c1.18359,1.05826 0.99549,5.82924 2.18326,6.82285c2.21044,1.84911 0.35812,3.42726 2.45445,4.29378c2.18618,0.90365 4.24446,-1.26799 4.35235,-3.96625c0.14111,-3.52971 -1.81864,-7.96057 1.30363,-7.58751c3.16579,0.37826 5.73574,13.09389 5.73574,13.09389c0,0 0.18496,-9.74652 3.9436,-10.95142c1.68608,-0.5405 4.6097,-0.83638 6.661,-1.48159c4.57571,-1.43927 -3.55401,-3.16951 2.1732,-4.75644c1.4401,-0.39902 2.95734,-9.25467 5.12392,-6.76681c0.66658,0.76542 -0.62329,3.02913 2.1479,3.61698c2.31953,0.49204 2.81858,-5.57345 6.0704,-5.58194c2.04224,-0.00532 2.81675,4.42749 5.15362,5.58931c3.27305,1.62725 7.93863,0.13114 8.73935,-0.00241c2.63576,-0.43958 5.28579,-1.75719 7.90084,-3.33178c4.99784,-3.00932 9.86781,-6.95736 14.26577,-7.50878c1.95578,-0.24522 2.50411,1.69997 4.24167,3.16469c0.87379,0.73658 1.91842,-0.45812 2.93306,0.04977c1.52589,0.7638 2.98395,3.02163 3.6911,2.69077c3.02033,-1.4131 4.87394,-3.85406 7.02239,-5.3698c3.16122,-2.23024 0.66658,-0.94667 2.42331,-2.80073c1.55823,-1.64456 3.65066,-1.91294 5.46183,-3.74626c2.14578,-2.17203 3.89673,-5.78675 3.89673,-5.78675zM300.95457,184.05741c-2.51123,1.70552 12.90789,1.91524 12.90789,4.95464c0,4.06972 -14.13319,10.02203 -10.07602,11.30177c0.33882,0.10687 0.68567,0.19854 1.03949,0.27406c0.00402,0.00258 0.0077,0.00513 0.01103,0.00769c1.42928,1.09786 2.82869,1.55305 4.35976,2.79582c5.14905,4.17949 6.94444,10.09678 11.99727,14.2088c2.14772,1.74784 5.23793,2.28071 7.83031,3.13533c1.26128,0.41581 1.91515,1.79118 2.60293,2.46847c0.68393,0.67348 -1.44655,-10.645 0.49568,-12.06977c3.02616,-2.21991 10.47796,4.91156 11.81481,5.90979c1.36259,1.01745 3.16279,6.11496 4.1544,4.18712c3.93818,-7.65647 4.62286,4.40703 5.70628,2.46732c0.64668,-1.1578 -0.35676,-2.58712 -0.24064,-3.8774c0.04206,-0.46743 0.7319,-0.79011 0.70283,-1.25833c-0.09013,-1.45231 -0.39833,-2.9279 -1.04543,-4.26211c-0.32887,-0.67807 -1.63095,-5.7035 -5.06793,-10.89077c-2.38025,-3.59242 -6.6893,-6.93844 -8.68014,-10.30678c-2.47895,-4.1942 -2.51463,-7.45758 -3.34704,-7.90468c-2.4083,-1.29351 -11.10969,-0.1856 -14.4296,-1.42276c-5.8037,-2.16273 -6.60196,-6.37133 -10.60762,-6.39093c-4.85773,-0.02378 -3.85528,3.33262 -9.04472,5.94576c-0.40422,0.20354 -0.76234,0.44863 -1.08355,0.72698zM258.74442,182.56047c-2.10298,-0.47064 -2.29339,1.56433 -3.81752,2.67897c-1.01701,0.74376 -2.57112,-0.73939 -3.70623,-0.01219c-0.98647,0.63197 -1.60543,3.4362 -1.92056,4.51842c-0.37609,1.29154 -3.93603,0.22973 -2.91788,2.05259c0.8123,1.45431 3.16843,3.56717 5.08438,3.79914c0.9347,0.11316 2.01243,0.4029 2.94873,0.20305c0.43236,-0.09229 0.97579,-0.67407 1.2666,-0.37317c1.0503,1.08675 2.60613,-0.24257 3.53712,1.338c1.44723,2.45701 1.94081,0.16278 6.42642,-2.51418c1.60388,-0.95719 2.83416,4.34677 3.2122,2.65468c0.25973,-1.16251 -2.67613,-6.29678 -3.07963,-7.6315c-1.46952,-4.86086 -3.70808,-4.22894 -6.78067,-6.72943z" fill="url(#color-1)"/><path d="M384.22197,243.46909c0,0 1.35411,-0.59852 2.24777,-0.46519c0.38978,0.05816 0.97704,0.34561 1.6112,0.38887c0.76632,0.05228 1.60116,-0.12919 2.23879,0.09556c0.62207,0.21926 1.05645,1.04815 1.05645,1.04815" fill="none"/><path d="M440.56145,181.96073c0,0 0.43441,-0.82889 1.05648,-1.04815c0.63763,-0.22473 1.47245,-0.04327 2.23877,-0.09556c0.63416,-0.04325 1.22143,-0.33072 1.6112,-0.38887c0.89366,-0.13333 2.24778,0.46518 2.24778,0.46518" fill="none"/><path d="M349.27061,192.56793c0,0 1.35412,-0.5985 2.24777,-0.46518c0.38978,0.05815 0.97704,0.34561 1.61121,0.38887c0.76632,0.05228 1.60115,-0.12919 2.23877,0.09555c0.62207,0.21926 1.05647,1.04816 1.05647,1.04816" fill="none"/><path d="M276.75958,207.64481c0,0 0.4344,-0.8289 1.05647,-1.04816c0.63763,-0.22473 1.47245,-0.04327 2.23877,-0.09556c0.63416,-0.04325 1.22143,-0.33072 1.61121,-0.38887c0.89366,-0.13333 2.24777,0.46518 2.24777,0.46518" fill="none"/><path d="M256.41477,171.5537c0,0 1.35412,-0.59851 2.24777,-0.46518c0.38978,0.05815 0.97705,0.34561 1.61121,0.38886c0.76632,0.05228 1.60115,-0.12919 2.23877,0.09556c0.62207,0.21926 1.05646,1.04815 1.05646,1.04815" fill="none"/><path d="M207.37854,273.35601c0,0 1.35413,-0.59851 2.24778,-0.46518c0.38978,0.05816 0.97704,0.3456 1.6112,0.38887c0.76632,0.05228 1.60115,-0.12919 2.23878,0.09555c0.62207,0.21925 1.05645,1.04816 1.05645,1.04816" fill="none"/></g><path d="" fill="#000000" stroke="none" stroke-width="1" stroke-linecap="butt"/><path d="" fill="#000000" stroke="#000000" stroke-width="0.3" stroke-linecap="butt"/><path d="" fill="#000000" stroke="#000000" stroke-width="0.3" stroke-linecap="butt"/><path d="" fill="#000000" stroke="#000000" stroke-width="0.3" stroke-linecap="butt"/><path d="" fill="#000000" stroke="#000000" stroke-width="0.3" stroke-linecap="butt"/><path d="" fill="#000000" stroke="#000000" stroke-width="0.3" stroke-linecap="butt"/><path d="" fill="#000000" stroke="#000000" stroke-width="0.3" stroke-linecap="butt"/><path d="" fill="#000000" stroke="#000000" stroke-width="0.3" stroke-linecap="butt"/><path d="" fill="#000000" stroke="#000000" stroke-width="0.3" stroke-linecap="butt"/><path d="" fill="#000000" stroke="#000000" stroke-width="0.3" stroke-linecap="butt"/><path d="" fill="#000000" stroke="#000000" stroke-width="0.3" stroke-linecap="butt"/><path d="" fill="#000000" stroke="#000000" stroke-width="0.3" stroke-linecap="butt"/><path d="" fill="#000000" stroke="#000000" stroke-width="0.3" stroke-linecap="butt"/><path d="" fill="#000000" stroke="#000000" stroke-width="0.3" stroke-linecap="butt"/><path d="" fill="#000000" stroke="#000000" stroke-width="0.3" stroke-linecap="butt"/><path d="" fill="#000000" stroke="#000000" stroke-width="0.3" stroke-linecap="butt"/><path d="" fill="#000000" stroke="#000000" stroke-width="0.3" stroke-linecap="butt"/><path d="" fill="#000000" stroke="#000000" stroke-width="0.3" stroke-linecap="butt"/><path d="" fill="#000000" stroke="#000000" stroke-width="0.3" stroke-linecap="butt"/><path d="" fill="#000000" stroke="#000000" stroke-width="0.3" stroke-linecap="butt"/><path d="" fill="#000000" stroke="#000000" stroke-width="0.3" stroke-linecap="butt"/><path d="" fill="#000000" stroke="#000000" stroke-width="0.3" stroke-linecap="butt"/><path d="" fill="#000000" stroke="#000000" stroke-width="0.3" stroke-linecap="butt"/><path d="" fill="#000000" stroke="#000000" stroke-width="0.3" stroke-linecap="butt"/><path d="M251.17047,227.06694c0,0 -12.66771,-11.85428 -19.41969,-17.5896c-6.42511,-5.45766 -22.70923,-14.34133 -22.70923,-14.34133l5.33587,-0.60097c0,0 12.3719,8.80715 18.53678,13.9525c6.16429,5.14485 19.17472,15.54252 19.17472,15.54252z" fill="#000000" stroke="none" stroke-width="0" stroke-linecap="butt"/><path d="M390.80846,261.32428c1.02032,-0.79091 2.09697,-1.67708 3.14371,-2.62787c7.30787,-6.63804 36.33681,-29.40739 36.33681,-29.40739l-9.18387,-26.19486l3.66183,-0.62211l7.73276,27.44463c0,0 -33.02571,26.41131 -39.31644,33.10507z" fill="#000000" stroke="none" stroke-width="0" stroke-linecap="butt"/><path d="M304.67704,187.95881l-27.03585,-113.84101l2.05056,-0.1955l27.03586,113.84102z" fill="#000000" stroke="#000000" stroke-width="0.5" stroke-linecap="butt"/><path d="M375.23572,81.22383c-8.30906,3.61815 -146.55996,63.81914 -146.55996,63.81914l-0.70032,-1.72005c0,0 139.1399,-60.97342 147.14343,-64.4807z" fill="#000000" stroke="#000000" stroke-width="0.5" stroke-linecap="butt"/><path d="M371.45815,95.53153l3.94185,-28.64847l1.16775,0.14524l-3.94185,28.64847z" fill="#000000" stroke="#000000" stroke-width="0.5" stroke-linecap="butt"/><path d="M368.9695,95.24392l3.94186,-28.64846l1.16776,0.14524l-3.94185,28.64847z" fill="#000000" stroke="#000000" stroke-width="0.5" stroke-linecap="butt"/><path d="M361.79465,105.24458l0.18857,-3.19999c0,0 1.04431,0.0895 1.2569,-0.76584c0.57081,-2.29669 0.90666,-7.52052 2.46868,-10.22096c2.43269,-4.20565 10.98374,-2.01546 12.30443,2.6226c0.5908,2.07476 -1.00677,6.03903 -0.98821,8.64251c0.01566,2.19611 1.51772,2.47156 1.51772,2.47156l-1.4992,1.79436c0,0 -1.1787,-1.83718 -0.76523,-4.74265c0.34206,-2.40355 0.92579,-5.70618 -0.15584,-7.8105c-0.94326,-1.83509 -1.92434,-3.34518 -4.34657,-3.55692c-1.90183,-0.16624 -3.23692,0.28484 -4.52442,1.6057c-2.39786,2.46 -2.57863,8.03034 -3.38618,11.05315c-0.51683,1.93463 -2.07071,2.10704 -2.07071,2.10704z" fill="#000000" stroke="#000000" stroke-width="0.5" stroke-linecap="butt"/><path d="M364.56869,108.49431c0.59499,-4.05495 1.66434,-11.29098 1.93294,-13.1214c0.30313,-2.0658 3.22287,-1.87108 5.55743,-1.48523c1.86687,0.30853 3.76249,1.07566 3.52009,2.72758c-0.28484,1.94121 -1.63126,11.11705 -2.16139,14.72994c-0.11218,0.76447 -0.16441,1.46703 -1.0128,1.64448c-1.12565,0.23546 -3.16072,0.6018 -4.21816,0.42702c-1.03246,-0.17065 -3.23687,-0.44891 -3.87127,-1.86431c-0.20343,-0.45386 0.25315,-3.05808 0.25315,-3.05808z" fill="#000000" stroke="#000000" stroke-width="0.5" stroke-linecap="butt"/><path d="M283.1142,240.45363c0,0 6.47349,-14.85808 8.73225,-23.0587c2.70651,-9.82627 6.40782,-30.72814 6.40782,-30.72814l8.7106,-2.70045l5.65212,-1.09263l10.13247,0.87676l8.35085,3.79303l5.21669,3.6152c0,0 -3.10745,18.85582 -3.53169,27.60677c-0.42822,8.8329 0.9742,25.14707 0.9742,25.14707z" fill="url(#color-2)" stroke="none" stroke-width="0" stroke-linecap="butt"/><path d="M289.41517,224.77038c0.97028,-2.65654 1.84349,-5.24142 2.43128,-7.37545c2.70651,-9.82627 6.40782,-30.72814 6.40782,-30.72814l8.7106,-2.70045l5.65212,-1.09263l10.13247,0.87676l8.35085,3.79303l5.21669,3.6152c0,0 -3.10745,18.85582 -3.53169,27.60677c-0.02153,0.44421 0.05032,3.163 0.14061,6.25877" fill="none" stroke="#000000" stroke-width="1.5" stroke-linecap="butt"/><path d="M260.58457,296.88717l-5.11283,-35.33066c0,0 7.48967,-2.69553 11.09456,-4.41014c6.49127,-3.08747 24.75342,-11.74075 24.75342,-11.74075l13.10491,37.06065c0,0 -22.71439,10.81563 -30.58164,13.01684c-6.1525,1.72144 -13.25841,1.40408 -13.25841,1.40408z" fill="url(#color-3)" stroke="none" stroke-width="0" stroke-linecap="butt"/><path d="M249.80913,247.00876l21.50649,-33.77158c0,0 3.92045,1.9413 8.61308,4.86846c5.37651,3.35376 11.56225,7.61727 15.08156,9.62827c7.21859,4.12485 17.65387,9.02849 17.65387,9.02849l-14.81256,34.41106c0,0 -23.1161,-8.47008 -36.4762,-16.51025c-6.27098,-3.77391 -11.56624,-7.65446 -11.56624,-7.65446z" fill="url(#color-4)" stroke="none" stroke-width="0" stroke-linecap="butt"/><path d="M295.20857,285.02534c0,0 -1.52201,-5.89646 -1.57765,-12.79041c-0.06972,-8.63855 -0.10638,-16.78799 1.49777,-23.78679c1.3747,-5.99774 3.79398,-11.15048 10.2378,-15.04188c4.56334,-2.75578 10.40064,-2.71543 14.48264,-3.50055c0.78788,-0.15155 9.17429,2.96419 16.80016,6.06206c7.36402,2.9915 13.84593,6.52852 13.84593,6.52852l-25.62531,51.77694c0,0 -10.31728,-2.96567 -15.18306,-4.48274c-5.01671,-1.56412 -14.47827,-4.76514 -14.47827,-4.76514z" fill="url(#color-5)" stroke="none" stroke-width="0" stroke-linecap="butt"/><path d="M273.71043,237.47816c-4.2521,9.81198 -15.36516,15.73827 -21.40701,12.32654c-6.04186,-3.41173 -5.98284,-13.14784 -1.73074,-22.95982c4.2521,-9.81198 14.35855,-16.23018 20.40041,-12.81845c6.04186,3.41173 6.98945,13.63975 2.73734,23.45173z" fill="#e2e05f" stroke="#000000" stroke-width="1.5" stroke-linecap="butt"/><path d="M273.34004,254.13345l-19.79658,8.19848" fill="none" stroke="#000000" stroke-width="1.5" stroke-linecap="round"/><path d="M266.79711,296.60159c5.76473,0.68497 27.08077,-8.70642 31.34557,-10.55608c0.49675,-0.21544 25.79131,7.81545 25.79131,7.81545" fill="none" stroke="#000000" stroke-width="1.5" stroke-linecap="round"/><path d="M278.20532,279.46675c0,10.09721 -6.78505,17.7907 -16.18959,17.7907c-9.40453,0 -15.85405,-7.03762 -15.85405,-17.13483c0,-10.09721 2.9264,-18.61056 12.33092,-18.61056c9.40453,0 19.71271,7.85747 19.71271,17.95468z" fill="#e2e05f" stroke="#000000" stroke-width="1.5" stroke-linecap="butt"/><path d="M255.00294,251.28405l10.1779,5.90291" fill="none" stroke="#000000" stroke-width="1.5" stroke-linecap="round"/><path d="M303.87926,232.48219c0,0 -10.07228,-5.04455 -15.03357,-7.91134c-5.90793,-3.41379 -19.07919,-11.12006 -19.07919,-11.12006" fill="none" stroke="#000000" stroke-width="1.5" stroke-linecap="round"/><path d="M366.74061,267.49715c-0.52018,14.7145 -15.32318,28.23557 -30.50016,28.23557c-15.17698,0 -27.88299,-11.93095 -27.88299,-25.67765c0,-6.35813 2.70208,-14.35026 8.19046,-19.83563c6.37786,-6.37437 16.1656,-10.2692 24.32291,-10.2692c15.17698,0 26.47374,10.46246 25.86978,27.5469z" fill="#e2e05f" stroke="#000000" stroke-width="1.5" stroke-linecap="butt"/><path d="M345.19717,239.68177c0,0 -7.61355,-2.93733 -9.43154,-3.75912" fill="none" stroke="#000000" stroke-width="1.5" stroke-linecap="round"/><g><path d="M422.88722,205.03613c0,0 -10.60394,4.33774 -16.12709,6.43151c-6.40495,2.42806 -16.96693,4.18434 -16.96693,4.18434c0,0 0.43497,-1.28017 2.93864,-3.7697c1.90423,-1.89349 6.23542,-5.43037 8.60799,-7.6968c1.452,-1.38705 0.8829,-2.81811 1.34125,-5.04329c0.57774,-2.80486 2.90732,-7.09546 6.84626,-10.83779c1.58799,-1.50872 3.13826,-2.37235 5.10634,-3.22101c2.14366,-0.92438 4.1893,-1.69705 6.58701,-1.78528c5.15185,-0.18955 8.82167,2.44604 11.1937,3.85181c1.95746,1.16009 3.22246,1.2138 5.2279,1.0765c3.2769,-0.22432 8.19974,-0.55136 10.88493,-0.68128c3.53047,-0.17083 3.63033,0.72916 3.63033,0.72916c0,0 -6.95743,5.80901 -13.06911,8.89934c-5.27025,2.66486 -15.3238,7.52178 -15.3238,7.52178z" fill="#eced68" stroke="none" stroke-width="0" stroke-linecap="round"/><path d="M422.88722,205.03613c0,0 -10.41037,4.30641 -15.93352,6.40019c-6.40495,2.42806 -16.51952,3.46956 -16.51952,3.46956c0,0 0.56828,-0.65937 3.07194,-3.14891c1.11356,-1.10728 2.7923,-2.73369 4.46885,-4.34666c1.19041,-1.14527 3.36486,-3.22482 3.36486,-3.22482c0,0 0.95695,4.26887 7.48485,3.06097c3.37429,-0.62437 12.08308,-3.74889 19.37745,-6.26054c6.62936,-2.28266 11.73973,-4.72745 11.73973,-4.72745l-16.17722,8.43697z" fill="#8f8621" stroke="none" stroke-width="0" stroke-linecap="round"/><path d="M429.61223,193.75354c0.14375,0.34972 -3.48326,3.28893 -7.87947,5.49675c-0.65242,0.32765 -1.3218,0.6392 -1.9983,0.92378c-2.88241,1.21253 -8.8873,3.16097 -12.41356,3.83274c-3.83853,0.73125 -5.08601,0.13245 -5.08601,0.13245l1.48704,-6.97884c0,0 1.4648,4.60088 6.53479,4.26167c6.37462,-0.4265 19.17417,-8.1097 19.3555,-7.66855z" fill="#8f8621" stroke="none" stroke-width="0" stroke-linecap="butt"/><path d="M433.65341,189.45235c0,0 1.012,2.66248 -11.02408,9.03489c-9.60595,5.08581 -18.28637,5.86809 -18.28637,5.86809" fill="none" stroke="#524d14" stroke-width="0.75" stroke-linecap="round"/><path d="M422.88722,205.03613c0,0 -10.49621,4.70761 -15.83264,6.37441c-5.80008,1.81163 -17.69294,4.09717 -17.69294,4.09717c0,0 3.403,-4.02253 5.56564,-6.01747c2.01416,-1.85797 6.99645,-5.57055 6.99645,-5.57055c0,0 0.21279,-13.70556 12.70997,-18.83629c7.41307,-3.04344 12.00293,-2.25845 18.29349,1.46965c1.95746,1.16009 4.71511,1.6734 4.71511,1.6734c0,0 7.20362,-0.75459 9.91199,-0.80997c2.40065,-0.04909 5.5267,0.49427 5.5267,0.49427c0,0 -10.27537,6.98375 -15.50139,9.97584c-4.40514,2.52211 -13.81493,6.80886 -13.81493,6.80886z" fill="none" stroke="#000000" stroke-width="1.5" stroke-linecap="round"/></g><g><path d="M206.79373,198.03259c0,0 -11.74414,-0.30496 -17.7693,-0.54856c-6.98711,-0.28247 -17.26185,-1.89874 -17.26185,-1.89874c0,0 1.09339,-0.55167 4.6794,-1.22969c2.72745,-0.5157 8.50383,-1.2946 11.85062,-1.88965c2.04821,-0.36417 2.34122,-1.23217 3.97957,-2.26195c2.06515,-1.29806 6.49731,-2.9394 12.04232,-3.91686c2.23547,-0.39406 4.07976,-0.46693 6.28366,-0.43263c2.40049,0.03736 4.63052,0.12901 6.79074,0.65485c4.64155,1.12983 6.41045,3.35275 7.71902,4.63716c1.07986,1.05993 2.16394,1.38866 4.00598,1.79596c3.00989,0.66553 7.52609,1.67045 9.96259,2.2434c3.20349,0.7533 2.79201,1.23773 2.79201,1.23773c0,0 -9.34971,1.31647 -16.44609,1.44281c-6.11937,0.10894 -17.66698,0.20078 -17.66698,0.20078z" fill="#faefbe" stroke="none" stroke-width="0" stroke-linecap="round"/><path d="M206.79373,198.03259c0,0 -11.55632,-0.27491 -17.58148,-0.51849c-6.98711,-0.28247 -16.47126,-2.15805 -16.47126,-2.15805c0,0 0.86629,-0.20216 4.4523,-0.8802c1.59497,-0.30157 3.97565,-0.73426 6.34695,-1.16059c1.68372,-0.30271 4.75234,-0.84929 4.75234,-0.84929c0,0 -1.52621,2.41287 4.8921,3.34915c3.31763,0.48397 12.71983,0.95861 20.53648,1.41011c7.10403,0.41034 12.96052,0.37597 12.96052,0.37597l-18.92629,0.46599z" fill="#8f8621" stroke="none" stroke-width="0" stroke-linecap="round"/><path d="M218.97607,193.85919c-0.06748,0.21323 -4.89218,0.85391 -9.9883,0.93707c-0.7563,0.01234 -1.51859,0.01239 -2.27218,-0.00305c-3.21089,-0.06579 -9.57961,-0.49849 -13.05736,-0.99439c-3.78573,-0.53981 -4.5519,-1.14337 -4.5519,-1.14337l5.182,-3.21794c0,0 -1.26325,2.70374 3.38927,3.73748c5.84973,1.29973 21.38359,0.41522 21.29848,0.68421z" fill="#8f8621" stroke="none" stroke-width="0" stroke-linecap="butt"/><path d="M224.92122,192.62002c0,0 -0.58632,1.60376 -14.72058,1.99918c-11.28051,0.31558 -19.35799,-1.35116 -19.35799,-1.35116" fill="none" stroke="#524d14" stroke-width="0.75" stroke-linecap="round"/><path d="M206.79373,198.03259c0,0 -11.85454,-0.09 -17.47837,-0.50766c-6.11245,-0.45395 -17.85276,-2.11626 -17.85276,-2.11626c0,0 5.22857,-1.2485 8.23986,-1.7546c2.80453,-0.47135 9.25174,-1.18512 9.25174,-1.18512c0,0 7.79267,-6.96439 21.64393,-6.61445c8.21628,0.20757 11.82221,1.70238 15.2925,5.10859c1.07986,1.05993 3.22323,1.97935 3.22323,1.97935c0,0 6.76175,1.32924 9.17729,1.94584c2.1411,0.54656 4.59216,1.5691 4.59216,1.5691c0,0 -12.92313,1.1276 -19.18514,1.41457c-5.2784,0.24189 -15.94278,0.1952 -15.94278,0.1952z" fill="none" stroke="#000000" stroke-width="1.5" stroke-linecap="round"/></g><path d="M209.26313,185.53114c0,0 0.25084,-1.84527 0.24053,-2.84716c-0.01357,-1.31918 -0.31486,-4.38126 -0.31486,-4.38126l2.1749,0.09371c0,0 -0.34195,2.68582 -0.57419,3.94259c-0.20334,1.10042 -0.32677,3.13689 -0.32677,3.13689z" fill="#000000" stroke="#000000" stroke-width="0.5" stroke-linecap="butt"/><path d="M413.62845,185.29573c0,0 -0.31021,-1.46432 -0.86638,-2.40295c-0.73232,-1.2359 -2.74371,-3.97557 -2.74371,-3.97557l2.56214,-0.9522c0,0 1.06426,2.69306 1.47887,3.98777c0.36302,1.13364 1.2829,2.93786 1.2829,2.93786z" fill="#000000" stroke="#000000" stroke-width="1.5" stroke-linecap="butt"/><path d="M241.91122,273.77418c-5.28117,-6.03226 -17.55229,-19.84492 -17.55229,-19.84492l1.3523,-15.05593l2.07041,0.37952l-1.45376,14.15297c0,0 12.27056,15.34936 16.8061,18.92366c2.20242,1.73565 -1.22275,1.4447 -1.22275,1.4447z" fill="#000000" stroke="none" stroke-width="0" stroke-linecap="butt"/><g><g><path d="M221.74109,252.12568c0,0 -9.05402,-1.24379 -13.70016,-1.99898c-5.38794,-0.87575 -13.32654,-3.777 -13.32654,-3.777c0,0 0.83544,-0.66355 3.59007,-1.31985c2.09512,-0.49917 6.53635,-1.13544 9.1077,-1.69725c1.57366,-0.34383 1.78823,-1.48924 3.03744,-2.75648c1.57463,-1.59736 4.96887,-3.48787 9.22924,-4.40736c1.71757,-0.37069 3.13784,-0.33761 4.83661,-0.13502c1.85031,0.22066 3.56996,0.50219 5.24142,1.3621c3.59139,1.84764 4.98322,4.95991 6.0082,6.77854c0.84583,1.50077 1.68548,2.01944 3.11022,2.6975c2.32803,1.10795 5.8212,2.77886 7.70617,3.7217c2.47834,1.23961 2.16751,1.86127 2.16751,1.86127c0,0 -7.18789,1.10476 -12.65474,0.77053c-4.7142,-0.28822 -13.61162,-0.98492 -13.61162,-0.98492z" fill="#faefbe" stroke="none" stroke-width="0" stroke-linecap="round"/><path d="M221.74109,252.12568c0,0 -8.90888,-1.19008 -13.55503,-1.94525c-5.38794,-0.87575 -12.72066,-4.06927 -12.72066,-4.06927c0,0 0.66494,-0.2101 3.41957,-0.86641c1.22519,-0.2919 3.05415,-0.70419 4.87598,-1.10859c1.29357,-0.28714 3.6512,-0.80357 3.6512,-0.80357c0,0 -1.14492,3.13348 3.81312,4.84726c2.56283,0.88586 9.81432,2.19129 15.84368,3.35304c5.47967,1.05583 9.99226,1.42558 9.99226,1.42558l-14.57862,-0.71803z" fill="#8f8621" stroke="none" stroke-width="0" stroke-linecap="round"/><path d="M231.07496,247.38357c-0.04924,0.2817 -3.75889,0.79986 -7.6849,0.54965c-0.58264,-0.03713 -1.17006,-0.09119 -1.75098,-0.16546c-2.47517,-0.31642 -7.38851,-1.35008 -10.07488,-2.26334c-2.92427,-0.99414 -3.52247,-1.85947 -3.52247,-1.85947l3.95168,-3.95551c0,0 -0.93853,3.54295 2.66007,5.26227c4.5246,2.16172 16.48361,2.07651 16.42149,2.43186z" fill="#8f8621" stroke="none" stroke-width="0" stroke-linecap="butt"/><path d="M235.6403,246.14087c0,0 -0.43111,2.11312 -11.31789,1.6406c-8.68871,-0.37712 -14.93476,-3.19013 -14.93476,-3.19013" fill="none" stroke="#524d14" stroke-width="0.75" stroke-linecap="round"/><path d="M221.74109,252.12568c0,0 -9.1363,-0.96282 -13.47543,-1.92337c-4.71613,-1.04402 -13.7847,-4.11121 -13.7847,-4.11121c0,0 4.01303,-1.30614 6.32699,-1.77225c2.15508,-0.43411 7.1141,-0.93525 7.1141,-0.93525c0,0 5.91508,-8.80372 16.59341,-7.34986c6.33417,0.8624 9.13221,3.12687 11.85043,7.94981c0.84583,1.50077 2.50941,2.88832 2.50941,2.88832c0,0 5.22778,2.26612 7.09717,3.26614c1.65699,0.8864 3.559,2.43432 3.559,2.43432c0,0 -9.94402,0.59725 -14.76583,0.53809c-4.06442,-0.04987 -12.28301,-0.86997 -12.28301,-0.86997z" fill="none" stroke="#000000" stroke-width="1.5" stroke-linecap="round"/></g><path d="M223.74088,235.78689c0,0 0.40505,-1.06794 0.4211,-1.88918c0.02115,-1.08132 -0.19644,-3.62675 -0.19644,-3.62675l2.14727,0.36269c0,0 -0.40836,2.15294 -0.67083,3.15085c-0.22982,0.87378 -0.3624,2.39526 -0.3624,2.39526z" fill="#000000" stroke="#000000" stroke-width="1.5" stroke-linecap="butt"/></g><g fill="#81782d" stroke="none" stroke-width="0.5" stroke-linecap="butt"><path d="M393.64713,257.97112c0.17279,-0.15037 0.34086,0.01389 0.34086,0.01389c0.22155,0.24899 0.31141,0.65985 0.19835,0.97077c-0.0069,0.01898 -0.01725,0.0387 -0.03044,0.05895c-0.0228,0.2025 -0.12951,0.39602 -0.34092,0.56696c0.4163,0.12039 0.61048,0.84137 0.32728,1.12954c-0.25181,0.25624 -1.44148,-0.07533 -1.09043,0.01691c0.77028,0.20239 0.6821,0.80952 0.3511,1.22789c0.25861,0.07655 0.53879,0.28153 0.80436,-0.03575c0.50392,-0.60203 1.83154,-2.30538 4.01136,-4.2207c2.92455,-2.56967 7.52686,-7.23552 7.52686,-7.23552c0,0 -6.41762,9.935 -6.65627,11.04873c-0.46326,2.16185 -1.86799,2.94533 -3.98419,2.80517c-3.60907,-0.04218 -5.82261,-1.16156 -5.86069,-5.0335c-0.00002,-3.17741 3.14277,-2.51977 4.40276,-1.31335z"/><path d="M431.35305,219.94536c-0.32454,0.00902 -0.35832,0.25026 -0.29106,0.51807c0.01038,-0.05405 0.04362,-0.11097 0.12239,-0.15644c0.21669,-0.12506 0.34465,0.08673 0.34465,0.08673c0.01249,0.02175 0.02467,0.04318 0.03653,0.06426c0.08329,-0.17081 0.01583,-0.51897 -0.21251,-0.51263zM428.14314,215.81786c-1.42698,-2.66369 -1.96934,-5.14144 -1.96934,-5.14144c0,0 6.01438,9.65196 5.79313,10.08225l-0.14312,0.21651c0.44135,1.05946 -2.06252,-2.13678 -3.68066,-5.15732zM431.2722,220.93315c0.00059,-0.00277 0.00125,-0.00556 0.00194,-0.00832c-0.03133,-0.05088 -0.06842,-0.10994 -0.11193,-0.17787c0.03354,0.07622 0.07,0.14854 0.10466,0.21183c0.00141,-0.0089 0.00324,-0.01747 0.00534,-0.02563z"/><path d="M415.22976,240.52562c-0.03417,-0.31555 -0.28288,-0.3299 -0.5509,-0.24376c0.05594,0.00596 0.11656,0.03395 0.16901,0.10723c0.14425,0.20154 -0.06196,0.34252 -0.06196,0.34252c-0.02124,0.01385 -0.04215,0.02737 -0.06274,0.04055c0.18066,0.06801 0.53063,-0.02451 0.50658,-0.24653zM419.19334,237.08006c2.6075,-1.59552 5.09341,-2.31469 5.09341,-2.31469c0,0 -9.38344,6.60351 -9.83943,6.42102l-0.23188,-0.12281c-1.04683,0.5116 2.02109,-2.17428 4.97791,-3.98353zM414.21586,240.52284c0.00288,0.00037 0.00577,0.00079 0.00865,0.00125c0.04949,-0.03444 0.10688,-0.07512 0.17283,-0.12276c-0.07517,0.03855 -0.14614,0.07964 -0.20804,0.11828c0.0092,0.00069 0.01809,0.00181 0.02656,0.00323z"/></g><path d="M247.91859,222.15971c-0.27944,0.16154 -0.18942,0.3886 0.00214,0.59103c-0.01771,-0.0522 -0.01685,-0.11773 0.02953,-0.19481c0.12759,-0.212 0.34449,-0.08729 0.34449,-0.08729c0.02171,0.01311 0.04299,0.02609 0.06382,0.03892c-0.01181,-0.18885 -0.24338,-0.46152 -0.43999,-0.34785zM243.06465,220.06861c-2.56862,-1.65466 -4.27119,-3.5655 -4.27119,-3.5655c0,0 10.04554,5.59629 10.06525,6.07749l-0.0179,0.25718c0.91123,0.71789 -2.86345,-0.89281 -5.77617,-2.76915zM248.33744,223.06214c-0.00086,-0.00272 -0.00166,-0.00545 -0.00243,-0.00821c-0.05263,-0.02968 -0.11434,-0.06378 -0.18609,-0.10261c0.06711,0.05079 0.13486,0.0968 0.19655,0.13576c-0.00317,-0.00846 -0.00583,-0.01682 -0.00803,-0.02494z" fill="#888139" stroke="none" stroke-width="0.5" stroke-linecap="butt"/><path d="M247.91859,222.15971c-0.27944,0.16154 -0.18942,0.3886 0.00214,0.59103c-0.01771,-0.0522 -0.01685,-0.11773 0.02953,-0.19481c0.12759,-0.212 0.34449,-0.08729 0.34449,-0.08729c0.02171,0.01311 0.04299,0.02609 0.06382,0.03892c-0.01181,-0.18885 -0.24338,-0.46152 -0.43999,-0.34785zM243.06465,220.06861c-2.56862,-1.65466 -4.27119,-3.5655 -4.27119,-3.5655c0,0 10.04554,5.59629 10.06525,6.07749l-0.0179,0.25718c0.91123,0.71789 -2.86345,-0.89281 -5.77617,-2.76915zM248.33744,223.06214c-0.00086,-0.00272 -0.00166,-0.00545 -0.00243,-0.00821c-0.05263,-0.02968 -0.11434,-0.06378 -0.18609,-0.10261c0.06711,0.05079 0.13486,0.0968 0.19655,0.13576c-0.00317,-0.00846 -0.00583,-0.01682 -0.00803,-0.02494z" fill="#888139" stroke="none" stroke-width="0.5" stroke-linecap="butt"/><path d="M247.91859,222.15971c-0.27944,0.16154 -0.18942,0.3886 0.00214,0.59103c-0.01771,-0.0522 -0.01685,-0.11773 0.02953,-0.19481c0.12759,-0.212 0.34449,-0.08729 0.34449,-0.08729c0.02171,0.01311 0.04299,0.02609 0.06382,0.03892c-0.01181,-0.18885 -0.24338,-0.46152 -0.43999,-0.34785zM243.06465,220.06861c-2.56862,-1.65466 -4.27119,-3.5655 -4.27119,-3.5655c0,0 10.04554,5.59629 10.06525,6.07749l-0.0179,0.25718c0.91123,0.71789 -2.86345,-0.89281 -5.77617,-2.76915zM248.33744,223.06214c-0.00086,-0.00272 -0.00166,-0.00545 -0.00243,-0.00821c-0.05263,-0.02968 -0.11434,-0.06378 -0.18609,-0.10261c0.06711,0.05079 0.13486,0.0968 0.19655,0.13576c-0.00317,-0.00846 -0.00583,-0.01682 -0.00803,-0.02494z" fill="#888139" stroke="none" stroke-width="0.5" stroke-linecap="butt"/><path d="M247.26305,229.06322c-0.38806,-0.18894 -0.51009,-0.09175 -0.5213,0.07854c0.03068,-0.0201 0.08945,-0.02799 0.19834,-0.00317c0.29955,0.06827 0.37937,0.24748 0.37937,0.24748c0.00743,0.01802 0.01461,0.03569 0.02151,0.05301c0.15683,-0.03345 0.19511,-0.24292 -0.07792,-0.37587zM244.85765,225.14405c-0.78775,-2.1453 -0.58928,-3.67321 -0.58928,-3.67321c0,0 3.85526,8.27612 3.44659,8.35356l-0.24335,0.02002c0.16359,0.77809 -1.72069,-2.26767 -2.61396,-4.70036zM246.83156,229.49538c0.00165,-0.00099 0.00337,-0.00195 0.00513,-0.00288c-0.01988,-0.04341 -0.04382,-0.09421 -0.07235,-0.15317c0.01389,0.05703 0.03257,0.11392 0.05219,0.16535c0.00471,-0.00348 0.00977,-0.00657 0.01503,-0.00929z" fill="#888139" stroke="none" stroke-width="0.5" stroke-linecap="butt"/><path d="M391.64264,258.03467c0.37682,-0.09771 0.77265,-0.14978 1.18092,-0.14978c0.56739,0 1.59974,0.79861 1.55568,1.85896c-0.03192,0.76818 -1.28643,1.79059 -0.52892,2.18416c1.14092,0.59276 2.85211,-0.43945 4.50019,-0.17286c0.26997,0.04367 1.67351,1.32554 2.14629,1.5856c0.98415,0.54134 3.62694,-0.4766 5.61672,0.46551c1.98978,0.94211 3.52462,3.7618 3.9128,4.04653" fill="none" stroke="#000000" stroke-width="1.5" stroke-linecap="butt"/><path d="M227.5057,275.29392c0.21786,-0.15714 0.46935,-0.30231 0.7528,-0.43091c0.39393,-0.17871 1.46825,-0.18958 1.91245,0.24161c0.32181,0.31237 -0.09136,1.10989 0.6108,1.02619c1.05753,-0.12608 1.78334,-1.07129 3.04693,-1.48548c0.20699,-0.06784 1.7554,-0.00544 2.20008,-0.052c0.92565,-0.09694 2.30465,-1.32997 4.10794,-1.58592c1.80328,-0.25595 4.13145,0.37031 4.52845,0.3601" fill="none" stroke="#000000" stroke-width="1.5" stroke-linecap="butt"/><g stroke="none" stroke-linecap="butt"><path d="M349.47848,236.21186c0.00211,-1.26399 -0.03694,-2.6295 -0.1463,-4.01193c-0.76354,-9.65154 -3.03331,-23.36937 -5.04379,-32.09262c-3.22159,-13.97812 -15.93275,-43.23331 -15.93275,-43.23331l5.28269,-1.86672c0,0 0.81152,6.14142 3.1516,14.18165c2.82226,9.69694 7.38292,22.16038 9.06298,30.00285c2.14216,9.99964 5.02024,27.34309 6.4612,36.2536z" fill="#000000" stroke-width="0"/><path d="M347.02567,232.45044c0.0122,-0.2243 0.24969,-0.22653 0.24969,-0.22653c0.33668,0.01962 0.69839,0.24305 0.84485,0.5376c0.00894,0.01797 0.01599,0.03887 0.02145,0.06208c0.13111,0.15661 0.19674,0.36512 0.17235,0.63049c0.38012,-0.20475 1.04052,0.16204 1.05086,0.55867c0.00919,0.35269 -1.068,0.94648 -0.75421,0.76737c0.68852,-0.39303 1.06772,0.09027 1.13908,0.61055c0.23741,-0.12597 0.5833,-0.17757 0.53942,-0.58224c-0.08326,-0.76784 -0.38779,-2.87229 -0.24734,-5.71466c0.18846,-3.81347 0.03304,-10.24717 0.03304,-10.24717c0,0 2.70832,11.35568 3.34986,12.29554c1.24531,1.82433 0.82721,3.34255 -0.76217,4.7115c-2.56758,2.47157 -4.93698,3.22704 -7.77736,0.56095c-2.30894,-2.2095 0.3781,-3.92998 2.14048,-3.96418z" fill="#81782d" stroke-width="0.5"/><path d="M345.85623,208.39195c0.21371,0.07696 0.14163,0.42215 -0.00141,0.5493c-0.00283,-0.02372 -0.00583,-0.04787 -0.00898,-0.07245c0,0 -0.03657,-0.24149 -0.28535,-0.20487c-0.09044,0.01331 -0.14318,0.0537 -0.17366,0.09972c0.04123,-0.27108 0.16567,-0.48106 0.46941,-0.37168zM345.39987,209.27256c-0.00508,0.00675 -0.01009,0.01398 -0.01484,0.02167c-0.00761,-0.07085 -0.01342,-0.1507 -0.015,-0.23308c0.01401,0.07836 0.02552,0.14621 0.03485,0.20444c-0.00172,0.00229 -0.00339,0.00461 -0.00502,0.00697z" fill="#81782d" stroke-width="0.5"/></g><path d="M342.41961,231.77454c0.31079,-0.07071 0.63726,-0.1084 0.974,-0.1084c0.46797,0 1.31943,0.57791 1.2831,1.34523c-0.02633,0.55589 -1.06102,1.29576 -0.43624,1.58056c0.94102,0.42895 2.35237,-0.31801 3.71168,-0.12508c0.22266,0.0316 1.38028,0.95921 1.77023,1.14741c0.81171,0.39174 2.99144,-0.3449 4.63257,0.33686c1.64113,0.68176 2.90705,2.72221 3.22721,2.92826" fill="none" stroke="#000000" stroke-width="1.5" stroke-linecap="butt"/><g><path d="M326.80091,161.49449c0,0 -17.36215,1.34189 -25.71456,1.69482c-9.68593,0.4093 -28.79411,0.60711 -28.79411,0.60711c0,0 7.68659,-3.25322 12.22016,-5.01357c3.44814,-1.33889 9.8281,-3.70962 14.07931,-5.28144c2.6017,-0.96193 4.15056,-1.70118 5.83901,-3.8617c2.12832,-2.72337 6.48732,-7.22512 13.53525,-9.81346c2.84138,-1.04348 4.52635,-1.55171 7.55237,-1.78407c3.29597,-0.25308 5.19953,0.04502 8.42729,0.74446c6.9353,1.50288 11.71987,5.02595 14.18863,7.26906c2.03728,1.85106 3.69158,2.32424 6.42207,2.84329c4.46163,0.84811 11.15944,2.1326 14.78928,2.88356c4.77249,0.98736 12.91055,2.92616 12.91055,2.92616c0,0 -18.86831,2.95659 -28.486,4.15068c-8.29355,1.02968 -25.63839,2.57064 -25.63839,2.57064z" fill="#eced68" stroke="none" stroke-width="0" stroke-linecap="round"/><path d="M326.80091,161.49449c0,0 -17.36215,1.34189 -25.71456,1.69482c-9.68593,0.4093 -28.79411,0.60711 -28.79411,0.60711c0,0 7.68659,-3.25322 12.22016,-5.01357c2.01642,-0.78295 5.03543,-1.91878 8.04502,-3.04135c2.13691,-0.79707 6.03428,-2.24009 6.03428,-2.24009c0,0 -0.80006,4.75073 8.45717,5.64963c4.7851,0.46464 17.86917,0.09191 28.77709,-0.11076c9.91345,-0.1842 17.94417,-0.18086 17.94417,-0.18086l-25.63839,2.57064z" fill="#8f8621" stroke="none" stroke-width="0" stroke-linecap="round"/><path d="M341.20806,151.99173c0.02127,0.41074 -6.22265,2.26765 -13.13344,3.1109c-1.02561,0.12514 -2.06591,0.22796 -3.1026,0.30042c-7.7984,0.54501 -18.04829,-0.30836 -21.6062,-0.13238c-2.92286,0.14456 -2.20645,-0.8578 -1.43655,-2.21501c1.65213,-2.91243 7.69233,-7.66373 7.69233,-7.66373c0,0 -4.7438,6.86024 2.15535,8.18061c8.67451,1.66013 29.40425,-2.09896 29.43109,-1.58079z" fill="#8f8621" stroke="none" stroke-width="0" stroke-linecap="butt"/><path d="M340.93646,152.65604c0,0 -2.9298,1.09497 -8.71104,2.11259c-7.66886,1.3499 -12.14068,1.40415 -19.92336,1.02754" fill="none" stroke="#524d14" stroke-width="0.75" stroke-linecap="round"/><path d="M326.80091,161.49449c0,0 -17.36215,1.34189 -25.71456,1.69482c-9.68593,0.4093 -28.79411,0.60711 -28.79411,0.60711c0,0 7.68659,-3.25322 12.22016,-5.01357c3.44814,-1.33889 9.8281,-3.70962 14.07931,-5.28144c2.6017,-0.96193 4.15056,-1.70118 5.83901,-3.8617c2.12832,-2.72337 6.48732,-7.22512 13.53525,-9.81346c2.84138,-1.04348 4.52635,-1.55171 7.55237,-1.78407c3.29597,-0.25308 5.19953,0.04502 8.42729,0.74446c6.9353,1.50288 11.71987,5.02595 14.18863,7.26906c2.03728,1.85106 3.69158,2.32424 6.42207,2.84329c4.46163,0.84811 11.15944,2.1326 14.78928,2.88356c4.77249,0.98736 12.91055,2.92616 12.91055,2.92616c0,0 -18.86831,2.95659 -28.486,4.15068c-8.29355,1.02968 -25.63839,2.57064 -25.63839,2.57064z" fill="none" stroke="#000000" stroke-width="1.5" stroke-linecap="round"/></g><path d="M324.04498,137.87932c0,0 -0.09682,-2.16372 -0.31717,-3.30936c-0.29017,-1.50848 -1.27276,-4.95629 -1.27276,-4.95629l2.51096,-0.32515c0,0 0.16741,3.14472 0.16299,4.63059c-0.00387,1.30101 0.35376,3.93501 0.35376,3.93501z" fill="#000000" stroke="#000000" stroke-width="1.5" stroke-linecap="butt"/><path d="M334.52019,140.78778c5.97941,1.50794 9.30077,4.19942 9.20951,4.58138c-0.09125,0.38198 -3.43472,-1.84637 -9.41414,-3.35431c-5.97941,-1.50794 -9.72621,-1.7439 -9.63497,-2.12587c0.09125,-0.38198 3.86015,-0.60914 9.83958,0.8988z" fill="#faefbe" stroke="none" stroke-width="0" stroke-linecap="butt"/><path d="M369.6633,154.6376c0,0 -8.42664,-0.40941 -13.01723,-2.03973c-4.59061,-1.63032 -7.91544,-3.10522 -7.77982,-3.47c0.13561,-0.36477 3.10418,0.6555 7.69478,2.28581c4.59061,1.63032 13.10228,3.22392 13.10228,3.22392z" fill="#faefbe" stroke="none" stroke-width="0" stroke-linecap="butt"/><g stroke-linecap="butt"><path d="M341.81715,148.44404c0.22312,-2.64988 2.6733,-4.71235 5.62788,-4.59533c2.95456,0.11702 5.06361,2.35773 4.95347,5.01441c-0.11014,2.65666 -2.36319,4.84025 -5.59491,4.75079c-3.07394,-0.08509 -5.21948,-2.40242 -4.98645,-5.16985z" fill="#ffffff" stroke="#000000" stroke-width="1.4"/><path d="M341.65467,149.82154c0.06345,-1.53047 1.38431,-2.72089 2.95025,-2.65888c1.56592,0.06201 2.78392,1.35299 2.72047,2.88346c-0.06345,1.53047 -1.38431,2.72089 -2.95023,2.65888c-1.56592,-0.06201 -2.78392,-1.35299 -2.72047,-2.88346z" fill="#000000" stroke="none" stroke-width="1.5"/></g><g stroke-linecap="butt"><path d="M300.04933,150.82145c0.14955,-2.65482 2.88936,-4.746 5.87284,-4.58549c2.98348,0.16053 4.91986,2.5056 4.77033,5.16043c-0.14955,2.65482 -2.489,4.68479 -5.47249,4.52427c-2.98348,-0.16053 -5.32021,-2.44437 -5.17068,-5.09922z" fill="#ffffff" stroke="#000000" stroke-width="1.4"/><path d="M300.09636,152.11452c0.08433,-1.497 1.39434,-2.64374 2.926,-2.56132c1.53167,0.08242 2.70498,1.36277 2.62066,2.85976c-0.08433,1.497 -1.39434,2.64374 -2.926,2.56132c-1.53167,-0.08242 -2.70498,-1.36277 -2.62066,-2.85976z" fill="#000000" stroke="none" stroke-width="1.5"/></g></g></g></svg>