<svg version="1.1" xmlns="http://www.w3.org/2000/svg" xmlns:xlink="http://www.w3.org/1999/xlink" width="34.17311" height="34.17311" viewBox="0,0,34.17311,34.17311"><g transform="translate(-302.91346,-162.91348)"><g stroke-miterlimit="10"><path d="M309.98312,162.91348h20.03379c3.9166,0 7.06966,3.15307 7.06966,7.06966v20.03379c0,3.91659 -3.15306,7.06966 -7.06966,7.06966h-20.03379c-3.91659,0 -7.06966,-3.15307 -7.06966,-7.06966v-20.03379c0,-3.91659 3.15307,-7.06966 7.06966,-7.06966z" fill="#a0a300" fill-rule="evenodd" stroke="none" stroke-width="0" stroke-linecap="round" stroke-linejoin="round"/><g fill-rule="nonzero" stroke="#000000" stroke-width="0.75" stroke-linecap="butt" stroke-linejoin="miter"><g fill="#ffffff"><path d="M317.66772,185.77651c0,0 8.13771,-2.07872 10.83867,-6.11512c2.70096,-4.0364 -0.95467,-8.65584 -0.95467,-8.65584l1.47812,-1.06568c0,0 2.99745,5.89455 0.38775,10.33594c-2.04494,3.48025 -8.45158,7.03527 -8.45158,7.03527z"/><path d="M331.64074,168.209c0.15852,0.7083 -2.25669,1.82395 -2.25669,1.82395c0,0 0.84737,2.5216 0.22376,2.89115c-0.6236,0.36951 -2.43025,-1.58127 -2.43025,-1.58127c0,0 -2.13747,1.58301 -2.68129,1.10539c-0.54446,-0.4789 0.75323,-2.79967 0.75323,-2.79967c0,0 -2.16757,-1.54258 -1.87968,-2.20896c0.28663,-0.66582 2.8954,-0.14783 2.8954,-0.14783c0,0 0.79777,-2.5388 1.51941,-2.47132c0.7232,0.0659 1.03771,2.70664 1.03771,2.70664c0,0 2.65928,-0.02456 2.81841,0.68192z"/><path d="M308.3518,187.24146c0,-4.38484 3.55461,-7.93945 7.93945,-7.93945c4.38484,0 7.93945,3.55461 7.93945,7.93945c0,4.38484 -3.55461,7.93945 -7.93945,7.93945c-4.38484,0 -7.93945,-3.55461 -7.93945,-7.93945z"/></g><g><path d="M317.66772,185.77651c0,0 8.13771,-2.07872 10.83867,-6.11512c2.70096,-4.0364 -0.95467,-8.65584 -0.95467,-8.65584l1.47812,-1.06568c0,0 2.99745,5.89455 0.38775,10.33594c-2.04494,3.48025 -8.45158,7.03527 -8.45158,7.03527z" fill="#d9db56"/><path d="M331.64074,168.209c0.15852,0.7083 -2.25669,1.82395 -2.25669,1.82395c0,0 0.84737,2.5216 0.22376,2.89115c-0.6236,0.36951 -2.43025,-1.58127 -2.43025,-1.58127c0,0 -2.13747,1.58301 -2.68129,1.10539c-0.54446,-0.4789 0.75323,-2.79967 0.75323,-2.79967c0,0 -2.16757,-1.54258 -1.87968,-2.20896c0.28663,-0.66582 2.8954,-0.14783 2.8954,-0.14783c0,0 0.79777,-2.5388 1.51941,-2.47132c0.7232,0.0659 1.03771,2.70664 1.03771,2.70664c0,0 2.65928,-0.02456 2.81841,0.68192z" fill="#d9db56"/><path d="M308.3518,187.24146c0,-4.38484 3.55461,-7.93945 7.93945,-7.93945c4.38484,0 7.93945,3.55461 7.93945,7.93945c0,4.38484 -3.55461,7.93945 -7.93945,7.93945c-4.38484,0 -7.93945,-3.55461 -7.93945,-7.93945z" fill="#d9db56"/><g fill="#000000"><path d="M310.58835,187.31814c0,-3.27004 2.6509,-5.92094 5.92094,-5.92094c3.27004,0 5.92094,2.6509 5.92094,5.92094c0,3.27004 -2.6509,5.92094 -5.92094,5.92094c-3.27004,0 -5.92094,-2.6509 -5.92094,-5.92094zM318.00581,191.15699c2.37168,0 4.29431,-1.92263 4.29431,-4.29431c0,-2.37168 -1.92263,-4.29431 -4.29431,-4.29431c-2.37168,0 -4.29431,1.92263 -4.29431,4.29431c0,2.37168 1.92263,4.29431 4.29431,4.29431z"/><path d="M316.44423,186.73255c0,-1.07804 0.87392,-1.95196 1.95196,-1.95196c1.07804,0 1.95196,0.87392 1.95196,1.95196c0,1.07804 -0.87392,1.95196 -1.95196,1.95196c-1.07804,0 -1.95196,-0.87392 -1.95196,-1.95196z"/></g></g></g></g></g></svg>