<svg version="1.1" xmlns="http://www.w3.org/2000/svg" xmlns:xlink="http://www.w3.org/1999/xlink" width="190.24038" height="45.83424" viewBox="0,0,190.24038,45.83424"><defs><linearGradient x1="549.85504" y1="191.77923" x2="549.85504" y2="211.88795" gradientTransform="translate(-1368.32772,-493.80239) scale(2.80411,2.38703)" gradientUnits="userSpaceOnUse" id="color-1"><stop offset="0" stop-color="#ffffff"/><stop offset="1" stop-color="#fdff9d"/></linearGradient><linearGradient x1="460.33967" y1="211.76973" x2="460.33967" y2="231.34522" gradientUnits="userSpaceOnUse" id="color-2"><stop offset="0" stop-color="#000000" stop-opacity="0"/><stop offset="1" stop-color="#000000" stop-opacity="0.54118"/></linearGradient><linearGradient x1="459.4696" y1="187.68075" x2="459.4696" y2="225.48455" gradientUnits="userSpaceOnUse" id="color-3"><stop offset="0" stop-color="#1c1c00" stop-opacity="0.55294"/><stop offset="1" stop-color="#1c1c00" stop-opacity="0"/></linearGradient><linearGradient x1="459.83967" y1="212.35306" x2="459.83967" y2="231.92855" gradientUnits="userSpaceOnUse" id="color-4"><stop offset="0" stop-color="#000000" stop-opacity="0"/><stop offset="1" stop-color="#000000" stop-opacity="0.54118"/></linearGradient><linearGradient x1="460.33967" y1="188.01096" x2="460.33967" y2="231.34522" gradientUnits="userSpaceOnUse" id="color-5"><stop offset="0" stop-color="#ffff94"/><stop offset="1" stop-color="#cccc48"/></linearGradient><linearGradient x1="535.28131" y1="211.4579" x2="535.28131" y2="228.49986" gradientTransform="translate(-1776.69743,-631.61414) scale(3.64325,2.81658)" gradientUnits="userSpaceOnUse" id="color-6"><stop offset="0" stop-color="#ffffff"/><stop offset="1" stop-color="#fdff9d"/></linearGradient></defs><g transform="translate(-423.25624,-186.76096)"><g stroke-miterlimit="10"><text transform="translate(487.97303,206.86864) scale(0.35662,0.41893)" font-size="40" xml:space="preserve" fill="url(#color-1)" fill-rule="nonzero" stroke="none" stroke-width="1" stroke-linecap="butt" stroke-linejoin="miter" font-family="&quot;Allan-Bold&quot;, Sans Serif" font-weight="normal" text-anchor="start"><tspan x="0" dy="0">Lank the LONG way</tspan></text><path d="M423.25624,209.16996c0,-2.02211 1.63925,-3.66135 3.66136,-3.66135c2.02211,0 3.66135,1.63924 3.66135,3.66135c0,2.02211 -1.63924,3.66135 -3.66135,3.66135c-2.02211,0 -3.66136,-1.63924 -3.66136,-3.66135z" fill="#feffce" fill-rule="nonzero" stroke="none" stroke-width="0" stroke-linecap="butt" stroke-linejoin="miter"/><path d="M447.27967,188.01096h26.12002c5.10646,0 9.21741,3.99835 9.21741,8.96489v25.40446c0,4.96655 -4.11096,8.96489 -9.21741,8.96489h-26.12002c-5.10644,0 -9.21743,-3.99836 -9.21743,-8.96489v-25.40445c0,-4.96655 4.11099,-8.96489 9.21743,-8.96489z" fill="#6e6e30" fill-rule="evenodd" stroke="none" stroke-width="4.43922" stroke-linecap="round" stroke-linejoin="round"/><path d="M482.61712,222.38032c0,4.96655 -4.11097,8.96489 -9.21742,8.96489h-26.12002c-5.10644,0 -9.21742,-3.99835 -9.21742,-8.96489v-10.61059c8.88121,0.04533 18.3634,0.13124 27.11866,0.13175c5.81207,0.00033 11.62414,-0.00626 17.43622,-0.01044z" fill="url(#color-2)" fill-rule="nonzero" stroke="none" stroke-width="4.43922" stroke-linecap="butt" stroke-linejoin="miter"/><path d="M447.11113,188.38569c0,0 -3.95964,3.70779 -4.09603,8.09547c-0.19541,6.28641 -0.35704,13.96842 -2.08069,14.1409c-1.63048,0.16315 -1.52495,-6.62113 -1.80971,-12.71206c-0.07558,-1.61665 -0.20529,-3.18203 -0.34631,-4.56079c0.69899,-0.5495 1.1887,-1.35322 1.32983,-2.27183c0.70529,-0.3159 1.28992,-0.85299 1.66564,-1.52301c0.84661,-0.12983 1.59569,-0.55574 2.1382,-1.16868z" fill="#ffff94" fill-rule="nonzero" stroke="none" stroke-width="0" stroke-linecap="butt" stroke-linejoin="miter"/><path d="M442.35042,191.33861l16.68562,-0.26339c0,0 -2.74147,2.73672 -3.82729,5.81487c-1.11809,3.16961 -0.63207,6.68534 -4.2431,6.83004c-4.13447,0.08676 -3.91499,-4.08944 -5.05403,-7.51727c-0.90704,-2.72964 -3.56119,-4.86426 -3.56119,-4.86426z" fill="#ffff94" fill-rule="nonzero" stroke="none" stroke-width="0" stroke-linecap="butt" stroke-linejoin="miter"/><path d="M478.57568,195.437c-1.60054,0.67543 -3.96763,-1.48848 -6.91859,-1.65333c-1.27215,-0.07106 -2.57984,1.8352 -4.10209,1.84568c-2.37621,0.01636 -2.77581,-1.70215 -5.64315,-1.68143c-3.83109,0.02767 -1.9662,-2.05769 -4.66479,-2.20763c-0.2105,-0.0117 -12.09039,3.36848 -12.29426,3.36232c-1.47129,-0.04447 -0.95386,1.59008 -0.86276,3.3116c0.09987,1.88741 -0.18234,3.86489 -1.03703,3.50194c-0.39917,-0.16951 -0.17725,-1.25056 -0.40584,-2.29199c-0.11612,-0.529 -0.66779,-0.99457 -0.82196,-1.43428c-0.68671,-1.95834 -1.49179,-4.46127 -2.0578,-6.04812c0.166,-0.32895 1.63072,-1.91736 2.00645,-2.58738c0.41466,-0.06359 1.71834,-0.91299 2.94815,-1.25171c1.2811,-0.35286 2.25208,-0.29763 3.6465,-0.34671c3.32318,-0.11695 7.98224,-0.00061 10.85947,-0.00061c3.21364,0 9.02795,-0.21076 12.82358,-0.08838c2.67982,0.0864 3.81462,0.3138 3.81462,0.3138c0.42745,0.29623 1.17856,0.70685 1.71327,0.79429c0.26197,0.17859 0.54883,0.32338 0.85432,0.42807c0.42648,0.61973 1.04279,1.0987 1.76499,1.35297c0.14999,0.24363 0.32828,0.46797 0.53033,0.66842c0.16966,0.48567 0.44085,0.92369 0.78812,1.28864c0.05751,0.16501 0.12674,0.32452 0.20668,0.47754c-0.64613,0.81931 -1.64014,1.60988 -3.14822,2.2463z" fill="#ffff94" fill-rule="nonzero" stroke="none" stroke-width="0" stroke-linecap="butt" stroke-linejoin="miter"/><path d="M474.25214,196.07727c0,0 3.18427,9.3636 0.40555,9.50731c-2.8209,0.1459 -0.40555,-9.50731 -0.40555,-9.50731z" fill="#ffff94" fill-rule="nonzero" stroke="none" stroke-width="0" stroke-linecap="butt" stroke-linejoin="miter"/><path d="M482.55713,207.24825c0,0 -3.17665,-1.95851 -2.98175,-5.38249c0.16841,-2.9587 1.01483,-6.6149 1.76,-9.35887c0.05799,0.07107 0.11865,0.13989 0.18183,0.20628c0.14675,0.42106 0.3698,0.80636 0.6526,1.13935c0.07045,0.37251 0.1985,0.72464 0.37456,1.04679z" fill="#ffff94" fill-rule="nonzero" stroke="none" stroke-width="0" stroke-linecap="butt" stroke-linejoin="miter"/><path d="M481.84424,225.3627c-5.83743,-0.00419 -35.82934,0.0763 -44.7493,0.12184v-28.79979c0,-4.98822 4.12893,-9.00402 9.25766,-9.00402h26.234c5.12873,0 9.25764,4.0158 9.25764,9.00402z" fill="url(#color-3)" fill-rule="nonzero" stroke="none" stroke-width="4.43922" stroke-linecap="butt" stroke-linejoin="miter"/><path d="M482.11712,222.96366c0,4.96655 -4.11097,8.96489 -9.21742,8.96489h-26.12002c-5.10644,0 -9.21742,-3.99835 -9.21742,-8.96489v-10.61059c8.88121,0.04533 18.3634,0.13124 27.11866,0.13175c5.81207,0.00033 11.62414,-0.00626 17.43622,-0.01044z" fill="url(#color-4)" fill-rule="nonzero" stroke="none" stroke-width="4.43922" stroke-linecap="butt" stroke-linejoin="miter"/><path d="M447.27967,188.01096h26.12002c5.10646,0 9.21741,3.99835 9.21741,8.96489v25.40446c0,4.96655 -4.11096,8.96489 -9.21741,8.96489h-26.12002c-5.10644,0 -9.21743,-3.99836 -9.21743,-8.96489v-25.40445c0,-4.96655 4.11099,-8.96489 9.21743,-8.96489z" fill="none" fill-rule="evenodd" stroke="url(#color-5)" stroke-width="2.5" stroke-linecap="round" stroke-linejoin="round"/><g fill="#fcff63" fill-rule="nonzero" stroke="none" stroke-width="0" stroke-linecap="butt" stroke-linejoin="miter"><g><path d="M443.83336,225.71409v-25.44128h13.5084v2.21872l1.75109,-1.40519l1.29208,1.45863l1.12152,-1.57296l1.67228,1.51952v-2.21872h13.34163v25.44128zM460.17684,203.23111c-7.78285,0 -14.09209,4.63565 -14.09209,10.35401c0,5.71836 6.30924,10.35401 14.0921,10.35401c7.78285,0 14.09209,-4.63565 14.09209,-10.35401c0,-5.71836 -6.30924,-10.35401 -14.09209,-10.35401z"/><path d="M473.097,213.47284c0,5.20852 -5.83738,9.43086 -12.79128,9.43086c-6.95391,0 -12.89135,-4.22234 -12.89135,-9.43085c0,-5.20852 5.93744,-9.43086 12.89135,-9.43086c6.95391,0 12.79129,4.22234 12.79129,9.43086zM462.44426,213.67035c-3.12895,-0.58759 -7.05895,0.6244 -7.44336,3.59421c-0.00482,3.87714 8.52031,5.7275 10.50691,1.25446c0.98722,-2.2228 -0.48469,-4.36437 -3.06355,-4.84867zM469.32173,211.68071c0,-1.3479 -1.23198,-2.44059 -2.75171,-2.44059c-1.51973,0 -2.75171,1.09269 -2.75171,2.44059c0,0.64178 1.24762,0.97798 2.55481,1.00862c-0.16227,0.84512 -0.17802,1.98158 0.81778,1.4475c0.54918,-0.29454 0.43783,-0.93556 0.27095,-1.49394c1.02194,-0.1155 1.85988,-0.43622 1.85988,-0.96218zM457.37681,211.73616c0,-1.3479 -1.23198,-2.44059 -2.75171,-2.44059c-1.51973,0 -2.75171,1.09269 -2.75171,2.44059c0,1.3479 5.50342,1.3479 5.50342,0zM451.76707,218.37012c1.03618,0 1.87616,-0.74501 1.87616,-1.66404c0,-0.91902 -0.83998,-1.66404 -1.87616,-1.66404c-1.03618,0 -1.87616,0.74501 -1.87616,1.66404c0,0.91902 0.83998,1.66404 1.87616,1.66404zM468.97777,218.45887c1.03618,0 1.87616,-0.74501 1.87616,-1.66404c0,-0.91902 -0.83998,-1.66404 -1.87616,-1.66404c-1.03618,0 -1.87616,0.74501 -1.87616,1.66404c0,0.91902 0.83998,1.66404 1.87616,1.66404zM454.43748,206.57767l0.06313,0.09259c-0.70095,0.93424 -1.17279,1.06291 -2.35508,1.36239c0,0 -0.36079,0.09143 -0.25771,0.41143c0.10308,0.32001 0.46388,0.22858 0.46388,0.22858c1.33711,-0.33899 1.97433,-0.57431 2.77311,-1.63288l0.06313,-0.46209c0,0 0,-0.33281 -0.37523,-0.33281c-0.37523,0 -0.37523,0.33281 -0.37523,0.33281zM469.07158,207.63156l-0.12423,0.00452c-0.88082,0.13315 -1.38353,-0.31764 -1.71974,-1.02311c0,0 -0.14781,-0.3059 -0.4927,-0.1748c-0.3449,0.1311 -0.19708,0.437 -0.19708,0.437c0.48151,0.98502 1.29385,1.59713 2.5329,1.41747l0.00085,0.00452c0,0 0.37523,0 0.37523,-0.33281c0,-0.33281 -0.37523,-0.33281 -0.37523,-0.33281z"/><path d="M457.84206,201.38217v-1.18331h4.83634v1.18331l-1.25654,-0.79735l-1.11994,1.31505l-1.1685,-1.25312z"/><path d="M465.02076,217.40976c0,1.77121 -1.99085,2.80365 -4.5028,2.80365c-2.51195,0 -4.59377,-1.03244 -4.59377,-2.80365c0,-1.77121 2.03634,-3.20705 4.54828,-3.20705c1.09865,0 2.19729,0.23433 2.9834,0.69159c1.01124,0.58822 1.56488,1.51893 1.56488,2.51546zM460.92731,214.75738c-1.64034,0 -4.48822,1.33576 -1.29498,1.7898c0.11752,0.01671 0.23631,0.02601 0.35528,0.02869c-0.20694,0.70845 -0.40098,1.41797 -0.41293,2.14443c-0.2581,-0.02253 -0.52107,-0.05794 -0.78995,-0.10442c-1.06078,-0.4752 -1.87549,-1.36839 -1.87127,-2.47685c0,0 0,-0.11094 -0.12508,-0.11094c-0.12508,0 -0.12508,0.11094 -0.12508,0.11094c0.00395,1.20462 0.87663,2.17551 2.04024,2.68671c1.58786,0.28806 2.99883,0.18184 4.38425,-0.61708l0.07863,-0.03407c0,0 0.11188,-0.04961 0.05594,-0.14884c-0.05594,-0.09923 -0.16781,-0.04961 -0.16781,-0.04961l-0.1033,0.04661c-1.01152,0.58556 -2.02686,0.7757 -3.12703,0.71534c-0.00188,-0.72967 0.20791,-1.45144 0.42122,-2.16648c1.80616,-0.09851 3.46064,-1.59793 0.98637,-1.6888c-0.10872,-0.12543 -0.30451,-0.12543 -0.30451,-0.12543zM460.251,219.4627l-0.11693,0.03608c-0.52056,-0.00641 -1.00193,-0.14959 -1.4809,-0.16279c0,0 -0.12508,0 -0.12508,0.11094c0,0.11094 0.12508,0.11094 0.12508,0.11094c0.44886,-0.02132 1.01433,0.16457 1.52097,0.15993l0.15597,-0.0446c0,0 0.11866,-0.03508 0.0791,-0.14033c-0.03955,-0.10524 -0.15821,-0.07016 -0.15821,-0.07016z"/><path d="M445.73605,199.29696l5.69502,-8.75525l5.15263,8.75525h-2.54919l-2.49496,-5.53217l-2.82039,5.53217z"/><path d="M471.11148,199.29696l-2.82039,-5.53217l-2.49496,5.53217h-2.54919l5.15263,-8.75525l5.69502,8.75525z"/></g><path d="M456.74387,211.01686c-0.11451,0.23521 -0.49403,0.18244 -0.97753,-0.05294c-0.4835,-0.23539 -0.78262,-0.61688 -0.66811,-0.8521c0.11451,-0.23521 0.38877,-0.34034 0.87227,-0.10495c0.4835,0.23539 0.88788,0.77478 0.77337,1.00999z"/><path d="M468.84913,211.01686c-0.11451,0.23522 -0.49403,0.18244 -0.97753,-0.05294c-0.4835,-0.23539 -0.78262,-0.61688 -0.66811,-0.85209c0.11451,-0.23522 0.38877,-0.34034 0.87227,-0.10496c0.4835,0.23539 0.88788,0.77478 0.77337,1.01z"/></g><text transform="translate(487.66791,224.24829) scale(0.27448,0.35504)" font-size="40" xml:space="preserve" fill="url(#color-6)" fill-rule="nonzero" stroke="none" stroke-width="1" stroke-linecap="butt" stroke-linejoin="miter" font-family="&quot;Allan-Regular&quot;, Sans Serif" font-weight="normal" text-anchor="start"><tspan x="0" dy="0">spend 10 minutes in Lanky box mode</tspan></text></g></g></svg>